<svg width="64" height="64" viewBox="0 0 64 64" fill="none" xmlns="http://www.w3.org/2000/svg">
<circle cx="32" cy="32" r="32" fill="#8347E5"/>
<path d="M42.2872 25.1973C41.5561 24.7819 40.6162 24.7819 39.7807 25.1973L33.9321 28.6246L29.9634 30.8056L24.2193 34.2329C23.4882 34.6484 22.5483 34.6484 21.7128 34.2329L17.2219 31.5326C16.4909 31.1172 15.9687 30.2864 15.9687 29.3516V24.1588C15.9687 23.3279 16.3864 22.497 17.2219 21.9777L21.7128 19.3813C22.4439 18.9659 23.3838 18.9659 24.2193 19.3813L28.7102 22.0816C29.4413 22.497 29.9634 23.3279 29.9634 24.2626V27.6899L33.9321 25.405V21.8739C33.9321 21.043 33.5144 20.2122 32.6789 19.6929L24.3238 14.8116C23.5927 14.3961 22.6527 14.3961 21.8172 14.8116L13.2533 19.7967C12.4178 20.2122 12 21.043 12 21.8739V31.6365C12 32.4674 12.4178 33.2982 13.2533 33.8175L21.7128 38.6988C22.4439 39.1142 23.3838 39.1142 24.2193 38.6988L29.9634 35.3754L33.9321 33.0905L39.6762 29.7671C40.4073 29.3516 41.3473 29.3516 42.1828 29.7671L46.6736 32.3635C47.4047 32.7789 47.9269 33.6098 47.9269 34.5445V39.7374C47.9269 40.5683 47.5091 41.3991 46.6736 41.9184L42.2872 44.5148C41.5561 44.9303 40.6162 44.9303 39.7807 44.5148L35.2898 41.9184C34.5587 41.503 34.0366 40.6721 34.0366 39.7374V36.4139L30.0679 38.6988V42.1261C30.0679 42.957 30.4856 43.7878 31.3211 44.3071L39.7807 49.1884C40.5117 49.6039 41.4517 49.6039 42.2872 49.1884L50.7467 44.3071C51.4778 43.8917 52 43.0608 52 42.1261V32.2596C52 31.4288 51.5822 30.5979 50.7467 30.0786L42.2872 25.1973Z" fill="white"/>
</svg>
