<svg width="64" height="64" viewBox="0 0 64 64" fill="none" xmlns="http://www.w3.org/2000/svg">
<circle cx="32" cy="32" r="32" fill="url(#paint0_linear_18011_2326)"/>
<path fill-rule="evenodd" clip-rule="evenodd" d="M42.6055 21.2616C41.1225 17.2907 37.2362 16.8678 32.6902 17.6681L31.1749 12.0138L27.7353 12.9371L29.2093 18.4428C28.3234 18.6786 27.4249 18.9389 26.5277 19.1989L26.4705 19.2154L24.9878 13.6734L21.5472 14.595L23.0615 20.2476L22.9126 20.2906L22.9125 20.2906C22.2227 20.49 21.5439 20.6863 20.8782 20.8632L20.873 20.8456L16.1259 22.1163L17.1112 25.7915C17.1112 25.7915 19.6405 25.0617 19.6107 25.1194C21.0049 24.7468 21.6742 25.4345 21.9943 26.0986L23.7211 32.5389C23.8167 32.5133 23.9426 32.4847 24.0913 32.464L23.7275 32.5628L26.1452 41.586C26.2003 42.0402 26.13 42.8086 25.1556 43.0721C25.2113 43.0984 22.6551 43.7424 22.6551 43.7424L23.0721 48.0343L27.5519 46.834C28.0333 46.7059 28.5117 46.5833 28.9852 46.462L28.9853 46.462L28.9861 46.4618C29.3314 46.3733 29.6742 46.2855 30.0135 46.1967L31.5476 51.9138L34.9854 50.9914L33.4702 45.3371C34.4189 45.1016 35.3345 44.8639 36.2268 44.6254L37.7339 50.2568L41.1735 49.3335L39.6453 43.6269C45.3431 41.7445 49.0012 39.2023 48.0483 33.6342C47.2829 29.1511 44.7014 27.7489 41.2058 27.8411C42.9304 26.2906 43.6968 24.1668 42.6055 21.2616ZM41.0642 34.7805C42.1186 38.6997 35.937 40.2644 33.1075 40.9805L33.1073 40.9806C32.8525 41.0451 32.6248 41.1027 32.4321 41.1545L30.4045 33.5776C30.6398 33.5147 30.9238 33.4314 31.2456 33.3371L31.2458 33.337C34.1166 32.4954 39.9922 30.773 41.0642 34.7805ZM30.0474 29.9622C32.4084 29.3713 37.5565 28.0828 36.6018 24.5192C35.6253 20.8743 30.7313 22.3264 28.3408 23.0357C28.0713 23.1157 27.8337 23.1862 27.637 23.2389L29.4779 30.1076C29.6401 30.0642 29.8321 30.0161 30.0474 29.9622Z" fill="white"/>
<defs>
<linearGradient id="paint0_linear_18011_2326" x1="30.2246" y1="-11.5236" x2="-10.9166" y2="32.7603" gradientUnits="userSpaceOnUse">
<stop stop-color="#18E2C1"/>
<stop offset="1" stop-color="#0AC18E"/>
</linearGradient>
</defs>
</svg>
