<svg width="64" height="64" viewBox="0 0 64 64" fill="none" xmlns="http://www.w3.org/2000/svg">
<rect width="64" height="64" rx="32" fill="black"/>
<path d="M32.0046 15C34.2864 15 36.4948 15.449 38.5842 16.3288C39.693 16.7961 40.756 17.3918 41.7457 18.0882L41.5349 18.1982L38.8224 19.5819C36.7514 18.4273 34.3963 17.8225 32.0046 17.8225C31.9679 17.8225 31.9313 17.8225 31.8946 17.8225C30.0527 17.8408 28.2566 18.2073 26.5613 18.9129C24.866 19.6277 23.3448 20.6449 22.0435 21.9462C19.386 24.6128 17.9198 28.1501 17.9198 31.9072C17.9198 32.5212 17.9565 33.1352 18.0389 33.7491L18.0664 33.9416L18.2405 33.8499L41.6541 21.9095L46.5017 19.4353L51.9908 16.6312V19.8018L46.3368 22.6884L43.5601 24.0997L18.882 36.6999L18.772 36.764L17.5074 37.4055L16.2245 38.0561V38.047L16.1054 38.1019L12 40.2005V37.0298L13.3929 36.3242C14.5567 35.7285 15.2531 34.5006 15.1523 33.1901C15.1249 32.7595 15.1065 32.3288 15.1065 31.8981C15.1065 29.6163 15.5556 27.3986 16.4353 25.3093C17.2875 23.2932 18.5063 21.488 20.055 19.9301C21.6037 18.3814 23.4089 17.1535 25.425 16.3013C27.5052 15.449 29.7228 15 32.0046 15Z" fill="white"/>
<path d="M52 24.0447V27.2154L50.6071 27.921C49.4433 28.5166 48.7469 29.7446 48.8477 31.055C48.8843 31.4857 48.8935 31.9255 48.8935 32.3562C48.8935 34.638 48.4444 36.8557 47.5647 38.945C46.7125 40.9611 45.4937 42.7663 43.945 44.3242C42.3963 45.882 40.5819 47.1008 38.575 47.953C36.4948 48.8328 34.2772 49.2818 31.9954 49.2818C29.7136 49.2818 27.5052 48.8328 25.4158 47.953C24.2978 47.4765 23.2348 46.8809 22.2451 46.1844L25.0493 44.7549L25.1592 44.6999C27.2302 45.8545 29.5945 46.4685 31.9954 46.4685C32.0321 46.4685 32.0596 46.4685 32.0962 46.4685C33.9381 46.4593 35.7343 46.0928 37.4296 45.378C39.1249 44.6632 40.646 43.6461 41.9473 42.3448C44.6048 39.6873 46.071 36.1409 46.071 32.3837C46.071 31.7698 46.0344 31.1466 45.9519 30.5327L45.9244 30.3402L45.7503 30.4318L22.3184 42.354L17.4708 44.8282L12 47.614V44.4433L17.6357 41.5659L20.4124 40.1546L52 24.0447Z" fill="white"/>
</svg>
