<svg width="64" height="64" viewBox="0 0 64 64" fill="none" xmlns="http://www.w3.org/2000/svg">
<path d="M32 64C49.6731 64 64 49.6731 64 32C64 14.3269 49.6731 0 32 0C14.3269 0 0 14.3269 0 32C0 49.6731 14.3269 64 32 64Z" fill="url(#paint0_linear_18011_2251)"/>
<path d="M35.4106 34.953V34.9479C35.1894 34.9633 34.0473 35.0302 31.5058 35.0302C29.4736 35.0302 28.0485 34.9736 27.5444 34.9479V34.953C19.7296 34.6083 13.9006 33.2501 13.9006 31.6193C13.9006 29.9935 19.7347 28.6302 27.5444 28.2855V33.6C28.0537 33.636 29.5199 33.7234 31.5418 33.7234C33.9701 33.7234 35.1842 33.6205 35.4106 33.6V28.2906C43.21 28.6405 49.0235 29.9987 49.0235 31.6244C49.0235 33.2501 43.2048 34.6083 35.4106 34.9582V34.953ZM35.4106 27.7402V22.9865H46.2916V15.7376H16.6685V22.9865H27.5495V27.7402C18.7058 28.1466 12.0588 29.8958 12.0588 31.9948C12.0588 34.0939 18.7109 35.8431 27.5495 36.2546V51.4932H35.4157V36.2546C44.244 35.8482 50.8807 34.099 50.8807 32C50.8807 29.9061 44.244 28.1517 35.4157 27.7453" fill="white"/>
<defs>
<linearGradient id="paint0_linear_18011_2251" x1="32" y1="0" x2="32" y2="64" gradientUnits="userSpaceOnUse">
<stop stop-color="#26A17B"/>
<stop offset="1" stop-color="#31BF93"/>
</linearGradient>
</defs>
</svg>
