<svg width="24" height="24" viewBox="0 0 24 24" fill="none" xmlns="http://www.w3.org/2000/svg">
<path fill-rule="evenodd" clip-rule="evenodd" d="M4.22183 4.22183C8.51759 -0.0739415 15.4824 -0.0739419 19.7782 4.22183C24.0739 8.51759 24.0739 15.4824 19.7782 19.7782C15.4824 24.0739 8.51759 24.0739 4.22183 19.7782C-0.0739415 15.4824 -0.0739419 8.51759 4.22183 4.22183ZM7.1635 6.93701C6.5849 7.5156 6.64654 8.52082 7.30506 9.19436L9.99745 11.8868L7.30575 14.5785C6.64706 15.252 6.58485 16.2578 7.1635 16.8365C7.74215 17.4152 8.748 17.3529 9.42155 16.6942L12.1132 14.0025L14.8049 16.6942C15.4785 17.3529 16.4844 17.4151 17.063 16.8365C17.6413 16.2578 17.5786 15.2526 16.9201 14.5791L14.2284 11.8874C15.5151 10.6016 16.6701 9.45127 16.9214 9.19436C17.5797 8.52082 17.6415 7.51553 17.063 6.93701C16.4845 6.35848 15.4792 6.42028 14.8056 7.07856L12.1126 9.77165L9.42017 7.07925C8.74673 6.42084 7.74214 6.35868 7.1635 6.93701Z" fill="black"/>
</svg>
