<svg width="24" height="24" viewBox="0 0 24 24" fill="none" xmlns="http://www.w3.org/2000/svg">
<path d="M12.0625 0.9375C18.1376 0.9375 23.0625 5.86237 23.0625 11.9375C23.0625 18.0126 18.1376 22.9375 12.0625 22.9375C9.439 22.9375 7.03168 22.0174 5.1416 20.4844C4.99578 20.4301 4.82499 20.4638 4.71191 20.585L3.64941 21.7139C3.1772 22.2204 2.32592 21.9219 2.27148 21.2305L1.91211 16.6436C1.89929 16.4794 1.93769 16.3251 2.01172 16.1934C2.01638 16.1851 2.02142 16.177 2.02637 16.1689C2.06599 16.104 2.11395 16.0451 2.16992 15.9941C2.17282 15.9915 2.17577 15.9889 2.17871 15.9863C2.20754 15.9609 2.23721 15.9361 2.26953 15.915C2.27316 15.9127 2.27758 15.9115 2.28125 15.9092C2.31101 15.8904 2.34178 15.8731 2.37402 15.8584C2.37985 15.8557 2.3857 15.8531 2.3916 15.8506C2.46268 15.8202 2.53925 15.8013 2.61914 15.793C2.62695 15.7921 2.6347 15.7906 2.64258 15.79C2.65327 15.7892 2.664 15.7885 2.6748 15.7881L2.76562 15.79C3.54395 15.8511 4.66102 15.938 5.50098 16.0039C6.0568 16.0475 6.73367 16.1008 7.35352 16.1494C8.04493 16.2036 8.34388 17.0539 7.83789 17.5264L6.70801 18.5889C6.54351 18.7424 6.53965 19.0025 6.69922 19.1621C8.19726 20.2766 10.0517 20.9375 12.0625 20.9375C17.0331 20.9375 21.0625 16.9081 21.0625 11.9375C21.0625 6.96694 17.0331 2.9375 12.0625 2.9375C7.09194 2.9375 3.0625 6.96694 3.0625 11.9375C3.0625 12.7672 3.17655 13.5701 3.38672 14.333L2.88281 14.2939L2.62207 14.2881C2.1733 14.3031 1.75599 14.4473 1.4082 14.6855C1.18231 13.8072 1.0625 12.8863 1.0625 11.9375C1.0625 5.86237 5.98737 0.9375 12.0625 0.9375Z" fill="black"/>
<path d="M11.75 5.25C12.3023 5.25 12.75 5.69772 12.75 6.25V11.3213L15.5049 10.1279L15.6006 10.0918C16.0836 9.9386 16.6146 10.1734 16.8203 10.6484C17.0255 11.1233 16.8336 11.6707 16.3916 11.918L16.2998 11.9639L12.1494 13.7617C12.147 13.7627 12.144 13.7627 12.1416 13.7637C12.1056 13.779 12.0683 13.7916 12.0303 13.8027C11.9749 13.8189 11.9192 13.8306 11.8633 13.8369C11.843 13.8392 11.8224 13.8398 11.8018 13.8408C11.7861 13.8416 11.7705 13.8427 11.7549 13.8428L11.75 13.8438C11.7297 13.8438 11.7095 13.842 11.6895 13.8408C11.68 13.8402 11.6705 13.8397 11.6611 13.8389C11.6404 13.837 11.6199 13.8341 11.5996 13.8311C11.5859 13.8289 11.5722 13.8269 11.5586 13.8242C11.0981 13.7348 10.7502 13.3303 10.75 12.8438V6.25C10.75 5.69772 11.1977 5.25 11.75 5.25Z" fill="black"/>
</svg>
