<svg width="24" height="24" viewBox="0 0 24 24" fill="none" xmlns="http://www.w3.org/2000/svg">
<path d="M10.9834 1.68458C11.3551 0.771807 12.645 0.771807 13.0166 1.68458L14.7852 6.02833C15.247 7.16227 16.2973 7.94703 17.5137 8.06641L22.0078 8.50684C22.95 8.59943 23.3417 9.76416 22.6475 10.4092L19.0938 13.71L18.9395 13.8633C18.1983 14.6488 17.8851 15.7541 18.1123 16.8203L19.1445 21.667C19.3343 22.5582 18.435 23.253 17.6445 22.9111L17.4883 22.8291L13.749 20.4805C12.6794 19.8088 11.3207 19.8088 10.251 20.4805L6.51173 22.8291L6.35548 22.9111C5.56501 23.253 4.66572 22.5582 4.85548 21.667L5.88771 16.8203C6.11492 15.7541 5.80177 14.6488 5.06056 13.8633L4.90626 13.71L1.35255 10.4092C0.658341 9.76416 1.05008 8.59944 1.9922 8.50684L6.48634 8.06641C7.62675 7.95449 8.62078 7.25741 9.12111 6.23634L9.21486 6.02833L10.9834 1.68458ZM11.0674 6.78223C10.3725 8.4888 8.84575 9.70433 7.04494 10.0078L6.68166 10.0566L4.1758 10.3018L6.26759 12.2451L6.51466 12.4902C7.62628 13.6679 8.13824 15.2914 7.90529 16.8936L7.84376 17.2363L7.2549 20L9.18751 18.7871L9.51466 18.5967C11.1783 17.7105 13.2 17.7745 14.8125 18.7871L16.7442 20L16.1563 17.2363C15.7676 15.4116 16.3652 13.5155 17.7324 12.2451L19.8233 10.3018L17.3184 10.0566C15.4837 9.87659 13.8863 8.75618 13.083 7.1172L12.9326 6.78223L12 4.49122L11.0674 6.78223Z" fill="black"/>
</svg>
