<svg width="24" height="24" viewBox="0 0 24 24" fill="none" xmlns="http://www.w3.org/2000/svg">
<path fill-rule="evenodd" clip-rule="evenodd" d="M12 2.5C18.6274 2.5 24 7.87258 24 14.5C24 15.0651 23.9606 15.6209 23.8848 16.165C23.6645 17.7446 23.5539 18.535 22.4248 19.5176C21.2958 20.4998 20.123 20.5 17.7773 20.5H6.22266C3.87699 20.5 2.70415 20.4998 1.5752 19.5176C0.446108 18.535 0.335528 17.7446 0.115234 16.165C0.039372 15.6209 0 15.0651 0 14.5C0 7.87258 5.37258 2.5 12 2.5ZM5.90179 7.84175C5.64182 7.45835 5.10059 7.39306 4.78657 7.7336C3.15364 9.50435 2.15625 11.8701 2.15625 14.4688C2.15625 15.7335 2.39394 16.5786 2.8252 17.6045C2.93476 17.8651 3.19287 18.0312 3.47559 18.0312C4.01863 18.0312 4.35843 17.4512 4.14648 16.9512C3.82922 16.2026 3.65625 15.465 3.65625 14.4688C3.65625 12.303 4.47372 10.3294 5.8153 8.83579C6.06342 8.55954 6.11017 8.14908 5.90179 7.84175ZM18.1765 7.72471C17.9662 8.03507 18.0173 8.45022 18.2727 8.72476C19.6738 10.2309 20.5312 12.2494 20.5312 14.4688C20.5312 15.465 20.3583 16.2026 20.041 16.9512C19.8291 17.4512 20.1689 18.0312 20.7119 18.0312C20.9946 18.0312 21.2527 17.8651 21.3623 17.6045C21.7936 16.5786 22.0312 15.7335 22.0312 14.4688C22.0312 11.8072 20.9834 9.3919 19.2794 7.60839C18.9641 7.27841 18.4326 7.34693 18.1765 7.72471ZM16.6758 9.69824C16.3744 9.45387 15.94 9.48174 15.6719 9.75098L15.6211 9.80762L12.9902 13.0459C12.757 13.333 12.3699 13.4287 12 13.4287C10.8955 13.4287 10.0001 14.3243 10 15.4287C10 16.5333 10.8954 17.4287 12 17.4287C13.1046 17.4287 14 16.5333 14 15.4287C14 15.3195 13.9915 15.2119 13.9746 15.1074C13.9102 14.708 13.9265 14.273 14.1816 13.959L16.7852 10.7539L16.8301 10.6924C17.0388 10.3746 16.9772 9.94311 16.6758 9.69824ZM12.0938 4.53125C10.3292 4.53125 8.67224 4.9915 7.2359 5.79809C6.87233 6.00226 6.78142 6.47462 7.01534 6.8198C7.24643 7.1608 7.70769 7.24866 8.06955 7.05184C9.26565 6.40126 10.6364 6.03125 12.0938 6.03125C13.4999 6.03125 14.8249 6.37668 15.9905 6.98557C16.3513 7.17399 16.8048 7.08334 17.0331 6.74644C17.2699 6.39705 17.1738 5.91857 16.8024 5.71812C15.401 4.96181 13.798 4.53125 12.0938 4.53125Z" fill="black"/>
</svg>
