<svg width="24" height="24" viewBox="0 0 24 24" fill="none" xmlns="http://www.w3.org/2000/svg">
<path d="M8.8846 10.6191L7.95491 10.5869C5.69363 10.5089 4.41657 13.1584 5.89046 14.8779L10.0262 19.7021L10.1258 19.8125C11.1807 20.9125 12.97 20.874 13.9744 19.7021L18.1082 14.8789L18.2381 14.7148C19.4594 13.0522 18.314 10.6719 16.2528 10.5889H16.0428L15.1844 10.6182V7.59961H17.1658C18.5471 7.59968 19.7825 8.4555 20.2508 9.75195C21.0418 11.9427 22.2012 15.2388 22.6151 16.8457C22.7303 17.2932 22.8358 17.7757 22.9295 18.2656C23.4126 20.7923 21.3583 22.9999 18.7801 23H5.03792C2.54194 22.9998 0.577886 20.927 1.07796 18.4873C1.18461 17.9673 1.30937 17.4165 1.45589 16.8457C2.00791 14.6956 3.13248 11.6551 3.90608 9.65625C4.38917 8.40819 5.59734 7.59972 6.93831 7.59961H8.8846V10.6191Z" fill="black"/>
<path d="M12.5838 1C13.1912 1 13.6842 1.49228 13.6844 2.09961V11.6025C13.6845 11.9136 13.9419 12.163 14.2528 12.1523L16.0955 12.0879C17.0526 12.0548 17.5919 13.1761 16.9686 13.9033L12.8348 18.7256C12.3959 19.2377 11.6039 19.2385 11.1649 18.7266C10.4633 17.9081 9.45717 16.7329 8.70003 15.8496C8.19892 15.265 7.588 14.5534 7.02913 13.9014C6.40595 13.1743 6.94528 12.0533 7.90218 12.0859L9.81526 12.1523C10.1262 12.1629 10.3836 11.9136 10.3836 11.6025V2.09961C10.3838 1.49227 10.8768 1 11.4842 1H12.5838Z" fill="black"/>
</svg>
