<svg width="24" height="24" viewBox="0 0 24 24" fill="none" xmlns="http://www.w3.org/2000/svg">
<path d="M12.0166 1C12.8299 1 13.7313 1.00743 14.6562 1.01953C18.5065 1.06992 20.4317 1.09527 21.6758 2.33789C22.9199 3.58087 22.9412 5.50497 22.9834 9.35254C22.9935 10.2744 23 11.1728 23 11.9834C23 12.8061 22.9938 13.7189 22.9834 14.6553C22.9409 18.4874 22.9192 20.4033 21.6787 21.6455C20.4382 22.8877 18.5247 22.9175 14.6982 22.9766C13.7587 22.9911 12.8423 23 12.0166 23C11.1788 23 10.248 22.9905 9.29395 22.9756C5.48283 22.9162 3.57654 22.887 2.33691 21.6484C1.09728 20.4098 1.07172 18.5053 1.02051 14.6973C1.00772 13.7463 1 12.8184 1 11.9834C1 11.1605 1.00804 10.2471 1.02051 9.31055C1.07139 5.48719 1.09669 3.57538 2.33984 2.33594C3.58309 1.0965 5.50073 1.07124 9.33594 1.02051C10.2753 1.00808 11.1912 1 12.0166 1ZM6.7002 15.5938C5.76131 15.5938 5 16.3551 5 17.2939C5.00011 18.2327 5.76138 18.9941 6.7002 18.9941C7.63892 18.994 8.40029 18.2327 8.40039 17.2939C8.40039 16.3551 7.63899 15.5939 6.7002 15.5938ZM10.9639 16.3457C10.4402 16.3458 10.0156 16.7702 10.0156 17.2939C10.0157 17.8176 10.4402 18.2421 10.9639 18.2422H18.0518C18.5754 18.2421 18.9999 17.8176 19 17.2939C19 16.7702 18.5755 16.3458 18.0518 16.3457H10.9639ZM6.7002 10.252C5.76131 10.252 5 11.0133 5 11.9521C5.00014 12.8909 5.7614 13.6523 6.7002 13.6523C7.6389 13.6522 8.40025 12.8909 8.40039 11.9521C8.40039 11.0133 7.63899 10.2521 6.7002 10.252ZM11.0137 11.0039C10.4624 11.004 10.0156 11.4507 10.0156 12.002C10.0157 12.5531 10.4625 12.9999 11.0137 13H18.002C18.5531 12.9999 18.9999 12.5531 19 12.002C19 11.4507 18.5532 11.004 18.002 11.0039H11.0137ZM6.7002 5C5.76131 5 5 5.76131 5 6.7002C5.00011 7.63899 5.76138 8.40039 6.7002 8.40039C7.63892 8.40029 8.40029 7.63892 8.40039 6.7002C8.40039 5.76138 7.63899 5.00011 6.7002 5ZM10.9639 5.75195C10.4402 5.75205 10.0156 6.17646 10.0156 6.7002C10.0157 7.22385 10.4402 7.64834 10.9639 7.64844H18.0518C18.5754 7.64834 18.9999 7.22385 19 6.7002C19 6.17646 18.5755 5.75205 18.0518 5.75195H10.9639Z" fill="black"/>
</svg>
