<svg width="24" height="24" viewBox="0 0 24 24" fill="none" xmlns="http://www.w3.org/2000/svg">
<path d="M16.59 7.41L6.31002 17.69C5.83002 18.17 5.01002 18.06 4.72002 17.45C4.20002 16.38 3.90002 15.17 3.90002 13.9C3.88002 8.38 9.48002 3.66 11.38 2.21C11.75 1.93 12.25 1.93 12.61 2.21C13.48 2.87 15.11 4.24 16.64 6.04C16.98 6.44 16.96 7.04 16.59 7.41Z" fill="black"/>
<path d="M20.1 13.91C20.1 18.37 16.47 22 12 22C10.21 22 8.54003 21.42 7.19003 20.42C6.70003 20.06 6.66003 19.34 7.09003 18.91L17.16 8.84002C17.63 8.37002 18.42 8.47002 18.74 9.05002C19.56 10.56 20.11 12.2 20.1 13.91Z" fill="black"/>
</svg>
