<svg width="24" height="24" viewBox="0 0 24 24" fill="none" xmlns="http://www.w3.org/2000/svg">
<path d="M12 10C13.1046 10 14 10.8954 14 12C14 13.1046 13.1046 14 12 14C10.8954 14 10 13.1046 10 12C10 10.8954 10.8954 10 12 10Z" fill="black"/>
<path fill-rule="evenodd" clip-rule="evenodd" d="M12 1C18.0751 1 23 5.92487 23 12C23 18.0751 18.0751 23 12 23C5.92487 23 1 18.0751 1 12C1 5.92487 5.92487 1 12 1ZM7.21777 6.04883C6.4955 5.8084 5.8084 6.4955 6.04883 7.21777L8.29395 13.9521C8.56993 14.7801 9.21988 15.4301 10.0479 15.7061L16.7822 17.9512C17.5045 18.1916 18.1916 17.5045 17.9512 16.7822C17.9512 16.7822 17.2665 14.73 16.8281 13.415C16.3928 12.1091 15.7154 10.0758 15.7061 10.0479C15.4301 9.21988 14.7801 8.56993 13.9521 8.29395L7.21777 6.04883Z" fill="black"/>
</svg>
