<svg width="24" height="24" viewBox="0 0 24 24" fill="none" xmlns="http://www.w3.org/2000/svg">
<g clip-path="url(#clip0_18003_7250)">
<path d="M11.4549 14.0423C10.7534 15.1964 10.3501 16.5511 10.3501 18C10.3501 20.4115 11.4701 22.56 13.2176 23.9595C12.2584 23.9819 11.2791 24 10.4087 24C7.3017 24 2.47923 23.802 2.47578 23.8018C2.16228 23.8018 1.96229 23.7242 1.83061 23.707C0.893909 23.5844 0.157269 22.8347 0.0369277 21.8821C0.0200267 21.7482 0.0187989 21.5884 0.0187989 21.2695C0.0187867 20.472 -0.0234925 18.9815 0.0187989 18.6467C0.320125 16.2653 2.16435 14.3899 4.50621 14.0838C4.83537 14.0409 5.22835 14.0423 6.01197 14.0423H11.4549Z" fill="black"/>
<path fill-rule="evenodd" clip-rule="evenodd" d="M17.994 12C21.3109 12.0002 24 14.6864 24 18C24 21.3136 21.3109 23.9998 17.994 24C16.9175 24 15.9075 23.7157 15.0337 23.2202C15.0247 23.2151 15.016 23.2093 15.007 23.2042C14.5953 22.9679 14.2142 22.6851 13.8713 22.3615C13.8463 22.3379 13.8213 22.3142 13.7967 22.2901C13.7584 22.2527 13.7209 22.2145 13.6836 22.1761C13.6618 22.1536 13.6401 22.1308 13.6186 22.108C13.5809 22.0679 13.5433 22.0276 13.5066 21.9865C13.4761 21.9523 13.4468 21.917 13.417 21.8821C13.3896 21.8498 13.3617 21.818 13.3349 21.7852C13.2975 21.7393 13.2612 21.6926 13.2251 21.6456C13.1206 21.5093 13.0214 21.3688 12.9286 21.2237C12.9113 21.1966 12.8944 21.1691 12.8774 21.1417C12.8432 21.0861 12.8097 21.0301 12.7772 20.9734C12.7674 20.9562 12.757 20.9395 12.7473 20.9222C12.7169 20.8678 12.6876 20.8126 12.6588 20.7571C12.6484 20.7369 12.6382 20.7167 12.6279 20.6964C12.6005 20.6421 12.5737 20.5875 12.5479 20.5323C12.5348 20.5041 12.5223 20.4755 12.5095 20.4471C12.3497 20.0902 12.2243 19.715 12.1363 19.3253C12.1324 19.3078 12.1273 19.2906 12.1235 19.2731C12.1101 19.211 12.0987 19.1484 12.0872 19.0856C12.0811 19.0523 12.0747 19.019 12.0691 18.9854C12.0627 18.9465 12.0567 18.9074 12.051 18.8683C12.0419 18.8057 12.0336 18.7429 12.0265 18.6797C12.0222 18.6418 12.0183 18.6038 12.0147 18.5657C12.0097 18.5116 12.0056 18.4572 12.0019 18.4027C11.9995 18.3655 11.9963 18.3282 11.9945 18.2908C11.9899 18.1945 11.9881 18.0975 11.9881 18C11.9881 17.9021 11.9898 17.8048 11.9945 17.7081C11.9947 17.7024 11.9952 17.6967 11.9955 17.6911L12.0137 17.4375C12.0147 17.4265 12.0158 17.4155 12.0169 17.4045C12.0208 17.3649 12.0261 17.3256 12.0307 17.2862C12.0369 17.2342 12.0435 17.1823 12.051 17.1307C12.0606 17.0642 12.0722 16.9983 12.084 16.9325C12.0896 16.902 12.0941 16.8713 12.1 16.8409C12.1092 16.7941 12.1197 16.7477 12.1299 16.7013C12.1398 16.6564 12.1499 16.6116 12.1608 16.5671C12.1735 16.5156 12.1874 16.4646 12.2014 16.4137C12.2125 16.3731 12.2235 16.3325 12.2355 16.2923C12.2503 16.2423 12.2653 16.1925 12.2813 16.1431C12.2911 16.1131 12.302 16.0834 12.3123 16.0536C13.1215 13.6955 15.3592 12 17.994 12ZM17.993 14.1477C17.5408 14.1479 17.174 14.5141 17.174 14.9659V17.25H14.8791C14.4268 17.25 14.0601 17.6163 14.0601 18.0682C14.0603 18.5199 14.4269 18.8864 14.8791 18.8864H17.174V21.179C17.174 21.6307 17.5408 21.997 17.993 21.9972C18.4451 21.9969 18.812 21.6307 18.812 21.179V18.8864H21.0983C21.5503 18.8861 21.9171 18.5197 21.9173 18.0682C21.9173 17.6165 21.5504 17.2503 21.0983 17.25H18.812V14.9659C18.812 14.5142 18.4451 14.1479 17.993 14.1477Z" fill="black"/>
<path d="M10.3501 0C13.4745 0.000253521 16.3556 2.82282 16.356 6C16.356 9.17759 13.4748 11.9997 10.3501 12C7.22517 12 4.34412 9.17774 4.34412 6C4.3446 2.82268 7.22547 1.9054e-06 10.3501 0Z" fill="black"/>
</g>
<defs>
<clipPath id="clip0_18003_7250">
<rect width="24" height="24" fill="white"/>
</clipPath>
</defs>
</svg>
