<svg width="24" height="24" viewBox="0 0 24 24" fill="none" xmlns="http://www.w3.org/2000/svg">
<path d="M6.36 7.78H2V11.25H6.36V7.78Z" fill="black"/>
<path d="M6.35999 6.29V2.13C4.07999 2.55 2.58999 4.02 2.14999 6.28H6.32999C6.33999 6.28 6.34999 6.29 6.35999 6.29Z" fill="black"/>
<path d="M6.36 16.31V12.75H2V16.28H6.24C6.28 16.28 6.32 16.3 6.36 16.31Z" fill="black"/>
<path d="M21.85 6.28C21.42 4.09 20.02 2.65 17.86 2.18V6.28H21.85Z" fill="black"/>
<path d="M16.36 11.25V2.01C16.31 2 16.25 2 16.19 2H7.85999V11.25H16.36Z" fill="black"/>
<path d="M22 12.75H17.86V16.28H22V12.75Z" fill="black"/>
<path d="M17.86 21.82C20 21.35 21.4 19.93 21.84 17.78H17.86V21.82Z" fill="black"/>
<path d="M6.24 17.78H2.16C2.62 20 4.1 21.45 6.36 21.87V17.76C6.32 17.77 6.28 17.78 6.24 17.78Z" fill="black"/>
<path d="M22 7.78H17.86V11.25H22V7.78Z" fill="black"/>
<path d="M7.85999 12.75V22H16.19C16.25 22 16.31 22 16.36 21.99V12.75H7.85999Z" fill="black"/>
</svg>
