<svg width="24" height="24" viewBox="0 0 24 24" fill="none" xmlns="http://www.w3.org/2000/svg">
<path d="M5.43066 18.9687C6.26841 18.9687 6.68799 18.9687 6.97754 19.244C7.26694 19.5194 7.2859 19.9014 7.32422 20.664C7.32982 20.7756 7.33301 20.8836 7.33301 20.9843C7.333 21.085 7.32983 21.1929 7.32422 21.3046C7.28589 22.0673 7.26709 22.4492 6.97754 22.7245C6.68799 22.9999 6.26841 22.9999 5.43066 22.9999H2.93555C2.05271 22.9999 1.61092 22.9994 1.31934 22.7138C1.02798 22.4282 1.01914 22.0139 1.00195 21.1855C1.00052 21.1162 1 21.0486 1 20.9843C1 20.9199 1.00051 20.8524 1.00195 20.7831C1.01915 19.9546 1.02809 19.5404 1.31934 19.2548C1.61092 18.9692 2.05271 18.9687 2.93555 18.9687H5.43066ZM13.1221 13.9999C14.0204 13.9999 14.4704 13.9991 14.7607 14.2782C15.0511 14.5574 15.0686 15.0022 15.1035 15.8905C15.1367 16.7356 15.166 17.716 15.166 18.4999C15.166 19.2837 15.1367 20.2634 15.1035 21.1083C15.0686 21.9965 15.051 22.4415 14.7607 22.7206C14.4704 22.9998 14.0205 22.9999 13.1221 22.9999H10.877C9.97885 22.9999 9.52956 22.9997 9.23926 22.7206C8.94897 22.4415 8.93151 21.9973 8.89648 21.1093C8.86315 20.2641 8.83302 19.284 8.83301 18.4999C8.83301 17.7158 8.86314 16.7348 8.89648 15.8896C8.93151 15.0016 8.94897 14.5573 9.23926 14.2782C9.52956 13.9992 9.97892 13.9999 10.877 13.9999H13.1221ZM21.0068 16.9999C21.8784 16.9999 22.3142 17.0003 22.6035 17.2743C22.8926 17.5484 22.9161 17.971 22.9619 18.8163C22.984 19.2249 22.999 19.643 22.999 19.9999C22.999 20.3568 22.984 20.775 22.9619 21.1835C22.9161 22.0288 22.8928 22.4515 22.6035 22.7255C22.3142 22.9995 21.8784 22.9999 21.0068 22.9999H18.6592C17.7772 22.9999 17.3358 22.9995 17.0459 22.7226C16.7562 22.4456 16.7364 22.016 16.6973 21.1571C16.679 20.7571 16.666 20.3491 16.666 19.9999C16.666 19.6507 16.679 19.2428 16.6973 18.8427C16.7364 17.9838 16.7563 17.5542 17.0459 17.2773C17.3358 17.0003 17.7772 16.9999 18.6592 16.9999H21.0068ZM11.4629 1.36124C11.6594 0.879343 12.3406 0.879339 12.5371 1.36124L13.4717 3.65714C13.7157 4.25606 14.2706 4.67009 14.9131 4.73331L17.2881 4.96671C17.786 5.01555 17.9928 5.63072 17.626 5.97159L15.748 7.71573C15.2983 8.1336 15.1014 8.75824 15.2295 9.35928L15.7754 11.9208C15.882 12.4229 15.3346 12.8066 14.9004 12.5341L12.9238 11.2939C12.3587 10.939 11.6413 10.939 11.0762 11.2939L9.09961 12.5341C8.6654 12.8066 8.11799 12.4229 8.22461 11.9208L8.77051 9.35928C8.89858 8.75824 8.70168 8.1336 8.25195 7.71573L6.37402 5.97159C6.00717 5.63072 6.21401 5.01555 6.71191 4.96671L9.08594 4.73331C9.72863 4.67026 10.2842 4.25622 10.5283 3.65714L11.4629 1.36124Z" fill="black"/>
</svg>
