<svg width="24" height="24" viewBox="0 0 24 24" fill="none" xmlns="http://www.w3.org/2000/svg">
<path d="M10.1025 17.0781C10.7615 17.0887 11.4204 17.0966 12.0791 17.0986C12.0868 17.0986 12.0949 17.0977 12.1025 17.0977L13.166 17.1113C14.4334 17.1264 15.3586 18.3145 15.0625 19.5469H15.0898C14.7152 20.9523 14.2355 22.0941 13.6875 22.8701C13.1373 22.9548 12.5739 23 12 23C11.4258 23 10.862 22.9549 10.3115 22.8701C9.63698 21.9146 9.06812 20.4037 8.66797 18.5312L8.63184 18.1826C8.5698 17.5924 9.03254 17.0784 9.62598 17.0781H10.1025Z" fill="black"/>
<path d="M2.10547 16.8086C3.09065 16.8527 4.07646 16.8935 5.0625 16.9316V16.9375H5.19531C5.61812 16.9537 6.04098 16.969 6.46387 16.9834C6.79257 17.0851 7.0543 17.3514 7.13965 17.6992L7.35156 18.5625H7.35645C7.56832 19.3936 7.8002 20.1662 8.0332 20.8652C8.22738 21.4477 8.44674 21.9964 8.69336 22.4941C5.79614 21.5821 3.41737 19.5031 2.10547 16.8086Z" fill="black"/>
<path d="M21.917 16.7627C20.6097 19.4798 18.2197 21.5771 15.3057 22.4941C15.5524 21.9963 15.7726 21.4479 15.9668 20.8652C16.105 20.4506 16.2406 20.01 16.3711 19.5469L16.6582 18.8486C17.0601 17.7998 18.0144 17.0636 19.1309 16.9404L19.9355 16.8506C20.3984 16.8272 20.8209 16.8057 21.2041 16.792C21.459 16.7828 21.6967 16.7717 21.917 16.7627Z" fill="black"/>
<path d="M14.1318 8.63281L14.8984 8.65625C15.4025 8.67166 15.816 9.06042 15.8633 9.5625L15.9219 10.1943C15.951 10.7833 15.9668 11.3862 15.9668 12C15.9668 12.2804 15.9622 12.5584 15.9561 12.834L15.8447 13.8408C15.7344 14.8352 14.9087 15.5848 13.9219 15.6162C13.308 15.6196 12.6638 15.625 11.9893 15.625C11.0182 15.6218 10.0468 15.6164 9.0752 15.6143C8.64161 15.5559 8.28899 15.2201 8.2207 14.7773L8.08008 13.8682C8.04891 13.2594 8.0332 12.6355 8.0332 12C8.0332 11.7639 8.05139 11.5363 8.07812 11.3018C8.24779 9.80246 9.50496 8.66266 11.0137 8.63965L11.9219 8.625C11.9893 8.6248 12.0566 8.62522 12.124 8.625C12.8261 8.625 13.4954 8.6291 14.1318 8.63281Z" fill="black"/>
<path d="M4.1709 8.68457C5.47673 8.69186 6.47607 9.80425 6.48535 11.1562C6.4876 11.4376 6.48438 11.7187 6.48438 12C6.48438 12.8245 6.52965 13.633 6.60938 14.418L6.61816 14.5156C6.66457 15.071 6.2497 15.5486 5.70801 15.5947C4.36046 15.5764 3.01295 15.5452 1.66699 15.4844C1.6317 15.4828 1.59723 15.4801 1.56348 15.4785C1.19919 14.385 1 13.2159 1 12C1 10.8808 1.1678 9.80076 1.47852 8.7832C1.57829 8.77803 1.68577 8.77086 1.80176 8.76562C2.59101 8.72998 3.381 8.70375 4.1709 8.68457Z" fill="black"/>
<path d="M19.1641 8.70703L19.1631 8.70508C19.9398 8.72429 20.6198 8.74458 21.2061 8.76562C21.7185 8.78402 22.1598 8.80137 22.5312 8.81836C22.8352 9.8257 23 10.8935 23 12C23 13.1972 22.8058 14.3488 22.4521 15.4277C22.0693 15.4454 21.6096 15.4651 21.0713 15.4844C20.508 15.5046 19.8581 15.5234 19.1191 15.542C18.1344 15.4632 17.3588 14.6183 17.4033 13.5996C17.4156 13.3193 17.4319 13.0392 17.4404 12.7588C17.4517 12.5061 17.4531 12.253 17.4531 12C17.4531 11.2168 17.414 10.4481 17.3467 9.7002C17.3387 9.14373 17.7907 8.68242 18.3545 8.6875C18.6244 8.69319 18.8942 8.7002 19.1641 8.70703Z" fill="black"/>
<path d="M15.3057 1.50488C18.3101 2.45026 20.7551 4.65196 22.0332 7.49219C21.7808 7.48159 21.5044 7.46976 21.2041 7.45898C20.5785 7.43652 19.8479 7.39849 19.0088 7.35547L19.0078 7.34375L17.7812 7.25586C17.3446 7.22455 16.9789 6.91249 16.8789 6.48633L16.6172 5.37109H16.6133C16.4136 4.56529 16.1936 3.81511 15.9668 3.13477C15.7725 2.55182 15.5525 2.00296 15.3057 1.50488Z" fill="black"/>
<path d="M8.69336 1.50488C8.44658 2.00286 8.22749 2.55197 8.0332 3.13477C7.88251 3.58685 7.73188 4.06962 7.58691 4.5791H7.58301L7.37012 5.23828C6.99534 6.39812 5.95568 7.21614 4.74023 7.30762L4.11816 7.35352C3.40764 7.38278 2.69733 7.41442 1.9873 7.44629C3.27088 4.6285 5.70555 2.44532 8.69336 1.50488Z" fill="black"/>
<path d="M12 1C12.5738 1 13.1374 1.04421 13.6875 1.12891C14.3613 2.08281 14.9289 3.59094 15.3291 5.45996L15.3926 6.06055C15.454 6.65056 14.9907 7.16406 14.3975 7.16406H13.9453V7.16992C13.3512 7.15991 12.7291 7.15234 12.0791 7.15234C11.9063 7.15287 11.7334 7.15509 11.5605 7.15625H11.1318C9.75998 7.15625 8.70083 5.95244 8.87305 4.59375C9.253 3.12375 9.74529 1.9307 10.3115 1.12891C10.862 1.04411 11.4258 1 12 1Z" fill="black"/>
</svg>
