<svg width="24" height="24" viewBox="0 0 24 24" fill="none" xmlns="http://www.w3.org/2000/svg">
<path d="M22 8.69002C22 9.88002 21.81 10.98 21.48 12C19.9 17 15.03 19.99 12.62 20.81C12.28 20.93 11.72 20.93 11.38 20.81C10.74 20.59 9.93 20.22 9.06 19.7C8.5 19.37 8.41 18.59 8.87 18.13L20.15 6.85002C20.69 6.31002 21.64 6.54002 21.83 7.28002C21.94 7.73002 22 8.20002 22 8.69002Z" fill="black"/>
<path d="M22.53 1.47C22.24 1.18 21.76 1.18 21.47 1.47L19.13 3.81C18.34 3.36 17.42 3.1 16.44 3.1C14.63 3.1 13.01 3.98 12 5.33C10.99 3.98 9.37 3.1 7.56 3.1C4.49 3.1 2 5.6 2 8.69C2 9.88 2.19 10.98 2.52 12C3.17 14.07 4.39 15.8 5.77 17.17L1.47 21.47C1.18 21.76 1.18 22.24 1.47 22.53C1.62 22.68 1.81 22.75 2 22.75C2.19 22.75 2.38 22.68 2.53 22.53L22.53 2.53C22.82 2.24 22.82 1.76 22.53 1.47Z" fill="black"/>
</svg>
