<svg width="24" height="24" viewBox="0 0 24 24" fill="none" xmlns="http://www.w3.org/2000/svg">
<path d="M12 3C7 3 3 7 3 12V19C3 19.7956 3.31607 20.5587 3.87868 21.1213C4.44129 21.6839 5.20435 22 6 22H7C8.10457 22 9 21.1046 9 20V16C9 14.8954 8.10457 14 7 14H5V12C5 10.1435 5.7375 8.36301 7.05025 7.05025C8.36301 5.7375 10.1435 5 12 5C13.8565 5 15.637 5.7375 16.9497 7.05025C18.2625 8.36301 19 10.1435 19 12V14H17C15.8954 14 15 14.8954 15 16V20C15 21.1046 15.8954 22 17 22H18C18.7956 22 19.5587 21.6839 20.1213 21.1213C20.6839 20.5587 21 19.7956 21 19V12C21 7 16.97 3 12 3Z" fill="black"/>
</svg>
