<svg width="24" height="24" viewBox="0 0 24 24" fill="none" xmlns="http://www.w3.org/2000/svg">
<g clip-path="url(#clip0_18003_7307)">
<path d="M21.0005 13.7445V16.5004C21.0005 18.0093 20.907 20.6365 20.8521 22.0443C20.8309 22.579 20.3901 23 19.855 23.0004H16.3677C15.8157 23.0002 15.3679 22.5523 15.3677 22.0004V14.4955C15.3676 13.9435 14.9196 13.4959 14.3677 13.4955H9.66455C9.11254 13.4958 8.66462 13.9434 8.66455 14.4955V22.0004C8.66428 22.5522 8.21635 23 7.66455 23.0004H4.29346C3.77461 23.0003 3.342 22.6035 3.30127 22.0863C3.19197 20.6893 3.00053 18.0245 3.00049 16.5004V13.8148L12.0317 4.73181L21.0005 13.7445ZM10.0171 1.80115C11.1962 0.730401 13.0224 0.765784 14.1587 1.90759L23.7095 11.5062L23.7778 11.5824C24.0966 11.9759 24.0723 12.5553 23.7056 12.9203C23.3388 13.2851 22.7596 13.3064 22.3677 12.9857L22.2915 12.9164L12.7407 3.31873C12.3742 2.9504 11.7923 2.927 11.3989 3.24939L11.3228 3.31873L1.70947 12.9867C1.32019 13.3781 0.687054 13.3796 0.29541 12.9906C-0.0961716 12.6012 -0.097901 11.9681 0.291504 11.5765L9.90479 1.90857L10.0171 1.80115Z" fill="black"/>
</g>
<defs>
<clipPath id="clip0_18003_7307">
<rect width="24" height="24" fill="white"/>
</clipPath>
</defs>
</svg>
