<svg width="24" height="24" viewBox="0 0 24 24" fill="none" xmlns="http://www.w3.org/2000/svg">
<path d="M12 1C18.0751 1 23 5.92487 23 12C23 18.0751 18.0751 23 12 23C5.92487 23 1 18.0751 1 12C1 5.92487 5.92487 1 12 1ZM9.5 5C9.5 8.86599 6.36599 12 2.5 12C6.36599 12 9.5 15.134 9.5 19L9.50977 18.6406C9.69091 15.0608 12.5608 12.1909 16.1406 12.0098L16.5 12C12.634 12 9.5 8.86599 9.5 5ZM17 13C17 14.6569 15.6569 16 14 16C15.6569 16 17 17.3431 17 19L17.0039 18.8457C17.0816 17.3117 18.3117 16.0816 19.8457 16.0039L20 16C18.3431 16 17 14.6569 17 13ZM17 5C17 6.65685 15.6569 8 14 8C15.6569 8 17 9.34315 17 11L17.0039 10.8457C17.0816 9.31166 18.3117 8.08163 19.8457 8.00391L20 8C18.3431 8 17 6.65685 17 5Z" fill="black"/>
</svg>
