<svg width="24" height="24" viewBox="0 0 24 24" fill="none" xmlns="http://www.w3.org/2000/svg">
<path d="M8.25872 21.2466C8.90565 20.5996 9.27729 19.7736 9.37364 18.9201C9.5044 17.7844 9.12588 16.6073 8.25872 15.7401C7.74256 15.2238 7.1094 14.8797 6.44183 14.7214C5.16862 14.3978 3.75777 14.7351 2.75297 15.7401C2.05787 16.4353 1.67935 17.3232 1.63118 18.2387C1.59677 18.631 1.63118 19.0371 1.73441 19.4295C1.8927 20.0971 2.23681 20.7304 2.75297 21.2466C4.27394 22.7678 6.73776 22.7678 8.25872 21.2466ZM6.96487 17.7775C7.36404 17.7775 7.69438 18.1079 7.69438 18.5071C7.6875 18.9132 7.36404 19.2367 6.95799 19.2436L6.23536 19.2367L6.24224 19.9319C6.23536 20.338 5.9119 20.6616 5.50585 20.6684C5.0998 20.6616 4.77634 20.338 4.76945 19.9319L4.77634 19.2367L4.05371 19.2436C3.64766 19.2367 3.3242 18.9132 3.31731 18.5071C3.3242 18.3075 3.40678 18.1285 3.53754 17.9978C3.6683 17.867 3.84724 17.7844 4.04683 17.7775L4.77634 17.7775L4.77634 17.0203C4.77634 16.8138 4.85892 16.6349 4.98968 16.5041C5.12045 16.3733 5.29938 16.2907 5.50585 16.2907C5.90501 16.2907 6.23536 16.6211 6.23536 17.0203L6.23536 17.7775L6.96487 17.7775Z" fill="black"/>
<path d="M15.0952 3.84554V7.54431H13.6351V3.84554C13.6351 3.58273 13.4015 3.45619 13.2458 3.45619C13.1971 3.45619 13.1484 3.46593 13.0998 3.4854L5.38102 6.39574C4.86514 6.59042 4.5342 7.07709 4.5342 7.63191V8.28406C3.64844 8.94595 3.07416 10.0069 3.07416 11.2041V7.63191C3.07416 6.47361 3.78471 5.44185 4.86514 5.03304L12.5936 2.11296C12.8078 2.03509 13.0316 1.99615 13.2458 1.99615C14.2191 1.99615 15.0952 2.78458 15.0952 3.84554Z" fill="black"/>
<path d="M21.5683 14.1164V15.0898C21.5683 15.3526 21.3639 15.5667 21.0914 15.5765H19.6703C19.1544 15.5765 18.6872 15.1969 18.6482 14.6907C18.619 14.389 18.7359 14.1067 18.9305 13.912C19.1057 13.7271 19.3491 13.6298 19.6119 13.6298H21.0817C21.3639 13.6395 21.5683 13.8536 21.5683 14.1164Z" fill="black"/>
<path d="M19.6008 12.6061H20.5936C21.1289 12.6061 21.5669 12.1681 21.5669 11.6327V11.2043C21.5669 9.18931 19.922 7.54419 17.9073 7.54419H6.73377C5.90646 7.54419 5.14729 7.81675 4.53411 8.28401C3.64841 8.94595 3.07416 10.007 3.07416 11.2043V12.9371C3.07416 13.307 3.46348 13.5406 3.81387 13.4238C4.35892 13.2388 4.93316 13.1415 5.50741 13.1415C8.45651 13.1415 10.8606 15.5459 10.8606 18.4955C10.8606 19.1963 10.6756 19.9654 10.3837 20.6468C10.2279 20.9972 10.4712 21.4158 10.8508 21.4158H17.9073C19.922 21.4158 21.5669 19.7707 21.5669 17.7556V17.5707C21.5669 17.0353 21.1289 16.5972 20.5936 16.5972H19.7468C18.8124 16.5972 17.917 16.0229 17.6737 15.1176C17.479 14.3778 17.7126 13.6574 18.1993 13.1902C18.5594 12.8203 19.0558 12.6061 19.6008 12.6061ZM14.2671 12.4114H9.40062C9.00156 12.4114 8.67064 12.0804 8.67064 11.6813C8.67064 11.2822 9.00156 10.9512 9.40062 10.9512H14.2671C14.6662 10.9512 14.9971 11.2822 14.9971 11.6813C14.9971 12.0804 14.6662 12.4114 14.2671 12.4114Z" fill="black"/>
</svg>
