<svg width="24" height="24" viewBox="0 0 24 24" fill="none" xmlns="http://www.w3.org/2000/svg">
<path d="M11.2188 1.58789L11.2637 4H6.50977C6.09038 4 5.75 4.35388 5.75 4.79004C5.75016 5.22606 6.09048 5.5791 6.50977 5.5791H11.2959L11.3018 5.82129C11.3188 6.44591 11.3462 7.02051 11.4229 7.50879C11.5032 8.02023 11.6535 8.54883 11.9697 9.03125H6.4707C6.07263 9.0315 5.75 9.36719 5.75 9.78125C5.75008 10.1952 6.07268 10.531 6.4707 10.5312H20.7422C20.747 11.0414 20.75 11.5348 20.75 12C20.75 14.1543 20.6948 16.9144 20.6396 19.1309C20.5943 20.9524 20.5717 21.8633 19.9893 22.4316C19.4066 23 18.4906 23 16.6592 23H7.33105C5.49385 23 4.57517 22.9999 3.99219 22.4297C3.40927 21.8595 3.38919 20.9455 3.34863 19.1172C3.29952 16.9032 3.25 14.1498 3.25 12C3.25 9.85023 3.29952 7.09684 3.34863 4.88281C3.38919 3.05454 3.40927 2.14046 3.99219 1.57031C4.57517 1.00012 5.49384 1 7.33105 1H11.2188V1.58789ZM6.4707 18.501C6.07263 18.5012 5.75 18.8369 5.75 19.251C5.75008 19.665 6.07268 20.0007 6.4707 20.001H17.5293C17.9273 20.0007 18.2499 19.665 18.25 19.251C18.25 18.8369 17.9274 18.5012 17.5293 18.501H6.4707ZM6.4707 13.7666C6.07263 13.7669 5.75 14.1025 5.75 14.5166C5.75033 14.9304 6.07283 15.2663 6.4707 15.2666H17.5293C17.9272 15.2663 18.2497 14.9304 18.25 14.5166C18.25 14.1025 17.9274 13.7669 17.5293 13.7666H6.4707ZM12.7188 1C15.7464 3.30188 18.4481 6.00356 20.75 9.03125H16.7686C14.9313 9.03125 14.0127 9.03113 13.4297 8.46094C13.1115 8.14977 12.9644 7.73572 12.8867 7.12695C12.8811 7.08271 12.875 7.03756 12.8701 6.99121C12.8188 6.50688 12.8029 5.90635 12.7861 5.14844C12.7616 4.04133 12.7373 2.79936 12.7188 1.56543V1Z" fill="black"/>
</svg>
