<svg width="24" height="24" viewBox="0 0 24 24" fill="none" xmlns="http://www.w3.org/2000/svg">
<path d="M17.7222 21.6667L11.5182 15.4114C11.2041 15.0947 10.7332 15.0058 10.3026 15.1226C10.1607 15.1611 10.0182 15.1943 9.875 15.2222C9.49537 15.2963 9.09259 15.3333 8.66667 15.3333C6.81482 15.3333 5.24074 14.6852 3.94444 13.3889C2.64815 12.0926 2 10.5185 2 8.66667C2 8 2.09259 7.36574 2.27778 6.76389C2.32508 6.61016 2.37722 6.45854 2.43418 6.30903C2.68912 5.64 3.54008 5.54008 4.04634 6.04634L6.32544 8.32544C6.75935 8.75935 7.46287 8.75935 7.89679 8.32544L8.32544 7.89679C8.75935 7.46287 8.75935 6.75935 8.32544 6.32544L6.04634 4.04634C5.54008 3.54008 5.64 2.68912 6.30903 2.43418C6.45854 2.37722 6.61016 2.32508 6.76389 2.27778C7.36574 2.09259 8 2 8.66667 2C10.5185 2 12.0926 2.64815 13.3889 3.94444C14.6852 5.24074 15.3333 6.81482 15.3333 8.66667C15.3333 9.09259 15.2963 9.49537 15.2222 9.875C15.1943 10.0182 15.1611 10.1607 15.1226 10.3026C15.0058 10.7332 15.0947 11.2041 15.4114 11.5182L21.6667 17.7222C21.8889 17.9444 22 18.213 22 18.5278C22 18.8426 21.8889 19.1111 21.6667 19.3333L19.3333 21.6667C19.1111 21.8889 18.8426 22 18.5278 22C18.213 22 17.9444 21.8889 17.7222 21.6667Z" fill="black"/>
</svg>
