<svg width="24" height="24" viewBox="0 0 24 24" fill="none" xmlns="http://www.w3.org/2000/svg">
<g clip-path="url(#clip0_18003_7254)">
<path d="M20.7124 4.1629C21.2378 4.18729 21.739 4.35755 22.1667 4.64932C24.0002 5.86546 24 7.08216 24 7.69023C23.9999 9.51432 22.7772 10.7301 21.555 10.7301C21.0883 10.73 20.5781 10.4924 20.2916 10.4526C19.6073 10.4924 19.7894 10.72 19.0343 11.4712C17.8146 12.6847 16.6711 16.79 16.6658 16.811L17.7531 20.0568C17.8194 20.2547 17.6724 20.4596 17.4636 20.4596H14.4406C14.3096 20.4595 14.193 20.3758 14.1511 20.2517L13.5145 18.3598C13.4554 18.1841 13.2537 18.1013 13.0858 18.1797C10.8783 19.2106 9.31559 19.1925 7.08455 18.124C6.96649 18.0675 6.82529 18.0895 6.73241 18.1817L4.53205 20.3701C4.47479 20.4271 4.39697 20.4596 4.3162 20.4596H1.51602C1.24366 20.4595 1.1074 20.1297 1.30016 19.9374L2.60923 18.6353C4.25634 16.9965 2.45092 16.8299 0.294484 16.8129C0.0219133 16.8108 -0.108639 16.4866 0.110458 16.3245C0.340402 16.1546 0.59184 16.0085 0.890331 15.8878L1.05745 15.8043C1.62617 15.8753 2.38753 15.9402 3.27272 15.9336C5.20691 15.9192 7.77435 15.5725 10.209 14.2067C12.5516 12.8926 14.247 11.5426 15.3617 10.5143C15.9189 10.0003 16.3724 9.50161 16.5952 9.15945C16.606 9.14024 16.6119 9.11951 16.6181 9.09877C16.8358 8.66778 17.0266 8.08128 17.2776 7.08244C17.7421 5.25824 19.2212 4.11425 20.7124 4.1629Z" fill="black"/>
<path d="M3.26078 4.64932C5.38255 3.59125 6.90276 3.41546 9.46097 3.60911C12.0192 3.80277 14.5604 5.88773 15.8213 7.81954L15.8123 7.83148C15.81 7.8346 15.8047 7.8404 15.7984 7.84839C15.7857 7.86459 15.765 7.89037 15.7367 7.92498C15.6794 7.99514 15.5897 8.10198 15.4672 8.23932C15.2218 8.51421 14.8438 8.91287 14.3252 9.39122C13.288 10.348 11.6883 11.6243 9.46097 12.8738C7.32556 14.0717 5.0383 14.3935 3.26078 14.4067C2.37562 14.4132 1.62733 14.3424 1.1032 14.2714C0.999099 14.2573 0.904167 14.242 0.81871 14.2286C0.802029 14.196 0.791216 14.1765 0.789862 14.1729C0.342676 12.9856 0.110435 11.2083 0.110447 9.09877C0.110458 6.98929 1.13902 5.70739 3.26078 4.64932Z" fill="black"/>
</g>
<defs>
<clipPath id="clip0_18003_7254">
<rect width="24" height="24" fill="white"/>
</clipPath>
</defs>
</svg>
