<svg width="24" height="24" viewBox="0 0 24 24" fill="none" xmlns="http://www.w3.org/2000/svg">
<path d="M4.22767 18.999C3.88616 18.999 3.5947 18.8581 3.35329 18.5763C3.11776 18.2945 3 17.9774 3 17.6251C3 17.26 3.11776 16.9398 3.35329 16.6644C3.5947 16.3825 3.88616 16.2416 4.22767 16.2416H19.7812C20.1286 16.2416 20.4171 16.3793 20.6467 16.6547C20.8822 16.9238 21 17.2472 21 17.6251C21 17.9902 20.8822 18.3105 20.6467 18.5859C20.4112 18.8613 20.1227 18.999 19.7812 18.999H4.22767ZM4.22767 13.3777C3.88616 13.3777 3.5947 13.2368 3.35329 12.955C3.11776 12.6732 3 12.3529 3 11.9942C3 11.6291 3.11776 11.3089 3.35329 11.0335C3.5947 10.758 3.88616 10.6203 4.22767 10.6203H19.7812C20.1286 10.6203 20.4171 10.7548 20.6467 11.0238C20.8822 11.2929 21 11.6163 21 11.9942C21 12.3529 20.8822 12.6732 20.6467 12.955C20.4112 13.2368 20.1227 13.3777 19.7812 13.3777H4.22767ZM4.22767 7.75643C3.88616 7.75643 3.5947 7.61552 3.35329 7.33369C3.11776 7.05187 3 6.73161 3 6.37292C3 6.00783 3.11776 5.68757 3.35329 5.41215C3.5947 5.13673 3.88616 4.99902 4.22767 4.99902H19.7812C20.1286 4.99902 20.4171 5.13353 20.6467 5.40255C20.8822 5.67156 21 5.99502 21 6.37292C21 6.73801 20.8822 7.06147 20.6467 7.3433C20.4112 7.61872 20.1227 7.75643 19.7812 7.75643H4.22767Z" fill="black"/>
</svg>
