<svg width="24" height="24" viewBox="0 0 24 24" fill="none" xmlns="http://www.w3.org/2000/svg">
<path d="M19.27 3.65002L14.17 8.75002H3.2C2.54 8.75002 2 8.21002 2 7.55002V7.54002C2 5.25002 3.85 3.40002 6.14 3.40002H17.85C18.35 3.40002 18.83 3.49002 19.27 3.65002Z" fill="black"/>
<path d="M12.67 10.25L7.17 15.75H6C5.59 15.75 5.25 16.09 5.25 16.5C5.25 16.81 5.45 17.09 5.73 17.19L3.38 19.54C2.53 18.79 2 17.69 2 16.46V11.45C2 10.79 2.54 10.25 3.2 10.25H12.67Z" fill="black"/>
<path d="M22 11V16.46C22 18.75 20.15 20.6 17.86 20.6H8.80998C7.91998 20.6 7.46998 19.52 8.09998 18.89L9.44998 17.54C9.63998 17.35 9.88998 17.25 10.16 17.25H14.5C14.91 17.25 15.25 16.91 15.25 16.5C15.25 16.09 14.91 15.75 14.5 15.75H13.66C12.77 15.75 12.32 14.67 12.95 14.04L16.41 10.58C16.79 10.21 17.3 10 17.83 10H21C21.55 10 22 10.45 22 11Z" fill="black"/>
<path d="M21.77 2.23C21.47 1.93 20.98 1.93 20.68 2.23L2.23 20.69C1.93 20.99 1.93 21.48 2.23 21.78C2.38 21.92 2.57 22 2.77 22C2.97 22 3.16 21.92 3.31 21.77L21.77 3.31C22.08 3.01 22.08 2.53 21.77 2.23Z" fill="black"/>
<path d="M21.77 3.31L20.61 4.47L16.33 8.75L3.31 21.77C3.16 21.92 2.97 22 2.77 22C2.57 22 2.38 21.92 2.23 21.77C1.92 21.47 1.92 20.99 2.23 20.69L3.38 19.54L5.73 17.19L19.27 3.65L20.69 2.23C20.99 1.92 21.47 1.92 21.77 2.23C22.08 2.53 22.08 3.01 21.77 3.31Z" fill="black"/>
<path d="M22 7.41002C22 6.52002 20.92 6.07002 20.29 6.70002L20 7.00002L19.71 7.29002C19.08 7.92002 19.52 9.00002 20.41 9.00002H21C21.55 9.00002 22 8.55002 22 8.00002V7.41002Z" fill="black"/>
</svg>
