<svg width="24" height="24" viewBox="0 0 24 24" fill="none" xmlns="http://www.w3.org/2000/svg">
<path fill-rule="evenodd" clip-rule="evenodd" d="M12.0166 1C12.8299 1 13.7313 1.00743 14.6562 1.01953C18.5065 1.06992 20.4317 1.09527 21.6758 2.33789C22.9199 3.58087 22.9412 5.50497 22.9834 9.35254C22.9935 10.2744 23 11.1728 23 11.9834C23 12.8061 22.9938 13.7189 22.9834 14.6553C22.9409 18.4874 22.9192 20.4033 21.6787 21.6455C20.4382 22.8877 18.5247 22.9175 14.6982 22.9766C13.7587 22.9911 12.8423 23 12.0166 23C11.1788 23 10.248 22.9905 9.29395 22.9756C5.48283 22.9162 3.57654 22.887 2.33691 21.6484C1.09728 20.4098 1.07172 18.5053 1.02051 14.6973C1.00772 13.7463 1 12.8184 1 11.9834C1 11.1605 1.00804 10.2471 1.02051 9.31055C1.07139 5.48719 1.09669 3.57538 2.33984 2.33594C3.58309 1.0965 5.50073 1.07124 9.33594 1.02051C10.2753 1.00808 11.1912 1 12.0166 1ZM10.5 13.5C9.11929 13.5 8 14.6193 8 16C8 17.3807 9.11929 18.5 10.5 18.5C11.5249 18.5 12.4041 17.8826 12.79 17H18.5C19.0523 17 19.5 16.5523 19.5 16C19.5 15.4477 19.0523 15 18.5 15H12.79C12.4041 14.1174 11.5249 13.5 10.5 13.5ZM5.5 15C4.94772 15 4.5 15.4477 4.5 16C4.5 16.5523 4.94772 17 5.5 17H6.62598C6.54371 16.6804 6.5 16.3453 6.5 16C6.5 15.6547 6.54371 15.3196 6.62598 15H5.5ZM13.5 5.5C12.4751 5.5 11.5959 6.11743 11.21 7H5.5C4.94772 7 4.5 7.44772 4.5 8C4.5 8.55228 4.94772 9 5.5 9H11.21C11.5959 9.88257 12.4751 10.5 13.5 10.5C14.8807 10.5 16 9.38071 16 8C16 6.61929 14.8807 5.5 13.5 5.5ZM17.374 7C17.4563 7.31962 17.5 7.6547 17.5 8C17.5 8.3453 17.4563 8.68038 17.374 9H18.5C19.0523 9 19.5 8.55228 19.5 8C19.5 7.44772 19.0523 7 18.5 7H17.374Z" fill="black"/>
</svg>
