<svg width="24" height="24" viewBox="0 0 24 24" fill="none" xmlns="http://www.w3.org/2000/svg">
<path d="M15.07 17.88L14.06 20.1C13.8 20.66 13.42 21.15 12.91 21.49C12.39 21.84 11.71 21.87 11.17 21.53C9.52999 20.49 5.95004 17.82 3.78004 13.19C3.70004 13.03 3.92001 12.87 4.06001 12.97C4.63001 13.37 5.23998 13.65 5.90999 13.81C6.31999 13.9 6.74003 13.94 7.14003 13.94C9.00003 13.94 10.68 12.99 11.8 12.17C12.13 11.93 12.57 11.88 12.91 12.09C14.03 12.79 14.78 13.63 15.15 14.58C15.79 16.26 15.09 17.81 15.07 17.88Z" fill="black"/>
<path d="M16.85 18.05C16.77 18.14 16.61 18.04 16.65 17.93C17.09 16.47 17.66 12.62 12.56 10.18C12.25 10.03 12.02 9.75004 11.98 9.41004C11.36 3.85004 16.15 2.85003 16.15 2.85003C16.54 2.77003 16.95 2.77003 17.33 2.88003C18.41 3.17003 19.51 3.57003 20.62 4.11003C21.57 4.57003 22.12 5.57004 21.98 6.62004C21.65 9.10004 20.55 13.88 16.85 18.05Z" fill="black"/>
<path d="M10.56 10.21L10.59 10.41C10.66 10.79 10.5 11.18 10.18 11.38C8.02996 12.73 4.50996 13.75 2.35996 7.83998C2.15996 7.29998 2.03997 6.89999 1.99997 6.31999C1.94997 5.55999 2.37997 4.68999 3.05997 4.36999C4.81997 3.54999 8.54 2.11999 13.03 2.24999C13.23 2.25999 13.3 2.51999 13.14 2.62999C11.41 3.94999 9.91997 6.32999 10.56 10.21Z" fill="black"/>
</svg>
