<svg width="24" height="24" viewBox="0 0 24 24" fill="none" xmlns="http://www.w3.org/2000/svg">
<path d="M12.5703 9.94727C12.6034 9.95062 12.636 9.95542 12.668 9.96191C12.6719 9.96271 12.6758 9.964 12.6797 9.96484C12.7031 9.9699 12.7262 9.97576 12.749 9.98242C12.7963 9.99624 12.8416 10.0148 12.8857 10.0352C12.8952 10.0395 12.9048 10.0432 12.9141 10.0479C12.9583 10.0699 13.0008 10.0949 13.041 10.123C13.046 10.1265 13.0508 10.1302 13.0557 10.1338C13.1409 10.1958 13.2154 10.2711 13.2773 10.3564C13.2799 10.36 13.2826 10.3636 13.2852 10.3672C13.3147 10.4091 13.3403 10.4537 13.3633 10.5C13.3663 10.5061 13.3692 10.5123 13.3721 10.5186C13.3935 10.5641 13.4123 10.6111 13.4268 10.6602C13.431 10.6747 13.4349 10.6893 13.4385 10.7041C13.4572 10.7805 13.4678 10.8602 13.4678 10.9424V15.1748C13.4678 15.4577 13.7026 15.6845 13.9854 15.6748L15.7236 15.6152L15.8828 15.6211C15.9812 15.6326 16.0732 15.6586 16.1582 15.6953C16.1788 15.7042 16.1981 15.7154 16.2178 15.7256C16.2395 15.7368 16.2616 15.747 16.2822 15.7598C16.3054 15.7741 16.3269 15.7906 16.3486 15.8066C16.3616 15.8162 16.3753 15.8248 16.3877 15.835C16.4079 15.8515 16.4265 15.8697 16.4453 15.8877C16.4613 15.903 16.4773 15.9183 16.4922 15.9346C16.5059 15.9496 16.5184 15.9656 16.5312 15.9814C16.5466 16.0005 16.5612 16.02 16.5752 16.04C16.5868 16.0567 16.5978 16.0735 16.6084 16.0908C16.6206 16.1108 16.6327 16.1306 16.6436 16.1514C16.6544 16.1721 16.6635 16.1935 16.6729 16.2148C16.6823 16.2364 16.6913 16.2581 16.6992 16.2803C16.7054 16.2975 16.7116 16.3145 16.7168 16.332C16.7246 16.3581 16.7306 16.3845 16.7363 16.4111C16.7404 16.4299 16.7441 16.4487 16.7471 16.4678C16.7511 16.494 16.7539 16.5203 16.7559 16.5469C16.7572 16.5644 16.7584 16.5819 16.7588 16.5996C16.7593 16.6253 16.7583 16.6509 16.7568 16.6768C16.7557 16.6956 16.7551 16.7145 16.7529 16.7334C16.7496 16.7616 16.7432 16.7893 16.7373 16.8174C16.7329 16.8385 16.7295 16.8599 16.7236 16.8809C16.7196 16.8951 16.7137 16.9087 16.709 16.9229C16.6844 16.9975 16.652 17.0711 16.6074 17.1416C16.5809 17.1835 16.5516 17.225 16.5176 17.2646L14.999 19.0361C14.3107 19.8391 13.3965 20.9073 12.7588 21.6514C12.3597 22.117 11.6393 22.116 11.2402 21.6504L7.48242 17.2666C7.41563 17.1887 7.36373 17.1051 7.3252 17.0195C7.3234 17.0155 7.32107 17.0118 7.31934 17.0078C7.31199 16.9909 7.30709 16.9732 7.30078 16.9561C7.25738 16.8383 7.23731 16.7175 7.24023 16.5977C7.24065 16.5803 7.24282 16.5631 7.24414 16.5459C7.24623 16.5187 7.24767 16.4916 7.25195 16.4648C7.25487 16.4465 7.25877 16.4283 7.2627 16.4102C7.2687 16.3825 7.27591 16.3552 7.28418 16.3281C7.28899 16.3123 7.29424 16.2968 7.2998 16.2812C7.30856 16.2569 7.31756 16.2326 7.32812 16.209C7.33655 16.1901 7.34592 16.1717 7.35547 16.1533C7.36774 16.1298 7.38048 16.1065 7.39453 16.084C7.40384 16.069 7.41375 16.0545 7.42383 16.04C7.43858 16.0189 7.45436 15.9985 7.4707 15.9785C7.48341 15.963 7.49613 15.9474 7.50977 15.9326C7.5291 15.9116 7.55015 15.8924 7.57129 15.873C7.58335 15.862 7.59479 15.8503 7.60742 15.8398C7.6253 15.8251 7.6441 15.8114 7.66309 15.7979C7.68346 15.7833 7.70399 15.7689 7.72559 15.7559C7.74138 15.7463 7.75798 15.7382 7.77441 15.7295C7.7971 15.7175 7.8199 15.7055 7.84375 15.6953C7.86904 15.6845 7.89534 15.6758 7.92188 15.667C7.94026 15.6609 7.95858 15.6544 7.97754 15.6494C8.00897 15.6411 8.04129 15.6352 8.07422 15.6299C8.09011 15.6273 8.10584 15.6229 8.12207 15.6211C8.17197 15.6155 8.22352 15.6144 8.27637 15.6162L9.9502 15.6738C10.233 15.6837 10.4678 15.4578 10.4678 15.1748V10.9424L10.4736 10.8398C10.477 10.8071 10.4819 10.7749 10.4883 10.7432L10.5127 10.6455L10.54 10.5703C10.5411 10.5677 10.5419 10.5651 10.543 10.5625C10.5623 10.5156 10.5854 10.4707 10.6113 10.4277C10.617 10.4184 10.622 10.4086 10.6279 10.3994C10.6557 10.3566 10.6869 10.3163 10.7207 10.2783C10.7277 10.2704 10.7349 10.2626 10.7422 10.2549C10.7545 10.2418 10.7672 10.2292 10.7803 10.2168C10.7915 10.2062 10.8028 10.1956 10.8145 10.1855C10.8248 10.1766 10.835 10.1677 10.8457 10.1592C10.8599 10.1479 10.8748 10.1375 10.8896 10.127C10.9009 10.119 10.9122 10.1111 10.9238 10.1035C10.9385 10.094 10.9536 10.085 10.9688 10.0762C10.9793 10.0701 10.9901 10.0643 11.001 10.0586C11.0233 10.0468 11.046 10.0355 11.0693 10.0254C11.0736 10.0235 11.0777 10.0213 11.082 10.0195C11.1012 10.0115 11.1209 10.0049 11.1406 9.99805C11.1549 9.9931 11.169 9.98771 11.1836 9.9834C11.2307 9.96943 11.2793 9.95908 11.3291 9.95215C11.3414 9.95044 11.3538 9.94853 11.3662 9.94727L11.4678 9.94238H12.4678L12.5703 9.94727Z" fill="black"/>
<path d="M12.7812 2C15.7654 2.00005 18.1326 4.12501 18.8281 6.98828C21.1092 7.09621 22.9373 9.09587 22.9375 11.5439V11.96C22.9374 14.707 21.0834 16.9101 18.2188 17.4082C18.2188 17.4082 18.1889 17.4112 18.1328 17.418C18.6692 15.8589 17.5079 14.0529 15.6719 14.1162L14.9678 14.1406V10.9424C14.9677 9.56176 13.8484 8.44238 12.4678 8.44238H11.4678C10.0873 8.4426 8.96787 9.56189 8.96777 10.9424V14.1396L8.3291 14.1172H8.12793C6.40024 14.186 5.34085 15.9332 5.87402 17.4395C5.69733 17.4191 5.59518 17.409 5.58887 17.4082C2.85456 16.9102 1.06259 14.707 1.0625 11.96C1.0625 11.8243 1.06252 11.6832 1.0625 11.5449C1.0625 9.03015 2.99214 6.97953 5.35938 6.97949C5.82032 6.97949 6.26564 7.06301 6.67969 7.2041C7.29688 4.2327 9.79704 2 12.7812 2Z" fill="black"/>
</svg>
