<svg width="24" height="24" viewBox="0 0 24 24" fill="none" xmlns="http://www.w3.org/2000/svg">
<path d="M5.40279 19.5449C5.89486 20.037 6.71618 20.0144 7.2369 19.4941L14.0019 12.7291C14.2685 12.4626 14.6908 12.4574 14.9335 12.7183L16.3712 14.2665C17.1182 15.0702 18.5162 14.5461 18.6345 13.4178L19.4187 5.93566C19.502 5.14114 18.8611 4.49886 18.0667 4.58195C16.7968 4.71511 14.9745 4.9072 13.604 5.05091C12.6969 5.14603 11.5921 5.26101 10.5805 5.36709C9.45244 5.48538 8.92852 6.88317 9.73176 7.63038L11.3385 9.12333C11.5995 9.36613 11.5944 9.78837 11.3278 10.055L4.5628 16.82C4.04243 17.3407 4.01989 18.162 4.51196 18.6541L5.40279 19.5449Z" fill="black"/>
</svg>
