<svg width="24" height="24" viewBox="0 0 24 24" fill="none" xmlns="http://www.w3.org/2000/svg">
<path d="M12.0166 1C12.8299 1 13.7313 1.00743 14.6562 1.01953C18.5065 1.06992 20.4317 1.09527 21.6758 2.33789C22.9199 3.58087 22.9412 5.50497 22.9834 9.35254C22.9935 10.2744 23 11.1728 23 11.9834C23 12.8061 22.9938 13.7189 22.9834 14.6553C22.9409 18.4874 22.9192 20.4033 21.6787 21.6455C20.4382 22.8877 18.5247 22.9175 14.6982 22.9766C13.7587 22.9911 12.8423 23 12.0166 23C11.1788 23 10.248 22.9905 9.29395 22.9756C5.48283 22.9162 3.57654 22.887 2.33691 21.6484C1.09728 20.4098 1.07172 18.5053 1.02051 14.6973C1.00772 13.7463 1 12.8184 1 11.9834C1 11.1605 1.00804 10.2471 1.02051 9.31055C1.07139 5.48719 1.09669 3.57538 2.33984 2.33594C3.58309 1.0965 5.50073 1.07124 9.33594 1.02051C10.2753 1.00808 11.1912 1 12.0166 1ZM10.9316 6.19336C10.5991 6.11713 8.11376 5.49476 8.0957 5.49023L7.7207 6.99316C7.7207 6.99316 8.72605 7.24243 8.74219 7.24609C9.31163 7.38856 9.46849 7.77599 9.39746 8.06348L7.81836 14.3926C7.77352 14.5719 7.57202 14.8253 7.17383 14.7266C7.15354 14.721 6.159 14.4736 6.15137 14.4717L5.45312 16.0811L8.28711 16.7959L7.70508 19.1338L9.11035 19.4844L9.68652 17.1719C10.0704 17.2761 10.4422 17.3729 10.8076 17.4639L10.2334 19.7656L11.6396 20.1162L12.2217 17.7842C14.6198 18.2379 16.4228 18.0543 17.1826 15.8857C17.7945 14.1394 17.152 13.1315 15.8896 12.4746C16.7516 12.2755 17.4131 11.7322 17.6445 10.6367L17.6855 10.4121C17.9401 8.70652 16.6417 7.78979 14.8662 7.17773L15.4434 4.86621L14.0371 4.51562L13.4766 6.76465C13.1072 6.67231 12.7269 6.58476 12.3496 6.49902L12.9141 4.23438L11.5078 3.88379L10.9316 6.19336ZM10.916 12.3877C11.8699 12.6251 14.9254 13.0964 14.4717 14.918C14.0362 16.6642 11.0962 15.7195 10.1426 15.4834L10.916 12.3877ZM11.9697 8.16113C12.7638 8.359 15.3201 8.72896 14.9072 10.3857V10.3867C14.5102 11.9748 12.0638 11.1677 11.2695 10.9697L11.9697 8.16113Z" fill="black"/>
</svg>
