<svg width="24" height="24" viewBox="0 0 24 24" fill="none" xmlns="http://www.w3.org/2000/svg">
<g clip-path="url(#clip0_18003_7287)">
<path d="M22.3574 19C23.2645 19 24 19.7355 24 20.6426C23.9999 21.5359 23.2886 22.2653 22.3955 22.2822C21.988 22.2899 21.5171 22.2956 21 22.3047V22.5C21 23.3284 20.3284 24 19.5 24C18.6716 24 18 23.3284 18 22.5V22.3535C15.9994 22.3818 13.8251 22.4062 12.0312 22.4062C10.2249 22.4062 8.0235 22.3811 6 22.3525V22.5C6 23.3284 5.32843 24 4.5 24C3.67157 24 3 23.3284 3 22.5V22.3037C2.483 22.2947 2.01188 22.2889 1.60449 22.2812C0.71154 22.2642 0.000156953 21.5357 0 20.6426C0 19.7531 0.70712 19.0297 1.58984 19.002L1.64258 19H22.3574ZM12 3.15625C15.9346 3.15643 19.1248 6.34667 19.125 10.2812C19.125 10.5473 19.1095 10.8099 19.0811 11.0684C19.0522 11.3305 19.0077 11.588 18.9512 11.8408C18.91 12.0252 18.8628 12.2071 18.8076 12.3857C18.8051 12.3938 18.8033 12.4021 18.8008 12.4102C18.7693 12.5108 18.735 12.6103 18.6992 12.709C18.6818 12.757 18.662 12.804 18.6436 12.8516C18.6203 12.9116 18.5981 12.972 18.5732 13.0312C18.5549 13.075 18.5348 13.1178 18.5156 13.1611C18.489 13.2212 18.4637 13.2817 18.4355 13.3408C18.4189 13.3757 18.4009 13.4098 18.3838 13.4443C18.3514 13.5096 18.3185 13.5746 18.2842 13.6387C18.251 13.7007 18.2156 13.7614 18.1807 13.8223C18.16 13.8583 18.1405 13.895 18.1191 13.9307C18.0737 14.0067 18.0257 14.0811 17.9775 14.1553C17.9653 14.1741 17.9538 14.1933 17.9414 14.2119C17.9011 14.2728 17.8586 14.3321 17.8164 14.3916C17.7885 14.4311 17.7612 14.4709 17.7324 14.5098C17.6979 14.5565 17.6626 14.6026 17.627 14.6484C17.5959 14.6883 17.5651 14.7284 17.5332 14.7676C17.4869 14.8246 17.4387 14.88 17.3906 14.9355C17.365 14.9652 17.3396 14.9952 17.3135 15.0244C17.2596 15.0847 17.2043 15.1437 17.1484 15.2021C17.1308 15.2206 17.1136 15.2395 17.0957 15.2578C17.0383 15.3166 16.9794 15.3739 16.9199 15.4307C16.8933 15.4561 16.8669 15.4818 16.8398 15.5068C16.6904 15.6453 16.5349 15.777 16.374 15.9023C16.3652 15.9092 16.3565 15.916 16.3477 15.9229C16.2749 15.979 16.2009 16.0335 16.126 16.0869C16.1064 16.1008 16.0871 16.1152 16.0674 16.1289C15.8969 16.2477 15.721 16.359 15.54 16.4629C15.5272 16.4703 15.5139 16.4771 15.501 16.4844C15.4183 16.5312 15.3347 16.5766 15.25 16.6201C15.2334 16.6286 15.2168 16.6371 15.2002 16.6455C15.1181 16.6869 15.0351 16.7264 14.9512 16.7646C14.9294 16.7746 14.9076 16.7843 14.8857 16.7939C14.799 16.8324 14.7115 16.8692 14.623 16.9043C14.6097 16.9096 14.5964 16.9147 14.583 16.9199C14.4869 16.9573 14.3901 16.993 14.292 17.0264C14.2845 17.0289 14.277 17.0317 14.2695 17.0342C14.0585 17.1051 13.8434 17.1666 13.624 17.2178C13.6192 17.2189 13.6142 17.2196 13.6094 17.2207C13.2767 17.2976 12.9356 17.3504 12.5869 17.3789C12.5788 17.3796 12.5706 17.3802 12.5625 17.3809C12.3768 17.3954 12.1894 17.4062 12 17.4062C11.8103 17.4062 11.6225 17.3954 11.4365 17.3809C11.4284 17.3802 11.4202 17.3796 11.4121 17.3789C11.0635 17.3504 10.7223 17.2976 10.3896 17.2207C10.3848 17.2196 10.3798 17.2189 10.375 17.2178C10.1557 17.1666 9.94051 17.1051 9.72949 17.0342C9.72198 17.0317 9.71454 17.0289 9.70703 17.0264C9.60898 16.993 9.5121 16.9574 9.41602 16.9199C9.40266 16.9147 9.38929 16.9096 9.37598 16.9043C9.2875 16.8692 9.19998 16.8324 9.11328 16.7939C9.09143 16.7843 9.06959 16.7746 9.04785 16.7646C8.96398 16.7264 8.88092 16.6869 8.79883 16.6455C8.78218 16.6371 8.7656 16.6286 8.74902 16.6201C8.66743 16.5782 8.58657 16.5352 8.50684 16.4902C8.4847 16.4778 8.46339 16.4639 8.44141 16.4512C8.36344 16.4061 8.28603 16.3604 8.20996 16.3125C8.19597 16.3037 8.1819 16.295 8.16797 16.2861C7.98985 16.1722 7.81724 16.0507 7.65039 15.9219C7.64194 15.9154 7.63342 15.9089 7.625 15.9023C7.4585 15.7726 7.29776 15.636 7.14355 15.4922C7.13008 15.4796 7.1169 15.4668 7.10352 15.4541C7.0353 15.3895 6.96797 15.3241 6.90234 15.2568C6.8848 15.2389 6.86794 15.2203 6.85059 15.2021C6.79471 15.1437 6.73943 15.0847 6.68555 15.0244C6.66171 14.9977 6.63867 14.9704 6.61523 14.9434C6.56155 14.8814 6.50761 14.8197 6.45605 14.7559C6.43649 14.7317 6.41867 14.7061 6.39941 14.6816C6.35408 14.624 6.30822 14.5668 6.26465 14.5078C6.23648 14.4697 6.21004 14.4303 6.18262 14.3916C6.14115 14.333 6.0993 14.2747 6.05957 14.2148C6.03505 14.1779 6.01213 14.1399 5.98828 14.1025C5.9552 14.0506 5.92141 13.9991 5.88965 13.9463C5.85832 13.8942 5.82885 13.841 5.79883 13.7881C5.77075 13.7385 5.74274 13.6889 5.71582 13.6387C5.68147 13.5746 5.64864 13.5096 5.61621 13.4443C5.59906 13.4098 5.58106 13.3757 5.56445 13.3408C5.53621 13.2816 5.51004 13.2213 5.4834 13.1611C5.46424 13.1179 5.4441 13.075 5.42578 13.0312C5.40095 12.972 5.37873 12.9116 5.35547 12.8516C5.33981 12.8111 5.32256 12.7713 5.30762 12.7305L5.29199 12.6875C5.25912 12.5959 5.2284 12.5034 5.19922 12.4102C5.19667 12.402 5.19393 12.3939 5.19141 12.3857C5.13623 12.2072 5.09003 12.0251 5.04883 11.8408C4.99232 11.588 4.94778 11.3305 4.91895 11.0684C4.89051 10.8099 4.87502 10.5473 4.875 10.2812C4.87518 6.34672 8.06549 3.15651 12 3.15625ZM18.4873 0C20.6521 0 22.4241 1.72237 22.4678 3.88672C22.5014 5.55277 22.5312 7.46445 22.5312 9C22.5312 11.0127 22.4774 14.6555 22.4336 17.4014C22.4083 17.4008 22.3829 17.4004 22.3574 17.4004H17.043C19.1564 15.9004 20.574 13.4842 20.7139 10.7305L20.7246 10.2812C20.7244 5.6137 17.0587 1.80137 12.4492 1.56738L12 1.55664C7.18195 1.55696 3.27561 5.46308 3.27539 10.2812L3.28613 10.7305C3.42597 13.4846 4.8441 15.9007 6.95801 17.4004H1.64258C1.61679 17.4004 1.59107 17.4008 1.56543 17.4014C1.52164 14.6555 1.46875 11.0127 1.46875 9C1.46875 7.46445 1.49864 5.55277 1.53223 3.88672C1.57586 1.72237 3.34791 0 5.5127 0H18.4873ZM11.2412 6.97754C11.0524 6.93426 9.64907 6.58342 9.62793 6.57812L9.41504 7.43262C9.43186 7.4368 9.97282 7.57082 9.99512 7.57617C10.3193 7.65722 10.4087 7.87839 10.3682 8.04199L9.46973 11.6426C9.45057 11.7191 9.38166 11.8193 9.25293 11.8408C9.20994 11.848 9.16021 11.8461 9.10352 11.832C9.09314 11.8291 8.52148 11.6875 8.52148 11.6875L8.125 12.6035L9.73633 13.0098L9.40527 14.3398L10.2051 14.5391L10.5332 13.2236C10.7515 13.2829 10.9631 13.3379 11.1709 13.3896L10.8447 14.6992L11.6445 14.8984L11.9756 13.5723C12.2312 13.6206 12.4749 13.656 12.7051 13.6738C12.8588 13.6857 13.0064 13.69 13.1475 13.6846C13.9229 13.6548 14.5007 13.3403 14.7979 12.4922C15.146 11.4987 14.7805 10.9255 14.0625 10.5518C14.5855 10.4309 14.9789 10.0868 15.084 9.37695C15.2283 8.40712 14.4893 7.88523 13.4795 7.53711L13.8076 6.22266L13.0078 6.02344L12.6885 7.30273C12.4785 7.25024 12.2624 7.20012 12.0479 7.15137L12.3691 5.86328L11.5693 5.66406L11.2412 6.97754ZM11.2324 10.502C11.7752 10.637 13.514 10.9051 13.2559 11.9414C13.163 12.3139 12.8697 12.4715 12.5107 12.5156C12.3911 12.5303 12.2641 12.5321 12.1348 12.5254C11.6175 12.4986 11.0633 12.3308 10.792 12.2637L11.2324 10.502ZM11.832 8.09766C12.284 8.21023 13.7374 8.42016 13.5029 9.3623V9.36328C13.2771 10.2667 11.8856 9.80799 11.4336 9.69531L11.832 8.09766Z" fill="black"/>
</g>
<defs>
<clipPath id="clip0_18003_7287">
<rect width="24" height="24" fill="white"/>
</clipPath>
</defs>
</svg>
