<svg width="24" height="24" viewBox="0 0 24 24" fill="none" xmlns="http://www.w3.org/2000/svg">
<path fill-rule="evenodd" clip-rule="evenodd" d="M12 1C18.0751 1 23 5.92487 23 12C23 18.0751 18.0751 23 12 23C5.92487 23 1 18.0751 1 12C1 5.92487 5.92487 1 12 1ZM12.1602 5C11.3419 5 10.6747 5.75438 10.6641 6.69629V10.5039H6.85742C5.91539 10.5144 5.16016 11.1817 5.16016 12C5.16016 12.8183 5.91539 13.4856 6.85742 13.4961H10.6641V17.3027C10.6746 18.2447 11.3419 19 12.1602 19C12.9783 18.9998 13.6447 18.2446 13.6553 17.3027V13.4961C15.4744 13.4967 17.1045 13.5001 17.4639 13.4961C18.4056 13.4853 19.1602 12.8182 19.1602 12C19.1602 11.1818 18.4056 10.5147 17.4639 10.5039H13.6553V6.69629C13.6447 5.75452 12.9783 5.00023 12.1602 5Z" fill="black"/>
</svg>
