<svg width="24" height="24" viewBox="0 0 24 24" fill="none" xmlns="http://www.w3.org/2000/svg">
<path fill-rule="evenodd" clip-rule="evenodd" d="M12 1C18.0751 1 23 5.92487 23 12C23 18.0751 18.0751 23 12 23C5.92487 23 1 18.0751 1 12C1 5.92487 5.92487 1 12 1ZM12 10.3496C11.1083 10.3496 10.3816 11.0645 10.3701 11.9561C10.3599 12.758 10.3496 13.7164 10.3496 14.4746C10.3496 15.2329 10.3599 16.192 10.3701 16.9941C10.3817 17.8856 11.1084 18.5996 12 18.5996C12.8916 18.5996 13.6183 17.8856 13.6299 16.9941C13.6401 16.192 13.6504 15.2329 13.6504 14.4746C13.6504 13.7164 13.6401 12.758 13.6299 11.9561C13.6184 11.0645 12.8917 10.3496 12 10.3496ZM12 5.40039C11.0888 5.40039 10.3497 6.13862 10.3496 7.0498C10.3496 7.96107 11.0887 8.7002 12 8.7002C12.9113 8.7002 13.6504 7.96107 13.6504 7.0498C13.6503 6.13862 12.9112 5.40039 12 5.40039Z" fill="black"/>
</svg>
