<svg width="24" height="24" viewBox="0 0 24 24" fill="none" xmlns="http://www.w3.org/2000/svg">
<g clip-path="url(#clip0_18003_7251)">
<path fill-rule="evenodd" clip-rule="evenodd" d="M12 0.00099614C15.2474 -0.0292322 18.4647 0.628824 21.4411 1.93247C22.0068 2.19232 22.3679 2.76135 22.3637 3.3856V11.5067C22.3636 16.7614 19.1385 21.4732 14.2511 23.3598L13.1453 23.787C12.4084 24.0714 11.5916 24.0714 10.8548 23.787L9.74894 23.3598C4.86157 21.4732 1.63644 16.7614 1.63633 11.5067V3.3856C1.63217 2.76137 1.99331 2.19234 2.55892 1.93247C5.53531 0.628828 8.75259 -0.0292273 12 0.00099614ZM11.9436 10.3977C11.4193 10.3977 10.8908 10.4091 10.3636 10.4286C10.2749 10.4319 10.186 10.4344 10.0973 10.4382L9.71165 10.4574C9.45789 10.4717 9.20368 10.4854 8.94993 10.5021C8.88661 10.5069 8.82041 10.5123 8.7571 10.517C8.69376 10.5218 8.62761 10.5261 8.56427 10.5309C8.52842 10.5333 8.49189 10.5359 8.4588 10.5383C7.81908 10.591 7.30579 11.025 7.23685 11.5685C7.15135 12.26 7.10475 12.9638 7.10475 13.6577C7.10476 14.4683 7.15742 15.2861 7.26775 16.092C7.32846 16.5355 7.67588 16.9028 8.15305 17.0316C9.31162 17.3416 10.5176 17.506 11.7369 17.5227H12.261C13.4801 17.506 14.6854 17.3415 15.8438 17.0316C16.321 16.9029 16.6688 16.5355 16.7323 16.092C16.8426 15.2885 16.898 14.4683 16.8953 13.6577C16.8953 12.9642 16.8486 12.2606 16.7632 11.5696L16.7653 11.5675C16.7012 11.0626 16.254 10.6573 15.6808 10.5596C15.6368 10.5525 15.5922 10.5431 15.5455 10.5383C15.5264 10.5383 15.5071 10.5364 15.488 10.5341C15.4246 10.5293 15.3585 10.5239 15.2951 10.5192C15.2877 10.5186 15.2802 10.5176 15.2728 10.517L14.5334 10.4691L14.1478 10.4499C13.9775 10.4417 13.8069 10.437 13.6364 10.4307C13.1108 10.411 12.5847 10.3977 12.0618 10.3977H11.9436ZM11.4546 4.39768L11.1754 4.41153C9.80032 4.55133 8.72727 5.71296 8.72727 7.12496V9.01976H8.73366C8.76616 9.01737 8.79734 9.01562 8.82741 9.01336L8.84233 9.0123L9.61897 8.96542H9.63494L9.64986 8.96436C9.66473 8.9638 9.68311 8.96309 9.71804 8.96116C9.74769 8.95953 9.79442 8.95659 9.84269 8.95477C9.85754 8.95421 9.87607 8.95349 9.91087 8.95157C9.93892 8.95003 9.98256 8.94698 10.0281 8.94518C10.1397 8.94042 10.2517 8.93743 10.3636 8.93346V7.12496C10.3636 6.52248 10.8521 6.03407 11.4546 6.03405H12.5455C13.148 6.03405 13.6364 6.52247 13.6364 7.12496V8.93666C13.827 8.94366 14.0175 8.94892 14.2074 8.95797L14.2085 8.9569C14.2569 8.95872 14.3044 8.96165 14.3342 8.96329C14.369 8.96521 14.3875 8.96593 14.4024 8.96649C14.4575 8.96856 14.5563 8.97179 14.6559 8.97927L14.6549 8.98034C14.8607 8.99209 15.0668 9.00534 15.2728 9.01976V7.12496C15.2728 5.71295 14.1997 4.55131 12.8246 4.41153L12.5455 4.39768H11.4546Z" fill="black"/>
</g>
<defs>
<clipPath id="clip0_18003_7251">
<rect width="24" height="24" fill="white"/>
</clipPath>
</defs>
</svg>
