<svg width="24" height="24" viewBox="0 0 24 24" fill="none" xmlns="http://www.w3.org/2000/svg">
<path d="M3.87206 8.13125C4.34022 8.1255 4.79275 8.13408 5.22851 8.15273C6.32687 8.19977 7.17804 9.18646 7.22753 10.393C7.29348 12.0053 7.33106 13.6803 7.333 15.4125C7.33498 17.2564 7.29684 19.0348 7.22655 20.7436C7.17747 21.9368 6.34375 22.9192 5.2578 22.973C4.9082 22.9903 4.54569 23.0004 4.17187 23.0004C3.79682 23.0004 3.4327 22.9905 3.08202 22.973C1.99932 22.9189 1.16654 21.9419 1.11425 20.7523C1.04224 19.1106 1.00112 17.3996 0.999992 15.6244C0.99887 13.8088 1.03911 12.0596 1.1123 10.3832C1.16488 9.18102 2.01483 8.19998 3.10937 8.15273C3.35821 8.142 3.61286 8.1344 3.87206 8.13125Z" fill="black"/>
<path d="M11.832 4.56582C12.2522 4.56231 12.6598 4.56924 13.0537 4.58535C14.1458 4.63001 14.9913 5.63073 15.0371 6.84902C15.1208 9.07281 15.167 11.3802 15.167 13.766C15.167 16.167 15.1198 18.4888 15.0351 20.726C14.9897 21.9273 14.1664 22.9208 13.0898 22.974C12.7442 22.9911 12.3862 23.0008 12.0166 23.0004C11.6498 22.9999 11.2943 22.9896 10.9512 22.9721C9.89041 22.9178 9.07227 21.9499 9.01171 20.767C8.89216 18.4315 8.8267 15.97 8.83398 13.3939C8.84016 11.1033 8.90396 8.90456 9.01073 6.80605C9.07195 5.60669 9.91044 4.63289 10.9863 4.5873C11.2618 4.57566 11.5439 4.56811 11.832 4.56582Z" fill="black"/>
<path d="M19.7129 1.00039C20.1039 0.997821 20.4849 1.00396 20.8535 1.01796C21.9637 1.06041 22.8196 2.07582 22.8594 3.30605C22.9471 6.0213 22.9969 8.81942 23 11.6957C23.0032 14.7908 22.9529 17.7959 22.8584 20.7055C22.8191 21.9157 21.9884 22.9236 20.8965 22.976C20.5862 22.9909 20.266 22.9986 19.9365 22.9994C19.5545 23.0005 19.1845 22.9917 18.8281 22.974C17.7527 22.9205 16.9281 21.9396 16.8721 20.7484C16.7222 17.5538 16.6465 14.1949 16.6709 10.6869C16.6886 8.12698 16.7588 5.65001 16.8701 3.26211C16.9266 2.05094 17.7773 1.06306 18.8711 1.01992C19.1455 1.0091 19.4261 1.00227 19.7129 1.00039Z" fill="black"/>
</svg>
