<svg width="24" height="24" viewBox="0 0 24 24" fill="none" xmlns="http://www.w3.org/2000/svg">
<path d="M18.54 4.11997L13.04 2.05997C12.47 1.84997 11.54 1.84997 10.97 2.05997L5.46999 4.11997C4.40999 4.51997 3.54999 5.75997 3.54999 6.88997V14.99C3.54999 15.8 4.07999 16.87 4.72999 17.35L10.23 21.46C11.2 22.19 12.79 22.19 13.76 21.46L19.26 17.35C19.91 16.86 20.44 15.8 20.44 14.99V6.88997C20.45 5.75997 19.59 4.51997 18.54 4.11997ZM15.48 9.71997L11.18 14.02C11.03 14.17 10.84 14.24 10.65 14.24C10.46 14.24 10.27 14.17 10.12 14.02L8.51999 12.4C8.22999 12.11 8.22999 11.63 8.51999 11.34C8.80999 11.05 9.28999 11.05 9.57999 11.34L10.66 12.42L14.43 8.64997C14.72 8.35997 15.2 8.35997 15.49 8.64997C15.78 8.93997 15.78 9.42997 15.48 9.71997Z" fill="black"/>
</svg>
