<svg width="24" height="24" viewBox="0 0 24 24" fill="none" xmlns="http://www.w3.org/2000/svg">
<path d="M12.0104 2.18158C15.2366 2.18051 18.4627 2.31921 21.6657 2.59955C22.7343 2.6918 23.5743 3.54897 23.6647 4.64056C23.7484 5.651 23.8165 6.64995 23.8688 7.63568H23.8766C23.9641 9.13544 24.0033 10.6397 23.9987 12.1435C24.0087 14.6731 23.9079 17.0997 23.694 19.4042C23.5957 20.4667 22.7637 21.303 21.7155 21.3954C18.5003 21.6758 15.2676 21.8183 12.0319 21.8183C12.0247 21.8183 12.0167 21.8174 12.0095 21.8173C8.77654 21.819 5.54339 21.6812 2.33368 21.4003C1.26493 21.3081 0.425924 20.4501 0.335632 19.3583C0.251961 18.3478 0.183883 17.3491 0.131531 16.3632H0.123718C0.0362606 14.8633 -0.00397099 13.3593 0.000671387 11.8554C-0.00924176 9.32614 0.0925174 6.89994 0.306335 4.59564C0.404765 3.533 1.23643 2.69656 2.28485 2.60443C5.50015 2.3241 8.73267 2.18158 11.9684 2.18158H12.0104ZM8.61688 10.6728C8.29183 10.3184 7.72743 10.3354 7.4245 10.7089L3.11591 16.0224C2.71772 16.5133 2.49969 17.1266 2.49969 17.7587C2.49989 18.6078 3.17148 19.3037 4.0202 19.3281C5.95504 19.3836 9.36254 19.4687 11.9997 19.4687C14.8269 19.4687 18.5404 19.3706 20.3747 19.3163C21.0031 19.2975 21.4997 18.782 21.4997 18.1533C21.4996 17.5963 21.2723 17.0636 20.8698 16.6786L16.905 12.8876C16.6847 12.6773 16.3327 12.6944 16.1345 12.9257L14.2341 15.1435C13.8438 15.5988 13.1433 15.6107 12.738 15.1689L8.61688 10.6728ZM16.8747 4.99994C15.4941 5.00009 14.3747 6.11934 14.3747 7.49994C14.3747 8.88056 15.4941 9.99978 16.8747 9.99994C18.2554 9.99994 19.3747 8.88065 19.3747 7.49994C19.3747 6.11925 18.2554 4.99994 16.8747 4.99994Z" fill="black"/>
</svg>
