<svg width="24" height="24" viewBox="0 0 24 24" fill="none" xmlns="http://www.w3.org/2000/svg">
<g clip-path="url(#clip0_18003_7222)">
<path d="M11.9999 3.12012C15.8864 3.12014 18.8815 5.31561 20.8514 7.39355C21.844 8.44053 22.6029 9.4843 23.1132 10.2656C23.3687 10.657 23.565 10.9854 23.6971 11.2178C23.7628 11.3333 23.8129 11.4255 23.8475 11.4902C23.8648 11.5225 23.8781 11.5492 23.8876 11.5674C23.8922 11.5763 23.8966 11.5836 23.8993 11.5889C23.9006 11.5915 23.9032 11.5957 23.9032 11.5957L23.9042 11.5967V11.5996C24.0154 11.8198 24.0303 12.0748 23.9471 12.3037L23.9042 12.4014L23.8993 12.4121C23.8966 12.4173 23.8921 12.4239 23.8876 12.4326C23.8782 12.4507 23.8648 12.4765 23.8475 12.5088C23.8128 12.5736 23.7632 12.6671 23.6971 12.7832C23.565 13.0156 23.3688 13.343 23.1132 13.7344C22.6029 14.5157 21.8441 15.5603 20.8514 16.6074C18.8814 18.6852 15.8861 20.8799 11.9999 20.8799C8.11361 20.8798 5.11829 18.6853 3.14832 16.6074C2.15561 15.5603 1.39691 14.5157 0.886597 13.7344C0.631046 13.3431 0.435761 13.0156 0.303589 12.7832C0.237496 12.667 0.187927 12.5737 0.153198 12.5088C0.135842 12.4764 0.121626 12.4508 0.112183 12.4326C0.107653 12.4239 0.103162 12.4173 0.100464 12.4121L0.0965576 12.4023C-0.0309295 12.1502 -0.0308817 11.8518 0.0965576 11.5996V11.5967L0.0975342 11.5957C0.0979968 11.5948 0.0993255 11.5911 0.100464 11.5889C0.103156 11.5836 0.107557 11.5763 0.112183 11.5674C0.12162 11.5492 0.13592 11.5225 0.153198 11.4902C0.187864 11.4255 0.237908 11.3333 0.303589 11.2178C0.435751 10.9854 0.631012 10.657 0.886597 10.2656C1.39689 9.4843 2.15572 8.44057 3.14832 7.39355C5.11829 5.31561 8.11337 3.12017 11.9999 3.12012ZM11.9999 6.5C8.94901 6.50008 6.45223 8.95093 6.45203 12.002C6.45247 15.0528 8.94915 17.5028 11.9999 17.5029C15.0506 17.5029 17.5483 15.0528 17.5487 12.002C17.5485 8.9509 15.0508 6.50003 11.9999 6.5ZM11.9999 8.53125C13.9246 8.53125 15.4998 10.0771 15.4999 12.002C15.4996 13.9266 13.9244 15.4717 11.9999 15.4717C10.0753 15.4716 8.50016 13.9265 8.49988 12.002C8.49992 10.0772 10.0752 8.5313 11.9999 8.53125Z" fill="black"/>
</g>
<defs>
<clipPath id="clip0_18003_7222">
<rect width="24" height="24" fill="white"/>
</clipPath>
</defs>
</svg>
