<svg width="24" height="24" viewBox="0 0 24 24" fill="none" xmlns="http://www.w3.org/2000/svg">
<path fill-rule="evenodd" clip-rule="evenodd" d="M16.3594 0C18.8968 0 20.1653 0.000408769 21.041 0.862305C21.9167 1.7242 21.9368 2.94563 21.9756 5.38867C21.9908 6.34706 22 8.4517 22 9.71582C22 13.0455 21.9344 16.2625 21.8711 17.625C21.8328 18.4503 21.8132 18.863 21.5234 19.1396C21.2336 19.4163 20.8084 19.417 19.958 19.417H5.54297C4.78358 19.417 4.16797 20.0326 4.16797 20.792C4.16814 21.5512 4.78369 22.167 5.54297 22.167H20.8389C21.345 22.167 21.7557 22.5769 21.7559 23.083C21.7559 23.5893 21.3451 24 20.8389 24H6.12207C5.26365 24 4.83428 24.0002 4.49023 23.918C3.39768 23.6566 2.56833 22.843 2.28516 21.7559C2.19604 21.4135 2.18661 20.9729 2.16895 20.0918C2.1063 16.9665 2.00001 12.8424 2 9.71582C2 8.81971 2.01525 6.79037 2.03711 5.76074C2.0944 3.06217 2.12261 1.71274 2.99707 0.856445C3.87173 0.000161052 5.24065 0 7.97754 0H16.3594ZM9.91113 11.0098C9.53345 11.0098 9.34414 11.0089 9.18555 11.0293C8.05766 11.1742 7.16948 12.0626 7.02441 13.1904C7.00404 13.349 7.00391 13.5383 7.00391 13.916C7.00391 14.0671 7.00455 14.1426 7.0127 14.2061C7.07066 14.6573 7.42571 15.0124 7.87695 15.0703C7.94038 15.0785 8.01596 15.0791 8.16699 15.0791H15.833C15.984 15.0791 16.0596 15.0784 16.123 15.0703C16.5743 15.0124 16.9293 14.6573 16.9873 14.2061C16.9955 14.1426 16.9961 14.0671 16.9961 13.916C16.9961 13.5383 16.996 13.349 16.9756 13.1904C16.8305 12.0626 15.9424 11.1742 14.8145 11.0293C14.6559 11.0089 14.4666 11.0098 14.0889 11.0098H9.91113ZM12 4.35938C10.4952 4.35938 9.27563 5.57922 9.27539 7.08398C9.27539 8.58894 10.495 9.80957 12 9.80957C13.505 9.80956 14.7246 8.58894 14.7246 7.08398C14.7244 5.57923 13.5048 4.35939 12 4.35938Z" fill="black"/>
</svg>
