<svg width="24" height="24" viewBox="0 0 24 24" fill="none" xmlns="http://www.w3.org/2000/svg">
<g clip-path="url(#clip0_18003_7234)">
<path fill-rule="evenodd" clip-rule="evenodd" d="M17.9657 12C18.0609 12 18.1555 12.002 18.2496 12.0064C18.2944 12.0085 18.339 12.0119 18.3836 12.0149C18.4305 12.0181 18.4773 12.0213 18.5239 12.0256C18.5669 12.0295 18.6097 12.0346 18.6525 12.0394C18.7088 12.0458 18.7649 12.0528 18.8207 12.0607C18.8652 12.067 18.9094 12.0737 18.9536 12.081C18.9908 12.0871 19.028 12.0934 19.065 12.1001C19.1159 12.1095 19.1667 12.1183 19.2171 12.1289C19.2606 12.138 19.3037 12.1487 19.3468 12.1587C19.43 12.1781 19.5124 12.1999 19.5943 12.2227C19.639 12.2351 19.6839 12.2465 19.7282 12.2599L19.7604 12.2695C19.7921 12.2793 19.8231 12.2912 19.8546 12.3015C19.9008 12.3166 19.9472 12.3311 19.9929 12.3473C20.0342 12.362 20.0751 12.3776 20.1161 12.3931C20.1624 12.4107 20.2085 12.4288 20.2543 12.4474C20.2989 12.4656 20.3431 12.4847 20.3871 12.5039C20.4144 12.5158 20.4415 12.5278 20.4686 12.5401C20.5253 12.5659 20.5821 12.5915 20.6379 12.619C20.6545 12.6271 20.6706 12.6362 20.6871 12.6445C20.9453 12.7745 21.1923 12.9226 21.4275 13.0866C21.4583 13.1082 21.4892 13.1296 21.5196 13.1516C21.5644 13.1841 21.6087 13.2171 21.6525 13.2507C21.6622 13.2581 21.6718 13.2656 21.6814 13.2731C23.0931 14.3713 24 16.0797 24 18C24 21.3136 21.2982 23.9998 17.9657 24C16.8843 23.9999 15.8692 23.7156 14.9914 23.2202C14.9825 23.2151 14.9736 23.2093 14.9646 23.2042C14.5511 22.9679 14.168 22.685 13.8236 22.3615C13.7985 22.3379 13.7733 22.3141 13.7486 22.2901C13.7102 22.2528 13.6724 22.2145 13.635 22.1761C13.6131 22.1537 13.5912 22.1308 13.5696 22.108C13.5318 22.0679 13.4939 22.0276 13.4571 21.9865C13.4265 21.9523 13.397 21.917 13.3671 21.8821C13.3396 21.8499 13.3115 21.8179 13.2846 21.7852C13.2471 21.7394 13.2105 21.6925 13.1743 21.6456C13.1186 21.5734 13.065 21.4997 13.0125 21.4251C12.9657 21.359 12.9202 21.2919 12.8764 21.2237C12.859 21.1966 12.842 21.1691 12.825 21.1417C12.7906 21.0862 12.7569 21.03 12.7243 20.9734C12.7145 20.9563 12.7039 20.9394 12.6943 20.9222C12.6637 20.8678 12.6343 20.8125 12.6054 20.7571C12.5949 20.737 12.5845 20.7166 12.5743 20.6964C12.5468 20.6422 12.5198 20.5875 12.4939 20.5323C12.4807 20.5041 12.4681 20.4755 12.4554 20.4471C12.2948 20.0902 12.1687 19.7149 12.0804 19.3253C12.0764 19.3079 12.0713 19.2906 12.0675 19.2731C12.054 19.211 12.0426 19.1483 12.0311 19.0856C12.0249 19.0523 12.0184 19.0189 12.0129 18.9854C12.0064 18.9465 12.0004 18.9074 11.9946 18.8683C11.9855 18.8057 11.9772 18.7428 11.97 18.6797C11.9657 18.6418 11.9618 18.6038 11.9582 18.5657C11.9531 18.5116 11.949 18.4572 11.9454 18.4027C11.9429 18.3655 11.9397 18.3282 11.9379 18.2908C11.9332 18.1945 11.9314 18.0975 11.9314 18C11.9314 17.9021 11.9332 17.8048 11.9379 17.7081C11.9381 17.7024 11.9386 17.6967 11.9389 17.6911L11.9571 17.4375C11.9582 17.4265 11.9593 17.4155 11.9604 17.4045C11.9643 17.3649 11.9696 17.3255 11.9743 17.2862C11.9805 17.2342 11.9871 17.1823 11.9946 17.1307C12.0043 17.0642 12.016 16.9982 12.0279 16.9325C12.0334 16.902 12.0379 16.8713 12.0439 16.8409C12.0531 16.7942 12.0636 16.7477 12.0739 16.7013C12.0839 16.6565 12.094 16.6116 12.105 16.5671C12.1177 16.5157 12.1317 16.4646 12.1457 16.4137C12.1569 16.3731 12.168 16.3325 12.18 16.2923C12.1895 16.2603 12.199 16.2282 12.2089 16.1964C12.2144 16.1789 12.2204 16.1605 12.2261 16.1431C12.2359 16.1131 12.2469 16.0834 12.2571 16.0536C12.7224 14.7042 13.6582 13.572 14.8693 12.8501C14.8764 12.8459 14.8836 12.8416 14.8907 12.8374C15.0997 12.714 15.3168 12.603 15.5411 12.505C15.5589 12.4972 15.5767 12.4892 15.5946 12.4815C15.8319 12.3806 16.0768 12.2942 16.3286 12.2237C16.3325 12.2226 16.3364 12.2216 16.3404 12.2205C16.4614 12.1869 16.5839 12.1572 16.7079 12.131C16.7172 12.1291 16.7264 12.1266 16.7357 12.1246C16.8478 12.1016 16.9611 12.0829 17.0754 12.0661C17.1074 12.0613 17.1395 12.0564 17.1718 12.0522C17.2925 12.0364 17.4143 12.0235 17.5371 12.0149C17.5443 12.0144 17.5514 12.0143 17.5586 12.0139C17.6931 12.0049 17.8289 12 17.9657 12ZM14.8361 17.25C14.3818 17.2502 14.0132 17.6164 14.0132 18.0682C14.0134 18.5197 14.3819 18.8861 14.8361 18.8864H21.0846C21.0846 18.8864 21.9073 18.5197 21.9075 18.0682C21.9075 17.6165 21.5388 17.2503 21.0846 17.25H14.8361Z" fill="black"/>
<path d="M10.9714 0C17.0308 0 21.9429 4.88417 21.9429 10.9091C21.9429 11.0934 21.938 11.2767 21.9289 11.4588C20.8776 10.8277 19.6622 10.4389 18.3611 10.3732L17.9657 10.3636C16.6227 10.3637 15.3613 10.7068 14.2639 11.3086C14.2518 11.294 14.241 11.2782 14.2286 11.2639C13.7942 10.7488 13.2193 10.3554 12.5036 10.0856L10.9254 9.49645C10.583 9.36161 10.3132 9.22059 10.1175 9.07351C9.92226 8.92029 9.82507 8.69963 9.825 8.41193C9.8251 8.11806 9.94019 7.88463 10.1721 7.71307C10.4107 7.54138 10.7362 7.45632 11.1461 7.45632C11.5435 7.45635 11.9651 7.52051 12.4114 7.64915C12.858 7.77178 13.3063 7.94536 13.7529 8.17223C13.9971 7.96391 14.1948 7.69075 14.3475 7.35405C14.5064 7.01104 14.5863 6.67728 14.5864 6.35263C14.1094 6.10135 13.5686 5.89518 12.9632 5.7358C12.6515 5.65373 12.3169 5.59344 11.9614 5.55362V3.98757C11.8395 3.9571 11.6962 3.93588 11.5318 3.92365C11.3729 3.90527 11.2164 3.89597 11.0636 3.89595C10.9045 3.89595 10.7448 3.90526 10.5857 3.92365C10.4269 3.93591 10.2858 3.95697 10.1636 3.98757V5.55362C9.77691 5.61704 9.41608 5.73326 9.08143 5.90092C8.54919 6.16458 8.127 6.53355 7.815 7.00568C7.50331 7.47755 7.34689 8.02908 7.34679 8.66016C7.34688 9.37734 7.56748 9.96433 8.00786 10.418C8.44816 10.8652 8.99621 11.2115 9.65036 11.4567L11.3025 12.0533C11.712 12.2003 11.9952 12.3856 12.1543 12.6062C12.2135 12.6854 12.2585 12.7684 12.2957 12.8523C11.8771 13.3081 11.5132 13.8142 11.2146 14.3608C11.1284 14.3684 11.0379 14.3728 10.9436 14.3714C10.4666 14.3653 9.95565 14.265 9.41143 14.0689C8.86738 13.8728 8.38367 13.6361 7.96179 13.3604C7.80277 13.4585 7.65245 13.6122 7.51179 13.8207C7.37742 14.0289 7.26734 14.2555 7.18179 14.5004C7.1023 14.7455 7.05935 14.9727 7.05321 15.1811C7.30394 15.3588 7.63711 15.5371 8.05286 15.7148C8.47495 15.8865 8.9412 16.0309 9.44893 16.1474C9.62555 16.1878 10.1073 16.219 10.2857 16.2454V17.8306H10.2889L10.2857 18C10.2857 18.1171 10.2882 18.2407 10.2943 18.3686L10.2996 18.4634C10.3017 18.4926 10.302 18.498 10.3029 18.5114L10.32 18.718L10.335 18.8629L10.3661 19.1026L10.3896 19.2518L10.4121 19.3796L10.4593 19.6183L10.4721 19.6768C10.4755 19.6903 10.4784 19.702 10.4796 19.7067C10.48 19.7081 10.4805 19.7091 10.4807 19.7099C10.4799 19.7067 10.4781 19.6974 10.4754 19.6854L10.5686 20.054C10.6707 20.4188 10.7995 20.7733 10.9532 21.1151L11.0025 21.2237L11.1043 21.4325C11.1134 21.4506 11.1284 21.4805 11.1439 21.5103L11.2575 21.7202L11.2929 21.782C11.2962 21.7876 11.2973 21.7891 11.2982 21.7905C11.2977 21.7896 11.2971 21.788 11.2961 21.7862L11.2971 21.7852C11.3018 21.7933 11.3064 21.8016 11.3111 21.8097C11.1982 21.8131 11.0851 21.8182 10.9714 21.8182C4.91208 21.8182 0 16.934 0 10.9091C0 4.88417 4.91208 0 10.9714 0Z" fill="black"/>
</g>
<defs>
<clipPath id="clip0_18003_7234">
<rect width="24" height="24" fill="white"/>
</clipPath>
</defs>
</svg>
