<svg width="24" height="24" viewBox="0 0 24 24" fill="none" xmlns="http://www.w3.org/2000/svg">
<path d="M19.96 8.96002C19.29 8.22002 18.28 7.79002 16.88 7.64002V6.88002C16.88 5.51002 16.3 4.19002 15.28 3.27002C14.25 2.33002 12.91 1.89002 11.52 2.02002C9.12999 2.25002 7.11999 4.56002 7.11999 7.06002V7.64002C5.71999 7.79002 4.70999 8.22002 4.03999 8.96002C3.06999 10.04 3.09999 11.48 3.20999 12.48L3.90999 18.05C4.11999 20 4.90999 22 9.20999 22H14.79C19.09 22 19.88 20 20.09 18.06L20.79 12.47C20.9 11.48 20.93 10.04 19.96 8.96002ZM11.66 3.41002C12.66 3.32002 13.61 3.63002 14.35 4.30002C15.08 4.96002 15.49 5.90002 15.49 6.88002V7.58002H8.50999V7.06002C8.50999 5.28002 9.97999 3.57002 11.66 3.41002ZM12 18.58C9.90999 18.58 8.20999 16.88 8.20999 14.79C8.20999 12.7 9.90999 11 12 11C14.09 11 15.79 12.7 15.79 14.79C15.79 16.88 14.09 18.58 12 18.58Z" fill="black"/>
<path d="M13.6 15.31L13.07 14.78L13.57 14.28C13.86 13.99 13.86 13.51 13.57 13.22C13.28 12.93 12.8 12.93 12.51 13.22L12.01 13.72L11.48 13.19C11.19 12.9 10.71 12.9 10.42 13.19C10.13 13.48 10.13 13.96 10.42 14.25L10.95 14.78L10.4 15.33C10.11 15.62 10.11 16.1 10.4 16.39C10.55 16.54 10.74 16.61 10.93 16.61C11.12 16.61 11.31 16.54 11.46 16.39L12.01 15.84L12.54 16.37C12.69 16.52 12.88 16.59 13.07 16.59C13.26 16.59 13.45 16.52 13.6 16.37C13.89 16.08 13.89 15.61 13.6 15.31Z" fill="black"/>
</svg>
