<svg width="24" height="24" viewBox="0 0 24 24" fill="none" xmlns="http://www.w3.org/2000/svg">
<path d="M14.9881 21.2451C14.8633 22.7871 13.574 23.9999 11.9998 24C10.4261 23.9998 9.13578 22.7876 9.01057 21.2461C9.91251 21.2684 10.9067 21.2812 11.9998 21.2812L13.7664 21.2695C14.1909 21.2637 14.5984 21.2548 14.9881 21.2451Z" fill="black"/>
<path fill-rule="evenodd" clip-rule="evenodd" d="M11.9998 0C12.8281 0.000152539 13.4998 0.671667 13.4998 1.5V2.09863C13.4998 2.12684 13.497 2.15542 13.4959 2.18359C15.8934 2.77864 17.7919 4.77141 18.2713 7.33105C18.8846 10.6059 19.6548 14.3562 20.1278 15.3359C20.5592 16.2293 21.2089 17.1224 21.7606 17.8018C22.2229 18.3712 21.9899 19.1951 21.2713 19.2998C19.7489 19.5215 16.9149 19.7812 11.9998 19.7812C7.08402 19.7812 4.24945 19.5215 2.72737 19.2998C2.00975 19.1945 1.7765 18.3709 2.23811 17.8018C2.78982 17.1224 3.44031 16.2295 3.8719 15.3359C4.3448 14.3565 5.11401 10.606 5.72737 7.33105C6.2067 4.77171 8.10577 2.77897 10.5028 2.18359C10.5017 2.15543 10.4998 2.12682 10.4998 2.09863V1.5C10.4998 0.671827 11.1717 0.000411116 11.9998 0ZM13.0145 4.125C12.3483 3.959 11.6513 3.95895 10.9852 4.125C9.36205 4.52809 8.03112 5.89485 7.69319 7.69922C7.38491 9.34524 7.03449 11.1275 6.69905 12.6299C6.53159 13.3799 6.36398 14.0774 6.20393 14.6611C6.05543 15.2027 5.87917 15.7793 5.67366 16.2051C5.45182 16.6644 5.18714 17.1117 4.91389 17.5303C6.49665 17.6658 8.78227 17.7812 11.9998 17.7812C15.2166 17.7812 17.5022 17.6657 19.0848 17.5303C18.8119 17.1118 18.5486 16.665 18.327 16.2061C18.1214 15.7804 17.9444 15.2038 17.7957 14.6621C17.6356 14.0784 17.4682 13.3809 17.3006 12.6309C16.9649 11.1283 16.6138 9.34561 16.3055 7.69922C15.9675 5.8946 14.6377 4.52788 13.0145 4.125Z" fill="black"/>
</svg>
