<svg width="24" height="24" viewBox="0 0 24 24" fill="none" xmlns="http://www.w3.org/2000/svg">
<path d="M16.3286 14.0428C17.1109 14.0428 17.5042 14.0415 17.833 14.0844C20.1724 14.3906 22.0151 16.2661 22.3161 18.6474C22.3583 18.9823 22.3161 20.4728 22.3161 21.2704C22.3161 21.5892 22.3149 21.7491 22.298 21.883C22.1778 22.8355 21.4416 23.5852 20.506 23.708C20.3745 23.7253 20.1741 23.8027 19.8615 23.8028C17.2424 23.9103 14.6216 24.0037 12 23.9999C9.3793 24.0021 6.75658 23.9092 4.13852 23.8028C3.82562 23.8028 3.62552 23.7253 3.49397 23.708C2.55817 23.5854 1.82224 22.8356 1.70199 21.883C1.68511 21.749 1.68388 21.5893 1.68388 21.2704C1.68387 20.4728 1.64163 18.9822 1.68388 18.6474C1.98494 16.266 3.8274 14.3904 6.16701 14.0844C6.49579 14.0415 6.88877 14.0428 7.67134 14.0428H16.3286Z" fill="black"/>
<path d="M12.0053 0C15.1266 0.000489656 18.0051 2.82307 18.0056 6.00024C18.0056 9.17783 15.1269 12 12.0053 12.0005C8.88338 12.0005 6.00508 9.17811 6.00508 6.00024C6.00556 2.82279 8.88368 1.90548e-06 12.0053 0Z" fill="black"/>
</svg>
