<svg width="24" height="24" viewBox="0 0 24 24" fill="none" xmlns="http://www.w3.org/2000/svg">
<path d="M3 13.5H11.25V23H7.28125C5.54816 23 5.1099 22.7347 4.4375 22.3672C3.98785 22.1214 3.59734 21.7518 3.32715 21.3164C2.92315 20.6653 2.77974 20.0779 2.68555 18.373C2.58837 16.6141 2.50434 14.7373 2.50098 13.4961C2.66922 13.4984 2.83772 13.5 3 13.5Z" fill="black"/>
<path d="M21.498 13.4961C21.4949 14.7322 21.4179 16.5989 21.3271 18.3516C21.2384 20.065 21.1847 20.6589 20.7812 21.3125C20.5113 21.7496 20.1214 22.1202 19.6709 22.3672C18.9973 22.7363 18.1356 23 16.3955 23H12.75V13.5H21C21.162 13.5 21.3301 13.4984 21.498 13.4961Z" fill="black"/>
<path d="M11.25 12H3C2.05719 12 1.58586 11.9999 1.29297 11.707C1.00008 11.4141 1 10.9428 1 10C1 9.05719 1.00008 8.58586 1.29297 8.29297C1.58586 8.00008 2.05719 8 3 8H11.25V12Z" fill="black"/>
<path d="M21 8C21.9428 8 22.4141 8.00008 22.707 8.29297C22.9999 8.58586 23 9.05719 23 10C23 10.9428 22.9999 11.4141 22.707 11.707C22.4141 11.9999 21.9428 12 21 12H12.75V8H21Z" fill="black"/>
<path d="M8.95605 1.00586C10.1685 1.06728 11.2466 1.63587 11.9844 2.50293C12.7129 1.63577 13.7852 1.06701 14.9912 1.00586L15.208 1H16.3145L16.5039 1.00488C18.4513 1.10342 20 2.71365 20 4.68555L19.9941 4.90723C19.9654 5.47392 19.8906 5.75 19.2344 6.5H17.1191C17.6549 6.0761 18 5.42177 18 4.68555C18 3.81304 17.337 3.09527 16.4873 3.00879L16.3145 3H15.208C13.9887 3 13.0938 3.98438 13 5.20801L12.9102 6.5H11.1094L11 5.2627C10.8398 3.98828 9.98685 3.00025 8.7373 3H7.63672C6.73298 3 6 3.73298 6 4.63672C6.00011 5.39464 6.35827 6.06754 6.91309 6.5H4.73438C4.17188 5.84375 4.03552 5.44536 4.00586 4.86133L4 4.63672C4 2.69118 5.52789 1.10229 7.44922 1.00488L7.63672 1H8.7373L8.95605 1.00586Z" fill="black"/>
</svg>
