<svg width="24" height="24" viewBox="0 0 24 24" fill="none" xmlns="http://www.w3.org/2000/svg">
<path fill-rule="evenodd" clip-rule="evenodd" d="M15.5625 8.0625C18.7896 8.0625 20.4032 8.06264 21.499 8.93945C21.7292 9.12368 21.9388 9.3333 22.123 9.56348C22.9999 10.6593 23 12.2833 23 15.5312C23 18.7792 22.9999 20.4032 22.123 21.499C21.9388 21.7292 21.7292 21.9388 21.499 22.123C20.4032 22.9999 18.7896 23 15.5625 23C12.3354 23 10.7218 22.9999 9.62598 22.123C9.3958 21.9388 9.18618 21.7292 9.00195 21.499C8.12514 20.4032 8.125 18.7792 8.125 15.5312C8.125 12.2833 8.12514 10.6593 9.00195 9.56348C9.18618 9.3333 9.3958 9.12368 9.62598 8.93945C10.7218 8.06264 12.3354 8.0625 15.5625 8.0625ZM11.7344 18.5156C11.3202 18.5156 10.9844 18.8514 10.9844 19.2656C10.9845 19.6798 11.3202 20.0156 11.7344 20.0156H19.2344C19.6485 20.0156 19.9843 19.6798 19.9844 19.2656C19.9844 18.8514 19.6486 18.5156 19.2344 18.5156H11.7344ZM11.7344 14.7656C11.3202 14.7656 10.9844 15.1014 10.9844 15.5156C10.9844 15.9298 11.3202 16.2656 11.7344 16.2656H19.2344C19.6486 16.2656 19.9843 15.9298 19.9844 15.5156C19.9844 15.1014 19.6486 14.7656 19.2344 14.7656H11.7344ZM11.7344 11.0068C11.3202 11.0068 10.9844 11.3426 10.9844 11.7568C10.9847 12.1708 11.3204 12.5068 11.7344 12.5068H19.2344C19.6484 12.5068 19.984 12.1708 19.9844 11.7568C19.9844 11.3426 19.6486 11.0068 19.2344 11.0068H11.7344Z" fill="black"/>
<path d="M11 1C11.5379 1 11.9745 1.42472 11.9971 1.95703C13.5146 2.00656 14.4255 2.18335 15.0586 2.81641C15.7816 3.53941 15.9069 4.62488 15.9297 6.5625C15.8089 6.56246 15.6865 6.5625 15.5625 6.5625C14.9828 6.5625 14.4389 6.56458 13.9307 6.57031C13.9223 5.85701 13.9023 5.33278 13.8457 4.91211C13.7657 4.31698 13.6503 4.23627 13.6445 4.23047C13.6387 4.22466 13.558 4.10931 12.9629 4.0293C12.6372 3.9855 12.2494 3.96219 11.7598 3.9502C11.4216 4.57523 10.7606 5 10 5H7C6.23927 5 5.57739 4.57546 5.23926 3.9502C4.75012 3.9622 4.36262 3.98553 4.03711 4.0293C3.44198 4.10931 3.36127 4.22467 3.35547 4.23047C3.34967 4.23627 3.23431 4.31698 3.1543 4.91211C3.08847 5.40171 3.06976 6.03158 3.06445 6.93652L3.0625 7.9375V14.7598C3.0625 16.2299 3.06661 17.1316 3.1543 17.7842C3.23431 18.3793 3.34967 18.461 3.35547 18.4668C3.36306 18.4751 3.44924 18.5879 4.03711 18.667C4.63133 18.7469 5.43213 18.7574 6.68066 18.7588C6.69677 19.0168 6.71732 19.2619 6.74414 19.4941C6.79463 19.9312 6.87133 20.3535 6.9873 20.7588L6.06641 20.7578C4.04431 20.7467 2.88341 20.6627 2.1123 20.0352L1.94141 19.8809C1.17251 19.112 1.07645 17.9327 1.06445 15.7549L1.0625 14.7598V7.9375C1.0625 5.28596 1.06222 3.87705 1.78613 2.9873L1.94141 2.81641C2.57433 2.18349 3.485 2.00661 5.00195 1.95703C5.02448 1.4247 5.46213 1 6 1H11Z" fill="black"/>
</svg>
