<svg width="24" height="24" viewBox="0 0 24 24" fill="none" xmlns="http://www.w3.org/2000/svg">
<path d="M15.5117 6C18.8652 6 20.542 6.00003 21.6914 7.06152C21.7612 7.12598 21.8355 7.20009 21.9004 7.26953C22.9684 8.413 22.9782 10.1189 22.9971 13.5303C22.9989 13.8613 23 14.1826 23 14.4873C23 14.7916 22.9989 15.1118 22.9971 15.4424C22.978 18.8856 22.9686 20.6079 21.876 21.7568C21.8267 21.8087 21.7699 21.8651 21.7178 21.9141C20.5629 23.0001 18.879 23 15.5117 23C12.1218 23 10.4263 22.9995 9.26758 21.8955C9.22898 21.8587 9.18642 21.8166 9.14941 21.7783C8.0378 20.627 8.02587 18.899 8.00293 15.4434C8.00073 15.1125 8 14.7918 8 14.4873C8 14.1825 8.00073 13.8614 8.00293 13.5303C8.02567 10.1065 8.03754 8.39423 9.12402 7.24805C9.17695 7.19223 9.23777 7.13166 9.29395 7.0791C10.4473 5.99996 12.1357 6 15.5117 6Z" fill="black"/>
<path d="M9.69238 1.00195C12.276 1.01646 13.6856 1.13267 14.6914 2.06152C14.7612 2.12596 14.8355 2.20011 14.9004 2.26953C15.4254 2.83171 15.6927 3.5301 15.833 4.5C15.727 4.49998 15.6199 4.5 15.5117 4.5C14.9086 4.5 14.3404 4.50191 13.8076 4.50879C13.7186 4.05684 13.6061 3.83852 13.4961 3.7002L13.4395 3.63477L13.335 3.53125C13.1696 3.37854 12.9095 3.21551 12.1602 3.11426C11.3429 3.00386 10.2439 3 8.51172 3C6.76758 3 5.66161 3.00404 4.83984 3.11621C4.1821 3.206 3.9005 3.34304 3.72852 3.48047L3.66016 3.54004L3.5752 3.62402C3.42184 3.78587 3.25433 4.04713 3.14551 4.81543C3.02729 5.65028 3.01467 6.77561 3.00293 8.54297C3.00075 8.87056 3 9.18766 3 9.4873C3 9.78657 3.00076 10.1025 3.00293 10.4297L3.01367 11.6523C3.02768 12.7635 3.05693 13.5596 3.14746 14.1904C3.25841 14.9632 3.42946 15.2256 3.58789 15.3896L3.64746 15.4482L3.7168 15.5088C3.89134 15.651 4.1725 15.7896 4.82812 15.8809C5.28139 15.9439 5.82138 15.9714 6.50781 15.9854L6.51367 16.667C6.5193 17.1321 6.53053 17.5726 6.54688 17.9883C4.58668 17.9512 3.38081 17.7906 2.49219 17.0898L2.26758 16.8955L2.14941 16.7783C1.17674 15.7708 1.04643 14.3218 1.01367 11.6602L1.00293 10.4434L1 9.4873L1.00293 8.53027C1.02425 5.32042 1.03599 3.61478 1.93262 2.46973L2.12402 2.24805L2.29395 2.0791C3.44732 0.999956 5.13567 1 8.51172 1L9.69238 1.00195Z" fill="black"/>
</svg>
