<svg width="24" height="24" viewBox="0 0 24 24" fill="none" xmlns="http://www.w3.org/2000/svg">
<path d="M16.4097 10.084C16.9483 10.084 17.3113 10.6349 17.0989 11.1299L12.0029 23L12 22.9922L11.9971 23L6.90115 11.1299C6.68866 10.6349 7.05168 10.084 7.59032 10.084H16.4097Z" fill="black"/>
<path d="M4.57271 9.76024C4.7259 9.84015 4.84681 9.9705 4.91499 10.1293L9.94141 21.834L0 7.375L4.57271 9.76024Z" fill="black"/>
<path d="M14.0586 21.834L19.085 10.1293C19.1532 9.9705 19.2741 9.84015 19.4273 9.76024L24 7.375L14.0586 21.834Z" fill="black"/>
<path d="M15.5884 4.16504C15.9107 4.16504 16.197 4.37101 16.2995 4.67663L17.3161 7.70885C17.479 8.19474 17.1174 8.69727 16.605 8.69727H7.39886C6.88529 8.69727 6.52365 8.19274 6.6886 7.70638L7.71698 4.67415C7.8202 4.3698 8.10586 4.16504 8.42725 4.16504H15.5884Z" fill="black"/>
<path d="M5.96263 3.48653C6.27659 3.66371 6.42007 4.03918 6.30428 4.38058L5.22931 7.55016C5.08158 7.98576 4.58014 8.18697 4.17229 7.9743L0.642578 6.13379L4.94824 2.91406L5.96263 3.48653Z" fill="black"/>
<path d="M23.3574 6.13379L19.8304 7.97288C19.4216 8.18604 18.9191 7.9834 18.7726 7.54631L17.7106 4.3792C17.5963 4.03833 17.7399 3.6643 18.0531 3.4876L19.0693 2.91406L23.3574 6.13379Z" fill="black"/>
<path d="M15.9922 1L17.7002 2L16.6269 2.66568C16.5082 2.73931 16.3713 2.77832 16.2316 2.77832H7.78597C7.64628 2.77832 7.50937 2.73931 7.39066 2.66568L6.31738 2L8.00781 1H15.9922Z" fill="black"/>
</svg>
