<svg width="24" height="24" viewBox="0 0 24 24" fill="none" xmlns="http://www.w3.org/2000/svg">
<path d="M12 14C6.98997 14 2.90997 17.36 2.90997 21.5C2.90997 21.78 3.12997 22 3.40997 22H20.59C20.87 22 21.09 21.78 21.09 21.5C21.09 17.36 17.01 14 12 14Z" fill="black"/>
<path d="M16.85 5.79999C16.73 5.30999 16.53 4.82999 16.25 4.38999C16.06 4.06999 15.81 3.74999 15.54 3.46999C14.64 2.56999 13.47 2.07999 12.27 2.01999C10.91 1.92999 9.52003 2.42999 8.47003 3.46999C7.48003 4.44999 6.98003 5.75999 7.00003 7.07999C7.01003 8.32999 7.51003 9.57999 8.46003 10.54C9.12003 11.2 9.93003 11.64 10.8 11.84C11.27 11.96 11.77 12.02 12.27 11.98C13.46 11.93 14.62 11.46 15.53 10.54C16.82 9.24999 17.26 7.43999 16.85 5.79999ZM14 8.99999C13.64 9.35999 13.04 9.35999 12.68 8.99999L11.99 8.30999L11.33 8.96999C10.97 9.32999 10.37 9.32999 10.01 8.96999C9.64003 8.59999 9.64003 8.00999 10 7.64999L10.66 6.98999L10.02 6.36999C9.66003 5.99999 9.66003 5.40999 10.02 5.02999C10.39 4.66999 10.98 4.66999 11.36 5.02999L11.98 5.66999L12.65 4.99999C13.01 4.63999 13.6 4.63999 13.97 4.99999C14.33 5.35999 14.33 5.95999 13.97 6.31999L13.31 6.97999L14 7.67999C14.36 8.03999 14.36 8.63999 14 8.99999Z" fill="black"/>
</svg>
