<svg width="24" height="24" viewBox="0 0 24 24" fill="none" xmlns="http://www.w3.org/2000/svg">
<path d="M19.36 4.63997L5.82999 18.17L4.72999 17.35C4.07999 16.86 3.54999 15.8 3.54999 14.98V6.88997C3.54999 5.75997 4.40999 4.51997 5.45999 4.11997L10.96 2.05997C11.53 1.84997 12.47 1.84997 13.04 2.05997L18.54 4.11997C18.83 4.22997 19.11 4.40997 19.36 4.63997Z" fill="black"/>
<path d="M20.45 14.98C20.45 15.8 19.92 16.86 19.27 17.35L13.77 21.46C12.79 22.18 11.21 22.18 10.23 21.46L8.46999 20.15C7.97999 19.79 7.92999 19.07 8.35999 18.64L18.74 8.25995C19.37 7.62995 20.45 8.07995 20.45 8.96995V14.98Z" fill="black"/>
<path d="M21.77 2.23C21.47 1.93 20.98 1.93 20.68 2.23L2.23 20.69C1.93 20.99 1.93 21.48 2.23 21.78C2.38 21.92 2.57 22 2.77 22C2.97 22 3.16 21.92 3.31 21.77L21.77 3.31C22.08 3.01 22.08 2.53 21.77 2.23Z" fill="black"/>
</svg>
