<svg width="24" height="24" viewBox="0 0 24 24" fill="none" xmlns="http://www.w3.org/2000/svg">
<path fill-rule="evenodd" clip-rule="evenodd" d="M13.5 1C17.7297 1 19.8444 1.00027 21.2471 2.19824C21.4462 2.36834 21.6317 2.55378 21.8018 2.75293C22.9997 4.15557 23 6.27027 23 10.5C23 14.7297 22.9997 16.8444 21.8018 18.2471C21.6317 18.4462 21.4462 18.6317 21.2471 18.8018C19.8444 19.9997 17.7297 20 13.5 20H12.3711L6.49219 24V19.9316C4.75491 19.8232 3.61839 19.5409 2.75293 18.8018C2.55378 18.6317 2.36834 18.4462 2.19824 18.2471C1.00027 16.8444 1 14.7297 1 10.5C1 6.27027 1.00027 4.15557 2.19824 2.75293C2.36834 2.55378 2.55378 2.36834 2.75293 2.19824C4.15557 1.00027 6.27027 1 10.5 1H13.5ZM10.1553 11.0215C10.2612 13.4807 10.9064 15.4281 11.7227 15.75C11.8017 15.7534 11.8811 15.7559 11.9609 15.7559C12.0407 15.7559 12.1203 15.7534 12.1992 15.75C13.015 15.429 13.6597 13.4848 13.7666 11.0283L10.1553 11.0215ZM15.2666 11.0312C15.2122 12.3913 15.0081 13.6563 14.6738 14.6631C14.6218 14.8197 14.5637 14.9758 14.501 15.1299C16.0315 14.3256 17.1327 12.8181 17.377 11.0361L15.2666 11.0312ZM6.54199 11.0137C6.77987 12.8048 7.88379 14.321 9.41992 15.1289C9.35742 14.9753 9.30089 14.8192 9.24902 14.6631C8.9136 13.653 8.70687 12.3828 8.65332 11.0176L6.54199 11.0137ZM14.4775 5.43164C14.5493 5.60335 14.6156 5.77786 14.6738 5.95312C15.0037 6.9465 15.207 8.19173 15.2646 9.53125L17.377 9.53613C17.131 7.74578 16.0198 6.23256 14.4775 5.43164ZM11.9619 4.81836C11.0442 4.81922 10.286 6.86295 10.1592 9.52148L13.7627 9.52832C13.637 6.8666 12.8804 4.81943 11.9619 4.81836ZM9.44238 5.43262C7.90778 6.23053 6.7998 7.73402 6.54785 9.51367L8.65723 9.51758C8.71571 8.18316 8.92028 6.94316 9.24902 5.95312C9.30705 5.77841 9.37094 5.60381 9.44238 5.43262Z" fill="black"/>
</svg>
