<svg width="24" height="24" viewBox="0 0 24 24" fill="none" xmlns="http://www.w3.org/2000/svg">
<path d="M19.63 7.24C19.93 7.71 19.77 8.34 19.29 8.63L18.7 8.98L5.58997 16.84C5.10997 17.13 4.47997 16.97 4.19997 16.48C3.19997 14.74 2.74997 12.62 3.13997 10.4C3.79997 6.63 6.89997 3.63 10.69 3.09C14.44 2.56 17.83 4.36 19.63 7.24Z" fill="black"/>
<path d="M20.89 13.43C20.21 17.68 16.45 20.93 12.14 21C10.24 21.03 8.48003 20.48 7.02003 19.49C6.40003 19.08 6.42003 18.16 7.06003 17.78L19.47 10.49C20.12 10.11 20.92 10.55 20.98 11.3C21.03 12 21 12.71 20.89 13.43Z" fill="black"/>
</svg>
