<svg width="24" height="24" viewBox="0 0 24 24" fill="none" xmlns="http://www.w3.org/2000/svg">
<path d="M12 1C18.0751 1 23 5.92487 23 12C23 18.0751 18.0751 23 12 23C5.92487 23 1 18.0751 1 12C1 5.92487 5.92487 1 12 1ZM17.6484 8.50195C17.1798 8.03332 16.4198 8.03332 15.9512 8.50195L10.5 13.9531L8.04883 11.502L7.95801 11.4189C7.48667 11.0345 6.79093 11.0626 6.35156 11.502C5.88311 11.9706 5.88304 12.7297 6.35156 13.1982L9.65137 16.498C10.12 16.9667 10.88 16.9667 11.3486 16.498L17.6484 10.1982C18.117 9.72966 18.1169 8.97059 17.6484 8.50195Z" fill="black"/>
</svg>
