<svg width="24" height="24" viewBox="0 0 24 24" fill="none" xmlns="http://www.w3.org/2000/svg">
<path d="M13.7578 20.8291C14.2994 20.722 14.8253 21.0737 14.9326 21.6152C15.0398 22.157 14.6873 22.6838 14.1455 22.791C13.4508 22.9284 12.7333 23 12 23C11.2667 23 10.5492 22.9284 9.85449 22.791C9.31271 22.6838 8.9602 22.157 9.06738 21.6152C9.17471 21.0737 9.70058 20.722 10.2422 20.8291C10.8098 20.9414 11.3977 21 12 21C12.6023 21 13.1902 20.9414 13.7578 20.8291ZM3.12793 16.7256C3.58686 16.4183 4.20838 16.5411 4.51562 17C5.1729 17.9817 6.0183 18.8271 7 19.4844C7.45893 19.7916 7.58166 20.4131 7.27441 20.8721C6.96712 21.3308 6.34654 21.4536 5.8877 21.1465C4.68856 20.3437 3.65632 19.3114 2.85352 18.1123C2.54637 17.6535 2.66922 17.0329 3.12793 16.7256ZM19.4844 17C19.7916 16.5411 20.4131 16.4183 20.8721 16.7256C21.3308 17.0329 21.4536 17.6535 21.1465 18.1123C20.3437 19.3114 19.3114 20.3437 18.1123 21.1465C17.6535 21.4536 17.0329 21.3308 16.7256 20.8721C16.4183 20.4131 16.5411 19.7916 17 19.4844C17.9817 18.8271 18.8271 17.9817 19.4844 17ZM1 12C1 11.2667 1.07157 10.5492 1.20898 9.85449C1.31617 9.31271 1.84298 8.9602 2.38477 9.06738C2.9263 9.17471 3.27795 9.70058 3.1709 10.2422C3.0586 10.8098 3 11.3977 3 12C3 12.6023 3.0586 13.1902 3.1709 13.7578C3.27795 14.2994 2.9263 14.8253 2.38477 14.9326C1.84298 15.0398 1.31617 14.6873 1.20898 14.1455C1.07157 13.4508 1 12.7333 1 12ZM21 12C21 11.3977 20.9414 10.8098 20.8291 10.2422C20.722 9.70058 21.0737 9.17471 21.6152 9.06738C22.157 8.9602 22.6838 9.31271 22.791 9.85449C22.9284 10.5492 23 11.2667 23 12C23 12.7333 22.9284 13.4508 22.791 14.1455C22.6838 14.6873 22.157 15.0398 21.6152 14.9326C21.0737 14.8253 20.722 14.2994 20.8291 13.7578C20.9414 13.1902 21 12.6023 21 12ZM5.8877 2.85352C6.34654 2.54637 6.96712 2.66922 7.27441 3.12793C7.58166 3.58686 7.45893 4.20838 7 4.51562C6.0183 5.1729 5.1729 6.0183 4.51562 7C4.20838 7.45893 3.58686 7.58166 3.12793 7.27441C2.66922 6.96712 2.54637 6.34654 2.85352 5.8877C3.65632 4.68856 4.68856 3.65632 5.8877 2.85352ZM16.7256 3.12793C17.0329 2.66922 17.6535 2.54637 18.1123 2.85352C19.3114 3.65632 20.3437 4.68856 21.1465 5.8877C21.4536 6.34654 21.3308 6.96712 20.8721 7.27441C20.4131 7.58166 19.7916 7.45893 19.4844 7C18.8271 6.0183 17.9817 5.1729 17 4.51562C16.5411 4.20838 16.4183 3.58686 16.7256 3.12793ZM12 1C12.7333 1 13.4508 1.07157 14.1455 1.20898C14.6873 1.31617 15.0398 1.84298 14.9326 2.38477C14.8253 2.9263 14.2994 3.27795 13.7578 3.1709C13.1902 3.0586 12.6023 3 12 3C11.3977 3 10.8098 3.0586 10.2422 3.1709C9.70058 3.27795 9.17471 2.9263 9.06738 2.38477C8.9602 1.84298 9.31271 1.31617 9.85449 1.20898C10.5492 1.07157 11.2667 1 12 1Z" fill="black"/>
</svg>
