<svg width="24" height="24" viewBox="0 0 24 24" fill="none" xmlns="http://www.w3.org/2000/svg">
<path d="M22.66 4.64C22.46 4.28 22 4.14 21.64 4.34L4.70002 13.66C4.58002 13.12 4.5 12.56 4.5 12C4.5 7.86 7.86 4.5 12 4.5C13.41 4.5 14.78 4.89 15.96 5.63C16.31 5.85 16.77 5.74 16.99 5.39C17.21 5.04 17.1 4.58 16.75 4.36C15.33 3.47 13.69 3 12 3C7.04 3 3 7.04 3 12C3 12.81 3.11001 13.61 3.32001 14.39C3.32001 14.4 3.33002 14.4 3.33002 14.41L1.64002 15.34C1.28002 15.54 1.14003 16 1.34003 16.36C1.48003 16.61 1.73 16.75 2 16.75C2.12 16.75 2.24999 16.72 2.35999 16.66L22.36 5.66C22.72 5.46 22.86 5 22.66 4.64Z" fill="black"/>
<path d="M22.66 8.13997C22.46 7.77997 22 7.63997 21.64 7.83997L19.53 8.99997C19.5 9.01997 19.46 9.02997 19.43 9.05997L1.64002 18.84C1.28002 19.04 1.14003 19.5 1.34003 19.86C1.48003 20.11 1.73 20.25 2 20.25C2.12 20.25 2.24999 20.22 2.35999 20.16L19.39 10.79C19.45 11.19 19.5 11.59 19.5 12C19.5 16.14 16.14 19.5 12 19.5C10.58 19.5 9.21002 19.1 8.02002 18.36C7.67002 18.14 7.20999 18.25 6.98999 18.6C6.76999 18.95 6.86998 19.41 7.22998 19.63C8.65998 20.53 10.31 21 12.01 21C16.97 21 21.01 16.96 21.01 12C21.01 11.33 20.91 10.68 20.77 10.04L22.37 9.15997C22.72 8.95997 22.86 8.49997 22.66 8.13997Z" fill="black"/>
</svg>
