<svg width="24" height="24" viewBox="0 0 24 24" fill="none" xmlns="http://www.w3.org/2000/svg">
<path d="M16.42 7.95C18.86 10.39 18.86 14.35 16.42 16.79C13.98 19.23 10.02 19.23 7.58 16.79C5.14 14.35 5.14 10.39 7.58 7.95C10.02 5.51 13.98 5.51 16.42 7.95Z" fill="black"/>
<path d="M8.24997 22.39C8.15997 22.39 8.05997 22.37 7.96997 22.34C5.71997 21.44 3.89997 19.85 2.67997 17.75C1.49997 15.7 1.02997 13.38 1.33997 11.02C1.38997 10.61 1.77997 10.32 2.17997 10.37C2.58997 10.42 2.87997 10.8 2.82997 11.21C2.56997 13.24 2.96997 15.24 3.97997 17C5.01997 18.8 6.58997 20.17 8.51997 20.94C8.89997 21.1 9.08997 21.53 8.93997 21.92C8.82997 22.21 8.53997 22.39 8.24997 22.39Z" fill="black"/>
<path d="M5.84998 5.22999C5.62998 5.22999 5.40998 5.12999 5.25998 4.93999C4.99998 4.61999 5.05998 4.14999 5.38998 3.88999C7.28998 2.39999 9.57998 1.60999 12 1.60999C14.36 1.60999 16.61 2.36999 18.5 3.80999C18.83 4.05999 18.89 4.52999 18.64 4.85999C18.39 5.18999 17.92 5.24999 17.59 4.99999C15.96 3.75999 14.03 3.10999 12 3.10999C9.91998 3.10999 7.94998 3.78999 6.30998 5.06999C6.16998 5.17999 6.00998 5.22999 5.84998 5.22999Z" fill="black"/>
<path d="M15.75 22.39C15.45 22.39 15.17 22.21 15.05 21.92C14.9 21.54 15.08 21.1 15.47 20.94C17.4 20.16 18.97 18.8 20.01 17C21.03 15.24 21.43 13.24 21.16 11.22C21.11 10.81 21.4 10.43 21.81 10.38C22.21 10.33 22.6 10.62 22.65 11.03C22.95 13.38 22.49 15.71 21.31 17.76C20.1 19.86 18.27 21.44 16.02 22.35C15.94 22.37 15.85 22.39 15.75 22.39Z" fill="black"/>
</svg>
