<svg width="24" height="24" viewBox="0 0 24 24" fill="none" xmlns="http://www.w3.org/2000/svg">
<path d="M12 22.75C11.75 22.75 11.51 22.62 11.37 22.41L2.32999 8.41C2.10999 8.06 2.20999 7.59999 2.54999 7.36999C2.89999 7.14999 3.36 7.23999 3.59 7.58999L11.99 20.61L20.36 7.58999C20.58 7.23999 21.05 7.13998 21.4 7.35998C21.75 7.57998 21.85 8.04999 21.63 8.39999L12.63 22.4C12.49 22.62 12.26 22.75 12 22.75Z" fill="black"/>
<path d="M3.91999 4H5.73997C5.90997 4 6.05998 4.08 6.15998 4.22L11.6 12.37C11.8 12.67 12.23 12.67 12.43 12.37L17.87 4.22C17.96 4.08 18.12 4 18.29 4H20.11C20.51 4 20.74 4.43999 20.53 4.76999L12.45 17.35C12.25 17.66 11.81 17.66 11.61 17.35L3.52998 4.76999C3.27998 4.43999 3.51999 4 3.91999 4Z" fill="black"/>
<path d="M9.42001 3.5C8.97001 3.34 8.57 3.85 8.84 4.25L11.59 8.38C11.79 8.68001 12.22 8.68001 12.42 8.38L15.17 4.26001C15.44 3.86001 15.04 3.35001 14.59 3.51001L13.21 4V2.5C13.21 2.22 12.99 2 12.71 2H11.31C11.03 2 10.81 2.22 10.81 2.5V4L9.42001 3.5Z" fill="black"/>
</svg>
