<svg width="24" height="24" viewBox="0 0 24 24" fill="none" xmlns="http://www.w3.org/2000/svg">
<path fill-rule="evenodd" clip-rule="evenodd" d="M17.5391 4.32032C18.1005 3.88254 18.8909 3.89657 19.4375 4.34376L19.5508 4.4463C20.11 5.0057 20.1444 5.89085 19.6563 6.49025L19.5508 6.60646L18.3242 7.83302L14.252 11.9981C17.2986 15.0575 18.9198 16.7361 19.5772 17.4248L19.6777 17.541C20.1156 18.1025 20.1017 18.8928 19.6543 19.4395L19.5518 19.5527C18.9924 20.1117 18.1071 20.1463 17.5078 19.6582L17.3916 19.5527L16.165 18.3262L11.999 14.2559L6.59962 19.5615C6.00177 20.1484 5.03995 20.1471 4.44532 19.5527C3.86213 18.9695 3.84542 18.0232 4.41993 17.4209L5.20606 16.6035C6.09319 15.6873 7.54708 14.2014 9.73927 12.001L4.43653 6.60157C3.84966 6.00382 3.8512 5.04196 4.44532 4.44728C5.02857 3.8639 5.97486 3.84723 6.57716 4.42189L7.39454 5.20802C8.31102 6.09536 9.79676 7.55011 11.9981 9.74318C15.0559 6.69817 16.7343 5.07815 17.4229 4.42091L17.5391 4.32032Z" fill="black"/>
</svg>
