<svg width="24" height="24" viewBox="0 0 24 24" fill="none" xmlns="http://www.w3.org/2000/svg">
<path d="M12.5838 17.5C13.1912 17.5 13.6842 17.0077 13.6844 16.4004V8.50755C13.6845 8.19649 13.942 7.94713 14.2528 7.95774L16.0956 8.02219C17.0527 8.05529 17.592 6.93399 16.9686 6.20677L12.8348 1.3845C12.3959 0.872405 11.6039 0.871589 11.1649 1.38352C10.4633 2.202 9.4572 3.37714 8.70006 4.26048C8.19895 4.84511 7.58803 5.5567 7.02916 6.20872C6.40597 6.93577 6.9453 8.05683 7.90221 8.02415L9.81529 7.95774C10.1262 7.94716 10.3837 8.19644 10.3837 8.50755V16.4004C10.3839 17.0077 10.8769 17.5 11.4842 17.5H12.5838Z" fill="black"/>
<path d="M23.1484 12.4414C23.1484 13.4121 23.1406 14.0643 23.1289 15.1758C23.0901 18.8495 23.0713 20.6871 21.9023 21.8438C20.7333 23.0004 18.88 23 15.1748 23H8.83395C5.12538 23 3.27064 23.0002 2.10153 21.8428C0.932421 20.6853 0.914586 18.8456 0.877894 15.167C0.866868 14.0615 0.859375 13.4153 0.859375 12.4492C0.859375 12.432 0.859379 12.4135 0.859387 12.3938C0.859685 11.6232 1.4852 11 2.25582 11C3.0314 11 3.65701 11.6309 3.65627 12.4065C3.65626 12.4215 3.65625 12.4358 3.65625 12.4492C3.65625 14.1797 3.68293 15.9876 3.70797 17.6992C3.72555 18.9009 3.73465 19.5019 4.11422 19.876C4.49378 20.25 5.09646 20.25 6.30172 20.25C6.30172 20.25 9.76901 20.25 11.9907 20.25C14.2124 20.25 17.6797 20.25 17.6797 20.25C18.8924 20.25 19.4991 20.2495 19.8789 19.874C20.2584 19.4985 20.2655 18.8921 20.2793 17.6797L20.3438 12.4414L20.3435 12.4156C20.3372 11.6357 20.9677 11 21.7477 11C22.5207 11 23.1482 11.6251 23.1484 12.3981C23.1484 12.4133 23.1484 12.4278 23.1484 12.4414Z" fill="black"/>
</svg>
