<svg width="24" height="24" viewBox="0 0 24 24" fill="none" xmlns="http://www.w3.org/2000/svg">
<path d="M17.42 4.41H5.39002L7.27002 2.53C7.56002 2.24 7.56002 1.76 7.27002 1.47C6.98002 1.18 6.50002 1.18 6.21002 1.47L3.05002 4.63C2.98002 4.7 2.93002 4.78 2.89002 4.87C2.85002 4.96 2.83002 5.06 2.83002 5.16C2.83002 5.26 2.85002 5.36 2.89002 5.45C2.93002 5.54 2.98002 5.62 3.05002 5.69L6.21002 8.85C6.36002 9 6.55002 9.07 6.74002 9.07C6.93002 9.07 7.12002 9 7.27002 8.85C7.56002 8.56 7.56002 8.08 7.27002 7.79L5.39002 5.91H17.42C18.66 5.91 19.67 6.92 19.67 8.16V11.48C19.67 11.89 20.01 12.23 20.42 12.23C20.83 12.23 21.17 11.89 21.17 11.48V8.16C21.17 6.09 19.49 4.41 17.42 4.41Z" fill="black"/>
<path d="M21.17 18.84C21.17 18.74 21.15 18.64 21.11 18.55C21.07 18.46 21.02 18.38 20.95 18.31L17.79 15.15C17.5 14.86 17.02 14.86 16.73 15.15C16.44 15.44 16.44 15.92 16.73 16.21L18.61 18.09H6.58002C5.34002 18.09 4.33002 17.08 4.33002 15.84V12.52C4.33002 12.11 3.99002 11.77 3.58002 11.77C3.17002 11.77 2.83002 12.11 2.83002 12.52V15.84C2.83002 17.91 4.51002 19.59 6.58002 19.59H18.61L16.73 21.47C16.44 21.76 16.44 22.24 16.73 22.53C16.88 22.68 17.07 22.75 17.26 22.75C17.45 22.75 17.64 22.68 17.79 22.53L20.95 19.37C21.02 19.3 21.07 19.22 21.11 19.13C21.15 19.04 21.17 18.94 21.17 18.84Z" fill="black"/>
</svg>
