<svg width="24" height="24" viewBox="0 0 24 24" fill="none" xmlns="http://www.w3.org/2000/svg">
<path d="M8.49219 0.998047C9.16775 0.945077 9.72957 1.5061 9.67676 2.18164C9.59211 3.26124 9.47027 4.81036 9.37891 5.97559C9.31843 6.74683 9.24518 7.68673 9.17773 8.54688C9.10246 9.50594 7.92292 9.92064 7.26758 9.21875L5.79395 7.65039C5.60209 7.44485 5.29099 7.42112 5.06934 7.58008C4.26508 8.86074 3.79982 10.376 3.7998 12C3.79985 16.5559 7.45995 20.2554 12 20.3223C12.1967 20.319 12.3918 20.3093 12.585 20.293L12.5 21.3633L12.4922 21.7246C12.5084 22.212 12.6377 22.6709 12.8506 23.0791C12.5699 23.1035 12.2862 23.1164 12 23.1201V23.1211C5.91351 23.054 1.00005 18.1024 1 12C1.00002 9.51658 1.81486 7.22448 3.19043 5.37402C3.21901 5.1985 3.16455 5.01248 3.02441 4.88184L1.45801 3.40723C0.755711 2.75204 1.1706 1.57237 2.12988 1.49707L8.49219 0.998047ZM12 0.87793C18.0865 0.945007 23 5.89666 23 11.999C23 14.4824 22.1851 16.7745 20.8096 18.625C20.781 18.8005 20.8354 18.9865 20.9756 19.1172L22.542 20.5918C23.2443 21.247 22.8294 22.4267 21.8701 22.502L15.5078 23.001C14.8322 23.0539 14.2704 22.4929 14.3232 21.8174C14.4079 20.7378 14.5297 19.1887 14.6211 18.0234C14.6816 17.2522 14.7548 16.3123 14.8223 15.4521C14.8975 14.4931 16.0771 14.0784 16.7324 14.7803L18.2061 16.3486C18.3979 16.5542 18.709 16.5779 18.9307 16.4189C19.7349 15.1383 20.2002 13.623 20.2002 11.999C20.2001 7.44308 16.54 3.74464 12 3.67773C11.8033 3.68096 11.6082 3.68974 11.415 3.70605L11.5 2.63574L11.5078 2.27441C11.4916 1.78707 11.3623 1.32814 11.1494 0.919922C11.4301 0.895533 11.7138 0.881612 12 0.87793Z" fill="black"/>
</svg>
