<svg width="24" height="24" viewBox="0 0 24 24" fill="none" xmlns="http://www.w3.org/2000/svg">
<path d="M12.1152 8.45703C13.3757 8.45704 14.6465 8.49711 15.9121 8.56738C16.6698 8.60946 17.4263 8.6657 18.1826 8.72754C18.2787 8.73592 18.3768 8.74553 18.4717 8.75391C18.5073 8.75907 18.5435 8.76361 18.5791 8.76367C18.6661 8.77407 18.7492 8.79397 18.8311 8.80957C19.8953 9.02288 20.7248 9.90763 20.8428 11.0098H20.8369C20.9956 12.5179 21.083 14.0531 21.083 15.5664C21.0881 17.3346 20.985 19.1244 20.7803 20.877C20.6624 21.844 20.0181 22.6449 19.1328 22.9258C16.983 23.6019 14.7458 23.9607 12.4834 23.9971H11.5107C9.2484 23.9606 7.01106 23.6019 4.86133 22.9258C3.97621 22.6448 3.3315 21.8439 3.21875 20.877C3.01402 19.1192 2.917 17.3346 2.91699 15.5664C2.91701 14.0531 3.00442 12.5179 3.16309 11.0098C3.2914 9.82436 4.24342 8.87806 5.43066 8.76367C5.49175 8.7585 5.55788 8.75322 5.62402 8.74805C6.57135 8.66479 7.52063 8.58787 8.4707 8.5459C9.61199 8.4887 10.7584 8.45704 11.8945 8.45703H12.1152ZM11.998 10.7041C10.6467 10.7041 9.40667 11.2288 8.46484 12.0869C8.34224 12.2011 8.21984 12.3207 8.10742 12.4453C7.97949 12.5857 7.86161 12.732 7.74902 12.8828C7.06825 13.7982 6.65379 14.938 6.64355 16.1758V16.2275C6.64359 16.3311 6.65406 16.4346 6.65918 16.5381C6.66939 16.6626 6.6732 16.783 6.68848 16.9023C7.01072 19.6256 9.26634 21.746 11.9971 21.749C14.7282 21.7465 16.9834 19.6259 17.3057 16.9023C17.321 16.783 17.3308 16.6626 17.3359 16.5381C17.3411 16.4346 17.3505 16.3311 17.3506 16.2275V16.1758C17.3404 15.2346 17.1057 14.3497 16.6963 13.5801C16.5888 13.3773 16.4658 13.1891 16.3379 13.002C16.2254 12.8409 16.1073 12.6894 15.9795 12.5439C14.9969 11.4158 13.5792 10.7043 11.998 10.7041ZM12 13.0615C12.7521 13.0616 13.4113 13.4288 13.8271 13.9941C13.9018 14.0952 13.9628 14.2016 14.0234 14.3164C14.0748 14.4175 14.117 14.5284 14.1543 14.6387C14.2243 14.8546 14.2705 15.0844 14.2705 15.3232C14.2705 15.5346 14.2377 15.737 14.1816 15.9346C14.149 16.0448 14.1109 16.1503 14.0596 16.2559C14.0082 16.3662 13.9529 16.478 13.8828 16.5791H13.8779C13.7472 16.7765 13.5836 16.9556 13.3877 17.1025C13.3084 17.1669 13.2566 17.2593 13.252 17.3604L13.2432 18.6016C13.243 18.9829 12.9624 19.3048 12.5889 19.3555C12.3927 19.3785 12.1915 19.3834 12 19.3926C11.7992 19.3926 11.5984 19.3784 11.4023 19.3555C11.0287 19.3095 10.7482 18.983 10.748 18.6016V17.3008C10.748 17.2457 10.7098 17.1856 10.6445 17.1396C10.4346 16.9835 10.257 16.7949 10.1123 16.5791C10.0423 16.478 9.98595 16.3662 9.93457 16.2559C9.888 16.1504 9.84534 16.0446 9.81738 15.9346C9.7614 15.737 9.72949 15.53 9.72949 15.3232C9.72952 15.0844 9.77571 14.8546 9.8457 14.6387C9.88305 14.5284 9.92522 14.4175 9.97656 14.3164C10.0326 14.2016 10.0982 14.0952 10.1729 13.9941C10.584 13.4334 11.2479 13.0615 12 13.0615ZM13.4297 0C15.6157 0 17.3886 1.79646 17.3887 4.0127V7.18359C16.7277 7.12596 16.07 7.08284 15.4092 7.04688V4.0127C15.4091 2.9046 14.5227 2.00586 13.4297 2.00586H10.5684C9.47575 2.00628 8.58991 2.90486 8.58984 4.0127V4.86133C7.93584 4.90259 7.28903 4.94053 6.62695 4.99902C6.62155 4.99949 6.61579 4.99951 6.61035 5V4.0127C6.61042 1.79672 8.38274 0.000422153 10.5684 0H13.4297Z" fill="black"/>
</svg>
