<svg width="24" height="24" viewBox="0 0 24 24" fill="none" xmlns="http://www.w3.org/2000/svg">
<path d="M12.9102 1C14.7423 1 15.6585 0.999939 16.2412 1.56836C16.8239 2.13693 16.846 3.04846 16.8906 4.87109C16.8958 5.08323 16.8982 5.30041 16.9033 5.52148C15.7258 5.65115 14.6601 6.55575 14.6064 7.93066V8.14355L14.6328 8.8916H10.0801C8.69495 8.8916 7.50003 9.99381 7.5 11.4414V12.4912C7.5 13.9388 8.69493 15.042 10.0801 15.042H14.6338L14.6055 15.8584V16.0693C14.6594 17.4447 15.7261 18.3487 16.9043 18.4775C16.8991 18.699 16.8968 18.9165 16.8916 19.1289C16.8468 20.9514 16.8239 21.8631 16.2412 22.4316C15.6586 22.9999 14.7427 23 12.9111 23H5.0752C3.23457 23 2.31366 23 1.73047 22.4287C1.14738 21.8574 1.12853 20.9409 1.09082 19.1084C1.04533 16.8982 1 14.1527 1 12.0068C1.00001 9.85874 1.04529 7.10645 1.09082 4.8916C1.12849 3.05911 1.14744 2.1426 1.73047 1.57129C2.31366 0.999962 3.23448 1 5.0752 1H12.9102Z" fill="black"/>
<path d="M16.1055 8.08887C16.0729 7.17508 17.1737 6.65991 17.8877 7.25488L22.623 11.2021C23.1256 11.6213 23.1258 12.3778 22.623 12.7969C21.8195 13.4667 20.6669 14.4276 19.7998 15.1504C19.2258 15.6288 18.5259 16.2115 17.8857 16.7451C17.1718 17.3397 16.0721 16.8248 16.1045 15.9111L16.1689 14.085C16.1794 13.7882 15.9351 13.5422 15.6299 13.542H10.0801C9.48364 13.542 9 13.0712 9 12.4912V11.4414C9.00003 10.8614 9.48366 10.3916 10.0801 10.3916H15.6289C15.9345 10.3916 16.1796 10.1447 16.1689 9.84766L16.1055 8.08887Z" fill="black"/>
</svg>
