<svg width="24" height="24" viewBox="0 0 24 24" fill="none" xmlns="http://www.w3.org/2000/svg">
<path d="M2.00586 15.9998C2.55625 15.9998 3.00181 16.4455 3.00977 16.9959C3.02254 17.8793 3.05351 18.5619 3.12891 19.1228C3.24551 19.9897 3.43374 20.2616 3.58594 20.4138L3.64941 20.4724C3.81526 20.612 4.11819 20.7688 4.87695 20.8709C5.43783 20.9463 6.12052 20.9765 7.00391 20.989C7.55436 20.9969 7.99988 21.4424 8 21.9929C8 22.547 7.54908 22.9974 6.99512 22.9861C4.74225 22.9402 3.18228 22.7466 2.2832 21.9343L2.17188 21.8279C1.27019 20.9261 1.06161 19.3477 1.01367 17.0047C1.00235 16.4511 1.45227 16 2.00586 15.9998Z" fill="black"/>
<path d="M21.9941 15.9998C22.5477 16 22.9977 16.4511 22.9863 17.0047C22.9384 19.3478 22.7298 20.9261 21.8281 21.8279L21.7168 21.9343C20.8177 22.7466 19.2578 22.9402 17.0049 22.9861C16.4509 22.9974 16 22.547 16 21.9929C16.0001 21.4424 16.4456 20.9969 16.9961 20.989C17.8795 20.9765 18.5622 20.9463 19.123 20.8709C19.9901 20.7542 20.2618 20.5661 20.4141 20.4138L20.4727 20.3504C20.6122 20.1845 20.7691 19.8814 20.8711 19.1228C20.9465 18.5619 20.9775 17.8793 20.9902 16.9959C20.9982 16.4455 21.4438 15.9998 21.9941 15.9998Z" fill="black"/>
<path d="M18.25 14.4998C18.1877 16.0889 18.1346 16.9075 17.5801 17.4412C16.9993 18 16.1083 17.9998 14.3271 17.9998C14.3271 17.9998 12.9374 17.9998 12.0469 17.9998C11.1564 17.9998 9.7666 17.9998 9.7666 17.9998C7.98547 17.9998 7.09444 18 6.51367 17.4412C5.95917 16.9075 5.90601 16.0889 5.84375 14.4998H18.25Z" fill="black"/>
<path d="M14.7812 6.03103C16.5623 6.03103 16.9993 6.0309 17.5801 6.58962C18.1607 7.1484 18.1937 8.01948 18.2607 9.76052C18.2768 10.1764 18.2897 10.5959 18.2988 10.9998H23C23.5522 10.9998 23.9999 11.4476 24 11.9998C24 12.5521 23.5523 12.9998 23 12.9998H1C0.447715 12.9998 0 12.5521 0 11.9998C0.000111053 11.4476 0.447784 10.9998 1 10.9998H5.79492C5.80405 10.5959 5.81698 10.1764 5.83301 9.76052C5.90009 8.01948 5.93303 7.1484 6.51367 6.58962C7.09444 6.0309 7.50022 6.03103 9.28125 6.03103C9.28125 6.03103 9.28125 6.03103 12.0469 6.03103C15.5014 6.03295 14.7812 6.03103 14.7812 6.03103Z" fill="black"/>
<path d="M6.99512 1.01345C7.54889 1.00221 7.99989 1.45174 8 2.00564C8 2.55624 7.55443 3.00149 7.00391 3.00954C6.12053 3.02232 5.43782 3.05328 4.87695 3.12869C4.11831 3.23073 3.81528 3.38753 3.64941 3.52712L3.58594 3.58572C3.43373 3.73792 3.24554 4.0098 3.12891 4.87673C3.05353 5.43739 3.02255 6.11981 3.00977 7.00271C3.00179 7.55375 2.55599 7.99978 2.00488 7.99978C1.45144 7.99969 1.00177 7.54927 1.00977 6.99587C1.0442 4.6148 1.21496 3.22433 2.06543 2.28298L2.17188 2.17165C3.07361 1.27002 4.65229 1.06159 6.99512 1.01345Z" fill="black"/>
<path d="M17.0049 1.01345C19.3477 1.06159 20.9264 1.27003 21.8281 2.17165C22.7707 3.11421 22.9543 4.51896 22.9902 6.99587C22.9983 7.54928 22.5486 7.99969 21.9951 7.99978C21.444 7.99978 20.9982 7.55375 20.9902 7.00271C20.9774 6.11981 20.9465 5.43739 20.8711 4.87673C20.769 4.11809 20.6123 3.81503 20.4727 3.64919L20.4141 3.58572C20.2618 3.43351 19.9899 3.24529 19.123 3.12869C18.5622 3.05328 17.8795 3.02232 16.9961 3.00954C16.4456 3.00149 16 2.55623 16 2.00564C16.0001 1.45174 16.4511 1.00222 17.0049 1.01345Z" fill="black"/>
</svg>
