<svg width="360" height="360" viewBox="0 0 360 360" fill="none" xmlns="http://www.w3.org/2000/svg">
<g clip-path="url(#clip0_18087_5248)">
<path d="M282.964 294.973L235.273 263.551C232.228 261.966 228.098 261.075 223.792 261.072H188.436C184.129 261.072 179.999 261.963 176.955 263.551L132.42 294.973C129.376 296.559 127.663 298.712 127.663 300.955L110.112 313.987C108.939 314.858 108.143 316.304 108.821 317.598C109.558 319.006 110.99 320.304 113.005 321.353L176.955 356.774C179.999 358.36 184.129 359.251 188.436 359.253H223.789C228.098 359.253 232.226 358.362 235.273 356.774L295.595 321.37C297.492 320.382 298.872 319.173 299.642 317.86C300.491 316.413 299.743 314.693 298.638 313.43L287.721 300.955C287.721 298.71 298.639 296.559 295.595 294.973H282.964Z" fill="black" stroke="black" stroke-width="0.44" stroke-miterlimit="10"/>
<path d="M157.72 2.45741L91.6075 40.5867C88.2692 42.5108 85.0694 45.8878 82.7083 49.9702L63.334 83.4951C60.9757 87.5775 59.6483 92.035 59.6483 95.8861V172.145C59.6483 175.993 60.9757 178.921 63.334 180.284L82.7083 191.459C85.0694 192.819 88.2721 192.503 91.6075 190.579L157.72 152.449C161.059 150.525 164.258 147.148 166.62 143.066L185.994 109.544C188.355 105.459 189.68 101.001 189.68 97.1528V20.8943C189.68 17.0433 188.352 14.1177 185.994 12.755L166.622 1.58C164.261 0.217335 161.061 0.536137 157.723 2.46023L157.72 2.45741Z" fill="#9B90BA" stroke="black" stroke-width="0.44" stroke-miterlimit="10"/>
<path d="M295.442 234.206L234.563 199.096C231.49 197.324 227.322 196.328 222.975 196.325H187.291C182.944 196.325 178.776 197.321 175.703 199.096L114.823 234.206C111.751 235.978 110.022 238.384 110.022 240.89V299.744C110.022 302.252 111.751 304.656 114.823 306.427L175.703 341.538C178.776 343.31 182.944 344.306 187.291 344.308H222.972C227.322 344.308 231.487 343.312 234.563 341.538L295.442 306.427C298.515 304.656 300.244 302.249 300.244 299.744V240.89C300.244 238.382 298.518 235.978 295.445 234.206H295.442Z" fill="#9B90BA" stroke="black" stroke-width="0.44" stroke-miterlimit="10"/>
<path d="M295.442 212.243L234.563 177.132C231.49 175.36 227.322 174.365 222.975 174.362H187.291C182.944 174.362 178.776 175.358 175.703 177.132L114.823 212.243C111.751 214.014 110.022 216.421 110.022 218.926V239.504C110.022 242.013 111.751 244.416 114.823 246.188L175.703 281.298C178.776 283.07 182.944 284.066 187.291 284.069H222.972C227.322 284.069 231.487 283.073 234.563 281.298L295.442 246.188C298.515 244.416 300.244 242.01 300.244 239.504V218.926C300.244 216.418 298.518 214.014 295.445 212.243H295.442Z" fill="#F7F2F7" stroke="black" stroke-width="0.44" stroke-miterlimit="10"/>
<path d="M132.601 212.087L114.385 198.757L123.493 193.503L132.601 212.087Z" fill="black" stroke="black" stroke-width="0.44" stroke-miterlimit="10"/>
<path d="M175.645 13.4366L109.532 51.5658C106.194 53.4899 102.994 56.867 100.633 60.9493L81.2584 94.4743C78.9001 98.5566 77.5728 103.014 77.5728 106.865V183.124C77.5728 186.972 78.9001 189.9 81.2584 191.263L100.633 202.438C102.994 203.798 106.197 203.482 109.532 201.558L175.645 163.429C178.983 161.504 182.183 158.127 184.544 154.045L203.918 120.523C206.279 116.438 207.604 111.98 207.604 108.132V31.8706C207.604 28.0196 206.277 25.094 203.918 23.7313L184.547 12.5563C182.186 11.1937 178.986 11.5125 175.648 13.4366H175.645Z" fill="#F7F2F7" stroke="black" stroke-width="0.44" stroke-miterlimit="10"/>
<path d="M104.964 187.864L91.7212 180.224C89.3601 178.864 88.0355 175.936 88.0355 172.085V105.828C88.0355 101.977 89.3629 97.522 91.7212 93.4368L104.964 70.5226C107.325 66.4374 110.528 63.0632 113.863 61.1391L171.306 28.0091C174.644 26.085 177.844 25.769 180.205 27.1289L193.448 34.766C195.809 36.1287 197.133 39.0571 197.133 42.9053V109.162C197.133 113.013 195.806 117.468 193.448 121.553L180.205 144.468C177.844 148.553 174.644 151.927 171.306 153.851L113.863 186.981C110.525 188.905 107.325 189.221 104.964 187.861V187.864Z" fill="white" stroke="#231F20" stroke-width="0.44" stroke-miterlimit="10"/>
<path d="M104.964 187.864L91.7212 180.224C89.3601 178.864 88.0355 175.936 88.0355 172.085V105.828C88.0355 101.977 89.3629 97.522 91.7212 93.4368L104.964 70.5226C107.325 66.4374 110.528 63.0632 113.863 61.1391L171.306 28.0091C174.644 26.085 177.844 25.769 180.205 27.1289L193.448 34.766C195.809 36.1287 197.133 39.0571 197.133 42.9053V109.162C197.133 113.013 195.806 117.468 193.448 121.553L180.205 144.468C177.844 148.553 174.644 151.927 171.306 153.851L113.863 186.981C110.525 188.905 107.325 189.221 104.964 187.861V187.864Z" fill="black" stroke="black" stroke-width="0.44" stroke-miterlimit="10"/>
<path d="M193.449 34.7692L180.206 27.1321C179.274 26.5961 178.21 26.3224 177.057 26.3055L178.503 27.1406C180.865 28.5032 182.189 31.4317 182.189 35.2799V101.537C182.189 105.388 180.862 109.846 178.503 113.928L165.261 136.842C162.899 140.927 159.7 144.302 156.361 146.226L98.919 179.356C96.8997 180.521 94.934 181.091 93.1688 181.063L104.963 187.867C107.324 189.227 110.527 188.911 113.862 186.987L171.304 153.857C174.643 151.933 177.843 148.559 180.204 144.474L193.447 121.559C195.805 117.474 197.132 113.017 197.132 109.169V42.9114C197.132 39.0604 195.808 36.1319 193.447 34.7721L193.449 34.7692Z" fill="#60597C" stroke="black" stroke-width="0.44" stroke-miterlimit="10"/>
<path d="M124.662 234.423V220.532C124.662 218.055 126.368 215.682 129.404 213.93L181.644 183.802C184.68 182.052 188.798 181.068 193.09 181.068H217.178C221.474 181.068 225.589 182.052 228.625 183.802L280.865 213.93C283.901 215.679 285.604 218.055 285.604 220.532V234.423C285.604 236.9 283.898 239.273 280.865 241.025L228.625 271.153C225.589 272.902 221.471 273.887 217.178 273.887H193.09C188.795 273.887 184.68 272.902 181.644 271.153L129.404 241.025C126.368 239.276 124.665 236.9 124.662 234.423Z" fill="black" stroke="black" stroke-width="0.44" stroke-miterlimit="10"/>
<path d="M284.586 217.274C284.526 217.183 284.467 217.093 284.405 217.003" stroke="black" stroke-width="0.44" stroke-miterlimit="10"/>
<path d="M283.634 216.067C283.561 215.988 283.484 215.911 283.405 215.832C283.484 215.909 283.561 215.988 283.634 216.064V216.067Z" fill="#9B90BA" stroke="black" stroke-width="0.44" stroke-miterlimit="10"/>
<path d="M283.981 216.454C283.915 216.375 283.847 216.298 283.776 216.219C283.847 216.295 283.915 216.375 283.981 216.454Z" fill="#9B90BA" stroke="black" stroke-width="0.44" stroke-miterlimit="10"/>
<path d="M284.691 217.44C284.691 217.44 284.675 217.417 284.669 217.407C284.669 217.407 284.685 217.43 284.691 217.44Z" fill="#9B90BA" stroke="black" stroke-width="0.44" stroke-miterlimit="10"/>
<path d="M283.261 215.694C283.24 215.676 283.223 215.656 283.202 215.638" stroke="black" stroke-width="0.44" stroke-miterlimit="10"/>
<path d="M284.291 216.855C284.228 216.773 284.169 216.691 284.104 216.612C284.169 216.694 284.231 216.773 284.291 216.855Z" fill="#9B90BA" stroke="black" stroke-width="0.44" stroke-miterlimit="10"/>
<path d="M124.838 219.15C124.804 219.286 124.773 219.424 124.75 219.559C124.776 219.421 124.804 219.286 124.838 219.15Z" stroke="black" stroke-width="0.44" stroke-miterlimit="10"/>
<path d="M125.206 218.143C125.194 218.167 125.188 218.191 125.176 218.212C125.185 218.188 125.194 218.164 125.206 218.143Z" stroke="black" stroke-width="0.44" stroke-miterlimit="10"/>
<path d="M124.967 218.744C124.958 218.768 124.949 218.791 124.94 218.815" stroke="black" stroke-width="0.44" stroke-miterlimit="10"/>
<path d="M124.941 218.812C124.904 218.925 124.87 219.038 124.842 219.151" stroke="black" stroke-width="0.44" stroke-miterlimit="10"/>
<path d="M125.127 218.327C125.084 218.425 125.048 218.524 125.011 218.623" stroke="black" stroke-width="0.44" stroke-miterlimit="10"/>
<path d="M124.733 219.683C124.716 219.785 124.704 219.886 124.693 219.991C124.704 219.889 124.716 219.785 124.733 219.683Z" stroke="black" stroke-width="0.44" stroke-miterlimit="10"/>
<path d="M124.682 220.113C124.682 220.137 124.676 220.16 124.676 220.186C124.676 220.163 124.682 220.139 124.682 220.113Z" stroke="black" stroke-width="0.44" stroke-miterlimit="10"/>
<path d="M193.088 273.885C190.137 273.885 187.267 273.42 184.776 272.559C187.267 273.42 190.134 273.885 193.088 273.885ZM193.088 273.885H217.176C217.444 273.885 217.713 273.883 217.978 273.874" stroke="black" stroke-width="0.44" stroke-miterlimit="10"/>
<path d="M219.566 273.785C219.041 273.83 218.513 273.861 217.979 273.875" stroke="black" stroke-width="0.44" stroke-miterlimit="10"/>
<path d="M226.806 272.054C226.168 272.328 225.496 272.571 224.798 272.785C225.496 272.571 226.168 272.325 226.806 272.054Z" stroke="black" stroke-width="0.44" stroke-miterlimit="10"/>
<path d="M283.405 215.834C283.484 215.911 283.561 215.99 283.634 216.067C283.561 215.987 283.484 215.911 283.405 215.834Z" fill="#9B90BA" stroke="black" stroke-width="0.44" stroke-miterlimit="10"/>
<path d="M283.981 216.454C283.915 216.375 283.847 216.298 283.776 216.219C283.847 216.295 283.915 216.375 283.981 216.454Z" fill="#9B90BA" stroke="black" stroke-width="0.44" stroke-miterlimit="10"/>
<path d="M190.964 181.148C191.051 181.142 191.142 181.134 191.229 181.128C191.142 181.134 191.051 181.139 190.964 181.148Z" fill="#9B90BA" stroke="black" stroke-width="0.44" stroke-miterlimit="10"/>
<path d="M280.863 213.929C281.033 214.027 281.199 214.129 281.36 214.231" stroke="black" stroke-width="0.44" stroke-miterlimit="10"/>
<path d="M283.21 215.637C283.139 215.572 283.066 215.508 282.992 215.443C283.086 215.525 283.176 215.606 283.264 215.691C283.244 215.674 283.227 215.654 283.207 215.637H283.21Z" fill="#9B90BA" stroke="black" stroke-width="0.44" stroke-miterlimit="10"/>
<path d="M227.634 183.281C227.702 183.315 227.77 183.349 227.835 183.381C227.767 183.347 227.702 183.313 227.634 183.281Z" fill="#9B90BA" stroke="black" stroke-width="0.44" stroke-miterlimit="10"/>
<path d="M282.429 214.974C282.288 214.864 282.138 214.754 281.989 214.647C282.297 214.867 282.588 215.093 282.861 215.327C282.723 215.209 282.579 215.09 282.429 214.974Z" fill="#9B90BA" stroke="black" stroke-width="0.44" stroke-miterlimit="10"/>
<path d="M222.636 181.61C223.009 181.686 223.373 181.774 223.735 181.867" stroke="black" stroke-width="0.44" stroke-miterlimit="10"/>
<path d="M219.567 181.168C219.83 181.191 220.093 181.216 220.352 181.247C220.093 181.216 219.833 181.191 219.57 181.168H219.567Z" fill="#9B90BA" stroke="black" stroke-width="0.44" stroke-miterlimit="10"/>
<path d="M284.586 217.274C284.526 217.183 284.467 217.093 284.405 217.003" stroke="black" stroke-width="0.44" stroke-miterlimit="10"/>
<path d="M281.502 214.32C281.621 214.397 281.736 214.476 281.849 214.555" stroke="black" stroke-width="0.44" stroke-miterlimit="10"/>
<path d="M284.291 216.855C284.231 216.773 284.169 216.691 284.104 216.612C284.169 216.694 284.231 216.773 284.291 216.855Z" fill="#9B90BA" stroke="black" stroke-width="0.44" stroke-miterlimit="10"/>
<path d="M284.903 217.813C284.835 217.686 284.765 217.559 284.688 217.435C284.683 217.427 284.674 217.416 284.669 217.407C284.751 217.542 284.83 217.678 284.903 217.816V217.813Z" fill="#9B90BA" stroke="black" stroke-width="0.44" stroke-miterlimit="10"/>
<path d="M218.246 181.089C218.336 181.092 218.424 181.098 218.514 181.101C218.424 181.095 218.336 181.092 218.246 181.089Z" fill="#9B90BA" stroke="black" stroke-width="0.44" stroke-miterlimit="10"/>
<path d="M124.966 218.744C124.958 218.766 124.949 218.789 124.941 218.811C124.904 218.924 124.87 219.037 124.842 219.15C124.876 219.014 124.918 218.879 124.963 218.744H124.966Z" fill="#9B90BA" stroke="black" stroke-width="0.44" stroke-miterlimit="10"/>
<path d="M126.577 216.135C126.452 216.27 126.334 216.406 126.221 216.541C126.444 216.27 126.69 216.005 126.958 215.746C126.825 215.873 126.698 216.002 126.577 216.135Z" fill="#9B90BA" stroke="black" stroke-width="0.44" stroke-miterlimit="10"/>
<path d="M124.733 219.683C124.716 219.785 124.704 219.886 124.693 219.991C124.704 219.889 124.716 219.785 124.733 219.683Z" fill="#9B90BA" stroke="black" stroke-width="0.44" stroke-miterlimit="10"/>
<path d="M124.674 220.184C124.666 220.299 124.663 220.415 124.663 220.531C124.663 220.392 124.671 220.251 124.68 220.113C124.68 220.136 124.674 220.158 124.674 220.184Z" fill="#9B90BA" stroke="black" stroke-width="0.44" stroke-miterlimit="10"/>
<path d="M124.838 219.15C124.804 219.286 124.776 219.424 124.75 219.559C124.776 219.421 124.804 219.286 124.838 219.15Z" fill="#9B90BA" stroke="black" stroke-width="0.44" stroke-miterlimit="10"/>
<path d="M125.127 218.327C125.084 218.425 125.048 218.524 125.011 218.623" stroke="black" stroke-width="0.44" stroke-miterlimit="10"/>
<path d="M184.107 182.635C183.997 182.678 183.89 182.723 183.783 182.768C184.757 182.373 185.799 182.04 186.892 181.778C185.921 182.009 184.986 182.297 184.107 182.635Z" fill="#9B90BA" stroke="black" stroke-width="0.44" stroke-miterlimit="10"/>
<path d="M126.964 215.741C126.964 215.741 126.99 215.719 127.002 215.706C126.99 215.719 126.977 215.728 126.964 215.741Z" fill="#9B90BA" stroke="black" stroke-width="0.44" stroke-miterlimit="10"/>
<path d="M125.366 217.814C125.309 217.924 125.253 218.034 125.205 218.144C125.193 218.166 125.188 218.189 125.176 218.209C125.236 218.076 125.298 217.943 125.366 217.814Z" fill="#9B90BA" stroke="black" stroke-width="0.44" stroke-miterlimit="10"/>
<path d="M124.687 220.115C124.689 220.072 124.695 220.032 124.698 219.992C124.695 220.032 124.689 220.075 124.687 220.115Z" stroke="black" stroke-width="0.44" stroke-miterlimit="10"/>
<path d="M124.737 219.685C124.743 219.645 124.748 219.602 124.757 219.562" stroke="black" stroke-width="0.44" stroke-miterlimit="10"/>
<path d="M189.916 181.246C190.261 181.206 190.611 181.175 190.961 181.147C190.611 181.172 190.261 181.203 189.916 181.246Z" stroke="black" stroke-width="0.44" stroke-miterlimit="10"/>
<path d="M227.843 183.38C228.112 183.516 228.374 183.654 228.629 183.8" stroke="black" stroke-width="0.44" stroke-miterlimit="10"/>
<path d="M191.224 181.129C191.577 181.106 191.93 181.086 192.283 181.075C191.927 181.086 191.574 181.106 191.224 181.129Z" stroke="black" stroke-width="0.44" stroke-miterlimit="10"/>
<path d="M126.954 215.748C126.954 215.748 126.962 215.741 126.965 215.737C126.965 215.737 126.958 215.744 126.954 215.748Z" stroke="black" stroke-width="0.44" stroke-miterlimit="10"/>
<path d="M188.379 181.47C188.884 181.383 189.395 181.307 189.915 181.247" stroke="black" stroke-width="0.44" stroke-miterlimit="10"/>
<path d="M218.513 181.1C218.866 181.117 219.216 181.137 219.566 181.168C219.219 181.137 218.866 181.117 218.513 181.1Z" stroke="black" stroke-width="0.44" stroke-miterlimit="10"/>
<path d="M124.967 218.746C124.981 218.706 124.995 218.666 125.01 218.626" stroke="black" stroke-width="0.44" stroke-miterlimit="10"/>
<path d="M125.126 218.329C125.143 218.289 125.16 218.249 125.177 218.209" stroke="black" stroke-width="0.44" stroke-miterlimit="10"/>
<path d="M217.178 181.066C217.537 181.066 217.893 181.075 218.246 181.089C217.89 181.075 217.534 181.066 217.178 181.066Z" stroke="black" stroke-width="0.44" stroke-miterlimit="10"/>
<path d="M281.367 214.23C281.415 214.261 281.461 214.292 281.51 214.321C281.461 214.29 281.415 214.258 281.367 214.23Z" stroke="black" stroke-width="0.44" stroke-miterlimit="10"/>
<path d="M183.787 182.764C183.245 182.984 182.722 183.221 182.228 183.478C182.426 183.374 182.629 183.275 182.832 183.176C183.14 183.03 183.459 182.894 183.784 182.762L183.787 182.764Z" stroke="black" stroke-width="0.44" stroke-miterlimit="10"/>
<path d="M127.842 214.975C127.54 215.212 127.257 215.454 126.995 215.706C127.119 215.584 127.249 215.466 127.384 215.35C127.531 215.223 127.684 215.099 127.842 214.975Z" stroke="black" stroke-width="0.44" stroke-miterlimit="10"/>
<path d="M285.584 220.067C285.599 220.223 285.604 220.375 285.604 220.53C285.604 220.375 285.599 220.22 285.584 220.067Z" stroke="black" stroke-width="0.44" stroke-miterlimit="10"/>
<path d="M227.641 183.281C226.963 182.951 226.246 182.652 225.491 182.393C225.943 182.548 226.384 182.717 226.81 182.901C227.096 183.022 227.37 183.152 227.641 183.284V183.281Z" stroke="black" stroke-width="0.44" stroke-miterlimit="10"/>
<path d="M224.802 182.164C224.454 182.056 224.096 181.958 223.734 181.867C223.856 181.898 223.977 181.927 224.096 181.961C224.333 182.025 224.57 182.093 224.802 182.166V182.164Z" stroke="black" stroke-width="0.44" stroke-miterlimit="10"/>
<path d="M284.581 217.277C284.609 217.319 284.641 217.365 284.666 217.408C284.638 217.362 284.609 217.319 284.581 217.277Z" stroke="black" stroke-width="0.44" stroke-miterlimit="10"/>
<path d="M281.857 214.555C281.903 214.586 281.948 214.617 281.994 214.649" stroke="black" stroke-width="0.44" stroke-miterlimit="10"/>
<path d="M283.259 215.691C283.308 215.739 283.357 215.785 283.405 215.833C283.357 215.785 283.311 215.736 283.259 215.691Z" stroke="black" stroke-width="0.44" stroke-miterlimit="10"/>
<path d="M284.294 216.854C284.33 216.905 284.37 216.956 284.404 217.007C284.367 216.956 284.33 216.905 284.294 216.854Z" stroke="black" stroke-width="0.44" stroke-miterlimit="10"/>
<path d="M282.857 215.328C282.903 215.368 282.946 215.405 282.989 215.445C282.946 215.405 282.903 215.366 282.857 215.328Z" stroke="black" stroke-width="0.44" stroke-miterlimit="10"/>
<path d="M283.638 216.066C283.686 216.117 283.732 216.168 283.78 216.219C283.734 216.168 283.686 216.117 283.638 216.066Z" stroke="black" stroke-width="0.44" stroke-miterlimit="10"/>
<path d="M283.979 216.453C284.022 216.504 284.067 216.558 284.107 216.609C284.064 216.558 284.022 216.504 283.979 216.453Z" stroke="black" stroke-width="0.44" stroke-miterlimit="10"/>
<path d="M283.405 215.837C283.357 215.789 283.311 215.74 283.259 215.695C283.308 215.743 283.357 215.789 283.405 215.837Z" fill="#9B90BA" stroke="black" stroke-width="0.44" stroke-miterlimit="10"/>
<path d="M283.78 216.219C283.734 216.168 283.686 216.117 283.638 216.066C283.686 216.117 283.732 216.168 283.78 216.219Z" fill="#9B90BA" stroke="black" stroke-width="0.44" stroke-miterlimit="10"/>
<path d="M284.666 217.408C284.638 217.362 284.609 217.319 284.581 217.277C284.609 217.322 284.641 217.365 284.666 217.408Z" fill="#9B90BA" stroke="black" stroke-width="0.44" stroke-miterlimit="10"/>
<path d="M284.404 217.007C284.367 216.956 284.33 216.905 284.294 216.854C284.33 216.905 284.37 216.956 284.407 217.007H284.404Z" fill="#9B90BA" stroke="black" stroke-width="0.44" stroke-miterlimit="10"/>
<path d="M284.107 216.609C284.064 216.558 284.022 216.504 283.979 216.453C284.022 216.504 284.067 216.558 284.11 216.609H284.107Z" fill="#9B90BA" stroke="black" stroke-width="0.44" stroke-miterlimit="10"/>
<path d="M124.757 219.56C124.748 219.6 124.743 219.643 124.737 219.683" stroke="black" stroke-width="0.44" stroke-miterlimit="10"/>
<path d="M124.698 219.989C124.695 220.031 124.689 220.071 124.687 220.111C124.689 220.068 124.695 220.028 124.698 219.989Z" stroke="black" stroke-width="0.44" stroke-miterlimit="10"/>
<path d="M125.177 218.209C125.16 218.249 125.143 218.289 125.126 218.329" stroke="black" stroke-width="0.44" stroke-miterlimit="10"/>
<path d="M125.01 218.626C124.995 218.666 124.981 218.706 124.967 218.746" stroke="black" stroke-width="0.44" stroke-miterlimit="10"/>
<path d="M217.179 224.28H193.091C188.798 224.28 184.68 225.264 181.644 227.013L143.378 249.081L181.644 271.149C182.593 271.696 183.646 272.168 184.779 272.56C187.27 273.42 190.136 273.886 193.091 273.886H217.179C217.447 273.886 217.715 273.883 217.981 273.874C218.514 273.86 219.043 273.829 219.568 273.784C221.404 273.626 223.172 273.288 224.801 272.785C225.499 272.571 226.171 272.326 226.809 272.055C227.448 271.781 228.055 271.482 228.625 271.152L266.885 249.087C251.315 240.104 228.625 227.016 228.625 227.016C225.589 225.267 221.474 224.282 217.179 224.282V224.28Z" stroke="black" stroke-width="0.44" stroke-miterlimit="10"/>
<path d="M285.586 220.067C285.572 219.912 285.552 219.76 285.527 219.608C285.422 218.998 285.213 218.397 284.905 217.816C284.832 217.678 284.756 217.542 284.671 217.407C284.643 217.362 284.614 217.32 284.586 217.277C284.527 217.187 284.468 217.097 284.405 217.006C284.369 216.956 284.332 216.905 284.292 216.854C284.233 216.772 284.171 216.69 284.106 216.611C284.064 216.558 284.021 216.507 283.976 216.456C283.911 216.377 283.843 216.301 283.773 216.222C283.728 216.171 283.68 216.12 283.632 216.07C283.558 215.991 283.482 215.915 283.403 215.838C283.355 215.79 283.307 215.742 283.259 215.697C283.171 215.613 283.078 215.531 282.988 215.449C282.945 215.41 282.903 215.37 282.858 215.333C282.587 215.099 282.296 214.873 281.985 214.653C281.94 214.622 281.895 214.591 281.85 214.56C281.737 214.481 281.621 214.402 281.502 214.326C281.454 214.295 281.409 214.264 281.361 214.236C281.2 214.134 281.033 214.033 280.864 213.934L228.624 183.806C228.37 183.659 228.107 183.521 227.839 183.385C227.771 183.352 227.706 183.318 227.638 183.287C227.367 183.154 227.093 183.024 226.808 182.903C226.381 182.722 225.941 182.55 225.489 182.395C225.263 182.316 225.034 182.243 224.8 182.169C224.568 182.099 224.331 182.028 224.094 181.964C223.975 181.932 223.854 181.901 223.732 181.87C223.371 181.777 223.006 181.69 222.634 181.614C221.891 181.461 221.125 181.337 220.349 181.247C220.089 181.216 219.826 181.191 219.564 181.168C219.216 181.137 218.863 181.117 218.51 181.1C218.42 181.095 218.332 181.092 218.242 181.089C217.886 181.075 217.53 181.066 217.174 181.066H193.086C192.818 181.066 192.55 181.069 192.284 181.078C191.928 181.089 191.575 181.109 191.225 181.131C191.138 181.137 191.047 181.143 190.96 181.151C190.609 181.179 190.259 181.207 189.915 181.25C189.395 181.309 188.884 181.385 188.378 181.473C187.873 181.56 187.378 181.664 186.893 181.78C185.8 182.043 184.758 182.375 183.783 182.77C183.458 182.903 183.139 183.038 182.831 183.185C182.625 183.281 182.425 183.383 182.227 183.487C182.029 183.591 181.834 183.696 181.645 183.806L129.405 213.934C128.835 214.261 128.315 214.611 127.84 214.981C127.682 215.105 127.53 215.229 127.383 215.356C127.247 215.472 127.12 215.59 126.993 215.711C126.982 215.723 126.971 215.731 126.959 215.742C126.959 215.742 126.954 215.748 126.951 215.751C126.683 216.01 126.437 216.276 126.214 216.546C125.875 216.958 125.592 217.384 125.361 217.819C125.293 217.949 125.231 218.081 125.172 218.214C125.155 218.253 125.138 218.293 125.121 218.332C125.078 218.431 125.042 218.53 125.005 218.629C124.991 218.668 124.977 218.708 124.963 218.747C124.917 218.882 124.875 219.018 124.841 219.153C124.807 219.289 124.779 219.427 124.754 219.565C124.745 219.605 124.739 219.647 124.734 219.687C124.717 219.788 124.706 219.89 124.694 219.994C124.691 220.034 124.686 220.076 124.683 220.115C124.672 220.254 124.666 220.392 124.666 220.533V234.425C124.666 236.902 126.372 239.274 129.408 241.026L143.382 249.087L181.648 227.019C184.684 225.27 188.802 224.285 193.095 224.285H217.183C221.478 224.285 225.593 225.27 228.629 227.019C228.629 227.019 251.319 240.107 266.889 249.09L280.869 241.026C283.906 239.277 285.609 236.902 285.609 234.425V220.533C285.609 220.378 285.603 220.223 285.589 220.07L285.586 220.067Z" fill="#60597C" stroke="black" stroke-width="0.44" stroke-miterlimit="10"/>
<path d="M248.535 196.308C246.708 195.253 245.053 195.149 243.847 195.826L243.836 195.831C243.81 195.846 243.788 195.862 243.762 195.879L240.732 197.82L241.881 199.812C241.876 199.928 241.867 200.038 241.867 200.159C241.867 202.23 242.576 204.518 243.731 206.566L242.692 214.167L252.15 243.993L255.217 242.151V207.856C255.217 203.604 252.229 198.433 248.544 196.308H248.535Z" fill="#9B90BA" stroke="black" stroke-width="0.44" stroke-miterlimit="10"/>
<path d="M245.467 198.275C241.976 196.26 239.113 197.702 238.819 201.471L238.988 237.284L252.141 244.566V209.822C252.141 205.57 249.153 200.399 245.467 198.275Z" fill="#60597C" stroke="black" stroke-width="0.44" stroke-miterlimit="10"/>
<path d="M156.357 146.226L167.47 154.015C168.676 154.859 169.698 155.934 170.484 157.178L184.458 179.316C185.576 181.088 186.169 183.139 186.169 185.232V224.281L143.309 248.973L132.593 242.873L132.67 215.637C132.622 213.329 131.851 211.092 130.47 209.241L117.345 187.769C116.405 186.51 115.21 185.464 113.835 184.702L102.682 177.242L156.351 146.226H156.357Z" fill="#8379A5" stroke="black" stroke-width="0.44" stroke-miterlimit="10"/>
<path d="M179.818 228.498C179.584 228.498 179.394 228.309 179.394 228.075V189.221C179.394 187.077 178.79 184.983 177.643 183.172L163.844 161.313C163.036 160.035 162 158.946 160.763 158.08L149.76 150.369C149.568 150.234 149.522 149.972 149.655 149.78C149.788 149.588 150.053 149.543 150.245 149.675L161.249 157.386C162.579 158.32 163.694 159.488 164.561 160.862L178.361 182.721C179.592 184.67 180.242 186.919 180.242 189.221V228.075C180.242 228.309 180.052 228.498 179.818 228.498Z" fill="#FFE2C8" stroke="#231F20" stroke-width="0.44" stroke-linejoin="round"/>
<path d="M174.174 231.787C173.94 231.787 173.751 231.598 173.751 231.364V192.51C173.751 190.366 173.146 188.275 172 186.461L158.201 164.602C157.393 163.324 156.356 162.235 155.119 161.369L144.116 153.658C143.924 153.523 143.879 153.261 144.012 153.069C144.147 152.877 144.41 152.832 144.602 152.964L155.605 160.675C156.935 161.609 158.051 162.777 158.918 164.151L172.717 186.01C173.949 187.959 174.598 190.208 174.598 192.51V231.364C174.598 231.598 174.409 231.787 174.174 231.787Z" fill="#FFE2C8" stroke="#231F20" stroke-width="0.44" stroke-linejoin="round"/>
<path d="M168.527 235.08C168.293 235.08 168.104 234.891 168.104 234.657V195.803C168.104 193.658 167.499 191.568 166.353 189.754L152.553 167.895C151.746 166.617 150.709 165.528 149.472 164.662L138.469 156.951C138.277 156.816 138.232 156.553 138.364 156.361C138.497 156.17 138.763 156.124 138.955 156.257L149.958 163.968C151.288 164.901 152.404 166.069 153.271 167.443L167.07 189.302C168.301 191.252 168.951 193.5 168.951 195.803V234.657C168.951 234.891 168.762 235.08 168.527 235.08Z" fill="#FFE2C8" stroke="#231F20" stroke-width="0.44" stroke-linejoin="round"/>
<path d="M162.884 238.373C162.65 238.373 162.461 238.184 162.461 237.95V199.095C162.461 196.951 161.856 194.858 160.71 193.047L146.91 171.187C146.103 169.909 145.066 168.82 143.829 167.954L132.829 160.244C132.637 160.108 132.592 159.846 132.724 159.654C132.857 159.462 133.123 159.417 133.315 159.55L144.315 167.26C145.645 168.194 146.761 169.362 147.628 170.736L161.427 192.595C162.658 194.545 163.308 196.793 163.308 199.095V237.95C163.308 238.184 163.119 238.373 162.884 238.373Z" fill="#FFE2C8" stroke="#231F20" stroke-width="0.44" stroke-linejoin="round"/>
<path d="M157.237 241.663C157.003 241.663 156.814 241.474 156.814 241.24V202.385C156.814 200.241 156.209 198.148 155.063 196.336L141.263 174.477C140.456 173.199 139.419 172.11 138.182 171.244L127.182 163.534C126.99 163.398 126.944 163.136 127.077 162.944C127.213 162.752 127.475 162.707 127.667 162.84L138.668 170.55C139.998 171.484 141.114 172.652 141.981 174.026L155.78 195.885C157.011 197.835 157.661 200.083 157.661 202.385V241.24C157.661 241.474 157.472 241.663 157.237 241.663Z" fill="#FFE2C8" stroke="#231F20" stroke-width="0.44" stroke-linejoin="round"/>
<path d="M151.587 244.954C151.352 244.954 151.163 244.765 151.163 244.531V205.677C151.163 203.533 150.559 201.439 149.412 199.628L135.613 177.769C134.805 176.491 133.769 175.402 132.532 174.536L121.531 166.826C121.339 166.69 121.294 166.428 121.427 166.236C121.559 166.044 121.825 165.999 122.017 166.131L133.017 173.842C134.348 174.776 135.463 175.944 136.33 177.318L150.13 199.177C151.361 201.126 152.01 203.375 152.01 205.677V244.531C152.01 244.765 151.821 244.954 151.587 244.954Z" fill="#FFE2C8" stroke="#231F20" stroke-width="0.44" stroke-linejoin="round"/>
<path d="M145.939 248.248C145.705 248.248 145.516 248.059 145.516 247.824V208.97C145.516 206.826 144.911 204.733 143.765 202.921L129.965 181.062C129.158 179.784 128.121 178.695 126.884 177.829L115.881 170.119C115.689 169.983 115.644 169.721 115.776 169.529C115.909 169.337 116.175 169.292 116.367 169.425L127.37 177.135C128.7 178.069 129.816 179.237 130.683 180.611L144.482 202.47C145.713 204.419 146.363 206.668 146.363 208.97V247.824C146.363 248.059 146.174 248.248 145.939 248.248Z" fill="#FFE2C8" stroke="#231F20" stroke-width="0.44" stroke-linejoin="round"/>
<path d="M140.296 247.313C140.062 247.313 139.873 247.124 139.873 246.89V212.259C139.873 210.114 139.268 208.021 138.122 206.21L124.322 184.351C123.515 183.073 122.478 181.984 121.241 181.118L110.241 173.407C110.049 173.272 110.003 173.009 110.136 172.818C110.272 172.626 110.534 172.581 110.726 172.713L121.73 180.424C123.06 181.357 124.175 182.525 125.043 183.899L138.842 205.758C140.073 207.708 140.723 209.956 140.723 212.259V246.89C140.723 247.124 140.534 247.313 140.299 247.313H140.296Z" fill="#FFE2C8" stroke="#231F20" stroke-width="0.44" stroke-linejoin="round"/>
<path d="M250.277 209.631C250.277 206.316 247.947 202.287 245.075 200.631C243.651 199.81 242.361 199.728 241.42 200.256L241.412 200.261C241.392 200.272 241.372 200.287 241.352 200.298L238.991 201.81L239.887 203.362C239.884 203.452 239.875 203.537 239.875 203.633C239.875 206.948 242.205 210.976 245.078 212.632C245.154 212.675 245.224 212.709 245.301 212.748L246.337 214.545L248.856 212.934V212.929C249.735 212.362 250.28 211.23 250.28 209.633L250.277 209.631Z" fill="#9B90BA" stroke="black" stroke-width="0.44" stroke-miterlimit="10"/>
<path d="M247.882 211.164C247.882 214.479 245.552 215.822 242.68 214.163C239.807 212.507 237.477 208.476 237.477 205.164C237.477 201.849 239.807 200.506 242.68 202.165C245.552 203.823 247.882 207.852 247.882 211.164Z" fill="#60597C" stroke="black" stroke-width="0.44" stroke-miterlimit="10"/>
<path d="M243.521 209.137C243.521 208.31 242.942 207.308 242.225 206.894C241.869 206.688 241.55 206.668 241.315 206.801C241.31 206.803 241.307 206.806 241.301 206.809L233.023 211.614L236.548 213.645L243.171 209.955C243.391 209.811 243.527 209.529 243.527 209.134L243.521 209.137Z" fill="#9B90BA" stroke="black" stroke-width="0.44" stroke-miterlimit="10"/>
<path d="M247.001 228.775L245.326 228.674C243.341 224.191 239.381 219.905 233.436 216.272C215.211 205.139 185.226 204.377 166.464 214.576C160.344 217.902 156.176 221.985 153.967 226.36L152.29 226.352L152.098 233.538H152.109C151.934 240.529 156.382 247.633 165.493 253.199C183.718 264.332 213.703 265.093 232.464 254.895C241.846 249.797 246.645 242.924 246.82 235.936H246.834L247.001 228.775Z" fill="#FF9500" stroke="#231F20" stroke-width="0.44" stroke-linejoin="round"/>
<path d="M233.619 209.044C251.844 220.176 251.412 237.468 232.647 247.667C213.886 257.863 183.901 257.104 165.676 245.971C147.451 234.838 147.886 217.547 166.647 207.348C185.409 197.152 215.394 197.911 233.619 209.044Z" fill="#FFE2C8" stroke="#231F20" stroke-width="0.44" stroke-linejoin="round"/>
<path d="M230.048 210.708C246.361 220.292 245.991 235.154 229.215 243.9C212.439 252.646 185.617 251.966 169.301 242.382C152.988 232.798 153.358 217.936 170.134 209.19C186.91 200.444 213.732 201.124 230.048 210.708Z" fill="#FF9500" stroke="#231F20" stroke-width="0.44" stroke-linejoin="round"/>
<path d="M230 212.364C246.324 221.569 245.966 235.817 229.201 244.182C212.436 252.55 185.612 251.87 169.287 242.664C152.963 233.458 153.322 219.211 170.087 210.846C186.851 202.478 213.676 203.158 230 212.364Z" fill="#F8B04A" stroke="#231F20" stroke-width="0.44" stroke-linejoin="round"/>
<path d="M222.544 232.587L217.607 231.086H217.602C220.841 229.038 222.985 227.108 222.894 225.128L222.937 223.401L222.779 223.147L222.228 223.398C221.832 222.856 221.251 222.306 220.463 221.748C216.783 219.135 213.069 219.13 209.301 220.402C209.626 219.826 209.77 219.248 209.674 218.673L209.747 217.321L208.971 217.301C208.479 216.751 207.728 216.215 206.666 215.693C202.526 213.659 198.004 214.737 193.539 216.83L188.809 214.026C188.56 213.879 188.272 213.837 187.998 213.896L187.978 213.701L185.611 213.642L185.566 215.448C185.555 215.631 185.64 215.82 185.82 215.927L190.221 218.534C189.385 219.005 188.546 219.493 187.713 219.982L183.536 217.505L183.318 216.652L179.802 216.87L179.76 218.596C179.76 218.613 179.76 218.63 179.76 218.644C179.762 218.814 179.847 218.983 180.017 219.082L184.64 221.824C183.965 222.219 183.301 222.608 182.643 222.978L182.626 222.966L182.008 223.313L178.749 223.686L178.706 225.421C178.706 225.421 178.706 225.435 178.706 225.444C178.706 225.599 178.782 225.754 178.935 225.844L181.056 227.1C181.417 227.314 181.867 227.317 182.234 227.105C182.917 226.71 183.951 226.118 183.954 226.149C185.241 225.427 186.411 225.635 187.182 225.949L201.54 234.455C201.803 234.658 202.099 235.002 201.854 235.372L199.628 235.515L199.589 237.073C199.56 237.279 199.634 237.499 199.815 237.645L201.65 239.155C202.023 239.46 202.543 239.505 202.961 239.27L206.406 237.335C207.177 236.903 207.948 236.486 208.7 236.068L213.433 238.873C213.786 239.081 214.221 239.09 214.58 238.895L216.421 237.899C216.596 237.803 216.687 237.637 216.695 237.465C216.695 237.456 216.695 237.445 216.695 237.437L216.737 235.738L212.286 234.127C213.049 233.715 213.786 233.306 214.498 232.906L219.243 235.721C219.596 235.93 220.033 235.939 220.392 235.744L222.233 234.742C222.417 234.644 222.507 234.46 222.507 234.28L222.55 232.581L222.544 232.587ZM191.537 222.16C193.333 221.152 198.402 217.643 202.162 219.872C205.762 222.007 199.702 224.927 197.905 225.934L191.537 222.16ZM208.14 231.997L201.119 227.836C203.277 226.626 209.417 222.459 213.549 224.907C217.511 227.252 210.295 230.784 208.14 231.997Z" fill="#FF9500" stroke="#231F20" stroke-width="0.44" stroke-linejoin="round"/>
<path d="M206.715 213.969C202.574 211.935 198.053 213.01 193.587 215.103L188.857 212.299C188.518 212.096 188.094 212.09 187.747 212.279L185.886 213.289C185.53 213.484 185.519 213.992 185.869 214.201L190.269 216.808C189.433 217.279 188.594 217.767 187.761 218.255L183.045 215.459C182.706 215.256 182.282 215.25 181.935 215.439L180.076 216.449C179.72 216.644 179.709 217.152 180.059 217.36L184.683 220.103C184.008 220.498 183.344 220.887 182.686 221.257L182.669 221.245L178.986 223.311C178.67 223.488 178.667 223.94 178.978 224.123L181.099 225.378C181.46 225.593 181.909 225.596 182.276 225.384C182.96 224.989 183.993 224.397 183.996 224.428C185.284 223.705 186.453 223.914 187.224 224.227L201.583 232.734C201.933 233.007 202.343 233.523 201.444 234.031C201.49 234.031 200.64 234.502 199.956 234.878C199.561 235.095 199.51 235.642 199.857 235.927L201.693 237.437C202.063 237.741 202.586 237.786 203.003 237.552L206.449 235.617C207.22 235.185 207.991 234.768 208.742 234.35L213.476 237.154C213.829 237.363 214.264 237.372 214.622 237.177L216.464 236.181C216.823 235.986 216.831 235.479 216.481 235.27L211.976 232.598C212.869 232.118 213.719 231.65 214.543 231.185L219.288 234C219.641 234.209 220.079 234.217 220.438 234.023L222.279 233.021C222.635 232.827 222.646 232.319 222.296 232.11L217.653 229.356C222.697 226.171 225.089 223.268 220.517 220.024C216.837 217.411 213.123 217.406 209.355 218.678C210.259 217.084 209.753 215.453 206.717 213.967L206.715 213.969ZM213.594 223.184C217.557 225.531 210.341 229.06 208.186 230.273L201.165 226.112C203.323 224.902 209.463 220.735 213.594 223.184ZM202.207 218.145C205.808 220.28 199.747 223.2 197.951 224.208L191.582 220.433C193.378 219.426 198.448 215.916 202.207 218.145Z" fill="#FFE2C8" stroke="#231F20" stroke-width="0.44" stroke-linejoin="round"/>
<path d="M168.156 251.63C168.156 249.353 166.557 246.585 164.583 245.448C163.603 244.884 162.719 244.828 162.072 245.191L162.067 245.194C162.053 245.203 162.041 245.211 162.027 245.22L160.406 246.258L161.022 247.324C161.022 247.386 161.013 247.446 161.013 247.511C161.013 249.787 162.612 252.555 164.586 253.692C164.637 253.723 164.688 253.743 164.738 253.771L165.45 255.007L167.181 253.898C167.786 253.506 168.159 252.727 168.159 251.63H168.156Z" fill="#9B90BA" stroke="black" stroke-width="0.44" stroke-miterlimit="10"/>
<path d="M166.514 252.682C166.514 254.959 164.915 255.881 162.941 254.742C160.967 253.605 159.369 250.834 159.369 248.56C159.369 246.286 160.967 245.361 162.941 246.501C164.915 247.638 166.514 250.408 166.514 252.682Z" fill="#60597C" stroke="black" stroke-width="0.44" stroke-miterlimit="10"/>
<path d="M163.177 251.794C163.177 250.967 162.598 249.966 161.88 249.551C161.525 249.345 161.205 249.325 160.971 249.458C160.965 249.461 160.963 249.464 160.957 249.466L152.431 254.215L155.955 256.246L162.827 252.615C163.047 252.471 163.182 252.189 163.182 251.794H163.177Z" fill="#9B90BA" stroke="black" stroke-width="0.44" stroke-miterlimit="10"/>
<path d="M155.364 133.681L150.865 130.866C150.283 130.333 149.388 130.166 148.608 130.615L95.1427 161.541C93.8774 162.272 93.0979 163.623 93.0979 165.082V172.705C93.0979 173.704 93.8322 174.446 94.7021 174.593L98.6673 177.05L98.0827 173.14L149.439 143.429C150.704 142.698 151.484 141.347 151.484 139.888V135.481L151.645 136.599L155.364 133.681Z" fill="#39354F" stroke="black" stroke-width="0.44" stroke-miterlimit="10"/>
<path d="M156.191 135.121V142.738C156.191 144.197 155.412 145.548 154.146 146.279L100.681 177.211C99.4041 177.95 97.8055 177.03 97.8055 175.555V167.932C97.8055 166.47 98.585 165.122 99.8503 164.391L153.316 133.465C154.593 132.725 156.191 133.645 156.191 135.121Z" fill="#60597C" stroke="black" stroke-width="0.44" stroke-miterlimit="10"/>
<path d="M101.734 167.848V171.789C101.734 172.449 102.451 172.864 103.024 172.531L106.741 170.381C107.007 170.229 107.17 169.944 107.17 169.639V165.698C107.17 165.038 106.453 164.623 105.88 164.956L102.163 167.106C101.898 167.258 101.734 167.543 101.734 167.848Z" fill="black" stroke="black" stroke-width="0.44" stroke-miterlimit="10"/>
<path d="M113.018 161.33V165.271C113.018 165.932 113.735 166.346 114.308 166.013L118.025 163.864C118.291 163.711 118.454 163.426 118.454 163.122V159.18C118.454 158.52 117.737 158.105 117.164 158.438L113.447 160.588C113.182 160.74 113.018 161.025 113.018 161.33Z" fill="black" stroke="black" stroke-width="0.44" stroke-miterlimit="10"/>
<path d="M124.298 154.814V158.755C124.298 159.415 125.016 159.83 125.589 159.497L129.306 157.347C129.571 157.195 129.735 156.91 129.735 156.605V152.664C129.735 152.004 129.018 151.589 128.444 151.922L124.728 154.072C124.462 154.224 124.298 154.509 124.298 154.814Z" fill="black" stroke="black" stroke-width="0.44" stroke-miterlimit="10"/>
<path d="M135.582 148.296V152.237C135.582 152.898 136.299 153.312 136.873 152.979L140.589 150.83C140.855 150.677 141.019 150.392 141.019 150.088V146.146C141.019 145.486 140.301 145.072 139.728 145.404L136.011 147.554C135.746 147.707 135.582 147.992 135.582 148.296Z" fill="black" stroke="black" stroke-width="0.44" stroke-miterlimit="10"/>
<path d="M146.866 141.779V145.72C146.866 146.381 147.583 146.795 148.157 146.462L151.873 144.313C152.139 144.16 152.303 143.875 152.303 143.571V139.629C152.303 138.969 151.585 138.554 151.012 138.887L147.295 141.037C147.03 141.189 146.866 141.474 146.866 141.779Z" fill="black" stroke="black" stroke-width="0.44" stroke-miterlimit="10"/>
<path d="M281.791 283.891C281.791 281.701 283.33 279.041 285.228 277.946C286.22 277.374 287.109 277.348 287.736 277.76L290.399 279.535L285.225 287.733L282.737 286.077C282.15 285.702 281.788 284.951 281.788 283.891H281.791Z" fill="#60597C" stroke="black" stroke-width="0.44" stroke-miterlimit="10"/>
<path d="M284.421 285.648C284.421 287.838 285.96 288.723 287.858 287.629C289.756 286.534 291.295 283.874 291.295 281.684C291.295 279.495 289.756 278.609 287.858 279.704C285.96 280.799 284.421 283.459 284.421 285.648Z" fill="#9B90BA" stroke="black" stroke-width="0.44" stroke-miterlimit="10"/>
<path d="M242.472 305.959C242.472 303.77 244.012 301.11 245.91 300.015C246.901 299.442 247.79 299.417 248.417 299.829L251.081 301.603L245.907 309.802L243.419 308.146C242.831 307.771 242.47 307.02 242.47 305.959H242.472Z" fill="#60597C" stroke="black" stroke-width="0.44" stroke-miterlimit="10"/>
<path d="M245.102 307.717C245.102 309.906 246.642 310.792 248.539 309.697C250.437 308.603 251.977 305.942 251.977 303.753C251.977 301.564 250.437 300.678 248.539 301.773C246.642 302.867 245.102 305.528 245.102 307.717Z" fill="#9B90BA" stroke="black" stroke-width="0.44" stroke-miterlimit="10"/>
<path d="M277.032 289.077C277.032 286.287 274.01 284.543 271.589 285.94L262.114 291.404C259.617 292.843 258.078 295.507 258.078 298.387C258.078 301.177 261.1 302.921 263.521 301.524L272.996 296.06C275.493 294.621 277.032 291.957 277.032 289.077Z" fill="#FFFDFE" stroke="black" stroke-width="0.44" stroke-miterlimit="10"/>
<path d="M277.04 289.077C277.04 286.287 274.018 284.543 271.598 285.94L262.122 291.405C259.626 292.843 258.086 295.507 258.086 298.387C258.086 301.177 261.108 302.921 263.529 301.524L273.004 296.06C275.501 294.621 277.04 291.957 277.04 289.077Z" fill="#60597C"/>
<mask id="mask0_18087_5248" style="mask-type:luminance" maskUnits="userSpaceOnUse" x="258" y="285" width="20" height="18">
<path d="M277.042 289.076C277.042 286.285 274.02 284.542 271.599 285.938L262.124 291.403C259.627 292.842 258.088 295.505 258.088 298.386C258.088 301.176 261.11 302.92 263.53 301.523L273.006 296.058C275.502 294.619 277.042 291.956 277.042 289.076Z" fill="white"/>
</mask>
<g mask="url(#mask0_18087_5248)">
<path d="M275.735 288.021C275.735 285.231 272.713 283.487 270.293 284.884L259.623 291.096C257.126 292.535 255.587 295.198 255.587 298.079C255.587 300.869 258.609 302.612 261.029 301.216L271.699 295.004C274.196 293.565 275.735 290.901 275.735 288.021Z" fill="black" stroke="black" stroke-width="0.44" stroke-miterlimit="10"/>
</g>
<path d="M277.04 289.077C277.04 286.287 274.018 284.543 271.598 285.94L262.122 291.405C259.626 292.843 258.086 295.507 258.086 298.387C258.086 301.177 261.108 302.921 263.529 301.524L273.004 296.06C275.501 294.621 277.04 291.957 277.04 289.077Z" stroke="black" stroke-width="0.44" stroke-miterlimit="10"/>
<mask id="mask1_18087_5248" style="mask-type:luminance" maskUnits="userSpaceOnUse" x="88" y="26" width="110" height="163">
<path d="M104.968 187.866L91.7254 180.226C89.3644 178.867 88.0398 175.938 88.0398 172.087V105.83C88.0398 101.979 89.3672 97.5242 91.7254 93.439L104.968 70.5248C107.329 66.4396 110.532 63.0654 113.868 61.1413L171.31 28.0113C174.648 26.0872 177.848 25.7712 180.209 27.1311L193.452 34.7682C195.813 36.1309 197.138 39.0593 197.138 42.9075V109.165C197.138 113.016 195.81 117.47 193.452 121.556L180.209 144.47C177.848 148.555 174.648 151.929 171.31 153.853L113.868 186.983C110.529 188.907 107.329 189.223 104.968 187.864V187.866Z" fill="white"/>
</mask>
<g mask="url(#mask1_18087_5248)">
<path d="M92.932 23.3124L77.136 32.4223V50.6447C77.136 50.6447 77.1445 50.6589 77.1529 50.6532L92.9489 41.5434V23.3209C92.9489 23.3209 92.9405 23.3068 92.932 23.3124Z" fill="#60597C"/>
<path d="M92.932 45.6067L77.136 54.7165V72.939C77.136 72.939 77.1445 72.9531 77.1529 72.9475L92.9489 63.8377V45.6152C92.9489 45.6152 92.9405 45.6011 92.932 45.6067Z" fill="black" stroke="black" stroke-width="0.44" stroke-miterlimit="10"/>
<path d="M92.932 67.8964L77.136 77.0062V95.2287C77.136 95.2287 77.1445 95.2428 77.1529 95.2372L92.9489 86.1273V67.9048C92.9489 67.9048 92.9405 67.8907 92.932 67.8964Z" fill="black" stroke="black" stroke-width="0.44" stroke-miterlimit="10"/>
<path d="M112.708 11.9056L96.9122 21.0154V39.2379C96.9122 39.2379 96.9207 39.252 96.9292 39.2464L112.725 30.1365V11.9141C112.725 11.9141 112.717 11.9 112.708 11.9056Z" fill="#60597C"/>
<path d="M112.708 34.1994L96.9122 43.3092V61.5317C96.9122 61.5317 96.9207 61.5458 96.9292 61.5402L112.725 52.4303V34.2078C112.725 34.2078 112.717 34.1937 112.708 34.1994Z" fill="#F7F2F7" stroke="black" stroke-width="0.44" stroke-miterlimit="10"/>
<path d="M112.708 56.4937L96.9122 65.6035V83.826C96.9122 83.826 96.9207 83.8401 96.9292 83.8345L112.725 74.7246V56.5022C112.725 56.5022 112.717 56.4881 112.708 56.4937Z" fill="#F8B04A" stroke="#231F20" stroke-width="0.44" stroke-linejoin="round"/>
<path d="M131.826 1.01818L116.03 10.128V28.3505C116.03 28.3505 116.038 28.3646 116.047 28.359L131.843 19.2491V1.02665C131.843 1.02665 131.834 1.01254 131.826 1.01818Z" fill="#60597C"/>
<path d="M131.826 23.3124L116.03 32.4223V50.6447C116.03 50.6447 116.038 50.6589 116.047 50.6532L131.843 41.5434V23.3209C131.843 23.3209 131.834 23.3068 131.826 23.3124Z" fill="black" stroke="black" stroke-width="0.44" stroke-miterlimit="10"/>
<path d="M131.826 45.6067L116.03 54.7165V72.939C116.03 72.939 116.038 72.9531 116.047 72.9475L131.843 63.8377V45.6152C131.843 45.6152 131.834 45.6011 131.826 45.6067Z" fill="black" stroke="black" stroke-width="0.44" stroke-miterlimit="10"/>
<path d="M151.606 11.9098L135.81 21.0196V39.2421C135.81 39.2421 135.818 39.2562 135.827 39.2505L151.623 30.1407V11.9182C151.623 11.9182 151.614 11.9041 151.606 11.9098Z" fill="#F8B04A" stroke="#231F20" stroke-width="0.44" stroke-linejoin="round"/>
<path d="M151.606 34.2027L135.81 43.3125V61.535C135.81 61.535 135.818 61.5491 135.827 61.5434L151.623 52.4336V34.2111C151.623 34.2111 151.614 34.197 151.606 34.2027Z" fill="#FFE2C8" stroke="#231F20" stroke-width="0.44" stroke-linejoin="round"/>
<path d="M171.375 0.505246L155.579 9.61508V27.8376C155.579 27.8376 155.588 27.8517 155.596 27.846L171.392 18.7362V0.51371C171.392 0.51371 171.384 0.499604 171.375 0.505246Z" fill="black" stroke="black" stroke-width="0.44" stroke-miterlimit="10"/>
<path d="M171.375 22.7962L155.579 31.9061V50.1285C155.579 50.1285 155.588 50.1426 155.596 50.137L171.392 41.0272V22.8047C171.392 22.8047 171.384 22.7906 171.375 22.7962Z" fill="#F8B04A" stroke="#231F20" stroke-width="0.44" stroke-linejoin="round"/>
<path d="M92.932 90.7068L77.136 99.8167V118.039C77.136 118.039 77.1445 118.053 77.1529 118.048L92.9489 108.938V90.7153C92.9489 90.7153 92.9405 90.7012 92.932 90.7068Z" fill="#FFE2C8" stroke="#231F20" stroke-width="0.44" stroke-linejoin="round"/>
<path d="M92.932 113.001L77.136 122.11V140.333C77.136 140.333 77.1445 140.347 77.1529 140.341L92.9489 131.232V113.009C92.9489 113.009 92.9405 112.995 92.932 113.001Z" fill="#F7F2F7" stroke="black" stroke-width="0.44" stroke-miterlimit="10"/>
<path d="M92.932 135.294L77.136 144.404V162.627C77.136 162.627 77.1445 162.641 77.1529 162.635L92.9489 153.525V135.303C92.9489 135.303 92.9405 135.289 92.932 135.294Z" fill="#F8B04A" stroke="#231F20" stroke-width="0.44" stroke-linejoin="round"/>
<path d="M112.708 79.3005L96.9122 88.4103V106.633C96.9122 106.633 96.9207 106.647 96.9292 106.641L112.725 97.5314V79.3089C112.725 79.3089 112.717 79.2948 112.708 79.3005Z" fill="black" stroke="black" stroke-width="0.44" stroke-miterlimit="10"/>
<path d="M112.708 101.597L96.9122 110.706V128.929C96.9122 128.929 96.9207 128.943 96.9292 128.937L112.725 119.828V101.605C112.725 101.605 112.717 101.591 112.708 101.597Z" fill="#F8B04A" stroke="#231F20" stroke-width="0.44" stroke-linejoin="round"/>
<path d="M112.708 123.888L96.9122 132.997V151.22C96.9122 151.22 96.9207 151.234 96.9292 151.228L112.725 142.119V123.896C112.725 123.896 112.717 123.882 112.708 123.888Z" fill="black" stroke="black" stroke-width="0.44" stroke-miterlimit="10"/>
<path d="M131.826 68.4135L116.03 77.5233V95.7458C116.03 95.7458 116.038 95.7599 116.047 95.7543L131.843 86.6444V68.422C131.843 68.422 131.834 68.4078 131.826 68.4135Z" fill="#FFE2C8" stroke="#231F20" stroke-width="0.44" stroke-linejoin="round"/>
<path d="M131.826 90.7068L116.03 99.8167V118.039C116.03 118.039 116.038 118.053 116.047 118.048L131.843 108.938V90.7153C131.843 90.7153 131.834 90.7012 131.826 90.7068Z" fill="black" stroke="black" stroke-width="0.44" stroke-miterlimit="10"/>
<path d="M131.826 113.001L116.03 122.11V140.333C116.03 140.333 116.038 140.347 116.047 140.341L131.843 131.232V113.009C131.843 113.009 131.834 112.995 131.826 113.001Z" fill="#F7F2F7" stroke="black" stroke-width="0.44" stroke-miterlimit="10"/>
<path d="M151.606 57.0089L135.81 66.1187V84.3412C135.81 84.3412 135.818 84.3553 135.827 84.3497L151.623 75.2398V57.0174C151.623 57.0174 151.614 57.0033 151.606 57.0089Z" fill="black" stroke="black" stroke-width="0.44" stroke-miterlimit="10"/>
<path d="M151.606 79.3037L135.81 88.4135V106.636C135.81 106.636 135.818 106.65 135.827 106.644L151.623 97.5347V79.3122C151.623 79.3122 151.614 79.2981 151.606 79.3037Z" fill="black" stroke="black" stroke-width="0.44" stroke-miterlimit="10"/>
<path d="M151.606 101.597L135.81 110.706V128.929C135.81 128.929 135.818 128.943 135.827 128.937L151.623 119.828V101.605C151.623 101.605 151.614 101.591 151.606 101.597Z" fill="black" stroke="black" stroke-width="0.44" stroke-miterlimit="10"/>
<path d="M171.375 45.6067L155.579 54.7165V72.939C155.579 72.939 155.588 72.9531 155.596 72.9475L171.392 63.8377V45.6152C171.392 45.6152 171.384 45.6011 171.375 45.6067Z" fill="#8379A5" stroke="black" stroke-width="0.44" stroke-miterlimit="10"/>
<path d="M171.375 67.9001L155.579 77.0099V95.2324C155.579 95.2324 155.588 95.2465 155.596 95.2408L171.392 86.131V67.9085C171.392 67.9085 171.384 67.8944 171.375 67.9001Z" fill="#FF9500" stroke="#231F20" stroke-width="0.44" stroke-linejoin="round"/>
<path d="M171.375 90.1902L155.579 99.3V117.522C155.579 117.522 155.588 117.537 155.596 117.531L171.392 108.421V90.1986C171.392 90.1986 171.384 90.1845 171.375 90.1902Z" fill="#F8B04A" stroke="#231F20" stroke-width="0.44" stroke-linejoin="round"/>
</g>
<path d="M171.426 28.2025C174.727 26.2996 177.839 26.0162 180.105 27.3216L193.349 34.9593C195.615 36.2675 196.924 39.1021 196.924 42.9075V109.165C196.924 112.97 195.611 117.387 193.267 121.446L180.024 144.36C177.678 148.419 174.504 151.762 171.206 153.663L113.764 186.793C110.462 188.696 107.351 188.979 105.084 187.673L104.755 187.483V187.486L91.8417 180.036C89.5753 178.731 88.2655 175.896 88.2655 172.087V105.83C88.2655 102.026 89.5784 97.6085 91.9218 93.5491L105.165 70.6351C107.511 66.5761 110.688 63.2333 113.983 61.3323L171.426 28.2025Z" stroke="black" stroke-width="0.44"/>
<path d="M193.449 34.7694L180.206 27.1323C179.274 26.5962 178.21 26.3226 177.057 26.3056L178.503 27.1407C180.865 28.5034 182.189 31.4319 182.189 35.28V101.537C182.189 105.388 180.862 109.846 178.503 113.928L165.261 136.842C162.899 140.928 159.7 144.302 156.361 146.226L98.919 179.356C96.8997 180.521 94.934 181.091 93.1688 181.063L104.963 187.868C107.324 189.227 110.527 188.911 113.862 186.987L171.304 153.857C174.643 151.933 177.843 148.559 180.204 144.474L193.447 121.56C195.805 117.474 197.132 113.017 197.132 109.169V42.9115C197.132 39.0605 195.808 36.1321 193.447 34.7722L193.449 34.7694Z" fill="#60597C" stroke="black" stroke-width="0.44" stroke-miterlimit="10"/>
<path d="M123.966 300.084L167.615 325.239C169.586 326.376 172.049 324.954 172.049 322.68V296.233C172.049 294.196 170.984 292.306 169.239 291.251L125.536 264.791C123.565 263.597 121.046 265.013 121.046 267.316V295.037C121.046 297.119 122.159 299.043 123.963 300.084H123.966Z" fill="#60597C" stroke="black" stroke-width="0.44" stroke-miterlimit="10"/>
<mask id="mask2_18087_5248" style="mask-type:luminance" maskUnits="userSpaceOnUse" x="121" y="264" width="52" height="62">
<path d="M123.969 300.087L167.618 325.242C169.589 326.379 172.052 324.957 172.052 322.683V296.236C172.052 294.199 170.987 292.309 169.242 291.254L125.54 264.793C123.568 263.6 121.049 265.016 121.049 267.318V295.04C121.049 297.122 122.162 299.046 123.966 300.087H123.969Z" fill="white"/>
</mask>
<g mask="url(#mask2_18087_5248)">
<path d="M126.407 298.633L170.056 323.788C172.028 324.925 174.49 323.503 174.49 321.229V294.782C174.49 292.745 173.426 290.855 171.68 289.8L127.978 263.339C126.006 262.146 123.487 263.562 123.487 265.864V293.586C123.487 295.668 124.6 297.592 126.405 298.633H126.407Z" fill="black" stroke="black" stroke-width="0.44" stroke-miterlimit="10"/>
</g>
<mask id="mask3_18087_5248" style="mask-type:luminance" maskUnits="userSpaceOnUse" x="130" y="265" width="34" height="53">
<path d="M130.559 265.826L163.786 284.99V317.285L130.559 298.123V265.826Z" fill="white"/>
</mask>
<g mask="url(#mask3_18087_5248)">
<path d="M140.056 299.041L130.577 293.574V298.11L140.056 303.578V299.041Z" fill="#8379A5" stroke="black" stroke-width="0.44" stroke-miterlimit="10"/>
<path d="M151.907 297.31L142.429 291.842V304.947L151.907 310.415V297.31Z" fill="#F8B04A" stroke="#231F20" stroke-width="0.44" stroke-linejoin="round"/>
<path d="M163.766 291.397L154.287 285.929V311.78L163.766 317.248V291.397Z" fill="#FFE2C8" stroke="#231F20" stroke-width="0.44" stroke-linejoin="round"/>
</g>
</g>
<defs>
<clipPath id="clip0_18087_5248">
<rect width="360" height="360" rx="5" fill="white"/>
</clipPath>
</defs>
</svg>
