<svg width="360" height="360" viewBox="0 0 360 360" fill="none" xmlns="http://www.w3.org/2000/svg">
<g clip-path="url(#clip0_18087_5156)">
<path d="M279.571 215.499L106.489 115.057C104.195 113.724 101.579 113.02 98.9255 113.02C96.2719 113.02 93.6565 113.724 91.3623 115.057L16.8313 158.309L6.31622 160.338V167.66C6.31622 169.697 7.36391 171.519 9.1228 172.538L194.762 280.263C197.056 281.596 199.672 282.3 202.325 282.3C204.979 282.3 207.594 281.596 209.888 280.263L292.12 232.538C293.871 231.52 294.927 229.697 294.927 227.66V219.42L279.563 215.492L279.571 215.499Z" fill="#693000" stroke="black" stroke-width="0.44" stroke-miterlimit="10"/>
<path d="M209.896 272.031L292.128 224.306C293.879 223.287 294.934 221.465 294.934 219.428C294.934 217.391 293.887 215.568 292.128 214.55L106.489 106.817C104.195 105.484 101.579 104.78 98.9255 104.78C96.2719 104.78 93.6565 105.484 91.3623 106.817L9.1228 154.541C7.37156 155.56 6.31622 157.382 6.31622 159.42C6.31622 161.457 7.36391 163.279 9.1228 164.298L194.762 272.023C197.056 273.356 199.672 274.06 202.325 274.06C204.979 274.06 207.594 273.356 209.888 272.023L209.896 272.031Z" fill="#FAF2E8" stroke="black" stroke-width="0.44" stroke-miterlimit="10"/>
<path d="M18.2538 149.241L220.067 266.125L237.549 255.978L35.6056 139.163L18.2538 149.241Z" fill="black" stroke="black" stroke-width="0.44" stroke-miterlimit="10"/>
<path d="M352 200.145L129.21 330.73C122.725 334.49 114.741 334.49 108.256 330.73L11.0429 274.313C4.5732 270.561 4.5732 261.18 11.0429 257.427L233.833 126.843C240.318 123.082 248.302 123.082 254.787 126.843L352 183.259C358.469 187.012 358.469 196.393 352 200.145Z" fill="black" stroke="black" stroke-width="0.44" stroke-miterlimit="10"/>
<path d="M237.934 112.759L350.473 160.086V175.088C350.48 178.381 348.867 181.682 345.624 183.565L126.168 310.918C119.683 314.678 111.7 314.678 105.215 310.918L8.00167 254.502C4.76685 252.625 3.15326 249.34 3.15326 246.063V232.883L237.934 112.759Z" fill="#4169E1" stroke="black" stroke-width="0.44" stroke-miterlimit="10"/>
<path d="M345.623 168.494L126.167 295.847C119.682 299.607 111.698 299.607 105.214 295.847L8.00055 239.431C1.5309 235.678 1.5309 226.297 8.00055 222.545L227.456 95.1919C233.941 91.4318 241.925 91.4318 248.41 95.1919L345.623 151.609C352.093 155.361 352.093 164.742 345.623 168.494Z" fill="white" stroke="black" stroke-width="0.44" stroke-miterlimit="10"/>
<path d="M345.623 168.494L126.167 295.847C119.682 299.607 111.698 299.607 105.214 295.847L8.00055 239.431C1.5309 235.678 1.5309 226.297 8.00055 222.545L227.456 95.1919C233.941 91.4318 241.925 91.4318 248.41 95.1919L345.623 151.609C352.093 155.361 352.093 164.742 345.623 168.494Z" fill="#CCD9FD" stroke="black" stroke-width="0.44" stroke-miterlimit="10"/>
<path d="M115.692 295.587C118.828 295.587 121.917 294.76 124.632 293.182L344.088 165.829C346.16 164.627 347.399 162.468 347.399 160.063C347.399 157.658 346.16 155.499 344.088 154.296L246.875 97.8797C244.16 96.3022 241.063 95.4675 237.927 95.4675C234.792 95.4675 231.703 96.3022 228.98 97.8797L9.532 225.225C7.45957 226.427 6.2207 228.587 6.2207 230.992C6.2207 233.396 7.45957 235.556 9.532 236.758L106.745 293.175C109.46 294.752 112.557 295.579 115.692 295.579V295.587Z" fill="#00125C" stroke="black" stroke-width="0.44" stroke-miterlimit="10"/>
<path d="M211.61 186.552C209.996 186.552 208.382 186.139 206.945 185.296L195.428 178.611C193.699 177.608 192.667 175.808 192.667 173.809C192.667 171.811 193.699 170.011 195.428 169.008L263.29 129.615L279.472 139.004C281.2 140.007 282.233 141.799 282.233 143.805C282.233 145.812 281.2 147.604 279.472 148.607L216.274 185.296C214.837 186.131 213.223 186.552 211.61 186.552ZM199.359 173.817L210.019 180.005C211.005 180.579 212.229 180.579 213.216 180.005L275.549 143.813L263.29 136.699L199.359 173.817Z" fill="#9B90BA" stroke="black" stroke-width="0.44" stroke-miterlimit="10"/>
<path d="M70.9073 267.536C69.2937 267.536 67.6801 267.122 66.2424 266.28L54.7255 259.594C52.9972 258.591 51.9648 256.792 51.9648 254.793C51.9648 252.794 52.9972 250.994 54.7255 249.991L117.916 213.309C120.791 211.64 124.37 211.64 127.245 213.309L138.762 219.995C140.49 220.998 141.523 222.79 141.523 224.796C141.523 226.795 140.49 228.595 138.762 229.598L75.5645 266.288C74.1268 267.122 72.5132 267.543 70.8997 267.543L70.9073 267.536ZM58.6486 254.793L69.309 260.981C70.2955 261.555 71.5191 261.555 72.5056 260.981L134.839 224.789L124.179 218.601C123.192 218.027 121.969 218.027 120.982 218.601L58.6486 254.793Z" fill="#9B90BA" stroke="black" stroke-width="0.44" stroke-miterlimit="10"/>
<path d="M197.027 174.215L208.544 180.9C210.479 182.026 212.872 182.026 214.807 180.9L278.005 144.211C279.657 143.253 279.657 140.864 278.005 139.907L263.353 131.406L197.027 169.911C195.375 170.868 195.375 173.258 197.027 174.215Z" fill="black"/>
<path d="M211.673 184.798C210.06 184.798 208.446 184.385 207.008 183.542L195.492 176.857C193.763 175.854 192.731 174.054 192.731 172.055C192.731 170.057 193.763 168.257 195.492 167.254L263.354 127.861L279.536 137.25C281.264 138.253 282.296 140.045 282.296 142.051C282.296 144.058 281.264 145.849 279.536 146.853L216.338 183.542C214.9 184.377 213.287 184.798 211.673 184.798ZM199.415 172.063L210.075 178.251C211.062 178.825 212.285 178.825 213.272 178.251L275.605 142.059L263.346 134.944L199.415 172.063Z" fill="#F7F2F7" stroke="black" stroke-width="0.44" stroke-miterlimit="10"/>
<path d="M56.2584 255.299L67.7753 261.984C69.7101 263.11 72.1037 263.11 74.0385 261.984L137.236 225.294C138.888 224.337 138.888 221.948 137.236 220.991L125.719 214.305C123.784 213.179 121.391 213.179 119.456 214.305L56.2661 250.995C54.6143 251.952 54.6143 254.341 56.2661 255.299H56.2584Z" fill="#F7F2F7" stroke="black" stroke-width="0.44" stroke-miterlimit="10"/>
<path d="M70.9072 265.889C69.2936 265.889 67.68 265.476 66.2423 264.634L54.7254 257.948C52.9971 256.945 51.9647 255.145 51.9647 253.147C51.9647 251.148 52.9971 249.348 54.7254 248.345L117.915 211.663C120.791 209.994 124.37 209.994 127.245 211.663L138.762 218.348C140.49 219.352 141.523 221.144 141.523 223.15C141.523 225.149 140.49 226.948 138.762 227.952L75.5644 264.641C74.1267 265.476 72.5131 265.897 70.8995 265.897L70.9072 265.889ZM58.6485 253.147L69.3089 259.334C70.2954 259.909 71.519 259.909 72.5055 259.334L134.839 223.142L124.179 216.955C123.192 216.38 121.968 216.38 120.982 216.955L58.6485 253.147Z" fill="#F7F2F7" stroke="black" stroke-width="0.44" stroke-miterlimit="10"/>
<path d="M230.652 218.019L223.287 222.147C220.007 223.985 215.992 223.954 212.742 222.063L126.327 171.818C123.031 169.904 123.046 165.133 126.342 163.234L131.917 160.025C135.159 158.156 139.151 158.133 142.417 159.964L230.652 209.373C234.032 211.265 234.032 216.135 230.652 218.027V218.019Z" fill="black"/>
<path d="M56.6479 274.803V275.975C56.6479 276.541 56.0361 276.894 55.5467 276.61L44.5345 270.216C43.7774 269.779 43.3109 268.968 43.3109 268.087V266.915C43.3109 266.349 43.9227 265.989 44.4121 266.28L55.4243 272.674C56.1814 273.111 56.6479 273.922 56.6479 274.803Z" fill="white" stroke="black" stroke-width="0.44" stroke-miterlimit="10"/>
<path d="M81.7885 290.625C81.582 289.936 81.7885 289.269 82.2474 289.132C82.7062 288.994 83.2415 289.438 83.448 290.127C83.6545 290.816 83.448 291.483 82.9892 291.62C82.5303 291.758 81.995 291.314 81.7962 290.633L81.7885 290.625Z" fill="#231F20"/>
<path d="M79.576 289.354C79.3695 288.664 79.576 287.998 80.0348 287.86C80.4937 287.722 81.029 288.167 81.2355 288.856C81.4419 289.537 81.2355 290.211 80.7766 290.349C80.3178 290.487 79.7825 290.043 79.576 289.361V289.354Z" fill="#231F20"/>
<path d="M77.3736 288.09C77.1671 287.401 77.3736 286.734 77.8324 286.596C78.2913 286.459 78.8266 286.903 79.0331 287.584C79.2395 288.266 79.0331 288.94 78.5742 289.078C78.1154 289.216 77.5801 288.771 77.3736 288.082V288.09Z" fill="#231F20"/>
<path d="M75.1611 286.826C74.9546 286.137 75.1611 285.471 75.6199 285.333C76.0788 285.195 76.6141 285.639 76.8205 286.321C77.027 287.01 76.8205 287.676 76.3617 287.814C75.9029 287.952 75.3676 287.508 75.1611 286.826Z" fill="#231F20"/>
<path d="M72.9586 285.563C72.7521 284.881 72.9586 284.207 73.4174 284.069C73.8762 283.932 74.4116 284.376 74.618 285.057C74.8245 285.747 74.618 286.413 74.1592 286.551C73.7004 286.688 73.165 286.244 72.9586 285.563Z" fill="#231F20"/>
<path d="M70.741 284.292C70.5346 283.602 70.741 282.936 71.1999 282.798C71.6587 282.66 72.194 283.105 72.4005 283.786C72.607 284.468 72.4005 285.142 71.9417 285.279C71.4828 285.417 70.9475 284.973 70.741 284.284V284.292Z" fill="#231F20"/>
<path d="M28.1497 258.836C27.9432 258.155 28.1497 257.481 28.6086 257.343C29.0674 257.205 29.6027 257.649 29.8092 258.331C30.0157 259.02 29.8092 259.686 29.3504 259.824C28.8915 259.962 28.3562 259.518 28.1497 258.828V258.836Z" fill="#231F20"/>
<path d="M25.9422 257.573C25.7357 256.883 25.9422 256.217 26.401 256.079C26.8599 255.941 27.3952 256.386 27.6017 257.067C27.8082 257.756 27.6017 258.423 27.1428 258.56C26.684 258.698 26.1487 258.254 25.9422 257.573Z" fill="#231F20"/>
<path d="M23.7347 256.309C23.5283 255.62 23.7347 254.954 24.1936 254.816C24.6524 254.678 25.1877 255.122 25.3942 255.804C25.6007 256.485 25.3942 257.159 24.9354 257.297C24.4765 257.435 23.9412 256.991 23.7347 256.301V256.309Z" fill="#231F20"/>
<path d="M21.5272 255.038C21.3207 254.349 21.5272 253.682 21.9861 253.545C22.4449 253.407 22.9802 253.851 23.1867 254.532C23.3932 255.214 23.1867 255.888 22.7279 256.026C22.269 256.164 21.7337 255.719 21.5272 255.038Z" fill="#231F20"/>
<path d="M19.3097 253.774C19.1032 253.085 19.3097 252.419 19.7685 252.281C20.2274 252.143 20.7627 252.587 20.9692 253.277C21.1756 253.966 20.9692 254.632 20.5103 254.77C20.0515 254.908 19.5162 254.464 19.3097 253.782V253.774Z" fill="#231F20"/>
<path d="M17.1121 252.511C16.9056 251.822 17.1121 251.155 17.5709 251.018C18.0297 250.88 18.5651 251.324 18.7715 252.005C18.978 252.687 18.7715 253.361 18.3127 253.499C17.8539 253.637 17.3185 253.192 17.1121 252.503V252.511Z" fill="#231F20"/>
<path d="M304.726 197.633L310.951 194.019C312.022 193.391 313.368 194.18 313.368 195.42V196.454C313.368 197.718 312.695 198.889 311.609 199.517L305.277 203.193C304.168 203.836 302.791 203.032 302.791 201.753V201.003C302.791 199.617 303.525 198.33 304.726 197.641V197.633Z" fill="#4169E1" stroke="black" stroke-width="0.44" stroke-miterlimit="10"/>
<path d="M304.847 198.705L311.072 195.091C312.143 194.463 313.374 194.823 314.139 196.354H313.894C313.894 197.618 313.114 198.943 312.028 199.571L304.924 203.867C304.312 204.028 302.928 203.423 303.05 201.876C303.05 201.876 303.035 199.609 304.832 198.705H304.847Z" fill="black" stroke="black" stroke-width="0.44" stroke-miterlimit="10"/>
<path d="M305.834 199.356L312.059 195.742C313.129 195.114 314.475 195.903 314.475 197.143V197.082C314.475 198.345 313.802 199.517 312.716 200.145L306.384 203.821C303.777 204.947 303.777 202.565 303.777 202.565C303.777 201.179 304.633 200.046 305.826 199.349L305.834 199.356Z" fill="#4169E1" stroke="black" stroke-width="0.44" stroke-miterlimit="10"/>
<path d="M57.394 274.061V275.232C57.394 275.799 56.7822 276.159 56.2928 275.868L45.2806 269.473C44.5235 269.037 44.057 268.225 44.057 267.345V266.173C44.057 265.606 44.6688 265.246 45.1582 265.537L56.1704 271.932C56.9275 272.368 57.394 273.18 57.394 274.061Z" fill="black"/>
<path d="M303.118 137.648L301.298 138.705C299.325 139.853 296.893 139.853 294.912 138.705L267.435 122.768C265.86 121.857 265.86 119.575 267.435 118.664L269.263 117.607C271.236 116.458 273.668 116.458 275.641 117.607L303.11 133.543C304.686 134.454 304.686 136.737 303.11 137.648H303.118Z" fill="#4169E1" stroke="black" stroke-width="0.44" stroke-miterlimit="10"/>
<path d="M135.609 290.372V305.443L137.276 304.478V289.468L135.609 290.372Z" fill="white" stroke="black" stroke-width="0.44" stroke-miterlimit="10"/>
<path d="M322.925 181.666V196.737L324.592 195.773V180.702L322.925 181.666Z" fill="white" stroke="black" stroke-width="0.44" stroke-miterlimit="10"/>
<path d="M58.562 277.438C58.3555 276.756 58.562 276.082 59.0208 275.944C59.4796 275.806 60.0149 276.251 60.2214 276.94C60.4279 277.621 60.2214 278.295 59.7626 278.433C59.3037 278.571 58.7684 278.127 58.562 277.438Z" fill="#231F20"/>
<path d="M39.9213 266.433C39.7148 265.744 39.9213 265.077 40.3802 264.94C40.839 264.802 41.3743 265.246 41.5808 265.935C41.7873 266.617 41.5808 267.291 41.122 267.428C40.6631 267.566 40.1278 267.122 39.9213 266.441V266.433Z" fill="#231F20"/>
<path d="M275.129 122.929C274.097 123.526 272.828 123.526 271.803 122.929C270.579 122.217 270.579 120.44 271.803 119.728C272.835 119.131 274.105 119.131 275.129 119.728C276.353 120.44 276.353 122.217 275.129 122.929Z" fill="#00125C" stroke="black" stroke-width="0.44" stroke-miterlimit="10"/>
<path d="M298.329 136.277L298.298 136.292C297.189 136.867 295.874 136.844 294.795 136.223L279.654 127.394C278.392 126.666 278.384 124.836 279.654 124.108C280.786 123.45 282.185 123.45 283.317 124.108L298.413 132.954C299.705 133.704 299.659 135.588 298.344 136.285L298.329 136.277Z" fill="#00125C" stroke="black" stroke-width="0.44" stroke-miterlimit="10"/>
<mask id="mask0_18087_5156" style="mask-type:luminance" maskUnits="userSpaceOnUse" x="232" y="97" width="113" height="67">
<path d="M344.921 159.121L239.074 97.7958L232.184 101.793L338.031 163.119L344.921 159.121Z" fill="white"/>
</mask>
<g mask="url(#mask0_18087_5156)">
<path d="M237.256 99.3197C237.035 99.1895 236.568 99.2432 236.224 99.4499L235.933 99.6184C235.589 99.8175 235.49 100.086 235.712 100.216" fill="black"/>
</g>
<mask id="mask1_18087_5156" style="mask-type:luminance" maskUnits="userSpaceOnUse" x="52" y="176" width="89" height="87">
<path d="M53.453 253.552L67.6464 261.784C69.6424 262.941 72.1048 262.941 74.1008 261.784L140.067 223.486C140.571 223.195 140.832 222.613 140.717 222.047L138.79 212.581C138.759 212.428 138.698 212.283 138.621 212.145L127.579 193.995C127.502 193.865 127.403 193.758 127.288 193.658L106.893 176.635C106.418 176.236 105.73 176.213 105.225 176.581L68.1282 203.798C67.8912 203.966 67.7229 204.211 67.6388 204.487L52.8488 251.967C52.6577 252.572 52.9177 253.223 53.4606 253.544L53.453 253.552Z" fill="white"/>
</mask>
<g mask="url(#mask1_18087_5156)">
<path d="M128.154 218.639C128.154 211.617 126.594 205.919 123.864 201.761L124.093 199.663L117.983 196.117C117.983 196.117 117.983 196.117 117.975 196.117C111.689 192.487 103.002 193.016 93.4121 198.56C74.2173 209.656 58.6626 236.643 58.6626 258.836C58.6626 269.489 62.2492 277.093 68.0994 280.907L68.13 280.922C68.5812 281.213 69.0477 281.489 69.5218 281.734L75.5785 285.256L81.1917 283.434C84.2353 282.997 87.4778 281.963 90.8656 280.294L99.4229 277.514L97.8705 276.021C114.962 263.615 128.169 239.094 128.169 218.647L128.154 218.639Z" fill="#FF9500" stroke="#231F20" stroke-width="0.44" stroke-miterlimit="10"/>
<path d="M100.08 202.412C119.275 191.315 134.83 200.314 134.83 222.507C134.83 244.7 119.275 271.686 100.08 282.783C80.8853 293.879 65.3306 284.881 65.3306 262.688C65.3306 240.495 80.8853 213.508 100.08 202.412Z" fill="#FFE2C8" stroke="#231F20" stroke-width="0.44" stroke-miterlimit="10"/>
<path d="M100.583 209.901C116.543 200.674 129.475 208.155 129.475 226.604C129.475 245.052 116.536 267.49 100.583 276.718C84.6233 285.946 71.6917 278.464 71.6917 260.016C71.6917 241.567 84.631 219.129 100.583 209.901Z" fill="#FF9500" stroke="#231F20" stroke-width="0.44" stroke-miterlimit="10"/>
<path d="M99.4979 209.833C114.854 200.773 127.304 208.117 127.304 226.236C127.304 244.355 114.854 266.379 99.4979 275.439C84.142 284.498 71.6004 279.168 71.6922 259.035C71.6922 240.916 84.142 218.892 99.4979 209.833Z" fill="#F8B04A" stroke="#231F20" stroke-width="0.44" stroke-miterlimit="10"/>
<path d="M115.963 237.945L116.2 237.226L114.793 236.414C113.929 235.901 112.744 235.924 111.329 236.314C113.394 233.956 114.701 231.099 114.449 227.691C114.411 227.148 114.327 226.68 114.197 226.267L114.655 225.478L112.843 224.429C112.843 224.429 112.812 224.414 112.805 224.406C111.268 223.579 108.805 224.215 105.96 225.516L106.014 221.841L107.153 219.995L105.83 219.221C105.654 219.068 105.387 219.022 105.15 219.153L103.2 220.24C102.771 220.477 102.511 220.922 102.504 221.412L102.42 227.308C101.487 227.829 100.538 228.38 99.5978 228.932L99.6436 225.578L100.837 223.648L99.4754 222.874C99.2766 222.752 99.0242 222.668 98.7871 222.798L96.8371 223.885C96.4088 224.123 96.1488 224.567 96.1411 225.057L96.057 231.038C95.2923 231.482 94.5352 231.918 93.8087 232.332V232.309L89.5185 234.706C89.1515 234.913 88.9221 235.296 88.9144 235.717L88.8762 238.382C88.8762 238.635 89.0138 238.834 89.2127 238.926L90.8033 239.837L91.698 238.167L91.4074 238.007C91.4074 238.007 91.4304 237.999 91.4304 238.007C92.8604 237.21 93.3193 237.915 93.4416 238.673L93.1816 257.221C93.1128 257.78 92.8375 258.768 91.8357 259.327C91.8663 259.342 90.9027 259.87 90.1456 260.284C89.5874 260.59 89.2127 261.134 89.1209 261.762L88.7615 264.22C88.7003 264.657 88.9374 265.024 89.2738 265.193L90.9486 266.135L95.2005 263.355L94.5734 262.704C94.9252 262.512 95.277 262.321 95.6288 262.129L95.56 267.176C95.56 267.59 95.7894 267.927 96.1106 268.103L97.6936 269.006L100.24 267.467L99.093 265.177L99.1618 260.238C100.133 259.717 101.074 259.204 101.984 258.691L101.915 263.692C101.915 264.159 102.205 264.534 102.596 264.672L104.026 265.484L106.572 263.944L105.456 261.701L105.524 256.616C111.482 252.894 115.665 248.82 116.277 242.027C116.437 240.235 116.322 238.91 115.978 237.968L115.963 237.945ZM99.6054 233.733C101.601 232.615 107.887 228.373 107.819 233.228C107.75 237.884 101.487 240.848 99.4907 241.966L99.6054 233.733ZM109.287 245.113C109.218 250.229 101.701 253.851 99.3071 255.191L99.4372 246.116C101.838 244.776 109.363 239.768 109.287 245.106V245.113Z" fill="#FF9500" stroke="#231F20" stroke-width="0.44" stroke-miterlimit="10"/>
<path d="M116.02 228.603C115.684 223.946 112.09 224.329 107.532 226.42L107.616 220.585C107.616 220.125 107.126 219.826 106.729 220.056L104.779 221.144C104.35 221.381 104.09 221.825 104.083 222.315L103.999 228.212C103.066 228.733 102.117 229.284 101.177 229.835L101.253 224.23C101.253 223.77 100.764 223.472 100.366 223.701L98.4161 224.789C97.9878 225.026 97.7278 225.47 97.7202 225.961L97.636 231.941C96.8713 232.386 96.1142 232.822 95.3877 233.236V233.213L91.0976 235.61C90.7305 235.816 90.5011 236.199 90.4934 236.62L90.4552 239.285C90.4552 239.753 90.9523 240.051 91.3576 239.814C92.107 239.385 93.04 238.857 93.0094 238.903C94.4394 238.098 94.8983 238.811 95.0207 239.569L94.7606 258.124C94.6918 258.683 94.4165 259.671 93.4147 260.23C93.4453 260.245 92.4817 260.774 91.7246 261.187C91.1664 261.494 90.7917 262.037 90.6999 262.665L90.3405 265.124C90.2334 265.882 91.0364 266.441 91.7093 266.066L94.6689 264.411C95.5254 263.929 96.3666 263.477 97.1925 263.018L97.1237 268.064C97.116 268.853 97.9572 269.366 98.6531 268.983L99.6549 268.432C100.259 268.103 100.641 267.467 100.649 266.778L100.726 261.119C101.697 260.598 102.637 260.085 103.547 259.572L103.479 264.572C103.471 265.361 104.312 265.874 105.008 265.491L106.018 264.94C106.622 264.611 107.004 263.975 107.012 263.286L107.096 257.504C113.053 253.782 117.236 249.708 117.848 242.915C118.337 237.44 116.257 236.284 112.892 237.225C114.965 234.859 116.273 232.003 116.02 228.595V228.603ZM110.866 246.009C110.797 251.125 103.28 254.747 100.886 256.087L101.016 247.012C103.417 245.672 110.942 240.664 110.866 246.002V246.009ZM109.405 234.132C109.336 238.788 103.073 241.751 101.077 242.869L101.192 234.637C103.188 233.519 109.474 229.276 109.405 234.132Z" fill="#FFE2C8" stroke="#231F20" stroke-width="0.44" stroke-miterlimit="10"/>
</g>
<mask id="mask2_18087_5156" style="mask-type:luminance" maskUnits="userSpaceOnUse" x="193" y="94" width="90" height="88">
<path d="M193.804 171.65L209.03 180.487C210.965 181.613 213.359 181.613 215.293 180.487L282.192 141.646L280.028 130.993L268.748 112.453L247.366 94.6101L209.053 122.723L193.804 171.657V171.65Z" fill="white"/>
</mask>
<g mask="url(#mask2_18087_5156)">
<path d="M268.873 139.18C268.873 132.158 267.313 126.46 264.583 122.302L264.813 120.204L258.702 116.658C258.702 116.658 258.702 116.658 258.695 116.658C252.409 113.028 243.721 113.557 234.132 119.101C214.937 130.197 199.382 157.184 199.382 179.377C199.382 190.03 202.969 197.634 208.819 201.448L208.849 201.463C209.301 201.754 209.767 202.03 210.241 202.275L216.298 205.797L221.911 203.975C224.955 203.538 228.197 202.504 231.585 200.835L240.142 198.055L238.59 196.562C255.682 184.156 268.889 159.635 268.889 139.188L268.873 139.18Z" fill="#4169E1" stroke="#231F20" stroke-width="0.44" stroke-miterlimit="10"/>
<path d="M240.804 122.953C259.999 111.856 275.554 120.855 275.554 143.047C275.554 165.24 259.999 192.227 240.804 203.324C221.61 214.42 206.055 205.422 206.055 183.229C206.055 161.036 221.61 134.049 240.804 122.953Z" fill="#CCD9FD" stroke="#231F20" stroke-width="0.44" stroke-miterlimit="10"/>
<path d="M240.8 129.73C256.76 120.502 269.691 127.984 269.691 146.432C269.691 164.88 256.752 187.318 240.8 196.546C224.84 205.774 211.908 198.292 211.908 179.844C211.908 161.396 224.847 138.958 240.8 129.73Z" fill="#4169E1" stroke="#231F20" stroke-width="0.44" stroke-miterlimit="10"/>
<path d="M239.714 129.653C255.07 120.594 267.52 127.938 267.52 146.057C267.52 164.176 255.07 186.2 239.714 195.26C224.358 204.319 211.817 198.989 211.908 178.856C211.908 160.737 224.358 138.713 239.714 129.653Z" fill="#6B8DF3" stroke="#231F20" stroke-width="0.44" stroke-miterlimit="10"/>
<path fill-rule="evenodd" clip-rule="evenodd" d="M225.279 173.572C232.651 165.455 238.532 155.055 241.644 144.594C244.757 151.456 250.637 155.055 258.009 154.649C250.637 162.767 244.757 173.166 241.644 183.62C238.532 176.758 232.651 173.159 225.279 173.565V173.572Z" fill="white" stroke="#231F20" stroke-width="0.44" stroke-linejoin="round"/>
<path d="M227.229 174.56L225.279 173.572C225.279 173.572 236.857 161.212 241.644 144.594L243.594 145.582V158.08L236.062 170.164L227.237 174.56H227.229Z" fill="#4169E1" stroke="#231F20" stroke-width="0.44" stroke-miterlimit="10"/>
<path d="M243.595 184.615L241.645 183.628C241.645 183.628 239.87 178.68 234.441 175.602C234.441 175.602 241.836 176.873 243.595 184.608V184.615Z" fill="white" stroke="#231F20" stroke-width="0.44" stroke-miterlimit="10"/>
<path d="M259.952 155.637L258.002 154.649C258.002 154.649 253.23 155.247 248.405 152.053C248.405 152.053 253.567 156.487 259.96 155.63" fill="#4169E1"/>
<path d="M259.952 155.637L258.002 154.649C258.002 154.649 253.23 155.247 248.405 152.053C248.405 152.053 253.567 156.487 259.96 155.63" stroke="#231F20" stroke-width="0.44" stroke-miterlimit="10"/>
<path fill-rule="evenodd" clip-rule="evenodd" d="M227.225 174.56C234.597 166.443 240.478 156.043 243.59 145.582C246.703 152.444 252.583 156.043 259.955 155.637C252.583 163.755 246.703 174.154 243.59 184.608C240.478 177.746 234.597 174.147 227.225 174.553V174.56Z" fill="#CCD9FD" stroke="#231F20" stroke-width="0.44" stroke-linejoin="round"/>
</g>
<path d="M226.559 75.6572C203.288 62.2633 172.439 44.4661 144.465 28.3076C139.777 25.6044 134.5 26.0179 130.455 28.4761L123.22 32.4736L124.75 35.2918C124.176 36.808 123.847 38.4622 123.847 40.2388V123.328C123.847 131.454 128.183 138.958 135.211 143.01L217.321 190.313C218.674 191.094 220.074 191.607 221.481 191.891L221.313 195.62L229.365 191.133C230.39 190.711 231.354 190.168 232.248 189.524C235.621 187.089 237.93 183.138 237.93 178.382V95.346C237.93 87.2132 233.594 79.7083 226.551 75.6572H226.559ZM172.117 147.022C153.32 136.156 138.079 109.72 138.079 87.979C138.079 66.2378 153.32 57.4311 172.117 68.2978C190.915 79.1646 206.156 105.6 206.156 127.341C206.156 149.082 190.915 157.889 172.117 147.022Z" fill="#9B90BA" stroke="black" stroke-width="0.44" stroke-miterlimit="10"/>
<path d="M217.791 80.4819C194.52 67.088 163.67 49.2908 135.696 33.1323C126.527 27.8406 115.079 34.4648 115.079 45.0635V128.153C115.079 136.278 119.415 143.783 126.443 147.834L208.553 195.138C217.722 200.422 229.162 193.79 229.162 183.199V100.163C229.162 92.0302 224.826 84.5253 217.783 80.4742L217.791 80.4819ZM167.073 154.481C147.718 143.293 132.026 116.069 132.026 93.692C132.026 71.3152 147.718 62.2328 167.073 73.4289C186.429 84.6249 202.121 111.842 202.121 134.218C202.121 156.595 186.429 165.677 167.073 154.481Z" fill="#F7F2F7" stroke="black" stroke-width="0.44" stroke-miterlimit="10"/>
<mask id="mask3_18087_5156" style="mask-type:luminance" maskUnits="userSpaceOnUse" x="116" y="68" width="87" height="106">
<path d="M141.392 170.525C121.853 159.229 116.224 137.902 116.224 115.311C116.224 111.382 131.932 86.3327 132.827 83.2541C137.071 68.6196 150.691 63.9942 166.827 73.3293C186.366 84.6249 202.196 112.094 202.196 134.685C202.196 157.277 160.923 181.821 141.392 170.525Z" fill="white"/>
</mask>
<g mask="url(#mask3_18087_5156)">
<path d="M190.744 94.4505C190.744 87.4281 189.184 81.7305 186.454 77.5722L186.684 75.4739L180.573 71.9282C180.573 71.9282 180.573 71.9282 180.566 71.9282C174.28 68.2983 165.592 68.8267 156.002 74.3711C136.808 85.4676 121.253 112.454 121.253 134.647C121.253 145.3 124.84 152.904 130.69 156.718L130.72 156.733C131.172 157.024 131.638 157.3 132.112 157.545L138.169 161.068L143.782 159.245C146.826 158.809 150.068 157.775 153.456 156.105L162.013 153.325L160.461 151.832C177.553 139.426 190.76 114.905 190.76 94.4581L190.744 94.4505Z" fill="#FF9500" stroke="#231F20" stroke-width="0.44" stroke-miterlimit="10"/>
<path d="M162.67 78.2154C181.865 67.1189 197.42 76.1171 197.42 98.31C197.42 120.503 181.865 147.49 162.67 158.586C143.475 169.683 127.921 160.685 127.921 138.492C127.921 116.299 143.475 89.3118 162.67 78.2154Z" fill="#FFE2C8" stroke="#231F20" stroke-width="0.44" stroke-miterlimit="10"/>
<path d="M162.987 86.2257C178.947 76.9978 191.879 84.4797 191.879 102.928C191.879 121.376 178.94 143.814 162.987 153.042C147.027 162.27 134.096 154.788 134.096 136.34C134.096 117.892 147.035 95.4537 162.987 86.2257Z" fill="#FF9500" stroke="#231F20" stroke-width="0.44" stroke-miterlimit="10"/>
<path d="M161.902 86.1492C177.258 77.0898 189.708 84.4338 189.708 102.553C189.708 120.672 177.258 142.696 161.902 151.756C146.546 160.815 134.004 155.485 134.096 135.352C134.096 117.233 146.546 95.2086 161.902 86.1492Z" fill="#F8B04A" stroke="#231F20" stroke-width="0.44" stroke-miterlimit="10"/>
<path d="M177.873 113.542L178.11 112.822L176.703 112.01C175.839 111.497 174.653 111.52 173.239 111.911C175.303 109.552 176.611 106.696 176.359 103.288C176.32 102.744 176.236 102.277 176.106 101.863L176.565 101.075L174.753 100.026C174.753 100.026 174.722 100.01 174.714 100.003C173.177 99.1755 170.715 99.8111 167.87 101.113L167.924 97.4372L169.063 95.5916L167.74 94.8181C167.564 94.6649 167.297 94.619 167.06 94.7492L165.109 95.8366C164.681 96.074 164.421 96.5182 164.414 97.0083L164.329 102.905C163.396 103.426 162.448 103.977 161.508 104.528L161.553 101.174L162.746 99.2445L161.385 98.471C161.186 98.3485 160.934 98.2642 160.697 98.3944L158.747 99.4818C158.319 99.7192 158.059 100.163 158.051 100.654L157.967 106.634C157.202 107.079 156.445 107.515 155.718 107.929V107.906L151.428 110.303C151.061 110.509 150.832 110.892 150.824 111.313L150.786 113.978C150.786 114.231 150.924 114.43 151.122 114.522L152.713 115.434L153.608 113.764L153.317 113.603C153.317 113.603 153.34 113.596 153.34 113.603C154.77 112.807 155.229 113.511 155.351 114.269L155.091 132.817C155.023 133.376 154.747 134.364 153.745 134.923C153.776 134.939 152.813 135.467 152.055 135.88C151.497 136.187 151.122 136.73 151.031 137.358L150.671 139.817C150.61 140.253 150.847 140.621 151.184 140.789L152.858 141.731L157.11 138.951L156.483 138.3C156.835 138.109 157.187 137.917 157.539 137.726L157.47 142.773C157.47 143.186 157.699 143.523 158.02 143.699L159.603 144.603L162.15 143.064L161.003 140.774L161.072 135.834C162.043 135.314 162.983 134.801 163.894 134.288L163.825 139.288C163.825 139.755 164.115 140.131 164.505 140.268L165.935 141.08L168.482 139.541L167.365 137.297L167.434 132.212C173.392 128.49 177.575 124.416 178.186 117.624C178.347 115.832 178.232 114.507 177.888 113.565L177.873 113.542ZM161.515 109.33C163.511 108.212 169.797 103.969 169.728 108.825C169.66 113.481 163.396 116.444 161.4 117.562L161.515 109.33ZM171.197 120.71C171.128 125.825 163.611 129.448 161.217 130.788L161.347 121.713C163.748 120.373 171.273 115.365 171.197 120.702V120.71Z" fill="#FF9500" stroke="#231F20" stroke-width="0.44" stroke-miterlimit="10"/>
<path d="M177.925 104.199C177.588 99.5431 173.994 99.926 169.436 102.017L169.52 96.1812C169.52 95.7217 169.031 95.4231 168.633 95.6528L166.683 96.7403C166.255 96.9777 165.995 97.4218 165.987 97.9119L165.903 103.809C164.97 104.329 164.022 104.881 163.081 105.432L163.158 99.8264C163.158 99.367 162.668 99.0683 162.271 99.298L160.321 100.385C159.892 100.623 159.632 101.067 159.625 101.557L159.541 107.538C158.776 107.982 158.019 108.419 157.292 108.832V108.809L153.002 111.206C152.635 111.413 152.406 111.796 152.398 112.217L152.36 114.882C152.36 115.349 152.857 115.648 153.262 115.411C154.012 114.982 154.945 114.453 154.914 114.499C156.344 113.695 156.803 114.407 156.925 115.165L156.665 133.721C156.596 134.28 156.321 135.268 155.319 135.827C155.35 135.842 154.386 136.371 153.629 136.784C153.071 137.09 152.696 137.634 152.605 138.262L152.245 140.72C152.138 141.478 152.941 142.037 153.614 141.662L156.574 140.008C157.43 139.526 158.271 139.074 159.097 138.614L159.028 143.661C159.021 144.45 159.862 144.963 160.558 144.58L161.56 144.029C162.164 143.699 162.546 143.064 162.554 142.374L162.63 136.715C163.601 136.194 164.542 135.681 165.452 135.168L165.383 140.169C165.376 140.958 166.217 141.471 166.913 141.088L167.922 140.537C168.526 140.207 168.909 139.572 168.916 138.882L169 133.101C174.958 129.379 179.141 125.305 179.753 118.512C180.242 113.037 178.162 111.88 174.797 112.822C176.87 110.456 178.177 107.599 177.925 104.192V104.199ZM172.771 121.614C172.702 126.729 165.184 130.351 162.791 131.691L162.921 122.617C165.322 121.277 172.847 116.268 172.771 121.606V121.614ZM171.31 109.728C171.241 114.384 164.978 117.348 162.982 118.466L163.097 110.234C165.093 109.116 171.379 104.873 171.31 109.728Z" fill="#FFE2C8" stroke="#231F20" stroke-width="0.44" stroke-miterlimit="10"/>
</g>
</g>
<defs>
<clipPath id="clip0_18087_5156">
<rect width="360" height="360" rx="5" fill="white"/>
</clipPath>
</defs>
</svg>
