<svg width="360" height="360" viewBox="0 0 360 360" fill="none" xmlns="http://www.w3.org/2000/svg">
<g clip-path="url(#clip0_18087_5491)">
<path d="M178.919 355.268L278.338 297.578C283.829 294.391 283.821 286.452 278.326 283.277L190.085 232.286C183.314 228.374 174.976 228.369 168.203 232.273L68.4252 289.781C62.9158 292.956 62.911 300.911 68.4156 304.093L156.98 355.285C163.769 359.209 172.137 359.202 178.919 355.266V355.268Z" fill="#1C1C1C" stroke="#1C1C1C" stroke-width="0.44" stroke-miterlimit="10"/>
<path d="M241.026 275.559C241.021 275.52 241.016 275.479 241.012 275.44L239.941 265.921L254.735 264.739L253.063 275.561C252.957 276.363 252.374 277.146 251.313 277.76C248.956 279.123 245.13 279.123 242.773 277.76C241.712 277.148 241.13 276.363 241.024 275.561L241.026 275.559Z" fill="#2AA5A5" stroke="#1C1C1C" stroke-width="0.44" stroke-miterlimit="10"/>
<path d="M158.006 321.546C158.001 321.508 157.997 321.467 157.992 321.428L156.921 311.909L171.715 310.726L170.043 321.549C169.937 322.351 169.355 323.134 168.294 323.748C165.936 325.111 162.111 325.111 159.753 323.748C158.692 323.136 158.11 322.351 158.004 321.549L158.006 321.546Z" fill="#2AA5A5" stroke="#1C1C1C" stroke-width="0.44" stroke-miterlimit="10"/>
<path d="M79.1994 278.952C79.1946 278.914 79.1898 278.873 79.185 278.834L78.1144 269.315L92.908 268.132L91.2359 278.955C91.13 279.757 90.5478 280.54 89.4868 281.154C87.1291 282.517 83.3038 282.517 80.9461 281.154C79.8851 280.542 79.3028 279.757 79.197 278.955L79.1994 278.952Z" fill="#2AA5A5" stroke="#1C1C1C" stroke-width="0.44" stroke-miterlimit="10"/>
<path d="M67.7275 254.824L70.1767 263.982C71.5071 268.96 74.7599 273.205 79.2179 275.782L154.439 319.261C160.334 322.667 167.595 322.667 173.489 319.261L250.796 274.575C253.955 272.749 256.416 269.919 257.788 266.533L262.534 254.822L163.964 199.231L67.7251 254.822L67.7275 254.824Z" fill="#2AA5A5" stroke="#1C1C1C" stroke-width="0.44" stroke-miterlimit="10"/>
<path d="M167.756 52.6097L174.788 48.5824C177.906 46.4989 182.112 46.0725 185.821 48.2163L280.706 103.062C288.963 107.836 294.049 116.657 294.049 126.202V233.757C294.049 238.144 291.465 241.634 287.986 243.25L280.028 247.834L281.365 243.987C280.355 243.761 279.349 243.378 278.377 242.814L183.493 187.968C175.236 183.194 170.15 174.374 170.15 164.828V61.3219H170.145L167.753 52.6097H167.756Z" fill="#2AA5A5" stroke="#1C1C1C" stroke-width="0.44" stroke-miterlimit="10"/>
<path d="M272.338 107.846L177.454 53C170.489 48.9751 161.784 54.0068 161.784 62.0566V169.612C161.784 179.157 166.87 187.978 175.127 192.752L270.012 247.598C276.977 251.623 285.681 246.591 285.681 238.541V130.986C285.681 121.44 280.595 112.62 272.338 107.846Z" fill="#1C1C1C" stroke="#1C1C1C" stroke-width="0.44" stroke-miterlimit="10"/>
<path d="M188.992 63.3094V81.3577L180.634 85.8571L179.807 68.5989L188.992 63.3094Z" fill="#2AA5A5" stroke="#1C1C1C" stroke-width="0.44" stroke-miterlimit="10"/>
<path d="M161.782 65.6961C161.782 57.6438 170.486 52.6121 177.451 56.6394L188.992 63.3115L161.782 78.9583V65.6985V65.6961Z" fill="#2AA5A5" stroke="#1C1C1C" stroke-width="0.44" stroke-miterlimit="10"/>
<path d="M229.262 7.44284L234.218 4.61986C236.506 3.19633 239.511 2.94341 242.176 4.48497L312.483 45.1219C318.601 48.6579 322.371 55.195 322.371 62.2669V211.003C322.371 214.265 320.441 216.854 317.85 218.046L313.726 220.414L311.662 218.162C311.357 218.034 311.056 217.887 310.758 217.714L240.451 177.075C234.333 173.539 230.563 167.001 230.563 159.93V24.689L229.259 7.44043L229.262 7.44284Z" fill="#10464C" stroke="#1C1C1C" stroke-width="0.44" stroke-miterlimit="10"/>
<path d="M307.066 48.2187L236.759 7.57938C231.599 4.59743 225.149 8.32607 225.149 14.29V163.026C225.149 170.101 228.919 176.635 235.037 180.171L305.343 220.811C310.504 223.793 316.954 220.064 316.954 214.1V65.3637C316.954 58.2894 313.184 51.7547 307.066 48.2187Z" fill="#FFE2C8" stroke="#1C1C1C" stroke-width="0.44" stroke-miterlimit="10"/>
<path d="M264.012 23.3353V196.293L243.406 185.013V11.4243L264.012 23.3353Z" fill="#1C1C1C" stroke="#1C1C1C" stroke-width="0.44" stroke-miterlimit="10"/>
<path d="M71.1399 108.406L160.527 56.7368C164.304 54.5521 168.56 54.8629 171.839 56.8187L263.308 109.829L157.226 311.641L67.7909 259.705C66.7612 259.298 65.7941 258.739 64.9232 258.052C62.3946 256.056 60.6913 252.965 60.6913 249.285V126.524C60.6913 119.05 64.673 112.144 71.1375 108.408L71.1399 108.406Z" fill="#2AA5A5" stroke="#1C1C1C" stroke-width="0.44" stroke-miterlimit="10"/>
<path d="M252.239 109.885L162.852 161.554C156.388 165.29 152.406 172.196 152.406 179.67V302.431C152.406 311.044 161.719 316.428 169.17 312.121L258.557 260.452C265.022 256.716 269.003 249.811 269.003 242.337V119.576C269.003 110.962 259.69 105.579 252.239 109.885Z" fill="#B9E5DE" stroke="#1C1C1C" stroke-width="0.44" stroke-miterlimit="10"/>
<path d="M200.851 159.127L245.172 133.508C248.607 131.523 252.899 134.004 252.899 137.974V234.834C252.899 240.62 249.815 245.967 244.811 248.86L204.373 272.234C199.804 274.876 194.09 271.574 194.09 266.291V170.847C194.09 166.011 196.667 161.543 200.851 159.127Z" fill="#2AA5A5" stroke="#1C1C1C" stroke-width="0.44" stroke-miterlimit="10"/>
<path d="M201.309 158.86L245.401 133.374C246.72 132.613 248.365 133.564 248.365 135.086V232.363C248.365 238.149 245.281 243.496 240.277 246.389L199.488 269.968C197.063 271.37 194.034 269.616 194.034 266.815L194.087 171.378C194.089 166.214 196.842 161.445 201.309 158.862V158.86Z" fill="#1C1C1C"/>
<mask id="mask0_18087_5491" style="mask-type:luminance" maskUnits="userSpaceOnUse" x="194" y="134" width="54" height="135">
<path d="M200.836 159.126L243.653 134.473C245.655 133.317 247.967 134.885 247.967 137.2V232.731C247.967 237.794 244.411 243.705 240.033 246.236L203.502 267.242C198.933 269.884 194.076 265.351 194.076 260.067V170.849C194.076 166.012 196.653 161.544 200.836 159.128V159.126Z" fill="white"/>
</mask>
<g mask="url(#mask0_18087_5491)">
<path d="M191.149 153.322C191.149 144.564 193.093 137.458 196.507 132.267L196.218 129.647L203.842 125.22C203.842 125.22 203.849 125.215 203.854 125.212H203.862V125.21C211.707 120.682 222.543 121.339 234.512 128.257C258.46 142.1 277.875 175.766 277.875 203.451C277.875 216.738 273.403 226.23 266.103 230.983L266.067 231.007C265.504 231.373 264.925 231.71 264.328 232.018L256.771 236.414L249.77 234.143C245.971 233.598 241.922 232.31 237.702 230.226L227.023 226.76L228.955 224.898C207.629 209.42 191.147 178.832 191.147 153.324L191.149 153.322Z" fill="#FF9500" stroke="#1C1C1C" stroke-width="0.44" stroke-miterlimit="10"/>
<path d="M226.176 133.076C202.228 119.233 182.813 130.455 182.813 158.141C182.813 185.826 202.225 219.493 226.176 233.335C250.124 247.178 269.539 235.956 269.539 208.27C269.539 180.585 250.126 146.919 226.176 133.076Z" fill="#FFE2C8" stroke="#1C1C1C" stroke-width="0.44" stroke-miterlimit="10"/>
<path d="M226.177 141.526C206.266 130.017 190.125 139.346 190.125 162.366C190.125 185.386 206.266 213.374 226.177 224.883C246.087 236.392 262.228 227.063 262.228 204.043C262.228 181.023 246.087 153.034 226.177 141.526Z" fill="white" stroke="#1C1C1C" stroke-width="0.44" stroke-miterlimit="10"/>
<path d="M227.529 141.449C208.364 130.118 192.829 139.302 192.829 161.963C192.829 184.624 208.366 212.18 227.529 223.51C246.694 234.84 262.228 225.656 262.228 202.995C262.228 180.334 246.691 152.779 227.529 141.449Z" fill="white" stroke="#1C1C1C" stroke-width="0.44" stroke-miterlimit="10"/>
<path d="M206.968 176.508L206.674 175.607L208.436 174.598H208.44C209.518 173.957 210.998 173.984 212.764 174.475C210.187 171.529 208.558 167.967 208.869 163.723C208.919 163.048 209.023 162.458 209.179 161.945L208.604 160.958L210.868 159.645C210.885 159.635 210.902 159.623 210.918 159.616H210.926C212.843 158.58 215.918 159.38 219.462 160.999L219.397 156.41L217.972 154.107L219.623 153.146C219.846 152.956 220.176 152.898 220.467 153.062L222.9 154.42C223.431 154.717 223.761 155.273 223.77 155.883L223.874 163.243C225.034 163.889 226.222 164.58 227.398 165.269L227.338 161.088L225.849 158.681L227.548 157.716C227.798 157.566 228.108 157.455 228.404 157.619L230.834 158.975C231.366 159.272 231.695 159.828 231.705 160.435L231.811 167.897C232.768 168.456 233.704 169 234.621 169.511V169.484L239.971 172.474C240.429 172.729 240.715 173.208 240.722 173.731L240.768 177.057C240.773 177.368 240.592 177.618 240.352 177.739L238.362 178.873L237.241 176.79L237.609 176.588C237.592 176.58 237.58 176.578 237.582 176.583C235.795 175.586 235.23 176.467 235.073 177.416L235.398 200.559C235.487 201.257 235.831 202.488 237.08 203.187C237.044 203.204 238.246 203.866 239.187 204.381C239.88 204.76 240.354 205.441 240.467 206.224L240.912 209.29C240.992 209.832 240.696 210.292 240.27 210.499L238.184 211.672L232.884 208.204L233.668 207.39C233.228 207.149 232.788 206.908 232.355 206.67L232.441 212.961C232.448 213.479 232.16 213.901 231.758 214.115L229.778 215.242L226.6 213.325L228.029 210.463L227.942 204.297C226.734 203.649 225.56 203.006 224.418 202.365L224.507 208.601C224.514 209.189 224.143 209.649 223.662 209.827L221.875 210.844L218.696 208.927L220.094 206.13L220.003 199.783C212.574 195.142 207.348 190.059 206.59 181.581C206.391 179.346 206.535 177.691 206.966 176.513L206.968 176.508ZM227.382 171.255C224.892 169.863 217.048 164.563 217.133 170.624C217.217 176.433 225.034 180.131 227.526 181.523L227.382 171.255ZM215.302 185.447C215.391 191.832 224.766 196.348 227.755 198.022L227.593 186.702C224.603 185.03 215.203 178.787 215.297 185.444H215.299L215.302 185.447Z" fill="white" stroke="#1C1C1C" stroke-width="0.44" stroke-miterlimit="10"/>
<path d="M206.899 164.852C207.315 159.043 211.799 159.522 217.489 162.126L217.386 154.849C217.378 154.276 217.992 153.907 218.492 154.187L220.925 155.545C221.456 155.842 221.786 156.398 221.796 157.007L221.899 164.368C223.059 165.016 224.247 165.705 225.424 166.394L225.325 159.404C225.318 158.831 225.931 158.462 226.432 158.742L228.862 160.098C229.393 160.394 229.723 160.95 229.732 161.557L229.838 169.019C230.796 169.578 231.732 170.123 232.648 170.633V170.607L237.999 173.594C238.456 173.849 238.742 174.328 238.75 174.851L238.795 178.177C238.803 178.758 238.175 179.129 237.672 178.84C236.736 178.303 235.574 177.643 235.608 177.703C233.82 176.703 233.255 177.587 233.098 178.536L233.423 201.681C233.512 202.38 233.856 203.611 235.102 204.309C235.066 204.324 236.269 204.988 237.21 205.501C237.903 205.88 238.377 206.561 238.49 207.344L238.935 210.41C239.072 211.359 238.064 212.055 237.227 211.588L233.529 209.522C232.461 208.924 231.407 208.358 230.375 207.787L230.461 214.079C230.476 215.066 229.42 215.702 228.554 215.225L227.303 214.536C226.547 214.122 226.076 213.332 226.064 212.472L225.965 205.412C224.757 204.767 223.583 204.121 222.44 203.481L222.529 209.717C222.544 210.704 221.488 211.34 220.622 210.866L219.366 210.174C218.613 209.76 218.139 208.972 218.127 208.11L218.023 200.898C210.594 196.257 205.368 191.175 204.611 182.696C203.999 175.867 206.595 174.425 210.794 175.6C208.212 172.652 206.574 169.085 206.886 164.833L206.891 164.845L206.899 164.852ZM213.332 186.572C213.421 192.957 222.796 197.473 225.784 199.147L225.623 187.826C222.633 186.155 213.236 179.912 213.329 186.569H213.332V186.572ZM215.16 171.749C215.244 177.558 223.061 181.256 225.554 182.648L225.409 172.382C222.919 170.99 215.076 165.691 215.16 171.751V171.749Z" fill="white" stroke="#1C1C1C" stroke-width="0.44" stroke-miterlimit="10"/>
<path d="M180.564 159.063C180.564 150.305 182.508 143.2 185.922 138.009L185.633 135.388L193.258 130.961C193.258 130.961 193.265 130.956 193.27 130.954H193.277V130.951C201.122 126.423 211.958 127.081 223.927 133.998C247.875 147.841 267.291 181.507 267.291 209.193C267.291 222.479 262.818 231.972 255.519 236.724L255.483 236.748C254.92 237.114 254.34 237.451 253.743 237.76L246.186 242.156L239.185 239.884C235.386 239.34 231.337 238.051 227.118 235.968L216.438 232.502L218.37 230.64C197.044 215.161 180.562 184.574 180.562 159.066L180.564 159.063Z" fill="#FF9500" stroke="#1C1C1C" stroke-width="0.44" stroke-miterlimit="10"/>
<path d="M215.586 138.818C191.638 124.975 172.223 136.197 172.223 163.883C172.223 191.568 191.636 225.234 215.586 239.077C239.534 252.92 258.949 241.698 258.949 214.012C258.949 186.327 239.536 152.661 215.586 138.818Z" fill="#FFE2C8" stroke="#1C1C1C" stroke-width="0.44" stroke-miterlimit="10"/>
<path d="M215.587 147.267C195.676 135.759 179.535 145.087 179.535 168.107C179.535 191.127 195.676 219.116 215.587 230.625C235.498 242.133 251.638 232.804 251.638 209.785C251.638 186.765 235.498 158.776 215.587 147.267Z" fill="white" stroke="#1C1C1C" stroke-width="0.44" stroke-miterlimit="10"/>
<path d="M216.939 147.193C197.774 135.863 182.239 145.047 182.239 167.708C182.239 190.369 197.776 217.924 216.939 229.255C236.104 240.585 251.638 231.401 251.638 208.74C251.638 186.079 236.101 158.524 216.939 147.193Z" fill="white" stroke="#1C1C1C" stroke-width="0.44" stroke-miterlimit="10"/>
<path d="M196.386 182.249L196.092 181.349L197.853 180.339H197.858C198.936 179.699 200.416 179.725 202.182 180.216C199.605 177.271 197.976 173.708 198.287 169.464C198.337 168.79 198.44 168.2 198.597 167.686L198.022 166.699L200.286 165.386C200.303 165.377 200.319 165.364 200.336 165.357H200.344C202.261 164.322 205.336 165.121 208.88 166.74L208.815 162.151L207.39 159.849L209.041 158.888C209.264 158.697 209.594 158.639 209.885 158.803L212.317 160.162C212.849 160.458 213.179 161.014 213.188 161.624L213.292 168.985C214.451 169.63 215.64 170.322 216.816 171.01L216.756 166.829L215.267 164.423L216.966 163.457C217.216 163.307 217.526 163.197 217.822 163.36L220.252 164.717C220.784 165.013 221.113 165.569 221.123 166.176L221.229 173.638C222.186 174.197 223.122 174.741 224.039 175.252V175.226L229.389 178.215C229.847 178.47 230.133 178.949 230.14 179.472L230.186 182.799C230.191 183.109 230.01 183.36 229.77 183.48L227.78 184.615L226.659 182.531L227.027 182.329C227.01 182.322 226.998 182.319 227 182.324C225.213 181.327 224.647 182.208 224.491 183.157L224.816 206.3C224.905 206.999 225.249 208.229 226.498 208.928C226.462 208.945 227.664 209.607 228.605 210.123C229.298 210.501 229.772 211.182 229.885 211.965L230.33 215.032C230.41 215.574 230.114 216.034 229.688 216.241L227.602 217.414L222.302 213.945L223.086 213.131C222.646 212.89 222.206 212.649 221.772 212.411L221.859 218.702C221.866 219.22 221.578 219.642 221.176 219.856L219.196 220.983L216.018 219.066L217.447 216.205L217.36 210.038C216.152 209.39 214.978 208.747 213.836 208.107L213.925 214.343C213.932 214.93 213.561 215.39 213.08 215.569L211.293 216.585L208.114 214.668L209.512 211.871L209.421 205.524C201.992 200.883 196.766 195.801 196.008 187.322C195.808 185.087 195.953 183.432 196.383 182.254L196.386 182.249ZM216.8 176.998C214.31 175.606 206.466 170.307 206.551 176.367C206.635 182.177 214.451 185.874 216.944 187.267L216.8 176.998ZM204.722 191.19C204.811 197.576 214.187 202.092 217.175 203.766L217.014 192.445C214.023 190.774 204.624 184.53 204.717 191.188H204.72L204.722 191.19Z" fill="white" stroke="#1C1C1C" stroke-width="0.44" stroke-miterlimit="10"/>
<path d="M196.322 170.593C196.738 164.784 201.222 165.263 206.912 167.867L206.809 160.59C206.802 160.017 207.415 159.648 207.915 159.928L210.348 161.286C210.879 161.582 211.209 162.139 211.219 162.748L211.322 170.109C212.482 170.757 213.67 171.446 214.847 172.135L214.748 165.145C214.741 164.572 215.354 164.203 215.855 164.483L218.285 165.839C218.816 166.135 219.146 166.691 219.156 167.298L219.261 174.76C220.219 175.319 221.155 175.864 222.071 176.374V176.348L227.422 179.335C227.879 179.59 228.166 180.069 228.173 180.592L228.218 183.918C228.226 184.499 227.598 184.87 227.095 184.581C226.159 184.043 224.997 183.384 225.031 183.444C223.243 182.444 222.678 183.328 222.521 184.277L222.846 207.422C222.935 208.121 223.279 209.352 224.525 210.05C224.489 210.065 225.692 210.729 226.633 211.242C227.326 211.621 227.8 212.302 227.913 213.085L228.358 216.151C228.495 217.1 227.487 217.796 226.65 217.329L222.952 215.262C221.884 214.665 220.83 214.099 219.798 213.528L219.885 219.82C219.899 220.807 218.843 221.443 217.977 220.966L216.726 220.277C215.97 219.863 215.499 219.073 215.487 218.213L215.388 211.153C214.18 210.508 213.006 209.862 211.863 209.221L211.952 215.458C211.967 216.445 210.911 217.081 210.045 216.607L208.789 215.915C208.036 215.501 207.562 214.713 207.55 213.851L207.446 206.639C200.017 201.998 194.791 196.916 194.034 188.437C193.423 181.608 196.018 180.166 200.217 181.341C197.635 178.393 195.997 174.825 196.31 170.574L196.314 170.586L196.322 170.593ZM202.752 192.312C202.841 198.698 212.217 203.214 215.205 204.888L215.044 193.567C212.054 191.896 202.656 185.652 202.75 192.31H202.752V192.312ZM204.581 177.489C204.665 183.299 212.482 186.997 214.974 188.389L214.83 178.123C212.34 176.731 204.497 171.432 204.581 177.492V177.489Z" fill="white" stroke="#1C1C1C" stroke-width="0.44" stroke-miterlimit="10"/>
<path d="M170.401 165.209C170.401 156.451 172.345 149.346 175.759 144.155L175.471 141.534L183.095 137.107C183.095 137.107 183.102 137.102 183.107 137.1H183.114V137.098C190.959 132.569 201.795 133.227 213.765 140.145C237.712 153.987 257.128 187.653 257.128 215.339C257.128 228.625 252.655 238.118 245.356 242.87L245.32 242.894C244.757 243.26 244.177 243.598 243.58 243.906L236.024 248.302L229.022 246.03C225.224 245.486 221.175 244.197 216.955 242.114L206.275 238.648L208.207 236.786C186.882 221.308 170.399 190.72 170.399 165.212L170.401 165.209Z" fill="#FF9500" stroke="#1C1C1C" stroke-width="0.44" stroke-miterlimit="10"/>
<path d="M205.423 144.964C181.475 131.121 162.06 142.343 162.06 170.029C162.06 197.714 181.473 231.38 205.423 245.223C229.371 259.066 248.786 247.844 248.786 220.158C248.786 192.473 229.374 158.807 205.423 144.964Z" fill="#FFE2C8" stroke="#1C1C1C" stroke-width="0.44" stroke-miterlimit="10"/>
<path d="M205.424 153.413C185.513 141.904 169.372 151.233 169.372 174.253C169.372 197.273 185.513 225.262 205.424 236.771C225.335 248.279 241.476 238.95 241.476 215.931C241.476 192.911 225.335 164.922 205.424 153.413Z" fill="white" stroke="#1C1C1C" stroke-width="0.44" stroke-miterlimit="10"/>
<path d="M206.776 153.339C187.611 142.009 172.077 151.193 172.077 173.854C172.077 196.515 187.614 224.07 206.776 235.401C225.941 246.731 241.476 237.547 241.476 214.886C241.476 192.225 225.939 164.67 206.776 153.339Z" fill="white" stroke="#1C1C1C" stroke-width="0.44" stroke-miterlimit="10"/>
<path d="M186.217 188.395L185.923 187.494L187.684 186.485H187.689C188.767 185.844 190.247 185.871 192.012 186.362C189.436 183.416 187.807 179.854 188.117 175.61C188.168 174.935 188.271 174.345 188.428 173.832L187.853 172.844L190.117 171.532C190.133 171.522 190.15 171.51 190.167 171.503H190.174C192.092 170.467 195.166 171.267 198.71 172.885L198.645 168.297L197.221 165.994L198.872 165.033C199.095 164.843 199.425 164.785 199.716 164.949L202.148 166.307C202.68 166.604 203.01 167.16 203.019 167.769L203.123 175.13C204.282 175.776 205.471 176.467 206.647 177.156L206.587 172.975L205.098 170.568L206.796 169.602C207.047 169.453 207.357 169.342 207.653 169.506L210.083 170.862C210.614 171.158 210.944 171.715 210.954 172.322L211.06 179.784C212.017 180.343 212.953 180.887 213.87 181.398V181.371L219.22 184.36C219.677 184.616 219.964 185.095 219.971 185.618L220.017 188.944C220.021 189.255 219.841 189.505 219.6 189.626L217.611 190.76L216.49 188.677L216.858 188.474C216.841 188.467 216.829 188.465 216.831 188.47C215.044 187.472 214.478 188.354 214.322 189.303L214.647 212.446C214.736 213.144 215.08 214.375 216.328 215.074C216.292 215.09 217.495 215.753 218.436 216.268C219.129 216.646 219.603 217.328 219.716 218.111L220.161 221.177C220.24 221.719 219.944 222.179 219.519 222.386L217.433 223.559L212.133 220.091L212.917 219.277C212.477 219.036 212.036 218.795 211.603 218.556L211.69 224.848C211.697 225.366 211.408 225.787 211.007 226.002L209.027 227.129L205.848 225.212L207.278 222.35L207.191 216.184C205.983 215.536 204.809 214.893 203.666 214.252L203.755 220.488C203.763 221.076 203.392 221.536 202.911 221.714L201.123 222.731L197.945 220.813L199.343 218.017L199.252 211.67C191.822 207.029 186.597 201.946 185.839 193.468C185.639 191.232 185.784 189.578 186.214 188.4L186.217 188.395ZM206.633 183.144C204.143 181.752 196.3 176.453 196.384 182.513C196.468 188.323 204.285 192.02 206.777 193.412L206.633 183.144ZM194.553 197.336C194.642 203.721 204.018 208.238 207.006 209.912L206.845 198.591C203.854 196.919 194.454 190.676 194.548 197.334H194.551L194.553 197.336Z" fill="white" stroke="#1C1C1C" stroke-width="0.44" stroke-miterlimit="10"/>
<path d="M186.153 176.739C186.569 170.929 191.053 171.409 196.743 174.012L196.64 166.736C196.633 166.163 197.246 165.794 197.747 166.073L200.179 167.432C200.711 167.728 201.04 168.285 201.05 168.894L201.153 176.255C202.313 176.903 203.501 177.592 204.678 178.281L204.579 171.291C204.572 170.717 205.185 170.349 205.686 170.628L208.116 171.984C208.647 172.281 208.977 172.837 208.987 173.444L209.093 180.906C210.05 181.465 210.986 182.009 211.903 182.52V182.493L217.253 185.48C217.71 185.735 217.997 186.215 218.004 186.738L218.05 190.064C218.057 190.644 217.429 191.015 216.926 190.726C215.99 190.189 214.828 189.529 214.862 189.589C213.074 188.59 212.509 189.474 212.352 190.423L212.677 213.568C212.766 214.266 213.11 215.497 214.357 216.196C214.32 216.21 215.523 216.875 216.464 217.388C217.157 217.766 217.631 218.448 217.744 219.231L218.189 222.297C218.326 223.246 217.318 223.942 216.481 223.475L212.783 221.408C211.715 220.811 210.661 220.245 209.629 219.674L209.716 225.965C209.73 226.953 208.674 227.589 207.808 227.112L206.557 226.423C205.801 226.009 205.33 225.219 205.318 224.359L205.219 217.299C204.011 216.653 202.837 216.008 201.695 215.367L201.784 221.603C201.798 222.591 200.742 223.227 199.876 222.752L198.62 222.061C197.867 221.647 197.393 220.859 197.381 219.997L197.277 212.785C189.848 208.143 184.623 203.061 183.865 194.583C183.254 187.754 185.85 186.311 190.048 187.487C187.466 184.538 185.828 180.971 186.141 176.72L186.145 176.732L186.153 176.739ZM192.584 198.458C192.673 204.844 202.048 209.36 205.036 211.034L204.875 199.713C201.885 198.041 192.487 191.798 192.581 198.456H192.584V198.458ZM194.414 183.635C194.499 189.445 202.315 193.142 204.808 194.534L204.663 184.269C202.173 182.876 194.33 177.577 194.414 183.638V183.635Z" fill="white" stroke="#1C1C1C" stroke-width="0.44" stroke-miterlimit="10"/>
<path d="M159.807 170.514C159.807 161.756 161.751 154.65 165.165 149.459L164.876 146.839L172.5 142.411C172.5 142.411 172.507 142.407 172.512 142.404H172.519V142.402C180.365 137.873 191.201 138.531 203.17 145.449C227.118 159.292 246.533 192.958 246.533 220.643C246.533 233.929 242.06 243.422 234.761 248.174L234.725 248.198C234.162 248.565 233.582 248.902 232.986 249.21L225.429 253.606L218.428 251.335C214.629 250.79 210.58 249.502 206.36 247.418L195.68 243.952L197.612 242.09C176.287 226.612 159.804 196.024 159.804 170.516L159.807 170.514Z" fill="#FF9500" stroke="#1C1C1C" stroke-width="0.44" stroke-miterlimit="10"/>
<path d="M194.839 150.268C170.891 136.426 151.476 147.648 151.476 175.333C151.476 203.019 170.888 236.685 194.839 250.528C218.787 264.37 238.202 253.148 238.202 225.463C238.202 197.777 218.789 164.111 194.839 150.268Z" fill="#FFE2C8" stroke="#1C1C1C" stroke-width="0.44" stroke-miterlimit="10"/>
<path d="M194.84 158.718C174.929 147.209 158.788 156.538 158.788 179.558C158.788 202.577 174.929 230.566 194.84 242.075C214.75 253.584 230.891 244.255 230.891 221.235C230.891 198.215 214.75 170.226 194.84 158.718Z" fill="white" stroke="#1C1C1C" stroke-width="0.44" stroke-miterlimit="10"/>
<path d="M196.192 158.644C177.027 147.313 161.492 156.497 161.492 179.158C161.492 201.819 177.029 229.375 196.192 240.705C215.357 252.036 230.891 242.851 230.891 220.19C230.891 197.529 215.354 169.974 196.192 158.644Z" fill="white" stroke="#1C1C1C" stroke-width="0.44" stroke-miterlimit="10"/>
<path d="M175.635 193.699L175.342 192.798L177.103 191.789H177.108C178.185 191.148 179.665 191.175 181.431 191.666C178.854 188.72 177.225 185.158 177.536 180.914C177.586 180.239 177.69 179.649 177.846 179.136L177.271 178.148L179.535 176.836C179.552 176.826 179.569 176.814 179.586 176.807H179.593C181.51 175.771 184.585 176.571 188.129 178.189L188.064 173.601L186.64 171.298L188.29 170.337C188.514 170.147 188.843 170.089 189.134 170.253L191.567 171.611C192.098 171.908 192.428 172.464 192.438 173.073L192.541 180.434C193.701 181.08 194.889 181.771 196.066 182.46L196.006 178.278L194.516 175.872L196.215 174.906C196.465 174.757 196.775 174.646 197.071 174.81L199.501 176.166C200.033 176.462 200.363 177.019 200.372 177.626L200.478 185.088C201.436 185.647 202.371 186.191 203.288 186.702V186.675L208.639 189.664C209.096 189.92 209.382 190.399 209.389 190.922L209.435 194.248C209.44 194.559 209.259 194.809 209.019 194.93L207.029 196.064L205.908 193.981L206.276 193.778C206.259 193.771 206.247 193.769 206.25 193.774C204.462 192.776 203.897 193.658 203.74 194.607L204.065 217.75C204.154 218.448 204.498 219.679 205.747 220.377C205.711 220.394 206.914 221.057 207.854 221.572C208.547 221.95 209.021 222.632 209.134 223.415L209.579 226.481C209.659 227.023 209.363 227.483 208.937 227.69L206.851 228.863L201.551 225.395L202.335 224.581C201.895 224.34 201.455 224.099 201.022 223.86L201.108 230.152C201.116 230.67 200.827 231.091 200.425 231.306L198.445 232.433L195.267 230.516L196.696 227.654L196.609 221.488C195.402 220.84 194.228 220.197 193.085 219.556L193.174 225.792C193.181 226.38 192.811 226.84 192.329 227.018L190.542 228.035L187.364 226.117L188.762 223.321L188.67 216.974C181.241 212.332 176.015 207.25 175.257 198.772C175.058 196.536 175.202 194.882 175.633 193.704L175.635 193.699ZM196.049 188.448C193.559 187.056 185.716 181.757 185.8 187.817C185.884 193.627 193.701 197.324 196.193 198.716L196.049 188.448ZM183.971 202.64C184.06 209.025 193.436 213.542 196.424 215.216L196.263 203.895C193.272 202.223 183.873 195.98 183.967 202.638H183.969L183.971 202.64Z" fill="white" stroke="#1C1C1C" stroke-width="0.44" stroke-miterlimit="10"/>
<path d="M175.566 182.043C175.982 176.233 180.466 176.712 186.156 179.316L186.053 172.04C186.046 171.466 186.659 171.098 187.16 171.377L189.592 172.736C190.124 173.032 190.453 173.588 190.463 174.198L190.566 181.559C191.726 182.207 192.914 182.896 194.091 183.584L193.992 176.594C193.985 176.021 194.598 175.653 195.099 175.932L197.529 177.288C198.061 177.584 198.39 178.141 198.4 178.748L198.506 186.21C199.463 186.769 200.399 187.313 201.316 187.824V187.797L206.666 190.784C207.123 191.039 207.41 191.519 207.417 192.041L207.463 195.368C207.47 195.948 206.842 196.319 206.339 196.03C205.403 195.493 204.241 194.833 204.275 194.893C202.487 193.894 201.922 194.778 201.766 195.727L202.09 218.872C202.179 219.57 202.523 220.801 203.77 221.5C203.734 221.514 204.936 222.179 205.877 222.692C206.57 223.07 207.044 223.752 207.157 224.534L207.602 227.601C207.739 228.55 206.731 229.246 205.894 228.779L202.196 226.712C201.128 226.115 200.074 225.549 199.042 224.978L199.129 231.269C199.143 232.257 198.087 232.893 197.221 232.416L195.97 231.727C195.214 231.312 194.743 230.522 194.731 229.663L194.632 222.603C193.424 221.957 192.25 221.312 191.108 220.671L191.197 226.907C191.211 227.895 190.155 228.53 189.289 228.056L188.033 227.365C187.28 226.95 186.806 226.163 186.794 225.3L186.69 218.089C179.261 213.447 174.036 208.365 173.278 199.886C172.667 193.058 175.263 191.615 179.461 192.79C176.879 189.842 175.241 186.275 175.554 182.024L175.559 182.036L175.566 182.043ZM181.997 203.762C182.086 210.147 191.461 214.664 194.449 216.338L194.288 205.017C191.298 203.345 181.9 197.102 181.994 203.76H181.997V203.762ZM183.825 188.939C183.909 194.749 191.726 198.446 194.218 199.838L194.074 189.572C191.584 188.18 183.741 182.881 183.825 188.941V188.939Z" fill="white" stroke="#1C1C1C" stroke-width="0.44" stroke-miterlimit="10"/>
<path d="M149.217 175.874C149.217 167.116 151.161 160.011 154.575 154.82L154.286 152.199L161.91 147.772C161.91 147.772 161.917 147.767 161.922 147.765H161.929V147.762C169.775 143.234 180.611 143.892 192.58 150.809C216.528 164.652 235.943 198.318 235.943 226.004C235.943 239.29 231.471 248.783 224.171 253.535L224.135 253.559C223.572 253.925 222.992 254.262 222.396 254.571L214.839 258.967L207.838 256.695C204.039 256.151 199.99 254.862 195.77 252.779L185.091 249.313L187.022 247.451C165.697 231.972 149.214 201.385 149.214 175.877L149.217 175.874Z" fill="#FF9500" stroke="#1C1C1C" stroke-width="0.44" stroke-miterlimit="10"/>
<path d="M184.244 155.629C160.296 141.786 140.881 153.008 140.881 180.694C140.881 208.379 160.293 242.045 184.244 255.888C208.192 269.731 227.607 258.509 227.607 230.823C227.607 203.138 208.194 169.472 184.244 155.629Z" fill="#FFE2C8" stroke="#1C1C1C" stroke-width="0.44" stroke-miterlimit="10"/>
<path d="M184.239 164.078C164.328 152.569 148.188 161.898 148.188 184.918C148.188 207.938 164.328 235.927 184.239 247.435C204.15 258.944 220.291 249.615 220.291 226.595C220.291 203.576 204.15 175.587 184.239 164.078Z" fill="white" stroke="#1C1C1C" stroke-width="0.44" stroke-miterlimit="10"/>
<path d="M185.591 164.001C166.426 152.67 150.892 161.855 150.892 184.516C150.892 207.176 166.429 234.732 185.591 246.062C204.756 257.393 220.291 248.208 220.291 225.548C220.291 202.887 204.754 175.331 185.591 164.001Z" fill="white" stroke="#1C1C1C" stroke-width="0.44" stroke-miterlimit="10"/>
<path d="M165.037 199.06L164.744 198.16L166.505 197.15H166.51C167.587 196.51 169.067 196.536 170.833 197.028C168.256 194.082 166.628 190.519 166.938 186.275C166.988 185.601 167.092 185.011 167.248 184.498L166.673 183.51L168.937 182.197C168.954 182.188 168.971 182.176 168.988 182.168H168.995C170.912 181.133 173.987 181.932 177.531 183.551L177.466 178.962L176.042 176.66L177.692 175.699C177.916 175.508 178.245 175.451 178.537 175.614L180.969 176.973C181.501 177.269 181.83 177.825 181.84 178.435L181.943 185.796C183.103 186.441 184.291 187.133 185.468 187.822L185.408 183.64L183.918 181.234L185.617 180.268C185.867 180.119 186.178 180.008 186.473 180.172L188.903 181.528C189.435 181.824 189.765 182.38 189.774 182.987L189.88 190.449C190.838 191.008 191.774 191.553 192.69 192.063V192.037L198.041 195.026C198.498 195.281 198.784 195.761 198.791 196.283L198.837 199.61C198.842 199.92 198.662 200.171 198.421 200.291L196.431 201.426L195.31 199.342L195.678 199.14C195.661 199.133 195.649 199.13 195.652 199.135C193.864 198.138 193.299 199.019 193.142 199.969L193.467 223.111C193.556 223.81 193.9 225.041 195.149 225.739C195.113 225.756 196.316 226.418 197.256 226.934C197.949 227.312 198.423 227.994 198.536 228.776L198.981 231.843C199.061 232.385 198.765 232.845 198.339 233.052L196.253 234.225L190.953 230.756L191.737 229.942C191.297 229.701 190.857 229.46 190.424 229.222L190.51 235.513C190.518 236.031 190.229 236.453 189.827 236.667L187.847 237.794L184.669 235.877L186.098 233.016L186.012 226.849C184.804 226.202 183.63 225.558 182.487 224.918L182.576 231.154C182.583 231.741 182.213 232.202 181.731 232.38L179.944 233.396L176.766 231.479L178.164 228.682L178.072 222.336C170.643 217.694 165.417 212.612 164.66 204.133C164.46 201.898 164.604 200.243 165.035 199.065L165.037 199.06ZM185.453 193.807C182.963 192.415 175.12 187.116 175.204 193.176C175.289 198.986 183.105 202.683 185.598 204.075L185.453 193.807ZM173.374 207.999C173.463 214.384 182.838 218.901 185.826 220.575L185.665 209.254C182.675 207.582 173.275 201.339 173.369 207.997H173.371L173.374 207.999Z" fill="white" stroke="#1C1C1C" stroke-width="0.44" stroke-miterlimit="10"/>
<path d="M164.968 187.403C165.384 181.593 169.869 182.072 175.558 184.676L175.455 177.399C175.448 176.826 176.061 176.458 176.562 176.737L178.994 178.096C179.526 178.392 179.855 178.948 179.865 179.558L179.968 186.919C181.128 187.567 182.316 188.255 183.493 188.944L183.394 181.954C183.387 181.381 184.001 181.013 184.501 181.292L186.931 182.648C187.463 182.944 187.792 183.501 187.802 184.108L187.908 191.57C188.865 192.129 189.801 192.673 190.718 193.184V193.157L196.068 196.144C196.525 196.399 196.812 196.879 196.819 197.401L196.865 200.728C196.872 201.308 196.244 201.679 195.741 201.39C194.805 200.853 193.643 200.193 193.677 200.253C191.889 199.253 191.324 200.137 191.168 201.086L191.492 224.232C191.581 224.93 191.925 226.161 193.172 226.859C193.136 226.874 194.339 227.539 195.279 228.052C195.972 228.43 196.446 229.112 196.559 229.894L197.004 232.961C197.141 233.91 196.133 234.606 195.296 234.138L191.598 232.072C190.53 231.474 189.476 230.908 188.444 230.338L188.531 236.629C188.545 237.617 187.489 238.253 186.623 237.776L185.372 237.087C184.616 236.672 184.145 235.882 184.133 235.022L184.034 227.963C182.827 227.317 181.652 226.672 180.51 226.031L180.599 232.267C180.613 233.254 179.557 233.89 178.691 233.416L177.435 232.725C176.682 232.31 176.208 231.523 176.196 230.66L176.093 223.449C168.663 218.807 163.438 213.725 162.68 205.246C162.069 198.418 164.665 196.975 168.863 198.15C166.281 195.202 164.643 191.635 164.956 187.383L164.961 187.396L164.968 187.403ZM171.399 209.124C171.488 215.51 180.863 220.026 183.851 221.7L183.69 210.379C180.7 208.708 171.302 202.464 171.396 209.122H171.399V209.124ZM173.23 194.299C173.314 200.109 181.13 203.806 183.623 205.198L183.479 194.932C180.988 193.54 173.145 188.241 173.23 194.301V194.299Z" fill="white" stroke="#1C1C1C" stroke-width="0.44" stroke-miterlimit="10"/>
<path d="M138.854 182.206C138.854 173.448 140.797 166.343 144.211 161.152L143.923 158.531L151.547 154.104C151.547 154.104 151.554 154.099 151.559 154.097H151.566V154.095C159.412 149.566 170.248 150.224 182.217 157.142C206.165 170.984 225.58 204.65 225.58 232.336C225.58 245.622 221.107 255.115 213.808 259.867L213.772 259.891C213.209 260.257 212.629 260.595 212.032 260.903L204.476 265.299L197.475 263.027C193.676 262.483 189.627 261.194 185.407 259.111L174.727 255.645L176.659 253.783C155.334 238.305 138.851 207.717 138.851 182.209L138.854 182.206Z" fill="#FF9500" stroke="#1C1C1C" stroke-width="0.44" stroke-miterlimit="10"/>
<path d="M173.881 161.961C149.933 148.118 130.517 159.34 130.517 187.026C130.517 214.711 149.93 248.377 173.881 262.22C197.828 276.063 217.244 264.841 217.244 237.155C217.244 209.47 197.831 175.804 173.881 161.961Z" fill="#FFE2C8" stroke="#1C1C1C" stroke-width="0.44" stroke-miterlimit="10"/>
<path d="M173.881 170.41C153.971 158.902 137.83 168.23 137.83 191.25C137.83 214.27 153.971 242.259 173.881 253.768C193.792 265.276 209.933 255.948 209.933 232.928C209.933 209.908 193.792 181.919 173.881 170.41Z" fill="white" stroke="#1C1C1C" stroke-width="0.44" stroke-miterlimit="10"/>
<path d="M175.233 170.333C156.068 159.003 140.534 168.187 140.534 190.848C140.534 213.509 156.071 241.064 175.233 252.395C194.399 263.725 209.933 254.541 209.933 231.88C209.933 209.219 194.396 181.663 175.233 170.333Z" fill="white" stroke="#1C1C1C" stroke-width="0.44" stroke-miterlimit="10"/>
</g>
<path opacity="0.54" d="M248.081 208.85L194.133 177.192L194.077 198.509L248.108 229.347L248.081 208.85Z" fill="white"/>
<path opacity="0.54" d="M247.962 171.052L214.372 151.342L205.653 156.361L247.982 180.566L247.962 171.052Z" fill="white"/>
<path d="M200.851 159.127L245.172 133.508C248.607 131.523 252.899 134.004 252.899 137.974V234.834C252.899 240.62 249.815 245.967 244.811 248.86L204.373 272.234C199.804 274.876 194.09 271.574 194.09 266.291V170.847C194.09 166.011 196.667 161.543 200.851 159.127Z" stroke="#1C1C1C" stroke-width="0.44" stroke-miterlimit="10"/>
<path d="M185.752 179.523V277.241C185.752 280.801 183.854 284.091 180.774 285.871L178.737 287.049C174.25 289.643 168.639 286.401 168.639 281.212V183.494C168.639 179.934 170.538 176.644 173.617 174.864L175.655 173.686C180.142 171.092 185.752 174.334 185.752 179.523Z" fill="#1C1C1C"/>
<mask id="mask1_18087_5491" style="mask-type:luminance" maskUnits="userSpaceOnUse" x="168" y="167" width="65" height="137">
<path d="M174.009 175.029L186.78 167.864L232.253 202.435V303.653L174.317 287.773C174.072 287.72 173.831 287.652 173.593 287.575L173.434 287.546L173.559 287.563C170.973 286.691 168.955 284.283 168.955 281.168V183.45C168.955 179.89 170.93 176.812 174.012 175.029H174.009Z" fill="white"/>
</mask>
<g mask="url(#mask1_18087_5491)">
<path d="M138.01 202.894C138.01 194.136 139.954 187.031 143.368 181.84L143.079 179.219L150.704 174.792C150.704 174.792 150.711 174.787 150.716 174.785H150.723V174.782C158.568 170.254 169.404 170.912 181.373 177.829C205.321 191.672 224.737 225.338 224.737 253.024C224.737 266.31 220.264 275.803 212.965 280.555L212.929 280.579C212.366 280.945 211.786 281.282 211.189 281.591L203.632 285.987L196.631 283.715C192.833 283.171 188.783 281.882 184.564 279.799L173.884 276.332L175.816 274.471C154.49 258.992 138.008 228.404 138.008 202.897L138.01 202.894Z" fill="#FF9500" stroke="#1C1C1C" stroke-width="0.44" stroke-miterlimit="10"/>
<path d="M173.037 182.649C149.089 168.806 129.674 180.028 129.674 207.713C129.674 235.399 149.087 269.065 173.037 282.908C196.985 296.75 216.4 285.528 216.4 257.843C216.4 230.157 196.988 196.491 173.037 182.649Z" fill="#FFE2C8" stroke="#1C1C1C" stroke-width="0.44" stroke-miterlimit="10"/>
<path d="M173.038 191.098C153.127 179.589 136.986 188.918 136.986 211.938C136.986 234.957 153.127 262.946 173.038 274.455C192.949 285.964 209.09 276.635 209.09 253.615C209.09 230.595 192.949 202.606 173.038 191.098Z" fill="#FF9500" stroke="#1C1C1C" stroke-width="0.44" stroke-miterlimit="10"/>
<path d="M174.389 191.01C155.224 179.711 139.69 188.871 139.69 211.469C139.69 234.068 155.227 261.551 174.389 272.85C193.554 284.149 209.2 277.501 209.089 252.391C209.089 229.79 193.552 202.309 174.389 191.01Z" fill="#FFE2C8" stroke="#1C1C1C" stroke-width="0.44" stroke-miterlimit="10"/>
<path d="M153.831 226.079L153.537 225.178L155.299 224.169H155.303C156.381 223.528 157.861 223.554 159.627 224.046C157.05 221.1 155.421 217.537 155.732 213.293C155.782 212.619 155.886 212.029 156.042 211.516L155.467 210.528L157.731 209.215C157.748 209.206 157.765 209.194 157.781 209.187H157.789C159.706 208.151 162.781 208.95 166.325 210.569L166.26 205.981L164.835 203.678L166.486 202.717C166.709 202.526 167.039 202.469 167.33 202.632L169.763 203.991C170.294 204.287 170.624 204.844 170.633 205.453L170.737 212.814C171.897 213.46 173.085 214.151 174.261 214.84L174.201 210.658L172.712 208.252L174.411 207.286C174.661 207.137 174.971 207.026 175.267 207.19L177.697 208.546C178.229 208.842 178.558 209.398 178.568 210.005L178.674 217.468C179.631 218.026 180.567 218.571 181.484 219.081V219.055L186.834 222.044C187.292 222.299 187.578 222.779 187.585 223.301L187.631 226.628C187.636 226.939 187.455 227.189 187.215 227.309L185.225 228.444L184.104 226.36L184.472 226.158C184.455 226.151 184.443 226.148 184.445 226.153C182.658 225.156 182.093 226.038 181.936 226.987L182.261 250.129C182.35 250.828 182.694 252.059 183.943 252.757C183.907 252.774 185.109 253.436 186.05 253.952C186.743 254.33 187.217 255.012 187.33 255.795L187.775 258.861C187.855 259.403 187.559 259.863 187.133 260.07L185.047 261.243L179.747 257.774L180.531 256.96C180.091 256.72 179.651 256.479 179.218 256.24L179.304 262.532C179.311 263.05 179.023 263.471 178.621 263.685L176.641 264.813L173.463 262.895L174.892 260.034L174.805 253.868C173.597 253.22 172.423 252.577 171.281 251.936L171.37 258.172C171.377 258.76 171.006 259.22 170.525 259.398L168.738 260.414L165.56 258.497L166.957 255.701L166.866 249.354C159.437 244.712 154.211 239.63 153.453 231.151C153.254 228.916 153.398 227.261 153.829 226.083L153.831 226.079ZM174.245 220.828C171.755 219.435 163.911 214.136 163.996 220.197C164.08 226.006 171.897 229.704 174.389 231.096L174.245 220.828ZM162.167 235.02C162.256 241.405 171.632 245.921 174.62 247.595L174.459 236.275C171.468 234.603 162.069 228.36 162.162 235.017H162.165L162.167 235.02Z" fill="#FF9500" stroke="#1C1C1C" stroke-width="0.44" stroke-miterlimit="10"/>
<path d="M153.762 214.423C154.178 208.613 158.662 209.092 164.352 211.696L164.249 204.419C164.241 203.846 164.855 203.478 165.355 203.757L167.788 205.115C168.319 205.412 168.649 205.968 168.659 206.577L168.762 213.938C169.922 214.586 171.11 215.275 172.287 215.964L172.188 208.974C172.181 208.401 172.794 208.032 173.295 208.312L175.725 209.668C176.256 209.964 176.586 210.521 176.596 211.128L176.701 218.59C177.659 219.148 178.595 219.693 179.511 220.203V220.177L184.862 223.164C185.319 223.419 185.605 223.898 185.613 224.421L185.658 227.747C185.666 228.328 185.038 228.699 184.535 228.41C183.599 227.873 182.437 227.213 182.471 227.273C180.683 226.273 180.118 227.157 179.961 228.106L180.286 251.251C180.375 251.95 180.719 253.181 181.965 253.879C181.929 253.894 183.132 254.558 184.073 255.072C184.766 255.45 185.24 256.131 185.353 256.914L185.798 259.98C185.935 260.929 184.927 261.626 184.09 261.158L180.392 259.092C179.324 258.494 178.27 257.928 177.238 257.357L177.325 263.649C177.339 264.636 176.283 265.272 175.417 264.795L174.166 264.107C173.41 263.692 172.939 262.902 172.927 262.042L172.828 254.982C171.62 254.337 170.446 253.691 169.303 253.051L169.392 259.287C169.407 260.274 168.351 260.91 167.485 260.436L166.229 259.744C165.476 259.33 165.002 258.542 164.99 257.68L164.886 250.469C157.457 245.827 152.231 240.745 151.474 232.266C150.863 225.437 153.458 223.995 157.657 225.17C155.075 222.222 153.437 218.655 153.75 214.403L153.754 214.415L153.762 214.423ZM160.195 236.142C160.284 242.527 169.659 247.043 172.648 248.717L172.486 237.397C169.496 235.725 160.099 229.482 160.192 236.139H160.195V236.142ZM162.023 221.319C162.107 227.128 169.924 230.826 172.417 232.218L172.272 221.952C169.782 220.56 161.939 215.261 162.023 221.321V221.319Z" fill="#FF9500" stroke="#1C1C1C" stroke-width="0.44" stroke-miterlimit="10"/>
</g>
<path d="M305.696 203.107V171.404C305.696 169.416 304.638 167.579 302.92 166.581L283.8 155.504C282.429 154.709 280.716 155.699 280.716 157.284V188.999C280.716 190.989 281.775 192.826 283.495 193.821L302.614 204.884C303.986 205.677 305.698 204.687 305.698 203.102L305.696 203.107Z" fill="#FF9500" stroke="#1C1C1C" stroke-width="0.44" stroke-linejoin="round"/>
</g>
<defs>
<clipPath id="clip0_18087_5491">
<rect width="360" height="360" rx="5" fill="white"/>
</clipPath>
</defs>
</svg>
