<svg width="360" height="288" viewBox="0 0 360 288" fill="none" xmlns="http://www.w3.org/2000/svg">
<ellipse cx="186.662" cy="257.539" rx="126.431" ry="23.9608" fill="#1C1C1C"/>
<path d="M301.283 210.303L297.031 207.492C298.622 192.673 294.718 175.376 284.6 156.779C253.572 99.7868 175.841 52.2343 110.978 50.5863C89.8198 50.047 72.6472 54.4626 60.1854 62.6279L55.7846 60.0573L44.357 78.6835L44.3867 78.7007C33.2997 96.8401 34.2048 122.299 49.7148 150.794C80.7423 207.786 158.474 255.338 223.337 256.986C255.77 257.816 278.841 247.012 289.924 228.88L289.961 228.901L301.283 210.303Z" fill="#078C67" stroke="#231F20" stroke-linejoin="round"/>
<path d="M295.959 138.139C327 195.141 299.579 240.01 234.693 238.35C169.819 236.687 92.0597 189.128 61.0186 132.127C29.9776 75.1247 57.4062 30.2603 122.284 31.9157C187.159 33.5785 264.918 81.1372 295.959 138.139Z" fill="#25E5B0" stroke="#231F20" stroke-linejoin="round"/>
<path d="M283.861 137.013C312.207 186.947 288.693 225.428 231.33 222.943C173.967 220.457 104.493 177.965 76.1396 128.027C47.7941 78.0936 71.3078 39.6125 128.671 42.0979C186.034 44.5832 255.508 87.0758 283.861 137.013Z" fill="#078C67" stroke="#231F20" stroke-linejoin="round"/>
<path d="M281.434 141.115C310.351 190.127 287.751 227.095 230.966 223.676C174.177 220.264 104.697 177.763 75.7802 128.751C46.863 79.7381 69.4633 42.7706 126.248 46.1897C183.037 49.6013 252.517 92.1025 281.434 141.115Z" fill="#0BBB8A" stroke="#231F20" stroke-linejoin="round"/>
<path d="M219.466 178.484L209.622 167.961L209.608 167.953C220.303 167.522 228.182 165.848 230.729 160.932L233.242 156.816L233.214 155.981L231.531 155.819C231.332 153.957 230.693 151.814 229.567 149.363C224.315 137.906 215.341 132.706 204.452 130.523C206.041 129.584 207.197 128.387 207.768 126.861L209.833 123.695L207.982 122.563C207.562 120.546 206.494 118.201 204.654 115.456C197.481 104.755 185.04 101.047 171.318 99.8755L163.793 86.4877C163.397 85.7859 162.759 85.2813 162.014 85.0421L162.238 84.5437L156.597 81.0957L153.966 85.3995C153.683 85.8272 153.624 86.4026 153.911 86.9143L160.913 99.3631C158.234 99.3353 155.523 99.3444 152.827 99.3615L146.183 87.5381L146.847 85.1739L138.04 80.7895L135.526 84.9062C135.503 84.9471 135.479 84.988 135.46 85.0222C135.23 85.4355 135.199 85.9632 135.47 86.4387L142.823 99.5265C140.639 99.5392 138.49 99.5541 136.383 99.5291L136.357 99.4781L134.377 99.4537L125.975 95.8035L123.449 99.9406C123.449 99.9406 123.43 99.9748 123.418 99.9952C123.201 100.371 123.169 100.852 123.412 101.284L126.788 107.282C127.363 108.305 128.445 108.939 129.629 108.94C131.833 108.939 135.16 108.949 135.124 109.028C139.247 109.08 141.783 111.217 143.211 113.051L166.06 153.673C166.411 154.531 166.648 155.777 165.538 156.328L159.954 153.568L157.684 157.279C157.328 157.738 157.199 158.373 157.431 158.98L159.763 165.194C160.239 166.451 161.433 167.286 162.771 167.303L173.807 167.434C176.274 167.466 178.722 167.533 181.122 167.572L188.654 180.964C189.216 181.962 190.256 182.59 191.395 182.62L197.24 182.782C197.797 182.795 198.248 182.519 198.509 182.114C198.521 182.094 198.536 182.066 198.548 182.046L201.022 177.997L192.507 167.886C194.926 167.955 197.28 167.995 199.561 168.02L207.104 181.454C207.667 182.452 208.714 183.084 209.853 183.114L215.705 183.263C216.287 183.281 216.761 182.963 217.013 182.527L219.487 178.478L219.466 178.484ZM159.034 109.969C164.785 110.041 181.946 108.631 187.925 119.271C193.652 129.464 174.916 128.063 169.166 127.991L159.034 109.969ZM185.454 156.946L174.284 137.078C181.192 137.163 201.86 135.659 208.434 147.351C214.743 158.554 192.359 157.021 185.454 156.946Z" fill="#0DA67B" stroke="#231F20" stroke-linejoin="round"/>
<path d="M207.18 111.354C200.007 100.653 187.57 96.9387 173.848 95.7667L166.323 82.3789C165.787 81.4144 164.77 80.8093 163.666 80.7813L157.755 80.6253C156.622 80.5992 155.886 81.8116 156.441 82.8055L163.443 95.2543C160.763 95.2264 158.053 95.2356 155.357 95.2527L147.854 81.9051C147.318 80.9406 146.301 80.3354 145.197 80.3075L139.292 80.1554C138.16 80.1293 137.423 81.3417 137.979 82.3356L145.331 95.4234C143.147 95.4362 140.998 95.451 138.891 95.426L138.866 95.3751L127.075 95.2272C126.062 95.2154 125.425 96.3032 125.92 97.1805L129.297 103.178C129.872 104.202 130.954 104.836 132.137 104.837C134.342 104.836 137.669 104.846 137.632 104.925C141.756 104.977 144.292 107.114 145.719 108.948L168.568 149.569C169.033 150.72 169.302 152.541 166.421 152.515C166.531 152.578 163.817 152.53 161.64 152.484C160.38 152.457 159.493 153.71 159.935 154.884L162.268 161.098C162.737 162.351 163.937 163.19 165.275 163.207L176.311 163.338C178.778 163.37 181.226 163.437 183.626 163.476L191.158 176.868C191.72 177.866 192.761 178.494 193.9 178.524L199.744 178.686C200.883 178.716 201.613 177.5 201.057 176.506L193.893 163.754C196.721 163.841 199.431 163.895 202.076 163.921L209.62 177.355C210.182 178.353 211.229 178.985 212.368 179.015L218.22 179.164C219.353 179.19 220.089 177.978 219.533 176.984L212.149 163.841C228.796 163.181 238.635 159.5 232.107 145.269C226.854 133.812 217.88 128.612 206.992 126.429C211.403 123.836 212.457 119.186 207.191 111.351L207.18 111.354ZM210.953 143.245C217.259 154.455 194.879 152.915 187.973 152.84L176.803 132.972C183.711 133.057 204.379 131.553 210.953 143.245ZM190.448 115.158C196.175 125.351 177.44 123.95 171.689 123.878L161.557 105.856C167.308 105.928 184.469 104.519 190.448 115.158Z" fill="white" stroke="#231F20" stroke-linejoin="round"/>
</svg>
