<svg width="360" height="288" viewBox="0 0 360 288" fill="none" xmlns="http://www.w3.org/2000/svg">
<path d="M257.874 73.7943L258.489 73.8251" stroke="#3A2C16" stroke-width="2"/>
<path d="M258.489 73.8248C258.255 75.3884 258.023 76.954 257.794 78.5217C257.051 83.6556 255.816 88.3997 254.088 92.7539C254.077 92.7808 254.075 92.8103 254.081 92.8386C254.088 92.8669 254.103 92.8924 254.124 92.9119C254.146 92.9314 254.172 92.9438 254.201 92.9475C254.23 92.9511 254.259 92.9459 254.285 92.9324L274.039 82.88C274.108 82.8431 274.174 82.802 274.236 82.7569C276.009 81.4087 278.022 80.7193 279.831 79.7344C288.761 74.8754 293.292 72.409 293.423 72.3351C297.535 69.9713 302.657 67.6259 306.074 65.496C309.01 63.6677 312.223 62.492 314.975 60.9038C315.136 60.8152 315.319 60.7726 315.504 60.7807C315.845 60.8012 316.237 60.715 316.68 60.5221C319.167 59.4223 321.703 57.988 324.289 56.2192" stroke="black" stroke-width="2"/>
<path d="M324.289 56.2197C324.383 55.9406 325.017 55.9242 326.191 56.1704" stroke="#3A2C16" stroke-width="2"/>
<path d="M326.19 56.1705C321.856 58.9899 317.535 61.7887 313.226 64.567C296.667 75.233 285.274 82.5502 279.049 86.5186C276.519 88.1314 274.401 89.1841 272.425 90.6491C267.599 94.2257 262.477 97.0512 255.583 101.662C253.699 102.922 251.66 104.067 249.464 105.097" stroke="black" stroke-width="2"/>
<path d="M249.465 105.096C249.259 104.563 249.664 104.068 250.677 103.613C252.873 102.624 254.498 101.742 255.553 100.966C259.242 98.2451 263.358 95.5488 267.901 92.8772C270.536 91.3259 272.364 89.5654 275.177 88.0264C279.493 85.6626 284.393 82.1415 289.964 78.7435C292.824 76.9994 296.138 74.8181 299.905 72.1999C305.056 68.6131 309.48 65.804 313.177 63.7726C313.242 63.7372 313.298 63.6871 313.34 63.6261C313.383 63.5651 313.411 63.4946 313.422 63.4198C313.434 63.345 313.429 63.2677 313.408 63.1935C313.387 63.1193 313.35 63.0501 313.3 62.9908C313.107 62.7569 312.902 62.7138 312.685 62.8615C312.479 63.0011 312.373 63.0729 312.365 63.077C308.449 64.9791 304.984 67.2752 301.598 68.9435C301.056 69.2102 298.198 70.7369 293.023 73.5234C290.641 74.8038 287.655 76.0473 285.088 77.6909C283.48 78.7209 281.522 79.8105 279.216 80.9596C269.678 85.716 261.983 89.7193 256.131 92.9695C255.411 93.3635 253.903 93.5543 253.552 94.3731C252.493 96.8313 251.461 98.8319 250.456 100.375C250.435 100.408 250.074 101.12 249.372 102.511C249.065 103.123 248.623 103.793 248.049 104.524C247.61 105.078 247.532 105.638 247.815 106.205" stroke="black" stroke-width="2"/>
<path d="M247.814 106.205C246.554 107.304 245.383 108.519 244.299 109.849C242.346 112.229 241.264 113.526 241.055 113.739C237.755 117.072 234.054 119.875 229.95 122.148C228.772 122.801 225.393 124.543 219.811 127.374C216.192 129.209 212.424 130.834 208.509 132.25C208.297 132.323 208.094 132.423 207.906 132.545L176.869 152.724" stroke="#AC987B" stroke-width="2"/>
<path d="M176.87 152.724C176.919 152.539 176.898 152.391 176.808 152.28C176.751 152.207 176.65 152.18 176.506 152.2" stroke="#3A2C16" stroke-width="2"/>
<path d="M176.506 152.201C183.954 147.35 191.329 142.302 198.9 137.655C201.786 135.882 203.803 134.538 204.952 133.623C205.37 133.286 205.696 132.941 205.93 132.588C205.94 132.574 205.944 132.556 205.944 132.539C205.944 132.522 205.939 132.505 205.93 132.491C205.92 132.477 205.907 132.466 205.892 132.46C205.877 132.455 205.86 132.454 205.844 132.459C197.994 134.248 190.124 134.097 182.237 132.004C181.644 131.845 181.014 131.899 180.458 132.157L147.044 147.559" stroke="#8E7B60" stroke-width="2"/>
<path d="M147.044 147.559C147.032 147.35 147.001 147.233 146.952 147.208C146.833 147.143 146.671 147.106 146.466 147.098" stroke="#3A2C16" stroke-width="2"/>
<path d="M146.465 147.098L179.842 131.363C179.906 131.332 179.958 131.28 179.991 131.217C180.024 131.153 180.035 131.081 180.023 131.01C180.011 130.94 179.977 130.875 179.926 130.826C179.874 130.776 179.808 130.744 179.738 130.735C177.201 130.434 175.502 130.015 173.219 128.821C169.482 126.87 165.967 125.337 162.218 122.838C155.004 118.028 148.692 112.26 143.283 105.534" stroke="#AC987B" stroke-width="2"/>
<path d="M143.283 105.533C142.353 104.382 141.153 105.318 139.922 105.644C101.325 115.731 62.8388 126.008 24.4636 136.472C24.4348 136.481 24.409 136.497 24.3891 136.519C24.3691 136.542 24.3558 136.569 24.3507 136.599C24.3456 136.628 24.3488 136.658 24.3601 136.686C24.3713 136.714 24.3901 136.738 24.4143 136.756C25.7809 137.728 27.4101 138.676 29.302 139.6C43.9036 146.71 69.7702 160.96 89.6104 170.797C89.7376 170.859 89.8499 170.948 89.9392 171.059C90.0286 171.17 90.0928 171.299 90.1275 171.437L90.4229 172.638C90.4368 172.692 90.4623 172.742 90.4979 172.786C90.5334 172.829 90.578 172.864 90.6285 172.888C90.679 172.912 90.7342 172.925 90.7902 172.925C90.8461 172.925 90.9015 172.914 90.9523 172.89L146.465 147.097" stroke="black" stroke-width="3"/>
<path d="M147.044 147.56L91.1922 173.42C91.1166 173.457 91.054 173.515 91.0132 173.588C90.9724 173.661 90.9554 173.744 90.9645 173.826C92.0356 184.8 92.6635 191.45 92.8482 193.777C94.2332 211.407 95.0704 219.25 95.6367 227.997C95.9035 232.109 96.3303 235.614 96.9171 238.511C96.9268 238.557 96.9474 238.6 96.9771 238.635C97.0067 238.671 97.0446 238.7 97.0875 238.718C97.1304 238.736 97.1771 238.743 97.2235 238.74C97.2699 238.736 97.3148 238.721 97.3542 238.696C98.2078 238.146 98.9691 237.73 99.638 237.446C112.791 231.869 123.892 227.228 132.941 223.522C134.252 222.987 135.656 222.574 136.819 222.014C140.504 220.249 144.077 218.77 147.536 217.576C147.572 217.563 147.604 217.542 147.628 217.513C147.653 217.484 147.669 217.45 147.675 217.412C147.682 217.375 147.678 217.337 147.664 217.302C147.651 217.266 147.628 217.236 147.598 217.212C146.744 216.543 146.051 216.051 145.517 215.735C143.088 214.286 140.09 212.403 136.524 210.084C135.2 209.228 133.772 208.582 132.313 207.696C125.25 203.419 119.148 199.664 114.006 196.43C113.994 196.423 113.98 196.418 113.966 196.416C113.953 196.415 113.938 196.416 113.925 196.42C113.912 196.424 113.899 196.431 113.889 196.44C113.878 196.449 113.87 196.461 113.864 196.474L97.4219 237.293C97.4112 237.321 97.3942 237.347 97.3722 237.368C97.3502 237.389 97.3237 237.405 97.2948 237.414C97.2658 237.424 97.2351 237.427 97.2049 237.423C97.1747 237.419 97.1458 237.408 97.1203 237.391L96.9787 237.299C96.9457 237.276 96.921 237.244 96.9088 237.206C96.8965 237.168 96.8973 237.127 96.911 237.089L113.181 196.892C113.201 196.835 113.218 196.775 113.23 196.714L113.599 194.097C113.626 193.902 113.695 193.715 113.802 193.55C113.908 193.384 114.049 193.243 114.215 193.137C115.52 192.306 116.449 190.97 117.945 190.121C121.86 187.909 126.309 185.091 131.291 181.669C136.136 178.339 140.851 175.47 145.917 172.109C156.058 165.387 166.254 158.751 176.505 152.201" stroke="#6C6661" stroke-width="2"/>
<path d="M176.869 152.724C160.24 163.287 143.747 174.062 127.389 185.048C124.011 187.317 120.458 189.46 116.727 191.475C116.638 191.523 116.562 191.594 116.509 191.681C116.456 191.768 116.427 191.867 116.424 191.969C116.422 192.071 116.446 192.172 116.495 192.261C116.544 192.35 116.615 192.425 116.702 192.478C125.275 197.755 142.633 208.284 168.774 224.063C178.045 229.657 187.652 235.39 197.596 241.263C201.93 243.823 204.677 245.438 205.838 246.107C205.926 246.159 206.029 246.174 206.128 246.152C206.226 246.129 206.312 246.069 206.368 245.984L333.83 53.4431C333.845 53.4215 333.853 53.3957 333.851 53.3696C333.85 53.3435 333.84 53.3183 333.823 53.2977C333.806 53.2771 333.783 53.2622 333.756 53.2552C333.73 53.2481 333.701 53.2493 333.676 53.2584L326.19 56.1701" stroke="black" stroke-width="2"/>
<path d="M324.287 56.2192C316.646 58.2999 309.259 60.2964 302.126 62.2088C295.129 64.0802 288.13 65.9454 281.129 67.8044C274.226 69.6389 267.342 71.5472 260.476 73.5293C259.865 73.7058 259.202 73.8043 258.488 73.8248" stroke="black" stroke-width="2"/>
<path d="M247.814 106.204C248.43 105.519 248.98 105.15 249.464 105.096" stroke="#DED1C6" stroke-width="2"/>
<path d="M176.869 152.723L207.907 132.545C208.095 132.422 208.298 132.323 208.51 132.249C212.425 130.833 216.193 129.208 219.812 127.374C225.394 124.542 228.773 122.8 229.951 122.148C234.055 119.874 237.756 117.071 241.056 113.739C241.265 113.525 242.347 112.229 244.3 109.848C245.383 108.519 246.555 107.304 247.815 106.204C248.431 105.519 248.98 105.149 249.465 105.096C251.66 104.066 253.7 102.921 255.584 101.661C262.478 97.0504 267.6 94.2249 272.426 90.6484C274.402 89.1833 276.519 88.1307 279.05 86.5178C285.275 82.5494 296.667 75.2322 313.226 64.5663C317.536 61.7879 321.857 58.9891 326.191 56.1698L333.676 53.2581C333.702 53.2489 333.73 53.2478 333.756 53.2548C333.783 53.2619 333.806 53.2768 333.823 53.2973C333.84 53.3179 333.85 53.3431 333.852 53.3692C333.853 53.3954 333.845 53.4211 333.83 53.4427L206.368 245.984C206.312 246.068 206.226 246.128 206.128 246.151C206.029 246.174 205.926 246.158 205.839 246.107C204.677 245.438 201.93 243.823 197.596 241.262C187.652 235.39 178.045 229.657 168.775 224.063C142.633 208.284 125.276 197.755 116.703 192.478C116.616 192.425 116.544 192.35 116.495 192.261C116.446 192.171 116.422 192.071 116.424 191.969C116.427 191.867 116.456 191.768 116.509 191.681C116.563 191.594 116.638 191.523 116.727 191.474C120.458 189.459 124.012 187.317 127.389 185.048C143.747 174.061 160.241 163.287 176.869 152.723Z" fill="#FCEEE1"/>
<path d="M324.289 56.2196C321.703 57.9884 319.167 59.4227 316.68 60.5225C316.237 60.7154 315.845 60.8016 315.504 60.7811C315.319 60.773 315.136 60.8156 314.975 60.9042C312.223 62.4924 309.01 63.6681 306.074 65.4964C302.657 67.6263 297.535 69.9716 293.423 72.3355C293.292 72.4093 288.761 74.8758 279.831 79.7348C278.022 80.7197 276.009 81.4091 274.236 82.7572C274.174 82.8023 274.108 82.8435 274.039 82.8804L254.285 92.9328C254.259 92.9462 254.23 92.9515 254.201 92.9478C254.172 92.9442 254.146 92.9318 254.124 92.9123C254.103 92.8928 254.088 92.8672 254.081 92.839C254.075 92.8107 254.077 92.7811 254.088 92.7543C255.816 88.4001 257.051 83.656 257.794 78.5221C258.023 76.9544 258.255 75.3888 258.489 73.8252C259.203 73.8047 259.866 73.7062 260.478 73.5297C267.343 71.5475 274.228 69.6392 281.13 67.8048C288.131 65.9458 295.131 64.0806 302.128 62.2092C309.26 60.2968 316.647 58.3003 324.289 56.2196Z" fill="#FCEEE1"/>
<path d="M249.464 105.096C248.979 105.15 248.429 105.519 247.814 106.205C247.531 105.638 247.609 105.078 248.048 104.524C248.622 103.793 249.063 103.123 249.371 102.511C250.073 101.12 250.434 100.408 250.455 100.375C251.46 98.8319 252.492 96.8313 253.551 94.3731C253.902 93.5543 255.41 93.3635 256.13 92.9695C261.982 89.7193 269.677 85.716 279.215 80.9596C281.521 79.8105 283.478 78.7209 285.087 77.6909C287.654 76.0473 290.64 74.8038 293.022 73.5234C298.197 70.7369 301.055 69.2102 301.597 68.9435C304.983 67.2752 308.448 64.9791 312.364 63.077C312.372 63.0729 312.478 63.0011 312.684 62.8615C312.901 62.7138 313.106 62.7569 313.299 62.9908C313.349 63.0501 313.386 63.1193 313.407 63.1935C313.428 63.2677 313.433 63.345 313.421 63.4198C313.41 63.4946 313.382 63.5651 313.339 63.6261C313.297 63.6871 313.241 63.7372 313.176 63.7726C309.479 65.804 305.055 68.6131 299.904 72.1999C296.137 74.8181 292.823 76.9994 289.963 78.7435C284.392 82.1415 279.492 85.6626 275.176 88.0264C272.363 89.5654 270.535 91.3259 267.9 92.8772C263.357 95.5488 259.241 98.2451 255.552 100.966C254.497 101.742 252.872 102.624 250.676 103.613C249.663 104.068 249.258 104.563 249.464 105.096Z" fill="#C0B4AB"/>
<path d="M143.283 105.533C148.692 112.26 155.003 118.028 162.218 122.837C165.967 125.337 169.482 126.869 173.218 128.821C175.502 130.015 177.201 130.434 179.737 130.735C179.808 130.744 179.874 130.776 179.926 130.825C179.977 130.875 180.011 130.94 180.023 131.01C180.035 131.081 180.023 131.153 179.991 131.217C179.958 131.28 179.906 131.332 179.842 131.363L146.465 147.097L90.9523 172.89C90.9015 172.914 90.8461 172.925 90.7902 172.925C90.7342 172.925 90.679 172.912 90.6285 172.888C90.578 172.864 90.5334 172.829 90.4979 172.786C90.4623 172.742 90.4368 172.692 90.4229 172.638L90.1275 171.437C90.0928 171.299 90.0286 171.17 89.9392 171.059C89.8499 170.948 89.7376 170.859 89.6104 170.797C69.7702 160.96 43.9036 146.71 29.302 139.6C27.4101 138.676 25.7809 137.728 24.4143 136.756C24.3901 136.738 24.3713 136.714 24.3601 136.686C24.3488 136.658 24.3456 136.628 24.3507 136.599C24.3558 136.569 24.3691 136.542 24.3891 136.519C24.409 136.497 24.4348 136.481 24.4636 136.472C62.8388 126.008 101.325 115.731 139.922 105.644C141.153 105.318 142.353 104.382 143.283 105.533Z" fill="#FCEEE1"/>
<path d="M114.148 197.109C119.207 200.286 125.175 203.958 132.054 208.122C132.797 208.574 133.531 208.964 134.232 209.341C134.936 209.72 135.609 210.087 136.251 210.502V210.503C139.82 212.824 142.824 214.711 145.261 216.164L145.262 216.165C145.681 216.414 146.215 216.784 146.867 217.281C143.546 218.451 140.124 219.877 136.603 221.563H136.602C136.045 221.831 135.424 222.067 134.765 222.307C134.113 222.544 133.419 222.786 132.752 223.059H132.751C123.7 226.766 112.597 231.408 99.4426 236.986C98.8112 237.253 98.1137 237.631 97.3488 238.11C97.3364 238.046 97.325 237.982 97.3127 237.918C97.3591 237.913 97.4056 237.904 97.4504 237.889C97.5505 237.856 97.642 237.802 97.718 237.729C97.7916 237.658 97.8478 237.572 97.8849 237.478L97.8859 237.479L114.148 197.109ZM180.668 132.611C181.118 132.402 181.627 132.358 182.107 132.487H182.109C189.635 134.484 197.149 134.73 204.645 133.226C204.642 133.228 204.64 133.231 204.638 133.233C203.514 134.127 201.521 135.457 198.639 137.229C192.007 141.299 185.518 145.681 179.019 149.957L176.233 151.781C165.98 158.332 155.783 164.969 145.641 171.692C140.603 175.034 135.85 177.928 131.008 181.256C126.034 184.673 121.598 187.482 117.699 189.685L117.698 189.686C116.894 190.142 116.25 190.725 115.667 191.27C115.071 191.826 114.551 192.33 113.946 192.715H113.945C113.719 192.86 113.526 193.053 113.381 193.28C113.236 193.506 113.141 193.762 113.104 194.029L112.737 196.621C112.731 196.653 112.723 196.684 112.713 196.713L96.9338 235.698C96.5905 233.424 96.3229 230.847 96.1359 227.965C95.6403 220.31 94.9353 213.331 93.84 199.906L93.3469 193.738L93.1242 191.178C92.82 187.817 92.2678 182.037 91.468 173.842L147.254 148.013L147.253 148.012L180.667 132.612L180.668 132.611Z" fill="#C0B4AB" stroke="black"/>
<ellipse cx="196.743" cy="72.9088" rx="61.3076" ry="61.0366" fill="#693000" stroke="#1C1C1C" stroke-width="1.0515" stroke-miterlimit="10" stroke-linejoin="round"/>
<ellipse cx="196.717" cy="65.0049" rx="61.2813" ry="61.0105" fill="#FFE2C8" stroke="#1C1C1C" stroke-width="1.0515" stroke-miterlimit="10" stroke-linejoin="round"/>
<ellipse cx="196.714" cy="65.0094" rx="54.8306" ry="54.5883" fill="#FF9500" stroke="#1C1C1C" stroke-width="1.0515" stroke-miterlimit="10" stroke-linejoin="round"/>
<path d="M223.093 59.5191C224.231 52.0965 218.428 48.1068 210.49 45.4431L212.586 37.261C212.851 36.2291 212.221 35.1801 211.186 34.9287L208.615 34.3043C207.598 34.0573 206.571 34.6739 206.312 35.6878L204.274 43.6463C202.622 43.2445 200.924 42.8656 199.237 42.4925L201.281 34.5111C201.545 33.4792 200.915 32.4304 199.88 32.179L197.309 31.5544C196.292 31.3075 195.266 31.9238 195.006 32.9374L192.897 41.1607C191.785 40.9126 185.29 39.3352 182.051 38.5474C181.034 38.2998 180.009 38.917 179.749 39.9314L179.024 42.7623C178.759 43.7949 179.39 44.8444 180.426 45.0948C181.711 45.4053 183.171 45.7578 183.107 45.7417C185.655 46.3616 186.357 48.0494 186.038 49.3008L178.979 76.8442C178.779 77.6249 177.876 78.7271 176.095 78.2965C176.175 78.3142 174.429 77.8913 173.072 77.5629C172.175 77.3459 171.252 77.8005 170.877 78.6432L169.335 82.1031C168.851 83.1915 169.469 84.4534 170.626 84.7376L181.073 87.3035L178.951 95.6016C178.687 96.6331 179.317 97.6814 180.352 97.9329L182.918 98.5567C183.935 98.804 184.962 98.1873 185.221 97.1733L187.33 88.9396C189.046 89.3931 190.709 89.8122 192.343 90.2083L190.258 98.3504C189.994 99.3823 190.624 100.431 191.659 100.683L194.23 101.307C195.247 101.554 196.273 100.938 196.533 99.9238L198.665 91.6032C209.387 93.578 217.449 92.7801 220.846 83.3425C223.582 75.742 220.71 71.3562 215.066 68.4974C219.177 67.5731 222.267 64.9439 223.093 59.5133V59.5191ZM208.726 79.1289C206.78 86.7295 193.635 82.6192 189.371 81.5917L192.827 68.1185C197.09 69.1518 210.755 71.2012 208.726 79.1289ZM210.673 59.41C208.897 66.3217 197.957 62.8084 194.407 61.9473L197.539 49.7256C201.089 50.5867 212.518 52.1941 210.673 59.4043V59.41Z" fill="#FFE2C8" stroke="#1C1C1C" stroke-width="1.0515" stroke-miterlimit="10" stroke-linejoin="round"/>
<path d="M222.363 58.0965C223.502 50.6739 217.698 46.6842 209.76 44.0205L211.857 35.8384C212.121 34.8065 211.491 33.7575 210.456 33.5061L207.886 32.8817C206.869 32.6347 205.842 33.2513 205.582 34.2652L203.544 42.2237C201.893 41.8219 200.195 41.443 198.508 41.0699L200.552 33.0885C200.816 32.0566 200.186 31.0078 199.151 30.7564L196.58 30.1318C195.563 29.8848 194.536 30.5012 194.276 31.5148L192.168 39.7381C191.056 39.4899 184.56 37.9125 181.322 37.1248C180.305 36.8772 179.279 37.4944 179.019 38.5088L178.294 41.3396C178.03 42.3723 178.661 43.4218 179.697 43.6722C180.982 43.9827 182.441 44.3352 182.378 44.319C184.926 44.939 185.628 46.6268 185.309 47.8782L178.25 75.4216C178.049 76.2023 177.147 77.3045 175.366 76.8739C175.446 76.8916 173.699 76.4687 172.342 76.1403C171.446 75.9233 170.523 76.3779 170.147 77.2206L168.606 80.6804C168.121 81.7689 168.739 83.0308 169.897 83.315L180.343 85.8809L178.222 94.179C177.958 95.2105 178.588 96.2588 179.622 96.5103L182.188 97.1341C183.206 97.3814 184.232 96.7647 184.492 95.7507L186.601 87.517C188.317 87.9705 189.98 88.3896 191.614 88.7857L189.528 96.9278C189.264 97.9596 189.894 99.0085 190.929 99.2599L193.5 99.8844C194.517 100.131 195.544 99.5149 195.804 98.5012L197.936 90.1806C208.658 92.1554 216.719 91.3575 220.116 81.9199C222.853 74.3194 219.981 69.9336 214.337 67.0748C218.447 66.1505 221.538 63.5213 222.363 58.0907V58.0965ZM207.997 77.7063C206.051 85.3069 192.905 81.1966 188.641 80.169L192.097 66.6959C196.361 67.7292 210.026 69.7786 207.997 77.7063ZM209.943 57.9874C208.168 64.8991 197.228 61.3858 193.678 60.5247L196.809 48.303C200.36 49.1641 211.789 50.7715 209.943 57.9817V57.9874Z" fill="#FFE2C8" stroke="#1C1C1C" stroke-width="1.0515" stroke-miterlimit="10" stroke-linejoin="round"/>
<path d="M218.298 239.598L219.195 239.773C223.538 240.098 227.673 240.413 231.601 240.718C243.106 241.614 253.9 242.867 263.982 244.476C272.275 245.8 280.119 247.58 287.514 249.817C292.149 251.221 296.045 252.979 299.202 255.091C300.908 256.231 301.837 257.613 301.987 259.237C302.316 262.852 298.627 265.512 293.454 267.603C288.03 269.796 281.931 271.597 275.156 273.006C260.8 275.987 245.383 277.668 229.911 278.789C196.784 281.188 162.802 281.357 129.443 279.221C118.759 278.535 108.118 277.513 97.5208 276.156C89.1314 275.081 80.9016 273.537 72.8316 271.522C63.0188 269.068 48.9498 264.285 52.9939 257.329C54.9168 254.007 61.5955 251.348 67.3299 249.593C77.1289 246.601 87.2975 244.835 98.7046 243.205C100.114 243.005 105.235 242.447 114.067 241.531C119.217 240.999 124.388 240.594 129.58 240.315C139.785 239.764 146.824 239.406 150.697 239.242C151.254 239.22 151.728 239.138 152.12 238.997C152.216 238.902 152.339 238.842 152.49 238.817C152.535 238.81 152.583 238.812 152.627 238.821C158.081 239.865 163.76 241.216 168.653 241.909C178.561 243.315 188.97 243.89 199.029 242.92C206.631 242.183 211.435 241.44 218.298 239.598Z" fill="#1C1C1C"/>
</svg>
