<svg width="360" height="360" viewBox="0 0 360 360" fill="none" xmlns="http://www.w3.org/2000/svg">
<g clip-path="url(#clip0_18087_7640)">
<path fill-rule="evenodd" clip-rule="evenodd" d="M138.902 313.409C163.067 327.454 202.244 327.454 226.408 313.409C250.573 299.365 250.573 276.594 226.408 262.549C202.244 248.505 163.067 248.505 138.902 262.549C114.738 276.594 114.738 299.365 138.902 313.409Z" fill="black" stroke="#231F20" stroke-width="0.44" stroke-miterlimit="10"/>
<path d="M228.926 270.382L227.365 269.503C227.645 264.243 225.952 258.211 222.054 251.841C210.106 232.315 181.959 217.016 159.188 217.669C151.76 217.883 145.822 219.767 141.606 222.888L140.032 222.032L136.359 228.856L136.369 228.861C132.823 235.474 133.616 244.445 139.59 254.209C151.539 273.735 179.685 289.034 202.457 288.381C213.844 288.053 221.729 283.8 225.276 277.188L225.288 277.195L228.926 270.382Z" fill="#4169E1" stroke="#231F20" stroke-width="0.44" stroke-miterlimit="10"/>
<path d="M225.724 245.003C237.672 264.529 228.898 280.889 206.127 281.542C183.355 282.196 155.208 266.897 143.26 247.37C131.312 227.844 140.086 211.484 162.857 210.831C185.629 210.176 213.776 225.476 225.724 245.003Z" fill="#CCD9FD" stroke="#231F20" stroke-width="0.44" stroke-miterlimit="10"/>
<path d="M221.52 244.861C232.399 261.974 224.859 276.034 204.677 276.263C184.496 276.492 159.316 262.806 148.436 245.692C137.557 228.579 145.097 214.519 165.279 214.29C185.46 214.061 210.64 227.747 221.52 244.861Z" fill="#4169E1" stroke="#231F20" stroke-width="0.44" stroke-miterlimit="10"/>
<path d="M220.68 246.429C231.752 263.183 224.524 276.661 204.534 276.532C184.546 276.403 159.365 262.717 148.293 245.961C137.222 229.207 144.449 215.729 164.439 215.858C184.428 215.987 209.608 229.674 220.68 246.429Z" fill="#6B8DF3" stroke="#231F20" stroke-width="0.44" stroke-miterlimit="10"/>
<path fill-rule="evenodd" clip-rule="evenodd" d="M198.007 259.788L197.153 257.553C197.75 252.504 200.621 248.398 205.448 245.835C205.622 245.743 205.594 245.486 205.405 245.433C196.245 242.868 187.112 238.055 179.716 231.925L178.83 229.037L177.931 230.713V230.715C177.904 230.754 177.888 230.803 177.894 230.858C178.463 236.85 176.205 241.883 171.547 245.169L170.376 244.802L169.492 246.449H169.494C169.41 246.564 169.454 246.744 169.61 246.787C179.384 249.525 189.128 254.821 196.763 261.546C196.876 261.645 197.035 261.6 197.096 261.486L198.007 259.788Z" fill="#4169E1" stroke="#231F20" stroke-width="0.44" stroke-miterlimit="10"/>
<path fill-rule="evenodd" clip-rule="evenodd" d="M206.463 244.016L205.583 245.725C205.556 245.778 205.513 245.821 205.459 245.847C204.87 246.141 201.194 248.073 199.28 251.413C199.28 251.413 200.667 247.541 205.394 244.686L206.463 244.018V244.016Z" fill="#4169E1" stroke="#231F20" stroke-width="0.44" stroke-miterlimit="10"/>
<path fill-rule="evenodd" clip-rule="evenodd" d="M178.804 229.16C179.448 235.948 176.467 241.507 170.475 244.687C170.301 244.78 170.328 245.036 170.518 245.089C180.292 247.827 190.037 253.123 197.672 259.848C197.819 259.978 198.048 259.861 198.03 259.664C197.386 252.876 200.367 247.317 206.359 244.137C206.533 244.045 206.505 243.788 206.315 243.735C196.541 240.997 186.797 235.701 179.162 228.976C179.014 228.846 178.785 228.963 178.804 229.16Z" fill="#CCD9FD" stroke="#231F20" stroke-width="0.44" stroke-miterlimit="10"/>
<path fill-rule="evenodd" clip-rule="evenodd" d="M259.795 187.847L259.811 180.489L257.743 178.717L255.522 182.668L188.908 143.951C183.96 141.075 175.938 141.075 170.99 143.951L104.375 182.67L102.154 178.718L100.086 180.49L100.102 187.847C99.9307 189.853 101.162 191.891 103.797 193.422L170.99 232.476C175.938 235.351 183.96 235.351 188.908 232.476L256.101 193.422C258.735 191.891 259.966 189.853 259.796 187.848L259.795 187.847ZM215.971 209.15C196.077 220.714 164.275 220.004 144.38 208.441C124.485 196.878 124.031 178.839 143.926 167.276C163.82 155.713 196.077 155.713 215.971 167.276C235.866 178.839 235.866 197.587 215.971 209.15Z" fill="#9B90BA" stroke="#231F20" stroke-width="0.44" stroke-miterlimit="10"/>
<path fill-rule="evenodd" clip-rule="evenodd" d="M188.906 136.23C183.958 133.354 175.936 133.354 170.988 136.23L103.796 175.284C98.8474 178.159 98.8474 182.823 103.796 185.698L170.988 224.753C175.936 227.628 183.958 227.628 188.906 224.753L256.099 185.698C261.047 182.823 261.047 178.159 256.099 175.284L188.906 136.23ZM143.925 201.428C163.82 212.991 196.076 212.991 215.971 201.428C235.865 189.865 235.865 171.117 215.971 159.554C196.076 147.991 163.82 147.991 143.925 159.554C124.03 171.117 124.03 189.865 143.925 201.428Z" fill="#F7F2F7" stroke="#231F20" stroke-width="0.44" stroke-miterlimit="10"/>
<path d="M221.134 129.32L219.656 130.335C215.053 127.83 208.914 126.787 201.527 127.607C178.883 130.121 153.101 149.182 143.941 170.18C140.953 177.03 140.104 183.239 141.101 188.41L139.68 189.504L144.213 195.739L144.222 195.732C148.64 201.79 157.034 204.907 168.355 203.65C190.999 201.136 216.781 182.076 225.941 161.078C230.52 150.578 230.078 141.583 225.659 135.525L225.671 135.517L221.133 129.322L221.134 129.32Z" fill="#FF9500" stroke="#231F20" stroke-width="0.44" stroke-miterlimit="10"/>
<path d="M196.957 121.344C219.6 118.83 230.531 133.815 221.372 154.814C212.212 175.812 186.431 194.873 163.786 197.387C141.143 199.9 130.212 184.916 139.371 163.916C148.531 142.918 174.312 123.857 196.957 121.344Z" fill="#FFE2C8" stroke="#231F20" stroke-width="0.44" stroke-miterlimit="10"/>
<path d="M195.029 125.106C215.049 122.533 224.444 135.41 216.012 153.87C207.581 172.331 184.516 189.382 164.497 191.956C144.477 194.529 135.082 181.652 143.513 163.192C151.945 144.731 175.01 127.68 195.029 125.106Z" fill="#FF9500" stroke="#231F20" stroke-width="0.44" stroke-miterlimit="10"/>
<path d="M196.08 126.543C215.86 123.64 224.866 135.986 216.194 154.117C207.523 172.249 184.459 189.301 164.678 192.203C144.898 195.106 135.892 182.759 144.564 164.628C153.235 146.496 176.299 129.445 196.08 126.543Z" fill="#F8B04A" stroke="#231F20" stroke-width="0.44" stroke-miterlimit="10"/>
<path d="M203.002 148.634L197.857 150.603H197.851C199.246 146.736 199.794 143.685 198.425 142.063L197.333 140.568L197.034 140.455L196.733 141.031C196.046 140.83 195.196 140.746 194.168 140.789C189.358 140.986 186.223 143.422 183.877 146.98C183.777 146.277 183.517 145.691 183.062 145.263L182.24 144.066L181.572 144.561C180.799 144.417 179.814 144.452 178.577 144.709V144.711C173.756 145.703 170.646 149.588 168.247 154.303L162.424 155.029C162.12 155.067 161.847 155.222 161.655 155.451L161.511 155.299L159.476 156.803L160.617 158.368C160.728 158.531 160.923 158.636 161.146 158.609L166.561 157.933C166.163 158.883 165.775 159.85 165.391 160.811L160.25 161.451L159.509 160.871L156.686 163.368L157.777 164.863C157.787 164.878 157.797 164.892 157.808 164.906C157.922 165.047 158.103 165.136 158.31 165.109L164.002 164.402C163.691 165.182 163.385 165.947 163.071 166.695L163.05 166.697L162.755 167.397L160.25 169.855L161.347 171.359C161.352 171.366 161.356 171.372 161.361 171.379C161.463 171.51 161.629 171.592 161.816 171.568L164.424 171.242C164.871 171.187 165.251 170.893 165.421 170.473C165.739 169.689 166.223 168.505 166.247 168.53C166.862 167.068 167.985 166.477 168.839 166.238L186.505 164.033C186.86 164.035 187.332 164.131 187.368 164.608L185.586 166.192L186.571 167.543C186.683 167.736 186.887 167.874 187.137 167.881L189.669 167.957C190.182 167.972 190.65 167.669 190.85 167.195L192.491 163.286C192.86 162.411 193.237 161.55 193.598 160.703L199.423 159.975C199.856 159.921 200.229 159.642 200.406 159.24L201.308 157.182C201.393 156.988 201.36 156.785 201.255 156.633C201.249 156.625 201.243 156.617 201.237 156.609L200.164 155.137L195.357 156.693C195.73 155.84 196.084 155.011 196.424 154.201L202.264 153.475C202.699 153.421 203.072 153.141 203.248 152.738L204.146 150.677C204.236 150.472 204.193 150.257 204.074 150.104L203.001 148.633L203.002 148.634ZM170.039 160.148C170.895 158.11 172.878 151.797 177.503 151.218C181.937 150.666 178.731 157.132 177.875 159.17L170.039 160.148ZM190.47 157.599L181.829 158.676C182.858 156.228 185.315 148.653 190.398 148.019C195.273 147.408 191.494 155.154 190.469 157.599H190.47Z" fill="#FF9500" stroke="#231F20" stroke-width="0.44" stroke-miterlimit="10"/>
<path d="M177.486 143.213C172.665 144.205 169.556 148.09 167.156 152.805L161.334 153.531C160.915 153.583 160.553 153.854 160.384 154.243L159.475 156.325C159.301 156.724 159.625 157.163 160.057 157.11L165.472 156.435C165.074 157.385 164.686 158.352 164.302 159.313L158.497 160.035C158.078 160.087 157.716 160.358 157.547 160.747L156.64 162.827C156.466 163.227 156.79 163.665 157.22 163.613L162.912 162.905C162.601 163.685 162.295 164.45 161.98 165.198L161.96 165.2L160.204 169.375C160.054 169.733 160.345 170.12 160.727 170.072L163.335 169.746C163.782 169.691 164.162 169.397 164.332 168.978C164.65 168.193 165.134 167.009 165.158 167.034C165.773 165.572 166.895 164.981 167.75 164.743L185.416 162.538C185.89 162.539 186.573 162.71 186.146 163.731C186.185 163.7 185.775 164.662 185.444 165.429C185.253 165.873 185.568 166.37 186.047 166.385L188.58 166.462C189.091 166.476 189.561 166.174 189.761 165.699L191.402 161.79C191.77 160.916 192.148 160.054 192.509 159.207L198.333 158.479C198.767 158.425 199.14 158.146 199.316 157.744L200.219 155.686C200.394 155.287 200.07 154.847 199.639 154.901L194.095 155.592C194.533 154.599 194.944 153.64 195.336 152.705L201.176 151.979C201.611 151.925 201.984 151.645 202.16 151.242L203.058 149.181C203.232 148.781 202.909 148.343 202.478 148.396L196.762 149.107C198.933 143.084 199.054 139.045 193.078 139.292C188.269 139.489 185.134 141.925 182.788 145.483C182.509 143.535 181.017 142.481 177.486 143.211V143.213ZM189.31 146.524C194.185 145.914 190.406 153.659 189.381 156.105L180.74 157.182C181.769 154.734 184.226 147.158 189.309 146.524H189.31ZM176.414 149.725C180.847 149.173 177.642 155.638 176.786 157.676L168.95 158.654C169.806 156.616 171.789 150.303 176.414 149.725Z" fill="#FFE2C8" stroke="#231F20" stroke-width="0.44" stroke-miterlimit="10"/>
<path d="M228.339 97.4431L226.781 96.5571C227.209 91.3073 225.688 85.2291 221.973 78.75C210.583 58.8888 182.881 42.7879 160.1 42.7879C152.669 42.7879 146.68 44.501 142.378 47.4998L140.853 46.5562L136.964 53.3153L136.974 53.321C133.242 59.8289 133.781 68.8194 139.477 78.75C150.868 98.6112 178.568 114.712 201.35 114.712C212.741 114.712 220.745 110.687 224.476 104.179L224.489 104.186L228.34 97.4431H228.339Z" fill="#FF9500" stroke="#231F20" stroke-width="0.44" stroke-miterlimit="10"/>
<path d="M225.833 72.0201C237.224 91.8813 227.99 107.982 205.208 107.982C182.427 107.982 154.726 91.8813 143.335 72.0201C131.945 52.1589 141.179 36.0579 163.96 36.0579C186.741 36.0579 214.442 52.1589 225.833 72.0201Z" fill="#FFE2C8" stroke="#231F20" stroke-width="0.44" stroke-miterlimit="10"/>
<path d="M221.636 71.7573C232.026 89.1762 224.09 103.013 203.911 102.663C183.731 102.314 158.949 87.9101 148.558 70.4912C138.167 53.0724 146.103 39.2352 166.283 39.5854C186.463 39.9345 211.245 54.3385 221.636 71.7573Z" fill="#FF9500" stroke="#231F20" stroke-width="0.44" stroke-miterlimit="10"/>
<path d="M220.752 73.3012C231.345 90.3664 223.737 103.631 203.76 102.929C183.783 102.227 159.001 87.8227 148.407 70.7575C137.814 53.6923 145.422 40.4277 165.399 41.1293C185.376 41.832 210.158 56.236 220.752 73.3012Z" fill="#F8B04A" stroke="#231F20" stroke-width="0.44" stroke-miterlimit="10"/>
<path d="M203.444 88.567L199.585 84.6155L199.581 84.6109C203.661 84.3414 206.655 83.6202 207.579 81.7055L208.501 80.0984L208.483 79.777L207.838 79.732C207.743 79.0178 207.48 78.201 207.027 77.269C204.914 72.9143 201.438 71.0053 197.258 70.2726C197.857 69.8971 198.285 69.4213 198.492 68.8303L199.251 67.5907L198.532 67.1736C198.352 66.4041 197.923 65.5101 197.193 64.4732C194.353 60.4273 189.569 59.1243 184.316 58.8075L181.314 53.7328C181.157 53.4678 180.908 53.2789 180.622 53.1936L180.702 52.9989L178.516 51.7282L177.551 53.409C177.448 53.5772 177.43 53.7984 177.546 53.9931L180.337 58.713C179.314 58.7269 178.277 58.7591 177.249 58.7925L174.6 54.3099L174.83 53.3952L171.423 51.7962L170.502 53.4033C170.493 53.4183 170.484 53.4332 170.476 53.4494C170.392 53.6118 170.385 53.8146 170.492 53.9943L173.424 58.9573C172.589 58.9838 171.77 59.0091 170.963 59.0206L170.953 59.0034L170.197 59.0137L166.955 57.6935L166.028 59.3098C166.023 59.3167 166.02 59.3236 166.015 59.3305C165.937 59.478 165.929 59.6623 166.026 59.8259L167.372 62.0989C167.602 62.4871 168.022 62.721 168.471 62.7083C169.313 62.6853 170.584 62.6565 170.571 62.6876C172.148 62.6657 173.136 63.4629 173.697 64.1553L182.805 79.5523C182.947 79.8795 183.049 80.3541 182.629 80.5788L180.472 79.5742L179.64 81.0246C179.509 81.2055 179.466 81.4497 179.559 81.6824L180.507 84.0476C180.699 84.5257 181.163 84.8367 181.676 84.8287L185.891 84.7699C186.836 84.7584 187.77 84.7584 188.685 84.7515L191.689 89.8274C191.912 90.2052 192.316 90.4368 192.753 90.438L194.988 90.4426C195.199 90.4426 195.37 90.3308 195.466 90.1718C195.471 90.1638 195.477 90.1546 195.481 90.1465L196.388 88.5659L193.04 84.7607C193.966 84.7618 194.862 84.7549 195.736 84.7434L198.745 89.8343C198.969 90.2133 199.374 90.4449 199.811 90.4449H202.048C202.27 90.4449 202.447 90.3204 202.54 90.1476L203.446 88.567H203.444ZM179.719 62.812C181.916 62.782 188.456 62.0712 190.841 66.1022C193.125 69.9662 185.957 69.6113 183.758 69.6425L179.718 62.8132L179.719 62.812ZM190.251 80.6203L185.798 73.0882C188.438 73.0525 196.315 72.2703 198.936 76.701C201.451 80.9497 192.888 80.5811 190.251 80.6203Z" fill="#FF9500" stroke="#231F20" stroke-width="0.44" stroke-miterlimit="10"/>
<path d="M198.114 62.866C195.273 58.8201 190.49 57.5171 185.236 57.2003L182.234 52.1256C182.018 51.7604 181.627 51.5369 181.204 51.5369H178.946C178.512 51.5369 178.243 52.0127 178.465 52.3882L181.256 57.1081C180.233 57.122 179.196 57.1542 178.168 57.1876L175.177 52.1267C174.961 51.7615 174.569 51.5369 174.147 51.5369H171.891C171.457 51.5369 171.188 52.0127 171.41 52.3882L174.342 57.3512C173.507 57.3777 172.688 57.4031 171.881 57.4146L171.871 57.3973L167.368 57.4584C166.982 57.4641 166.747 57.8869 166.945 58.221L168.29 60.494C168.52 60.8822 168.94 61.1161 169.389 61.1034C170.231 61.0804 171.503 61.0516 171.489 61.0827C173.066 61.0608 174.055 61.858 174.615 62.5504L183.723 77.9474C183.912 78.384 184.031 79.0833 182.931 79.1006C182.975 79.1237 181.936 79.1329 181.105 79.1363C180.624 79.1386 180.298 79.6282 180.478 80.0775L181.426 82.4427C181.619 82.9208 182.082 83.2318 182.595 83.2238L186.811 83.165C187.755 83.1535 188.69 83.1546 189.604 83.1466L192.608 88.2225C192.831 88.6003 193.235 88.8319 193.672 88.8331L195.907 88.8377C196.341 88.8377 196.611 88.363 196.389 87.9875L193.53 83.1546C194.61 83.1593 195.646 83.1523 196.656 83.1374L199.664 88.2282C199.888 88.6073 200.294 88.8388 200.731 88.8388H202.966C203.399 88.8388 203.667 88.3642 203.446 87.9886L200.502 83.006C206.852 82.5855 210.575 81.0729 207.948 75.6641C205.836 71.3094 202.359 69.4004 198.18 68.6677C199.839 67.6263 200.199 65.8268 198.115 62.8672L198.114 62.866ZM199.856 75.095C202.372 79.3425 193.808 78.9739 191.172 79.0131L186.718 71.481C189.358 71.4453 197.236 70.6631 199.856 75.0938V75.095ZM191.761 64.4962C194.045 68.3601 186.877 68.0053 184.679 68.0364L180.638 61.2071C182.835 61.1771 189.375 60.4663 191.76 64.4973L191.761 64.4962Z" fill="#FFE2C8" stroke="#231F20" stroke-width="0.44" stroke-miterlimit="10"/>
</g>
<defs>
<clipPath id="clip0_18087_7640">
<rect width="360" height="360" rx="5" fill="white"/>
</clipPath>
</defs>
</svg>
