<svg width="360" height="288" viewBox="0 0 360 288" fill="none" xmlns="http://www.w3.org/2000/svg">
<path d="M193.09 236.766L193.496 236.916C195.463 237.192 197.336 237.46 199.115 237.72C204.327 238.483 209.216 239.55 213.782 240.92C217.539 242.047 221.092 243.563 224.441 245.467C226.541 246.663 228.305 248.16 229.735 249.958C230.508 250.929 230.929 252.106 230.997 253.489C231.146 256.567 229.475 258.831 227.132 260.612C224.675 262.479 221.912 264.013 218.844 265.212C212.341 267.751 205.358 269.183 198.35 270.137C183.345 272.18 167.953 272.323 152.843 270.505C148.004 269.921 143.184 269.05 138.384 267.894C134.584 266.98 130.856 265.665 127.201 263.949C122.756 261.86 116.384 257.787 118.215 251.864C119.086 249.035 122.112 246.771 124.709 245.277C129.147 242.729 133.753 241.226 138.92 239.838C139.559 239.668 141.878 239.192 145.878 238.413C148.211 237.959 150.554 237.614 152.905 237.377C157.527 236.907 160.716 236.603 162.47 236.463C162.722 236.445 162.937 236.375 163.115 236.255C163.158 236.173 163.214 236.123 163.282 236.102C163.302 236.096 163.324 236.097 163.344 236.105C165.814 236.994 168.387 238.145 170.603 238.734C175.091 239.932 179.806 240.421 184.362 239.595C187.805 238.968 189.981 238.335 193.09 236.766Z" fill="#1C1C1C"/>
<path d="M97.6874 91.7116C99.8569 91.6809 101.909 92.2173 103.845 93.321C104.655 93.7818 105.26 94.2663 105.66 94.7744C106.333 95.6323 107.658 97.6044 109.634 100.691C110.977 102.793 113.129 105.515 114.692 107.926C121.226 118.018 128.801 129.093 138.227 143.127C140.198 146.06 141.445 147.928 141.967 148.731C146.121 155.137 150.787 161.897 154.296 167.47C154.405 167.64 154.4 167.746 154.282 167.789" stroke="#808080" stroke-width="2"/>
<path d="M199.493 174.815C199.642 174.352 199.793 174.011 199.947 173.794C202.476 170.176 205.125 166.344 207.895 162.298C220.418 144.001 227.569 133.551 229.349 130.946C234.413 123.542 239.201 116.499 243.712 109.815C244.634 108.451 245.886 106.908 246.584 105.834C248.997 102.138 251.754 98.1596 254.854 93.8987C255.161 93.4756 255.635 93.1176 256.276 92.8245C258.655 91.7398 261.174 91.4432 263.83 91.9348" stroke="#808080" stroke-width="2"/>
<path d="M263.83 91.9349C264.834 92.1973 265.796 92.6368 266.716 93.2536C266.777 93.2946 266.849 93.3166 266.923 93.3171C266.997 93.3176 267.069 93.2965 267.131 93.2563C267.193 93.2162 267.241 93.1589 267.27 93.0916C267.299 93.0243 267.307 92.9499 267.293 92.8779C266.658 89.3046 265.893 86.0291 265 83.0514C263.029 76.4685 260.335 69.96 256.751 63.8132C253.728 58.6305 250.383 53.8756 246.715 49.5485C244.61 47.0635 242.054 44.4899 239.976 42.4515C234.553 37.1413 228.061 32.3875 220.501 28.1904C218.718 27.1978 217.158 26.6802 215.435 25.7373C214.468 25.2103 213.182 24.6443 211.575 24.0393C207.058 22.3448 203.493 21.1644 200.88 20.4979C197.682 19.6826 194.903 19.1249 192.542 18.8247C189.749 18.4702 187.281 18.02 185.126 17.9988C182.893 17.9775 180.737 17.4918 178.508 17.5876C176.211 17.6892 174.076 17.857 172.106 18.0909C168.256 18.5447 165.297 18.9689 163.229 19.3636C162.267 19.5455 159.835 20.1281 155.934 21.1112C153.516 21.7209 151.137 22.4843 148.798 23.4012C142.469 25.8779 136.638 28.8615 131.304 32.3521C129.567 33.49 128.025 34.7059 126.433 35.8013C124.816 36.9144 122.892 38.6479 121.424 39.8744C119.824 41.2144 117.567 43.4441 114.653 46.5636C109.289 52.3064 104.589 58.8976 100.555 66.3371C96.001 74.7362 92.8626 83.6422 91.1398 93.0551C91.1295 93.1112 91.1347 93.169 91.155 93.2223C91.1752 93.2756 91.2097 93.3223 91.2547 93.3574C91.2996 93.3925 91.3533 93.4146 91.4099 93.4213C91.4665 93.428 91.5239 93.419 91.5758 93.3954C93.4298 92.5588 95.0144 91.7648 97.6872 91.7116" stroke="#859DA2" stroke-width="2"/>
<path d="M263.83 91.9348C264.057 91.8426 264.175 91.7315 264.185 91.6016" stroke="#051D23" stroke-width="2"/>
<path d="M264.184 91.6016L266.269 92.3496C266.309 92.3635 266.352 92.3679 266.394 92.3626C266.436 92.3573 266.476 92.3423 266.511 92.3189C266.546 92.2955 266.575 92.2643 266.596 92.2278C266.617 92.1913 266.628 92.1504 266.63 92.1085C266.633 92.066 266.634 92.0057 266.634 91.9278C266.636 91.8025 266.628 91.7233 266.609 91.6902C266.401 91.3263 266.227 90.5086 266.088 89.2372C266.012 88.5329 265.647 87.0358 264.992 84.7458C264.454 82.8551 263.368 79.7829 261.735 75.529C258.934 68.2371 254.911 61.126 250.547 55.1635C245.364 48.0784 239.242 41.7968 232.181 36.3188C229.016 33.8633 225.095 31.3027 220.415 28.6369C218.469 27.5309 216.466 26.7652 214.141 25.6238C210.337 23.7521 206.764 22.8127 200.748 20.9622C198.158 20.1658 194.055 19.4249 188.44 18.7396C187.57 18.6332 187.078 18.5718 186.962 18.5552C186.036 18.4371 185.086 18.43 184.112 18.5339C184.097 18.536 184.083 18.5425 184.072 18.5524C184.06 18.5623 184.052 18.5752 184.048 18.5895C184.044 18.6037 184.045 18.6186 184.05 18.6321C184.055 18.6456 184.064 18.6571 184.076 18.6651C184.599 19.048 185.623 19.5584 187.15 20.1965C191.692 22.0989 196.182 24.4906 200.62 27.3714C202.35 28.494 204.053 29.7441 205.729 31.1219C211.658 35.9974 216.821 41.2934 221.216 47.0102C222.67 48.9008 223.984 50.6898 225.158 52.3772C226.451 54.2395 228.537 57.6532 231.415 62.6184C231.963 63.5661 233.206 66.1953 235.144 70.5059C236.402 73.2969 237.454 75.9898 238.303 78.5847C239.747 83.0064 240.986 87.3773 242.021 91.6973C243.071 96.0741 243.719 100.499 243.968 104.973" stroke="#558F94" stroke-width="2"/>
<path d="M243.969 104.973C243.995 105.176 243.986 105.304 243.944 105.356C243.911 105.394 243.867 105.421 243.818 105.434C243.77 105.447 243.718 105.444 243.671 105.427C243.623 105.409 243.582 105.378 243.553 105.337C243.524 105.296 243.508 105.247 243.508 105.196C243.487 103.022 243.301 101.066 242.951 99.3294C242.587 97.5262 242.372 96.2749 242.306 95.5753C242.264 95.1003 242.001 93.8549 241.519 91.839C241.058 89.9082 240.527 87.8344 239.924 85.6177C239.314 83.3797 238.671 81.3555 237.996 79.5453C237.705 78.7677 236.963 76.7755 235.769 73.5685C235.044 71.6141 234.065 69.2922 232.834 66.6028C232.388 65.6244 231.417 63.7893 229.924 61.0976C227.152 56.1063 224.215 51.5937 221.115 47.5595C212.089 35.8153 200.391 26.0703 186.779 20.597C185.214 19.9683 183.852 19.4071 182.691 18.9131C182.157 18.6886 181.549 18.5905 180.866 18.6189C180.806 18.6207 180.749 18.6414 180.702 18.678C180.655 18.7147 180.621 18.7653 180.605 18.8226C180.588 18.8799 180.591 18.9409 180.612 18.9967C180.633 19.0525 180.671 19.1002 180.72 19.1329C181.437 19.6174 182.024 20.1385 182.482 20.6962C185.519 24.3758 188.192 28.1665 190.501 32.0683C191.575 33.8868 192.415 35.638 193.581 37.8678C195.134 40.8289 196.582 44.2214 197.924 48.0452C200.093 54.2228 202.152 61.6529 204.099 70.3356C204.255 71.0398 204.547 72.8891 204.975 75.8834C205.23 77.6984 205.758 80.552 206.038 82.9271C206.877 90.0902 207.446 96.5573 207.743 102.328C207.853 104.427 207.786 106.596 207.757 108.734" stroke="#1E7A85" stroke-width="2"/>
<path d="M207.757 108.734C207.717 107.408 207.679 106.085 207.643 104.764C207.641 104.667 207.539 104.673 207.338 104.782" stroke="#051D23" stroke-width="2"/>
<path d="M207.339 104.782C207.06 97.3209 206.458 89.8931 205.534 82.4984C205.127 79.2584 204.396 75.476 203.826 72.2076C203.289 69.1329 202.436 65.2879 201.266 60.6724C199.82 54.9627 197.908 49.1786 195.53 43.3201C192.865 36.7514 189.447 30.4981 185.474 25.1595C184.33 23.6234 182.668 21.7718 180.489 19.6046C180.433 19.5481 180.382 19.4851 180.337 19.4168C179.888 18.703 179.317 18.4797 178.625 18.7468C178.486 18.8001 178.363 18.8907 178.27 19.0091C175.191 22.9298 172.717 26.8032 170.847 30.6293C169.155 34.0939 167.569 37.9566 166.09 42.2176C164.824 45.8582 164.147 48.7261 163.162 52.0087C162.364 54.6461 161.836 57.5493 161.163 60.1726C160.782 61.6591 160.357 63.7116 159.886 66.3301C158.627 73.3585 157.615 80.4566 156.852 87.6244C155.985 95.7989 155.571 103.802 155.611 111.634C155.618 112.538 155.718 113.672 155.558 114.739" stroke="#558F94" stroke-width="2"/>
<path d="M155.558 114.739C155.527 114.406 155.438 114.262 155.289 114.307" stroke="#051D23" stroke-width="2"/>
<path d="M155.289 114.307C155.232 113.002 155.094 111.627 155.115 110.397C155.255 101.53 155.806 92.6922 156.771 83.8843C157.066 81.1807 157.529 77.8899 158.16 74.0117C158.846 69.7886 159.41 66.5142 159.855 64.1888C161.081 57.7583 162.774 51.1258 164.935 44.2912C166.478 39.4063 168.448 34.5451 170.844 29.7074C172.818 25.7194 175.112 22.2348 177.767 18.9912C177.792 18.9608 177.811 18.9257 177.823 18.888C177.834 18.8503 177.838 18.8106 177.834 18.7714C177.83 18.7321 177.818 18.6941 177.8 18.6594C177.781 18.6247 177.755 18.5941 177.725 18.5693C177.639 18.5008 177.561 18.4843 177.491 18.5197C175.204 19.6541 172.592 20.3383 170.33 21.3663C167.34 22.7252 164.924 23.9363 163.081 24.9998C162.338 25.4276 160.961 26.2925 158.947 27.5947C157.234 28.7007 155.894 29.6176 154.927 30.3455C146.267 36.8682 139.248 44.6563 133.346 53.7384C130.893 57.5102 128.49 61.9035 126.139 66.9184C125.161 69.0063 124.441 71.0907 123.65 72.849C122.86 74.6073 122.502 76.0252 121.878 77.6523C121.431 78.8222 121.014 80.031 120.627 81.2788C118.339 88.638 116.835 96.2194 116.114 104.023" stroke="#629394" stroke-width="2"/>
<path d="M116.114 104.023C115.783 102.804 115.705 101.659 115.88 100.588C116.277 98.1598 116.826 94.076 117.514 91.3642C118.127 88.943 119.021 84.3771 120.049 81.4632C120.604 79.8822 121.447 77.4268 122.576 74.0969C123.236 72.1649 124.101 70.4563 125.189 67.9997C127.989 61.6566 131.52 55.5003 135.781 49.5307C139.496 44.3291 143.474 39.7408 147.713 35.7658C149.112 34.4542 151.586 32.4182 155.133 29.6579C156.371 28.6937 157.7 27.7756 159.121 26.9035C161.342 25.5352 162.726 24.6951 163.272 24.3831C164.981 23.4023 167.903 21.956 172.038 20.0441C172.915 19.64 173.816 19.3115 174.74 19.0586C174.78 19.0478 174.816 19.024 174.841 18.991C174.867 18.9579 174.881 18.9174 174.881 18.8757C174.882 18.8339 174.868 18.7931 174.843 18.7596C174.819 18.7261 174.783 18.7016 174.743 18.69C174.315 18.5576 173.846 18.521 173.336 18.5801C170.951 18.859 168.59 19.1012 166.253 19.3068C165.469 19.3777 164.255 19.6093 162.613 20.0016C158.619 20.9564 155.315 21.8024 152.701 22.5397C150.758 23.0892 148.706 23.9896 146.217 24.9326C144.622 25.5387 143.25 26.3931 141.744 27.0701C140.579 27.5948 139.465 28.1407 138.404 28.7079C134.243 30.9365 130.123 33.6176 126.047 36.7513C124.863 37.6588 123.721 38.6159 122.622 39.6227C121.824 40.3553 120.714 41.3538 119.294 42.6181C117.431 44.2771 115.292 46.5388 112.874 49.4031C110.761 51.9058 109.52 53.4124 109.152 53.9228C107.837 55.7378 107.369 56.5567 106.061 58.2689C105.519 58.9779 104.943 59.8535 104.331 60.8957C102.109 64.6745 100.814 66.9197 100.445 67.631C98.5666 71.2326 97.1274 74.4561 96.1278 77.3015C96.1136 77.3417 95.7 78.5021 94.887 80.7826C94.464 81.9666 93.716 84.4634 92.6431 88.273C92.2425 89.6945 92.1362 90.9175 91.849 92.2965C91.8416 92.3294 91.8438 92.3636 91.8555 92.3952C91.8671 92.4268 91.8877 92.4545 91.9149 92.4749C91.942 92.4954 91.9746 92.5078 92.0088 92.5107C92.0429 92.5136 92.0773 92.507 92.1078 92.4914C93.8165 91.584 95.7012 91.1786 97.762 91.2755" stroke="#1E7A85" stroke-width="2"/>
<path d="M97.7617 91.2756C97.6978 91.4033 97.673 91.5486 97.6872 91.7117" stroke="#051D23" stroke-width="2"/>
<path d="M213.471 109.486C213.514 109.488 213.552 109.493 213.585 109.5C213.62 109.508 213.652 109.526 213.677 109.553C213.702 109.58 213.718 109.613 213.723 109.649L213.741 109.787" stroke="#051D23" stroke-width="2"/>
<path d="M213.741 109.787C211.212 111.878 209.577 113.398 208.835 114.346C208.145 115.23 207.685 115.726 207.456 115.835C207.403 115.858 207.344 115.869 207.286 115.864C207.228 115.86 207.172 115.841 207.123 115.81C205.821 114.947 203.878 113.753 201.295 112.226C200.135 111.538 198.888 110.917 197.555 110.361C197.534 110.352 197.511 110.348 197.488 110.349C197.466 110.351 197.443 110.357 197.423 110.368C197.403 110.379 197.386 110.394 197.372 110.412C197.359 110.431 197.35 110.452 197.346 110.475L186.864 167.027C186.839 167.161 186.86 167.299 186.922 167.421C186.984 167.542 187.085 167.639 187.207 167.697L192.606 170.231C192.684 170.268 192.774 170.272 192.855 170.242C192.936 170.213 193.002 170.153 193.039 170.075L223.833 104.289" stroke="#808080" stroke-width="2"/>
<path d="M223.833 104.289L224.102 103.619" stroke="#051D23" stroke-width="2"/>
<path d="M199.494 174.815L199.221 174.826" stroke="#291E05" stroke-width="2"/>
<path d="M199.221 174.825L198.909 174.719C198.692 174.644 198.493 174.526 198.324 174.372C197.788 173.883 197.1 173.442 196.261 173.049C196.136 172.99 196.016 172.921 195.903 172.84C194.258 171.67 193.287 171.015 192.989 170.873C190.73 169.802 188.376 168.664 185.928 167.459C185.73 167.36 185.522 167.282 185.307 167.225L183.744 166.814" stroke="#7D4A04" stroke-width="2"/>
<path d="M183.744 166.814L183.549 166.233" stroke="#291E05" stroke-width="2"/>
<path d="M183.549 166.233L194.12 109.493C194.155 109.307 194.119 109.116 194.02 108.955C193.921 108.795 193.766 108.677 193.585 108.624C191.992 108.168 190.324 107.759 188.583 107.398C181.916 106.02 175.415 106.476 169.079 108.766C168.699 108.904 168.295 108.862 168.001 108.997C167.947 109.021 167.902 109.062 167.872 109.115C167.843 109.167 167.831 109.227 167.838 109.287C169.14 119.835 169.922 126.365 170.185 128.88C171.026 136.908 171.863 144.337 172.694 151.167C172.711 151.29 173.148 155.549 174.006 163.946C174.011 164 174.031 164.052 174.062 164.097C174.094 164.141 174.137 164.177 174.187 164.201C174.489 164.341 174.818 164.386 175.172 164.336" stroke="#808080" stroke-width="2"/>
<path d="M175.172 164.336L175.402 164.478C175.422 164.491 175.437 164.509 175.445 164.531C175.453 164.552 175.455 164.576 175.449 164.598C175.443 164.621 175.43 164.641 175.412 164.655C175.394 164.67 175.372 164.679 175.349 164.68C175.195 164.685 175.05 164.712 174.913 164.762" stroke="#291E05" stroke-width="2"/>
<path d="M174.913 164.762C172.836 164.648 170.617 164.311 168.674 164.467C166.84 164.616 165.674 164.69 165.175 164.687C164.908 164.685 164.644 164.733 164.395 164.829C164.145 164.923 163.541 165.042 162.584 165.183C162.417 165.209 162.251 165.253 162.091 165.315C161.269 165.624 160.645 165.816 160.219 165.889C159.591 165.995 159.013 166.213 158.486 166.541C157.72 167.016 156.703 167.08 155.778 167.551C155.411 167.741 155.044 167.91 154.675 168.058" stroke="#7D4A04" stroke-width="2"/>
<path d="M154.675 168.058L154.282 167.789" stroke="#291E05" stroke-width="2"/>
<path d="M264.185 91.6016C261.524 91.0415 259.009 91.2495 256.641 92.2255C255.93 92.5186 255.085 92.9983 254.107 93.6648C252.923 94.4706 252.154 95.0662 251.799 95.4514C248.982 98.4906 246.522 101.8 244.419 105.381" stroke="#507272" stroke-width="2"/>
<path d="M244.419 105.381C244.26 105.393 244.11 105.257 243.969 104.973" stroke="#69CFD4" stroke-width="2"/>
<path d="M244.419 105.381L243.812 106.302C243.783 106.347 243.745 106.385 243.7 106.413C243.654 106.441 243.603 106.458 243.55 106.464C243.497 106.47 243.444 106.464 243.393 106.446C243.343 106.429 243.297 106.4 243.259 106.363L242.664 105.767C242.568 105.671 242.453 105.598 242.327 105.551C241.125 105.108 239.583 104.19 238.006 103.746C236.344 103.281 235.406 103.023 235.191 102.974C232.415 102.332 229.31 102.165 226.488 102.931C225.683 103.151 224.887 103.38 224.103 103.619" stroke="#195D62" stroke-width="2"/>
<path d="M224.103 103.619L223.025 103.807C222.912 103.828 222.802 103.865 222.699 103.917C221.141 104.671 219.586 105.422 218.034 106.171C216.8 106.767 215.279 107.872 213.471 109.486" stroke="#1E7A85" stroke-width="2"/>
<path d="M213.471 109.486C211.505 111.036 209.697 112.719 208.047 114.534C208.031 114.552 208.01 114.565 207.987 114.571C207.963 114.577 207.938 114.575 207.915 114.566C207.892 114.558 207.872 114.542 207.858 114.522C207.844 114.501 207.835 114.477 207.835 114.452L207.757 108.734" stroke="#195D62" stroke-width="2"/>
<path d="M155.289 114.307C155.18 114.413 155.068 114.484 154.952 114.519C154.901 114.536 154.847 114.535 154.798 114.517C154.748 114.499 154.706 114.465 154.679 114.42C154.239 113.704 153.546 112.873 152.598 111.928C148.736 108.074 144.314 105.27 139.329 103.516C135.709 102.245 132.099 101.753 128.5 102.041C124.813 102.337 121.312 103.359 117.996 105.108C117.585 105.323 117.215 105.565 116.887 105.834C116.57 106.092 116.231 106.38 115.869 106.699" stroke="#5D7671" stroke-width="2"/>
<path d="M207.339 104.782C207.414 107.197 207.42 109.623 207.356 112.059C207.328 113.073 207.379 113.972 207.509 114.757C207.521 114.837 207.51 114.919 207.478 114.993C207.445 115.067 207.391 115.13 207.324 115.174C207.256 115.219 207.177 115.243 207.096 115.244C207.015 115.244 206.936 115.222 206.867 115.179C203.12 112.772 199.316 110.344 195.261 108.979C194.403 108.692 193.567 108.171 192.872 107.979C189.613 107.083 186.565 106.525 183.73 106.302C179.614 105.98 175.208 106.465 170.993 107.742C168.346 108.543 166.556 109.163 165.622 109.603C162.583 111.032 159.644 112.787 156.806 114.867C156.363 115.193 155.789 115.413 155.558 114.739" stroke="#507272" stroke-width="2"/>
<path d="M116.114 104.023L115.869 106.699" stroke="#76D3D3" stroke-width="2"/>
<path d="M115.869 106.699C115.951 105.285 115.575 105.062 114.993 104.087C112.387 99.7195 109.064 96.1769 105.025 93.4592C102.863 92.0058 100.442 91.2779 97.7616 91.2755" stroke="#195D62" stroke-width="2"/>
<path d="M223.834 104.289C223.8 104.163 223.756 104.097 223.699 104.09C223.574 104.076 223.463 104.093 223.366 104.14C221.922 104.844 220.482 105.553 219.048 106.267C217.286 107.146 215.46 108.56 213.741 109.787" stroke="#859DA2" stroke-width="2"/>
<path d="M183.549 166.233C183.504 166.247 183.46 166.258 183.418 166.265C183.335 166.279 183.249 166.266 183.173 166.229C180.883 165.134 177.242 164.591 175.172 164.336" stroke="#A99D84" stroke-width="2"/>
<path d="M183.743 166.814C182.855 166.625 181.978 166.403 181.113 166.148C178.943 165.506 177.011 165.148 174.913 164.761" stroke="#A66808" stroke-width="2"/>
<path d="M163.715 164.755C163.764 164.736 163.805 164.7 163.83 164.652C163.854 164.605 163.86 164.551 163.846 164.499L149.914 110.305C149.852 110.066 149.714 109.854 149.521 109.702C144.515 105.714 137.879 102.357 131.009 102.463C128.606 102.499 127.265 102.543 126.986 102.595C123.895 103.157 120.858 104.184 117.875 105.675C117.812 105.707 117.756 105.751 117.711 105.806C117.666 105.861 117.633 105.924 117.615 105.993C117.596 106.061 117.593 106.133 117.604 106.203C117.615 106.272 117.641 106.339 117.68 106.398C124.177 116.232 131.542 127.225 139.776 139.377C141.878 142.478 143.728 145.445 145.511 148.065C149.777 154.323 153.74 160.366 157.401 166.194C157.474 166.311 157.589 166.395 157.722 166.43C157.855 166.465 157.996 166.448 158.117 166.382C159.254 165.762 160.518 165.332 161.91 165.091C163.04 164.893 163.641 164.781 163.715 164.755Z" stroke="#808080" stroke-width="2"/>
<path d="M196.144 172.443C196.276 172.533 196.438 172.568 196.595 172.538C196.751 172.509 196.89 172.419 196.981 172.287L242.111 106.366C242.138 106.327 242.157 106.282 242.166 106.234C242.174 106.187 242.173 106.138 242.161 106.092C242.149 106.045 242.128 106.001 242.098 105.964C242.068 105.926 242.03 105.895 241.987 105.873C240.789 105.257 239.463 104.551 238.102 104.25C237.173 104.044 236.155 103.562 235.103 103.339C233.101 102.909 230.95 102.779 228.651 102.949C228.516 102.96 228.386 103.006 228.275 103.083C228.164 103.161 228.076 103.266 228.02 103.389C226.857 105.941 225.624 108.545 224.319 111.201C222.443 115.025 218.212 123.94 211.628 137.944C206.446 148.972 201.568 159.434 195.861 171.887C195.825 171.964 195.818 172.051 195.84 172.134C195.863 172.216 195.914 172.288 195.985 172.337L196.144 172.443Z" stroke="#808080" stroke-width="2"/>
<path d="M155.158 115.104C155.125 115.085 155.089 115.076 155.051 115.077C155.014 115.078 154.977 115.089 154.946 115.11C154.915 115.131 154.891 115.16 154.875 115.194C154.86 115.228 154.855 115.266 154.86 115.303C154.95 115.908 155.103 116.644 155.321 117.511C162.167 144.502 165.992 159.618 166.796 162.858C166.857 163.111 166.9 163.471 166.923 163.939C166.927 164.003 166.955 164.064 167.002 164.108C167.049 164.152 167.111 164.177 167.175 164.177H170.372C170.404 164.177 170.435 164.17 170.464 164.158C170.492 164.145 170.518 164.127 170.539 164.104C170.561 164.081 170.577 164.054 170.587 164.024C170.598 163.995 170.602 163.963 170.599 163.932C170.351 160.21 169.826 156.388 169.461 152.875C168.032 139.133 166.434 125.147 164.669 110.918C164.664 110.879 164.649 110.842 164.627 110.81C164.605 110.778 164.576 110.752 164.541 110.734C164.507 110.715 164.469 110.705 164.43 110.705C164.391 110.704 164.353 110.713 164.318 110.73C161.52 112.113 158.909 113.76 156.487 115.672C156.427 115.719 156.358 115.753 156.284 115.773C156.21 115.793 156.133 115.797 156.058 115.786C155.982 115.776 155.91 115.749 155.844 115.709C155.779 115.67 155.723 115.617 155.679 115.555C155.553 115.382 155.38 115.232 155.158 115.104Z" stroke="#808080" stroke-width="2"/>
<path d="M263.83 91.9349C264.057 91.8428 264.175 91.7317 264.185 91.6017L266.269 92.3497C266.309 92.3636 266.352 92.368 266.394 92.3627C266.436 92.3574 266.476 92.3424 266.511 92.319C266.546 92.2956 266.576 92.2644 266.596 92.2279C266.617 92.1913 266.629 92.1505 266.631 92.1086C266.633 92.0661 266.634 92.0058 266.634 91.9278C266.636 91.8026 266.628 91.7234 266.609 91.6903C266.401 91.3264 266.228 90.5087 266.088 89.2373C266.013 88.533 265.647 87.0359 264.993 84.7459C264.454 82.8552 263.368 79.783 261.735 75.5291C258.935 68.2372 254.911 61.1261 250.547 55.1636C245.365 48.0785 239.243 41.7969 232.181 36.3189C229.017 33.8634 225.095 31.3028 220.416 28.637C218.469 27.531 216.467 26.7653 214.141 25.6239C210.337 23.7522 206.764 22.8127 200.748 20.9623C198.158 20.1659 194.056 19.425 188.44 18.7396C187.571 18.6333 187.078 18.5719 186.962 18.5553C186.036 18.4371 185.086 18.4301 184.112 18.534C184.097 18.5361 184.083 18.5425 184.072 18.5525C184.06 18.5624 184.052 18.5753 184.048 18.5896C184.045 18.6038 184.045 18.6187 184.05 18.6322C184.055 18.6457 184.065 18.6572 184.077 18.6652C184.599 19.0481 185.623 19.5585 187.15 20.1966C191.692 22.099 196.183 24.4907 200.621 27.3715C202.351 28.4941 204.053 29.7442 205.729 31.122C211.658 35.9974 216.821 41.2935 221.217 47.0103C222.67 48.9009 223.984 50.6899 225.159 52.3773C226.451 54.2396 228.537 57.6533 231.415 62.6185C231.964 63.5662 233.207 66.1953 235.145 70.506C236.402 73.297 237.455 75.9899 238.303 78.5848C239.747 83.0065 240.987 87.3774 242.022 91.6974C243.071 96.0742 243.72 100.499 243.968 104.973C243.994 105.176 243.986 105.304 243.943 105.356C243.91 105.394 243.866 105.421 243.818 105.434C243.769 105.447 243.717 105.444 243.67 105.427C243.623 105.41 243.582 105.378 243.553 105.337C243.523 105.296 243.508 105.247 243.507 105.196C243.486 103.022 243.3 101.067 242.951 99.3296C242.587 97.5264 242.372 96.2751 242.305 95.5756C242.263 95.1005 242 93.8551 241.518 91.8392C241.058 89.9084 240.526 87.8347 239.923 85.6179C239.313 83.3799 238.671 81.3557 237.995 79.5455C237.704 78.768 236.962 76.7757 235.769 73.5688C235.043 71.6143 234.065 69.2924 232.833 66.603C232.387 65.6246 231.417 63.7895 229.923 61.0978C227.151 56.1065 224.215 51.5939 221.114 47.5598C212.089 35.8155 200.39 26.0705 186.778 20.5972C185.213 19.9685 183.851 19.4073 182.691 18.9133C182.157 18.6888 181.548 18.5908 180.865 18.6191C180.805 18.6209 180.748 18.6416 180.701 18.6782C180.654 18.7149 180.62 18.7655 180.604 18.8228C180.588 18.8802 180.59 18.9411 180.611 18.9969C180.632 19.0527 180.67 19.1004 180.72 19.1331C181.436 19.6176 182.023 20.1387 182.481 20.6964C185.518 24.3761 188.191 28.1667 190.5 32.0685C191.574 33.887 192.414 35.6382 193.581 37.868C195.133 40.8292 196.581 44.2216 197.923 48.0454C200.093 54.223 202.151 61.6531 204.098 70.3358C204.254 71.0401 204.546 72.8893 204.974 75.8836C205.229 77.6986 205.757 80.5522 206.037 82.9273C206.876 90.0904 207.445 96.5575 207.742 102.329C207.852 104.427 207.785 106.597 207.757 108.734C207.717 107.408 207.679 106.085 207.643 104.764C207.641 104.667 207.539 104.673 207.338 104.782C207.059 97.3208 206.458 89.8931 205.534 82.4984C205.126 79.2583 204.396 75.4759 203.825 72.2075C203.289 69.1329 202.436 65.2879 201.266 60.6724C199.82 54.9627 197.908 49.1786 195.53 43.3201C192.864 36.7513 189.447 30.4981 185.473 25.1595C184.33 23.6233 182.668 21.7717 180.489 19.6046C180.433 19.548 180.382 19.4851 180.337 19.4167C179.888 18.703 179.317 18.4797 178.625 18.7467C178.485 18.8 178.363 18.8907 178.27 19.0091C175.191 22.9297 172.716 26.8031 170.847 30.6293C169.155 34.0938 167.569 37.9566 166.09 42.2176C164.824 45.8582 164.147 48.726 163.162 52.0086C162.364 54.646 161.836 57.5493 161.162 60.1725C160.782 61.659 160.356 63.7115 159.886 66.3301C158.627 73.3584 157.615 80.4565 156.852 87.6243C155.984 95.7989 155.571 103.802 155.611 111.634C155.618 112.538 155.717 113.672 155.558 114.739C155.527 114.406 155.437 114.262 155.288 114.307C155.232 113.002 155.093 111.627 155.115 110.397C155.254 101.53 155.806 92.6924 156.77 83.8844C157.066 81.1809 157.529 77.89 158.16 74.0119C158.845 69.7887 159.41 66.5144 159.854 64.1889C161.081 57.7585 162.774 51.1259 164.934 44.2914C166.477 39.4065 168.447 34.5452 170.844 29.7076C172.818 25.7196 175.112 22.2349 177.767 18.9913C177.792 18.961 177.811 18.9259 177.822 18.8881C177.834 18.8504 177.838 18.8108 177.834 18.7715C177.83 18.7323 177.818 18.6942 177.799 18.6595C177.78 18.6248 177.755 18.5942 177.724 18.5695C177.639 18.501 177.561 18.4844 177.49 18.5199C175.204 19.6542 172.591 20.3384 170.33 21.3664C167.34 22.7253 164.924 23.9365 163.08 25C162.338 25.4277 160.96 26.2927 158.947 27.5948C157.233 28.7008 155.893 29.6178 154.927 30.3457C146.267 36.8683 139.248 44.6565 133.345 53.7385C130.892 57.5103 128.49 61.9036 126.139 66.9185C125.16 69.0065 124.441 71.0909 123.65 72.8491C122.86 74.6074 122.502 76.0254 121.878 77.6525C121.431 78.8223 121.014 80.0311 120.626 81.2789C118.339 88.6382 116.834 96.2196 116.114 104.023C115.783 102.804 115.705 101.659 115.88 100.588C116.277 98.1598 116.826 94.0761 117.514 91.3642C118.127 88.943 119.02 84.3772 120.049 81.4633C120.604 79.8822 121.446 77.4268 122.576 74.0969C123.235 72.165 124.1 70.4563 125.189 67.9997C127.989 61.6567 131.52 55.5004 135.781 49.5307C139.496 44.3292 143.473 39.7409 147.713 35.7658C149.112 34.4542 151.585 32.4183 155.132 29.658C156.371 28.6938 157.7 27.7756 159.121 26.9036C161.342 25.5352 162.726 24.6951 163.272 24.3831C164.98 23.4024 167.902 21.9561 172.038 20.0442C172.915 19.6401 173.815 19.3116 174.739 19.0587C174.78 19.0478 174.815 19.0241 174.841 18.991C174.867 18.958 174.881 18.9175 174.881 18.8757C174.881 18.8339 174.868 18.7932 174.843 18.7596C174.818 18.7261 174.783 18.7017 174.743 18.69C174.315 18.5577 173.846 18.521 173.336 18.5801C170.951 18.859 168.59 19.1012 166.253 19.3068C165.468 19.3777 164.255 19.6093 162.612 20.0016C158.618 20.9564 155.314 21.8024 152.701 22.5398C150.758 23.0892 148.706 23.9897 146.217 24.9326C144.622 25.5388 143.25 26.3931 141.743 27.0702C140.578 27.5948 139.465 28.1407 138.404 28.7079C134.242 30.9365 130.123 33.6176 126.047 36.7513C124.863 37.6588 123.721 38.616 122.622 39.6227C121.823 40.3553 120.714 41.3538 119.293 42.6182C117.431 44.2772 115.291 46.5388 112.874 49.4031C110.761 51.9058 109.52 53.4124 109.151 53.9229C107.836 55.7379 107.368 56.5567 106.06 58.2689C105.519 58.9779 104.942 59.8535 104.33 60.8957C102.109 64.6746 100.814 66.9197 100.445 67.631C98.5664 71.2327 97.1271 74.4562 96.1275 77.3015C96.1133 77.3417 95.6997 78.5021 94.8868 80.7827C94.4637 81.9667 93.7157 84.4634 92.6428 88.273C92.2422 89.6945 92.1359 90.9175 91.8488 92.2965C91.8413 92.3294 91.8435 92.3637 91.8552 92.3953C91.8669 92.4269 91.8875 92.4545 91.9146 92.475C91.9417 92.4954 91.9743 92.5078 92.0085 92.5107C92.0426 92.5137 92.077 92.507 92.1075 92.4915C93.8162 91.584 95.7009 91.1787 97.7617 91.2756C97.6979 91.4032 97.673 91.5485 97.6872 91.7116C95.0144 91.7648 93.4298 92.5588 91.5758 93.3954C91.5239 93.419 91.4665 93.428 91.4099 93.4213C91.3533 93.4146 91.2996 93.3925 91.2547 93.3574C91.2097 93.3223 91.1752 93.2756 91.155 93.2223C91.1347 93.169 91.1295 93.1112 91.1398 93.0551C92.8626 83.6422 96.001 74.7362 100.555 66.3371C104.589 58.8976 109.289 52.3064 114.653 46.5636C117.567 43.4441 119.824 41.2144 121.424 39.8744C122.892 38.6479 124.816 36.9144 126.433 35.8013C128.025 34.7059 129.567 33.49 131.304 32.3521C136.638 28.8615 142.469 25.8779 148.798 23.4012C151.137 22.4843 153.516 21.7209 155.934 21.1112C159.835 20.1281 162.267 19.5455 163.229 19.3636C165.297 18.9689 168.256 18.5447 172.106 18.0909C174.076 17.857 176.211 17.6892 178.508 17.5876C180.737 17.4918 182.893 17.9775 185.126 17.9988C187.281 18.02 189.749 18.4702 192.542 18.8247C194.903 19.1249 197.682 19.6826 200.88 20.4979C203.493 21.1644 207.058 22.3448 211.575 24.0393C213.182 24.6443 214.468 25.2103 215.435 25.7373C217.158 26.6802 218.718 27.1978 220.501 28.1904C228.061 32.3875 234.553 37.1413 239.976 42.4515C242.054 44.4899 244.61 47.0635 246.715 49.5485C250.383 53.8756 253.728 58.6305 256.751 63.8132C260.335 69.96 263.029 76.4685 265 83.0514C265.893 86.0291 266.658 89.3046 267.293 92.8779C267.307 92.9499 267.299 93.0243 267.27 93.0916C267.241 93.1589 267.193 93.2162 267.131 93.2563C267.069 93.2965 266.997 93.3176 266.923 93.3171C266.849 93.3166 266.777 93.2946 266.716 93.2536C265.796 92.6368 264.834 92.1973 263.83 91.9349Z" fill="#0A3A45"/>
<path d="M264.184 91.6019C261.523 91.0418 259.009 91.2497 256.641 92.2258C255.929 92.5188 255.084 92.9986 254.106 93.665C252.922 94.4709 252.153 95.0664 251.798 95.4516C248.981 98.4908 246.521 101.801 244.418 105.381C244.259 105.393 244.109 105.257 243.968 104.973C243.719 100.5 243.071 96.0744 242.021 91.6976C240.986 87.3775 239.747 83.0066 238.303 78.585C237.454 75.9901 236.402 73.2971 235.144 70.5061C233.206 66.1955 231.963 63.5664 231.415 62.6187C228.537 57.6535 226.451 54.2397 225.158 52.3774C223.984 50.6901 222.67 48.9011 221.216 47.0104C216.821 41.2937 211.658 35.9976 205.729 31.1222C204.053 29.7444 202.35 28.4942 200.62 27.3717C196.182 24.4908 191.692 22.0992 187.15 20.1968C185.623 19.5587 184.599 19.0482 184.076 18.6654C184.064 18.6574 184.055 18.6459 184.05 18.6323C184.045 18.6188 184.044 18.604 184.048 18.5897C184.052 18.5755 184.06 18.5625 184.072 18.5526C184.083 18.5427 184.097 18.5363 184.112 18.5342C185.086 18.4302 186.036 18.4373 186.962 18.5555C187.078 18.572 187.57 18.6334 188.44 18.7398C194.055 19.4251 198.158 20.166 200.748 20.9625C206.764 22.8129 210.337 23.7523 214.141 25.624C216.466 26.7655 218.469 27.5312 220.415 28.6372C225.095 31.303 229.016 33.8636 232.181 36.319C239.242 41.7971 245.364 48.0786 250.547 55.1637C254.911 61.1263 258.934 68.2374 261.735 75.5292C263.368 79.7831 264.454 82.8554 264.992 84.746C265.647 87.036 266.012 88.5331 266.088 89.2374C266.227 90.5088 266.401 91.3265 266.609 91.6905C266.628 91.7236 266.636 91.8027 266.634 91.928C266.634 92.006 266.633 92.0662 266.63 92.1088C266.628 92.1507 266.617 92.1915 266.596 92.228C266.575 92.2645 266.546 92.2957 266.511 92.3192C266.476 92.3426 266.436 92.3575 266.394 92.3628C266.352 92.3682 266.309 92.3637 266.269 92.3498L264.184 91.6019Z" fill="#B9E5DE"/>
<path d="M116.114 104.023L115.869 106.699C115.951 105.285 115.575 105.062 114.993 104.087C112.387 99.7194 109.064 96.1768 105.025 93.4591C102.863 92.0057 100.442 91.2778 97.7616 91.2754C95.7008 91.1785 93.8161 91.5838 92.1075 92.4913C92.0769 92.5068 92.0426 92.5135 92.0084 92.5106C91.9742 92.5077 91.9417 92.4952 91.9145 92.4748C91.8874 92.4543 91.8668 92.4267 91.8551 92.3951C91.8435 92.3635 91.8412 92.3293 91.8487 92.2963C92.1358 90.9174 92.2422 89.6944 92.6427 88.2729C93.7157 84.4633 94.4636 81.9665 94.8867 80.7825C95.6996 78.5019 96.1132 77.3416 96.1274 77.3014C97.1271 74.456 98.5663 71.2325 100.445 67.6309C100.814 66.9195 102.109 64.6744 104.33 60.8956C104.942 59.8533 105.519 58.9778 106.06 58.2688C107.368 56.5566 107.836 55.7377 109.151 53.9227C109.52 53.4122 110.761 51.9057 112.874 49.4029C115.291 46.5387 117.431 44.277 119.293 42.618C120.714 41.3536 121.823 40.3552 122.622 39.6225C123.721 38.6158 124.862 37.6587 126.046 36.7512C130.123 33.6175 134.242 30.9363 138.404 28.7078C139.465 28.1406 140.578 27.5947 141.743 27.07C143.25 26.3929 144.622 25.5386 146.217 24.9324C148.705 23.9895 150.758 23.0891 152.701 22.5396C155.314 21.8023 158.618 20.9562 162.612 20.0015C164.255 19.6092 165.468 19.3776 166.253 19.3067C168.59 19.1011 170.951 18.8588 173.336 18.58C173.846 18.5209 174.315 18.5575 174.743 18.6899C174.783 18.7015 174.818 18.7259 174.843 18.7595C174.868 18.793 174.881 18.8338 174.881 18.8755C174.881 18.9173 174.866 18.9578 174.841 18.9908C174.815 19.0239 174.78 19.0477 174.739 19.0585C173.815 19.3114 172.915 19.6399 172.038 20.044C167.902 21.9559 164.98 23.4022 163.272 24.383C162.726 24.6949 161.342 25.5351 159.12 26.9034C157.7 27.7755 156.371 28.6936 155.132 29.6578C151.585 32.4181 149.112 34.4541 147.713 35.7657C143.473 39.7407 139.496 44.329 135.781 49.5306C131.52 55.5002 127.989 61.6565 125.189 67.9995C124.1 70.4562 123.235 72.1648 122.576 74.0968C121.446 77.4266 120.604 79.8821 120.048 81.4631C119.02 84.377 118.127 88.9429 117.514 91.364C116.826 94.0759 116.277 98.1596 115.88 100.588C115.705 101.658 115.783 102.803 116.114 104.023Z" fill="#2AA5A5"/>
<path d="M155.289 114.307C155.18 114.414 155.068 114.484 154.952 114.52C154.902 114.536 154.848 114.535 154.798 114.517C154.749 114.499 154.707 114.465 154.679 114.421C154.24 113.705 153.546 112.874 152.599 111.929C148.737 108.074 144.314 105.27 139.33 103.516C135.709 102.245 132.1 101.753 128.5 102.042C124.814 102.337 121.312 103.359 117.997 105.108C117.585 105.323 117.216 105.565 116.887 105.835C116.57 106.092 116.231 106.381 115.87 106.7L116.114 104.023C116.835 96.2199 118.339 88.6385 120.627 81.2793C121.015 80.0315 121.432 78.8227 121.878 77.6528C122.502 76.0257 122.86 74.6078 123.651 72.8495C124.441 71.0912 125.161 69.0068 126.139 66.9188C128.491 61.904 130.893 57.5107 133.346 53.7389C139.248 44.6568 146.267 36.8687 154.928 30.346C155.894 29.6181 157.234 28.7012 158.947 27.5952C160.961 26.293 162.339 25.428 163.081 25.0003C164.924 23.9368 167.341 22.7256 170.33 21.3668C172.592 20.3387 175.204 19.6546 177.491 18.5202C177.562 18.4848 177.64 18.5013 177.725 18.5698C177.756 18.5946 177.781 18.6252 177.8 18.6599C177.819 18.6945 177.83 18.7326 177.834 18.7719C177.838 18.8111 177.834 18.8507 177.823 18.8885C177.811 18.9262 177.793 18.9613 177.767 18.9917C175.112 22.2353 172.819 25.7199 170.844 29.7079C168.448 34.5456 166.478 39.4068 164.935 44.2917C162.775 51.1263 161.082 57.7588 159.855 64.1893C159.411 66.5147 158.846 69.789 158.161 74.0122C157.53 77.8903 157.066 81.1812 156.771 83.8848C155.807 92.6927 155.255 101.53 155.115 110.397C155.094 111.627 155.232 113.003 155.289 114.307Z" fill="#E6F7F4"/>
<path d="M207.339 104.782C207.414 107.197 207.42 109.623 207.356 112.06C207.328 113.073 207.379 113.973 207.509 114.757C207.521 114.837 207.51 114.919 207.478 114.993C207.445 115.067 207.391 115.13 207.324 115.175C207.256 115.219 207.177 115.243 207.096 115.244C207.015 115.245 206.936 115.222 206.867 115.179C203.12 112.772 199.316 110.344 195.261 108.979C194.403 108.692 193.567 108.171 192.872 107.979C189.613 107.084 186.565 106.525 183.73 106.303C179.614 105.98 175.208 106.466 170.993 107.742C168.346 108.543 166.556 109.163 165.622 109.603C162.583 111.033 159.644 112.787 156.806 114.867C156.363 115.193 155.789 115.413 155.558 114.739C155.718 113.672 155.618 112.538 155.611 111.634C155.571 103.802 155.985 95.799 156.852 87.6245C157.615 80.4567 158.627 73.3586 159.886 66.3302C160.357 63.7117 160.782 61.6592 161.163 60.1727C161.836 57.5495 162.364 54.6462 163.162 52.0088C164.147 48.7262 164.824 45.8584 166.09 42.2177C167.569 37.9568 169.155 34.094 170.847 30.6294C172.717 26.8033 175.191 22.9299 178.27 19.0092C178.363 18.8909 178.486 18.8002 178.625 18.7469C179.317 18.4798 179.888 18.7032 180.337 19.4169C180.382 19.4852 180.433 19.5482 180.489 19.6048C182.668 21.7719 184.33 23.6235 185.474 25.1596C189.447 30.4983 192.865 36.7515 195.53 43.3202C197.908 49.1788 199.82 54.9629 201.266 60.6725C202.436 65.288 203.289 69.1331 203.826 72.2077C204.396 75.4761 205.127 79.2585 205.534 82.4985C206.458 89.8932 207.06 97.321 207.339 104.782Z" fill="#B9E5DE"/>
<path d="M243.968 104.973C244.11 105.257 244.26 105.393 244.418 105.381L243.812 106.302C243.783 106.347 243.744 106.385 243.699 106.413C243.654 106.441 243.603 106.459 243.55 106.464C243.497 106.47 243.443 106.464 243.393 106.446C243.342 106.429 243.297 106.4 243.259 106.363L242.663 105.767C242.567 105.671 242.453 105.598 242.326 105.551C241.125 105.108 239.583 104.19 238.005 103.746C236.344 103.281 235.406 103.023 235.191 102.974C232.415 102.332 229.31 102.165 226.488 102.931C225.682 103.151 224.887 103.38 224.102 103.619L223.024 103.807C222.912 103.828 222.802 103.865 222.698 103.917C221.141 104.671 219.586 105.422 218.033 106.171C216.8 106.767 215.279 107.872 213.471 109.486C211.505 111.036 209.697 112.719 208.047 114.534C208.031 114.552 208.01 114.565 207.987 114.571C207.963 114.577 207.938 114.575 207.915 114.566C207.892 114.558 207.872 114.542 207.858 114.522C207.843 114.501 207.835 114.477 207.834 114.452L207.757 108.734C207.785 106.597 207.852 104.427 207.742 102.329C207.445 96.5574 206.876 90.0903 206.037 82.9272C205.757 80.5521 205.229 77.6985 204.974 75.8835C204.546 72.8892 204.254 71.04 204.098 70.3357C202.151 61.6531 200.092 54.2229 197.923 48.0453C196.581 44.2215 195.133 40.8291 193.58 37.8679C192.414 35.6381 191.574 33.887 190.5 32.0684C188.191 28.1667 185.518 24.376 182.481 20.6963C182.023 20.1386 181.436 19.6175 180.719 19.133C180.67 19.1004 180.632 19.0526 180.611 18.9968C180.59 18.941 180.587 18.8801 180.604 18.8228C180.62 18.7654 180.654 18.7148 180.701 18.6782C180.748 18.6415 180.805 18.6208 180.865 18.619C181.548 18.5907 182.156 18.6887 182.69 18.9133C183.851 19.4072 185.213 19.9685 186.778 20.5971C200.39 26.0704 212.088 35.8154 221.114 47.5597C224.214 51.5938 227.151 56.1064 229.923 61.0977C231.416 63.7894 232.387 65.6245 232.833 66.6029C234.064 69.2923 235.043 71.6142 235.768 73.5687C236.962 76.7756 237.704 78.7679 237.995 79.5454C238.67 81.3557 239.313 83.3798 239.923 85.6178C240.526 87.8346 241.057 89.9083 241.518 91.8391C242 93.855 242.263 95.1004 242.305 95.5755C242.371 96.275 242.586 97.5263 242.95 99.3295C243.3 101.067 243.486 103.022 243.507 105.196C243.507 105.247 243.523 105.296 243.552 105.337C243.581 105.378 243.622 105.41 243.67 105.427C243.717 105.444 243.769 105.447 243.817 105.434C243.866 105.421 243.91 105.394 243.943 105.356C243.985 105.304 243.994 105.176 243.968 104.973Z" fill="#2AA5A5"/>
<path d="M115.869 106.7C116.231 106.381 116.57 106.092 116.886 105.835C117.215 105.565 117.585 105.323 117.996 105.108C121.312 103.359 124.813 102.337 128.5 102.042C132.099 101.753 135.709 102.245 139.329 103.516C144.313 105.27 148.736 108.074 152.598 111.929C153.546 112.874 154.239 113.705 154.679 114.421C154.706 114.465 154.748 114.499 154.797 114.517C154.847 114.535 154.901 114.536 154.952 114.52C155.067 114.484 155.18 114.414 155.288 114.307C155.437 114.262 155.527 114.406 155.558 114.74C155.788 115.413 156.363 115.193 156.806 114.867C159.644 112.788 162.583 111.033 165.622 109.603C166.555 109.163 168.346 108.543 170.992 107.742C175.207 106.466 179.614 105.98 183.729 106.303C186.565 106.525 189.613 107.084 192.872 107.979C193.566 108.171 194.403 108.692 195.261 108.979C199.316 110.344 203.12 112.772 206.867 115.179C206.935 115.222 207.015 115.245 207.096 115.244C207.177 115.243 207.256 115.219 207.323 115.175C207.391 115.13 207.444 115.067 207.477 114.993C207.51 114.919 207.521 114.837 207.509 114.757C207.379 113.973 207.328 113.074 207.356 112.06C207.42 109.623 207.414 107.197 207.338 104.782C207.539 104.673 207.641 104.667 207.643 104.764C207.679 106.085 207.716 107.409 207.757 108.735L207.835 114.452C207.835 114.477 207.844 114.502 207.858 114.522C207.872 114.542 207.892 114.558 207.915 114.567C207.938 114.576 207.963 114.577 207.987 114.571C208.01 114.565 208.031 114.552 208.047 114.534C209.697 112.719 211.505 111.036 213.471 109.486C213.514 109.488 213.551 109.493 213.584 109.5C213.62 109.508 213.652 109.527 213.676 109.553C213.701 109.58 213.717 109.613 213.723 109.649L213.74 109.787C211.212 111.879 209.576 113.398 208.834 114.346C208.144 115.23 207.685 115.726 207.455 115.835C207.402 115.859 207.344 115.869 207.286 115.865C207.227 115.86 207.171 115.842 207.122 115.81C205.82 114.948 203.877 113.753 201.294 112.226C200.134 111.539 198.887 110.917 197.554 110.362C197.533 110.353 197.511 110.349 197.488 110.35C197.465 110.351 197.443 110.357 197.423 110.368C197.403 110.379 197.385 110.394 197.372 110.413C197.358 110.431 197.349 110.453 197.345 110.475L186.863 167.027C186.839 167.161 186.859 167.3 186.922 167.421C186.984 167.542 187.084 167.639 187.207 167.697L192.606 170.232C192.684 170.268 192.773 170.272 192.854 170.243C192.935 170.214 193.001 170.154 193.038 170.076L223.833 104.289L224.102 103.619C224.887 103.381 225.682 103.151 226.488 102.932C229.31 102.166 232.415 102.332 235.191 102.974C235.406 103.024 236.344 103.281 238.005 103.747C239.583 104.19 241.125 105.108 242.327 105.551C242.453 105.598 242.568 105.672 242.663 105.767L243.259 106.363C243.297 106.401 243.343 106.429 243.393 106.447C243.443 106.464 243.497 106.47 243.55 106.465C243.603 106.459 243.654 106.441 243.699 106.413C243.745 106.385 243.783 106.348 243.812 106.303L244.418 105.381C246.521 101.801 248.982 98.491 251.799 95.4518C252.153 95.0666 252.922 94.471 254.106 93.6652C255.085 92.9987 255.93 92.519 256.641 92.2259C259.009 91.2499 261.523 91.0419 264.185 91.602C264.175 91.732 264.057 91.8431 263.83 91.9352C261.174 91.4437 258.656 91.7403 256.276 92.825C255.635 93.1181 255.162 93.4761 254.854 93.8991C251.754 98.1601 248.997 102.139 246.584 105.835C245.886 106.909 244.634 108.451 243.713 109.816C239.201 116.499 234.413 123.543 229.349 130.947C227.569 133.551 220.418 144.002 207.895 162.298C205.125 166.344 202.476 170.176 199.947 173.794C199.794 174.012 199.642 174.352 199.493 174.815L199.221 174.826L198.909 174.719C198.691 174.645 198.492 174.526 198.324 174.372C197.787 173.883 197.099 173.442 196.26 173.05C196.135 172.991 196.016 172.921 195.902 172.841C194.258 171.671 193.286 171.015 192.989 170.873C190.729 169.803 188.375 168.665 185.927 167.46C185.729 167.361 185.521 167.282 185.307 167.226L183.743 166.814L183.548 166.233L194.119 109.493C194.154 109.308 194.119 109.116 194.02 108.955C193.921 108.795 193.765 108.677 193.584 108.625C191.991 108.169 190.324 107.76 188.582 107.398C181.915 106.02 175.414 106.476 169.078 108.766C168.699 108.905 168.295 108.862 168 108.997C167.946 109.021 167.901 109.063 167.872 109.115C167.842 109.167 167.83 109.228 167.837 109.288C169.14 119.835 169.922 126.366 170.184 128.88C171.025 136.908 171.862 144.337 172.694 151.167C172.71 151.29 173.148 155.55 174.006 163.947C174.011 164.001 174.03 164.052 174.062 164.097C174.094 164.142 174.137 164.178 174.186 164.202C174.489 164.341 174.817 164.386 175.172 164.336L175.402 164.478C175.422 164.491 175.437 164.509 175.445 164.531C175.454 164.552 175.455 164.576 175.449 164.599C175.443 164.621 175.43 164.641 175.412 164.656C175.394 164.67 175.372 164.679 175.349 164.68C175.195 164.685 175.05 164.712 174.913 164.762C172.836 164.648 170.617 164.312 168.674 164.468C166.84 164.617 165.674 164.69 165.175 164.687C164.908 164.685 164.644 164.733 164.395 164.829C164.145 164.924 163.541 165.042 162.584 165.184C162.417 165.21 162.251 165.254 162.091 165.315C161.269 165.624 160.645 165.816 160.219 165.889C159.591 165.995 159.013 166.213 158.486 166.541C157.72 167.016 156.703 167.08 155.778 167.552C155.411 167.741 155.044 167.91 154.675 168.059L154.282 167.789C154.4 167.747 154.405 167.64 154.296 167.47C150.786 161.898 146.121 155.137 141.967 148.732C141.444 147.928 140.198 146.06 138.227 143.127C128.801 129.093 121.225 118.019 114.692 107.926C113.129 105.516 110.977 102.793 109.634 100.691C107.658 97.6047 106.333 95.6326 105.66 94.7747C105.26 94.2666 104.655 93.7821 103.845 93.3213C101.909 92.2177 99.8567 91.6812 97.6872 91.7119C97.673 91.5488 97.6978 91.4035 97.7617 91.2759C100.442 91.2782 102.863 92.0061 105.025 93.4595C109.064 96.1773 112.387 99.7199 114.993 104.087C115.575 105.062 115.951 105.285 115.869 106.7ZM163.715 164.755C163.764 164.736 163.806 164.7 163.83 164.653C163.854 164.605 163.86 164.551 163.846 164.5L149.914 110.305C149.852 110.066 149.714 109.854 149.521 109.702C144.515 105.714 137.879 102.357 131.009 102.464C128.606 102.499 127.265 102.543 126.986 102.595C123.895 103.157 120.858 104.184 117.875 105.675C117.812 105.707 117.756 105.751 117.711 105.806C117.666 105.861 117.633 105.925 117.615 105.993C117.597 106.061 117.593 106.133 117.604 106.203C117.615 106.273 117.641 106.339 117.681 106.398C124.177 116.232 131.542 127.225 139.776 139.377C141.878 142.479 143.728 145.446 145.512 148.065C149.777 154.323 153.741 160.366 157.401 166.194C157.474 166.311 157.589 166.395 157.722 166.43C157.855 166.465 157.997 166.448 158.117 166.382C159.254 165.763 160.518 165.333 161.91 165.092C163.04 164.893 163.641 164.781 163.715 164.755ZM196.144 172.444C196.275 172.534 196.437 172.568 196.594 172.539C196.751 172.509 196.89 172.419 196.98 172.288L242.11 106.367C242.138 106.327 242.157 106.282 242.165 106.235C242.174 106.187 242.172 106.139 242.161 106.092C242.149 106.045 242.127 106.002 242.097 105.964C242.067 105.926 242.029 105.896 241.986 105.874C240.788 105.257 239.462 104.552 238.101 104.25C237.172 104.045 236.155 103.563 235.102 103.339C233.1 102.909 230.95 102.779 228.65 102.949C228.515 102.96 228.385 103.006 228.274 103.084C228.163 103.161 228.075 103.266 228.019 103.389C226.857 105.941 225.623 108.546 224.318 111.202C222.442 115.026 218.212 123.94 211.628 137.945C206.445 148.973 201.567 159.434 195.86 171.887C195.824 171.964 195.817 172.052 195.84 172.134C195.863 172.216 195.914 172.288 195.984 172.337L196.144 172.444ZM155.157 115.105C155.125 115.086 155.088 115.076 155.051 115.077C155.013 115.078 154.977 115.09 154.946 115.11C154.915 115.131 154.89 115.16 154.875 115.194C154.86 115.228 154.854 115.266 154.86 115.303C154.949 115.908 155.103 116.644 155.32 117.512C162.167 144.503 165.992 159.618 166.795 162.858C166.857 163.111 166.899 163.472 166.923 163.939C166.926 164.004 166.955 164.064 167.001 164.108C167.048 164.152 167.11 164.177 167.175 164.177H170.372C170.403 164.177 170.434 164.171 170.463 164.158C170.492 164.146 170.518 164.127 170.539 164.104C170.56 164.081 170.577 164.054 170.587 164.025C170.597 163.995 170.601 163.964 170.599 163.932C170.351 160.21 169.826 156.389 169.461 152.876C168.031 139.133 166.434 125.147 164.668 110.918C164.663 110.88 164.649 110.843 164.627 110.811C164.605 110.779 164.575 110.752 164.541 110.734C164.507 110.716 164.469 110.706 164.43 110.705C164.391 110.704 164.352 110.713 164.317 110.73C161.519 112.113 158.909 113.76 156.487 115.672C156.427 115.719 156.358 115.754 156.284 115.773C156.21 115.793 156.133 115.798 156.057 115.787C155.982 115.776 155.909 115.75 155.844 115.71C155.779 115.67 155.723 115.617 155.678 115.555C155.553 115.382 155.379 115.232 155.157 115.105Z" fill="black"/>
<path d="M224.103 103.619L223.834 104.289C223.801 104.163 223.756 104.097 223.699 104.09C223.574 104.076 223.463 104.092 223.366 104.14C221.922 104.844 220.483 105.553 219.048 106.267C217.287 107.146 215.461 108.56 213.742 109.787L213.724 109.649C213.718 109.613 213.702 109.579 213.678 109.553C213.653 109.526 213.621 109.508 213.586 109.5C213.553 109.493 213.515 109.488 213.472 109.485C215.28 107.871 216.801 106.767 218.035 106.171C219.587 105.422 221.142 104.67 222.7 103.916C222.803 103.865 222.913 103.828 223.026 103.807L224.103 103.619Z" fill="#0A3A45"/>
<path d="M183.548 166.233L183.743 166.814C182.855 166.625 181.978 166.403 181.113 166.148C178.943 165.506 177.011 165.148 174.913 164.762C175.05 164.712 175.195 164.685 175.349 164.68C175.372 164.679 175.394 164.67 175.412 164.656C175.43 164.641 175.443 164.621 175.449 164.599C175.455 164.576 175.453 164.552 175.445 164.531C175.437 164.509 175.422 164.491 175.402 164.478L175.172 164.336C177.242 164.592 180.882 165.134 183.172 166.229C183.249 166.266 183.334 166.279 183.417 166.265C183.46 166.258 183.503 166.247 183.548 166.233Z" fill="#523B09"/>
<ellipse cx="181.139" cy="201.847" rx="47.4345" ry="47.2249" fill="#693000" stroke="#1C1C1C" stroke-width="0.5" stroke-miterlimit="10" stroke-linejoin="round"/>
<ellipse cx="181.118" cy="195.731" rx="47.4142" ry="47.2046" fill="#FFE2C8" stroke="#1C1C1C" stroke-width="0.5" stroke-miterlimit="10" stroke-linejoin="round"/>
<ellipse cx="181.116" cy="195.735" rx="42.4232" ry="42.2357" fill="#FF9500" stroke="#1C1C1C" stroke-width="0.5" stroke-miterlimit="10" stroke-linejoin="round"/>
<path d="M201.526 191.487C202.406 185.744 197.916 182.657 191.775 180.596L193.288 174.69C193.553 173.658 192.923 172.609 191.887 172.357L190.739 172.079C189.722 171.832 188.696 172.448 188.436 173.462L186.965 179.206C185.688 178.895 184.373 178.602 183.068 178.313L184.541 172.562C184.805 171.53 184.175 170.481 183.14 170.23L181.992 169.951C180.975 169.704 179.948 170.32 179.688 171.334L178.163 177.283C177.348 177.101 172.793 175.995 170.186 175.361C169.168 175.114 168.144 175.731 167.884 176.746L167.538 178.097C167.273 179.13 167.904 180.179 168.941 180.429C169.804 180.638 170.631 180.838 170.589 180.827C172.56 181.307 173.103 182.612 172.856 183.581L167.394 204.891C167.239 205.495 166.541 206.348 165.163 206.015C165.218 206.027 164.151 205.769 163.174 205.532C162.278 205.315 161.354 205.77 160.979 206.612L160.144 208.488C159.659 209.576 160.277 210.838 161.434 211.122L169.014 212.984L167.481 218.98C167.218 220.012 167.847 221.06 168.882 221.311L170.027 221.59C171.044 221.837 172.071 221.22 172.33 220.206L173.856 214.25C175.184 214.601 176.47 214.925 177.734 215.231L176.23 221.107C175.965 222.139 176.595 223.187 177.63 223.439L178.779 223.718C179.796 223.965 180.822 223.348 181.082 222.335L182.626 216.311C190.921 217.839 197.159 217.221 199.787 209.919C201.904 204.039 199.682 200.645 195.316 198.433C198.496 197.718 200.887 195.684 201.526 191.482V191.487ZM190.41 206.659C188.904 212.54 178.734 209.36 175.434 208.565L178.108 198.14C181.407 198.94 191.98 200.525 190.41 206.659ZM191.916 191.402C190.543 196.75 182.078 194.032 179.331 193.365L181.754 183.909C184.501 184.576 193.344 185.819 191.916 191.398V191.402Z" fill="#FFE2C8" stroke="#1C1C1C" stroke-width="1.0515" stroke-miterlimit="10" stroke-linejoin="round"/>
<path d="M200.962 190.386C201.842 184.643 197.352 181.556 191.21 179.495L192.724 173.589C192.988 172.557 192.358 171.508 191.323 171.257L190.175 170.978C189.158 170.731 188.131 171.347 187.872 172.361L186.401 178.105C185.123 177.794 183.809 177.501 182.504 177.212L183.977 171.461C184.241 170.429 183.611 169.381 182.576 169.129L181.427 168.85C180.411 168.603 179.384 169.22 179.124 170.233L177.599 176.182C176.784 176 172.229 174.895 169.622 174.261C168.604 174.013 167.579 174.631 167.32 175.645L166.973 176.996C166.709 178.029 167.34 179.078 168.376 179.329C169.24 179.537 170.066 179.737 170.024 179.726C171.996 180.206 172.539 181.512 172.292 182.48L166.83 203.791C166.675 204.395 165.977 205.248 164.599 204.914C164.654 204.927 163.586 204.668 162.61 204.432C161.713 204.215 160.79 204.669 160.415 205.512L159.579 207.387C159.095 208.475 159.713 209.737 160.87 210.021L168.45 211.883L166.917 217.879C166.653 218.911 167.283 219.959 168.318 220.211L169.462 220.489C170.479 220.736 171.506 220.12 171.766 219.106L173.291 213.149C174.619 213.5 175.906 213.824 177.17 214.131L175.665 220.006C175.401 221.038 176.031 222.087 177.066 222.338L178.215 222.617C179.232 222.864 180.258 222.248 180.518 221.234L182.062 215.21C190.357 216.738 196.595 216.12 199.223 208.819C201.34 202.938 199.118 199.545 194.751 197.333C197.932 196.618 200.323 194.583 200.962 190.382V190.386ZM189.846 205.558C188.34 211.439 178.169 208.259 174.87 207.464L177.544 197.039C180.843 197.839 191.416 199.425 189.846 205.558ZM191.352 190.302C189.978 195.649 181.514 192.931 178.767 192.265L181.19 182.809C183.937 183.475 192.78 184.719 191.352 190.297V190.302Z" fill="#FFE2C8" stroke="#1C1C1C" stroke-width="0.5" stroke-miterlimit="10" stroke-linejoin="round"/>
</svg>
