<svg width="360" height="288" viewBox="0 0 360 288" fill="none" xmlns="http://www.w3.org/2000/svg">
<g clip-path="url(#clip0_18089_5823)">
<ellipse cx="138.352" cy="252" rx="94.5" ry="27" fill="#1C1C1C"/>
<ellipse cx="215.352" cy="255" rx="69.5" ry="20" fill="#1C1C1C"/>
<path d="M98.6306 228.281C129.797 269.465 171.192 264.393 191.087 216.951C210.983 169.51 201.846 97.6648 170.679 56.4807C139.512 15.2966 98.1178 20.3691 78.2223 67.8105C58.3267 115.252 67.4638 187.097 98.6306 228.281Z" fill="#CCD9FD" stroke="black"/>
<path d="M105.457 222.365C132.539 258.152 167.885 253.839 185.131 212.646C202.378 171.454 192.274 97.7474 165.191 61.9602C138.109 26.1729 102.173 30.5549 84.9266 71.7476C67.6803 112.94 78.3739 186.577 105.457 222.365Z" fill="#6B8DF3" stroke="black"/>
<path d="M120.224 28.9106C102.171 31.1228 87.4417 45.8262 78.2223 67.81L53.5672 70.8313C62.7866 48.8475 77.5154 34.1441 95.5687 31.9318L120.224 28.9106Z" fill="#4169E1" stroke="black"/>
<path d="M98.6311 228.281C67.4644 187.097 58.3272 115.252 78.2228 67.8104L53.5677 70.8317C33.6722 118.273 42.8093 190.118 73.9761 231.302L98.6311 228.281Z" fill="#4169E1" stroke="black"/>
<path d="M149.085 255.851C131.032 258.063 113.073 247.366 98.6305 228.281L73.9754 231.303C88.4177 250.387 106.377 261.085 124.43 258.872L149.085 255.851Z" fill="#4169E1" stroke="black"/>
<path fill-rule="evenodd" clip-rule="evenodd" d="M165.005 174.559L128.006 169.323L150.242 155.052L151.566 113.144L148.058 113.574L146.735 155.482L124.498 169.753L161.497 174.989L165.005 174.559Z" fill="#6478BF" stroke="black" stroke-linejoin="round"/>
<path fill-rule="evenodd" clip-rule="evenodd" d="M151.566 113.144L165.005 174.559L161.497 174.989L148.058 113.574L151.566 113.144Z" fill="#6478BF" stroke="black" stroke-linejoin="round"/>
<path fill-rule="evenodd" clip-rule="evenodd" d="M124.314 164.445L105.953 96.5278L102.445 96.9576L120.807 164.875L124.314 164.445Z" fill="#6478BF" stroke="black" stroke-linejoin="round"/>
<path fill-rule="evenodd" clip-rule="evenodd" d="M105.953 96.5278L147.873 108.267L146.551 150.174L124.314 164.445L120.807 164.875L143.043 150.604L144.366 108.697L102.445 96.9576L105.953 96.5278Z" fill="#6478BF" stroke="black" stroke-linejoin="round"/>
<path d="M164.984 174.533L128.048 169.38L150.246 155.058L151.566 113.147L164.984 174.533ZM147.838 108.221L146.527 150.143L124.328 164.465L105.98 96.564L147.838 108.221Z" fill="white"/>
<path d="M166.381 185.084C166.381 236.818 202.528 257.787 247.116 231.92C291.705 206.053 327.852 143.145 327.852 91.4114C327.852 39.6775 291.705 18.7081 247.116 44.5751C202.528 70.4421 166.381 133.35 166.381 185.084Z" fill="#FBFBFC" stroke="black"/>
<g filter="url(#filter0_di_18089_5823)">
<path d="M175.414 184.484C175.414 229.439 206.267 247.359 244.96 224.882C283.653 202.404 320.153 137.426 320.153 92.471C320.153 47.5164 288.786 29.295 250.093 51.7723C211.4 74.2496 175.414 139.53 175.414 184.484Z" fill="url(#paint0_linear_18089_5823)"/>
</g>
<path d="M304.205 38.8923C288.44 29.747 267.778 32.5881 247.117 44.5746L225.587 32.0849C246.249 20.0984 266.911 17.2573 282.675 26.4026L304.205 38.8923Z" fill="#1653D3" stroke="black"/>
<path d="M166.381 185.084C166.381 133.35 202.528 70.4424 247.117 44.5754L225.587 32.0857C180.998 57.9527 144.852 120.861 144.852 172.595L166.381 185.084Z" fill="#1653D3" stroke="black"/>
<path d="M190.028 237.603C174.263 228.457 166.381 209.057 166.381 185.084L144.852 172.594C144.852 196.567 152.734 215.968 168.498 225.113L190.028 237.603Z" fill="#1653D3" stroke="black"/>
<path fill-rule="evenodd" clip-rule="evenodd" d="M236.687 112.413C237.802 112.923 238.78 113.739 239.567 114.875L260.293 144.809C264.227 150.49 261.892 162.027 255.079 170.577C249.629 177.416 242.963 180.273 238.501 178.233L234.526 175.927C238.989 177.967 245.654 175.111 251.105 168.271C257.918 159.721 260.252 148.185 256.319 142.504L235.592 112.569C234.805 111.433 233.827 110.617 232.712 110.107L236.687 112.413Z" fill="#DDDDDD" stroke="black" stroke-linejoin="round"/>
<path fill-rule="evenodd" clip-rule="evenodd" d="M238.501 178.232C237.385 177.722 236.407 176.906 235.621 175.77L214.894 145.836C210.961 140.155 213.295 128.619 220.108 120.069C225.558 113.229 232.224 110.373 236.686 112.413L232.712 110.107C228.249 108.067 221.584 110.923 216.133 117.763C209.32 126.313 206.986 137.849 210.92 143.53L231.646 173.464C232.433 174.601 233.411 175.417 234.526 175.927L238.501 178.232Z" fill="#DDDDDD" stroke="black" stroke-linejoin="round"/>
<path d="M220.108 120.069C226.921 111.52 235.633 109.194 239.566 114.875L260.293 144.809C264.226 150.49 261.892 162.027 255.079 170.576C248.266 179.126 239.554 181.452 235.621 175.771L214.894 145.836C210.961 140.156 213.295 128.619 220.108 120.069Z" fill="white"/>
<path fill-rule="evenodd" clip-rule="evenodd" d="M241.2 182.631C242.19 183.36 243.373 183.816 244.736 183.946C251.549 184.59 260.261 176.808 264.194 166.563L284.921 112.581C288.068 104.385 287.203 97.0964 283.243 94.1785L279.268 91.8727C283.228 94.7907 284.093 102.08 280.946 110.275L260.22 164.258C256.286 174.503 247.574 182.285 240.761 181.64C239.399 181.511 238.215 181.054 237.225 180.325L241.2 182.631Z" fill="#DDDDDD" stroke="black" stroke-linejoin="round"/>
<path fill-rule="evenodd" clip-rule="evenodd" d="M283.242 94.1806C282.252 93.4511 281.069 92.9948 279.706 92.8659C272.893 92.2208 264.181 100.003 260.248 110.248L239.521 164.23C236.375 172.426 237.239 179.715 241.199 182.633L237.225 180.327C233.265 177.409 232.4 170.12 235.547 161.924L256.273 107.942C260.207 97.6973 268.919 89.9151 275.732 90.5601C277.094 90.6891 278.278 91.1454 279.268 91.8748L283.242 94.1806Z" fill="#DDDDDD" stroke="black" stroke-linejoin="round"/>
<path d="M279.706 92.8656C272.893 92.2206 264.181 100.003 260.248 110.248L239.521 164.23C235.588 174.475 237.922 183.302 244.735 183.947C251.548 184.592 260.26 176.81 264.194 166.565L284.92 112.583C288.854 102.339 286.519 93.5106 279.706 92.8656Z" fill="white"/>
</g>
<defs>
<filter id="filter0_di_18089_5823" x="161.414" y="30.1447" width="172.739" height="220.427" filterUnits="userSpaceOnUse" color-interpolation-filters="sRGB">
<feFlood flood-opacity="0" result="BackgroundImageFix"/>
<feColorMatrix in="SourceAlpha" type="matrix" values="0 0 0 0 0 0 0 0 0 0 0 0 0 0 0 0 0 0 127 0" result="hardAlpha"/>
<feOffset dy="2"/>
<feGaussianBlur stdDeviation="7"/>
<feComposite in2="hardAlpha" operator="out"/>
<feColorMatrix type="matrix" values="0 0 0 0 0.435294 0 0 0 0 0.266667 0 0 0 0 1 0 0 0 0.4 0"/>
<feBlend mode="normal" in2="BackgroundImageFix" result="effect1_dropShadow_18089_5823"/>
<feBlend mode="normal" in="SourceGraphic" in2="effect1_dropShadow_18089_5823" result="shape"/>
<feColorMatrix in="SourceAlpha" type="matrix" values="0 0 0 0 0 0 0 0 0 0 0 0 0 0 0 0 0 0 127 0" result="hardAlpha"/>
<feOffset dy="1"/>
<feGaussianBlur stdDeviation="0.5"/>
<feComposite in2="hardAlpha" operator="arithmetic" k2="-1" k3="1"/>
<feColorMatrix type="matrix" values="0 0 0 0 1 0 0 0 0 1 0 0 0 0 1 0 0 0 0.15 0"/>
<feBlend mode="normal" in2="shape" result="effect2_innerShadow_18089_5823"/>
</filter>
<linearGradient id="paint0_linear_18089_5823" x1="321.382" y1="42.1446" x2="147.958" y2="72.9192" gradientUnits="userSpaceOnUse">
<stop stop-color="#0385FF"/>
<stop offset="1" stop-color="#DB00FF"/>
</linearGradient>
<clipPath id="clip0_18089_5823">
<rect width="360" height="288" fill="white"/>
</clipPath>
</defs>
</svg>
