<svg width="360" height="360" viewBox="0 0 360 360" fill="none" xmlns="http://www.w3.org/2000/svg">
<g clip-path="url(#clip0_18087_5581)">
<g clip-path="url(#clip1_18087_5581)">
<path d="M159.187 355.249L71.8713 304.994C65.933 301.578 65.9482 293.03 71.8973 289.633L177.929 228.383C183.992 224.919 191.441 224.901 197.52 228.339L285.252 277.92C291.232 281.3 291.266 289.876 285.313 293.303L178.972 355.252C172.85 358.774 165.309 358.774 159.189 355.252L159.187 355.249Z" fill="#1C1C1C" stroke="#1C1C1C" stroke-width="0.44" stroke-miterlimit="10"/>
<path d="M203.396 104.285L194.508 99.2415C191.401 97.1821 187.219 96.7642 183.528 98.8882L79.0421 159.027C72.4836 162.801 68.4426 169.778 68.4426 177.327V262.805C68.4426 266.739 70.5474 269.944 73.5101 271.711H73.5079L73.6138 271.771C73.6505 271.793 73.6894 271.814 73.7283 271.836L83.4461 277.353C84.3364 276.222 85.0539 275.076 86.0155 274.005C86.5795 273.374 87.15 272.719 87.7378 272.075C87.6513 271.192 87.5714 270.403 87.5044 269.811L188.548 211.656C195.107 207.882 199.148 200.904 199.148 193.356V107.878C199.148 107.783 199.146 107.69 199.143 107.598L199.226 107.654L203.401 104.287L203.396 104.285Z" fill="#FF9500" stroke="#1C1C1C" stroke-width="0.44" stroke-miterlimit="10"/>
<path d="M89.0948 164.74L193.581 104.603C200.52 100.61 209.196 105.603 209.196 113.591V199.069C209.196 206.62 205.155 213.595 198.597 217.369L94.1104 277.506C87.1716 281.499 78.4954 276.506 78.4954 268.518V183.04C78.4954 175.489 82.5363 168.514 89.0948 164.74Z" fill="#1C1C1C" stroke="#1C1C1C" stroke-width="0.44" stroke-miterlimit="10"/>
<path d="M200.407 102.591L104.595 46.5518C98.7841 43.1546 91.3072 45.2355 88.1046 51.1423L57.2484 108.052C53.739 114.523 56.0491 122.603 62.452 126.259L163.2 183.912L203.919 116.32C206.782 111.567 205.204 105.398 200.407 102.593V102.591Z" fill="#4169E1" stroke="#1C1C1C" stroke-width="0.44" stroke-miterlimit="10"/>
<path d="M207.651 106.586L111.841 50.5465C106.03 47.1493 98.5535 49.2303 95.351 55.1371L64.4948 112.044C60.9854 118.516 63.2954 126.596 69.6983 130.252L170.446 187.904L211.165 120.312C214.028 115.56 212.451 109.39 207.654 106.586H207.651Z" fill="#CCD9FD" stroke="#1C1C1C" stroke-width="0.44" stroke-miterlimit="10"/>
<path d="M67.3674 106.734L154.756 156.882L159.519 136.624L76.934 89.0913L67.3674 106.734Z" fill="#1C1C1C" stroke="#1C1C1C" stroke-width="0.44" stroke-miterlimit="10"/>
<path d="M223.341 115.779L214.226 110.57C214.077 110.482 213.928 110.396 213.777 110.314L213.751 110.299C210.76 108.702 206.995 108.532 203.64 110.465L99.1532 170.601C92.5947 174.375 88.5537 181.353 88.5537 188.901V274.379C88.5537 278.291 90.6347 281.482 93.5714 283.255L93.593 283.268C93.7465 283.36 93.9021 283.449 94.0598 283.533L103.663 288.991C104.553 287.86 105.113 286.617 106.075 285.547C106.639 284.916 107.209 284.261 107.797 283.617C107.713 282.761 107.635 281.992 107.57 281.406L208.655 223.228C215.214 219.454 219.255 212.476 219.255 204.928V119.45C219.255 119.056 219.233 118.67 219.192 118.293L223.343 115.779H223.341Z" fill="#FFE2C8" stroke="#1C1C1C" stroke-width="0.44" stroke-miterlimit="10"/>
<path d="M109.206 176.312L213.692 116.176C220.631 112.182 229.307 117.175 229.307 125.163V210.641C229.307 218.192 225.266 225.167 218.708 228.941L114.221 289.078C107.283 293.072 98.6064 288.078 98.6064 280.09V194.612C98.6064 187.062 102.647 180.086 109.206 176.312Z" fill="#1C1C1C" stroke="#1C1C1C" stroke-width="0.44" stroke-miterlimit="10"/>
<path d="M191.768 16.7226L195.569 14.0643L186.474 8.84683V8.8576C183.8 7.43153 180.453 7.34105 177.579 9.01701L119.084 43.1158C113.28 46.5 110.769 53.5614 113.137 59.8323L159.306 182.061L234.317 137.812L191.768 16.7226Z" fill="#10464C" stroke="#1C1C1C" stroke-width="0.44" stroke-miterlimit="10"/>
<path d="M168.121 187.078L121.952 64.8491C119.584 58.576 122.095 51.5146 127.899 48.1325L186.394 14.0316C191.334 11.1515 197.681 13.478 199.574 18.8613L243.132 142.829L168.121 187.078Z" fill="#B9E5DE" stroke="#1C1C1C" stroke-width="0.44" stroke-miterlimit="10"/>
<path d="M178.045 78.2038C174.551 80.2288 170.071 78.5679 168.755 74.7571L160.001 49.4001C158.711 45.9857 160.079 42.1405 163.238 40.2965L183.614 28.4182C186.657 26.6453 190.566 28.0779 191.731 31.3932L200.089 58.2344C201.2 61.7975 199.692 65.6535 196.457 67.5276L178.043 78.2017L178.045 78.2038Z" fill="white" stroke="#1C1C1C" stroke-width="0.44" stroke-miterlimit="10"/>
<path d="M200.089 58.2368L191.731 31.3956C190.566 28.0803 186.657 26.6477 183.614 28.4206L163.238 40.2989C160.079 42.1407 158.711 45.9859 160.001 49.4025L161.194 52.8578L164.507 50.9557C168.418 48.7088 173.25 49.926 175.718 53.3985C175.236 48.8424 178.266 44.3811 182.493 43.4332C186.722 42.4832 190.546 45.4108 191.035 49.9712C191.523 54.5316 188.491 58.9994 184.262 59.9494C181.518 60.5655 178.944 59.5487 177.343 57.513C178.212 62.4591 175.923 67.5322 171.437 70.1129L168.062 72.056C167.995 72.0948 167.926 72.1228 167.856 72.1465L168.76 74.7638C170.076 78.5746 174.555 80.2376 178.05 78.2105L196.463 67.5365C199.698 65.6602 201.204 61.8063 200.096 58.2433L200.089 58.2368Z" fill="#E6F7F4" stroke="#1C1C1C" stroke-width="0.44" stroke-linejoin="round"/>
<path d="M142.361 51.8774L140.618 52.96C138.102 54.5235 137.029 57.6268 138.042 60.4033L175.173 162.146L185.042 155.269L147.992 53.8149C147.158 51.5324 144.43 50.5941 142.363 51.8795L142.361 51.8774Z" fill="#1C1C1C" stroke="#1C1C1C" stroke-width="0.44" stroke-miterlimit="10"/>
<path d="M243.363 127.311L234.287 122.113C231.233 120.297 227.268 120.01 223.748 122.035L119.261 182.172C112.703 185.946 108.662 192.923 108.662 200.472V285.95C108.662 289.994 110.885 293.268 113.98 295L123.693 300.515C124.584 299.384 125.526 298.365 126.485 297.292C127.049 296.661 127.62 296.006 128.208 295.362C128.108 294.334 128.015 293.436 127.942 292.824L228.765 234.797C235.324 231.023 239.365 224.045 239.365 216.497V131.018C239.365 130.775 239.356 130.534 239.341 130.297L243.367 127.307L243.363 127.311Z" fill="#FFE2C8" stroke="#1C1C1C" stroke-width="0.44" stroke-miterlimit="10"/>
<path d="M129.314 187.885L233.8 127.749C240.739 123.755 249.415 128.748 249.415 136.736V222.215C249.415 229.765 245.374 236.74 238.816 240.514L134.33 300.651C127.391 304.645 118.715 299.651 118.715 291.664V206.185C118.715 198.635 122.756 191.659 129.314 187.885Z" fill="#1C1C1C" stroke="#1C1C1C" stroke-width="0.44" stroke-miterlimit="10"/>
<path d="M243.09 114.971L243.455 112.957C243.455 112.957 236.65 109.189 236.456 109.086L236.408 109.06C233.75 107.666 230.727 106.919 227.425 106.865C224.886 106.824 222.85 104.762 222.85 102.233V79.7391L228.961 78.6555V7.26555C228.961 7.26555 220.311 2.61679 220.136 2.53709C218.844 1.94253 217.275 1.92314 215.866 2.73312L206.699 8.00874C205.991 8.41588 205.403 9.00183 204.994 9.7084L197.626 22.4311C197.217 23.1376 197.001 23.9369 197.001 24.7511V30.7463C197.001 32.405 197.889 33.9366 199.328 34.766L203.287 37.0451C204.726 37.8745 205.615 39.4061 205.615 41.0627V47.0492C205.619 47.87 205.401 48.6756 204.986 49.3865L197.634 61.9842C197.221 62.693 197.003 63.4986 197.003 64.3194V70.4179C197.003 72.0766 197.891 73.6104 199.333 74.4376L203.294 76.7168C204.735 77.5461 205.623 79.0799 205.623 80.7386V86.7316C205.621 87.5459 205.405 88.3451 204.997 89.0495L197.628 101.772C197.219 102.479 197.003 103.278 197.003 104.092V120.184C197.003 121.39 196.528 122.547 195.687 123.418C181.552 138.066 171.571 159.733 171.59 178.324C171.603 191.018 176.204 199.756 183.592 203.517L191.56 207.799L194.855 205.503C199.475 205.1 204.566 203.416 209.926 200.331C231.099 188.145 248.261 158.509 248.261 134.139C248.261 126.067 246.377 119.585 243.09 114.969V114.971Z" fill="#9484C4" stroke="#1C1C1C" stroke-width="0.44" stroke-miterlimit="10"/>
<path d="M231.464 106.858V11.3795C231.464 7.80573 227.583 5.57183 224.48 7.35981L215.313 12.6354C214.605 13.0426 214.017 13.6285 213.608 14.3351L206.24 27.0578C205.831 27.7643 205.615 28.5635 205.615 29.3778V35.373C205.615 37.0317 206.503 38.5633 207.942 39.3927L211.901 41.6718C213.34 42.5012 214.229 44.0328 214.229 45.6894V51.6759C214.233 52.4966 214.015 53.3023 213.6 54.0132L206.248 66.6109C205.835 67.3197 205.617 68.1253 205.617 68.9461V75.0446C205.617 76.7033 206.505 78.2371 207.947 79.0643L211.908 81.3435C213.349 82.1728 214.237 83.7066 214.237 85.3653V91.3583C214.235 92.1726 214.019 92.9718 213.611 93.6762L206.242 106.399C205.833 107.105 205.617 107.905 205.617 108.719V124.811C205.617 126.017 205.142 127.174 204.301 128.044C190.166 142.693 180.185 164.36 180.204 182.95C180.23 207.418 197.285 217.191 218.54 204.958C239.713 192.771 256.875 163.136 256.875 138.766C256.875 121.651 248.41 111.687 236.039 111.487C233.5 111.446 231.464 109.385 231.464 106.856V106.858Z" fill="#EADBFE" stroke="#1C1C1C" stroke-width="0.44" stroke-miterlimit="10"/>
<path d="M263.639 139.015L254.63 133.83C251.546 131.887 247.464 131.531 243.853 133.61L139.367 193.746C132.808 197.521 128.767 204.498 128.767 212.046V297.525C128.767 301.525 130.943 304.774 133.986 306.521L143.846 312.122C144.737 310.991 145.521 309.881 146.483 308.808C147.047 308.177 147.617 307.522 148.205 306.878C148.112 305.915 148.023 305.062 147.954 304.457L248.871 246.376C255.429 242.601 259.47 235.624 259.47 228.076V142.597C259.47 142.457 259.466 142.319 259.461 142.181L263.643 139.015H263.639Z" fill="#FFE2C8" stroke="#1C1C1C" stroke-width="0.44" stroke-miterlimit="10"/>
<path d="M149.419 199.459L253.905 139.322C260.844 135.328 269.52 140.322 269.52 148.309V233.788C269.52 241.338 265.479 248.314 258.921 252.088L154.435 312.224C147.496 316.218 138.82 311.225 138.82 303.237V217.758C138.82 210.208 142.861 203.233 149.419 199.459Z" fill="#1C1C1C" stroke="#1C1C1C" stroke-width="0.44" stroke-miterlimit="10"/>
<path d="M258.393 122.345L258.944 121.188L253.507 118.073H253.505C246.666 113.976 237.134 114.474 226.588 120.544C205.776 132.521 188.906 161.653 188.906 185.609C188.906 209.566 205.776 219.275 226.588 207.298C247.4 195.321 264.271 166.189 264.271 142.233C264.271 133.67 262.114 126.927 258.393 122.345Z" fill="#4169E1" stroke="#1C1C1C" stroke-width="0.44" stroke-miterlimit="10"/>
<path d="M234.579 124.935C255.391 112.958 272.261 122.667 272.261 146.624C272.261 170.581 255.391 199.712 234.579 211.689C213.767 223.666 196.896 213.957 196.896 190.001C196.896 166.044 213.767 136.913 234.579 124.935Z" fill="#CCD9FD" stroke="#1C1C1C" stroke-width="0.44" stroke-miterlimit="10"/>
<path d="M234.578 132.932C251.555 123.162 265.316 131.081 265.316 150.622C265.316 170.163 251.555 193.923 234.578 203.695C217.602 213.464 203.841 205.545 203.841 186.005C203.841 166.464 217.602 142.703 234.578 132.932Z" fill="#4169E1" stroke="#1C1C1C" stroke-width="0.44" stroke-miterlimit="10"/>
<path d="M233.577 132.793C249.998 123.343 263.309 131.003 263.309 149.906C263.309 168.809 249.998 191.794 233.577 201.245C217.155 210.695 203.844 203.035 203.844 184.132C203.844 165.229 217.155 142.244 233.577 132.793Z" fill="#CCD9FD" stroke="#1C1C1C" stroke-width="0.44" stroke-miterlimit="10"/>
<path d="M245.425 153.394C247.567 150.957 248.924 148.01 248.665 144.499C248.624 143.941 248.537 143.454 248.408 143.03L248.885 142.213L247.007 141.13C246.992 141.121 246.979 141.113 246.966 141.106H246.96V141.104C245.369 140.251 242.819 140.91 239.88 142.248L239.934 138.457L241.116 136.554L239.749 135.759C239.563 135.602 239.29 135.555 239.048 135.691L237.032 136.813C236.591 137.058 236.317 137.517 236.311 138.021L236.224 144.103C235.262 144.637 234.277 145.208 233.3 145.777L233.35 142.321L234.584 140.333L233.175 139.534C232.968 139.411 232.71 139.318 232.464 139.454L230.45 140.574C230.009 140.82 229.735 141.279 229.728 141.78L229.64 147.946C228.847 148.407 228.069 148.857 227.31 149.279V149.258L222.874 151.726C222.496 151.937 222.258 152.334 222.251 152.765L222.212 155.513C222.208 155.77 222.357 155.977 222.558 156.076L224.207 157.013L225.136 155.292L224.832 155.124C224.847 155.117 224.855 155.115 224.853 155.119C226.336 154.294 226.805 155.024 226.934 155.809L226.664 174.929C226.591 175.507 226.305 176.523 225.27 177.101C225.318 177.122 222.61 178.581 222.61 178.581L221.811 184.061L226.573 181.409C227.459 180.916 228.332 180.448 229.188 179.977L229.091 187.003L232.747 185L232.844 178.016C233.847 177.482 234.819 176.95 235.768 176.42L235.669 183.402L239.329 181.394L239.431 174.285C245.592 170.451 249.925 166.252 250.553 159.247C251.061 153.605 248.907 152.414 245.425 153.385V153.394ZM233.313 150.72C235.379 149.57 241.881 145.193 241.812 150.199C241.743 154.999 235.26 158.053 233.194 159.204L233.313 150.72ZM243.329 162.446C243.256 167.721 235.481 171.452 233.002 172.835L233.136 163.482C235.617 162.101 243.409 156.942 243.331 162.444L243.329 162.446Z" fill="#4169E1" stroke="#1C1C1C" stroke-width="0.44" stroke-miterlimit="10"/>
<path d="M250.297 145.43C249.951 140.63 246.232 141.027 241.515 143.177L241.601 137.164C241.608 136.69 241.098 136.387 240.683 136.617L238.667 137.739C238.226 137.985 237.951 138.444 237.945 138.948L237.858 145.029C236.897 145.563 235.911 146.134 234.935 146.703L235.017 140.928C235.023 140.454 234.513 140.15 234.098 140.38L232.084 141.501C231.644 141.746 231.369 142.205 231.363 142.707L231.274 148.872C230.481 149.333 229.703 149.783 228.944 150.206V150.184L224.508 152.653C224.13 152.864 223.892 153.26 223.886 153.691L223.847 156.44C223.84 156.92 224.361 157.226 224.778 156.987C225.554 156.543 226.518 155.998 226.49 156.048C227.972 155.223 228.441 155.953 228.571 156.737L228.301 175.858C228.227 176.435 227.942 177.452 226.907 178.029C226.954 178.051 224.247 179.509 224.247 179.509L223.447 184.99L228.21 182.338C229.096 181.844 229.969 181.377 230.825 180.905L230.727 187.932L234.384 185.929L234.481 178.945C235.484 178.411 236.456 177.879 237.405 177.349L237.305 184.33L240.966 182.323L241.067 175.214C247.228 171.379 251.561 167.181 252.19 160.175C252.698 154.534 250.543 153.342 247.062 154.314C249.203 151.877 250.56 148.93 250.301 145.419L250.297 145.43ZM244.964 163.374C244.89 168.65 237.115 172.381 234.636 173.764L234.77 164.41C237.251 163.03 245.044 157.87 244.966 163.372L244.964 163.374ZM243.447 151.128C243.377 155.927 236.895 158.982 234.829 160.132L234.948 151.651C237.013 150.501 243.516 146.124 243.447 151.13V151.128Z" fill="#CCD9FD" stroke="#1C1C1C" stroke-width="0.44" stroke-miterlimit="10"/>
<path d="M283.375 150.461L274.919 145.595C271.814 143.549 267.643 143.137 263.961 145.257L159.475 205.393C152.916 209.167 148.875 216.145 148.875 223.693V309.172C148.875 313.129 151.004 316.349 153.995 318.107L163.842 323.697H164.138L163.096 318.833C163.568 318.646 164.032 318.424 164.49 318.159L268.977 258.022C275.535 254.248 279.576 247.271 279.576 239.723V155.681L283.375 150.461Z" fill="#FFE2C8" stroke="#1C1C1C" stroke-width="0.44" stroke-miterlimit="10"/>
<path d="M169.527 211.107L274.014 150.97C280.952 146.976 289.629 151.97 289.629 159.958V245.436C289.629 252.987 285.588 259.962 279.029 263.736L174.543 323.872C167.604 327.866 158.928 322.873 158.928 314.885V229.407C158.928 221.856 162.969 214.881 169.527 211.107Z" fill="#FF9500" stroke="#1C1C1C" stroke-width="0.44" stroke-miterlimit="10"/>
<path d="M299.314 186.229L290.884 181.358C290.437 181.046 289.964 180.772 289.469 180.54L289.432 180.518H289.428C286.835 179.32 283.686 179.277 280.858 180.906L264.75 190.283C258.306 193.993 254.336 200.845 254.336 208.264V226.646C254.336 229.914 255.959 232.617 258.312 234.254V234.259L258.345 234.278C258.775 234.575 259.229 234.836 259.702 235.058L269.72 240.814L275.211 230.687L284.432 225.319C290.876 221.609 294.845 214.757 294.845 207.338V194.471L299.314 186.229Z" fill="#FFE2C8" stroke="#1C1C1C" stroke-width="0.44" stroke-miterlimit="10"/>
<path d="M274.297 195.828L290.405 186.451C296.622 182.873 304.391 187.345 304.391 194.501V212.883C304.391 220.3 300.421 227.154 293.977 230.864L277.869 240.241C271.652 243.819 263.884 239.347 263.884 232.191V213.809C263.884 206.392 267.853 199.537 274.297 195.828Z" fill="#FF9500" stroke="#1C1C1C" stroke-width="0.44" stroke-miterlimit="10"/>
<path d="M285.792 203.027C290.742 200.177 294.755 202.489 294.755 208.186C294.755 213.884 290.742 220.814 285.792 223.664C280.841 226.514 276.828 224.203 276.828 218.505C276.828 212.807 280.841 205.877 285.792 203.027Z" fill="#1C1C1C" stroke="#1C1C1C" stroke-width="0.44" stroke-miterlimit="10"/>
<path d="M91.7756 79.9147L96.9079 70.9899C98.1137 68.8939 100.795 68.17 102.898 69.3742L113.474 75.4318C116.076 76.9225 116.946 80.2465 115.41 82.8143L110.103 91.6809C108.873 93.7382 106.211 94.4232 104.134 93.2212L93.7378 87.2024C91.1835 85.7246 90.3062 82.4653 91.7756 79.9104V79.9147Z" fill="white" stroke="#1C1C1C" stroke-width="0.44" stroke-miterlimit="10"/>
</g>
</g>
<defs>
<clipPath id="clip0_18087_5581">
<rect width="360" height="360" rx="5" fill="white"/>
</clipPath>
<clipPath id="clip1_18087_5581">
<rect width="249" height="356" fill="white" transform="translate(55.5 2)"/>
</clipPath>
</defs>
</svg>
