<svg width="360" height="289" viewBox="0 0 360 289" fill="none" xmlns="http://www.w3.org/2000/svg">
<path d="M255.035 68.5902L255.622 68.6196" stroke="#3A2C16" stroke-width="2"/>
<path d="M255.622 68.6191C255.399 70.1108 255.178 71.6044 254.959 73.1C254.251 77.9979 253.075 82.5238 251.429 86.6777C251.419 86.7034 251.416 86.7316 251.423 86.7586C251.429 86.7855 251.443 86.8099 251.463 86.8285C251.484 86.8471 251.51 86.8589 251.537 86.8624C251.564 86.8659 251.592 86.8609 251.617 86.848L270.433 77.2579C270.5 77.2227 270.562 77.1834 270.621 77.1404C272.31 75.8543 274.227 75.1966 275.951 74.2569C284.457 69.6214 288.773 67.2684 288.898 67.1979C292.815 64.9428 297.694 62.7053 300.948 60.6733C303.745 58.9291 306.806 57.8074 309.427 56.2923C309.58 56.2077 309.755 56.1671 309.931 56.1748C310.256 56.1944 310.629 56.1122 311.051 55.9282C313.42 54.8789 315.836 53.5105 318.299 51.8231" stroke="black" stroke-width="2"/>
<path d="M318.299 51.8238C318.389 51.5576 318.993 51.542 320.111 51.7769" stroke="#3A2C16" stroke-width="2"/>
<path d="M320.111 51.7767C315.983 54.4664 311.866 57.1366 307.762 59.7871C291.988 69.9626 281.137 76.9433 275.206 80.7293C272.796 82.2679 270.779 83.2722 268.897 84.6699C264.3 88.0819 259.421 90.7775 252.854 95.1762C251.06 96.3781 249.117 97.4704 247.025 98.4532" stroke="black" stroke-width="2"/>
<path d="M247.026 98.4531C246.831 97.9441 247.216 97.4723 248.181 97.0378C250.273 96.0942 251.821 95.2525 252.825 94.5125C256.34 91.9168 260.261 89.3445 264.588 86.7957C267.098 85.3158 268.839 83.6362 271.519 82.168C275.629 79.9129 280.297 76.5537 285.604 73.312C288.328 71.648 291.485 69.5671 295.073 67.0693C299.979 63.6474 304.194 60.9675 307.716 59.0295C307.777 58.9957 307.831 58.948 307.871 58.8897C307.911 58.8315 307.938 58.7643 307.949 58.6929C307.961 58.6215 307.956 58.5478 307.936 58.477C307.916 58.4062 307.881 58.3402 307.833 58.2837C307.649 58.0605 307.454 58.0194 307.247 58.1603C307.051 58.2934 306.949 58.362 306.942 58.3659C303.212 60.1805 299.911 62.3711 296.686 63.9626C296.17 64.2171 293.447 65.6735 288.518 68.3319C286.249 69.5534 283.405 70.7397 280.96 72.3077C279.427 73.2904 277.563 74.3299 275.366 75.4261C266.281 79.9638 258.951 83.783 253.377 86.8838C252.691 87.2597 251.254 87.4417 250.92 88.2228C249.911 90.568 248.928 92.4766 247.97 93.9487C247.951 93.98 247.607 94.6593 246.938 95.9866C246.645 96.5699 246.225 97.21 245.678 97.9069C245.259 98.4355 245.185 98.9699 245.455 99.5102" stroke="black" stroke-width="2"/>
<path d="M245.454 99.5099C244.254 100.559 243.138 101.718 242.106 102.987C240.245 105.257 239.215 106.495 239.016 106.698C235.873 109.877 232.347 112.551 228.438 114.72C227.316 115.343 224.097 117.005 218.78 119.706C215.332 121.456 211.744 123.007 208.014 124.357C207.812 124.428 207.619 124.522 207.44 124.639L177.875 143.89" stroke="#AC987B" stroke-width="2"/>
<path d="M177.875 143.89C177.922 143.714 177.902 143.573 177.816 143.467C177.761 143.397 177.666 143.371 177.529 143.391" stroke="#3A2C16" stroke-width="2"/>
<path d="M177.528 143.391C184.623 138.764 191.648 133.948 198.861 129.514C201.609 127.823 203.53 126.54 204.625 125.667C205.023 125.346 205.334 125.018 205.557 124.681C205.566 124.667 205.57 124.65 205.57 124.634C205.57 124.617 205.565 124.601 205.556 124.588C205.547 124.574 205.535 124.564 205.52 124.559C205.506 124.553 205.49 124.553 205.475 124.557C197.997 126.264 190.501 126.12 182.987 124.123C182.423 123.971 181.823 124.023 181.293 124.27L149.465 138.963" stroke="#8E7B60" stroke-width="2"/>
<path d="M149.466 138.963C149.454 138.763 149.425 138.652 149.378 138.628C149.264 138.566 149.11 138.531 148.915 138.523" stroke="#3A2C16" stroke-width="2"/>
<path d="M148.914 138.523L180.707 123.512C180.768 123.482 180.818 123.433 180.849 123.372C180.88 123.311 180.891 123.242 180.88 123.175C180.869 123.108 180.836 123.046 180.787 122.999C180.738 122.952 180.675 122.921 180.608 122.913C178.192 122.625 176.574 122.226 174.398 121.086C170.839 119.225 167.491 117.762 163.92 115.378C157.047 110.79 151.035 105.287 145.883 98.8699" stroke="#AC987B" stroke-width="2"/>
<path d="M145.882 98.8698C144.997 97.7716 143.853 98.6643 142.681 98.9755C105.915 108.599 69.2552 118.402 32.7009 128.386C32.6735 128.394 32.6489 128.41 32.6299 128.431C32.6109 128.452 32.5982 128.478 32.5933 128.507C32.5884 128.535 32.5915 128.564 32.6022 128.59C32.6129 128.617 32.6309 128.639 32.6539 128.656C33.9557 129.584 35.5076 130.489 37.3097 131.369C51.2184 138.152 75.8578 151.748 94.7565 161.132C94.8777 161.191 94.9847 161.277 95.0698 161.382C95.1549 161.488 95.2161 161.611 95.2491 161.743L95.5305 162.888C95.5437 162.94 95.5681 162.988 95.6019 163.03C95.6358 163.071 95.6782 163.104 95.7264 163.127C95.7745 163.15 95.8271 163.162 95.8804 163.162C95.9337 163.163 95.9864 163.151 96.0348 163.129L148.914 138.522" stroke="black" stroke-width="3"/>
<path d="M149.465 138.963L96.2637 163.635C96.1916 163.669 96.132 163.725 96.0931 163.795C96.0543 163.864 96.038 163.944 96.0467 164.022C97.067 174.491 97.6651 180.836 97.841 183.056C99.1603 199.875 99.9578 207.357 100.497 215.702C100.751 219.625 101.158 222.969 101.717 225.733C101.726 225.776 101.746 225.817 101.774 225.851C101.802 225.885 101.838 225.912 101.879 225.93C101.92 225.947 101.965 225.954 102.009 225.95C102.053 225.947 102.096 225.933 102.133 225.909C102.946 225.384 103.671 224.987 104.309 224.717C116.837 219.396 127.412 214.968 136.031 211.433C137.28 210.922 138.617 210.528 139.725 209.994C143.236 208.31 146.639 206.899 149.934 205.76C149.968 205.748 149.999 205.727 150.022 205.7C150.045 205.673 150.061 205.639 150.067 205.604C150.073 205.568 150.069 205.532 150.056 205.498C150.043 205.465 150.021 205.435 149.993 205.413C149.18 204.775 148.519 204.305 148.011 204.004C145.697 202.622 142.841 200.825 139.444 198.613C138.183 197.796 136.823 197.18 135.433 196.334C128.706 192.254 122.893 188.672 117.995 185.587C117.983 185.58 117.971 185.575 117.957 185.574C117.944 185.572 117.931 185.573 117.918 185.577C117.905 185.581 117.893 185.587 117.883 185.596C117.873 185.605 117.865 185.616 117.86 185.628L102.198 224.57C102.188 224.597 102.171 224.622 102.15 224.642C102.129 224.662 102.104 224.677 102.077 224.686C102.049 224.695 102.02 224.698 101.991 224.694C101.962 224.69 101.935 224.68 101.91 224.664L101.776 224.576C101.744 224.555 101.721 224.523 101.709 224.487C101.697 224.451 101.698 224.412 101.711 224.376L117.209 186.027C117.228 185.973 117.244 185.916 117.256 185.857L117.608 183.361C117.633 183.175 117.699 182.997 117.8 182.838C117.902 182.68 118.036 182.546 118.194 182.445C119.437 181.652 120.322 180.378 121.747 179.567C125.477 177.457 129.714 174.769 134.46 171.504C139.075 168.327 143.566 165.59 148.392 162.384C158.052 155.971 167.764 149.64 177.529 143.391" stroke="#6C6661" stroke-width="2"/>
<path d="M177.875 143.89C162.036 153.968 146.325 164.247 130.743 174.728C127.526 176.893 124.14 178.937 120.587 180.859C120.502 180.905 120.43 180.973 120.379 181.056C120.329 181.139 120.301 181.234 120.299 181.331C120.296 181.428 120.319 181.524 120.366 181.609C120.412 181.694 120.481 181.766 120.563 181.816C128.73 186.851 145.263 196.895 170.165 211.949C178.995 217.286 188.147 222.755 197.619 228.358C201.747 230.801 204.364 232.341 205.47 232.979C205.553 233.028 205.652 233.044 205.746 233.022C205.84 233 205.921 232.943 205.974 232.862L327.388 49.1749C327.403 49.1542 327.41 49.1297 327.409 49.1047C327.408 49.0798 327.398 49.0558 327.382 49.0361C327.366 49.0165 327.343 49.0023 327.318 48.9956C327.293 48.9888 327.266 48.9899 327.242 48.9987L320.112 51.7765" stroke="black" stroke-width="2"/>
<path d="M318.299 51.8231C311.02 53.8081 303.984 55.7128 297.19 57.5373C290.525 59.3226 283.858 61.102 277.189 62.8756C270.613 64.6257 264.056 66.4462 257.516 68.3372C256.933 68.5056 256.302 68.5995 255.622 68.6191" stroke="black" stroke-width="2"/>
<path d="M245.454 99.5101C246.04 98.8563 246.564 98.5039 247.026 98.453" stroke="#DED1C6" stroke-width="2"/>
<path d="M177.875 143.89L207.44 124.639C207.619 124.522 207.812 124.427 208.015 124.357C211.744 123.006 215.333 121.456 218.781 119.706C224.097 117.004 227.316 115.342 228.438 114.72C232.347 112.551 235.873 109.877 239.016 106.698C239.216 106.494 240.246 105.257 242.107 102.986C243.139 101.718 244.255 100.559 245.455 99.5094C246.041 98.8555 246.565 98.5032 247.026 98.4523C249.118 97.4696 251.06 96.3773 252.855 95.1753C259.422 90.7766 264.301 88.081 268.898 84.669C270.78 83.2713 272.797 82.267 275.207 80.7284C281.137 76.9424 291.989 69.9617 307.763 59.7863C311.867 57.1357 315.983 54.4656 320.112 51.7759L327.242 48.9981C327.266 48.9893 327.293 48.9882 327.318 48.995C327.343 49.0017 327.366 49.0159 327.382 49.0355C327.398 49.0552 327.408 49.0792 327.409 49.1041C327.41 49.1291 327.403 49.1536 327.388 49.1742L205.974 232.861C205.921 232.942 205.84 232.999 205.746 233.021C205.652 233.043 205.553 233.028 205.47 232.979C204.364 232.341 201.747 230.8 197.619 228.357C188.147 222.754 178.995 217.285 170.165 211.949C145.263 196.895 128.73 186.85 120.563 181.816C120.481 181.765 120.412 181.694 120.366 181.609C120.319 181.523 120.296 181.427 120.299 181.33C120.301 181.233 120.329 181.138 120.379 181.055C120.43 180.973 120.502 180.905 120.587 180.858C124.14 178.936 127.526 176.892 130.743 174.727C146.325 164.246 162.036 153.967 177.875 143.89Z" fill="#FCEEE1"/>
<path d="M318.3 51.8236C315.837 53.511 313.421 54.8794 311.052 55.9286C310.63 56.1127 310.257 56.1949 309.932 56.1753C309.756 56.1676 309.581 56.2082 309.428 56.2928C306.807 57.8079 303.746 58.9296 300.949 60.6738C297.695 62.7058 292.816 64.9433 288.899 67.1984C288.774 67.2689 284.458 69.6219 275.952 74.2574C274.228 75.1971 272.311 75.8548 270.622 77.1409C270.563 77.1839 270.501 77.2232 270.434 77.2584L251.618 86.8485C251.593 86.8614 251.565 86.8664 251.538 86.8629C251.511 86.8594 251.485 86.8476 251.464 86.829C251.444 86.8104 251.43 86.786 251.424 86.759C251.417 86.7321 251.42 86.7039 251.43 86.6782C253.076 82.5243 254.252 77.9983 254.96 73.1005C255.179 71.6049 255.4 70.1113 255.623 68.6196C256.303 68.6 256.934 68.5061 257.517 68.3377C264.057 66.4467 270.614 64.6261 277.189 62.8761C283.858 61.1025 290.525 59.3231 297.19 57.5378C303.985 55.7133 311.021 53.8086 318.3 51.8236Z" fill="#FCEEE1"/>
<path d="M247.025 98.4531C246.564 98.504 246.04 98.8564 245.454 99.5102C245.184 98.9699 245.258 98.4355 245.677 97.9069C246.224 97.21 246.644 96.5699 246.937 95.9866C247.606 94.6593 247.95 93.98 247.969 93.9487C248.927 92.4766 249.91 90.568 250.919 88.2228C251.253 87.4417 252.69 87.2597 253.376 86.8838C258.95 83.783 266.28 79.9638 275.365 75.4261C277.562 74.3299 279.426 73.2904 280.959 72.3077C283.404 70.7397 286.248 69.5534 288.517 68.3319C293.446 65.6735 296.169 64.2171 296.685 63.9626C299.91 62.3711 303.211 60.1805 306.941 58.3659C306.948 58.362 307.05 58.2934 307.246 58.1603C307.453 58.0194 307.648 58.0605 307.832 58.2837C307.88 58.3402 307.915 58.4062 307.935 58.477C307.955 58.5478 307.96 58.6215 307.948 58.6929C307.937 58.7643 307.91 58.8315 307.87 58.8897C307.83 58.948 307.777 58.9957 307.715 59.0295C304.193 60.9675 299.978 63.6474 295.073 67.0693C291.484 69.5671 288.327 71.648 285.603 73.312C280.296 76.5537 275.628 79.9129 271.518 82.168C268.838 83.6362 267.097 85.3158 264.587 86.7957C260.26 89.3445 256.339 91.9168 252.824 94.5125C251.82 95.2525 250.272 96.0942 248.18 97.0378C247.215 97.4723 246.83 97.9441 247.025 98.4531Z" fill="#C0B4AB"/>
<path d="M145.882 98.8698C151.034 105.287 157.047 110.789 163.919 115.378C167.49 117.762 170.838 119.225 174.397 121.086C176.573 122.226 178.191 122.625 180.607 122.913C180.675 122.921 180.737 122.952 180.787 122.999C180.836 123.046 180.868 123.108 180.879 123.175C180.89 123.242 180.88 123.311 180.849 123.372C180.818 123.433 180.768 123.482 180.707 123.512L148.914 138.522L96.0348 163.129C95.9864 163.151 95.9337 163.163 95.8803 163.162C95.827 163.162 95.7745 163.15 95.7263 163.127C95.6782 163.104 95.6358 163.071 95.6019 163.03C95.5681 162.988 95.5437 162.94 95.5305 162.888L95.2491 161.743C95.2161 161.611 95.1549 161.488 95.0698 161.382C94.9847 161.277 94.8777 161.191 94.7565 161.132C75.8578 151.748 51.2184 138.152 37.3097 131.369C35.5076 130.489 33.9557 129.584 32.6539 128.656C32.6309 128.639 32.6129 128.617 32.6022 128.59C32.5915 128.564 32.5884 128.535 32.5933 128.507C32.5982 128.478 32.6109 128.452 32.6299 128.431C32.6489 128.41 32.6735 128.394 32.7009 128.386C69.2552 118.402 105.915 108.599 142.681 98.9755C143.853 98.6643 144.997 97.7716 145.882 98.8698Z" fill="#FCEEE1"/>
<path d="M118.139 186.268C122.953 189.296 128.631 192.794 135.172 196.76V196.761C135.881 197.192 136.581 197.565 137.249 197.924C137.92 198.286 138.559 198.635 139.17 199.031V199.032C142.57 201.246 145.432 203.047 147.753 204.433L147.754 204.434C148.145 204.666 148.642 205.011 149.248 205.471C146.096 206.584 142.849 207.941 139.508 209.543L139.507 209.544C138.978 209.799 138.387 210.024 137.759 210.253C137.139 210.479 136.478 210.71 135.841 210.97H135.84C127.218 214.507 116.642 218.935 104.112 224.256C103.517 224.509 102.862 224.864 102.144 225.312C102.136 225.27 102.128 225.228 102.12 225.186C102.157 225.18 102.195 225.174 102.231 225.162C102.33 225.129 102.421 225.075 102.496 225.003C102.568 224.933 102.623 224.848 102.66 224.755L102.661 224.756L118.139 186.268ZM181.503 124.723C181.927 124.526 182.406 124.485 182.857 124.606H182.859C189.999 126.504 197.128 126.745 204.241 125.331C203.298 126.073 201.752 127.121 199.588 128.474L198.598 129.089C191.379 133.527 184.336 138.353 177.254 142.972C167.488 149.222 157.775 155.554 148.115 161.967C143.317 165.155 138.787 167.917 134.175 171.092C129.438 174.352 125.214 177.031 121.5 179.132H121.5C120.731 179.57 120.116 180.127 119.56 180.647C118.992 181.178 118.498 181.657 117.924 182.023L117.923 182.024C117.704 182.164 117.519 182.35 117.378 182.569C117.238 182.788 117.146 183.035 117.111 183.293L116.761 185.766C116.755 185.798 116.748 185.829 116.738 185.857L101.743 222.96C101.422 220.812 101.171 218.383 100.996 215.67C100.456 207.323 99.6563 199.818 98.3384 183.016L98.1274 180.574C97.8378 177.369 97.3113 171.861 96.5503 164.051L149.672 139.417L149.673 139.418L181.501 124.723H181.503Z" fill="#C0B4AB" stroke="black"/>
<ellipse cx="196.862" cy="67.7585" rx="58.5" ry="58.2415" fill="#4169E1" stroke="black" stroke-width="1.0515" stroke-miterlimit="10" stroke-linejoin="round"/>
<ellipse cx="196.837" cy="60.2165" rx="58.4749" ry="58.2165" fill="#CCD9FD" stroke="#1C1C1C" stroke-width="1.0515" stroke-miterlimit="10" stroke-linejoin="round"/>
<ellipse cx="196.835" cy="60.2207" rx="52.3197" ry="52.0885" fill="#6B8DF3" stroke="#1C1C1C" stroke-width="1.0515" stroke-miterlimit="10" stroke-linejoin="round"/>
<path d="M198.489 78.3466L177.993 64.1471V66.4522L188.165 80.785L198.489 95.0667L218.721 66.9133L219.136 64.0444L198.489 78.3466Z" fill="#4169E1" stroke="black"/>
<path d="M177.993 62.2575L198.565 73.8632L219.136 62.2575V59.8279L198.565 28.8057L177.993 59.8279V62.2575Z" fill="#4169E1" stroke="black"/>
<path d="M177.993 63.9438L198.565 91.9341L219.136 63.9438L198.565 75.5496L177.993 63.9438Z" fill="#CCD9FD" stroke="black"/>
<path d="M177.993 59.8479L198.565 71.4537L219.136 59.8479L198.565 26.3961L177.993 59.8479Z" fill="#CCD9FD" stroke="black"/>
<path d="M212.612 251.693L213.412 251.848C217.29 252.135 220.983 252.413 224.491 252.683C234.765 253.474 244.403 254.58 253.406 256.001C260.812 257.17 267.817 258.742 274.42 260.717C278.559 261.957 282.038 263.509 284.857 265.374C286.381 266.381 287.21 267.602 287.344 269.036C287.637 272.228 284.344 274.576 279.724 276.423C274.881 278.359 269.434 279.95 263.385 281.194C250.565 283.827 236.797 285.311 222.981 286.301C193.4 288.42 163.055 288.568 133.266 286.683C123.725 286.077 114.223 285.174 104.76 283.975C97.2682 283.027 89.9192 281.663 82.7128 279.884C73.9502 277.717 61.3868 273.493 64.9982 267.351C66.7153 264.417 72.6792 262.069 77.7999 260.52C86.5502 257.877 95.6306 256.318 105.817 254.879C107.076 254.702 111.648 254.209 119.535 253.401C124.134 252.931 128.752 252.573 133.388 252.327C142.501 251.84 148.787 251.524 152.245 251.379C152.742 251.36 153.166 251.288 153.516 251.162C153.602 251.078 153.712 251.026 153.846 251.004C153.886 250.998 153.929 250.999 153.968 251.007C158.838 251.929 163.91 253.123 168.279 253.734C177.127 254.976 186.422 255.484 195.404 254.626C202.193 253.976 206.483 253.32 212.612 251.693Z" fill="#1C1C1C"/>
</svg>
