<svg width="360" height="360" viewBox="0 0 360 360" fill="none" xmlns="http://www.w3.org/2000/svg">
<g clip-path="url(#clip0_18087_7620)">
<g clip-path="url(#clip1_18087_7620)">
<path d="M100.423 132.577L123.98 122.783L113.632 182.125C112.381 189.298 107.331 195.224 100.448 197.597L65.0776 209.791C64.0994 210.129 63.0786 210.327 62.0452 210.38C58.1957 210.579 54.521 208.757 52.3484 205.573L51.9728 205.022C49.9614 202.075 49.3459 198.404 50.5917 195.06C52.8501 188.998 57.5261 178.053 66.1445 163.775C79.6687 141.37 100.423 132.577 100.423 132.577Z" fill="#FF9500" stroke="black" stroke-width="0.44"/>
<path d="M252.779 204.753L245.436 180.321L206.071 225.917C201.313 231.429 199.926 239.09 202.45 245.92L215.418 281.013C215.777 281.984 216.27 282.899 216.883 283.733C219.168 286.837 222.905 288.527 226.745 288.191L227.409 288.133C230.964 287.822 234.194 285.974 235.993 282.891C239.253 277.304 244.761 266.753 250.35 251.04C259.12 226.383 252.779 204.753 252.779 204.753Z" fill="#FF9500" stroke="black" stroke-width="0.44"/>
<path d="M112.93 187.681C112.256 191.548 109.533 194.744 105.821 196.023L65.1633 210.04C64.397 210.304 64.4067 210.205 63.6031 210.3C63.2362 210.097 62.069 210.156 61.7121 209.917C59.8241 208.656 58.1334 206.863 57.69 204.468C56.8109 199.719 60.1802 196.04 63.6601 194.991L75.661 189.917L75.6699 189.914L115.165 174.863L112.93 187.681Z" fill="#DE870E" stroke="black" stroke-width="0.44"/>
<path d="M202.217 229.979C199.652 232.951 198.903 237.082 200.264 240.764L215.171 281.105C215.452 281.865 215.523 281.794 215.959 282.476C216.348 282.632 217.042 283.572 217.452 283.697C219.624 284.359 222.083 284.532 224.217 283.358C228.448 281.03 229.161 276.093 227.769 272.735L224.093 260.235L224.09 260.226L210.72 220.131L202.217 229.979Z" fill="#DE870E" stroke="black" stroke-width="0.44"/>
<path d="M249.26 15.3258C258.238 19.5793 264.419 28.7083 268.171 41.0253C271.921 53.3396 273.233 68.8099 272.499 85.6884C271.03 119.445 261.378 158.785 246.746 189.672C232.114 220.558 215.29 237.108 197.639 243.812C179.989 250.515 161.462 247.394 143.379 238.827C125.296 230.26 111.145 217.901 105.152 199.998C99.1589 182.092 101.309 158.591 115.941 127.705C130.573 96.8183 154.901 64.4303 180.092 41.9118C192.688 30.6524 205.49 21.8685 217.395 16.9708C229.302 12.0722 240.281 11.0722 249.26 15.3258Z" fill="#FAF2E8" stroke="black" stroke-width="0.44"/>
<path d="M249.26 15.3258C256.214 18.6204 261.489 24.839 265.258 33.2007C268.913 41.3112 271.146 51.4263 272.119 62.8092C264.924 49.4055 254.019 39.212 240.89 32.9925C227.563 26.6788 212.473 24.9065 197.258 28.2485C206.816 21.6084 216.2 16.7773 224.924 14.3696C233.925 11.8853 242.208 11.9854 249.26 15.3258Z" fill="#FF9500" stroke="black" stroke-width="0.44"/>
<path d="M163.458 196.441C176.529 202.634 187.189 210.795 193.987 219.073C200.763 227.326 203.66 235.642 201.383 242.232C182.62 250.93 162.745 248.001 143.379 238.827C124.012 229.652 109.156 216.128 104.001 196.099C107.659 190.163 115.93 187.137 126.608 187.154C137.319 187.17 150.387 190.249 163.458 196.441Z" fill="#F1D8B8" stroke="black" stroke-width="0.44"/>
<path d="M159.499 204.799C178.872 213.977 191.348 228.623 188.36 238.261L188.399 238.28L181.058 270.017L95.3765 229.426L115.172 203.882L115.181 203.885C120.552 195.238 139.957 195.541 159.499 204.799Z" fill="#C5C2CC" stroke="black" stroke-width="0.44"/>
<path d="M146.118 233.045C158.044 238.694 167.862 245.85 174.097 252.844C177.215 256.341 179.43 259.79 180.569 262.981C181.708 266.171 181.767 269.089 180.602 271.547C179.437 274.006 177.142 275.808 173.953 276.947C170.762 278.087 166.69 278.558 162.009 278.36C152.648 277.965 140.891 274.9 128.966 269.251C117.041 263.601 107.222 256.446 100.987 249.452C97.8689 245.955 95.6544 242.506 94.5153 239.315C93.3768 236.125 93.3173 233.208 94.4819 230.749C95.6467 228.29 97.9419 226.488 101.132 225.349C104.323 224.209 108.394 223.738 113.075 223.935C122.436 224.33 134.193 227.395 146.118 233.045Z" fill="#96949C" stroke="black" stroke-width="0.44"/>
<path d="M193.86 132.267C195.739 133.157 197.002 135.208 197.636 138.236C198.27 141.26 198.267 145.215 197.653 149.835C196.427 159.072 192.768 170.918 186.961 183.177C181.153 195.436 174.305 205.771 167.933 212.571C164.747 215.972 161.688 218.479 158.947 219.903C156.202 221.33 153.815 221.653 151.936 220.763C150.058 219.873 148.796 217.822 148.162 214.794C147.528 211.77 147.53 207.816 148.143 203.196C149.369 193.958 153.028 182.112 158.836 169.853C164.643 157.595 171.492 147.259 177.863 140.46C181.05 137.059 184.11 134.551 186.851 133.127C189.595 131.7 191.982 131.377 193.86 132.267Z" fill="#FF9500" stroke="black" stroke-width="0.44"/>
<path d="M143.191 239.225C152.231 243.507 159.765 248.735 164.639 253.717C167.077 256.209 168.84 258.632 169.798 260.835C170.757 263.039 170.9 264.997 170.144 266.592C169.388 268.188 167.782 269.318 165.47 269.972C163.158 270.626 160.167 270.795 156.694 270.487C149.751 269.872 140.934 267.353 131.894 263.071C122.854 258.788 115.32 253.56 110.446 248.578C108.008 246.086 106.244 243.664 105.286 241.461C104.327 239.257 104.185 237.298 104.94 235.703C105.696 234.108 107.302 232.978 109.614 232.324C111.926 231.67 114.918 231.5 118.39 231.808C125.333 232.423 134.151 234.942 143.191 239.225Z" fill="#D9D9D9" stroke="black" stroke-width="0.44"/>
<path d="M143.19 239.225C152.231 243.507 159.765 248.735 164.639 253.718C167.076 256.209 168.84 258.632 169.798 260.835C170.756 263.039 170.899 264.997 170.144 266.592C169.966 266.967 169.89 267.584 169.856 268.365C169.822 269.158 169.829 270.163 169.842 271.34C169.868 273.699 169.914 276.772 169.681 280.314C169.215 287.398 167.636 296.35 162.571 305.16C158.697 311.897 151.998 316.36 145.085 320.035C109.337 339.041 90.719 353.565 87.9873 355.751C87.949 352.253 87.3952 328.647 79.458 288.945C77.9234 281.269 77.1325 273.257 79.8919 265.992C83.5011 256.492 89.4286 249.601 94.6156 244.753C97.2089 242.329 99.6152 240.417 101.457 238.944C102.376 238.208 103.159 237.578 103.75 237.049C104.333 236.528 104.762 236.078 104.94 235.703C105.696 234.108 107.302 232.978 109.614 232.324C111.926 231.67 114.918 231.5 118.39 231.808C125.333 232.423 134.15 234.942 143.19 239.225Z" fill="#FF9500" stroke="black" stroke-width="0.44"/>
<path d="M143.191 239.225C151.145 242.993 157.934 247.495 162.771 251.917C162.747 255.881 163.446 265.183 158.229 274.257C155.814 278.458 151.632 281.246 147.302 283.548C125.397 295.194 113.751 304.156 111.634 305.838C111.593 303.135 111.151 288.445 106.288 264.118C105.326 259.31 104.836 254.308 106.557 249.778C110.273 239.994 117.912 234.642 120.965 232.112C127.451 233.054 135.235 235.456 143.191 239.225Z" fill="#FAE789" stroke="black" stroke-width="0.44"/>
<path d="M230.568 54.7813C240.498 59.4856 246.725 68.5484 247.483 77.8066L247.493 77.9335L247.58 77.9744L247.667 79.0446L247.667 79.0454L247.834 86.8983L247.833 86.8992L247.834 86.9127C248.205 91.4464 247.456 96.0226 245.436 100.288C238.596 114.726 219.736 120.174 203.281 112.379C186.827 104.584 179.097 86.5391 185.937 72.101C188.079 67.5783 191.399 63.9396 195.453 61.3132L195.459 61.3096L195.465 61.3051L199.65 58.1632L199.658 58.1574L199.665 58.1511C207.286 51.2668 219.557 49.565 230.568 54.7813Z" fill="#4169E1" stroke="black" stroke-width="0.44"/>
<path d="M230.568 54.7812C244.66 61.4571 251.281 76.8918 245.437 89.2293C239.592 101.567 223.454 106.219 209.362 99.5436C195.27 92.8676 188.649 77.4334 194.494 65.0959C200.339 52.7586 216.476 48.1056 230.568 54.7812Z" fill="#CCD9FD" stroke="black" stroke-width="0.44"/>
<path d="M228.091 60.0104C238.767 65.0682 243.734 76.8498 239.257 86.3016C234.779 95.7533 222.516 99.3726 211.84 94.3146C201.163 89.2567 196.196 77.4752 200.674 68.0235C205.152 58.5719 217.414 54.9526 228.091 60.0104Z" fill="#4169E1" stroke="black" stroke-width="0.44"/>
<path d="M225.164 66.1904C233.937 70.3469 239.163 78.6564 239.01 86.7956C234.345 95.8773 222.328 99.2835 211.84 94.3151C201.352 89.3467 196.374 77.8898 200.446 68.5276C206.648 63.2529 216.389 62.0337 225.164 66.1904Z" fill="#E8EDFA" stroke="black" stroke-width="0.44"/>
</g>
</g>
<defs>
<clipPath id="clip0_18087_7620">
<rect width="360" height="360" rx="5" fill="white"/>
</clipPath>
<clipPath id="clip1_18087_7620">
<rect width="360" height="360" fill="white"/>
</clipPath>
</defs>
</svg>
