<svg width="360" height="288" viewBox="0 0 360 288" fill="none" xmlns="http://www.w3.org/2000/svg">
<path d="M83.2031 57.892C83.1604 61.2544 83.145 64.6238 83.1568 68.0004C83.1639 70.3051 83.3584 71.9294 83.7401 72.8731C84.3898 74.4784 85.547 75.7482 87.2115 76.6824C89.7534 78.1099 96.9156 82.0673 108.698 88.5549C116.217 92.6949 123.581 96.7414 130.789 100.694C146.858 109.505 158.136 115.723 164.621 119.346C167.02 120.685 168.798 121.506 169.952 121.807C171.814 122.288 173.752 122.524 175.768 122.515C179.204 122.501 182.095 122.01 185.122 120.31C213.837 104.162 230.537 94.7828 235.223 92.1721C237.033 91.1655 238.954 89.9989 240.49 89.1595C245.818 86.2548 251.179 83.26 256.574 80.1751C259.953 78.2438 263.84 76.9136 265.48 73.0865C265.793 72.3586 265.954 71.1635 265.964 69.5013C265.99 65.5746 265.987 61.699 265.957 57.8743" stroke="#7B7261"/>
<path d="M265.957 57.8742C265.893 52.852 261.006 51.3049 257.367 49.217C255.307 48.0386 251.967 46.1843 247.348 43.6543C238.33 38.7127 224.273 30.8843 205.175 20.169C201.917 18.3444 197.795 16.253 194.37 14.2505C191.802 12.7496 188.999 11.3944 185.866 9.57694C183.874 8.42218 182.447 7.69542 181.583 7.39665C180.279 6.94375 178.704 6.65447 176.857 6.5288C172.862 6.25493 169.071 6.62483 165.795 8.43522C148.945 17.7468 140.372 22.4797 140.076 22.6338C136.153 24.6718 132.024 27.1722 127.976 29.381C124.936 31.0384 119.422 34.0901 111.433 38.5361C100.194 44.7936 91.9721 49.3202 86.7673 52.1158C86.2006 52.4217 85.5545 52.9303 84.8289 53.6416C83.6741 54.7774 83.1323 56.1942 83.2035 57.892" stroke="#807C77"/>
<path d="M265.956 57.8743L264.971 58.3189C264.827 58.3817 264.703 58.4825 264.612 58.6105C263.648 59.9656 261.695 61.1927 260.472 61.8472C254.089 65.2806 247.775 68.7769 241.532 72.336C239.83 73.3082 234.238 76.4038 224.758 81.6228C220.949 83.7212 217.677 85.6597 213.569 87.8933C209.959 89.8567 203.838 93.4597 198.709 96.2482C197.153 97.0947 194.999 98.3063 192.246 99.8832C188.291 102.145 185.971 103.473 185.285 103.867C180.868 106.406 174.533 106.773 169.71 105.24C167.146 104.425 165.691 103.394 163.006 101.907C156.115 98.0894 151.27 95.423 148.469 93.9078C145.569 92.3381 144.079 91.5331 143.999 91.4928C141.633 90.2941 139.314 88.8643 137.042 87.6372C123.344 80.2214 102.847 68.7686 86.6423 60.1719C85.9665 59.8139 85.3203 59.3313 84.7038 58.7243C84.3221 58.3497 83.8218 58.0723 83.2029 57.892" stroke="#FAEDD7"/>
<path d="M98.3614 91.7382C96.289 92.8052 94.2415 93.9256 92.2189 95.0993C90.9503 95.8367 89.9686 96.3785 89.2739 96.7247C85.6211 98.5387 82.5232 100.808 83.2452 105.3" stroke="#4C4466"/>
<path d="M83.2463 105.3C83.1372 106.007 83.0839 106.717 83.0863 107.43C83.1029 112.593 83.1135 116.031 83.1183 117.745C83.1254 120.491 84.4841 122.842 86.5754 124.585C86.8078 124.779 88.3265 125.643 91.1316 127.178C115.429 140.48 128.626 147.704 130.722 148.849C144.102 156.155 155.307 162.315 164.337 167.33C166.552 168.561 168.163 169.348 169.171 169.692C173.047 171.015 177.429 171.111 181.367 170.186C182.548 169.909 184.434 169.054 187.025 167.622C189.439 166.289 191.73 164.978 193.897 163.688C194.635 163.249 203.783 158.113 221.341 148.28C231.511 142.584 238.657 138.61 242.778 136.358C243.418 136.009 244.096 135.614 244.812 135.173C246.463 134.156 248.355 133.285 249.966 132.356C251.374 131.545 254.841 129.613 260.366 126.559C262.86 125.181 264.581 123.202 265.527 120.623C265.83 119.802 265.99 118.635 266.007 117.123C266.057 113.087 266.039 109.046 265.954 105.001" stroke="#393056"/>
<path d="M265.954 105.001C265.893 101.313 263.834 98.9793 260.736 97.1725C258.777 96.0272 255.986 94.5203 252.363 92.6519" stroke="#4C4466"/>
<path d="M252.364 92.652C252.096 92.4528 251.818 92.2548 251.531 92.058C250.678 91.4747 249.685 91.1581 248.81 90.5855C247.722 89.8741 246.911 89.5611 245.666 88.9316C245.216 88.704 244.762 88.7218 244.304 88.985C242.248 90.1753 239.524 91.7023 236.13 93.5661C234.414 94.5074 232.722 95.4286 231.055 96.3297C230.133 96.83 228.768 97.6053 226.961 98.6558C225.368 99.5805 224.004 100.354 222.871 100.975C217.294 104.029 214.054 105.832 213.15 106.385C210.28 108.149 207.737 109.415 204.977 111.023C202.217 112.635 199.195 114.325 195.911 116.091C195.183 116.485 192.144 118.213 186.795 121.277C185.161 122.211 183.758 122.856 182.587 123.212C180.614 123.807 178.34 124.096 175.765 124.08C173.347 124.065 170.96 123.87 168.833 123.101C167.161 122.497 165.474 121.721 163.772 120.775C144.335 109.975 124.583 99.1134 104.516 88.1918C104.408 88.1332 104.286 88.1061 104.164 88.1137C104.042 88.1212 103.925 88.1631 103.826 88.2345C102.534 89.1687 101.135 89.982 99.6291 90.6744C99.2806 90.8333 98.8585 91.1878 98.3629 91.7379" stroke="#161222"/>
<path d="M252.364 92.6522C251.911 93.1146 251.568 93.4098 251.336 93.5379C232.638 103.949 210.348 116.394 189.661 128.145C186.638 129.863 183.441 131.574 180.232 131.969C177.295 132.331 174.488 132.162 171.814 131.46C170.436 131.1 168.678 130.33 166.539 129.152C143.363 116.397 120.226 103.838 100.597 93.1715C99.8781 92.7827 99.1335 92.3049 98.3629 91.7382" stroke="#625688"/>
<path d="M265.953 105.001C265.817 104.975 265.725 105.043 265.675 105.204C265.642 105.306 265.566 105.373 265.448 105.407C265.338 105.437 265.24 105.524 265.152 105.666C263.915 107.694 262.248 109.253 260.152 110.343C253.596 113.751 247.102 117.645 240.707 121.12C239.825 121.601 238.918 122.205 238.171 122.604C229.158 127.434 222.019 131.638 213.661 136.24C208.236 139.228 203.907 141.658 200.675 143.532C196.187 146.135 191.332 148.646 187.049 151.179C185.314 152.208 183.93 152.907 182.899 153.277C178.787 154.75 174.259 154.718 170.105 153.569C168.587 153.147 166.204 152.022 162.956 150.193C157.839 147.31 150.749 143.413 141.686 138.502C140.309 137.755 139.26 137.185 138.539 136.791C131.257 132.806 124.385 129.033 117.924 125.474C114.599 123.641 111.241 121.796 107.847 119.94C103.06 117.317 98.198 114.667 93.2612 111.99C92.2938 111.464 91.1935 110.905 89.9605 110.315C88.0043 109.376 86.5852 108.778 85.4257 107.541C84.7119 106.782 83.9852 106.035 83.2454 105.3" stroke="#8574BC"/>
<path d="M94.7093 139.078C92.0726 140.567 89.4038 142.054 86.703 143.539C84.237 144.892 83.055 146.833 83.157 149.361" stroke="#3E6764"/>
<path d="M83.1573 149.361C83.1028 152.553 83.0921 155.652 83.1253 158.659C83.1609 161.963 82.8016 164.577 85.3376 166.943C85.928 167.493 86.9583 168.173 88.4284 168.984C97.3274 173.892 105.309 178.196 113.006 182.464C132.895 193.483 146.373 200.904 153.439 204.726C156.709 206.495 160.357 208.531 164.383 210.833C167.598 212.675 170.227 213.824 173.559 213.977C177.145 214.141 179.691 214.07 183.038 212.928C183.885 212.639 185.278 211.925 187.217 210.787C191.042 208.536 197.736 204.741 207.299 199.402C222.887 190.697 235.54 183.611 245.257 178.143C252.202 174.235 257.509 171.27 261.177 169.247C263.048 168.216 264.384 166.945 265.185 165.434C265.721 164.422 265.993 163.108 266 161.494C266.019 157.524 266.012 153.543 265.978 149.55" stroke="#2E5C59"/>
<path d="M265.978 149.55C265.9 147.079 264.805 145.209 262.695 143.941C260.838 142.826 258.532 141.53 255.777 140.053" stroke="#3E6764"/>
<path d="M255.778 140.053C253.386 138.619 251.022 137.309 248.686 136.123C247.967 135.76 247.761 135.515 247.093 135.878C242.381 138.413 236.618 141.571 229.803 145.353C228.729 145.95 227.505 146.797 226.456 147.334C224.206 148.482 220.061 150.798 214.022 154.284C212.215 155.325 203.87 159.997 188.986 168.301C186.076 169.925 184.092 170.902 183.032 171.232C178.451 172.655 173.873 172.623 169.345 171.474C168.347 171.222 167.04 170.646 165.426 169.745C162.227 167.964 159.05 166.201 155.894 164.456C151.965 162.284 147.065 159.613 141.194 156.443C137.11 154.238 132.642 151.793 127.788 149.109C125.615 147.907 123.556 147.028 121.82 145.886C120.58 145.071 119.104 144.252 117.392 143.429C116.218 142.864 114.328 141.822 111.722 140.302C108.916 138.666 105.69 137.18 102.599 135.294C102.408 135.177 102.189 135.109 101.964 135.099C101.739 135.088 101.514 135.135 101.312 135.234C99.1087 136.306 96.9083 137.587 94.7102 139.079" stroke="#132323"/>
<path d="M255.778 140.053C253.163 141.45 250.584 142.87 248.042 144.314C238.165 149.923 228.476 155.283 216.746 161.895C201.393 170.55 192.989 175.28 191.536 176.086C189.096 177.44 187.268 178.428 186.051 179.049C181.399 181.425 176.107 181.653 171.063 180.202C169.484 179.746 167.147 178.65 164.053 176.912C160.994 175.195 152.444 170.541 138.401 162.951C131.606 159.276 117.816 151.727 97.0328 140.305C96.4779 140.003 95.4856 139.562 94.7102 139.078" stroke="#518987"/>
<path d="M265.978 149.55C265.262 149.768 264.721 150.195 264.356 150.83C264.288 150.948 264.197 151.052 264.089 151.136C261.909 152.861 259.024 154.113 257.139 155.177C249.63 159.412 242.14 163.609 234.671 167.768C232.039 169.233 224.139 173.652 210.972 181.024C201.907 186.098 195.086 189.952 190.507 192.587C186.36 194.977 183.975 196.294 183.354 196.538C180.857 197.525 178.183 197.95 175.33 197.815C173.392 197.723 171.272 197.598 169.454 196.898C167.669 196.208 166.075 195.47 164.674 194.685C153.824 188.61 148.396 185.572 148.391 185.569C145.539 183.952 142.664 182.374 139.766 180.835C135.992 178.833 133.14 177.115 129.967 175.465C128.068 174.473 125.618 173.128 122.619 171.428C118.351 169.005 112.98 166.242 108.257 163.635C103.199 160.844 100.312 159.267 99.596 158.904C95.8543 157.012 94.051 155.86 90.295 153.975C88.8439 153.247 87.382 152.413 85.9095 151.474C85.8197 151.417 85.7374 151.352 85.6641 151.279C84.9125 150.543 84.0766 149.904 83.1566 149.361" stroke="#6BC3BD"/>
<path d="M83.3732 197.143C83.1811 198.31 82.9748 199.569 83.0282 200.721C83.1634 203.661 83.206 206.037 83.1562 207.849C83.1041 209.786 83.2072 211.142 83.4657 211.918C84.266 214.326 85.9092 215.585 88.3242 216.758C90.6468 217.89 92.1584 218.846 94.6055 220.12C95.3263 220.494 96.5451 221.161 98.2618 222.118C103.78 225.201 110.075 228.645 117.148 232.451C120.399 234.204 124.781 236.733 127.58 238.245C139.709 244.796 151.859 251.597 161.871 257.01C163.952 258.134 165.606 259.354 167.658 260.222C170.266 261.329 172.945 261.862 175.696 261.819C177.994 261.783 179.508 261.712 180.238 261.606C182.192 261.321 184.204 260.581 186.274 259.386C189.688 257.416 192.857 255.73 195.714 254.129C208.25 247.101 220.933 240.016 233.764 232.874C234.937 232.22 235.789 231.747 236.317 231.455C239.874 229.492 247.051 225.499 257.847 219.476C259.237 218.7 260.941 217.865 262.303 216.901C264.795 215.139 266.117 212.739 266.269 209.702C266.416 206.733 266.369 203.112 266.127 198.839C266.096 198.294 265.968 197.679 265.743 196.994" stroke="#0A0C12"/>
<path d="M265.743 196.993C265.377 193.33 262.482 192.266 259.725 190.73C255.984 188.646 253.546 187.273 252.413 186.611C252.23 186.504 252.023 186.447 251.811 186.447C251.6 186.446 251.393 186.502 251.21 186.608C249.415 187.656 245.927 189.615 240.746 192.487C218.988 204.554 202.045 213.966 189.917 220.724C186.789 222.467 185.036 223.418 184.656 223.577C178.756 226.073 171.464 225.54 165.948 222.374C163.607 221.03 160.958 219.559 157.998 217.96C146.252 211.622 131.76 203.762 114.524 194.379C107.377 190.49 102.117 187.656 98.7427 185.875C98.593 185.796 98.4261 185.756 98.2567 185.757C98.0874 185.758 97.9208 185.801 97.7717 185.882C94.7034 187.549 91.4513 189.299 88.0155 191.132C85.5862 192.426 82.8831 194.045 83.3739 197.143" stroke="#131420"/>
<path d="M265.742 196.994C263.982 200.621 260.756 201.824 257.416 203.645C252.866 206.13 248.145 208.762 243.253 211.541C240.49 213.11 235.773 215.722 229.101 219.376C225.262 221.479 220.554 224.109 214.977 227.265C211.509 229.225 207.262 231.473 203.307 233.77C200.4 235.459 197.359 237.154 194.184 238.857C194.068 238.918 191.249 240.514 185.729 243.644C183.375 244.979 180.736 245.72 177.812 245.867C173.335 246.095 169.302 245.19 165.712 243.153C162.077 241.09 159.495 239.596 156.571 238.095C154.003 236.779 151.716 235.261 149.066 233.831C141.18 229.582 130.39 223.661 116.696 216.068C113.922 214.532 111.005 213.163 108.587 211.708C106.04 210.171 102.601 208.567 100.385 207.184C98.5923 206.063 96.5009 205.178 94.438 203.993C93.269 203.32 91.0484 202.246 87.7762 200.771C86.3108 200.112 84.8431 198.902 83.3729 197.143" stroke="#1D2032"/>
<path d="M91.4867 220.375C91.2638 220.188 90.9378 219.975 90.5086 219.735C87.0194 217.786 83.3488 216.666 81.8194 212.579C81.4946 211.706 81.344 210.491 81.3677 208.933C81.382 207.964 81.3725 205.221 81.3393 200.707C81.3227 198.44 81.3701 196.953 81.4815 196.246C81.9297 193.39 84.3198 191.324 86.7882 189.954C92.4897 186.789 94.5028 185.533 99.1373 183.079C100.799 182.2 102.548 181.174 104.384 180.003C104.404 179.989 104.421 179.97 104.433 179.949C104.444 179.927 104.45 179.902 104.449 179.878C104.448 179.854 104.441 179.83 104.428 179.809C104.416 179.789 104.398 179.772 104.376 179.761C100.334 177.544 96.478 175.404 92.8098 173.341C90.4671 172.02 88.8891 171.165 88.0758 170.776C84.3092 168.973 81.3108 165.79 81.3677 161.422C81.4223 157.287 81.4175 153.621 81.3535 150.425C81.3203 148.784 81.4531 147.583 81.7519 146.822C82.6837 144.453 84.4265 142.834 86.5891 141.65C88.78 140.453 93.1726 137.942 99.7668 134.117C99.7794 134.11 99.7899 134.099 99.7972 134.087C99.8044 134.074 99.8083 134.06 99.8083 134.046C99.8083 134.031 99.8044 134.017 99.7972 134.005C99.7899 133.992 99.7794 133.982 99.7668 133.975C98.4224 133.206 93.9907 130.717 86.4717 126.505C83.8326 125.026 81.4282 121.199 81.4246 118.275C81.4175 110.668 81.3986 106.244 81.3677 105.001C81.3298 103.524 81.4815 102.373 81.823 101.548C82.8189 99.1503 84.5012 97.3862 86.6566 96.1947C88.7053 95.0589 90.5916 94.0191 92.3154 93.0754C95.8437 91.1441 98.9097 89.1985 102.402 87.3775C102.424 87.3659 102.442 87.3487 102.455 87.3278C102.467 87.3068 102.474 87.2828 102.474 87.2583C102.474 87.2339 102.467 87.2099 102.455 87.1889C102.442 87.1679 102.424 87.1507 102.402 87.1392C96.9013 84.0851 92.2645 81.5017 88.4919 79.389C84.9885 77.4292 81.4353 75.0391 81.4246 70.5113C81.408 62.2146 81.395 57.8196 81.3855 57.3264C81.3808 57.1588 81.3987 56.9913 81.4389 56.8285C82.0862 54.0637 83.5267 52.0648 85.7603 50.8317C112.546 36.057 138.247 21.6805 164.781 7.06936C167.045 5.82213 169.424 5.12026 171.916 4.96376C176.095 4.70056 180.9 4.82505 184.507 6.85952C191.371 10.7328 198.904 14.7164 205.171 18.2091C229.967 32.0307 243.352 39.4809 245.327 40.5598C252.424 44.4343 258.294 47.6935 262.937 50.3374C265.69 51.9023 267.646 54.4668 267.674 57.9062C267.703 61.2258 267.7 65.6136 267.667 71.0697C267.65 74.4131 264.68 77.6319 261.898 79.1934C258.149 81.299 254.303 83.4674 250.36 85.6987C249.233 86.3353 248.19 86.8048 247.127 87.3881C247.103 87.4009 247.083 87.4199 247.069 87.4431C247.056 87.4662 247.048 87.4927 247.048 87.5197C247.048 87.5467 247.056 87.5732 247.069 87.5964C247.083 87.6196 247.103 87.6386 247.127 87.6513C255.758 92.4482 260.357 94.9984 260.924 95.3019C263.645 96.7495 265.985 98.5955 267.148 101.53C267.468 102.336 267.633 103.669 267.642 105.528C267.666 110.294 267.66 114.633 267.625 118.545C267.596 121.917 264.662 126.022 261.905 127.572C261.396 127.859 257.742 129.899 250.943 133.69C250.877 133.728 250.449 133.927 249.659 134.288C249.637 134.298 249.617 134.314 249.603 134.335C249.59 134.356 249.582 134.381 249.582 134.406C249.582 134.431 249.588 134.455 249.601 134.477C249.614 134.498 249.633 134.515 249.656 134.526C250.371 134.874 251.032 135.451 251.875 135.913C259.143 139.913 263.183 142.179 263.997 142.71C265.448 143.654 266.494 144.901 267.134 146.452C267.551 147.464 267.744 149.041 267.714 151.182C267.664 154.642 267.663 157.826 267.71 160.736C267.741 162.604 267.564 164.04 267.18 165.043C266.102 167.863 263.556 169.994 260.806 171.417C255.56 174.134 250.332 177.339 244.861 180.184C244.851 180.189 244.843 180.196 244.837 180.205C244.831 180.215 244.828 180.225 244.827 180.236C244.827 180.247 244.83 180.258 244.835 180.268C244.84 180.277 244.848 180.285 244.858 180.291C246.014 181.013 246.864 181.667 247.949 182.261C256.433 186.925 261.413 189.677 262.891 190.516C265.611 192.06 267.678 194.632 267.689 197.929C267.703 202.59 267.697 206.572 267.671 209.872C267.653 212.166 267.255 213.835 265.885 215.446C265.855 215.481 265.833 215.523 265.821 215.569C265.809 215.614 265.807 215.661 265.816 215.707C265.825 215.752 265.843 215.795 265.871 215.833C265.898 215.87 265.933 215.901 265.974 215.922C270.159 218.168 272.33 219.333 272.487 219.419C275.962 221.368 279.017 223.829 278.999 228.143C278.988 230.462 277.402 232.938 275.642 234.318C274.729 235.032 273.672 235.723 272.472 236.392C262.965 241.698 249.748 249.263 241.016 254.129C224.499 263.329 209.574 271.724 196.24 279.315C195.259 279.876 193.121 281.057 191.57 281.584C187.248 283.049 182.727 283.564 178.008 283.127C174.782 282.829 171.795 282.338 168.487 281.217C167.384 280.843 165.772 280.08 163.65 278.93C159.861 276.875 140.577 266.339 105.799 247.325C100.894 244.643 95.9469 241.897 90.8323 239.144C88.1742 237.715 86.084 236.489 84.5617 235.467C82.8722 234.332 81.0512 231.974 81.1401 229.836C81.2646 226.98 83.6227 225.035 85.9631 223.626C87.8292 222.505 89.6621 221.497 91.4618 220.603C91.482 220.593 91.4993 220.578 91.5122 220.56C91.5251 220.542 91.5331 220.52 91.5356 220.498C91.538 220.475 91.5349 220.452 91.5263 220.431C91.5178 220.409 91.5042 220.39 91.4867 220.375ZM83.203 57.8919C83.1603 61.2542 83.1449 64.6237 83.1568 68.0002C83.1639 70.305 83.3583 71.9293 83.7401 72.873C84.3898 74.4783 85.5469 75.748 87.2115 76.6823C89.7534 78.1097 96.9155 82.0672 108.698 88.5548C116.217 92.6948 123.581 96.7412 130.789 100.694C146.858 109.505 158.136 115.722 164.621 119.346C167.02 120.685 168.798 121.506 169.952 121.807C171.814 122.288 173.752 122.524 175.768 122.515C179.204 122.5 182.095 122.01 185.122 120.31C213.837 104.162 230.537 94.7826 235.223 92.172C237.033 91.1654 238.954 89.9988 240.49 89.1594C245.818 86.2547 251.179 83.2599 256.574 80.175C259.953 78.2437 263.84 76.9135 265.48 73.0864C265.793 72.3585 265.954 71.1634 265.964 69.5012C265.99 65.5745 265.987 61.6988 265.957 57.8741C265.892 52.852 261.005 51.3048 257.367 49.217C255.306 48.0385 251.967 46.1842 247.348 43.6542C238.33 38.7127 224.272 30.8842 205.175 20.1689C201.917 18.3443 197.795 16.2529 194.37 14.2505C191.802 12.7495 188.999 11.3944 185.865 9.57688C183.874 8.42212 182.446 7.69535 181.583 7.39659C180.279 6.94369 178.703 6.65441 176.856 6.52873C172.862 6.25486 169.07 6.62477 165.795 8.43516C148.945 17.7468 140.372 22.4796 140.076 22.6337C136.153 24.6718 132.023 27.1722 127.976 29.3809C124.936 31.0384 119.422 34.0901 111.433 38.536C100.194 44.7936 91.9716 49.3201 86.7669 52.1157C86.2002 52.4216 85.554 52.9302 84.8285 53.6416C83.6737 54.7774 83.1319 56.1942 83.203 57.8919ZM98.3619 91.7381C96.2895 92.8051 94.242 93.9255 92.2194 95.0992C90.9508 95.8366 89.9692 96.3784 89.2744 96.7246C85.6216 98.5386 82.5237 100.808 83.2457 105.3C83.1366 106.007 83.0833 106.717 83.0856 107.43C83.1022 112.593 83.1129 116.031 83.1177 117.745C83.1248 120.491 84.4834 122.842 86.5748 124.585C86.8072 124.779 88.3259 125.643 91.131 127.178C115.428 140.48 128.625 147.704 130.721 148.849C144.102 156.155 155.307 162.315 164.336 167.33C166.551 168.561 168.162 169.348 169.17 169.692C173.047 171.015 177.429 171.111 181.366 170.186C182.547 169.909 184.433 169.054 187.025 167.622C189.439 166.289 191.729 164.978 193.897 163.688C194.634 163.249 203.782 158.113 221.34 148.28C231.51 142.584 238.656 138.61 242.777 136.358C243.417 136.009 244.095 135.614 244.812 135.173C246.462 134.156 248.354 133.285 249.965 132.356C251.374 131.545 254.84 129.613 260.365 126.559C262.86 125.181 264.58 123.202 265.526 120.623C265.83 119.802 265.99 118.635 266.006 117.123C266.056 113.087 266.038 109.046 265.953 105.001C265.892 101.313 263.833 98.9796 260.735 97.1728C258.777 96.0275 255.986 94.5206 252.363 92.6521C252.095 92.453 251.817 92.255 251.53 92.0582C250.677 91.4749 249.684 91.1583 248.809 90.5857C247.721 89.8743 246.91 89.5613 245.665 88.9318C245.215 88.7041 244.761 88.7219 244.303 88.9851C242.247 90.1755 239.523 91.7025 236.129 93.5662C234.413 94.5076 232.721 95.4288 231.054 96.3298C230.132 96.8301 228.767 97.6055 226.96 98.6559C225.367 99.5807 224.003 100.354 222.87 100.975C217.293 104.029 214.053 105.832 213.149 106.385C210.279 108.149 207.736 109.415 204.976 111.023C202.216 112.635 199.194 114.325 195.91 116.091C195.182 116.485 192.143 118.213 186.794 121.277C185.16 122.211 183.757 122.856 182.586 123.212C180.613 123.807 178.339 124.096 175.764 124.08C173.346 124.065 170.959 123.87 168.832 123.102C167.16 122.497 165.473 121.722 163.771 120.775C144.334 109.975 124.582 99.1136 104.515 88.192C104.407 88.1334 104.286 88.1063 104.163 88.1138C104.041 88.1214 103.924 88.1633 103.825 88.2346C102.533 89.1689 101.134 89.9822 99.6281 90.6746C99.2796 90.8335 98.8575 91.1879 98.3619 91.7381ZM94.7091 139.079C92.0724 140.568 89.4036 142.054 86.7029 143.539C84.2369 144.893 83.0548 146.833 83.1568 149.361C83.1022 152.553 83.0916 155.652 83.1248 158.659C83.1603 161.963 82.8011 164.577 85.3371 166.942C85.9275 167.492 86.9578 168.173 88.4279 168.984C97.3269 173.892 105.308 178.196 113.005 182.464C132.895 193.483 146.372 200.903 153.438 204.726C156.708 206.495 160.356 208.53 164.383 210.833C167.598 212.675 170.226 213.824 173.559 213.977C177.144 214.14 179.691 214.069 183.038 212.928C183.884 212.638 185.277 211.925 187.217 210.786C191.042 208.536 197.735 204.741 207.298 199.401C222.886 190.697 235.539 183.61 245.256 178.142C252.201 174.235 257.508 171.27 261.176 169.247C263.047 168.216 264.383 166.945 265.185 165.434C265.721 164.422 265.992 163.108 265.999 161.493C266.018 157.524 266.011 153.543 265.978 149.55C265.9 147.079 264.805 145.209 262.695 143.941C260.838 142.826 258.532 141.53 255.777 140.053C253.385 138.619 251.02 137.308 248.685 136.123C247.966 135.76 247.76 135.515 247.091 135.877C242.38 138.412 236.617 141.571 229.802 145.353C228.728 145.95 227.504 146.797 226.455 147.334C224.205 148.481 220.06 150.798 214.021 154.284C212.214 155.325 203.868 159.997 188.985 168.301C186.075 169.925 184.091 170.902 183.031 171.232C178.45 172.654 173.872 172.622 169.344 171.474C168.346 171.222 167.039 170.646 165.425 169.745C162.226 167.964 159.049 166.201 155.893 164.456C151.964 162.284 147.063 159.613 141.192 156.443C137.109 154.237 132.641 151.793 127.787 149.109C125.614 147.906 123.554 147.028 121.819 145.886C120.579 145.07 119.103 144.251 117.391 143.428C116.217 142.864 114.327 141.822 111.721 140.302C108.915 138.666 105.689 137.179 102.598 135.294C102.406 135.176 102.188 135.109 101.963 135.099C101.738 135.088 101.513 135.134 101.31 135.234C99.1077 136.305 96.9072 137.587 94.7091 139.079ZM83.3737 197.143C83.1817 198.309 82.9754 199.568 83.0287 200.721C83.1639 203.661 83.2066 206.037 83.1568 207.849C83.1046 209.786 83.2078 211.142 83.4662 211.917C84.2665 214.325 85.9097 215.584 88.3248 216.758C90.6473 217.889 92.1589 218.846 94.606 220.119C95.3268 220.494 96.5456 221.16 98.2623 222.118C103.78 225.201 110.076 228.645 117.149 232.451C120.4 234.204 124.782 236.733 127.581 238.245C139.709 244.796 151.859 251.597 161.871 257.01C163.952 258.134 165.606 259.354 167.658 260.222C170.267 261.329 172.946 261.861 175.697 261.819C177.994 261.783 179.508 261.712 180.239 261.605C182.192 261.321 184.204 260.581 186.274 259.386C189.689 257.416 192.858 255.73 195.714 254.129C208.25 247.101 220.934 240.016 233.764 232.874C234.938 232.219 235.789 231.746 236.318 231.455C239.875 229.491 247.051 225.498 257.847 219.476C259.238 218.7 260.941 217.864 262.304 216.9C264.796 215.139 266.118 212.739 266.269 209.702C266.417 206.733 266.369 203.112 266.127 198.839C266.096 198.294 265.968 197.679 265.743 196.993C265.377 193.33 262.482 192.266 259.725 190.73C255.983 188.646 253.546 187.273 252.412 186.611C252.23 186.504 252.022 186.447 251.811 186.447C251.6 186.446 251.393 186.502 251.21 186.608C249.415 187.656 245.927 189.615 240.746 192.487C218.988 204.554 202.045 213.966 189.916 220.724C186.789 222.467 185.035 223.418 184.656 223.577C178.755 226.073 171.464 225.54 165.947 222.374C163.607 221.03 160.957 219.559 157.998 217.96C146.251 211.622 131.76 203.762 114.524 194.379C107.377 190.49 102.117 187.656 98.7425 185.875C98.5928 185.796 98.4259 185.755 98.2565 185.757C98.0872 185.758 97.9206 185.801 97.7715 185.882C94.7032 187.549 91.4511 189.299 88.0153 191.132C85.5861 192.426 82.8829 194.045 83.3737 197.143Z" fill="black"/>
<path d="M265.956 57.8743L264.971 58.3189C264.827 58.3817 264.702 58.4825 264.611 58.6106C263.648 59.9657 261.695 61.1928 260.471 61.8472C254.088 65.2807 247.775 68.777 241.532 72.3361C239.829 73.3083 234.238 76.4039 224.758 81.6228C220.949 83.7213 217.676 85.6597 213.568 87.8934C209.958 89.8567 203.837 93.4597 198.708 96.2482C197.153 97.0947 194.999 98.3064 192.246 99.8832C188.291 102.145 185.97 103.473 185.285 103.867C180.868 106.406 174.533 106.773 169.71 105.24C167.146 104.425 165.691 103.394 163.006 101.907C156.115 98.0894 151.269 95.423 148.469 93.9079C145.569 92.3381 144.079 91.5331 143.998 91.4928C141.633 90.2942 139.314 88.8644 137.041 87.6373C123.344 80.2214 102.846 68.7687 86.6419 60.172C85.9661 59.8139 85.3199 59.3314 84.7034 58.7244C84.3217 58.3497 83.8214 58.0723 83.2025 57.8921C83.1313 56.1943 83.6732 54.7776 84.8279 53.6418C85.5535 52.9304 86.1996 52.4218 86.7664 52.1159C91.9711 49.3203 100.193 44.7937 111.432 38.5362C119.421 34.0903 124.935 31.0386 127.975 29.3811C132.023 27.1724 136.152 24.672 140.075 22.6339C140.371 22.4798 148.944 17.7469 165.794 8.43534C169.07 6.62495 172.861 6.25505 176.856 6.52892C178.703 6.65459 180.278 6.94388 181.582 7.39677C182.446 7.69554 183.873 8.4223 185.865 9.57707C188.998 11.3946 191.801 12.7497 194.369 14.2506C197.794 16.2531 201.916 18.3445 205.174 20.1691C224.272 30.8844 238.329 38.7129 247.347 43.6544C251.966 46.1844 255.306 48.0387 257.366 49.2172C261.005 51.305 265.892 52.8522 265.956 57.8743Z" fill="#FFB854"/>
<path d="M265.955 57.8744C265.986 61.6991 265.989 65.5748 265.963 69.5014C265.953 71.1636 265.792 72.3587 265.479 73.0867C263.839 76.9137 259.952 78.244 256.573 80.1753C251.178 83.2602 245.817 86.255 240.489 89.1597C238.953 89.999 237.032 91.1657 235.221 92.1722C230.536 94.7829 213.836 104.162 185.121 120.31C182.094 122.01 179.202 122.501 175.767 122.515C173.751 122.524 171.813 122.289 169.951 121.807C168.797 121.506 167.019 120.686 164.62 119.346C158.135 115.723 146.857 109.506 130.788 100.694C123.579 96.7415 116.216 92.6951 108.697 88.555C96.9145 82.0675 89.7523 78.11 87.2104 76.6825C85.5459 75.7483 84.3887 74.4785 83.739 72.8732C83.3573 71.9295 83.1628 70.3053 83.1557 68.0005C83.1439 64.6239 83.1593 61.2545 83.202 57.8922C83.8208 58.0724 84.3212 58.3498 84.7029 58.7244C85.3194 59.3315 85.9656 59.814 86.6413 60.1721C102.846 68.7687 123.344 80.2215 137.041 87.6374C139.313 88.8644 141.632 90.2943 143.998 91.4929C144.078 91.5332 145.569 92.3382 148.469 93.9079C151.269 95.4231 156.114 98.0895 163.005 101.907C165.69 103.394 167.145 104.425 169.709 105.24C174.532 106.773 180.867 106.406 185.285 103.867C185.97 103.473 188.29 102.145 192.245 99.8833C194.998 98.3065 197.152 97.0948 198.708 96.2483C203.837 93.4598 209.958 89.8568 213.568 87.8934C217.676 85.6598 220.948 83.7214 224.757 81.6229C234.237 76.4039 239.829 73.3083 241.531 72.3362C247.774 68.777 254.088 65.2807 260.471 61.8473C261.694 61.1928 263.647 59.9658 264.611 58.6106C264.702 58.4826 264.826 58.3818 264.97 58.319L265.955 57.8744Z" fill="#FF9500"/>
<path d="M252.363 92.6521C251.91 93.1145 251.567 93.4097 251.335 93.5377C232.637 103.948 210.347 116.393 189.661 128.145C186.637 129.863 183.44 131.574 180.232 131.969C177.294 132.331 174.487 132.162 171.813 131.46C170.435 131.099 168.677 130.33 166.538 129.152C143.362 116.397 120.225 103.838 100.596 93.1714C99.8772 92.7825 99.1327 92.3047 98.3621 91.738C98.8576 91.1879 99.2797 90.8334 99.6283 90.6745C101.134 89.9822 102.533 89.1688 103.825 88.2346C103.924 88.1632 104.041 88.1213 104.164 88.1138C104.286 88.1062 104.408 88.1333 104.515 88.1919C124.582 99.1135 144.334 109.975 163.771 120.775C165.473 121.721 167.16 122.497 168.832 123.102C170.959 123.87 173.346 124.065 175.764 124.08C178.339 124.096 180.613 123.807 182.586 123.212C183.758 122.856 185.16 122.211 186.794 121.277C192.143 118.213 195.182 116.485 195.91 116.091C199.194 114.325 202.216 112.635 204.976 111.023C207.736 109.415 210.279 108.149 213.149 106.385C214.053 105.832 217.293 104.029 222.87 100.975C224.003 100.354 225.367 99.5807 226.96 98.6559C228.767 97.6055 230.132 96.8301 231.054 96.3298C232.721 95.4287 234.413 94.5075 236.13 93.5662C239.523 91.7024 242.247 90.1754 244.303 88.9851C244.761 88.7219 245.215 88.7041 245.665 88.9317C246.91 89.5613 247.721 89.8743 248.809 90.5856C249.684 91.1583 250.677 91.4748 251.53 92.0581C251.817 92.2549 252.095 92.4529 252.363 92.6521Z" fill="#2C2443"/>
<path d="M98.3606 91.7383C99.1312 92.305 99.8757 92.7828 100.594 93.1717C120.224 103.838 143.361 116.397 166.537 129.152C168.675 130.33 170.434 131.1 171.811 131.46C174.486 132.162 177.292 132.332 180.23 131.969C183.438 131.574 186.636 129.863 189.659 128.145C210.345 116.394 232.635 103.949 251.333 93.538C251.566 93.41 251.908 93.1148 252.361 92.6524C255.984 94.5209 258.775 96.0277 260.734 97.173C263.832 98.9798 265.891 101.313 265.952 105.001C265.816 104.975 265.724 105.043 265.674 105.204C265.641 105.306 265.565 105.374 265.447 105.407C265.337 105.438 265.239 105.524 265.151 105.667C263.914 107.694 262.247 109.253 260.151 110.344C253.595 113.751 247.101 117.646 240.706 121.121C239.824 121.601 238.917 122.205 238.17 122.604C229.157 127.434 222.018 131.638 213.66 136.24C208.235 139.228 203.906 141.659 200.674 143.532C196.186 146.135 191.331 148.646 187.048 151.179C185.313 152.208 183.929 152.907 182.898 153.277C178.786 154.75 174.258 154.718 170.104 153.569C168.586 153.147 166.203 152.022 162.955 150.194C157.838 147.31 150.748 143.413 141.685 138.503C140.308 137.756 139.259 137.185 138.538 136.792C131.256 132.806 124.384 129.033 117.923 125.474C114.598 123.641 111.24 121.796 107.846 119.94C103.059 117.317 98.197 114.668 93.2602 111.99C92.2927 111.464 91.1925 110.906 89.9595 110.315C88.0033 109.376 86.5841 108.779 85.4246 107.541C84.7109 106.782 83.9841 106.035 83.2443 105.3C82.5223 100.808 85.6202 98.5388 89.273 96.7249C89.9678 96.3787 90.9495 95.8368 92.218 95.0994C94.2406 93.9257 96.2882 92.8053 98.3606 91.7383Z" fill="#6288FA"/>
<path d="M265.953 105.001C266.038 109.046 266.056 113.087 266.006 117.123C265.989 118.635 265.829 119.802 265.526 120.622C264.58 123.202 262.859 125.181 260.365 126.559C254.84 129.613 251.374 131.545 249.965 132.356C248.354 133.285 246.462 134.156 244.811 135.173C244.095 135.614 243.417 136.009 242.777 136.358C238.656 138.61 231.51 142.584 221.34 148.28C203.782 158.113 194.634 163.249 193.896 163.688C191.729 164.978 189.438 166.289 187.025 167.621C184.433 169.054 182.547 169.909 181.366 170.186C177.428 171.111 173.047 171.015 169.17 169.692C168.162 169.348 166.551 168.56 164.336 167.33C155.307 162.315 144.102 156.155 130.721 148.849C128.625 147.704 115.428 140.48 91.1308 127.178C88.3257 125.643 86.807 124.779 86.5746 124.585C84.4832 122.842 83.1245 120.491 83.1174 117.745C83.1127 116.031 83.102 112.592 83.0854 107.43C83.083 106.717 83.1364 106.007 83.2455 105.3C83.9853 106.035 84.712 106.782 85.4258 107.541C86.5853 108.778 88.0044 109.376 89.9606 110.315C91.1936 110.905 92.2939 111.464 93.2613 111.99C98.1981 114.667 103.06 117.317 107.848 119.94C111.241 121.796 114.599 123.641 117.924 125.474C124.385 129.033 131.257 132.806 138.539 136.791C139.26 137.185 140.309 137.755 141.687 138.502C150.749 143.413 157.839 147.31 162.956 150.193C166.205 152.022 168.588 153.147 170.105 153.569C174.259 154.718 178.787 154.75 182.899 153.277C183.93 152.907 185.314 152.208 187.05 151.179C191.332 148.646 196.187 146.135 200.675 143.532C203.907 141.658 208.236 139.228 213.661 136.24C222.02 131.638 229.158 127.434 238.171 122.604C238.918 122.205 239.825 121.601 240.707 121.12C247.102 117.645 253.597 113.751 260.152 110.343C262.248 109.253 263.915 107.694 265.152 105.666C265.24 105.524 265.339 105.437 265.448 105.407C265.566 105.373 265.642 105.306 265.675 105.204C265.725 105.043 265.818 104.975 265.953 105.001Z" fill="#4169E1"/>
<path d="M255.777 140.053C253.162 141.45 250.583 142.87 248.041 144.314C238.164 149.923 228.475 155.283 216.745 161.895C201.392 170.55 192.988 175.281 191.535 176.087C189.095 177.441 187.267 178.428 186.05 179.05C181.398 181.426 176.106 181.653 171.062 180.202C169.483 179.747 167.146 178.65 164.052 176.912C160.993 175.195 152.443 170.542 138.4 162.952C131.605 159.276 117.815 151.728 97.0318 140.306C96.4769 140.004 95.4846 139.563 94.7092 139.079C96.9073 137.587 99.1078 136.306 101.311 135.234C101.513 135.135 101.738 135.088 101.963 135.099C102.188 135.109 102.407 135.177 102.598 135.294C105.689 137.18 108.915 138.666 111.721 140.302C114.327 141.822 116.217 142.864 117.391 143.429C119.103 144.252 120.579 145.071 121.819 145.886C123.555 147.028 125.614 147.907 127.787 149.109C132.641 151.793 137.109 154.238 141.193 156.443C147.064 159.613 151.964 162.284 155.893 164.456C159.049 166.201 162.226 167.964 165.425 169.745C167.04 170.646 168.346 171.222 169.344 171.474C173.872 172.623 178.45 172.655 183.031 171.232C184.091 170.902 186.075 169.925 188.985 168.301C203.869 159.997 212.214 155.325 214.021 154.284C220.06 150.798 224.205 148.482 226.455 147.334C227.504 146.797 228.728 145.95 229.802 145.353C236.617 141.571 242.38 138.413 247.092 135.878C247.76 135.515 247.967 135.76 248.685 136.123C251.021 137.309 253.385 138.619 255.777 140.053Z" fill="#1C1C1C"/>
<path d="M94.7084 139.079C95.4838 139.563 96.4762 140.004 97.031 140.306C117.814 151.728 131.604 159.277 138.4 162.952C152.442 170.542 160.992 175.195 164.051 176.912C167.145 178.65 169.482 179.747 171.061 180.202C176.105 181.653 181.397 181.426 186.05 179.05C187.266 178.429 189.094 177.441 191.534 176.087C192.988 175.281 201.391 170.55 216.744 161.896C228.475 155.284 238.163 149.924 248.04 144.315C250.582 142.87 253.161 141.45 255.776 140.054C258.532 141.531 260.838 142.827 262.694 143.941C264.805 145.21 265.899 147.079 265.977 149.55C265.261 149.768 264.72 150.195 264.355 150.831C264.287 150.948 264.197 151.052 264.089 151.136C261.908 152.861 259.024 154.113 257.139 155.177C249.629 159.412 242.14 163.609 234.671 167.768C232.039 169.233 224.139 173.652 210.972 181.024C201.907 186.098 195.085 189.953 190.506 192.587C186.359 194.977 183.975 196.294 183.354 196.538C180.857 197.525 178.182 197.95 175.33 197.815C173.391 197.723 171.271 197.598 169.454 196.898C167.668 196.208 166.075 195.47 164.673 194.685C153.823 188.61 148.395 185.572 148.391 185.569C145.538 183.952 142.663 182.374 139.765 180.835C135.992 178.833 133.139 177.115 129.967 175.465C128.067 174.473 125.618 173.128 122.618 171.428C118.35 169.006 112.98 166.242 108.256 163.635C103.198 160.844 100.312 159.267 99.5954 158.904C95.8537 157.012 94.0505 155.86 90.2945 153.975C88.8434 153.247 87.3815 152.413 85.909 151.474C85.8192 151.418 85.7369 151.352 85.6636 151.279C84.9119 150.544 84.0761 149.905 83.1561 149.362C83.0541 146.834 84.2362 144.893 86.7022 143.539C89.403 142.055 92.0717 140.568 94.7084 139.079Z" fill="#46C3C3"/>
<path d="M265.977 149.55C266.011 153.543 266.018 157.524 265.999 161.494C265.992 163.108 265.72 164.422 265.184 165.434C264.383 166.945 263.047 168.216 261.176 169.247C257.508 171.27 252.201 174.235 245.256 178.143C235.539 183.611 222.886 190.697 207.298 199.402C197.735 204.741 191.041 208.536 187.217 210.787C185.277 211.925 183.884 212.639 183.037 212.928C179.69 214.07 177.144 214.141 173.559 213.977C170.226 213.824 167.597 212.675 164.382 210.833C160.356 208.531 156.708 206.495 153.438 204.726C146.372 200.904 132.894 193.483 113.005 182.464C105.308 178.196 97.3266 173.892 88.4276 168.984C86.9574 168.173 85.9272 167.493 85.3367 166.943C82.8008 164.577 83.16 161.963 83.1244 158.659C83.0912 155.652 83.1019 152.553 83.1564 149.361C84.0765 149.904 84.9123 150.543 85.664 151.279C85.7372 151.352 85.8196 151.417 85.9094 151.474C87.3819 152.413 88.8437 153.247 90.2949 153.975C94.0508 155.86 95.8541 157.012 99.5958 158.904C100.312 159.267 103.199 160.844 108.257 163.635C112.98 166.242 118.351 169.005 122.619 171.428C125.618 173.128 128.068 174.473 129.967 175.465C133.14 177.115 135.992 178.833 139.766 180.835C142.663 182.374 145.538 183.952 148.391 185.569C148.396 185.572 153.823 188.61 164.674 194.685C166.075 195.47 167.669 196.208 169.454 196.898C171.272 197.598 173.391 197.723 175.33 197.815C178.182 197.95 180.857 197.525 183.354 196.538C183.975 196.294 186.359 194.977 190.507 192.587C195.085 189.952 201.907 186.098 210.972 181.024C224.139 173.652 232.039 169.233 234.671 167.768C242.14 163.609 249.629 159.412 257.139 155.177C259.024 154.113 261.909 152.861 264.089 151.136C264.197 151.052 264.287 150.948 264.356 150.83C264.721 150.195 265.261 149.768 265.977 149.55Z" fill="#2AA5A5"/>
<path d="M265.742 196.993C263.982 200.621 260.756 201.823 257.416 203.645C252.866 206.13 248.145 208.762 243.253 211.541C240.491 213.11 235.773 215.722 229.101 219.376C225.262 221.479 220.554 224.109 214.977 227.265C211.509 229.225 207.262 231.473 203.307 233.77C200.4 235.459 197.359 237.154 194.184 238.856C194.068 238.918 191.25 240.514 185.73 243.644C183.375 244.979 180.736 245.72 177.812 245.867C173.335 246.094 169.302 245.19 165.712 243.153C162.077 241.09 159.495 239.596 156.571 238.095C154.003 236.779 151.716 235.261 149.066 233.831C141.18 229.582 130.39 223.661 116.696 216.068C113.922 214.532 111.006 213.162 108.587 211.708C106.04 210.171 102.601 208.567 100.385 207.184C98.5925 206.063 96.5011 205.177 94.4382 203.993C93.2692 203.32 91.0486 202.246 87.7763 200.771C86.311 200.111 84.8432 198.902 83.3731 197.143C82.8822 194.045 85.5854 192.427 88.0147 191.132C91.4505 189.299 94.7025 187.549 97.7708 185.882C97.9199 185.801 98.0865 185.758 98.2559 185.757C98.4252 185.756 98.5922 185.796 98.7418 185.875C102.116 187.656 107.376 190.49 114.523 194.379C131.759 203.762 146.251 211.622 157.997 217.961C160.957 219.559 163.606 221.03 165.947 222.374C171.463 225.54 178.755 226.073 184.655 223.577C185.035 223.418 186.788 222.467 189.916 220.724C202.044 213.966 218.988 204.554 240.746 192.487C245.927 189.615 249.415 187.656 251.209 186.608C251.392 186.502 251.599 186.446 251.811 186.447C252.022 186.448 252.229 186.504 252.412 186.611C253.545 187.273 255.983 188.646 259.724 190.73C262.481 192.266 265.376 193.33 265.742 196.993Z" fill="#262840"/>
<path d="M83.3741 197.143C84.8442 198.902 86.3119 200.112 87.7773 200.771C91.0496 202.246 93.2702 203.32 94.4391 203.993C96.5021 205.178 98.5934 206.063 100.386 207.184C102.602 208.567 106.041 210.171 108.588 211.708C111.007 213.163 113.923 214.532 116.697 216.068C130.391 223.661 141.181 229.582 149.067 233.831C151.717 235.261 154.004 236.779 156.572 238.095C159.496 239.596 162.078 241.09 165.713 243.153C169.303 245.19 173.336 246.095 177.813 245.867C180.737 245.72 183.376 244.979 185.731 243.644C191.251 240.514 194.069 238.918 194.185 238.857C197.36 237.154 200.401 235.459 203.308 233.77C207.263 231.473 211.51 229.225 214.978 227.265C220.555 224.109 225.263 221.479 229.102 219.376C235.774 215.722 240.492 213.11 243.254 211.541C248.146 208.762 252.867 206.13 257.417 203.645C260.757 201.824 263.983 200.621 265.743 196.994C265.969 197.679 266.097 198.294 266.128 198.839C266.369 203.112 266.417 206.733 266.27 209.702C266.118 212.739 264.796 215.139 262.304 216.901C260.942 217.865 259.238 218.7 257.847 219.476C247.051 225.499 239.875 229.492 236.318 231.455C235.79 231.747 234.938 232.22 233.765 232.874C220.934 240.016 208.251 247.101 195.714 254.129C192.858 255.73 189.689 257.416 186.275 259.386C184.205 260.581 182.193 261.321 180.239 261.606C179.509 261.712 177.995 261.783 175.697 261.819C172.946 261.862 170.267 261.329 167.659 260.222C165.606 259.354 163.952 258.134 161.872 257.01C151.859 251.597 139.71 244.796 127.581 238.245C124.782 236.733 120.4 234.204 117.149 232.451C110.076 228.645 103.78 225.201 98.2627 222.118C96.5459 221.161 95.3272 220.494 94.6063 220.12C92.1593 218.846 90.6476 217.89 88.3251 216.758C85.91 215.585 84.2668 214.326 83.4665 211.918C83.2081 211.142 83.1049 209.786 83.1571 207.849C83.2069 206.037 83.1642 203.661 83.0291 200.721C82.9757 199.569 83.182 198.31 83.3741 197.143Z" fill="#141723"/>
</svg>
