<svg width="360" height="288" viewBox="0 0 360 288" fill="none" xmlns="http://www.w3.org/2000/svg">
<g clip-path="url(#clip0_18089_5187)">
<ellipse cx="138.5" cy="244" rx="96.5" ry="28" fill="#1C1C1C"/>
<ellipse cx="217" cy="247.5" rx="71" ry="20.5" fill="#1C1C1C"/>
<path d="M97.2699 220.31C129.186 262.483 171.575 257.289 191.949 208.707C212.322 160.126 202.966 86.5539 171.05 44.3799C139.134 2.20594 96.7448 7.40036 76.371 55.982C55.9973 104.564 65.354 178.136 97.2699 220.31Z" fill="#CCD9FD" stroke="black"/>
<path d="M104.26 214.251C131.993 250.898 168.189 246.482 185.85 204.299C203.51 162.116 193.164 86.6384 165.43 49.991C137.697 13.3436 100.897 17.831 83.2365 60.0137C65.5756 102.197 76.5262 177.603 104.26 214.251Z" fill="#6B8DF3" stroke="black"/>
<path d="M119.382 16.147C100.895 18.4125 85.8119 33.4693 76.3709 55.9814L51.1233 59.0753C60.5642 36.5631 75.6471 21.5064 94.1342 19.2409L119.382 16.147Z" fill="#4169E1" stroke="black"/>
<path d="M97.2704 220.309C65.3545 178.135 55.9978 104.563 76.3716 55.9819L51.1239 59.0758C30.7501 107.657 40.1069 181.229 72.0227 223.403L97.2704 220.309Z" fill="#4169E1" stroke="black"/>
<path d="M148.937 248.542C130.45 250.807 112.059 239.853 97.2698 220.31L72.0221 223.403C86.8115 242.946 105.203 253.901 123.69 251.636L148.937 248.542Z" fill="#4169E1" stroke="black"/>
<path fill-rule="evenodd" clip-rule="evenodd" d="M165.239 165.297L127.351 159.935L150.122 145.321L151.477 102.405L147.885 102.846L146.53 145.761L123.759 160.375L161.647 165.737L165.239 165.297Z" fill="#6478BF" stroke="black" stroke-linejoin="round"/>
<path fill-rule="evenodd" clip-rule="evenodd" d="M151.477 102.405L165.239 165.296L161.648 165.736L147.886 102.845L151.477 102.405Z" fill="#6478BF" stroke="black" stroke-linejoin="round"/>
<path fill-rule="evenodd" clip-rule="evenodd" d="M123.57 154.939L104.768 85.3896L101.176 85.8297L119.979 155.379L123.57 154.939Z" fill="#6478BF" stroke="black" stroke-linejoin="round"/>
<path fill-rule="evenodd" clip-rule="evenodd" d="M104.768 85.3896L147.696 97.4111L146.342 140.325L123.57 154.939L119.979 155.379L142.75 140.765L144.104 97.8512L101.176 85.8297L104.768 85.3896Z" fill="#6478BF" stroke="black" stroke-linejoin="round"/>
<path d="M165.219 165.269L127.395 159.993L150.126 145.326L151.478 102.407L165.219 165.269ZM147.66 97.3622L146.317 140.293L123.585 154.959L104.796 85.4263L147.66 97.3622Z" fill="white"/>
<path d="M167 175.78C167 228.679 203.937 250.12 249.5 223.671C295.064 197.221 332 132.896 332 79.9973C332 27.0981 295.064 5.6565 249.5 32.1061C203.937 58.5556 167 122.881 167 175.78Z" fill="#FFE2C8" stroke="black"/>
<path d="M176.23 175.166C176.23 221.133 207.758 239.457 247.297 216.474C286.836 193.49 324.133 127.048 324.133 81.0807C324.133 35.1136 292.08 16.4817 252.542 39.4653C213.003 62.4488 176.23 129.199 176.23 175.166Z" fill="#F8B04A" stroke="black"/>
<path d="M307.836 26.2953C291.727 16.944 270.614 19.8492 249.5 32.1056L227.5 19.3346C248.614 7.07817 269.727 4.17305 285.836 13.5244L307.836 26.2953Z" fill="#FF9500" stroke="black"/>
<path d="M167.001 175.78C167.001 122.881 203.937 58.5559 249.501 32.1064L227.501 19.3354C181.937 45.785 145.001 110.11 145.001 163.009L167.001 175.78Z" fill="#FF9500" stroke="black"/>
<path d="M191.164 229.481C175.055 220.13 167 200.293 167 175.78L145 163.009C145 187.522 153.055 207.359 169.164 216.71L191.164 229.481Z" fill="#FF9500" stroke="black"/>
<path fill-rule="evenodd" clip-rule="evenodd" d="M284.577 85.0499C281.695 83.1362 277.242 83.1139 272.068 84.0472L267.507 81.3998C272.682 80.4665 277.135 80.4888 280.016 82.4026L284.577 85.0499Z" fill="#FF9500" stroke="black" stroke-linejoin="round"/>
<path fill-rule="evenodd" clip-rule="evenodd" d="M272.068 84.0455L275.296 67.1341L270.736 64.4867L267.507 81.3982L272.068 84.0455Z" fill="#FF9500" stroke="black" stroke-linejoin="round"/>
<path fill-rule="evenodd" clip-rule="evenodd" d="M275.296 67.1341L267.416 69.432L264.269 85.8987C262.242 86.4845 260.161 87.1416 258.085 87.7975L257.953 87.8392L253.392 85.1919L253.524 85.1501C255.601 84.4942 257.681 83.8372 259.708 83.2513L262.855 66.7846L270.736 64.4867L275.296 67.1341Z" fill="#FF9500" stroke="black" stroke-linejoin="round"/>
<path fill-rule="evenodd" clip-rule="evenodd" d="M257.953 87.8393L261.122 71.2641L256.562 68.6167L253.392 85.1919L257.953 87.8393Z" fill="#FF9500" stroke="black" stroke-linejoin="round"/>
<path fill-rule="evenodd" clip-rule="evenodd" d="M261.122 71.2641L253.241 73.5567L250.012 90.4629L249.667 90.5715C248.071 91.0744 246.501 91.5693 244.977 92.0089L240.417 89.3616C241.94 88.9219 243.511 88.427 245.107 87.9241L245.452 87.8155L248.681 70.9093L256.561 68.6167L261.122 71.2641Z" fill="#FF9500" stroke="black" stroke-linejoin="round"/>
<path fill-rule="evenodd" clip-rule="evenodd" d="M244.977 92.0082L244.987 91.9552L240.426 89.3079L240.417 89.3608L244.977 92.0082Z" fill="#FF9500" stroke="black" stroke-linejoin="round"/>
<path fill-rule="evenodd" clip-rule="evenodd" d="M244.987 91.9552L234.115 95.1162L232.017 106.108L227.457 103.461L229.554 92.4688L240.427 89.3079L244.987 91.9552Z" fill="#FF9500" stroke="black" stroke-linejoin="round"/>
<path fill-rule="evenodd" clip-rule="evenodd" d="M232.017 106.11C232.017 106.11 237.409 104.414 237.732 104.426L233.171 101.779C232.849 101.767 227.457 103.462 227.457 103.462L232.017 106.11Z" fill="#FF9500" stroke="black" stroke-linejoin="round"/>
<path fill-rule="evenodd" clip-rule="evenodd" d="M237.732 104.426C237.745 104.426 237.75 104.43 237.745 104.437L233.185 101.789C233.189 101.783 233.185 101.779 233.171 101.779L237.732 104.426Z" fill="#FF9500" stroke="black" stroke-linejoin="round"/>
<path fill-rule="evenodd" clip-rule="evenodd" d="M237.744 104.435C238.893 104.101 239.703 104.162 240.265 104.47L235.704 101.823C235.143 101.515 234.333 101.454 233.184 101.787L237.744 104.435Z" fill="#FF9500" stroke="black" stroke-linejoin="round"/>
<path fill-rule="evenodd" clip-rule="evenodd" d="M240.266 104.471C241.264 105.019 241.478 106.348 241.416 107.63L237.74 126.893L233.18 124.245L236.856 104.983C236.917 103.701 236.704 102.371 235.705 101.823L240.266 104.471Z" fill="#FF9500" stroke="black" stroke-linejoin="round"/>
<path fill-rule="evenodd" clip-rule="evenodd" d="M237.74 126.894C237.959 126.83 238.242 126.762 238.561 126.719L234.001 124.072C233.682 124.114 233.399 124.183 233.18 124.247L237.74 126.894Z" fill="#FF9500" stroke="black" stroke-linejoin="round"/>
<path fill-rule="evenodd" clip-rule="evenodd" d="M238.562 126.719L237.727 126.965L232.574 153.953C232.182 155.303 231.192 157.566 228.957 158.223C229.04 158.308 223.229 159.891 223.229 159.891L218.669 157.243C218.669 157.243 224.479 155.66 224.397 155.576C226.632 154.919 227.621 152.656 228.013 151.305L233.167 124.318L234.001 124.072L238.562 126.719Z" fill="#FF9500" stroke="black" stroke-linejoin="round"/>
<path fill-rule="evenodd" clip-rule="evenodd" d="M223.229 159.89L219.316 172.634L214.755 169.987L218.668 157.242L223.229 159.89Z" fill="#FF9500" stroke="black" stroke-linejoin="round"/>
<path fill-rule="evenodd" clip-rule="evenodd" d="M219.316 172.635L229.577 169.649C230.679 169.331 231.769 169.028 232.847 168.729L232.849 168.729C233.635 168.51 234.416 168.294 235.191 168.074L230.63 165.427C229.855 165.646 229.075 165.863 228.288 166.081L228.287 166.082C227.208 166.381 226.118 166.683 225.016 167.002L214.755 169.988L219.316 172.635Z" fill="#FF9500" stroke="black" stroke-linejoin="round"/>
<path fill-rule="evenodd" clip-rule="evenodd" d="M235.191 168.074L231.931 185.173L227.37 182.526L230.631 165.427L235.191 168.074Z" fill="#FF9500" stroke="black" stroke-linejoin="round"/>
<path fill-rule="evenodd" clip-rule="evenodd" d="M231.931 185.174L239.807 182.878L243.035 165.967C245.188 165.39 247.277 164.802 249.32 164.209L244.759 161.562C242.716 162.155 240.627 162.742 238.475 163.32L235.246 180.231L227.37 182.526L231.931 185.174Z" fill="#FF9500" stroke="black" stroke-linejoin="round"/>
<path fill-rule="evenodd" clip-rule="evenodd" d="M249.32 164.209L246.1 181.052L241.54 178.404L244.759 161.562L249.32 164.209Z" fill="#FF9500" stroke="black" stroke-linejoin="round"/>
<path fill-rule="evenodd" clip-rule="evenodd" d="M246.1 181.05L253.981 178.752L257.241 161.684C270.686 156.834 280.792 149.776 285.047 133.19C287.516 123.576 286.342 118.566 282.851 116.452L278.291 113.804C281.782 115.919 282.956 120.929 280.486 130.543C276.231 147.129 266.125 154.187 252.681 159.037L249.42 176.104L241.54 178.402L246.1 181.05Z" fill="#FF9500" stroke="black" stroke-linejoin="round"/>
<path fill-rule="evenodd" clip-rule="evenodd" d="M282.851 116.454C281.493 115.632 279.785 115.248 277.805 115.201L273.244 112.554C275.225 112.601 276.933 112.985 278.29 113.807L282.851 116.454Z" fill="#FF9500" stroke="black" stroke-linejoin="round"/>
<path fill-rule="evenodd" clip-rule="evenodd" d="M277.805 115.2C282.958 110.832 286.834 104.647 287.87 95.919C288.557 90.1931 287.236 86.8148 284.577 85.0483L280.016 82.4009C282.676 84.1674 283.996 87.5457 283.309 93.2717C282.274 102 278.397 108.184 273.244 112.553L277.805 115.2Z" fill="#FF9500" stroke="black" stroke-linejoin="round"/>
<path fill-rule="evenodd" clip-rule="evenodd" d="M245.588 153.466L249.921 130.805C250.46 130.649 251.118 130.438 251.864 130.2L251.865 130.199C256.124 128.837 263.237 126.564 267.206 128.245L262.645 125.597C258.677 123.916 251.564 126.19 247.304 127.552L247.304 127.552C246.558 127.791 245.899 128.001 245.36 128.158L241.028 150.819L245.588 153.466Z" fill="#FF9500" stroke="black" stroke-linejoin="round"/>
<path fill-rule="evenodd" clip-rule="evenodd" d="M267.206 128.246C269.438 129.192 270.675 131.389 269.85 135.704C267.62 147.427 253.563 151.276 247.128 153.038H247.127C246.548 153.197 246.03 153.339 245.588 153.468L241.028 150.821C241.469 150.692 241.987 150.55 242.567 150.391H242.567C249.002 148.629 263.06 144.779 265.29 133.057C266.115 128.742 264.878 126.545 262.645 125.599L267.206 128.246Z" fill="#FF9500" stroke="black" stroke-linejoin="round"/>
<path fill-rule="evenodd" clip-rule="evenodd" d="M270.794 98.2718C267.698 96.0579 261.235 98.15 257.46 99.3718C256.834 99.5744 256.282 99.7531 255.832 99.884L251.91 120.428L247.349 117.78L251.271 97.2366C251.722 97.1057 252.273 96.927 252.899 96.7244C256.674 95.5026 263.138 93.4105 266.233 95.6245L270.794 98.2718Z" fill="#FF9500" stroke="black" stroke-linejoin="round"/>
<path fill-rule="evenodd" clip-rule="evenodd" d="M251.91 120.429C252.281 120.321 252.717 120.203 253.206 120.071C258.568 118.62 270.26 115.457 272.295 104.799C272.961 101.31 272.251 99.315 270.794 98.2731L266.233 95.6257C267.69 96.6676 268.401 98.663 267.735 102.151C265.699 112.81 254.008 115.973 248.646 117.423C248.157 117.556 247.721 117.673 247.349 117.782L251.91 120.429Z" fill="#FF9500" stroke="black" stroke-linejoin="round"/>
<path fill-rule="evenodd" clip-rule="evenodd" d="M287.87 95.8724C289.302 83.9532 282.019 82.2331 272.068 84.0496L275.297 67.1494L267.416 69.4634L264.269 85.9191C262.242 86.5091 260.162 87.1702 258.086 87.8302L258.085 87.8303L257.953 87.8724L261.122 71.3082L253.242 73.6169L250.013 90.5118L249.668 90.6211C248.072 91.1273 246.501 91.6254 244.978 92.0681L244.987 92.0152L234.115 95.1984L232.017 106.183C232.017 106.183 237.868 104.331 237.745 104.498C240.938 103.565 241.512 105.679 241.416 107.681L237.741 126.931C237.96 126.867 238.242 126.797 238.562 126.754L237.727 127.002L232.574 153.972C232.181 155.321 231.192 157.585 228.957 158.246C229.039 158.33 223.229 159.925 223.229 159.925L219.316 172.665L229.577 169.657C230.679 169.337 231.769 169.032 232.848 168.731C233.635 168.511 234.416 168.292 235.191 168.071L231.931 185.159L239.807 182.847L243.035 165.947C245.188 165.366 247.277 164.774 249.32 164.176L246.1 181.008L253.981 178.694L257.241 161.638C270.686 156.761 280.792 149.687 285.047 133.11C288.476 119.763 284.878 115.305 277.805 115.156C282.958 110.78 286.835 104.593 287.87 95.8724ZM269.85 135.678C267.62 147.388 253.562 151.264 247.127 153.039C246.547 153.199 246.029 153.342 245.588 153.472L249.92 130.835C250.459 130.678 251.118 130.466 251.864 130.226C258.52 128.086 272.142 123.705 269.85 135.678ZM253.207 120.07C258.569 118.609 270.26 115.423 272.296 104.776C274.378 93.8859 263.012 97.586 257.46 99.3933C256.835 99.597 256.283 99.7767 255.832 99.9087L251.91 120.431C252.282 120.322 252.718 120.203 253.207 120.07Z" fill="#FFE2C8"/>
<path d="M272.068 84.0496L271.648 84.1726L271.553 84.6724L271.927 84.604L272.068 84.0496ZM287.87 95.8724L287.442 96.0468L287.442 96.0478L287.87 95.8724ZM275.297 67.1494L275.716 67.0263L275.82 66.4803L275.401 66.6036L275.297 67.1494ZM267.416 69.4634L267.52 68.9176L267.101 69.0408L266.996 69.5863L267.416 69.4634ZM264.269 85.9191L264.164 86.4651L264.584 86.3428L264.689 85.7962L264.269 85.9191ZM258.086 87.8302L257.988 88.3741L257.99 88.3734L258.086 87.8302ZM258.085 87.8303L258.183 87.2865L258.181 87.2871L258.085 87.8303ZM257.953 87.8724L257.533 87.9952L257.427 88.5524L257.857 88.4156L257.953 87.8724ZM261.122 71.3082L261.542 71.1854L261.647 70.6394L261.227 70.7624L261.122 71.3082ZM253.242 73.6169L253.346 73.0711L252.927 73.1941L252.822 73.7399L253.242 73.6169ZM250.013 90.5118L249.917 91.0551L250.33 90.924L250.433 90.3888L250.013 90.5118ZM249.668 90.6211L249.764 90.0778L249.764 90.0778L249.668 90.6211ZM244.978 92.0681L244.556 92.205L244.465 92.7327L244.873 92.6141L244.978 92.0681ZM244.987 92.0152L245.409 91.8783L245.501 91.3497L245.092 91.4694L244.987 92.0152ZM234.115 95.1984L234.219 94.6526L233.8 94.7755L233.695 95.3215L234.115 95.1984ZM232.017 106.183L231.598 106.306L231.491 106.862L231.921 106.726L232.017 106.183ZM237.745 104.498L237.504 104.223L236.694 105.321L237.641 105.044L237.745 104.498ZM241.416 107.681L241.836 107.558L241.846 107.507L241.848 107.459L241.416 107.681ZM237.741 126.931L237.321 127.054L237.217 127.599L237.636 127.477L237.741 126.931ZM238.562 126.754L238.459 127.3L238.717 126.197L238.562 126.754ZM237.727 127.002L237.83 126.457L237.411 126.581L237.307 127.125L237.727 127.002ZM232.574 153.972L232.974 153.926L232.986 153.887L232.993 153.849L232.574 153.972ZM228.957 158.246L229.06 157.7L227.921 158.037L228.606 158.741L228.957 158.246ZM223.229 159.925L223.34 159.378L222.98 159.476L222.832 159.957L223.229 159.925ZM219.316 172.665L218.919 172.697L218.717 173.356L219.212 173.21L219.316 172.665ZM229.577 169.657L229.682 169.111L229.682 169.112L229.577 169.657ZM232.848 168.731L232.739 169.278L232.739 169.278L232.848 168.731ZM235.191 168.071L235.611 167.948L235.714 167.405L235.298 167.524L235.191 168.071ZM231.931 185.159L231.511 185.282L231.407 185.828L231.826 185.705L231.931 185.159ZM239.807 182.847L239.702 183.393L240.122 183.27L240.226 182.724L239.807 182.847ZM243.035 165.947L243.147 165.399L242.722 165.514L242.616 166.07L243.035 165.947ZM249.32 164.176L249.739 164.054L249.844 163.508L249.424 163.631L249.32 164.176ZM246.1 181.008L245.68 181.131L245.576 181.677L245.996 181.554L246.1 181.008ZM253.981 178.694L253.877 179.24L254.296 179.116L254.4 178.571L253.981 178.694ZM257.241 161.638L257.321 161.1L256.92 161.245L256.822 161.76L257.241 161.638ZM285.047 133.11L284.639 133.182L284.639 133.182L285.047 133.11ZM277.805 115.156L277.707 114.725L276.567 115.693L277.605 115.715L277.805 115.156ZM247.127 153.039L247.017 153.587L247.017 153.587L247.127 153.039ZM269.85 135.678L269.43 135.801L269.43 135.801L269.85 135.678ZM245.588 153.472L245.168 153.594L245.063 154.141L245.484 154.017L245.588 153.472ZM249.92 130.835L250.025 130.289L249.605 130.412L249.501 130.958L249.92 130.835ZM251.864 130.226L251.958 129.683L251.958 129.683L251.864 130.226ZM272.296 104.776L271.876 104.899L271.876 104.899L272.296 104.776ZM253.207 120.07L253.095 120.618L253.095 120.618L253.207 120.07ZM257.46 99.3933L257.367 99.9356L257.367 99.9356L257.46 99.3933ZM255.832 99.9087L255.936 99.3629L255.517 99.4859L255.412 100.032L255.832 99.9087ZM251.91 120.431L251.49 120.554L251.386 121.1L251.806 120.977L251.91 120.431ZM272.068 84.0496L271.927 84.604C276.881 83.6997 281.115 83.6885 283.93 85.3403C286.724 86.9795 288.137 90.2625 287.442 96.0468L287.87 95.8724L288.298 95.6979C289.035 89.5631 287.522 86.0264 284.545 84.2799C281.589 82.5459 277.205 82.583 272.208 83.4951L272.068 84.0496ZM275.297 67.1494L274.877 67.2724L271.648 84.1726L272.068 84.0496L272.487 83.9265L275.716 67.0263L275.297 67.1494ZM267.416 69.4634L267.312 70.0091L275.192 67.6951L275.297 67.1494L275.401 66.6036L267.52 68.9176L267.416 69.4634ZM264.269 85.9191L264.689 85.7962L267.836 69.3405L267.416 69.4634L266.996 69.5863L263.85 86.042L264.269 85.9191ZM258.086 87.8302L257.99 88.3734C260.067 87.7131 262.142 87.0535 264.164 86.4651L264.269 85.9191L264.374 85.3731C262.342 85.9647 260.257 86.6273 258.181 87.2871L258.086 87.8302ZM258.085 87.8303L257.988 88.3741L257.988 88.3741L258.086 87.8302L258.183 87.2864L258.183 87.2865L258.085 87.8303ZM257.953 87.8724L257.857 88.4156L257.99 88.3735L258.085 87.8303L258.181 87.2871L258.049 87.3292L257.953 87.8724ZM261.122 71.3082L260.703 71.431L257.533 87.9952L257.953 87.8724L258.372 87.7496L261.542 71.1854L261.122 71.3082ZM253.242 73.6169L253.137 74.1627L261.018 71.854L261.122 71.3082L261.227 70.7624L253.346 73.0711L253.242 73.6169ZM250.013 90.5118L250.433 90.3888L253.662 73.4939L253.242 73.6169L252.822 73.7399L249.593 90.6348L250.013 90.5118ZM249.668 90.6211L249.572 91.1644L249.917 91.0551L250.013 90.5118L250.109 89.9686L249.764 90.0778L249.668 90.6211ZM244.978 92.0681L244.873 92.6141C246.402 92.1698 247.977 91.6702 249.572 91.1644L249.668 90.6211L249.764 90.0778C248.167 90.5843 246.601 91.0809 245.083 91.5221L244.978 92.0681ZM244.987 92.0152L244.565 92.1521L244.556 92.205L244.978 92.0681L245.4 91.9312L245.409 91.8783L244.987 92.0152ZM234.115 95.1984L234.011 95.7442L244.883 92.561L244.987 92.0152L245.092 91.4694L234.219 94.6526L234.115 95.1984ZM232.017 106.183L232.437 106.06L234.535 95.0753L234.115 95.1984L233.695 95.3215L231.598 106.306L232.017 106.183ZM237.745 104.498L237.986 104.774C238.039 104.702 238.123 104.568 238.161 104.397C238.201 104.22 238.169 104.104 238.133 104.043C238.077 103.947 237.988 103.935 237.979 103.933C237.931 103.924 237.881 103.93 237.861 103.932C237.806 103.939 237.734 103.954 237.659 103.972C237.502 104.008 237.277 104.069 237.01 104.144C236.475 104.295 235.752 104.512 235.027 104.733C234.303 104.955 233.574 105.181 233.027 105.353C232.753 105.438 232.525 105.51 232.365 105.56C232.285 105.585 232.222 105.605 232.179 105.619C232.158 105.626 232.141 105.631 232.13 105.634C232.125 105.636 232.121 105.637 232.118 105.638C232.116 105.639 232.115 105.639 232.115 105.639C232.114 105.639 232.114 105.639 232.114 105.64C232.114 105.64 232.114 105.64 232.114 105.64C232.113 105.64 232.113 105.64 232.017 106.183C231.921 106.726 231.921 106.726 231.921 106.726C231.921 106.726 231.921 106.726 231.921 106.726C231.921 106.726 231.922 106.726 231.922 106.726C231.923 106.726 231.924 106.725 231.925 106.725C231.928 106.724 231.932 106.723 231.938 106.721C231.949 106.718 231.965 106.712 231.986 106.706C232.029 106.692 232.092 106.672 232.172 106.647C232.331 106.597 232.559 106.525 232.832 106.44C233.378 106.269 234.105 106.043 234.827 105.822C235.55 105.602 236.267 105.387 236.794 105.238C237.059 105.163 237.271 105.106 237.41 105.074C237.483 105.057 237.524 105.049 237.542 105.047C237.557 105.045 237.534 105.05 237.501 105.044C237.498 105.043 237.414 105.033 237.36 104.94C237.326 104.881 237.293 104.767 237.333 104.592C237.371 104.424 237.454 104.291 237.504 104.223L237.745 104.498ZM241.416 107.681L241.848 107.459C241.899 106.393 241.774 105.252 241.179 104.51C240.578 103.76 239.532 103.46 237.85 103.952L237.745 104.498L237.641 105.044C239.15 104.603 239.988 104.894 240.448 105.468C240.915 106.05 241.029 106.967 240.985 107.903L241.416 107.681ZM237.741 126.931L238.16 126.808L241.836 107.558L241.416 107.681L240.997 107.804L237.321 127.054L237.741 126.931ZM238.562 126.754L238.717 126.197C238.378 126.243 238.078 126.317 237.845 126.385L237.741 126.931L237.636 127.477C237.841 127.417 238.107 127.352 238.406 127.311L238.562 126.754ZM237.727 127.002L237.624 127.548L238.459 127.3L238.562 126.754L238.664 126.209L237.83 126.457L237.727 127.002ZM232.574 153.972L232.993 153.849L238.147 126.879L237.727 127.002L237.307 127.125L232.154 154.095L232.574 153.972ZM228.957 158.246L228.854 158.791C230.086 158.427 231.024 157.598 231.71 156.624C232.377 155.677 232.763 154.655 232.974 153.926L232.574 153.972L232.173 154.017C231.992 154.638 231.687 155.422 231.202 156.109C230.737 156.77 230.063 157.403 229.06 157.7L228.957 158.246ZM223.229 159.925C223.118 160.473 223.118 160.473 223.119 160.473C223.119 160.473 223.119 160.473 223.119 160.473C223.119 160.473 223.119 160.473 223.12 160.472C223.12 160.472 223.121 160.472 223.123 160.472C223.126 160.471 223.13 160.47 223.135 160.468C223.146 160.465 223.163 160.461 223.184 160.455C223.227 160.443 223.289 160.426 223.368 160.404C223.527 160.36 223.754 160.297 224.026 160.222C224.57 160.071 225.294 159.869 226.016 159.664C226.738 159.459 227.459 159.251 227.996 159.088C228.263 159.008 228.489 158.937 228.647 158.882C228.724 158.856 228.795 158.83 228.85 158.807C228.87 158.798 228.919 158.777 228.97 158.744C228.985 158.735 229.01 158.718 229.04 158.693C229.065 158.673 229.125 158.622 229.19 158.537C229.262 158.441 229.37 158.26 229.388 158.05C229.404 157.865 229.337 157.78 229.308 157.75L228.957 158.246L228.606 158.741C228.578 158.713 228.512 158.629 228.528 158.446C228.546 158.238 228.653 158.058 228.724 157.965C228.787 157.881 228.845 157.832 228.866 157.815C228.893 157.793 228.915 157.778 228.926 157.771C228.96 157.749 228.98 157.742 228.962 157.75C228.941 157.759 228.896 157.776 228.822 157.802C228.678 157.851 228.463 157.918 228.198 157.999C227.668 158.159 226.952 158.366 226.231 158.57C225.511 158.775 224.788 158.977 224.245 159.127C223.974 159.203 223.747 159.265 223.589 159.309C223.509 159.331 223.447 159.348 223.405 159.36C223.383 159.366 223.367 159.37 223.356 159.373C223.351 159.375 223.347 159.376 223.344 159.376C223.342 159.377 223.341 159.377 223.341 159.377C223.34 159.377 223.34 159.377 223.34 159.378C223.34 159.378 223.34 159.378 223.34 159.378C223.34 159.378 223.34 159.378 223.229 159.925ZM219.316 172.665L219.713 172.633L223.626 159.893L223.229 159.925L222.832 159.957L218.919 172.697L219.316 172.665ZM229.577 169.657L229.682 169.112L219.42 172.119L219.316 172.665L219.212 173.21L229.473 170.203L229.577 169.657ZM232.848 168.731L232.957 168.184C231.878 168.485 230.787 168.79 229.682 169.111L229.577 169.657L229.472 170.203C230.572 169.884 231.66 169.579 232.739 169.278L232.848 168.731ZM235.191 168.071L235.298 167.524C234.524 167.745 233.744 167.964 232.957 168.184L232.848 168.731L232.739 169.278C233.526 169.058 234.308 168.839 235.085 168.617L235.191 168.071ZM231.931 185.159L232.35 185.036L235.611 167.948L235.191 168.071L234.772 168.194L231.511 185.282L231.931 185.159ZM239.807 182.847L239.911 182.302L232.035 184.613L231.931 185.159L231.826 185.705L239.702 183.393L239.807 182.847ZM243.035 165.947L242.616 166.07L239.387 182.97L239.807 182.847L240.226 182.724L243.455 165.824L243.035 165.947ZM249.32 164.176L249.424 163.631C247.383 164.227 245.297 164.818 243.147 165.399L243.035 165.947L242.923 166.495C245.079 165.913 247.17 165.32 249.215 164.722L249.32 164.176ZM246.1 181.008L246.52 180.885L249.739 164.054L249.32 164.176L248.9 164.299L245.68 181.131L246.1 181.008ZM253.981 178.694L254.085 178.148L246.204 180.462L246.1 181.008L245.996 181.554L253.877 179.24L253.981 178.694ZM257.241 161.638L256.822 161.76L253.561 178.817L253.981 178.694L254.4 178.571L257.661 161.515L257.241 161.638ZM285.047 133.11L284.639 133.182C282.551 141.314 279.056 147.044 274.462 151.358C269.829 155.709 264.029 158.667 257.321 161.1L257.241 161.638L257.161 162.175C263.898 159.732 269.874 156.714 274.718 152.165C279.602 147.579 283.287 141.483 285.455 133.037L285.047 133.11ZM277.805 115.156L277.605 115.715C281.093 115.789 283.667 116.924 284.968 119.614C286.267 122.299 286.33 126.602 284.639 133.182L285.047 133.11L285.455 133.038C287.194 126.272 287.172 121.672 285.761 118.754C284.352 115.841 281.59 114.672 278.004 114.596L277.805 115.156ZM287.87 95.8724L287.442 96.0478C286.935 100.323 285.737 103.933 284.065 106.988C282.392 110.043 280.218 112.593 277.707 114.725L277.805 115.156L277.903 115.586C280.545 113.342 282.886 110.612 284.699 107.3C286.512 103.987 287.77 100.143 288.298 95.6969L287.87 95.8724ZM247.127 153.039L247.017 153.587C250.225 152.702 255.402 151.277 260.064 148.585C262.396 147.238 264.642 145.551 266.462 143.411C268.299 141.249 269.681 138.647 270.269 135.554L269.85 135.678L269.43 135.801C268.904 138.564 267.692 140.838 266.065 142.752C264.42 144.687 262.332 146.276 260.066 147.584C255.534 150.201 250.464 151.602 247.237 152.492L247.127 153.039ZM245.588 153.472L245.484 154.017C245.922 153.889 246.436 153.747 247.017 153.587L247.127 153.039L247.237 152.492C246.659 152.651 246.137 152.795 245.692 152.926L245.588 153.472ZM249.92 130.835L249.501 130.958L245.168 153.594L245.588 153.472L246.007 153.349L250.34 130.712L249.92 130.835ZM251.864 130.226L251.958 129.683C251.21 129.924 250.558 130.133 250.025 130.289L249.92 130.835L249.816 131.381C250.361 131.222 251.025 131.008 251.769 130.769L251.864 130.226ZM269.85 135.678L270.269 135.555C270.872 132.409 270.429 130.307 269.303 128.989C268.189 127.684 266.423 127.168 264.415 127.1C260.404 126.964 255.275 128.617 251.958 129.683L251.864 130.226L251.769 130.769C255.109 129.695 260.119 128.087 264.009 128.219C265.953 128.285 267.579 128.785 268.582 129.959C269.574 131.121 269.974 132.961 269.43 135.801L269.85 135.678ZM272.296 104.776L271.876 104.899C271.395 107.413 270.357 109.452 268.994 111.142C267.615 112.852 265.877 114.24 263.991 115.372C260.214 117.64 256.009 118.789 253.318 119.522L253.207 120.07L253.095 120.618C255.766 119.89 260.088 118.716 264.006 116.363C265.968 115.186 267.869 113.689 269.423 111.762C270.992 109.815 272.178 107.463 272.715 104.653L272.296 104.776ZM257.46 99.3933L257.367 99.9356C260.155 99.0281 264.32 97.6759 267.53 97.8821C269.131 97.9849 270.46 98.4746 271.266 99.5591C272.064 100.632 272.37 102.314 271.876 104.899L272.296 104.776L272.715 104.653C273.262 101.793 272.929 99.8534 272.007 98.6139C271.094 97.3858 269.625 96.8716 267.951 96.7642C264.611 96.5497 260.317 97.9512 257.553 98.851L257.46 99.3933ZM255.832 99.9087L255.728 100.455C256.185 100.321 256.743 100.139 257.367 99.9356L257.46 99.3933L257.553 98.851C256.926 99.0553 256.38 99.2329 255.936 99.3629L255.832 99.9087ZM251.91 120.431L252.33 120.308L256.252 99.7857L255.832 99.9087L255.412 100.032L251.49 120.554L251.91 120.431ZM253.207 120.07L253.318 119.522C252.83 119.655 252.39 119.775 252.014 119.885L251.91 120.431L251.806 120.977C252.173 120.869 252.605 120.751 253.095 120.618L253.207 120.07Z" fill="black"/>
</g>
<defs>
<clipPath id="clip0_18089_5187">
<rect width="360" height="288" fill="white"/>
</clipPath>
</defs>
</svg>
