<svg width="360" height="288" viewBox="0 0 360 288" fill="none" xmlns="http://www.w3.org/2000/svg">
<ellipse cx="186.662" cy="257.539" rx="126.431" ry="23.9607" fill="#1C1C1C"/>
<path d="M301.283 210.303L297.031 207.492C298.621 192.673 294.718 175.376 284.6 156.779C253.572 99.7868 175.84 52.2343 110.977 50.5863C89.8197 50.047 72.6471 54.4626 60.1853 62.6279L55.7845 60.0573L44.357 78.6835L44.3867 78.7007C33.2996 96.8401 34.2048 122.299 49.7148 150.793C80.7423 207.786 158.474 255.338 223.337 256.986C255.77 257.816 278.841 247.011 289.924 228.879L289.961 228.901L301.283 210.303Z" fill="#4169E1" stroke="#231F20" stroke-linejoin="round"/>
<path d="M295.959 138.139C327 195.141 299.579 240.009 234.693 238.35C169.819 236.687 92.0597 189.128 61.0186 132.127C29.9776 75.1247 57.4062 30.2603 122.284 31.9157C187.158 33.5785 264.918 81.1371 295.959 138.139Z" fill="#CCD9FD" stroke="#231F20" stroke-linejoin="round"/>
<path d="M283.861 137.013C312.207 186.947 288.693 225.428 231.33 222.942C173.967 220.457 104.492 177.965 76.1395 128.027C47.7939 78.0935 71.3077 39.6125 128.671 42.0979C186.034 44.5832 255.508 87.0757 283.861 137.013Z" fill="#4169E1" stroke="#231F20" stroke-linejoin="round"/>
<path d="M281.434 141.115C310.351 190.127 287.751 227.095 230.966 223.676C174.177 220.264 104.697 177.763 75.78 128.75C46.8628 79.738 69.4631 42.7706 126.248 46.1897C183.037 49.6013 252.517 92.1024 281.434 141.115Z" fill="#6B8DF3" stroke="#231F20" stroke-linejoin="round"/>
<path d="M219.471 196.995L215.093 199.612L189.198 179.372L146.878 146.292L151.169 143.317L204.37 168.294L228.74 149.112L219.471 196.995ZM222.072 139.052L194.637 158.426C177.576 151.004 143.722 136.34 143.023 136.295C143.018 136.303 143.015 136.305 143.012 136.301C143.01 136.296 143.014 136.294 143.023 136.295C143.327 135.702 148.326 104.298 151.471 84.3311L156.418 76.411L222.072 139.052Z" fill="#4169E1"/>
<path d="M219.471 196.995L219.728 197.424C219.85 197.351 219.935 197.23 219.962 197.09L219.471 196.995ZM215.093 199.612L214.785 200.006C214.948 200.134 215.173 200.148 215.35 200.042L215.093 199.612ZM189.198 179.372L188.89 179.765L188.89 179.765L189.198 179.372ZM146.878 146.292L146.593 145.881C146.462 145.972 146.383 146.119 146.378 146.278C146.374 146.437 146.445 146.588 146.57 146.686L146.878 146.292ZM151.169 143.317L151.381 142.864C151.22 142.788 151.03 142.804 150.884 142.906L151.169 143.317ZM204.37 168.294L204.158 168.747C204.329 168.827 204.531 168.804 204.68 168.687L204.37 168.294ZM228.74 149.112L229.231 149.207C229.271 149.002 229.179 148.793 229.001 148.685C228.822 148.576 228.595 148.59 228.431 148.719L228.74 149.112ZM222.072 139.052L222.36 139.461C222.482 139.375 222.559 139.238 222.57 139.089C222.581 138.94 222.525 138.794 222.417 138.691L222.072 139.052ZM194.637 158.426L194.437 158.885C194.597 158.955 194.782 158.936 194.925 158.835L194.637 158.426ZM143.012 136.301L142.563 136.52C142.566 136.525 142.568 136.53 142.571 136.535L143.012 136.301ZM151.471 84.3311L151.047 84.0662C151.012 84.1232 150.988 84.1868 150.978 84.2533L151.471 84.3311ZM156.418 76.411L156.763 76.0493C156.654 75.9455 156.505 75.8961 156.356 75.9149C156.206 75.9337 156.074 76.0186 155.994 76.1461L156.418 76.411ZM219.471 196.995L219.215 196.566L214.837 199.183L215.093 199.612L215.35 200.042L219.728 197.424L219.471 196.995ZM215.093 199.612L215.401 199.219L189.506 178.978L189.198 179.372L188.89 179.765L214.785 200.006L215.093 199.612ZM189.198 179.372L189.506 178.978L147.186 145.898L146.878 146.292L146.57 146.686L188.89 179.765L189.198 179.372ZM146.878 146.292L147.163 146.703L151.454 143.727L151.169 143.317L150.884 142.906L146.593 145.881L146.878 146.292ZM151.169 143.317L150.956 143.769L204.158 168.747L204.37 168.294L204.583 167.842L151.381 142.864L151.169 143.317ZM204.37 168.294L204.68 168.687L229.049 149.505L228.74 149.112L228.431 148.719L204.061 167.901L204.37 168.294ZM228.74 149.112L228.249 149.017L218.98 196.9L219.471 196.995L219.962 197.09L229.231 149.207L228.74 149.112ZM222.072 139.052L221.783 138.644L194.348 158.018L194.637 158.426L194.925 158.835L222.36 139.461L222.072 139.052ZM194.637 158.426L194.836 157.968C186.306 154.256 173.576 148.735 162.892 144.135C157.55 141.835 152.719 139.765 149.178 138.267C147.408 137.519 145.96 136.912 144.931 136.491C144.417 136.281 144.005 136.116 143.71 136.002C143.562 135.946 143.44 135.9 143.347 135.868C143.301 135.852 143.257 135.838 143.218 135.827C143.194 135.82 143.127 135.8 143.055 135.796L143.023 136.295L142.991 136.793C142.941 136.79 142.911 136.779 142.941 136.788C142.957 136.792 142.982 136.8 143.021 136.814C143.098 136.84 143.208 136.881 143.351 136.936C143.636 137.045 144.04 137.207 144.552 137.417C145.576 137.835 147.02 138.44 148.789 139.188C152.326 140.685 157.155 142.754 162.497 145.053C173.179 149.652 185.907 155.174 194.437 158.885L194.637 158.426ZM143.023 136.295L142.579 136.064C142.587 136.048 142.602 136.022 142.625 135.993C142.644 135.968 142.692 135.911 142.773 135.866C142.865 135.814 143.023 135.769 143.197 135.837C143.352 135.898 143.426 136.013 143.454 136.066L143.012 136.301L142.571 136.535C142.6 136.59 142.675 136.707 142.831 136.768C143.007 136.837 143.167 136.791 143.261 136.739C143.344 136.692 143.393 136.634 143.414 136.606C143.439 136.574 143.456 136.545 143.466 136.525L143.023 136.295ZM143.012 136.301L143.461 136.081C143.492 136.143 143.535 136.266 143.497 136.419C143.456 136.582 143.347 136.681 143.261 136.73C143.184 136.774 143.114 136.786 143.08 136.791C143.041 136.796 143.01 136.795 142.991 136.794L143.023 136.295L143.054 135.796C143.035 135.794 142.903 135.783 142.766 135.861C142.678 135.911 142.568 136.011 142.527 136.176C142.488 136.331 142.532 136.456 142.563 136.52L143.012 136.301ZM143.023 136.295L143.468 136.523C143.497 136.467 143.514 136.408 143.521 136.384C143.531 136.349 143.541 136.309 143.551 136.266C143.572 136.18 143.596 136.068 143.623 135.932C143.679 135.659 143.75 135.278 143.836 134.799C144.009 133.842 144.242 132.486 144.522 130.816C145.083 127.475 145.835 122.869 146.675 117.658C148.356 107.236 150.393 94.3928 151.965 84.4089L151.471 84.3311L150.978 84.2533C149.405 94.2367 147.369 107.079 145.688 117.499C144.848 122.709 144.096 127.313 143.536 130.65C143.256 132.32 143.024 133.671 142.852 134.622C142.766 135.098 142.696 135.471 142.643 135.734C142.617 135.865 142.595 135.965 142.579 136.034C142.57 136.069 142.564 136.091 142.56 136.105C142.553 136.129 142.559 136.104 142.578 136.066L143.023 136.295ZM151.471 84.3311L151.896 84.5959L156.842 76.6759L156.418 76.411L155.994 76.1461L151.047 84.0662L151.471 84.3311ZM156.418 76.411L156.073 76.7728L221.726 139.414L222.072 139.052L222.417 138.691L156.763 76.0493L156.418 76.411Z" fill="#231F20"/>
<path d="M219.546 196.891L151.331 143.571L203.784 167.256L230.39 146.323L219.546 196.891ZM226.536 136.33L199.101 155.704C182.039 148.281 148.182 133.617 147.486 133.573C147.482 133.581 147.479 133.583 147.477 133.579C147.475 133.574 147.478 133.572 147.486 133.573C147.819 132.934 153.804 95.1931 156.793 76.1569L226.536 136.33Z" fill="#CCD9FD"/>
<path d="M219.546 196.891L219.238 197.285C219.374 197.391 219.555 197.42 219.717 197.361C219.879 197.302 219.999 197.164 220.035 196.996L219.546 196.891ZM151.331 143.571L151.537 143.115C151.306 143.011 151.034 143.096 150.903 143.312C150.772 143.529 150.824 143.809 151.023 143.965L151.331 143.571ZM203.784 167.256L203.578 167.712C203.748 167.789 203.947 167.765 204.093 167.649L203.784 167.256ZM230.39 146.323L230.879 146.428C230.923 146.222 230.834 146.01 230.655 145.899C230.476 145.787 230.247 145.8 230.081 145.93L230.39 146.323ZM226.536 136.33L226.824 136.738C226.95 136.65 227.028 136.508 227.035 136.354C227.042 136.201 226.979 136.052 226.862 135.951L226.536 136.33ZM199.101 155.704L198.901 156.162C199.061 156.232 199.246 156.213 199.389 156.112L199.101 155.704ZM147.477 133.579L147.036 133.813C147.038 133.818 147.041 133.823 147.043 133.827L147.477 133.579ZM156.793 76.1569L157.12 75.7783C156.982 75.6597 156.791 75.6249 156.621 75.6874C156.451 75.75 156.327 75.9 156.299 76.0793L156.793 76.1569ZM219.546 196.891L219.854 196.497L151.639 143.177L151.331 143.571L151.023 143.965L219.238 197.285L219.546 196.891ZM151.331 143.571L151.125 144.027L203.578 167.712L203.784 167.256L203.99 166.801L151.537 143.115L151.331 143.571ZM203.784 167.256L204.093 167.649L230.699 146.716L230.39 146.323L230.081 145.93L203.475 166.863L203.784 167.256ZM230.39 146.323L229.901 146.218L219.057 196.786L219.546 196.891L220.035 196.996L230.879 146.428L230.39 146.323ZM226.536 136.33L226.247 135.922L198.812 155.296L199.101 155.704L199.389 156.112L226.824 136.738L226.536 136.33ZM199.101 155.704L199.3 155.245C190.769 151.534 178.039 146.012 167.354 141.412C162.012 139.112 157.18 137.043 153.64 135.545C151.87 134.796 150.422 134.19 149.393 133.769C148.88 133.559 148.468 133.394 148.173 133.28C148.025 133.224 147.903 133.179 147.81 133.146C147.764 133.131 147.72 133.116 147.681 133.105C147.658 133.098 147.59 133.078 147.518 133.074L147.486 133.573L147.455 134.072C147.405 134.069 147.375 134.057 147.405 134.066C147.42 134.071 147.446 134.079 147.485 134.092C147.561 134.118 147.671 134.159 147.814 134.214C148.099 134.324 148.503 134.485 149.015 134.695C150.038 135.113 151.482 135.718 153.251 136.466C156.788 137.962 161.617 140.031 166.959 142.33C177.642 146.93 190.371 152.451 198.901 156.162L199.101 155.704ZM147.486 133.573L147.044 133.339C147.049 133.33 147.06 133.31 147.078 133.285C147.092 133.266 147.136 133.207 147.215 133.157C147.312 133.096 147.484 133.041 147.671 133.119C147.822 133.182 147.891 133.295 147.911 133.33L147.477 133.579L147.043 133.827C147.065 133.864 147.135 133.979 147.286 134.042C147.476 134.121 147.648 134.066 147.747 134.004C147.828 133.953 147.874 133.892 147.889 133.871C147.908 133.843 147.922 133.819 147.928 133.807L147.486 133.573ZM147.477 133.579L147.919 133.344C147.937 133.379 147.987 133.482 147.974 133.623C147.957 133.8 147.852 133.931 147.738 134.001C147.648 134.056 147.565 134.067 147.536 134.07C147.5 134.074 147.471 134.073 147.459 134.072L147.486 133.573L147.514 133.074C147.497 133.073 147.465 133.072 147.426 133.076C147.394 133.08 147.309 133.091 147.217 133.147C147.101 133.218 146.995 133.35 146.979 133.529C146.965 133.672 147.016 133.776 147.036 133.813L147.477 133.579ZM147.486 133.573L147.93 133.804C147.962 133.743 147.98 133.677 147.987 133.653C147.998 133.614 148.009 133.569 148.021 133.52C148.044 133.421 148.072 133.29 148.103 133.129C148.167 132.808 148.251 132.357 148.351 131.791C148.553 130.658 148.826 129.055 149.154 127.091C149.809 123.164 150.681 117.791 151.637 111.843C153.549 99.9478 155.793 85.7529 157.287 76.2344L156.793 76.1569L156.299 76.0793C154.805 85.5971 152.561 99.7907 150.65 111.685C149.694 117.632 148.822 123.003 148.167 126.927C147.84 128.889 147.568 130.488 147.367 131.616C147.266 132.18 147.184 132.623 147.123 132.935C147.091 133.091 147.066 133.21 147.047 133.292C147.037 133.334 147.03 133.362 147.025 133.379C147.016 133.41 147.022 133.383 147.043 133.342L147.486 133.573ZM156.793 76.1569L156.467 76.5354L226.209 136.709L226.536 136.33L226.862 135.951L157.12 75.7783L156.793 76.1569Z" fill="#231F20"/>
</svg>
