<svg width="360" height="288" viewBox="0 0 360 288" fill="none" xmlns="http://www.w3.org/2000/svg">
<g clip-path="url(#clip0_18089_7248)">
<path d="M218.421 284.516L281.193 248.174C289.102 243.595 289.194 232.209 281.361 227.503L207.524 183.14C203.829 180.92 199.228 180.853 195.47 182.962L130.387 219.498C122.285 224.046 122.203 235.68 130.24 240.342L206.388 284.511C210.108 286.669 214.699 286.671 218.421 284.516Z" fill="black" stroke="black"/>
<path d="M214.793 185.11C214.071 184.452 213.657 183.455 213.551 182.117C213.577 182.247 213.602 182.317 213.626 182.327C213.671 182.347 213.721 182.349 213.767 182.333C213.813 182.318 213.852 182.286 213.875 182.243C216.13 178.193 217.605 173.719 218.447 169.15C218.717 167.695 218.966 166.187 219.194 164.626C219.41 163.157 219.377 161.762 219.509 160.617C219.633 159.528 219.707 158.523 219.731 157.604C219.851 152.945 219.765 149.227 219.473 146.45C218.809 140.094 217.516 133.728 215.593 127.352C214.986 125.335 214.459 123.757 214.013 122.617L212.721 119.095C211.761 116.572 210.705 114.095 209.552 111.662C205.8 103.747 201.454 96.4759 196.512 89.8498C192.933 85.0487 189.254 80.7862 185.476 77.0624C182.544 74.1721 180.687 72.3912 179.905 71.7196C173.075 65.837 165.361 60.5991 157.44 56.6055C155.593 55.674 153.356 54.7016 150.73 53.6882L148.151 52.8457C144.442 51.3886 140.326 50.4111 136.923 49.7785C133.151 49.0749 128.815 48.7391 123.916 48.7711C123.017 48.7771 121.949 48.8561 120.711 49.008C116.415 49.5297 111.756 49.9104 107.873 52.333C104.735 54.2899 101.572 56.2067 98.3835 58.0836C97.2122 58.7912 96.1448 59.6397 95.1814 60.6291C93.7482 61.7504 92.2921 62.8438 90.8129 63.9092C89.098 65.1444 87.1431 66.9684 84.9484 69.3809C83.4823 70.994 81.7073 73.5785 80.8289 74.9816C77.4738 80.3574 75.3901 86.0271 74.0858 92.1435C73.5921 94.4521 73.2094 97.3014 72.9375 100.691C72.2329 109.407 73.2613 118.558 75.3721 126.902C78.3183 138.547 83.0485 149.608 89.5627 160.083C96.0479 170.508 103.846 179.752 113.459 187.841C118.11 191.755 122.676 195 127.157 197.576C131.663 200.167 135.723 202.108 139.339 203.402C140.239 203.724 142.374 204.336 145.746 205.24L146.223 205.506C146.351 205.577 146.456 205.68 146.529 205.803C147.71 207.779 149.063 209.269 151.299 211.953C152.463 213.35 153.824 214.54 155.041 215.805C155.697 216.487 156.5 217.231 157.452 218.036C160.012 220.197 162.918 222.219 166.17 224.101C167.184 224.689 168.197 225.1 169.244 225.724C169.761 226.031 170.726 226.439 172.137 226.947C174.515 227.8 177.101 228.481 179.893 228.989C182.642 229.488 185.637 229.461 188.879 228.908C190.584 228.618 192.434 227.947 194.429 226.896C195.386 226.392 196.518 225.599 197.826 224.515C199.403 223.211 201.403 221.565 203.801 220.276C205.774 219.211 207.381 218.054 208.796 216.555C209.813 215.476 210.862 213.851 211.477 212.906C211.734 212.51 211.923 211.821 212.22 211.338C212.81 210.381 213.324 209.269 213.761 208.004C214.793 205.026 215.384 202.119 215.536 199.285C215.544 199.159 215.537 198.931 215.515 198.602C215.513 198.569 215.519 198.536 215.531 198.505C215.544 198.475 215.563 198.447 215.587 198.425C215.661 198.357 215.744 198.33 215.836 198.344C216.196 198.438 216.481 198.545 216.691 198.665C222.129 201.825 227.126 204.629 231.682 207.078C236.479 209.656 240.469 211.986 244.823 214.315C245.552 214.707 246.344 215.314 247.197 216.135C249.614 218.465 250.588 221.628 249.011 224.641C247.734 227.085 246.124 228.257 243.477 229.762C233.84 235.245 224.806 240.401 216.373 245.23C215.487 245.736 214.586 246.219 213.668 246.681C211.751 245.702 209.977 245.102 208.343 244.882C206.816 244.676 205.496 244.798 204.383 245.248C201.181 246.537 198.554 247.656 195.418 248.063C194.011 248.247 192.336 248.312 190.393 248.258C187.915 248.188 185.42 247.754 182.91 246.954C181.502 246.506 179.477 245.562 176.832 244.121C143.748 226.077 123.636 215.093 116.496 211.167C109.208 207.158 103.887 204.246 100.533 202.433C94.6657 199.261 89.7426 196.473 83.3983 193.001C81.5394 191.984 78.5052 189.526 77.9685 187.238C77.177 183.853 79.5576 181.218 82.241 179.608C85.3752 177.727 88.6412 175.847 92.0392 173.968C93.1096 173.374 93.9491 172.796 95.0345 172.16C95.08 172.133 95.1194 172.098 95.1502 172.055C95.181 172.012 95.2025 171.963 95.2132 171.911C95.2239 171.859 95.2237 171.806 95.2125 171.754C95.2014 171.703 95.1795 171.654 95.1484 171.612C93.1236 168.801 91.3057 166.211 89.6946 163.84C89.5987 163.698 89.4977 163.641 89.3918 163.669C89.4178 163.599 89.4138 163.537 89.3798 163.483C83.3394 154.121 78.6162 144.23 75.2102 133.81C73.6571 129.055 72.4438 123.579 71.5703 117.383C71.3944 116.137 71.2835 115.008 71.2375 113.995C71.1686 112.438 70.7698 111.014 70.7458 109.485C70.6838 105.418 70.7278 102.671 70.8777 101.246C70.9457 100.58 71.1296 98.9325 71.4294 96.302C72.0291 91.0731 73.4502 85.5624 75.3631 81.131C78.2384 74.4659 82.241 68.3825 87.6918 63.7862C89.029 62.6589 90.6431 61.4386 92.5339 60.1254C93.8681 59.202 95.4992 57.7388 96.7764 56.9743C100.926 54.4897 104.422 52.316 107.264 50.4531C107.804 50.0973 108.248 49.8395 108.595 49.6796C111.795 48.2045 115.126 47.6078 118.969 47.1821C127.391 46.2466 135.487 47.1191 143.741 49.2958C153.947 51.9912 163.502 56.9833 172.269 63.1986C183.914 71.4557 193.88 82.0455 201.714 93.7116C205.606 99.5061 209.155 105.902 212.361 112.9C216.279 121.447 219.138 130.933 220.939 141.356C221.063 142.072 221.269 144.157 221.557 147.611C221.92 151.96 221.935 156.227 221.602 160.41C221.2 165.429 220.551 169.646 219.656 173.06C218.568 177.209 216.947 181.226 214.793 185.11Z" fill="black"/>
<path d="M202.989 161.49C202.989 207.583 170.744 226.265 130.969 203.219C91.1941 180.173 58.95 124.125 58.95 78.0328C58.95 31.9405 91.1941 13.2578 130.969 36.304C170.744 59.3502 202.989 115.398 202.989 161.49Z" fill="#FFE2C8" stroke="black"/>
<path d="M194.931 160.956C194.931 201.008 167.408 216.974 132.892 196.948C98.3767 176.922 65.8176 119.029 65.8176 78.9769C65.8176 38.9246 93.7982 22.6902 128.314 42.7164C162.83 62.7425 194.931 120.904 194.931 160.956Z" fill="#F8B04A" stroke="black"/>
<path d="M80.0438 31.2409C94.1064 23.0929 112.538 25.6242 130.969 36.3036L150.174 25.1759C131.743 14.4965 113.312 11.9652 99.249 20.1132L80.0438 31.2409Z" fill="#FF9500" stroke="black"/>
<path d="M202.988 161.491C202.988 115.398 170.744 59.3505 130.969 36.3043L150.174 25.1766C189.949 48.2228 222.193 104.271 222.193 150.363L202.988 161.491Z" fill="#FF9500" stroke="black"/>
<path d="M181.895 208.282C195.957 200.134 202.989 182.849 202.989 161.49L222.194 150.363C222.194 171.721 215.163 189.006 201.1 197.154L181.895 208.282Z" fill="#FF9500" stroke="black"/>
<path fill-rule="evenodd" clip-rule="evenodd" d="M142.553 81.7817L139.671 93.4951L143.848 91.075L146.73 79.3616L142.553 81.7817Z" fill="#FF9500" stroke="black" stroke-linejoin="round"/>
<path fill-rule="evenodd" clip-rule="evenodd" d="M139.672 93.495C137.815 91.8789 135.91 90.2718 134.008 88.6674L133.887 88.5652L136.79 76.7768L129.572 70.5087L133.749 68.0886L140.966 74.3567L138.064 86.1451L138.185 86.2473C140.087 87.8517 141.992 89.4587 143.849 91.0749L139.672 93.495Z" fill="#FF9500" stroke="black" stroke-linejoin="round"/>
<path fill-rule="evenodd" clip-rule="evenodd" d="M129.571 70.5087L126.614 82.5367L130.791 80.1166L133.748 68.0886L129.571 70.5087Z" fill="#FF9500" stroke="black" stroke-linejoin="round"/>
<path fill-rule="evenodd" clip-rule="evenodd" d="M126.615 82.5361L126.299 82.2694C124.837 81.0351 123.399 79.8205 122.003 78.6058L122.012 78.5671L112.054 69.9176L116.231 67.4974L126.189 76.1469L126.18 76.1857C127.575 77.4004 129.014 78.615 130.476 79.8493L130.792 80.1159L126.615 82.5361Z" fill="#FF9500" stroke="black" stroke-linejoin="round"/>
<path fill-rule="evenodd" clip-rule="evenodd" d="M112.054 69.9176L110.133 77.7394C110.133 77.7394 115.491 82.2674 115.379 82.2892L119.556 79.8691C119.668 79.8473 114.309 75.3193 114.309 75.3193L116.231 67.4974L112.054 69.9176Z" fill="#FF9500" stroke="black" stroke-linejoin="round"/>
<path fill-rule="evenodd" clip-rule="evenodd" d="M115.378 82.2889C118.302 84.83 118.829 87.376 118.741 89.1064L115.374 102.814C115.575 102.988 115.834 103.225 116.126 103.525L120.303 101.105C120.011 100.805 119.752 100.568 119.551 100.394L122.918 86.6862C123.005 84.9559 122.479 82.4099 119.555 79.8688L115.378 82.2889Z" fill="#FF9500" stroke="black" stroke-linejoin="round"/>
<path fill-rule="evenodd" clip-rule="evenodd" d="M116.126 103.526L115.361 102.865L119.538 100.445L120.302 101.106L116.126 103.526Z" fill="#FF9500" stroke="black" stroke-linejoin="round"/>
<path fill-rule="evenodd" clip-rule="evenodd" d="M115.362 102.865L110.642 122.066C110.513 122.361 110.312 122.681 110.014 122.888L114.191 120.468C114.489 120.261 114.69 119.941 114.819 119.646L119.539 100.445L115.362 102.865Z" fill="#FF9500" stroke="black" stroke-linejoin="round"/>
<path fill-rule="evenodd" clip-rule="evenodd" d="M110.014 122.889C109.483 123.257 108.64 123.266 107.33 122.132L111.507 119.712C112.817 120.846 113.66 120.837 114.191 120.469L110.014 122.889Z" fill="#FF9500" stroke="black" stroke-linejoin="round"/>
<path fill-rule="evenodd" clip-rule="evenodd" d="M107.33 122.133C107.405 122.297 102.084 117.578 102.084 117.578L98.5 125.076L107.898 133.236C108.907 134.115 109.905 134.995 110.893 135.866L110.894 135.867C111.615 136.503 112.33 137.133 113.04 137.755L110.053 149.925L117.267 156.186L121.443 153.766L114.23 147.505L117.216 135.334C116.507 134.713 115.792 134.083 115.071 133.447L115.07 133.446C114.082 132.575 113.084 131.695 112.075 130.816L102.677 122.655L106.261 115.158C106.261 115.158 111.582 119.877 111.507 119.713L107.33 122.133Z" fill="#FF9500" stroke="black" stroke-linejoin="round"/>
<path fill-rule="evenodd" clip-rule="evenodd" d="M117.267 156.184L120.224 144.151L124.401 141.731L121.444 153.764L117.267 156.184Z" fill="#FF9500" stroke="black" stroke-linejoin="round"/>
<path fill-rule="evenodd" clip-rule="evenodd" d="M120.224 144.151C122.195 145.908 124.108 147.588 125.98 149.214L123.031 161.194L130.248 167.457L134.425 165.037L127.208 158.774L130.157 146.794C128.285 145.168 126.372 143.488 124.401 141.731L120.224 144.151Z" fill="#FF9500" stroke="black" stroke-linejoin="round"/>
<path fill-rule="evenodd" clip-rule="evenodd" d="M130.249 167.457L133.236 155.316L137.412 152.895L134.426 165.037L130.249 167.457Z" fill="#FF9500" stroke="black" stroke-linejoin="round"/>
<path fill-rule="evenodd" clip-rule="evenodd" d="M133.235 155.316C142.101 162.397 149.381 166.595 154.218 164.418L158.395 161.998C153.558 164.175 146.278 159.977 137.412 152.895L133.235 155.316Z" fill="#FF9500" stroke="black" stroke-linejoin="round"/>
<path fill-rule="evenodd" clip-rule="evenodd" d="M154.217 164.418C156.098 163.571 157.609 161.76 158.7 158.779C161.841 150.212 158.546 142.305 152.067 134.646L156.244 132.225C162.723 139.885 166.018 147.792 162.877 156.359C161.786 159.34 160.275 161.151 158.394 161.998L154.217 164.418Z" fill="#FF9500" stroke="black" stroke-linejoin="round"/>
<path fill-rule="evenodd" clip-rule="evenodd" d="M152.067 134.646C154.144 135.296 155.994 135.362 157.496 134.646L161.673 132.225C160.171 132.942 158.321 132.876 156.244 132.226L152.067 134.646Z" fill="#FF9500" stroke="black" stroke-linejoin="round"/>
<path fill-rule="evenodd" clip-rule="evenodd" d="M157.497 134.646C159.409 133.735 160.756 131.556 161.287 127.703C162.598 118.318 155.928 108.998 146.814 100.078L149.771 88.045L142.554 81.7817L146.731 79.3616L153.948 85.6248L150.991 97.6577C160.105 106.578 166.775 115.898 165.464 125.283C164.933 129.136 163.586 131.314 161.674 132.226L157.497 134.646Z" fill="#FF9500" stroke="black" stroke-linejoin="round"/>
<path fill-rule="evenodd" clip-rule="evenodd" d="M143.61 147.144C139.751 150.649 129.158 141.269 123.972 136.676L123.971 136.676C123.441 136.206 122.966 135.786 122.562 135.435L126.53 119.317L130.707 116.897L126.739 133.015C127.143 133.366 127.618 133.786 128.148 134.256L128.149 134.256C133.335 138.849 143.928 148.229 147.787 144.724L143.61 147.144Z" fill="#FF9500" stroke="black" stroke-linejoin="round"/>
<path fill-rule="evenodd" clip-rule="evenodd" d="M126.53 119.317C127.024 119.746 127.627 120.253 128.31 120.826L128.311 120.827C134.406 125.946 146.883 136.422 144.783 144.946C144.538 145.948 144.137 146.666 143.611 147.144L147.787 144.724C148.314 144.246 148.715 143.528 148.96 142.526C151.059 134.002 138.583 123.525 132.487 118.407L132.487 118.406C131.804 117.832 131.201 117.326 130.707 116.897L126.53 119.317Z" fill="#FF9500" stroke="black" stroke-linejoin="round"/>
<path fill-rule="evenodd" clip-rule="evenodd" d="M144.959 121.963C145.922 121.637 146.649 120.804 147.022 119.288C148.928 111.532 138.519 102.832 133.434 98.5823C132.861 98.1032 132.356 97.6809 131.943 97.3226L136.12 94.9025C136.533 95.2608 137.038 95.6831 137.611 96.1621C142.696 100.412 153.105 109.111 151.199 116.867C150.826 118.384 150.099 119.217 149.136 119.543L144.959 121.963Z" fill="#FF9500" stroke="black" stroke-linejoin="round"/>
<path fill-rule="evenodd" clip-rule="evenodd" d="M131.944 97.3226L128.352 111.94C128.692 112.235 129.091 112.591 129.539 112.989C133.468 116.48 141.107 123.27 144.96 121.963L149.136 119.543C145.283 120.85 137.645 114.06 133.716 110.569C133.268 110.171 132.869 109.815 132.529 109.52L136.121 94.9025L131.944 97.3226Z" fill="#FF9500" stroke="black" stroke-linejoin="round"/>
<path fill-rule="evenodd" clip-rule="evenodd" d="M161.286 127.745C162.598 118.368 155.928 109.045 146.814 100.117L149.771 88.0973L142.553 81.8274L139.671 93.5278C137.814 91.9098 135.909 90.3011 134.007 88.6948L133.886 88.5927L136.789 76.8174L129.572 70.5427L126.614 82.5573L126.299 82.2904L126.299 82.2904C124.837 81.0547 123.398 79.8387 122.003 78.6228L122.012 78.5841L112.054 69.9255L110.133 77.7386C110.133 77.7386 115.491 82.2716 115.379 82.2932C118.302 84.837 118.829 87.3819 118.741 89.1109L115.374 102.803C115.575 102.978 115.834 103.215 116.126 103.515L115.362 102.854L110.642 122.034C110.283 122.851 109.377 123.867 107.33 122.094C107.405 122.259 102.084 117.535 102.084 117.535L98.5 125.021L107.898 133.19C108.907 134.07 109.906 134.951 110.894 135.823L110.895 135.824C111.615 136.46 112.33 137.091 113.04 137.713L110.053 149.87L117.267 156.138L120.224 144.118C122.195 145.877 124.108 147.559 125.98 149.187L123.031 161.153L130.248 167.423L133.235 155.294C145.548 165.142 154.804 169.427 158.701 158.795C161.842 150.238 158.546 142.333 152.068 134.669C156.788 136.151 160.338 134.618 161.286 127.745ZM144.782 144.952C142.74 153.29 129.865 141.88 123.971 136.658L123.97 136.657C123.439 136.187 122.965 135.767 122.561 135.416L126.529 119.32C127.023 119.75 127.626 120.257 128.309 120.831C134.405 125.954 146.881 136.44 144.782 144.952ZM129.539 112.973C134.45 117.341 145.158 126.866 147.022 119.293C148.929 111.548 138.52 102.84 133.435 98.5872C132.862 98.1077 132.356 97.6849 131.944 97.3264L128.352 111.924C128.692 112.22 129.091 112.575 129.539 112.973Z" fill="#FFE2C8"/>
<path d="M146.814 100.117L146.394 99.7527L146.298 100.141L146.672 100.507L146.814 100.117ZM161.286 127.745L160.859 127.423L160.859 127.424L161.286 127.745ZM149.771 88.0973L150.191 88.4613L150.295 88.0372L149.876 87.6731L149.771 88.0973ZM142.553 81.8274L142.658 81.4033L142.238 81.0383L142.134 81.4633L142.553 81.8274ZM139.671 93.5278L139.565 93.9512L139.986 94.3178L140.091 93.8919L139.671 93.5278ZM134.007 88.6948L134.104 88.2635L134.104 88.2634L134.007 88.6948ZM133.886 88.5927L133.467 88.2285L133.36 88.6611L133.79 89.024L133.886 88.5927ZM136.789 76.8174L137.209 77.1816L137.314 76.7577L136.895 76.3934L136.789 76.8174ZM129.572 70.5427L129.677 70.1187L129.257 69.7533L129.152 70.1787L129.572 70.5427ZM126.614 82.5573L126.517 82.9884L126.932 83.3384L127.034 82.9213L126.614 82.5573ZM126.299 82.2904L126.194 82.7148L126.202 82.7215L126.299 82.2904ZM126.299 82.2904L126.404 81.866L126.396 81.8593L126.299 82.2904ZM122.003 78.6228L121.581 78.2697L121.49 78.691L121.897 79.0461L122.003 78.6228ZM122.012 78.5841L122.434 78.9371L122.525 78.5151L122.117 78.1602L122.012 78.5841ZM112.054 69.9255L112.159 69.5016L111.739 69.1359L111.634 69.5615L112.054 69.9255ZM110.133 77.7386L109.713 77.3747L109.606 77.8067L110.035 78.1695L110.133 77.7386ZM115.379 82.2932L115.139 81.7382L114.327 81.8936L115.273 82.717L115.379 82.2932ZM118.741 89.1109L119.161 89.4749L119.171 89.4351L119.173 89.3896L118.741 89.1109ZM115.374 102.803L114.955 102.439L114.851 102.863L115.269 103.227L115.374 102.803ZM116.126 103.515L116.022 103.941L116.283 103.14L116.126 103.515ZM115.362 102.854L115.466 102.429L115.046 102.066L114.942 102.49L115.362 102.854ZM110.642 122.034L111.043 122.454L111.055 122.428L111.062 122.398L110.642 122.034ZM107.33 122.094L107.434 121.669L106.292 120.679L106.978 122.182L107.33 122.094ZM102.084 117.535L102.195 117.116L101.835 116.796L101.687 117.106L102.084 117.535ZM98.5 125.021L98.103 124.592L97.9005 125.015L98.3948 125.445L98.5 125.021ZM107.898 133.19L108.004 132.767L108.003 132.766L107.898 133.19ZM110.894 135.823L110.784 136.243L110.785 136.244L110.894 135.823ZM110.895 135.824L111.005 135.404L111.004 135.404L110.895 135.824ZM113.04 137.713L113.459 138.077L113.563 137.656L113.147 137.291L113.04 137.713ZM110.053 149.87L109.633 149.507L109.529 149.931L109.948 150.295L110.053 149.87ZM117.267 156.138L117.162 156.562L117.582 156.927L117.686 156.502L117.267 156.138ZM120.224 144.118L120.337 143.701L119.911 143.321L119.804 143.754L120.224 144.118ZM125.98 149.187L126.399 149.551L126.504 149.127L126.085 148.763L125.98 149.187ZM123.031 161.153L122.611 160.789L122.506 161.213L122.926 161.577L123.031 161.153ZM130.248 167.423L130.143 167.847L130.563 168.212L130.668 167.787L130.248 167.423ZM133.235 155.294L133.316 154.85L132.914 154.529L132.815 154.93L133.235 155.294ZM158.701 158.795L158.293 158.393L158.293 158.393L158.701 158.795ZM152.068 134.669L151.971 134.125L150.829 133.766L151.868 134.996L152.068 134.669ZM123.971 136.658L123.858 137.075L123.86 137.077L123.971 136.658ZM144.782 144.952L144.362 144.588L144.362 144.588L144.782 144.952ZM123.97 136.657L124.082 136.239L124.081 136.238L123.97 136.657ZM122.561 135.416L122.141 135.052L122.037 135.476L122.456 135.84L122.561 135.416ZM126.529 119.32L126.635 118.897L126.214 118.531L126.109 118.956L126.529 119.32ZM128.309 120.831L128.214 121.264L128.214 121.264L128.309 120.831ZM147.022 119.293L146.602 118.929L146.602 118.929L147.022 119.293ZM129.539 112.973L129.651 112.555L129.651 112.555L129.539 112.973ZM133.435 98.5872L133.529 98.1535L133.529 98.1535L133.435 98.5872ZM131.944 97.3264L132.049 96.9023L131.629 96.5371L131.524 96.9624L131.944 97.3264ZM128.352 111.924L127.932 111.56L127.828 111.984L128.247 112.348L128.352 111.924ZM146.814 100.117L146.672 100.507C151.208 104.95 155.079 109.439 157.652 113.936C160.204 118.396 161.493 122.886 160.859 127.423L161.286 127.745L161.714 128.066C162.391 123.227 161.001 118.367 158.267 113.589C155.554 108.848 151.533 104.211 146.955 99.7263L146.814 100.117ZM149.771 88.0973L149.351 87.7333L146.394 99.7527L146.814 100.117L147.234 100.481L150.191 88.4613L149.771 88.0973ZM142.553 81.8274L142.448 82.2516L149.666 88.5215L149.771 88.0973L149.876 87.6731L142.658 81.4033L142.553 81.8274ZM139.671 93.5278L140.091 93.8919L142.973 82.1916L142.553 81.8274L142.134 81.4633L139.251 93.1637L139.671 93.5278ZM134.007 88.6948L133.911 89.1261C135.813 90.7331 137.714 92.3379 139.565 93.9512L139.671 93.5278L139.777 93.1044C137.915 91.4817 136.005 89.869 134.104 88.2635L134.007 88.6948ZM133.886 88.5927L133.79 89.024L133.911 89.1261L134.007 88.6948L134.104 88.2634L133.983 88.1613L133.886 88.5927ZM136.789 76.8174L136.369 76.4532L133.467 88.2285L133.886 88.5927L134.306 88.9568L137.209 77.1816L136.789 76.8174ZM129.572 70.5427L129.466 70.9667L136.684 77.2414L136.789 76.8174L136.895 76.3934L129.677 70.1187L129.572 70.5427ZM126.614 82.5573L127.034 82.9213L129.991 70.9067L129.572 70.5427L129.152 70.1787L126.195 82.1933L126.614 82.5573ZM126.299 82.2904L126.202 82.7215L126.517 82.9884L126.614 82.5573L126.711 82.1262L126.396 81.8594L126.299 82.2904ZM126.299 82.2904L126.194 82.7147L126.194 82.7147L126.299 82.2904L126.404 81.8661L126.404 81.8661L126.299 82.2904ZM122.003 78.6228L121.897 79.0461C123.297 80.2666 124.741 81.4865 126.202 82.7215L126.299 82.2904L126.396 81.8593C124.933 80.6229 123.499 79.4108 122.109 78.1995L122.003 78.6228ZM122.012 78.5841L121.589 78.2311L121.581 78.2697L122.003 78.6228L122.426 78.9758L122.434 78.9371L122.012 78.5841ZM112.054 69.9255L111.949 70.3494L121.906 79.008L122.012 78.5841L122.117 78.1602L112.159 69.5016L112.054 69.9255ZM110.133 77.7386L110.552 78.1026L112.474 70.2895L112.054 69.9255L111.634 69.5615L109.713 77.3747L110.133 77.7386ZM115.379 82.2932L115.619 82.8483C115.672 82.8382 115.756 82.8016 115.795 82.6756C115.835 82.544 115.802 82.3908 115.767 82.289C115.711 82.1282 115.623 82.0134 115.613 82.0007C115.566 81.937 115.517 81.8865 115.499 81.8669C115.447 81.8134 115.38 81.7497 115.311 81.6851C115.166 81.5512 114.96 81.3664 114.715 81.1516C114.225 80.72 113.562 80.1486 112.899 79.5802C112.235 79.0112 111.568 78.4431 111.067 78.0174C110.816 77.8045 110.607 77.6272 110.46 77.503C110.387 77.4409 110.329 77.3921 110.29 77.3588C110.27 77.3422 110.255 77.3294 110.245 77.3208C110.24 77.3165 110.236 77.3132 110.234 77.311C110.232 77.31 110.231 77.3091 110.231 77.3086C110.23 77.3083 110.23 77.3081 110.23 77.3079C110.23 77.3079 110.23 77.3078 110.23 77.3078C110.23 77.3077 110.23 77.3077 110.133 77.7386C110.035 78.1695 110.035 78.1695 110.035 78.1696C110.035 78.1696 110.035 78.1696 110.036 78.1697C110.036 78.1698 110.036 78.17 110.036 78.1703C110.037 78.1709 110.038 78.1717 110.039 78.1727C110.042 78.1749 110.046 78.1781 110.051 78.1824C110.061 78.191 110.076 78.2036 110.095 78.2202C110.134 78.2533 110.192 78.302 110.265 78.3639C110.411 78.4877 110.62 78.6646 110.87 78.8771C111.37 79.302 112.035 79.8685 112.697 80.4355C113.359 81.003 114.015 81.5689 114.498 81.9934C114.74 82.2065 114.933 82.3794 115.061 82.4975C115.127 82.5589 115.163 82.5949 115.178 82.6101C115.192 82.6249 115.168 82.6011 115.134 82.5558C115.131 82.5523 115.047 82.4447 114.993 82.2888C114.959 82.1896 114.926 82.0383 114.966 81.9082C115.004 81.7836 115.088 81.748 115.139 81.7382L115.379 82.2932ZM118.741 89.1109L119.173 89.3896C119.22 88.4639 119.105 87.2774 118.555 85.9523C117.999 84.6131 117.032 83.2164 115.484 81.8694L115.379 82.2932L115.273 82.717C116.649 83.9138 117.408 85.0615 117.823 86.0629C118.245 87.0785 118.35 88.0289 118.309 88.8322L118.741 89.1109ZM115.374 102.803L115.794 103.167L119.161 89.4749L118.741 89.1109L118.321 88.747L114.955 102.439L115.374 102.803ZM116.126 103.515L116.283 103.14C115.971 102.819 115.694 102.566 115.48 102.379L115.374 102.803L115.269 103.227C115.456 103.389 115.697 103.611 115.97 103.891L116.126 103.515ZM115.362 102.854L115.258 103.279L116.022 103.941L116.126 103.515L116.23 103.09L115.466 102.429L115.362 102.854ZM110.642 122.034L111.062 122.398L115.782 103.218L115.362 102.854L114.942 102.49L110.222 121.67L110.642 122.034ZM107.33 122.094L107.226 122.519C108.363 123.505 109.234 123.75 109.872 123.587C110.491 123.429 110.848 122.898 111.043 122.454L110.642 122.034L110.241 121.614C110.077 121.986 109.801 122.372 109.365 122.483C108.949 122.59 108.343 122.457 107.434 121.669L107.33 122.094ZM102.084 117.535C101.972 117.953 101.972 117.953 101.972 117.953C101.972 117.953 101.972 117.953 101.972 117.953C101.973 117.953 101.973 117.954 101.973 117.954C101.974 117.954 101.975 117.955 101.976 117.956C101.979 117.959 101.983 117.962 101.988 117.967C101.998 117.976 102.013 117.989 102.032 118.006C102.071 118.041 102.128 118.092 102.201 118.156C102.347 118.285 102.554 118.469 102.804 118.689C103.302 119.13 103.965 119.716 104.627 120.297C105.288 120.878 105.948 121.455 106.44 121.878C106.685 122.088 106.892 122.264 107.038 122.384C107.108 122.442 107.175 122.495 107.226 122.532C107.245 122.546 107.292 122.581 107.343 122.607C107.358 122.615 107.383 122.627 107.412 122.637C107.437 122.646 107.497 122.665 107.562 122.655C107.634 122.643 107.743 122.587 107.761 122.398C107.777 122.232 107.71 122.069 107.681 122.006L107.33 122.094L106.978 122.182C106.951 122.121 106.885 121.961 106.9 121.796C106.918 121.608 107.026 121.553 107.097 121.542C107.161 121.532 107.219 121.55 107.24 121.558C107.268 121.567 107.289 121.578 107.3 121.584C107.335 121.602 107.357 121.619 107.341 121.607C107.322 121.594 107.282 121.563 107.214 121.507C107.083 121.399 106.887 121.233 106.644 121.024C106.159 120.607 105.503 120.035 104.843 119.455C104.184 118.875 103.522 118.291 103.025 117.851C102.776 117.631 102.569 117.447 102.423 117.318C102.351 117.254 102.294 117.203 102.255 117.169C102.235 117.152 102.22 117.138 102.21 117.13C102.205 117.125 102.202 117.122 102.199 117.119C102.198 117.118 102.197 117.117 102.196 117.117C102.196 117.117 102.196 117.116 102.195 117.116C102.195 117.116 102.195 117.116 102.195 117.116C102.195 117.116 102.195 117.116 102.084 117.535ZM98.5 125.021L98.897 125.45L102.481 117.963L102.084 117.535L101.687 117.106L98.103 124.592L98.5 125.021ZM107.898 133.19L108.003 132.766L98.6052 124.597L98.5 125.021L98.3948 125.445L107.793 133.614L107.898 133.19ZM110.894 135.823L111.003 135.403C110.016 134.531 109.016 133.648 108.004 132.767L107.898 133.19L107.792 133.614C108.799 134.491 109.796 135.371 110.784 136.243L110.894 135.823ZM110.895 135.824L111.004 135.404L111.002 135.402L110.894 135.823L110.785 136.244L110.786 136.245L110.895 135.824ZM113.04 137.713L113.147 137.291C112.439 136.67 111.725 136.04 111.005 135.404L110.895 135.824L110.785 136.244C111.505 136.88 112.221 137.512 112.932 138.135L113.04 137.713ZM110.053 149.87L110.473 150.234L113.459 138.077L113.04 137.713L112.62 137.349L109.633 149.507L110.053 149.87ZM117.267 156.138L117.372 155.714L110.158 149.446L110.053 149.87L109.948 150.295L117.162 156.562L117.267 156.138ZM120.224 144.118L119.804 143.754L116.847 155.774L117.267 156.138L117.686 156.502L120.644 144.482L120.224 144.118ZM125.98 149.187L126.085 148.763C124.216 147.137 122.305 145.457 120.337 143.701L120.224 144.118L120.111 144.536C122.085 146.297 124.001 147.981 125.874 149.61L125.98 149.187ZM123.031 161.153L123.45 161.517L126.399 149.551L125.98 149.187L125.56 148.822L122.611 160.789L123.031 161.153ZM130.248 167.423L130.353 166.998L123.136 160.729L123.031 161.153L122.926 161.577L130.143 167.847L130.248 167.423ZM133.235 155.294L132.815 154.93L129.828 167.059L130.248 167.423L130.668 167.787L133.655 155.659L133.235 155.294ZM158.701 158.795L158.293 158.393C156.385 163.599 153.192 165.113 148.997 164.173C144.762 163.223 139.458 159.762 133.316 154.85L133.235 155.294L133.154 155.739C139.325 160.674 144.805 164.279 149.251 165.276C153.736 166.282 157.12 164.623 159.109 159.196L158.701 158.795ZM152.068 134.669L151.868 134.996C155.058 138.77 157.408 142.537 158.595 146.367C159.78 150.189 159.839 154.18 158.293 158.393L158.701 158.795L159.109 159.196C160.704 154.853 160.686 150.613 159.388 146.427C158.093 142.249 155.557 138.231 152.268 134.341L152.068 134.669ZM161.286 127.745L160.859 127.424C160.395 130.787 159.3 132.806 157.775 133.816C156.25 134.826 154.265 134.846 151.971 134.125L152.068 134.669L152.165 135.212C154.591 135.974 156.742 135.968 158.408 134.864C160.075 133.76 161.23 131.576 161.714 128.066L161.286 127.745ZM123.971 136.658L123.86 137.077C126.797 139.68 131.543 143.888 135.819 146.389C137.958 147.64 140.021 148.49 141.695 148.467C143.387 148.444 144.66 147.529 145.202 145.315L144.782 144.952L144.362 144.588C143.883 146.544 142.781 147.329 141.3 147.349C139.801 147.369 137.895 146.603 135.823 145.391C131.677 142.966 127.038 138.859 124.082 136.239L123.971 136.658ZM123.97 136.657L123.857 137.074L123.858 137.075L123.971 136.658L124.084 136.24L124.082 136.239L123.97 136.657ZM122.561 135.416L122.456 135.84C122.857 136.188 123.327 136.605 123.859 137.076L123.97 136.657L124.081 136.238C123.551 135.769 123.074 135.346 122.666 134.992L122.561 135.416ZM126.529 119.32L126.109 118.956L122.141 135.052L122.561 135.416L122.981 135.78L126.949 119.685L126.529 119.32ZM128.309 120.831L128.405 120.399C127.719 119.823 127.122 119.321 126.635 118.897L126.529 119.32L126.424 119.744C126.923 120.179 127.532 120.691 128.214 121.264L128.309 120.831ZM144.782 144.952L145.202 145.316C145.756 143.069 145.348 140.661 144.312 138.246C143.287 135.857 141.664 133.499 139.822 131.297C136.144 126.899 131.442 122.951 128.405 120.399L128.309 120.831L128.214 121.264C131.273 123.835 135.857 127.69 139.415 131.944C141.193 134.068 142.676 136.248 143.59 138.379C144.493 140.484 144.858 142.579 144.362 144.588L144.782 144.952ZM147.022 119.293L146.602 118.929C146.165 120.707 145.22 121.46 143.981 121.556C142.726 121.653 141.141 121.076 139.417 120.107C135.963 118.166 132.117 114.749 129.651 112.555L129.539 112.973L129.427 113.391C131.872 115.566 135.835 119.095 139.43 121.115C141.23 122.126 142.978 122.784 144.408 122.673C145.855 122.562 146.948 121.666 147.442 119.657L147.022 119.293ZM133.435 98.5872L133.341 99.0208C135.895 101.157 139.705 104.348 142.639 107.945C144.103 109.739 145.314 111.592 146.048 113.431C146.773 115.248 147.053 117.1 146.602 118.929L147.022 119.293L147.442 119.657C147.945 117.614 147.639 115.473 146.79 113.346C145.949 111.241 144.597 109.199 143.062 107.317C139.997 103.56 136.059 100.27 133.529 98.1535L133.435 98.5872ZM131.944 97.3264L131.839 97.7505C132.258 98.1149 132.77 98.543 133.341 99.0208L133.435 98.5872L133.529 98.1535C132.954 97.6725 132.455 97.2549 132.049 96.9023L131.944 97.3264ZM128.352 111.924L128.771 112.288L132.364 97.6904L131.944 97.3264L131.524 96.9624L127.932 111.56L128.352 111.924ZM129.539 112.973L129.651 112.555C129.205 112.158 128.801 111.799 128.457 111.5L128.352 111.924L128.247 112.348C128.583 112.64 128.978 112.992 129.427 113.391L129.539 112.973Z" fill="black"/>
<path d="M210.011 164.784L133.743 209.035L157.881 223.116L233.645 178.696L210.011 164.784Z" fill="#FF9500" stroke="black" stroke-width="1.5"/>
<path d="M161.401 248.091L125.53 227.138L133.743 209.035L157.713 223.116L161.401 248.091Z" fill="#C77400" stroke="black" stroke-width="1.5"/>
<path d="M233.813 178.864L237.669 204.175L161.569 248.594L157.881 222.948L233.813 178.864Z" fill="#C77400" stroke="black" stroke-width="1.5"/>
<path d="M262.143 193.95L185.875 238.201L210.013 252.282L285.777 207.862L262.143 193.95Z" fill="#FF9500" stroke="black" stroke-width="1.5"/>
<path d="M213.534 277.257L177.663 256.304L185.877 238.201L209.847 252.282L213.534 277.257Z" fill="#C77400" stroke="black" stroke-width="1.5"/>
<path d="M285.945 208.029L289.801 233.34L213.701 277.759L210.013 252.113L285.945 208.029Z" fill="#C77400" stroke="black" stroke-width="1.5"/>
<path d="M239.679 160.09L163.412 204.342L187.549 218.422L263.314 174.003L239.679 160.09Z" fill="#FF9500" stroke="black" stroke-width="1.5"/>
<path d="M191.069 243.397L155.199 222.445L163.412 204.342L187.382 218.422L191.069 243.397Z" fill="#C77400" stroke="black" stroke-width="1.5"/>
<path d="M263.482 174.17L267.337 199.481L191.238 243.9L187.55 218.255L263.482 174.17Z" fill="#C77400" stroke="black" stroke-width="1.5"/>
</g>
<defs>
<clipPath id="clip0_18089_7248">
<rect width="360" height="288" fill="white"/>
</clipPath>
</defs>
</svg>
