<svg width="360" height="288" viewBox="0 0 360 288" fill="none" xmlns="http://www.w3.org/2000/svg">
<g clip-path="url(#clip0_18089_7208)">
<ellipse cx="138" cy="250.628" rx="97" ry="27.5" fill="#1C1C1C"/>
<ellipse cx="217" cy="254.128" rx="71" ry="20" fill="#1C1C1C"/>
<path d="M95.7385 212.871C126.62 255.845 169.148 251.697 190.728 203.606C212.308 155.516 204.767 81.6944 173.885 38.7209C143.004 -4.25255 100.476 -0.104521 78.896 47.9858C57.3163 96.0761 64.857 169.898 95.7385 212.871Z" fill="#FFE2C8" stroke="black"/>
<path d="M102.88 206.984C129.715 244.326 166.029 240.803 184.736 199.046C203.444 157.289 194.961 81.5366 168.126 44.1945C141.291 6.85238 104.372 10.4313 85.6637 52.1882C66.9558 93.9451 76.0454 169.642 102.88 206.984Z" fill="#F8B04A" stroke="black"/>
<path d="M122.902 9.20386C104.355 11.0129 88.8958 25.7007 78.8961 47.9852L53.5656 50.4559C63.5653 28.1714 79.0242 13.4836 97.5719 11.6745L122.902 9.20386Z" fill="#FF9500" stroke="black"/>
<path d="M95.7392 212.871C64.8576 169.898 57.317 96.076 78.8966 47.9857L53.5661 50.4563C31.9865 98.5466 39.5271 172.368 70.4086 215.342L95.7392 212.871Z" fill="#FF9500" stroke="black"/>
<path d="M146.721 242.388C128.174 244.197 110.049 232.785 95.7385 212.871L70.408 215.342C84.7181 235.255 102.843 246.667 121.391 244.858L146.721 242.388Z" fill="#FF9500" stroke="black"/>
<path fill-rule="evenodd" clip-rule="evenodd" d="M138.304 70.515C134.845 70.6428 131.214 73.2248 127.555 77.0043L122.304 77.5165C125.963 73.7369 129.595 71.1549 133.053 71.0272L138.304 70.515Z" fill="#FF9500" stroke="black" stroke-linejoin="round"/>
<path fill-rule="evenodd" clip-rule="evenodd" d="M127.554 77.0029L120.305 61.3793L115.054 61.8915L122.303 77.515L127.554 77.0029Z" fill="#FF9500" stroke="black" stroke-linejoin="round"/>
<path fill-rule="evenodd" clip-rule="evenodd" d="M120.305 61.3794L115.243 67.8475L122.299 83.0618C120.994 84.7215 119.688 86.4697 118.383 88.215L118.3 88.3262L113.049 88.8383L113.132 88.7272C114.437 86.9819 115.743 85.2336 117.048 83.574L109.992 68.3596L115.054 61.8916L120.305 61.3794Z" fill="#FF9500" stroke="black" stroke-linejoin="round"/>
<path fill-rule="evenodd" clip-rule="evenodd" d="M118.3 88.3263L111.199 73.0105L105.948 73.5226L113.049 88.8385L118.3 88.3263Z" fill="#FF9500" stroke="black" stroke-linejoin="round"/>
<path fill-rule="evenodd" clip-rule="evenodd" d="M111.198 73.0108L106.134 79.4745L113.38 95.0938L113.163 95.3833C112.16 96.7239 111.173 98.0429 110.192 99.2895L104.941 99.8016C105.922 98.5551 106.909 97.236 107.912 95.8955L108.129 95.6059L100.883 79.9867L105.948 73.5229L111.198 73.0108Z" fill="#FF9500" stroke="black" stroke-linejoin="round"/>
<path fill-rule="evenodd" clip-rule="evenodd" d="M110.191 99.2889L110.168 99.2406L104.917 99.7527L104.94 99.8011L110.191 99.2889Z" fill="#FF9500" stroke="black" stroke-linejoin="round"/>
<path fill-rule="evenodd" clip-rule="evenodd" d="M110.168 99.2402L103.18 108.156L107.892 118.31L102.641 118.823L97.929 108.668L104.917 99.7523L110.168 99.2402Z" fill="#FF9500" stroke="black" stroke-linejoin="round"/>
<path fill-rule="evenodd" clip-rule="evenodd" d="M107.893 118.312C107.893 118.312 111.285 113.786 111.554 113.607L106.303 114.119C106.034 114.298 102.642 118.824 102.642 118.824L107.893 118.312Z" fill="#FF9500" stroke="black" stroke-linejoin="round"/>
<path fill-rule="evenodd" clip-rule="evenodd" d="M111.554 113.607C111.565 113.6 111.571 113.6 111.571 113.608L106.32 114.12C106.32 114.112 106.314 114.112 106.303 114.119L111.554 113.607Z" fill="#FF9500" stroke="black" stroke-linejoin="round"/>
<path fill-rule="evenodd" clip-rule="evenodd" d="M111.569 113.607C112.308 112.665 113.001 112.242 113.638 112.164L108.387 112.676C107.75 112.754 107.057 113.177 106.318 114.119L111.569 113.607Z" fill="#FF9500" stroke="black" stroke-linejoin="round"/>
<path fill-rule="evenodd" clip-rule="evenodd" d="M113.639 112.164C114.77 112.026 115.719 112.981 116.418 114.059L124.676 131.853L119.426 132.366L111.167 114.571C110.468 113.494 109.519 112.538 108.388 112.676L113.639 112.164Z" fill="#FF9500" stroke="black" stroke-linejoin="round"/>
<path fill-rule="evenodd" clip-rule="evenodd" d="M124.677 131.854C124.818 131.675 125.007 131.454 125.242 131.233L119.991 131.745C119.756 131.966 119.567 132.187 119.426 132.366L124.677 131.854Z" fill="#FF9500" stroke="black" stroke-linejoin="round"/>
<path fill-rule="evenodd" clip-rule="evenodd" d="M125.242 131.233L124.708 131.92L136.276 156.853C136.745 158.178 137.262 160.595 135.83 162.433C135.946 162.454 132.15 167.133 132.15 167.133L126.899 167.645C126.899 167.645 130.695 162.966 130.579 162.945C132.011 161.107 131.494 158.691 131.025 157.365L119.457 132.432L119.991 131.745L125.242 131.233Z" fill="#FF9500" stroke="black" stroke-linejoin="round"/>
<path fill-rule="evenodd" clip-rule="evenodd" d="M132.148 167.132L136.409 179.77L131.158 180.282L126.898 167.644L132.148 167.132Z" fill="#FF9500" stroke="black" stroke-linejoin="round"/>
<path fill-rule="evenodd" clip-rule="evenodd" d="M136.41 179.771L143.004 171.354C143.713 170.452 144.422 169.569 145.124 168.697L145.125 168.696C145.637 168.059 146.144 167.427 146.646 166.796L141.395 167.308C140.893 167.939 140.386 168.571 139.874 169.208L139.873 169.209C139.171 170.082 138.462 170.964 137.753 171.866L131.159 180.283L136.41 179.771Z" fill="#FF9500" stroke="black" stroke-linejoin="round"/>
<path fill-rule="evenodd" clip-rule="evenodd" d="M146.646 166.796L153.979 182.591L148.728 183.103L141.395 167.308L146.646 166.796Z" fill="#FF9500" stroke="black" stroke-linejoin="round"/>
<path fill-rule="evenodd" clip-rule="evenodd" d="M153.979 182.591L159.039 176.128L151.789 160.504C153.201 158.779 154.555 157.082 155.869 155.407L150.618 155.919C149.304 157.594 147.95 159.291 146.538 161.017L153.788 176.64L148.728 183.103L153.979 182.591Z" fill="#FF9500" stroke="black" stroke-linejoin="round"/>
<path fill-rule="evenodd" clip-rule="evenodd" d="M155.869 155.407L163.086 170.969L157.835 171.481L150.618 155.919L155.869 155.407Z" fill="#FF9500" stroke="black" stroke-linejoin="round"/>
<path fill-rule="evenodd" clip-rule="evenodd" d="M163.084 170.968L168.146 164.5L160.831 148.73C168.924 136.941 173.015 125.306 166.789 109.348C163.183 100.096 159.304 96.7114 155.234 97.0324L149.983 97.5445C154.053 97.2235 157.932 100.608 161.538 109.86C167.764 125.818 163.673 137.453 155.58 149.243L162.895 165.012L157.833 171.48L163.084 170.968Z" fill="#FF9500" stroke="black" stroke-linejoin="round"/>
<path fill-rule="evenodd" clip-rule="evenodd" d="M155.235 97.0347C153.652 97.1595 152.04 97.8447 150.403 98.9632L145.152 99.4753C146.789 98.3569 148.401 97.6717 149.984 97.5468L155.235 97.0347Z" fill="#FF9500" stroke="black" stroke-linejoin="round"/>
<path fill-rule="evenodd" clip-rule="evenodd" d="M150.402 98.9619C152.04 92.4043 151.579 85.1171 147.325 77.422C144.54 72.369 141.495 70.3958 138.303 70.5137L133.052 71.0258C136.244 70.9079 139.289 72.8812 142.074 77.9341C146.328 85.6292 146.789 92.9165 145.152 99.474L150.402 98.9619Z" fill="#FF9500" stroke="black" stroke-linejoin="round"/>
<path fill-rule="evenodd" clip-rule="evenodd" d="M146.566 148.859L136.857 127.92C137.203 127.478 137.615 126.923 138.082 126.293L138.082 126.293C140.749 122.699 145.201 116.699 149.406 115.748L144.155 116.26C139.95 117.211 135.498 123.211 132.832 126.805L132.831 126.805C132.364 127.435 131.952 127.99 131.606 128.432L141.315 149.371L146.566 148.859Z" fill="#FF9500" stroke="black" stroke-linejoin="round"/>
<path fill-rule="evenodd" clip-rule="evenodd" d="M149.407 115.749C151.773 115.214 154.061 116.276 155.909 120.263C160.941 131.088 151.766 142.424 147.567 147.612L147.566 147.613C147.188 148.08 146.85 148.497 146.567 148.86L141.316 149.372C141.599 149.009 141.937 148.592 142.315 148.125L142.316 148.124C146.515 142.936 155.69 131.6 150.658 120.775C148.81 116.788 146.522 115.726 144.156 116.261L149.407 115.749Z" fill="#FF9500" stroke="black" stroke-linejoin="round"/>
<path fill-rule="evenodd" clip-rule="evenodd" d="M134.824 89.3034C131.017 89.3123 126.986 94.7857 124.632 97.9825C124.242 98.5126 123.898 98.9799 123.608 99.3492L132.415 118.328L127.164 118.84L118.358 99.8614C118.647 99.4921 118.991 99.0247 119.381 98.4946C121.735 95.2979 125.766 89.8245 129.573 89.8156L134.824 89.3034Z" fill="#FF9500" stroke="black" stroke-linejoin="round"/>
<path fill-rule="evenodd" clip-rule="evenodd" d="M132.415 118.329C132.654 118.025 132.94 117.674 133.26 117.281C136.769 112.972 144.422 103.576 139.854 93.7292C138.359 90.5063 136.616 89.3004 134.825 89.3045L129.574 89.8167C131.365 89.8125 133.108 91.0185 134.603 94.2414C139.171 104.088 131.518 113.484 128.009 117.793C127.689 118.186 127.403 118.537 127.164 118.841L132.415 118.329Z" fill="#FF9500" stroke="black" stroke-linejoin="round"/>
<path fill-rule="evenodd" clip-rule="evenodd" d="M147.298 77.3851C141.503 66.866 134.581 69.7207 127.556 77.006L120.313 61.3913L115.261 67.872L122.311 83.0777C121.008 84.7407 119.704 86.4921 118.402 88.2408L118.319 88.3522L111.224 73.045L106.169 79.5215L113.408 95.1319L113.192 95.4218C112.191 96.7649 111.205 98.0866 110.226 99.3356L110.202 99.2873L103.227 108.221L107.935 118.369C107.935 118.369 111.608 113.449 111.605 113.656C113.655 111.035 115.356 112.417 116.447 114.099L124.698 131.883C124.838 131.703 125.028 131.482 125.262 131.261L124.728 131.949L136.286 156.868C136.755 158.193 137.272 160.609 135.843 162.451C135.959 162.472 132.169 167.16 132.169 167.16L136.427 179.794L143.009 171.36C143.717 170.456 144.424 169.573 145.124 168.699L145.125 168.698L145.127 168.696C145.637 168.058 146.144 167.425 146.644 166.793L153.971 182.579L159.021 176.103L151.778 160.489C153.188 158.76 154.539 157.059 155.851 155.381L163.061 170.935L168.113 164.454L160.805 148.694C168.882 136.883 172.964 125.236 166.744 109.285C161.739 96.4398 156.212 94.919 150.377 98.9268C152.01 92.3635 151.548 85.0745 147.298 77.3851ZM155.894 120.243C160.919 131.058 151.759 142.415 147.567 147.613L147.566 147.613C147.189 148.082 146.851 148.5 146.568 148.863L136.873 127.944C137.219 127.501 137.631 126.945 138.097 126.314C142.256 120.689 150.767 109.178 155.894 120.243ZM133.26 117.28C136.763 112.963 144.403 103.549 139.841 93.711C135.175 83.6483 128.1 93.2898 124.645 97.9992C124.255 98.5301 123.911 98.9983 123.623 99.3685L132.417 118.331C132.655 118.025 132.94 117.674 133.26 117.28Z" fill="#FFE2C8"/>
<path d="M127.556 77.006L127.287 77.3508L127.501 77.8123L127.765 77.5384L127.556 77.006ZM147.298 77.3851L147.053 77.7763L147.053 77.7772L147.298 77.3851ZM120.313 61.3913L120.582 61.0465L120.348 60.5423L120.079 60.8874L120.313 61.3913ZM115.261 67.872L115.027 67.3681L114.758 67.7129L114.992 68.2167L115.261 67.872ZM122.311 83.0777L122.544 83.5824L122.814 83.2379L122.58 82.733L122.311 83.0777ZM118.402 88.2408L118.641 88.7378L118.641 88.7378L118.402 88.2408ZM118.319 88.3522L118.05 88.6967L118.288 89.2114L118.558 88.8492L118.319 88.3522ZM111.224 73.045L111.493 72.7005L111.26 72.1961L110.99 72.5409L111.224 73.045ZM106.169 79.5215L105.935 79.0173L105.666 79.3621L105.9 79.8662L106.169 79.5215ZM113.408 95.1319L113.647 95.6291L113.907 95.2814L113.677 94.7871L113.408 95.1319ZM113.192 95.4218L112.953 94.9246L112.953 94.9246L113.192 95.4218ZM110.226 99.3356L109.963 99.6931L110.197 100.175L110.459 99.8403L110.226 99.3356ZM110.202 99.2873L110.465 98.9297L110.231 98.4473L109.969 98.7831L110.202 99.2873ZM103.227 108.221L102.993 107.717L102.724 108.061L102.958 108.566L103.227 108.221ZM107.935 118.369L107.666 118.714L107.904 119.228L108.174 118.867L107.935 118.369ZM111.605 113.656L111.249 113.573L111.232 114.938L111.839 114.161L111.605 113.656ZM116.447 114.099L116.716 113.754L116.694 113.707L116.668 113.667L116.447 114.099ZM124.698 131.883L124.429 132.228L124.663 132.732L124.932 132.388L124.698 131.883ZM125.262 131.261L125.497 131.764L125.063 130.718L125.262 131.261ZM124.728 131.949L124.494 131.446L124.226 131.792L124.459 132.294L124.728 131.949ZM136.286 156.868L136.585 156.597L136.571 156.558L136.555 156.523L136.286 156.868ZM135.843 162.451L135.608 161.948L134.88 162.886L135.847 163.059L135.843 162.451ZM132.169 167.16L131.939 166.651L131.704 166.941L131.865 167.417L132.169 167.16ZM136.427 179.794L136.123 180.051L136.343 180.704L136.66 180.298L136.427 179.794ZM143.009 171.36L142.775 170.855L142.775 170.856L143.009 171.36ZM145.124 168.699L145.355 169.206L145.357 169.204L145.124 168.699ZM145.125 168.698L144.895 168.189L144.892 168.192L145.125 168.698ZM145.127 168.696L145.357 169.204L145.358 169.203L145.127 168.696ZM146.644 166.793L146.913 166.448L146.681 165.948L146.412 166.287L146.644 166.793ZM153.971 182.579L153.702 182.924L153.935 183.428L154.204 183.083L153.971 182.579ZM159.021 176.103L159.255 176.607L159.524 176.263L159.29 175.759L159.021 176.103ZM151.778 160.489L151.549 159.978L151.271 160.32L151.509 160.834L151.778 160.489ZM155.851 155.381L156.12 155.037L155.886 154.533L155.617 154.877L155.851 155.381ZM163.061 170.935L162.792 171.279L163.025 171.784L163.295 171.439L163.061 170.935ZM168.113 164.454L168.347 164.958L168.616 164.613L168.382 164.109L168.113 164.454ZM160.805 148.694L160.556 148.21L160.315 148.563L160.536 149.039L160.805 148.694ZM166.744 109.285L166.454 109.581L166.454 109.582L166.744 109.285ZM150.377 98.9268L150.047 98.6345L149.686 100.085L150.542 99.4976L150.377 98.9268ZM147.567 147.613L147.793 148.127L147.797 148.122L147.567 147.613ZM155.894 120.243L155.625 120.587L155.625 120.588L155.894 120.243ZM147.566 147.613L147.34 147.1L147.336 147.104L147.566 147.613ZM146.568 148.863L146.299 149.208L146.533 149.713L146.802 149.367L146.568 148.863ZM136.873 127.944L136.64 127.439L136.37 127.784L136.604 128.288L136.873 127.944ZM138.097 126.314L137.857 125.818L137.857 125.818L138.097 126.314ZM139.841 93.711L139.572 94.0557L139.572 94.0557L139.841 93.711ZM133.26 117.28L133.03 116.771L133.03 116.771L133.26 117.28ZM124.645 97.9992L124.404 97.5044L124.404 97.5044L124.645 97.9992ZM123.623 99.3685L123.389 98.8644L123.12 99.2092L123.353 99.7132L123.623 99.3685ZM132.417 118.331L132.148 118.675L132.382 119.179L132.651 118.835L132.417 118.331ZM127.556 77.006L127.765 77.5384C131.263 73.9113 134.696 71.4307 137.948 71.1287C141.176 70.8291 144.24 72.6714 147.053 77.7763L147.298 77.3851L147.544 76.9939C144.561 71.5797 141.267 69.5898 137.829 69.9091C134.415 70.226 130.874 72.8154 127.347 76.4736L127.556 77.006ZM120.313 61.3913L120.044 61.7361L127.287 77.3508L127.556 77.006L127.825 76.6612L120.582 61.0465L120.313 61.3913ZM115.261 67.872L115.495 68.376L120.547 61.8952L120.313 61.3913L120.079 60.8874L115.027 67.3681L115.261 67.872ZM122.311 83.0777L122.58 82.733L115.53 67.5273L115.261 67.872L114.992 68.2167L122.042 83.4224L122.311 83.0777ZM118.402 88.2408L118.641 88.7378C119.944 86.9884 121.245 85.2409 122.544 83.5824L122.311 83.0777L122.078 82.573C120.771 84.2404 119.464 85.9958 118.163 87.7438L118.402 88.2408ZM118.319 88.3522L118.558 88.8492L118.641 88.7378L118.402 88.2408L118.163 87.7438L118.08 87.8552L118.319 88.3522ZM111.224 73.045L110.955 73.3896L118.05 88.6967L118.319 88.3522L118.588 88.0076L111.493 72.7005L111.224 73.045ZM106.169 79.5215L106.402 80.0256L111.458 73.5492L111.224 73.045L110.99 72.5409L105.935 79.0173L106.169 79.5215ZM113.408 95.1319L113.677 94.7871L106.438 79.1767L106.169 79.5215L105.9 79.8662L113.139 95.4766L113.408 95.1319ZM113.192 95.4218L113.431 95.9191L113.647 95.6291L113.408 95.1319L113.169 94.6346L112.953 94.9246L113.192 95.4218ZM110.226 99.3356L110.459 99.8403C111.442 98.587 112.43 97.2614 113.431 95.9191L113.192 95.4218L112.953 94.9246C111.951 96.2684 110.968 97.5862 109.993 98.8308L110.226 99.3356ZM110.202 99.2873L109.939 99.6448L109.963 99.6931L110.226 99.3356L110.489 98.978L110.465 98.9297L110.202 99.2873ZM103.227 108.221L103.46 108.725L110.436 99.7914L110.202 99.2873L109.969 98.7831L102.993 107.717L103.227 108.221ZM107.935 118.369L108.204 118.024L103.496 107.876L103.227 108.221L102.958 108.566L107.666 118.714L107.935 118.369ZM111.605 113.656L111.962 113.74C111.963 113.651 111.953 113.493 111.885 113.332C111.813 113.164 111.719 113.09 111.655 113.061C111.553 113.015 111.474 113.057 111.465 113.061C111.421 113.082 111.384 113.116 111.369 113.13C111.328 113.167 111.279 113.221 111.228 113.279C111.122 113.401 110.974 113.581 110.801 113.798C110.455 114.234 109.994 114.832 109.535 115.434C109.075 116.038 108.615 116.647 108.271 117.105C108.098 117.335 107.955 117.526 107.854 117.66C107.804 117.728 107.764 117.78 107.737 117.816C107.724 117.835 107.713 117.848 107.706 117.858C107.703 117.862 107.7 117.866 107.699 117.868C107.698 117.869 107.697 117.87 107.697 117.871C107.696 117.871 107.696 117.871 107.696 117.872C107.696 117.872 107.696 117.872 107.696 117.872C107.696 117.872 107.696 117.872 107.935 118.369C108.174 118.867 108.174 118.867 108.174 118.867C108.174 118.867 108.174 118.867 108.174 118.866C108.174 118.866 108.174 118.866 108.174 118.866C108.175 118.865 108.175 118.864 108.176 118.863C108.178 118.861 108.181 118.857 108.184 118.853C108.191 118.843 108.201 118.83 108.215 118.812C108.242 118.776 108.281 118.723 108.331 118.656C108.431 118.522 108.575 118.331 108.747 118.102C109.091 117.645 109.549 117.037 110.008 116.436C110.466 115.834 110.923 115.241 111.264 114.812C111.436 114.597 111.575 114.427 111.669 114.319C111.718 114.263 111.747 114.233 111.76 114.221C111.772 114.21 111.756 114.228 111.725 114.242C111.723 114.243 111.649 114.284 111.551 114.24C111.488 114.212 111.395 114.139 111.325 113.973C111.258 113.814 111.248 113.659 111.249 113.573L111.605 113.656ZM116.447 114.099L116.668 113.667C116.087 112.771 115.319 111.917 114.402 111.661C113.476 111.403 112.452 111.77 111.372 113.152L111.605 113.656L111.839 114.161C112.808 112.921 113.659 112.668 114.368 112.866C115.087 113.067 115.715 113.744 116.226 114.531L116.447 114.099ZM124.698 131.883L124.967 131.538L116.716 113.754L116.447 114.099L116.178 114.444L124.429 132.228L124.698 131.883ZM125.262 131.261L125.063 130.718C124.815 130.953 124.614 131.188 124.464 131.379L124.698 131.883L124.932 132.388C125.063 132.219 125.241 132.011 125.461 131.803L125.262 131.261ZM124.728 131.949L124.963 132.452L125.497 131.764L125.262 131.261L125.027 130.758L124.494 131.446L124.728 131.949ZM136.286 156.868L136.555 156.523L124.998 131.604L124.728 131.949L124.459 132.294L136.017 157.212L136.286 156.868ZM135.843 162.451L136.077 162.955C136.865 161.939 137.144 160.718 137.133 159.527C137.122 158.368 136.838 157.313 136.585 156.597L136.286 156.868L135.987 157.138C136.203 157.748 136.412 158.564 136.42 159.405C136.427 160.214 136.25 161.122 135.608 161.948L135.843 162.451ZM132.169 167.16C132.398 167.669 132.398 167.669 132.399 167.669C132.399 167.669 132.399 167.669 132.399 167.669C132.399 167.669 132.399 167.668 132.399 167.668C132.4 167.668 132.4 167.667 132.401 167.666C132.403 167.663 132.406 167.66 132.409 167.655C132.417 167.647 132.427 167.633 132.441 167.616C132.469 167.582 132.51 167.531 132.561 167.467C132.665 167.339 132.813 167.155 132.989 166.935C133.343 166.495 133.814 165.908 134.281 165.32C134.748 164.732 135.212 164.142 135.553 163.697C135.723 163.475 135.865 163.286 135.962 163.149C136.01 163.083 136.052 163.02 136.083 162.969C136.094 162.95 136.122 162.905 136.144 162.849C136.151 162.832 136.161 162.804 136.171 162.766C136.18 162.736 136.198 162.659 136.201 162.552C136.204 162.433 136.186 162.222 136.078 162.041C135.984 161.882 135.879 161.851 135.838 161.844L135.843 162.451L135.847 163.059C135.807 163.052 135.705 163.022 135.611 162.864C135.504 162.685 135.486 162.476 135.489 162.359C135.492 162.254 135.51 162.181 135.517 162.154C135.526 162.121 135.536 162.096 135.54 162.084C135.555 162.047 135.568 162.029 135.558 162.046C135.546 162.066 135.519 162.106 135.473 162.17C135.385 162.294 135.251 162.474 135.082 162.694C134.745 163.134 134.284 163.72 133.817 164.307C133.352 164.893 132.882 165.479 132.529 165.919C132.352 166.138 132.205 166.321 132.101 166.449C132.05 166.514 132.009 166.564 131.981 166.598C131.968 166.615 131.957 166.628 131.95 166.637C131.946 166.642 131.944 166.645 131.942 166.647C131.941 166.648 131.94 166.649 131.94 166.65C131.94 166.65 131.939 166.65 131.939 166.65C131.939 166.65 131.939 166.65 131.939 166.651C131.939 166.651 131.939 166.651 132.169 167.16ZM136.427 179.794L136.73 179.536L132.472 166.902L132.169 167.16L131.865 167.417L136.123 180.051L136.427 179.794ZM143.009 171.36L142.775 170.856L136.193 179.29L136.427 179.794L136.66 180.298L143.243 171.864L143.009 171.36ZM145.124 168.699L144.894 168.191C144.194 169.065 143.485 169.95 142.775 170.855L143.009 171.36L143.242 171.865C143.949 170.963 144.655 170.081 145.355 169.206L145.124 168.699ZM145.125 168.698L144.892 168.192L144.892 168.193L145.124 168.699L145.357 169.204L145.358 169.203L145.125 168.698ZM145.127 168.696L144.897 168.187L144.895 168.189L145.125 168.698L145.355 169.207L145.357 169.204L145.127 168.696ZM146.644 166.793L146.412 166.287C145.913 166.918 145.407 167.55 144.896 168.188L145.127 168.696L145.358 169.203C145.868 168.566 146.375 167.933 146.876 167.3L146.644 166.793ZM153.971 182.579L154.239 182.234L146.913 166.448L146.644 166.793L146.375 167.138L153.702 182.924L153.971 182.579ZM159.021 176.103L158.787 175.599L153.737 182.075L153.971 182.579L154.204 183.083L159.255 176.607L159.021 176.103ZM151.778 160.489L151.509 160.834L158.752 176.448L159.021 176.103L159.29 175.759L152.047 160.144L151.778 160.489ZM155.851 155.381L155.617 154.877C154.307 156.553 152.957 158.251 151.549 159.978L151.778 160.489L152.007 160.999C153.418 159.268 154.771 157.565 156.084 155.886L155.851 155.381ZM163.061 170.935L163.33 170.59L156.12 155.037L155.851 155.381L155.581 155.726L162.792 171.279L163.061 170.935ZM168.113 164.454L167.879 163.95L162.827 170.431L163.061 170.935L163.295 171.439L168.347 164.958L168.113 164.454ZM160.805 148.694L160.536 149.039L167.844 164.799L168.113 164.454L168.382 164.109L161.074 148.349L160.805 148.694ZM166.744 109.285L166.454 109.582C169.506 117.407 170.011 124.102 168.797 130.289C167.572 136.529 164.586 142.318 160.556 148.21L160.805 148.694L161.054 149.177C165.101 143.259 168.195 137.319 169.475 130.795C170.766 124.218 170.202 117.114 167.033 108.988L166.744 109.285ZM150.377 98.9268L150.542 99.4976C153.419 97.5215 156.173 96.9408 158.801 98.3665C161.424 99.7896 163.987 103.248 166.454 109.581L166.744 109.285L167.033 108.988C164.496 102.476 161.793 98.752 158.943 97.2054C156.097 95.6615 153.171 96.3242 150.213 98.356L150.377 98.9268ZM147.298 77.3851L147.053 77.7772C149.137 81.5468 150.271 85.1786 150.696 88.6365C151.12 92.0949 150.843 95.4365 150.047 98.6345L150.377 98.9268L150.708 99.2191C151.545 95.8538 151.853 92.2693 151.393 88.52C150.932 84.7701 149.71 80.9127 147.543 76.993L147.298 77.3851ZM147.567 147.613L147.797 148.122C149.887 145.53 153.261 141.35 155.478 136.441C156.587 133.986 157.427 131.304 157.655 128.503C157.886 125.674 157.49 122.754 156.163 119.898L155.894 120.243L155.625 120.588C156.811 123.14 157.153 125.695 156.949 128.199C156.742 130.732 155.972 133.242 154.895 135.627C152.74 140.399 149.439 144.497 147.337 147.104L147.567 147.613ZM147.566 147.613L147.792 148.127L147.793 148.127L147.567 147.613L147.341 147.099L147.34 147.1L147.566 147.613ZM146.568 148.863L146.802 149.367C147.083 149.007 147.418 148.591 147.796 148.122L147.566 147.613L147.336 147.104C146.959 147.572 146.62 147.993 146.334 148.359L146.568 148.863ZM136.873 127.944L136.604 128.288L146.299 149.208L146.568 148.863L146.837 148.519L137.142 127.599L136.873 127.944ZM138.097 126.314L137.857 125.818C137.39 126.45 136.982 127.002 136.64 127.439L136.873 127.944L137.107 128.448C137.457 128 137.872 127.439 138.337 126.81L138.097 126.314ZM155.894 120.243L156.163 119.898C154.816 116.991 153.229 115.541 151.545 115.128C149.878 114.719 148.142 115.33 146.471 116.447C143.132 118.679 139.929 123.015 137.857 125.818L138.097 126.314L138.337 126.81C140.423 123.988 143.556 119.757 146.794 117.592C148.411 116.512 150.024 115.968 151.525 116.337C153.009 116.701 154.409 117.963 155.625 120.587L155.894 120.243ZM139.841 93.711L139.572 94.0557C140.649 96.3784 140.996 98.6414 140.875 100.81C140.754 103.005 140.151 105.147 139.28 107.168C137.535 111.215 134.789 114.604 133.03 116.771L133.26 117.28L133.489 117.79C135.234 115.64 138.06 112.163 139.87 107.964C140.777 105.862 141.448 103.536 141.585 101.064C141.724 98.5656 141.314 95.9625 140.11 93.3662L139.841 93.711ZM124.645 97.9992L124.885 98.4939C126.621 96.1291 129.216 92.599 131.944 90.8923C133.306 90.0409 134.671 89.6632 135.959 90.0736C137.234 90.4798 138.465 91.6668 139.572 94.0557L139.841 93.711L140.11 93.3662C138.885 90.7237 137.482 89.3425 136.01 88.8734C134.551 88.4087 133.057 88.8489 131.634 89.7388C128.795 91.5145 126.124 95.1599 124.404 97.5044L124.645 97.9992ZM123.623 99.3685L123.856 99.8726C124.15 99.4968 124.497 99.0232 124.885 98.4939L124.645 97.9992L124.404 97.5044C124.013 98.0369 123.673 98.4998 123.389 98.8644L123.623 99.3685ZM132.417 118.331L132.686 117.986L123.892 99.0237L123.623 99.3685L123.353 99.7132L132.148 118.675L132.417 118.331ZM133.26 117.28L133.03 116.771C132.712 117.163 132.424 117.518 132.183 117.827L132.417 118.331L132.651 118.835C132.886 118.533 133.169 118.185 133.489 117.79L133.26 117.28Z" fill="black"/>
<path d="M167 197.908C167 250.807 203.937 272.249 249.5 245.799C295.064 219.349 332 155.025 332 102.125C332 49.2262 295.064 27.7846 249.5 54.2342C203.937 80.6838 167 145.009 167 197.908Z" fill="#FFE2C8" stroke="black"/>
<path d="M176.23 197.294C176.23 243.262 207.758 261.585 247.297 238.602C286.836 215.618 324.133 149.176 324.133 103.209C324.133 57.2418 292.08 38.6099 252.542 61.5935C213.003 84.577 176.23 151.327 176.23 197.294Z" fill="#F8B04A" stroke="black"/>
<path d="M307.836 48.4235C291.727 39.0721 270.614 41.9773 249.5 54.2337L227.5 41.4627C248.614 29.2063 269.727 26.3012 285.836 35.6525L307.836 48.4235Z" fill="#FF9500" stroke="black"/>
<path d="M167.001 197.908C167.001 145.009 203.937 80.6841 249.5 54.2345L227.501 41.4635C181.937 67.9131 145.001 132.238 145.001 185.137L167.001 197.908Z" fill="#FF9500" stroke="black"/>
<path d="M191.164 251.609C175.055 242.258 167 222.421 167 197.908L145 185.137C145 209.65 153.055 229.487 169.164 238.838L191.164 251.609Z" fill="#FF9500" stroke="black"/>
<path fill-rule="evenodd" clip-rule="evenodd" d="M284.577 107.178C281.696 105.264 277.242 105.242 272.068 106.175L267.507 103.528C272.682 102.595 277.135 102.617 280.016 104.531L284.577 107.178Z" fill="#FF9500" stroke="black" stroke-linejoin="round"/>
<path fill-rule="evenodd" clip-rule="evenodd" d="M272.068 106.174L275.297 89.2622L270.736 86.6149L267.507 103.526L272.068 106.174Z" fill="#FF9500" stroke="black" stroke-linejoin="round"/>
<path fill-rule="evenodd" clip-rule="evenodd" d="M275.296 89.2622L267.416 91.5602L264.269 108.027C262.242 108.613 260.162 109.27 258.085 109.926L257.953 109.967L253.392 107.32L253.525 107.278C255.601 106.622 257.681 105.965 259.709 105.379L262.855 88.9128L270.736 86.6149L275.296 89.2622Z" fill="#FF9500" stroke="black" stroke-linejoin="round"/>
<path fill-rule="evenodd" clip-rule="evenodd" d="M257.953 109.967L261.122 93.3923L256.562 90.7449L253.392 107.32L257.953 109.967Z" fill="#FF9500" stroke="black" stroke-linejoin="round"/>
<path fill-rule="evenodd" clip-rule="evenodd" d="M261.122 93.3923L253.241 95.6849L250.013 112.591L249.668 112.7C248.072 113.203 246.501 113.697 244.978 114.137L240.417 111.49C241.94 111.05 243.511 110.555 245.107 110.052L245.452 109.944L248.681 93.0375L256.561 90.7449L261.122 93.3923Z" fill="#FF9500" stroke="black" stroke-linejoin="round"/>
<path fill-rule="evenodd" clip-rule="evenodd" d="M244.978 114.136L244.987 114.083L240.426 111.436L240.417 111.489L244.978 114.136Z" fill="#FF9500" stroke="black" stroke-linejoin="round"/>
<path fill-rule="evenodd" clip-rule="evenodd" d="M244.987 114.083L234.115 117.244L232.017 128.236L227.457 125.589L229.555 114.597L240.427 111.436L244.987 114.083Z" fill="#FF9500" stroke="black" stroke-linejoin="round"/>
<path fill-rule="evenodd" clip-rule="evenodd" d="M232.017 128.238C232.017 128.238 237.41 126.542 237.732 126.554L233.172 123.907C232.849 123.895 227.457 125.591 227.457 125.591L232.017 128.238Z" fill="#FF9500" stroke="black" stroke-linejoin="round"/>
<path fill-rule="evenodd" clip-rule="evenodd" d="M237.732 126.554C237.746 126.555 237.75 126.558 237.745 126.565L233.185 123.917C233.19 123.911 233.185 123.907 233.172 123.907L237.732 126.554Z" fill="#FF9500" stroke="black" stroke-linejoin="round"/>
<path fill-rule="evenodd" clip-rule="evenodd" d="M237.744 126.563C238.894 126.229 239.704 126.29 240.265 126.599L235.705 123.951C235.143 123.643 234.333 123.582 233.184 123.915L237.744 126.563Z" fill="#FF9500" stroke="black" stroke-linejoin="round"/>
<path fill-rule="evenodd" clip-rule="evenodd" d="M240.266 126.599C241.264 127.147 241.478 128.476 241.416 129.759L237.741 149.021L233.18 146.374L236.856 127.111C236.917 125.829 236.704 124.499 235.706 123.952L240.266 126.599Z" fill="#FF9500" stroke="black" stroke-linejoin="round"/>
<path fill-rule="evenodd" clip-rule="evenodd" d="M237.741 149.022C237.96 148.959 238.242 148.89 238.562 148.847L234.001 146.2C233.682 146.242 233.399 146.311 233.18 146.375L237.741 149.022Z" fill="#FF9500" stroke="black" stroke-linejoin="round"/>
<path fill-rule="evenodd" clip-rule="evenodd" d="M238.562 148.847L237.728 149.094L232.574 176.081C232.182 177.431 231.192 179.695 228.958 180.351C229.04 180.436 223.23 182.019 223.23 182.019L218.669 179.372C218.669 179.372 224.479 177.788 224.397 177.704C226.632 177.047 227.621 174.784 228.014 173.434L233.167 146.446L234.002 146.2L238.562 148.847Z" fill="#FF9500" stroke="black" stroke-linejoin="round"/>
<path fill-rule="evenodd" clip-rule="evenodd" d="M223.229 182.018L219.316 194.762L214.756 192.115L218.669 179.371L223.229 182.018Z" fill="#FF9500" stroke="black" stroke-linejoin="round"/>
<path fill-rule="evenodd" clip-rule="evenodd" d="M219.316 194.764L229.577 191.777C230.679 191.459 231.769 191.156 232.848 190.857L232.849 190.857C233.636 190.639 234.416 190.422 235.191 190.202L230.631 187.555C229.856 187.774 229.075 187.991 228.288 188.209L228.287 188.21C227.209 188.509 226.119 188.812 225.017 189.13L214.756 192.116L219.316 194.764Z" fill="#FF9500" stroke="black" stroke-linejoin="round"/>
<path fill-rule="evenodd" clip-rule="evenodd" d="M235.192 190.202L231.931 207.301L227.37 204.654L230.631 187.555L235.192 190.202Z" fill="#FF9500" stroke="black" stroke-linejoin="round"/>
<path fill-rule="evenodd" clip-rule="evenodd" d="M231.931 207.302L239.807 205.007L243.036 188.095C245.188 187.518 247.277 186.93 249.32 186.337L244.76 183.69C242.717 184.283 240.628 184.871 238.475 185.448L235.246 202.359L227.37 204.655L231.931 207.302Z" fill="#FF9500" stroke="black" stroke-linejoin="round"/>
<path fill-rule="evenodd" clip-rule="evenodd" d="M249.32 186.337L246.1 203.18L241.54 200.533L244.76 183.69L249.32 186.337Z" fill="#FF9500" stroke="black" stroke-linejoin="round"/>
<path fill-rule="evenodd" clip-rule="evenodd" d="M246.1 203.178L253.981 200.88L257.242 183.812C270.686 178.962 280.792 171.904 285.047 155.319C287.516 145.704 286.342 140.694 282.851 138.58L278.291 135.933C281.782 138.047 282.956 143.057 280.487 152.671C276.232 169.257 266.126 176.315 252.681 181.165L249.42 198.233L241.54 200.531L246.1 203.178Z" fill="#FF9500" stroke="black" stroke-linejoin="round"/>
<path fill-rule="evenodd" clip-rule="evenodd" d="M282.851 138.583C281.494 137.761 279.785 137.376 277.805 137.33L273.244 134.682C275.225 134.729 276.933 135.113 278.291 135.935L282.851 138.583Z" fill="#FF9500" stroke="black" stroke-linejoin="round"/>
<path fill-rule="evenodd" clip-rule="evenodd" d="M277.805 137.328C282.958 132.96 286.835 126.776 287.87 118.047C288.557 112.321 287.237 108.943 284.577 107.176L280.016 104.529C282.676 106.296 283.997 109.674 283.309 115.4C282.274 124.128 278.398 130.313 273.244 134.681L277.805 137.328Z" fill="#FF9500" stroke="black" stroke-linejoin="round"/>
<path fill-rule="evenodd" clip-rule="evenodd" d="M245.588 175.595L249.921 152.933C250.46 152.777 251.118 152.566 251.864 152.328L251.865 152.327C256.125 150.966 263.238 148.692 267.206 150.373L262.646 147.726C258.677 146.044 251.564 148.318 247.304 149.68L247.304 149.68C246.558 149.919 245.899 150.129 245.36 150.286L241.028 172.947L245.588 175.595Z" fill="#FF9500" stroke="black" stroke-linejoin="round"/>
<path fill-rule="evenodd" clip-rule="evenodd" d="M267.206 150.375C269.438 151.32 270.676 153.517 269.85 157.832C267.62 169.555 253.563 173.405 247.128 175.167H247.127C246.548 175.325 246.03 175.467 245.588 175.596L241.028 172.949C241.47 172.82 241.987 172.678 242.567 172.519H242.567C249.002 170.757 263.06 166.908 265.29 155.185C266.115 150.87 264.878 148.673 262.646 147.727L267.206 150.375Z" fill="#FF9500" stroke="black" stroke-linejoin="round"/>
<path fill-rule="evenodd" clip-rule="evenodd" d="M270.794 120.4C267.699 118.186 261.235 120.278 257.46 121.5C256.834 121.703 256.282 121.881 255.832 122.012L251.91 142.556L247.349 139.908L251.271 119.365C251.722 119.234 252.274 119.055 252.9 118.853C256.675 117.631 263.138 115.539 266.234 117.753L270.794 120.4Z" fill="#FF9500" stroke="black" stroke-linejoin="round"/>
<path fill-rule="evenodd" clip-rule="evenodd" d="M251.91 142.557C252.281 142.449 252.718 142.331 253.206 142.199C258.568 140.748 270.26 137.585 272.295 126.927C272.962 123.439 272.251 121.443 270.794 120.401L266.234 117.754C267.69 118.796 268.401 120.791 267.735 124.28C265.699 134.938 254.008 138.101 248.646 139.552C248.157 139.684 247.721 139.802 247.349 139.91L251.91 142.557Z" fill="#FF9500" stroke="black" stroke-linejoin="round"/>
<path fill-rule="evenodd" clip-rule="evenodd" d="M287.87 118.001C289.302 106.081 282.019 104.361 272.068 106.178L275.297 89.2775L267.416 91.5915L264.269 108.047C262.242 108.637 260.162 109.298 258.086 109.958L258.086 109.959L257.953 110.001L261.123 93.4364L253.242 95.7451L250.013 112.64L249.669 112.749C248.072 113.255 246.502 113.754 244.978 114.196L244.988 114.143L234.115 117.327L232.017 128.311C232.017 128.311 237.869 126.459 237.745 126.626C240.938 125.693 241.512 127.807 241.417 129.809L237.741 149.059C237.96 148.995 238.243 148.926 238.562 148.882L237.727 149.13L232.574 176.1C232.182 177.449 231.192 179.713 228.957 180.374C229.039 180.458 223.229 182.053 223.229 182.053L219.316 194.793L229.578 191.786C230.68 191.465 231.77 191.16 232.848 190.859C233.635 190.639 234.416 190.421 235.192 190.199L231.931 207.287L239.807 204.976L243.036 188.075C245.188 187.494 247.277 186.902 249.32 186.305L246.1 203.136L253.981 200.822L257.242 183.766C270.686 178.889 280.792 171.815 285.047 155.238C288.477 141.891 284.878 137.434 277.805 137.284C282.958 132.908 286.835 126.722 287.87 118.001ZM269.85 157.806C267.62 169.516 253.562 173.393 247.127 175.167C246.548 175.327 246.03 175.47 245.588 175.6L249.92 152.963C250.459 152.806 251.118 152.594 251.864 152.354C258.52 150.214 272.142 145.834 269.85 157.806ZM253.207 142.198C258.569 140.737 270.26 137.551 272.296 126.904C274.378 116.014 263.012 119.714 257.461 121.521C256.835 121.725 256.283 121.905 255.832 122.037L251.91 142.559C252.282 142.45 252.718 142.331 253.207 142.198Z" fill="#FFE2C8"/>
<path d="M272.068 106.178L271.648 106.301L271.553 106.801L271.927 106.732L272.068 106.178ZM287.87 118.001L287.442 118.175L287.442 118.176L287.87 118.001ZM275.297 89.2775L275.716 89.1545L275.821 88.6085L275.401 88.7318L275.297 89.2775ZM267.416 91.5915L267.52 91.0458L267.101 91.169L266.997 91.7145L267.416 91.5915ZM264.269 108.047L264.164 108.593L264.585 108.471L264.689 107.924L264.269 108.047ZM258.086 109.958L257.988 110.502L257.99 110.502L258.086 109.958ZM258.086 109.959L258.183 109.415L258.181 109.415L258.086 109.959ZM257.953 110.001L257.533 110.123L257.427 110.681L257.857 110.544L257.953 110.001ZM261.123 93.4364L261.542 93.3136L261.647 92.7676L261.227 92.8906L261.123 93.4364ZM253.242 95.7451L253.346 95.1993L252.927 95.3223L252.822 95.8681L253.242 95.7451ZM250.013 112.64L249.917 113.183L250.331 113.052L250.433 112.517L250.013 112.64ZM249.669 112.749L249.765 112.206L249.765 112.206L249.669 112.749ZM244.978 114.196L244.556 114.333L244.465 114.861L244.873 114.742L244.978 114.196ZM244.988 114.143L245.41 114.006L245.501 113.478L245.092 113.598L244.988 114.143ZM234.115 117.327L234.22 116.781L233.8 116.904L233.696 117.45L234.115 117.327ZM232.017 128.311L231.598 128.434L231.492 128.99L231.921 128.854L232.017 128.311ZM237.745 126.626L237.505 126.351L236.695 127.449L237.641 127.172L237.745 126.626ZM241.417 129.809L241.836 129.686L241.846 129.635L241.848 129.587L241.417 129.809ZM237.741 149.059L237.321 149.182L237.217 149.727L237.636 149.605L237.741 149.059ZM238.562 148.882L238.459 149.428L238.717 148.326L238.562 148.882ZM237.727 149.13L237.83 148.585L237.412 148.709L237.308 149.253L237.727 149.13ZM232.574 176.1L232.975 176.054L232.986 176.015L232.993 175.977L232.574 176.1ZM228.957 180.374L229.061 179.828L227.922 180.165L228.606 180.869L228.957 180.374ZM223.229 182.053L223.34 181.506L222.98 181.605L222.832 182.085L223.229 182.053ZM219.316 194.793L218.919 194.825L218.717 195.484L219.212 195.339L219.316 194.793ZM229.578 191.786L229.683 191.24L229.682 191.24L229.578 191.786ZM232.848 190.859L232.739 191.406L232.739 191.406L232.848 190.859ZM235.192 190.199L235.611 190.076L235.715 189.533L235.298 189.652L235.192 190.199ZM231.931 207.287L231.511 207.41L231.407 207.956L231.827 207.833L231.931 207.287ZM239.807 204.976L239.703 205.521L240.122 205.398L240.226 204.853L239.807 204.976ZM243.036 188.075L243.148 187.527L242.722 187.642L242.616 188.198L243.036 188.075ZM249.32 186.305L249.74 186.182L249.844 185.636L249.425 185.759L249.32 186.305ZM246.1 203.136L245.681 203.259L245.576 203.805L245.996 203.682L246.1 203.136ZM253.981 200.822L253.877 201.368L254.296 201.245L254.401 200.699L253.981 200.822ZM257.242 183.766L257.322 183.228L256.921 183.373L256.822 183.889L257.242 183.766ZM285.047 155.238L284.639 155.31L284.639 155.31L285.047 155.238ZM277.805 137.284L277.707 136.853L276.567 137.821L277.605 137.843L277.805 137.284ZM247.127 175.167L247.017 175.715L247.017 175.715L247.127 175.167ZM269.85 157.806L269.43 157.929L269.43 157.93L269.85 157.806ZM245.588 175.6L245.168 175.723L245.064 176.269L245.484 176.146L245.588 175.6ZM249.92 152.963L250.025 152.417L249.605 152.54L249.501 153.086L249.92 152.963ZM251.864 152.354L251.959 151.811L251.959 151.811L251.864 152.354ZM272.296 126.904L271.876 127.027L271.876 127.027L272.296 126.904ZM253.207 142.198L253.096 142.746L253.096 142.746L253.207 142.198ZM257.461 121.521L257.367 122.064L257.367 122.064L257.461 121.521ZM255.832 122.037L255.937 121.491L255.517 121.614L255.413 122.16L255.832 122.037ZM251.91 142.559L251.491 142.682L251.386 143.228L251.806 143.105L251.91 142.559ZM272.068 106.178L271.927 106.732C276.881 105.828 281.115 105.817 283.93 107.468C286.725 109.108 288.137 112.391 287.442 118.175L287.87 118.001L288.298 117.826C289.035 111.691 287.522 108.155 284.545 106.408C281.589 104.674 277.205 104.711 272.209 105.623L272.068 106.178ZM275.297 89.2775L274.877 89.4006L271.648 106.301L272.068 106.178L272.488 106.055L275.716 89.1545L275.297 89.2775ZM267.416 91.5915L267.312 92.1373L275.193 89.8233L275.297 89.2775L275.401 88.7318L267.52 91.0458L267.416 91.5915ZM264.269 108.047L264.689 107.924L267.836 91.4686L267.416 91.5915L266.997 91.7145L263.85 108.17L264.269 108.047ZM258.086 109.958L257.99 110.502C260.067 109.841 262.143 109.182 264.164 108.593L264.269 108.047L264.374 107.501C262.342 108.093 260.257 108.755 258.182 109.415L258.086 109.958ZM258.086 109.959L257.988 110.502L257.988 110.502L258.086 109.958L258.184 109.415L258.183 109.415L258.086 109.959ZM257.953 110.001L257.857 110.544L257.99 110.502L258.086 109.959L258.181 109.415L258.049 109.457L257.953 110.001ZM261.123 93.4364L260.703 93.5592L257.533 110.123L257.953 110.001L258.373 109.878L261.542 93.3136L261.123 93.4364ZM253.242 95.7451L253.138 96.2909L261.018 93.9822L261.123 93.4364L261.227 92.8906L253.346 95.1993L253.242 95.7451ZM250.013 112.64L250.433 112.517L253.662 95.6221L253.242 95.7451L252.822 95.8681L249.594 112.763L250.013 112.64ZM249.669 112.749L249.573 113.293L249.917 113.183L250.013 112.64L250.109 112.097L249.765 112.206L249.669 112.749ZM244.978 114.196L244.873 114.742C246.402 114.298 247.977 113.798 249.573 113.293L249.669 112.749L249.765 112.206C248.168 112.712 246.601 113.209 245.084 113.65L244.978 114.196ZM244.988 114.143L244.565 114.28L244.556 114.333L244.978 114.196L245.401 114.059L245.41 114.006L244.988 114.143ZM234.115 117.327L234.011 117.872L244.883 114.689L244.988 114.143L245.092 113.598L234.22 116.781L234.115 117.327ZM232.017 128.311L232.437 128.188L234.535 117.203L234.115 117.327L233.696 117.45L231.598 128.434L232.017 128.311ZM237.745 126.626L237.986 126.902C238.039 126.83 238.123 126.696 238.162 126.526C238.202 126.348 238.169 126.233 238.133 126.171C238.078 126.075 237.989 126.063 237.979 126.061C237.931 126.052 237.881 126.058 237.861 126.06C237.806 126.067 237.735 126.082 237.659 126.1C237.502 126.136 237.277 126.197 237.01 126.272C236.475 126.424 235.752 126.64 235.028 126.862C234.303 127.083 233.574 127.31 233.027 127.481C232.754 127.566 232.525 127.638 232.365 127.688C232.285 127.714 232.223 127.733 232.18 127.747C232.158 127.754 232.142 127.759 232.131 127.762C232.125 127.764 232.121 127.766 232.118 127.766C232.117 127.767 232.116 127.767 232.115 127.767C232.114 127.768 232.114 127.768 232.114 127.768C232.114 127.768 232.114 127.768 232.114 127.768C232.114 127.768 232.114 127.768 232.017 128.311C231.921 128.854 231.921 128.854 231.921 128.854C231.921 128.854 231.921 128.854 231.921 128.854C231.922 128.854 231.922 128.854 231.922 128.854C231.923 128.854 231.924 128.854 231.925 128.853C231.928 128.852 231.932 128.851 231.938 128.849C231.949 128.846 231.965 128.841 231.987 128.834C232.029 128.82 232.092 128.801 232.172 128.775C232.331 128.725 232.559 128.654 232.832 128.568C233.378 128.397 234.105 128.171 234.828 127.951C235.551 127.73 236.267 127.515 236.795 127.366C237.059 127.291 237.271 127.234 237.411 127.202C237.483 127.185 237.524 127.177 237.542 127.175C237.558 127.173 237.534 127.178 237.501 127.172C237.499 127.171 237.414 127.162 237.36 127.068C237.326 127.009 237.293 126.896 237.333 126.72C237.371 126.552 237.454 126.42 237.505 126.351L237.745 126.626ZM241.417 129.809L241.848 129.587C241.899 128.522 241.775 127.38 241.18 126.638C240.579 125.888 239.533 125.589 237.85 126.08L237.745 126.626L237.641 127.172C239.151 126.731 239.988 127.022 240.449 127.597C240.915 128.178 241.03 129.095 240.985 130.032L241.417 129.809ZM237.741 149.059L238.161 148.936L241.836 129.686L241.417 129.809L240.997 129.933L237.321 149.182L237.741 149.059ZM238.562 148.882L238.717 148.326C238.378 148.371 238.078 148.445 237.845 148.513L237.741 149.059L237.636 149.605C237.841 149.545 238.107 149.48 238.406 149.439L238.562 148.882ZM237.727 149.13L237.624 149.676L238.459 149.428L238.562 148.882L238.665 148.337L237.83 148.585L237.727 149.13ZM232.574 176.1L232.993 175.977L238.147 149.007L237.727 149.13L237.308 149.253L232.154 176.223L232.574 176.1ZM228.957 180.374L228.854 180.919C230.086 180.555 231.024 179.726 231.71 178.752C232.378 177.805 232.763 176.783 232.975 176.054L232.574 176.1L232.173 176.145C231.993 176.766 231.687 177.55 231.203 178.238C230.737 178.898 230.063 179.532 229.061 179.828L228.957 180.374ZM223.229 182.053C223.119 182.601 223.119 182.601 223.119 182.601C223.119 182.601 223.119 182.601 223.119 182.601C223.119 182.601 223.119 182.601 223.12 182.601C223.121 182.6 223.122 182.6 223.123 182.6C223.126 182.599 223.13 182.598 223.135 182.596C223.147 182.593 223.163 182.589 223.184 182.583C223.227 182.571 223.289 182.554 223.369 182.532C223.528 182.488 223.754 182.426 224.026 182.35C224.57 182.199 225.295 181.997 226.017 181.792C226.738 181.587 227.459 181.379 227.996 181.217C228.263 181.136 228.489 181.065 228.648 181.011C228.724 180.984 228.796 180.958 228.85 180.935C228.871 180.926 228.919 180.905 228.97 180.872C228.986 180.863 229.011 180.846 229.041 180.821C229.065 180.801 229.125 180.751 229.19 180.665C229.262 180.57 229.37 180.388 229.388 180.178C229.404 179.994 229.338 179.908 229.308 179.878L228.957 180.374L228.606 180.869C228.578 180.841 228.512 180.757 228.528 180.574C228.546 180.366 228.653 180.186 228.724 180.093C228.787 180.009 228.845 179.96 228.867 179.943C228.894 179.921 228.915 179.907 228.926 179.9C228.96 179.878 228.98 179.871 228.963 179.878C228.941 179.887 228.896 179.904 228.822 179.93C228.678 179.979 228.464 180.047 228.198 180.127C227.668 180.287 226.952 180.494 226.232 180.699C225.511 180.903 224.788 181.105 224.245 181.255C223.974 181.331 223.748 181.393 223.589 181.437C223.51 181.459 223.447 181.476 223.405 181.488C223.384 181.494 223.367 181.498 223.357 181.501C223.351 181.503 223.347 181.504 223.344 181.505C223.343 181.505 223.342 181.505 223.341 181.505C223.341 181.506 223.34 181.506 223.34 181.506C223.34 181.506 223.34 181.506 223.34 181.506C223.34 181.506 223.34 181.506 223.229 182.053ZM219.316 194.793L219.713 194.761L223.626 182.021L223.229 182.053L222.832 182.085L218.919 194.825L219.316 194.793ZM229.578 191.786L229.682 191.24L219.421 194.247L219.316 194.793L219.212 195.339L229.473 192.331L229.578 191.786ZM232.848 190.859L232.957 190.312C231.879 190.613 230.787 190.918 229.683 191.24L229.578 191.786L229.473 192.332C230.572 192.012 231.66 191.708 232.739 191.406L232.848 190.859ZM235.192 190.199L235.298 189.652C234.524 189.874 233.744 190.092 232.957 190.312L232.848 190.859L232.739 191.406C233.526 191.186 234.308 190.967 235.085 190.745L235.192 190.199ZM231.931 207.287L232.35 207.164L235.611 190.076L235.192 190.199L234.772 190.322L231.511 207.41L231.931 207.287ZM239.807 204.976L239.911 204.43L232.035 206.741L231.931 207.287L231.827 207.833L239.703 205.521L239.807 204.976ZM243.036 188.075L242.616 188.198L239.387 205.099L239.807 204.976L240.226 204.853L243.455 187.952L243.036 188.075ZM249.32 186.305L249.425 185.759C247.384 186.355 245.297 186.947 243.148 187.527L243.036 188.075L242.924 188.623C245.079 188.041 247.17 187.448 249.215 186.85L249.32 186.305ZM246.1 203.136L246.52 203.013L249.74 186.182L249.32 186.305L248.9 186.427L245.681 203.259L246.1 203.136ZM253.981 200.822L254.085 200.276L246.204 202.59L246.1 203.136L245.996 203.682L253.877 201.368L253.981 200.822ZM257.242 183.766L256.822 183.889L253.561 200.945L253.981 200.822L254.401 200.699L257.661 183.643L257.242 183.766ZM285.047 155.238L284.639 155.31C282.552 163.442 279.057 169.172 274.462 173.486C269.829 177.838 264.029 180.795 257.322 183.228L257.242 183.766L257.162 184.304C263.899 181.86 269.874 178.842 274.719 174.293C279.602 169.707 283.288 163.611 285.455 155.166L285.047 155.238ZM277.805 137.284L277.605 137.843C281.093 137.917 283.667 139.052 284.968 141.742C286.267 144.427 286.33 148.73 284.639 155.31L285.047 155.238L285.455 155.166C287.194 148.4 287.172 143.8 285.761 140.882C284.352 137.969 281.591 136.8 278.005 136.724L277.805 137.284ZM287.87 118.001L287.442 118.176C286.935 122.451 285.737 126.061 284.065 129.116C282.393 132.171 280.218 134.722 277.707 136.853L277.805 137.284L277.903 137.714C280.545 135.47 282.886 132.74 284.699 129.428C286.512 126.115 287.77 122.271 288.298 117.825L287.87 118.001ZM247.127 175.167L247.017 175.715C250.225 174.83 255.402 173.405 260.064 170.713C262.397 169.366 264.643 167.679 266.462 165.539C268.299 163.377 269.681 160.775 270.27 157.683L269.85 157.806L269.43 157.93C268.904 160.692 267.692 162.966 266.066 164.88C264.421 166.815 262.332 168.404 260.067 169.712C255.534 172.329 250.465 173.73 247.238 174.62L247.127 175.167ZM245.588 175.6L245.484 176.146C245.922 176.017 246.436 175.875 247.017 175.715L247.127 175.167L247.238 174.62C246.659 174.779 246.137 174.923 245.692 175.054L245.588 175.6ZM249.92 152.963L249.501 153.086L245.168 175.723L245.588 175.6L246.008 175.477L250.34 152.84L249.92 152.963ZM251.864 152.354L251.959 151.811C251.211 152.052 250.558 152.262 250.025 152.417L249.92 152.963L249.816 153.509C250.361 153.35 251.025 153.136 251.77 152.897L251.864 152.354ZM269.85 157.806L270.269 157.683C270.872 154.537 270.429 152.435 269.304 151.117C268.189 149.813 266.423 149.297 264.416 149.228C260.404 149.092 255.275 150.745 251.959 151.811L251.864 152.354L251.77 152.897C255.109 151.823 260.119 150.215 264.01 150.347C265.953 150.413 267.579 150.913 268.582 152.087C269.574 153.249 269.974 155.089 269.43 157.929L269.85 157.806ZM272.296 126.904L271.876 127.027C271.396 129.541 270.357 131.58 268.994 133.27C267.616 134.981 265.877 136.368 263.991 137.5C260.214 139.768 256.01 140.917 253.318 141.65L253.207 142.198L253.096 142.746C255.766 142.018 260.088 140.844 264.006 138.492C265.968 137.314 267.869 135.817 269.423 133.89C270.992 131.943 272.178 129.591 272.715 126.781L272.296 126.904ZM257.461 121.521L257.367 122.064C260.155 121.156 264.32 119.804 267.53 120.01C269.132 120.113 270.46 120.603 271.266 121.687C272.064 122.76 272.37 124.442 271.876 127.027L272.296 126.904L272.715 126.781C273.262 123.921 272.929 121.982 272.008 120.742C271.095 119.514 269.625 119 267.951 118.892C264.611 118.678 260.317 120.079 257.554 120.979L257.461 121.521ZM255.832 122.037L255.728 122.583C256.185 122.449 256.744 122.267 257.367 122.064L257.461 121.521L257.554 120.979C256.926 121.184 256.38 121.361 255.937 121.491L255.832 122.037ZM251.91 142.559L252.33 142.436L256.252 121.914L255.832 122.037L255.413 122.16L251.491 142.682L251.91 142.559ZM253.207 142.198L253.318 141.65C252.83 141.783 252.39 141.903 252.015 142.013L251.91 142.559L251.806 143.105C252.173 142.997 252.606 142.88 253.096 142.746L253.207 142.198Z" fill="black"/>
</g>
<defs>
<clipPath id="clip0_18089_7208">
<rect width="360" height="288" fill="white"/>
</clipPath>
</defs>
</svg>
