<svg width="360" height="288" viewBox="0 0 360 288" fill="none" xmlns="http://www.w3.org/2000/svg">
<ellipse cx="186.662" cy="257.539" rx="126.431" ry="23.9607" fill="#1C1C1C"/>
<path d="M301.283 210.303L297.031 207.492C298.621 192.673 294.718 175.376 284.6 156.779C253.572 99.7869 175.841 52.2345 110.978 50.5865C89.8197 50.0471 72.6471 54.4627 60.1853 62.628L55.7845 60.0574L44.3569 78.6836L44.3867 78.7008C33.2996 96.8402 34.2047 122.299 49.7148 150.794C80.7423 207.786 158.474 255.338 223.337 256.986C255.77 257.816 278.841 247.012 289.924 228.88L289.961 228.901L301.283 210.303Z" fill="#FF9500" stroke="#231F20" stroke-linejoin="round"/>
<path d="M295.959 138.139C327 195.141 299.579 240.009 234.693 238.35C169.819 236.687 92.0596 189.128 61.0185 132.127C29.9775 75.1247 57.4061 30.2603 122.284 31.9157C187.158 33.5785 264.918 81.1371 295.959 138.139Z" fill="#FFE2C8" stroke="#231F20" stroke-linejoin="round"/>
<path d="M283.861 137.013C312.206 186.947 288.693 225.428 231.33 222.942C173.967 220.457 104.492 177.965 76.1394 128.027C47.7939 78.0935 71.3077 39.6125 128.671 42.0979C186.034 44.5832 255.508 87.0757 283.861 137.013Z" fill="#FF9500" stroke="#231F20" stroke-linejoin="round"/>
<path d="M281.434 141.115C310.351 190.127 287.751 227.095 230.966 223.676C174.177 220.264 104.697 177.763 75.78 128.75C46.8628 79.738 69.4631 42.7706 126.248 46.1897C183.037 49.6013 252.517 92.1024 281.434 141.115Z" fill="#F8B04A" stroke="#231F20" stroke-linejoin="round"/>
<path d="M219.466 178.484L209.622 167.961L209.608 167.953C220.303 167.523 228.182 165.849 230.729 160.933L233.242 156.816L233.214 155.981L231.531 155.819C231.332 153.957 230.693 151.814 229.567 149.363C224.315 137.906 215.341 132.707 204.452 130.523C206.041 129.585 207.197 128.387 207.768 126.861L209.833 123.695L207.982 122.563C207.562 120.546 206.494 118.201 204.654 115.456C197.481 104.755 185.04 101.048 171.318 99.8759L163.793 86.4881C163.397 85.7863 162.759 85.2817 162.014 85.0425L162.238 84.544L156.597 81.096L153.966 85.3998C153.683 85.8275 153.624 86.403 153.911 86.9147L160.913 99.3634C158.234 99.3356 155.523 99.3448 152.827 99.3618L146.183 87.5385L146.847 85.1742L138.04 80.7899L135.526 84.9065C135.503 84.9475 135.479 84.9884 135.459 85.0225C135.23 85.4358 135.198 85.9636 135.47 86.439L142.823 99.5268C140.639 99.5395 138.49 99.5544 136.382 99.5294L136.357 99.4784L134.377 99.4541L125.974 95.8038L123.449 99.941C123.449 99.941 123.43 99.9751 123.418 99.9956C123.201 100.371 123.169 100.853 123.412 101.284L126.788 107.282C127.363 108.305 128.445 108.939 129.629 108.94C131.833 108.939 135.16 108.95 135.124 109.029C139.247 109.08 141.783 111.218 143.211 113.052L166.06 153.673C166.411 154.531 166.648 155.777 165.538 156.328L159.954 153.569L157.684 157.28C157.328 157.738 157.199 158.373 157.431 158.98L159.763 165.194C160.239 166.452 161.433 167.286 162.771 167.304L173.807 167.434C176.274 167.467 178.722 167.534 181.122 167.573L188.654 180.964C189.216 181.962 190.256 182.59 191.395 182.62L197.24 182.783C197.797 182.795 198.248 182.519 198.509 182.114C198.521 182.094 198.536 182.067 198.548 182.046L201.022 177.998L192.507 167.887C194.926 167.955 197.28 167.995 199.561 168.02L207.104 181.455C207.667 182.453 208.714 183.084 209.853 183.114L215.705 183.263C216.287 183.281 216.761 182.964 217.013 182.527L219.487 178.478L219.466 178.484ZM159.034 109.969C164.785 110.041 181.946 108.632 187.925 119.271C193.652 129.464 174.916 128.063 169.166 127.991L159.034 109.969ZM185.454 156.946L174.284 137.078C181.192 137.164 201.86 135.659 208.434 147.351C214.743 158.554 192.359 157.021 185.454 156.946Z" fill="#FF9500" stroke="#231F20" stroke-linejoin="round"/>
<path d="M207.18 111.354C200.007 100.653 187.57 96.9392 173.848 95.7672L166.323 82.3794C165.787 81.4149 164.77 80.8097 163.666 80.7818L157.755 80.6257C156.622 80.5997 155.886 81.812 156.441 82.806L163.443 95.2547C160.763 95.2269 158.053 95.2361 155.357 95.2531L147.854 81.9056C147.318 80.9411 146.301 80.3359 145.197 80.308L139.292 80.1558C138.16 80.1297 137.423 81.3421 137.979 82.3361L145.331 95.4239C143.147 95.4366 140.998 95.4515 138.891 95.4265L138.866 95.3755L127.075 95.2277C126.062 95.2159 125.425 96.3037 125.92 97.181L129.297 103.179C129.871 104.202 130.954 104.836 132.137 104.837C134.342 104.836 137.669 104.847 137.632 104.926C141.755 104.977 144.292 107.115 145.719 108.949L168.568 149.57C169.033 150.721 169.302 152.541 166.421 152.515C166.53 152.578 163.817 152.531 161.64 152.484C160.38 152.457 159.493 153.71 159.935 154.884L162.267 161.098C162.737 162.352 163.937 163.19 165.275 163.208L176.311 163.338C178.778 163.371 181.226 163.437 183.626 163.477L191.158 176.868C191.72 177.866 192.76 178.494 193.9 178.524L199.744 178.687C200.883 178.717 201.613 177.5 201.057 176.506L193.893 163.755C196.721 163.841 199.431 163.895 202.076 163.921L209.619 177.356C210.182 178.354 211.229 178.985 212.368 179.015L218.22 179.164C219.352 179.19 220.089 177.978 219.533 176.984L212.149 163.841C228.796 163.181 238.635 159.5 232.106 145.269C226.854 133.812 217.88 128.613 206.992 126.429C211.403 123.836 212.457 119.186 207.191 111.351L207.18 111.354ZM210.953 143.245C217.258 154.455 194.878 152.915 187.973 152.84L176.803 132.972C183.711 133.058 204.379 131.553 210.953 143.245ZM190.448 115.158C196.175 125.352 177.439 123.951 171.689 123.879L161.557 105.856C167.308 105.929 184.469 104.519 190.448 115.158Z" fill="#FFE2C8" stroke="#231F20" stroke-linejoin="round"/>
</svg>
