<svg width="360" height="360" viewBox="0 0 360 360" fill="none" xmlns="http://www.w3.org/2000/svg">
<g clip-path="url(#clip0_18087_7587)">
<path d="M37.2629 171.561L167.915 103.432C174.696 99.8966 181.863 97.1583 189.275 95.2724L190.427 94.979C213.103 89.2089 237.106 91.9313 257.913 102.633C262.739 105.116 267.151 108.333 270.989 112.17L334.041 175.2C340.733 181.89 345.875 189.967 349.103 198.861L350.361 202.324C350.713 203.296 350.987 204.294 351.178 205.309C352.572 212.694 349.521 220.212 343.374 224.536L340.829 226.327C338.72 227.811 336.386 228.945 333.916 229.686L324.788 232.424C311.739 236.339 297.926 236.971 284.574 234.265L270.308 231.373L246.12 226.873L229.218 224.351C220.992 223.123 212.597 223.672 204.6 225.959C192.321 229.471 181.536 236.92 173.904 247.161L170.04 252.346C164.703 259.509 160.645 267.541 158.048 276.087L147.477 310.868L147.262 311.484C142.903 323.98 133.83 334.275 121.98 340.168C114.968 343.656 107.243 345.471 99.4109 345.471H96.1223C76.9865 345.471 58.6876 336.824 46.3992 322.155C42.7501 317.799 39.644 312.936 37.241 307.787L8.12782 245.401C-3.18178 219.389 6.86229 189.032 31.4548 174.899L37.2629 171.561Z" fill="black" stroke="black" stroke-width="0.44"/>
<path d="M43.099 103.638L180.292 32.584C186.971 29.1247 194.093 26.5968 201.458 25.0708C225.148 20.1628 249.797 25.9191 268.862 40.8114L270.337 41.9638C274.264 45.0314 277.681 48.7013 280.461 52.8374L330.654 127.525C341.646 143.883 348.562 162.635 350.821 182.212L350.857 182.522C351.636 193.113 346.637 203.299 337.782 209.161L330.318 214.102C320.518 220.59 308.556 222.952 297.027 220.677L283.091 217.927L233.367 207.525C223.22 204.176 212.139 205.186 202.764 210.314L174.188 225.947C166.458 230.176 160.094 236.522 155.843 244.241L139.455 281.318C137.647 285.408 136.652 289.81 136.527 294.279C136.157 307.407 128.357 319.183 116.415 324.646L112.978 326.218C106.056 329.384 98.382 330.537 90.8348 329.545L88.4243 329.228C74.4646 327.392 61.9696 319.638 54.1267 307.945L49.4817 301.02C46.5907 296.709 44.2071 292.08 42.378 287.223L7.21309 193.845L6.47069 190.965C-2.30381 156.934 12.6733 121.227 43.099 103.638Z" fill="#CCD9FD" stroke="black" stroke-width="0.44"/>
<path d="M59.1293 96.0306L192.108 24.2423C198.489 20.7976 205.324 18.27 212.411 16.7341C235.301 11.7733 259.205 17.4829 277.382 32.2527L279.294 33.8063C282.971 36.7941 286.153 40.3444 288.721 44.3258L343.435 129.14C350.089 139.455 354.25 151.177 355.59 163.378L356.187 168.818C356.647 173.011 356.481 177.248 355.694 181.392L355.582 181.981C353.294 194.027 345.763 204.429 335.034 210.365C326.444 215.118 316.44 216.649 306.822 214.685L290.829 211.418L242.719 200.996C232.93 197.644 222.176 198.636 213.166 203.723L186.134 218.984C178.469 223.312 172.205 229.745 168.084 237.523L149.526 281.126L141.771 301.649C140.917 303.911 139.835 306.08 138.543 308.125C130.662 320.598 115.941 326.965 101.454 324.168L98.4307 323.584C87.6131 321.495 78.1203 315.073 72.1562 305.81L65.2017 295.008C62.332 290.551 59.9749 285.783 58.1753 280.797L24.2995 186.928L23.2211 182.557C14.933 148.962 29.4896 113.886 59.1293 96.0306Z" fill="#E8EDFA" stroke="black" stroke-width="0.44"/>
<path d="M67.0895 97.4148L196.462 28.3983C202.697 25.0725 209.365 22.635 216.275 21.1567C238.565 16.3879 261.817 21.9064 279.587 36.1824L281.311 37.5682C284.925 40.4713 288.057 43.9277 290.59 47.8093L343.867 129.433C350.315 139.312 354.355 150.566 355.66 162.291L356.255 167.627C356.698 171.608 356.54 175.632 355.785 179.565L355.265 182.278C353.298 192.53 346.756 201.323 337.5 206.152C330.556 209.775 322.58 210.905 314.903 209.352L296.694 205.67L249.865 195.626C240.336 192.398 229.882 193.395 221.136 198.367L190.623 215.714C183.239 219.911 177.193 226.111 173.182 233.598L155.133 275.549L147.61 295.246C146.766 297.454 145.7 299.571 144.427 301.563C136.765 313.555 122.569 319.668 108.591 316.995L105.439 316.393C94.889 314.375 85.6149 308.15 79.7522 299.15L73.0999 288.938C70.2803 284.61 67.962 279.975 66.1894 275.123L33.2173 184.869L32.2662 181.063C24.1429 148.551 38.2944 114.558 67.0895 97.4148Z" fill="white" stroke="black" stroke-width="0.44"/>
<path d="M75.084 116.593C101.823 103.206 136.547 118.27 152.61 150.354C168.674 182.437 159.932 219.266 133.193 232.654C106.454 246.041 71.7297 230.976 55.666 198.892C39.6026 166.808 48.3452 129.981 75.084 116.593Z" fill="#CCD9FD" stroke="black" stroke-width="0.44"/>
<path d="M78.2619 204.984C75.4463 199.987 69.3393 189.173 66.1846 183.765C65.2292 182.128 65.8029 179.543 67.3957 178.515L82.6039 168.698C83.9339 167.84 84.3176 166.066 83.4614 164.735L69.9823 143.772C69.1116 142.418 69.5247 140.613 70.8975 139.772L89.0539 128.653C90.3917 127.834 92.1394 128.241 92.9781 129.566L105.895 149.983C106.757 151.346 108.57 151.735 109.928 150.865C114.924 147.665 122.121 143.322 125.844 141.091C127.195 140.281 128.936 140.714 129.747 142.065C132.582 146.791 138.878 157.386 142.688 164.559C143.344 165.794 142.982 167.312 141.858 168.145L126.297 179.692C125.129 180.559 124.794 182.162 125.517 183.424L137.091 203.608C137.862 204.954 137.427 206.668 136.106 207.481C128.384 212.237 116.38 219.676 115.986 220.118C115.588 220.564 107.589 206.115 102.545 196.825C101.763 195.385 99.9414 194.885 98.5465 195.746C93.374 198.936 86.1136 203.558 82.3075 205.99C80.9162 206.879 79.0724 206.422 78.2619 204.984Z" fill="#00125C" stroke="black" stroke-width="0.44"/>
<path d="M81.613 202.463C78.7975 197.467 72.6904 186.652 69.5357 181.245C68.5804 179.607 69.154 177.023 70.7468 175.995L85.955 166.177C87.285 165.319 87.6687 163.546 86.8125 162.214L73.3334 141.251C72.4628 139.897 72.8758 138.092 74.2486 137.251L92.405 126.133C93.7428 125.313 95.4906 125.72 96.3293 127.046L109.246 147.463C110.108 148.826 111.921 149.214 113.279 148.344C118.275 145.144 125.472 140.802 129.195 138.57C130.546 137.761 132.288 138.194 133.098 139.544C135.933 144.271 142.229 154.865 146.039 162.038C146.695 163.273 146.333 164.791 145.209 165.625L129.648 177.171C128.48 178.038 128.145 179.642 128.868 180.904L140.442 201.087C141.214 202.433 140.778 204.147 139.457 204.96C131.735 209.716 119.732 217.155 119.337 217.598C118.939 218.043 110.94 203.594 105.896 194.305C105.114 192.864 103.293 192.365 101.898 193.225C96.7251 196.416 89.4647 201.037 85.6586 203.469C84.2673 204.358 82.4236 203.902 81.613 202.463Z" fill="#4169E1" stroke="black" stroke-width="0.44"/>
<path d="M214.534 39.0925C241.273 25.7053 275.997 40.7704 292.061 72.8538C308.124 104.937 299.382 141.765 272.643 155.153C245.904 168.541 211.18 153.476 195.116 121.392C179.052 89.3084 187.795 52.4801 214.534 39.0925Z" fill="#CCD9FD" stroke="black" stroke-width="0.44"/>
<path d="M199.153 93.8812L217.186 52.5115C220.288 45.6192 231.961 40.0822 242.938 46.839C253.915 53.5958 252.832 67.2533 250.919 73.2375L233.499 113.461C232.223 117.497 221.387 130.486 207.666 122.04C195.317 114.438 196.845 100.1 199.153 93.8812Z" fill="#E8EDFA" stroke="black" stroke-width="0.44"/>
<path d="M216.85 85.8605C217.236 85.892 217.615 85.9476 217.985 86.0218L225.255 109.445L227.25 118.501C227.016 118.618 226.773 118.73 226.52 118.834L220.662 120.585C213.725 122.169 205.928 117.533 202.577 109.364C198.916 100.439 201.994 90.7982 209.344 87.772L216.85 85.8605ZM218.481 86.135C223.364 87.3797 226.856 92.2899 229.354 98.3809C231.197 102.874 232.317 107.253 232.056 110.878C231.925 112.687 231.452 114.301 230.559 115.648C229.864 116.696 228.91 117.587 227.654 118.288L225.685 109.351L225.683 109.341L225.681 109.332L218.481 86.135Z" fill="#693000" stroke="black" stroke-width="0.44"/>
<path d="M213.83 86.4939C221.191 83.475 230.161 88.1776 233.825 97.1092C237.489 106.041 234.404 115.688 227.044 118.708C219.683 121.727 210.711 117.025 207.048 108.093C203.384 99.161 206.469 89.5133 213.83 86.4939Z" fill="#FF9500" stroke="black" stroke-width="0.44"/>
<path d="M234.269 45.6364C234.656 45.6679 235.034 45.7235 235.405 45.7977L242.675 69.2207L244.67 78.2767C244.436 78.3937 244.193 78.5059 243.939 78.6103L238.081 80.3608C231.144 81.9453 223.347 77.3091 219.996 69.1404C216.335 60.2146 219.413 50.5741 226.763 47.5478L234.269 45.6364ZM235.901 45.9108C240.783 47.1556 244.275 52.0658 246.774 58.1568C248.617 62.6496 249.737 67.0293 249.475 70.6543C249.345 72.4634 248.871 74.0771 247.978 75.424C247.284 76.4714 246.329 77.3631 245.073 78.0637L243.105 69.1266L243.103 69.1169L243.1 69.1084L235.901 45.9108Z" fill="#693000" stroke="black" stroke-width="0.44"/>
<path d="M231.249 46.2701C238.61 43.2511 247.58 47.9537 251.244 56.8853C254.907 65.817 251.823 75.4642 244.462 78.4837C237.101 81.5031 228.13 76.8007 224.467 67.8689C220.803 58.9371 223.888 49.2894 231.249 46.2701Z" fill="#FF9500" stroke="black" stroke-width="0.44"/>
<path d="M240.342 118.307L258.375 76.9369C261.477 70.0447 273.15 64.5077 284.127 71.2645C295.104 78.0212 294.021 91.6788 292.108 97.6629L274.689 137.887C273.412 141.922 262.576 154.911 248.855 146.465C236.506 138.864 238.034 124.526 240.342 118.307Z" fill="#E8EDFA" stroke="black" stroke-width="0.44"/>
<path d="M258.039 110.286C258.426 110.317 258.804 110.373 259.174 110.447L266.444 133.87L268.439 142.926C268.205 143.043 267.962 143.155 267.709 143.26L261.851 145.01C254.914 146.595 247.117 141.959 243.766 133.79C240.105 124.864 243.183 115.224 250.533 112.197L258.039 110.286ZM259.671 110.56C264.553 111.805 268.045 116.715 270.543 122.806C272.386 127.299 273.506 131.679 273.245 135.304C273.115 137.113 272.641 138.727 271.748 140.073C271.053 141.121 270.099 142.013 268.843 142.713L266.874 133.776L266.872 133.766L266.87 133.758L259.671 110.56Z" fill="#693000" stroke="black" stroke-width="0.44"/>
<path d="M255.019 110.919C262.38 107.9 271.35 112.603 275.014 121.535C278.678 130.466 275.593 140.114 268.233 143.133C260.872 146.153 251.901 141.45 248.237 132.518C244.573 123.587 247.658 113.939 255.019 110.919Z" fill="#FF9500" stroke="black" stroke-width="0.44"/>
<path d="M275.458 70.0624C275.845 70.0939 276.223 70.1494 276.594 70.2236L283.864 93.6467L285.859 102.703C285.625 102.82 285.382 102.932 285.128 103.036L279.27 104.787C272.333 106.371 264.536 101.735 261.185 93.5663C257.524 84.6406 260.602 75.0001 267.952 71.9738L275.458 70.0624ZM277.09 70.3368C281.972 71.5816 285.464 76.4918 287.963 82.5827C289.806 87.0756 290.926 91.4552 290.664 95.0802C290.534 96.8893 290.06 98.5031 289.167 99.85C288.473 100.897 287.519 101.789 286.262 102.49L284.294 93.5526L284.292 93.5428L284.289 93.5343L277.09 70.3368Z" fill="#693000" stroke="black" stroke-width="0.44"/>
<path d="M272.439 70.696C279.799 67.677 288.77 72.3797 292.434 81.3112C296.097 90.2429 293.013 99.8901 285.652 102.91C278.291 105.929 269.32 101.227 265.656 92.2949C261.993 83.3631 265.078 73.7154 272.439 70.696Z" fill="#FF9500" stroke="black" stroke-width="0.44"/>
<path d="M186.755 172.864L177.895 178.363C176.787 179.051 175.332 178.735 174.609 177.65C173.851 176.513 174.185 174.975 175.345 174.255L184.205 168.756C185.313 168.068 186.768 168.383 187.491 169.469C188.249 170.605 187.915 172.143 186.755 172.864Z" fill="#FF9500"/>
<path d="M205.539 161.683L196.68 167.182C195.571 167.87 194.117 167.554 193.393 166.469C192.635 165.332 192.969 163.794 194.13 163.074L202.989 157.575C204.098 156.887 205.552 157.202 206.276 158.288C207.033 159.424 206.7 160.962 205.539 161.683Z" fill="#FF9500"/>
<path d="M186.755 172.864L177.895 178.363C176.787 179.051 175.332 178.735 174.609 177.65C173.851 176.513 174.185 174.975 175.345 174.255L184.205 168.756C185.313 168.068 186.768 168.383 187.491 169.469C188.249 170.605 187.915 172.143 186.755 172.864Z" stroke="black" stroke-width="0.44"/>
<path d="M205.539 161.683L196.68 167.182C195.571 167.87 194.117 167.554 193.393 166.469C192.635 165.332 192.969 163.794 194.13 163.074L202.989 157.575C204.098 156.887 205.552 157.202 206.276 158.288C207.033 159.424 206.7 160.962 205.539 161.683Z" stroke="black" stroke-width="0.44"/>
<path d="M166.521 88.23L143.589 100.812C139.964 102.801 135.417 101.107 133.978 97.2294C132.808 94.0789 134.124 90.547 137.071 88.9304L160.002 76.3487C163.628 74.3594 168.174 76.0538 169.614 79.9309C170.784 83.0815 169.467 86.6134 166.521 88.23Z" fill="#4169E1" stroke="black" stroke-width="0.44"/>
</g>
<defs>
<clipPath id="clip0_18087_7587">
<rect width="360" height="360" rx="5" fill="white"/>
</clipPath>
</defs>
</svg>
