<svg width="360" height="360" viewBox="0 0 360 360" fill="none" xmlns="http://www.w3.org/2000/svg">
<g clip-path="url(#clip0_18087_5444)">
<path d="M5.07303 262.823L218.561 139.51C221.22 137.974 224.497 137.974 227.156 139.51L355.757 213.786C357.881 215.014 357.881 218.082 355.757 219.307L142.268 342.621C139.609 344.156 136.333 344.157 133.674 342.621L5.0731 268.346C2.9484 267.119 2.94836 264.051 5.07303 262.825L5.07303 262.823Z" fill="black" stroke="black" stroke-width="0.44" stroke-linejoin="round"/>
<path d="M356.477 199.015V193.626L354.298 192.021L351.999 195.07L226.325 122.48C223.666 120.945 220.39 120.945 217.731 122.48L7.80479 243.735L2.64878 242.712V248.497C2.63035 249.591 3.15922 250.691 4.24091 251.316L132.841 325.594C135.5 327.13 138.776 327.13 141.435 325.594L354.925 202.284C355.819 201.767 356.335 200.925 356.477 200.031C356.53 199.695 356.53 199.35 356.477 199.015Z" fill="#FFE2C8" stroke="#231F20" stroke-width="0.44" stroke-miterlimit="10"/>
<path d="M4.24183 239.39L217.732 116.08C220.391 114.544 223.667 114.544 226.326 116.08L354.926 190.358C357.051 191.585 357.051 194.653 354.926 195.879L141.436 319.19C138.777 320.725 135.501 320.725 132.842 319.19L4.24183 244.912C2.11714 243.684 2.11714 240.616 4.24183 239.39Z" fill="#FF9500" stroke="#231F20" stroke-width="0.44" stroke-linejoin="round"/>
<path d="M115.184 161.718L115.166 161.729C99.8048 168.419 82.2637 177.078 63.1618 188.093C43.7724 199.274 26.1299 210.968 10.5863 222.155L10.2178 222.367L10.5753 222.573V238.168L24.0752 230.371L139.673 297.14L244.335 236.687L115.186 161.718H115.184Z" fill="white" stroke="#231F20" stroke-width="0.44" stroke-linejoin="round"/>
<path d="M348.949 176.262L219.498 101.492V101.488C219.498 101.488 219.496 101.488 219.494 101.488L219.491 101.49C204.129 108.18 186.728 116.739 167.625 127.755C148.235 138.936 130.731 150.53 115.187 161.716L244.336 236.686L250.832 232.934L348.949 176.262Z" fill="white" stroke="#231F20" stroke-width="0.44" stroke-linejoin="round"/>
<path d="M73.6869 241.388C90.9873 228.667 114.903 212.893 131.185 201.699" stroke="#D3B49B" stroke-width="0.44" stroke-linecap="round"/>
<path d="M83.8651 250.547C101.166 237.826 110.833 230.194 127.116 218.999" stroke="#D3B49B" stroke-width="0.44" stroke-linecap="round"/>
<path d="M97.0941 256.653C114.395 243.932 109.306 248.003 125.589 236.808" stroke="#D3B49B" stroke-width="0.44" stroke-linecap="round"/>
<path d="M245.365 193.514C263.239 181.613 287.863 166.97 304.65 156.546" stroke="#D3B49B" stroke-width="0.44" stroke-linecap="round"/>
<path d="M255.105 203.137C272.98 191.236 282.992 184.062 299.779 173.639" stroke="#D3B49B" stroke-width="0.44" stroke-linecap="round"/>
<path d="M268.035 209.853C285.909 197.952 280.636 201.781 297.423 191.357" stroke="#D3B49B" stroke-width="0.44" stroke-linecap="round"/>
<path d="M32.8128 214.603C48.0704 204.742 64.1108 194.85 80.9365 185.021C82.3895 184.21 84.0859 184.189 85.3871 184.971C89.2931 187.315 93.2436 189.659 97.236 192.008C98.4796 192.74 98.3775 194.613 97.0554 195.361C80.4103 205.079 64.527 214.824 49.4029 224.508C48.1123 225.306 46.4185 225.303 44.955 224.508C40.9443 222.319 36.9702 220.125 33.0353 217.931C31.7106 217.194 31.585 215.353 32.8102 214.6L32.8128 214.603Z" fill="#D3B49B" stroke="black" stroke-width="0.44" stroke-miterlimit="10"/>
<path d="M112.495 268.266C123.235 261.364 134.526 254.439 146.369 247.559C147.392 246.991 148.586 246.977 149.502 247.524C152.251 249.165 155.032 250.806 157.842 252.45C158.717 252.963 158.645 254.273 157.715 254.797C145.998 261.6 134.818 268.421 124.173 275.199C123.264 275.758 122.072 275.756 121.042 275.199C118.219 273.667 115.422 272.132 112.652 270.596C111.72 270.08 111.631 268.791 112.494 268.264L112.495 268.266Z" fill="#D3B49B" stroke="black" stroke-width="0.44" stroke-miterlimit="10"/>
<path d="M152.805 265.909C151.783 265.31 150.513 265.32 149.5 265.932C142.551 270.135 136.068 274.187 129.489 278.416C128.627 278.943 128.713 280.232 129.648 280.748C132.417 282.284 135.213 283.819 138.038 285.351C139.066 285.908 140.26 285.91 141.168 285.351C147.614 281.246 154.257 277.126 161.094 273.005C161.942 272.495 161.933 271.261 161.079 270.762L152.807 265.911L152.805 265.909Z" fill="#D3B49B" stroke="black" stroke-width="0.44" stroke-miterlimit="10"/>
<path d="M227.954 158.728C238.693 151.826 249.984 144.902 261.827 138.021C262.85 137.454 264.044 137.439 264.96 137.986C267.709 139.627 270.49 141.268 273.3 142.912C274.176 143.425 274.104 144.736 273.173 145.259C261.457 152.062 250.277 158.883 239.631 165.662C238.723 166.22 237.531 166.218 236.501 165.662C233.678 164.13 230.88 162.594 228.111 161.058C227.178 160.542 227.09 159.253 227.952 158.726L227.954 158.728Z" fill="#D3B49B" stroke="black" stroke-width="0.44" stroke-miterlimit="10"/>
<path d="M268.264 156.372C267.241 155.772 265.971 155.782 264.958 156.394C258.009 160.597 251.526 164.649 244.947 168.878C244.085 169.405 244.172 170.694 245.106 171.21C247.876 172.746 250.671 174.282 253.496 175.814C254.524 176.37 255.718 176.372 256.627 175.814C263.073 171.708 269.716 167.588 276.552 163.467C277.4 162.957 277.391 161.723 276.538 161.224L268.265 156.373L268.264 156.372Z" fill="#D3B49B" stroke="black" stroke-width="0.44" stroke-miterlimit="10"/>
<path d="M78.2641 215.372C77.2414 214.773 75.9718 214.782 74.9583 215.394C68.0093 219.597 61.5265 223.649 54.9479 227.878C54.0855 228.406 54.1721 229.694 55.1063 230.21C57.876 231.746 60.6714 233.282 63.4964 234.814C64.5246 235.37 65.7187 235.372 66.6272 234.814C73.0731 230.708 79.7162 226.588 86.5528 222.468C87.4005 221.957 87.3913 220.724 86.5381 220.224L78.266 215.374L78.2641 215.372Z" fill="#D3B49B" stroke="black" stroke-width="0.44" stroke-miterlimit="10"/>
<path d="M184.26 126.036C188.554 123.477 203.121 115.062 217.442 109.804C218.003 109.597 218.627 109.655 219.143 109.955L227.43 114.745C228.149 115.159 228.071 116.219 227.301 116.527C222.965 118.262 211.358 123.19 193.114 132.964C192.42 133.337 191.572 133.27 190.942 132.797L184.166 127.683C183.602 127.257 183.65 126.396 184.256 126.034L184.26 126.036Z" fill="#FF9500" stroke="black" stroke-width="0.44" stroke-miterlimit="10"/>
<path d="M236.94 188.52C240.885 202.043 222.8 215.176 196.545 217.853C170.29 220.53 145.809 211.736 141.865 198.212C137.92 184.689 156.005 171.556 182.26 168.879C208.515 166.202 232.996 174.997 236.94 188.52Z" fill="black" stroke="black" stroke-width="0.44" stroke-linejoin="round"/>
<path d="M186.029 182.727C230.877 182.727 267.233 146.355 267.233 101.488C267.233 56.6206 230.877 20.2486 186.029 20.2486C141.181 20.2486 104.825 56.6206 104.825 101.488C104.825 146.355 141.181 182.727 186.029 182.727Z" fill="#E8EDFA" stroke="#231F20" stroke-width="0.44" stroke-linejoin="round"/>
<path d="M10.2197 222.056V239.328L139.7 313.728L139.675 297.141L10.2197 222.056Z" fill="#D3B49B" stroke="#231F20" stroke-width="0.44" stroke-miterlimit="10"/>
<path d="M244.324 253.296L139.7 313.727V297.126C155.271 285.921 172.945 274.205 192.369 263.004C211.506 251.968 228.939 243.396 244.326 236.693V253.294L244.324 253.296Z" fill="#D3B49B" stroke="#231F20" stroke-width="0.44" stroke-miterlimit="10"/>
<path d="M139.7 301.499C155.271 290.294 172.945 278.578 192.369 267.377C211.506 256.341 228.939 247.769 244.326 241.066" stroke="#686253" stroke-width="0.44" stroke-miterlimit="10" stroke-dasharray="2.38 5.96 3.97 3.97"/>
<path d="M139.7 308.536C157.316 295.329 221.002 255.977 244.326 248.105" stroke="#686253" stroke-width="0.44" stroke-miterlimit="10" stroke-dasharray="2.38 5.96 3.97 3.97"/>
<path d="M244.324 253.296V236.694C259.896 225.489 277.569 213.774 296.994 202.572C316.131 191.537 333.563 182.965 348.95 176.261V192.863L244.324 253.294V253.296Z" fill="#D3B49B" stroke="#231F20" stroke-width="0.44" stroke-miterlimit="10"/>
<path d="M10.2197 234.138L139.7 308.536" stroke="#686253" stroke-width="0.44" stroke-miterlimit="10" stroke-dasharray="2.38 5.96 3.97 3.97"/>
<path d="M10.2197 228.332L139.7 302.728" stroke="#686253" stroke-width="0.44" stroke-miterlimit="10" stroke-dasharray="2.38 5.96 3.97 3.97"/>
<path d="M244.324 241.066C259.896 229.861 277.569 218.146 296.994 206.944C316.131 195.909 333.563 187.336 348.95 180.633" stroke="#686253" stroke-width="0.44" stroke-miterlimit="10" stroke-dasharray="2.38 5.96 3.97 3.97"/>
<path d="M244.324 247.85C261.884 233.374 326.564 195.609 348.95 187.418" stroke="#686253" stroke-width="0.44" stroke-miterlimit="10" stroke-dasharray="2.38 5.96 3.97 3.97"/>
<path d="M263.103 137.855C268.327 126.818 271.255 114.49 271.255 101.487C271.255 54.4735 233.024 16.2257 186.03 16.2257C139.036 16.2257 100.805 54.4735 100.805 101.487C100.805 114.313 103.655 126.484 108.749 137.407H108.745C108.75 137.418 108.756 137.427 108.762 137.436C122.343 166.535 151.869 186.751 186.03 186.751C220.191 186.751 249.42 166.739 263.092 137.877C263.095 137.87 263.101 137.864 263.105 137.857H263.101L263.103 137.855ZM257.167 134.614C256.441 135.742 255.673 136.852 254.855 137.934C256.522 131.1 257.392 124.054 257.392 116.923C257.392 113.067 257.14 109.269 256.659 105.541C259.484 103.036 262.074 100.381 264.413 97.592C264.476 98.8844 264.512 100.182 264.512 101.489C264.512 113.321 261.872 124.543 257.167 134.614ZM123.844 116.204C123.844 114.825 123.889 113.458 123.955 112.095C127.74 114.68 131.809 117.041 136.145 119.141C139.526 120.778 143.035 122.231 146.637 123.512C146.457 135.744 147.946 148.616 151.753 161.802C144.378 159.183 137.593 155.734 131.66 151.58C126.527 140.631 123.843 128.634 123.843 116.204H123.844ZM137.013 41.6978C147.01 37.4356 157.629 35.251 168.632 35.2067C159.645 39.2736 151.469 44.8798 144.397 51.6861C141.207 48.6904 138.688 45.3296 137.013 41.6978ZM149.805 63.9475C152.639 65.5643 155.682 66.9709 158.871 68.1729C152.882 81.8759 148.156 98.3239 146.932 116.385C138.719 113.266 131.203 109.186 124.699 104.299C127.071 87.6554 134.335 72.6324 144.937 60.8208C146.473 61.9233 148.093 62.9741 149.805 63.9493V63.9475ZM228.166 51.2713C220.299 44.1645 211.158 38.4477 201.126 34.5154C201.833 34.497 202.543 34.4859 203.256 34.4859C214.425 34.4859 225.173 36.8143 235.257 41.3992C233.659 44.9793 231.238 48.2977 228.166 51.2713ZM227.851 60.3489C238.863 71.8157 246.571 86.4792 249.426 102.793C242.621 108.251 234.588 112.781 225.739 116.193C224.49 98.1285 219.739 81.6842 213.734 67.9941C216.741 66.8363 219.612 65.4924 222.297 63.9622C224.263 62.8432 226.115 61.6338 227.851 60.3489ZM216.619 99.2992C217.924 105.753 218.748 112.156 219.105 118.501C209.79 121.383 199.747 123.072 189.402 123.37V72.92C195.57 72.6656 201.631 71.7143 207.336 70.1178C210.957 78.2773 214.344 88.0444 216.619 99.301V99.2992ZM182.659 66.1653C177.645 65.9367 172.793 65.2085 168.223 64.0452C173.142 54.291 178.065 47.4644 180.903 43.8953C181.487 43.2003 182.073 42.5348 182.659 41.8859V66.1671V66.1653ZM182.659 72.9163V123.365C172.535 123.062 162.708 121.429 153.57 118.653C153.922 112.259 154.751 105.805 156.065 99.2992C158.328 88.1034 161.691 78.3805 165.29 70.2469C170.831 71.7567 176.694 72.6637 182.659 72.9145V72.9163ZM153.376 125.671C162.704 128.328 172.578 129.837 182.658 130.116V167.53C174.658 167.276 166.878 166.129 159.538 164.199C155.433 151.689 153.374 138.817 153.374 125.669L153.376 125.671ZM189.4 130.121C199.703 129.847 209.792 128.281 219.306 125.525C219.321 138.664 217.281 151.53 213.197 164.033C205.655 166.07 197.639 167.276 189.4 167.532V130.119V130.121ZM226.043 123.337C229.438 122.111 232.747 120.736 235.941 119.193C241.156 116.675 245.991 113.78 250.403 110.567C250.565 112.665 250.648 114.783 250.648 116.922C250.648 127.95 248.427 138.764 244.183 148.783C237.588 154.067 229.712 158.403 220.996 161.572C224.774 148.402 226.24 135.547 226.043 123.335V123.337ZM263.316 87.825C261.013 91.2835 258.312 94.5447 255.26 97.5847C251.702 81.6805 243.85 67.3802 232.989 55.9687C236.298 52.724 238.952 49.1457 240.837 45.348C252.339 56.5899 260.41 71.3272 263.316 87.825ZM205.454 25.4065C208.769 26.2545 211.998 27.3145 215.13 28.57C211.228 28.0206 207.266 27.7404 203.256 27.7404C202.299 27.7404 201.349 27.7625 200.398 27.7939C202.638 26.5827 204.404 25.8194 205.454 25.4065ZM222.892 55.6018C219.358 58.0703 215.306 60.1793 210.872 61.8551C206.626 53.2734 201.979 46.0025 197.6 40.3908C206.965 43.9082 215.516 49.1033 222.89 55.6018H222.892ZM189.4 23.0486C191.088 23.1205 192.761 23.244 194.42 23.421C192.855 24.3649 191.171 25.4673 189.4 26.7541V23.0486ZM191.781 43.8953C194.608 47.4497 199.5 54.2284 204.396 63.9161C199.662 65.1605 194.619 65.9367 189.402 66.1708V41.2001C190.198 42.0573 190.992 42.9551 191.781 43.8953ZM182.659 23.0486V26.3098C181.082 25.1871 179.575 24.21 178.169 23.3638C179.654 23.2164 181.15 23.1131 182.659 23.0486ZM175.709 39.5944L175.655 39.6589C171.083 45.4015 166.178 52.9913 161.724 62.0284C157.305 60.3987 153.257 58.3394 149.711 55.9244C157.218 48.8563 166.038 43.2427 175.755 39.5409C175.74 39.5593 175.723 39.5759 175.709 39.5944ZM166.989 25.3125C168.185 25.7715 170.591 26.791 173.704 28.5847C172.135 28.5018 170.556 28.4575 168.966 28.4575C164.026 28.4575 159.157 28.8557 154.377 29.6466C158.414 27.8584 162.631 26.402 166.989 25.3106V25.3125ZM131.271 45.3056C133.268 49.3411 136.126 53.1333 139.725 56.5383C129.223 68.3148 121.775 83.0041 118.692 99.2807C114.867 95.7245 111.529 91.8402 108.773 87.6683C111.706 71.2129 119.781 56.5162 131.273 45.3056H131.271ZM107.652 97.439C110.567 100.936 113.881 104.225 117.551 107.271C117.262 110.211 117.102 113.188 117.102 116.204C117.102 125.146 118.383 133.886 120.876 142.222C118.541 139.691 116.464 137.005 114.686 134.179C110.107 124.22 107.547 113.148 107.547 101.487C107.547 100.129 107.586 98.7811 107.654 97.439H107.652ZM139.139 164.413C138.907 164.085 138.688 163.749 138.461 163.419C143.427 165.921 148.738 168.032 154.309 169.711C154.817 171.134 155.348 172.561 155.914 173.99C149.91 171.485 144.281 168.259 139.139 164.413ZM164.507 177.002C163.727 175.271 162.994 173.533 162.297 171.787C168.854 173.219 175.685 174.071 182.659 174.281V179.926C176.392 179.659 170.313 178.66 164.507 177.001V177.002ZM189.4 179.928V174.285C196.572 174.079 203.628 173.201 210.426 171.691C209.746 173.396 209.031 175.096 208.274 176.789C202.25 178.573 195.927 179.652 189.402 179.928H189.4ZM218.42 169.584C223.146 168.135 227.707 166.365 232.049 164.282C233.031 163.812 233.993 163.322 234.946 162.822C229.474 167.199 223.417 170.871 216.896 173.671C217.434 172.305 217.937 170.943 218.422 169.582L218.42 169.584Z" fill="#4169E1" stroke="black" stroke-width="0.44" stroke-miterlimit="10"/>
<path d="M137.798 163.088C141.146 164.808 144.656 166.35 148.301 167.701C149.219 170.328 151.804 172.417 155.066 172.833C155.458 172.883 155.849 172.907 156.238 172.907C157.817 172.907 159.347 172.5 160.637 171.723C162.474 170.617 163.673 168.84 163.926 166.849C164.18 164.856 163.465 162.836 161.963 161.304C160.649 159.962 158.833 159.084 156.848 158.832C154.093 158.479 151.504 159.405 149.833 161.097C139.043 156.995 128.831 150.831 120.946 142.317C119.411 140.66 117.97 138.916 116.643 137.089C115.989 136.187 115.392 135.251 114.767 134.329C114.08 133.313 113.061 132.729 112.064 132.01" fill="#4169E1"/>
<path d="M186.095 118.757C182.963 118.757 180.25 120.563 178.925 123.187C148.45 121.282 121.14 107.355 108.066 86.6037L102.361 90.2004C109.826 102.049 121.507 112.057 136.142 119.142C148.964 125.349 163.548 129.031 178.7 129.936C179.926 132.81 182.778 134.831 186.094 134.831C190.524 134.831 194.128 131.225 194.128 126.793C194.128 122.361 190.524 118.755 186.094 118.755L186.095 118.757Z" fill="#4169E1"/>
<path d="M137.798 163.088C141.147 164.808 144.657 166.349 148.302 167.7C149.22 170.327 151.805 172.416 155.067 172.832C155.459 172.882 155.85 172.906 156.239 172.906C157.818 172.906 159.347 172.499 160.637 171.723C162.475 170.617 163.674 168.839 163.927 166.848C164.181 164.856 163.466 162.835 161.964 161.303C160.65 159.961 158.833 159.083 156.849 158.831C154.094 158.479 151.505 159.404 149.833 161.097C134.493 155.265 121.866 145.797 114.475 133.858" stroke="black" stroke-width="0.44" stroke-miterlimit="10"/>
<path d="M237.238 55.2448C236.007 51.0766 232.12 47.8651 228.195 47.7785C226.063 47.7195 224.145 48.6247 222.92 50.2286C221.665 51.8693 221.27 54.076 221.783 56.3565C212.421 62.5157 199.723 66.2563 186.066 66.2563C161.917 66.2563 140.764 54.5811 135.772 38.4926L129.332 40.4928C132.197 49.7234 139.467 58.0544 149.805 63.9518C160.034 69.7866 172.911 73.0018 186.065 73.0018C199.218 73.0018 212.073 69.794 222.297 63.9684C223.336 63.3767 224.338 62.7572 225.311 62.1175C226.951 63.5149 228.953 64.3851 230.965 64.4293C231.018 64.4293 231.072 64.4312 231.125 64.4312C233.189 64.4312 235.047 63.5444 236.241 61.9811C237.606 60.1947 237.967 57.741 237.232 55.2485L237.238 55.2448Z" fill="#4169E1"/>
<path d="M130.857 44.4662C134.377 52.0984 140.97 58.9122 149.801 63.9505C160.03 69.7853 172.907 73.0005 186.06 73.0005C199.214 73.0005 212.069 69.7927 222.293 63.9671C223.332 63.3754 224.334 62.7559 225.307 62.1162C226.947 63.5136 228.949 64.3838 230.961 64.428C231.014 64.428 231.068 64.4299 231.121 64.4299C233.185 64.4299 235.043 63.5431 236.237 61.9798C237.602 60.1934 237.963 57.7397 237.228 55.2472C235.997 51.079 232.111 47.8675 228.186 47.7809C226.054 47.7219 224.135 48.6271 222.91 50.2309C221.655 51.8717 221.261 54.0784 221.773 56.3589C212.412 62.5181 199.713 66.2587 186.057 66.2587C163.181 66.2587 142.997 55.7837 136.686 41.0059" fill="#4169E1"/>
<path d="M130.857 44.4662C134.377 52.0984 140.97 58.9122 149.801 63.9505C160.03 69.7853 172.907 73.0005 186.06 73.0005C199.214 73.0005 212.069 69.7927 222.293 63.9671C223.332 63.3754 224.334 62.7559 225.307 62.1162C226.947 63.5136 228.949 64.3838 230.961 64.428C231.014 64.428 231.068 64.4299 231.121 64.4299C233.185 64.4299 235.043 63.5431 236.237 61.9798C237.602 60.1934 237.963 57.7397 237.228 55.2472C235.997 51.079 232.111 47.8675 228.186 47.7809C226.054 47.7219 224.135 48.6271 222.91 50.2309C221.655 51.8717 221.261 54.0784 221.773 56.3589C212.412 62.5181 199.713 66.2587 186.057 66.2587C163.181 66.2587 142.997 55.7837 136.686 41.0059" stroke="black" stroke-width="0.44" stroke-miterlimit="10"/>
<path d="M107.121 96.8076C114.424 105.78 124.321 113.414 136.148 119.142C148.97 125.349 163.553 129.031 178.706 129.936C179.932 132.81 182.784 134.831 186.099 134.831C190.529 134.831 194.134 131.225 194.134 126.793C194.134 122.361 190.529 118.755 186.099 118.755C182.967 118.755 180.254 120.562 178.929 123.185C148.743 121.297 121.664 107.616 108.448 87.1936" fill="#4169E1"/>
<path d="M107.121 96.8076C114.424 105.78 124.321 113.414 136.148 119.142C148.97 125.349 163.553 129.031 178.706 129.936C179.932 132.81 182.784 134.831 186.099 134.831C190.529 134.831 194.134 131.225 194.134 126.793C194.134 122.361 190.529 118.755 186.099 118.755C182.967 118.755 180.254 120.562 178.929 123.185C148.743 121.297 121.664 107.616 108.448 87.1936" stroke="black" stroke-width="0.44" stroke-miterlimit="10"/>
<circle cx="186.075" cy="126.773" r="5.43603" fill="#B9E5DE"/>
<ellipse cx="156.016" cy="166.264" rx="5.43603" ry="4.95638" fill="#B9E5DE"/>
<ellipse cx="229.985" cy="56.0998" rx="4.98636" ry="6.05487" transform="rotate(-36.0712 229.985 56.0998)" fill="#B9E5DE"/>
</g>
<defs>
<clipPath id="clip0_18087_5444">
<rect width="360" height="360" rx="5" fill="white"/>
</clipPath>
</defs>
</svg>
