<svg width="360" height="288" viewBox="0 0 360 288" fill="none" xmlns="http://www.w3.org/2000/svg">
<path d="M250.833 208.245C249.987 207.474 249.502 206.305 249.378 204.737C249.408 204.889 249.438 204.971 249.466 204.983C249.518 205.006 249.577 205.009 249.631 204.99C249.685 204.972 249.73 204.935 249.757 204.885C252.401 200.136 254.13 194.891 255.118 189.534C255.434 187.828 255.726 186.06 255.993 184.23C256.246 182.507 256.208 180.873 256.362 179.53C256.508 178.253 256.594 177.075 256.623 175.997C256.763 170.535 256.662 166.176 256.32 162.921C255.542 155.469 254.026 148.005 251.772 140.529C251.059 138.165 250.442 136.314 249.919 134.979L248.404 130.848C247.279 127.891 246.041 124.986 244.689 122.134C240.29 112.854 235.194 104.33 229.401 96.5614C225.204 90.9325 220.891 85.9351 216.462 81.5692C213.024 78.1806 210.847 76.0926 209.931 75.3052C201.923 68.4085 192.879 62.2675 183.592 57.5853C181.426 56.4932 178.804 55.3532 175.725 54.165L172.702 53.1773C168.353 51.4689 163.527 50.323 159.537 49.5813C155.115 48.7564 150.032 48.3627 144.288 48.4002C143.234 48.4072 141.981 48.4998 140.531 48.6779C135.494 49.2895 130.031 49.7359 125.479 52.5762C121.8 54.8704 118.091 57.1178 114.353 59.3183C112.98 60.1478 111.729 61.1426 110.599 62.3026C108.919 63.6173 107.212 64.8992 105.478 66.1482C103.467 67.5965 101.175 69.7349 98.6019 72.5634C96.883 74.4546 94.802 77.4846 93.7721 79.1297C89.8386 85.4324 87.3956 92.0796 85.8665 99.2505C85.2876 101.957 84.8389 105.298 84.5202 109.272C83.6941 119.491 84.8998 130.219 87.3745 140.002C90.8287 153.655 96.3745 166.622 104.012 178.904C111.615 191.126 120.758 201.964 132.028 211.447C137.481 216.036 142.834 219.841 148.088 222.861C153.37 225.898 158.131 228.175 162.37 229.691C163.425 230.068 165.929 230.787 169.882 231.846L170.441 232.159C170.591 232.242 170.715 232.362 170.8 232.507C172.185 234.823 173.77 236.57 176.392 239.716C177.756 241.354 179.352 242.75 180.779 244.233C181.548 245.033 182.49 245.904 183.606 246.849C186.608 249.382 190.015 251.752 193.828 253.96C195.016 254.649 196.204 255.13 197.431 255.862C198.038 256.222 199.168 256.701 200.823 257.296C203.612 258.296 206.643 259.094 209.917 259.69C213.139 260.275 216.65 260.244 220.451 259.595C222.45 259.255 224.619 258.469 226.958 257.236C228.081 256.645 229.408 255.715 230.941 254.445C232.79 252.916 235.134 250.986 237.946 249.475C240.259 248.227 242.144 246.87 243.803 245.112C244.994 243.847 246.225 241.942 246.945 240.834C247.248 240.37 247.469 239.562 247.817 238.996C248.508 237.873 249.111 236.57 249.624 235.087C250.833 231.595 251.527 228.188 251.705 224.865C251.714 224.717 251.706 224.45 251.68 224.063C251.678 224.025 251.684 223.986 251.699 223.951C251.714 223.915 251.736 223.882 251.765 223.856C251.851 223.776 251.949 223.745 252.056 223.761C252.478 223.871 252.812 223.997 253.058 224.137C259.435 227.842 265.293 231.13 270.634 234.001C276.258 237.024 280.937 239.755 286.041 242.486C286.896 242.946 287.824 243.657 288.825 244.62C291.658 247.351 292.801 251.06 290.952 254.593C289.454 257.457 287.567 258.832 284.463 260.597C273.165 267.025 262.573 273.069 252.686 278.731C251.647 279.324 250.59 279.891 249.515 280.433C247.267 279.284 245.187 278.581 243.272 278.323C241.482 278.082 239.934 278.225 238.628 278.752C234.874 280.264 231.795 281.575 228.118 282.053C226.468 282.269 224.504 282.345 222.227 282.282C219.321 282.2 216.396 281.69 213.453 280.752C211.803 280.228 209.428 279.12 206.328 277.431C167.539 256.276 143.959 243.398 135.588 238.795C127.044 234.095 120.806 230.681 116.874 228.556C109.995 224.837 104.223 221.568 96.7846 217.497C94.6052 216.305 91.0478 213.423 90.4186 210.741C89.4906 206.772 92.2816 203.682 95.4277 201.795C99.1022 199.59 102.931 197.386 106.915 195.183C108.17 194.487 109.154 193.808 110.427 193.063C110.48 193.032 110.527 192.99 110.563 192.939C110.599 192.889 110.624 192.832 110.636 192.771C110.649 192.711 110.649 192.648 110.636 192.588C110.623 192.527 110.597 192.47 110.56 192.42C108.187 189.125 106.055 186.088 104.166 183.309C104.054 183.142 103.936 183.075 103.811 183.108C103.842 183.026 103.837 182.954 103.797 182.89C96.7154 171.914 91.1779 160.317 87.1847 148.101C85.3638 142.526 83.9413 136.106 82.9172 128.841C82.711 127.381 82.581 126.057 82.5271 124.869C82.4462 123.045 81.9787 121.375 81.9506 119.582C81.8779 114.813 81.9295 111.593 82.1052 109.923C82.1849 109.142 82.4005 107.21 82.752 104.126C83.4551 97.9956 85.1212 91.5347 87.3639 86.3393C90.735 78.5251 95.4277 71.3928 101.818 66.0041C103.386 64.6824 105.278 63.2517 107.495 61.7121C109.06 60.6294 110.972 58.914 112.469 58.0177C117.334 55.1048 121.433 52.5563 124.765 50.3722C125.398 49.955 125.918 49.6527 126.326 49.4653C130.077 47.7358 133.982 47.0363 138.488 46.5371C148.363 45.4404 157.853 46.4633 167.531 49.0153C179.496 52.1754 190.699 58.0282 200.978 65.3151C214.63 74.9959 226.315 87.4114 235.5 101.089C240.063 107.883 244.223 115.382 247.982 123.586C252.575 133.607 255.928 144.727 258.039 156.948C258.184 157.787 258.426 160.232 258.763 164.281C259.19 169.38 259.207 174.382 258.816 179.287C258.345 185.172 257.585 190.115 256.535 194.118C255.26 198.983 253.359 203.692 250.833 208.245Z" fill="black"/>
<path d="M236.994 180.554C236.994 234.593 199.19 256.497 152.557 229.477C105.924 202.458 68.1208 136.746 68.1208 82.7071C68.1208 28.6678 105.924 6.76401 152.557 33.7837C199.19 60.8033 236.994 126.515 236.994 180.554Z" fill="#FFE2C8" stroke="black"/>
<path d="M227.547 179.927C227.547 226.885 195.279 245.604 154.812 222.125C114.345 198.646 76.1726 130.772 76.1726 83.814C76.1726 36.8561 108.977 17.8227 149.444 41.3016C189.911 64.7806 227.547 132.97 227.547 179.927Z" fill="#F8B04A" stroke="black"/>
<path d="M92.8516 27.8477C109.339 18.2948 130.948 21.2626 152.557 33.7832L175.073 20.737C153.464 8.21633 131.855 5.24858 115.368 14.8014L92.8516 27.8477Z" fill="#FF9500" stroke="black"/>
<path d="M236.993 180.554C236.993 126.515 199.19 60.8037 152.557 33.784L175.073 20.7378C221.706 47.7575 259.509 113.469 259.509 167.508L236.993 180.554Z" fill="#FF9500" stroke="black"/>
<path d="M212.263 235.413C228.75 225.86 236.994 205.595 236.994 180.554L259.51 167.508C259.51 192.549 251.267 212.814 234.78 222.367L212.263 235.413Z" fill="#FF9500" stroke="black"/>
<path fill-rule="evenodd" clip-rule="evenodd" d="M166.138 87.1024L162.759 100.835L167.656 97.9979L171.035 84.265L166.138 87.1024Z" fill="#FF9500" stroke="black" stroke-linejoin="round"/>
<path fill-rule="evenodd" clip-rule="evenodd" d="M162.76 100.835C160.583 98.9404 158.349 97.0564 156.12 95.1753L155.978 95.0555L159.381 81.2347L150.919 73.8858L155.816 71.0485L164.278 78.3973L160.875 92.2182L161.017 92.3379C163.246 94.219 165.48 96.1031 167.657 97.9979L162.76 100.835Z" fill="#FF9500" stroke="black" stroke-linejoin="round"/>
<path fill-rule="evenodd" clip-rule="evenodd" d="M150.918 73.8858L147.451 87.9876L152.348 85.1502L155.815 71.0485L150.918 73.8858Z" fill="#FF9500" stroke="black" stroke-linejoin="round"/>
<path fill-rule="evenodd" clip-rule="evenodd" d="M147.452 87.9867L147.082 87.6741C145.368 86.227 143.681 84.8029 142.046 83.3788L142.055 83.3334L130.381 73.1926L135.278 70.3552L146.952 80.496L146.943 80.5414C148.578 81.9656 150.265 83.3896 151.979 84.8367L152.349 85.1493L147.452 87.9867Z" fill="#FF9500" stroke="black" stroke-linejoin="round"/>
<path fill-rule="evenodd" clip-rule="evenodd" d="M130.381 73.1926L128.128 82.363C128.128 82.363 134.411 87.6718 134.279 87.6973L139.176 84.8599C139.308 84.8344 133.025 79.5256 133.025 79.5256L135.278 70.3552L130.381 73.1926Z" fill="#FF9500" stroke="black" stroke-linejoin="round"/>
<path fill-rule="evenodd" clip-rule="evenodd" d="M134.278 87.6971C137.706 90.6764 138.323 93.6613 138.22 95.69L134.273 111.761C134.508 111.965 134.812 112.243 135.155 112.595L140.052 109.758C139.709 109.406 139.405 109.128 139.17 108.924L143.117 92.8526C143.22 90.8239 142.603 87.839 139.175 84.8597L134.278 87.6971Z" fill="#FF9500" stroke="black" stroke-linejoin="round"/>
<path fill-rule="evenodd" clip-rule="evenodd" d="M135.154 112.595L134.258 111.821L139.155 108.983L140.051 109.758L135.154 112.595Z" fill="#FF9500" stroke="black" stroke-linejoin="round"/>
<path fill-rule="evenodd" clip-rule="evenodd" d="M134.259 111.821L128.725 134.333C128.574 134.678 128.339 135.054 127.989 135.296L132.886 132.459C133.236 132.216 133.471 131.84 133.622 131.495L139.156 108.983L134.259 111.821Z" fill="#FF9500" stroke="black" stroke-linejoin="round"/>
<path fill-rule="evenodd" clip-rule="evenodd" d="M127.989 135.297C127.366 135.729 126.378 135.739 124.842 134.41L129.739 131.573C131.275 132.902 132.263 132.891 132.886 132.46L127.989 135.297Z" fill="#FF9500" stroke="black" stroke-linejoin="round"/>
<path fill-rule="evenodd" clip-rule="evenodd" d="M124.842 134.41C124.93 134.603 118.691 129.071 118.691 129.071L114.49 137.861L125.508 147.428C126.691 148.458 127.862 149.49 129.02 150.512L129.021 150.513C129.866 151.258 130.704 151.997 131.536 152.726L128.035 166.995L136.492 174.335L141.389 171.498L132.932 164.158L136.433 149.888C135.601 149.16 134.763 148.421 133.918 147.676L133.917 147.674C132.759 146.653 131.588 145.621 130.405 144.591L119.387 135.023L123.588 126.233C123.588 126.233 129.827 131.766 129.739 131.573L124.842 134.41Z" fill="#FF9500" stroke="black" stroke-linejoin="round"/>
<path fill-rule="evenodd" clip-rule="evenodd" d="M136.492 174.333L139.959 160.225L144.856 157.388L141.389 171.495L136.492 174.333Z" fill="#FF9500" stroke="black" stroke-linejoin="round"/>
<path fill-rule="evenodd" clip-rule="evenodd" d="M139.959 160.225C142.271 162.285 144.513 164.254 146.707 166.161L143.25 180.206L151.712 187.549L156.609 184.712L148.147 177.369L151.604 163.324C149.41 161.417 147.168 159.448 144.856 157.388L139.959 160.225Z" fill="#FF9500" stroke="black" stroke-linejoin="round"/>
<path fill-rule="evenodd" clip-rule="evenodd" d="M151.713 187.55L155.214 173.314L160.111 170.477L156.61 184.712L151.713 187.55Z" fill="#FF9500" stroke="black" stroke-linejoin="round"/>
<path fill-rule="evenodd" clip-rule="evenodd" d="M155.214 173.314C165.608 181.617 174.144 186.539 179.815 183.986L184.712 181.149C179.041 183.702 170.505 178.779 160.111 170.477L155.214 173.314Z" fill="#FF9500" stroke="black" stroke-linejoin="round"/>
<path fill-rule="evenodd" clip-rule="evenodd" d="M179.813 183.986C182.018 182.993 183.79 180.87 185.069 177.375C188.752 167.331 184.888 158.061 177.293 149.081L182.19 146.243C189.785 155.224 193.649 164.493 189.966 174.538C188.687 178.033 186.915 180.156 184.71 181.149L179.813 183.986Z" fill="#FF9500" stroke="black" stroke-linejoin="round"/>
<path fill-rule="evenodd" clip-rule="evenodd" d="M177.293 149.082C179.728 149.843 181.897 149.92 183.658 149.081L188.555 146.243C186.794 147.083 184.625 147.006 182.19 146.244L177.293 149.082Z" fill="#FF9500" stroke="black" stroke-linejoin="round"/>
<path fill-rule="evenodd" clip-rule="evenodd" d="M183.659 149.081C185.9 148.013 187.479 145.459 188.102 140.942C189.64 129.938 181.819 119.012 171.134 108.553L174.601 94.4455L166.139 87.1024L171.036 84.265L179.498 91.6082L176.031 105.716C186.716 116.174 194.537 127.101 192.999 138.104C192.376 142.622 190.797 145.175 188.556 146.244L183.659 149.081Z" fill="#FF9500" stroke="black" stroke-linejoin="round"/>
<path fill-rule="evenodd" clip-rule="evenodd" d="M167.378 163.734C162.853 167.843 150.434 156.846 144.353 151.462L144.353 151.461C143.731 150.91 143.174 150.418 142.7 150.006L147.352 131.109L152.249 128.272L147.597 147.169C148.071 147.58 148.628 148.073 149.25 148.624L149.25 148.624C155.331 154.009 167.75 165.006 172.275 160.896L167.378 163.734Z" fill="#FF9500" stroke="black" stroke-linejoin="round"/>
<path fill-rule="evenodd" clip-rule="evenodd" d="M147.353 131.109C147.931 131.612 148.638 132.206 149.44 132.879L149.44 132.879C156.587 138.881 171.214 151.164 168.753 161.157C168.465 162.332 167.995 163.173 167.378 163.734L172.275 160.896C172.892 160.336 173.362 159.495 173.65 158.32C176.111 148.327 161.484 136.043 154.337 130.042L154.337 130.042C153.535 129.369 152.828 128.775 152.25 128.272L147.353 131.109Z" fill="#FF9500" stroke="black" stroke-linejoin="round"/>
<path fill-rule="evenodd" clip-rule="evenodd" d="M168.959 134.212C170.088 133.829 170.94 132.853 171.377 131.075C173.613 121.982 161.409 111.782 155.447 106.8C154.775 106.238 154.183 105.743 153.699 105.323L158.596 102.485C159.08 102.905 159.672 103.401 160.344 103.962C166.306 108.944 178.51 119.144 176.274 128.237C175.837 130.016 174.985 130.992 173.856 131.375L168.959 134.212Z" fill="#FF9500" stroke="black" stroke-linejoin="round"/>
<path fill-rule="evenodd" clip-rule="evenodd" d="M153.7 105.323L149.488 122.461C149.887 122.807 150.356 123.223 150.88 123.69C155.486 127.784 164.442 135.744 168.96 134.212L173.857 131.375C169.339 132.906 160.383 124.946 155.778 120.853C155.253 120.386 154.784 119.969 154.385 119.623L158.597 102.485L153.7 105.323Z" fill="#FF9500" stroke="black" stroke-linejoin="round"/>
<path fill-rule="evenodd" clip-rule="evenodd" d="M188.101 140.99C189.639 129.997 181.819 119.066 171.133 108.599L174.6 94.5069L166.138 87.156L162.759 100.874C160.582 98.9767 158.349 97.0906 156.119 95.2074L155.977 95.0876L159.381 81.2822L150.919 73.9256L147.451 88.0117L147.082 87.699L147.081 87.6988C145.367 86.2501 143.681 84.8244 142.045 83.3988L142.055 83.3535L130.381 73.202L128.128 82.3622C128.128 82.3622 134.411 87.6768 134.279 87.7021C137.706 90.6845 138.323 93.6682 138.221 95.6953L134.274 111.748C134.509 111.953 134.812 112.231 135.155 112.583L134.259 111.808L128.725 134.295C128.304 135.252 127.242 136.444 124.842 134.365C124.93 134.558 118.691 129.02 118.691 129.02L114.49 137.797L125.508 147.374C126.691 148.406 127.861 149.439 129.019 150.461L129.02 150.462C129.865 151.207 130.704 151.948 131.536 152.677L128.035 166.931L136.492 174.279L139.959 160.187C142.27 162.249 144.513 164.22 146.707 166.129L143.25 180.158L151.712 187.509L155.213 173.29C169.65 184.835 180.501 189.859 185.07 177.393C188.753 167.362 184.889 158.093 177.294 149.108C182.827 150.846 186.99 149.049 188.101 140.99ZM168.751 161.164C166.357 170.94 151.262 157.563 144.352 151.44C143.73 150.888 143.174 150.396 142.699 149.984L147.351 131.113C147.93 131.617 148.637 132.211 149.439 132.885C156.586 138.891 171.213 151.184 168.751 161.164ZM150.88 123.672C156.638 128.793 169.192 139.96 171.378 131.081C173.614 122.001 161.409 111.792 155.448 106.805C154.776 106.243 154.183 105.747 153.7 105.327L149.488 122.442C149.887 122.788 150.356 123.205 150.88 123.672Z" fill="#FFE2C8"/>
<path d="M171.133 108.599L170.714 108.235L170.618 108.623L170.992 108.989L171.133 108.599ZM188.101 140.99L187.674 140.668L187.673 140.669L188.101 140.99ZM174.6 94.5069L175.02 94.8709L175.125 94.4468L174.705 94.0827L174.6 94.5069ZM166.138 87.156L166.243 86.7319L165.823 86.3669L165.719 86.7919L166.138 87.156ZM162.759 100.874L162.654 101.297L163.074 101.664L163.179 101.238L162.759 100.874ZM156.119 95.2074L156.022 95.6387L156.022 95.6387L156.119 95.2074ZM155.977 95.0876L155.557 94.7235L155.451 95.1561L155.88 95.519L155.977 95.0876ZM159.381 81.2822L159.8 81.6463L159.905 81.2225L159.486 80.8582L159.381 81.2822ZM150.919 73.9256L151.024 73.5017L150.603 73.1362L150.499 73.5616L150.919 73.9256ZM147.451 88.0117L147.354 88.4428L147.769 88.7929L147.871 88.3757L147.451 88.0117ZM147.082 87.699L147.179 87.2679L147.175 87.2653L147.082 87.699ZM147.081 87.6988L146.984 88.1299L146.987 88.1326L147.081 87.6988ZM142.045 83.3988L141.623 83.0458L141.532 83.4671L141.939 83.8221L142.045 83.3988ZM142.055 83.3535L142.477 83.7065L142.568 83.2845L142.16 82.9295L142.055 83.3535ZM130.381 73.202L130.486 72.7781L130.065 72.4125L129.961 72.8381L130.381 73.202ZM128.128 82.3622L127.708 81.9983L127.602 82.4303L128.031 82.7931L128.128 82.3622ZM134.279 87.7021L134.038 87.1471L133.227 87.3025L134.173 88.1259L134.279 87.7021ZM138.221 95.6953L138.64 96.0592L138.65 96.0194L138.653 95.974L138.221 95.6953ZM134.274 111.748L133.854 111.384L133.75 111.808L134.168 112.172L134.274 111.748ZM135.155 112.583L135.051 113.008L135.311 112.208L135.155 112.583ZM134.259 111.808L134.363 111.383L133.943 111.02L133.839 111.444L134.259 111.808ZM128.725 134.295L129.126 134.715L129.138 134.689L129.145 134.659L128.725 134.295ZM124.842 134.365L124.946 133.94L123.804 132.951L124.491 134.453L124.842 134.365ZM118.691 129.02L118.803 128.601L118.443 128.281L118.294 128.591L118.691 129.02ZM114.49 137.797L114.093 137.368L113.89 137.791L114.385 138.221L114.49 137.797ZM125.508 147.374L125.614 146.951L125.613 146.95L125.508 147.374ZM129.019 150.461L128.91 150.881L128.912 150.883L129.019 150.461ZM129.02 150.462L129.13 150.042L129.128 150.04L129.02 150.462ZM131.536 152.677L131.956 153.041L132.06 152.62L131.644 152.255L131.536 152.677ZM128.035 166.931L127.615 166.567L127.511 166.991L127.93 167.355L128.035 166.931ZM136.492 174.279L136.387 174.703L136.807 175.068L136.912 174.643L136.492 174.279ZM139.959 160.187L140.072 159.77L139.646 159.389L139.539 159.823L139.959 160.187ZM146.707 166.129L147.127 166.493L147.231 166.069L146.813 165.705L146.707 166.129ZM143.25 180.158L142.83 179.794L142.726 180.218L143.145 180.582L143.25 180.158ZM151.712 187.509L151.607 187.933L152.027 188.298L152.132 187.873L151.712 187.509ZM155.213 173.29L155.294 172.846L154.892 172.524L154.793 172.926L155.213 173.29ZM185.07 177.393L184.662 176.992L184.662 176.992L185.07 177.393ZM177.294 149.108L177.197 148.564L176.054 148.205L177.094 149.435L177.294 149.108ZM144.352 151.44L144.241 151.859L144.241 151.859L144.352 151.44ZM168.751 161.164L168.332 160.8L168.331 160.8L168.751 161.164ZM142.699 149.984L142.28 149.62L142.175 150.044L142.595 150.408L142.699 149.984ZM147.351 131.113L147.457 130.69L147.037 130.324L146.932 130.749L147.351 131.113ZM149.439 132.885L149.534 132.452L149.534 132.452L149.439 132.885ZM171.378 131.081L170.958 130.717L170.958 130.717L171.378 131.081ZM150.88 123.672L150.993 123.254L150.993 123.254L150.88 123.672ZM155.448 106.805L155.542 106.372L155.542 106.372L155.448 106.805ZM153.7 105.327L153.805 104.903L153.385 104.538L153.28 104.963L153.7 105.327ZM149.488 122.442L149.068 122.078L148.964 122.502L149.383 122.866L149.488 122.442ZM171.133 108.599L170.992 108.989C176.313 114.202 180.865 119.477 183.893 124.771C186.901 130.027 188.421 135.323 187.674 140.668L188.101 140.99L188.529 141.312C189.319 135.664 187.698 129.998 184.509 124.424C181.34 118.886 176.639 113.463 171.275 108.208L171.133 108.599ZM174.6 94.5069L174.181 94.1429L170.714 108.235L171.133 108.599L171.553 108.963L175.02 94.8709L174.6 94.5069ZM166.138 87.156L166.033 87.5802L174.495 94.9311L174.6 94.5069L174.705 94.0827L166.243 86.7319L166.138 87.156ZM162.759 100.874L163.179 101.238L166.558 87.5201L166.138 87.156L165.719 86.7919L162.34 100.51L162.759 100.874ZM156.119 95.2074L156.022 95.6387C158.253 97.5226 160.482 99.4048 162.654 101.297L162.759 100.874L162.865 100.45C160.683 98.5486 158.445 96.6586 156.216 94.7761L156.119 95.2074ZM155.977 95.0876L155.88 95.519L156.022 95.6387L156.119 95.2074L156.216 94.7761L156.074 94.6563L155.977 95.0876ZM159.381 81.2822L158.961 80.918L155.557 94.7235L155.977 95.0876L156.397 95.4518L159.8 81.6463L159.381 81.2822ZM150.919 73.9256L150.813 74.3496L159.275 81.7061L159.381 81.2822L159.486 80.8582L151.024 73.5017L150.919 73.9256ZM147.451 88.0117L147.871 88.3757L151.338 74.2897L150.919 73.9256L150.499 73.5616L147.032 87.6477L147.451 88.0117ZM147.082 87.699L146.985 88.1301L147.354 88.4428L147.451 88.0117L147.548 87.5806L147.179 87.2679L147.082 87.699ZM147.081 87.6988L146.987 88.1326L146.988 88.1327L147.082 87.699L147.175 87.2653L147.175 87.2651L147.081 87.6988ZM142.045 83.3988L141.939 83.8221C143.58 85.2523 145.271 86.6819 146.984 88.1299L147.081 87.6988L147.178 87.2678C145.464 85.8183 143.781 84.3965 142.151 82.9755L142.045 83.3988ZM142.055 83.3535L141.633 83.0004L141.623 83.0458L142.045 83.3988L142.468 83.7518L142.477 83.7065L142.055 83.3535ZM130.381 73.202L130.275 73.6259L141.95 83.7774L142.055 83.3535L142.16 82.9295L130.486 72.7781L130.381 73.202ZM128.128 82.3622L128.548 82.7262L130.8 73.566L130.381 73.202L129.961 72.8381L127.708 81.9983L128.128 82.3622ZM134.279 87.7021L134.519 88.2572C134.572 88.247 134.656 88.2104 134.695 88.0842C134.735 87.9526 134.702 87.7991 134.667 87.6972C134.611 87.5359 134.522 87.4205 134.512 87.4071C134.464 87.3417 134.413 87.2889 134.391 87.2664C134.334 87.2069 134.259 87.1347 134.177 87.0592C134.01 86.9036 133.768 86.688 133.482 86.4362C132.908 85.9308 132.131 85.2614 131.354 84.595C130.576 83.9281 129.793 83.2622 129.206 82.7632C128.912 82.5136 128.667 82.3057 128.495 82.1602C128.409 82.0874 128.342 82.0302 128.296 81.9912C128.273 81.9717 128.255 81.9568 128.243 81.9467C128.237 81.9416 128.233 81.9378 128.23 81.9352C128.228 81.9339 128.227 81.933 128.226 81.9323C128.226 81.932 128.226 81.9317 128.225 81.9316C128.225 81.9315 128.225 81.9314 128.225 81.9314C128.225 81.9313 128.225 81.9313 128.128 82.3622C128.031 82.7931 128.031 82.7931 128.031 82.7932C128.031 82.7932 128.031 82.7933 128.031 82.7934C128.031 82.7935 128.031 82.7937 128.032 82.7941C128.033 82.7947 128.034 82.7957 128.035 82.7969C128.038 82.7995 128.043 82.8033 128.049 82.8083C128.06 82.8183 128.078 82.8332 128.101 82.8526C128.147 82.8915 128.214 82.9485 128.3 83.0211C128.471 83.1663 128.716 83.3738 129.009 83.6228C129.596 84.1211 130.376 84.7854 131.152 85.4503C131.928 86.1158 132.698 86.7797 133.264 87.278C133.549 87.528 133.777 87.7317 133.927 87.8716C134.005 87.9439 134.051 87.9884 134.071 88.0096C134.088 88.0274 134.065 88.0059 134.033 87.9621C134.031 87.9594 133.947 87.8524 133.893 87.697C133.859 87.598 133.826 87.4469 133.866 87.3169C133.904 87.1924 133.988 87.1568 134.038 87.1471L134.279 87.7021ZM138.221 95.6953L138.653 95.974C138.707 94.8992 138.573 93.5285 137.939 92.0016C137.299 90.4606 136.184 88.8446 134.384 87.2783L134.279 87.7021L134.173 88.1259C135.801 89.542 136.708 90.909 137.208 92.1122C137.714 93.3295 137.837 94.4642 137.789 95.4166L138.221 95.6953ZM134.274 111.748L134.693 112.112L138.64 96.0592L138.221 95.6953L137.801 95.3313L133.854 111.384L134.274 111.748ZM135.155 112.583L135.311 112.208C134.949 111.835 134.628 111.541 134.379 111.325L134.274 111.748L134.168 112.172C134.389 112.365 134.676 112.627 134.999 112.959L135.155 112.583ZM134.259 111.808L134.155 112.233L135.051 113.008L135.155 112.583L135.259 112.158L134.363 111.383L134.259 111.808ZM128.725 134.295L129.145 134.659L134.679 112.172L134.259 111.808L133.839 111.444L128.306 133.931L128.725 134.295ZM124.842 134.365L124.738 134.79C126.052 135.929 127.05 136.207 127.779 136.021C128.489 135.839 128.9 135.229 129.126 134.715L128.725 134.295L128.324 133.874C128.13 134.317 127.799 134.782 127.272 134.916C126.765 135.046 126.032 134.881 124.946 133.94L124.842 134.365ZM118.691 129.02C118.58 129.438 118.58 129.438 118.58 129.438C118.58 129.438 118.58 129.438 118.58 129.438C118.58 129.438 118.581 129.439 118.581 129.439C118.582 129.44 118.583 129.441 118.584 129.442C118.587 129.445 118.592 129.449 118.598 129.454C118.61 129.464 118.627 129.48 118.65 129.5C118.696 129.541 118.763 129.6 118.848 129.676C119.019 129.827 119.262 130.043 119.554 130.301C120.138 130.818 120.916 131.505 121.691 132.186C122.466 132.867 123.24 133.543 123.816 134.038C124.103 134.285 124.345 134.49 124.515 134.629C124.597 134.697 124.673 134.757 124.73 134.799C124.752 134.815 124.801 134.851 124.853 134.878C124.869 134.886 124.894 134.899 124.924 134.909C124.948 134.918 125.009 134.937 125.074 134.926C125.146 134.915 125.255 134.859 125.273 134.67C125.289 134.503 125.222 134.34 125.193 134.277L124.842 134.365L124.491 134.453C124.463 134.393 124.397 134.232 124.413 134.067C124.431 133.88 124.538 133.825 124.609 133.814C124.673 133.804 124.731 133.822 124.752 133.829C124.779 133.839 124.8 133.849 124.811 133.855C124.845 133.873 124.864 133.888 124.845 133.874C124.82 133.857 124.771 133.818 124.691 133.752C124.536 133.625 124.306 133.43 124.02 133.184C123.451 132.695 122.682 132.023 121.908 131.343C121.135 130.664 120.358 129.978 119.775 129.462C119.484 129.205 119.241 128.989 119.07 128.838C118.985 128.763 118.918 128.703 118.873 128.663C118.85 128.643 118.832 128.627 118.821 128.617C118.815 128.612 118.81 128.608 118.807 128.605C118.806 128.604 118.805 128.603 118.804 128.602C118.804 128.602 118.803 128.601 118.803 128.601C118.803 128.601 118.803 128.601 118.803 128.601C118.803 128.601 118.803 128.601 118.691 129.02ZM114.49 137.797L114.887 138.226L119.088 129.448L118.691 129.02L118.294 128.591L114.093 137.368L114.49 137.797ZM125.508 147.374L125.613 146.95L114.595 137.373L114.49 137.797L114.385 138.221L125.403 147.798L125.508 147.374ZM129.019 150.461L129.129 150.041C127.972 149.019 126.799 147.984 125.614 146.951L125.508 147.374L125.402 147.798C126.583 148.827 127.751 149.858 128.91 150.881L129.019 150.461ZM129.02 150.462L129.128 150.04L129.127 150.039L129.019 150.461L128.912 150.883L128.912 150.883L129.02 150.462ZM131.536 152.677L131.644 152.255C130.813 151.527 129.975 150.788 129.13 150.042L129.02 150.462L128.91 150.882C129.755 151.627 130.595 152.368 131.429 153.099L131.536 152.677ZM128.035 166.931L128.455 167.294L131.956 153.041L131.536 152.677L131.116 152.313L127.615 166.567L128.035 166.931ZM136.492 174.279L136.597 173.854L128.14 166.506L128.035 166.931L127.93 167.355L136.387 174.703L136.492 174.279ZM139.959 160.187L139.539 159.823L136.072 173.915L136.492 174.279L136.912 174.643L140.379 160.551L139.959 160.187ZM146.707 166.129L146.813 165.705C144.621 163.798 142.381 161.829 140.072 159.77L139.959 160.187L139.846 160.604C142.16 162.669 144.406 164.642 146.602 166.553L146.707 166.129ZM143.25 180.158L143.67 180.522L147.127 166.493L146.707 166.129L146.287 165.765L142.83 179.794L143.25 180.158ZM151.712 187.509L151.817 187.085L143.355 179.734L143.25 180.158L143.145 180.582L151.607 187.933L151.712 187.509ZM155.213 173.29L154.793 172.926L151.292 187.145L151.712 187.509L152.132 187.873L155.633 173.654L155.213 173.29ZM185.07 177.393L184.662 176.992C182.418 183.114 178.658 184.902 173.715 183.794C168.732 182.677 162.498 178.606 155.294 172.846L155.213 173.29L155.132 173.734C162.365 179.518 168.775 183.732 173.969 184.897C179.203 186.07 183.154 184.138 185.479 177.795L185.07 177.393ZM177.294 149.108L177.094 149.435C180.842 153.869 183.614 158.308 185.015 162.829C186.413 167.341 186.479 172.041 184.662 176.992L185.07 177.393L185.479 177.795C187.344 172.714 187.319 167.764 185.808 162.888C184.299 158.02 181.341 153.331 177.494 148.78L177.294 149.108ZM188.101 140.99L187.673 140.669C187.128 144.625 185.839 147.006 184.039 148.199C182.239 149.391 179.898 149.413 177.197 148.564L177.294 149.108L177.391 149.651C180.223 150.541 182.731 150.533 184.673 149.247C186.615 147.96 187.964 145.414 188.529 141.311L188.101 140.99ZM144.352 151.44L144.241 151.859C147.686 154.912 153.241 159.837 158.243 162.763C160.745 164.226 163.151 165.215 165.098 165.189C167.064 165.163 168.541 164.1 169.171 161.527L168.751 161.164L168.331 160.8C167.764 163.115 166.457 164.047 164.703 164.07C162.93 164.094 160.682 163.189 158.247 161.765C153.375 158.915 147.928 154.091 144.463 151.021L144.352 151.44ZM142.699 149.984L142.595 150.408C143.065 150.817 143.618 151.306 144.241 151.859L144.352 151.44L144.463 151.021C143.842 150.47 143.282 149.974 142.804 149.559L142.699 149.984ZM147.351 131.113L146.932 130.749L142.28 149.62L142.699 149.984L143.119 150.348L147.771 131.478L147.351 131.113ZM149.439 132.885L149.534 132.452C148.731 131.777 148.029 131.187 147.457 130.69L147.351 131.113L147.246 131.537C147.831 132.046 148.544 132.645 149.343 133.317L149.439 132.885ZM168.751 161.164L169.171 161.528C169.816 158.914 169.342 156.118 168.138 153.314C166.946 150.534 165.055 147.785 162.902 145.211C158.599 140.067 153.096 135.446 149.534 132.452L149.439 132.885L149.343 133.317C152.928 136.33 158.312 140.858 162.495 145.858C164.584 148.355 166.335 150.926 167.416 153.446C168.487 155.941 168.918 158.424 168.332 160.8L168.751 161.164ZM171.378 131.081L170.958 130.717C170.44 132.822 169.32 133.717 167.849 133.831C166.363 133.946 164.49 133.262 162.462 132.123C158.401 129.84 153.882 125.824 150.993 123.254L150.88 123.672L150.768 124.09C153.637 126.641 158.273 130.769 162.475 133.13C164.579 134.313 166.614 135.076 168.276 134.948C169.954 134.818 171.223 133.781 171.798 131.445L171.378 131.081ZM155.448 106.805L155.354 107.239C158.347 109.742 162.824 113.491 166.276 117.722C167.998 119.833 169.43 122.022 170.299 124.201C171.16 126.358 171.491 128.554 170.958 130.717L171.378 131.081L171.798 131.445C172.383 129.068 172.026 126.583 171.041 124.116C170.065 121.671 168.492 119.294 166.698 117.094C163.116 112.704 158.511 108.855 155.542 106.372L155.448 106.805ZM153.7 105.327L153.595 105.751C154.085 106.177 154.684 106.678 155.354 107.239L155.448 106.805L155.542 106.372C154.868 105.808 154.282 105.317 153.805 104.903L153.7 105.327ZM149.488 122.442L149.908 122.806L154.119 105.691L153.7 105.327L153.28 104.963L149.068 122.078L149.488 122.442ZM150.88 123.672L150.993 123.254C150.469 122.788 149.997 122.368 149.593 122.018L149.488 122.442L149.383 122.866C149.778 123.209 150.242 123.622 150.768 124.09L150.88 123.672Z" fill="black"/>
<path d="M275.089 239.462C275.05 237.826 275.02 236.183 275.001 234.533C274.947 230.151 274.241 226.283 273.403 222.189C273.35 221.922 273.329 221.708 273.34 221.546C273.362 221.196 273.461 221.027 273.636 221.041" stroke="#9893A0" stroke-width="2"/>
<path d="M273.637 221.041C272.633 220.126 272.057 218.738 271.909 216.876" stroke="#191420" stroke-width="2"/>
<path d="M177.532 249.06L178.196 249.432C178.373 249.53 178.52 249.673 178.621 249.845C180.265 252.595 182.148 254.669 185.261 258.404C186.88 260.349 188.775 262.006 190.469 263.767C191.381 264.715 192.5 265.75 193.824 266.872C197.388 269.879 201.433 272.693 205.96 275.314C207.37 276.132 208.781 276.704 210.237 277.572C210.958 278 212.3 278.568 214.264 279.274C217.575 280.462 221.174 281.41 225.06 282.116C228.886 282.812 233.055 282.774 237.567 282.004C239.941 281.6 242.515 280.667 245.292 279.203C246.625 278.502 248.201 277.398 250.02 275.89C252.215 274.074 254.999 271.783 258.337 269.989C261.083 268.507 263.32 266.897 265.29 264.81C266.705 263.308 268.165 261.046 269.021 259.731C269.38 259.18 269.643 258.221 270.056 257.549C270.876 256.216 271.592 254.669 272.201 252.908C273.636 248.763 274.46 244.717 274.671 240.772C274.682 240.597 274.673 240.28 274.642 239.821C274.639 239.775 274.647 239.73 274.664 239.687C274.682 239.644 274.708 239.606 274.742 239.575C274.845 239.48 274.961 239.443 275.089 239.462" stroke="#191420" stroke-width="2"/>
<path d="M249.774 180.198C252.709 183.086 254.619 185.123 255.504 186.308C256.773 188.002 258.055 189.68 259.352 191.341" stroke="#875C37" stroke-width="2"/>
<path d="M163.335 197.901L163.493 197.196" stroke="#795232" stroke-width="2"/>
<path d="M262.281 195.589L259.351 191.341" stroke="#97723C" stroke-width="2"/>
<path d="M170.613 236.691C172.61 240.759 174.917 244.882 177.532 249.06" stroke="#97723C" stroke-width="2"/>
<path d="M271.908 216.877C270.915 213.19 269.772 209.942 268.482 207.132C267.349 204.667 265.765 201.664 263.728 198.122" stroke="#875C37" stroke-width="2"/>
<path d="M263.73 198.122L262.282 195.589" stroke="#795232" stroke-width="2"/>
<path d="M217.82 161.924C211.463 160.458 205.252 160.534 199.187 162.154" stroke="#97723C" stroke-width="2"/>
<path d="M163.335 197.901C162.943 201.741 162.833 205.167 163.006 208.18C163.504 216.88 165.612 225.339 169.332 233.557" stroke="#97723C" stroke-width="2"/>
<path d="M249.774 180.198L247.299 177.907" stroke="#795232" stroke-width="2"/>
<path d="M169.006 233.657C169.148 233.673 169.257 233.64 169.332 233.557" stroke="#DF9D2E" stroke-width="2"/>
<path d="M169.332 233.557C169.913 234.491 170.34 235.536 170.613 236.691" stroke="#795232" stroke-width="2"/>
<path d="M247.299 177.907C246.198 176.78 244.508 175.349 242.229 173.613C235.727 168.663 228.841 164.87 221.25 162.879C220.074 162.571 218.93 162.252 217.82 161.924" stroke="#875C37" stroke-width="2"/>
<path d="M191.642 165.721C189.887 166.979 188.681 167.698 188.024 167.879C184.847 168.764 181.834 169.978 178.985 171.522" stroke="#9893A0" stroke-width="2"/>
<path d="M167.499 184.021C165.905 187.267 164.88 190.052 164.424 192.375C164.109 193.97 163.799 195.576 163.493 197.196" stroke="#9893A0" stroke-width="2"/>
<path d="M178.984 171.522C176.002 173.436 173.846 175.224 172.516 176.885C171.514 178.134 170.489 179.354 169.44 180.545" stroke="#97723C" stroke-width="2"/>
<path d="M199.186 162.153L196.624 163.067" stroke="#875C37" stroke-width="2"/>
<path d="M196.625 163.068L191.642 165.722" stroke="#878191" stroke-width="2"/>
<path d="M168.255 179.931C168.803 179.992 169.198 180.197 169.44 180.545" stroke="#EDCC8D" stroke-width="2"/>
<path d="M256.957 268.14C258.2 268.95 258.889 268.783 260.17 267.84C261.58 266.796 263.125 265.82 264.568 263.938C266.547 261.359 267.995 259.268 269.292 256.292C270.308 253.967 270.855 252.69 270.933 252.461C271.38 251.129 271.959 248.822 272.669 245.542C273.142 243.347 273.4 240.992 273.445 238.477C273.551 232.693 272.876 227.104 271.421 221.709C270.28 217.483 269.245 214.135 268.316 211.664C266.566 207.013 264.075 201.994 260.842 196.608C260.277 195.667 259.824 194.979 259.481 194.542C258.188 192.906 257.178 191.061 255.909 189.471C250.481 182.683 244.221 176.843 237.13 171.952C234.442 170.104 230.782 168.443 228.7 167.103C228.233 166.805 227.72 166.585 227.181 166.452C226.944 166.394 225.151 165.784 221.802 164.624C216.104 162.646 210.048 162.012 203.636 162.721C198.665 163.272 194.179 165.405 189.706 167.596C189.685 167.606 189.667 167.622 189.655 167.642C189.643 167.662 189.637 167.685 189.638 167.709C189.639 167.732 189.646 167.755 189.66 167.774C189.673 167.793 189.692 167.808 189.714 167.817C189.839 167.867 189.96 167.885 190.077 167.871C194.309 167.434 198.45 167.607 202.501 168.388C210.967 170.027 218.637 173.38 225.512 178.446C227.485 179.898 229.126 180.879 230.807 182.339C233.478 184.66 235.855 186.869 237.939 188.966C240.577 191.621 243.423 195.255 245.706 198.185C246.855 199.66 248.894 202.828 251.824 207.691C252.988 209.628 253.656 211.456 254.561 213.259C255.212 214.555 255.826 215.977 256.401 217.524C257.603 220.754 258.686 224.078 259.648 227.497C260.9 231.938 261.597 237.029 261.935 240.772C262.383 245.744 262.094 250.724 261.067 255.712C260.199 259.947 259.351 262.979 258.521 264.81C258.424 265.026 258.307 265.235 258.171 265.432C257.534 266.361 257.089 267.129 256.836 267.735C256.805 267.806 256.801 267.886 256.823 267.96C256.845 268.034 256.892 268.098 256.957 268.14Z" stroke="#4F347A" stroke-width="2"/>
<path d="M199.404 269.321C204.941 273.527 212.023 277.171 218.901 279.241C225.478 281.221 232.085 281.483 238.723 280.025C240.217 279.697 241.59 279.224 242.842 278.606C263.02 268.666 262.682 242.529 256.948 224.501C250.534 204.319 237.096 186.829 218.684 176.196C213.462 173.183 207.281 171.056 200.142 169.815C197.413 169.344 193.323 169.294 190.707 169.598C183.212 170.466 176.722 174.064 172.228 180.094C170.887 181.894 170.101 183.004 169.87 183.424C167.9 187.051 166.122 191.228 165.426 195.18C164.29 201.623 164.353 207.654 165.204 214.026C165.591 216.933 166.326 220.136 167.408 223.633C168.813 228.17 170.429 232.364 172.257 236.215C173.872 239.616 175.224 241.757 177.469 245.726C177.901 246.482 178.463 247.317 179.155 248.23C180.633 250.174 182.118 252.378 183.783 254.418C186.635 257.907 189.846 261.274 193.415 264.518C195.41 266.333 197.438 267.827 199.404 269.321Z" stroke="#694B9D" stroke-width="2"/>
<path d="M200.923 229.617C199.863 228.379 199.137 227.488 198.745 226.942C194.68 221.279 191.688 216.768 188.408 212.649C188.328 212.55 188.214 212.485 188.088 212.467C187.963 212.448 187.836 212.477 187.732 212.549L179.556 218.158C179.477 218.213 179.419 218.295 179.395 218.389C179.37 218.483 179.38 218.583 179.423 218.671C179.693 219.219 179.957 219.687 180.216 220.073C183.997 225.749 188.092 231.662 192.502 237.814C195.298 241.716 197.397 244.962 200.209 249.048C200.873 250.012 201.737 250.734 202.288 251.464C202.327 251.515 202.381 251.552 202.442 251.57C202.504 251.588 202.57 251.586 202.63 251.564C203.014 251.42 203.594 251.09 204.37 250.575C209.67 247.053 214.031 243.902 218.304 241.019C230.557 232.753 237.821 227.893 240.097 226.437C240.965 225.884 241.481 225.553 241.645 225.444C241.689 225.416 241.727 225.38 241.756 225.336C241.786 225.293 241.806 225.245 241.816 225.193C241.826 225.142 241.826 225.089 241.815 225.037C241.804 224.986 241.783 224.937 241.754 224.893L231.183 209.478C231.154 209.436 231.118 209.401 231.076 209.374C231.034 209.347 230.987 209.328 230.938 209.319C230.889 209.311 230.838 209.311 230.789 209.322C230.74 209.333 230.694 209.353 230.653 209.382L201.111 229.642C201.083 229.663 201.048 229.671 201.013 229.667C200.978 229.662 200.946 229.645 200.923 229.617Z" stroke="#D0B7FC" stroke-width="2"/>
<path d="M217.819 161.924C218.929 162.252 220.072 162.571 221.249 162.88C228.84 164.87 235.726 168.664 242.228 173.613C244.506 175.349 246.197 176.781 247.298 177.907L249.773 180.198C252.708 183.086 254.618 185.123 255.503 186.308C256.771 188.002 258.054 189.68 259.35 191.341L262.28 195.589L263.728 198.122C265.765 201.664 267.349 204.667 268.481 207.132C269.772 209.942 270.914 213.19 271.908 216.877C272.055 218.738 272.631 220.126 273.635 221.041C273.46 221.028 273.361 221.196 273.339 221.546C273.328 221.708 273.349 221.922 273.402 222.189C274.24 226.283 274.946 230.151 275 234.533C275.019 236.183 275.049 237.826 275.088 239.462C274.96 239.442 274.844 239.48 274.741 239.575C274.707 239.606 274.681 239.644 274.663 239.687C274.646 239.729 274.638 239.775 274.641 239.821C274.672 240.28 274.681 240.597 274.67 240.772C274.459 244.717 273.635 248.763 272.2 252.908C271.59 254.669 270.875 256.216 270.055 257.548C269.642 258.22 269.379 259.18 269.02 259.731C268.164 261.046 266.704 263.307 265.289 264.81C263.319 266.896 261.082 268.507 258.336 269.989C254.998 271.783 252.214 274.074 250.019 275.89C248.2 277.398 246.624 278.502 245.291 279.203C242.514 280.667 239.94 281.6 237.566 282.003C233.054 282.774 228.885 282.812 225.059 282.116C221.173 281.409 217.574 280.462 214.263 279.274C212.299 278.567 210.957 278 210.236 277.571C208.78 276.703 207.369 276.132 205.959 275.314C201.432 272.693 197.387 269.879 193.823 266.871C192.499 265.75 191.38 264.715 190.468 263.767C188.774 262.005 186.879 260.349 185.26 258.404C182.146 254.669 180.264 252.595 178.62 249.845C178.519 249.673 178.372 249.53 178.194 249.432L177.531 249.06C174.916 244.881 172.609 240.758 170.612 236.691C170.339 235.536 169.912 234.492 169.331 233.557C165.611 225.338 163.502 216.879 163.004 208.18C162.832 205.167 162.941 201.74 163.334 197.901L163.492 197.196C163.798 195.577 164.109 193.97 164.423 192.376C164.879 190.053 165.904 187.268 167.499 184.021L169.439 180.545C170.488 179.354 171.513 178.134 172.515 176.885C173.845 175.224 176.001 173.436 178.983 171.522C181.832 169.978 184.845 168.764 188.022 167.879C188.679 167.698 189.885 166.979 191.64 165.722L196.623 163.067L199.186 162.154C205.251 160.534 211.462 160.458 217.819 161.924ZM256.955 268.14C258.199 268.95 258.887 268.783 260.168 267.84C261.579 266.796 263.123 265.82 264.567 263.938C266.545 261.359 267.993 259.268 269.291 256.292C270.306 253.966 270.853 252.689 270.931 252.461C271.379 251.129 271.958 248.822 272.667 245.542C273.14 243.347 273.399 240.992 273.443 238.477C273.549 232.693 272.874 227.104 271.419 221.709C270.279 217.483 269.244 214.135 268.314 211.664C266.565 207.013 264.073 201.994 260.84 196.607C260.276 195.667 259.822 194.978 259.48 194.542C258.186 192.906 257.176 191.061 255.908 189.471C250.48 182.683 244.22 176.843 237.128 171.952C234.441 170.103 230.781 168.443 228.698 167.103C228.231 166.804 227.718 166.585 227.179 166.452C226.943 166.393 225.15 165.784 221.8 164.624C216.102 162.646 210.047 162.012 203.634 162.721C198.664 163.272 194.178 165.404 189.704 167.595C189.683 167.606 189.665 167.622 189.653 167.642C189.641 167.662 189.635 167.685 189.636 167.709C189.637 167.732 189.645 167.755 189.658 167.774C189.672 167.793 189.691 167.808 189.712 167.817C189.838 167.867 189.959 167.885 190.076 167.871C194.307 167.434 198.448 167.607 202.499 168.388C210.965 170.027 218.635 173.379 225.51 178.446C227.484 179.898 229.124 180.879 230.806 182.339C233.477 184.66 235.854 186.869 237.938 188.966C240.575 191.62 243.421 195.255 245.704 198.185C246.853 199.659 248.892 202.828 251.822 207.691C252.986 209.628 253.654 211.456 254.56 213.258C255.211 214.555 255.824 215.977 256.4 217.523C257.602 220.753 258.684 224.078 259.647 227.497C260.899 231.938 261.596 237.029 261.934 240.772C262.382 245.744 262.092 250.724 261.066 255.712C260.198 259.947 259.349 262.979 258.52 264.81C258.423 265.026 258.305 265.234 258.169 265.432C257.532 266.361 257.087 267.129 256.834 267.735C256.804 267.806 256.799 267.886 256.821 267.96C256.843 268.034 256.891 268.097 256.955 268.14ZM199.403 269.321C204.94 273.528 212.022 277.171 218.9 279.241C225.477 281.222 232.084 281.483 238.722 280.025C240.216 279.697 241.589 279.224 242.841 278.606C263.019 268.666 262.681 242.529 256.947 224.501C250.533 204.319 237.095 186.83 218.683 176.196C213.461 173.183 207.28 171.056 200.141 169.816C197.412 169.344 193.322 169.294 190.706 169.599C183.211 170.467 176.721 174.064 172.227 180.094C170.886 181.894 170.1 183.004 169.869 183.424C167.899 187.051 166.121 191.228 165.425 195.18C164.289 201.624 164.352 207.654 165.203 214.026C165.59 216.934 166.325 220.136 167.407 223.633C168.812 228.171 170.428 232.365 172.256 236.215C173.871 239.616 175.223 241.757 177.468 245.726C177.9 246.483 178.462 247.317 179.154 248.23C180.632 250.174 182.117 252.378 183.782 254.419C186.634 257.907 189.845 261.274 193.414 264.518C195.409 266.333 197.437 267.827 199.403 269.321Z" fill="#312740"/>
<path d="M256.835 267.736C257.088 267.129 257.533 266.361 258.17 265.432C258.306 265.235 258.423 265.027 258.521 264.81C259.35 262.98 260.198 259.947 261.066 255.713C262.093 250.724 262.382 245.744 261.934 240.773C261.596 237.029 260.899 231.938 259.647 227.498C258.685 224.079 257.602 220.754 256.401 217.524C255.825 215.977 255.211 214.555 254.56 213.259C253.655 211.456 252.987 209.628 251.823 207.692C248.893 202.829 246.854 199.66 245.705 198.185C243.422 195.256 240.576 191.621 237.938 188.967C235.855 186.869 233.477 184.66 230.806 182.34C229.125 180.879 227.485 179.898 225.511 178.446C218.636 173.38 210.966 170.027 202.5 168.389C198.449 167.607 194.308 167.435 190.076 167.871C189.959 167.885 189.838 167.867 189.713 167.817C189.691 167.808 189.672 167.794 189.659 167.774C189.645 167.755 189.638 167.733 189.637 167.709C189.636 167.686 189.642 167.663 189.654 167.642C189.666 167.622 189.684 167.606 189.705 167.596C194.178 165.405 198.664 163.272 203.635 162.722C210.048 162.012 216.103 162.646 221.801 164.625C225.15 165.785 226.943 166.394 227.18 166.452C227.719 166.585 228.232 166.805 228.699 167.103C230.781 168.443 234.441 170.104 237.129 171.953C244.22 176.844 250.48 182.683 255.908 189.472C257.177 191.062 258.187 192.906 259.48 194.542C259.823 194.979 260.276 195.668 260.841 196.608C264.074 201.994 266.565 207.013 268.315 211.665C269.244 214.135 270.279 217.484 271.42 221.71C272.875 227.104 273.55 232.693 273.444 238.477C273.399 240.993 273.141 243.348 272.668 245.543C271.958 248.823 271.379 251.129 270.932 252.462C270.854 252.69 270.307 253.967 269.292 256.293C267.994 259.268 266.546 261.359 264.567 263.938C263.124 265.82 261.579 266.797 260.169 267.84C258.888 268.783 258.199 268.95 256.956 268.141C256.891 268.098 256.844 268.034 256.822 267.96C256.8 267.886 256.804 267.807 256.835 267.736Z" fill="#00125C"/>
<path d="M218.9 279.242C212.023 277.172 204.941 273.528 199.403 269.322C197.437 267.828 195.409 266.334 193.414 264.519C189.845 261.275 186.634 257.908 183.783 254.419C182.118 252.379 180.632 250.175 179.155 248.231C178.462 247.318 177.9 246.483 177.469 245.727C175.223 241.758 173.871 239.617 172.256 236.216C170.428 232.365 168.812 228.171 167.407 223.634C166.325 220.137 165.59 216.934 165.204 214.027C164.352 207.655 164.29 201.624 165.425 195.181C166.122 191.229 167.9 187.052 169.869 183.425C170.1 183.005 170.886 181.895 172.227 180.095C176.722 174.065 183.211 170.467 190.706 169.599C193.323 169.295 197.412 169.345 200.142 169.816C207.28 171.057 213.461 173.184 218.683 176.197C237.095 186.83 250.533 204.32 256.947 224.502C262.681 242.53 263.019 268.667 242.842 278.607C241.59 279.225 240.217 279.698 238.723 280.026C232.085 281.484 225.477 281.222 218.9 279.242ZM200.922 229.618C199.862 228.38 199.136 227.488 198.744 226.943C194.679 221.28 191.687 216.769 188.407 212.65C188.327 212.551 188.212 212.486 188.087 212.467C187.962 212.449 187.834 212.478 187.73 212.55L179.555 218.159C179.475 218.213 179.418 218.295 179.394 218.389C179.369 218.484 179.379 218.584 179.422 218.672C179.692 219.22 179.956 219.687 180.215 220.074C183.995 225.75 188.091 231.663 192.5 237.814C195.296 241.716 197.396 244.963 200.208 249.048C200.872 250.013 201.736 250.734 202.287 251.465C202.325 251.516 202.38 251.553 202.441 251.571C202.503 251.589 202.569 251.587 202.629 251.565C203.013 251.42 203.593 251.091 204.369 250.576C209.669 247.054 214.03 243.903 218.303 241.019C230.556 232.754 237.82 227.893 240.096 226.438C240.964 225.885 241.48 225.553 241.644 225.445C241.688 225.417 241.726 225.38 241.755 225.337C241.784 225.294 241.805 225.245 241.815 225.194C241.825 225.142 241.825 225.089 241.814 225.038C241.803 224.986 241.782 224.937 241.752 224.894L231.182 209.478C231.153 209.437 231.117 209.402 231.075 209.375C231.033 209.348 230.986 209.329 230.937 209.32C230.887 209.311 230.837 209.312 230.788 209.323C230.739 209.333 230.693 209.354 230.652 209.382L201.11 229.643C201.082 229.663 201.047 229.672 201.012 229.667C200.977 229.663 200.945 229.645 200.922 229.618Z" fill="#4169E1"/>
<path d="M200.922 229.618C200.945 229.645 200.977 229.662 201.012 229.667C201.047 229.672 201.082 229.663 201.11 229.643L230.652 209.382C230.693 209.353 230.739 209.333 230.788 209.322C230.837 209.312 230.888 209.311 230.937 209.32C230.986 209.328 231.033 209.347 231.075 209.374C231.117 209.401 231.153 209.437 231.182 209.478L241.753 224.894C241.782 224.937 241.803 224.986 241.814 225.037C241.825 225.089 241.825 225.142 241.815 225.193C241.805 225.245 241.785 225.293 241.755 225.337C241.726 225.38 241.688 225.416 241.644 225.444C241.48 225.553 240.964 225.884 240.096 226.438C237.82 227.893 230.556 232.753 218.303 241.019C214.03 243.902 209.669 247.053 204.369 250.575C203.593 251.09 203.013 251.42 202.629 251.564C202.569 251.586 202.503 251.589 202.441 251.571C202.38 251.553 202.326 251.515 202.287 251.464C201.736 250.734 200.872 250.012 200.209 249.048C197.396 244.962 195.297 241.716 192.501 237.814C188.091 231.662 183.996 225.749 180.215 220.073C179.956 219.687 179.692 219.219 179.422 218.671C179.379 218.583 179.369 218.483 179.394 218.389C179.418 218.295 179.476 218.213 179.555 218.158L187.731 212.549C187.835 212.478 187.962 212.448 188.087 212.467C188.213 212.485 188.327 212.55 188.407 212.649C191.687 216.768 194.679 221.28 198.744 226.943C199.136 227.488 199.862 228.38 200.922 229.618Z" fill="white"/>
</svg>
