<svg width="360" height="361" viewBox="0 0 360 361" fill="none" xmlns="http://www.w3.org/2000/svg">
<g clip-path="url(#clip0_18087_8197)">
<path d="M292.433 291.356L359.166 175.365C361.449 171.395 358.816 164.65 354.044 163.695L301.345 165.809C296.31 165.753 291.647 168.452 289.18 172.843L223.716 289.339C221.472 293.333 224.353 298.269 228.93 298.269H280.485C285.414 298.269 289.969 295.632 292.433 291.356Z" fill="#7D73A0" stroke="black" stroke-width="0.44" stroke-miterlimit="10"/>
<path d="M290.651 288.384L357.384 172.393C359.668 168.424 356.84 163.46 352.263 163.41L299.564 162.837C294.529 162.781 289.865 165.48 287.399 169.871L221.935 286.367C219.691 290.361 222.572 295.297 227.149 295.297H278.703C283.633 295.297 288.188 292.66 290.651 288.384Z" fill="#F7F2F7" stroke="black" stroke-width="0.44" stroke-miterlimit="10"/>
<path d="M349.165 163.373L269.528 296.58L255.513 297.024L333.161 163.199L349.165 163.373Z" fill="black" stroke="black" stroke-width="0.44" stroke-miterlimit="10"/>
<path d="M183.627 333.517L189.553 328.494L190.621 329.123C190.918 328.525 191.246 327.94 191.605 327.376C209.138 296.822 226.597 266.229 244.15 235.688C249.46 226.469 258.582 218.285 269.704 218.208C294.222 218.208 318.774 217.802 343.285 217.876L347.181 212.429L353.98 219.956C359.544 224.966 352.269 236.689 348.623 242.304C333.151 269.383 317.681 296.463 302.209 323.542C296.83 332.956 288.615 343.148 276.794 343.653C258.731 344.428 240.473 343.662 222.395 343.666C214.102 343.666 205.809 343.712 197.518 343.666C194.226 343.774 191.992 342.844 190.614 341.307L190.584 341.317L183.627 333.514V333.517Z" fill="#7D73A0" stroke="black" stroke-width="0.44" stroke-miterlimit="10"/>
<path d="M184.264 319.297C201.797 288.744 219.257 258.15 236.809 227.609C242.119 218.391 251.241 210.207 262.363 210.13C288.441 210.13 314.552 209.662 340.614 209.813C341.939 209.82 343.263 210.046 344.485 210.554C353.744 214.403 345.305 228.031 341.282 234.228C325.81 261.308 310.34 288.388 294.868 315.467C289.49 324.881 281.274 335.073 269.453 335.578C251.39 336.352 233.132 335.587 215.054 335.59C206.761 335.59 198.468 335.637 190.178 335.59C179.901 335.928 179.885 326.182 184.264 319.3V319.297Z" fill="#F7F2F7" stroke="black" stroke-width="0.44" stroke-miterlimit="10"/>
<path d="M232.543 235.037C233.963 232.561 235.384 230.082 236.807 227.606C242.118 218.388 251.24 210.204 262.362 210.126C288.439 210.126 314.551 209.659 340.613 209.81C341.937 209.817 343.262 210.043 344.484 210.551C353.634 214.353 345.499 227.712 341.423 234.005C315.993 233.859 236.563 234.981 232.543 235.037Z" fill="#9B90BA" stroke="black" stroke-width="0.44" stroke-miterlimit="10"/>
<path d="M341.452 234.008H341.423C341.433 234.008 341.442 234.008 341.452 234.008Z" fill="white" stroke="#231F20" stroke-width="0.44" stroke-miterlimit="10"/>
<path d="M232.383 235.04C232.383 235.04 232.44 235.04 232.546 235.04H232.383Z" fill="white" stroke="#231F20" stroke-width="0.44" stroke-miterlimit="10"/>
<path d="M232.543 235.037C236.56 234.981 315.993 233.859 341.423 234.005L232.543 235.037Z" fill="white" stroke="#231F20" stroke-width="0.44" stroke-miterlimit="10"/>
<path d="M332.876 221.183C332.065 222.661 331.842 224.876 333.712 225.66C335.342 226.345 337.304 225.555 338.644 224.591C340.065 223.569 341.414 221.905 341.454 220.073C341.476 219.15 341.064 218.264 340.232 217.814C339.526 217.43 338.672 217.396 337.895 217.526C336.048 217.839 334.324 219.06 333.257 220.579C333.12 220.774 332.994 220.975 332.879 221.183H332.876Z" fill="#F7F2F7" stroke="black" stroke-width="0.44" stroke-miterlimit="10"/>
<path d="M321.33 221.183C320.52 222.661 320.297 224.876 322.166 225.66C323.797 226.345 325.759 225.555 327.099 224.591C328.519 223.569 329.868 221.905 329.908 220.073C329.93 219.15 329.518 218.264 328.686 217.814C327.98 217.43 327.126 217.396 326.35 217.526C324.502 217.839 322.779 219.06 321.711 220.579C321.575 220.774 321.448 220.975 321.333 221.183H321.33Z" fill="#FF9500" stroke="#231F20" stroke-width="0.44" stroke-miterlimit="10"/>
<path d="M309.709 221.183C308.898 222.661 308.676 224.876 310.545 225.66C312.175 226.345 314.137 225.555 315.477 224.591C316.898 223.569 318.247 221.905 318.287 220.073C318.309 219.15 317.897 218.264 317.065 217.814C316.359 217.43 315.505 217.396 314.728 217.526C312.881 217.839 311.157 219.06 310.09 220.579C309.954 220.774 309.827 220.975 309.712 221.183H309.709Z" fill="#FF9500" stroke="#231F20" stroke-width="0.44" stroke-miterlimit="10"/>
<path d="M237.957 340.22L237.914 340.108C237.623 339.38 236.92 338.9 236.134 338.9H220.999C220.674 338.9 220.442 339.213 220.538 339.526C220.785 340.331 221.528 340.88 222.367 340.88H237.508C237.849 340.88 238.084 340.536 237.957 340.217V340.22Z" fill="black" stroke="#231F20" stroke-width="0.44" stroke-miterlimit="10"/>
<path d="M330.232 243.428L282.357 324.373C281.228 326.353 279.13 327.577 276.852 327.592L250.747 327.76C248.497 327.775 247.077 325.346 248.191 323.387L296.01 242.443C297.14 240.456 299.241 239.226 301.522 239.211L327.676 239.05C329.926 239.037 331.346 241.47 330.229 243.425L330.232 243.428Z" fill="white" stroke="#231F20" stroke-width="0.44" stroke-miterlimit="10"/>
<path d="M288.825 243.428L240.95 324.373C239.82 326.353 237.722 327.577 235.445 327.592L190.581 327.682C188.331 327.698 186.91 325.268 188.024 323.31L235.844 242.365C236.973 240.379 239.075 239.149 241.355 239.134L286.269 239.053C288.519 239.041 289.939 241.473 288.822 243.428H288.825Z" fill="white" stroke="#231F20" stroke-width="0.44" stroke-miterlimit="10"/>
<path d="M299.236 244.284C299.706 243.456 300.591 242.936 301.545 242.929L324.54 242.79C325.314 242.784 325.796 243.63 325.403 244.296L312.92 265.398C312.403 266.272 311.466 266.808 310.451 266.808H287.678C286.908 266.808 286.428 265.968 286.821 265.302L299.239 244.284H299.236Z" fill="#F7F2F7" stroke="black" stroke-width="0.44" stroke-miterlimit="10"/>
<path d="M278.665 319.709L277.551 321.454C276.969 322.362 275.967 322.913 274.887 322.913H255.617C254.534 322.913 253.863 321.739 254.407 320.803L255.391 319.118C255.958 318.148 256.997 317.55 258.121 317.55H277.486C278.594 317.55 279.262 318.774 278.665 319.709Z" fill="#7D73A0" stroke="black" stroke-width="0.44" stroke-miterlimit="10"/>
<path d="M262.937 306.943L270.302 294.876C270.869 293.906 271.908 293.308 273.032 293.308H292.397C293.505 293.308 294.173 294.532 293.576 295.468L286.081 307.596C285.499 308.504 284.497 309.056 283.417 309.056H264.147C263.064 309.056 262.393 307.881 262.937 306.946V306.943Z" fill="#F7F2F7" stroke="black" stroke-width="0.44" stroke-miterlimit="10"/>
<path d="M275.7 286.181L283.065 274.115C283.631 273.145 284.671 272.547 285.794 272.547H305.16C306.268 272.547 306.936 273.771 306.339 274.707L298.844 286.835C298.262 287.743 297.26 288.294 296.18 288.294H276.91C275.827 288.294 275.155 287.12 275.7 286.184V286.181Z" fill="#F7F2F7" stroke="black" stroke-width="0.44" stroke-miterlimit="10"/>
<path d="M309.006 247.435C309.297 247.466 309.384 247.609 309.393 247.863C309.415 248.566 309.136 249.146 309.817 249.505C310.547 249.889 311.194 249.412 312.097 249.164C312.296 249.108 312.456 249.09 312.596 249.164C312.716 249.229 313.054 249.796 313.078 249.936C313.106 250.109 313.044 250.239 312.896 250.428C312.32 251.154 311.683 251.497 311.605 252.362C311.522 253.279 312.255 253.267 312.859 253.633C313.06 253.753 313.103 253.911 313.001 254.184C312.908 254.435 312.661 255.036 312.419 255.231C312.067 255.517 311.089 255.678 310.615 255.901C310.166 256.115 309.631 256.672 309.433 257.066C309.189 257.546 309.334 258.116 309.294 258.569C309.257 258.99 308.994 259.151 308.591 259.427C308.35 259.591 307.935 259.889 307.685 259.904C307.366 259.923 306.868 259.545 306.611 259.415C306.125 259.176 304.965 259.508 304.448 260.069C304.148 260.394 303.872 260.769 303.569 261.094C303.343 261.339 303.108 261.494 302.802 261.522C302.585 261.54 302.359 261.503 302.142 261.516C302.074 261.491 301.988 261.497 301.913 261.482C301.706 261.432 301.653 261.299 301.644 261.103C301.613 260.481 301.882 259.901 301.35 259.517C300.635 258.999 299.939 259.489 298.964 259.771C298.72 259.842 298.565 259.861 298.407 259.752C298.287 259.669 297.965 259.111 297.959 258.959C297.94 258.597 298.556 258.082 298.856 257.738C299.261 257.273 299.453 256.899 299.441 256.424C299.419 255.675 298.779 255.644 298.228 255.34C298.101 255.269 297.987 255.176 297.98 255.018C297.974 254.81 298.299 254.076 298.466 253.859C298.605 253.682 298.81 253.574 299.011 253.499C299.88 253.177 300.595 253.158 301.282 252.337C301.746 251.779 301.737 251.482 301.746 250.968C301.753 250.676 301.657 250.252 301.898 249.945C302.031 249.775 302.792 249.263 303.006 249.155C303.291 249.009 303.448 249.012 303.659 249.102C303.928 249.217 304.154 249.393 304.405 249.527C304.859 249.765 306.001 249.455 306.53 248.944C306.88 248.606 307.366 247.86 307.731 247.606C307.886 247.497 308.037 247.457 308.198 247.429L309.006 247.435ZM301.558 256.186C301.864 258.296 304.853 258.628 307.298 256.787C310.278 254.547 310.213 251.126 307.202 250.958C304.401 250.806 301.211 253.791 301.558 256.186Z" fill="#9B90BA" stroke="black" stroke-width="0.44" stroke-miterlimit="10"/>
<path d="M149.955 284.452C167.488 253.899 184.947 223.305 202.5 192.764C207.81 183.546 216.932 175.362 228.054 175.285C254.131 175.285 280.243 174.817 306.305 174.969C307.629 174.975 308.954 175.201 310.176 175.709C319.435 179.558 310.996 193.186 306.973 199.383C291.501 226.463 276.031 253.543 260.559 280.622C255.18 290.036 246.965 300.228 235.143 300.733C217.081 301.508 198.823 300.742 180.745 300.745C172.452 300.745 164.159 300.792 155.868 300.745C145.591 301.083 145.576 291.338 149.955 284.455V284.452Z" fill="#BF6A04" stroke="#231F20" stroke-width="0.44" stroke-miterlimit="10"/>
<path d="M141.028 289.196L146.954 284.173L148.021 284.802C148.319 284.204 148.647 283.619 149.005 283.055C166.539 252.501 183.998 221.908 201.55 191.367C206.86 182.148 215.983 173.964 227.105 173.887C251.623 173.887 276.174 173.481 300.686 173.555L304.582 168.108L310.749 175.198C316.313 180.208 309.038 191.931 305.393 197.546C289.92 224.625 274.451 251.705 258.978 278.784C253.6 288.198 245.22 298.223 233.396 298.731C215.333 299.506 197.076 298.74 178.997 298.743C170.704 298.743 162.411 298.79 154.121 298.743C150.828 298.852 149.392 298.523 148.012 296.989L147.186 296.398L141.028 289.199V289.196Z" fill="#D3B49B" stroke="#231F20" stroke-width="0.44" stroke-miterlimit="10"/>
<path d="M142.594 276.089C160.128 245.535 177.587 214.942 195.139 184.401C200.449 175.182 209.572 166.998 220.694 166.921C246.771 166.921 272.882 166.453 298.944 166.605C300.269 166.611 301.593 166.837 302.816 167.346C312.074 171.194 303.636 184.822 299.613 191.02C284.14 218.099 268.671 245.179 253.198 272.259C247.82 281.673 239.604 291.864 227.783 292.369C209.72 293.144 191.463 292.379 173.385 292.382C165.091 292.382 156.798 292.428 148.508 292.382C138.231 292.719 138.216 282.974 142.594 276.092V276.089Z" fill="#B78767" stroke="#231F20" stroke-width="0.44" stroke-miterlimit="10"/>
<path d="M141.665 274.973C159.198 244.42 176.657 213.826 194.209 183.285C199.52 174.067 208.642 165.883 219.764 165.805C245.841 165.805 271.953 165.338 298.015 165.489C299.339 165.496 300.664 165.722 301.886 166.23C311.145 170.079 302.706 183.707 298.683 189.904C283.211 216.984 267.741 244.063 252.269 271.143C246.89 280.557 228.986 293.903 205.99 291.595C194.801 291.554 183.592 291.263 172.455 291.266C164.162 291.266 155.868 291.313 147.578 291.266C137.301 291.604 137.286 281.858 141.665 274.976V274.973Z" fill="#FFE2C8" stroke="#231F20" stroke-width="0.44" stroke-miterlimit="10"/>
<path d="M217.508 165.933C218.251 165.855 219 165.812 219.761 165.806Z" fill="white"/>
<path d="M217.508 165.933C218.251 165.855 219 165.812 219.761 165.806" stroke="#231F20" stroke-width="0.44" stroke-miterlimit="10"/>
<path d="M248.626 276.891H140.596" stroke="#686253" stroke-width="0.44" stroke-miterlimit="10"/>
<path d="M258.269 260.639H149.794" stroke="#686253" stroke-width="0.44" stroke-miterlimit="10"/>
<path d="M267.555 244.386H158.99" stroke="#686253" stroke-width="0.44" stroke-miterlimit="10"/>
<path d="M276.842 228.133H168.497" stroke="#686253" stroke-width="0.44" stroke-miterlimit="10"/>
<path d="M286.126 211.88H177.805" stroke="#686253" stroke-width="0.44" stroke-miterlimit="10"/>
<path d="M295.412 195.628H187.122" stroke="#686253" stroke-width="0.44" stroke-miterlimit="10"/>
<path d="M304.473 179.375H196.744" stroke="#686253" stroke-width="0.44" stroke-miterlimit="10"/>
<path d="M289.444 165.933C273.971 193.012 218.635 291.502 218.635 291.502" stroke="#686253" stroke-width="0.44" stroke-miterlimit="10"/>
<path d="M265.421 165.933C249.948 193.012 194.612 291.502 194.612 291.502" stroke="#686253" stroke-width="0.44" stroke-miterlimit="10"/>
<path d="M241.394 165.933C225.921 193.012 170.585 291.502 170.585 291.502" stroke="#686253" stroke-width="0.44" stroke-miterlimit="10"/>
<path d="M218.633 165.744C203.161 192.823 147.825 291.313 147.825 291.313" stroke="#686253" stroke-width="0.44" stroke-miterlimit="10"/>
<path d="M258.019 242.524C257.935 242.623 257.827 242.663 257.7 242.638C257.573 242.617 257.484 242.542 257.44 242.421L246.309 211.976C245.907 210.876 244.994 210.043 243.862 209.742C242.732 209.442 241.525 209.714 240.631 210.474L218.177 229.512C217.812 229.822 217.373 230.042 216.905 230.15L198.013 234.479L197.292 238.449C197.354 238.439 197.413 238.433 197.475 238.418L217.741 233.776C218.781 233.534 219.762 233.041 220.575 232.35L242.884 213.436L253.95 243.701C254.451 245.077 255.611 246.047 257.054 246.301C258.492 246.555 259.916 246.037 260.857 244.919L277.74 226.559L286.13 211.874L258.016 242.527L258.019 242.524Z" fill="#FF9500" stroke="#231F20" stroke-width="0.44" stroke-miterlimit="10"/>
<path d="M307.254 170.964C307.694 171.426 308.037 171.941 308.297 172.492" stroke="#686253" stroke-width="0.44" stroke-miterlimit="10"/>
<path d="M307.583 181.857C306.429 184.878 304.718 187.921 303.186 190.412" stroke="#686253" stroke-width="0.44" stroke-miterlimit="10" stroke-dasharray="7.36 7.36"/>
<path d="M301.471 193.126C286.027 220.156 270.585 247.19 255.14 274.22C249.762 283.634 241.546 293.825 229.725 294.33C211.662 295.102 193.405 294.34 175.327 294.343C167.033 294.343 158.74 294.389 150.45 294.343C150.196 294.352 149.952 294.352 149.71 294.349" stroke="#686253" stroke-width="0.44" stroke-miterlimit="10" stroke-dasharray="4.42 11.04 7.36 7.36"/>
<path d="M146.549 293.875C145.921 293.674 145.361 293.413 144.866 293.1" stroke="#686253" stroke-width="0.44" stroke-miterlimit="10"/>
<path d="M309.23 174.274C309.67 174.736 310.013 175.25 310.273 175.802" stroke="#686253" stroke-width="0.44" stroke-miterlimit="10"/>
<path d="M305.99 192.352C305.115 193.836 304.254 195.184 303.533 196.291C302.84 197.502 302.15 198.714 301.457 199.925" stroke="#686253" stroke-width="0.44" stroke-miterlimit="10" stroke-dasharray="6.75 6.75"/>
<path d="M299.996 202.482C285.703 227.498 271.412 252.514 257.119 277.527C251.74 286.94 243.524 297.132 231.703 297.637C213.641 298.412 195.383 297.646 177.305 297.65C170.612 297.65 163.918 297.681 157.225 297.668" stroke="#686253" stroke-width="0.44" stroke-miterlimit="10" stroke-dasharray="4.05 20.24 6.75 6.75"/>
<path d="M154.285 297.659C153.666 297.659 153.047 297.652 152.428 297.649" stroke="#686253" stroke-width="0.44" stroke-miterlimit="10"/>
<path d="M297.33 165.771C298.655 165.778 299.425 163.574 300.651 164.083C311.831 170.534 302.86 183.474 298.834 189.672C297.185 192.56 294.712 196.855 293.063 199.743L278.045 165.932C284.083 165.914 291.296 165.737 297.33 165.771Z" fill="#BF6A04" stroke="#231F20" stroke-width="0.44" stroke-miterlimit="10"/>
<path d="M193.525 183.57C198.836 174.352 207.958 166.168 219.08 166.091C239.12 166.091 258.163 166.515 278.207 166.453L293.063 199.743L184.755 198.853C187.677 193.756 190.601 188.662 193.525 183.567V183.57Z" fill="#BF6A04" stroke="#231F20" stroke-width="0.44" stroke-linejoin="round"/>
<path d="M191.492 180.342C196.803 171.123 205.925 162.939 217.047 162.862C243.124 162.865 269.236 162.394 295.298 162.546C296.622 162.552 297.947 162.778 299.169 163.286C308.428 167.135 299.989 180.763 295.966 186.961C294.317 189.849 292.664 192.74 291.015 195.628H182.723C185.644 190.53 188.568 185.436 191.492 180.342Z" fill="#FF9500" stroke="#231F20" stroke-width="0.44" stroke-miterlimit="10"/>
<path d="M100.137 243.506L106.933 240.227L108 240.856C108.297 240.258 108.625 239.672 108.984 239.109C126.518 208.555 143.977 177.962 161.529 147.421C166.839 138.202 175.962 130.018 187.084 129.941C211.601 129.941 236.153 129.535 260.665 129.609L263.527 123.207L271.363 131.689C276.927 136.699 269.651 148.422 266.006 154.036C250.533 181.116 235.064 208.196 219.591 235.275C214.213 244.689 205.997 254.881 194.176 255.386C176.114 256.161 157.856 255.395 139.778 255.398C131.484 255.398 123.191 255.445 114.901 255.398C111.608 255.507 109.374 254.577 107.997 253.04L107.966 253.05L100.14 243.502L100.137 243.506Z" fill="#00125C" stroke="#231F20" stroke-width="0.44" stroke-miterlimit="10"/>
<path d="M101.398 229.943C118.829 199.411 136.168 168.827 153.621 138.307C158.922 129.064 168.066 121.001 179.185 120.986C205.281 121.153 231.423 120.694 257.501 121.014C258.828 121.029 260.153 121.274 261.369 121.807C270.485 125.81 262.084 139.305 258.098 145.515C242.703 172.613 227.304 199.712 211.909 226.81C206.574 236.199 198.278 246.232 186.516 246.601C168.481 247.165 150.316 246.453 132.275 246.378C123.948 246.344 115.617 246.356 107.29 246.276C97.0997 246.533 97.0687 236.781 101.401 229.943H101.398Z" fill="white" stroke="#231F20" stroke-width="0.44" stroke-miterlimit="10"/>
<path d="M101.398 229.943C118.829 199.411 136.168 168.827 153.621 138.307C158.922 129.064 168.066 121.001 179.185 120.986C205.281 121.153 231.423 120.694 257.501 121.014C258.828 121.029 260.153 121.274 261.369 121.807C270.485 125.81 262.084 139.305 258.098 145.515C242.703 172.613 227.304 199.712 211.909 226.81C206.574 236.199 198.278 246.232 186.516 246.601C168.481 247.165 150.316 246.453 132.275 246.378C123.948 246.344 115.617 246.356 107.29 246.276C97.0997 246.533 97.0687 236.781 101.401 229.943H101.398Z" fill="#CCD9FD" stroke="#231F20" stroke-width="0.44" stroke-miterlimit="10"/>
<path d="M171.385 243.1C176.897 243.1 181.808 243.028 186.403 242.886C194.582 242.629 202.077 236.602 208.687 224.972L254.925 143.591L254.977 143.507C256.93 140.461 262.875 131.199 261.584 126.92C261.42 126.374 261.089 125.748 259.879 125.215C259.177 124.906 258.363 124.744 257.456 124.735C251.081 124.658 244.122 124.617 236.181 124.617C228.826 124.617 221.34 124.648 214.102 124.679C206.855 124.71 199.36 124.741 191.985 124.741C187.347 124.741 183.151 124.729 179.159 124.704C170.735 124.717 162.38 130.493 156.838 140.157C147.143 157.114 137.315 174.38 127.811 191.075C120.214 204.422 112.361 218.223 104.618 231.786L104.575 231.861L104.528 231.932C102.517 235.111 101.802 238.975 102.87 240.918C103.093 241.324 103.773 242.561 106.893 242.561C106.989 242.561 107.088 242.561 107.19 242.557H107.255H107.32C112.868 242.613 118.516 242.626 123.98 242.638C126.75 242.644 129.517 242.65 132.286 242.663C138.317 242.688 144.454 242.787 150.389 242.88C157.274 242.988 164.395 243.103 171.379 243.103L171.385 243.1Z" fill="#4169E1" stroke="#231F20" stroke-width="0.44" stroke-miterlimit="10"/>
<path opacity="0.5" d="M216.385 124.875L238.839 171.476L227.591 191.317L196.896 124.946L216.385 124.875Z" fill="white"/>
<path opacity="0.5" d="M206.26 228.926L163.828 131.295C165.976 129.33 168.281 127.762 170.68 126.656L213.755 216.051L208.686 224.972C207.891 226.373 207.083 227.69 206.263 228.926H206.26Z" fill="white"/>
<path opacity="0.5" d="M156.844 140.16C158.354 137.53 160.074 135.19 161.943 133.173L204.592 231.303C199.034 238.789 192.935 242.684 186.399 242.889C185.375 242.92 184.335 242.948 183.277 242.973L145.177 160.59C149.067 153.767 152.963 146.94 156.841 140.16H156.844Z" fill="white"/>
<path opacity="0.5" d="M123.921 242.437L114.79 214.359L106.283 229.292L110.423 242.381L123.921 242.437Z" fill="white"/>
<path d="M136.652 210.52L136.664 210.511C141.13 217.799 150.407 222.131 163.438 221.781C189.497 221.08 220.692 201.918 233.12 178.978C239.334 167.507 239.677 157.266 235.209 149.977L235.221 149.971L230.595 142.451L228.85 143.523C223.837 140.244 216.936 138.478 208.435 138.707C182.376 139.408 151.181 158.57 138.753 181.51C134.699 188.993 133.146 195.953 133.792 201.912L132.063 203.009L136.646 210.52H136.652Z" fill="#A4A5A5" stroke="#231F20" stroke-width="0.44" stroke-miterlimit="10"/>
<path d="M203.813 131.171C229.872 130.471 240.923 148.505 228.498 171.445C216.074 194.388 184.875 213.55 158.816 214.248C132.757 214.948 121.707 196.913 134.131 173.974C146.555 151.031 177.754 131.868 203.813 131.171Z" fill="#C4C4C4" stroke="#231F20" stroke-width="0.44" stroke-miterlimit="10"/>
<path d="M201.26 135.255C224.333 134.239 233.83 149.736 222.473 169.868C211.116 190 183.207 207.142 160.137 208.159C137.064 209.175 127.567 193.679 138.924 173.546C150.281 153.414 178.191 136.272 201.26 135.255Z" fill="#A4A5A5" stroke="#231F20" stroke-width="0.44" stroke-miterlimit="10"/>
<path d="M202.323 136.981C225.154 135.568 234.258 150.424 222.66 170.159C211.062 189.895 183.152 207.04 160.324 208.45C137.493 209.863 128.389 195.008 139.987 175.272C151.585 155.537 179.495 138.391 202.323 136.981Z" fill="#D0D1D1" stroke="#231F20" stroke-width="0.44" stroke-miterlimit="10"/>
<path fill-rule="evenodd" clip-rule="evenodd" d="M168.953 189.399C169.031 189.526 169.216 189.566 169.337 189.445C177.639 181.321 188.439 174.686 199.434 170.959C199.611 170.9 199.648 170.692 199.546 170.565L198.432 168.749L197.116 169.239C191.59 165.799 188.693 160.225 188.969 153.383C188.969 153.321 188.95 153.265 188.919 153.222L187.786 151.372L186.957 154.709C178.893 162.143 168.758 168.188 158.457 171.681C158.243 171.752 158.228 172.046 158.432 172.139C164.107 174.745 167.644 179.229 168.644 184.928L167.808 187.521L168.956 189.393L168.953 189.399Z" fill="#A4A5A5" stroke="#231F20" stroke-width="0.44" stroke-miterlimit="10"/>
<path fill-rule="evenodd" clip-rule="evenodd" d="M187.384 151.257C179.082 159.382 168.282 166.016 157.287 169.744C157.074 169.815 157.058 170.109 157.262 170.202C164.309 173.438 168.062 179.564 167.753 187.317C167.744 187.543 168.013 187.661 168.174 187.503C176.476 179.378 187.276 172.743 198.271 169.016C198.484 168.944 198.5 168.65 198.296 168.557C191.249 165.322 187.496 159.196 187.805 151.443C187.815 151.217 187.545 151.099 187.384 151.257Z" fill="#C4C4C4" stroke="#231F20" stroke-width="0.44" stroke-miterlimit="10"/>
<path fill-rule="evenodd" clip-rule="evenodd" d="M157.163 170.144L158.426 170.835C164.005 173.779 165.834 178.089 165.834 178.089C163.436 174.417 159.116 172.452 158.426 172.158C158.364 172.13 158.311 172.087 158.277 172.028L157.163 170.144Z" fill="#4169E1" stroke="#231F20" stroke-width="0.44" stroke-linejoin="round"/>
<path d="M171.386 243.1C176.897 243.1 181.808 243.028 186.404 242.886C194.582 242.629 202.077 236.602 208.687 224.972L254.925 143.591L254.978 143.507C256.931 140.461 262.875 131.199 261.585 126.92C261.421 126.374 261.09 125.748 259.88 125.215C259.177 124.906 258.363 124.744 257.457 124.735C251.082 124.658 244.122 124.617 236.182 124.617C228.826 124.617 221.341 124.648 214.103 124.679C206.855 124.71 199.36 124.741 191.986 124.741C187.347 124.741 183.151 124.729 179.159 124.704C170.736 124.717 162.381 130.493 156.839 140.157C147.144 157.114 137.315 174.38 127.812 191.075C120.215 204.422 112.361 218.223 104.619 231.786L104.575 231.861L104.529 231.932C102.518 235.111 101.803 238.975 102.87 240.918C103.093 241.324 103.774 242.561 106.893 242.561C106.989 242.561 107.088 242.561 107.19 242.557H107.255H107.32C112.869 242.613 118.516 242.626 123.981 242.638C126.751 242.644 129.517 242.65 132.287 242.663C138.318 242.688 144.454 242.787 150.39 242.88C157.275 242.988 164.395 243.103 171.38 243.103L171.386 243.1Z" stroke="#231F20" stroke-width="0.44" stroke-miterlimit="10"/>
<path opacity="0.92" d="M64.4414 201.834C72.7347 201.878 81.028 201.834 89.3182 201.834C107.396 201.834 125.654 202.596 143.717 201.822C155.538 201.317 163.754 191.128 169.132 181.711C184.604 154.631 200.074 127.552 215.546 100.472C219.065 95.0525 225.956 83.9529 221.441 78.6758L228.24 86.2026C233.804 91.2132 226.529 102.936 222.883 108.55C207.411 135.63 191.941 162.71 176.469 189.789C171.091 199.203 162.875 209.395 151.054 209.9C132.991 210.675 114.733 209.909 96.6552 209.912C88.3619 209.912 80.0687 209.959 71.7785 209.912C68.4859 210.021 66.2517 209.091 64.8746 207.554L64.8437 207.564L58.1967 200.108C59.5923 201.258 61.6285 201.924 64.4383 201.831L64.4414 201.834Z" fill="#929A9B" stroke="#231F20" stroke-width="0.44" stroke-miterlimit="10"/>
<path d="M58.5289 185.541C76.0624 154.988 93.5216 124.394 111.074 93.8533C116.384 84.6347 125.506 76.4509 136.628 76.3735C162.706 76.3735 188.817 75.9056 214.879 76.0574C216.203 76.0636 217.528 76.2898 218.75 76.798C224.079 79.3606 222.693 83.2588 222.86 84.4084C198.348 84.3341 168.486 84.4549 143.968 84.4518C132.847 84.5293 123.724 92.713 118.414 101.932C100.862 132.473 61.8957 201.032 61.5986 201.63C53.4136 199.808 55.3477 190.542 58.5289 185.541Z" fill="#929A9B" stroke="#231F20" stroke-width="0.44" stroke-miterlimit="10"/>
<g opacity="0.8">
<path d="M58.5269 185.541C76.0604 154.988 93.5196 124.394 111.072 93.8533C116.382 84.6346 125.504 76.4509 136.626 76.3735C162.704 76.3735 188.815 75.9056 214.877 76.0574C216.201 76.0636 217.526 76.2898 218.748 76.798C228.007 80.6466 219.568 94.2747 215.545 100.472C200.073 127.552 184.603 154.631 169.131 181.711C163.753 191.125 155.537 201.317 143.716 201.822C125.653 202.596 107.395 201.831 89.3172 201.834C81.024 201.834 72.7307 201.881 64.4405 201.834C54.1636 202.172 54.1481 192.426 58.5269 185.544V185.541Z" fill="white" stroke="#231F20" stroke-width="0.44" stroke-miterlimit="10"/>
</g>
<path d="M90.5109 167.764L95.6818 174.718L95.6942 174.708C100.757 181.488 110.288 184.919 123.096 183.391C148.712 180.336 177.72 158.611 187.892 134.865C192.976 122.994 192.388 112.864 187.329 106.084L187.338 106.078L182.124 99.1153L180.478 100.299C175.242 97.5226 168.282 96.4071 159.924 97.4049C134.308 100.46 105.3 122.185 95.1279 145.931C91.8106 153.677 90.907 160.681 92.086 166.497L90.5078 167.767L90.5109 167.764Z" fill="#00125C" stroke="#231F20" stroke-width="0.44" stroke-miterlimit="10"/>
<path d="M154.692 90.3892C180.308 87.3338 192.829 104.107 182.66 127.853C172.492 151.598 143.481 173.326 117.864 176.378C92.2479 179.434 79.7275 162.66 89.8961 138.915C100.065 115.17 129.076 93.4414 154.692 90.3892Z" fill="#6688DD" stroke="#231F20" stroke-width="0.44" stroke-miterlimit="10"/>
<path d="M152.545 94.6468C175.191 91.5512 185.95 105.966 176.58 126.846C167.21 147.725 141.259 167.16 118.614 170.258C95.9681 173.354 85.2085 158.939 94.5786 138.06C103.949 117.181 129.899 97.7455 152.545 94.6468Z" fill="#00125C" stroke="#231F20" stroke-width="0.44" stroke-miterlimit="10"/>
<path d="M153.745 96.2551C176.115 92.7876 186.429 106.608 176.786 127.118C167.144 147.629 141.19 167.067 118.82 170.531C96.4497 173.999 86.1357 160.178 95.7782 139.668C105.421 119.158 131.374 99.7194 153.745 96.2551Z" fill="#7CA2ED" stroke="#231F20" stroke-width="0.44" stroke-miterlimit="10"/>
<path d="M115.186 145.909L116.594 144.716L116.848 144.865C116.919 144.722 116.996 144.583 117.08 144.449C121.245 137.189 125.395 129.92 129.566 122.662C130.829 120.472 132.995 118.526 135.638 118.51C141.465 118.51 147.298 118.414 153.122 118.433L154.047 117.137L155.662 118.925C156.984 120.115 155.257 122.901 154.391 124.237C150.714 130.673 147.038 137.105 143.362 143.542C142.084 145.779 140.131 148.199 137.321 148.32C133.029 148.503 128.691 148.32 124.395 148.32C122.424 148.32 120.453 148.332 118.485 148.32C117.702 148.345 117.173 148.125 116.845 147.759H116.839L115.186 145.906V145.909Z" fill="#00125C" stroke="#231F20" stroke-width="0.44" stroke-miterlimit="10"/>
<path d="M115.336 142.528C119.501 135.268 123.651 127.998 127.823 120.741C129.085 118.55 131.251 116.604 133.894 116.589C140.089 116.589 146.297 116.477 152.489 116.515C152.805 116.515 153.117 116.57 153.408 116.691C155.608 117.605 153.603 120.843 152.647 122.315C148.97 128.751 145.294 135.184 141.618 141.62C140.34 143.858 138.387 146.278 135.577 146.399C131.285 146.581 126.947 146.399 122.652 146.399C120.68 146.399 118.709 146.411 116.741 146.399C114.3 146.479 114.296 144.161 115.336 142.528Z" fill="#6688DD" stroke="#231F20" stroke-width="0.44" stroke-miterlimit="10"/>
<path d="M152.689 122.26H152.682C152.682 122.26 152.685 122.26 152.689 122.26Z" fill="#6688DD" stroke="#231F20" stroke-width="0.44" stroke-miterlimit="10"/>
<path d="M126.772 122.507C126.772 122.507 126.784 122.507 126.81 122.507H126.772Z" fill="white" stroke="#231F20" stroke-width="0.44" stroke-miterlimit="10"/>
<path d="M1.6991 140.517C1.6991 140.517 14.3309 132.021 14.6899 131.457C32.2234 100.903 52.4429 81.3814 69.995 50.8405C75.3051 41.6218 84.4278 33.4381 95.5494 33.3606C120.067 33.3606 140.831 19.404 165.343 19.4784L179.828 35.1083C185.392 40.1189 178.117 51.8413 174.472 57.4562C158.999 84.5359 143.53 111.616 128.057 138.695C122.679 148.109 114.463 158.301 102.642 158.806C84.5794 159.58 66.3218 158.815 48.2436 158.818C39.9503 158.818 31.6571 158.865 23.3669 158.818C20.0743 158.927 17.8401 157.997 16.463 156.46L16.4321 156.469L1.70529 140.517H1.6991Z" fill="#A85D0B" stroke="#231F20" stroke-width="0.44" stroke-miterlimit="10"/>
<path d="M2.77039 126.514C20.3039 95.9607 37.7631 65.3671 55.3152 34.8262C60.6254 25.6076 69.748 17.4239 80.8696 17.3464C106.947 17.3464 133.059 16.8785 159.121 17.0303C160.445 17.0365 161.769 17.2627 162.992 17.7709C172.251 21.6195 163.812 35.2476 159.789 41.4451C144.316 68.5247 128.847 95.6044 113.374 122.684C107.996 132.098 99.7802 142.29 87.9592 142.795C69.8965 143.569 51.6389 142.804 33.5608 142.807C25.2675 142.807 16.9742 142.854 8.684 142.807C-1.59287 143.145 -1.60834 133.399 2.77039 126.517V126.514Z" fill="#FF9500" stroke="#231F20" stroke-width="0.44" stroke-miterlimit="10"/>
<path d="M248.985 133.879C248.976 133.114 249.218 132.302 249.583 131.636C249.697 131.428 249.824 131.227 249.96 131.032C251.028 129.51 252.748 128.292 254.599 127.979C255.205 127.877 255.858 127.877 256.453 128.066L256.808 127.79L257.601 128.822L257.61 128.838C257.984 129.306 258.173 129.907 258.161 130.53C258.117 132.361 256.771 134.025 255.351 135.048C254.011 136.011 252.049 136.801 250.418 136.117C250.171 136.011 249.96 135.881 249.784 135.732L249.468 135.478L248.571 134.208L248.992 133.882L248.985 133.879Z" fill="#0D2675" stroke="black" stroke-width="0.44" stroke-linejoin="round"/>
<path d="M248.828 130.654C248.017 132.132 247.794 134.347 249.663 135.131C251.294 135.816 253.256 135.026 254.596 134.062C256.016 133.04 257.366 131.376 257.406 129.544C257.427 128.621 257.016 127.735 256.183 127.285C255.478 126.901 254.624 126.867 253.847 126.997C252 127.31 250.276 128.531 249.208 130.049C249.072 130.245 248.945 130.446 248.831 130.654H248.828Z" fill="#143484" stroke="black" stroke-width="0.44" stroke-miterlimit="10"/>
<path d="M248.076 133.318C248.571 134.567 250.004 134.927 251.204 134.725C253.033 134.397 254.683 133.244 255.824 131.8C256.508 130.864 257.208 129.606 256.821 128.429C256.592 127.868 256.103 127.412 255.574 127.044C258.835 128.345 256.901 132.054 254.912 133.607C253.869 134.437 252.625 135.075 251.263 135.202C249.96 135.345 248.333 134.741 248.079 133.315L248.076 133.318Z" fill="#4169E1"/>
<path d="M257.133 130.914H248.694" stroke="black" stroke-width="0.44" stroke-miterlimit="10"/>
<path d="M257.133 130.592H248.694" stroke="#4169E1" stroke-width="0.44" stroke-miterlimit="10"/>
<path d="M248.828 130.654C248.017 132.132 247.794 134.347 249.663 135.131C251.294 135.816 253.256 135.026 254.596 134.062C256.016 133.04 257.366 131.376 257.406 129.544C257.427 128.621 257.016 127.735 256.183 127.285C255.478 126.901 254.624 126.867 253.847 126.997C252 127.31 250.276 128.531 249.208 130.049C249.072 130.245 248.945 130.446 248.831 130.654H248.828Z" stroke="black" stroke-width="0.44" stroke-miterlimit="10"/>
<path d="M190.225 234.618C190.215 233.853 190.457 233.041 190.822 232.375C190.936 232.167 191.063 231.966 191.199 231.771C192.267 230.249 193.988 229.031 195.838 228.719C196.445 228.616 197.098 228.616 197.692 228.805L198.048 228.529L198.84 229.561L198.849 229.577C199.224 230.045 199.412 230.646 199.4 231.269C199.357 233.1 198.011 234.764 196.59 235.787C195.25 236.75 193.288 237.541 191.657 236.856C191.41 236.75 191.199 236.62 191.023 236.471L190.707 236.217L189.81 234.947L190.231 234.622L190.225 234.618Z" fill="#0D2675" stroke="black" stroke-width="0.44" stroke-linejoin="round"/>
<path d="M190.069 231.393C189.258 232.871 189.036 235.087 190.905 235.87C192.535 236.555 194.497 235.765 195.837 234.801C197.258 233.779 198.607 232.115 198.647 230.284C198.669 229.36 198.257 228.474 197.425 228.025C196.719 227.64 195.865 227.606 195.088 227.736C193.241 228.049 191.517 229.27 190.45 230.789C190.314 230.984 190.187 231.185 190.072 231.393H190.069Z" fill="#143484" stroke="black" stroke-width="0.44" stroke-miterlimit="10"/>
<path d="M189.315 234.061C189.81 235.31 191.243 235.669 192.444 235.468C194.272 235.139 195.922 233.986 197.064 232.542C197.748 231.607 198.447 230.349 198.06 229.171C197.831 228.61 197.342 228.155 196.813 227.786C200.075 229.087 198.141 232.797 196.151 234.349C195.108 235.179 193.864 235.818 192.502 235.945C191.2 236.087 189.572 235.483 189.318 234.058L189.315 234.061Z" fill="#4169E1"/>
<path d="M198.374 231.653H189.935" stroke="black" stroke-width="0.44" stroke-miterlimit="10"/>
<path d="M198.374 231.334H189.935" stroke="#4169E1" stroke-width="0.44" stroke-miterlimit="10"/>
<path d="M190.069 231.393C189.258 232.871 189.036 235.087 190.905 235.87C192.535 236.555 194.497 235.765 195.837 234.801C197.258 233.779 198.607 232.115 198.647 230.284C198.669 229.36 198.257 228.474 197.425 228.025C196.719 227.64 195.865 227.606 195.088 227.736C193.241 228.049 191.517 229.27 190.45 230.789C190.314 230.984 190.187 231.185 190.072 231.393H190.069Z" stroke="black" stroke-width="0.44" stroke-miterlimit="10"/>
<path d="M106.559 237.271C106.55 236.505 106.791 235.694 107.156 235.027C107.271 234.82 107.398 234.618 107.534 234.423C108.601 232.902 110.322 231.684 112.172 231.371C112.779 231.269 113.432 231.269 114.026 231.458L114.382 231.182L115.174 232.214L115.183 232.229C115.558 232.697 115.747 233.298 115.734 233.921C115.691 235.752 114.345 237.417 112.924 238.439C111.584 239.403 109.623 240.193 107.992 239.508C107.744 239.403 107.534 239.273 107.357 239.124L107.042 238.87L106.144 237.599L106.565 237.274L106.559 237.271Z" fill="#0D2675" stroke="black" stroke-width="0.44" stroke-linejoin="round"/>
<path d="M106.401 234.045C105.591 235.523 105.368 237.739 107.237 238.523C108.868 239.208 110.83 238.417 112.17 237.454C113.59 236.431 114.939 234.767 114.979 232.936C115.001 232.012 114.589 231.126 113.757 230.677C113.051 230.293 112.197 230.258 111.421 230.389C109.573 230.702 107.85 231.922 106.782 233.441C106.646 233.636 106.519 233.837 106.404 234.045H106.401Z" fill="#143484" stroke="black" stroke-width="0.44" stroke-miterlimit="10"/>
<path d="M105.649 236.71C106.144 237.959 107.577 238.318 108.778 238.117C110.607 237.788 112.256 236.636 113.398 235.192C114.082 234.256 114.781 232.998 114.394 231.82C114.165 231.259 113.676 230.804 113.147 230.435C116.409 231.737 114.475 235.446 112.485 236.998C111.442 237.829 110.198 238.467 108.837 238.594C107.534 238.737 105.906 238.132 105.652 236.707L105.649 236.71Z" fill="#4169E1"/>
<path d="M114.706 234.306H106.268" stroke="black" stroke-width="0.44" stroke-miterlimit="10"/>
<path d="M114.706 233.983H106.268" stroke="#4169E1" stroke-width="0.44" stroke-miterlimit="10"/>
<path d="M106.401 234.045C105.591 235.523 105.368 237.739 107.237 238.523C108.868 239.208 110.83 238.417 112.17 237.454C113.59 236.431 114.939 234.767 114.979 232.936C115.001 232.012 114.589 231.126 113.757 230.677C113.051 230.293 112.197 230.258 111.421 230.389C109.573 230.702 107.85 231.922 106.782 233.441C106.646 233.636 106.519 233.837 106.404 234.045H106.401Z" stroke="black" stroke-width="0.44" stroke-miterlimit="10"/>
<path d="M253.792 268.652C251.125 271.949 247.609 274.456 243.852 276.364C240.254 278.19 236.633 279.903 233.006 281.772C228.154 284.272 223.116 286.407 217.948 288.161C212.678 289.949 207.17 290.659 201.702 291.638C214.95 292.688 223.172 291.502 232.217 287.721C241.262 283.941 249.797 277.672 253.795 268.655L253.792 268.652Z" fill="#D3B49B" stroke="#231F20" stroke-width="0.44" stroke-miterlimit="10"/>
<path d="M117.409 66.1138C118.928 63.1422 119.046 60.9049 118.123 59.2254L116.644 55.7393L115.484 56.8115C113.2 55.5968 109.861 54.9646 105.956 54.6672L112.881 43.4684L111.322 39.8367L105.219 43.5118L98.4763 54.4162C96.4618 54.4286 94.3823 54.4751 92.312 54.5215L99.1014 43.5428L97.5418 39.9111L91.4425 43.5862L84.517 54.7818C82.8397 54.8221 81.1935 54.8593 79.606 54.8686L79.6276 54.8345L69.063 54.8903L63.0039 58.5406L64.5636 62.1723C64.5636 62.1723 70.2822 62.0452 70.1306 62.1382C73.2344 62.1227 73.2529 63.7185 72.6897 65.1005L53.7142 95.784C53.0427 96.6547 51.6099 98.043 49.4407 98.0584C49.4902 98.1359 43.8706 98.0894 43.8706 98.0894L35.7537 102.607L37.3133 106.239L47.2838 106.183C49.1374 106.174 49.1591 106.193 50.9477 106.193L44.1738 113.89L45.7335 117.521L53.3862 117.478L60.3179 106.27C62.3943 106.298 64.4181 106.301 66.4079 106.289L57.9475 113.812L59.5071 117.444L67.1691 117.401L74.1627 106.093C87.4506 105.365 98.2504 102.428 106.027 91.6565C109.31 87.1107 110.266 83.8942 109.524 81.6415V81.6353L109.514 81.6074C109.446 81.406 109.363 81.2169 109.27 81.031L107.8 77.5791L106.163 78.4064C105.448 78.0934 104.644 77.8332 103.756 77.6193C109.443 75.5804 114.413 72.02 117.418 66.1169L117.409 66.1138ZM91.7117 90.3953C86.482 98.861 70.7866 97.9903 65.5909 98.0213L74.8745 83.0142C80.0671 82.9863 97.1735 81.5671 91.7117 90.3953ZM101.243 69.2404C96.4772 76.9407 83.4493 76.1196 79.1232 76.1444L87.5403 62.5317C91.8664 62.5069 106.209 61.2086 101.243 69.2404Z" fill="#E1D7D7" stroke="#231F20" stroke-width="0.44" stroke-linejoin="round"/>
<path d="M115.851 62.4821C119.973 54.4131 113.812 51.7482 104.398 51.0355L111.324 39.8367L103.662 39.8801L96.9187 50.7845C94.9042 50.7969 92.8247 50.8434 90.7545 50.8898L97.5438 39.9111L89.8849 39.9545L82.9594 51.1501C81.2822 51.1904 79.6359 51.2276 78.0484 51.2369L78.0701 51.2028L67.5054 51.2586L63.006 58.5406C63.006 58.5406 68.7247 58.4135 68.573 58.5065C71.6768 58.491 71.6954 60.0868 71.1322 61.4688L52.1566 92.1523C51.4851 93.023 50.0524 94.4113 47.8831 94.4268C47.9326 94.5042 42.313 94.4577 42.313 94.4577L35.7557 102.607L45.7263 102.552C47.5799 102.542 49.3902 102.561 51.1757 102.561L44.1728 113.89L51.8255 113.846L58.7572 102.638C60.8337 102.666 62.8575 102.669 64.8472 102.657L57.9465 113.812L65.6085 113.769L72.6021 102.462C85.8899 101.734 96.6897 98.7959 104.466 88.0248C110.73 79.3546 108.539 75.5122 102.192 73.9907C107.879 71.9518 112.849 68.3914 115.854 62.4883L115.851 62.4821ZM90.151 86.7636C84.9213 95.2293 69.226 94.3586 64.0303 94.3896L73.3138 79.3825C78.5064 79.3546 95.6129 77.9354 90.151 86.7636ZM99.6821 65.6087C94.9166 73.309 81.8887 72.4879 77.5626 72.5127L85.9796 58.9C90.3058 58.8752 104.649 57.5769 99.6821 65.6087Z" fill="white" stroke="#231F20" stroke-width="0.44" stroke-linejoin="round"/>
</g>
<defs>
<clipPath id="clip0_18087_8197">
<rect width="360" height="361" rx="5" fill="white"/>
</clipPath>
</defs>
</svg>
