<svg width="360" height="360" viewBox="0 0 360 360" fill="none" xmlns="http://www.w3.org/2000/svg">
<g clip-path="url(#clip0_18087_5618)">
<path d="M338.502 185.664L131.821 306.637C125.804 310.123 118.395 310.123 112.379 306.637L22.195 254.375C16.1967 250.898 16.1967 242.21 22.195 238.732L228.876 117.756C234.893 114.27 242.301 114.27 248.318 117.756L338.502 170.018C344.5 173.495 344.5 182.184 338.502 185.661V185.664Z" fill="black" stroke="black" stroke-width="0.44" stroke-miterlimit="10"/>
<path d="M234.804 114.127L339.208 157.97V171.87C339.217 174.923 337.719 177.979 334.71 179.722L131.125 297.7C125.109 301.186 117.7 301.186 111.683 297.7L21.4994 245.438C18.5002 243.701 16.9991 240.657 16.9991 237.617V225.405L234.804 114.127Z" fill="#4169E1" stroke="black" stroke-width="0.44" stroke-miterlimit="10"/>
<path d="M334.709 165.761L131.124 283.739C125.107 287.225 117.698 287.225 111.682 283.739L21.4979 231.477C15.4995 228 15.4995 219.311 21.4979 215.834L225.083 97.8533C231.1 94.367 238.509 94.367 244.525 97.8533L334.709 150.115C340.707 153.592 340.707 162.281 334.709 165.758V165.761Z" fill="white" stroke="black" stroke-width="0.44" stroke-miterlimit="10"/>
<path d="M334.709 165.762L131.124 283.74C125.107 287.226 117.699 287.226 111.682 283.74L21.4982 231.478C15.4998 228.001 15.4998 219.312 21.4982 215.835L225.083 97.8541C231.1 94.3678 238.509 94.3678 244.525 97.8541L334.709 150.116C340.708 153.593 340.708 162.282 334.709 165.759V165.762Z" fill="#CCD9FD" stroke="black" stroke-width="0.44" stroke-miterlimit="10"/>
<path d="M121.402 283.495C124.31 283.495 127.18 282.725 129.699 281.264L333.284 163.286C335.208 162.171 336.359 160.173 336.359 157.942C336.359 155.71 335.208 153.713 333.284 152.597L243.1 100.332C240.581 98.871 237.712 98.101 234.803 98.101C231.895 98.101 229.025 98.871 226.506 100.332L22.9211 218.313C20.9971 219.429 19.8464 221.426 19.8464 223.658C19.8464 225.889 20.9971 227.887 22.9211 229.002L113.105 281.264C115.624 282.725 118.493 283.495 121.402 283.495Z" fill="#00125C" stroke="black" stroke-width="0.44" stroke-miterlimit="10"/>
<mask id="mask0_18087_5618" style="mask-type:alpha" maskUnits="userSpaceOnUse" x="19" y="97" width="318" height="187">
<path d="M121.402 283.495C124.31 283.495 127.18 282.725 129.699 281.264L333.284 163.286C335.208 162.171 336.359 160.173 336.359 157.942C336.359 155.71 335.208 153.712 333.284 152.597L243.1 100.332C240.581 98.8709 237.712 98.1008 234.803 98.1008C231.895 98.1008 229.025 98.8709 226.506 100.332L22.9211 218.313C20.9971 219.428 19.8464 221.426 19.8464 223.658C19.8464 225.889 20.9971 227.887 22.9211 229.002L113.105 281.264C115.624 282.725 118.493 283.495 121.402 283.495Z" fill="#00125C" stroke="black" stroke-width="0.44" stroke-miterlimit="10"/>
</mask>
<g mask="url(#mask0_18087_5618)">
<g clip-path="url(#clip1_18087_5618)">
<rect width="133.452" height="261.26" transform="matrix(0.866025 0.5 -0.866025 0.5 235.288 95.2385)" fill="#00125C"/>
<g clip-path="url(#clip2_18087_5618)">
<path d="M245.645 200.638L155.43 340.828L511.649 417.665L538.621 416.725L569.035 446.481L590.65 439.054L634.608 475.552L615.105 489.5L639.187 512.755L656.532 504.639L762.48 456.287C762.48 456.287 730.153 410.268 708.477 369.067C686.801 327.867 659.921 260.695 659.921 260.695L494.83 211.229L341.12 203.974L245.645 200.633L245.645 200.638Z" fill="#B9E5DE"/>
<path d="M654.402 201.614C640.24 147.137 505.396 52.7198 398.021 37.0514C290.646 21.3829 142.749 10.7481 58.1516 -14.1954C-68.2159 -51.4568 -124.061 -89.0761 -166.661 -98.4116C-209.261 -107.747 -149.348 -123.806 -149.348 -123.806C-138.352 -119.669 -32.2239 -67.2288 73.7135 -34.7394C179.659 -2.24984 291.049 -2.42933 398.932 16.6654C506.822 35.7602 635.66 98.6066 669.633 176.331C703.614 254.056 668.555 256.097 654.385 201.614L654.402 201.614Z" fill="#4169E1"/>
<path d="M765.583 403.557C700.017 304.885 739.687 250.343 753.731 196.735C759.26 175.624 760.815 154.664 750.419 131.203C716.918 57.8273 665.427 7.34021 579.024 -29.2122C548.756 -42.0169 520.067 -54.7782 480.51 -64.5475C464.637 -68.4651 417.918 -74.9527 361.338 -76.6765C311.88 -78.1878 249.387 -73.2862 194.653 -75.9955C86.6535 -81.3434 -5.62505 -92.5909 -48.7719 -97.9831C-128.454 -107.558 -325.593 -114.188 -327.575 -114.254L-324.905 -146.912C-316.694 -146.64 -122.804 -140.115 -40.201 -130.191C48.4614 -119.353 118.171 -103.401 213.262 -102.325C278.486 -101.742 332.714 -103.353 400.888 -98.1756C467 -92.2811 521.759 -80.3905 567.13 -64.8546C632.282 -42.5424 679.944 -10.3049 730.089 42.8178C762.615 78.4251 779.075 115.574 789.223 135.623C799.38 155.672 798.183 192.669 792.13 216.697C779.298 267.668 750.342 312.036 803.712 393.649L765.583 403.557Z" fill="#4169E1"/>
<path d="M99.2439 203.305L67.8682 259.672L112.586 265.529L119.609 252.776L164.308 259.134L174.375 244.39L125.194 236.983L134.319 218.997L121.423 217.448L126.677 205.249L99.2439 203.305Z" fill="#B9E5DE"/>
<path d="M272.822 252.392L263.131 250.146L259.194 244.772L262.139 237.711L271.57 235.133L281.906 236.99L285.521 242.878L282.379 250.479L272.822 252.392ZM264.926 248.733L272.892 250.582L280.331 249.092L282.852 243.006L280.059 238.454L271.718 236.957L264.224 239.007L261.891 244.594L264.926 248.739L264.926 248.733Z" fill="#2AA5A5"/>
<path d="M500.875 389.889L500.333 389.773L256.777 337.57L257.179 336.739L310.699 225.53L311.884 225.776L557.313 276.503L557.553 276.823L574.099 298.852L562.794 322.582L560.393 322.055L571.377 299.019L555.55 277.951L312.315 227.673L259.973 336.435L500.569 388.005L534.138 374.261L546.259 353.99L548.596 354.637L536.152 375.446L535.784 375.597L500.875 389.889Z" fill="#2AA5A5"/>
<path d="M286.695 277.815L285.876 279.455L402.891 306.365L403.709 304.725L286.695 277.815Z" fill="#2AA5A5"/>
<path d="M283.734 245.829L282.964 247.48L299.613 251.053L300.383 249.402L283.734 245.829Z" fill="#2AA5A5"/>
<path d="M275.638 354.884L198.473 338.877L198.884 338.034L259.926 212.274L342.295 216.906L275.646 354.878L275.638 354.884ZM201.687 337.73L274.031 352.736L338.898 218.454L261.688 214.113L201.687 337.73Z" fill="#2AA5A5"/>
<path d="M223.33 235.137L222.806 236.832L261.781 242.299L262.305 240.605L223.33 235.137Z" fill="#2AA5A5"/>
<path d="M381.226 241.795L323.605 351.848L325.978 352.422L383.599 242.368L381.226 241.795Z" fill="#2AA5A5"/>
<path d="M267.244 250.197L249.669 288.983L252.076 289.485L269.652 250.699L267.244 250.197Z" fill="#2AA5A5"/>
<path d="M285.306 214.338L274.729 236.52L277.125 237.046L287.702 214.864L285.306 214.338Z" fill="#2AA5A5"/>
<path d="M243.752 205.883L243.59 207.61L492.653 217.319L492.816 215.593L243.752 205.883Z" fill="#2AA5A5"/>
<path d="M100.131 264.005L97.7387 263.473C100.972 256.779 105.532 245.99 104.83 243.697C103.843 240.512 96.4658 231.462 96.3935 231.374L96.1205 231.042L109.106 203.822L111.499 204.348L98.86 230.852C100.24 232.565 106.335 240.216 107.291 243.331C108.368 246.81 100.972 262.257 100.131 264.011L100.131 264.005Z" fill="#2AA5A5"/>
<path d="M100.162 261.692C98.5103 261.584 83.9136 260.555 80.1954 258.65C76.6832 256.852 77.8196 253.758 79.2481 249.843C79.6049 248.873 79.9713 247.875 80.3159 246.783L82.7823 247.138C82.4281 248.258 82.0343 249.314 81.6957 250.25C80.277 254.124 79.6342 256.192 81.7118 257.257C84.3994 258.635 96.1289 259.679 100.422 259.965L100.154 261.686L100.162 261.692Z" fill="#2AA5A5"/>
<path d="M151.916 250.128C151.782 250.109 138.556 248.209 130.544 246.457C122.766 244.754 107.151 244.392 107 244.39L107.1 242.661C107.755 242.675 123.219 243.03 131.331 244.806C139.217 246.534 152.318 248.409 152.452 248.428L151.916 250.122L151.916 250.128Z" fill="#2AA5A5"/>
<path d="M102.988 238.44C102.937 238.44 102.887 238.439 102.854 238.433L103.406 236.744C103.214 236.713 103.07 236.734 103.07 236.734C104.988 236.494 119.709 231.677 120.965 230.718C121.677 230.122 123.582 225.637 125.077 221.51L102.93 218.117L103.499 216.429L128.137 220.199L127.836 221.049C127.062 223.254 124.401 230.549 122.916 231.805C121.665 232.855 105.467 238.472 103.005 238.441L102.988 238.44Z" fill="#2AA5A5"/>
<path d="M275.704 245.533L276.594 243.399L275.526 241.667L272.186 241.07L269.616 241.879L268.736 243.978L269.894 245.562L272.827 246.24L275.704 245.533Z" fill="#4169E1"/>
<path d="M272.834 247.156L269.001 246.265L267.395 244.07L268.571 241.259L272.086 240.151L276.461 240.934L277.932 243.335L276.755 246.191L272.842 247.156L272.834 247.156ZM270.795 244.852L272.829 245.322L274.679 244.867L275.263 243.462L274.606 242.398L272.301 241.982L270.668 242.497L270.084 243.885L270.795 244.852Z" fill="#2AA5A5"/>
<path d="M98.2006 204.916L97.7812 206.623L109.079 207.87L109.498 206.163L98.2006 204.916Z" fill="#2AA5A5"/>
<path d="M271.994 143.498L247.23 141.012L249.407 133.826L237.024 132.957L230.045 152.856L264.348 157.795L271.994 143.498Z" fill="#B9E5DE"/>
<path d="M1331.3 607.123L1312.68 606.884L1296.28 596.062L1292.4 593.504L1199.08 531.915L1188.9 525.204L962.489 375.789C932.671 335.361 884.958 249.196 827.972 161.298C821.917 151.958 815.754 142.594 809.497 133.264C746.076 38.6853 672.939 -52.4655 600.896 -85.1024C578.565 -90.9483 475.328 -104.476 390.282 -110.106C319.298 -114.806 220.531 -116.921 197.563 -117.366L170.302 -52.3588L127.57 1.56733L125.264 15.6091L123.847 24.2471L95.8843 194.613C95.7315 194.87 -102.628 531.317 -102.844 531.689L-114.524 528.5L83.5475 192.528L111.435 22.5999L112.852 13.9677L115.312 -1.02361L158.573 -55.6004L188.168 -126.189L193.074 -126.103C194.242 -126.082 310.743 -124.062 391.588 -118.711C471.419 -113.43 579.03 -99.9618 605.078 -93.2839C605.211 -93.2476 605.336 -93.2114 605.461 -93.1809C613.301 -91.1311 622.261 -86.9331 632.316 -80.6104C651.039 -68.842 673.539 -49.7069 699.571 -23.3928C792.499 63.5714 915.506 285.747 973.075 370.729L1200.13 520.561L1209.2 526.554L1304.21 589.243L1308 591.749L1331.3 607.123Z" fill="#4169E1"/>
<path d="M641.763 220.358C641.989 220.378 69.7943 197.09 69.7351 197.1C69.2987 197.078 -679.23 120.477 -679.632 120.449C-680.023 120.323 -1294.86 -74.1221 -1295.42 -74.2965L-1290.06 -82.1573L-675.905 112.071L71.1343 188.485L641.282 211.667L818.262 193.166L820.068 201.712L641.763 220.352L641.763 220.358Z" fill="#4169E1"/>
<path d="M463.409 -310.88L397.021 -113.297C397.048 -113.349 251.525 202.161 251.516 202.184C251.373 202.396 175.133 314.813 159.864 337.333C158.18 339.82 157.235 341.209 157.218 341.232L156.441 345.691L134.341 471.859L132.683 481.296L113.383 591.496L100.72 591.334L108.499 546.936L109.125 543.34L119.481 484.212L121.139 474.775L144.198 343.129L144.941 338.889C144.941 338.889 145.947 337.425 147.738 334.795C163.387 311.773 239.581 199.263 239.747 199.098L384.849 -115.512L451.131 -312.762L463.409 -310.88Z" fill="#4169E1"/>
<path d="M1935.6 178.215L1935.38 178.345L1935.29 180.766L1932.92 179.865L1928.26 178.104L1719.28 98.9122L1708.11 94.6743L1043.73 -157.09L423.854 -209.519L-384.19 -219.889L-527.457 18.9154C-528.191 19.4193 -672.486 118.725 -673.324 119.303L-682.219 113.22L-538.149 14.0666L-392.529 -228.646L425.169 -218.13L1047.77 -165.469C1048.14 -165.326 1386.42 -37.1398 1661.41 67.0684C1663.52 67.8682 1665.62 68.6621 1667.71 69.456C1684.98 75.9982 1701.99 82.4448 1718.64 88.7541C1723.97 90.7776 1729.27 92.7832 1734.52 94.771C1764.69 106.202 1793.51 117.125 1820.37 127.302C1822.16 127.983 1823.94 128.657 1825.71 129.326C1835.11 132.895 1844.27 136.363 1853.14 139.73C1855.04 140.446 1856.92 141.157 1858.79 141.867C1887.91 152.898 1913.86 162.735 1935.67 170.996L1935.39 178.057L1935.6 178.215Z" fill="#4169E1"/>
<path d="M889.545 601.456L874.723 601.266C829.411 548.384 763.611 476.064 724.455 409.375C695.629 357.166 694.788 355.627 679.733 323.929C660.062 284.588 649.602 245.982 629.445 204.64C601.026 138.342 484.149 81.8947 422.767 63.8465L123.854 24.2498L111.441 22.6026L74.998 17.7751C74.5512 17.5906 -169.986 -83.6086 -170.639 -83.8764L-432.197 -93L-675.542 -169.052C-691.94 -174.175 -699.851 -181.151 -706.671 -190.051C-794.273 -308.365 -871.731 -389.675 -999.862 -460.84L-979.527 -460.579C-857.117 -390.179 -780.711 -309.275 -695.51 -194.117C-689.562 -186.377 -683.52 -181.074 -670.237 -176.925L-429.077 -101.553L-166.755 -92.4078L79.6688 9.57104L112.858 13.9704L125.271 15.6118L426.61 55.5338C498.597 76.3189 613.545 136.357 641.414 201.858C652.115 223.956 659.884 244.234 667.393 263.84C675.004 284.07 682.537 302.633 691.717 321.187C706.688 352.694 707.528 354.245 736.252 406.262C776.28 474.341 844.293 548.339 889.545 601.456Z" fill="#4169E1"/>
<path d="M-526.649 451.936L-528.91 448.856L-263.488 356.081L-43.5129 180.539L32.7693 -4.36236L59.1929 -44.9916L93.5262 -130.144L98.3846 -129.245L63.9572 -43.8405L37.5333 -3.19976L-38.9531 182.2C-39.1265 182.337 -260.073 358.657 -260.315 358.85C-260.52 358.922 -526.334 451.83 -526.641 451.936L-526.649 451.936Z" fill="#4169E1"/>
<path d="M432.537 396.215L324.962 438.801C324.758 438.845 264.65 452.127 178.851 471.089C177.138 471.465 175.408 471.847 173.67 472.234C160.544 475.134 146.842 478.164 132.682 481.293C128.324 482.252 123.923 483.228 119.48 484.209C49.1383 499.747 -31.116 517.483 -107.572 534.38C-109.183 534.734 -110.794 535.094 -112.396 535.448C-129.812 539.296 -147.016 543.095 -163.839 546.818C-165.45 547.172 -167.061 547.526 -168.663 547.88C-182.238 550.878 -195.559 553.821 -208.532 556.688C-213.865 557.871 -219.148 559.037 -224.362 560.187C-259.059 567.856 -290.906 574.892 -318.123 580.904C-322.321 581.836 -326.416 582.741 -330.393 583.619C-333.581 584.322 -336.684 585.008 -339.72 585.679L-378.498 585.181L-336.587 575.921L-324.309 573.207L-217.837 549.677L-202.007 546.178L-170.024 539.114L-163.826 537.741L121.138 474.772L134.34 471.856L176.167 462.612L181.899 461.348L319.896 430.853L401.911 398.388C395.578 396.057 286.956 373.02 156.44 345.688C152.379 344.84 148.301 343.98 144.197 343.126C80.7738 329.85 12.8527 315.697 -50.599 302.501C-54.6524 301.659 -58.6889 300.817 -62.7007 299.987C-186.493 274.241 -290.732 252.644 -306.95 249.177L-607.225 239.055L-625.218 238.45L-624.499 229.814L-611.166 230.262L-304.685 240.591C-276.217 246.636 -175.631 267.443 -57.3165 292.029C-53.2716 292.871 -49.2098 293.713 -45.1317 294.567C17.4113 307.567 84.2984 321.498 147.738 334.792C151.8 335.64 155.836 336.488 159.864 337.33C293.156 365.28 408.728 389.888 432.537 396.215Z" fill="#4169E1"/>
<path d="M308.429 200.969L303.608 199.973C333.518 132.97 394.703 -3.05961 424.958 -69.3948C425.003 -69.4635 449.605 -109.955 449.65 -110.029L454.299 -108.718L429.697 -68.2325C399.561 -2.14954 338.184 134.281 308.42 200.969L308.429 200.969Z" fill="#4169E1"/>
<path d="M318.152 40.8785L313.729 42.5643L386.209 132.875L390.632 131.189L318.152 40.8785Z" fill="#4169E1"/>
<path d="M355.282 204.292L350.507 203.199L385.07 133.499C321.877 127.111 168.449 112.957 103.531 107.049L104.243 103.621C172.16 109.798 325.52 123.969 391.795 130.656L355.282 204.286L355.282 204.292Z" fill="#4169E1"/>
<path d="M113.43 195.611L109.693 193.309L169.872 147.403L203.755 29.8408L208.699 30.4867L174.544 148.991C174.007 149.4 113.967 195.203 113.421 195.617L113.43 195.611Z" fill="#4169E1"/>
<path d="M191.901 198.289L187.243 196.983L214.45 151.941C220.125 128.34 250.212 60.2555 260.671 36.4396L265.501 37.4012C254.858 61.653 225.069 128.992 219.27 152.971L191.892 198.288L191.901 198.289Z" fill="#4169E1"/>
<path d="M-51.9371 245.618C-52.8699 245.606 -53.223 245.388 -53.7191 244.955L-49.7357 242.809C-50.37 242.253 -51.2738 242.143 -51.7116 242.16C-47.9717 241.972 23.0813 231.552 69.9149 224.598L70.9449 227.979C59.0032 229.608 -28.7195 243.055 -51.9456 245.618L-51.9371 245.618Z" fill="#4169E1"/>
<path d="M22.3351 187.679L2.84839 235.448L7.70453 236.356L27.1913 188.588L22.3351 187.679Z" fill="#4169E1"/>
<path d="M322.638 164.288C252.27 157.797 -50.9579 127.188 -115.616 125.683L-219.214 47.9302L-215.484 45.5848L-113.193 122.358C-51.579 123.668 256.081 154.657 323.367 160.861L322.638 164.288Z" fill="#4169E1"/>
<path d="M48.7395 262.559L47.615 265.937L187.669 287.166L188.793 283.788L48.7395 262.559Z" fill="#4169E1"/>
<path d="M163.403 196.18L145.323 232.405L150.093 233.503L168.173 197.278L163.403 196.18Z" fill="#4169E1"/>
<path d="M89.5998 270.356L63.1758 321.749L67.9307 322.877L94.3547 271.484L89.5998 270.356Z" fill="#4169E1"/>
<path d="M161.778 280.672L159.493 279.963L193.138 229.934L221.992 230.794L221.866 232.523L194.709 231.713L161.778 280.672Z" fill="#4169E1"/>
<path d="M97.7248 263.458L94.0261 270.835L96.4101 271.386L100.109 264.009L97.7248 263.458Z" fill="#4169E1"/>
<path d="M111.365 196.436L109.016 203.874L111.48 204.227L113.829 196.79L111.365 196.436Z" fill="#4169E1"/>
<path d="M86.1221 203.878L85.7854 205.594L97.8562 206.646L98.1929 204.93L86.1221 203.878Z" fill="#4169E1"/>
</g>
</g>
</g>
<path d="M66.6274 264.241V265.327C66.6274 265.854 66.0596 266.182 65.6035 265.918L55.3888 259.997C54.6881 259.591 54.2561 258.839 54.2561 258.027V256.941C54.2561 256.414 54.824 256.086 55.28 256.35L65.4948 262.271C66.1955 262.677 66.6274 263.429 66.6274 264.241Z" fill="white" stroke="black" stroke-width="0.44" stroke-miterlimit="10"/>
<path d="M89.9491 278.894C89.7592 278.259 89.9484 277.64 90.3718 277.513C90.7952 277.385 91.2923 277.797 91.4823 278.432C91.6722 279.067 91.483 279.685 91.0596 279.813C90.6362 279.94 90.139 279.529 89.9491 278.894Z" fill="#231F20"/>
<path d="M87.8988 277.721C87.7089 277.086 87.8981 276.468 88.3215 276.34C88.7449 276.213 89.2421 276.624 89.432 277.259C89.6219 277.894 89.4327 278.512 89.0093 278.64C88.5859 278.767 88.0887 278.356 87.8988 277.721Z" fill="#231F20"/>
<path d="M85.851 276.55C85.661 275.915 85.8503 275.297 86.2736 275.169C86.697 275.042 87.1942 275.453 87.3841 276.088C87.5741 276.723 87.3848 277.341 86.9614 277.469C86.5381 277.596 86.0409 277.185 85.851 276.55Z" fill="#231F20"/>
<path d="M83.8058 275.379C83.6159 274.744 83.8051 274.125 84.2285 273.998C84.6518 273.87 85.149 274.282 85.339 274.917C85.5289 275.552 85.3396 276.17 84.9163 276.297C84.4929 276.425 83.9957 276.014 83.8058 275.379Z" fill="#231F20"/>
<path d="M81.7579 274.207C81.568 273.572 81.7572 272.953 82.1806 272.826C82.604 272.698 83.1012 273.11 83.2911 273.745C83.481 274.38 83.2918 274.998 82.8684 275.126C82.445 275.253 81.9479 274.842 81.7579 274.207Z" fill="#231F20"/>
<path d="M79.7025 273.032C79.5126 272.397 79.7018 271.779 80.1252 271.651C80.5486 271.524 81.0458 271.935 81.2357 272.57C81.4256 273.205 81.2364 273.823 80.813 273.951C80.3896 274.079 79.8925 273.667 79.7025 273.032Z" fill="#231F20"/>
<path d="M40.1876 249.451C39.9977 248.816 40.1869 248.198 40.6103 248.07C41.0337 247.943 41.5309 248.354 41.7208 248.989C41.9107 249.624 41.7215 250.242 41.2981 250.37C40.8747 250.498 40.3776 250.086 40.1876 249.451Z" fill="#231F20"/>
<path d="M38.1398 248.281C37.9498 247.646 38.1391 247.027 38.5625 246.9C38.9858 246.772 39.483 247.184 39.673 247.819C39.8629 248.454 39.6736 249.072 39.2503 249.199C38.8269 249.327 38.3297 248.916 38.1398 248.281Z" fill="#231F20"/>
<path d="M36.0922 247.11C35.9022 246.475 36.0915 245.857 36.5148 245.729C36.9382 245.602 37.4354 246.013 37.6253 246.648C37.8153 247.283 37.626 247.901 37.2026 248.029C36.7793 248.156 36.2821 247.745 36.0922 247.11Z" fill="#231F20"/>
<path d="M34.0416 245.937C33.8517 245.302 34.0409 244.684 34.4643 244.557C34.8877 244.429 35.3849 244.84 35.5748 245.475C35.7647 246.11 35.5755 246.729 35.1521 246.856C34.7287 246.984 34.2316 246.572 34.0416 245.937Z" fill="#231F20"/>
<path d="M31.9913 244.766C31.8014 244.131 31.9906 243.513 32.414 243.385C32.8374 243.258 33.3346 243.669 33.5245 244.304C33.7144 244.939 33.5252 245.557 33.1018 245.685C32.6784 245.812 32.1813 245.401 31.9913 244.766Z" fill="#231F20"/>
<path d="M29.9462 243.593C29.7562 242.958 29.9455 242.34 30.3689 242.212C30.7922 242.085 31.2894 242.496 31.4793 243.131C31.6693 243.766 31.48 244.384 31.0567 244.512C30.6333 244.639 30.1361 244.228 29.9462 243.593Z" fill="#231F20"/>
<path d="M296.767 192.752L302.544 189.402C303.541 188.823 304.789 189.548 304.789 190.703V191.664C304.789 192.834 304.166 193.916 303.158 194.501L297.283 197.906C296.256 198.5 294.976 197.757 294.976 196.569V195.872C294.976 194.586 295.658 193.398 296.77 192.755L296.767 192.752Z" fill="#4169E1" stroke="black" stroke-width="0.44" stroke-miterlimit="10"/>
<path d="M296.882 193.746L302.659 190.396C303.656 189.817 304.792 190.151 305.508 191.567H305.284C305.284 192.737 304.562 193.962 303.55 194.547L296.963 198.524C296.398 198.676 295.115 198.115 295.226 196.678C295.226 196.678 295.214 194.577 296.882 193.743V193.746Z" fill="black" stroke="black" stroke-width="0.44" stroke-miterlimit="10"/>
<path d="M297.798 194.349L303.576 191C304.573 190.42 305.82 191.145 305.82 192.3V192.245C305.82 193.416 305.198 194.498 304.189 195.083L298.315 198.488C295.896 199.533 295.896 197.326 295.896 197.326C295.896 196.041 296.69 194.992 297.798 194.349Z" fill="#4169E1" stroke="black" stroke-width="0.44" stroke-miterlimit="10"/>
<mask id="mask1_18087_5618" style="mask-type:luminance" maskUnits="userSpaceOnUse" x="54" y="256" width="13" height="11">
<path d="M66.6272 264.243V265.328C66.6272 265.856 66.0594 266.183 65.6033 265.92L55.3885 259.999C54.6878 259.593 54.2559 258.841 54.2559 258.028V256.943C54.2559 256.416 54.8237 256.088 55.2798 256.352L65.4946 262.273C66.1953 262.679 66.6272 263.431 66.6272 264.243Z" fill="white"/>
</mask>
<g mask="url(#mask1_18087_5618)">
<path d="M67.3198 263.551V264.637C67.3198 265.164 66.752 265.492 66.2959 265.228L56.0812 259.307C55.3805 258.901 54.9486 258.149 54.9486 257.337V256.251C54.9486 255.724 55.5164 255.396 55.9725 255.66L66.1872 261.581C66.8879 261.987 67.3198 262.739 67.3198 263.551Z" fill="black"/>
</g>
<path d="M295.274 137.183L293.583 138.163C291.749 139.224 289.493 139.224 287.66 138.163L262.171 123.399C260.712 122.553 260.712 120.44 262.171 119.594L263.866 118.615C265.699 117.554 267.955 117.554 269.785 118.615L295.271 133.379C296.73 134.224 296.73 136.337 295.271 137.18L295.274 137.183Z" fill="#4169E1" stroke="black" stroke-width="0.44" stroke-miterlimit="10"/>
<path d="M139.874 278.667V292.628L141.42 291.733V277.83L139.874 278.667Z" fill="white" stroke="black" stroke-width="0.44" stroke-miterlimit="10"/>
<path d="M313.652 177.964V191.924L315.198 191.03V177.066L313.652 177.964Z" fill="white" stroke="black" stroke-width="0.44" stroke-miterlimit="10"/>
<path d="M68.4088 266.684C68.2189 266.049 68.4081 265.431 68.8315 265.303C69.2549 265.176 69.7521 265.587 69.942 266.222C70.1319 266.857 69.9427 267.475 69.5193 267.603C69.0959 267.73 68.5987 267.319 68.4088 266.684Z" fill="#231F20"/>
<path d="M51.1114 256.486C50.9215 255.851 51.1108 255.233 51.5341 255.106C51.9575 254.978 52.4547 255.389 52.6446 256.024C52.8346 256.66 52.6453 257.278 52.2219 257.405C51.7986 257.533 51.3014 257.121 51.1114 256.486Z" fill="#231F20"/>
<path d="M269.308 123.549C268.354 124.104 267.176 124.104 266.222 123.549C265.086 122.891 265.086 121.242 266.222 120.584C267.176 120.029 268.354 120.029 269.308 120.584C270.444 121.242 270.444 122.891 269.308 123.549Z" fill="#00125C" stroke="black" stroke-width="0.44" stroke-miterlimit="10"/>
<path d="M290.832 135.912L290.805 135.927C289.778 136.46 288.555 136.436 287.552 135.86L273.507 127.684C272.335 127.011 272.332 125.313 273.501 124.637C274.552 124.028 275.848 124.028 276.899 124.637L290.901 132.835C292.1 133.529 292.061 135.278 290.835 135.918L290.832 135.912Z" fill="#00125C" stroke="black" stroke-width="0.44" stroke-miterlimit="10"/>
<path d="M296.97 325.359V328.258" stroke="black" stroke-width="0.44" stroke-miterlimit="10"/>
<path d="M292.497 322.968V325.964" stroke="black" stroke-width="0.44" stroke-miterlimit="10"/>
<g clip-path="url(#clip3_18087_5618)">
<path d="M234.176 101.674C233.968 101.554 233.54 101.606 233.219 101.792L232.95 101.948C232.628 102.134 232.537 102.381 232.746 102.502" fill="black"/>
</g>
<path d="M131.917 82.4749L173.317 58.5726C180.988 54.1438 187.207 57.7341 187.207 66.5916C187.207 75.4491 180.988 86.22 173.317 90.6487L131.917 114.551C124.247 118.98 118.028 115.389 118.028 106.532C118.028 97.6745 124.247 86.9037 131.917 82.4749Z" fill="#693000"/>
<path d="M131.917 82.4749L173.317 58.5726C180.988 54.1438 187.207 57.7341 187.207 66.5916C187.207 75.4491 180.988 86.22 173.317 90.6487L131.917 114.551C124.247 118.98 118.028 115.389 118.028 106.532C118.028 97.6745 124.247 86.9037 131.917 82.4749Z" stroke="#1C1C1C" stroke-width="0.609037"/>
<path d="M134.637 84.0345L175.258 60.5819C182.929 56.1531 189.147 59.7434 189.147 68.601C189.147 77.4584 182.929 88.2294 175.258 92.6581L134.637 116.111C126.966 120.539 120.747 116.949 120.747 108.092C120.747 99.2341 126.966 88.4633 134.637 84.0345Z" fill="#FF9500"/>
<path d="M134.637 84.0345L175.258 60.5819C182.929 56.1531 189.147 59.7434 189.147 68.601C189.147 77.4584 182.929 88.2294 175.258 92.6581L134.637 116.111C126.966 120.539 120.747 116.949 120.747 108.092C120.747 99.2341 126.966 88.4633 134.637 84.0345Z" stroke="#1C1C1C" stroke-width="0.609037"/>
<path d="M133.958 109.51V89.1744L142.739 84.1046C145.76 82.3603 147.443 83.3317 147.443 86.5934V87.033C147.443 89.3304 146.595 91.3087 145.22 92.6559C146.767 92.273 147.725 93.2941 147.725 95.8041V96.3288C147.725 99.5905 146.018 102.547 142.665 104.483L133.958 109.51ZM141.007 101.228C141.941 100.69 142.53 99.6827 142.53 98.5907V97.6406C142.53 96.5628 141.953 96.2296 141.007 96.7755L139.165 97.8391V102.292L141.007 101.228ZM140.983 93.5139C141.83 93.0246 142.408 92.0532 142.408 91.0463V90.1813C142.408 89.1602 141.83 88.8411 140.983 89.3304L139.165 90.3798V94.5633L140.983 93.5139Z" fill="white"/>
<path d="M151.981 99.1047V83.4911L147.977 85.8027V81.0803L161.217 73.4366V78.159L157.225 80.4634V96.077L151.981 99.1047Z" fill="white"/>
<path d="M168.813 89.8406C163.827 92.7194 161.432 91.3368 161.432 85.3948V81.5659C161.432 75.6239 163.827 71.4759 168.813 68.5971C173.59 65.8389 175.825 67.1294 175.85 72.3197V73.1422L170.508 76.2266V74.9078C170.508 73.121 169.82 72.7239 168.764 73.3337C167.622 73.9931 166.836 75.3545 166.836 77.5526V83.14C166.836 85.3665 167.622 85.8203 168.764 85.1608C169.857 84.5298 170.569 83.296 170.569 81.4524V79.9209L175.936 76.8223V77.7866C175.924 83.14 173.664 87.0398 168.813 89.8406Z" fill="white"/>
<path d="M201.139 91.1923L242.539 67.29C250.21 62.8612 256.428 66.4515 256.428 75.309C256.428 84.1665 250.209 94.9374 242.539 99.3661L201.139 123.268C193.468 127.697 187.249 124.107 187.249 115.249C187.249 106.392 193.468 95.6211 201.139 91.1923Z" fill="#3A0069"/>
<path d="M201.139 91.1923L242.539 67.29C250.21 62.8612 256.428 66.4515 256.428 75.309C256.428 84.1665 250.209 94.9374 242.539 99.3661L201.139 123.268C193.468 127.697 187.249 124.107 187.249 115.249C187.249 106.392 193.468 95.6211 201.139 91.1923Z" stroke="#1C1C1C" stroke-width="0.609037"/>
<path d="M203.862 92.7516L244.483 69.299C252.154 64.8702 258.373 68.4605 258.373 77.3181C258.373 86.1755 252.154 96.9465 244.483 101.375L203.862 124.828C196.191 129.257 189.973 125.666 189.973 116.809C189.973 107.951 196.191 97.1804 203.862 92.7516Z" fill="#E0D0F5"/>
<path d="M203.862 92.7516L244.483 69.299C252.154 64.8702 258.373 68.4605 258.373 77.3181C258.373 86.1755 252.154 96.9465 244.483 101.375L203.862 124.828C196.191 129.257 189.973 125.666 189.973 116.809C189.973 107.951 196.191 97.1804 203.862 92.7516Z" stroke="#1C1C1C" stroke-width="0.609037"/>
<path d="M203.792 118.998V98.6623L215.778 91.7418V96.3933L209.024 100.293V103.668L214.391 100.57V104.696L209.024 107.795V111.326L215.815 107.405V112.056L203.792 118.998Z" fill="#3A0069"/>
<path d="M220.538 109.33V93.7164L216.534 96.028V91.3056L229.773 83.6619V88.3843L225.782 90.6887V106.302L220.538 109.33Z" fill="#3A0069"/>
<path d="M239.31 98.4918V90.4227L235.932 92.3726V100.442L230.701 103.462V83.1265L235.932 80.1058V87.707L239.31 85.7571V78.1559L244.554 75.1282V95.4641L239.31 98.4918Z" fill="#3A0069"/>
<path d="M93.4509 155.805L134.851 131.902C142.522 127.474 148.74 131.064 148.74 139.922C148.74 148.779 142.522 159.55 134.851 163.979L93.4509 187.881C85.7801 192.31 79.5616 188.719 79.5615 179.862C79.5615 171.004 85.78 160.234 93.4509 155.805Z" fill="#10464C"/>
<path d="M93.4509 155.805L134.851 131.902C142.522 127.474 148.74 131.064 148.74 139.922C148.74 148.779 142.522 159.55 134.851 163.979L93.4509 187.881C85.7801 192.31 79.5616 188.719 79.5615 179.862C79.5615 171.004 85.78 160.234 93.4509 155.805Z" stroke="#1C1C1C" stroke-width="0.609037"/>
<path d="M96.1745 157.365L136.796 133.912C144.467 129.483 150.685 133.073 150.685 141.931C150.685 150.789 144.466 161.559 136.796 165.988L96.1745 189.441C88.5037 193.87 82.2852 190.279 82.2851 181.422C82.2851 172.564 88.5036 161.793 96.1745 157.365Z" fill="#E6F7F4"/>
<path d="M96.1745 157.365L136.796 133.912C144.467 129.483 150.685 133.073 150.685 141.931C150.685 150.789 144.466 161.559 136.796 165.988L96.1745 189.441C88.5037 193.87 82.2852 190.279 82.2851 181.422C82.2851 172.564 88.5036 161.793 96.1745 157.365Z" stroke="#1C1C1C" stroke-width="0.609037"/>
<path d="M94.6055 184.476V164.14L103.387 159.071C106.408 157.326 108.09 158.298 108.09 161.559V161.999C108.09 164.296 107.243 166.275 105.867 167.622C107.415 167.239 108.373 168.26 108.373 170.77V171.295C108.373 174.556 106.666 177.513 103.313 179.449L94.6055 184.476ZM101.655 176.194C102.588 175.655 103.178 174.649 103.178 173.557V172.607C103.178 171.529 102.601 171.195 101.655 171.741L99.8127 172.805V177.258L101.655 176.194ZM101.63 168.48C102.478 167.991 103.055 167.019 103.055 166.012V165.147C103.055 164.126 102.478 163.807 101.63 164.296L99.8127 165.346V169.529L101.63 168.48Z" fill="#2AA5A5"/>
<path d="M116.473 172.305C111.486 175.184 109.092 173.801 109.092 167.859V164.03C109.092 158.088 111.486 153.94 116.473 151.062C121.25 148.303 123.485 149.594 123.51 154.784V155.607L118.167 158.691V157.372C118.167 155.585 117.48 155.188 116.423 155.798C115.281 156.457 114.495 157.819 114.495 160.017V165.604C114.495 167.831 115.281 168.285 116.423 167.625C117.517 166.994 118.229 165.76 118.229 163.917V162.385L123.596 159.287V160.251C123.583 165.604 121.324 169.504 116.473 172.305Z" fill="#2AA5A5"/>
<path d="M133.12 162.24V154.171L129.743 156.121V164.19L124.511 167.21V146.874L129.743 143.854V151.455L133.12 149.505V141.904L138.364 138.876V159.212L133.12 162.24Z" fill="#2AA5A5"/>
</g>
<defs>
<clipPath id="clip0_18087_5618">
<rect width="360" height="360" rx="5" fill="white"/>
</clipPath>
<clipPath id="clip1_18087_5618">
<rect width="133.452" height="261.26" fill="white" transform="matrix(0.866025 0.5 -0.866025 0.5 235.288 95.2385)"/>
</clipPath>
<clipPath id="clip2_18087_5618">
<rect width="2882.43" height="1467.66" fill="white" transform="matrix(1.22444 0.0157133 -0.0272162 0.706932 -1570.62 -468.164)"/>
</clipPath>
<clipPath id="clip3_18087_5618">
<rect width="113.446" height="7.38695" fill="white" transform="matrix(-0.86557 -0.500789 -0.86557 0.500789 334.057 157.077)"/>
</clipPath>
</defs>
</svg>
