<svg width="336" height="71" viewBox="0 0 336 71" fill="none" xmlns="http://www.w3.org/2000/svg">
<path d="M87.4557 52.3159V19.946H102.935C105.215 19.946 107.21 20.3249 108.92 21.0826C110.63 21.81 111.95 22.8405 112.88 24.1741C113.81 25.5077 114.275 27.0535 114.275 28.8114C114.275 30.3874 113.84 31.7816 112.97 32.994C112.1 34.2064 110.99 35.0399 109.64 35.4945V35.9491C111.26 36.4038 112.58 37.313 113.6 38.6769C114.65 40.0408 115.175 41.632 115.175 43.4506C115.175 45.2388 114.695 46.7997 113.735 48.1333C112.775 49.4669 111.41 50.4974 109.64 51.2248C107.87 51.9522 105.815 52.3159 103.475 52.3159H87.4557ZM101.63 33.2213C103.1 33.2213 104.3 32.8728 105.23 32.1757C106.16 31.4786 106.625 30.5693 106.625 29.4479C106.625 28.3264 106.16 27.4172 105.23 26.7201C104.3 26.023 103.1 25.6744 101.63 25.6744H94.9255V33.2213H101.63ZM101.945 46.5875C103.565 46.5875 104.9 46.2087 105.95 45.451C107 44.6629 107.525 43.6627 107.525 42.4504C107.525 41.2683 107 40.2984 105.95 39.5407C104.9 38.7527 103.565 38.3587 101.945 38.3587H94.9255V46.5875H101.945Z" fill="black"/>
<path d="M121.416 25.8108C120.247 25.8108 119.287 25.4471 118.537 24.7197C117.787 23.962 117.412 23.0072 117.412 21.8555C117.412 20.7038 117.787 19.7642 118.537 19.0368C119.287 18.279 120.247 17.9002 121.416 17.9002C122.586 17.9002 123.546 18.279 124.296 19.0368C125.046 19.7642 125.421 20.7038 125.421 21.8555C125.421 23.0072 125.046 23.962 124.296 24.7197C123.546 25.4471 122.586 25.8108 121.416 25.8108ZM124.746 52.3159H118.087V29.0387H124.746V52.3159Z" fill="black"/>
<path d="M138.088 53.0433C135.778 53.0433 133.933 52.2856 132.553 50.7702C131.173 49.2547 130.483 47.2695 130.483 44.8145V33.9487H127.243V29.0387H130.663L131.968 21.6736H137.188L137.143 29.0387H142.408V33.9487H137.143V44.5417C137.143 45.5419 137.413 46.3451 137.953 46.9513C138.523 47.5271 139.273 47.8151 140.203 47.8151C140.893 47.8151 141.688 47.709 142.588 47.4968V52.3159C141.958 52.5281 141.223 52.6948 140.383 52.816C139.543 52.9676 138.778 53.0433 138.088 53.0433Z" fill="black"/>
<path d="M156.299 53.0433C153.869 53.0433 151.709 52.5281 149.819 51.4976C147.929 50.4671 146.444 49.0123 145.364 47.1331C144.314 45.254 143.789 43.102 143.789 40.6773C143.789 38.2223 144.314 36.0704 145.364 34.2215C146.414 32.3424 147.884 30.8875 149.774 29.857C151.664 28.8265 153.839 28.3113 156.299 28.3113C158.369 28.3113 160.244 28.6901 161.923 29.4479C163.633 30.1753 165.028 31.2209 166.108 32.5848C167.188 33.9487 167.848 35.54 168.088 37.3585L161.878 38.1768C161.578 36.9039 160.903 35.8734 159.854 35.0853C158.834 34.267 157.679 33.8578 156.389 33.8578C154.679 33.8578 153.254 34.4943 152.114 35.7673C151.004 37.0402 150.449 38.6769 150.449 40.6773C150.449 42.6777 151.004 44.3144 152.114 45.5874C153.224 46.8603 154.634 47.4968 156.344 47.4968C157.664 47.4968 158.834 47.1028 159.854 46.3148C160.873 45.4964 161.548 44.4659 161.878 43.2233L168.133 43.9961C167.863 45.8147 167.173 47.4059 166.063 48.7698C164.983 50.1337 163.588 51.1945 161.878 51.9522C160.199 52.6796 158.339 53.0433 156.299 53.0433Z" fill="black"/>
<path d="M182.771 53.0433C180.221 53.0433 177.986 52.5432 176.066 51.543C174.146 50.5125 172.646 49.0729 171.566 47.224C170.516 45.3449 169.991 43.1626 169.991 40.6773C169.991 38.192 170.516 36.0249 171.566 34.1761C172.646 32.2969 174.146 30.8572 176.066 29.857C177.986 28.8265 180.221 28.3113 182.771 28.3113C185.29 28.3113 187.51 28.8265 189.43 29.857C191.38 30.8572 192.88 32.2969 193.93 34.1761C195.01 36.0249 195.55 38.192 195.55 40.6773C195.55 43.1626 195.01 45.3449 193.93 47.224C192.88 49.0729 191.38 50.5125 189.43 51.543C187.51 52.5432 185.29 53.0433 182.771 53.0433ZM182.771 47.315C184.541 47.315 185.995 46.6936 187.135 45.451C188.275 44.2083 188.845 42.6171 188.845 40.6773C188.845 38.7375 188.275 37.1615 187.135 35.9491C185.995 34.7065 184.541 34.0851 182.771 34.0851C180.971 34.0851 179.501 34.7065 178.361 35.9491C177.221 37.1615 176.651 38.7375 176.651 40.6773C176.651 42.6171 177.221 44.2083 178.361 45.451C179.501 46.6936 180.971 47.315 182.771 47.315Z" fill="black"/>
<path d="M201.796 25.8108C200.626 25.8108 199.666 25.4471 198.916 24.7197C198.166 23.962 197.791 23.0072 197.791 21.8555C197.791 20.7038 198.166 19.7642 198.916 19.0368C199.666 18.279 200.626 17.9002 201.796 17.9002C202.966 17.9002 203.926 18.279 204.675 19.0368C205.425 19.7642 205.8 20.7038 205.8 21.8555C205.8 23.0072 205.425 23.962 204.675 24.7197C203.926 25.4471 202.966 25.8108 201.796 25.8108ZM205.125 52.3159H198.466V29.0387H205.125V52.3159Z" fill="black"/>
<path d="M209.107 52.3159V29.0387H215.767V32.3121H216.217C217.927 29.6752 220.162 28.3567 222.922 28.3567C224.632 28.3567 226.147 28.7811 227.467 29.6297C228.787 30.4481 229.807 31.5998 230.527 33.0849C231.247 34.5398 231.607 36.1916 231.607 38.0404V52.3159H224.947V38.9952C224.947 37.5403 224.557 36.3734 223.777 35.4945C222.997 34.5852 221.947 34.1306 220.627 34.1306C219.277 34.1306 218.122 34.6155 217.162 35.5854C216.232 36.5553 215.767 37.7677 215.767 39.2225V52.3159H209.107Z" fill="black"/>
<path d="M237.881 52.8615C236.741 52.8615 235.796 52.5129 235.047 51.8158C234.327 51.0884 233.967 50.164 233.967 49.0426C233.967 47.9211 234.327 47.0119 235.047 46.3148C235.796 45.5874 236.741 45.2236 237.881 45.2236C239.021 45.2236 239.951 45.5874 240.671 46.3148C241.391 47.0119 241.751 47.9211 241.751 49.0426C241.751 50.164 241.391 51.0884 240.671 51.8158C239.951 52.5129 239.021 52.8615 237.881 52.8615Z" fill="black"/>
<path d="M255.41 53.0433C252.98 53.0433 250.82 52.5281 248.93 51.4976C247.04 50.4671 245.555 49.0123 244.475 47.1331C243.426 45.254 242.901 43.102 242.901 40.6773C242.901 38.2223 243.426 36.0704 244.475 34.2215C245.525 32.3424 246.995 30.8875 248.885 29.857C250.775 28.8265 252.95 28.3113 255.41 28.3113C257.48 28.3113 259.355 28.6901 261.035 29.4479C262.745 30.1753 264.14 31.2209 265.22 32.5848C266.3 33.9487 266.96 35.54 267.2 37.3585L260.99 38.1768C260.69 36.9039 260.015 35.8734 258.965 35.0853C257.945 34.267 256.79 33.8578 255.5 33.8578C253.79 33.8578 252.365 34.4943 251.225 35.7673C250.115 37.0402 249.56 38.6769 249.56 40.6773C249.56 42.6777 250.115 44.3144 251.225 45.5874C252.335 46.8603 253.745 47.4968 255.455 47.4968C256.775 47.4968 257.945 47.1028 258.965 46.3148C259.985 45.4964 260.66 44.4659 260.99 43.2233L267.245 43.9961C266.975 45.8147 266.285 47.4059 265.175 48.7698C264.095 50.1337 262.7 51.1945 260.99 51.9522C259.31 52.6796 257.45 53.0433 255.41 53.0433Z" fill="black"/>
<path d="M281.882 53.0433C279.332 53.0433 277.097 52.5432 275.177 51.543C273.257 50.5125 271.757 49.0729 270.677 47.224C269.627 45.3449 269.102 43.1626 269.102 40.6773C269.102 38.192 269.627 36.0249 270.677 34.1761C271.757 32.2969 273.257 30.8572 275.177 29.857C277.097 28.8265 279.332 28.3113 281.882 28.3113C284.402 28.3113 286.622 28.8265 288.542 29.857C290.492 30.8572 291.992 32.2969 293.042 34.1761C294.122 36.0249 294.662 38.192 294.662 40.6773C294.662 43.1626 294.122 45.3449 293.042 47.224C291.992 49.0729 290.492 50.5125 288.542 51.543C286.622 52.5432 284.402 53.0433 281.882 53.0433ZM281.882 47.315C283.652 47.315 285.107 46.6936 286.247 45.451C287.387 44.2083 287.957 42.6171 287.957 40.6773C287.957 38.7375 287.387 37.1615 286.247 35.9491C285.107 34.7065 283.652 34.0851 281.882 34.0851C280.082 34.0851 278.612 34.7065 277.472 35.9491C276.332 37.1615 275.762 38.7375 275.762 40.6773C275.762 42.6171 276.332 44.2083 277.472 45.451C278.612 46.6936 280.082 47.315 281.882 47.315Z" fill="black"/>
<path d="M297.307 52.3159V29.0387H303.922V32.4939H304.372C305.032 31.2209 305.947 30.2056 307.117 29.4479C308.287 28.6901 309.592 28.3113 311.032 28.3113C312.532 28.3113 313.927 28.7205 315.217 29.5388C316.537 30.3268 317.497 31.3876 318.097 32.7212H318.547C319.267 31.3573 320.242 30.2965 321.472 29.5388C322.732 28.7508 324.172 28.3567 325.791 28.3567C327.471 28.3567 328.971 28.7659 330.291 29.5843C331.611 30.3723 332.646 31.4937 333.396 32.9485C334.146 34.4034 334.521 36.0552 334.521 37.904V52.3159H327.861V39.0406C327.861 37.6161 327.456 36.4492 326.646 35.54C325.836 34.6004 324.802 34.1154 323.542 34.0851C322.252 34.0851 321.187 34.5549 320.347 35.4945C319.537 36.4038 319.132 37.5858 319.132 39.0406V52.3159H312.427V39.0406C312.427 37.5252 312.052 36.328 311.302 35.449C310.552 34.5398 309.547 34.0851 308.287 34.0851C306.967 34.0851 305.917 34.5398 305.137 35.449C304.357 36.3583 303.967 37.5555 303.967 39.0406V52.3159H297.307Z" fill="black"/>
<path d="M0 15.8097C0 7.07825 7.00592 0 15.6482 0H54.6263C63.2686 0 70.2745 7.07825 70.2745 15.8097V55.1903C70.2745 63.9217 63.2686 71 54.6263 71H15.6482C7.00592 71 0 63.9217 0 55.1903V15.8097Z" fill="#FF9500"/>
<path d="M53.2981 29.5699C54.1114 24.0655 49.9652 21.1069 44.2937 19.1316L46.135 11.6732L41.6434 10.5408L39.8526 17.7991C38.6728 17.5011 37.4593 17.2202 36.2542 16.9434L38.0576 9.63403L33.5659 8.50165L31.7246 15.9558C30.6586 15.7089 22.6654 13.6868 22.6654 13.6868L21.4687 18.5356C21.4687 18.5356 24.8101 19.3742 24.73 19.353C26.5503 19.8127 27.0517 21.0643 26.8242 21.9923L21.7805 42.4178C21.6373 42.9968 20.9926 43.8141 19.7201 43.4949C19.8128 43.5161 16.4546 42.6732 16.4546 42.6732L14.2256 47.8669L23.2764 50.1742L21.4182 57.7178L25.9056 58.8502L27.747 51.3875C28.9731 51.7238 30.1614 52.0346 31.3285 52.3283L29.4956 59.7569L33.9873 60.8893L35.8455 53.3628C43.5058 54.8272 49.2657 54.2355 51.6928 47.2368C53.6479 41.6005 51.5958 38.3481 47.5634 36.228C50.5003 35.5426 52.7082 33.5929 53.2981 29.5657V29.5699ZM43.0338 44.1121C41.6434 49.7485 32.2513 46.7004 29.2049 45.9384L31.674 35.9471C34.7204 36.7133 44.4833 38.2331 43.0338 44.1121ZM44.4243 29.4891C43.156 34.6146 35.3398 32.0093 32.8033 31.3707L35.0407 22.3074C37.5773 22.9459 45.7432 24.1379 44.4243 29.4848V29.4891Z" fill="white"/>
</svg>
