<svg width="24" height="24" viewBox="0 0 24 24" fill="none" xmlns="http://www.w3.org/2000/svg">
<path d="M1 10.0253C1 8.78634 1.23454 7.62091 1.70362 6.52904C2.17271 5.43717 2.82552 4.48082 3.66205 3.65998C4.49858 2.8314 5.46411 2.18092 6.55864 1.70855C7.66098 1.23618 8.84151 1 10.1002 1C11.3589 1 12.5394 1.23618 13.6418 1.70855C14.7441 2.18092 15.7097 2.8314 16.5384 3.65998C17.3749 4.48082 18.0277 5.43717 18.4968 6.52904C18.9737 7.62091 19.2122 8.78634 19.2122 10.0253C19.2122 10.9701 19.0675 11.8722 18.7783 12.7318C18.4968 13.5913 18.102 14.3812 17.5938 15.1014L22.4957 19.9683C22.6599 20.1387 22.785 20.3323 22.871 20.5491C22.957 20.7659 23 20.9905 23 21.2228C23 21.5558 22.9218 21.8539 22.7655 22.1172C22.6091 22.3882 22.398 22.6012 22.1322 22.7561C21.8664 22.9187 21.5615 23 21.2175 23C20.9829 23 20.7523 22.9574 20.5256 22.8722C20.3067 22.7948 20.1112 22.6709 19.9392 22.5005L14.9904 17.5987C14.2868 18.0556 13.5245 18.4118 12.7036 18.6674C11.8827 18.9229 11.0149 19.0507 10.1002 19.0507C8.84151 19.0507 7.66098 18.8184 6.55864 18.3537C5.46411 17.8891 4.49858 17.2425 3.66205 16.4139C2.82552 15.5854 2.17271 14.6251 1.70362 13.5333C1.23454 12.4414 1 11.2721 1 10.0253ZM3.47441 10.0253C3.47441 10.9314 3.64641 11.7832 3.99041 12.5808C4.3344 13.3706 4.8113 14.0676 5.42111 14.6716C6.03092 15.2679 6.73454 15.7364 7.53198 16.0771C8.32942 16.4178 9.1855 16.5882 10.1002 16.5882C11.0149 16.5882 11.871 16.4178 12.6684 16.0771C13.4659 15.7364 14.1695 15.2679 14.7793 14.6716C15.3891 14.0676 15.8621 13.3706 16.1983 12.5808C16.5423 11.7832 16.7143 10.9314 16.7143 10.0253C16.7143 9.11932 16.5423 8.27138 16.1983 7.48152C15.8621 6.69166 15.3891 5.99472 14.7793 5.39071C14.1695 4.7867 13.4659 4.3182 12.6684 3.98522C11.871 3.64449 11.0149 3.47413 10.1002 3.47413C9.1855 3.47413 8.32942 3.64449 7.53198 3.98522C6.73454 4.3182 6.03092 4.7867 5.42111 5.39071C4.8113 5.99472 4.3344 6.69166 3.99041 7.48152C3.64641 8.27138 3.47441 9.11932 3.47441 10.0253Z" fill="black"/>
</svg>
