<svg width="62" height="62" viewBox="0 0 62 62" fill="none" xmlns="http://www.w3.org/2000/svg">
<g clip-path="url(#clip0_18011_3822)">
<path d="M31.0257 31.1558C31.0257 39.1588 24.4478 45.6391 16.3324 45.6391C8.21694 45.6391 1.05405 38.6262 1.05405 30.6233C0.266504 17.1225 8.21694 16.6725 16.3324 16.6725C24.4478 16.6725 31.4757 17.3701 31.0257 31.1558Z" fill="#FF9500" stroke="#1C1C1C" stroke-width="0.5" stroke-linejoin="round"/>
<path d="M15.9874 42.4666C24.2604 42.4666 30.9732 35.6487 30.9732 27.2333C30.9732 18.8178 24.2604 11.9999 15.9874 11.9999C7.71446 11.9999 1.00159 18.8178 1.00159 27.2333C1.00159 35.6487 7.70696 42.4666 15.9874 42.4666Z" fill="#FFE2C8" stroke="#1C1C1C" stroke-width="0.5" stroke-linejoin="round"/>
<path d="M16.0253 39.0313C22.5432 39.0313 27.831 33.7435 27.831 27.2256C27.831 20.7077 22.5432 15.42 16.0253 15.42C9.50746 15.42 4.21967 20.7077 4.21967 27.2256C4.21967 33.7435 9.50746 39.0313 16.0253 39.0313Z" fill="#FF9500" stroke="#1C1C1C" stroke-width="0.5" stroke-linejoin="round"/>
<path d="M21.2235 23.723C21.366 25.0881 20.8035 25.9206 19.9409 26.3856C21.381 26.7532 22.281 27.6457 22.101 29.6558C21.876 32.1534 20.1134 32.836 17.5858 32.986V34.8536C17.5858 35.2736 17.2483 35.6111 16.8282 35.6111C16.4082 35.6111 16.0707 35.2736 16.0707 34.8536V33.0235C15.6807 33.0235 15.2757 33.0235 14.8781 33.0085V34.8611C14.8781 35.2811 14.5406 35.6186 14.1206 35.6186C13.7006 35.6186 13.363 35.2811 13.363 34.8611V32.9935C13.0105 32.9935 12.658 32.9785 12.2905 32.9785H11.4279C10.8504 32.9785 10.4079 32.461 10.5054 31.8909C10.5804 31.4334 10.9854 31.1034 11.4429 31.1034C11.7355 31.1034 11.728 31.0959 11.728 31.0959C12.148 31.0959 12.253 30.7809 12.2905 30.5634V26.4231V23.4455C12.238 23.1305 12.028 22.7404 11.4129 22.7404C11.4129 22.7404 11.4129 22.7404 11.1729 22.7329C10.7079 22.7329 10.3254 22.3579 10.3254 21.8929C10.3254 21.4279 10.7004 21.0603 11.1579 21.0603H13.3705V19.2077C13.3705 18.7877 13.7081 18.4502 14.1281 18.4502C14.5481 18.4502 14.8856 18.7877 14.8856 19.2077V21.0003C15.2907 21.0003 15.6732 20.9853 16.0782 20.9853V19.2077C16.0782 18.7877 16.4157 18.4502 16.8357 18.4502C17.2558 18.4502 17.5933 18.7877 17.5933 19.2077V21.0603C19.5284 21.2253 21.0735 21.8554 21.231 23.738L21.2235 23.723ZM19.1084 29.3408C19.1084 27.3082 15.9057 27.6007 14.8856 27.6007V31.0734C15.9057 31.0734 19.1084 31.3134 19.1084 29.3333V29.3408ZM18.4258 24.443C18.4258 22.5754 15.7557 22.8529 14.8931 22.8529V26.0106C15.7557 26.0106 18.4258 26.2131 18.4258 24.443Z" fill="white"/>
<path d="M60.716 50.6194C48.5429 50.8294 36.3697 50.8069 24.1965 50.6194C23.844 43.2765 23.829 39.6088 24.0915 32.2659C36.3322 32.1234 48.5804 32.1084 60.8211 32.2659C61.0836 39.6088 61.0686 43.2765 60.716 50.6194Z" fill="#2AA5A5" stroke="#1C1C1C" stroke-width="0.5" stroke-linejoin="round"/>
<path d="M60.8112 48.1369C48.5706 48.2944 36.3224 48.2794 24.0817 48.1369C23.8192 40.794 23.8342 37.1263 24.1867 29.7834C36.3599 29.5959 48.5331 29.5734 60.7062 29.7834C61.0587 37.1263 61.0737 40.794 60.8112 48.1369Z" fill="#B9E5DE" stroke="#1C1C1C" stroke-width="0.5" stroke-linejoin="round"/>
<path d="M54.7069 45.9241C46.5315 45.9541 38.3635 45.9541 30.1881 45.9241C30.1581 44.2815 28.808 42.9464 27.1579 42.9389C27.1279 39.7512 27.1354 38.1611 27.1954 34.9735C28.8455 34.966 30.2031 33.6234 30.2406 31.9808C38.3785 31.9358 46.5165 31.9358 54.6544 31.9808C54.6919 33.6234 56.0495 34.966 57.6996 34.9735C57.7596 38.1611 57.7671 39.7512 57.7371 42.9389C56.087 42.9389 54.7369 44.2815 54.7069 45.9241Z" fill="#2AA5A5" stroke="#1C1C1C" stroke-width="0.5" stroke-linejoin="round"/>
<path d="M37.2303 38.9412C37.2303 42.7514 39.578 45.8416 42.4506 45.8416C45.3233 45.8416 47.6784 42.7439 47.6709 38.9412C47.6709 35.131 45.3083 32.0333 42.4506 32.0333C39.593 32.0333 37.2378 35.131 37.2303 38.9412Z" fill="#B9E5DE" stroke="#1C1C1C" stroke-width="0.5" stroke-linejoin="round"/>
</g>
<defs>
<clipPath id="clip0_18011_3822">
<rect width="62" height="62" rx="5" fill="white"/>
</clipPath>
</defs>
</svg>
