<svg width="62" height="62" viewBox="0 0 62 62" fill="none" xmlns="http://www.w3.org/2000/svg">
<g clip-path="url(#clip0_18011_6945)">
<path d="M43.1266 37.5529V23.1802L30.6838 15.9895L18.2322 23.1802V37.5529L30.6838 44.7437L43.1266 37.5529Z" fill="#CCD9FD" stroke="#1C1C1C" stroke-width="0.5" stroke-linejoin="round"/>
<path d="M14.4961 42.1969C14.4961 41.7651 14.5578 40.2141 14.452 39.8088C13.8968 37.6938 11.8524 37.2532 9.56125 37.2532C7.27008 37.2532 5.19041 37.7291 4.68811 39.9321C4.6088 40.2846 4.61761 41.8179 4.61761 42.1969C4.61761 44.9286 6.82947 47.1317 9.55244 47.1317C12.2754 47.1317 14.4873 44.9198 14.4873 42.1969H14.4961Z" fill="#CCD9FD" stroke="#1C1C1C" stroke-width="0.5" stroke-linejoin="round"/>
<path d="M9.55258 44.9111C12.278 44.9111 14.4874 42.7018 14.4874 39.9763C14.4874 37.2509 12.278 35.0415 9.55258 35.0415C6.82715 35.0415 4.61776 37.2509 4.61776 39.9763C4.61776 42.7018 6.82715 44.9111 9.55258 44.9111Z" fill="#4169E1" stroke="#1C1C1C" stroke-width="0.5" stroke-linejoin="round"/>
<path d="M35.4335 55.4152C35.4335 54.9834 35.4952 53.4325 35.3894 53.0271C34.8343 50.9122 32.7898 50.4716 30.4987 50.4716C28.2075 50.4716 26.1278 50.9474 25.6255 53.1505C25.5462 53.503 25.555 55.0363 25.555 55.4152C25.555 58.147 27.7669 60.35 30.4899 60.35C33.2128 60.35 35.4247 58.1382 35.4247 55.4152H35.4335Z" fill="#CCD9FD" stroke="#1C1C1C" stroke-width="0.5" stroke-linejoin="round"/>
<path d="M30.4989 58.1293C33.2243 58.1293 35.4337 55.9199 35.4337 53.1945C35.4337 50.469 33.2243 48.2596 30.4989 48.2596C27.7735 48.2596 25.5641 50.469 25.5641 53.1945C25.5641 55.9199 27.7735 58.1293 30.4989 58.1293Z" fill="#4169E1" stroke="#1C1C1C" stroke-width="0.5" stroke-linejoin="round"/>
<path d="M14.4959 20.6949C14.4959 20.2631 14.5575 18.7122 14.4518 18.3068C13.8966 16.1919 11.8522 15.7513 9.56104 15.7513C7.26987 15.7513 5.1902 16.2271 4.6879 18.4302C4.60859 18.7827 4.61741 20.316 4.61741 20.6949C4.61741 23.4267 6.82926 25.6297 9.55223 25.6297C12.2752 25.6297 14.4871 23.4179 14.4871 20.6949H14.4959Z" fill="#CCD9FD" stroke="#1C1C1C" stroke-width="0.5" stroke-linejoin="round"/>
<path d="M9.55237 23.4094C12.2778 23.4094 14.4872 21.2 14.4872 18.4746C14.4872 15.7491 12.2778 13.5397 9.55237 13.5397C6.82694 13.5397 4.61755 15.7491 4.61755 18.4746C4.61755 21.2 6.82694 23.4094 9.55237 23.4094Z" fill="#4169E1" stroke="#1C1C1C" stroke-width="0.5" stroke-linejoin="round"/>
<path d="M56.3804 20.6949C56.3804 20.2631 56.4421 18.7122 56.3363 18.3068C55.7811 16.1919 53.7367 15.7513 51.4456 15.7513C49.1544 15.7513 47.0747 16.2271 46.5724 18.4302C46.4931 18.7827 46.5019 20.316 46.5019 20.6949C46.5019 23.4267 48.7138 25.6297 51.4367 25.6297C54.1597 25.6297 56.3716 23.4179 56.3716 20.6949H56.3804Z" fill="#CCD9FD" stroke="#1C1C1C" stroke-width="0.5" stroke-linejoin="round"/>
<path d="M51.4369 23.4093C54.1623 23.4093 56.3717 21.1999 56.3717 18.4745C56.3717 15.7491 54.1623 13.5397 51.4369 13.5397C48.7115 13.5397 46.5021 15.7491 46.5021 18.4745C46.5021 21.1999 48.7115 23.4093 51.4369 23.4093Z" fill="#4169E1" stroke="#1C1C1C" stroke-width="0.5" stroke-linejoin="round"/>
<path d="M35.4337 8.15537C35.4337 7.72357 35.4954 6.17263 35.3897 5.76727C34.8345 3.65234 32.7901 3.21173 30.4989 3.21173C28.2077 3.21173 26.1281 3.68759 25.6258 5.89064C25.5465 6.24312 25.5553 7.77644 25.5553 8.15537C25.5553 10.8871 27.7671 13.0902 30.4901 13.0902C33.2131 13.0902 35.4249 10.8783 35.4249 8.15537H35.4337Z" fill="#CCD9FD" stroke="#1C1C1C" stroke-width="0.5" stroke-linejoin="round"/>
<path d="M30.4996 10.8696C33.2251 10.8696 35.4345 8.66025 35.4345 5.93482C35.4345 3.2094 33.2251 1 30.4996 1C27.7742 1 25.5648 3.2094 25.5648 5.93482C25.5648 8.66025 27.7742 10.8696 30.4996 10.8696Z" fill="#4169E1" stroke="#1C1C1C" stroke-width="0.5" stroke-linejoin="round"/>
<path d="M41.6723 51.1589C41.6723 50.6301 41.6723 50.357 41.6723 49.8282C41.6547 42.9724 49.6033 43.0957 49.6033 39.095C49.6033 39.0157 49.6033 38.9716 49.6033 38.8835C49.6033 37.6322 48.6075 36.7157 46.9508 36.7157C45.0033 36.7157 43.752 37.8877 43.5846 40.0555C40.1654 40.0555 38.4471 40.0731 35.0279 40.0996C35.5126 33.8077 40.1566 30.1154 47.2769 30.133C53.9036 30.1418 58.248 33.9751 58.2833 38.4605C58.2833 38.6279 58.2833 38.7073 58.2833 38.8747C58.3273 45.9509 49.5769 46.18 49.5592 50.8416C49.5592 50.9738 49.5592 51.0443 49.5592 51.1765C46.4045 51.1853 44.8359 51.1853 41.6811 51.1677L41.6723 51.1589ZM41.7252 60.2178C41.6988 57.4243 41.6899 56.0232 41.6811 53.2297C44.8271 53.2562 46.3957 53.265 49.5416 53.2474C49.5416 56.0496 49.5328 57.442 49.5152 60.2442C46.3957 60.2707 44.8447 60.2707 41.7252 60.2178Z" fill="#CCD9FD" stroke="#1C1C1C" stroke-width="0.5" stroke-linejoin="round"/>
<path d="M41.6633 48.6122C41.6633 48.0835 41.6633 47.8103 41.6633 47.2816C41.6545 40.4257 49.603 40.5403 49.5942 36.5395C49.5942 36.4602 49.5942 36.4162 49.5942 36.328C49.5942 35.0767 48.5985 34.1514 46.9418 34.1514C44.9943 34.1514 43.7517 35.3235 43.5843 37.4912C40.1652 37.5089 38.4556 37.5177 35.0365 37.5706C35.5388 31.2698 40.174 27.5511 47.2678 27.5687C53.8681 27.5864 58.2125 31.4461 58.2478 35.9315C58.2478 36.0989 58.2478 36.1782 58.2478 36.3457C58.3095 43.4218 49.559 43.6245 49.5502 48.2862C49.5502 48.4184 49.5502 48.4889 49.5502 48.621C46.3954 48.621 44.818 48.621 41.6633 48.621V48.6122ZM41.7073 57.6712C41.6897 54.8777 41.6809 53.4766 41.6721 50.6831C44.8268 50.7007 46.3954 50.7095 49.5502 50.6919C49.5502 53.4942 49.5414 54.8865 49.5325 57.6888C46.4042 57.7152 44.8445 57.7064 41.7161 57.6623L41.7073 57.6712Z" fill="white" stroke="#1C1C1C" stroke-width="0.5" stroke-linejoin="round"/>
</g>
<defs>
<clipPath id="clip0_18011_6945">
<rect width="62" height="62" rx="5" fill="white"/>
</clipPath>
</defs>
</svg>
