<svg width="102" height="102" viewBox="0 0 102 102" fill="none" xmlns="http://www.w3.org/2000/svg">
<rect x="0.5" y="0.5" width="101" height="101" rx="4.5" stroke="#8A38F5" stroke-dasharray="10 5"/>
<path d="M60.2391 59.9583C60.2391 70.4735 51.5899 78.9999 40.9212 78.9999C30.2525 78.9999 20.8383 69.7698 20.8383 59.2546C19.7979 41.5185 30.2525 40.9167 40.9212 40.9167C51.5899 40.9167 60.8205 41.8347 60.2391 59.9583Z" fill="url(#paint0_linear_18011_6548)" stroke="#1C1C1C" stroke-width="0.5" stroke-miterlimit="10"/>
<path d="M40.4622 73.8922C51.3451 73.8922 60.1575 64.9273 60.1575 53.8715C60.1575 42.8158 51.3349 33.8508 40.4622 33.8508C29.5894 33.8508 20.7668 42.8158 20.7668 53.8715C20.7668 64.9273 29.5894 73.8922 40.4622 73.8922Z" fill="url(#paint1_linear_18011_6548)" stroke="#1C1C1C" stroke-width="0.5" stroke-miterlimit="10"/>
<path d="M50.145 41.7113C42.6789 48.871 35.8656 56.9385 26.3596 60.2021C28.7871 65.6076 34.2031 69.3813 40.5166 69.3813C49.0842 69.3813 56.0301 62.4357 56.0301 53.8685C56.0301 48.9424 53.725 44.5568 50.145 41.7215V41.7113Z" fill="#F93DF5"/>
<path d="M40.5154 69.3812C49.0831 69.3812 56.0289 62.4356 56.0289 53.8684C56.0289 45.3012 49.0831 38.3557 40.5154 38.3557C31.9478 38.3557 25.002 45.3012 25.002 53.8684C25.002 62.4356 31.9478 69.3812 40.5154 69.3812Z" fill="url(#paint2_linear_18011_6548)" stroke="#1C1C1C" stroke-width="0.5" stroke-miterlimit="10"/>
<path d="M47.587 46.1845C45.7205 45.2258 43.4459 45.9499 42.477 47.8062L42.0588 48.6323L46.414 55.8226C46.5058 55.9756 46.567 56.1286 46.6486 56.2815L49.2291 51.2942C50.1879 49.4278 49.4637 47.1534 47.6074 46.1845H47.587Z" fill="white"/>
<path d="M44.0968 57.2351C42.8626 55.2157 40.2209 50.8199 38.9664 48.7597C36.9979 44.0988 30.5212 45.751 31.4493 50.6669C31.7757 51.748 31.8369 51.6154 32.5305 52.7883C34.193 55.4911 36.1717 58.8975 37.7527 61.3657C40.5677 65.3025 46.4223 61.5187 44.1886 57.3575L44.1274 57.2453H44.0866L44.0968 57.2351Z" fill="white"/>
<path d="M64.2066 53.5642C63.6642 53.5642 63.2186 53.1316 63.2199 52.5892C63.2309 47.9154 64.2756 44.1784 68.3048 41.8629C69.7583 40.881 71.1359 39.8696 71.9503 38.3639C73.1347 36.2466 72.4084 33.163 70.1663 32.1212C67.2988 30.6277 63.5311 32.2486 62.9136 35.4622C62.8082 36.0103 62.3699 36.4724 61.8117 36.4724H55.9551C55.4034 36.4724 54.952 36.0115 54.9912 35.4612C56.1557 19.078 86.2705 22.5799 80.1963 39.8342C78.6652 43.7766 75.2201 44.8225 72.4803 47.3511C71.0805 48.7721 70.6192 50.533 70.5478 52.5434C70.5279 53.1034 70.0816 53.5642 69.5212 53.5642H64.2066Z" fill="#FF9500" stroke="#1C1C1C" stroke-width="0.5" stroke-miterlimit="10" stroke-linejoin="round"/>
<path d="M70.6997 63.4943C70.6413 63.9351 70.2854 64.2742 69.8428 64.3161C68.9645 64.3992 68.0113 64.4518 66.9927 64.4556C65.8892 64.4595 64.8612 64.405 63.9204 64.3161C63.477 64.2742 63.1206 63.9342 63.0625 63.4926C62.9406 62.5678 62.8584 61.5151 62.864 60.3565C62.8705 58.9699 63.0014 57.7384 63.1727 56.7015C64.1842 56.5267 65.3857 56.392 66.739 56.383C68.2127 56.3731 69.5119 56.5152 70.5881 56.7015C70.761 57.745 70.8935 58.9896 70.8983 60.3926C70.9021 61.538 70.8208 62.5794 70.6997 63.4943Z" fill="#FF9500" stroke="#1C1C1C" stroke-width="0.5" stroke-miterlimit="10" stroke-linejoin="round"/>
<path d="M64.2066 50.7022C63.6642 50.7022 63.2186 50.2696 63.2199 49.7272C63.2309 45.0534 64.2756 41.3164 68.3048 39.0009C69.7583 38.019 71.1359 37.0076 71.9503 35.5019C73.1347 33.3846 72.4084 30.301 70.1663 29.2592C67.2988 27.7657 63.5311 29.3866 62.9136 32.6002C62.8082 33.1483 62.3699 33.6104 61.8117 33.6104H55.9551C55.4034 33.6104 54.952 33.1495 54.9912 32.5992C56.1557 16.216 86.2705 19.7179 80.1963 36.9722C78.6652 40.9146 75.2201 41.9605 72.4803 44.4891C71.0805 45.9101 70.6192 47.671 70.5478 49.6814C70.5279 50.2414 70.0816 50.7022 69.5212 50.7022H64.2066Z" fill="#FFE2C8" stroke="#1C1C1C" stroke-width="0.5" stroke-miterlimit="10" stroke-linejoin="round"/>
<path d="M70.6997 60.6323C70.6413 61.0731 70.2854 61.4123 69.8428 61.4542C68.9645 61.5373 68.0113 61.5899 66.9927 61.5937C65.8892 61.5976 64.8612 61.5431 63.9204 61.4542C63.477 61.4123 63.1206 61.0722 63.0625 60.6307C62.9406 59.7058 62.8584 58.6532 62.864 57.4946C62.8691 56.4092 62.9504 55.4189 63.0676 54.5426C63.1241 54.1207 63.4534 53.7887 63.8749 53.7299C64.7258 53.6111 65.6865 53.5281 66.739 53.5211C67.9056 53.5133 68.9628 53.6006 69.8866 53.7298C70.3078 53.7887 70.6368 54.1204 70.6934 54.5419C70.8122 55.4269 70.8945 56.4301 70.8983 57.5307C70.9021 58.6761 70.8208 59.7175 70.6997 60.6323Z" fill="#FFE2C8" stroke="#1C1C1C" stroke-width="0.5" stroke-miterlimit="10" stroke-linejoin="round"/>
<defs>
<linearGradient id="paint0_linear_18011_6548" x1="61.5393" y1="71.6799" x2="20.8416" y2="59.7036" gradientUnits="userSpaceOnUse">
<stop stop-color="#DC0BFE"/>
<stop offset="1" stop-color="#1DBCF7"/>
</linearGradient>
<linearGradient id="paint1_linear_18011_6548" x1="61.4281" y1="66.1958" x2="20.5144" y2="54.776" gradientUnits="userSpaceOnUse">
<stop stop-color="#F5B8FF"/>
<stop offset="1" stop-color="#9CE2FC"/>
</linearGradient>
<linearGradient id="paint2_linear_18011_6548" x1="57.0298" y1="63.4177" x2="24.8807" y2="54.2956" gradientUnits="userSpaceOnUse">
<stop stop-color="#DC0BFE"/>
<stop offset="1" stop-color="#1DBCF7"/>
</linearGradient>
</defs>
</svg>
