<svg width="62" height="62" viewBox="0 0 62 62" fill="none" xmlns="http://www.w3.org/2000/svg">
<g clip-path="url(#clip0_18011_3630)">
<path d="M47.6797 57.6143C47.6844 59.5504 46.0264 61 44.0903 61H16.865C14.9339 61 13.2872 59.5454 13.292 57.6143C13.2935 56.7473 13.3316 54.3292 13.386 52.5877C13.4179 51.5686 14.2443 50.7997 15.2639 50.7997H45.7081C46.721 50.7997 47.5419 51.5593 47.5762 52.5717C47.635 54.3096 47.6775 56.7355 47.6797 57.6143Z" fill="#4169E1" stroke="#1C1C1C" stroke-width="0.5" stroke-miterlimit="10" stroke-linejoin="round"/>
<path d="M23.4241 32.1838L15.7559 29.4601C11.8407 28.0692 8.64617 25.3324 6.76142 21.7549C6.04957 20.4035 5.53156 18.96 5.22054 17.4639L3.06857 7.09411C2.86925 6.13397 3.10909 5.14643 3.72785 4.38468C4.34661 3.62292 5.26325 3.18669 6.24451 3.18669H13.0235V5.37879H6.24451C5.92582 5.37879 5.62794 5.52018 5.42752 5.76789C5.22711 6.0156 5.14826 6.33565 5.21287 6.64802L7.36594 17.0178C7.63535 18.3133 8.08327 19.5628 8.69984 20.7323C10.3272 23.822 13.0936 26.1884 16.4896 27.3941L24.1579 30.1178L23.4252 32.1838H23.4241Z" fill="#FF9500" stroke="#1C1C1C" stroke-width="0.5" stroke-miterlimit="10" stroke-linejoin="round"/>
<path d="M37.6013 32.1838L36.8687 30.1178L44.5369 27.3941C47.933 26.1884 50.6993 23.822 52.3267 20.7323C52.9422 19.5628 53.3912 18.3133 53.6595 17.0178L55.8126 6.64802C55.8772 6.33565 55.7994 6.0156 55.5979 5.76789C55.3964 5.52018 55.0985 5.37879 54.7809 5.37879H48.002V3.18669H54.7809C55.7611 3.18669 56.6788 3.62292 57.2976 4.38468C57.9164 5.14643 58.1573 6.13288 57.9569 7.09411L55.8038 17.4639C55.4939 18.96 54.9748 20.4035 54.264 21.7549C52.3793 25.3335 49.1847 28.0692 45.2696 29.4601L37.6013 32.1838Z" fill="#FF9500" stroke="#1C1C1C" stroke-width="0.5" stroke-miterlimit="10" stroke-linejoin="round"/>
<path d="M33.9418 38.2809V24.7161H27.0292V38.2809C27.0292 39.3342 26.4795 40.3107 25.5793 40.8566L22.0923 42.972C20.0093 44.2357 18.7379 46.4958 18.7379 48.9334V50.2706H42.2321V48.9334C42.2321 46.4958 40.9607 44.2357 38.8777 42.972L35.3907 40.8566C34.4905 40.3107 33.9407 39.3342 33.9407 38.2809H33.9418Z" fill="#FF9500" stroke="#1C1C1C" stroke-width="0.5" stroke-miterlimit="10" stroke-linejoin="round"/>
<path d="M47.6797 53.5291C47.6844 55.4652 46.0264 56.9148 44.0903 56.9148H16.865C14.9339 56.9148 13.2872 55.4603 13.292 53.5291C13.2929 53.0081 13.307 52.516 13.33 52.0569C13.3809 51.0386 14.2443 50.2717 15.2639 50.2717H45.7081C46.721 50.2717 47.5817 51.0289 47.6371 52.0403C47.6625 52.5021 47.6784 52.9998 47.6797 53.5291Z" fill="#CCD9FD" stroke="#1C1C1C" stroke-width="0.5" stroke-miterlimit="10" stroke-linejoin="round"/>
<path d="M30.1818 34.0139C21.1195 34.0139 13.6056 26.9882 12.9902 17.9392L11.8928 1.78999C17.1506 1.33513 22.8181 1.04138 28.849 1.00412C35.892 0.960277 42.4574 1.26936 48.4709 1.79108C48.1051 7.17379 47.7393 12.5576 47.3735 17.9403C46.7581 26.9893 39.2442 34.015 30.1818 34.015V34.0139Z" fill="#FFE2C8" stroke="#1C1C1C" stroke-width="0.5" stroke-miterlimit="10" stroke-linejoin="round"/>
<path d="M35.4766 14.3924C35.6189 15.7886 35.0409 16.6423 34.1605 17.1136C35.6367 17.4871 36.5527 18.3942 36.3659 20.4573C36.1347 23.0096 34.3383 23.7032 31.7505 23.8544V25.7663C31.7505 26.1932 31.4037 26.54 30.9769 26.54C30.55 26.54 30.2032 26.1932 30.2032 25.7663V23.8988C29.8119 23.8988 29.3939 23.8988 28.9849 23.881V25.7752C28.9849 26.2021 28.6381 26.5489 28.2112 26.5489C27.7844 26.5489 27.4375 26.2021 27.4375 25.7752V23.8633C27.0729 23.8633 26.7172 23.8455 26.3437 23.8455H25.4633C24.8675 23.8455 24.4229 23.3119 24.5207 22.7339C24.6007 22.2714 25.0098 21.9335 25.4811 21.9335C25.7835 21.9335 25.7746 21.9335 25.7746 21.9335C26.2014 21.9335 26.317 21.6134 26.3526 21.3822V17.1492V14.1079C26.2993 13.7877 26.0858 13.3875 25.4544 13.3875C25.4544 13.3875 25.4544 13.3875 25.2054 13.3875C24.7252 13.3875 24.3428 13.0051 24.3428 12.5249C24.3428 12.0447 24.7252 11.6712 25.1965 11.6712H27.4553V9.77706C27.4553 9.35021 27.8021 9.00339 28.229 9.00339C28.6558 9.00339 29.0027 9.35021 29.0027 9.77706V11.609C29.4117 11.609 29.8119 11.5912 30.221 11.5912V9.77706C30.221 9.35021 30.5678 9.00339 30.9947 9.00339C31.4215 9.00339 31.7683 9.35021 31.7683 9.77706V11.6712C33.7425 11.8402 35.3254 12.4805 35.4855 14.4102L35.4766 14.3924ZM33.3246 20.1372C33.3246 18.0563 30.052 18.3586 29.0116 18.3586V21.9068C30.052 21.9068 33.3246 22.1558 33.3246 20.1283V20.1372ZM32.622 15.1305C32.622 13.2186 29.8919 13.5031 29.0116 13.5031V16.7312C29.8919 16.7312 32.622 16.9358 32.622 15.1216V15.1305Z" fill="#1C1C1C"/>
</g>
<defs>
<clipPath id="clip0_18011_3630">
<rect width="62" height="62" rx="5" fill="white"/>
</clipPath>
</defs>
</svg>
