<svg width="102" height="102" viewBox="0 0 102 102" fill="none" xmlns="http://www.w3.org/2000/svg">
<rect x="0.5" y="0.5" width="101" height="101" rx="4.5" stroke="#9747FF" stroke-dasharray="10 5"/>
<path d="M71.639 54.34C71.639 65.4739 62.5886 74.5 51.424 74.5C40.2595 74.5 30.4077 64.7273 30.4077 53.5933C29.3237 34.8107 40.2595 34.1799 51.424 34.1799C62.5886 34.1799 72.2521 35.1552 71.639 54.34Z" fill="#FF9500" stroke="#1C1C1C" stroke-width="0.5" stroke-miterlimit="10"/>
<path d="M50.9477 70.3974C62.3327 70.3974 71.562 60.9064 71.562 49.1987C71.562 37.491 62.3327 28 50.9477 28C39.5628 28 30.3334 37.491 30.3334 49.1987C30.3334 60.9064 39.5628 70.3974 50.9477 70.3974Z" fill="#FFE2C8" stroke="#1C1C1C" stroke-width="0.5" stroke-miterlimit="10"/>
<path d="M51.0003 65.6186C59.9684 65.6186 67.2384 58.2641 67.2384 49.1919C67.2384 40.1197 59.9684 32.7652 51.0003 32.7652C42.0323 32.7652 34.7622 40.1197 34.7622 49.1919C34.7622 58.2641 42.0323 65.6186 51.0003 65.6186Z" fill="#FF9500" stroke="#1C1C1C" stroke-width="0.5" stroke-miterlimit="10"/>
<path d="M57.8797 44.601C58.0732 46.5042 57.2991 47.6616 56.1138 48.3046C58.0974 48.8189 59.3312 50.0535 59.0893 52.8569C58.7748 56.329 56.3557 57.2806 52.8722 57.4864V60.1386C52.8722 60.6908 52.4245 61.1386 51.8722 61.1386H51.7918C51.2395 61.1386 50.7918 60.6908 50.7918 60.1386V57.5378C50.2596 57.5378 49.7032 57.5378 49.1468 57.5121V60.1386C49.1468 60.6908 48.6991 61.1386 48.1468 61.1386H48.0664C47.5141 61.1386 47.0664 60.6908 47.0664 60.1386V57.4864C46.5825 57.4864 46.0987 57.4607 45.5907 57.4607H44.061C43.4433 57.4607 42.9733 56.9063 43.0745 56.2969L43.1756 55.688C43.2567 55.1992 43.684 54.8451 44.1795 54.8481C44.8304 54.852 44.8166 54.8373 44.8166 54.8373C45.3972 54.8373 45.5423 54.4001 45.5907 54.0914V48.3303H45.8084C45.7117 48.3303 45.6391 48.3303 45.5907 48.3303V44.1894C45.5181 43.7522 45.2278 43.2121 44.3812 43.2121C44.3812 43.2121 44.3927 43.1998 43.8985 43.2007C43.3396 43.2017 42.8813 42.754 42.8813 42.1951V41.8716C42.8813 41.3194 43.329 40.8716 43.8813 40.8716H45.76C46.1713 40.8716 46.6067 40.8716 47.0664 40.8716V38.2452C47.0664 37.6929 47.5141 37.2452 48.0664 37.2452H48.1468C48.6991 37.2452 49.1468 37.6929 49.1468 38.2452V40.7945C49.7032 40.7945 50.2354 40.7688 50.7918 40.7688V38.2452C50.7918 37.6929 51.2395 37.2452 51.7918 37.2452H51.8722C52.4245 37.2452 52.8722 37.6929 52.8722 38.2452V40.8716C55.5332 41.1031 57.662 41.9776 57.8797 44.601ZM54.9768 52.4197C54.9768 49.5905 50.574 50.002 49.171 50.002V54.8373C50.574 54.8373 54.9768 55.1716 54.9768 52.4197ZM54.0333 45.604C54.0333 43.0063 50.3563 43.3921 49.171 43.3921V47.7902C50.3563 47.7902 54.0333 48.0731 54.0333 45.604Z" fill="white"/>
</svg>
