<svg width="102" height="102" viewBox="0 0 102 102" fill="none" xmlns="http://www.w3.org/2000/svg">
<rect x="0.5" y="0.5" width="101" height="101" rx="4.5" stroke="#9747FF" stroke-dasharray="10 5"/>
<path d="M24 36C24 31.286 24 28.9289 25.4645 27.4645C26.9289 26 29.286 26 34 26H76C76.9428 26 77.4142 26 77.7071 26.2929C78 26.5858 78 27.0572 78 28V62H24V36Z" fill="#FF9500" stroke="#1C1C1C" stroke-width="0.5" stroke-linejoin="round"/>
<path d="M21 35.3707C21 34.5367 21 34.1197 21.2475 33.8369C21.495 33.5541 21.9095 33.4987 22.7386 33.3878C43.1741 30.6558 55.4373 29.0164 75.7326 26.3031C76.789 26.1619 77.3172 26.0913 77.6586 26.3901C78 26.6889 78 27.221 78 28.2852V61.3798L21 69V35.3707Z" fill="#FFE2C8" stroke="#1C1C1C" stroke-width="0.5" stroke-linejoin="round"/>
<path d="M21 36H71C75.714 36 78.0711 36 79.5355 37.4645C81 38.9289 81 41.286 81 46V66C81 70.714 81 73.0711 79.5355 74.5355C78.0711 76 75.714 76 71 76H23C22.0572 76 21.5858 76 21.2929 75.7071C21 75.4142 21 74.9428 21 74V36Z" fill="#E8EDFA" stroke="#1C1C1C" stroke-width="0.5" stroke-linejoin="round"/>
<path d="M21 36C21 35.0572 21 34.5858 21.2929 34.2929C21.5858 34 22.0572 34 23 34H71C75.714 34 78.0711 34 79.5355 35.4645C81 36.9289 81 39.286 81 44V64C81 68.714 81 71.0711 79.5355 72.5355C78.0711 74 75.714 74 71 74H23C22.0572 74 21.5858 74 21.2929 73.7071C21 73.4142 21 72.9428 21 72V36Z" fill="#FAF2E8" stroke="#1C1C1C" stroke-width="0.5" stroke-linejoin="round"/>
<path d="M21 36C21 35.0572 21 34.5858 21.1406 34.2929C21.2812 34 21.5075 34 21.96 34H45V74H21.96C21.5075 74 21.2812 74 21.1406 73.7071C21 73.4142 21 72.9428 21 72V36Z" fill="#FF9500" stroke="#1C1C1C" stroke-width="0.5" stroke-linejoin="round"/>
<path d="M53 46C53 45.0572 53 44.5858 53.2929 44.2929C53.5858 44 54.0572 44 55 44H56.8333C57.7761 44 58.2475 44 58.5404 44.2929C58.8333 44.5858 58.8333 45.0572 58.8333 46V47.8333C58.8333 48.7761 58.8333 49.2475 58.5404 49.5404C58.2475 49.8333 57.7761 49.8333 56.8333 49.8333H55C54.0572 49.8333 53.5858 49.8333 53.2929 49.5404C53 49.2475 53 48.7761 53 47.8333V46Z" fill="#693000"/>
<path d="M53 60.1667C53 59.2239 53 58.7525 53.2929 58.4596C53.5858 58.1667 54.0572 58.1667 55 58.1667H56.8333C57.7761 58.1667 58.2475 58.1667 58.5404 58.4596C58.8333 58.7525 58.8333 59.2239 58.8333 60.1667V62C58.8333 62.9428 58.8333 63.4142 58.5404 63.7071C58.2475 64 57.7761 64 56.8333 64H55C54.0572 64 53.5858 64 53.2929 63.7071C53 63.4142 53 62.9428 53 62V60.1667Z" fill="#693000"/>
<path d="M67.1667 46C67.1667 45.0572 67.1667 44.5858 67.4596 44.2929C67.7525 44 68.2239 44 69.1667 44H71C71.9428 44 72.4142 44 72.7071 44.2929C73 44.5858 73 45.0572 73 46V47.8333C73 48.7761 73 49.2475 72.7071 49.5404C72.4142 49.8333 71.9428 49.8333 71 49.8333H69.1667C68.2239 49.8333 67.7525 49.8333 67.4596 49.5404C67.1667 49.2475 67.1667 48.7761 67.1667 47.8333V46Z" fill="#693000"/>
<path d="M60.5 50.6667V49.8333C60.5 49.3731 60.8731 49 61.3333 49C61.7936 49 62.1667 49.3731 62.1667 49.8333V50.6667C62.1667 52.0474 61.0474 53.1667 59.6667 53.1667H58C57.5398 53.1667 57.1667 52.7936 57.1667 52.3333C57.1667 51.8731 57.5398 51.5 58 51.5H59.6667C60.1269 51.5 60.5 51.1269 60.5 50.6667Z" fill="#693000"/>
<path d="M68.8333 54V56.5C68.8333 56.9602 68.4602 57.3333 68 57.3333C67.5398 57.3333 67.1667 56.9602 67.1667 56.5L67.1667 54C67.1667 52.6193 68.286 51.5 69.6667 51.5L72.1667 51.5C72.6269 51.5 73 51.8731 73 52.3333C73 52.7936 72.6269 53.1667 72.1667 53.1667H69.6667C69.2064 53.1667 68.8333 53.5398 68.8333 54Z" fill="#693000"/>
<path d="M63.8333 57.3333V59C63.8333 59.4602 64.2064 59.8333 64.6667 59.8333C65.1269 59.8333 65.5 59.4602 65.5 59V57.3333C65.5 55.9526 64.3807 54.8333 63 54.8333H61.3333C60.8731 54.8333 60.5 55.2064 60.5 55.6667C60.5 56.1269 60.8731 56.5 61.3333 56.5H63C63.4602 56.5 63.8333 56.8731 63.8333 57.3333Z" fill="#693000"/>
<path d="M60.5 63.1667C60.5 63.6269 60.8731 64 61.3333 64C61.7936 64 62.1667 63.6269 62.1667 63.1667V59C62.1667 58.5398 61.7936 58.1667 61.3333 58.1667C60.8731 58.1667 60.5 58.5398 60.5 59V63.1667Z" fill="#693000"/>
<path d="M65.5 49C65.5 49.4602 65.1269 49.8333 64.6667 49.8333C64.2064 49.8333 63.8333 49.4602 63.8333 49V44.8333C63.8333 44.3731 64.2064 44 64.6667 44C65.1269 44 65.5 44.3731 65.5 44.8333V49Z" fill="#693000"/>
<path d="M53.8333 56.5C53.3731 56.5 53 56.1269 53 55.6667C53 55.2064 53.3731 54.8333 53.8333 54.8333H58C58.4602 54.8333 58.8333 55.2064 58.8333 55.6667C58.8333 56.1269 58.4602 56.5 58 56.5L53.8333 56.5Z" fill="#693000"/>
<path d="M68 62.3333H69.6667C70.0981 62.3333 70.4532 62.0056 70.4959 61.5854L70.5041 61.4146C70.5468 60.9944 70.9019 60.6667 71.3333 60.6667C71.7936 60.6667 72.1667 61.0398 72.1667 61.5C72.1667 62.8807 71.0474 64 69.6667 64H68C67.5398 64 67.1667 63.6269 67.1667 63.1667C67.1667 62.7064 67.5398 62.3333 68 62.3333Z" fill="#693000"/>
<path d="M62.1667 46.5C62.1667 46.9602 61.7936 47.3333 61.3333 47.3333C60.8731 47.3333 60.5 46.9602 60.5 46.5V44.8333C60.5 44.3731 60.8731 44 61.3333 44C61.7936 44 62.1667 44.3731 62.1667 44.8333V46.5Z" fill="#693000"/>
<path d="M63.8333 63.1667C63.8333 63.6269 64.2064 64 64.6667 64C65.1269 64 65.5 63.6269 65.5 63.1667V61.5C65.5 61.0398 65.1269 60.6667 64.6667 60.6667C64.2064 60.6667 63.8333 61.0398 63.8333 61.5V63.1667Z" fill="#693000"/>
<path d="M68.8333 60.6667C68.8333 61.1269 68.4602 61.5 68 61.5C67.5398 61.5 67.1667 61.1269 67.1667 60.6667V59.8333C67.1667 59.3731 67.5398 59 68 59C68.4602 59 68.8333 59.3731 68.8333 59.8333V60.6667Z" fill="#693000"/>
<path d="M65.5 52.75C65.5 53.2102 65.1269 53.5833 64.6667 53.5833C64.2064 53.5833 63.8333 53.2102 63.8333 52.75V51.9167C63.8333 51.4564 64.2064 51.0833 64.6667 51.0833C65.1269 51.0833 65.5 51.4564 65.5 51.9167V52.75Z" fill="#693000"/>
<path d="M53.8333 53.1667L53.7479 53.1626C53.3278 53.1198 53 52.7647 53 52.3333C53 51.9019 53.3278 51.5468 53.7479 51.5041L53.8333 51.5H54.6667C55.1269 51.5 55.5 51.8731 55.5 52.3333C55.5 52.7936 55.1269 53.1667 54.6667 53.1667H53.8333Z" fill="#693000"/>
<path d="M72.1667 58.1667C72.1667 58.6269 71.7936 59 71.3333 59C70.8731 59 70.5 58.6269 70.5 58.1667V55.6667C70.5 55.2064 70.8731 54.8333 71.3333 54.8333C71.7936 54.8333 72.1667 55.2064 72.1667 55.6667V58.1667Z" fill="#693000"/>
<path d="M38.1237 51.1052C38.2662 52.4703 37.7037 53.3029 36.8411 53.7679C38.2812 54.1354 39.1812 55.028 39.0012 57.0381C38.7762 59.5357 37.0136 60.2183 34.486 60.3683V62.2359C34.486 62.6559 34.1485 62.9934 33.7284 62.9934C33.3084 62.9934 32.9709 62.6559 32.9709 62.2359V60.4058C32.5809 60.4058 32.1759 60.4058 31.7783 60.3908V62.2434C31.7783 62.6634 31.4408 63.0009 31.0208 63.0009C30.6008 63.0009 30.2633 62.6634 30.2633 62.2434V60.3758C29.9107 60.3758 29.5582 60.3608 29.1907 60.3608H28.3281C27.7506 60.3608 27.3081 59.8432 27.4056 59.2732C27.4806 58.8157 27.8856 58.4857 28.3431 58.4857C28.6357 58.4857 28.6282 58.4782 28.6282 58.4782C29.0482 58.4782 29.1532 58.1631 29.1907 57.9456V53.8054V50.8277C29.1382 50.5127 28.9282 50.1227 28.3131 50.1227C28.3131 50.1227 28.3131 50.1227 28.0731 50.1152C27.6081 50.1152 27.2256 49.7402 27.2256 49.2751C27.2256 48.8101 27.6006 48.4426 28.0581 48.4426H30.2708V46.59C30.2708 46.17 30.6083 45.8325 31.0283 45.8325C31.4483 45.8325 31.7858 46.17 31.7858 46.59V48.3826C32.1909 48.3826 32.5734 48.3676 32.9784 48.3676V46.59C32.9784 46.17 33.3159 45.8325 33.7359 45.8325C34.156 45.8325 34.4935 46.17 34.4935 46.59V48.4426C36.4286 48.6076 37.9737 49.2376 38.1312 51.1202L38.1237 51.1052ZM36.0086 56.7231C36.0086 54.6904 32.8059 54.983 31.7858 54.983V58.4557C32.8059 58.4557 36.0086 58.6957 36.0086 56.7156V56.7231ZM35.326 51.8253C35.326 49.9577 32.6559 50.2352 31.7933 50.2352V53.3929C32.6559 53.3929 35.326 53.5954 35.326 51.8253Z" fill="white"/>
</svg>
