<svg width="62" height="62" viewBox="0 0 62 62" fill="none" xmlns="http://www.w3.org/2000/svg">
<g clip-path="url(#clip0_18011_9081)">
<path d="M36.4481 3.75546C36.1833 3.25959 36.0467 2.80933 36.2177 2.25076C36.3628 1.77783 36.6943 1.43355 37.1267 1.2116C37.5568 0.99094 38.0212 0.932992 38.4854 1.08471C38.8581 1.20641 39.0857 1.4239 39.3168 1.72609C39.647 2.15749 39.9114 2.66311 40.1934 3.12872L41.8323 5.85191L46.6205 13.7697C47.3379 15.0868 48.1761 16.3547 48.9505 17.6406L50.6201 20.4069C50.9095 20.8862 51.1837 21.4149 51.5186 21.8629C52.0917 22.8308 52.6725 23.7945 53.26 24.7537L56.7017 30.4503L57.9531 32.5085C58.2941 33.0657 58.7093 33.654 58.9329 34.2709C59.0206 34.5124 59.0001 34.846 58.9397 35.0885C58.8216 35.5607 58.4897 35.9544 58.0725 36.1945C57.6728 36.4246 57.1976 36.5018 56.7486 36.3841C56.2832 36.262 55.9213 35.9274 55.6669 35.5297C55.0413 35.275 52.9298 35.0943 52.2023 35.0292C45.4268 34.396 38.5987 35.4228 32.3089 38.02C30.8039 38.6548 29.3091 39.32 27.9197 40.1838C27.2778 39.1705 26.6757 38.1266 26.0555 37.0995L23.6182 33.0691C23.3165 32.5203 22.9617 31.9908 22.6363 31.4551L20.5882 28.0713C20.2049 27.4375 19.8014 26.8086 19.443 26.1609C20.2034 25.771 20.9056 25.186 21.5934 24.679C27.6571 20.1561 32.3787 14.0713 35.2541 7.07429C35.558 6.33459 35.843 5.58737 36.1091 4.8334C36.2339 4.48372 36.3928 4.12318 36.4481 3.75546Z" fill="#FFE2C8" stroke="#1C1C1C" stroke-width="0.5" stroke-miterlimit="10" stroke-linejoin="round"/>
<path d="M37.1267 1.21191C37.5567 0.991271 38.021 0.933291 38.4851 1.08496C38.8578 1.20666 39.0861 1.42437 39.3171 1.72656C39.6472 2.15786 39.9112 2.66347 40.1931 3.12891L41.8318 5.85156L46.6208 13.7695C47.3382 15.0865 48.1756 16.3548 48.95 17.6406L50.6199 20.4072C50.9092 20.8865 51.1834 21.4153 51.5183 21.8633C52.0913 22.8312 52.672 23.7948 53.2595 24.7539L56.7019 30.4502L57.9529 32.5088C58.2938 33.0658 58.7087 33.6538 58.9324 34.2705C59.0201 34.512 58.9996 34.8463 58.9392 35.0889C58.8211 35.5609 58.4891 35.9542 58.072 36.1943C57.6724 36.4243 57.1976 36.5014 56.7488 36.3838C56.2833 36.2617 55.9211 35.927 55.6667 35.5293C55.0388 34.4295 54.3676 33.3538 53.7117 32.2705L51.1531 28.0371L45.9812 19.4922V19.4912L39.6902 9.07812L37.5691 5.5752C37.2002 4.96809 36.851 4.34088 36.448 3.75586C36.1833 3.26006 36.0466 2.80944 36.2175 2.25098C36.3626 1.77809 36.6944 1.43386 37.1267 1.21191Z" fill="#FF9500"/>
<path d="M37.1267 1.21191L37.0126 0.989486L37.0125 0.989507L37.1267 1.21191ZM38.4851 1.08496L38.4074 1.32259L38.4075 1.32261L38.4851 1.08496ZM39.3171 1.72656L39.1185 1.87841L39.1186 1.87849L39.3171 1.72656ZM40.1931 3.12891L40.4073 2.99999L40.407 2.9994L40.1931 3.12891ZM41.8318 5.85156L41.6176 5.98048L41.6179 5.98095L41.8318 5.85156ZM46.6208 13.7695L46.8406 13.6498L46.8348 13.6401L46.6208 13.7695ZM48.95 17.6406L48.7358 17.7696L48.7359 17.7698L48.95 17.6406ZM50.6199 20.4072L50.4058 20.5364L50.4059 20.5364L50.6199 20.4072ZM51.5183 21.8633L51.7334 21.7359C51.7289 21.7282 51.7239 21.7208 51.7185 21.7136L51.5183 21.8633ZM53.2595 24.7539L53.4735 24.6246L53.4727 24.6233L53.2595 24.7539ZM56.7019 30.4502L56.4879 30.5795L56.4883 30.58L56.7019 30.4502ZM57.9529 32.5088L57.7392 32.6386L57.7396 32.6393L57.9529 32.5088ZM58.9324 34.2705L58.6974 34.3557L58.6974 34.3558L58.9324 34.2705ZM58.9392 35.0889L59.1817 35.1496L59.1818 35.1493L58.9392 35.0889ZM58.072 36.1943L58.1967 36.411L58.1967 36.411L58.072 36.1943ZM56.7488 36.3838L56.6853 36.6256L56.6854 36.6256L56.7488 36.3838ZM55.6667 35.5293L55.4494 35.6534L55.4561 35.664L55.6667 35.5293ZM53.7117 32.2705L53.4977 32.3998L53.4978 32.4L53.7117 32.2705ZM51.1531 28.0371L51.367 27.9078L51.367 27.9077L51.1531 28.0371ZM45.9812 19.4922H45.7312C45.7312 19.5378 45.7437 19.5826 45.7673 19.6216L45.9812 19.4922ZM45.9812 19.4912H46.2312C46.2312 19.4456 46.2187 19.4009 46.1952 19.3619L45.9812 19.4912ZM39.6902 9.07812L39.9042 8.94885L39.904 8.94863L39.6902 9.07812ZM37.5691 5.5752L37.7829 5.4457L37.7827 5.44537L37.5691 5.5752ZM36.448 3.75586L36.2275 3.87361C36.2319 3.8819 36.2368 3.88994 36.2421 3.89768L36.448 3.75586ZM36.2175 2.25098L35.9785 2.17768L35.9785 2.17782L36.2175 2.25098ZM37.1267 1.21191L37.2408 1.43434C37.6188 1.24042 38.0141 1.19405 38.4074 1.32259L38.4851 1.08496L38.5628 0.84733C38.0279 0.672536 37.4947 0.742118 37.0126 0.989486L37.1267 1.21191ZM38.4851 1.08496L38.4075 1.32261C38.713 1.42237 38.9032 1.59676 39.1185 1.87841L39.3171 1.72656L39.5157 1.57472C39.269 1.25199 39.0026 0.990945 38.5627 0.847309L38.4851 1.08496ZM39.3171 1.72656L39.1186 1.87849C39.4377 2.29548 39.6859 2.774 39.9793 3.25841L40.1931 3.12891L40.407 2.9994C40.1366 2.55294 39.8567 2.02025 39.5157 1.57464L39.3171 1.72656ZM40.1931 3.12891L39.9789 3.25782L41.6176 5.98048L41.8318 5.85156L42.046 5.72264L40.4073 2.99999L40.1931 3.12891ZM41.8318 5.85156L41.6179 5.98095L46.4069 13.8989L46.6208 13.7695L46.8348 13.6401L42.0457 5.72218L41.8318 5.85156ZM46.6208 13.7695L46.4013 13.8891C47.1218 15.2118 47.969 16.4964 48.7358 17.7696L48.95 17.6406L49.1641 17.5116C48.3821 16.2132 47.5547 14.9613 46.8404 13.6499L46.6208 13.7695ZM48.95 17.6406L48.7359 17.7698L50.4058 20.5364L50.6199 20.4072L50.8339 20.278L49.164 17.5114L48.95 17.6406ZM50.6199 20.4072L50.4059 20.5364C50.6833 20.9959 50.9735 21.552 51.3181 22.013L51.5183 21.8633L51.7185 21.7136C51.3933 21.2785 51.1352 20.7771 50.8339 20.278L50.6199 20.4072ZM51.5183 21.8633L51.3032 21.9906C51.8769 22.9596 52.4582 23.9243 53.0463 24.8845L53.2595 24.7539L53.4727 24.6233C52.8858 23.6652 52.3058 22.7027 51.7334 21.7359L51.5183 21.8633ZM53.2595 24.7539L53.0456 24.8832L56.4879 30.5795L56.7019 30.4502L56.9159 30.3209L53.4735 24.6246L53.2595 24.7539ZM56.7019 30.4502L56.4883 30.58L57.7392 32.6386L57.9529 32.5088L58.1665 32.379L56.9155 30.3204L56.7019 30.4502ZM57.9529 32.5088L57.7396 32.6393C58.0935 33.2175 58.4851 33.7704 58.6974 34.3557L58.9324 34.2705L59.1674 34.1853C58.9324 33.5372 58.494 32.9141 58.1661 32.3783L57.9529 32.5088ZM58.9324 34.2705L58.6974 34.3558C58.7613 34.5319 58.7509 34.8103 58.6966 35.0285L58.9392 35.0889L59.1818 35.1493C59.2482 34.8824 59.2788 34.4922 59.1674 34.1852L58.9324 34.2705ZM58.9392 35.0889L58.6967 35.0282C58.5974 35.4249 58.3147 35.7662 57.9473 35.9777L58.072 36.1943L58.1967 36.411C58.6636 36.1423 59.0447 35.6969 59.1817 35.1496L58.9392 35.0889ZM58.072 36.1943L57.9473 35.9776C57.6001 36.1774 57.1925 36.2417 56.8122 36.142L56.7488 36.3838L56.6854 36.6256C57.2027 36.7612 57.7447 36.6711 58.1967 36.411L58.072 36.1943ZM56.7488 36.3838L56.8122 36.142C56.4266 36.0408 56.1102 35.7587 55.8774 35.3946L55.6667 35.5293L55.4561 35.664C55.7319 36.0953 56.14 36.4826 56.6853 36.6256L56.7488 36.3838ZM55.6667 35.5293L55.8839 35.4053C55.2538 34.3018 54.5792 33.2205 53.9255 32.141L53.7117 32.2705L53.4978 32.4C54.1561 33.4871 54.8238 34.5572 55.4496 35.6533L55.6667 35.5293ZM53.7117 32.2705L53.9256 32.1412L51.367 27.9078L51.1531 28.0371L50.9391 28.1664L53.4977 32.3998L53.7117 32.2705ZM51.1531 28.0371L51.367 27.9077L46.1951 19.3627L45.9812 19.4922L45.7673 19.6216L50.9392 28.1666L51.1531 28.0371ZM45.9812 19.4922H46.2312V19.4912H45.9812H45.7312V19.4922H45.9812ZM45.9812 19.4912L46.1952 19.3619L39.9042 8.94885L39.6902 9.07812L39.4762 9.2074L45.7672 19.6205L45.9812 19.4912ZM39.6902 9.07812L39.904 8.94863L37.7829 5.4457L37.5691 5.5752L37.3552 5.70469L39.4763 9.20762L39.6902 9.07812ZM37.5691 5.5752L37.7827 5.44537C37.4205 4.84933 37.0622 4.20679 36.6539 3.61404L36.448 3.75586L36.2421 3.89768C36.6398 4.47497 36.9798 5.08686 37.3554 5.70502L37.5691 5.5752ZM36.448 3.75586L36.6685 3.6381C36.4184 3.16969 36.3135 2.79168 36.4566 2.32413L36.2175 2.25098L35.9785 2.17782C35.7798 2.82719 35.9481 3.35044 36.2275 3.87361L36.448 3.75586ZM36.2175 2.25098L36.4565 2.32428C36.5783 1.92725 36.8571 1.63132 37.2409 1.43432L37.1267 1.21191L37.0125 0.989507C36.5316 1.2364 36.1468 1.62894 35.9785 2.17768L36.2175 2.25098Z" fill="#1C1C1C"/>
<path d="M5.03639 39.1449C4.78036 38.7088 4.49315 38.277 4.26191 37.8277C3.97241 37.2648 3.91925 36.6354 4.12068 36.0336C4.26808 35.5935 4.53393 35.2444 4.90151 34.9627C5.49872 34.5057 6.30946 34.0938 6.96185 33.6972L11.6281 30.8787L17.1274 27.5497C17.8904 27.0925 18.6493 26.5586 19.443 26.1609C19.8014 26.8086 20.2049 27.4375 20.5882 28.0713L22.6363 31.4551C22.9617 31.9908 23.3165 32.5203 23.6182 33.0691L26.0555 37.0995C26.6757 38.1266 27.2777 39.1705 27.9197 40.1838C27.3583 40.5346 26.7795 40.8584 26.2253 41.22C25.7903 41.476 24.6879 42.0524 24.3648 42.3499C24.1618 42.3722 22.7678 43.2886 22.4733 43.4667L16.9236 46.8192C16.639 46.9915 15.3847 47.6914 15.2399 47.8331C15.223 47.85 15.1998 47.8672 15.1984 47.8908C14.8059 48.1019 14.4354 48.3461 14.0582 48.5829C13.3852 49.0052 12.7105 49.3314 11.9002 49.1378C10.7604 48.8656 10.2763 47.797 9.71674 46.8826C9.44843 46.3716 9.13276 45.8808 8.83398 45.387L7.32963 42.8991C6.57687 41.673 5.85223 40.3174 5.03639 39.1449Z" fill="#FF9500" stroke="#1C1C1C" stroke-width="0.5" stroke-miterlimit="10" stroke-linejoin="round"/>
<path d="M26.2252 41.22L26.2436 41.2554C26.8962 42.4876 28.0967 43.6149 27.6452 45.1314C27.4475 45.7955 27.0244 46.2131 26.4882 46.6256L29.8665 53.5291L30.706 55.2258C30.8895 55.5954 31.0966 55.9678 31.2271 56.3601C31.3037 56.5915 31.3061 56.8404 31.2342 57.0732C31.1512 57.3342 30.9441 57.5349 30.7333 57.6988C30.1347 58.1636 29.1069 58.6882 28.425 59.1007L26.806 60.091C26.5045 60.2758 26.2044 60.4796 25.8866 60.6344C25.5499 60.7983 25.2219 60.8722 24.8609 60.7389C24.6254 60.6519 24.4545 60.5032 24.2955 60.3139C23.6317 59.5236 23.0495 58.6318 22.4443 57.7936L19.6704 54.0071L16.6779 49.9224C16.1901 49.2566 15.6333 48.589 15.1983 47.8908C15.1997 47.8672 15.2229 47.85 15.2399 47.8331C15.3846 47.6915 16.6389 46.9916 16.9235 46.8192L22.4732 43.4668C22.7678 43.2887 24.1617 42.3723 24.3648 42.35C24.6878 42.0525 25.7902 41.476 26.2252 41.22Z" fill="#FFE2C8" stroke="#1C1C1C" stroke-width="0.5" stroke-miterlimit="10" stroke-linejoin="round"/>
<path d="M26.2253 41.22L26.2437 41.2554C26.8963 42.4876 28.0968 43.6149 27.6453 45.1314C27.4476 45.7955 27.0245 46.2131 26.4883 46.6256C25.7363 45.2262 25.0882 43.7656 24.3649 42.35C24.6879 42.0525 25.7903 41.476 26.2253 41.22Z" fill="#FAF2E8" stroke="#1C1C1C" stroke-width="0.5" stroke-miterlimit="10" stroke-linejoin="round"/>
<path d="M46.6204 13.7698C47.9983 13.425 49.3451 13.5457 50.5755 14.2878C51.6575 14.9404 52.4356 15.9961 52.7392 17.2226C53.0637 18.4938 52.864 19.842 52.185 20.9647C51.9884 21.285 51.7439 21.5639 51.5186 21.863C51.1836 21.4149 50.9094 20.8863 50.62 20.407L48.9504 17.6407C48.176 16.3548 47.3378 15.0869 46.6204 13.7698Z" fill="#FFE2C8" stroke="#1C1C1C" stroke-width="0.5" stroke-miterlimit="10" stroke-linejoin="round"/>
<path d="M5.03635 39.145C5.85218 40.3175 6.57682 41.6731 7.32959 42.8992L8.83394 45.3871C9.13271 45.8809 9.44838 46.3717 9.71669 46.8827C9.61385 46.9053 9.51088 46.9279 9.4078 46.9495C8.8908 47.0551 8.34267 47.0233 7.89846 46.7076C7.7005 46.567 7.52936 46.3683 7.38605 46.173C6.85856 45.4542 6.4217 44.639 5.9614 43.8753C5.50012 43.1103 4.99159 42.3494 4.58944 41.553C4.4838 41.3439 4.36429 41.0879 4.3364 40.8545C4.25231 40.1502 4.62829 39.6577 5.03635 39.145Z" fill="#FFE2C8" stroke="#1C1C1C" stroke-width="0.5" stroke-miterlimit="10" stroke-linejoin="round"/>
</g>
<defs>
<clipPath id="clip0_18011_9081">
<rect width="62" height="62" rx="5" fill="white"/>
</clipPath>
</defs>
</svg>
