<svg width="102" height="102" viewBox="0 0 102 102" fill="none" xmlns="http://www.w3.org/2000/svg">
<rect x="0.5" y="0.5" width="101" height="101" rx="4.5" stroke="#9747FF" stroke-dasharray="10 5"/>
<path d="M67.6797 77.6143C67.6844 79.5504 66.0263 81 64.0902 81H36.865C34.9338 81 33.2872 79.5454 33.292 77.6143C33.2934 76.7473 33.3316 74.3292 33.386 72.5877C33.4178 71.5686 34.2443 70.7997 35.2639 70.7997H65.7081C66.721 70.7997 67.5419 71.5593 67.5762 72.5717C67.635 74.3096 67.6775 76.7355 67.6797 77.6143Z" fill="#4169E1" stroke="#1C1C1C" stroke-width="0.5" stroke-miterlimit="10" stroke-linejoin="round"/>
<path d="M43.4241 52.1838L35.7559 49.4602C31.8407 48.0693 28.6462 45.3324 26.7614 41.7549C26.0496 40.4035 25.5316 38.96 25.2205 37.4639L23.0686 27.0941C22.8693 26.134 23.1091 25.1464 23.7278 24.3847C24.3466 23.6229 25.2633 23.1867 26.2445 23.1867H33.0235V25.3788H26.2445C25.9258 25.3788 25.6279 25.5202 25.4275 25.7679C25.2271 26.0156 25.1483 26.3357 25.2129 26.648L27.3659 37.0178C27.6353 38.3133 28.0833 39.5628 28.6998 40.7323C30.3272 43.8221 33.0936 46.1884 36.4896 47.3941L44.1579 50.1178L43.4252 52.1838H43.4241Z" fill="#FF9500" stroke="#1C1C1C" stroke-width="0.5" stroke-miterlimit="10" stroke-linejoin="round"/>
<path d="M57.6013 52.1838L56.8687 50.1178L64.5369 47.3941C67.933 46.1884 70.6993 43.8221 72.3267 40.7323C72.9422 39.5628 73.3912 38.3133 73.6595 37.0178L75.8126 26.648C75.8772 26.3357 75.7994 26.0156 75.5979 25.7679C75.3964 25.5202 75.0985 25.3788 74.7809 25.3788H68.002V23.1867H74.7809C75.7611 23.1867 76.6788 23.6229 77.2976 24.3847C77.9164 25.1464 78.1573 26.1329 77.9569 27.0941L75.8038 37.4639C75.4939 38.96 74.9748 40.4035 74.264 41.7549C72.3793 45.3335 69.1847 48.0693 65.2696 49.4602L57.6013 52.1838Z" fill="#FF9500" stroke="#1C1C1C" stroke-width="0.5" stroke-miterlimit="10" stroke-linejoin="round"/>
<path d="M53.9418 58.2809V44.7161H47.0292V58.2809C47.0292 59.3342 46.4795 60.3107 45.5793 60.8566L42.0923 62.972C40.0093 64.2357 38.7379 66.4958 38.7379 68.9334V70.2706H62.2321V68.9334C62.2321 66.4958 60.9607 64.2357 58.8777 62.972L55.3907 60.8566C54.4905 60.3107 53.9407 59.3342 53.9407 58.2809H53.9418Z" fill="#FF9500" stroke="#1C1C1C" stroke-width="0.5" stroke-miterlimit="10" stroke-linejoin="round"/>
<path d="M67.6797 73.5291C67.6844 75.4652 66.0263 76.9148 64.0902 76.9148H36.865C34.9338 76.9148 33.2872 75.4603 33.292 73.5291C33.2929 73.0081 33.307 72.516 33.3299 72.0569C33.3808 71.0386 34.2443 70.2717 35.2639 70.2717H65.7081C66.721 70.2717 67.5816 71.0289 67.6371 72.0403C67.6624 72.5021 67.6784 72.9998 67.6797 73.5291Z" fill="#CCD9FD" stroke="#1C1C1C" stroke-width="0.5" stroke-miterlimit="10" stroke-linejoin="round"/>
<path d="M50.1818 54.0139C41.1195 54.0139 33.6056 46.9882 32.9902 37.9392L31.8928 21.79C37.1506 21.3351 42.8181 21.0414 48.849 21.0041C55.892 20.9603 62.4574 21.2694 68.4709 21.7911C68.1051 27.1738 67.7393 32.5576 67.3735 37.9403C66.7581 46.9893 59.2442 54.015 50.1818 54.015V54.0139Z" fill="#FFE2C8" stroke="#1C1C1C" stroke-width="0.5" stroke-miterlimit="10" stroke-linejoin="round"/>
<path d="M55.4766 34.3924C55.6189 35.7886 55.0409 36.6423 54.1605 37.1136C55.6367 37.4871 56.5527 38.3942 56.3659 40.4573C56.1347 43.0096 54.3383 43.7032 51.7505 43.8544V45.7663C51.7505 46.1932 51.4037 46.54 50.9769 46.54C50.55 46.54 50.2032 46.1932 50.2032 45.7663V43.8988C49.8119 43.8988 49.3939 43.8988 48.9849 43.881V45.7752C48.9849 46.2021 48.6381 46.5489 48.2112 46.5489C47.7844 46.5489 47.4375 46.2021 47.4375 45.7752V43.8633C47.0729 43.8633 46.7172 43.8455 46.3437 43.8455H45.4633C44.8675 43.8455 44.4229 43.3119 44.5207 42.7339C44.6007 42.2714 45.0098 41.9335 45.4811 41.9335C45.7835 41.9335 45.7746 41.9335 45.7746 41.9335C46.2014 41.9335 46.317 41.6134 46.3526 41.3822V37.1492V34.1079C46.2993 33.7877 46.0858 33.3875 45.4544 33.3875C45.4544 33.3875 45.4544 33.3875 45.2054 33.3875C44.7252 33.3875 44.3428 33.0051 44.3428 32.5249C44.3428 32.0447 44.7252 31.6712 45.1965 31.6712H47.4553V29.7771C47.4553 29.3502 47.8021 29.0034 48.229 29.0034C48.6558 29.0034 49.0027 29.3502 49.0027 29.7771V31.609C49.4117 31.609 49.8119 31.5912 50.221 31.5912V29.7771C50.221 29.3502 50.5678 29.0034 50.9947 29.0034C51.4215 29.0034 51.7683 29.3502 51.7683 29.7771V31.6712C53.7425 31.8402 55.3254 32.4805 55.4855 34.4102L55.4766 34.3924ZM53.3246 40.1372C53.3246 38.0563 50.052 38.3586 49.0116 38.3586V41.9068C50.052 41.9068 53.3246 42.1558 53.3246 40.1283V40.1372ZM52.622 35.1305C52.622 33.2186 49.8919 33.5031 49.0116 33.5031V36.7312C49.8919 36.7312 52.622 36.9358 52.622 35.1216V35.1305Z" fill="#1C1C1C"/>
</svg>
