<svg width="102" height="102" viewBox="0 0 102 102" fill="none" xmlns="http://www.w3.org/2000/svg">
<rect x="0.5" y="0.5" width="101" height="101" rx="4.5" stroke="#9747FF" stroke-dasharray="10 5"/>
<path d="M21.4514 47.2768C21.7348 43.719 24.5865 40.9435 28.1451 40.6702C39.8572 39.7705 51.5687 39.7708 63.2762 40.6709C66.829 40.9441 69.6773 43.7118 69.989 47.2614C70.7333 55.7364 70.7332 64.2088 69.9888 72.6839C69.6771 76.2321 66.8307 78.9993 63.2794 79.2738C51.615 80.1753 39.9542 80.1794 28.2898 79.2861C24.6651 79.0085 21.7916 76.137 21.5216 72.5117C20.8744 63.8251 20.805 55.3945 21.4514 47.2768Z" fill="#CCD9FD" stroke="#1C1C1C" stroke-width="0.5" stroke-miterlimit="10" stroke-linejoin="round"/>
<path d="M21.4514 43.2191C21.7348 39.6613 24.5865 36.8858 28.1451 36.6124C39.8572 35.7128 51.5687 35.7131 63.2762 36.6132C66.829 36.8863 69.6773 39.654 69.989 43.2037C70.7333 51.6787 70.7332 60.1511 69.9888 68.6261C69.6771 72.1744 66.8307 74.9416 63.2794 75.2161C51.615 76.1176 39.9542 76.1217 28.2898 75.2284C24.6651 74.9508 21.7916 72.0793 21.5216 68.454C20.8744 59.7674 20.805 51.3368 21.4514 43.2191Z" fill="#CCD9FD" stroke="#1C1C1C" stroke-width="0.5" stroke-miterlimit="10" stroke-linejoin="round"/>
<path d="M21.3369 47.3213C37.9571 47.0608 53.5637 47.0608 70.1749 47.3213C70.4284 49.9673 70.4284 49.9673 70.5472 53.3227C53.927 53.5846 37.6202 53.5846 21 53.3227C21 51.0328 21.0842 49.9673 21.3369 47.3213Z" fill="#FF9500" stroke="#1C1C1C" stroke-width="0.5" stroke-miterlimit="10" stroke-linejoin="round"/>
<rect x="25.7944" y="64.7077" width="14.3847" height="3.19659" rx="1.5983" fill="#FF9500" stroke="#1C1C1C" stroke-width="0.5" stroke-miterlimit="10" stroke-linejoin="round"/>
<rect x="44.9792" y="64.7077" width="11.1881" height="3.19659" rx="1.5983" fill="#FF9500" stroke="#1C1C1C" stroke-width="0.5" stroke-miterlimit="10" stroke-linejoin="round"/>
<path d="M80.9802 42.4737C80.9802 50.3218 74.5266 56.6842 66.5654 56.6842C58.6043 56.6842 51.5793 49.7955 51.5793 41.9474C50.8063 28.7078 58.6043 28.2632 66.5654 28.2632C74.5266 28.2632 81.4174 28.9506 80.9802 42.4737Z" fill="#FF9500" stroke="#1C1C1C" stroke-width="0.5" stroke-miterlimit="10"/>
<path d="M66.2259 52.8853C74.3442 52.8853 80.9254 46.1953 80.9254 37.9427C80.9254 29.6901 74.3442 23 66.2259 23C58.1076 23 51.5264 29.6901 51.5264 37.9427C51.5264 46.1953 58.1076 52.8853 66.2259 52.8853Z" fill="#FFE2C8" stroke="#1C1C1C" stroke-width="0.5" stroke-miterlimit="10"/>
<path d="M66.2632 49.3158C72.6581 49.3158 77.8422 44.1317 77.8422 37.7368C77.8422 31.342 72.6581 26.1579 66.2632 26.1579C59.8683 26.1579 54.6843 31.342 54.6843 37.7368C54.6843 44.1317 59.8683 49.3158 66.2632 49.3158Z" fill="#FF9500" stroke="#1C1C1C" stroke-width="0.5" stroke-miterlimit="10"/>
<g clip-path="url(#clip0_18011_2872)">
<path d="M67.5621 34.4008C67.0531 33.703 65.8336 33.703 65.3246 34.4008C64.6531 35.3215 63.8371 36.1334 62.9091 36.8048C62.2121 37.309 62.2121 38.5148 62.9091 39.0191C63.8371 39.6905 64.6531 40.5024 65.3246 41.4231C65.8336 42.1209 67.0531 42.1209 67.5621 41.4231C68.2337 40.5024 69.0496 39.6905 69.9776 39.0191C70.6746 38.5148 70.6746 37.309 69.9776 36.8048C69.0496 36.1334 68.2337 35.3215 67.5621 34.4008Z" fill="#1C1C1C" stroke="#1C1C1C" stroke-width="1.4" stroke-miterlimit="10" stroke-linejoin="round"/>
</g>
<defs>
<clipPath id="clip0_18011_2872">
<rect width="11.5789" height="11.5789" fill="white" transform="translate(61.0001 32.4737)"/>
</clipPath>
</defs>
</svg>
