<svg width="62" height="62" viewBox="0 0 62 62" fill="none" xmlns="http://www.w3.org/2000/svg">
<g clip-path="url(#clip0_18011_6722)">
<path d="M50.8202 34.3926C49.6832 32.8858 47.5893 32.4783 45.9787 33.4639L33.0175 41.3867C32.9701 42.0975 32.9227 42.7988 32.8564 43.5096C32.6574 45.7841 32.3732 48.0491 32.089 50.3141C32.0226 50.8164 31.9658 51.3282 31.9089 51.8305C34.3439 50.5795 36.5041 49.1011 36.5041 49.1011L49.9959 39.5861C51.6823 38.392 52.0519 36.0417 50.8202 34.3926Z" fill="white" stroke="#1C1C1C" stroke-width="0.5" stroke-linecap="round" stroke-linejoin="round"/>
<path d="M56.1544 34.4495C55.0174 32.9426 52.9236 32.5351 51.3129 33.5207L38.3517 41.4435C38.3043 42.1543 38.2569 42.8556 38.1906 43.5664C37.9917 45.8409 37.7074 48.1059 37.4232 50.371C37.3569 50.8732 37.3 51.385 37.2432 51.8873C39.6781 50.6363 41.8383 49.1579 41.8383 49.1579L55.3301 39.6429C57.0166 38.4488 57.3861 36.0985 56.1544 34.4495Z" fill="white" stroke="#1C1C1C" stroke-width="0.5" stroke-linecap="round" stroke-linejoin="round"/>
<path d="M46.585 49.1768C45.8176 49.6507 45.0217 50.0487 44.1785 50.352C42.4257 50.9964 39.337 52.0484 37.1199 52.2948C21.7996 54.0101 16.4843 50.6458 16.4843 50.6458L11.6428 50.4752V34.2789H15.0726C15.0726 34.2789 17.8487 32.156 20.9563 32.156H25.5231C27.9012 32.156 30.2035 33.0563 31.9468 34.6674L41.5445 43.5285L55.6522 34.9044C57.0923 34.023 58.9967 34.1462 60.2094 35.3308C61.8959 36.9798 61.6211 39.6618 59.7736 40.9697L46.5755 49.1863L46.585 49.1768Z" fill="white" stroke="#1C1C1C" stroke-width="0.5" stroke-linecap="round" stroke-linejoin="round"/>
<path d="M0.96518 32.7341C0.84201 42.505 0.84201 47.3951 0.96518 57.166C5.52244 57.3935 7.80581 57.3935 12.3726 57.166C12.4957 47.3951 12.4862 42.505 12.3726 32.7341C7.81529 32.5067 5.53192 32.5067 0.96518 32.7341Z" fill="#4169E1" stroke="#1C1C1C" stroke-width="0.5" stroke-linecap="round" stroke-linejoin="round"/>
<path d="M26.3475 49.1674L40.9004 44.0971C40.9004 44.0971 42.8617 42.4576 40.9004 40.4958C38.9392 38.5341 35.1778 38.5341 33.7092 39.188C32.2407 39.8419 29.2941 40.3347 28.1477 40.4958C27.0012 40.6569 23.0788 37.7191 20.1322 37.7191C17.1856 37.7191 15.717 38.373 15.717 38.373" fill="white"/>
<path d="M29.7013 45.3007L40.9097 44.0877C40.9097 44.0877 42.8709 42.4481 40.9097 40.4864C38.9485 38.5246 35.1871 38.5246 33.7185 39.1785C32.25 39.8325 29.3034 40.3253 28.1569 40.4864C27.0105 40.6475 23.0881 37.7096 20.1415 37.7096C17.1949 37.7096 15.7263 38.3635 15.7263 38.3635" stroke="#1C1C1C" stroke-width="0.5" stroke-linecap="round" stroke-linejoin="round"/>
<path d="M20.6152 50.0109C18.5687 50.0109 16.9106 48.0681 16.9106 45.6798C16.9106 43.2916 18.5687 41.3488 20.6152 41.3488C22.6617 41.3488 24.3198 43.2916 24.3198 45.6798C24.3198 48.0681 22.6617 50.0109 20.6152 50.0109Z" fill="white" stroke="white" stroke-width="0.5" stroke-linecap="round" stroke-linejoin="round"/>
<path d="M38.4275 29.1234L37.6127 30.5639C36.8263 31.957 35.5377 32.9616 34.0029 33.388C33.4723 33.5302 32.9322 33.606 32.3922 33.606C31.3689 33.606 30.3552 33.3407 29.4456 32.8194C28.0528 32.0328 27.0485 30.7439 26.6222 29.2086C26.1958 27.6639 26.3948 26.0433 27.1812 24.6502L32.5532 15.1636C33.3396 13.7705 34.6282 12.7754 36.1631 12.3395C36.6936 12.1973 37.2337 12.1215 37.7737 12.1215C38.039 12.1215 38.2948 12.1404 38.5506 12.1784C38.797 12.2068 39.0338 12.2542 39.2707 12.3205C39.7634 12.4532 40.2561 12.6522 40.7108 12.9081C41.0804 13.1166 41.4309 13.363 41.7436 13.6473C41.9236 13.8084 42.0941 13.979 42.2552 14.1591C42.4257 14.3486 42.5773 14.5476 42.7195 14.7656C43.0795 15.2963 43.3637 15.8934 43.5343 16.5283C43.9606 18.0731 43.7617 19.6937 42.9753 21.0868L41.2319 24.1668C41.5257 24.4701 41.8667 24.726 42.2363 24.944C42.691 25.2093 43.1932 25.3799 43.7048 25.4747L45.4102 22.4705C46.5661 20.4234 46.8598 18.0541 46.2345 15.7891C45.8555 14.4149 45.1639 13.1734 44.207 12.1594C44.0459 11.9793 43.8754 11.8088 43.6953 11.6476C43.5248 11.4865 43.3448 11.3349 43.1553 11.1927C42.8237 10.9369 42.4731 10.6999 42.1036 10.4914C41.6488 10.2356 41.1751 10.0176 40.6919 9.847C40.4645 9.7617 40.2371 9.68589 40.0097 9.62903C39.7729 9.56269 39.536 9.5153 39.2897 9.47739C38.7875 9.38262 38.2854 9.33524 37.7737 9.33524C36.9873 9.33524 36.1915 9.43948 35.4146 9.65746C33.1501 10.2829 31.2647 11.7519 30.1088 13.7989L24.7367 23.2855C23.5808 25.3325 23.2871 27.7018 23.9124 29.9668C24.5378 32.2318 26.0063 34.1178 28.0528 35.274C29.3887 36.0321 30.8763 36.4207 32.3732 36.4207C33.1596 36.4207 33.9555 36.3165 34.7229 36.0985C36.9873 35.473 38.8728 34.004 40.0287 31.957L40.8624 30.4881C40.3792 30.308 39.915 30.09 39.4602 29.8341C39.0907 29.6256 38.7401 29.3982 38.4085 29.1423L38.4275 29.1234Z" fill="#FF9500" stroke="#1C1C1C" stroke-width="0.5" stroke-linecap="round" stroke-linejoin="round"/>
<path d="M58.362 9.11728C57.7367 6.85226 56.2681 4.96632 54.2216 3.81012C52.8857 3.05195 51.3982 2.66339 49.9012 2.66339C49.1148 2.66339 48.319 2.76764 47.5421 2.98561C45.2776 3.6111 43.3922 5.08004 42.2363 7.12709L41.4025 8.59604C41.8857 8.7761 42.35 8.99407 42.8048 9.25943C43.1743 9.46793 43.5248 9.69538 43.8564 9.95126L44.6713 8.51074C45.4576 7.11761 46.7462 6.11304 48.2811 5.68658C48.8116 5.54442 49.3517 5.4686 49.8917 5.4686C50.915 5.4686 51.9193 5.73396 52.8383 6.2552C54.2311 7.0418 55.2354 8.3212 55.6618 9.86596C56.0881 11.4107 55.8891 13.0218 55.1028 14.4244L49.7307 23.9015C48.9443 25.2946 47.6557 26.2992 46.1209 26.7257C45.5903 26.8678 45.0502 26.9436 44.5102 26.9436C44.2449 26.9436 43.9891 26.9247 43.7333 26.8963C43.4869 26.8678 43.2501 26.8204 43.0132 26.7541C42.5205 26.6309 42.0279 26.4319 41.5731 26.1665C41.2036 25.958 40.853 25.7116 40.5404 25.4273C40.3603 25.2662 40.1898 25.0956 40.0287 24.9061C39.8582 24.7165 39.7066 24.5175 39.5645 24.309C39.2044 23.7783 38.9202 23.1812 38.7497 22.5463C38.3233 21.0015 38.5223 19.3809 39.3087 17.9878L41.0615 14.8983C40.7677 14.595 40.4267 14.3391 40.0477 14.1306C39.5929 13.8653 39.0907 13.6852 38.5791 13.5999L36.8737 16.6042C35.7178 18.6512 35.4241 21.0205 36.0494 23.2855C36.4284 24.6691 37.1295 25.9012 38.077 26.9247C38.238 27.1048 38.4086 27.2753 38.5886 27.4364C38.7591 27.5976 38.9392 27.7492 39.1286 27.8913C39.4603 28.1472 39.8108 28.3842 40.1803 28.5927C40.6351 28.8485 41.1088 29.0665 41.592 29.2371C41.8194 29.3224 42.0468 29.3982 42.2742 29.4551C42.5111 29.5214 42.7479 29.5688 42.9943 29.6067C43.4964 29.7015 43.9986 29.7489 44.5102 29.7489C45.2966 29.7489 46.0924 29.6446 46.8599 29.4266C49.1243 28.8011 51.0097 27.3322 52.1656 25.2852L57.5377 15.8081C58.6936 13.761 58.9873 11.3918 58.362 9.12675V9.11728Z" fill="#FF9500" stroke="#1C1C1C" stroke-width="0.5" stroke-linecap="round" stroke-linejoin="round"/>
</g>
<defs>
<clipPath id="clip0_18011_6722">
<rect width="62" height="62" rx="5" fill="white"/>
</clipPath>
</defs>
</svg>
