<svg width="102" height="102" viewBox="0 0 102 102" fill="none" xmlns="http://www.w3.org/2000/svg">
<rect x="0.5" y="0.5" width="101" height="101" rx="4.5" stroke="#9747FF" stroke-dasharray="10 5"/>
<path d="M53.9709 42.3115C52.537 40.038 49.8524 39.0082 47.351 39.5627L40.1813 28.1873L37.7835 26.5L35.8796 27.6882L36.3655 30.5717L37.6401 32.6076L37.3214 34.4295L38.9784 37.0595L40.5318 37.1942L41.0975 38.0972L40.5478 39.5548L42.2048 42.1848L43.2563 41.5273L43.5829 42.058C42.1888 44.0226 42.0295 46.708 43.3997 48.8864C45.2319 51.7937 49.0717 52.665 51.9794 50.851C54.895 49.029 55.7713 45.2108 53.955 42.3115H53.9709ZM47.7413 47.1991C46.9367 46.6525 46.7296 45.5594 47.2793 44.7672C47.8289 43.9671 48.9203 43.7532 49.7249 44.3078C50.5295 44.8543 50.7366 45.9396 50.187 46.7397C49.6373 47.5398 48.5459 47.7457 47.7413 47.1991Z" fill="#FF9500" stroke="#1C1C1C" stroke-width="0.5" stroke-miterlimit="10"/>
<path d="M44.9551 41.2105C42.2546 41.1392 39.9045 42.7869 38.9884 45.1634L25.4936 44.791L22.7532 45.8367L22.6895 48.0706L25.3741 49.2667L27.7879 49.338L29.1342 50.6134L32.2569 50.7006L33.2288 49.4886L34.2963 49.5202L35.2124 50.7798L38.3352 50.8669L38.3671 49.6311L38.9884 49.6549C39.8567 51.8967 42.0156 53.5206 44.6046 53.5919C48.054 53.687 50.9139 50.9937 51.0095 47.5794C51.1051 44.1573 48.3966 41.3135 44.9551 41.2105ZM45.5924 49.0766C44.6843 49.441 43.6566 49.0053 43.2982 48.1102C42.9317 47.2151 43.3619 46.1932 44.2701 45.8288C45.1702 45.4644 46.1979 45.9001 46.5643 46.7952C46.9308 47.6903 46.4926 48.7122 45.5924 49.0766Z" fill="#FFE2C8" stroke="#1C1C1C" stroke-width="0.5" stroke-linejoin="round"/>
<path d="M32.178 63.9452L29.6925 65.379L27.2229 61.1409L29.7164 59.7071L31.939 58.4317L40.6541 53.4253L43.1236 57.6713L34.4006 62.6777L35.014 63.7154L32.7914 64.9908L32.178 63.9452Z" fill="#E8EDFA" stroke="#1C1C1C" stroke-width="0.5" stroke-linejoin="round"/>
<path d="M51.1237 55.555L46.4409 47.4865L34.4286 54.3801L39.1113 62.4486L51.1237 55.555Z" fill="#1C1C1C" stroke="#1C1C1C" stroke-width="0.5" stroke-linejoin="round"/>
<path d="M43.889 56.0632C44.8613 56.0632 45.6496 55.2794 45.6496 54.3125C45.6496 53.3457 44.8613 52.5619 43.889 52.5619C42.9167 52.5619 42.1285 53.3457 42.1285 54.3125C42.1285 55.2794 42.9167 56.0632 43.889 56.0632Z" fill="#CCD9FD"/>
<path d="M44.9803 52.1503C45.1316 50.5581 46.4062 49.3223 48.0074 49.1877C56.7624 48.443 65.5093 48.443 74.2642 49.1877C75.8655 49.3223 77.1401 50.5581 77.3073 52.1503C77.9685 58.6857 77.9685 65.213 77.3073 71.7484C77.1401 73.3327 75.8655 74.5685 74.2642 74.7031C65.5332 75.4478 56.8102 75.4478 48.0791 74.7031C46.454 74.5685 45.1555 73.2852 45.0201 71.6612C44.4465 64.912 44.3828 58.3926 44.9803 52.1503Z" fill="#4169E1" stroke="#1C1C1C" stroke-width="0.5" stroke-linejoin="round"/>
<path d="M44.9803 49.6309C45.1316 48.0387 46.4062 46.8029 48.0074 46.6682C56.7624 45.9236 65.5093 45.9236 74.2642 46.6682C75.8655 46.8029 77.1401 48.0387 77.3073 49.6309C77.9685 56.1662 77.9685 62.6936 77.3073 69.229C77.1401 70.8133 75.8655 72.049 74.2642 72.1837C65.5332 72.9283 56.8102 72.9283 48.0791 72.1837C46.454 72.049 45.1555 70.7657 45.0201 69.1418C44.4465 62.3926 44.3828 55.8731 44.9803 49.6309Z" fill="#CCD9FD" stroke="#1C1C1C" stroke-width="0.5" stroke-linejoin="round"/>
<path d="M63.294 60.1667C63.3657 57.1011 65.9866 54.6691 69.0695 54.6137C72.2002 54.5582 75.2912 54.7087 78.5334 55.0177C78.9716 58.0437 78.8361 61.2678 78.7405 65.3633C78.7326 65.799 78.39 66.1634 77.9598 66.195C75.0601 66.4485 72.2162 66.5357 69.3563 66.4723C65.9706 66.3931 63.2223 63.5413 63.294 60.1588V60.1667Z" fill="#4169E1" stroke="#1C1C1C" stroke-width="0.5" stroke-linejoin="round"/>
<path d="M63.2923 58.1391C63.364 55.0734 65.9929 52.6494 69.0758 52.5623C72.0233 52.4831 74.9788 52.5623 77.9263 52.8237C78.4123 52.8633 78.7946 53.2673 78.8265 53.7505C79.0575 57.8064 79.0416 59.1214 78.8743 64.104C75.7197 64.413 72.5332 64.5239 69.3466 64.4447C65.961 64.3655 63.2126 61.5137 63.2923 58.1312V58.1391Z" fill="#CCD9FD" stroke="#1C1C1C" stroke-width="0.5" stroke-linejoin="round"/>
<path d="M72.6617 57.2597C72.6617 58.4321 71.8731 59.4223 71.2198 59.7391V62.0601H68.9654V59.7391C68.2405 59.4223 67.4598 58.4321 67.4598 57.2597C67.4598 55.8338 68.6228 54.6772 70.0568 54.6772C71.4907 54.6772 72.6617 55.8338 72.6617 57.2597Z" fill="#4169E1" stroke="#1C1C1C" stroke-width="0.5" stroke-linejoin="round"/>
</svg>
