<svg width="62" height="62" viewBox="0 0 62 62" fill="none" xmlns="http://www.w3.org/2000/svg">
<g clip-path="url(#clip0_18011_6572)">
<path d="M57.5645 49.4156V55.981C57.5645 58.9391 46.057 61.3501 31.8694 61.3501C17.6819 61.3501 6.16553 58.9391 6.16553 55.981V49.4156H57.5645Z" fill="#4169E1" stroke="#1C1C1C" stroke-width="0.5" stroke-linejoin="round"/>
<path d="M31.8709 54.7747C46.0618 54.7747 57.5659 52.3709 57.5659 49.4056C57.5659 46.4403 46.0618 44.0364 31.8709 44.0364C17.6799 44.0364 6.17578 46.4403 6.17578 49.4056C6.17578 52.3709 17.6799 54.7747 31.8709 54.7747Z" fill="#CCD9FD" stroke="#1C1C1C" stroke-width="0.5" stroke-linejoin="round"/>
<path d="M31.8708 0.648407C42.715 0.648407 51.5158 9.87515 51.5158 21.244V47.6074H12.2258V21.244C12.2258 9.87515 21.0267 0.648407 31.8708 0.648407Z" fill="#CCD9FD" stroke="#1C1C1C" stroke-width="0.5" stroke-linecap="round" stroke-linejoin="round"/>
<path d="M31.8685 51.4285C42.7035 51.4285 51.4869 49.9339 51.4869 48.0902C51.4869 46.2464 42.7035 44.7518 31.8685 44.7518C21.0335 44.7518 12.25 46.2464 12.25 48.0902C12.25 49.9339 21.0335 51.4285 31.8685 51.4285Z" fill="#4169E1" stroke="#1C1C1C" stroke-width="0.5" stroke-linejoin="round"/>
<path d="M45.314 35.1119C45.314 42.5344 39.4898 48.5597 32.3021 48.5597C25.1143 48.5597 18.7739 42.0418 18.7739 34.6193C18.0729 22.0923 25.1143 21.6723 32.3021 21.6723C39.4898 21.6723 45.7069 22.3265 45.314 35.12V35.1119Z" fill="#637DEB" stroke="#1C1C1C" stroke-width="0.5" stroke-miterlimit="10"/>
<path d="M32.0057 44.9646C39.3322 44.9646 45.2719 38.6324 45.2719 30.8223C45.2719 23.0121 39.3322 16.688 32.0057 16.688C24.6792 16.688 18.7395 23.0201 18.7395 30.8303C18.7395 38.6405 24.6792 44.9727 32.0057 44.9727V44.9646Z" fill="#CCD9FD" stroke="#1C1C1C" stroke-width="0.5" stroke-miterlimit="10"/>
<path d="M32.0339 41.7733C37.8041 41.7733 42.4804 36.8707 42.4804 30.8212C42.4804 24.7718 37.8041 19.8611 32.0339 19.8611C26.2636 19.8611 21.5796 24.7637 21.5796 30.8212C21.5796 36.8788 26.2559 41.7733 32.0339 41.7733Z" fill="#637DEB" stroke="#1C1C1C" stroke-width="0.5" stroke-miterlimit="10"/>
<path d="M32.6902 33.2438C32.3475 33.4514 31.9362 33.4514 31.5935 33.2438L28.5549 31.4234C28.0446 31.12 27.8542 30.4493 28.1207 29.8984L31.1975 23.5429C31.6088 22.6886 32.7816 22.7046 33.1776 23.5669L36.102 29.9622C36.3533 30.5052 36.1553 31.1599 35.6527 31.4633L32.6902 33.2358V33.2438Z" fill="white"/>
<path d="M32.5272 34.5298C32.1921 34.7214 31.7808 34.7214 31.4533 34.5218L29.0163 33.0607C28.4985 32.7493 27.9425 33.404 28.3005 33.907L31.1183 37.9311C31.5523 38.5538 32.4358 38.5618 32.8851 37.947L35.8476 33.8831C36.2132 33.388 35.6648 32.7253 35.147 33.0287L32.5348 34.5298H32.5272Z" fill="white"/>
<path d="M19.5309 6.361C20.3535 6.67628 21.0168 6.93593 21.6714 7.19558C22.6001 7.55723 22.6001 8.92965 21.6714 9.2913C21.008 9.55095 20.3446 9.81059 19.5309 10.1259C19.239 10.2372 19.0001 10.4875 18.8852 10.7935C18.5844 11.6559 18.3368 12.3514 18.0891 13.0376C17.7441 14.0113 16.4351 14.0113 16.0901 13.0376C15.8424 12.3422 15.5948 11.6467 15.294 10.7935C15.1879 10.4875 14.9491 10.2372 14.6484 10.1166C13.8258 9.80132 13.1624 9.54167 12.5078 9.28203C11.5791 8.92038 11.5791 7.54796 12.5078 7.18631C13.1712 6.92666 13.8346 6.66701 14.6484 6.35173C14.9402 6.24045 15.1791 5.99007 15.2852 5.67479C15.5859 4.81239 15.8336 4.11691 16.0813 3.4307C16.4262 2.45702 17.7353 2.45702 18.0803 3.4307C18.3279 4.12618 18.5756 4.82166 18.8763 5.67479C18.9825 5.9808 19.2213 6.23117 19.5132 6.35173L19.5309 6.361Z" fill="white" stroke="#1C1C1C" stroke-width="0.5" stroke-linejoin="round"/>
</g>
<defs>
<clipPath id="clip0_18011_6572">
<rect width="62" height="62" rx="5" fill="white"/>
</clipPath>
</defs>
</svg>
