<svg width="62" height="62" viewBox="0 0 62 62" fill="none" xmlns="http://www.w3.org/2000/svg">
<g clip-path="url(#clip0_18011_3243)">
<path d="M58.6062 58.9401C39.8662 59.3301 21.1562 59.3301 2.41619 58.9401C2.08619 48.7601 1.95619 38.5501 2.02619 28.3701C21.0162 28.3001 40.0062 28.3001 58.9962 28.3701C59.0662 38.5501 58.9462 48.7601 58.6062 58.9401Z" fill="#4169E1" stroke="#1C1C1C" stroke-width="0.5" stroke-linejoin="round"/>
<path d="M58.4964 23.63C39.6864 23.49 20.8764 23.5 2.06641 23.63C9.96641 16.9 13.9464 13.46 21.7464 6.65999C28.5764 6.59999 31.9964 6.59999 38.8264 6.65999C46.6164 13.46 50.5964 16.9 58.4964 23.63Z" fill="#4169E1" stroke="#1C1C1C" stroke-width="0.5" stroke-linejoin="round"/>
<path d="M58.7137 55.1001C39.9037 55.4301 21.1137 55.4301 2.30373 55.1001C2.01373 44.9201 1.93373 34.7101 2.05373 24.5301C21.0237 24.4001 39.9937 24.4001 58.9637 24.5301C59.0837 34.7101 59.0037 44.9201 58.7137 55.1001Z" fill="#CCD9FD" stroke="#1C1C1C" stroke-width="0.5" stroke-linejoin="round"/>
<path d="M58.5064 24.0802C39.6864 23.9502 20.8764 23.9502 2.06641 24.0802C9.82641 30.6602 13.7864 34.0602 21.6364 40.8102C28.5564 40.8302 32.0164 40.8302 38.9364 40.8102C46.7864 34.0502 50.7464 30.6602 58.5064 24.0702V24.0802Z" fill="#1C1C1C" stroke="#1C1C1C" stroke-width="0.5" stroke-linecap="round" stroke-linejoin="round"/>
<path d="M47.5752 25.81C47.5752 35 40.0152 42.46 30.6852 42.46C21.3552 42.46 13.1252 34.39 13.1252 25.2C12.2152 9.69 21.3552 9.17 30.6852 9.17C40.0152 9.17 48.0852 9.98 47.5752 25.82V25.81Z" fill="#FF9500" stroke="#1C1C1C" stroke-width="0.5" stroke-miterlimit="10"/>
<path d="M30.2952 38.01C39.8052 38.01 47.5152 30.17 47.5152 20.5C47.5152 10.83 39.8052 3 30.2952 3C20.7852 3 13.0752 10.84 13.0752 20.51C13.0752 30.18 20.7852 38.02 30.2952 38.02V38.01Z" fill="#FFE2C8" stroke="#1C1C1C" stroke-width="0.5" stroke-miterlimit="10"/>
<path d="M30.3351 34.06C37.8251 34.06 43.8951 27.99 43.8951 20.5C43.8951 13.01 37.8251 6.92999 30.3351 6.92999C22.8451 6.92999 16.7651 13 16.7651 20.5C16.7651 28 22.8351 34.06 30.3351 34.06Z" fill="#FF9500" stroke="#1C1C1C" stroke-width="0.5" stroke-miterlimit="10"/>
<path d="M36.3052 16.47C36.4652 18.04 35.8152 19 34.8252 19.53C36.4852 19.95 37.5152 20.97 37.3052 23.29C37.0452 26.16 35.0252 26.94 32.1152 27.11V29.26C32.1152 29.74 31.7252 30.13 31.2452 30.13C30.7652 30.13 30.3752 29.74 30.3752 29.26V27.16C29.9352 27.16 29.4652 27.16 29.0052 27.14V29.27C29.0052 29.75 28.6152 30.14 28.1352 30.14C27.6552 30.14 27.2652 29.75 27.2652 29.27V27.12C26.8552 27.12 26.4552 27.1 26.0352 27.1H25.0452C24.3752 27.1 23.8752 26.5 23.9852 25.85C24.0752 25.33 24.5352 24.95 25.0652 24.95C25.4052 24.95 25.3952 24.95 25.3952 24.95C25.8752 24.95 26.0052 24.59 26.0452 24.33V19.57V16.15C25.9852 15.79 25.7452 15.34 25.0352 15.34C25.0352 15.34 25.0352 15.34 24.7552 15.34C24.2152 15.34 23.7852 14.91 23.7852 14.37C23.7852 13.83 24.2152 13.41 24.7452 13.41H27.2852V11.28C27.2852 10.8 27.6752 10.41 28.1552 10.41C28.6352 10.41 29.0252 10.8 29.0252 11.28V13.34C29.4852 13.34 29.9352 13.32 30.3952 13.32V11.28C30.3952 10.8 30.7852 10.41 31.2652 10.41C31.7452 10.41 32.1352 10.8 32.1352 11.28V13.41C34.3552 13.6 36.1352 14.32 36.3152 16.49L36.3052 16.47ZM33.8852 22.93C33.8852 20.59 30.2052 20.93 29.0352 20.93V24.92C30.2052 24.92 33.8852 25.2 33.8852 22.92V22.93ZM33.0952 17.3C33.0952 15.15 30.0252 15.47 29.0352 15.47V19.1C30.0252 19.1 33.0952 19.33 33.0952 17.29V17.3Z" fill="white"/>
<path d="M58.2647 55.11C39.6047 55.43 20.9647 55.43 2.30469 55.1C9.89469 48.62 13.8047 45.26 21.6247 38.54C28.5547 38.55 32.0147 38.55 38.9347 38.54C46.7547 45.27 50.6647 48.63 58.2647 55.11Z" fill="#CCD9FD" stroke="#1C1C1C" stroke-width="0.5" stroke-linejoin="round"/>
</g>
<defs>
<clipPath id="clip0_18011_3243">
<rect width="62" height="62" rx="5" fill="white"/>
</clipPath>
</defs>
</svg>
