<svg width="102" height="102" viewBox="0 0 102 102" fill="none" xmlns="http://www.w3.org/2000/svg">
<rect x="0.5" y="0.5" width="101" height="101" rx="4.5" stroke="#8A38F5" stroke-dasharray="10 5"/>
<path d="M64.6543 62.0102C50.117 62.261 35.5796 62.2341 21.0423 62.0102C20.6213 53.2409 20.6034 48.8607 20.9169 40.0915C35.5349 39.9213 50.1618 39.9034 64.7797 40.0915C65.0932 48.8607 65.0753 53.2409 64.6543 62.0102Z" fill="#FF9500" stroke="#1C1C1C" stroke-width="0.5" stroke-linejoin="round"/>
<path d="M64.7719 59.0461C50.154 59.2342 35.527 59.2163 20.9091 59.0461C20.5956 50.2768 20.6135 45.8967 21.0345 37.1274C35.5718 36.9035 50.1092 36.8766 64.6465 37.1274C65.0675 45.8967 65.0854 50.2768 64.7719 59.0461Z" fill="#FFE2C8" stroke="#1C1C1C" stroke-width="0.5" stroke-linejoin="round"/>
<path d="M57.4886 56.4069C47.7254 56.4427 37.9711 56.4427 28.2079 56.4069C28.172 54.4452 26.5598 52.8508 24.5892 52.8419C24.5534 49.035 24.5623 47.136 24.634 43.3291C26.6045 43.3202 28.2258 41.7168 28.2706 39.7552C37.989 39.7014 47.7074 39.7014 57.4259 39.7552C57.4707 41.7168 59.0919 43.3202 61.0624 43.3291C61.1341 47.136 61.1431 49.035 61.1072 52.8419C59.1367 52.8419 57.5244 54.4452 57.4886 56.4069Z" fill="#FF9500" stroke="#1C1C1C" stroke-width="0.5" stroke-linejoin="round"/>
<path d="M42.8252 56.2833C47.3016 56.2833 50.9333 52.6515 50.9333 48.1748C50.9333 43.6982 47.3016 40.0664 42.8252 40.0664C38.3488 40.0664 34.7172 43.6982 34.7172 48.1748C34.7172 52.6515 38.3488 56.2833 42.8252 56.2833Z" fill="#FFE2C8" stroke="#1C1C1C" stroke-width="0.5" stroke-linejoin="round"/>
<path d="M46.6283 45.8996C46.7263 46.8373 46.3397 47.4092 45.7469 47.7287C46.7366 47.9812 47.3551 48.5943 47.2314 49.9752C47.0768 51.691 45.8655 52.1598 44.1285 52.2629V53.5459C44.1285 53.8344 43.8965 54.0663 43.6079 54.0663C43.3192 54.0663 43.0873 53.8344 43.0873 53.5459V52.2887C42.8193 52.2887 42.5409 52.2887 42.2677 52.2783V53.551C42.2677 53.8396 42.0358 54.0714 41.7472 54.0714C41.4585 54.0714 41.2266 53.8396 41.2266 53.551V52.268C40.9843 52.268 40.742 52.2577 40.4895 52.2577H39.8967C39.4998 52.2577 39.1957 51.9022 39.2627 51.5106C39.3143 51.1963 39.5926 50.9696 39.907 50.9696C40.1081 50.9696 40.1029 50.9645 40.1029 50.9645C40.3916 50.9645 40.4637 50.7481 40.4895 50.5986V47.7545V45.7089C40.4534 45.4925 40.3091 45.2246 39.8864 45.2246C39.8864 45.2246 39.8864 45.2246 39.7215 45.2194C39.4019 45.2194 39.139 44.9618 39.139 44.6423C39.139 44.3229 39.3968 44.0704 39.7112 44.0704H41.2317V42.7977C41.2317 42.5092 41.4637 42.2773 41.7523 42.2773C42.0409 42.2773 42.2729 42.5092 42.2729 42.7977V44.0292C42.5512 44.0292 42.8141 44.0189 43.0924 44.0189V42.7977C43.0924 42.5092 43.3244 42.2773 43.613 42.2773C43.9017 42.2773 44.1336 42.5092 44.1336 42.7977V44.0704C45.4635 44.1838 46.5253 44.6166 46.6335 45.9099L46.6283 45.8996ZM45.1748 49.7588C45.1748 48.3624 42.9739 48.5634 42.2729 48.5634V50.949C42.9739 50.949 45.1748 51.1139 45.1748 49.7536V49.7588ZM44.7058 46.3942C44.7058 45.1112 42.8708 45.3019 42.278 45.3019V47.4711C42.8708 47.4711 44.7058 47.6102 44.7058 46.3942Z" fill="#1C1C1C"/>
<path d="M63.7899 71.5693C66.6052 72.4455 69.5769 70.9576 70.6664 68.2178C71.5775 65.9267 72.4773 63.5461 73.3559 61.0775C74.5974 57.5897 75.6953 54.2122 76.6682 50.9658C77.0311 49.7546 77.0269 48.4378 76.4234 47.3267C76.1906 46.898 75.914 46.4476 75.585 45.9894C74.9309 45.0779 74.2422 44.377 73.6398 43.8532C73.3131 43.5691 73.1767 43.117 73.3221 42.7092L74.2406 40.1322C74.548 39.2696 74.2376 38.2919 73.4171 37.8853C73.017 37.687 72.572 37.4945 72.0828 37.3222C71.6265 37.1616 71.1892 37.0389 70.7793 36.9452C69.8862 36.7412 69.0268 37.3022 68.7193 38.1651L67.7992 40.7467C67.6548 41.1517 67.2676 41.4151 66.838 41.4311C66.041 41.4608 65.0719 41.5717 63.9987 41.8592C63.4624 42.0027 62.9693 42.1717 62.5215 42.3512C61.3247 42.8312 60.4689 43.8674 59.9787 45.06C58.7115 48.1433 57.4587 51.387 56.2423 54.7871C55.343 57.3015 54.5131 59.7627 53.7469 62.164C52.8479 64.9815 54.2061 68.0274 56.9495 69.1323C58.0224 69.5644 59.137 69.9891 60.2927 70.4015C61.4853 70.8271 62.6522 71.2152 63.7899 71.5693ZM70.0417 39.7335C70.2564 39.1312 70.9061 38.8123 71.4926 39.0213C72.0791 39.2304 72.3806 39.8883 72.1659 40.4906C71.9513 41.0929 71.3016 41.4118 70.7151 41.2028C70.1286 40.9937 69.827 40.3358 70.0417 39.7335Z" fill="#CCD9FD" stroke="#1C1C1C" stroke-width="0.5" stroke-miterlimit="10"/>
<path d="M64.2784 37.1334C67.281 27.1328 74.7785 29.1298 72.4365 36.8992" stroke="#1C1C1C" stroke-width="0.5" stroke-miterlimit="10"/>
<path d="M67.7826 52.9205C67.5473 52.0894 66.4051 51.6984 65.7098 52.2109C64.5108 53.0947 63.1543 53.7554 61.7114 54.159C60.883 54.3907 60.4961 55.5209 61.0087 56.2117C61.9016 57.4148 62.5685 58.7683 62.9744 60.2015C63.2097 61.0325 64.3519 61.4235 65.0471 60.911C66.2461 60.0272 67.6026 59.3665 69.0455 58.963C69.8739 58.7312 70.2608 57.6011 69.7482 56.9103C68.8554 55.7071 68.1884 54.3537 67.7826 52.9205Z" fill="#1C1C1C" stroke="#1C1C1C" stroke-width="0.5" stroke-miterlimit="10" stroke-linejoin="round"/>
</svg>
