<svg width="62" height="62" viewBox="0 0 62 62" fill="none" xmlns="http://www.w3.org/2000/svg">
<g clip-path="url(#clip0_18011_4309)">
<path d="M23.9081 45.2948H3.58922C2.64221 45.2948 1.87451 46.0625 1.87451 47.0095V49.6659C1.87451 50.6129 2.64221 51.3806 3.58922 51.3806H23.9081C24.8551 51.3806 25.6228 50.6129 25.6228 49.6659V47.0095C25.6228 46.0625 24.8551 45.2948 23.9081 45.2948Z" fill="#FF9500" stroke="#1C1C1C" stroke-width="0.5" stroke-linejoin="round"/>
<path d="M60.1263 46.3356V48.5855C60.1263 49.5469 59.9087 50.4885 59.513 51.331C59.1075 52.1834 58.5141 52.9466 57.7723 53.5611C56.7832 54.3739 55.5963 54.8596 54.3896 54.9884H25.1526C24.9251 55.0182 24.6877 55.0281 24.4602 55.0281C23.0162 55.0281 21.5622 54.5325 20.3754 53.5611C19.6336 52.9466 19.05 52.1834 18.6445 51.331C18.2488 50.4885 18.0312 49.5469 18.0312 48.5855V15.5005L19.8808 17.3639L21.8689 15.3716H22.1458L24.124 17.3639L26.112 15.3716H26.3889L28.3671 17.3639L30.3551 15.3716H30.6321L32.6102 17.3639L34.5983 15.3716H34.8752L36.8533 17.3639L38.8414 15.3716H39.1183L41.0965 17.3639L43.0845 15.3716H43.3615L45.3396 17.3639L47.2683 15.4311V46.3356H60.1263Z" fill="#4169E1" stroke="#1C1C1C" stroke-width="0.5" stroke-linejoin="round"/>
<path d="M23.9071 29.4561H3.58825C2.64124 29.4561 1.87354 30.2238 1.87354 31.1709V33.8272C1.87354 34.7742 2.64124 35.5419 3.58825 35.5419H23.9071C24.8541 35.5419 25.6218 34.7742 25.6218 33.8272V31.1709C25.6218 30.2238 24.8541 29.4561 23.9071 29.4561Z" fill="#FFE2C8" stroke="#1C1C1C" stroke-width="0.5" stroke-linejoin="round"/>
<path d="M23.9071 23.2414H3.58825C2.64124 23.2414 1.87354 24.0091 1.87354 24.9561V27.6124C1.87354 28.5594 2.64124 29.3271 3.58825 29.3271H23.9071C24.8541 29.3271 25.6218 28.5594 25.6218 27.6124V24.9561C25.6218 24.0091 24.8541 23.2414 23.9071 23.2414Z" fill="#FFE2C8" stroke="#1C1C1C" stroke-width="0.5" stroke-linejoin="round"/>
<path d="M23.9071 35.6808H3.58825C2.64124 35.6808 1.87354 36.4485 1.87354 37.3955V40.0518C1.87354 40.9988 2.64124 41.7665 3.58825 41.7665H23.9071C24.8541 41.7665 25.6218 40.9988 25.6218 40.0518V37.3955C25.6218 36.4485 24.8541 35.6808 23.9071 35.6808Z" fill="#FFE2C8" stroke="#1C1C1C" stroke-width="0.5" stroke-linejoin="round"/>
<path d="M23.9071 41.8952H3.58825C2.64124 41.8952 1.87354 42.6629 1.87354 43.6099V46.2662C1.87354 47.2132 2.64124 47.9809 3.58825 47.9809H23.9071C24.8541 47.9809 25.6218 47.2132 25.6218 46.2662V43.6099C25.6218 42.6629 24.8541 41.8952 23.9071 41.8952Z" fill="#FFE2C8" stroke="#1C1C1C" stroke-width="0.5" stroke-linejoin="round"/>
<path d="M45.318 8.95428L43.3357 6.97195H43.0582L41.0758 8.95428L39.0935 6.97195H38.816L36.8337 8.95428L34.8513 6.97195H34.5738L32.5915 8.95428L30.6092 6.97195H30.3316L28.3493 8.95428L26.367 6.97195H26.0895L24.1071 8.95428L22.1248 6.97195H21.8473L19.8649 8.95428L18.0115 7.10081V45.1858C18.0115 46.1472 18.2295 47.0888 18.626 47.9313C19.0324 48.7837 19.6172 49.5469 20.3605 50.1615C21.5499 51.1328 23.0069 51.6284 24.454 51.6284C24.682 51.6284 24.9199 51.6284 25.1478 51.5887C26.3571 51.4599 27.5365 50.9742 28.5376 50.1615C30.0244 48.9324 30.8966 47.1087 30.8966 45.1858V42.9359H47.3102V7.03142L45.3775 8.96419L45.318 8.95428Z" fill="#F0F0F5" stroke="#1C1C1C" stroke-width="0.5" stroke-linejoin="round"/>
<path d="M60.1267 42.9357V45.1856C60.1267 46.147 59.9086 47.0886 59.5122 47.9311C59.1058 48.7835 58.5111 49.5467 57.7677 50.1612C56.7765 50.974 55.5871 51.4597 54.3778 51.5885H25.0784C26.2876 51.4597 27.4671 50.974 28.4682 50.1612C29.955 48.9322 30.8272 47.1085 30.8272 45.1856V42.9357H60.1267Z" fill="#CCD9FD" stroke="#1C1C1C" stroke-width="0.5" stroke-linejoin="round"/>
<path d="M23.8892 20.4662H41.3226" stroke="#1C1C1C" stroke-width="0.5" stroke-linecap="round" stroke-linejoin="round"/>
<path d="M23.8892 15.3716H41.3226" stroke="#1C1C1C" stroke-width="0.5" stroke-linecap="round" stroke-linejoin="round"/>
<path d="M23.8896 25.531H41.3231" stroke="#1C1C1C" stroke-width="0.5" stroke-linecap="round" stroke-linejoin="round"/>
<path d="M23.8896 30.6057H41.3231" stroke="#1C1C1C" stroke-width="0.5" stroke-linecap="round" stroke-linejoin="round"/>
<path d="M23.8896 35.6707H41.3231" stroke="#1C1C1C" stroke-width="0.5" stroke-linecap="round" stroke-linejoin="round"/>
</g>
<defs>
<clipPath id="clip0_18011_4309">
<rect width="62" height="62" rx="5" fill="white"/>
</clipPath>
</defs>
</svg>
