<svg width="62" height="62" viewBox="0 0 62 62" fill="none" xmlns="http://www.w3.org/2000/svg">
<g clip-path="url(#clip0_18011_7579)">
<g clip-path="url(#clip1_18011_7579)">
<path d="M25.7542 12H40.8603C42.3519 12 43.79 12.5556 44.8942 13.5584L51.1145 19.2078H55.0827V31.6221H48.6345H41.6954C40.1041 31.6221 38.578 30.9899 37.4528 29.8647L33.258 25.6699H25.8177L17.8815 16.2455L22.2701 13.1152C23.2871 12.3899 24.5051 12 25.7542 12Z" fill="white" stroke="#1C1C1C" stroke-width="0.5" stroke-linecap="round" stroke-linejoin="round"/>
<path d="M36.2279 34.517L26.181 40.9359L30.0008 46.8392L39.4659 40.6997C41.296 39.5126 41.7384 37.024 40.4295 35.2789C39.444 33.9649 37.6121 33.6327 36.2279 34.517Z" fill="white" stroke="#1C1C1C" stroke-width="0.5" stroke-linecap="round" stroke-linejoin="round"/>
<path d="M32.775 46.3739C32.775 46.3739 28.226 49.4992 25.8299 49.6173C23.4339 49.7353 11.9322 46.2558 10.7377 46.3739C9.54312 46.492 7.38321 46.3739 7.38321 46.3739V34.5047H9.89731C9.89731 34.5047 11.9322 32.949 14.2102 32.949H16.364C18.8779 32.949 21.2996 33.8959 23.1468 35.601L29.3025 41.2832L39.7198 34.917C40.9013 34.195 42.438 34.4895 43.2688 35.5972C44.1775 36.8089 43.9052 38.5318 42.6671 39.4041L32.775 46.3739Z" fill="white" stroke="#1C1C1C" stroke-width="0.5" stroke-linecap="round" stroke-linejoin="round"/>
<path d="M37.7843 28.1211C37.7843 34.8089 32.2849 40.2305 25.5009 40.2305C18.7169 40.2305 12.7306 34.3604 12.7306 27.6726C12.072 16.3906 18.7169 16.0117 25.5009 16.0117C32.2849 16.0117 38.1568 16.5975 37.7843 28.1211Z" fill="#FF9500" stroke="#1C1C1C" stroke-width="0.5" stroke-miterlimit="10"/>
<path d="M25.353 37.4666C32.2709 37.4666 37.879 31.7657 37.879 24.7333C37.879 17.7009 32.2709 12 25.353 12C18.4351 12 12.827 17.7009 12.827 24.7333C12.827 31.7657 18.4351 37.4666 25.353 37.4666Z" fill="#FFE2C8" stroke="#1C1C1C" stroke-width="0.5" stroke-miterlimit="10"/>
<path d="M25.2527 34.5973C30.702 34.5973 35.1196 30.1797 35.1196 24.7304C35.1196 19.281 30.702 14.8635 25.2527 14.8635C19.8034 14.8635 15.3859 19.281 15.3859 24.7304C15.3859 30.1797 19.8034 34.5973 25.2527 34.5973Z" fill="#FF9500" stroke="#1C1C1C" stroke-width="0.5" stroke-miterlimit="10"/>
<path d="M25.879 20.1498C25.785 19.9554 25.4988 19.9479 25.3949 20.1372C24.3677 22.0074 22.7672 23.5226 20.8297 24.4625C20.6362 24.5564 20.6288 24.8405 20.8172 24.9443C22.7033 25.9835 24.2231 27.5797 25.1519 29.5006C25.2459 29.695 25.532 29.7025 25.6359 29.5132C26.6631 27.643 28.2636 26.1279 30.2012 25.1879C30.3947 25.094 30.402 24.8099 30.2137 24.7061C28.3275 23.6669 26.8077 22.0707 25.879 20.1498Z" fill="#1C1C1C" stroke="#1C1C1C" stroke-width="0.5" stroke-miterlimit="10" stroke-linejoin="round"/>
<path d="M0.544328 33.1617C0.467932 39.1276 0.467932 42.114 0.544328 48.0798C3.3293 48.2187 4.72525 48.2187 7.51022 48.0798C7.58661 42.114 7.57967 39.1276 7.51022 33.1617C4.72525 33.0228 3.3293 33.0228 0.544328 33.1617Z" fill="#FF9500" stroke="#1C1C1C" stroke-width="0.5" stroke-linecap="round" stroke-linejoin="round"/>
<path d="M54.0927 18.0564C54.0163 24.0222 54.0163 27.0086 54.0927 32.9745C56.8776 33.1134 58.2736 33.1134 61.0586 32.9745C61.135 27.0086 61.128 24.0222 61.0586 18.0564C58.2736 17.9175 56.8776 17.9175 54.0927 18.0564Z" fill="#4169E1" stroke="#1C1C1C" stroke-width="0.5" stroke-linecap="round" stroke-linejoin="round"/>
<path d="M18.1683 45.4154L28.8359 41.6997C28.8359 41.6997 30.2735 40.4982 28.8359 39.0606C27.3983 37.623 24.6411 37.623 23.5646 38.1022C22.4881 38.5814 20.3282 38.9425 19.4879 39.0606C18.6475 39.1787 15.7723 37.0257 13.6123 37.0257C11.4524 37.0257 10.3759 37.5049 10.3759 37.5049" fill="white"/>
<path d="M18.1683 45.4154L28.8359 41.6997C28.8359 41.6997 30.2735 40.4982 28.8359 39.0606C27.3983 37.623 24.6411 37.623 23.5646 38.1022C22.4881 38.5814 20.3282 38.9425 19.4879 39.0606C18.6475 39.1787 15.7723 37.0257 13.6123 37.0257C11.4524 37.0257 10.3759 37.5049 10.3759 37.5049" stroke="#1C1C1C" stroke-width="0.5" stroke-linecap="round" stroke-linejoin="round"/>
<path d="M41.9683 15.8299L30.673 15.9707C30.673 15.9707 28.9285 16.6542 29.836 18.4736C30.7435 20.2929 33.3584 21.1673 34.5313 21.0542C35.7042 20.9412 37.8671 21.2837 38.7015 21.4382C39.5359 21.5927 41.58 24.5464 43.6284 25.2314C45.6768 25.9164 46.8497 25.8033 46.8497 25.8033" fill="white"/>
<path d="M41.9683 15.8299L30.673 15.9707C30.673 15.9707 28.9285 16.6542 29.836 18.4736C30.7435 20.2929 33.3584 21.1673 34.5313 21.0542C35.7042 20.9412 37.8671 21.2837 38.7015 21.4382C39.5359 21.5927 41.58 24.5464 43.6284 25.2314C45.6768 25.9164 46.8497 25.8033 46.8497 25.8033" stroke="#1C1C1C" stroke-width="0.5" stroke-linecap="round" stroke-linejoin="round"/>
<path d="M13.6149 44.8538C12.1152 44.8538 10.8994 43.4328 10.8994 41.6799C10.8994 39.927 12.1152 38.506 13.6149 38.506C15.1147 38.506 16.3304 39.927 16.3304 41.6799C16.3304 43.4328 15.1147 44.8538 13.6149 44.8538Z" fill="white" stroke="white" stroke-width="0.5" stroke-linecap="round" stroke-linejoin="round"/>
</g>
</g>
<defs>
<clipPath id="clip0_18011_7579">
<rect width="62" height="62" rx="5" fill="white"/>
</clipPath>
<clipPath id="clip1_18011_7579">
<rect width="62" height="62" fill="white"/>
</clipPath>
</defs>
</svg>
