<svg width="102" height="102" viewBox="0 0 102 102" fill="none" xmlns="http://www.w3.org/2000/svg">
<rect x="0.5" y="0.5" width="101" height="101" rx="4.5" stroke="#8A38F5" stroke-dasharray="10 5"/>
<path d="M55.3748 71.2351V76.8315C55.3748 78.5765 47.9611 79.9988 38.8208 79.9988C29.6804 79.9988 22.261 78.5765 22.261 76.8315V71.2351H55.3748Z" fill="#FF9500" stroke="#1C1C1C" stroke-width="0.5" stroke-miterlimit="10" stroke-linejoin="round"/>
<path d="M55.3748 65.1985V70.7949C55.3748 72.54 47.9611 73.9622 38.8208 73.9622C29.6804 73.9622 22.261 72.54 22.261 70.7949V65.1985H55.3748Z" fill="#FF9500" stroke="#1C1C1C" stroke-width="0.5" stroke-miterlimit="10" stroke-linejoin="round"/>
<path d="M55.3748 59.1619V64.7583C55.3748 66.5033 47.9611 67.9256 38.8208 67.9256C29.6804 67.9256 22.261 66.5033 22.261 64.7583V59.1619H55.3748Z" fill="#FF9500" stroke="#1C1C1C" stroke-width="0.5" stroke-miterlimit="10" stroke-linejoin="round"/>
<path d="M38.8226 62.0544C47.9652 62.0544 55.3767 60.6363 55.3767 58.8871C55.3767 57.1378 47.9652 55.7198 38.8226 55.7198C29.6801 55.7198 22.2686 57.1378 22.2686 58.8871C22.2686 60.6363 29.6801 62.0544 38.8226 62.0544Z" fill="#FF9500" stroke="#1C1C1C" stroke-width="0.5" stroke-miterlimit="10" stroke-linejoin="round"/>
<path d="M39.189 59.8124C46.1428 59.8124 51.78 59.2463 51.78 58.5481C51.78 57.8498 46.1428 57.2838 39.189 57.2838C32.2351 57.2838 26.5979 57.8498 26.5979 58.5481C26.5979 59.2463 32.2351 59.8124 39.189 59.8124Z" fill="#FFE2C8" stroke="#1C1C1C" stroke-width="0.5" stroke-miterlimit="10" stroke-linejoin="round"/>
<path d="M55.0331 43.1892C55.0331 51.7919 47.7453 58.7659 38.755 58.7659C29.7647 58.7659 21.8316 51.215 21.8316 42.6123C20.9587 28.0999 29.7647 27.6125 38.755 27.6125C47.7453 27.6125 55.5268 28.3661 55.0331 43.1892Z" fill="#FF9500" stroke="#1C1C1C" stroke-width="0.5" stroke-miterlimit="10" stroke-linejoin="round"/>
<path d="M38.552 54.7583C47.7198 54.7583 55.1517 47.4251 55.1517 38.3791C55.1517 29.3332 47.7198 21.9999 38.552 21.9999C29.3843 21.9999 21.9524 29.3332 21.9524 38.3791C21.9524 47.4251 29.3843 54.7583 38.552 54.7583Z" fill="#FF9500" stroke="#1C1C1C" stroke-width="0.5" stroke-miterlimit="10" stroke-linejoin="round"/>
<path d="M38.4161 51.0675C45.6376 51.0675 51.4918 45.3851 51.4918 38.3754C51.4918 31.3657 45.6376 25.6833 38.4161 25.6833C31.1945 25.6833 25.3403 31.3657 25.3403 38.3754C25.3403 45.3851 31.1945 51.0675 38.4161 51.0675Z" fill="#FFE2C8" stroke="#1C1C1C" stroke-width="0.5" stroke-miterlimit="10" stroke-linejoin="round"/>
<path d="M39.1725 32.3201C39.0802 32.128 38.8005 32.1209 38.698 32.3081C37.3163 34.8316 35.1048 36.8674 32.416 38.0965C32.2179 38.1871 32.2102 38.4748 32.4032 38.5752C35.0227 39.938 37.1224 42.0825 38.3674 44.6721C38.4598 44.8642 38.7394 44.8713 38.8419 44.6841C40.2236 42.1606 42.4352 40.1248 45.1239 38.8957C45.322 38.8051 45.3297 38.5174 45.1367 38.417C42.5173 37.0541 40.4175 34.9097 39.1725 32.3201Z" fill="#1C1C1C" stroke="#1C1C1C" stroke-width="0.5" stroke-miterlimit="10" stroke-linejoin="round"/>
<path d="M65.3846 47.6787C65.2793 43.6486 66.0059 40.4293 69.491 38.4852C70.6675 37.7137 71.7825 36.919 72.4417 35.7361C73.4005 34.0725 72.8126 31.6498 70.9978 30.8313C68.4446 29.5406 65.0099 31.2106 65.057 34.2499H58.6865C58.6663 20.4773 84.1317 23.0626 79.1163 36.8913C77.877 39.9887 75.0884 40.8105 72.8708 42.7972C71.5497 44.0988 71.2613 45.7637 71.3019 47.6787H65.3846Z" fill="#4169E1" stroke="#1C1C1C" stroke-width="0.5" stroke-miterlimit="10"/>
<path d="M71.3321 56.066C70.4609 56.1667 69.4852 56.2344 68.4212 56.2383C67.2852 56.2421 66.248 56.1718 65.3291 56.066C65.184 55.2101 65.0734 54.1819 65.0793 53.0176C65.0846 51.9282 65.1905 50.9606 65.3291 50.146C66.1479 50.0086 67.1204 49.9028 68.2158 49.8957C69.4087 49.888 70.4603 49.9996 71.3314 50.146C71.4714 50.9658 71.5786 51.9437 71.5825 53.046C71.5865 54.1993 71.4772 55.2185 71.3321 56.066Z" fill="#4169E1" stroke="#1C1C1C" stroke-width="0.5" stroke-miterlimit="10"/>
<path d="M65.3846 44.5508C65.2793 40.5207 66.0059 37.3014 69.491 35.3572C70.6675 34.5858 71.7825 33.7911 72.4417 32.6081C73.4005 30.9446 72.8126 28.5219 70.9978 27.7034C68.4446 26.4127 65.0099 28.0826 65.057 31.122H58.6865C58.6663 17.3494 84.1317 19.9347 79.1163 33.7634C77.877 36.8608 75.0884 37.6826 72.8708 39.6692C71.5497 40.9709 71.2613 42.6357 71.3019 44.5508H65.3846Z" fill="#E8EDFA" stroke="#1C1C1C" stroke-width="0.5" stroke-miterlimit="10"/>
<path d="M71.3321 52.938C70.4609 53.0387 69.4852 53.1064 68.4212 53.1103C67.2852 53.1141 66.248 53.0438 65.3291 52.938C65.184 52.0821 65.0734 51.0539 65.0793 49.8896C65.0846 48.8002 65.1905 47.8327 65.3291 47.018C66.1479 46.8806 67.1204 46.7748 68.2158 46.7677C69.4087 46.76 70.4603 46.8716 71.3314 47.018C71.4714 47.8378 71.5786 48.8157 71.5825 49.918C71.5865 51.0713 71.4772 52.0905 71.3321 52.938Z" fill="#E8EDFA" stroke="#1C1C1C" stroke-width="0.5" stroke-miterlimit="10"/>
</svg>
