<svg width="62" height="62" viewBox="0 0 62 62" fill="none" xmlns="http://www.w3.org/2000/svg">
<g clip-path="url(#clip0_18011_7262)">
<path d="M37.7259 25.8907C37.7259 33.698 31.3043 40.0287 23.3834 40.0287C17.5071 40.0287 12.1382 36.25 9.77552 31.1006C8.95011 29.3362 8.48819 27.4128 8.48062 25.4212V25.3682C8.3746 23.5205 8.43518 21.9226 8.63964 20.5444H10.192V24.4367L18.749 17.7956L13.0772 13.3884C15.8714 11.8511 19.6123 11.7527 23.3834 11.7527C31.3043 11.7527 38.1651 12.4418 37.7259 25.8907Z" fill="#637DEB" stroke="#1C1C1C" stroke-width="0.5" stroke-linejoin="round"/>
<path d="M10.192 24.4367V20.5444H8.63965C9.19245 16.7808 10.8281 14.6226 13.0696 13.3883H13.0772L18.749 17.7955L10.192 24.4367Z" fill="#50C0FF" stroke="#1C1C1C" stroke-width="0.5" stroke-linejoin="round"/>
<path d="M37.6729 21.385C37.6729 29.5936 31.1227 36.2499 23.0503 36.2499C18.2796 36.2499 14.0465 33.9327 11.381 30.3433C10.3738 28.9954 9.59385 27.4733 9.09406 25.8301C8.66242 24.4216 8.42767 22.9298 8.42767 21.385C8.42767 21.1048 8.43525 20.8246 8.45796 20.5444H10.1921V24.4367L18.7491 17.7956L11.5476 12.207C14.2207 8.74636 18.378 6.52002 23.0503 6.52002C31.1227 6.52002 37.6729 13.1763 37.6729 21.385Z" fill="#CCD9FD" stroke="#1C1C1C" stroke-width="0.5" stroke-linejoin="round"/>
<path d="M10.192 24.4367V20.5444H8.45789C8.5639 18.4771 9.09398 16.5309 9.94968 14.7741C10.0254 14.615 10.1087 14.456 10.192 14.297C10.5858 13.5625 11.0401 12.8658 11.5475 12.207L18.749 17.7955L10.192 24.4367Z" fill="#CCD9FD" stroke="#1C1C1C" stroke-width="0.5" stroke-linejoin="round"/>
<path d="M23.0881 32.8953C29.4491 32.8953 34.606 27.7383 34.606 21.3774C34.606 15.0164 29.4491 9.8595 23.0881 9.8595C16.7272 9.8595 11.5703 15.0164 11.5703 21.3774C11.5703 27.7383 16.7272 32.8953 23.0881 32.8953Z" fill="#637DEB" stroke="#1C1C1C" stroke-width="0.5" stroke-linejoin="round"/>
<path d="M23.5425 23.2025C23.2018 23.3993 22.7928 23.3993 22.4521 23.2025L19.4306 21.4759C18.9232 21.1882 18.7339 20.5521 18.999 20.0296L22.0583 14.0018C22.4672 13.1915 23.6334 13.2067 24.0272 14.0245L26.935 20.0901C27.1849 20.6051 26.988 21.226 26.4882 21.5138L23.5425 23.1949V23.2025Z" fill="white"/>
<path d="M23.3758 24.4141C23.0426 24.5958 22.6337 24.5958 22.3081 24.4065L19.8849 23.0207C19.3699 22.7254 18.8171 23.3463 19.173 23.8234L21.9749 27.64C22.4065 28.2307 23.2849 28.2382 23.7317 27.6551L26.6775 23.8007C27.0409 23.3312 26.4957 22.7027 25.9808 22.9904L23.3834 24.4141H23.3758Z" fill="white"/>
<path d="M53.5147 40.2633C53.5147 47.851 47.2749 53.9999 39.5812 53.9999C31.8874 53.9999 25.0948 47.3436 25.0948 39.7559C24.3451 26.9582 31.8874 26.5266 39.5812 26.5266C47.2749 26.5266 53.9387 27.193 53.5147 40.2633Z" fill="#FF9500" stroke="#1C1C1C" stroke-width="0.5" stroke-miterlimit="10"/>
<path d="M39.248 50.3273C47.1008 50.3273 53.4617 43.8603 53.4617 35.8788C53.4617 27.8973 47.1008 21.4304 39.248 21.4304C31.3953 21.4304 25.0343 27.8973 25.0343 35.8788C25.0343 43.8603 31.3953 50.3273 39.248 50.3273Z" fill="#FFE2C8" stroke="#1C1C1C" stroke-width="0.5" stroke-miterlimit="10"/>
<path d="M39.2859 47.071C45.4651 47.071 50.4782 42.058 50.4782 35.8788C50.4782 29.6996 45.4651 24.6865 39.2859 24.6865C33.1067 24.6865 28.0936 29.6996 28.0936 35.8788C28.0936 42.058 33.1067 47.071 39.2859 47.071Z" fill="#FF9500" stroke="#1C1C1C" stroke-width="0.5" stroke-miterlimit="10"/>
<path d="M44.5336 32.5544C44.6624 33.8493 44.1323 34.6369 43.3145 35.0761C44.6851 35.4244 45.5332 36.265 45.3666 38.1808C45.147 40.5435 43.4811 41.1947 41.0806 41.3386V43.1106C41.0806 43.5044 40.7625 43.83 40.3612 43.83C39.9598 43.83 39.6418 43.5119 39.6418 43.1106V41.3765C39.2783 41.3765 38.8921 41.3765 38.5059 41.3613V43.1182C38.5059 43.5119 38.1878 43.8375 37.7865 43.8375C37.3851 43.8375 37.0671 43.5195 37.0671 43.1182V41.3462C36.7339 41.3462 36.4007 41.331 36.0524 41.331H35.2345C34.6893 41.331 34.2652 40.8388 34.3561 40.2936C34.4318 39.8619 34.8105 39.5515 35.2497 39.5515C35.5299 39.5515 35.5223 39.5439 35.5223 39.5439C35.9236 39.5439 36.0221 39.2486 36.0524 39.0365V35.1139V32.2894C35.9994 31.994 35.8025 31.623 35.2194 31.623C35.2194 31.623 35.2194 31.623 34.9922 31.6154C34.553 31.6154 34.1895 31.2595 34.1895 30.8203C34.1895 30.3811 34.5454 30.0327 34.9771 30.0327H37.0747V28.2759C37.0747 27.8821 37.3927 27.5565 37.7941 27.5565C38.1954 27.5565 38.5135 27.8746 38.5135 28.2759V29.9797C38.8997 29.9797 39.2631 29.9646 39.6493 29.9646V28.2835C39.6493 27.8897 39.9674 27.5641 40.3687 27.5641C40.7701 27.5641 41.0881 27.8821 41.0881 28.2835V30.0403C42.9207 30.1993 44.3898 30.7976 44.5412 32.5847L44.5336 32.5544ZM42.5269 37.8855C42.5269 35.9545 39.4903 36.2347 38.521 36.2347V39.5288C39.4903 39.5288 42.5269 39.7559 42.5269 37.8779V37.8855ZM41.8757 33.2435C41.8757 31.4715 39.3389 31.7366 38.521 31.7366V34.7353C39.3389 34.7353 41.8757 34.9246 41.8757 33.2435Z" fill="white"/>
<path d="M10.1921 27.3219V23.4296H8.4201C7.44324 23.4296 6.66326 24.202 6.63297 25.1637C6.63297 25.1713 6.63297 25.3076 6.6254 25.868C6.60268 27.5491 8.17021 28.1019 8.17021 28.1019L8.48068 28.3063C8.48825 30.2979 10.4495 32.3652 11.275 34.1296L11.328 34.2962C11.328 34.2962 0.87782 32.7439 0.855103 25.4136V22.377C0.855103 18.2121 4.24761 17.6593 8.4201 17.6593H10.1921V14.0472L11.5476 15.0922L13.9556 15.7056L18.7567 17.841V20.6883L10.1921 27.3295V27.3219Z" fill="#4169E1" stroke="#1C1C1C" stroke-width="0.5" stroke-linejoin="round"/>
<path d="M43.2236 43.1485L51.8487 43.2243H53.6207C54.5976 43.2243 55.3775 42.4519 55.4078 41.4901C55.4078 41.4826 55.4078 41.3463 55.4154 40.7859C55.4381 39.1048 53.8706 38.552 53.8706 38.552L53.5601 38.3475C53.7646 36.2575 53.8782 33.9706 53.0528 32.2062L53.3178 31.4489C53.3178 31.4489 61.1857 32.2137 61.1857 38.7867V41.4371C61.1857 45.602 57.7932 48.9946 53.6207 48.9946H51.8487V52.6067L50.4932 51.5617L48.9711 50.3803H48.9636L43.2917 45.9731L43.2236 43.1485Z" fill="#4169E1" stroke="#1C1C1C" stroke-width="0.5" stroke-linejoin="round"/>
<path d="M10.1921 24.4367V20.5444H8.4201C7.44324 20.5444 6.66326 21.3168 6.63297 22.2785C6.63297 22.2861 6.63297 22.4224 6.6254 22.9828C6.60268 24.6639 8.1702 25.2167 8.1702 25.2167L8.48068 25.4211C8.48825 27.4127 8.95018 29.3362 9.77559 31.1006L9.42725 31.2672C9.42725 31.2672 0.855103 29.1014 0.855103 22.5284V22.3315C0.855103 18.1666 4.24761 14.7741 8.4201 14.7741H10.1921V11.162L11.5476 12.207L13.0697 13.3883H13.0772L18.7491 17.7956L10.1921 24.4367Z" fill="#CCD9FD" stroke="#1C1C1C" stroke-width="0.5" stroke-linejoin="round"/>
<path d="M51.8563 36.4469V40.3392H53.6282C54.6051 40.3392 55.3851 39.5668 55.4154 38.6051C55.4154 38.5975 55.4154 38.4612 55.4229 37.9008C55.4457 36.2197 53.8781 35.6669 53.8781 35.6669L53.5677 35.4624C53.5601 33.4709 53.0982 31.5474 52.2727 29.783L52.3939 29.6694C52.3939 29.6694 61.1932 31.7822 61.1932 38.3552V38.5521C61.1932 42.717 57.8007 46.1095 53.6282 46.1095H51.8563V49.7216L50.5008 48.6766L48.9787 47.4953H48.9711L43.2993 43.088L51.8563 36.4469Z" fill="#CCD9FD" stroke="#1C1C1C" stroke-width="0.5" stroke-linejoin="round"/>
</g>
<defs>
<clipPath id="clip0_18011_7262">
<rect width="62" height="62" rx="5" fill="white"/>
</clipPath>
</defs>
</svg>
