<svg width="62" height="62" viewBox="0 0 62 62" fill="none" xmlns="http://www.w3.org/2000/svg">
<g clip-path="url(#clip0_18011_3669)">
<path d="M48.688 25.2506C48.1727 28.3183 53.5477 26.81 51.2273 29.2016C43.8138 36.8419 32.6288 41.4038 22.1927 42.5493C17.6415 43.0496 9.87016 43.0134 5.78224 39.5286C5.68478 40.3951 5.70214 41.279 5.85567 42.1817C7.53516 51.7535 22.74 50.3585 29.3298 48.9729C39.1291 46.914 42.6295 45.9817 48.688 37.605C52.1431 32.8272 52.2646 36.1431 48.688 32.9721V25.2506Z" fill="#FF9500" stroke="#1C1C1C" stroke-width="0.5" stroke-miterlimit="10" stroke-linejoin="round"/>
<path d="M30.9167 55.7289C44.5101 55.7289 55.5297 44.6574 55.5297 31C55.5297 17.3426 44.5101 6.27115 30.9167 6.27115C17.3234 6.27115 6.30377 17.3426 6.30377 31C6.30377 44.6574 17.3234 55.7289 30.9167 55.7289Z" fill="#CCD9FD" stroke="#1C1C1C" stroke-width="0.5" stroke-miterlimit="10" stroke-linejoin="round"/>
<path d="M30.9174 55.7289C37.3675 55.7289 42.5964 44.6574 42.5964 31C42.5964 17.3426 37.3675 6.27115 30.9174 6.27115C24.4672 6.27115 19.2383 17.3426 19.2383 31C19.2383 44.6574 24.4672 55.7289 30.9174 55.7289Z" fill="#CCD9FD" stroke="#1C1C1C" stroke-width="0.5" stroke-miterlimit="10" stroke-linejoin="round"/>
<path d="M9.14905 42.5514H52.7945" stroke="#1C1C1C" stroke-width="0.5" stroke-miterlimit="10" stroke-linejoin="round"/>
<path d="M9.04553 19.4479H52.8312" stroke="#1C1C1C" stroke-width="0.5" stroke-miterlimit="10" stroke-linejoin="round"/>
<path d="M6.30627 30.9987H55.5282" stroke="#1C1C1C" stroke-width="0.5" stroke-miterlimit="10" stroke-linejoin="round"/>
<path d="M5.85714 42.1798C5.70361 41.2784 5.68625 40.3931 5.78371 39.5266C5.79172 39.5333 5.89852 38.6064 6.05873 38.0793C7.3604 33.1324 12.2654 28.8965 16.8126 25.9335C17.2077 26.7463 17.6777 27.6169 18.2397 28.5223C18.4844 28.9162 18.7315 29.2921 18.9787 29.6504C19.7588 30.7809 21.4135 30.6457 22.0898 29.4503C23.1506 27.5756 24.2134 25.589 25.2607 23.4909C26.4157 21.1772 27.4518 18.9298 28.3824 16.7667C28.8716 15.6297 28.1967 14.3365 26.9844 14.0861C24.6398 13.6019 22.1734 13.1555 19.5908 12.7656C16.4201 12.2868 13.3922 11.9407 10.5298 11.6979C10.8622 12.8447 11.2641 14.0694 11.7554 15.3517C12.2854 16.736 12.8475 18.0022 13.4108 19.1504C7.62608 22.9919 2.39669 28.3345 3.16167 34.6482C3.23376 35.2222 3.35926 35.7561 3.53015 36.2551C3.53015 36.2551 3.02283 39.6503 3.16167 40.5543C4.21068 47.3847 8.53718 52.0176 17.8028 52.0176C17.3102 51.6407 15.0409 49.9018 14.5777 49.4887C10.2495 48.6544 6.6288 46.5726 5.85847 42.1798H5.85714Z" fill="#FF9500" stroke="#1C1C1C" stroke-width="0.5" stroke-miterlimit="10" stroke-linejoin="round"/>
<path d="M17.3871 10.9277C15.2664 10.6074 13.2096 10.3466 11.2235 10.1363C9.82809 9.98852 8.74852 11.308 9.22304 12.6285C9.32791 12.9203 9.43735 13.2155 9.55164 13.5138C9.96256 14.587 10.3927 15.5893 10.8279 16.5206C11.0405 16.9757 10.8933 17.5191 10.4802 17.8049C4.99162 21.6027 0.223792 26.7608 0.956593 32.8076C1.02869 33.3817 1.15418 33.9155 1.32507 34.4145L3.38933 41.7223C2.8077 39.6632 3.71318 36.8298 3.90409 36.0598C5.81945 30.7925 9.49958 27.5359 13.664 24.722C14.1626 24.3851 14.8401 24.5746 15.1242 25.1051C15.3978 25.6158 15.7005 26.1439 16.036 26.6844C16.2807 27.0783 16.5278 27.4542 16.775 27.8126C17.555 28.943 19.2097 28.8078 19.8861 27.6124C20.9469 25.7377 22.0097 23.7511 23.057 21.653C24.2119 19.3393 25.2481 17.0919 26.1787 14.9288C26.6679 13.7918 25.9929 12.4986 24.7807 12.2482C22.436 11.764 19.9696 11.3176 17.3871 10.9277Z" fill="#FFE2C8" stroke="#1C1C1C" stroke-width="0.5" stroke-miterlimit="10" stroke-linejoin="round"/>
<path d="M55.9187 35.3854C56.0428 35.2367 56.1668 35.0879 56.2867 34.9365C56.3253 34.8874 56.3653 34.8383 56.4038 34.7878C56.5858 34.5558 56.7663 34.3211 56.9413 34.0823C57.6097 33.1709 58.1499 32.2485 58.562 31.3316C58.6309 31.1787 58.6957 31.0259 58.7577 30.8731C58.8803 30.5675 58.9892 30.2632 59.0843 29.9603C59.3682 29.0502 59.5239 28.1524 59.5515 27.2805C59.5556 27.1358 59.557 26.9912 59.5542 26.8466C59.5515 26.7033 59.5459 26.56 59.5363 26.4181C59.517 26.1343 59.4839 25.8532 59.4371 25.5762C59.3186 24.8844 59.1118 24.2172 58.8169 23.5841C58.7577 23.4572 58.6957 23.3317 58.6295 23.2089C58.4972 22.9605 58.3511 22.719 58.1913 22.483C57.7902 21.8935 57.301 21.3423 56.7249 20.8374C56.5003 22.1596 56.0097 23.4954 55.3386 24.7821C55.9229 26.8984 56.2357 29.1252 56.2357 31.4243C56.2357 32.7711 56.1268 34.0933 55.9215 35.384L55.9187 35.3854Z" fill="#FF9500" stroke="#1C1C1C" stroke-width="0.5" stroke-miterlimit="10" stroke-linejoin="round"/>
<path d="M58.5576 19.6467C58.3784 19.4993 57.4868 18.2768 57.4551 18.4282C57.411 18.6383 57.1918 18.4623 56.9493 18.2454L56.5166 16.9682C55.9364 15.1412 54.5858 13.4957 52.1879 12.2444C47.8981 10.0069 42.7684 9.59433 37.6417 10.1703C36.4213 10.3074 35.6772 11.5482 36.0651 12.7134L37.2339 16.2242C37.5438 17.1549 38.4824 17.718 39.4562 17.5997C43.7383 17.0793 48.0236 17.2354 52.0074 18.3873C53.9092 18.9372 55.4472 19.7558 56.6323 20.7655C56.6626 20.7928 56.6916 20.8188 56.7205 20.8447V20.8392C57.2966 21.3427 57.7858 21.894 58.1868 22.4848C58.3467 22.7208 58.4928 22.9623 58.6251 23.2107C58.6912 23.3348 58.7533 23.4604 58.8125 23.5859C59.1074 24.219 59.3141 24.8862 59.4327 25.578C59.4795 25.855 59.514 26.1361 59.5319 26.4199C59.5415 26.5618 59.547 26.7051 59.5498 26.8484C59.5526 26.9916 59.5498 27.1363 59.547 27.2823C59.5195 28.1541 59.3638 29.052 59.0799 29.9621C58.9848 30.265 58.8759 30.5693 58.7533 30.8749C58.6912 31.0277 58.6265 31.1805 58.5576 31.3334C58.1455 32.2503 57.6053 33.1727 56.9369 34.0841C56.7619 34.3215 56.5827 34.5562 56.3994 34.7896C56.3608 34.8387 56.3223 34.8892 56.2823 34.9383C56.161 35.0911 56.0384 35.2412 55.913 35.3913C55.8179 35.9848 55.7035 36.5729 55.5671 37.1515C56.6103 36.1281 57.5791 35.0242 58.4873 33.7867C62.1324 29.3276 61.8347 21.9867 58.5534 19.6453L58.5576 19.6467Z" fill="#FF9500" stroke="#1C1C1C" stroke-width="0.5" stroke-miterlimit="10" stroke-linejoin="round"/>
<path d="M58.4367 15.7724C57.8565 13.9454 56.506 12.2999 54.108 11.0487C49.8127 8.80829 44.3019 7.97394 39.0717 8.4431C37.8486 8.55282 37.1039 9.79296 37.4917 10.9581L38.5381 14.1018C38.8479 15.0326 39.7865 15.5947 40.7617 15.4884C45.0766 15.0181 49.496 15.3991 53.4521 16.6443C56.229 17.519 57.3562 18.7497 58.5401 19.7608C59.9843 21.0093 60.6706 22.869 60.6706 22.869L58.4339 15.7724H58.4367Z" fill="#FFE2C8" stroke="#1C1C1C" stroke-width="0.5" stroke-miterlimit="10" stroke-linejoin="round"/>
</g>
<defs>
<clipPath id="clip0_18011_3669">
<rect width="62" height="62" rx="5" fill="white"/>
</clipPath>
</defs>
</svg>
