<svg width="62" height="62" viewBox="0 0 62 62" fill="none" xmlns="http://www.w3.org/2000/svg">
<g clip-path="url(#clip0_18011_4218)">
<path d="M57.1931 47.5925C53.5426 44.0255 51.5567 42.0396 47.874 38.267V35.8376L51.9037 34.2373L61.2292 41.4098V43.5564C59.7253 45.2788 58.922 46.0822 57.1995 47.5861L57.1931 47.5925Z" fill="#FF9500" stroke="#1C1C1C" stroke-width="0.5" stroke-linecap="round" stroke-linejoin="round"/>
<path d="M28.276 41.6411V47.4125C23.0187 47.4125 20.3837 47.4125 15.1264 47.3932C14.9914 45.0923 14.9529 43.9419 14.9529 41.6346C20.2873 41.6346 22.948 41.6346 28.276 41.6346V41.6411Z" fill="#FF9500" stroke="#1C1C1C" stroke-width="0.5" stroke-linecap="round" stroke-linejoin="round"/>
<path d="M14.9093 47.3933C9.64559 47.374 6.50923 47.3676 1.25198 47.329C0.98205 45.0539 0.795668 44.0577 1.41908 41.6412C6.74703 41.6412 9.41422 41.6412 14.7422 41.6412C14.7422 43.942 14.7743 45.0925 14.9157 47.3933H14.9093Z" fill="#FF9500" stroke="#1C1C1C" stroke-width="0.5" stroke-linecap="round" stroke-linejoin="round"/>
<path d="M41.8253 41.6411C41.8253 43.942 41.7931 45.0924 41.6517 47.3933C36.3945 47.4126 33.7594 47.419 28.5022 47.419V41.6476C33.8301 41.6476 36.4973 41.6476 41.8253 41.6476V41.6411Z" fill="#FF9500"/>
<path d="M41.8253 41.6411C41.8253 43.942 41.7931 45.0924 41.6517 47.3933C36.3945 47.4126 33.7594 47.419 28.5022 47.419V41.6476C33.8301 41.6476 36.4973 41.6476 41.8253 41.6476V41.6411Z" fill="#FF9500" stroke="#1C1C1C" stroke-width="0.5" stroke-linejoin="round"/>
<path d="M41.8253 41.6411C41.8253 43.942 41.7931 45.0924 41.6517 47.3933C36.3945 47.4126 33.7594 47.419 28.5022 47.419V41.6476C33.8301 41.6476 36.4973 41.6476 41.8253 41.6476V41.6411Z" stroke="#1C1C1C" stroke-width="0.5" stroke-linecap="round" stroke-linejoin="round"/>
<path d="M55.0004 47.3288C49.7367 47.3609 46.9153 47.3738 41.6516 47.3866C41.793 45.0858 41.8251 43.9354 41.8251 41.6345C47.1531 41.6345 49.8203 41.6345 55.1482 41.6345C55.3732 43.9289 55.2703 45.0472 55.0004 47.3224V47.3288Z" fill="#FF9500"/>
<path d="M55.0004 47.3288C49.7367 47.3609 46.9153 47.3738 41.6516 47.3866C41.793 45.0858 41.8251 43.9354 41.8251 41.6345C47.1531 41.6345 49.8203 41.6345 55.1482 41.6345C55.3732 43.9289 55.2703 45.0472 55.0004 47.3224V47.3288Z" fill="#FF9500" stroke="#1C1C1C" stroke-width="0.5" stroke-linejoin="round"/>
<path d="M55.0004 47.3288C49.7367 47.3609 46.9153 47.3738 41.6516 47.3866C41.793 45.0858 41.8251 43.9354 41.8251 41.6345C47.1531 41.6345 49.8203 41.6345 55.1482 41.6345C55.3732 43.9289 55.2703 45.0472 55.0004 47.3224V47.3288Z" stroke="#1C1C1C" stroke-width="0.5" stroke-linecap="round" stroke-linejoin="round"/>
<path d="M51.0606 51.9567C45.7905 52.0145 43.1555 52.0145 37.8853 51.9567C37.7697 49.6751 37.7697 48.5375 37.8853 46.256C43.1555 46.1981 45.7905 46.1981 51.0606 46.256C51.1827 48.5375 51.1827 49.6751 51.0606 51.9567Z" fill="#FF9500"/>
<path d="M51.0606 51.9567C45.7905 52.0145 43.1555 52.0145 37.8853 51.9567C37.7697 49.6751 37.7697 48.5375 37.8853 46.256C43.1555 46.1981 45.7905 46.1981 51.0606 46.256C51.1827 48.5375 51.1827 49.6751 51.0606 51.9567Z" fill="#FF9500" stroke="#1C1C1C" stroke-width="0.5" stroke-linejoin="round"/>
<path d="M51.0606 51.9567C45.7905 52.0145 43.1555 52.0145 37.8853 51.9567C37.7697 49.6751 37.7697 48.5375 37.8853 46.256C43.1555 46.1981 45.7905 46.1981 51.0606 46.256C51.1827 48.5375 51.1827 49.6751 51.0606 51.9567Z" stroke="#1C1C1C" stroke-width="0.5" stroke-linecap="round" stroke-linejoin="round"/>
<path d="M42.5183 25.7793C42.5183 31.3322 37.9487 35.8375 32.3187 35.8375C26.6887 35.8375 21.7142 30.9594 21.7142 25.4066C21.1679 16.0361 26.6887 15.7211 32.3187 15.7211C37.9487 15.7211 42.8332 16.2096 42.5183 25.7793Z" fill="#FF9500" stroke="#1C1C1C" stroke-width="0.5" stroke-linecap="round" stroke-linejoin="round"/>
<path d="M32.0759 33.1511C37.8216 33.1511 42.4811 28.4144 42.4811 22.5788C42.4811 16.7431 37.8216 12 32.0759 12C26.3302 12 21.6707 16.7367 21.6707 22.5723C21.6707 28.408 26.3302 33.1447 32.0759 33.1447V33.1511Z" fill="#FFE2C8" stroke="#1C1C1C" stroke-width="0.5" stroke-linecap="round" stroke-linejoin="round"/>
<path d="M32.1001 30.7666C36.6247 30.7666 40.2945 27.0968 40.2945 22.5722C40.2945 18.0476 36.6247 14.3778 32.1001 14.3778C27.5756 14.3778 23.9058 18.0476 23.9058 22.5722C23.9058 27.0968 27.5756 30.7666 32.1001 30.7666Z" fill="#FF9500" stroke="#1C1C1C" stroke-width="0.5" stroke-linecap="round" stroke-linejoin="round"/>
<path d="M35.7126 20.1366C35.809 21.0877 35.417 21.6662 34.8193 21.9811C35.8219 22.2382 36.4453 22.8552 36.3232 24.2498C36.1625 25.9851 34.9414 26.4543 33.1868 26.5571V27.8553C33.1868 28.1445 32.949 28.3823 32.6598 28.3823C32.3706 28.3823 32.1328 28.1445 32.1328 27.8553V26.5828C31.8629 26.5828 31.5801 26.5828 31.3037 26.5699V27.8553C31.3037 28.1445 31.0659 28.3823 30.7767 28.3823C30.4875 28.3823 30.2497 28.1445 30.2497 27.8553V26.5571C30.0055 26.5571 29.7613 26.5442 29.5042 26.5442H28.9065C28.5016 26.5442 28.1995 26.1843 28.2638 25.7859C28.3152 25.4709 28.598 25.2396 28.9129 25.2396C29.1186 25.2396 29.1122 25.2396 29.1122 25.2396C29.4078 25.2396 29.4785 25.021 29.5042 24.8668V21.9939V19.9309C29.4656 19.7124 29.3178 19.4424 28.8936 19.4424C28.8936 19.4424 28.8936 19.4424 28.7265 19.4424C28.4052 19.4424 28.1353 19.1854 28.1353 18.8576C28.1353 18.5298 28.3923 18.2792 28.7137 18.2792H30.2497V16.9938C30.2497 16.7046 30.4875 16.4668 30.7767 16.4668C31.0659 16.4668 31.3037 16.7046 31.3037 16.9938V18.2406C31.5865 18.2406 31.85 18.2278 32.1328 18.2278V16.9938C32.1328 16.7046 32.3706 16.4668 32.6598 16.4668C32.949 16.4668 33.1868 16.7046 33.1868 16.9938V18.2792C34.5301 18.3949 35.6034 18.8319 35.7126 20.1366ZM34.2409 24.0377C34.2409 22.6238 32.0171 22.8295 31.3102 22.8295V25.2396C32.0171 25.2396 34.2409 25.4067 34.2409 24.0313V24.0377ZM33.7653 20.6379C33.7653 19.3396 31.9079 19.5324 31.3102 19.5324V21.724C31.9079 21.724 33.7653 21.8654 33.7653 20.6314V20.6379Z" fill="white"/>
<path d="M20.5074 39.4946C15.1795 39.4946 12.5123 39.4946 7.18433 39.4946C7.18433 37.2066 7.23574 36.0626 7.45426 33.7746C12.7179 33.7489 15.3466 33.7425 20.6102 33.7296C20.5331 36.0369 20.5138 37.1873 20.5138 39.4946H20.5074Z" fill="#4169E1" stroke="#1C1C1C" stroke-width="0.5" stroke-linecap="round" stroke-linejoin="round"/>
<path d="M34.0548 39.4945H20.7317C20.7317 37.1872 20.751 36.0368 20.8281 33.7295C26.0918 33.7231 28.7204 33.7167 33.9841 33.7295C34.0419 36.0368 34.0548 37.1937 34.0548 39.5009V39.4945Z" fill="#CCD9FD" stroke="#1C1C1C" stroke-width="0.5" stroke-linecap="round" stroke-linejoin="round"/>
<path d="M47.5967 39.4945C42.2688 39.4945 39.6016 39.4945 34.2737 39.4945C34.2737 37.1872 34.2608 36.0304 34.1965 33.7231C39.4602 33.7295 42.0888 33.736 47.3525 33.7617C47.5517 36.0561 47.5967 37.2001 47.5967 39.4945Z" fill="#4169E1" stroke="#1C1C1C" stroke-width="0.5" stroke-linecap="round" stroke-linejoin="round"/>
<path d="M14.9095 45.2467C9.64583 45.2274 6.50948 45.221 1.25223 45.1824C0.982294 42.9073 0.795912 41.9111 1.41933 39.4945C6.74727 39.4945 9.41446 39.4945 14.7424 39.4945C14.7424 41.7954 14.7745 42.9458 14.9159 45.2467H14.9095Z" fill="#4169E1" stroke="#1C1C1C" stroke-width="0.5" stroke-linecap="round" stroke-linejoin="round"/>
<path d="M28.2757 45.2659C23.012 45.2659 20.3834 45.2659 15.1197 45.2466C14.9848 42.9458 14.9526 41.7953 14.9526 39.4945C20.2806 39.4945 22.9478 39.4945 28.2757 39.4945C28.2757 41.8018 28.2757 42.9586 28.2757 45.2659Z" fill="#4169E1"/>
<path d="M28.2757 45.2659C23.012 45.2659 20.3834 45.2659 15.1197 45.2466C14.9848 42.9458 14.9526 41.7953 14.9526 39.4945C20.2806 39.4945 22.9478 39.4945 28.2757 39.4945C28.2757 41.8018 28.2757 42.9586 28.2757 45.2659Z" fill="#CCD9FD" stroke="#1C1C1C" stroke-width="0.5" stroke-linejoin="round"/>
<path d="M28.2757 45.2659C23.012 45.2659 20.3834 45.2659 15.1197 45.2466C14.9848 42.9458 14.9526 41.7953 14.9526 39.4945C20.2806 39.4945 22.9478 39.4945 28.2757 39.4945C28.2757 41.8018 28.2757 42.9586 28.2757 45.2659Z" stroke="#1C1C1C" stroke-width="0.5" stroke-linecap="round" stroke-linejoin="round"/>
<path d="M41.6521 45.2467C36.3884 45.266 33.7598 45.266 28.4961 45.266C28.4961 42.9587 28.4961 41.8019 28.4961 39.4946C33.824 39.4946 36.4912 39.4946 41.8192 39.4946C41.8192 41.7954 41.787 42.9459 41.6456 45.2467H41.6521Z" fill="#4169E1"/>
<path d="M41.6521 45.2467C36.3884 45.266 33.7598 45.266 28.4961 45.266C28.4961 42.9587 28.4961 41.8019 28.4961 39.4946C33.824 39.4946 36.4912 39.4946 41.8192 39.4946C41.8192 41.7954 41.787 42.9459 41.6456 45.2467H41.6521Z" fill="#CCD9FD" stroke="#1C1C1C" stroke-width="0.5" stroke-linejoin="round"/>
<path d="M41.6521 45.2467C36.3884 45.266 33.7598 45.266 28.4961 45.266C28.4961 42.9587 28.4961 41.8019 28.4961 39.4946C33.824 39.4946 36.4912 39.4946 41.8192 39.4946C41.8192 41.7954 41.787 42.9459 41.6456 45.2467H41.6521Z" stroke="#1C1C1C" stroke-width="0.5" stroke-linecap="round" stroke-linejoin="round"/>
<path d="M55.0006 45.1823C49.7369 45.2144 46.9155 45.2273 41.6582 45.2401C41.7932 42.9393 41.8317 41.7889 41.8317 39.488C47.1597 39.488 49.8269 39.488 55.1548 39.488C55.3798 41.7824 55.2769 42.9007 55.007 45.1759L55.0006 45.1823Z" fill="#4169E1"/>
<path d="M55.0006 45.1823C49.7369 45.2144 46.9155 45.2273 41.6582 45.2401C41.7932 42.9393 41.8317 41.7889 41.8317 39.488C47.1597 39.488 49.8269 39.488 55.1548 39.488C55.3798 41.7824 55.2769 42.9007 55.007 45.1759L55.0006 45.1823Z" fill="#CCD9FD" stroke="#1C1C1C" stroke-width="0.5" stroke-linejoin="round"/>
<path d="M55.0006 45.1823C49.7369 45.2144 46.9155 45.2273 41.6582 45.2401C41.7932 42.9393 41.8317 41.7889 41.8317 39.488C47.1597 39.488 49.8269 39.488 55.1548 39.488C55.3798 41.7824 55.2769 42.9007 55.007 45.1759L55.0006 45.1823Z" stroke="#1C1C1C" stroke-width="0.5" stroke-linecap="round" stroke-linejoin="round"/>
<path d="M51.0606 49.8099C45.7905 49.8677 43.1555 49.8677 37.8853 49.8099C37.7697 47.5283 37.7697 46.3907 37.8853 44.1091C43.1555 44.0513 45.7905 44.0513 51.0606 44.1091C51.1827 46.3907 51.1827 47.5283 51.0606 49.8099Z" fill="#4169E1"/>
<path d="M51.0606 49.8099C45.7905 49.8677 43.1555 49.8677 37.8853 49.8099C37.7697 47.5283 37.7697 46.3907 37.8853 44.1091C43.1555 44.0513 45.7905 44.0513 51.0606 44.1091C51.1827 46.3907 51.1827 47.5283 51.0606 49.8099Z" fill="#4169E1" stroke="#1C1C1C" stroke-width="0.5" stroke-linejoin="round"/>
<path d="M51.0606 49.8099C45.7905 49.8677 43.1555 49.8677 37.8853 49.8099C37.7697 47.5283 37.7697 46.3907 37.8853 44.1091C43.1555 44.0513 45.7905 44.0513 51.0606 44.1091C51.1827 46.3907 51.1827 47.5283 51.0606 49.8099Z" stroke="#1C1C1C" stroke-width="0.5" stroke-linecap="round" stroke-linejoin="round"/>
<path d="M57.1931 45.4394C53.5426 41.8724 51.5567 39.8865 47.874 36.1138C49.4036 34.4171 50.207 33.6138 51.9037 32.0841C55.6699 35.7668 57.6623 37.7591 61.2292 41.4097C59.7253 43.1321 58.922 43.9354 57.1995 45.4394H57.1931Z" fill="#CCD9FD" stroke="#1C1C1C" stroke-width="0.5" stroke-linecap="round" stroke-linejoin="round"/>
<path d="M25.065 33.5109C19.7949 33.5688 17.1598 33.5688 11.8897 33.5109C11.7741 31.2294 11.7741 30.0918 11.8897 27.8102C17.1598 27.7524 19.7949 27.7524 25.065 27.8102C25.1807 30.0918 25.1807 31.2294 25.065 33.5109Z" fill="#4169E1"/>
<path d="M25.065 33.5109C19.7949 33.5688 17.1598 33.5688 11.8897 33.5109C11.7741 31.2294 11.7741 30.0918 11.8897 27.8102C17.1598 27.7524 19.7949 27.7524 25.065 27.8102C25.1807 30.0918 25.1807 31.2294 25.065 33.5109Z" fill="#CCD9FD" stroke="#1C1C1C" stroke-width="0.5" stroke-linejoin="round"/>
<path d="M25.065 33.5109C19.7949 33.5688 17.1598 33.5688 11.8897 33.5109C11.7741 31.2294 11.7741 30.0918 11.8897 27.8102C17.1598 27.7524 19.7949 27.7524 25.065 27.8102C25.1807 30.0918 25.1807 31.2294 25.065 33.5109Z" stroke="#1C1C1C" stroke-width="0.5" stroke-linecap="round" stroke-linejoin="round"/>
</g>
<defs>
<clipPath id="clip0_18011_4218">
<rect width="62" height="62" rx="5" fill="white"/>
</clipPath>
</defs>
</svg>
