<svg width="62" height="62" viewBox="0 0 62 62" fill="none" xmlns="http://www.w3.org/2000/svg">
<g clip-path="url(#clip0_18011_4791)">
<path d="M51.6389 34.34C51.6389 45.4739 42.5885 54.5 31.4239 54.5C20.2594 54.5 10.4077 44.7273 10.4077 33.5933C9.32365 14.8107 20.2594 14.1799 31.4239 14.1799C42.5885 14.1799 52.252 15.1552 51.6389 34.34Z" fill="#FF9500" stroke="#1C1C1C" stroke-width="0.5" stroke-miterlimit="10"/>
<path d="M30.9477 50.3974C42.3326 50.3974 51.5619 40.9064 51.5619 29.1987C51.5619 17.491 42.3326 8 30.9477 8C19.5627 8 10.3334 17.491 10.3334 29.1987C10.3334 40.9064 19.5627 50.3974 30.9477 50.3974Z" fill="#FFE2C8" stroke="#1C1C1C" stroke-width="0.5" stroke-miterlimit="10"/>
<path d="M31.0003 45.6186C39.9684 45.6186 47.2384 38.2641 47.2384 29.1919C47.2384 20.1197 39.9684 12.7652 31.0003 12.7652C22.0322 12.7652 14.7622 20.1197 14.7622 29.1919C14.7622 38.2641 22.0322 45.6186 31.0003 45.6186Z" fill="#FF9500" stroke="#1C1C1C" stroke-width="0.5" stroke-miterlimit="10"/>
<path d="M32.4989 23.9593C32.0295 23.2343 30.8376 23.2343 30.3682 23.9593C29.2278 25.7206 27.7156 27.2264 25.9398 28.3705C25.2166 28.8364 25.2166 30.0168 25.9398 30.4827C27.7156 31.6268 29.2278 33.1326 30.3682 34.894C30.8376 35.619 32.0295 35.619 32.4989 34.894C33.6393 33.1326 35.1515 31.6268 36.9273 30.4827C37.6504 30.0168 37.6504 28.8364 36.9273 28.3705C35.1515 27.2264 33.6393 25.7206 32.4989 23.9593Z" fill="#1C1C1C" stroke="#1C1C1C" stroke-width="0.5" stroke-miterlimit="10" stroke-linejoin="round"/>
</g>
<defs>
<clipPath id="clip0_18011_4791">
<rect width="62" height="62" rx="5" fill="white"/>
</clipPath>
</defs>
</svg>
