<svg width="62" height="62" viewBox="0 0 62 62" fill="none" xmlns="http://www.w3.org/2000/svg">
<g clip-path="url(#clip0_18011_3650)">
<path d="M48.4475 57.8802C48.4523 59.8549 46.7612 61.3334 44.7864 61.3334H17.0183C15.0487 61.3334 13.3692 59.8498 13.3741 57.8802C13.3756 56.99 13.415 54.4967 13.4711 52.7179C13.5032 51.6988 14.33 50.9297 15.3496 50.9297H46.472C47.4849 50.9297 48.3061 51.6896 48.3407 52.7019C48.4013 54.4768 48.4452 56.9779 48.4475 57.8802Z" fill="#4169E1" stroke="#1C1C1C" stroke-width="0.5" stroke-miterlimit="10" stroke-linejoin="round"/>
<path d="M23.7083 31.9426L15.8871 29.1646C11.8939 27.746 8.63565 24.9546 6.71331 21.3057C5.98727 19.9273 5.45894 18.455 5.14171 16.9291L2.94683 6.35259C2.74354 5.3733 2.98816 4.36607 3.61926 3.58912C4.25035 2.81218 5.18527 2.36725 6.1861 2.36725H13.1003V4.60306H6.1861C5.86105 4.60306 5.55723 4.74727 5.35282 4.99992C5.14841 5.25257 5.06799 5.579 5.13389 5.8976L7.32989 16.4741C7.60467 17.7955 8.06152 19.0699 8.69038 20.2627C10.3502 23.4141 13.1717 25.8276 16.6355 27.0573L24.4567 29.8353L23.7094 31.9426H23.7083Z" fill="#FF9500" stroke="#1C1C1C" stroke-width="0.5" stroke-miterlimit="10" stroke-linejoin="round"/>
<path d="M38.1682 31.9426L37.4209 29.8353L45.2421 27.0573C48.7058 25.8276 51.5274 23.4141 53.1872 20.2627C53.8149 19.0699 54.2729 17.7955 54.5466 16.4741L56.7426 5.8976C56.8085 5.579 56.7292 5.25257 56.5236 4.99992C56.3181 4.74727 56.0143 4.60306 55.6904 4.60306H48.7762V2.36725H55.6904C56.6901 2.36725 57.6261 2.81218 58.2572 3.58912C58.8883 4.36607 59.134 5.37218 58.9296 6.35259L56.7336 16.9291C56.4175 18.455 55.8881 19.9273 55.1631 21.3057C53.2408 24.9557 49.9826 27.746 45.9893 29.1646L38.1682 31.9426Z" fill="#FF9500" stroke="#1C1C1C" stroke-width="0.5" stroke-miterlimit="10" stroke-linejoin="round"/>
<path d="M34.4357 38.1612V24.326H27.3852V38.1612C27.3852 39.2355 26.8245 40.2316 25.9064 40.7883L22.3499 42.9458C20.2254 44.2348 18.9285 46.5399 18.9285 49.0261V50.39H42.8913V49.0261C42.8913 46.5399 41.5945 44.2348 39.47 42.9458L35.9135 40.7883C34.9953 40.2316 34.4346 39.2355 34.4346 38.1612H34.4357Z" fill="#FF9500" stroke="#1C1C1C" stroke-width="0.5" stroke-miterlimit="10" stroke-linejoin="round"/>
<path d="M48.4475 53.7135C48.4523 55.6882 46.7612 57.1667 44.7864 57.1667H17.0183C15.0487 57.1667 13.3692 55.6832 13.3741 53.7135C13.375 53.1685 13.3901 52.6546 13.4146 52.1762C13.4667 51.1579 14.33 50.3911 15.3496 50.3911H46.472C47.4849 50.3911 48.3454 51.1482 48.4021 52.1595C48.4291 52.6405 48.4461 53.1601 48.4475 53.7135Z" fill="#CCD9FD" stroke="#1C1C1C" stroke-width="0.5" stroke-miterlimit="10" stroke-linejoin="round"/>
<path d="M30.6007 33.8091C21.3577 33.8091 13.694 26.6433 13.0662 17.4139L11.947 0.942642C17.3097 0.478711 23.0901 0.179112 29.2414 0.141103C36.4247 0.0963866 43.1211 0.411636 49.2544 0.94376C48.8814 6.4338 48.5083 11.925 48.1352 17.415C47.5075 26.6444 39.8438 33.8102 30.6007 33.8102V33.8091Z" fill="#FFE2C8" stroke="#1C1C1C" stroke-width="0.5" stroke-miterlimit="10" stroke-linejoin="round"/>
<path d="M32.9704 15.4822C34.37 14.7423 35.3277 13.2295 35.3277 11.4833C35.3277 9.00824 33.4017 7 31.0233 7C28.6448 7 26.7188 9.00604 26.7188 11.4833C26.7188 13.2295 27.6787 14.7423 29.0761 15.4822C26.2431 16.3366 24.1522 18.0421 24.0465 21.2417L24.0272 21.9736C24.0123 22.536 24.4642 23 25.0268 23H37C37.5523 23 38 22.5523 38 22L38 21.2417C37.8922 18.0421 35.8034 16.3366 32.9704 15.4822Z" fill="#FF9500"/>
<path d="M32.9704 15.4822L32.7367 15.0401C32.5574 15.1349 32.4532 15.3286 32.4727 15.5305C32.4923 15.7323 32.6319 15.9023 32.826 15.9609L32.9704 15.4822ZM29.0761 15.4822L29.2205 15.9609C29.4146 15.9023 29.5541 15.7324 29.5738 15.5306C29.5934 15.3288 29.4892 15.1352 29.3101 15.0403L29.0761 15.4822ZM24.0465 21.2417L23.5468 21.2252L23.5467 21.2285L24.0465 21.2417ZM38 21.2417L38.5 21.2417L38.5 21.2333L38.4997 21.2248L38 21.2417ZM38 22L38.5 22L38 22ZM32.9704 15.4822L33.2041 15.9242C34.768 15.0975 35.8277 13.4142 35.8277 11.4833H35.3277H34.8277C34.8277 13.0448 33.9719 14.3872 32.7367 15.0401L32.9704 15.4822ZM35.3277 11.4833H35.8277C35.8277 8.75165 33.697 6.5 31.0233 6.5V7V7.5C33.1064 7.5 34.8277 9.26484 34.8277 11.4833H35.3277ZM31.0233 7V6.5C28.3497 6.5 26.2188 8.74928 26.2188 11.4833H26.7188H27.2188C27.2188 9.2628 28.94 7.5 31.0233 7.5V7ZM26.7188 11.4833H26.2188C26.2188 13.4146 27.2809 15.0975 28.8422 15.9241L29.0761 15.4822L29.3101 15.0403C28.0764 14.3871 27.2188 13.0444 27.2188 11.4833H26.7188ZM29.0761 15.4822L28.9317 15.0035C27.4649 15.4459 26.1462 16.121 25.1768 17.1374C24.1977 18.1639 23.6035 19.509 23.5468 21.2252L24.0465 21.2417L24.5462 21.2582C24.5953 19.7748 25.0994 18.6674 25.9004 17.8276C26.7111 16.9777 27.8544 16.3729 29.2205 15.9609L29.0761 15.4822ZM24.0465 21.2417L23.5467 21.2285L23.5273 21.9603L24.0272 21.9736L24.527 21.9868L24.5463 21.2549L24.0465 21.2417ZM25.0268 23V23.5H37V23V22.5H25.0268V23ZM38 22L38.5 22L38.5 21.2417L38 21.2417L37.5 21.2417L37.5 22L38 22ZM38 21.2417L38.4997 21.2248C38.4419 19.5089 37.8478 18.1639 36.869 17.1374C35.8998 16.1211 34.5817 15.4459 33.1148 15.0035L32.9704 15.4822L32.826 15.9609C34.1921 16.3729 35.3349 16.9777 36.1453 17.8276C36.9461 18.6674 37.4503 19.7749 37.5003 21.2585L38 21.2417ZM37 23V23.5C37.8284 23.5 38.5 22.8284 38.5 22L38 22L37.5 22C37.5 22.2761 37.2761 22.5 37 22.5V23ZM24.0272 21.9736L23.5273 21.9603C23.505 22.804 24.1828 23.5 25.0268 23.5V23V22.5C24.7455 22.5 24.5195 22.268 24.527 21.9868L24.0272 21.9736Z" fill="#1C1C1C"/>
</g>
<defs>
<clipPath id="clip0_18011_3650">
<rect width="62" height="62" rx="5" fill="white"/>
</clipPath>
</defs>
</svg>
