<svg width="62" height="62" viewBox="0 0 62 62" fill="none" xmlns="http://www.w3.org/2000/svg">
<g clip-path="url(#clip0_18011_4170)">
<path d="M42.5926 17.1423C42.5926 23.6435 37.2472 28.9214 30.6497 28.9214C24.0522 28.9214 18.2253 23.21 18.2253 16.6992C17.58 5.72914 24.0426 5.36314 30.6401 5.36314C37.2376 5.36314 42.949 5.93139 42.583 17.1423H42.5926Z" fill="#FF9500" stroke="#1C1C1C" stroke-width="0.5" stroke-linejoin="round"/>
<path d="M30.3604 25.7624C37.0927 25.7624 42.5441 20.2147 42.5441 13.3764C42.5441 6.53818 37.0927 1.00015 30.3604 1.00015C23.6281 1.00015 18.1768 6.54781 18.1768 13.3861C18.1768 20.2243 23.6281 25.772 30.3604 25.772V25.7624Z" fill="#FFE2C8" stroke="#1C1C1C" stroke-width="0.5" stroke-linejoin="round"/>
<path d="M30.389 22.9789C35.6862 22.9789 39.9818 18.6833 39.9818 13.3861C39.9818 8.08883 35.6958 3.78362 30.389 3.78362C25.0821 3.78362 20.7961 8.0792 20.7961 13.3764C20.7961 18.6737 25.0917 22.9693 30.389 22.9693V22.9789Z" fill="#FF9500" stroke="#1C1C1C" stroke-width="0.5" stroke-linejoin="round"/>
<path d="M34.6168 10.5352C34.7324 11.6428 34.2701 12.3267 33.5766 12.7023C34.7517 13.0009 35.474 13.7232 35.3392 15.3605C35.1562 17.3928 33.7211 17.9417 31.6696 18.067V19.5887C31.6696 19.9258 31.3903 20.2051 31.0532 20.2051C30.7161 20.2051 30.4368 19.9258 30.4368 19.5887V18.0958C30.119 18.0958 29.7915 18.0958 29.464 18.0766V19.5791C29.464 19.9162 29.1847 20.1955 28.8476 20.1955C28.5105 20.1955 28.2312 19.9162 28.2312 19.5791V18.0573C27.9423 18.0573 27.663 18.0381 27.3548 18.0381H26.6517C26.1797 18.0381 25.8234 17.6143 25.9004 17.152C25.9582 16.7764 26.2857 16.5163 26.6613 16.5163C26.9021 16.5163 26.8925 16.5163 26.8925 16.5163C27.2392 16.5163 27.3259 16.2563 27.3451 16.0829V12.7216V10.3041C27.3066 10.044 27.1333 9.73583 26.6324 9.73583C26.6324 9.73583 26.6324 9.73583 26.4398 9.73583C26.0642 9.73583 25.7463 9.42763 25.7463 9.05201C25.7463 8.67638 26.0545 8.37781 26.4205 8.37781H28.212V6.87532C28.212 6.53822 28.4913 6.25891 28.8284 6.25891C29.1655 6.25891 29.4448 6.53822 29.4448 6.87532V8.32966C29.7722 8.32966 30.0901 8.31039 30.4175 8.31039V6.86569C30.4175 6.52859 30.6969 6.24928 31.034 6.24928C31.371 6.24928 31.6504 6.52859 31.6504 6.86569V8.36818C33.2203 8.50302 34.482 9.01348 34.6072 10.5449L34.6168 10.5352ZM32.9024 15.1005C32.9024 13.4439 30.302 13.6847 29.4737 13.6847V16.5067C30.302 16.5067 32.9024 16.6993 32.9024 15.0909V15.1005ZM32.3438 11.1131C32.3438 9.59136 30.1671 9.82251 29.4737 9.82251V12.3941C30.1768 12.3941 32.3438 12.5578 32.3438 11.1131Z" fill="white"/>
<path d="M30.6108 48.1552V25.7623" stroke="#1C1C1C" stroke-width="0.5" stroke-linecap="round" stroke-linejoin="round"/>
<path d="M30.7256 48.1551L30.7448 47.9625C30.7448 44.5049 29.2809 32.5813 17.7521 33.111C17.3765 33.1302 17.7521 35.6151 17.7521 35.6151C17.7521 35.6151 17.2706 43.0216 30.7352 48.1455L30.7256 48.1551Z" fill="#4169E1" stroke="#1C1C1C" stroke-width="0.5" stroke-linejoin="round"/>
<path d="M31.0432 41.1628L31.0239 40.9701C31.0239 37.474 32.2856 25.6755 44.1804 26.4461L44.0166 28.6324C44.0166 28.6324 44.4982 36.0389 31.0336 41.1628H31.0432Z" fill="#4169E1" stroke="#1C1C1C" stroke-width="0.5" stroke-linejoin="round"/>
<path d="M30.7268 45.651L30.7461 45.4584C30.7461 41.8852 30.4282 31.8686 17.7534 33.1207C17.7534 33.1207 17.2718 40.5272 30.7364 45.651H30.7268Z" fill="#2AA5A5" stroke="#1C1C1C" stroke-width="0.5" stroke-linejoin="round"/>
<path d="M31.0432 38.6586L31.0239 38.4659C31.0239 34.8927 31.3418 24.8761 44.0166 26.1282C44.0166 26.1282 44.4982 33.5347 31.0336 38.6586H31.0432Z" fill="#2AA5A5" stroke="#1C1C1C" stroke-width="0.5" stroke-linejoin="round"/>
<path d="M44.5264 54.743H18.4736C17.6598 54.743 17 55.4027 17 56.2166V59.1734C17 59.9872 17.6598 60.647 18.4736 60.647H44.5264C45.3402 60.647 46 59.9872 46 59.1734V56.2166C46 55.4027 45.3402 54.743 44.5264 54.743Z" fill="#FF9500" stroke="#1C1C1C" stroke-width="0.5" stroke-linejoin="round"/>
<path d="M44.5264 46.4218H18.4736C17.6598 46.4218 17 47.0815 17 47.8954V50.8522C17 51.666 17.6598 52.3258 18.4736 52.3258H44.5264C45.3402 52.3258 46 51.666 46 50.8522V47.8954C46 47.0815 45.3402 46.4218 44.5264 46.4218Z" fill="#FFE2C8" stroke="#1C1C1C" stroke-width="0.5" stroke-linejoin="round"/>
<path d="M44.5264 52.3255H18.4736C17.6598 52.3255 17 52.9853 17 53.7991V56.7559C17 57.5698 17.6598 58.2295 18.4736 58.2295H44.5264C45.3402 58.2295 46 57.5698 46 56.7559V53.7991C46 52.9853 45.3402 52.3255 44.5264 52.3255Z" fill="#FFE2C8" stroke="#1C1C1C" stroke-width="0.5" stroke-linejoin="round"/>
</g>
<defs>
<clipPath id="clip0_18011_4170">
<rect width="62" height="62" rx="5" fill="white"/>
</clipPath>
</defs>
</svg>
