<svg width="62" height="62" viewBox="0 0 62 62" fill="none" xmlns="http://www.w3.org/2000/svg">
<g clip-path="url(#clip0_18011_7739)">
<path d="M3.59679 24.7868C2.56842 24.7868 1.70631 25.5664 1.61658 26.5909C1.25417 30.7287 1.02302 35.1987 1.0016 39.9622C0.978433 45.1578 1.20876 50.0132 1.59243 54.4773C1.68996 55.612 2.72552 56.4223 3.8577 56.2992C7.12026 55.9445 11.2326 55.7083 14.8617 55.7064C18.6279 55.7046 22.0717 55.9549 25.131 56.3292C26.1186 56.45 26.8024 57.3324 27.2084 58.2408C27.8585 59.6954 29.3204 60.7194 31.0021 60.7194C32.6861 60.7194 34.1497 59.7012 34.7984 58.2415C35.2025 57.3323 35.8855 56.45 36.8731 56.3291C39.8813 55.961 43.2574 55.713 46.9424 55.7064C50.6475 55.7 54.8313 55.9384 58.1454 56.2991C59.2776 56.4224 60.3129 55.6117 60.4101 54.4769C60.8193 49.7031 61.0516 44.4985 60.9903 38.9186C60.943 34.5581 60.7216 30.4397 60.3859 26.5915C60.2964 25.5668 59.4342 24.7868 58.4055 24.7868H3.59679Z" fill="#FF9500" stroke="#1C1C1C" stroke-width="0.5" stroke-miterlimit="10" stroke-linejoin="round"/>
<path d="M3.59679 20.6215C2.56842 20.6215 1.70631 21.4012 1.61658 22.4256C1.25417 26.5634 1.02302 31.0334 1.0016 35.7969C0.978433 40.9925 1.20876 45.848 1.59243 50.312C1.68996 51.4467 2.72552 52.257 3.8577 52.1339C7.12026 51.7792 11.2326 51.543 14.8617 51.5412C18.6279 51.5393 22.0717 51.7896 25.131 52.1639C26.1186 52.2847 26.8024 53.1672 27.2084 54.0755C27.8585 55.5301 29.3204 56.5541 31.0021 56.5541C32.6861 56.5541 34.1497 55.5359 34.7984 54.0762C35.2025 53.167 35.8855 52.2847 36.8731 52.1638C39.8813 51.7957 43.2574 51.5477 46.9424 51.5412C50.6475 51.5347 54.8313 51.7731 58.1454 52.1339C59.2776 52.2571 60.3129 51.4464 60.4101 50.3116C60.8193 45.5378 61.0516 40.3332 60.9903 34.7534C60.943 30.3928 60.7216 26.2744 60.3859 22.4262C60.2964 21.4015 59.4342 20.6215 58.4055 20.6215H3.59679Z" fill="#FFE2C8" stroke="#1C1C1C" stroke-width="0.5" stroke-miterlimit="10" stroke-linejoin="round"/>
<path d="M5.2005 18.8787C5.26425 17.9097 6.02182 17.1307 6.98936 17.0467C10.1519 16.7724 13.574 16.5996 17.2245 16.592C20.5184 16.5846 23.0026 16.7665 25.5731 17.013C27.3906 17.1872 29.4291 17.7968 30.6917 19.1156C30.8235 19.2532 30.9309 19.3845 31.0008 19.5033V50.9861L29.9096 50.0006C28.9601 49.1431 27.7614 48.6096 26.4882 48.4834C23.5951 48.1965 20.9921 47.9802 17.2949 47.9875C13.7618 47.9939 10.4416 48.1539 7.36205 48.411C6.24071 48.5046 5.24811 47.6733 5.1762 46.5503C4.85844 41.5876 4.69397 36.2956 4.75086 30.7093C4.79266 26.5916 4.95284 22.6434 5.2005 18.8787Z" fill="#4169E1" stroke="#1C1C1C" stroke-width="0.5" stroke-miterlimit="10" stroke-linejoin="round"/>
<path d="M5.2005 15.2869C5.26425 14.3179 6.02182 13.5389 6.98936 13.4549C10.1519 13.1806 13.574 13.0078 17.2245 13.0002C20.5184 12.9928 23.0026 13.1747 25.5731 13.4212C27.3906 13.5954 29.4291 14.205 30.6917 15.5238C30.8235 15.6614 30.9309 15.7927 31.0008 15.9115V47.3943L29.9096 46.4088C28.9601 45.5513 27.7614 45.0178 26.4882 44.8916C23.5951 44.6047 20.9921 44.3884 17.2949 44.3957C13.7618 44.4021 10.4416 44.5621 7.36205 44.8192C6.24071 44.9128 5.24811 44.0815 5.1762 42.9585C4.85844 37.9958 4.69397 32.7039 4.75086 27.1175C4.79266 22.9998 4.95284 19.0516 5.2005 15.2869Z" fill="#E8EDFA" stroke="#1C1C1C" stroke-width="0.5" stroke-miterlimit="10" stroke-linejoin="round"/>
<path d="M56.8011 18.8782C56.7374 17.9094 55.9802 17.1305 55.0129 17.0464C51.8502 16.7716 48.4277 16.5996 44.7761 16.592C41.4822 16.5846 38.998 16.7665 36.4275 17.013C34.61 17.1872 32.5715 17.7968 31.3089 19.1156C31.1771 19.2532 31.0697 19.3845 30.9998 19.5033V50.9861L32.091 50.0006C33.0405 49.1431 34.2392 48.6096 35.5124 48.4834C38.4055 48.1965 41.0085 47.9802 44.7057 47.9875C48.2388 47.9939 51.559 48.1539 54.6385 48.411C55.7599 48.5046 56.7525 47.6733 56.8244 46.5503C57.1422 41.5876 57.3066 36.2956 57.2497 30.7093C57.2079 26.5914 57.0486 22.6431 56.8011 18.8782Z" fill="#4169E1" stroke="#1C1C1C" stroke-width="0.5" stroke-miterlimit="10" stroke-linejoin="round"/>
<path d="M56.8011 15.2864C56.7374 14.3176 55.9802 13.5387 55.0129 13.4546C51.8502 13.1798 48.4277 13.0078 44.7761 13.0002C41.4822 12.9928 38.998 13.1747 36.4275 13.4212C34.61 13.5954 32.5715 14.205 31.3089 15.5238C31.1771 15.6614 31.0697 15.7927 30.9998 15.9115V47.3943L32.091 46.4088C33.0405 45.5513 34.2392 45.0178 35.5124 44.8916C38.4055 44.6047 41.0085 44.3884 44.7057 44.3957C48.2388 44.4021 51.559 44.5621 54.6385 44.8192C55.7599 44.9128 56.7525 44.0815 56.8244 42.9585C57.1422 37.9958 57.3066 32.7039 57.2497 27.1175C57.2079 22.9996 57.0486 19.0513 56.8011 15.2864Z" fill="#E8EDFA" stroke="#1C1C1C" stroke-width="0.5" stroke-miterlimit="10" stroke-linejoin="round"/>
<path d="M48.5136 24.1672C48.5136 33.3636 40.9514 40.8189 31.6226 40.8189C22.2939 40.8189 14.0622 32.7468 14.0622 23.5505C13.1564 8.03663 22.2939 7.51563 31.6226 7.51563C40.9514 7.51563 49.0259 8.32115 48.5136 24.1672Z" fill="#FF9500" stroke="#1C1C1C" stroke-width="0.5" stroke-miterlimit="10"/>
<path d="M31.4121 37.019C40.9249 37.019 48.6367 29.1798 48.6367 19.5095C48.6367 9.83928 40.9249 2 31.4121 2C21.8992 2 14.1875 9.83928 14.1875 19.5095C14.1875 29.1798 21.8992 37.019 31.4121 37.019Z" fill="#FFE2C8" stroke="#1C1C1C" stroke-width="0.5" stroke-miterlimit="10"/>
<path d="M31.2711 33.0735C38.7645 33.0735 44.8391 26.9989 44.8391 19.5055C44.8391 12.0121 38.7645 5.9375 31.2711 5.9375C23.7777 5.9375 17.7031 12.0121 17.7031 19.5055C17.7031 26.9989 23.7777 33.0735 31.2711 33.0735Z" fill="#FF9500" stroke="#1C1C1C" stroke-width="0.5" stroke-miterlimit="10"/>
<path d="M32.0483 13.0162C31.9572 12.8204 31.6729 12.813 31.5718 13.0038C30.1322 15.7207 27.8198 17.9103 25.0076 19.2249C24.8127 19.316 24.8054 19.5985 24.9952 19.6996C27.7355 21.1583 29.9312 23.4649 31.2279 26.2529C31.319 26.4486 31.6033 26.456 31.7044 26.2652C33.144 23.5483 35.4564 21.3587 38.2687 20.0441C38.4635 19.953 38.4708 19.6705 38.281 19.5694C35.5407 18.1107 33.345 15.8041 32.0483 13.0162Z" fill="#1C1C1C" stroke="#1C1C1C" stroke-width="0.5" stroke-miterlimit="10" stroke-linejoin="round"/>
</g>
<defs>
<clipPath id="clip0_18011_7739">
<rect width="62" height="62" rx="5" fill="white"/>
</clipPath>
</defs>
</svg>
