<svg width="62" height="62" viewBox="0 0 62 62" fill="none" xmlns="http://www.w3.org/2000/svg">
<g clip-path="url(#clip0_18121_8493)">
<path d="M29.4143 47.8645C29.4143 55.0798 23.4812 60.929 16.1621 60.929C8.84293 60.929 2.38447 54.5959 2.38447 47.3806C1.67383 35.2088 8.84293 34.8 16.1621 34.8C23.4812 34.8 29.8163 35.432 29.4143 47.8645Z" fill="#637DEB" stroke="#1C1C1C" stroke-width="0.5" stroke-miterlimit="10"/>
<path d="M15.9657 57.4752C23.4293 57.4752 29.4797 51.3247 29.4797 43.7376C29.4797 36.1505 23.4293 30 15.9657 30C8.5021 30 2.45166 36.1505 2.45166 43.7376C2.45166 51.3247 8.5021 57.4752 15.9657 57.4752Z" fill="#CCD9FD" stroke="#1C1C1C" stroke-width="0.5" stroke-miterlimit="10"/>
<path d="M16 54.3782C21.8792 54.3782 26.6452 49.6122 26.6452 43.7331C26.6452 37.8539 21.8792 33.0879 16 33.0879C10.1209 33.0879 5.35486 37.8539 5.35486 43.7331C5.35486 49.6122 10.1209 54.3782 16 54.3782Z" fill="#637DEB" stroke="#1C1C1C" stroke-width="0.5" stroke-miterlimit="10"/>
<path d="M16.5427 44.9994C16.235 45.1757 15.8569 45.1757 15.549 44.9996L12.7926 43.4221C12.3301 43.1574 12.1564 42.5765 12.3978 42.1013L15.188 36.6079C15.5634 35.8687 16.6236 35.8812 16.9816 36.629L19.6304 42.1634C19.8565 42.6358 19.6799 43.2026 19.2254 43.4629L16.5427 44.9994Z" fill="white"/>
<path d="M16.3912 46.1082C16.0864 46.2752 15.7167 46.272 15.4149 46.0997L13.2057 44.8386C12.7368 44.5709 12.2352 45.1337 12.5549 45.5688L15.1111 49.0481C15.5059 49.5854 16.3059 49.5932 16.7111 49.0638L19.3991 45.5514C19.7277 45.1221 19.2358 44.5492 18.7618 44.809L16.3912 46.1082Z" fill="white"/>
<path d="M60.4707 47.5632C60.4707 54.9449 54.4704 60.929 47.0685 60.929C39.6666 60.929 33.135 54.4499 33.135 47.0682C32.4163 34.6156 39.6666 34.1974 47.0685 34.1974C54.4704 34.1974 60.8772 34.844 60.4707 47.5632Z" fill="#4169E1" stroke="#1C1C1C" stroke-width="0.5" stroke-miterlimit="10"/>
<path d="M46.7528 58.209C54.3008 58.209 60.4197 51.9167 60.4197 44.1546C60.4197 36.3926 54.3008 30.1002 46.7528 30.1002C39.2047 30.1002 33.0858 36.3926 33.0858 44.1546C33.0858 51.9167 39.2047 58.209 46.7528 58.209Z" fill="#CCD9FD" stroke="#1C1C1C" stroke-width="0.5" stroke-miterlimit="10"/>
<path d="M46.7877 55.0408C52.7334 55.0408 57.5533 50.1648 57.5533 44.1501C57.5533 38.1354 52.7334 33.2595 46.7877 33.2595C40.842 33.2595 36.0221 38.1354 36.0221 44.1501C36.0221 50.1648 40.842 55.0408 46.7877 55.0408Z" fill="#4169E1" stroke="#1C1C1C" stroke-width="0.5" stroke-miterlimit="10"/>
<path d="M45.0326 46.6747C44.7399 46.6747 44.4759 46.4954 44.3627 46.2206C44.2496 45.9459 44.3091 45.6286 44.514 45.416L46.7416 43.1054H44.3353C43.8211 43.1054 43.479 43.106 43.2162 43.1279C42.9619 43.149 42.8463 43.1869 42.7738 43.2245C42.5728 43.3289 42.4085 43.4945 42.306 43.6992C42.2691 43.773 42.2331 43.8913 42.2123 44.1503C42.1908 44.4179 42.1898 44.7663 42.1898 45.29V46.579C42.1898 47.1027 42.1908 47.4511 42.2123 47.7187C42.2331 47.9778 42.2691 48.096 42.306 48.1699C42.4085 48.3746 42.5728 48.5411 42.7738 48.6454C42.8463 48.683 42.9623 48.72 43.2162 48.7411C43.479 48.763 43.8211 48.7636 44.3353 48.7636H45.6947C46.1637 48.7636 46.4758 48.7633 46.7162 48.7451C46.949 48.7274 47.0565 48.6962 47.1234 48.665C47.3559 48.5564 47.5421 48.3656 47.6488 48.1288C47.6795 48.0607 47.7105 47.9518 47.7279 47.7148C47.7458 47.47 47.7465 47.1523 47.7465 46.6747H45.0326ZM47.8334 39.5361C47.3131 39.5361 46.9663 39.5373 46.7006 39.5595C46.4434 39.581 46.327 39.6191 46.2543 39.6572C46.0521 39.7631 45.888 39.9315 45.7865 40.1386C45.75 40.2131 45.7147 40.3323 45.6967 40.5947C45.6795 40.8442 45.6815 41.1631 45.6869 41.6259H48.473C48.8742 41.6259 49.1994 41.9567 49.1996 42.3652C49.1996 42.567 49.1192 42.7493 48.9906 42.8828L48.9916 42.8837L46.764 45.1943H49.1703C49.6845 45.1943 50.0266 45.1937 50.2894 45.1718C50.5434 45.1507 50.6593 45.1137 50.7318 45.0761C50.9329 44.9718 51.0971 44.8053 51.1996 44.6005C51.2365 44.5267 51.2726 44.409 51.2933 44.1503C51.3148 43.8826 51.3158 43.5338 51.3158 43.0097V41.7216C51.3158 41.1975 51.3148 40.8487 51.2933 40.581C51.2726 40.3223 51.2365 40.2047 51.1996 40.1308C51.0971 39.9261 50.9329 39.7595 50.7318 39.6552C50.6593 39.6176 50.5435 39.5797 50.2894 39.5585C50.0266 39.5367 49.6845 39.5361 49.1703 39.5361H47.8334ZM49.1996 46.7011C49.1996 47.1449 49.1996 47.5187 49.1771 47.8251C49.1537 48.1453 49.1028 48.4513 48.9701 48.746C48.7184 49.3048 48.2776 49.7534 47.7289 50.0097C47.4395 50.1448 47.1389 50.1968 46.8246 50.2206C46.5236 50.2435 46.1567 50.2431 45.7211 50.2431H44.307C43.8291 50.2431 43.4262 50.2431 43.097 50.2158C42.7529 50.1871 42.425 50.1254 42.1136 49.9638C41.6393 49.7177 41.2539 49.3247 41.0121 48.8417C40.8534 48.5246 40.7922 48.1903 40.764 47.8398C40.7371 47.5046 40.7367 47.095 40.7367 46.6083V45.2607C40.7367 44.7741 40.7371 44.3644 40.764 44.0292C40.7922 43.6788 40.8534 43.3444 41.0121 43.0273C41.2539 42.5443 41.6393 42.1513 42.1136 41.9052C42.425 41.7437 42.7529 41.6819 43.097 41.6533C43.4093 41.6273 43.7877 41.626 44.2338 41.6259C44.2286 41.182 44.225 40.8043 44.2465 40.4911C44.2708 40.1371 44.3293 39.7997 44.4867 39.4785C44.7263 38.9893 45.1129 38.5907 45.5902 38.3408C45.9038 38.1767 46.235 38.113 46.5824 38.0839C46.9147 38.0562 47.321 38.0566 47.8041 38.0566H49.1996C49.6773 38.0566 50.0795 38.0565 50.4086 38.0839C50.7527 38.1126 51.0806 38.1753 51.392 38.3369C51.8664 38.5831 52.2528 38.9758 52.4945 39.4589C52.6531 39.776 52.7135 40.1104 52.7416 40.4609C52.7684 40.7959 52.7689 41.205 52.7689 41.6913V43.039C52.7689 43.5256 52.7685 43.9353 52.7416 44.2704C52.7135 44.621 52.6532 44.9553 52.4945 45.2724C52.2527 45.7556 51.8664 46.1483 51.392 46.3945C51.0805 46.556 50.7527 46.6187 50.4086 46.6474C50.0795 46.6748 49.6773 46.6748 49.1996 46.6747V46.7011Z" fill="white"/>
<path d="M44.5303 18.9033C44.5303 26.1185 38.5971 31.9678 31.278 31.9678C23.9589 31.9678 17.5004 25.6346 17.5004 18.4194C16.7898 6.24752 23.9589 5.83875 31.278 5.83875C38.5971 5.83875 44.9322 6.47074 44.5303 18.9033Z" fill="#FF9500" stroke="#1C1C1C" stroke-width="0.5" stroke-miterlimit="10"/>
<path d="M30.9658 28.4752C38.4294 28.4752 44.4799 22.3247 44.4799 14.7376C44.4799 7.15054 38.4294 1 30.9658 1C23.5022 1 17.4518 7.15054 17.4518 14.7376C17.4518 22.3247 23.5022 28.4752 30.9658 28.4752Z" fill="#FFE2C8" stroke="#1C1C1C" stroke-width="0.5" stroke-miterlimit="10"/>
<path d="M31.0003 25.3782C36.8794 25.3782 41.6454 20.6122 41.6454 14.7331C41.6454 8.85389 36.8794 4.08789 31.0003 4.08789C25.1211 4.08789 20.3551 8.85389 20.3551 14.7331C20.3551 20.6122 25.1211 25.3782 31.0003 25.3782Z" fill="#FF9500" stroke="#1C1C1C" stroke-width="0.5" stroke-miterlimit="10"/>
<path d="M35.9889 11.5734C36.1158 12.8067 35.6083 13.5568 34.8313 13.9734C36.1317 14.3068 36.9405 15.1068 36.7819 16.9235C36.5757 19.1736 34.9898 19.7903 32.7062 19.9236V21.6085C32.7062 21.9851 32.4009 22.2904 32.0242 22.2904C31.6476 22.2904 31.3423 21.9851 31.3423 21.6085V19.957C30.9934 19.957 30.6287 19.957 30.2639 19.9403V21.6085C30.2639 21.9851 29.9586 22.2904 29.582 22.2904C29.2054 22.2904 28.9001 21.9851 28.9001 21.6085V19.9236C28.5829 19.9236 28.2657 19.907 27.9327 19.907H27.1541C26.6321 19.907 26.2352 19.4379 26.3217 18.9232C26.3908 18.5114 26.7511 18.215 27.1686 18.2143C27.4318 18.2138 27.4252 18.2069 27.4252 18.2069C27.8058 18.2069 27.901 17.9236 27.9327 17.7236V13.9901H28.0754C28.012 13.9901 27.9644 13.9901 27.9327 13.9901V11.3067C27.8851 11.0233 27.6948 10.6733 27.1397 10.6733C27.1397 10.6733 27.1457 10.6671 26.9216 10.6661C26.5013 10.6641 26.1565 10.3289 26.1565 9.90863C26.1565 9.4933 26.4932 9.1566 26.9085 9.1566H28.0437C28.3133 9.1566 28.5987 9.1566 28.9001 9.1566V7.48845C28.9001 7.11183 29.2054 6.80652 29.582 6.80652C29.9586 6.80652 30.2639 7.11183 30.2639 7.48845V9.1066C30.6287 9.1066 30.9776 9.08993 31.3423 9.08993V7.48845C31.3423 7.11183 31.6476 6.80652 32.0242 6.80652C32.4009 6.80652 32.7062 7.11183 32.7062 7.48845V9.1566C34.4506 9.30661 35.8462 9.87329 35.9889 11.5734ZM34.0859 16.6402C34.0859 14.8068 31.1996 15.0735 30.2798 15.0735V18.2069C31.1996 18.2069 34.0859 18.4236 34.0859 16.6402ZM33.4674 12.2234C33.4674 10.54 31.0569 10.79 30.2798 10.79V13.6401C31.0569 13.6401 33.4674 13.8234 33.4674 12.2234Z" fill="white"/>
</g>
<defs>
<clipPath id="clip0_18121_8493">
<rect width="62" height="62" rx="5" fill="white"/>
</clipPath>
</defs>
</svg>
