<svg width="102" height="102" viewBox="0 0 102 102" fill="none" xmlns="http://www.w3.org/2000/svg">
<rect x="0.5" y="0.5" width="101" height="101" rx="4.5" stroke="#8A38F5" stroke-dasharray="10 5"/>
<path d="M66.1552 46.7093L44.9922 35.3141" stroke="#1C1C1C" stroke-width="0.5" stroke-miterlimit="10"/>
<path d="M34.7712 46.7062L56.6576 34.9623" stroke="#1C1C1C" stroke-width="0.5" stroke-miterlimit="10"/>
<path d="M45.6958 29.4118H55.9545" stroke="#1C1C1C" stroke-width="0.5" stroke-miterlimit="10"/>
<path d="M47.5447 32.3217C47.5447 36.1083 44.4311 39.1786 40.5905 39.1786C36.75 39.1786 33.3606 35.855 33.3606 32.0684C32.9872 25.6804 36.75 25.466 40.5905 25.466C44.4311 25.466 47.7556 25.7982 47.5447 32.3229V32.3217Z" fill="#FF9500" stroke="#1C1C1C" stroke-width="0.5" stroke-miterlimit="10"/>
<path d="M40.427 36.4195C44.3441 36.4195 47.5191 33.1913 47.5191 29.2092C47.5191 25.227 44.3441 22 40.427 22C36.5099 22 33.335 25.2282 33.335 29.2103C33.335 33.1925 36.5099 36.4207 40.427 36.4207V36.4195Z" fill="#FFE2C8" stroke="#1C1C1C" stroke-width="0.5" stroke-miterlimit="10"/>
<path d="M41.5281 27.9085C42.308 27.5127 42.8417 26.7033 42.8417 25.769C42.8417 24.4448 41.7685 23.3703 40.4431 23.3703C39.1178 23.3703 38.0446 24.4436 38.0446 25.769C38.0446 26.7033 38.5794 27.5127 39.3581 27.9085C37.7795 28.3657 36.6144 29.796 36.5555 31.5078L36.5421 32.5902C36.5352 33.1473 36.9849 33.6026 37.542 33.6026H43.3308C43.8831 33.6026 44.3308 33.1549 44.3308 32.6026V31.5078C44.2707 29.796 43.1068 28.3657 41.5281 27.9085Z" fill="#FF9500"/>
<path d="M41.5281 27.9085L41.415 27.6856C41.3234 27.7321 41.2696 27.8298 41.2792 27.932C41.2889 28.0342 41.36 28.1201 41.4586 28.1487L41.5281 27.9085ZM39.3581 27.9085L39.4276 28.1487C39.5262 28.1201 39.5973 28.0342 39.607 27.9321C39.6167 27.8299 39.5629 27.7322 39.4714 27.6857L39.3581 27.9085ZM36.5555 31.5078L36.3055 31.4992L36.3055 31.5047L36.5555 31.5078ZM44.3308 31.5078H44.5809L44.5806 31.4991L44.3308 31.5078ZM41.5281 27.9085L41.6413 28.1315C42.5019 27.6946 43.0917 26.801 43.0917 25.769H42.8417H42.5917C42.5917 26.6056 42.1141 27.3308 41.415 27.6856L41.5281 27.9085ZM42.8417 25.769H43.0917C43.0917 24.3068 41.9066 23.1203 40.4431 23.1203V23.3703V23.6203C41.6303 23.6203 42.5917 24.5827 42.5917 25.769H42.8417ZM40.4431 23.3703V23.1203C38.9797 23.1203 37.7946 24.3055 37.7946 25.769H38.0446H38.2946C38.2946 24.5816 39.2559 23.6203 40.4431 23.6203V23.3703ZM38.0446 25.769H37.7946C37.7946 26.8011 38.3856 27.6946 39.2448 28.1314L39.3581 27.9085L39.4714 27.6857C38.7732 27.3307 38.2946 26.6054 38.2946 25.769H38.0446ZM39.3581 27.9085L39.2886 27.6684C37.6086 28.1549 36.3683 29.6767 36.3056 31.4992L36.5555 31.5078L36.8053 31.5164C36.8604 29.9152 37.9504 28.5765 39.4276 28.1487L39.3581 27.9085ZM36.5555 31.5078L36.3055 31.5047L36.2921 32.5871L36.5421 32.5902L36.792 32.5933L36.8054 31.5109L36.5555 31.5078ZM37.542 33.6026V33.8526H43.3308V33.6026V33.3526H37.542V33.6026ZM44.3308 32.6026H44.5808V31.5078H44.3308H44.0808V32.6026H44.3308ZM44.3308 31.5078L44.5806 31.4991C44.5167 29.6768 43.2778 28.1549 41.5977 27.6684L41.5281 27.9085L41.4586 28.1487C42.9357 28.5764 44.0247 29.9151 44.0809 31.5166L44.3308 31.5078ZM43.3308 33.6026V33.8526C44.0211 33.8526 44.5808 33.293 44.5808 32.6026H44.3308H44.0808C44.0808 33.0168 43.745 33.3526 43.3308 33.3526V33.6026ZM36.5421 32.5902L36.2921 32.5871C36.2835 33.2835 36.8456 33.8526 37.542 33.8526V33.6026V33.3526C37.1241 33.3526 36.7869 33.0111 36.792 32.5933L36.5421 32.5902Z" fill="#1C1C1C"/>
<path d="M68.3169 32.3217C68.3169 36.1083 65.2033 39.1786 61.3627 39.1786C57.5222 39.1786 54.1329 35.855 54.1329 32.0684C53.7594 25.6804 57.5222 25.466 61.3627 25.466C65.2033 25.466 68.5278 25.7982 68.3169 32.3229V32.3217Z" fill="#FF9500" stroke="#1C1C1C" stroke-width="0.5" stroke-miterlimit="10"/>
<path d="M61.1992 36.4195C65.1163 36.4195 68.2913 33.1913 68.2913 29.2092C68.2913 25.227 65.1163 22 61.1992 22C57.2821 22 54.1072 25.2282 54.1072 29.2103C54.1072 33.1925 57.2821 36.4207 61.1992 36.4207V36.4195Z" fill="#FFE2C8" stroke="#1C1C1C" stroke-width="0.5" stroke-miterlimit="10"/>
<path d="M62.3004 27.9085C63.0802 27.5127 63.6139 26.7033 63.6139 25.769C63.6139 24.4448 62.5407 23.3703 61.2153 23.3703C59.89 23.3703 58.8168 24.4436 58.8168 25.769C58.8168 26.7033 59.3516 27.5127 60.1303 27.9085C58.5517 28.3657 57.3866 29.796 57.3277 31.5078L57.3143 32.5902C57.3074 33.1473 57.7571 33.6026 58.3142 33.6026H64.103C64.6553 33.6026 65.103 33.1549 65.103 32.6026V31.5078C65.0429 29.796 63.879 28.3657 62.3004 27.9085Z" fill="#FF9500"/>
<path d="M62.3004 27.9085L62.1872 27.6856C62.0957 27.7321 62.0418 27.8298 62.0515 27.932C62.0611 28.0342 62.1322 28.1201 62.2308 28.1487L62.3004 27.9085ZM60.1303 27.9085L60.1999 28.1487C60.2984 28.1201 60.3696 28.0342 60.3792 27.9321C60.3889 27.8299 60.3351 27.7322 60.2436 27.6857L60.1303 27.9085ZM57.3277 31.5078L57.0778 31.4992L57.0777 31.5047L57.3277 31.5078ZM65.103 31.5078H65.3532L65.3529 31.4991L65.103 31.5078ZM62.3004 27.9085L62.4135 28.1315C63.2742 27.6946 63.8639 26.801 63.8639 25.769H63.6139H63.3639C63.3639 26.6056 62.8863 27.3308 62.1872 27.6856L62.3004 27.9085ZM63.6139 25.769H63.8639C63.8639 24.3068 62.6789 23.1203 61.2153 23.1203V23.3703V23.6203C62.4025 23.6203 63.3639 24.5827 63.3639 25.769H63.6139ZM61.2153 23.3703V23.1203C59.7519 23.1203 58.5668 24.3055 58.5668 25.769H58.8168H59.0668C59.0668 24.5816 60.0281 23.6203 61.2153 23.6203V23.3703ZM58.8168 25.769H58.5668C58.5668 26.8011 59.1578 27.6946 60.017 28.1314L60.1303 27.9085L60.2436 27.6857C59.5454 27.3307 59.0668 26.6054 59.0668 25.769H58.8168ZM60.1303 27.9085L60.0608 27.6684C58.3808 28.1549 57.1405 29.6767 57.0778 31.4992L57.3277 31.5078L57.5775 31.5164C57.6326 29.9152 58.7226 28.5765 60.1999 28.1487L60.1303 27.9085ZM57.3277 31.5078L57.0777 31.5047L57.0643 32.5871L57.3143 32.5902L57.5643 32.5933L57.5777 31.5109L57.3277 31.5078ZM58.3142 33.6026V33.8526H64.103V33.6026V33.3526H58.3142V33.6026ZM65.103 32.6026H65.353V31.5078H65.103H64.853V32.6026H65.103ZM65.103 31.5078L65.3529 31.4991C65.2889 29.6768 64.05 28.1549 62.3699 27.6684L62.3004 27.9085L62.2308 28.1487C63.708 28.5764 64.797 29.9151 64.8532 31.5166L65.103 31.5078ZM64.103 33.6026V33.8526C64.7934 33.8526 65.353 33.293 65.353 32.6026H65.103H64.853C64.853 33.0168 64.5172 33.3526 64.103 33.3526V33.6026ZM57.3143 32.5902L57.0643 32.5871C57.0557 33.2835 57.6178 33.8526 58.3142 33.8526V33.6026V33.3526C57.8964 33.3526 57.5591 33.0111 57.5643 32.5933L57.3143 32.5902Z" fill="#1C1C1C"/>
<path d="M45.6958 71.1054H55.9545" stroke="#1C1C1C" stroke-width="0.5" stroke-miterlimit="10"/>
<path d="M43.9519 38.6628L57.8358 65.5068" stroke="#1C1C1C" stroke-width="0.5" stroke-miterlimit="10"/>
<path d="M57.8367 38.6628L43.9528 65.5068" stroke="#1C1C1C" stroke-width="0.5" stroke-miterlimit="10"/>
<path d="M36.1853 51.8743H64.7903" stroke="#1C1C1C" stroke-width="0.5" stroke-miterlimit="10"/>
<path d="M65.7058 37.7359L70.5518 43.8749" stroke="#1C1C1C" stroke-width="0.5" stroke-miterlimit="10"/>
<path d="M65.7058 64.2395L70.5518 58.1005" stroke="#1C1C1C" stroke-width="0.5" stroke-miterlimit="10"/>
<path d="M36.3025 37.7359L31.4565 43.8749" stroke="#1C1C1C" stroke-width="0.5" stroke-miterlimit="10"/>
<path d="M36.3025 64.2395L31.4565 58.1005" stroke="#1C1C1C" stroke-width="0.5" stroke-miterlimit="10"/>
<path d="M40.7134 39.1793V63.8995" stroke="#1C1C1C" stroke-width="0.5" stroke-miterlimit="10"/>
<path d="M61.0752 39.1793V63.8995" stroke="#1C1C1C" stroke-width="0.5" stroke-miterlimit="10"/>
<path d="M65.9691 56.5822L44.9922 67.8761" stroke="#1C1C1C" stroke-width="0.5" stroke-miterlimit="10"/>
<path d="M35.196 56.7105L56.6548 68.2247" stroke="#1C1C1C" stroke-width="0.5" stroke-miterlimit="10"/>
<path d="M36.2098 53.1465C36.2098 56.9331 33.0961 60.0034 29.2556 60.0034C25.415 60.0034 22.0257 56.6798 22.0257 52.8932C21.6522 46.5052 25.415 46.2908 29.2556 46.2908C33.0961 46.2908 36.4206 46.623 36.2098 53.1477V53.1465Z" fill="#FF9500" stroke="#1C1C1C" stroke-width="0.5" stroke-miterlimit="10"/>
<path d="M29.092 57.2455C33.0092 57.2455 36.1841 54.0174 36.1841 50.0352C36.1841 46.053 33.0092 42.8248 29.092 42.8248C25.1749 42.8248 22 46.0542 22 50.0352C22 54.0162 25.1749 57.2455 29.092 57.2455Z" fill="#FFE2C8" stroke="#1C1C1C" stroke-width="0.5" stroke-miterlimit="10"/>
<path d="M30.1934 48.7369C30.9733 48.3411 31.507 47.5317 31.507 46.5974C31.507 45.2732 30.4337 44.1987 29.1084 44.1987C27.7831 44.1987 26.7098 45.272 26.7098 46.5974C26.7098 47.5317 27.2447 48.3411 28.0234 48.7369C26.4448 49.1941 25.2796 50.6244 25.2207 52.3362L25.2073 53.4186C25.2005 53.9757 25.6502 54.431 26.2073 54.431H31.9961C32.5484 54.431 32.9961 53.9833 32.9961 53.431V52.3362C32.936 50.6244 31.772 49.1941 30.1934 48.7369Z" fill="#FF9500"/>
<path d="M30.1934 48.7369L30.0803 48.514C29.9887 48.5605 29.9349 48.6582 29.9445 48.7604C29.9541 48.8626 30.0253 48.9485 30.1239 48.9771L30.1934 48.7369ZM28.0234 48.7369L28.0929 48.9771C28.1915 48.9485 28.2626 48.8626 28.2723 48.7605C28.2819 48.6583 28.2282 48.5606 28.1367 48.5141L28.0234 48.7369ZM25.2207 52.3362L24.9708 52.3276L24.9708 52.3331L25.2207 52.3362ZM32.9961 52.3362H33.2462L33.2459 52.3275L32.9961 52.3362ZM30.1934 48.7369L30.3066 48.9599C31.1672 48.523 31.757 47.6294 31.757 46.5974H31.507H31.257C31.257 47.434 30.7794 48.1592 30.0803 48.514L30.1934 48.7369ZM31.507 46.5974H31.757C31.757 45.1352 30.5719 43.9487 29.1084 43.9487V44.1987V44.4487C30.2956 44.4487 31.257 45.4111 31.257 46.5974H31.507ZM29.1084 44.1987V43.9487C27.645 43.9487 26.4598 45.1339 26.4598 46.5974H26.7098H26.9598C26.9598 45.41 27.9212 44.4487 29.1084 44.4487V44.1987ZM26.7098 46.5974H26.4598C26.4598 47.6295 27.0509 48.523 27.9101 48.9598L28.0234 48.7369L28.1367 48.5141C27.4385 48.1591 26.9598 47.4338 26.9598 46.5974H26.7098ZM28.0234 48.7369L27.9539 48.4968C26.2739 48.9833 25.0336 50.5051 24.9709 52.3276L25.2207 52.3362L25.4706 52.3448C25.5257 50.7436 26.6157 49.4049 28.0929 48.9771L28.0234 48.7369ZM25.2207 52.3362L24.9708 52.3331L24.9574 53.4155L25.2073 53.4186L25.4573 53.4217L25.4707 52.3393L25.2207 52.3362ZM26.2073 54.431V54.681H31.9961V54.431V54.181H26.2073V54.431ZM32.9961 53.431H33.2461V52.3362H32.9961H32.7461V53.431H32.9961ZM32.9961 52.3362L33.2459 52.3275C33.182 50.5052 31.9431 48.9833 30.263 48.4968L30.1934 48.7369L30.1239 48.9771C31.601 49.4048 32.69 50.7435 32.7462 52.345L32.9961 52.3362ZM31.9961 54.431V54.681C32.6864 54.681 33.2461 54.1214 33.2461 53.431H32.9961H32.7461C32.7461 53.8452 32.4103 54.181 31.9961 54.181V54.431ZM25.2073 53.4186L24.9574 53.4155C24.9488 54.1119 25.5109 54.681 26.2073 54.681V54.431V54.181C25.7894 54.181 25.4522 53.8395 25.4573 53.4217L25.2073 53.4186Z" fill="#1C1C1C"/>
<path d="M47.5447 73.2936C47.5447 77.0802 44.4311 80.1504 40.5905 80.1504C36.75 80.1504 33.3606 76.8269 33.3606 73.0402C32.9872 66.6523 36.75 66.4378 40.5905 66.4378C44.4311 66.4378 47.7556 66.7701 47.5447 73.2947V73.2936Z" fill="#FF9500" stroke="#1C1C1C" stroke-width="0.5" stroke-miterlimit="10"/>
<path d="M40.427 77.3925C44.3441 77.3925 47.5191 74.1644 47.5191 70.1822C47.5191 66.2 44.3441 62.9718 40.427 62.9718C36.5099 62.9718 33.335 66.2 33.335 70.1822C33.335 74.1644 36.5099 77.3925 40.427 77.3925Z" fill="#FFE2C8" stroke="#1C1C1C" stroke-width="0.5" stroke-miterlimit="10"/>
<path d="M41.8065 69.1185C42.5863 68.7226 43.12 67.9132 43.12 66.979C43.12 65.6547 42.0468 64.5802 40.7214 64.5802C39.3961 64.5802 38.3229 65.6535 38.3229 66.979C38.3229 67.9132 38.8577 68.7226 39.6364 69.1185C38.0578 69.5756 36.8927 71.0059 36.8338 72.7178L36.8204 73.8002C36.8135 74.3573 37.2632 74.8126 37.8203 74.8126H43.6091C44.1614 74.8126 44.6091 74.3648 44.6091 73.8126V72.7178C44.549 71.0059 43.3851 69.5756 41.8065 69.1185Z" fill="#FF9500"/>
<path d="M41.8065 69.1185L41.6933 68.8956C41.6018 68.942 41.5479 69.0397 41.5576 69.142C41.5672 69.2442 41.6383 69.3301 41.7369 69.3586L41.8065 69.1185ZM39.6364 69.1185L39.706 69.3586C39.8045 69.3301 39.8757 69.2442 39.8853 69.142C39.895 69.0399 39.8412 68.9422 39.7497 68.8957L39.6364 69.1185ZM36.8338 72.7178L36.5839 72.7092L36.5838 72.7147L36.8338 72.7178ZM44.6091 72.7178H44.8593L44.859 72.709L44.6091 72.7178ZM41.8065 69.1185L41.9196 69.3414C42.7803 68.9046 43.37 68.0109 43.37 66.979H43.12H42.87C42.87 67.8156 42.3924 68.5407 41.6933 68.8956L41.8065 69.1185ZM43.12 66.979H43.37C43.37 65.5167 42.185 64.3302 40.7214 64.3302V64.5802V64.8302C41.9086 64.8302 42.87 65.7927 42.87 66.979H43.12ZM40.7214 64.5802V64.3302C39.258 64.3302 38.0729 65.5155 38.0729 66.979H38.3229H38.5729C38.5729 65.7916 39.5342 64.8302 40.7214 64.8302V64.5802ZM38.3229 66.979H38.0729C38.0729 68.0111 38.6639 68.9046 39.5231 69.3414L39.6364 69.1185L39.7497 68.8957C39.0515 68.5407 38.5729 67.8154 38.5729 66.979H38.3229ZM39.6364 69.1185L39.5669 68.8784C37.8869 69.3648 36.6466 70.8867 36.5839 72.7092L36.8338 72.7178L37.0836 72.7264C37.1387 71.1251 38.2287 69.7864 39.706 69.3586L39.6364 69.1185ZM36.8338 72.7178L36.5838 72.7147L36.5704 73.7971L36.8204 73.8002L37.0704 73.8033L37.0838 72.7209L36.8338 72.7178ZM37.8203 74.8126V75.0626H43.6091V74.8126V74.5626H37.8203V74.8126ZM44.6091 73.8126H44.8591V72.7178H44.6091H44.3591V73.8126H44.6091ZM44.6091 72.7178L44.859 72.709C44.795 70.8868 43.5561 69.3649 41.876 68.8784L41.8065 69.1185L41.7369 69.3586C43.2141 69.7864 44.3031 71.125 44.3593 72.7266L44.6091 72.7178ZM43.6091 74.8126V75.0626C44.2995 75.0626 44.8591 74.5029 44.8591 73.8126H44.6091H44.3591C44.3591 74.2268 44.0233 74.5626 43.6091 74.5626V74.8126ZM36.8204 73.8002L36.5704 73.7971C36.5618 74.4934 37.1239 75.0626 37.8203 75.0626V74.8126V74.5626C37.4025 74.5626 37.0652 74.2211 37.0704 73.8033L36.8204 73.8002Z" fill="#1C1C1C"/>
<path d="M68.3169 73.2936C68.3169 77.0802 65.2033 80.1504 61.3627 80.1504C57.5222 80.1504 54.1329 76.8269 54.1329 73.0402C53.7594 66.6523 57.5222 66.4378 61.3627 66.4378C65.2033 66.4378 68.5278 66.7701 68.3169 73.2947V73.2936Z" fill="#FF9500" stroke="#1C1C1C" stroke-width="0.5" stroke-miterlimit="10"/>
<path d="M61.1992 77.3925C65.1163 77.3925 68.2913 74.1644 68.2913 70.1822C68.2913 66.2 65.1163 62.9718 61.1992 62.9718C57.2821 62.9718 54.1072 66.2 54.1072 70.1822C54.1072 74.1644 57.2821 77.3925 61.1992 77.3925Z" fill="#FFE2C8" stroke="#1C1C1C" stroke-width="0.5" stroke-miterlimit="10"/>
<path d="M62.3004 68.8841C63.0802 68.4883 63.6139 67.6789 63.6139 66.7446C63.6139 65.4203 62.5407 64.3459 61.2153 64.3459C59.89 64.3459 58.8168 65.4192 58.8168 66.7446C58.8168 67.6789 59.3516 68.4883 60.1303 68.8841C58.5517 69.3413 57.3866 70.7715 57.3277 72.4834L57.3143 73.5658C57.3074 74.1229 57.7571 74.5782 58.3142 74.5782H64.103C64.6553 74.5782 65.103 74.1305 65.103 73.5782V72.4834C65.0429 70.7715 63.879 69.3413 62.3004 68.8841Z" fill="#FF9500"/>
<path d="M62.3004 68.8841L62.1872 68.6612C62.0957 68.7077 62.0418 68.8054 62.0515 68.9076C62.0611 69.0098 62.1322 69.0957 62.2308 69.1243L62.3004 68.8841ZM60.1303 68.8841L60.1999 69.1243C60.2984 69.0957 60.3696 69.0098 60.3792 68.9077C60.3889 68.8055 60.3351 68.7078 60.2436 68.6613L60.1303 68.8841ZM57.3277 72.4834L57.0778 72.4748L57.0777 72.4803L57.3277 72.4834ZM65.103 72.4834H65.3532L65.3529 72.4746L65.103 72.4834ZM62.3004 68.8841L62.4135 69.1071C63.2742 68.6702 63.8639 67.7765 63.8639 66.7446H63.6139H63.3639C63.3639 67.5812 62.8863 68.3063 62.1872 68.6612L62.3004 68.8841ZM63.6139 66.7446H63.8639C63.8639 65.2824 62.6789 64.0959 61.2153 64.0959V64.3459V64.5959C62.4025 64.5959 63.3639 65.5583 63.3639 66.7446H63.6139ZM61.2153 64.3459V64.0959C59.7519 64.0959 58.5668 65.2811 58.5668 66.7446H58.8168H59.0668C59.0668 65.5572 60.0281 64.5959 61.2153 64.5959V64.3459ZM58.8168 66.7446H58.5668C58.5668 67.7767 59.1578 68.6702 60.017 69.107L60.1303 68.8841L60.2436 68.6613C59.5454 68.3063 59.0668 67.581 59.0668 66.7446H58.8168ZM60.1303 68.8841L60.0608 68.644C58.3808 69.1305 57.1405 70.6523 57.0778 72.4748L57.3277 72.4834L57.5775 72.492C57.6326 70.8908 58.7226 69.552 60.1999 69.1243L60.1303 68.8841ZM57.3277 72.4834L57.0777 72.4803L57.0643 73.5627L57.3143 73.5658L57.5643 73.5689L57.5777 72.4865L57.3277 72.4834ZM58.3142 74.5782V74.8282H64.103V74.5782V74.3282H58.3142V74.5782ZM65.103 73.5782H65.353V72.4834H65.103H64.853V73.5782H65.103ZM65.103 72.4834L65.3529 72.4746C65.2889 70.6524 64.05 69.1305 62.3699 68.644L62.3004 68.8841L62.2308 69.1243C63.708 69.552 64.797 70.8907 64.8532 72.4922L65.103 72.4834ZM64.103 74.5782V74.8282C64.7934 74.8282 65.353 74.2685 65.353 73.5782H65.103H64.853C64.853 73.9924 64.5172 74.3282 64.103 74.3282V74.5782ZM57.3143 73.5658L57.0643 73.5627C57.0557 74.2591 57.6178 74.8282 58.3142 74.8282V74.5782V74.3282C57.8964 74.3282 57.5591 73.9867 57.5643 73.5689L57.3143 73.5658Z" fill="#1C1C1C"/>
<path d="M79.0071 53.1465C79.0071 56.9331 75.8935 60.0034 72.0529 60.0034C68.2124 60.0034 64.823 56.6798 64.823 52.8932C64.4496 46.5052 68.2124 46.2908 72.0529 46.2908C75.8935 46.2908 79.218 46.623 79.0071 53.1477V53.1465Z" fill="#FF9500" stroke="#1C1C1C" stroke-width="0.5" stroke-miterlimit="10"/>
<path d="M71.8894 57.2455C75.8065 57.2455 78.9815 54.0174 78.9815 50.0352C78.9815 46.053 75.8065 42.8248 71.8894 42.8248C67.9723 42.8248 64.7974 46.053 64.7974 50.0352C64.7974 54.0174 67.9723 57.2455 71.8894 57.2455Z" fill="#FFE2C8" stroke="#1C1C1C" stroke-width="0.5" stroke-miterlimit="10"/>
<path d="M72.9905 48.7369C73.7704 48.3411 74.3041 47.5317 74.3041 46.5974C74.3041 45.2732 73.2309 44.1987 71.9055 44.1987C70.5802 44.1987 69.507 45.272 69.507 46.5974C69.507 47.5317 70.0418 48.3411 70.8205 48.7369C69.2419 49.1941 68.0768 50.6244 68.0179 52.3362L68.0045 53.4186C67.9976 53.9757 68.4473 54.431 69.0044 54.431H74.7932C75.3455 54.431 75.7932 53.9833 75.7932 53.431V52.3362C75.7331 50.6244 74.5692 49.1941 72.9905 48.7369Z" fill="#FF9500"/>
<path d="M72.9905 48.7369L72.8774 48.514C72.7858 48.5605 72.732 48.6582 72.7416 48.7604C72.7513 48.8626 72.8224 48.9485 72.921 48.9771L72.9905 48.7369ZM70.8205 48.7369L70.8901 48.9771C70.9886 48.9485 71.0598 48.8626 71.0694 48.7605C71.0791 48.6583 71.0253 48.5606 70.9338 48.5141L70.8205 48.7369ZM68.0179 52.3362L67.7679 52.3276L67.7679 52.3331L68.0179 52.3362ZM75.7932 52.3362H76.0433L76.043 52.3275L75.7932 52.3362ZM72.9905 48.7369L73.1037 48.9599C73.9644 48.523 74.5541 47.6294 74.5541 46.5974H74.3041H74.0541C74.0541 47.434 73.5765 48.1592 72.8774 48.514L72.9905 48.7369ZM74.3041 46.5974H74.5541C74.5541 45.1352 73.369 43.9487 71.9055 43.9487V44.1987V44.4487C73.0927 44.4487 74.0541 45.4111 74.0541 46.5974H74.3041ZM71.9055 44.1987V43.9487C70.4421 43.9487 69.257 45.1339 69.257 46.5974H69.507H69.757C69.757 45.41 70.7183 44.4487 71.9055 44.4487V44.1987ZM69.507 46.5974H69.257C69.257 47.6295 69.848 48.523 70.7072 48.9598L70.8205 48.7369L70.9338 48.5141C70.2356 48.1591 69.757 47.4338 69.757 46.5974H69.507ZM70.8205 48.7369L70.751 48.4968C69.071 48.9833 67.8307 50.5051 67.768 52.3276L68.0179 52.3362L68.2677 52.3448C68.3228 50.7436 69.4128 49.4049 70.8901 48.9771L70.8205 48.7369ZM68.0179 52.3362L67.7679 52.3331L67.7545 53.4155L68.0045 53.4186L68.2544 53.4217L68.2678 52.3393L68.0179 52.3362ZM69.0044 54.431V54.681H74.7932V54.431V54.181H69.0044V54.431ZM75.7932 53.431H76.0432V52.3362H75.7932H75.5432V53.431H75.7932ZM75.7932 52.3362L76.043 52.3275C75.9791 50.5052 74.7402 48.9833 73.0601 48.4968L72.9905 48.7369L72.921 48.9771C74.3981 49.4048 75.4871 50.7435 75.5433 52.345L75.7932 52.3362ZM74.7932 54.431V54.681C75.4836 54.681 76.0432 54.1214 76.0432 53.431H75.7932H75.5432C75.5432 53.8452 75.2074 54.181 74.7932 54.181V54.431ZM68.0045 53.4186L67.7545 53.4155C67.7459 54.1119 68.308 54.681 69.0044 54.681V54.431V54.181C68.5866 54.181 68.2493 53.8395 68.2544 53.4217L68.0045 53.4186Z" fill="#1C1C1C"/>
</svg>
