<svg width="102" height="102" viewBox="0 0 102 102" fill="none" xmlns="http://www.w3.org/2000/svg">
<rect x="0.5" y="0.5" width="101" height="101" rx="4.5" stroke="#8A38F5" stroke-dasharray="10 5"/>
<path d="M69.1707 34.7845H35.2185C33.5617 34.7845 32.2185 36.1276 32.2185 37.7845V62.204H72.1707V37.7845C72.1707 36.1276 70.8275 34.7845 69.1707 34.7845Z" fill="#4169E1" stroke="#1C1C1C" stroke-width="0.5" stroke-miterlimit="10"/>
<path d="M76.4649 65.6693C76.5378 65.7287 76.4958 65.8468 76.4017 65.8468H27.9848C27.8907 65.8468 27.8487 65.7287 27.9216 65.6693L31.945 62.389C32.1234 62.2435 32.3466 62.1641 32.5769 62.1641H71.8096C72.0398 62.1641 72.263 62.2435 72.4415 62.389L76.4649 65.6693Z" fill="#E8EDFA" stroke="#1C1C1C" stroke-width="0.5" stroke-miterlimit="10"/>
<path d="M66.2192 61.5223C66.2192 68.8908 60.16 74.8643 52.6855 74.8643C45.2109 74.8643 38.6152 68.3967 38.6152 61.0282C37.8895 48.5978 45.2109 48.1803 52.6855 48.1803C60.16 48.1803 66.6297 48.8257 66.2192 61.5223Z" fill="#FF9500" stroke="#1C1C1C" stroke-width="0.5" stroke-miterlimit="10"/>
<path d="M52.5181 71.8261C60.1403 71.8261 66.3192 65.5449 66.3192 57.7967C66.3192 50.0485 60.1403 43.7673 52.5181 43.7673C44.896 43.7673 38.717 50.0485 38.717 57.7967C38.717 65.5449 44.896 71.8261 52.5181 71.8261Z" fill="#FFE2C8" stroke="#1C1C1C" stroke-width="0.5" stroke-miterlimit="10"/>
<path d="M52.4012 68.668C58.4052 68.668 63.2724 63.8008 63.2724 57.7967C63.2724 51.7927 58.4052 46.9255 52.4012 46.9255C46.3971 46.9255 41.5299 51.7927 41.5299 57.7967C41.5299 63.8008 46.3971 68.668 52.4012 68.668Z" fill="#FF9500" stroke="#1C1C1C" stroke-width="0.5" stroke-miterlimit="10"/>
<path d="M53.0753 52.6953C52.9823 52.5004 52.6968 52.493 52.5938 52.6828C51.4544 54.7826 49.6608 56.4807 47.4859 57.5227C47.292 57.6156 47.2846 57.8992 47.4735 58.0021C49.5913 59.1555 51.2944 60.9444 52.3234 63.1004C52.4164 63.2953 52.7019 63.3027 52.8049 63.1129C53.9444 61.0131 55.738 59.315 57.9128 58.273C58.1068 58.1801 58.1141 57.8965 57.9253 57.7937C55.8074 56.6403 54.1043 54.8514 53.0753 52.6953Z" fill="#1C1C1C" stroke="#1C1C1C" stroke-width="0.5" stroke-miterlimit="10" stroke-linejoin="round"/>
<path d="M76.4345 65.848H27.9557C27.8176 65.848 27.7057 65.9599 27.7057 66.098V74.6019C27.7057 76.2588 29.0488 77.6019 30.7057 77.6019H73.6845C75.3413 77.6019 76.6845 76.2588 76.6845 74.6019V66.098C76.6845 65.9599 76.5725 65.848 76.4345 65.848Z" fill="#4169E1" stroke="#1C1C1C" stroke-width="0.5" stroke-miterlimit="10"/>
<path d="M41.2405 65.848H31.0901V68.2004C31.0901 69.8572 32.4332 71.2004 34.0901 71.2004H38.2405C39.8974 71.2004 41.2405 69.8572 41.2405 68.2004V65.848Z" fill="#FF9500" stroke="#1C1C1C" stroke-width="0.5" stroke-miterlimit="10"/>
<path d="M73.0416 65.848H62.8911V68.2004C62.8911 69.8572 64.2343 71.2004 65.8911 71.2004H70.0416C71.6984 71.2004 73.0416 69.8572 73.0416 68.2004V65.848Z" fill="#FF9500" stroke="#1C1C1C" stroke-width="0.5" stroke-miterlimit="10"/>
<path d="M56.4522 74.8508H48.0011C46.7277 74.8508 45.692 73.7369 45.692 72.3694V71.0742C45.692 70.8659 45.5726 70.7514 45.5339 70.7514H44.6165C44.0228 70.7514 43.541 70.2679 43.541 69.6721C43.541 69.0763 44.0228 68.5928 44.6165 68.5928H45.5339C46.8073 68.5928 47.843 69.7066 47.843 71.0742V72.3694C47.843 72.5777 47.9623 72.6921 48.0011 72.6921H56.4522C56.492 72.6921 56.6103 72.5777 56.6103 72.3694V71.0742C56.6103 69.7056 57.646 68.5928 58.9194 68.5928H59.7798C60.3735 68.5928 60.8553 69.0763 60.8553 69.6721C60.8553 70.2679 60.3735 70.7514 59.7798 70.7514H58.9194C58.8796 70.7514 58.7613 70.8659 58.7613 71.0742V72.3694C58.7613 73.738 57.7256 74.8508 56.4522 74.8508Z" fill="#FF9500" stroke="#1C1C1C" stroke-width="0.5" stroke-miterlimit="10"/>
<path d="M34.4884 45.3208C39.5544 45.3208 43.6612 41.214 43.6612 36.148C43.6612 31.082 39.5544 26.9752 34.4884 26.9752C29.4224 26.9752 25.3156 31.082 25.3156 36.148C25.3156 41.214 29.4224 45.3208 34.4884 45.3208Z" fill="#E8EDFA" stroke="#1C1C1C" stroke-width="0.5" stroke-linejoin="round"/>
<path d="M34.4884 42.7437C39.5544 42.7437 43.6612 38.6368 43.6612 33.5708C43.6612 28.5048 39.5544 24.398 34.4884 24.398C29.4224 24.398 25.3156 28.5048 25.3156 33.5708C25.3156 38.6368 29.4224 42.7437 34.4884 42.7437Z" fill="white" stroke="#1C1C1C" stroke-width="0.5" stroke-linejoin="round"/>
<path d="M39.411 32.4393H38.821C38.7114 32.0118 38.5401 31.6115 38.317 31.2452L38.7411 30.8201C38.8556 30.7056 38.9187 30.5529 38.9187 30.3907C38.9187 30.2285 38.8552 30.0758 38.7411 29.9616L38.0343 29.2555C37.8051 29.026 37.4045 29.0263 37.1762 29.2552L36.7341 29.6945C36.372 29.4835 35.9838 29.3207 35.556 29.2161V28.5849C35.556 28.2501 35.2885 27.9749 34.9538 27.9749H33.9546C33.6198 27.9749 33.3564 28.2502 33.3564 28.5849V29.216C32.9289 29.3203 32.5382 29.4832 32.1757 29.6945L31.7339 29.2552C31.5049 29.0257 31.104 29.026 30.8743 29.2549L30.1679 29.961C30.0547 30.0741 29.99 30.2305 29.99 30.3902C29.99 30.5498 30.0528 30.7045 30.1675 30.8191L30.5917 31.2452C30.3687 31.6115 30.1973 32.0118 30.0879 32.4393H29.4979C29.1629 32.4393 28.8925 32.7084 28.8925 33.0424V34.0409C28.8925 34.3759 29.1629 34.639 29.4979 34.639H30.0879C30.1974 35.0665 30.3685 35.4693 30.5912 35.8356L30.1671 36.2624C30.0523 36.3768 29.9895 36.5301 29.9895 36.6923C29.9895 36.8545 30.0526 37.0077 30.1671 37.1223L30.8739 37.8289C30.9887 37.9434 31.1409 38.0064 31.3029 38.0064C31.465 38.0064 31.6173 37.9433 31.7321 37.8289L32.1758 37.3894C32.5385 37.6007 32.9291 37.7634 33.3566 37.8682V38.4984C33.3566 38.8333 33.6199 39.1031 33.9547 39.1031H34.9539C35.2888 39.1031 35.5561 38.8333 35.5561 38.4984V37.8679C35.9839 37.7633 36.3721 37.6007 36.7348 37.3894L37.1747 37.828C37.2894 37.943 37.4419 38.0059 37.6044 38.0059C37.7668 38.0059 37.9193 37.9427 38.0338 37.8284L38.7406 37.1223C38.8551 37.0081 38.9178 36.8554 38.9182 36.6933C38.9182 36.5311 38.8548 36.3789 38.7406 36.2642L38.317 35.8357C38.5397 35.4692 38.7108 35.0662 38.8206 34.6392H39.4107C39.7455 34.6392 40.0207 34.376 40.0207 34.041V33.0426C40.0209 32.7086 39.7458 32.4393 39.411 32.4393ZM34.4538 35.4425C33.3941 35.4425 32.5347 34.5912 32.5347 33.5418C32.5347 32.4924 33.3941 31.6417 34.4538 31.6417C35.5136 31.6417 36.3737 32.4917 36.3737 33.5418C36.3734 34.5913 35.5138 35.4425 34.4538 35.4425Z" fill="#1C1C1C"/>
</svg>
