<svg width="102" height="102" viewBox="0 0 102 102" fill="none" xmlns="http://www.w3.org/2000/svg">
<rect x="0.5" y="0.5" width="101" height="101" rx="4.5" stroke="#8A38F5" stroke-dasharray="10 5"/>
<path d="M70.4879 33.3786C65.2973 28.1989 58.3961 25.3458 51.0541 25.3458C45.8836 25.3458 40.8441 26.7874 36.4823 29.5149C33.5727 31.3336 31.041 33.6702 29.008 36.3939C27.5898 35.5995 26.2408 34.9397 24.9988 34.3929C24.6235 36.277 24.3111 38.4703 24.1839 40.92C24.0939 42.6672 24.1107 44.2974 24.1937 45.7893C24.2644 47.0589 25.5359 47.8752 26.7181 47.4068C28.286 46.7857 29.9827 46.0056 31.7488 45.0212C33.2762 44.1695 34.195 43.4552 35.2166 42.6621C35.7134 42.2765 36.0101 41.6828 35.9707 41.0552C35.9054 40.0142 35.7593 38.7401 35.564 38.0548C35.0753 37.6752 33.8145 39.4846 33.2767 39.1012C34.899 37.0022 36.8866 35.1948 39.1576 33.7745C42.7171 31.5485 46.8308 30.3734 51.0554 30.3734C60.7034 30.3734 68.9491 36.4791 72.1158 45.0212C72.1393 45.0845 72.1615 45.1443 72.1825 45.2008C72.6413 46.4343 73.365 47.2325 74.6358 46.8904L75.8936 46.5517C76.7668 46.3166 77.3819 45.5201 77.3442 44.6166C77.0994 38.7596 75.2899 38.1679 70.4892 33.3773L70.4879 33.3786Z" fill="#FF9500" stroke="#1C1C1C" stroke-width="0.5" stroke-miterlimit="10" stroke-linejoin="round"/>
<path d="M70.4879 29.714C65.2973 24.5343 58.3961 21.6812 51.0541 21.6812C45.8836 21.6812 40.8441 23.1228 36.4823 25.8503C33.8231 27.5125 31.4795 29.6073 29.5439 32.0348C29.2309 32.4272 28.6811 32.5448 28.2387 32.3077C27.9049 32.1288 27.5755 31.9574 27.2511 31.7932C26.1098 31.2158 24.76 31.9179 24.5793 33.1841C24.3995 34.4439 24.2592 35.8047 24.1839 37.2554C24.0939 39.0026 24.1107 40.6328 24.1937 42.1247C24.2644 43.3943 25.5359 44.2106 26.7181 43.7422C28.286 43.1211 29.9827 42.341 31.7488 41.3566C32.8077 40.7662 33.7866 40.1606 34.6865 39.5581C35.7434 38.8504 35.7924 37.3397 34.787 36.5605C34.5684 36.391 34.345 36.221 34.1167 36.0506C33.6619 35.7111 33.5638 35.0628 33.9312 34.6302C35.4233 32.8731 37.1833 31.3459 39.1576 30.1112C42.7171 27.8852 46.8308 26.71 51.0554 26.71C60.7029 26.71 68.9483 32.8152 72.1154 41.3566C72.501 42.3965 72.7419 43.1002 72.8912 43.7816C73.2142 45.2558 74.7337 46.241 76.0659 45.5318L76.7854 45.1487C77.4379 44.8014 77.8515 44.1203 77.8244 43.3816C77.5895 36.9811 75.3847 34.5992 70.4892 29.714H70.4879Z" fill="#FFE2C8" stroke="#1C1C1C" stroke-width="0.5" stroke-miterlimit="10" stroke-linejoin="round"/>
<path d="M80.2962 41.0981C80.2962 46.6586 75.7237 51.1663 70.0831 51.1663C64.4424 51.1663 59.4651 46.2857 59.4651 40.7252C58.9174 31.3449 64.4424 31.0299 70.0831 31.0299C75.7237 31.0299 80.6059 31.517 80.2962 41.0981Z" fill="#FF9500" stroke="#1C1C1C" stroke-width="0.5" stroke-miterlimit="10"/>
<path d="M69.8413 48.4839C75.5932 48.4839 80.2561 43.744 80.2561 37.897C80.2561 32.05 75.5932 27.3101 69.8413 27.3101C64.0893 27.3101 59.4264 32.05 59.4264 37.897C59.4264 43.744 64.0893 48.4839 69.8413 48.4839Z" fill="#FFE2C8" stroke="#1C1C1C" stroke-width="0.5" stroke-miterlimit="10"/>
<path d="M69.8647 46.0918C74.3956 46.0918 78.0686 42.4188 78.0686 37.8881C78.0686 33.3573 74.3956 29.6843 69.8647 29.6843C65.3338 29.6843 61.6608 33.3573 61.6608 37.8881C61.6608 42.4188 65.3338 46.0918 69.8647 46.0918Z" fill="#FF9500" stroke="#1C1C1C" stroke-width="0.5" stroke-miterlimit="10"/>
<path d="M69.962 33.6487C69.8659 33.4553 69.5785 33.4479 69.4724 33.6359C68.631 35.1283 67.3482 36.3423 65.8009 37.1133C65.6084 37.2093 65.601 37.4946 65.7882 37.6004C67.2935 38.4506 68.5116 39.7296 69.2744 41.2636C69.3706 41.4569 69.658 41.4644 69.764 41.2763C70.6054 39.7839 71.8882 38.5699 73.4356 37.7989C73.6281 37.703 73.6355 37.4176 73.4482 37.3118C71.943 36.4616 70.7249 35.1826 69.962 33.6487Z" fill="#1C1C1C" stroke="#1C1C1C" stroke-width="0.5" stroke-miterlimit="10" stroke-linejoin="round"/>
<path d="M72.7606 68.7485C72.6956 69.5493 72.0419 70.1457 71.2502 70.2825L52.2429 73.5681C51.546 73.6885 50.8337 73.6896 50.1364 73.5714L30.7526 70.2836C29.9451 70.1466 29.2829 69.5319 29.2242 68.715C29.2076 68.4831 29.1985 68.2389 29.1995 67.9837C29.2001 67.8497 29.2035 67.7188 29.2092 67.5913C29.2515 66.6488 30.0894 65.9888 31.0328 65.9888H70.9689C71.8985 65.9888 72.73 66.6301 72.7781 67.5584C72.7852 67.6961 72.7894 67.8379 72.79 67.9837C72.7911 68.2521 72.7802 68.5075 72.7606 68.7485Z" fill="#E8EDFA" stroke="#1C1C1C" stroke-width="0.5" stroke-miterlimit="10" stroke-linejoin="round"/>
<path d="M55.2036 63.3934H46.8632C46.8692 60.6224 46.9448 57.7216 47.1081 54.7023C47.2542 52.0026 47.4605 49.4053 47.7115 46.9179H54.3544C54.6277 49.4465 54.8495 52.1092 54.9982 54.8974C55.1563 57.8652 55.2165 60.7023 55.2036 63.3934Z" fill="#E8EDFA" stroke="#1C1C1C" stroke-width="0.5" stroke-miterlimit="10" stroke-linejoin="round"/>
<path d="M56.9438 46.2259C56.8784 46.6474 56.4862 46.9166 56.0597 46.9166H45.9834C45.5645 46.9166 45.1769 46.657 45.1061 46.2442C45.0638 45.9976 45.0402 45.7128 45.0585 45.3988C45.0671 45.2532 45.0838 45.116 45.1058 44.9881C45.1765 44.5765 45.5632 44.3184 45.9808 44.3184H56.0615C56.4871 44.3184 56.8785 44.5867 56.9437 45.0073C56.9733 45.1982 56.9921 45.411 56.9907 45.642C56.9894 45.8534 56.9713 46.0489 56.9438 46.2259Z" fill="#4169E1" stroke="#1C1C1C" stroke-width="0.5" stroke-miterlimit="10" stroke-linejoin="round"/>
<path d="M56.9438 65.3007C56.8784 65.7222 56.4862 65.9914 56.0597 65.9914H45.9834C45.5645 65.9914 45.1769 65.7318 45.1061 65.3189C45.0638 65.0724 45.0402 64.7876 45.0585 64.4736C45.0671 64.3279 45.0838 64.1907 45.1058 64.0628C45.1765 63.6512 45.5632 63.3932 45.9808 63.3932H56.0615C56.4871 63.3932 56.8785 63.6615 56.9437 64.0821C56.9733 64.273 56.9921 64.4857 56.9907 64.7168C56.9894 64.9282 56.9713 65.1237 56.9438 65.3007Z" fill="#4169E1" stroke="#1C1C1C" stroke-width="0.5" stroke-miterlimit="10" stroke-linejoin="round"/>
<path d="M41.6672 63.3934H33.3268C33.3328 60.6224 33.4084 57.7216 33.5717 54.7023C33.7178 52.0026 33.9241 49.4053 34.1751 46.9179H40.818C41.0914 49.4465 41.3131 52.1092 41.4618 54.8974C41.6199 57.8652 41.6801 60.7023 41.6672 63.3934Z" fill="#E8EDFA" stroke="#1C1C1C" stroke-width="0.5" stroke-miterlimit="10" stroke-linejoin="round"/>
<path d="M43.4074 46.2259C43.342 46.6474 42.9498 46.9166 42.5233 46.9166H32.4471C32.0281 46.9166 31.6406 46.657 31.5697 46.2442C31.5275 45.9976 31.5039 45.7128 31.5221 45.3988C31.5307 45.2532 31.5474 45.116 31.5694 44.9881C31.6401 44.5765 32.0268 44.3184 32.4445 44.3184H42.5252C42.9508 44.3184 43.3421 44.5867 43.4073 45.0073C43.437 45.1982 43.4557 45.411 43.4543 45.642C43.453 45.8534 43.4349 46.0489 43.4074 46.2259Z" fill="#4169E1" stroke="#1C1C1C" stroke-width="0.5" stroke-miterlimit="10" stroke-linejoin="round"/>
<path d="M43.4074 65.3007C43.342 65.7222 42.9498 65.9914 42.5233 65.9914H32.4471C32.0281 65.9914 31.6406 65.7318 31.5697 65.3189C31.5275 65.0724 31.5039 64.7876 31.5221 64.4736C31.5307 64.3279 31.5474 64.1907 31.5694 64.0628C31.6401 63.6512 32.0268 63.3932 32.4445 63.3932H42.5252C42.9508 63.3932 43.3421 63.6615 43.4073 64.0821C43.437 64.273 43.4557 64.4857 43.4543 64.7168C43.453 64.9282 43.4349 65.1237 43.4074 65.3007Z" fill="#4169E1" stroke="#1C1C1C" stroke-width="0.5" stroke-miterlimit="10" stroke-linejoin="round"/>
<path d="M68.7325 63.3934H60.3921C60.3981 60.6224 60.4737 57.7216 60.637 54.7023C60.7832 52.0026 60.9894 49.4053 61.2404 46.9179H67.8834C68.1567 49.4465 68.3784 52.1092 68.5271 54.8974C68.6853 57.8652 68.7454 60.7023 68.7325 63.3934Z" fill="#E8EDFA" stroke="#1C1C1C" stroke-width="0.5" stroke-miterlimit="10" stroke-linejoin="round"/>
<path d="M70.4803 46.226C70.4149 46.6475 70.0227 46.9167 69.5962 46.9167H59.5199C59.101 46.9167 58.7134 46.6571 58.6426 46.2442C58.6003 45.9977 58.5767 45.7129 58.595 45.3989C58.6036 45.2532 58.6203 45.116 58.6423 44.9881C58.713 44.5765 59.0997 44.3185 59.5173 44.3185H69.598C70.0236 44.3185 70.415 44.5868 70.4802 45.0074C70.5098 45.1983 70.5286 45.411 70.5272 45.6421C70.5259 45.8535 70.5078 46.049 70.4803 46.226Z" fill="#4169E1" stroke="#1C1C1C" stroke-width="0.5" stroke-miterlimit="10" stroke-linejoin="round"/>
<path d="M70.4803 65.3007C70.4149 65.7222 70.0227 65.9914 69.5962 65.9914H59.5199C59.101 65.9914 58.7134 65.7318 58.6426 65.3189C58.6003 65.0724 58.5767 64.7876 58.595 64.4736C58.6036 64.3279 58.6203 64.1907 58.6423 64.0628C58.713 63.6512 59.0997 63.3932 59.5173 63.3932H69.598C70.0236 63.3932 70.415 63.6615 70.4802 64.0821C70.5098 64.273 70.5286 64.4857 70.5272 64.7168C70.5259 64.9282 70.5078 65.1237 70.4803 65.3007Z" fill="#4169E1" stroke="#1C1C1C" stroke-width="0.5" stroke-miterlimit="10" stroke-linejoin="round"/>
<path d="M72.6845 39.4696C72.6384 38.8759 72.3066 38.345 71.8059 38.0227C69.081 36.2691 66.1233 34.4945 62.9315 32.747C59.6609 30.9565 56.4936 29.3864 53.4709 28.0077C51.9165 27.2987 50.1319 27.2988 48.5776 28.0079C45.5551 29.3869 42.3874 30.9574 39.1169 32.7479C35.925 34.4946 32.968 36.2692 30.2432 38.0228C29.7426 38.345 29.4108 38.8759 29.365 39.4695C29.3211 40.0387 29.2937 40.644 29.2904 41.2817C29.2881 41.7125 29.2967 42.1289 29.3142 42.5299C29.3586 43.5455 30.2221 44.308 31.2386 44.308H70.8115C71.828 44.308 72.6916 43.5455 72.7359 42.5299C72.7534 42.1289 72.762 41.7125 72.7597 41.2817C72.7564 40.6443 72.7287 40.0391 72.6845 39.4696Z" fill="#E8EDFA" stroke="#1C1C1C" stroke-width="0.5" stroke-miterlimit="10" stroke-linejoin="round"/>
<path d="M51.0342 41.1388C53.3379 41.1388 55.2053 39.2714 55.2053 36.9678C55.2053 34.6641 53.3379 32.7967 51.0342 32.7967C48.7306 32.7967 46.8632 34.6641 46.8632 36.9678C46.8632 39.2714 48.7306 41.1388 51.0342 41.1388Z" fill="#E8EDFA" stroke="#1C1C1C" stroke-width="0.5" stroke-miterlimit="10" stroke-linejoin="round"/>
<path d="M76.2957 61.0361C74.0827 61.5326 71.4754 62.303 68.6628 63.5273C67.8554 63.8792 65.1694 62.4504 64.4452 62.8186C64.1454 63.4609 64.4238 66.0803 64.4452 66.4825C65.3143 67.3975 65.2784 68.1376 66.3868 69.1167C62.2844 72.9414 56.8242 75.1636 51.0529 75.1636C38.6764 75.1636 28.6087 65.116 28.6087 52.767L26.4022 58.4223C26.4022 65.7475 26.4297 66.98 31.6203 72.1596C36.811 77.3393 43.7121 80.1924 51.0541 80.1924C58.1091 80.1924 64.7583 77.4953 69.7733 72.8448C70.1279 72.5161 70.6639 72.4712 71.0642 72.7425C71.4474 73.0023 71.8255 73.2502 72.1975 73.4869C73.2767 74.1734 74.6894 73.6073 74.9939 72.365C75.2969 71.1291 75.5703 69.789 75.7881 68.3525C76.2025 65.6162 76.3209 63.1452 76.297 61.0386L76.2957 61.0361Z" fill="#FF9500" stroke="#1C1C1C" stroke-width="0.5" stroke-miterlimit="10" stroke-linejoin="round"/>
<path d="M76.257 59.8403C76.3114 58.5696 75.1259 57.6317 73.9032 57.9817C72.2817 58.4459 70.5168 59.0557 68.6627 59.8627C67.5505 60.3465 66.5167 60.8531 65.5618 61.3648C64.4407 61.9654 64.2446 63.4637 65.1683 64.338C65.3 64.4627 65.4336 64.5878 65.5693 64.7133C66.0028 65.1142 66.0138 65.8025 65.5627 66.1835C61.5671 69.5587 56.4458 71.4991 51.0528 71.4991C44.7416 71.4991 39.0307 68.8863 34.949 64.688C31.9622 61.6157 29.9367 60.3621 29.1403 57.267C28.7887 55.9003 27.1067 55.1219 26.0352 56.0403C25.669 56.3541 25.4569 56.8151 25.4622 57.2973C25.5338 63.8281 26.6169 63.5023 31.6203 68.4951C36.8109 73.6748 43.7121 76.5279 51.0541 76.5279C58.1091 76.5279 64.7582 73.8308 69.7732 69.1803C70.1278 68.8515 70.6639 68.8067 71.0641 69.078C71.4473 69.3377 71.8254 69.5857 72.1975 69.8223C73.2767 70.5088 74.6893 69.9427 74.9939 68.7004C75.2968 67.4645 75.5703 66.1245 75.7881 64.688C76.05 62.9583 76.1932 61.3336 76.257 59.8403Z" fill="#FFE2C8" stroke="#1C1C1C" stroke-width="0.5" stroke-miterlimit="10" stroke-linejoin="round"/>
<path d="M42.5487 64.6742C42.5487 70.2346 37.9762 74.7424 32.3356 74.7424C26.695 74.7424 21.7176 69.8617 21.7176 64.3013C21.17 54.921 26.695 54.606 32.3356 54.606C37.9762 54.606 42.8585 55.093 42.5487 64.6742Z" fill="#FF9500" stroke="#1C1C1C" stroke-width="0.5" stroke-miterlimit="10"/>
<path d="M32.0949 72.0573C37.8469 72.0573 42.5098 67.3174 42.5098 61.4704C42.5098 55.6234 37.8469 50.8834 32.0949 50.8834C26.3429 50.8834 21.6801 55.6234 21.6801 61.4704C21.6801 67.3174 26.3429 72.0573 32.0949 72.0573Z" fill="#FFE2C8" stroke="#1C1C1C" stroke-width="0.5" stroke-miterlimit="10"/>
<path d="M32.1183 69.6651C36.6492 69.6651 40.3222 65.9921 40.3222 61.4614C40.3222 56.9306 36.6492 53.2576 32.1183 53.2576C27.5874 53.2576 23.9144 56.9306 23.9144 61.4614C23.9144 65.9921 27.5874 69.6651 32.1183 69.6651Z" fill="#FF9500" stroke="#1C1C1C" stroke-width="0.5" stroke-miterlimit="10"/>
<path d="M32.1279 57.2901C32.0318 57.0968 31.7444 57.0893 31.6383 57.2774C30.7969 58.7698 29.5141 59.9838 27.9668 60.7548C27.7743 60.8507 27.7668 61.1361 27.9541 61.2419C29.4594 62.0921 30.6775 63.3711 31.4403 64.905C31.5365 65.0984 31.8239 65.1058 31.9299 64.9178C32.7713 63.4254 34.0541 62.2114 35.6015 61.4404C35.794 61.3444 35.8014 61.0591 35.6141 60.9533C34.1088 60.1031 32.8908 58.8241 32.1279 57.2901Z" fill="#1C1C1C" stroke="#1C1C1C" stroke-width="0.5" stroke-miterlimit="10" stroke-linejoin="round"/>
</svg>
