<svg width="102" height="102" viewBox="0 0 102 102" fill="none" xmlns="http://www.w3.org/2000/svg">
<rect x="0.5" y="0.5" width="101" height="101" rx="4.5" stroke="#9747FF" stroke-dasharray="10 5"/>
<path d="M49.6113 44.8779C50.8502 48.088 49.2568 51.6952 46.0495 52.9414L36.3873 56.6957C33.1696 57.946 29.5482 56.3464 28.3053 53.1259L23.0831 39.5945C20.8094 33.7033 23.7361 27.055 29.6075 24.7736C35.4789 22.4922 42.1051 25.4288 44.3788 31.3199L49.6113 44.8779ZM30.5293 48.0739C31.7721 51.2944 35.3935 52.894 38.6112 51.6438L41.0145 50.71C44.2218 49.4638 45.8151 45.8566 44.5763 42.6465L40.7493 32.7302C39.2505 28.8471 34.8832 26.9114 31.0131 28.4153C27.143 29.9192 25.2137 34.3011 26.7126 38.1842L30.5293 48.0739Z" fill="#FF9500" stroke="#1C1C1C" stroke-width="0.5" stroke-miterlimit="10" stroke-linejoin="round"/>
<path d="M54.1962 42.779C52.8728 40.4649 50.1348 39.3276 47.582 40.0957C43.6821 41.269 40.2882 42.5543 37.053 43.811C36.9905 43.8355 36.9279 43.86 36.8654 43.8844C36.8028 43.9089 36.7403 43.9323 36.6778 43.9568C33.4176 45.2232 29.837 46.7675 26.0407 48.6529C23.6612 49.8345 22.4167 52.5043 23.1126 55.0683C23.7459 57.402 24.5421 59.9059 25.5476 62.531C26.7513 65.6714 28.0627 68.4843 29.3675 70.9605C30.3611 72.8463 32.3506 74.0007 34.4755 73.8315C37.6918 73.5755 41.8462 72.887 46.4373 71.1842C46.7214 71.0789 47.0002 70.9714 47.2768 70.8619C47.5546 70.7555 47.8334 70.6471 48.1132 70.5333C52.6602 68.6851 56.1991 66.3807 58.7494 64.3936C60.4236 63.0891 61.1138 60.9068 60.5858 58.8512C59.8879 56.1337 58.968 53.1621 57.7466 50.0202C56.7191 47.3766 55.4414 44.9563 54.1962 42.779Z" fill="#FF9500" stroke="#1C1C1C" stroke-width="0.5" stroke-miterlimit="10" stroke-linejoin="round"/>
<path d="M53.1318 39.7153C51.8084 37.4012 49.0704 36.264 46.5176 37.032C42.6177 38.2053 39.2239 39.4906 35.9886 40.7474C35.9261 40.7718 35.8635 40.7963 35.801 40.8208C35.7384 40.8452 35.6759 40.8686 35.6134 40.8931C32.3532 42.1596 28.7726 43.7038 24.9763 45.5892C22.5968 46.7709 21.3523 49.4407 22.0482 52.0046C22.6815 54.3384 23.4777 56.8423 24.4832 59.4673C25.6869 62.6077 26.9983 65.4206 28.3031 67.8968C29.2967 69.7827 31.2862 70.937 33.4111 70.7679C36.6274 70.5118 40.7818 69.8234 45.3729 68.1205C45.657 68.0152 45.9358 67.9078 46.2125 67.7982C46.4902 67.6919 46.769 67.5834 47.0488 67.4696C51.5958 65.6214 55.1347 63.317 57.685 61.3299C59.3592 60.0254 60.0494 57.8431 59.5214 55.7875C58.8235 53.07 57.9036 50.0984 56.6822 46.9565C55.6547 44.3129 54.377 41.8927 53.1318 39.7153Z" fill="#FFE2C8" stroke="#1C1C1C" stroke-width="0.5" stroke-miterlimit="10" stroke-linejoin="round"/>
<path d="M40.7874 63.6067C45.835 63.6067 49.9268 59.5011 49.9268 54.4366C49.9268 49.372 45.835 45.2664 40.7874 45.2664C35.7398 45.2664 31.6479 49.372 31.6479 54.4366C31.6479 59.5011 35.7398 63.6067 40.7874 63.6067Z" fill="#FF9500" stroke="#1C1C1C" stroke-width="0.5" stroke-miterlimit="10" stroke-linejoin="round"/>
<path d="M44.9943 58.4834C45.1274 58.9117 44.9558 59.3783 44.5629 59.5947C44.1048 59.8471 43.5758 60.1012 42.9782 60.3298C42.4344 60.5377 41.9196 60.6914 41.4492 60.8058C41.0086 60.9129 40.5627 60.6792 40.3741 60.2669C39.6458 58.6745 38.9237 56.9685 38.2282 55.1502C37.5942 53.4914 37.0431 51.8984 36.5626 50.3868C36.4284 49.9645 36.5902 49.5016 36.9747 49.2813C37.3964 49.0397 37.8858 48.7953 38.4413 48.5752C39.0481 48.3355 39.6183 48.1706 40.1272 48.0565C40.5581 47.9599 40.989 48.1906 41.1754 48.5911C41.8702 50.0835 42.5609 51.69 43.2252 53.407C43.9146 55.1889 44.4988 56.8885 44.9943 58.4834Z" fill="#1C1C1C" stroke="#1C1C1C" stroke-width="0.5" stroke-miterlimit="10" stroke-linejoin="round"/>
<path d="M79.7343 47.9531C79.7349 47.9531 79.7354 47.9527 79.7355 47.9521C80.0711 46.4009 80.3351 44.9099 80.5414 43.4899C80.8891 41.0968 79.5079 38.8078 77.2437 37.9585C75.3577 37.2511 73.3297 36.5651 71.1651 35.9305C69.116 35.3301 67.145 34.8343 65.2697 34.4245C62.6463 33.8512 59.9816 35.1693 58.8977 37.6261C58.3889 38.7793 57.89 40.0016 57.4125 41.292C56.7837 42.9911 56.3349 44.368 55.9712 45.6671C55.3346 47.9405 56.3701 50.3694 58.5244 51.3353C58.9361 51.5198 59.3397 51.689 59.7334 51.8444C60.7733 52.2547 61.3587 53.3932 61.0114 54.4558C60.1687 57.0349 59.342 59.6933 58.5382 62.4305C57.5171 65.9082 56.596 69.3019 55.7635 72.6009C55.5314 73.5209 55.4809 74.4975 55.8409 75.3754C55.9199 75.5683 56.0104 75.7678 56.1139 75.9718C56.3193 76.3766 55.5025 76.3649 54.8175 76.3499C54.1883 76.3361 54.279 76.6384 54.8633 76.872C56.1106 77.3708 58.2677 78.1672 58.7396 78.3106C59.0679 78.4104 59.3782 78.4758 59.6615 78.5178C60.2185 78.6003 60.7888 78.5294 61.3125 78.3223C61.6381 78.1935 61.9954 78.0242 62.3659 77.8001C62.6194 77.6469 62.8476 77.4872 63.0518 77.3282C63.6896 76.8315 64.0828 76.1001 64.3369 75.3327C64.4198 75.0824 64.5025 74.8312 64.5851 74.5792C64.7817 73.9794 64.4412 73.3369 63.8353 73.1598C63.2419 72.9864 62.901 72.3652 63.0736 71.7716L63.1917 71.3651C63.3441 70.8406 63.7621 70.4357 64.2911 70.3L65.007 70.1164C65.681 69.9436 66.2173 69.4331 66.419 68.7672C66.5717 68.2633 66.7234 67.7564 66.8743 67.2467C67.0619 66.6129 66.6973 65.9485 66.0629 65.7631C65.4288 65.5777 65.0645 64.9139 65.2488 64.2794L65.5121 63.3728C65.6941 62.7462 66.1703 62.2478 66.7879 62.0374L67.5159 61.7895C68.1453 61.5751 68.62 61.0591 68.827 60.4273C69.0849 59.6404 69.333 59.0507 69.5741 58.3977C69.9601 57.3519 71.0581 56.6662 72.1644 56.8028C72.6527 56.8631 73.1606 56.9205 73.6837 56.9941C75.96 57.3142 77.9454 54.5882 78.6085 52.3872C78.9943 51.1048 79.3514 49.716 79.733 47.9542C79.7331 47.9536 79.7336 47.9531 79.7343 47.9531ZM76.0843 44.8833C75.8372 45.7974 74.93 46.3518 73.9959 46.1963C72.3642 45.9248 70.5751 45.5388 68.6709 44.9911C66.6235 44.4013 64.7854 43.7226 63.169 43.0324C62.2946 42.659 61.8297 41.6982 62.1158 40.7915C62.2382 40.4036 62.3754 40.0036 62.5292 39.5935C62.6298 39.3244 62.7329 39.0637 62.8376 38.8114C63.1657 38.0213 63.9969 37.575 64.8418 37.7094C66.4591 37.9667 68.2513 38.345 70.1687 38.9022C72.1436 39.4764 73.9073 40.1401 75.4455 40.8115C76.2214 41.1501 76.6809 41.9616 76.5404 42.7964C76.4823 43.1421 76.4136 43.4997 76.3327 43.868C76.2555 44.2199 76.172 44.5585 76.0843 44.8833Z" fill="#4169E1" stroke="#1C1C1C" stroke-width="0.5" stroke-miterlimit="10" stroke-linejoin="round"/>
<path d="M76.08 46.5832C76.0807 46.5832 76.0812 46.5828 76.0813 46.5822C76.4169 45.0309 76.6808 43.54 76.8871 42.12C77.2348 39.7269 75.8537 37.4379 73.5895 36.5886C71.7035 35.8812 69.6755 35.1952 67.5109 34.5606C65.4618 33.9602 63.4908 33.4643 61.6155 33.0545C58.992 32.4813 56.3274 33.7994 55.2434 36.2562C54.7347 37.4094 54.2357 38.6317 53.7583 39.9221C53.1295 41.6212 52.6807 42.9981 52.3169 44.2971C51.6803 46.5706 52.7159 48.9995 54.8702 49.9654C55.2819 50.1499 55.6855 50.3191 56.0792 50.4745C57.1191 50.8848 57.7045 52.0233 57.3572 53.0859C56.5145 55.665 55.6877 58.3234 54.884 61.0605C53.8629 64.5383 52.9418 67.932 52.1093 71.231C51.8772 72.151 51.8267 73.1276 52.1866 74.0055C52.2657 74.1983 52.3562 74.3978 52.4597 74.6019C52.6315 74.9405 52.8144 75.2419 52.9957 75.5071C53.3509 76.0266 53.8392 76.4472 54.4172 76.6961C54.6204 76.7836 54.8433 76.8671 55.0854 76.9407C55.4137 77.0405 55.724 77.1059 56.0073 77.1479C56.5643 77.2303 57.1346 77.1595 57.6583 76.9524C57.9839 76.8236 58.3412 76.6542 58.7117 76.4302C58.9652 76.277 59.1934 76.1173 59.3976 75.9583C60.0354 75.4616 60.4285 74.7302 60.6827 73.9627C60.7656 73.7124 60.8483 73.4613 60.9309 73.2093C61.1274 72.6094 60.787 71.9669 60.1811 71.7899C59.5877 71.6165 59.2468 70.9953 59.4193 70.4016L59.5375 69.9951C59.6899 69.4707 60.1079 69.0658 60.6369 68.9301L61.3528 68.7465C62.0268 68.5737 62.5631 68.0632 62.7648 67.3972C62.9174 66.8934 63.0692 66.3865 63.2201 65.8768C63.4077 65.243 63.0431 64.5786 62.4087 64.3931C61.7745 64.2078 61.4103 63.5439 61.5946 62.9095L61.8579 62.0028C62.0399 61.3762 62.5161 60.8778 63.1337 60.6675L63.8617 60.4195C64.491 60.2052 64.9732 59.6923 65.145 59.0501C65.4542 57.8942 65.7523 56.7492 66.0394 55.6156C66.3132 54.535 67.4109 53.8843 68.5059 54.0929C68.9896 54.1851 69.4939 54.2693 70.0178 54.343C72.2229 54.6531 74.2723 53.2627 74.9196 51.1321C74.9311 51.094 74.9427 51.0557 74.9543 51.0172C75.3401 49.7348 75.6972 48.3461 76.0788 46.5843C76.0789 46.5837 76.0794 46.5832 76.08 46.5832ZM72.43 43.5134C72.183 44.4275 71.2758 44.9819 70.3417 44.8264C68.71 44.5549 66.9209 44.1689 65.0167 43.6212C62.9693 43.0314 61.1312 42.3527 59.5148 41.6625C58.6404 41.2891 58.1755 40.3283 58.4616 39.4216C58.584 39.0337 58.7212 38.6337 58.8749 38.2236C58.9755 37.9545 59.0787 37.6938 59.1834 37.4415C59.5115 36.6514 60.3427 36.2051 61.1876 36.3395C62.8049 36.5968 64.5971 36.9751 66.5145 37.5322C68.4894 38.1065 70.2531 38.7701 71.7913 39.4415C72.5672 39.7802 73.0267 40.5916 72.8862 41.4265C72.8281 41.7721 72.7594 42.1297 72.6785 42.498C72.6013 42.85 72.5178 43.1885 72.43 43.5134Z" fill="#CCD9FD" stroke="#1C1C1C" stroke-width="0.5" stroke-miterlimit="10" stroke-linejoin="round"/>
<path d="M56.5985 71.8544L61.9402 53.4544C62.1177 52.8429 61.7661 52.2023 61.1549 52.0236C60.5436 51.845 59.9042 52.1959 59.7266 52.8075L54.3849 71.2074C54.2074 71.819 54.559 72.4596 55.1702 72.6383C55.7815 72.8169 56.4209 72.4659 56.5985 71.8544Z" fill="#4169E1" stroke="#1C1C1C" stroke-width="0.5" stroke-miterlimit="10" stroke-linejoin="round"/>
</svg>
