<svg width="102" height="102" viewBox="0 0 102 102" fill="none" xmlns="http://www.w3.org/2000/svg">
<rect x="0.5" y="0.5" width="101" height="101" rx="4.5" stroke="#8A38F5" stroke-dasharray="10 5"/>
<path d="M62.7003 59.588C62.7003 69.898 54.2203 78.258 43.7603 78.258C33.3003 78.258 24.0703 69.208 24.0703 58.898C23.0503 41.508 33.3003 40.918 43.7603 40.918C54.2203 40.918 63.2703 41.818 62.7003 59.588Z" fill="#637DEB" stroke="#1C1C1C" stroke-width="0.5" stroke-linejoin="round"/>
<path d="M43.3178 73.26C53.9878 73.26 62.6278 64.47 62.6278 53.63C62.6278 42.79 53.9778 34 43.3178 34C32.6578 34 24.0078 42.79 24.0078 53.63C24.0078 64.47 32.6578 73.26 43.3178 73.26Z" fill="#CCD9FD" stroke="#1C1C1C" stroke-width="0.5" stroke-linejoin="round"/>
<path d="M43.3663 68.838C51.7663 68.838 58.5763 62.028 58.5763 53.628C58.5763 45.228 51.7663 38.418 43.3663 38.418C34.9663 38.418 28.1562 45.228 28.1562 53.628C28.1562 62.028 34.9663 68.838 43.3663 68.838Z" fill="#637DEB" stroke="#1C1C1C" stroke-width="0.5" stroke-linejoin="round"/>
<path d="M43.9782 56.0273C43.5282 56.2873 42.9882 56.2873 42.5382 56.0273L38.5482 53.7473C37.8782 53.3673 37.6282 52.5273 37.9782 51.8373L42.0182 43.8773C42.5582 42.8073 44.0982 42.8273 44.6182 43.9073L48.4582 51.9173C48.7882 52.5973 48.5282 53.4173 47.8682 53.7973L43.9782 56.0173V56.0273Z" fill="white"/>
<path d="M43.7618 57.64C43.3218 57.88 42.7818 57.88 42.3518 57.63L39.1518 55.8C38.4718 55.41 37.7418 56.23 38.2118 56.86L41.9118 61.9C42.4818 62.68 43.6418 62.69 44.2318 61.92L48.1218 56.83C48.6018 56.21 47.8818 55.38 47.2018 55.76L43.7718 57.64H43.7618Z" fill="white"/>
<path d="M57.4345 60.7883C57.4345 61.8132 58.209 62.6756 59.2309 62.7531C60.7883 62.8714 62.4557 62.9425 64.2209 62.9439C66.0097 62.9446 67.6983 62.8731 69.2741 62.7533C70.2959 62.6756 71.0703 61.8133 71.0703 60.7885V55H57.4345V60.7883Z" fill="#FF9500" stroke="#1C1C1C" stroke-width="0.5" stroke-linejoin="round"/>
<path d="M57.4345 56.5852C57.4345 57.6101 58.209 58.4724 59.2309 58.55C60.7883 58.6683 62.4557 58.7394 64.2209 58.7408C66.0097 58.7415 67.6983 58.67 69.2741 58.5502C70.2959 58.4725 71.0703 57.6102 71.0703 56.5854V53.7969H57.4345V56.5852Z" fill="#FFE2C8" stroke="#1C1C1C" stroke-width="0.5" stroke-linejoin="round"/>
<path d="M48.9968 37.8582C48.9968 29.6525 55.6908 23 63.9476 23C72.2044 23 78.8984 29.6525 78.8984 37.8582C78.8984 42.8624 76.4092 47.2891 72.594 49.9814C71.6931 50.6172 71.0734 51.611 71.0734 52.7136V53.7994H57.4375V53.1228C57.4375 51.9703 56.7621 50.9413 55.7948 50.3148C51.7018 47.6638 48.9968 43.0754 48.9968 37.8582Z" fill="#FAF2E8" stroke="#1C1C1C" stroke-width="0.5" stroke-linejoin="round"/>
<path d="M61.8399 53.7994V37.3059C61.8399 35.3549 60.2485 33.7734 58.2854 33.7734H57.8123C55.8491 33.7734 54.2577 35.3549 54.2577 37.3059C54.2577 39.2569 55.8491 40.8384 57.8123 40.8384H70.3908C72.3539 40.8384 73.9453 39.2569 73.9453 37.3059C73.9453 35.3549 72.3539 33.7734 70.3908 33.7734H69.9177C67.9546 33.7734 66.3632 35.3549 66.3632 37.3059V53.7994" stroke="#1C1C1C" stroke-width="0.5" stroke-linejoin="round"/>
</svg>
