<svg width="62" height="62" viewBox="0 0 62 62" fill="none" xmlns="http://www.w3.org/2000/svg">
<g clip-path="url(#clip0_18011_8251)">
<path d="M47.6159 25.0243C47.6159 34.7072 39.7032 42.5588 29.943 42.5588C20.1829 42.5588 11.5704 34.0592 11.5704 24.3762C10.628 8.0438 20.1829 7.48969 29.943 7.48969C39.7032 7.48969 48.1477 8.33495 47.6159 25.0243Z" fill="#4169E1" stroke="#1C1C1C" stroke-width="0.5" stroke-linejoin="round"/>
<path d="M29.5241 37.8724C39.4802 37.8724 47.5421 29.6169 47.5421 19.4362C47.5421 9.25543 39.4802 1 29.5241 1C19.5679 1 11.506 9.25543 11.506 19.4362C11.506 29.6169 19.5773 37.8724 29.5241 37.8724Z" fill="#FCF6CC" stroke="#1C1C1C" stroke-width="0.5" stroke-miterlimit="10"/>
<path d="M29.5695 33.7212C37.4075 33.7212 43.7618 27.3253 43.7618 19.4362C43.7618 11.547 37.4075 5.15118 29.5695 5.15118C21.7315 5.15118 15.3771 11.547 15.3771 19.4362C15.3771 27.3253 21.7315 33.7212 29.5695 33.7212Z" fill="#F0C000" stroke="#1C1C1C" stroke-width="0.5" stroke-miterlimit="10"/>
<path d="M31.5826 26.5801L29.8893 27.5771L28.2037 26.5801V24.5957L29.8893 25.5928L31.5826 24.5957V26.5801ZM24.0924 18.7734L24.1022 22.1787L26.9957 23.8818V25.875L22.4088 23.1855V17.7783L24.0924 18.7734ZM37.3785 23.1846L32.7916 25.874V23.8809L35.6842 22.1787L35.694 18.7734L37.3785 17.7773V23.1846ZM34.483 16.0742H34.4762L34.485 18.0684L31.5836 19.7705V23.1846L29.8981 24.1719L28.2135 23.1846V19.7705L25.3112 18.0684V16.0742L27.0035 15.0771L29.8883 16.7881L32.7897 15.0771L34.483 16.0742ZM26.9957 20.4766V22.4609L25.3102 21.4736V19.4795L26.9957 20.4766ZM34.4762 21.4736L32.7906 22.4609V20.4766L34.4762 19.4795V21.4736ZM25.7858 14.3721L24.0924 15.3682V17.3525L22.4078 16.3564V14.3721L24.0924 13.375L25.7858 14.3721ZM37.3776 14.3721V16.3564L35.6842 17.3525V15.3682L33.9987 14.3721L35.6842 13.375L37.3776 14.3721ZM31.5826 14.3721L29.8893 15.3682L28.2037 14.3721L29.8893 13.375L31.5826 14.3721ZM34.4762 12.6699L32.7906 13.667L29.8893 11.9561L26.9957 13.667L25.3102 12.6699L29.8893 9.9707L34.4762 12.6699Z" fill="white"/>
<path d="M8.55753 29.645C8.75348 27.513 10.4517 25.8413 12.5792 25.6629C24.1962 24.6673 35.8039 24.6673 47.4209 25.6629C49.5484 25.8413 51.2373 27.5037 51.4612 29.6356C52.3477 38.4076 52.3477 47.1796 51.4612 55.9609C51.2373 58.0929 49.5484 59.7552 47.4209 59.9337C35.8412 60.9386 24.2615 60.9386 12.6725 59.9337C10.5077 59.7458 8.80014 58.0271 8.61352 55.8482C7.84838 46.7851 7.7644 38.0225 8.55753 29.645Z" fill="#4169E1" stroke="#1C1C1C" stroke-width="0.5" stroke-linejoin="round"/>
<path d="M8.55753 26.2639C8.75348 24.1319 10.4517 22.4602 12.5792 22.2817C24.1962 21.2862 35.8039 21.2862 47.4209 22.2817C49.5484 22.4602 51.2373 24.1225 51.4612 26.2545C52.3477 35.0265 52.3477 43.7984 51.4612 52.5798C51.2373 54.7118 49.5484 56.3741 47.4209 56.5526C35.8412 57.5575 24.2615 57.5575 12.6725 56.5526C10.5077 56.3647 8.80014 54.646 8.61352 52.4671C7.84838 43.404 7.7644 34.6414 8.55753 26.2639Z" fill="#CCD9FD" stroke="#1C1C1C" stroke-width="0.5" stroke-linejoin="round"/>
<path d="M32.8554 40.4174C32.9487 36.3037 36.4291 33.0354 40.5161 32.9603C44.6684 32.8851 48.774 33.0823 53.0755 33.505C53.6541 37.5716 53.4768 41.9013 53.3461 47.4049C53.3368 47.9872 52.8796 48.4756 52.3104 48.5225C48.4567 48.8606 44.687 48.9827 40.8987 48.8888C36.4105 48.7761 32.7527 44.9536 32.8554 40.4174Z" fill="#4169E1" stroke="#1C1C1C" stroke-width="0.5" stroke-linejoin="round"/>
<path d="M32.8556 37.6938C32.9489 33.5708 36.4387 30.3212 40.5256 30.2085C44.4446 30.1052 48.3543 30.2085 52.2639 30.556C52.9078 30.6124 53.421 31.1477 53.4583 31.8051C53.7569 37.2524 53.7476 39.0181 53.5236 45.7145C49.3434 46.1277 45.1071 46.278 40.8802 46.1746C36.3827 46.0619 32.7436 42.2395 32.8462 37.6938H32.8556Z" fill="#CCD9FD" stroke="#1C1C1C" stroke-width="0.5" stroke-linejoin="round"/>
<path d="M40.2174 41.2721C42.2478 41.2721 43.8938 39.6154 43.8938 37.5717C43.8938 35.5281 42.2478 33.8713 40.2174 33.8713C38.187 33.8713 36.541 35.5281 36.541 37.5717C36.541 39.6154 38.187 41.2721 40.2174 41.2721Z" fill="white" stroke="#1C1C1C" stroke-width="0.5" stroke-linejoin="round"/>
</g>
<defs>
<clipPath id="clip0_18011_8251">
<rect width="62" height="62" rx="5" fill="white"/>
</clipPath>
</defs>
</svg>
