<svg width="102" height="102" viewBox="0 0 102 102" fill="none" xmlns="http://www.w3.org/2000/svg">
<rect x="0.5" y="0.5" width="101" height="101" rx="4.5" stroke="#9747FF" stroke-dasharray="10 5"/>
<path d="M76.9999 81.5062H25L27.6667 38.4075H74.3333L76.9999 81.5062Z" fill="#CCD9FD" stroke="#1C1C1C" stroke-width="0.5" stroke-linejoin="round"/>
<path d="M76.6757 77.6629H25.3242L27.9576 34.0269H74.0423L76.6757 77.6629Z" fill="#FFE2C8" stroke="#1C1C1C" stroke-width="0.5" stroke-linejoin="round"/>
<path d="M52.2978 20.5062H49.7152C45.7265 20.5062 42.4744 23.8349 42.4744 27.9175V40.2045H44.7604V27.9175C44.7604 25.1175 46.9796 22.8461 49.7152 22.8461H52.2978C55.0239 22.8461 57.243 25.1175 57.243 27.9175V40.2045H59.5291V27.9175C59.5291 23.8349 56.2865 20.5062 52.2978 20.5062Z" fill="white" stroke="#1C1C1C" stroke-width="0.5" stroke-linecap="round" stroke-linejoin="round"/>
<path d="M46.0236 36.834H41.3271V41.4747H46.0236V36.834Z" fill="#CCD9FD" stroke="#1C1C1C" stroke-width="0.5" stroke-linejoin="round"/>
<path d="M60.677 36.834H55.9805V41.4747H60.677V36.834Z" fill="#CCD9FD" stroke="#1C1C1C" stroke-width="0.5" stroke-linejoin="round"/>
<path d="M37.6976 50.3692C37.8037 48.7165 37.8568 47.8902 38.4041 47.3541C38.9515 46.818 39.7821 46.782 41.4434 46.7099C44.3628 46.5832 48.4968 46.431 51.3812 46.4376C54.1728 46.4439 57.8521 46.5845 60.5066 46.7047C62.1396 46.7786 62.9561 46.8155 63.5004 47.343C64.0447 47.8706 64.1068 48.6816 64.2312 50.3036C64.4464 53.1121 64.7025 57.0803 64.6938 59.973C64.6852 62.8752 64.4303 66.793 64.2201 69.5474C64.0995 71.1266 64.0392 71.9162 63.5119 72.4406C62.9846 72.965 62.1946 73.0208 60.6146 73.1325C57.8542 73.3277 53.9152 73.5626 50.9437 73.5626C47.9859 73.5626 44.0695 73.3299 41.311 73.1352C39.7144 73.0226 38.9161 72.9662 38.3872 72.4348C37.8583 71.9033 37.8058 71.1044 37.7009 69.5066C37.5218 66.7795 37.3091 62.9207 37.3091 59.973C37.3091 57.0432 37.5192 53.1484 37.6976 50.3692Z" fill="white" stroke="#1C1C1C" stroke-width="0.5" stroke-miterlimit="10" stroke-linejoin="round"/>
<path d="M41 51.9568C41 51.014 41 50.5426 41.2929 50.2497C41.5858 49.9568 42.0572 49.9568 43 49.9568H44.8333C45.7761 49.9568 46.2475 49.9568 46.5404 50.2497C46.8333 50.5426 46.8333 51.014 46.8333 51.9568V53.7901C46.8333 54.733 46.8333 55.2044 46.5404 55.4973C46.2475 55.7902 45.7761 55.7902 44.8333 55.7902H43C42.0572 55.7902 41.5858 55.7902 41.2929 55.4973C41 55.2044 41 54.733 41 53.7902V51.9568Z" fill="#693000"/>
<path d="M41 66.1235C41 65.1807 41 64.7093 41.2929 64.4164C41.5858 64.1235 42.0572 64.1235 43 64.1235H44.8333C45.7761 64.1235 46.2475 64.1235 46.5404 64.4164C46.8333 64.7093 46.8333 65.1807 46.8333 66.1235V67.9568C46.8333 68.8996 46.8333 69.371 46.5404 69.6639C46.2475 69.9568 45.7761 69.9568 44.8333 69.9568H43C42.0572 69.9568 41.5858 69.9568 41.2929 69.6639C41 69.371 41 68.8996 41 67.9568V66.1235Z" fill="#693000"/>
<path d="M55.1667 51.9568C55.1667 51.014 55.1667 50.5426 55.4596 50.2497C55.7525 49.9568 56.2239 49.9568 57.1667 49.9568H59C59.9428 49.9568 60.4142 49.9568 60.7071 50.2497C61 50.5426 61 51.014 61 51.9568V53.7901C61 54.733 61 55.2044 60.7071 55.4973C60.4142 55.7902 59.9428 55.7902 59 55.7902H57.1667C56.2239 55.7902 55.7525 55.7902 55.4596 55.4973C55.1667 55.2044 55.1667 54.733 55.1667 53.7902V51.9568Z" fill="#693000"/>
<path d="M48.5 56.6235V55.7902C48.5 55.3299 48.8731 54.9568 49.3333 54.9568C49.7936 54.9568 50.1667 55.3299 50.1667 55.7902V56.6235C50.1667 58.0042 49.0474 59.1235 47.6667 59.1235H46C45.5398 59.1235 45.1667 58.7504 45.1667 58.2902C45.1667 57.8299 45.5398 57.4568 46 57.4568H47.6667C48.1269 57.4568 48.5 57.0837 48.5 56.6235Z" fill="#693000"/>
<path d="M56.8333 59.9568V62.4568C56.8333 62.9171 56.4602 63.2901 56 63.2901C55.5398 63.2901 55.1667 62.9171 55.1667 62.4568L55.1667 59.9568C55.1667 58.5761 56.286 57.4568 57.6667 57.4568L60.1667 57.4568C60.6269 57.4568 61 57.8299 61 58.2901C61 58.7504 60.6269 59.1235 60.1667 59.1235H57.6667C57.2064 59.1235 56.8333 59.4966 56.8333 59.9568Z" fill="#693000"/>
<path d="M51.8333 63.2901V64.9568C51.8333 65.4171 52.2064 65.7901 52.6667 65.7901C53.1269 65.7901 53.5 65.4171 53.5 64.9568V63.2902C53.5 61.9094 52.3807 60.7901 51 60.7901H49.3333C48.8731 60.7901 48.5 61.1632 48.5 61.6235C48.5 62.0837 48.8731 62.4568 49.3333 62.4568H51C51.4602 62.4568 51.8333 62.8299 51.8333 63.2901Z" fill="#693000"/>
<path d="M48.5 69.1235C48.5 69.5837 48.8731 69.9568 49.3333 69.9568C49.7936 69.9568 50.1667 69.5837 50.1667 69.1235V64.9568C50.1667 64.4966 49.7936 64.1235 49.3333 64.1235C48.8731 64.1235 48.5 64.4966 48.5 64.9568V69.1235Z" fill="#693000"/>
<path d="M53.5 54.9568C53.5 55.4171 53.1269 55.7902 52.6667 55.7902C52.2064 55.7902 51.8333 55.4171 51.8333 54.9568V50.7902C51.8333 50.3299 52.2064 49.9568 52.6667 49.9568C53.1269 49.9568 53.5 50.3299 53.5 50.7902V54.9568Z" fill="#693000"/>
<path d="M41.8333 62.4568C41.3731 62.4568 41 62.0837 41 61.6235C41 61.1632 41.3731 60.7902 41.8333 60.7902H46C46.4602 60.7902 46.8333 61.1632 46.8333 61.6235C46.8333 62.0837 46.4602 62.4568 46 62.4568L41.8333 62.4568Z" fill="#693000"/>
<path d="M56 68.2901H57.6667C58.0981 68.2901 58.4532 67.9624 58.4959 67.5423L58.5041 67.3714C58.5468 66.9513 58.9019 66.6235 59.3333 66.6235C59.7936 66.6235 60.1667 66.9966 60.1667 67.4568C60.1667 68.8375 59.0474 69.9568 57.6667 69.9568H56C55.5398 69.9568 55.1667 69.5837 55.1667 69.1235C55.1667 68.6632 55.5398 68.2901 56 68.2901Z" fill="#693000"/>
<path d="M50.1667 52.4568C50.1667 52.9171 49.7936 53.2902 49.3333 53.2902C48.8731 53.2902 48.5 52.9171 48.5 52.4568V50.7902C48.5 50.3299 48.8731 49.9568 49.3333 49.9568C49.7936 49.9568 50.1667 50.3299 50.1667 50.7902V52.4568Z" fill="#693000"/>
<path d="M51.8333 69.1235C51.8333 69.5837 52.2064 69.9568 52.6667 69.9568C53.1269 69.9568 53.5 69.5837 53.5 69.1235V67.4568C53.5 66.9966 53.1269 66.6235 52.6667 66.6235C52.2064 66.6235 51.8333 66.9966 51.8333 67.4568V69.1235Z" fill="#693000"/>
<path d="M56.8333 66.6235C56.8333 67.0837 56.4602 67.4568 56 67.4568C55.5398 67.4568 55.1667 67.0837 55.1667 66.6235V65.7902C55.1667 65.3299 55.5398 64.9568 56 64.9568C56.4602 64.9568 56.8333 65.3299 56.8333 65.7902V66.6235Z" fill="#693000"/>
<path d="M53.5 58.7068C53.5 59.1671 53.1269 59.5402 52.6667 59.5402C52.2064 59.5402 51.8333 59.1671 51.8333 58.7068V57.8735C51.8333 57.4132 52.2064 57.0402 52.6667 57.0402C53.1269 57.0402 53.5 57.4132 53.5 57.8735V58.7068Z" fill="#693000"/>
<path d="M41.8333 59.1235L41.7479 59.1194C41.3278 59.0766 41 58.7215 41 58.2902C41 57.8588 41.3278 57.5037 41.7479 57.4609L41.8333 57.4568H42.6667C43.1269 57.4568 43.5 57.8299 43.5 58.2902C43.5 58.7504 43.1269 59.1235 42.6667 59.1235H41.8333Z" fill="#693000"/>
<path d="M60.1667 64.1235C60.1667 64.5837 59.7936 64.9568 59.3333 64.9568C58.8731 64.9568 58.5 64.5837 58.5 64.1235V61.6235C58.5 61.1632 58.8731 60.7901 59.3333 60.7901C59.7936 60.7901 60.1667 61.1632 60.1667 61.6235V64.1235Z" fill="#693000"/>
</svg>
