<svg width="62" height="62" viewBox="0 0 62 62" fill="none" xmlns="http://www.w3.org/2000/svg">
<g clip-path="url(#clip0_18011_9033)">
<path d="M51.639 34.34C51.639 45.4739 42.5886 54.5 31.4241 54.5C20.2595 54.5 10.4078 44.7273 10.4078 33.5933C9.32377 14.8107 20.2595 14.1799 31.4241 14.1799C42.5886 14.1799 52.2522 15.1552 51.639 34.34Z" fill="#434248" stroke="#1C1C1C" stroke-width="0.5" stroke-miterlimit="10"/>
<path d="M30.9477 50.3974C42.3326 50.3974 51.5619 40.9064 51.5619 29.1987C51.5619 17.491 42.3326 8 30.9477 8C19.5627 8 10.3334 17.491 10.3334 29.1987C10.3334 40.9064 19.5627 50.3974 30.9477 50.3974Z" fill="#96949C" stroke="#1C1C1C" stroke-width="0.5" stroke-miterlimit="10"/>
<path d="M31.0003 45.6186C39.9684 45.6186 47.2384 38.2641 47.2384 29.1919C47.2384 20.1197 39.9684 12.7652 31.0003 12.7652C22.0322 12.7652 14.7622 20.1197 14.7622 29.1919C14.7622 38.2641 22.0322 45.6186 31.0003 45.6186Z" fill="#434248" stroke="#1C1C1C" stroke-width="0.5" stroke-miterlimit="10"/>
<path d="M32.1465 17.2451C32.6987 17.2451 33.1465 17.6929 33.1465 18.2451V20.7949C33.7029 20.7949 34.2356 20.7686 34.792 20.7686V18.2451C34.792 17.6929 35.2397 17.2451 35.792 17.2451H35.8721C36.4243 17.2451 36.872 17.6929 36.8721 18.2451V20.8721C39.533 21.1035 41.662 21.9775 41.8799 24.6006C42.0734 26.5038 41.2986 27.6617 40.1133 28.3047C42.0968 28.8191 43.3306 30.0533 43.0889 32.8564C42.7744 36.3286 40.3556 37.2806 36.8721 37.4863V40.1387C36.872 40.6909 36.4243 41.1387 35.8721 41.1387H35.792C35.2398 41.1387 34.7921 40.6909 34.792 40.1387V37.5381C34.2598 37.5381 33.7029 37.5374 33.1465 37.5117V40.1387C33.1464 40.6909 32.6987 41.1387 32.1465 41.1387H32.0664C31.5142 41.1387 31.0665 40.6909 31.0664 40.1387V37.4863C30.5827 37.4863 30.0988 37.4609 29.5908 37.4609H28.0605C27.443 37.4607 26.9731 36.9061 27.0742 36.2969L27.1758 35.6875C27.2571 35.199 27.6844 34.8447 28.1797 34.8477C28.8303 34.8516 28.8164 34.8369 28.8164 34.8369C29.3968 34.8369 29.5424 34.4004 29.5908 34.0918V24.1895C29.5182 23.7522 29.2275 23.2119 28.3809 23.2119C28.3789 23.2101 28.3476 23.2004 27.8984 23.2012C27.3396 23.2022 26.881 22.7541 26.8809 22.1953V21.8721C26.8809 21.3199 27.3287 20.8723 27.8809 20.8721H31.0664V18.2451C31.0664 17.6929 31.5141 17.2451 32.0664 17.2451H32.1465ZM38.9766 32.4199C38.9766 29.5908 34.574 30.0019 33.1709 30.002V34.8369C34.574 34.8369 38.9763 35.1716 38.9766 32.4199ZM22.7754 30.25C23.3826 30.2502 23.8748 30.7424 23.875 31.3496V32.9004C23.8748 33.5076 23.3826 33.9998 22.7754 34H21.2246C20.6174 33.9998 20.1252 33.5076 20.125 32.9004V31.3496C20.1252 30.7424 20.6174 30.2502 21.2246 30.25H22.7754ZM19.6504 27.125C20.2576 27.1252 20.7498 27.6174 20.75 28.2246V29.7754C20.7498 30.3826 20.2576 30.8748 19.6504 30.875H18.0996C17.4924 30.8748 17.0002 30.3826 17 29.7754V28.2246C17.0002 27.6174 17.4924 27.1252 18.0996 27.125H19.6504ZM25.9004 27.125C26.5076 27.1252 26.9998 27.6174 27 28.2246V29.7754C26.9998 30.3826 26.5076 30.8748 25.9004 30.875H24.3496C23.7424 30.8748 23.2502 30.3826 23.25 29.7754V28.2246C23.2502 27.6174 23.7424 27.1252 24.3496 27.125H25.9004ZM38.0332 25.6035C38.0327 23.0064 34.3562 23.3926 33.1709 23.3926V27.79C34.3563 27.79 38.0332 28.0726 38.0332 25.6035ZM22.7754 24C23.3826 24.0002 23.8748 24.4924 23.875 25.0996V26.6504C23.8748 27.2576 23.3826 27.7498 22.7754 27.75H21.2246C20.6174 27.7498 20.1252 27.2576 20.125 26.6504V25.0996C20.1252 24.4924 20.6174 24.0002 21.2246 24H22.7754Z" fill="white"/>
</g>
<defs>
<clipPath id="clip0_18011_9033">
<rect width="62" height="62" rx="5" fill="white"/>
</clipPath>
</defs>
</svg>
