<svg width="102" height="102" viewBox="0 0 102 102" fill="none" xmlns="http://www.w3.org/2000/svg">
<rect x="0.5" y="0.5" width="101" height="101" rx="4.5" stroke="#8A38F5" stroke-dasharray="10 5"/>
<g clip-path="url(#clip0_18011_8015)">
<path d="M21.7197 34.75C21.7197 31.4363 24.406 28.75 27.7197 28.75H64.8032C68.1169 28.75 70.8032 31.4363 70.8032 34.75V62.3335C70.8032 65.6472 68.1169 68.3334 64.8032 68.3334H27.7197C24.406 68.3334 21.7197 65.6472 21.7197 62.3334V34.75Z" fill="#4169E1" stroke="#1C1C1C" stroke-width="0.5" stroke-miterlimit="10" stroke-linejoin="round"/>
<path d="M21.7197 30C21.7197 26.6863 24.406 24 27.7197 24H64.8032C68.1169 24 70.8032 26.6863 70.8032 30V57.5835C70.8032 60.8972 68.1169 63.5834 64.8032 63.5834H27.7197C24.406 63.5834 21.7197 60.8972 21.7197 57.5834V30Z" fill="#E8EDFA" stroke="#1C1C1C" stroke-width="0.5" stroke-miterlimit="10" stroke-linejoin="round"/>
<rect x="24.8865" y="35.8751" width="30.0834" height="24.5417" rx="2" fill="#E8EDFA" stroke="#1C1C1C" stroke-width="0.5" stroke-miterlimit="10" stroke-linejoin="round"/>
<rect x="58.1365" y="35.8751" width="9.50003" height="11.0834" rx="2" fill="#4169E1" stroke="#1C1C1C" stroke-width="0.5" stroke-miterlimit="10" stroke-linejoin="round"/>
<rect x="58.1365" y="49.3334" width="9.50003" height="11.0834" rx="2" fill="#4169E1" stroke="#1C1C1C" stroke-width="0.5" stroke-miterlimit="10" stroke-linejoin="round"/>
<path d="M21.7197 30C21.7197 26.6863 24.406 24 27.7197 24H64.8032C68.1169 24 70.8032 26.6863 70.8032 30V33.5H21.7197V30Z" fill="#FF9500" stroke="#1C1C1C" stroke-width="0.5" stroke-miterlimit="10" stroke-linejoin="round"/>
<path d="M40.6669 51.4489C40.208 51.7141 39.6572 51.7141 39.1983 51.4489L35.1289 49.1235C34.4455 48.736 34.1906 47.8792 34.5475 47.1755L38.6679 39.0571C39.2187 37.9658 40.7893 37.9862 41.3197 39.0877L45.2361 47.2571C45.5727 47.9506 45.3075 48.787 44.6344 49.1745L40.6669 51.4387V51.4489Z" fill="#1C1C1C"/>
<path d="M40.4528 53.0928C40.0041 53.3376 39.4533 53.3376 39.0148 53.0826L35.7511 51.2162C35.0576 50.8184 34.313 51.6547 34.7924 52.2973L38.566 57.4376C39.1473 58.2331 40.3304 58.2433 40.9322 57.458L44.8996 52.2667C45.3892 51.6343 44.6548 50.7878 43.9613 51.1754L40.463 53.0928H40.4528Z" fill="#1C1C1C"/>
<path d="M27.2615 31.125C28.5732 31.125 29.6365 30.0616 29.6365 28.7499C29.6365 27.4383 28.5732 26.3749 27.2615 26.3749C25.9498 26.3749 24.8865 27.4383 24.8865 28.7499C24.8865 30.0616 25.9498 31.125 27.2615 31.125Z" fill="#E8EDFA" stroke="#1C1C1C" stroke-width="0.5" stroke-miterlimit="10" stroke-linejoin="round"/>
<path d="M34.3865 31.125C35.6982 31.125 36.7615 30.0616 36.7615 28.7499C36.7615 27.4383 35.6982 26.3749 34.3865 26.3749C33.0748 26.3749 32.0115 27.4383 32.0115 28.7499C32.0115 30.0616 33.0748 31.125 34.3865 31.125Z" fill="#4169E1" stroke="#1C1C1C" stroke-width="0.5" stroke-miterlimit="10" stroke-linejoin="round"/>
<path d="M41.5115 31.125C42.8232 31.125 43.8865 30.0616 43.8865 28.7499C43.8865 27.4383 42.8232 26.3749 41.5115 26.3749C40.1998 26.3749 39.1365 27.4383 39.1365 28.7499C39.1365 30.0616 40.1998 31.125 41.5115 31.125Z" fill="#4169E1" stroke="#1C1C1C" stroke-width="0.5" stroke-miterlimit="10" stroke-linejoin="round"/>
<path d="M62.3002 58.3719C62.2978 58.2281 62.3581 58.0898 62.4645 57.9931C62.5445 57.9207 62.6457 57.8769 62.7512 57.8663L62.8587 57.8673L80.7849 59.9649C81.0362 59.9946 81.2253 60.2076 81.2259 60.4607L81.2389 66.8753C81.2391 67.0494 81.1486 67.2114 81.0002 67.3024L75.8208 70.4786C75.2172 70.8488 74.8543 71.5106 74.8667 72.2186L74.9735 78.3004C74.9772 78.5119 74.8474 78.7032 74.6495 78.7776C74.4511 78.8518 74.227 78.7927 74.0908 78.6305L62.5282 64.8554C62.5274 64.8544 62.5261 64.8537 62.5253 64.8527C62.4717 64.7886 62.4348 64.7125 62.4183 64.6314L62.4077 64.541L62.3002 58.3719Z" fill="#4169E1"/>
<path d="M62.3002 58.3719L62.0503 58.376L62.0503 58.3763L62.3002 58.3719ZM62.4645 57.9931L62.2967 57.8078L62.2964 57.808L62.4645 57.9931ZM62.7512 57.8663L62.7536 57.6163C62.7445 57.6162 62.7354 57.6166 62.7264 57.6176L62.7512 57.8663ZM62.8587 57.8673L62.8878 57.619C62.8789 57.618 62.87 57.6174 62.8611 57.6173L62.8587 57.8673ZM80.7849 59.9649L80.8143 59.7167L80.814 59.7166L80.7849 59.9649ZM81.2259 60.4607L81.4759 60.4602L81.4759 60.4601L81.2259 60.4607ZM81.2389 66.8753L81.4889 66.875L81.4889 66.8748L81.2389 66.8753ZM81.0002 67.3024L80.8695 67.0893L80.8695 67.0893L81.0002 67.3024ZM74.9735 78.3004L75.2235 78.296L75.2235 78.296L74.9735 78.3004ZM74.6495 78.7776L74.737 79.0117L74.7374 79.0116L74.6495 78.7776ZM74.0908 78.6305L73.8993 78.7912L73.8993 78.7912L74.0908 78.6305ZM62.5282 64.8554L62.3366 65.0159L62.3367 65.0161L62.5282 64.8554ZM62.5253 64.8527L62.7182 64.6936L62.717 64.6922L62.5253 64.8527ZM62.4183 64.6314L62.17 64.6604C62.1708 64.6673 62.1719 64.6743 62.1733 64.6811L62.4183 64.6314ZM62.4077 64.541L62.1578 64.5453C62.1579 64.5535 62.1585 64.5618 62.1594 64.5699L62.4077 64.541ZM75.8208 70.4786L75.6901 70.2655L75.8208 70.4786ZM74.8667 72.2186L75.1167 72.2143L74.8667 72.2186ZM62.3002 58.3719L62.5502 58.3678C62.549 58.2963 62.5791 58.2268 62.6326 58.1781L62.4645 57.9931L62.2964 57.808C62.1371 57.9528 62.0467 58.1599 62.0503 58.376L62.3002 58.3719ZM62.4645 57.9931L62.6323 58.1784C62.6718 58.1427 62.7226 58.1204 62.7761 58.1151L62.7512 57.8663L62.7264 57.6176C62.5689 57.6333 62.4172 57.6987 62.2967 57.8078L62.4645 57.9931ZM62.7512 57.8663L62.7489 58.1163L62.8563 58.1173L62.8587 57.8673L62.8611 57.6173L62.7536 57.6163L62.7512 57.8663ZM62.8587 57.8673L62.8296 58.1156L80.7559 60.2132L80.7849 59.9649L80.814 59.7166L62.8878 57.619L62.8587 57.8673ZM80.7849 59.9649L80.7556 60.2132C80.8808 60.228 80.9756 60.3343 80.9759 60.4612L81.2259 60.4607L81.4759 60.4601C81.4751 60.081 81.1916 59.7613 80.8143 59.7167L80.7849 59.9649ZM81.2259 60.4607L80.9759 60.4612L80.9889 66.8758L81.2389 66.8753L81.4889 66.8748L81.4759 60.4602L81.2259 60.4607ZM81.2389 66.8753L80.9889 66.8756C80.989 66.9627 80.9436 67.0438 80.8695 67.0893L81.0002 67.3024L81.1309 67.5155C81.3536 67.3789 81.4892 67.1361 81.4889 66.875L81.2389 66.8753ZM81.0002 67.3024L80.8695 67.0893L75.6901 70.2655L75.8208 70.4786L75.9515 70.6917L81.1309 67.5155L81.0002 67.3024ZM74.8667 72.2186L74.6167 72.223L74.7235 78.3048L74.9735 78.3004L75.2235 78.296L75.1167 72.2143L74.8667 72.2186ZM74.9735 78.3004L74.7235 78.3048C74.7254 78.4107 74.6603 78.5064 74.5615 78.5436L74.6495 78.7776L74.7374 79.0116C75.0345 78.9 75.229 78.6131 75.2235 78.296L74.9735 78.3004ZM74.6495 78.7776L74.5619 78.5434C74.4628 78.5805 74.3504 78.5509 74.2823 78.4698L74.0908 78.6305L73.8993 78.7912C74.1035 79.0345 74.4394 79.1231 74.737 79.0117L74.6495 78.7776ZM74.0908 78.6305L74.2823 78.4698L62.7197 64.6947L62.5282 64.8554L62.3367 65.0161L73.8993 78.7912L74.0908 78.6305ZM62.5282 64.8554L62.7199 64.6949C62.7094 64.6824 62.6998 64.6734 62.694 64.6682C62.691 64.6655 62.6885 64.6634 62.687 64.6621C62.6862 64.6615 62.6855 64.6609 62.6851 64.6606C62.6849 64.6604 62.6848 64.6603 62.6846 64.6602C62.6845 64.6601 62.6844 64.66 62.6844 64.66C62.6842 64.6598 62.6852 64.6607 62.6865 64.6618C62.6879 64.6629 62.6903 64.6649 62.6931 64.6675C62.6987 64.6725 62.708 64.6813 62.7182 64.6936L62.5253 64.8527L62.3324 65.0117C62.343 65.0245 62.3528 65.0338 62.3588 65.0393C62.3619 65.0421 62.3645 65.0443 62.3662 65.0457C62.3677 65.0469 62.369 65.048 62.369 65.048C62.3694 65.0483 62.3685 65.0475 62.3673 65.0466C62.3661 65.0455 62.3638 65.0437 62.3611 65.0412C62.3557 65.0365 62.3466 65.0279 62.3366 65.0159L62.5282 64.8554ZM62.5253 64.8527L62.717 64.6922C62.6896 64.6595 62.6714 64.6213 62.6633 64.5817L62.4183 64.6314L62.1733 64.6811C62.1982 64.8037 62.2537 64.9177 62.3336 65.0131L62.5253 64.8527ZM62.4183 64.6314L62.6666 64.6024L62.6561 64.512L62.4077 64.541L62.1594 64.5699L62.17 64.6604L62.4183 64.6314ZM62.4077 64.541L62.6577 64.5366L62.5502 58.3675L62.3002 58.3719L62.0503 58.3763L62.1578 64.5453L62.4077 64.541ZM75.8208 70.4786L75.6901 70.2655C75.011 70.6819 74.6027 71.4265 74.6167 72.223L74.8667 72.2186L75.1167 72.2143C75.1058 71.5947 75.4233 71.0156 75.9515 70.6917L75.8208 70.4786Z" fill="#1C1C1C"/>
<path d="M62.4679 57.7295C62.5526 57.5663 62.7191 57.4638 62.899 57.4592L62.9766 57.4639L80.8078 59.8079C81.0176 59.8355 81.188 59.9929 81.2322 60.1999C81.2761 60.4068 81.1843 60.6189 81.004 60.7296L75.8186 63.9091C75.2148 64.2793 74.8519 64.9412 74.8643 65.6492L74.9711 71.7309C74.9748 71.9425 74.8451 72.1338 74.6471 72.2081C74.4487 72.2823 74.2246 72.2232 74.0884 72.061L62.5258 58.2859C62.4005 58.1363 62.3771 57.9321 62.454 57.7609C62.4585 57.7505 62.4626 57.7398 62.4679 57.7295Z" fill="#E8EDFA"/>
<path d="M62.4679 57.7295L62.246 57.6144L62.2458 57.6147L62.4679 57.7295ZM62.899 57.4592L62.9141 57.2097C62.9069 57.2092 62.8998 57.2091 62.8926 57.2093L62.899 57.4592ZM62.9766 57.4639L63.0092 57.216C63.0034 57.2153 62.9976 57.2147 62.9917 57.2144L62.9766 57.4639ZM80.8078 59.8079L80.8405 59.56L80.8404 59.56L80.8078 59.8079ZM81.2322 60.1999L81.4768 60.148L81.4767 60.1476L81.2322 60.1999ZM81.004 60.7296L81.1347 60.9428L81.1349 60.9427L81.004 60.7296ZM74.9711 71.7309L75.2211 71.7265L75.2211 71.7265L74.9711 71.7309ZM74.6471 72.2081L74.7346 72.4423L74.7349 72.4422L74.6471 72.2081ZM74.0884 72.061L73.8969 72.2217L73.897 72.2218L74.0884 72.061ZM62.5258 58.2859L62.3342 58.4464L62.3344 58.4466L62.5258 58.2859ZM62.454 57.7609L62.6821 57.8633L62.6834 57.8603L62.454 57.7609ZM75.8186 63.9091L75.9492 64.1222L75.8186 63.9091ZM62.4679 57.7295L62.6898 57.8447C62.7324 57.7626 62.8161 57.7114 62.9054 57.7091L62.899 57.4592L62.8926 57.2093C62.6221 57.2162 62.3729 57.3699 62.246 57.6144L62.4679 57.7295ZM62.899 57.4592L62.8839 57.7087L62.9615 57.7134L62.9766 57.4639L62.9917 57.2144L62.9141 57.2097L62.899 57.4592ZM62.9766 57.4639L62.944 57.7118L80.7753 60.0558L80.8078 59.8079L80.8404 59.56L63.0092 57.216L62.9766 57.4639ZM80.8078 59.8079L80.7752 60.0557C80.88 60.0696 80.9656 60.1486 80.9877 60.2521L81.2322 60.1999L81.4767 60.1476C81.4104 59.8373 81.1552 59.6015 80.8405 59.56L80.8078 59.8079ZM81.2322 60.1999L80.9876 60.2517C81.0094 60.3545 80.9639 60.4609 80.8732 60.5166L81.004 60.7296L81.1349 60.9427C81.4047 60.777 81.5427 60.459 81.4768 60.148L81.2322 60.1999ZM81.004 60.7296L80.8734 60.5165L75.6879 63.696L75.8186 63.9091L75.9492 64.1222L81.1347 60.9428L81.004 60.7296ZM74.8643 65.6492L74.6143 65.6536L74.7212 71.7353L74.9711 71.7309L75.2211 71.7265L75.1143 65.6449L74.8643 65.6492ZM74.9711 71.7309L74.7212 71.7353C74.723 71.8414 74.658 71.937 74.5592 71.974L74.6471 72.2081L74.7349 72.4422C75.0323 72.3305 75.2266 72.0436 75.2211 71.7265L74.9711 71.7309ZM74.6471 72.2081L74.5595 71.9739C74.4604 72.011 74.3481 71.9814 74.2799 71.9003L74.0884 72.061L73.897 72.2218C74.1011 72.4649 74.437 72.5536 74.7346 72.4423L74.6471 72.2081ZM74.0884 72.061L74.2799 71.9003L62.7173 58.1252L62.5258 58.2859L62.3344 58.4466L73.8969 72.2217L74.0884 72.061ZM62.5258 58.2859L62.7175 58.1254C62.6556 58.0515 62.6432 57.9499 62.6821 57.8633L62.454 57.7609L62.2259 57.6585C62.1111 57.9143 62.1454 58.2211 62.3342 58.4464L62.5258 58.2859ZM62.454 57.7609L62.6834 57.8603C62.6853 57.856 62.6869 57.8521 62.688 57.8494C62.6893 57.8462 62.69 57.8447 62.6907 57.8431C62.6919 57.8401 62.6915 57.8414 62.69 57.8443L62.4679 57.7295L62.2458 57.6147C62.239 57.6279 62.2338 57.6397 62.2306 57.6472C62.2251 57.6603 62.2276 57.6547 62.2246 57.6616L62.454 57.7609ZM75.8186 63.9091L75.6879 63.696C75.0087 64.1124 74.6004 64.857 74.6143 65.6536L74.8643 65.6492L75.1143 65.6449C75.1034 65.0253 75.421 64.4461 75.9492 64.1222L75.8186 63.9091Z" fill="#1C1C1C"/>
</g>
<defs>
<clipPath id="clip0_18011_8015">
<rect width="62" height="62" fill="white" transform="translate(20 20)"/>
</clipPath>
</defs>
</svg>
