<svg width="62" height="62" viewBox="0 0 62 62" fill="none" xmlns="http://www.w3.org/2000/svg">
<g clip-path="url(#clip0_18011_7331)">
<path d="M49.78 52.88V55.06C49.78 55.99 49.57 56.9 49.19 57.71C48.8 58.53 48.22 59.27 47.5 59.87C46.54 60.66 45.39 61.13 44.22 61.25H15.9C15.68 61.28 15.45 61.29 15.23 61.29C13.83 61.29 12.42 60.81 11.27 59.87C10.55 59.28 9.99 58.54 9.59 57.71C9.21 56.9 9 55.99 9 55.06L9.09 22.95L37.33 23.01V52.89H49.79L49.78 52.88Z" fill="#4169E1" stroke="#1C1C1C" stroke-width="0.5" stroke-linejoin="round"/>
<path d="M10.1403 13.28C9.55031 13.28 9.07031 13.76 9.07031 14.35V51.76C9.07031 52.69 9.28031 53.6 9.66031 54.41C10.0503 55.23 10.6203 55.97 11.3403 56.57C12.4903 57.51 13.9003 57.99 15.3003 57.99C15.5203 57.99 15.7503 57.99 15.9703 57.95C17.1403 57.83 18.2803 57.36 19.2503 56.57C20.6903 55.38 21.5303 53.62 21.5303 51.76V49.58H43.9203V14.29C43.9203 13.7 43.4403 13.21 42.8403 13.22L10.1403 13.28Z" fill="#F0F0F5" stroke="#1C1C1C" stroke-width="0.5" stroke-linejoin="round"/>
<path d="M49.7804 49.6V51.78C49.7804 52.71 49.5704 53.62 49.1904 54.43C48.8004 55.25 48.2204 55.99 47.5004 56.59C46.5404 57.38 45.3904 57.85 44.2204 57.97H15.9004C17.0704 57.85 18.2104 57.38 19.1804 56.59C20.6204 55.4 21.4604 53.64 21.4604 51.78V49.6H49.7804Z" fill="#CCD9FD" stroke="#1C1C1C" stroke-width="0.5" stroke-linejoin="round"/>
<path d="M16.5195 20.65H36.9295" stroke="#1C1C1C" stroke-width="0.5" stroke-linecap="round" stroke-linejoin="round"/>
<path d="M16.5195 27.1H36.9295" stroke="#1C1C1C" stroke-width="0.5" stroke-linecap="round" stroke-linejoin="round"/>
<path d="M16.5195 33.54H36.9295" stroke="#1C1C1C" stroke-width="0.5" stroke-linecap="round" stroke-linejoin="round"/>
<path d="M33.71 46.51C35.4883 46.51 36.93 45.0684 36.93 43.29C36.93 41.5117 35.4883 40.07 33.71 40.07C31.9316 40.07 30.49 41.5117 30.49 43.29C30.49 45.0684 31.9316 46.51 33.71 46.51Z" fill="#FF9500" stroke="#1C1C1C" stroke-width="0.5" stroke-linejoin="round"/>
<path d="M43.8899 20.5C39.6099 20.5 36.1299 17.02 36.1299 12.74V8.76C36.1299 4.48 39.6099 1 43.8899 1C48.1699 1 51.6499 4.48 51.6499 8.76V12.74C51.6499 17.02 48.1699 20.5 43.8899 20.5ZM43.8899 4.99C41.8099 4.99 40.1199 6.68 40.1199 8.76V12.74C40.1199 14.82 41.8099 16.51 43.8899 16.51C45.9699 16.51 47.6599 14.82 47.6599 12.74V8.76C47.6599 6.68 45.9699 4.99 43.8899 4.99Z" fill="#FF9500" stroke="#1C1C1C" stroke-width="0.5" stroke-linejoin="round"/>
<path d="M52.6102 13.26H35.1602V28.77H52.6102V13.26Z" fill="#FF9500" stroke="#1C1C1C" stroke-width="0.5" stroke-linejoin="round"/>
</g>
<defs>
<clipPath id="clip0_18011_7331">
<rect width="62" height="62" rx="5" fill="white"/>
</clipPath>
</defs>
</svg>
