<svg width="102" height="102" viewBox="0 0 102 102" fill="none" xmlns="http://www.w3.org/2000/svg">
<rect x="0.5" y="0.5" width="101" height="101" rx="4.5" stroke="#9747FF" stroke-dasharray="10 5"/>
<path d="M56.8473 65.8956H38.2546V80.4068H56.8473V65.8956Z" fill="#67656E" stroke="#1C1C1C" stroke-width="0.5" stroke-linejoin="round"/>
<path d="M38.2547 80.4152L25.104 75.5196V61.0084L38.2547 65.9039V80.4152Z" fill="#67656E" stroke="#1C1C1C" stroke-width="0.5" stroke-linejoin="round"/>
<path d="M56.8474 80.4152L70.0066 75.5196V61.0084L56.8474 65.9039V80.4152Z" fill="#67656E" stroke="#1C1C1C" stroke-width="0.5" stroke-linejoin="round"/>
<path d="M58.2141 46.6224H37.8386V56.6474H58.2141V46.6224Z" fill="#67656E" stroke="#1C1C1C" stroke-width="0.5" stroke-linejoin="round"/>
<path d="M38.7555 47.558V58.2013L26.335 64.1579V52.3701L38.7555 47.558Z" fill="#67656E" stroke="#1C1C1C" stroke-width="0.5" stroke-linejoin="round"/>
<path d="M56.4229 47.558V58.2013L68.8434 64.1579V52.3701L56.4229 47.558Z" fill="#67656E" stroke="#1C1C1C" stroke-width="0.5" stroke-linejoin="round"/>
<path d="M56.8473 62.9131H38.2546V77.4244H56.8473V62.9131Z" fill="#C5C2CC" stroke="#1C1C1C" stroke-width="0.5" stroke-linejoin="round"/>
<path d="M38.2547 77.4244L25.104 72.5288V58.0175L38.2547 62.9131V77.4244Z" fill="#C5C2CC" stroke="#1C1C1C" stroke-width="0.5" stroke-linejoin="round"/>
<path d="M56.8474 77.4244L70.0066 72.5288V58.0175L56.8474 62.9131V77.4244Z" fill="#C5C2CC" stroke="#1C1C1C" stroke-width="0.5" stroke-linejoin="round"/>
<path d="M42.4486 61.9023C40.7677 61.9023 39.4008 61.8605 38.2632 61.7853C37.0831 61.7018 30.3931 59.2623 29.4253 58.9114L38.7641 55.4277H56.4144L65.1334 58.6775C64.174 59.0535 57.2464 61.7769 56.0493 61.7769H56.0238C55.2513 61.7435 54.3768 61.7268 53.3495 61.7268C51.6855 61.7268 49.8263 61.7686 48.0179 61.8104C46.1502 61.8521 44.223 61.8939 42.4402 61.8939L42.4486 61.9023Z" fill="#C5C2CC" stroke="#1C1C1C" stroke-width="0.5" stroke-linejoin="round"/>
<path d="M56.338 48.8279L67.2134 52.8964V56.1044L56.338 60.1729H38.7726L27.8971 56.1044V52.8964L38.7726 48.8279H56.338ZM56.8558 46.0961H38.2547L25.104 51.0251V57.9925L38.2547 62.9215H56.8558L70.0065 57.9925V51.0251L56.8558 46.0961Z" fill="#C5C2CC" stroke="#1C1C1C" stroke-width="0.5" stroke-linejoin="round"/>
<path d="M40.182 57.5998C39.4094 57.5998 38.7812 56.99 38.7812 56.2297V43.4728C38.7812 42.5706 38.0256 41.827 37.0917 41.827C36.1578 41.827 35.4022 42.5622 35.4022 43.4728V48.3768C35.4022 49.1286 34.774 49.7468 34.0014 49.7468C33.2288 49.7468 32.6006 49.137 32.6006 48.3768V43.4728C32.6006 41.0585 34.6212 39.0952 37.1002 39.0952C39.5792 39.0952 41.5998 41.0585 41.5998 43.4728V56.2297C41.5998 56.9816 40.9715 57.5998 40.199 57.5998H40.182Z" fill="white" stroke="#1C1C1C" stroke-width="0.5" stroke-miterlimit="10"/>
<path d="M40.182 57.5998C39.4094 57.5998 38.7812 56.99 38.7812 56.2297V43.4728C38.7812 42.5706 38.0256 41.827 37.0917 41.827C36.1578 41.827 35.4022 42.5622 35.4022 43.4728V48.3768C35.4022 49.1286 34.774 49.7468 34.0014 49.7468C33.2288 49.7468 32.6006 49.137 32.6006 48.3768V43.4728C32.6006 41.0585 34.6212 39.0952 37.1002 39.0952C39.5792 39.0952 41.5998 41.0585 41.5998 43.4728V56.2297C41.5998 56.9816 40.9715 57.5998 40.199 57.5998H40.182Z" fill="white" stroke="#1C1C1C" stroke-width="0.5" stroke-miterlimit="10"/>
<path d="M40.182 57.5998C39.4094 57.5998 38.7812 56.99 38.7812 56.2297V43.4728C38.7812 42.5706 38.0256 41.827 37.0917 41.827C36.1578 41.827 35.4022 42.5622 35.4022 43.4728V48.3768C35.4022 49.1286 34.774 49.7468 34.0014 49.7468C33.2288 49.7468 32.6006 49.137 32.6006 48.3768V43.4728C32.6006 41.0585 34.6212 39.0952 37.1002 39.0952C39.5792 39.0952 41.5998 41.0585 41.5998 43.4728V56.2297C41.5998 56.9816 40.9715 57.5998 40.199 57.5998H40.182Z" fill="#67656E" stroke="#1C1C1C" stroke-width="0.5" stroke-linejoin="round"/>
<path d="M39.9017 46.9398C39.613 46.2381 38.798 45.8955 38.0764 46.1796L33.7805 47.8003C33.8145 47.8922 33.8315 48.0008 33.8315 48.1094V50.7159L39.1206 48.7193C39.8422 48.4436 40.1903 47.6499 39.9101 46.9482L39.9017 46.9398Z" fill="#67656E" stroke="#1C1C1C" stroke-width="0.5" stroke-linejoin="round"/>
<path d="M39.9611 51.6432C39.6725 50.9415 38.8574 50.599 38.1358 50.8747L33.823 52.5371V55.4778L39.1716 53.4143C39.8932 53.1387 40.2413 52.345 39.9611 51.6432Z" fill="#67656E" stroke="#1C1C1C" stroke-width="0.5" stroke-linejoin="round"/>
<path d="M35.3937 58.6775V45.9206C35.3937 43.5063 33.3731 41.543 30.8941 41.543C28.4151 41.543 26.3945 43.5063 26.3945 45.9206V50.5322L29.2047 49.4795V45.9206C29.2047 45.0184 29.9602 44.2749 30.8941 44.2749C31.828 44.2749 32.5836 45.01 32.5836 45.9206V57.8588L35.3682 58.9031C35.3852 58.8279 35.3937 58.7527 35.3937 58.6692V58.6775Z" fill="#67656E" stroke="#1C1C1C" stroke-width="0.5" stroke-linejoin="round"/>
<path d="M48.3916 59.0117C50.9282 59.0117 52.9845 58.4955 52.9845 57.8588C52.9845 57.2221 50.9282 56.7059 48.3916 56.7059C45.8549 56.7059 43.7986 57.2221 43.7986 57.8588C43.7986 58.4955 45.8549 59.0117 48.3916 59.0117Z" fill="#C5C2CC" stroke="#1C1C1C" stroke-width="0.5" stroke-linejoin="round"/>
<path d="M48.9433 57.4996H47.9669C47.5679 57.4996 47.2368 57.2322 47.2368 56.8981V32.6959C47.2368 31.6432 47.8396 30.6491 48.8584 30.0142L55.7691 26.5639L57.9679 25.7368L49.6734 32.228V56.8813C49.6734 57.2155 49.3508 57.4828 48.9433 57.4828V57.4996Z" fill="#C5C2CC" stroke="#1C1C1C" stroke-width="0.5" stroke-linejoin="round"/>
<path d="M66.2794 47.3158L75.9153 37.8338L61.2789 22.4453L50.6497 32.9048L66.2794 47.3158Z" fill="#434248" stroke="#1C1C1C" stroke-width="0.5" stroke-linejoin="round"/>
<path d="M60.8772 21.5916L49.6572 32.6324L51.6683 34.6113L62.8883 23.5705L60.8772 21.5916Z" fill="#434248" stroke="#1C1C1C" stroke-width="0.5" stroke-linejoin="round"/>
<path d="M57.3481 29.1119C75.3295 23.3642 71.6959 33.7819 71.8997 33.4311" stroke="#1C1C1C" stroke-width="0.5" stroke-miterlimit="10"/>
<path d="M67.6214 32.701L67.3584 32.9454C67.139 33.1511 67.0637 33.4673 67.1694 33.7507C67.2048 33.8434 67.234 33.9401 67.2614 34.0352C67.4065 34.5398 67.4485 35.0592 67.3869 35.5772C67.3266 36.0771 67.1717 36.5536 66.9284 36.9966C66.685 37.4395 66.3615 37.8244 65.972 38.1405C65.568 38.4673 65.1063 38.7075 64.6018 38.8527C64.0973 38.9978 63.5805 39.0389 63.0626 38.9774C62.7853 38.9431 62.5122 38.8795 62.2492 38.7886L62.7777 38.2941L62.7986 38.2749C63.33 38.3985 63.8919 38.3832 64.4228 38.2304L64.4453 38.224C64.8518 38.1048 65.2257 37.9103 65.555 37.6446C65.8844 37.3787 66.1565 37.0566 66.3615 36.6861C66.78 35.9295 66.8781 35.052 66.6392 34.2213C66.6001 34.0856 66.5524 33.9501 66.4952 33.8197L66.4771 33.7781L66.4446 33.8098L62.0214 37.9365L61.107 38.792L60.0744 39.7556L59.8727 39.0546L60.936 38.0597L61.4602 37.5716L67.4198 32L67.6214 32.701ZM62.4232 31.2718C62.9276 31.1267 63.4445 31.0855 63.9624 31.1471C64.2373 31.1799 64.5104 31.2444 64.7736 31.3355L64.7346 31.3731L64.222 31.8518C63.6906 31.7283 63.1315 31.7438 62.6027 31.8959L62.5783 31.9029C62.1724 32.0241 61.7988 32.2195 61.4689 32.4832C61.1395 32.7491 60.8674 33.0712 60.6624 33.4417C60.2445 34.2004 60.1448 35.0761 60.3838 35.9068C60.4228 36.0425 60.4709 36.1759 60.5282 36.3063L60.546 36.3469L60.5785 36.3152L64.9968 32.1858L65.9112 31.3304L66.9463 30.3609L67.1479 31.062L66.0817 32.0607L65.5575 32.5489L60.9016 36.9051L60.8813 36.9262L60.6424 37.1484L60.4002 37.3735L60.3997 37.3716L60.3769 37.3914L59.603 38.117L59.4014 37.4159L59.6641 37.1706C59.8834 36.9649 59.959 36.6495 59.8534 36.3663C59.8199 36.2728 59.7891 36.178 59.7617 36.0827C59.6167 35.5783 59.5749 35.0595 59.6365 34.5417C59.6967 34.0417 59.8516 33.5652 60.095 33.1223C60.3389 32.6813 60.6598 32.295 61.0514 31.9784C61.4571 31.6576 61.9187 31.4169 62.4232 31.2718Z" fill="white"/>
</svg>
