<svg width="62" height="62" viewBox="0 0 62 62" fill="none" xmlns="http://www.w3.org/2000/svg">
<g clip-path="url(#clip0_18011_6630)">
<path d="M11.3638 5.31305C11.4095 4.31062 12.2422 3.52473 13.2518 3.52473C15.1903 3.40132 17.1533 3.2977 19.1397 3.2162C28.6152 2.8285 37.6503 2.98102 46.1922 3.52357C46.6092 3.55617 47.1117 3.67725 47.497 4.04283C47.8367 4.36534 48.0569 4.81242 48.0791 5.31305C48.4024 12.4035 48.571 19.8129 48.5383 27.518C48.5078 34.5223 48.3157 41.2762 47.9936 47.7612H11.4493C11.0944 40.6941 10.8929 33.2847 10.8953 25.5609C10.8953 18.545 11.0651 11.7887 11.3638 5.31422V5.31305Z" fill="#4169E1" stroke="#1C1C1C" stroke-width="0.5" stroke-miterlimit="10" stroke-linejoin="round"/>
<path d="M3.7342 5.31625C3.77988 4.31382 4.61264 3.52793 5.62226 3.52793C10.7922 3.32768 16.1425 3.21474 21.6626 3.20892C27.4884 3.2031 33.1268 3.3172 38.5626 3.52793C38.9796 3.56053 39.4821 3.68162 39.8674 4.0472C40.2071 4.3697 40.4273 4.81678 40.4495 5.31742C40.7728 12.4078 40.9415 19.8173 40.9087 27.5224C40.8782 34.5267 40.6861 41.2806 40.364 47.7656H3.82087C3.46598 40.6985 3.26452 33.289 3.26687 25.5653C3.26687 18.5494 3.4367 11.7931 3.73537 5.31858L3.7342 5.31625Z" fill="#CCD9FD" stroke="#1C1C1C" stroke-width="0.5" stroke-miterlimit="10" stroke-linejoin="round"/>
<path d="M8.4009 49.2537C8.51217 48.3817 9.24421 47.7332 10.1285 47.7029C17.9021 47.4421 39.7437 47.4328 47.6579 47.7029C48.5433 47.7332 49.28 48.384 49.389 49.2584C49.5693 50.7032 49.683 52.3367 49.6584 54.1262C49.6396 55.5373 49.5377 56.8448 49.3901 58.0311C49.28 58.9113 48.534 59.5645 47.6415 59.6029C41.7091 59.8544 35.5494 59.9953 29.1778 59.9999C22.6035 60.0046 16.2542 59.8614 10.1472 59.6029C9.25709 59.5657 8.511 58.9137 8.4009 58.0358C8.23927 56.7598 8.13151 55.3335 8.12449 53.7816C8.11863 52.1213 8.23107 50.6019 8.40207 49.2549L8.4009 49.2537Z" fill="#4169E1" stroke="#1C1C1C" stroke-width="0.5" stroke-miterlimit="10" stroke-linejoin="round"/>
<path d="M1.81619 49.2537C1.92745 48.3817 2.65949 47.7332 3.54379 47.7029C11.3174 47.4421 33.159 47.4328 41.0731 47.7029C41.9586 47.7332 42.6953 48.384 42.8043 49.2584C42.9846 50.7032 43.0982 52.3367 43.0736 54.1262C43.0549 55.5373 42.953 56.8448 42.8054 58.0311C42.6953 58.9113 41.9492 59.5645 41.0567 59.6029C35.1243 59.8544 28.9647 59.9953 22.5931 59.9999C16.0188 60.0046 9.66945 59.8614 3.56253 59.6029C2.67237 59.5657 1.92628 58.9137 1.81619 58.0358C1.65455 56.7598 1.5468 55.3335 1.53977 53.7816C1.53391 52.1213 1.64635 50.6019 1.81736 49.2549L1.81619 49.2537Z" fill="#CCD9FD" stroke="#1C1C1C" stroke-width="0.5" stroke-miterlimit="10" stroke-linejoin="round"/>
<path d="M34.7517 31.3661C30.8197 31.5803 26.6876 31.7061 22.3715 31.7119C17.8481 31.7177 13.525 31.5908 9.42209 31.3661C9.19135 28.5614 9.05431 22.9976 9.06837 19.7458C9.08125 16.8386 9.21243 11.5822 9.42209 9.03822C13.2767 8.72619 17.4405 8.53293 21.876 8.5271C26.472 8.52128 30.7764 8.71688 34.7517 9.03822C34.9508 11.4226 35.0808 16.4905 35.1077 19.1834C35.1417 22.6448 35 28.3972 34.7517 31.3661Z" fill="#E8EDFA" stroke="#1C1C1C" stroke-width="0.5" stroke-miterlimit="10" stroke-linejoin="round"/>
<path d="M46.3406 6.40601C46.8127 5.8065 47.6815 5.7025 48.281 6.17456L55.1521 11.5857C56.1502 12.3716 56.7331 13.5722 56.7332 14.8425V40.5896C56.733 42.8788 54.8769 44.7351 52.5876 44.7351H48.197C45.9078 44.7351 44.0517 42.8788 44.0515 40.5896V18.5281C44.0515 18.2423 43.8492 18.0024 43.5798 17.947L43.4597 17.9353L43.3181 17.9285C42.6218 17.8575 42.0783 17.2694 42.0779 16.5544C42.0779 15.7914 42.6966 15.1727 43.4597 15.1726L43.6326 15.1765C45.4054 15.2664 46.8152 16.7329 46.8152 18.5281V40.5896C46.8154 41.3526 47.434 41.9714 48.197 41.9714H52.5876C53.3507 41.9714 53.9693 41.3526 53.9695 40.5896V14.8425C53.9694 14.4194 53.7754 14.0195 53.4431 13.7576L46.5701 8.34644C45.9708 7.8743 45.8686 7.00546 46.3406 6.40601Z" fill="#CCD9FD"/>
<path d="M46.3406 6.40601L46.1442 6.25134L46.1442 6.25135L46.3406 6.40601ZM48.281 6.17456L48.4357 5.97815L48.4357 5.97814L48.281 6.17456ZM55.1521 11.5857L54.9974 11.7821L54.9974 11.7821L55.1521 11.5857ZM56.7332 14.8425L56.9832 14.8425L56.9832 14.8425L56.7332 14.8425ZM56.7332 40.5896L56.9832 40.5896V40.5896H56.7332ZM44.0515 40.5896L43.8015 40.5896L43.8015 40.5896L44.0515 40.5896ZM43.5798 17.947L43.6302 17.7022C43.6216 17.7004 43.6129 17.6991 43.6041 17.6982L43.5798 17.947ZM43.4597 17.9353L43.484 17.6862L43.4718 17.6856L43.4597 17.9353ZM43.3181 17.9285L43.2927 18.1775L43.3061 18.1782L43.3181 17.9285ZM42.0779 16.5544L41.8279 16.5544L41.8279 16.5546L42.0779 16.5544ZM43.4597 15.1726L43.4654 14.9226L43.4597 14.9226L43.4597 15.1726ZM43.6326 15.1765L43.6452 14.9267L43.6382 14.9266L43.6326 15.1765ZM46.8152 40.5896L46.5652 40.5896L46.5652 40.5897L46.8152 40.5896ZM53.9695 40.5896L54.2195 40.5897V40.5896H53.9695ZM53.9695 14.8425L54.2195 14.8425L54.2195 14.8425L53.9695 14.8425ZM53.4431 13.7576L53.5979 13.5612L53.5978 13.5611L53.4431 13.7576ZM46.5701 8.34644L46.4154 8.54281L46.4154 8.54286L46.5701 8.34644ZM46.3406 6.40601L46.537 6.56067C46.9238 6.06947 47.6355 5.98447 48.1264 6.37098L48.281 6.17456L48.4357 5.97814C47.7275 5.42053 46.7015 5.54354 46.1442 6.25134L46.3406 6.40601ZM48.281 6.17456L48.1263 6.37097L54.9974 11.7821L55.1521 11.5857L55.3068 11.3893L48.4357 5.97815L48.281 6.17456ZM55.1521 11.5857L54.9974 11.7821C55.9354 12.5206 56.4831 13.6488 56.4832 14.8425L56.7332 14.8425L56.9832 14.8425C56.9831 13.4955 56.3651 12.2226 55.3068 11.3893L55.1521 11.5857ZM56.7332 14.8425H56.4832V40.5896H56.7332H56.9832V14.8425H56.7332ZM56.7332 40.5896L56.4832 40.5896C56.483 42.7408 54.7388 44.4851 52.5876 44.4851V44.7351V44.9851C55.015 44.9851 56.983 43.0169 56.9832 40.5896L56.7332 40.5896ZM52.5876 44.7351V44.4851H48.197V44.7351V44.9851H52.5876V44.7351ZM48.197 44.7351V44.4851C46.0459 44.4851 44.3017 42.7408 44.3015 40.5896L44.0515 40.5896L43.8015 40.5896C43.8017 43.0169 45.7697 44.9851 48.197 44.9851V44.7351ZM44.0515 40.5896H44.3015V18.5281H44.0515H43.8015V40.5896H44.0515ZM44.0515 18.5281H44.3015C44.3015 18.1222 44.0143 17.7812 43.6302 17.7022L43.5798 17.947L43.5294 18.1919C43.6841 18.2237 43.8015 18.3625 43.8015 18.5281H44.0515ZM43.5798 17.947L43.6041 17.6982L43.484 17.6865L43.4597 17.9353L43.4354 18.1841L43.5556 18.1958L43.5798 17.947ZM43.4597 17.9353L43.4718 17.6856L43.3302 17.6788L43.3181 17.9285L43.3061 18.1782L43.4477 18.185L43.4597 17.9353ZM43.3181 17.9285L43.3434 17.6798C42.7734 17.6217 42.3282 17.1397 42.3279 16.5543L42.0779 16.5544L41.8279 16.5546C41.8283 17.399 42.4702 18.0934 43.2928 18.1772L43.3181 17.9285ZM42.0779 16.5544H42.3279C42.3279 15.9294 42.8347 15.4227 43.4597 15.4226L43.4597 15.1726L43.4597 14.9226C42.5586 14.9227 41.8279 15.6533 41.8279 16.5544H42.0779ZM43.4597 15.1726L43.4541 15.4225L43.6269 15.4264L43.6326 15.1765L43.6382 14.9266L43.4654 14.9227L43.4597 15.1726ZM43.6326 15.1765L43.6199 15.4262C45.2604 15.5094 46.5652 16.8667 46.5652 18.5281H46.8152H47.0652C47.0652 16.5992 45.5504 15.0235 43.6452 14.9268L43.6326 15.1765ZM46.8152 18.5281H46.5652V40.5896H46.8152H47.0652V18.5281H46.8152ZM46.8152 40.5896L46.5652 40.5897C46.5654 41.4906 47.2959 42.2214 48.197 42.2214V41.9714V41.7214C47.5721 41.7214 47.0653 41.2145 47.0652 40.5895L46.8152 40.5896ZM48.197 41.9714V42.2214H52.5876V41.9714V41.7214H48.197V41.9714ZM52.5876 41.9714V42.2214C53.4888 42.2214 54.2193 41.4906 54.2195 40.5897L53.9695 40.5896L53.7195 40.5895C53.7193 41.2145 53.2125 41.7214 52.5876 41.7214V41.9714ZM53.9695 40.5896H54.2195V14.8425H53.9695H53.7195V40.5896H53.9695ZM53.9695 14.8425L54.2195 14.8425C54.2194 14.3428 53.9904 13.8706 53.5979 13.5612L53.4431 13.7576L53.2884 13.9539C53.5605 14.1684 53.7194 14.4959 53.7195 14.8426L53.9695 14.8425ZM53.4431 13.7576L53.5978 13.5611L46.7247 8.15001L46.5701 8.34644L46.4154 8.54286L53.2885 13.954L53.4431 13.7576ZM46.5701 8.34644L46.7248 8.15006C46.2342 7.76356 46.1502 7.05193 46.537 6.56066L46.3406 6.40601L46.1442 6.25135C45.587 6.959 45.7074 7.98503 46.4154 8.54281L46.5701 8.34644Z" fill="#1C1C1C"/>
<path d="M49.4043 22.063H54.0928V13.14L49.4043 14.8177V22.063Z" fill="#FF9500" stroke="#1C1C1C" stroke-width="0.5" stroke-miterlimit="10" stroke-linejoin="round"/>
<path d="M59.4584 13.14H54.0964V22.063H59.4584V13.14Z" fill="#FF9500" stroke="#1C1C1C" stroke-width="0.5" stroke-miterlimit="10" stroke-linejoin="round"/>
<path d="M23.0979 23.1417C22.6858 23.3798 22.1913 23.3798 21.7792 23.1417L18.1253 21.0537C17.5118 20.7057 17.2828 19.9365 17.6033 19.3046L21.303 12.0151C21.7976 11.0353 23.2078 11.0536 23.684 12.0426L27.2006 19.3779C27.5028 20.0006 27.2647 20.7515 26.6603 21.0995L23.0979 23.1325V23.1417Z" fill="#1C1C1C"/>
<path d="M22.9011 24.6146C22.4981 24.8343 22.0036 24.8343 21.6098 24.6054L18.6794 22.9296C18.0567 22.5724 17.3882 23.3233 17.8186 23.9003L21.2069 28.5157C21.7289 29.23 22.7912 29.2392 23.3315 28.534L26.8938 23.8728C27.3334 23.305 26.674 22.5449 26.0513 22.8929L22.9102 24.6146H22.9011Z" fill="#1C1C1C"/>
</g>
<defs>
<clipPath id="clip0_18011_6630">
<rect width="62" height="62" rx="5" fill="white"/>
</clipPath>
</defs>
</svg>
