<svg width="102" height="102" viewBox="0 0 102 102" fill="none" xmlns="http://www.w3.org/2000/svg">
<rect x="0.5" y="0.5" width="101" height="101" rx="4.5" stroke="#8A38F5" stroke-dasharray="10 5"/>
<g clip-path="url(#clip0_18011_5316)">
<mask id="mask0_18011_5316" style="mask-type:alpha" maskUnits="userSpaceOnUse" x="35" y="22" width="49" height="57">
<path d="M36.2519 78.0683H82.9993V47.2609L69.1359 23L41.7943 38.7888L44.1049 44.5652L41.0241 56.118L35.6328 67.6708L36.2519 78.0683Z" fill="#D9D9D9" stroke="black" stroke-width="0.5"/>
</mask>
<g mask="url(#mask0_18011_5316)">
<path d="M81.5746 47.0406C68.5326 54.8323 55.3461 62.3724 42.0571 69.734C37.1128 62.0075 34.8174 58.0481 30.5385 49.9394C43.6955 42.1788 56.9398 34.5515 70.2833 27.1155C75.1302 34.8979 77.3931 38.876 81.5746 47.0406Z" fill="#FF9500" stroke="#1C1C1C" stroke-width="0.5" stroke-linejoin="round"/>
<path d="M80.1407 44.2923C66.993 52.0691 53.73 59.664 40.3959 67.1162C35.549 59.3338 33.2861 55.3557 29.1046 47.1912C42.1606 39.4238 55.3191 31.835 68.6221 24.4977C73.5665 32.2242 75.8618 36.1836 80.1407 44.2923Z" fill="#FFE2C8" stroke="#1C1C1C" stroke-width="0.5" stroke-linejoin="round"/>
<path d="M72.163 45.6897C63.335 50.8024 54.4965 55.878 45.6313 60.9258C44.5781 59.1671 42.2876 58.5614 40.4974 59.5786C38.4841 56.148 37.5041 54.4227 35.5882 50.9362C37.3691 49.9027 38.0038 47.6063 37.0237 45.8056C45.8017 40.6999 54.6077 35.643 63.4417 30.6347C64.503 32.3888 66.8063 32.998 68.5965 31.9807C70.6423 35.3927 71.6385 37.1086 73.5869 40.5766C71.8013 41.6019 71.1747 43.8936 72.163 45.6897Z" fill="#FF9500" stroke="#1C1C1C" stroke-width="0.5" stroke-linejoin="round"/>
<path d="M58.8162 53.2051C62.8723 50.8758 64.2733 45.6954 61.9439 41.6393C59.6146 37.5832 54.4342 36.1822 50.3781 38.5115C46.3219 40.8408 44.921 46.0212 47.2503 50.0773C49.5796 54.1334 54.76 55.5344 58.8162 53.2051Z" fill="#FFE2C8" stroke="#1C1C1C" stroke-width="0.5" stroke-linejoin="round"/>
<path d="M56.8585 41.8186C57.4352 42.6173 57.3825 43.3366 57.0116 43.9345C58.0397 43.6483 58.9192 43.882 59.5256 45.1976C60.2783 46.8326 59.4247 47.8878 57.9044 48.885L58.572 50.0474C58.7221 50.3089 58.6326 50.6397 58.371 50.7899C58.1095 50.9401 57.7787 50.8507 57.6285 50.5892L56.9744 49.4501C56.7315 49.5896 56.4793 49.7344 56.2264 49.8672L56.8886 51.0203C57.0388 51.2818 56.9492 51.6126 56.6877 51.7627C56.4261 51.9129 56.0953 51.8236 55.9452 51.5621L55.2776 50.3997C55.0581 50.5257 54.8332 50.6424 54.6044 50.7739L54.0673 51.0823C53.7077 51.2888 53.2471 51.1249 53.1041 50.7353C52.9872 50.4237 53.1215 50.0734 53.4064 49.9098C53.5885 49.8052 53.5812 49.8032 53.5812 49.8032C53.8427 49.653 53.7955 49.4194 53.7411 49.2706L52.2612 46.6936L51.1968 44.8402C51.0515 44.6629 50.7813 44.4952 50.3984 44.7151C50.3984 44.7151 50.3984 44.7151 50.2462 44.7963C49.9567 44.9626 49.5844 44.8659 49.4182 44.5765C49.252 44.2871 49.3541 43.9242 49.639 43.7606L51.0168 42.9694L50.3546 41.8163C50.2045 41.5548 50.294 41.224 50.5555 41.0738C50.8171 40.9237 51.1479 41.013 51.298 41.2745L51.9388 42.3903C52.191 42.2454 52.4238 42.0993 52.676 41.9545L52.0406 40.848C51.8905 40.5866 51.98 40.2558 52.2416 40.1056C52.5031 39.9554 52.8339 40.0448 52.9841 40.3063L53.6463 41.4594C54.9102 40.8701 56.0975 40.7098 56.8686 41.8252L56.8585 41.8186ZM57.5495 46.0716C56.823 44.8065 54.9333 46.1338 54.2981 46.4985L55.5394 48.6601C56.1746 48.2953 58.2546 47.2995 57.5469 46.067L57.5495 46.0716ZM55.3738 43.2672C54.7063 42.1047 53.1428 43.2323 52.6057 43.5407L53.7344 45.5061C54.2715 45.1977 56.0065 44.3689 55.3738 43.2672Z" fill="#1C1C1C"/>
<path d="M80.7698 76.4132C65.5798 76.6753 50.3898 76.6472 35.1998 76.4132C34.7599 67.2507 34.7412 62.6741 35.0688 53.5116C50.343 53.3337 65.6266 53.315 80.9008 53.5116C81.2284 62.6741 81.2097 67.2507 80.7698 76.4132Z" fill="#FF9500" stroke="#1C1C1C" stroke-width="0.5" stroke-linejoin="round"/>
<path d="M80.893 73.3183C65.6188 73.5148 50.3352 73.4961 35.061 73.3183C34.7334 64.1557 34.7521 59.5792 35.192 50.4166C50.382 50.1827 65.572 50.1546 80.762 50.4166C81.2018 59.5792 81.2206 64.1557 80.893 73.3183Z" fill="#FFE2C8" stroke="#1C1C1C" stroke-width="0.5" stroke-linejoin="round"/>
<path d="M73.2806 70.5578C63.079 70.5952 52.8869 70.5952 42.6853 70.5578C42.6479 68.5082 40.9632 66.8423 38.9042 66.8329C38.8668 62.8553 38.8761 60.8712 38.951 56.8936C41.01 56.8842 42.704 55.2089 42.7508 53.1593C52.9056 53.1031 63.0603 53.1031 73.215 53.1593C73.2618 55.2089 74.9559 56.8842 77.0149 56.8936C77.0898 60.8712 77.0991 62.8553 77.0617 66.8329C75.0027 66.8329 73.318 68.5082 73.2806 70.5578Z" fill="#FF9500" stroke="#1C1C1C" stroke-width="0.5" stroke-linejoin="round"/>
<path d="M57.9642 70.4285C62.6416 70.4285 66.4363 66.6338 66.4363 61.9564C66.4363 57.279 62.6416 53.4844 57.9642 53.4844C53.2868 53.4844 49.4922 57.279 49.4922 61.9564C49.4922 66.6338 53.2868 70.4285 57.9642 70.4285Z" fill="#FFE2C8" stroke="#1C1C1C" stroke-width="0.5" stroke-linejoin="round"/>
<path d="M61.9349 59.5815C62.0372 60.5613 61.6333 61.1589 61.0139 61.4927C62.048 61.7565 62.6943 62.3971 62.565 63.8399C62.4035 65.6326 61.1378 66.1226 59.3228 66.2302V67.5707C59.3228 67.8722 59.0804 68.1145 58.7788 68.1145C58.4772 68.1145 58.2349 67.8722 58.2349 67.5707V66.2571C57.9548 66.2571 57.664 66.2571 57.3785 66.2464V67.5761C57.3785 67.8776 57.1362 68.1199 56.8346 68.1199C56.533 68.1199 56.2906 67.8776 56.2906 67.5761V66.2356C56.0375 66.2356 55.7843 66.2248 55.5204 66.2248H54.9011C54.4864 66.2248 54.1686 65.8534 54.2386 65.4442C54.2925 65.1158 54.5833 64.879 54.9119 64.879C55.1219 64.879 55.1165 64.8736 55.1165 64.8736C55.4181 64.8736 55.4935 64.6475 55.5204 64.4913V61.5196V59.3823C55.4827 59.1562 55.3319 58.8763 54.8903 58.8763C54.8903 58.8763 54.8903 58.8763 54.718 58.8709C54.384 58.8709 54.1094 58.6017 54.1094 58.2679C54.1094 57.9342 54.3787 57.6704 54.7072 57.6704H56.296V56.3406C56.296 56.0391 56.5384 55.7969 56.84 55.7969C57.1416 55.7969 57.3839 56.0391 57.3839 56.3406V57.6273C57.6748 57.6273 57.9494 57.6165 58.2403 57.6165V56.3406C58.2403 56.0391 58.4826 55.7969 58.7842 55.7969C59.0858 55.7969 59.3282 56.0391 59.3282 56.3406V57.6704C60.7177 57.7888 61.8272 58.241 61.9403 59.5923L61.9349 59.5815ZM60.4161 63.6138C60.4161 62.1549 58.1164 62.3648 57.3839 62.3648V64.8574C58.1164 64.8574 60.4161 65.0297 60.4161 63.6084V63.6138ZM59.926 60.0983C59.926 58.7578 58.0087 58.957 57.3893 58.957V61.2235C58.0087 61.2235 59.926 61.3689 59.926 60.0983Z" fill="#1C1C1C"/>
</g>
<path d="M31.2821 64.532C30.7397 64.532 30.2945 64.0991 30.2939 63.5567C30.2884 58.2432 31.4466 53.9956 36.013 51.3712C37.6478 50.2669 39.1972 49.1293 40.1132 47.4359C41.4454 45.0545 40.6284 41.5863 38.1067 40.4146C34.8449 38.7157 30.5475 40.5998 29.9271 44.2962C29.8347 44.8467 29.3949 45.3084 28.8367 45.3084H21.9986C21.4469 45.3084 20.9961 44.8452 21.0307 44.2946C22.1977 25.7271 56.2346 29.64 49.3876 49.0896C47.6656 53.5236 43.7908 54.7 40.7093 57.544C39.1054 59.1721 38.597 61.1972 38.5318 63.5113C38.516 64.0714 38.0689 64.532 37.5085 64.532H31.2821Z" fill="#4169E1" stroke="#1C1C1C" stroke-width="0.5" stroke-miterlimit="10" stroke-linejoin="round"/>
<path d="M38.6992 75.7947C38.6392 76.2353 38.2836 76.5742 37.8411 76.6173C36.8276 76.7159 35.7242 76.7787 34.5423 76.7832C33.2647 76.7876 32.0769 76.7225 30.9935 76.6173C30.5502 76.5742 30.1941 76.2344 30.1343 75.7931C29.9905 74.7306 29.8922 73.5149 29.8987 72.1728C29.906 70.6132 30.0532 69.2282 30.2459 68.0619C31.3836 67.8653 32.7349 67.7138 34.257 67.7037C35.9145 67.6926 37.3757 67.8523 38.5861 68.0619C38.7806 69.2355 38.9296 70.6354 38.9351 72.2134C38.9395 73.5406 38.8423 74.7436 38.6992 75.7947Z" fill="#4169E1" stroke="#1C1C1C" stroke-width="0.5" stroke-miterlimit="10" stroke-linejoin="round"/>
<path d="M31.2821 61.3133C30.7397 61.3133 30.2945 60.8803 30.2939 60.3379C30.2884 55.0245 31.4466 50.7769 36.013 48.1525C37.6478 47.0481 39.1972 45.9106 40.1132 44.2171C41.4454 41.8357 40.6284 38.3676 38.1067 37.1958C34.8449 35.497 30.5475 37.3811 29.9271 41.0775C29.8347 41.6279 29.3949 42.0897 28.8367 42.0897H21.9986C21.4469 42.0897 20.9961 41.6264 21.0307 41.0758C22.1977 22.5084 56.2346 26.4213 49.3876 45.8709C47.6656 50.3049 43.7908 51.4812 40.7093 54.3252C39.1054 55.9534 38.597 57.9784 38.5318 60.2926C38.516 60.8527 38.0689 61.3133 37.5085 61.3133H31.2821Z" fill="#CCD9FD" stroke="#1C1C1C" stroke-width="0.5" stroke-miterlimit="10" stroke-linejoin="round"/>
<path d="M38.6992 72.576C38.6392 73.0166 38.2836 73.3555 37.8411 73.3985C36.8276 73.4971 35.7242 73.56 34.5423 73.5644C33.2647 73.5689 32.0769 73.5038 30.9935 73.3985C30.5502 73.3554 30.1941 73.0157 30.1343 72.5743C29.9905 71.5119 29.8922 70.2961 29.8987 68.954C29.9046 67.6968 30.0014 66.5531 30.1396 65.5459C30.1975 65.1243 30.5265 64.7926 30.9478 64.7322C31.9264 64.592 33.0368 64.4931 34.257 64.4849C35.6061 64.4759 36.8251 64.58 37.8847 64.7321C38.3057 64.7926 38.6346 65.124 38.6926 65.5453C38.8326 66.562 38.9307 67.7202 38.9351 68.9946C38.9395 70.3218 38.8423 71.5249 38.6992 72.576Z" fill="#CCD9FD" stroke="#1C1C1C" stroke-width="0.5" stroke-miterlimit="10" stroke-linejoin="round"/>
</g>
<defs>
<clipPath id="clip0_18011_5316">
<rect width="62" height="62" fill="white" transform="translate(20 20)"/>
</clipPath>
</defs>
</svg>
