<svg width="62" height="62" viewBox="0 0 62 62" fill="none" xmlns="http://www.w3.org/2000/svg">
<g clip-path="url(#clip0_18011_2848)">
<path d="M16.5553 59.0995C16.604 60.1643 17.4831 61 18.549 61H53.3406C54.4068 61 55.286 60.1639 55.3344 59.0988C55.6762 51.5655 55.8537 43.6919 55.8192 35.5058C55.7876 28.064 55.5838 20.8878 55.2443 13.9974H16.6461C16.2714 21.5067 16.0583 29.3788 16.0606 37.5864C16.0617 45.0409 16.2403 52.2192 16.5553 59.0995Z" fill="#4169E1" stroke="#1C1C1C" stroke-width="0.5" stroke-miterlimit="10" stroke-linejoin="round"/>
<path d="M8.6088 59.0994C8.65754 60.1642 9.5366 60.9999 10.6025 60.9999H45.3941C46.4604 60.9999 47.3395 60.1638 47.3879 59.0987C47.7297 51.5655 47.9073 43.6918 47.8727 35.5057C47.8411 28.064 47.6374 20.8878 47.2978 13.9973H8.69961C8.32491 21.5066 8.1118 29.3787 8.11415 37.5864C8.11522 45.0408 8.29388 52.2191 8.6088 59.0994Z" fill="#CCD9FD" stroke="#1C1C1C" stroke-width="0.5" stroke-miterlimit="10" stroke-linejoin="round"/>
<path d="M15.4026 55.0313C15.5097 55.3993 15.8463 55.6441 16.2286 55.6732C20.0375 55.9628 24.134 56.135 28.4851 56.1271C32.6115 56.1193 36.5055 55.9504 40.1396 55.6736C40.5238 55.6443 40.8616 55.3969 40.9677 55.0266C41.1355 54.4405 41.2799 53.6598 41.2446 52.7435C41.2186 52.0778 41.1039 51.499 40.9696 51.0306C40.8628 50.6583 40.5217 50.4113 40.1353 50.3847C36.5348 50.1374 32.712 49.9876 28.6865 49.9753C24.2896 49.9629 20.1296 50.1169 16.2347 50.3847C15.8487 50.4113 15.5077 50.658 15.4001 51.0297C15.253 51.5377 15.1248 52.1888 15.1168 52.9487C15.1077 53.7818 15.2452 54.491 15.4026 55.0313Z" fill="#4169E1" stroke="#1C1C1C" stroke-width="0.5" stroke-miterlimit="10" stroke-linejoin="round"/>
<path d="M18.5221 53.0537H37.584" stroke="#1C1C1C" stroke-width="0.5" stroke-miterlimit="10" stroke-linecap="round" stroke-linejoin="round"/>
<path d="M15.3504 43.8635C15.3872 44.3436 15.763 44.7276 16.2423 44.7738C19.6849 45.1054 23.4354 45.32 27.4566 45.3375C31.8944 45.3574 36.0105 45.1348 39.7548 44.7739C40.2342 44.7277 40.6101 44.3433 40.6468 43.863C40.9736 39.5764 41.1555 34.9403 41.106 29.9988C41.0693 26.2541 40.9027 22.6953 40.647 19.3412C40.6103 18.8594 40.2322 18.4745 39.7511 18.43C36.1844 18.0999 32.2918 17.8916 28.1182 17.8883C23.8518 17.8839 19.8804 18.0943 16.2461 18.4301C15.7651 18.4746 15.3871 18.8592 15.3501 19.3409C15.0689 23.0061 14.894 26.9354 14.881 31.1002C14.8667 35.6423 15.0468 39.908 15.3504 43.8635Z" fill="#4169E1" stroke="#1C1C1C" stroke-width="0.5" stroke-miterlimit="10" stroke-linejoin="round"/>
<path d="M19.2561 30.7925C19.2561 31.3447 19.7038 31.7923 20.2561 31.7923H35.8508C36.4031 31.7923 36.8508 31.3446 36.8508 30.7923V22.8856C36.8508 22.3733 36.4639 21.9432 35.9538 21.8957C33.6105 21.6774 31.055 21.5371 28.3134 21.5286C25.3718 21.52 22.6408 21.664 20.1523 21.8958C19.6422 21.9433 19.2552 22.3734 19.2553 22.8858L19.2561 30.7925Z" fill="#CCD9FD" stroke="#1C1C1C" stroke-width="0.5" stroke-miterlimit="10" stroke-linejoin="round"/>
<path d="M13.4212 12.4174C13.5381 13.3443 14.3121 14.0331 15.2458 14.0647C23.4566 14.3422 46.525 14.3519 54.8838 14.0656C55.8195 14.0335 56.5966 13.3417 56.7118 12.4125C56.9022 10.8774 57.0223 9.14164 56.9965 7.24087C56.977 5.74136 56.8693 4.35232 56.713 3.09152C56.597 2.15628 55.8081 1.46182 54.8666 1.42167C48.6013 1.15455 42.0953 1.00446 35.365 1.00009C28.4213 0.995716 21.715 1.14687 15.2645 1.42187C14.3248 1.46193 13.5368 2.15378 13.4196 3.08705C13.2493 4.44261 13.1347 5.95775 13.128 7.6072C13.1213 9.37132 13.2405 10.9851 13.4212 12.4174Z" fill="#FF9500" stroke="#1C1C1C" stroke-width="0.5" stroke-miterlimit="10" stroke-linejoin="round"/>
<path d="M6.46907 12.4174C6.586 13.3443 7.35999 14.0331 8.29365 14.0647C16.5045 14.3422 39.5728 14.3519 47.9316 14.0656C48.8673 14.0335 49.6445 13.3417 49.7597 12.4125C49.9501 10.8774 50.0702 9.14164 50.0444 7.24087C50.0249 5.74136 49.9171 4.35232 49.7608 3.09152C49.6449 2.15628 48.856 1.46182 47.9145 1.42167C41.6492 1.15455 35.1432 1.00446 28.4128 1.00009C21.4691 0.995716 14.7628 1.14687 8.31238 1.42187C7.37264 1.46193 6.58468 2.15378 6.46745 3.08705C6.29717 4.44261 6.18253 5.95775 6.17589 7.6072C6.16914 9.37132 6.28836 10.9851 6.46907 12.4174Z" fill="#FAF2E8" stroke="#1C1C1C" stroke-width="0.5" stroke-miterlimit="10" stroke-linejoin="round"/>
<path d="M20.8018 3.68262C21.0215 3.68262 21.2158 3.72844 21.3858 3.81738C21.5576 3.90728 21.6775 4.0272 21.7715 4.15723C21.8635 4.28444 21.9335 4.42479 21.9913 4.56348C22.0445 4.69124 22.114 4.85975 22.1915 5.07324L23.9073 9.26562L24.001 9.49902C24.0827 9.72224 24.127 9.91342 24.127 10.0615C24.127 10.2821 24.0316 10.4879 23.8614 10.6562C23.6837 10.8319 23.4667 10.9179 23.2256 10.918C23.0941 10.918 22.9677 10.8991 22.8458 10.8389C22.7325 10.7828 22.6466 10.7062 22.5782 10.6289C22.4954 10.5354 22.4283 10.4049 22.3712 10.2598C22.3208 10.1318 22.2712 10.0243 22.2247 9.9248C22.2144 9.90279 22.2077 9.87985 22.2042 9.85645L21.9727 9.25098H19.6417L19.3878 9.92285C19.2642 10.2509 19.1467 10.4989 19.0401 10.6426C18.8926 10.8413 18.6571 10.9179 18.4102 10.918C18.1731 10.918 17.9676 10.8294 17.795 10.6689C17.6203 10.5065 17.5235 10.3063 17.5235 10.0771C17.5235 9.95763 17.5442 9.8398 17.5831 9.72461C17.6139 9.63336 17.6616 9.49111 17.7335 9.31738L19.418 5.08594C19.4641 4.96463 19.5309 4.80725 19.5958 4.64355C19.6692 4.45824 19.7463 4.30478 19.836 4.17188C19.9352 4.02483 20.0646 3.90714 20.2208 3.82031C20.3871 3.72784 20.5838 3.68268 20.8018 3.68262ZM20.1856 7.7666H21.4327L20.8038 6.06152L20.1856 7.7666Z" fill="#1C1C1C" stroke="#1C1C1C" stroke-width="0.5" stroke-linejoin="round"/>
<path d="M28.7003 3.79607C28.9657 3.79607 29.2012 3.85742 29.377 4.00798C29.5564 4.16182 29.6329 4.37305 29.6329 4.59196C29.6328 4.8107 29.5562 5.02124 29.377 5.17497C29.2012 5.32553 28.9657 5.38688 28.7003 5.38689H27.4932V9.86443C27.4932 10.1668 27.4262 10.4474 27.2403 10.6427C27.068 10.8237 26.8404 10.9181 26.584 10.9181C26.3308 10.9181 26.0944 10.8258 25.92 10.6427C25.734 10.4474 25.6671 10.1669 25.6671 9.86443V5.38689H24.46C24.1978 5.38689 23.9569 5.32738 23.7852 5.17009C23.6264 5.02441 23.5353 4.82862 23.5352 4.59196C23.5352 4.35797 23.6243 4.14973 23.7989 4.00017C23.9779 3.84688 24.2161 3.79607 24.46 3.79607H28.7003Z" fill="#1C1C1C" stroke="#1C1C1C" stroke-width="0.5" stroke-linejoin="round"/>
<path d="M31.7288 3.79607C31.9802 3.79607 32.2044 3.81835 32.3655 3.882C32.546 3.95349 32.6651 4.0772 32.7493 4.24333C32.8245 4.39205 32.884 4.60112 32.9514 4.85271L33.6682 7.52165L34.386 4.85271C34.4552 4.59443 34.5211 4.38594 34.5852 4.25017C34.6636 4.08415 34.7932 3.95278 34.9719 3.882C35.1327 3.81845 35.3489 3.79607 35.6086 3.79607H36.0227C36.3065 3.79607 36.5684 3.85489 36.7688 3.9904C37.0152 4.15714 37.1008 4.45107 37.1008 4.77361V9.92497C37.1008 10.2077 37.0401 10.4602 36.8684 10.6525C36.7001 10.8409 36.4832 10.925 36.2297 10.925C35.988 10.925 35.7719 10.8386 35.6057 10.6525C35.4341 10.4603 35.3743 10.2076 35.3743 9.92497V7.42107L34.8079 9.63884C34.7398 9.90787 34.6831 10.119 34.6311 10.256C34.5722 10.4113 34.4722 10.5693 34.3215 10.6984C34.1546 10.8412 33.9333 10.9181 33.676 10.9181C33.4932 10.9181 33.3038 10.882 33.1438 10.7804C33.0071 10.6936 32.8919 10.5821 32.8079 10.4367C32.7348 10.3104 32.68 10.1754 32.6438 10.0324C32.6194 9.93599 32.589 9.82906 32.5579 9.71794C32.5417 9.69433 32.5292 9.6678 32.5217 9.63884L31.9553 7.42107V9.92497C31.9553 10.2076 31.8955 10.4603 31.7239 10.6525C31.5566 10.8398 31.3397 10.925 31.092 10.925C30.8474 10.9249 30.6295 10.8417 30.468 10.6593C30.3062 10.4766 30.2366 10.2188 30.2366 9.93279V4.77361C30.2366 4.45105 30.3221 4.15714 30.5686 3.9904C30.7691 3.85489 31.0309 3.79607 31.3147 3.79607H31.7288Z" fill="#1C1C1C" stroke="#1C1C1C" stroke-width="0.5" stroke-linejoin="round"/>
<path d="M26.5112 37.1037C26.4587 36.664 26.0951 36.3343 25.6537 36.2994C24.7307 36.2265 23.7315 36.1847 22.6653 36.1921C21.7911 36.1987 20.9637 36.2376 20.1885 36.2989C19.7455 36.3339 19.3813 36.6661 19.3299 37.1075C19.2811 37.5271 19.2513 37.9915 19.2563 38.4939C19.2605 38.9145 19.2884 39.3069 19.3305 39.6674C19.3817 40.1062 19.7423 40.4373 20.1826 40.4746C21.0272 40.546 21.9431 40.5901 22.9212 40.5901C23.899 40.5901 24.8149 40.5459 25.6591 40.4744C26.098 40.4372 26.458 40.1079 26.5105 39.6707C26.5524 39.3212 26.5807 38.9415 26.5862 38.5349C26.5935 38.0147 26.5626 37.5351 26.5112 37.1037Z" fill="#CCD9FD" stroke="#1C1C1C" stroke-width="0.5" stroke-miterlimit="10" stroke-linejoin="round"/>
<path d="M36.7542 37.0544C36.6935 36.6385 36.3499 36.3279 35.9315 36.2877C35.3726 36.2341 34.7627 36.1982 34.1082 36.1921C33.3075 36.1847 32.569 36.2239 31.9053 36.2877C31.4869 36.3279 31.1433 36.6385 31.0826 37.0545C31.0199 37.4847 30.9803 37.9675 30.9862 38.4939C30.9913 38.9382 31.0284 39.3496 31.0833 39.7226C31.1439 40.1348 31.4827 40.4438 31.8971 40.4866C32.5183 40.5506 33.2119 40.592 33.9659 40.5901C34.6823 40.5882 35.3434 40.5477 35.9387 40.4864C36.3532 40.4437 36.692 40.1347 36.7528 39.7225C36.8093 39.3388 36.8472 38.9136 36.8505 38.4529C36.8544 37.942 36.8153 37.473 36.7542 37.0544Z" fill="#CCD9FD" stroke="#1C1C1C" stroke-width="0.5" stroke-miterlimit="10" stroke-linejoin="round"/>
</g>
<defs>
<clipPath id="clip0_18011_2848">
<rect width="62" height="62" rx="5" fill="white"/>
</clipPath>
</defs>
</svg>
