<svg width="102" height="102" viewBox="0 0 102 102" fill="none" xmlns="http://www.w3.org/2000/svg">
<rect x="0.5" y="0.5" width="101" height="101" rx="4.5" stroke="#8A38F5" stroke-dasharray="10 5"/>
<path d="M49.9846 27.9568V23.3817H45.4239V26.2751H25.4357V23.3817H20.875V27.9568H24.0037V38.1164H22.7076V40.7155H24.0037V54.0292H20.875V58.6043H25.4357V55.675H47.1385V40.7155H48.4334V38.1164H47.1385V27.9568H49.9846Z" fill="#FF9500" stroke="#1C1C1C" stroke-width="0.5" stroke-miterlimit="10" stroke-linejoin="round"/>
<path d="M48.9846 25.4504C49.5369 25.4504 49.9846 25.0027 49.9846 24.4504V21.8754C49.9846 21.3231 49.5369 20.8754 48.9846 20.8754H46.4239C45.8716 20.8754 45.4239 21.3231 45.4239 21.8754V22.7675C45.4239 23.3198 44.9762 23.7675 44.4239 23.7675H26.4357C25.8834 23.7675 25.4357 23.3198 25.4357 22.7675V21.8754C25.4357 21.3231 24.988 20.8754 24.4357 20.8754H21.875C21.3227 20.8754 20.875 21.3231 20.875 21.8754V24.4504C20.875 25.0027 21.3227 25.4504 21.875 25.4504H23.0037C23.556 25.4504 24.0037 25.8981 24.0037 26.4504V34.962C24.0037 35.3199 23.7135 35.61 23.3556 35.61C22.9977 35.61 22.7076 35.9002 22.7076 36.2581V37.5611C22.7076 37.919 22.9977 38.2092 23.3556 38.2092C23.7135 38.2092 24.0037 38.4993 24.0037 38.8572V50.5229C24.0037 51.0752 23.556 51.5229 23.0037 51.5229H21.875C21.3227 51.5229 20.875 51.9706 20.875 52.5229V55.0979C20.875 55.6502 21.3227 56.0979 21.875 56.0979H24.4357C24.988 56.0979 25.4357 55.6502 25.4357 55.0979V54.1687C25.4357 53.6164 25.8834 53.1687 26.4357 53.1687H46.1385C46.6908 53.1687 47.1385 52.721 47.1385 52.1687V38.8566C47.1385 38.499 47.4284 38.2092 47.7859 38.2092C48.1435 38.2092 48.4334 37.9193 48.4334 37.5617V36.2575C48.4334 35.8999 48.1435 35.61 47.7859 35.61C47.4284 35.61 47.1385 35.3202 47.1385 34.9626V26.4504C47.1385 25.8981 47.5862 25.4504 48.1385 25.4504H48.9846Z" fill="#FFE2C8" stroke="#1C1C1C" stroke-width="0.5" stroke-miterlimit="10" stroke-linejoin="round"/>
<path d="M44.2071 26.7084H26.708V50.0406H44.2071V26.7084Z" fill="#E8EDFA" stroke="#1C1C1C" stroke-width="0.5" stroke-miterlimit="10" stroke-linejoin="round"/>
<path d="M42.6137 43.1475C42.3789 41.5902 41.2247 40.3726 39.7533 40.0161C39.7533 40.0125 39.7533 40.009 39.7533 40.0054V33.556C39.7533 31.1172 37.7824 29.1389 35.3501 29.1389C32.9189 29.1389 30.9468 31.116 30.9468 33.556V40.0054C30.9468 40.1525 30.9539 40.2984 30.9682 40.4431C30.018 41.0101 29.3288 41.9849 29.1535 43.1487L28.9258 46.9906H43.3172L42.6126 43.1487L42.6137 43.1475Z" fill="#231F20" stroke="#231F20" stroke-width="0.5" stroke-miterlimit="10"/>
<path d="M34.9936 30.2272C33.0668 30.2272 31.5036 31.7941 31.5036 33.7282V35.0475C31.5036 36.8321 32.8343 38.3033 34.5548 38.5198V40.8916C31.8256 41.2146 30.5378 44.7693 30.5378 44.7693H35.3346C35.9439 42.1032 38.4835 41.0531 38.4835 41.0531V33.7282C38.4835 31.7953 36.9216 30.2272 34.9936 30.2272Z" fill="#FFE2C8" stroke="#1C1C1C" stroke-width="0.5" stroke-miterlimit="10" stroke-linejoin="round"/>
<path d="M77.3541 72.1958C77.3541 73.8527 76.0109 75.1958 74.3541 75.1958H48.5439C45.2302 75.1958 42.5439 72.5095 42.5439 69.1958V51.7213L59.9484 39.6049L77.3541 51.7213V72.1958Z" fill="#4169E1" stroke="#1C1C1C" stroke-width="0.5" stroke-miterlimit="10" stroke-linejoin="round"/>
<path d="M43.7468 67.046H28.5005V74.8111H43.7468V67.046Z" fill="#FF9500" stroke="#1C1C1C" stroke-width="0.5" stroke-miterlimit="10" stroke-linejoin="round"/>
<path d="M77.3541 69.0183H42.5439V40.0704L59.9484 27.954L77.3541 40.0704V69.0183Z" fill="#E8EDFA" stroke="#1C1C1C" stroke-width="0.5" stroke-miterlimit="10" stroke-linejoin="round"/>
<path d="M35.9364 73.6529C36.0328 74.2601 35.5636 74.8097 34.9488 74.8097H22.0464C21.4315 74.8097 20.9623 74.2601 21.0588 73.6529L21.9334 68.1474C22.0105 67.6617 22.4293 67.3043 22.921 67.3043H34.0741C34.5659 67.3043 34.9846 67.6617 35.0618 68.1474L35.9364 73.6529Z" fill="#FFE2C8" stroke="#1C1C1C" stroke-width="0.5" stroke-miterlimit="10" stroke-linejoin="round"/>
<path d="M51.181 73.6529C51.2774 74.2601 50.8082 74.8097 50.1934 74.8097H37.2898C36.6749 74.8097 36.2057 74.2601 36.3022 73.6529L37.1768 68.1474C37.254 67.6617 37.6727 67.3043 38.1644 67.3043H49.3187C49.8105 67.3043 50.2292 67.6617 50.3064 68.1474L51.181 73.6529Z" fill="#FFE2C8" stroke="#1C1C1C" stroke-width="0.5" stroke-miterlimit="10" stroke-linejoin="round"/>
<path d="M43.563 66.1489C43.6595 66.7562 43.1903 67.3058 42.5754 67.3058H29.6719C29.057 67.3058 28.5878 66.7562 28.6843 66.1489L29.5589 60.6435C29.636 60.1578 30.0548 59.8004 30.5465 59.8004H41.7008C42.1925 59.8004 42.6113 60.1578 42.6884 60.6435L43.563 66.1489Z" fill="#FFE2C8" stroke="#1C1C1C" stroke-width="0.5" stroke-miterlimit="10" stroke-linejoin="round"/>
<path d="M36.1213 74.8082H20.875V78.0267C20.875 79.6835 22.2181 81.0267 23.875 81.0267H33.1213C34.7782 81.0267 36.1213 79.6835 36.1213 78.0267V74.8082Z" fill="#FF9500" stroke="#1C1C1C" stroke-width="0.5" stroke-miterlimit="10" stroke-linejoin="round"/>
<path d="M51.3648 74.8082H36.1184V78.0267C36.1184 79.6835 37.4616 81.0267 39.1184 81.0267H48.3648C50.0216 81.0267 51.3648 79.6835 51.3648 78.0267V74.8082Z" fill="#FF9500" stroke="#1C1C1C" stroke-width="0.5" stroke-miterlimit="10" stroke-linejoin="round"/>
<path d="M40.905 42.2798C40.4505 42.5955 39.8261 42.4821 39.5117 42.0268L39.2902 41.7061C38.9769 41.2525 39.0898 40.6309 39.5426 40.3165L59.0813 26.7464L60.6647 26.7536L80.1807 40.2886C80.6335 40.6026 80.7469 41.2239 80.4343 41.6777L80.2133 41.9983C79.8993 42.4541 79.2748 42.5681 78.82 42.2527L59.9159 29.1422H59.8205L40.905 42.2798Z" fill="#4169E1" stroke="#1C1C1C" stroke-width="0.5" stroke-miterlimit="10" stroke-linejoin="round"/>
<path d="M64.5545 55.8129H55.8049V68.4511H64.5545V55.8129Z" fill="#E8EDFA" stroke="#1C1C1C" stroke-width="0.5" stroke-miterlimit="10" stroke-linejoin="round"/>
<path d="M55.0063 41.8759H45.749V51.1624H55.0063V41.8759Z" fill="#E8EDFA" stroke="#1C1C1C" stroke-width="0.5" stroke-miterlimit="10" stroke-linejoin="round"/>
<path d="M55.3247 50.0862H45.4224V52.8324H55.3247V50.0862Z" fill="#4169E1" stroke="#1C1C1C" stroke-width="0.5" stroke-miterlimit="10" stroke-linejoin="round"/>
<path d="M74.2143 41.8759H64.957V51.1624H74.2143V41.8759Z" fill="#E8EDFA" stroke="#1C1C1C" stroke-width="0.5" stroke-miterlimit="10" stroke-linejoin="round"/>
<path d="M74.5403 50.0862H64.6379V52.8324H74.5403V50.0862Z" fill="#4169E1" stroke="#1C1C1C" stroke-width="0.5" stroke-miterlimit="10" stroke-linejoin="round"/>
<path d="M29.2097 65.0366C29.9943 65.3234 30.627 65.5596 31.2513 65.7958C32.1371 66.1248 32.1371 67.3732 31.2513 67.7022C30.6186 67.9384 29.9859 68.1746 29.2097 68.4614C28.9314 68.5626 28.7036 68.7904 28.5939 69.0688C28.3071 69.8533 28.0709 70.486 27.8347 71.1102C27.5057 71.9959 26.2571 71.9959 25.9281 71.1102C25.6919 70.4775 25.4557 69.8449 25.1689 69.0688C25.0676 68.7904 24.8399 68.5626 24.553 68.453C23.7685 68.1662 23.1358 67.93 22.5115 67.6938C21.6257 67.3648 21.6257 66.1163 22.5115 65.7873C23.1442 65.5511 23.7769 65.3149 24.553 65.0281C24.8314 64.9269 25.0592 64.6991 25.1604 64.4123C25.4473 63.6278 25.6835 62.9951 25.9197 62.3709C26.2487 61.4852 27.4972 61.4852 27.8262 62.3709C28.0624 63.0036 28.2986 63.6363 28.5855 64.4123C28.6867 64.6907 28.9145 64.9185 29.1929 65.0281L29.2097 65.0366Z" fill="white" stroke="black" stroke-width="0.5" stroke-linejoin="round"/>
</svg>
