<svg width="62" height="62" viewBox="0 0 62 62" fill="none" xmlns="http://www.w3.org/2000/svg">
<g clip-path="url(#clip0_18011_5470)">
<g clip-path="url(#clip1_18011_5470)">
<path d="M10.6529 28.7752C10.5877 28.1044 9.8792 27.7101 9.27952 28.0175C8.34171 28.4983 7.3389 29.0753 6.29621 29.7696C4.95223 30.6646 3.77965 31.5958 2.7731 32.4877C2.3461 32.8661 2.34185 33.5271 2.76493 33.9098C3.86293 34.9031 5.1726 35.9462 6.70277 36.925C7.60155 37.5004 8.4694 37.985 9.28967 38.3948C9.88754 38.6936 10.5862 38.2987 10.6511 37.6335C10.7293 36.8322 10.7909 35.9816 10.8279 35.0864H14.3789C14.9312 35.0864 15.3789 34.6387 15.3789 34.0864V32.3036C15.3789 31.7513 14.9312 31.3036 14.3789 31.3036H10.8279C10.7912 30.4133 10.7301 29.5687 10.6529 28.7752Z" fill="#FF9500" stroke="#1C1C1C" stroke-width="0.5" stroke-linejoin="round"/>
<path d="M51.1487 37.6148C51.2139 38.2856 51.9223 38.6799 52.522 38.3725C53.4598 37.8917 54.4626 37.3147 55.5053 36.6204C56.8493 35.7254 58.0219 34.7941 59.0284 33.9023C59.4554 33.5239 59.4597 32.8629 59.0366 32.4802C57.9386 31.4869 56.6289 30.4437 55.0988 29.4649C54.2 28.8896 53.3321 28.405 52.5119 27.9951C51.914 27.6964 51.2153 28.0913 51.1504 28.7565C51.0722 29.5578 51.0107 30.4084 50.9737 31.3036H47.4226C46.8703 31.3036 46.4226 31.7513 46.4226 32.3036V34.0864C46.4226 34.6387 46.8703 35.0864 47.4226 35.0864H50.9737C51.0103 35.9767 51.0715 36.8213 51.1487 37.6148Z" fill="#FF9500" stroke="#1C1C1C" stroke-width="0.5" stroke-linejoin="round"/>
<path d="M26.5261 53.3481C25.8554 53.4133 25.461 54.1217 25.7685 54.7214C26.2492 55.6592 26.8262 56.662 27.5205 57.7047C28.4155 59.0487 29.3468 60.2213 30.2387 61.2278C30.617 61.6548 31.278 61.6591 31.6608 61.236C32.654 60.138 33.6972 58.8283 34.676 57.2982C35.2513 56.3994 35.7359 55.5315 36.1458 54.7113C36.4445 54.1134 36.0497 53.4147 35.3845 53.3498C34.5831 53.2716 33.7325 53.2101 32.8374 53.1731V49.622C32.8374 49.0697 32.3896 48.622 31.8374 48.622H30.0545C29.5022 48.622 29.0545 49.0697 29.0545 49.622V53.1731C28.1643 53.2097 27.3196 53.2709 26.5261 53.3481Z" fill="#FF9500" stroke="#1C1C1C" stroke-width="0.5" stroke-linejoin="round"/>
<path d="M35.3733 10.7767C36.0441 10.7114 36.4384 10.003 36.131 9.4033C35.6502 8.46549 35.0732 7.46268 34.3789 6.41999C33.2442 4.71607 32.0512 3.28764 30.9541 2.12378C29.7575 3.36167 28.4407 4.9236 27.2234 6.82655C26.6481 7.72533 26.1635 8.59317 25.7537 9.41345C25.4549 10.0113 25.8498 10.71 26.515 10.7749C27.3163 10.8531 28.1669 10.9146 29.0621 10.9516V14.5027C29.0621 15.055 29.5098 15.5027 30.0621 15.5027H31.8449C32.3972 15.5027 32.8449 15.055 32.8449 14.5027V10.9516C33.7352 10.915 34.5798 10.8538 35.3733 10.7767Z" fill="#FF9500" stroke="#1C1C1C" stroke-width="0.5" stroke-linejoin="round"/>
<path d="M35.3733 8.65288C36.0441 8.58765 36.4384 7.8792 36.131 7.27951C35.6502 6.34171 35.0732 5.3389 34.3789 4.29621C33.4839 2.95223 32.5527 1.77965 31.6608 0.773102C31.2824 0.346096 30.6214 0.341845 30.2387 0.764932C29.2454 1.86293 28.2023 3.1726 27.2234 4.70277C26.6481 5.60155 26.1635 6.46939 25.7537 7.28967C25.4549 7.88753 25.8498 8.58621 26.515 8.65113C27.3163 8.72935 28.1669 8.79085 29.0621 8.82786V12.3789C29.0621 12.9312 29.5098 13.3789 30.0621 13.3789H31.8449C32.3972 13.3789 32.8449 12.9312 32.8449 12.3789V8.82786C33.7352 8.79121 34.5798 8.73007 35.3733 8.65288Z" fill="#FFE2C8" stroke="#1C1C1C" stroke-width="0.5" stroke-linejoin="round"/>
<path d="M26.5337 50.3632C25.8629 50.4285 25.4686 51.1369 25.776 51.7366C26.2568 52.6744 26.8338 53.6772 27.5281 54.7199C28.4231 56.0639 29.3544 57.2365 30.2462 58.243C30.6246 58.67 31.2856 58.6743 31.6683 58.2512C32.6616 57.1532 33.7048 55.8435 34.6836 54.3133C35.2589 53.4146 35.7435 52.5467 36.1534 51.7264C36.4521 51.1286 36.0572 50.4299 35.392 50.365C34.5907 50.2868 33.7401 50.2253 32.8449 50.1882V46.6372C32.8449 46.0849 32.3972 45.6372 31.8449 45.6372H30.0621C29.5098 45.6372 29.0621 46.0849 29.0621 46.6372V50.1882C28.1718 50.2249 27.3272 50.286 26.5337 50.3632Z" fill="#FFE2C8" stroke="#1C1C1C" stroke-width="0.5" stroke-linejoin="round"/>
<path d="M51.1486 35.2971C51.2139 35.9679 51.9223 36.3622 52.522 36.0548C53.4598 35.574 54.4626 34.997 55.5053 34.3027C56.8493 33.4077 58.0219 32.4764 59.0284 31.5846C59.4554 31.2062 59.4597 30.5452 59.0366 30.1625C57.9386 29.1692 56.6289 28.126 55.0988 27.1472C54.2 26.5719 53.3321 26.0873 52.5119 25.6775C51.914 25.3787 51.2153 25.7736 51.1504 26.4388C51.0722 27.2401 51.0107 28.0907 50.9737 28.9859H47.4226C46.8703 28.9859 46.4226 29.4336 46.4226 29.9859V31.7687C46.4226 32.321 46.8703 32.7687 47.4226 32.7687H50.9737C51.0103 33.659 51.0715 34.5036 51.1486 35.2971Z" fill="#FFE2C8" stroke="#1C1C1C" stroke-width="0.5" stroke-linejoin="round"/>
<path d="M10.6529 26.4591C10.5876 25.7884 9.8792 25.394 9.27952 25.7015C8.34171 26.1823 7.3389 26.7592 6.29621 27.4535C4.95223 28.3485 3.77965 29.2798 2.7731 30.1717C2.3461 30.55 2.34185 31.211 2.76493 31.5938C3.86293 32.5871 5.1726 33.6302 6.70277 34.609C7.60155 35.1843 8.46939 35.669 9.28967 36.0788C9.88753 36.3775 10.5862 35.9827 10.6511 35.3175C10.7293 34.5161 10.7909 33.6655 10.8279 32.7704H14.3789C14.9312 32.7704 15.3789 32.3227 15.3789 31.7704V29.9875C15.3789 29.4352 14.9312 28.9875 14.3789 28.9875H10.8279C10.7912 28.0973 10.7301 27.2527 10.6529 26.4591Z" fill="#FFE2C8" stroke="#1C1C1C" stroke-width="0.5" stroke-linejoin="round"/>
<path d="M42.1382 32.959C42.1382 39.0752 37.1075 44.0347 30.9022 44.0347C24.697 44.0347 19.2214 38.6659 19.2214 32.5496C18.6163 22.2332 24.697 21.8832 30.9022 21.8832C37.1075 21.8832 42.4763 22.4171 42.1382 32.959Z" fill="#637DEB" stroke="#1C1C1C" stroke-width="0.5" stroke-linejoin="round"/>
<path d="M30.6412 41.072C36.9711 41.072 42.0966 35.8575 42.0966 29.4268C42.0966 22.9961 36.9651 17.7815 30.6412 17.7815C24.3173 17.7815 19.1858 22.9961 19.1858 29.4268C19.1858 35.8575 24.3173 41.072 30.6412 41.072Z" fill="#CCD9FD" stroke="#1C1C1C" stroke-width="0.5" stroke-linejoin="round"/>
<path d="M30.6674 38.4489C35.6506 38.4489 39.6906 34.4089 39.6906 29.4257C39.6906 24.4425 35.6506 20.4026 30.6674 20.4026C25.6842 20.4026 21.6443 24.4425 21.6443 29.4257C21.6443 34.4089 25.6842 38.4489 30.6674 38.4489Z" fill="#637DEB" stroke="#1C1C1C" stroke-width="0.5" stroke-linejoin="round"/>
<path d="M31.0286 30.8484C30.7616 31.0027 30.4413 31.0027 30.1743 30.8484L27.8073 29.4959C27.4098 29.2704 27.2615 28.7721 27.4692 28.3628L29.8659 23.6406C30.1862 23.0058 31.0998 23.0177 31.4083 23.6584L33.6863 28.4102C33.8821 28.8136 33.7278 29.3001 33.3363 29.5255L31.0286 30.8425V30.8484Z" fill="white"/>
<path d="M30.9049 31.8043C30.6439 31.9467 30.3236 31.9467 30.0685 31.7984L28.1701 30.7127C27.7667 30.4814 27.3337 30.9678 27.6125 31.3416L29.8075 34.3315C30.1456 34.7942 30.8338 34.8001 31.1838 34.3433L33.4915 31.3238C33.7762 30.956 33.3491 30.4636 32.9457 30.689L30.9109 31.8043H30.9049Z" fill="white"/>
</g>
</g>
<defs>
<clipPath id="clip0_18011_5470">
<rect width="62" height="62" rx="5" fill="white"/>
</clipPath>
<clipPath id="clip1_18011_5470">
<rect width="62" height="62" fill="white"/>
</clipPath>
</defs>
</svg>
