<svg width="102" height="102" viewBox="0 0 102 102" fill="none" xmlns="http://www.w3.org/2000/svg">
<rect x="0.5" y="0.5" width="101" height="101" rx="4.5" stroke="#9747FF" stroke-dasharray="10 5"/>
<path d="M78.2818 77.8376C78.2028 79.695 76.7132 81 74.8541 81H26.5083C24.6218 81 23.1095 79.6611 23.0375 77.776C23.0126 77.1225 22.9986 76.5313 23.0001 76.1776C23.0027 75.5937 22.999 74.4236 23.0249 73.4192C23.0492 72.4761 23.8101 71.8071 24.7535 71.8071H76.6438C77.5734 71.8071 78.3179 72.4598 78.3306 73.3893C78.3444 74.3968 78.3227 75.5821 78.3253 76.1776C78.3268 76.5456 78.3105 77.1621 78.2818 77.8376Z" fill="#4169E1" stroke="#1C1C1C" stroke-width="0.5" stroke-miterlimit="10" stroke-linejoin="round"/>
<path d="M78.2799 74.1878C78.1969 75.1136 77.3709 75.7535 76.4413 75.7535H24.8911C23.9479 75.7535 23.1149 75.0949 23.0394 74.1547C23.0133 73.8296 22.9986 73.4847 23.0001 73.1224C23.0015 72.7963 23.0159 72.4849 23.0396 72.1897C23.1151 71.2493 23.9481 70.5905 24.8915 70.5905H76.4412C77.3708 70.5905 78.197 71.2305 78.28 72.1564C78.3072 72.4604 78.3238 72.7829 78.3253 73.1224C78.3268 73.4984 78.3097 73.8544 78.2799 74.1878Z" fill="#CCD9FD" stroke="#1C1C1C" stroke-width="0.5" stroke-miterlimit="10" stroke-linejoin="round"/>
<path d="M73.1816 67.2929H62.5959C62.6036 63.7759 62.6996 60.0943 62.9068 56.2621C63.0923 52.8357 63.3541 49.5391 63.6726 46.3822H72.1039C72.4508 49.5915 72.7322 52.971 72.9209 56.5097C73.1216 60.2765 73.198 63.8774 73.1816 67.2929Z" fill="#FFE2C8" stroke="#1C1C1C" stroke-width="0.5" stroke-miterlimit="10" stroke-linejoin="round"/>
<path d="M75.3627 45.6944C75.2814 46.1131 74.892 46.3821 74.4654 46.3821H61.2971C60.8781 46.3821 60.4935 46.1228 60.4066 45.713C60.3319 45.3608 60.283 44.9351 60.3108 44.4557C60.326 44.1991 60.361 43.9632 60.4061 43.7508C60.493 43.3423 60.8768 43.0845 61.2945 43.0845H74.4673C74.8929 43.0845 75.2815 43.3524 75.3627 43.7702C75.4186 44.0581 75.4574 44.3926 75.4552 44.7644C75.453 45.1102 75.4155 45.4226 75.3627 45.6944Z" fill="#FF9500" stroke="#1C1C1C" stroke-width="0.5" stroke-miterlimit="10" stroke-linejoin="round"/>
<path d="M75.3626 69.9028C75.2813 70.3215 74.8919 70.5905 74.4654 70.5905H61.297C60.8781 70.5905 60.4934 70.3312 60.4065 69.9214C60.3318 69.5692 60.2829 69.1435 60.3107 68.6641C60.3259 68.4075 60.3609 68.1715 60.4061 67.9592C60.493 67.5507 60.8767 67.2929 61.2944 67.2929H74.4672C74.8928 67.2929 75.2814 67.5608 75.3626 67.9786C75.4185 68.2665 75.4574 68.601 75.4551 68.9728C75.4529 69.3186 75.4154 69.631 75.3626 69.9028Z" fill="#FF9500" stroke="#1C1C1C" stroke-width="0.5" stroke-miterlimit="10" stroke-linejoin="round"/>
<path d="M56.0049 67.2929H45.4192C45.4268 63.7759 45.5228 60.0943 45.7301 56.2621C45.9155 52.8357 46.1773 49.5391 46.4958 46.3822H54.9271C55.274 49.5915 55.5554 52.971 55.7442 56.5097C55.9449 60.2765 56.0212 63.8774 56.0049 67.2929Z" fill="#FFE2C8" stroke="#1C1C1C" stroke-width="0.5" stroke-miterlimit="10" stroke-linejoin="round"/>
<path d="M58.186 45.6944C58.1046 46.1131 57.7152 46.3821 57.2887 46.3821H44.1203C43.7014 46.3821 43.3168 46.1228 43.2299 45.713C43.1552 45.3608 43.1062 44.9351 43.134 44.4557C43.1493 44.1991 43.1842 43.9632 43.2294 43.7508C43.3163 43.3423 43.7001 43.0845 44.1177 43.0845H57.2905C57.7161 43.0845 58.1048 43.3524 58.1859 43.7702C58.2418 44.0581 58.2807 44.3926 58.2784 44.7644C58.2763 45.1102 58.2387 45.4226 58.186 45.6944Z" fill="#FF9500" stroke="#1C1C1C" stroke-width="0.5" stroke-miterlimit="10" stroke-linejoin="round"/>
<path d="M58.1859 69.9028C58.1045 70.3215 57.7151 70.5905 57.2886 70.5905H44.1202C43.7013 70.5905 43.3167 70.3312 43.2298 69.9214C43.1551 69.5692 43.1061 69.1435 43.1339 68.6641C43.1492 68.4075 43.1841 68.1715 43.2293 67.9592C43.3162 67.5507 43.7 67.2929 44.1176 67.2929H57.2904C57.716 67.2929 58.1047 67.5608 58.1858 67.9786C58.2417 68.2665 58.2806 68.601 58.2784 68.9728C58.2762 69.3186 58.2386 69.631 58.1859 69.9028Z" fill="#FF9500" stroke="#1C1C1C" stroke-width="0.5" stroke-miterlimit="10" stroke-linejoin="round"/>
<path d="M38.8199 67.2929H28.2341C28.2418 63.7759 28.3378 60.0943 28.545 56.2621C28.7305 52.8357 28.9923 49.5391 29.3108 46.3822H37.7421C38.089 49.5915 38.3704 52.971 38.5591 56.5097C38.7599 60.2765 38.8362 63.8774 38.8199 67.2929Z" fill="#FFE2C8" stroke="#1C1C1C" stroke-width="0.5" stroke-miterlimit="10" stroke-linejoin="round"/>
<path d="M41.0005 45.6944C40.9192 46.1131 40.5298 46.3821 40.1033 46.3821H26.9349C26.516 46.3821 26.1313 46.1228 26.0444 45.713C25.9697 45.3608 25.9208 44.9351 25.9486 44.4557C25.9638 44.1991 25.9988 43.9632 26.044 43.7508C26.1308 43.3423 26.5146 43.0845 26.9323 43.0845H40.1051C40.5307 43.0845 40.9193 43.3524 41.0005 43.7702C41.0564 44.0581 41.0952 44.3926 41.093 44.7644C41.0908 45.1102 41.0533 45.4226 41.0005 45.6944Z" fill="#FF9500" stroke="#1C1C1C" stroke-width="0.5" stroke-miterlimit="10" stroke-linejoin="round"/>
<path d="M41.0005 69.9028C40.9192 70.3215 40.5298 70.5905 40.1033 70.5905H26.9349C26.516 70.5905 26.1313 70.3312 26.0444 69.9214C25.9698 69.5692 25.9208 69.1435 25.9486 68.6641C25.9639 68.4075 25.9988 68.1715 26.044 67.9592C26.1309 67.5507 26.5147 67.2929 26.9323 67.2929H40.1051C40.5307 67.2929 40.9194 67.5608 41.0005 67.9786C41.0564 68.2665 41.0953 68.601 41.093 68.9728C41.0909 69.3186 41.0533 69.631 41.0005 69.9028Z" fill="#FF9500" stroke="#1C1C1C" stroke-width="0.5" stroke-miterlimit="10" stroke-linejoin="round"/>
<path d="M78.1731 36.6772C78.1224 36.0839 77.7916 35.5531 77.2913 35.2302C73.7742 32.9599 69.9494 30.6606 65.8151 28.3971C61.4266 25.9945 57.1846 23.9047 53.151 22.084C51.5938 21.3811 49.8109 21.3811 48.2538 22.0842C44.2207 23.9052 39.9781 25.9957 35.5896 28.3982C31.4552 30.6607 27.6313 32.96 24.1144 35.2302C23.6142 35.5531 23.2834 36.0838 23.2329 36.6771C23.1653 37.4722 23.1224 38.325 23.1178 39.2294C23.1139 39.95 23.1342 40.639 23.1725 41.2932C23.232 42.308 24.0937 43.0703 25.1102 43.0703H76.2967C77.3132 43.0703 78.1749 42.308 78.2344 41.2932C78.2727 40.639 78.293 39.95 78.2891 39.2294C78.2845 38.3256 78.241 37.4728 78.1731 36.6772Z" fill="#CCD9FD" stroke="#1C1C1C" stroke-width="0.5" stroke-miterlimit="10" stroke-linejoin="round"/>
<path d="M50.7132 39.0505C53.637 39.0505 56.0071 36.6803 56.0071 33.7566C56.0071 30.8328 53.637 28.4626 50.7132 28.4626C47.7894 28.4626 45.4193 30.8328 45.4193 33.7566C45.4193 36.6803 47.7894 39.0505 50.7132 39.0505Z" fill="#E8EDFA" stroke="#1C1C1C" stroke-width="0.5" stroke-miterlimit="10" stroke-linejoin="round"/>
</svg>
