<svg width="62" height="62" viewBox="0 0 62 62" fill="none" xmlns="http://www.w3.org/2000/svg">
<g clip-path="url(#clip0_18011_8508)">
<path d="M42.5926 17.1423C42.5926 23.6435 37.2472 28.9214 30.6497 28.9214C24.0522 28.9214 18.2253 23.2101 18.2253 16.6993C17.58 5.72915 24.0426 5.36316 30.6401 5.36316C37.2376 5.36316 42.949 5.93141 42.583 17.1423H42.5926Z" fill="url(#paint0_linear_18011_8508)" stroke="#1C1C1C" stroke-width="0.5" stroke-miterlimit="10"/>
<path d="M30.3604 25.7623C37.0927 25.7623 42.5441 20.2147 42.5441 13.3764C42.5441 6.53815 37.0927 1.00012 30.3604 1.00012C23.6281 1.00012 18.1768 6.54778 18.1768 13.386C18.1768 20.2243 23.6281 25.772 30.3604 25.772V25.7623Z" fill="url(#paint1_linear_18011_8508)" stroke="#1C1C1C" stroke-width="0.5" stroke-miterlimit="10"/>
<path d="M30.389 22.9789C35.6862 22.9789 39.9818 18.6833 39.9818 13.386C39.9818 8.08878 35.6958 3.78357 30.389 3.78357C25.0821 3.78357 20.7961 8.07915 20.7961 13.3764C20.7961 18.6736 25.0917 22.9692 30.389 22.9692V22.9789Z" fill="url(#paint2_linear_18011_8508)" stroke="#1C1C1C" stroke-width="0.5" stroke-miterlimit="10"/>
<path d="M34.324 9.46052C33.2851 8.92502 32.0214 9.332 31.4859 10.3602L31.2502 10.8207L33.6707 14.8155C33.7242 14.9012 33.7564 14.9869 33.7992 15.0725L35.2344 12.2987C35.7698 11.2598 35.3629 9.99602 34.3347 9.46052H34.324Z" fill="white"/>
<path d="M32.3855 15.5867C31.7001 14.4622 30.2328 12.0203 29.5366 10.8743C28.4442 8.28252 24.8457 9.20358 25.3598 11.9346C25.5418 12.5344 25.574 12.4594 25.9595 13.1127C26.8806 14.6121 27.9837 16.5078 28.8619 17.8787C30.4256 20.0635 33.6814 17.9643 32.439 15.651L32.4069 15.5867H32.3855Z" fill="white"/>
<path d="M30.6108 48.1552V25.7623" stroke="#1C1C1C" stroke-width="0.5" stroke-linecap="round" stroke-linejoin="round"/>
<path d="M30.7256 48.1551L30.7448 47.9625C30.7448 44.5049 29.2809 32.5813 17.7521 33.111C17.3765 33.1302 17.7521 35.6151 17.7521 35.6151C17.7521 35.6151 17.2706 43.0216 30.7352 48.1455L30.7256 48.1551Z" fill="#4169E1" stroke="#1C1C1C" stroke-width="0.5" stroke-linejoin="round"/>
<path d="M31.0432 41.1627L31.0239 40.9701C31.0239 37.4739 32.2856 25.6755 44.1804 26.446L44.0166 28.6323C44.0166 28.6323 44.4982 36.0389 31.0336 41.1627H31.0432Z" fill="#4169E1" stroke="#1C1C1C" stroke-width="0.5" stroke-linejoin="round"/>
<path d="M30.7268 45.651L30.7461 45.4584C30.7461 41.8852 30.4282 31.8686 17.7534 33.1207C17.7534 33.1207 17.2718 40.5272 30.7364 45.651H30.7268Z" fill="#2AA5A5" stroke="#1C1C1C" stroke-width="0.5" stroke-linejoin="round"/>
<path d="M31.0432 38.6586L31.0239 38.4659C31.0239 34.8927 31.3418 24.8761 44.0166 26.1282C44.0166 26.1282 44.4982 33.5347 31.0336 38.6586H31.0432Z" fill="#2AA5A5" stroke="#1C1C1C" stroke-width="0.5" stroke-linejoin="round"/>
<path d="M44.5264 54.743H18.4736C17.6598 54.743 17 55.4027 17 56.2166V59.1734C17 59.9872 17.6598 60.647 18.4736 60.647H44.5264C45.3402 60.647 46 59.9872 46 59.1734V56.2166C46 55.4027 45.3402 54.743 44.5264 54.743Z" fill="#FF9500" stroke="#1C1C1C" stroke-width="0.5" stroke-linejoin="round"/>
<path d="M44.5264 46.4218H18.4736C17.6598 46.4218 17 47.0815 17 47.8953V50.8522C17 51.666 17.6598 52.3258 18.4736 52.3258H44.5264C45.3402 52.3258 46 51.666 46 50.8522V47.8953C46 47.0815 45.3402 46.4218 44.5264 46.4218Z" fill="#FFE2C8" stroke="#1C1C1C" stroke-width="0.5" stroke-linejoin="round"/>
<path d="M44.5264 52.3255H18.4736C17.6598 52.3255 17 52.9853 17 53.7991V56.7559C17 57.5698 17.6598 58.2295 18.4736 58.2295H44.5264C45.3402 58.2295 46 57.5698 46 56.7559V53.7991C46 52.9853 45.3402 52.3255 44.5264 52.3255Z" fill="#FFE2C8" stroke="#1C1C1C" stroke-width="0.5" stroke-linejoin="round"/>
</g>
<defs>
<linearGradient id="paint0_linear_18011_8508" x1="43.3873" y1="24.3933" x2="18.2246" y2="16.993" gradientUnits="userSpaceOnUse">
<stop stop-color="#DC0BFE"/>
<stop offset="1" stop-color="#1DBCF7"/>
</linearGradient>
<linearGradient id="paint1_linear_18011_8508" x1="43.3301" y1="21.0105" x2="18.0203" y2="13.9466" gradientUnits="userSpaceOnUse">
<stop stop-color="#F5B8FF"/>
<stop offset="1" stop-color="#9CE2FC"/>
</linearGradient>
<linearGradient id="paint2_linear_18011_8508" x1="40.6007" y1="19.2893" x2="20.7196" y2="13.6513" gradientUnits="userSpaceOnUse">
<stop stop-color="#DC0BFE"/>
<stop offset="1" stop-color="#1DBCF7"/>
</linearGradient>
<clipPath id="clip0_18011_8508">
<rect width="62" height="62" rx="5" fill="white"/>
</clipPath>
</defs>
</svg>
