<svg width="62" height="62" viewBox="0 0 62 62" fill="none" xmlns="http://www.w3.org/2000/svg">
<g clip-path="url(#clip0_18011_7528)">
<path d="M49.1707 14.7845H15.2185C13.5617 14.7845 12.2185 16.1276 12.2185 17.7845V42.204H52.1707V17.7845C52.1707 16.1276 50.8275 14.7845 49.1707 14.7845Z" fill="#4169E1" stroke="#1C1C1C" stroke-width="0.5" stroke-miterlimit="10"/>
<path d="M56.4649 45.6693C56.5378 45.7287 56.4958 45.8468 56.4017 45.8468H7.98477C7.8907 45.8468 7.84867 45.7287 7.92158 45.6693L11.945 42.389C12.1234 42.2435 12.3466 42.1641 12.5769 42.1641H51.8096C52.0398 42.1641 52.263 42.2435 52.4415 42.389L56.4649 45.6693Z" fill="#E8EDFA" stroke="#1C1C1C" stroke-width="0.5" stroke-miterlimit="10"/>
<path d="M46.2192 41.5223C46.2192 48.8908 40.16 54.8643 32.6855 54.8643C25.2109 54.8643 18.6152 48.3967 18.6152 41.0282C17.8895 28.5978 25.2109 28.1803 32.6855 28.1803C40.16 28.1803 46.6297 28.8257 46.2192 41.5223Z" fill="#FF9500" stroke="#1C1C1C" stroke-width="0.5" stroke-miterlimit="10"/>
<path d="M32.5181 51.8261C40.1403 51.8261 46.3192 45.5449 46.3192 37.7967C46.3192 30.0485 40.1403 23.7673 32.5181 23.7673C24.896 23.7673 18.717 30.0485 18.717 37.7967C18.717 45.5449 24.896 51.8261 32.5181 51.8261Z" fill="#FFE2C8" stroke="#1C1C1C" stroke-width="0.5" stroke-miterlimit="10"/>
<path d="M32.4012 48.668C38.4052 48.668 43.2724 43.8008 43.2724 37.7967C43.2724 31.7927 38.4052 26.9255 32.4012 26.9255C26.3971 26.9255 21.5299 31.7927 21.5299 37.7967C21.5299 43.8008 26.3971 48.668 32.4012 48.668Z" fill="#FF9500" stroke="#1C1C1C" stroke-width="0.5" stroke-miterlimit="10"/>
<path d="M33.0753 32.6953C32.9823 32.5004 32.6968 32.493 32.5938 32.6828C31.4544 34.7826 29.6608 36.4807 27.4859 37.5227C27.292 37.6156 27.2846 37.8992 27.4735 38.0021C29.5913 39.1555 31.2944 40.9444 32.3234 43.1004C32.4164 43.2953 32.7019 43.3027 32.8049 43.1129C33.9444 41.0131 35.738 39.315 37.9128 38.273C38.1068 38.1801 38.1141 37.8965 37.9253 37.7937C35.8074 36.6403 34.1043 34.8514 33.0753 32.6953Z" fill="#1C1C1C" stroke="#1C1C1C" stroke-width="0.5" stroke-miterlimit="10" stroke-linejoin="round"/>
<path d="M56.4345 45.848H7.95569C7.81762 45.848 7.70569 45.9599 7.70569 46.098V54.6019C7.70569 56.2588 9.04883 57.6019 10.7057 57.6019H53.6845C55.3413 57.6019 56.6845 56.2588 56.6845 54.6019V46.098C56.6845 45.9599 56.5725 45.848 56.4345 45.848Z" fill="#4169E1" stroke="#1C1C1C" stroke-width="0.5" stroke-miterlimit="10"/>
<path d="M21.2405 45.848H11.0901V48.2004C11.0901 49.8572 12.4332 51.2004 14.0901 51.2004H18.2405C19.8974 51.2004 21.2405 49.8572 21.2405 48.2004V45.848Z" fill="#FF9500" stroke="#1C1C1C" stroke-width="0.5" stroke-miterlimit="10"/>
<path d="M53.0416 45.848H42.8911V48.2004C42.8911 49.8572 44.2343 51.2004 45.8911 51.2004H50.0416C51.6984 51.2004 53.0416 49.8572 53.0416 48.2004V45.848Z" fill="#FF9500" stroke="#1C1C1C" stroke-width="0.5" stroke-miterlimit="10"/>
<path d="M36.4522 54.8508H28.0011C26.7277 54.8508 25.692 53.7369 25.692 52.3694V51.0742C25.692 50.8659 25.5726 50.7514 25.5339 50.7514H24.6165C24.0228 50.7514 23.541 50.2679 23.541 49.6721C23.541 49.0763 24.0228 48.5928 24.6165 48.5928H25.5339C26.8073 48.5928 27.843 49.7066 27.843 51.0742V52.3694C27.843 52.5777 27.9623 52.6921 28.0011 52.6921H36.4522C36.492 52.6921 36.6103 52.5777 36.6103 52.3694V51.0742C36.6103 49.7056 37.646 48.5928 38.9194 48.5928H39.7798C40.3735 48.5928 40.8553 49.0763 40.8553 49.6721C40.8553 50.2679 40.3735 50.7514 39.7798 50.7514H38.9194C38.8796 50.7514 38.7613 50.8659 38.7613 51.0742V52.3694C38.7613 53.738 37.7256 54.8508 36.4522 54.8508Z" fill="#FF9500" stroke="#1C1C1C" stroke-width="0.5" stroke-miterlimit="10"/>
<path d="M14.4884 25.3208C19.5544 25.3208 23.6612 21.214 23.6612 16.148C23.6612 11.082 19.5544 6.97516 14.4884 6.97516C9.42236 6.97516 5.31555 11.082 5.31555 16.148C5.31555 21.214 9.42236 25.3208 14.4884 25.3208Z" fill="#E8EDFA" stroke="#1C1C1C" stroke-width="0.5" stroke-linejoin="round"/>
<path d="M14.4884 22.7437C19.5544 22.7437 23.6612 18.6368 23.6612 13.5708C23.6612 8.50482 19.5544 4.39801 14.4884 4.39801C9.42236 4.39801 5.31555 8.50482 5.31555 13.5708C5.31555 18.6368 9.42236 22.7437 14.4884 22.7437Z" fill="white" stroke="#1C1C1C" stroke-width="0.5" stroke-linejoin="round"/>
<path d="M19.411 12.4393H18.821C18.7114 12.0118 18.5401 11.6115 18.317 11.2452L18.7411 10.8201C18.8556 10.7056 18.9187 10.5529 18.9187 10.3907C18.9187 10.2285 18.8552 10.0758 18.7411 9.96158L18.0343 9.25549C17.8051 9.02597 17.4045 9.02625 17.1762 9.25521L16.7341 9.6945C16.372 9.48348 15.9838 9.32073 15.556 9.21613V8.58488C15.556 8.25006 15.2885 7.97491 14.9538 7.97491H13.9546C13.6198 7.97491 13.3564 8.2502 13.3564 8.58488V9.21599C12.9289 9.32031 12.5382 9.4832 12.1757 9.6945L11.7339 9.25521C11.5049 9.0257 11.104 9.02597 10.8743 9.25494L10.1679 9.96102C10.0547 10.0741 9.99002 10.2305 9.99002 10.3902C9.99002 10.5498 10.0528 10.7045 10.1675 10.8191L10.5917 11.2452C10.3687 11.6115 10.1973 12.0118 10.0879 12.4393H9.49785C9.16288 12.4393 8.89246 12.7084 8.89246 13.0424V14.0409C8.89246 14.3759 9.16288 14.639 9.49785 14.639H10.0879C10.1974 15.0665 10.3685 15.4693 10.5912 15.8356L10.1671 16.2624C10.0523 16.3768 9.98946 16.5301 9.98946 16.6923C9.98946 16.8545 10.0526 17.0077 10.1671 17.1223L10.8739 17.8289C10.9887 17.9434 11.1409 18.0064 11.3029 18.0064C11.465 18.0064 11.6173 17.9433 11.7321 17.8289L12.1758 17.3894C12.5385 17.6007 12.9291 17.7634 13.3566 17.8682V18.4984C13.3566 18.8333 13.6199 19.1031 13.9547 19.1031H14.9539C15.2888 19.1031 15.5561 18.8333 15.5561 18.4984V17.8679C15.9839 17.7633 16.3721 17.6007 16.7348 17.3894L17.1747 17.828C17.2894 17.943 17.4419 18.0059 17.6044 18.0059C17.7668 18.0059 17.9193 17.9427 18.0338 17.8284L18.7406 17.1223C18.8551 17.0081 18.9178 16.8554 18.9182 16.6933C18.9182 16.5311 18.8548 16.3789 18.7406 16.2642L18.317 15.8357C18.5397 15.4692 18.7108 15.0662 18.8206 14.6392H19.4107C19.7455 14.6392 20.0207 14.376 20.0207 14.041V13.0426C20.0209 12.7086 19.7458 12.4393 19.411 12.4393ZM14.4538 15.4425C13.3941 15.4425 12.5347 14.5912 12.5347 13.5418C12.5347 12.4924 13.3941 11.6417 14.4538 11.6417C15.5136 11.6417 16.3737 12.4917 16.3737 13.5418C16.3734 14.5913 15.5138 15.4425 14.4538 15.4425Z" fill="#1C1C1C"/>
</g>
<defs>
<clipPath id="clip0_18011_7528">
<rect width="62" height="62" rx="5" fill="white"/>
</clipPath>
</defs>
</svg>
