<svg width="102" height="102" viewBox="0 0 102 102" fill="none" xmlns="http://www.w3.org/2000/svg">
<rect x="0.5" y="0.5" width="101" height="101" rx="4.5" stroke="#9747FF" stroke-dasharray="10 5"/>
<path d="M28.2833 21.4266C28.7154 21.7152 28.9108 22.2341 28.9194 22.7536C28.966 25.5627 29.0005 28.8797 29 32.6C28.9995 36.2486 28.9658 39.5035 28.9201 42.2736C28.9111 42.821 28.6937 43.3684 28.2213 43.645C27.7959 43.894 27.346 44.026 26.8737 43.9957C26.496 43.9724 26.1331 43.8472 25.7861 43.6444C25.3133 43.368 25.0949 42.8209 25.0853 42.2733C25.0367 39.5225 25 36.2392 25 32.5373C25 29.7715 25.0205 26.4535 25.0861 22.7529C25.0953 22.234 25.2909 21.7157 25.7222 21.4272C26.1365 21.1501 26.5774 20.9901 27.0422 21.0005C27.4778 21.0089 27.8923 21.1655 28.2833 21.4266Z" fill="#FF9500" stroke="#1C1C1C" stroke-width="0.5" stroke-miterlimit="10" stroke-linejoin="round"/>
<path d="M28.9708 50.5553C28.876 52.7654 27.1923 54.6093 24.9802 54.6056C24.2057 54.6049 23.4813 54.5621 22.815 54.4937C21.9185 54.4017 21.242 53.6622 21.1775 52.7632C21.0569 51.083 20.9895 49.2818 21.0013 47.3734C21.0118 45.7849 21.0759 44.2732 21.1787 42.8463C21.2429 41.9562 21.9072 41.2207 22.7941 41.1223C23.4686 41.0474 24.2073 41 25.0016 41C27.2073 41 28.8736 42.8495 28.9693 45.0531C29.0098 45.9839 29.0312 46.9492 29.0293 47.9467C29.0274 48.8432 29.0068 49.7133 28.9708 50.5553Z" fill="#FF9500" stroke="#1C1C1C" stroke-width="0.5" stroke-miterlimit="10" stroke-linejoin="round"/>
<path d="M31.7745 55.1116C31.7191 55.9826 31.0952 56.7215 30.2309 56.843C29.5372 56.9405 28.7789 57.0014 27.9652 57C27.1716 56.9986 26.4315 56.9388 25.7527 56.8439C24.8838 56.7224 24.2583 55.9775 24.2069 55.1017C24.0676 52.7255 23.988 50.1613 24.0015 47.4319C24.0125 45.1292 24.0885 42.9484 24.2086 40.9035C24.2593 40.0392 24.8691 39.2999 25.7251 39.1704C26.4139 39.0663 27.1713 39 27.987 39C28.6573 39 29.4208 39.0447 30.2576 39.1718C31.1093 39.3011 31.7181 40.0342 31.773 40.8939C31.9168 43.1434 32.0043 45.5833 31.9998 48.1898C31.9961 50.6547 31.911 52.9689 31.7745 55.1116Z" fill="#FF9500" stroke="#1C1C1C" stroke-width="0.5" stroke-miterlimit="10" stroke-linejoin="round"/>
<path d="M68.0292 50.5553C68.124 52.7654 69.8077 54.6093 72.0198 54.6056C72.7943 54.6049 73.5187 54.5621 74.185 54.4937C75.0815 54.4017 75.758 53.6622 75.8225 52.7632C75.9431 51.083 76.0105 49.2818 75.9987 47.3734C75.9882 45.7849 75.9241 44.2732 75.8213 42.8463C75.7571 41.9562 75.0928 41.2207 74.2059 41.1223C73.5314 41.0474 72.7927 41 71.9984 41C69.7927 41 68.1264 42.8495 68.0307 45.0531C67.9902 45.9839 67.9688 46.9492 67.9707 47.9467C67.9726 48.8432 67.9932 49.7133 68.0292 50.5553Z" fill="#FF9500" stroke="#1C1C1C" stroke-width="0.5" stroke-miterlimit="10" stroke-linejoin="round"/>
<path d="M65.2255 55.1116C65.2809 55.9826 65.9048 56.7215 66.7691 56.843C67.4628 56.9405 68.2211 57.0014 69.0348 57C69.8284 56.9986 70.5685 56.9388 71.2473 56.8439C72.1162 56.7224 72.7417 55.9775 72.7931 55.1017C72.9324 52.7255 73.012 50.1613 72.9985 47.4319C72.9875 45.1292 72.9115 42.9484 72.7914 40.9035C72.7407 40.0392 72.1309 39.2999 71.2749 39.1704C70.5861 39.0663 69.8287 39 69.013 39C68.3427 39 67.5792 39.0447 66.7424 39.1718C65.8907 39.3011 65.2819 40.0342 65.227 40.8939C65.0832 43.1434 64.9957 45.5833 65.0002 48.1898C65.0039 50.6547 65.089 52.9689 65.2255 55.1116Z" fill="#FF9500" stroke="#1C1C1C" stroke-width="0.5" stroke-miterlimit="10" stroke-linejoin="round"/>
<path d="M29.053 48.1274C29.156 42.9661 29.3492 39.8288 29.6349 36.9021C29.9045 34.1408 32.104 31.9619 34.8679 31.7208C39.6961 31.2996 44.9772 31.0593 50.6463 31.1252C54.9581 31.1751 59.0299 31.3965 62.8328 31.7311C65.5406 31.9695 67.7091 34.0711 67.9703 36.7767C68.2386 39.5564 68.4065 42.5599 68.4155 45.7598C68.4257 49.2194 68.2488 52.4524 67.9582 55.4247C67.6992 58.0735 65.61 60.1495 62.9692 60.4801C58.6085 61.0261 53.1323 61.5766 49.0001 61.5C44.6882 61.4208 35.5001 61.1693 32.5001 60.5C29.5001 59.8308 28.896 56 29.053 48.1274Z" fill="#4169E1" stroke="#1C1C1C" stroke-width="0.5" stroke-miterlimit="10" stroke-linejoin="round"/>
<path d="M33.0096 47.8747C33.077 44.6282 33.1935 42.4398 33.3601 40.5217C33.6 37.7583 35.8249 35.5892 38.5906 35.3787C42.1167 35.1102 45.9361 34.9627 50.01 35.0082C53.0397 35.0419 55.919 35.179 58.6315 35.3881C61.3389 35.5968 63.5231 37.6877 63.7515 40.3935C63.9024 42.1806 63.9938 44.0811 63.9997 46.0831C64.0064 48.2864 63.9088 50.3684 63.7413 52.3135C63.5131 54.9645 61.406 57.0313 58.7624 57.3343C55.5092 57.7072 51.6737 58.0473 48.7139 57.9946C46.6939 57.9589 41.8653 57.7979 38.2857 57.6734C35.7181 57.5841 33.517 55.8508 33.2382 53.2968C33.0768 51.8175 32.9658 49.989 33.0096 47.8747Z" fill="#CCD9FD" stroke="#1C1C1C" stroke-width="0.5" stroke-miterlimit="10" stroke-linejoin="round"/>
<path d="M41.3458 47.7333C43.1937 47.7333 44.6917 46.226 44.6917 44.3667C44.6917 42.5073 43.1937 41 41.3458 41C39.498 41 38 42.5073 38 44.3667C38 46.226 39.498 47.7333 41.3458 47.7333Z" fill="#4169E1" stroke="#1C1C1C" stroke-width="0.5" stroke-miterlimit="10" stroke-linejoin="round"/>
<path d="M55.6542 47.7333C57.5021 47.7333 59 46.226 59 44.3667C59 42.5073 57.5021 41 55.6542 41C53.8063 41 52.3083 42.5073 52.3083 44.3667C52.3083 46.226 53.8063 47.7333 55.6542 47.7333Z" fill="#4169E1" stroke="#1C1C1C" stroke-width="0.5" stroke-miterlimit="10" stroke-linejoin="round"/>
<path d="M48.6154 32.9634C46.7534 32.9531 44.7889 33.0507 43.4934 32.9634C42.1979 32.8761 39.9337 32.246 40.0015 31.2191C40.0873 29.9196 41.3211 29.1099 42.623 29.0762C44.678 29.0231 46.9213 28.993 49.3263 29.0014C51.2436 29.0081 53.051 29.0385 54.7349 29.0844C55.8628 29.1151 56.9893 29.782 56.9998 30.9103C57.0113 32.085 55.8362 32.7854 54.6623 32.8298C52.7769 32.9012 50.4045 32.9734 48.6154 32.9634Z" fill="#4169E1" stroke="#1C1C1C" stroke-width="0.5" stroke-miterlimit="10" stroke-linejoin="round"/>
<path d="M81.3757 64.3613C70.911 70.5838 60.3309 76.6044 49.6688 82.4817C45.7194 76.2814 43.8865 73.1045 40.471 66.599C51.0278 60.4016 61.6545 54.3112 72.3602 48.3744C76.2315 54.6194 78.0384 57.8112 81.3757 64.3613Z" fill="#2AA5A5" stroke="#1C1C1C" stroke-width="0.5" stroke-linejoin="round"/>
<path d="M80.2265 62.1588C69.6771 68.3691 59.0356 74.4335 48.3373 80.3833C44.466 74.1384 42.6591 70.9465 39.3218 64.3964C49.7977 58.1935 60.3555 52.1338 71.0287 46.276C74.9781 52.4763 76.811 55.6533 80.2265 62.1588Z" fill="#B9E5DE" stroke="#1C1C1C" stroke-width="0.5" stroke-linejoin="round"/>
<path d="M73.8288 63.2664C66.7456 67.349 59.6541 71.4018 52.5411 75.4323C51.7 74.021 49.8654 73.5318 48.4291 74.344C46.8213 71.5913 46.0389 70.207 44.5093 67.4097C45.9382 66.5844 46.4507 64.7452 45.6683 63.3004C52.7114 59.2234 59.777 55.1855 66.8648 51.1867C67.7124 52.5942 69.5572 53.0862 70.9936 52.274C72.6273 55.0118 73.4228 56.3887 74.9785 59.1711C73.5458 59.9899 73.0398 61.8254 73.8288 63.2664Z" fill="#2AA5A5" stroke="#1C1C1C" stroke-width="0.5" stroke-linejoin="round"/>
<path d="M55.1905 65.8754C57.0811 69.1834 60.6526 70.7015 63.1467 69.2762C65.6408 67.8508 66.1486 63.9928 64.2552 60.6949C62.3646 57.3868 58.7764 55.8697 56.2953 57.2876C53.8142 58.7055 53.3065 62.5635 55.1905 65.8754Z" fill="#B9E5DE" stroke="#1C1C1C" stroke-width="0.5" stroke-linejoin="round"/>
</svg>
