<svg width="62" height="62" viewBox="0 0 62 62" fill="none" xmlns="http://www.w3.org/2000/svg">
<g clip-path="url(#clip0_18011_3690)">
<path d="M8 58C8 56.8954 8.89543 56 10 56H12C13.1046 56 14 56.8954 14 58C14 59.1046 13.1046 60 12 60H10C8.89543 60 8 59.1046 8 58Z" fill="#4169E1" stroke="#1C1C1C" stroke-width="0.5" stroke-miterlimit="10"/>
<path d="M46 58C46 56.8954 46.8954 56 48 56H50C51.1046 56 52 56.8954 52 58C52 59.1046 51.1046 60 50 60H48C46.8954 60 46 59.1046 46 58Z" fill="#4169E1" stroke="#1C1C1C" stroke-width="0.5" stroke-miterlimit="10"/>
<path d="M4 51H57V55.2857C57 56.2325 56.1046 57 55 57H6C4.89543 57 4 56.2325 4 55.2857V51Z" fill="#4169E1" stroke="#1C1C1C" stroke-width="0.5" stroke-linejoin="round"/>
<path d="M7 12C7 10.3431 8.34315 9 10 9H51C52.6569 9 54 10.3431 54 12V41H7V12Z" fill="#4169E1" stroke="#1C1C1C" stroke-width="0.5" stroke-linejoin="round"/>
<path d="M11 5C11 3.34315 12.3431 2 14 2H46C47.6569 2 49 3.34315 49 5V9H11V5Z" fill="white" stroke="#1C1C1C" stroke-width="0.5" stroke-linejoin="round"/>
<path d="M7 41H54L57 51H4L7 41Z" fill="#00125C" stroke="#1C1C1C" stroke-width="0.5" stroke-linejoin="round"/>
<path d="M39.3772 38.8661C44.7101 38.8661 49.0332 38.4189 49.0332 37.8672C49.0332 37.3155 44.7101 36.8683 39.3772 36.8683C34.0444 36.8683 29.7213 37.3155 29.7213 37.8672C29.7213 38.4189 34.0444 38.8661 39.3772 38.8661Z" fill="#FF9500" stroke="#1C1C1C" stroke-width="0.5" stroke-linejoin="round"/>
<path d="M51.7859 39.0386V43.4602C51.7859 44.8388 46.1003 45.9625 39.0907 45.9625C32.081 45.9625 26.3911 44.8388 26.3911 43.4602V39.0386H51.7859Z" fill="#FF9500" stroke="#1C1C1C" stroke-width="0.5" stroke-linejoin="round"/>
<path d="M39.0912 41.3245C46.1025 41.3245 51.7864 40.2042 51.7864 38.8221C51.7864 37.4401 46.1025 36.3198 39.0912 36.3198C32.0798 36.3198 26.396 37.4401 26.396 38.8221C26.396 40.2042 32.0798 41.3245 39.0912 41.3245Z" fill="#FFE2C8" stroke="#1C1C1C" stroke-width="0.5" stroke-linejoin="round"/>
<path d="M39.3764 39.552C44.7092 39.552 49.0324 39.1048 49.0324 38.5531C49.0324 38.0014 44.7092 37.5542 39.3764 37.5542C34.0435 37.5542 29.7204 38.0014 29.7204 38.5531C29.7204 39.1048 34.0435 39.552 39.3764 39.552Z" fill="#FF9500" stroke="#1C1C1C" stroke-width="0.5" stroke-linejoin="round"/>
<path d="M51.786 34.2725V38.694C51.786 40.0727 46.1005 41.1964 39.0908 41.1964C32.0811 41.1964 26.3912 40.0727 26.3912 38.694V34.2725H51.786Z" fill="#FF9500" stroke="#1C1C1C" stroke-width="0.5" stroke-linejoin="round"/>
<path d="M39.0913 36.5586C46.1027 36.5586 51.7865 35.4382 51.7865 34.0562C51.7865 32.6742 46.1027 31.5538 39.0913 31.5538C32.0799 31.5538 26.3961 32.6742 26.3961 34.0562C26.3961 35.4382 32.0799 36.5586 39.0913 36.5586Z" fill="#FFE2C8" stroke="#1C1C1C" stroke-width="0.5" stroke-linejoin="round"/>
<path d="M39.3765 34.7859C44.7094 34.7859 49.0325 34.3387 49.0325 33.787C49.0325 33.2353 44.7094 32.7881 39.3765 32.7881C34.0437 32.7881 29.7205 33.2353 29.7205 33.787C29.7205 34.3387 34.0437 34.7859 39.3765 34.7859Z" fill="#FF9500" stroke="#1C1C1C" stroke-width="0.5" stroke-linejoin="round"/>
<path d="M39.3776 35.4624C44.7105 35.4624 49.0336 35.0152 49.0336 34.4635C49.0336 33.9119 44.7105 33.4646 39.3776 33.4646C34.0447 33.4646 29.7216 33.9119 29.7216 34.4635C29.7216 35.0152 34.0447 35.4624 39.3776 35.4624Z" fill="#FF9500" stroke="#1C1C1C" stroke-width="0.5" stroke-linejoin="round"/>
<path d="M51.7866 29.5073V33.9288C51.7866 35.3075 46.1011 36.4312 39.0914 36.4312C32.0817 36.4312 26.3918 35.3075 26.3918 33.9288V29.5073H51.7866Z" fill="#FF9500" stroke="#1C1C1C" stroke-width="0.5" stroke-linejoin="round"/>
<path d="M39.0919 31.7931C46.1033 31.7931 51.7871 30.6727 51.7871 29.2907C51.7871 27.9087 46.1033 26.7883 39.0919 26.7883C32.0806 26.7883 26.3967 27.9087 26.3967 29.2907C26.3967 30.6727 32.0806 31.7931 39.0919 31.7931Z" fill="#FFE2C8" stroke="#1C1C1C" stroke-width="0.5" stroke-linejoin="round"/>
<path d="M22.3557 47.0309C27.6885 47.0309 32.0117 46.5837 32.0117 46.032C32.0117 45.4804 27.6885 45.0331 22.3557 45.0331C17.0228 45.0331 12.6997 45.4804 12.6997 46.032C12.6997 46.5837 17.0228 47.0309 22.3557 47.0309Z" fill="#FF9500" stroke="#1C1C1C" stroke-width="0.5" stroke-linejoin="round"/>
<path d="M34.7653 41.076V45.4975C34.7653 46.8762 29.0798 47.9999 22.0701 47.9999C15.0604 47.9999 9.37054 46.8762 9.37054 45.4975V41.076H34.7653Z" fill="#FF9500" stroke="#1C1C1C" stroke-width="0.5" stroke-linejoin="round"/>
<path d="M22.0706 43.3619C29.0819 43.3619 34.7657 42.2416 34.7657 40.8596C34.7657 39.4775 29.0819 38.3572 22.0706 38.3572C15.0592 38.3572 9.37537 39.4775 9.37537 40.8596C9.37537 42.2416 15.0592 43.3619 22.0706 43.3619Z" fill="#FFE2C8" stroke="#1C1C1C" stroke-width="0.5" stroke-linejoin="round"/>
<path d="M22.3558 41.5894C27.6886 41.5894 32.0117 41.1422 32.0117 40.5905C32.0117 40.0388 27.6886 39.5916 22.3558 39.5916C17.0229 39.5916 12.6998 40.0388 12.6998 40.5905C12.6998 41.1422 17.0229 41.5894 22.3558 41.5894Z" fill="#FF9500" stroke="#1C1C1C" stroke-width="0.5" stroke-linejoin="round"/>
<path d="M22.3559 42.2703C27.6887 42.2703 32.0119 41.8231 32.0119 41.2714C32.0119 40.7197 27.6887 40.2725 22.3559 40.2725C17.023 40.2725 12.6999 40.7197 12.6999 41.2714C12.6999 41.8231 17.023 42.2703 22.3559 42.2703Z" fill="#FF9500" stroke="#1C1C1C" stroke-width="0.5" stroke-linejoin="round"/>
<path d="M34.7655 36.3152V40.7368C34.7655 42.1155 29.08 43.2391 22.0703 43.2391C15.0606 43.2391 9.37073 42.1155 9.37073 40.7368V36.3152H34.7655Z" fill="#FF9500" stroke="#1C1C1C" stroke-width="0.5" stroke-linejoin="round"/>
<path d="M22.0707 38.6011C29.0821 38.6011 34.7659 37.4808 34.7659 36.0987C34.7659 34.7167 29.0821 33.5964 22.0707 33.5964C15.0594 33.5964 9.37555 34.7167 9.37555 36.0987C9.37555 37.4808 15.0594 38.6011 22.0707 38.6011Z" fill="#FFE2C8" stroke="#1C1C1C" stroke-width="0.5" stroke-linejoin="round"/>
<path d="M42.3657 21.3839C42.3657 28.1807 36.7767 33.6906 29.8821 33.6906C22.9876 33.6906 16.9037 27.7249 16.9037 20.9281C16.2343 9.46233 22.9876 9.07727 29.8821 9.07727C36.7767 9.07727 42.7443 9.67261 42.3657 21.3839Z" fill="#FF9500" stroke="#1C1C1C" stroke-width="0.5" stroke-miterlimit="10"/>
<path d="M29.5878 30.8815C36.6184 30.8815 42.3179 25.0877 42.3179 17.9408C42.3179 10.7938 36.6184 5.00003 29.5878 5.00003C22.5571 5.00003 16.8577 10.7938 16.8577 17.9408C16.8577 25.0877 22.5571 30.8815 29.5878 30.8815Z" fill="#FFE2C8" stroke="#1C1C1C" stroke-width="0.5" stroke-miterlimit="10"/>
<path d="M29.6193 27.9642C35.1575 27.9642 39.647 23.4746 39.647 17.9365C39.647 12.3984 35.1575 7.90883 29.6193 7.90883C24.0812 7.90883 19.5917 12.3984 19.5917 17.9365C19.5917 23.4746 24.0812 27.9642 29.6193 27.9642Z" fill="#FF9500" stroke="#1C1C1C" stroke-width="0.5" stroke-miterlimit="10"/>
<path d="M34.3195 14.9593C34.439 16.1212 33.961 16.8277 33.229 17.2202C34.454 17.5342 35.2159 18.2878 35.0665 19.9992C34.8723 22.1187 33.3784 22.6997 31.2272 22.8253V24.4123C31.2272 24.7671 30.9396 25.0547 30.5848 25.0547C30.23 25.0547 29.9424 24.7671 29.9424 24.4123V22.8567C29.6138 22.8567 29.2702 22.8567 28.9266 22.841V24.4123C28.9266 24.7671 28.639 25.0547 28.2842 25.0547C27.9295 25.0547 27.6419 24.7671 27.6419 24.4123V22.8253C27.3431 22.8253 27.0443 22.8096 26.7306 22.8096H25.9971C25.5054 22.8096 25.1316 22.3677 25.213 21.8828C25.2782 21.4949 25.6175 21.2157 26.0109 21.2151C26.2588 21.2146 26.2525 21.2081 26.2525 21.2081C26.6111 21.2081 26.7007 20.9412 26.7306 20.7528V17.2359H26.865C26.8053 17.2359 26.7605 17.2359 26.7306 17.2359V14.7081C26.6858 14.4412 26.5065 14.1115 25.9836 14.1115C25.9836 14.1115 25.9892 14.1056 25.7781 14.1047C25.3823 14.1029 25.0574 13.7871 25.0574 13.3912C25.0574 13 25.3746 12.6828 25.7658 12.6828H26.8352C27.0891 12.6828 27.358 12.6828 27.6419 12.6828V11.1114C27.6419 10.7566 27.9295 10.469 28.2842 10.469C28.639 10.469 28.9266 10.7566 28.9266 11.1114V12.6357C29.2702 12.6357 29.5988 12.62 29.9424 12.62V11.1114C29.9424 10.7566 30.23 10.469 30.5848 10.469C30.9396 10.469 31.2272 10.7566 31.2272 11.1114V12.6828C32.8705 12.8241 34.1851 13.3579 34.3195 14.9593ZM32.5269 19.7323C32.5269 18.0052 29.808 18.2564 28.9415 18.2564V21.2081C29.808 21.2081 32.5269 21.4122 32.5269 19.7323ZM31.9443 15.5717C31.9443 13.9859 29.6735 14.2214 28.9415 14.2214V16.9062C29.6735 16.9062 31.9443 17.0789 31.9443 15.5717Z" fill="white"/>
</g>
<defs>
<clipPath id="clip0_18011_3690">
<rect width="62" height="62" rx="5" fill="white"/>
</clipPath>
</defs>
</svg>
