<svg width="62" height="62" viewBox="0 0 62 62" fill="none" xmlns="http://www.w3.org/2000/svg">
<g clip-path="url(#clip0_18011_3134)">
<path d="M1.75729 15.962C2.03129 13.0763 4.34239 10.8264 7.2305 10.5796C23.0269 9.22957 38.8226 9.22979 54.612 10.5802C57.4954 10.8268 59.8033 13.0709 60.096 15.95C61.3014 27.8058 61.3013 39.6567 60.0958 51.5125C59.8031 54.3905 57.4968 56.6341 54.6146 56.8819C38.8572 58.2364 23.1055 58.2401 7.34807 56.893C4.40628 56.6415 2.07687 54.3128 1.82824 51.3708C0.79313 39.1223 0.682271 27.2835 1.75729 15.962Z" fill="#FF9500" stroke="#1C1C1C" stroke-width="0.5" stroke-miterlimit="10" stroke-linejoin="round"/>
<path d="M1.75729 11.3948C2.03129 8.50911 4.34239 6.25915 7.2305 6.01232C23.0269 4.66234 38.8226 4.66256 54.612 6.01299C57.4954 6.2596 59.8033 8.50365 60.096 11.3828C61.3014 23.2386 61.3013 35.0894 60.0958 46.9453C59.8031 49.8233 57.4968 52.0669 54.6146 52.3146C38.8572 53.6692 23.1055 53.6729 7.34807 52.3258C4.40628 52.0743 2.07687 49.7456 1.82824 46.8035C0.79313 34.5551 0.682271 22.7163 1.75729 11.3948Z" fill="#FFE2C8" stroke="#1C1C1C" stroke-width="0.5" stroke-miterlimit="10" stroke-linejoin="round"/>
<path d="M32.6641 30.7797C32.654 24.8806 37.4412 20.5275 43.3395 20.4301C48.9036 20.3383 54.3962 20.6114 60.1639 21.1656C60.9973 27.0012 60.6709 33.2308 60.4973 41.335C54.7786 41.8871 49.205 42.0957 43.5959 41.961C37.5804 41.8164 32.6743 36.7969 32.6641 30.7797Z" fill="#FF9500" stroke="#1C1C1C" stroke-width="0.5" stroke-miterlimit="10" stroke-linejoin="round"/>
<path d="M32.6641 27.1172C32.6541 21.2181 37.4348 16.8679 43.332 16.7166C49.0906 16.5689 54.8486 16.7741 60.6046 17.3324C61.0949 25.956 61.0949 28.0194 60.7766 37.6713C55.0853 38.2259 49.3287 38.4339 43.5884 38.2954C37.574 38.1502 32.6743 33.1333 32.6641 27.1172Z" fill="#FF9500" stroke="#1C1C1C" stroke-width="0.5" stroke-miterlimit="10" stroke-linejoin="round"/>
<path d="M32.6652 27.1174C32.6552 21.2184 37.4359 16.8682 43.3331 16.7169C49.0917 16.5691 54.8497 16.7744 60.6057 17.3326C61.096 25.9562 61.096 28.0197 60.7777 37.6715C55.0864 38.2261 49.3298 38.4341 43.5895 38.2956C37.5751 38.1505 32.6754 33.1335 32.6652 27.1174Z" fill="#FFE2C8" stroke="#1C1C1C" stroke-width="0.5" stroke-miterlimit="10" stroke-linejoin="round"/>
<circle cx="42.6664" cy="26.6649" r="5" fill="#FF9500" stroke="#1C1C1C" stroke-width="0.5" stroke-miterlimit="10" stroke-linejoin="round"/>
</g>
<defs>
<clipPath id="clip0_18011_3134">
<rect width="62" height="62" rx="5" fill="white"/>
</clipPath>
</defs>
</svg>
