<svg width="102" height="102" viewBox="0 0 102 102" fill="none" xmlns="http://www.w3.org/2000/svg">
<rect x="0.5" y="0.5" width="101" height="101" rx="4.5" stroke="#9747FF" stroke-dasharray="10 5"/>
<path d="M37.4231 74.5392C37.2931 77.4222 35.0792 79.7951 32.1961 79.9233C31.2836 79.9638 30.3389 79.9862 29.364 79.9862C28.3862 79.9862 27.4388 79.9635 26.5238 79.9225C23.6491 79.7936 21.4373 77.4331 21.2991 74.5588C21.1102 70.6279 21.003 66.5322 21.0001 62.2825C20.9971 57.9363 21.1035 53.7497 21.2955 49.7359C21.4345 46.8313 23.6899 44.4605 26.5957 44.3478C27.2416 44.3228 27.9011 44.306 28.5734 44.2985C29.7972 44.2848 30.9804 44.3031 32.1203 44.347C35.0361 44.4593 37.2954 46.8446 37.426 49.7596C37.5991 53.6197 37.6976 57.6275 37.7027 61.7735C37.7079 66.1884 37.6076 70.4471 37.4231 74.5392Z" fill="#4169E1" stroke="#1C1C1C" stroke-width="0.5" stroke-miterlimit="10" stroke-linejoin="round"/>
<path d="M37.4231 70.358C37.2931 73.241 35.0792 75.6139 32.1961 75.742C31.2836 75.7826 30.3389 75.8049 29.364 75.8049C28.3862 75.8049 27.4388 75.7823 26.5238 75.7413C23.6491 75.6124 21.4373 73.2518 21.2991 70.3776C21.1102 66.4467 21.003 62.3509 21.0001 58.1013C20.9971 53.7551 21.1035 49.5684 21.2955 45.5546C21.4345 42.65 23.6899 40.2792 26.5957 40.1666C27.2416 40.1415 27.9011 40.1247 28.5734 40.1173C29.7972 40.1036 30.9804 40.1219 32.1203 40.1658C35.0361 40.2781 37.2954 42.6634 37.426 45.5784C37.5991 49.4384 37.6976 53.4463 37.7027 57.5922C37.7079 62.0072 37.6076 66.2659 37.4231 70.358Z" fill="#CCD9FD" stroke="#1C1C1C" stroke-width="0.5" stroke-miterlimit="10" stroke-linejoin="round"/>
<path d="M56.0255 74.4955C55.9032 77.3977 53.6845 79.7985 50.7825 79.9255C49.8666 79.9656 48.9184 79.9872 47.94 79.9861C46.969 79.9851 46.0279 79.9619 45.1187 79.9208C42.2591 79.7913 40.0548 77.4526 39.8919 74.5948C39.5728 68.9984 39.3968 63.1017 39.4163 56.9303C39.4328 51.4438 39.6021 46.1776 39.887 41.1502C40.0512 38.252 42.3129 35.8983 45.2136 35.7897C45.9411 35.7625 46.6854 35.7454 47.4459 35.74C48.5595 35.7317 49.6398 35.7487 50.6847 35.7865C53.6285 35.8931 55.9062 38.309 56.0295 41.2521C56.2528 46.5799 56.3764 52.1071 56.3764 57.8222C56.3764 63.5737 56.2513 69.1357 56.0255 74.4955Z" fill="#4169E1" stroke="#1C1C1C" stroke-width="0.5" stroke-miterlimit="10" stroke-linejoin="round"/>
<path d="M56.0255 70.3143C55.9032 73.2164 53.6845 75.6173 50.7825 75.7442C49.8666 75.7843 48.9184 75.8059 47.94 75.8049C46.969 75.8038 46.0279 75.7807 45.1187 75.7395C42.2591 75.61 40.0548 73.2714 39.8919 70.4135C39.5728 64.8172 39.3968 58.9205 39.4163 52.7491C39.4328 47.2625 39.6021 41.9964 39.887 36.9689C40.0512 34.0708 42.3129 31.7171 45.2136 31.6085C45.9411 31.5812 46.6854 31.5642 47.4459 31.5587C48.5595 31.5504 49.6398 31.5674 50.6847 31.6053C53.6285 31.7119 55.9062 34.1277 56.0295 37.0709C56.2528 42.3986 56.3764 47.9258 56.3764 53.6409C56.3764 59.3925 56.2513 64.9545 56.0255 70.3143Z" fill="#CCD9FD" stroke="#1C1C1C" stroke-width="0.5" stroke-miterlimit="10" stroke-linejoin="round"/>
<path d="M74.487 74.4465C74.3819 77.3703 72.1588 79.8045 69.2358 79.9295C68.4203 79.9643 67.5791 79.9843 66.7137 79.9862C65.7092 79.9887 64.7368 79.9668 63.7988 79.9251C60.9197 79.7974 58.7117 77.4275 58.5624 74.5494C58.165 66.8911 57.9655 58.8403 58.0302 50.4319C58.0772 44.2991 58.2619 38.3651 58.5571 32.6437C58.708 29.7177 60.9847 27.3309 63.9128 27.2279C64.6327 27.2026 65.3689 27.187 66.1208 27.1826C67.149 27.1765 68.149 27.1916 69.1189 27.2244C72.0915 27.325 74.3844 29.777 74.4906 32.7494C74.7231 39.2563 74.8538 45.9608 74.8621 52.8529C74.8706 60.2706 74.7377 67.4729 74.487 74.4465Z" fill="#4169E1" stroke="#1C1C1C" stroke-width="0.5" stroke-miterlimit="10" stroke-linejoin="round"/>
<path d="M74.487 70.2652C74.3819 73.189 72.1588 75.6232 69.2358 75.7482C68.4203 75.7831 67.5791 75.803 66.7137 75.8049C65.7092 75.8074 64.7368 75.7855 63.7988 75.7439C60.9197 75.6161 58.7117 73.2462 58.5624 70.3682C58.165 62.7099 57.9655 54.659 58.0302 46.2506C58.0772 40.1178 58.2619 34.1839 58.5571 28.4624C58.708 25.5364 60.9847 23.1496 63.9128 23.0467C64.6327 23.0213 65.3689 23.0058 66.1208 23.0013C67.149 22.9952 68.149 23.0103 69.1189 23.0432C72.0915 23.1437 74.3844 25.5958 74.4906 28.5682C74.7231 35.075 74.8538 41.7796 74.8621 48.6716C74.8706 56.0893 74.7377 63.2916 74.487 70.2652Z" fill="#CCD9FD" stroke="#1C1C1C" stroke-width="0.5" stroke-miterlimit="10" stroke-linejoin="round"/>
<path d="M80.6045 36.2376C80.8234 35.0155 79.8638 33.9094 78.6228 33.9507C76.4298 34.0237 74.1387 34.1541 71.7592 34.3554C69.8344 34.5184 67.9752 34.7178 66.1856 34.945C64.7851 35.1228 64.0422 36.6709 64.8335 37.84C64.947 38.0077 65.063 38.1764 65.1814 38.346C65.8221 39.2639 66.4657 40.1068 67.096 40.8778C67.4432 41.3024 67.4005 41.928 66.9814 42.282C63.4045 45.3033 57.8396 49.2645 50.2271 52.1894C43.6423 54.7198 36.6719 56.0336 29.4823 56.1051C28.5101 56.1148 27.6548 56.7956 27.5595 57.7632C27.5163 58.2015 27.4865 58.6657 27.4754 59.1535C27.459 59.8975 27.4889 60.5891 27.546 61.2193C27.6075 61.8981 28.1879 62.4002 28.8694 62.4002C37.0736 62.4002 45.0359 60.9382 52.5525 58.0495C59.2949 55.4593 65.5226 51.7795 71.0819 47.1067C71.514 46.7435 72.16 46.8003 72.5334 47.2236C72.9591 47.7061 73.43 48.2039 73.9501 48.7078C74.2209 48.9703 74.4905 49.2201 74.7573 49.4578C75.7719 50.3613 77.3274 49.8483 77.709 48.5444C78.2509 46.6927 78.7713 44.7463 79.2559 42.709C79.789 40.4684 80.2338 38.3071 80.6045 36.2376Z" fill="#FF9500" stroke="#1C1C1C" stroke-width="0.5" stroke-miterlimit="10" stroke-linejoin="round"/>
<path d="M80.6045 32.7006C80.8234 31.4784 79.8638 30.3724 78.6228 30.4137C76.4298 30.4866 74.1387 30.6171 71.7592 30.8183C69.8344 30.9814 67.9752 31.1808 66.1856 31.408C64.7851 31.5858 64.0422 33.1339 64.8335 34.303C64.947 34.4707 65.063 34.6393 65.1814 34.8089C65.8221 35.7269 66.4657 36.5698 67.096 37.3407C67.4432 37.7654 67.4005 38.391 66.9814 38.745C63.4045 41.7662 57.8396 45.7275 50.2271 48.6523C43.6423 51.1828 36.6719 52.4966 29.4823 52.5681C28.5101 52.5778 27.6548 53.2586 27.5595 54.2262C27.5163 54.6644 27.4865 55.1287 27.4754 55.6165C27.459 56.3604 27.4889 57.0521 27.546 57.6823C27.6075 58.3611 28.1879 58.8632 28.8694 58.8632C37.0736 58.8632 45.0359 57.4012 52.5525 54.5125C59.2949 51.9223 65.5226 48.2425 71.0819 43.5697C71.514 43.2065 72.16 43.2633 72.5334 43.6865C72.9591 44.1691 73.43 44.6669 73.9501 45.1708C74.2209 45.4333 74.4905 45.6831 74.7573 45.9207C75.7719 46.8243 77.3274 46.3113 77.709 45.0074C78.2509 43.1557 78.7713 41.2093 79.2559 39.172C79.789 36.9313 80.2338 34.7701 80.6045 32.7006Z" fill="#FFE2C8" stroke="#1C1C1C" stroke-width="0.5" stroke-miterlimit="10" stroke-linejoin="round"/>
</svg>
