<svg width="102" height="102" viewBox="0 0 102 102" fill="none" xmlns="http://www.w3.org/2000/svg">
<rect x="0.5" y="0.5" width="101" height="101" rx="4.5" stroke="#8A38F5" stroke-dasharray="10 5"/>
<path d="M61.3031 36.9803C55.3984 47.6275 49.2923 58.1586 43.0433 68.6071C36.5079 65.2409 33.3241 63.4201 27.0962 59.5213C33.0932 48.8493 39.2042 38.2345 45.461 27.7126C51.9514 31.1567 55.1202 33.0035 61.3031 36.9803Z" fill="#2AA5A5" stroke="#1C1C1C" stroke-width="0.5" stroke-linejoin="round"/>
<path d="M59.2008 35.6566C53.2169 46.3361 47.0798 56.9358 40.836 67.4653C34.3456 64.0212 31.1768 62.1743 24.9939 58.1976C30.9181 47.5616 36.9852 37.008 43.2537 26.5708C49.7891 29.9369 52.9729 31.7578 59.2008 35.6566Z" fill="#B9E5DE" stroke="#1C1C1C" stroke-width="0.5" stroke-linejoin="round"/>
<path d="M54.2323 39.8367C50.1705 46.9319 46.0865 54.0055 41.9728 61.0707C40.5353 60.2753 38.7041 60.777 37.8725 62.2023C35.0969 60.6344 33.7236 59.8329 30.993 58.1871C31.8116 56.7543 31.3276 54.9073 29.9239 54.0536C33.9539 46.9834 38.0228 39.9357 42.1308 32.9105C43.5721 33.6994 45.4136 33.195 46.2451 31.7697C49.0357 33.3116 50.4165 34.1001 53.1621 35.7199C52.3371 37.1489 52.8247 38.9894 54.2323 39.8367Z" fill="#2AA5A5" stroke="#1C1C1C" stroke-width="0.5" stroke-linejoin="round"/>
<path d="M39.4466 51.4804C42.7464 53.3855 46.5964 52.8975 48.0327 50.4097C49.469 47.9219 47.9639 44.3335 44.6669 42.4386C41.3672 40.5335 37.5032 41.0308 36.0744 43.5056C34.6455 45.9804 36.1506 49.5688 39.4466 51.4804Z" fill="#B9E5DE" stroke="#1C1C1C" stroke-width="0.5" stroke-linejoin="round"/>
<path d="M73.5147 60.2633C73.5147 67.851 67.2749 73.9999 59.5812 73.9999C51.8874 73.9999 45.0948 67.3436 45.0948 59.7559C44.3451 46.9582 51.8874 46.5266 59.5812 46.5266C67.2749 46.5266 73.9387 47.193 73.5147 60.2633Z" fill="#FF9500" stroke="#1C1C1C" stroke-width="0.5" stroke-miterlimit="10"/>
<path d="M59.248 70.3273C67.1008 70.3273 73.4617 63.8603 73.4617 55.8788C73.4617 47.8973 67.1008 41.4304 59.248 41.4304C51.3953 41.4304 45.0343 47.8973 45.0343 55.8788C45.0343 63.8603 51.3953 70.3273 59.248 70.3273Z" fill="#FFE2C8" stroke="#1C1C1C" stroke-width="0.5" stroke-miterlimit="10"/>
<path d="M59.2859 67.071C65.4651 67.071 70.4782 62.058 70.4782 55.8788C70.4782 49.6996 65.4651 44.6865 59.2859 44.6865C53.1067 44.6865 48.0936 49.6996 48.0936 55.8788C48.0936 62.058 53.1067 67.071 59.2859 67.071Z" fill="#FF9500" stroke="#1C1C1C" stroke-width="0.5" stroke-miterlimit="10"/>
<path d="M64.5336 52.5544C64.6623 53.8493 64.1322 54.6369 63.3144 55.0761C64.685 55.4244 65.5332 56.265 65.3666 58.1808C65.147 60.5435 63.481 61.1947 61.0805 61.3386V63.1106C61.0805 63.5044 60.7624 63.83 60.3611 63.83C59.9598 63.83 59.6417 63.5119 59.6417 63.1106V61.3765C59.2782 61.3765 58.892 61.3765 58.5058 61.3613V63.1182C58.5058 63.5119 58.1878 63.8375 57.7864 63.8375C57.3851 63.8375 57.067 63.5195 57.067 63.1182V61.3462C56.7338 61.3462 56.4006 61.331 56.0523 61.331H55.2345C54.6892 61.331 54.2652 60.8388 54.356 60.2936C54.4318 59.8619 54.8104 59.5515 55.2496 59.5515C55.5298 59.5515 55.5222 59.5439 55.5222 59.5439C55.9236 59.5439 56.022 59.2486 56.0523 59.0365V55.1139V52.2894C55.9993 51.994 55.8024 51.623 55.2193 51.623C55.2193 51.623 55.2193 51.623 54.9921 51.6154C54.5529 51.6154 54.1895 51.2595 54.1895 50.8203C54.1895 50.3811 54.5454 50.0327 54.977 50.0327H57.0746V48.2759C57.0746 47.8821 57.3926 47.5565 57.794 47.5565C58.1953 47.5565 58.5134 47.8746 58.5134 48.2759V49.9797C58.8996 49.9797 59.2631 49.9646 59.6493 49.9646V48.2835C59.6493 47.8897 59.9673 47.5641 60.3687 47.5641C60.77 47.5641 61.0881 47.8821 61.0881 48.2835V50.0403C62.9206 50.1993 64.3897 50.7976 64.5412 52.5847L64.5336 52.5544ZM62.5269 57.8855C62.5269 55.9545 59.4903 56.2347 58.521 56.2347V59.5288C59.4903 59.5288 62.5269 59.7559 62.5269 57.8779V57.8855ZM61.8756 53.2435C61.8756 51.4715 59.3388 51.7366 58.521 51.7366V54.7353C59.3388 54.7353 61.8756 54.9246 61.8756 53.2435Z" fill="white"/>
<path d="M30.1921 47.3219V43.4296H28.4201C27.4432 43.4296 26.6633 44.202 26.633 45.1637C26.633 45.1713 26.633 45.3076 26.6254 45.868C26.6027 47.5491 28.1702 48.1019 28.1702 48.1019L28.4807 48.3063C28.4883 50.2979 28.4842 48.8919 29.3096 50.6563L27.6221 53.4376C24.6301 52.2721 20.8686 49.7562 20.8551 45.4136V42.377C20.8551 38.2121 24.2476 37.6593 28.4201 37.6593H30.1921V34.0472L31.5476 35.0922L33.9556 35.7056L38.7567 37.841V40.6883L30.1921 47.3295V47.3219Z" fill="#4169E1" stroke="#1C1C1C" stroke-width="0.5" stroke-linejoin="round"/>
<path d="M63.2236 63.1485L71.8488 63.2242H73.6208C74.5976 63.2242 75.3776 62.4518 75.4079 61.4901C75.4079 61.4825 75.4079 61.3462 75.4155 60.7858C75.4382 59.1047 73.8707 58.5519 73.8707 58.5519L73.5602 58.3475C73.7647 56.2574 73.8782 53.9705 73.0528 52.2061L73.3179 51.4489C73.3179 51.4489 81.1858 52.2137 81.1858 58.7867V61.4371C81.1858 65.602 77.7933 68.9945 73.6208 68.9945H71.8488V72.6066L70.4933 71.5616L68.9712 70.3803H68.9636L63.2918 65.973L63.2236 63.1485Z" fill="#4169E1" stroke="#1C1C1C" stroke-width="0.5" stroke-linejoin="round"/>
<path d="M30.1921 44.4367V40.5444H28.4201C27.4432 40.5444 26.6633 41.3168 26.633 42.2785C26.633 42.2861 26.633 42.4224 26.6254 42.9828C26.6027 44.6639 28.0596 45.5625 28.0596 45.5625L30.8408 47.75L28.7471 51.5938C28.7471 51.5938 20.8551 49.1014 20.8551 42.5284V42.3315C20.8551 38.1666 24.2476 34.7741 28.4201 34.7741H30.1921V31.162L31.5476 32.207L33.0697 33.3883H33.0772L38.7491 37.7956L30.1921 44.4367Z" fill="#CCD9FD" stroke="#1C1C1C" stroke-width="0.5" stroke-linejoin="round"/>
<path d="M71.8563 56.4469V60.3392H73.6283C74.6052 60.3392 75.3851 59.5668 75.4154 58.6051C75.4154 58.5975 75.4154 58.4612 75.423 57.9008C75.4457 56.2197 73.8782 55.6669 73.8782 55.6669L73.5677 55.4624C73.5601 53.4709 73.0982 51.5474 72.2728 49.783L72.394 49.6694C72.394 49.6694 81.1933 51.7822 81.1933 58.3552V58.5521C81.1933 62.717 77.8008 66.1095 73.6283 66.1095H71.8563V69.7216L70.5008 68.6766L68.9787 67.4953H68.9712L63.2993 63.088L71.8563 56.4469Z" fill="#CCD9FD" stroke="#1C1C1C" stroke-width="0.5" stroke-linejoin="round"/>
</svg>
