<svg width="62" height="62" viewBox="0 0 62 62" fill="none" xmlns="http://www.w3.org/2000/svg">
<g clip-path="url(#clip0_18011_6129)">
<g clip-path="url(#clip1_18011_6129)">
<path d="M55.0543 45.885C39.0425 45.8207 23.0386 45.8207 7.02679 45.885C4.89081 48.1816 3.85493 49.3218 2 51.6023C21.3604 51.6023 40.7207 51.6023 60.0731 51.6023C58.2181 49.3218 57.1823 48.1816 55.0463 45.885H55.0543Z" fill="#E8EDFA" stroke="#1C1C1C" stroke-width="0.5" stroke-linejoin="round"/>
<path d="M57.1288 56.4779C39.7357 56.5582 22.3508 56.5582 4.95776 56.4779C3.48827 56.4779 2.12316 55.2573 2.05089 53.7958C2.00271 52.9206 1.99468 52.4789 2.00271 51.6036C21.3631 51.6036 40.7234 51.6036 60.0758 51.6036C60.0838 52.4789 60.0758 52.9206 60.0276 53.7958C59.9553 55.2573 58.5902 56.4698 57.1207 56.4779H57.1288Z" fill="#CCD9FD" stroke="#1C1C1C" stroke-width="0.5" stroke-linejoin="round"/>
<path d="M55.035 45.9203C39.0392 46.2174 23.0514 46.2174 7.05562 45.9203C6.68624 35.393 6.65412 24.9058 6.95926 14.3784C7.00744 13.0133 8.15573 11.8891 9.52083 11.865C23.8705 11.6322 38.2121 11.6322 52.5617 11.865C53.9268 11.8891 55.0751 13.0213 55.1233 14.3784C55.4284 24.9058 55.3963 35.393 55.0269 45.9203H55.035Z" fill="#CCD9FD" stroke="#1C1C1C" stroke-width="0.5" stroke-linejoin="round"/>
<path d="M11.0967 15.0309C22.7365 14.8973 34.3768 14.8809 46.0166 14.981L51.0059 15.0309L51.1436 15.0465C51.4549 15.1128 51.6903 15.3862 51.6973 15.7164C51.7645 18.8967 51.7963 22.0692 51.8135 25.2457H51.8154L51.8193 25.982C51.8515 31.3524 51.8118 36.7316 51.6992 42.11L51.6846 42.7877L51.0068 42.7945C39.9855 42.915 28.9719 42.9315 17.959 42.8512L16.6641 42.8414L16.665 42.8394C14.8093 42.8262 12.9553 42.8131 11.0967 42.7935C10.7188 42.7894 10.4122 42.4858 10.4043 42.108C10.2194 33.3055 10.2194 24.5189 10.4043 15.7164L10.4209 15.5787C10.49 15.2677 10.7662 15.0346 11.0967 15.0309Z" fill="#4169E1"/>
<path d="M11.0967 15.0309L11.0938 14.7809L11.0938 14.7809L11.0967 15.0309ZM46.0166 14.981L46.0191 14.7311L46.0188 14.7311L46.0166 14.981ZM51.0059 15.0309L51.034 14.7824C51.0255 14.7815 51.0169 14.781 51.0084 14.7809L51.0059 15.0309ZM51.1436 15.0465L51.1957 14.802C51.1877 14.8003 51.1798 14.799 51.1717 14.7981L51.1436 15.0465ZM51.6973 15.7164L51.9472 15.7111L51.9472 15.7111L51.6973 15.7164ZM51.8135 25.2457L51.5635 25.247C51.5642 25.3846 51.6759 25.4957 51.8135 25.4957V25.2457ZM51.8154 25.2457L52.0654 25.2444C52.0647 25.1068 51.953 24.9957 51.8154 24.9957V25.2457ZM51.8193 25.982L51.5693 25.9834L51.5693 25.9835L51.8193 25.982ZM51.6992 42.11L51.9492 42.1154L51.9492 42.1152L51.6992 42.11ZM51.6846 42.7877L51.6871 43.0377C51.8221 43.0363 51.9316 42.928 51.9345 42.7931L51.6846 42.7877ZM51.0068 42.7945L51.0043 42.5445L51.0041 42.5445L51.0068 42.7945ZM17.959 42.8512L17.9571 43.1012L17.9572 43.1012L17.959 42.8512ZM16.6641 42.8414L16.4405 42.7296C16.4019 42.8068 16.4058 42.8984 16.4509 42.972C16.496 43.0456 16.5759 43.0907 16.6622 43.0914L16.6641 42.8414ZM16.665 42.8394L16.8886 42.9513C16.9273 42.874 16.9233 42.7824 16.8782 42.7088C16.833 42.6352 16.7532 42.5901 16.6668 42.5895L16.665 42.8394ZM11.0967 42.7935L11.0939 43.0435L11.094 43.0435L11.0967 42.7935ZM10.4043 42.108L10.1544 42.1133L10.1544 42.1133L10.4043 42.108ZM10.4043 15.7164L10.1561 15.6865C10.1551 15.6947 10.1545 15.7029 10.1544 15.7112L10.4043 15.7164ZM10.4209 15.5787L10.1769 15.5245C10.1751 15.5325 10.1737 15.5406 10.1727 15.5488L10.4209 15.5787ZM11.0967 15.0309L11.0995 15.2808C22.7377 15.1473 34.3763 15.1309 46.0145 15.231L46.0166 14.981L46.0188 14.7311C34.3773 14.6309 22.7353 14.6473 11.0938 14.7809L11.0967 15.0309ZM46.0166 14.981L46.0141 15.231L51.0034 15.2808L51.0059 15.0309L51.0084 14.7809L46.0191 14.7311L46.0166 14.981ZM51.0059 15.0309L50.9777 15.2793L51.1154 15.2949L51.1436 15.0465L51.1717 14.7981L51.034 14.7824L51.0059 15.0309ZM51.1436 15.0465L51.0915 15.291C51.2917 15.3337 51.4428 15.5099 51.4473 15.7217L51.6973 15.7164L51.9472 15.7111C51.9377 15.2626 51.6182 14.892 51.1957 14.802L51.1436 15.0465ZM51.6973 15.7164L51.4473 15.7217C51.5145 18.9002 51.5463 22.0712 51.5635 25.247L51.8135 25.2457L52.0635 25.2443C52.0463 22.0671 52.0144 18.8932 51.9472 15.7111L51.6973 15.7164ZM51.8135 25.2457V25.4957H51.8154V25.2457V24.9957H51.8135V25.2457ZM51.8154 25.2457L51.5654 25.247L51.5693 25.9834L51.8193 25.982L52.0693 25.9807L52.0654 25.2444L51.8154 25.2457ZM51.8193 25.982L51.5693 25.9835C51.6015 31.3516 51.5618 36.7286 51.4493 42.1047L51.6992 42.11L51.9492 42.1152C52.0618 36.7346 52.1015 31.3531 52.0693 25.9805L51.8193 25.982ZM51.6992 42.11L51.4493 42.1046L51.4346 42.7823L51.6846 42.7877L51.9345 42.7931L51.9492 42.1154L51.6992 42.11ZM51.6846 42.7877L51.682 42.5377L51.0043 42.5445L51.0068 42.7945L51.0094 43.0445L51.6871 43.0377L51.6846 42.7877ZM51.0068 42.7945L51.0041 42.5445C39.9844 42.665 28.9723 42.6815 17.9608 42.6012L17.959 42.8512L17.9572 43.1012C28.9716 43.1815 39.9867 43.165 51.0096 43.0445L51.0068 42.7945ZM17.959 42.8512L17.9609 42.6012L16.6659 42.5914L16.6641 42.8414L16.6622 43.0914L17.9571 43.1012L17.959 42.8512ZM16.6641 42.8414L16.8877 42.9532L16.8886 42.9513L16.665 42.8394L16.4414 42.7276L16.4405 42.7296L16.6641 42.8414ZM16.665 42.8394L16.6668 42.5895C14.811 42.5762 12.9575 42.5631 11.0993 42.5436L11.0967 42.7935L11.094 43.0435C12.9532 43.0631 14.8076 43.0762 16.6633 43.0894L16.665 42.8394ZM11.0967 42.7935L11.0994 42.5436C10.8566 42.5409 10.6594 42.3457 10.6542 42.1027L10.4043 42.108L10.1544 42.1133C10.1651 42.626 10.5811 43.0379 11.0939 43.0435L11.0967 42.7935ZM10.4043 42.108L10.6542 42.1028C10.4694 33.3037 10.4694 24.5207 10.6542 15.7217L10.4043 15.7164L10.1544 15.7112C9.96939 24.5172 9.96939 33.3072 10.1544 42.1133L10.4043 42.108ZM10.4043 15.7164L10.6525 15.7463L10.6691 15.6086L10.4209 15.5787L10.1727 15.5488L10.1561 15.6865L10.4043 15.7164ZM10.4209 15.5787L10.6649 15.633C10.7094 15.4331 10.8874 15.2833 11.0995 15.2808L11.0967 15.0309L11.0938 14.7809C10.6451 14.786 10.2707 15.1023 10.1769 15.5245L10.4209 15.5787Z" fill="#1C1C1C"/>
<path d="M20.3703 39.3086C20.3437 39.7888 19.9757 40.1813 19.4967 40.2247C18.7909 40.2886 18.024 40.3282 17.2037 40.3282C16.3838 40.3282 15.6172 40.2883 14.9118 40.2243C14.4342 40.181 14.0667 39.7905 14.0384 39.3118C13.9244 37.3843 13.8579 35.3519 13.8565 33.2234C13.855 31.0496 13.9215 28.9752 14.0376 27.0106C14.0662 26.5268 14.4411 26.1343 14.9242 26.0956C15.5421 26.0461 16.1977 26.0138 16.8873 26.0061C17.8134 25.9957 18.6816 26.0312 19.4838 26.0954C19.9685 26.1341 20.344 26.529 20.3709 27.0145C20.4766 28.9233 20.5383 30.9274 20.5408 33.0191C20.5434 35.2145 20.4812 37.3136 20.3703 39.3086Z" fill="#CCD9FD" stroke="#1C1C1C" stroke-width="0.5" stroke-miterlimit="10" stroke-linejoin="round"/>
<path d="M29.8979 39.2992C29.8748 39.7817 29.5081 40.1792 29.0271 40.2241C28.3307 40.2891 27.5742 40.3291 26.7654 40.3282C25.968 40.3273 25.2217 40.2871 24.5341 40.2226C24.0599 40.1781 23.6956 39.7904 23.665 39.3151C23.4947 36.6686 23.3972 33.8493 23.4062 30.8744C23.414 28.177 23.5084 25.6095 23.664 23.1848C23.695 22.7025 24.0693 22.312 24.5511 22.2736C25.1859 22.2229 25.8604 22.1908 26.5706 22.1855C27.437 22.1788 28.2523 22.2126 29.0097 22.2725C29.4983 22.3111 29.8753 22.7116 29.8987 23.2013C30.021 25.7662 30.0901 28.4485 30.0901 31.2401C30.0901 34.0388 30.0207 36.7281 29.8979 39.2992Z" fill="#CCD9FD" stroke="#1C1C1C" stroke-width="0.5" stroke-miterlimit="10" stroke-linejoin="round"/>
<path d="M40.3712 39.2808C40.3492 39.7702 39.9743 40.1719 39.4862 40.214C38.6907 40.2826 37.8252 40.3262 36.8986 40.3281C35.9142 40.3304 34.9977 40.2852 34.1597 40.2124C33.6795 40.1707 33.3075 39.7807 33.2765 39.2997C33.047 35.7489 32.9272 31.9872 32.9604 28.0356C32.9855 25.0312 33.0973 22.1415 33.2754 19.3758C33.3069 18.8875 33.6895 18.4943 34.1776 18.4595C34.9459 18.4047 35.765 18.3702 36.6297 18.3655C37.6384 18.36 38.5872 18.3958 39.4677 18.4582C39.9639 18.4933 40.3496 18.8983 40.3719 19.3951C40.5109 22.5018 40.5898 25.7198 40.5942 29.0426C40.5986 32.5755 40.5189 35.9911 40.3712 39.2808Z" fill="#CCD9FD" stroke="#1C1C1C" stroke-width="0.5" stroke-miterlimit="10" stroke-linejoin="round"/>
<rect x="45.5663" y="50.9514" width="2.23074" height="4.1627" transform="rotate(-42.1424 45.5663 50.9514)" fill="#FFE2C8" stroke="#1C1C1C" stroke-width="0.5" stroke-miterlimit="10"/>
<rect x="46.7675" y="54.4951" width="4.9504" height="10.1279" rx="1" transform="rotate(-42.1424 46.7675 54.4951)" fill="#FF9500" stroke="#1C1C1C" stroke-width="0.5" stroke-miterlimit="10"/>
<path d="M41.1438 31.6477C46.7537 31.6479 51.3018 36.2681 51.302 41.967C51.302 47.6661 46.7538 52.2872 41.1438 52.2874C35.5334 52.2874 30.9924 47.666 30.9924 41.967C30.9926 36.2683 35.5335 31.6477 41.1438 31.6477Z" fill="#FFE2C8" stroke="#1C1C1C" stroke-width="0.5" stroke-miterlimit="10"/>
<path d="M41.1732 49.776C45.4854 49.776 48.9784 46.2829 48.9784 41.9708C48.9784 37.6587 45.4854 34.1656 41.1732 34.1656C36.8611 34.1656 33.3761 37.6587 33.3761 41.9708C33.3761 46.2829 36.8692 49.776 41.1732 49.776Z" fill="#FF9500" stroke="#1C1C1C" stroke-width="0.5" stroke-miterlimit="10"/>
<path d="M44.8389 39.6437C44.9272 40.5511 44.5579 41.0972 43.9877 41.4023C44.9433 41.6432 45.5375 42.2294 45.4171 43.5624C45.2645 45.2085 44.1001 45.6662 42.4299 45.7626V46.9992C42.4299 47.2722 42.2051 47.4971 41.932 47.4971C41.659 47.4971 41.4342 47.2722 41.4342 46.9992V45.7867C41.1772 45.7867 40.9122 45.7867 40.6392 45.7706V46.9912C40.6392 47.2642 40.4224 47.489 40.1414 47.489C39.8603 47.489 39.6435 47.2642 39.6435 46.9912V45.7546C39.4106 45.7546 39.1777 45.7385 38.9368 45.7385H38.3587C37.9813 45.7385 37.6922 45.4012 37.7564 45.0238V45.0078C37.8126 44.7107 38.0776 44.4939 38.3747 44.4939C38.5755 44.4939 38.5675 44.4939 38.5675 44.4939C38.8485 44.4939 38.9128 44.2851 38.9368 44.1405V41.4023V39.4349C38.8967 39.2262 38.7602 38.9692 38.3587 38.9692C38.3587 38.9692 38.3587 38.9692 38.1901 38.9692C37.8849 38.9692 37.636 38.7203 37.636 38.4151C37.636 38.11 37.8769 37.8611 38.1901 37.8611H39.6515V36.6405C39.6515 36.3675 39.8683 36.1426 40.1494 36.1426C40.4304 36.1426 40.6472 36.3675 40.6472 36.6405V37.8289C40.9122 37.8289 41.1692 37.8129 41.4422 37.8129V36.6405C41.4422 36.3675 41.659 36.1426 41.9401 36.1426C42.2211 36.1426 42.4379 36.3675 42.4379 36.6405V37.8611C43.7147 37.9735 44.7425 38.383 44.8469 39.6357L44.8389 39.6437ZM43.4337 43.3616C43.4337 42.0206 41.3218 42.2133 40.6472 42.2133V44.5099C41.3218 44.5099 43.4337 44.6705 43.4337 43.3616ZM42.984 40.1255C42.984 38.8889 41.2174 39.0736 40.6472 39.0736V41.1614C41.2174 41.1614 42.984 41.2979 42.984 40.1255Z" fill="white"/>
<path d="M39.6367 2.35884C39.6426 1.12352 38.4998 0.21998 37.2975 0.503773C36.5012 0.691729 35.6845 0.899034 34.8494 1.12782C33.977 1.36688 33.1345 1.61565 32.3226 1.8708C31.468 2.13937 31.1928 3.18947 31.833 3.81615C32.1915 4.16696 32.7807 4.70376 33.4671 5.29532L26.5469 13.3664C25.8574 14.1706 24.6603 14.2977 23.8173 13.6561L21.4681 11.868C20.6277 11.2284 19.4347 11.3525 18.7439 12.1514L14.0054 17.632C13.399 18.3333 13.4893 19.3963 14.2052 19.9853C14.8967 20.5543 15.9159 20.4678 16.5016 19.7903L19.223 16.6427C19.9138 15.8437 21.1068 15.7196 21.9473 16.3593L24.307 18.1554C25.15 18.797 26.3471 18.67 27.0366 17.8657L36.0372 7.36823C36.5436 7.74291 37.0221 8.07095 37.4273 8.30682C38.2968 8.81257 39.3313 8.26806 39.4166 7.26583C39.4868 6.44225 39.5426 5.58897 39.5806 4.70756C39.6152 3.90223 39.6331 3.11878 39.6367 2.35884Z" fill="#FF9500" stroke="#1C1C1C" stroke-width="0.5" stroke-miterlimit="10" stroke-linejoin="round"/>
</g>
</g>
<defs>
<clipPath id="clip0_18011_6129">
<rect width="62" height="62" rx="5" fill="white"/>
</clipPath>
<clipPath id="clip1_18011_6129">
<rect width="62" height="62" fill="white"/>
</clipPath>
</defs>
</svg>
