<svg width="102" height="102" viewBox="0 0 102 102" fill="none" xmlns="http://www.w3.org/2000/svg">
<rect x="0.5" y="0.5" width="101" height="101" rx="4.5" stroke="#8A38F5" stroke-dasharray="10 5"/>
<g clip-path="url(#clip0_18011_7443)">
<path d="M56.1413 41.6101C54.5383 39.8251 52.4663 38.5231 50.1772 37.788C46.7122 36.668 41.1191 34.939 39.488 34.855C37.073 34.736 31.7529 39.0831 30.5489 38.9641C29.3449 38.8451 27.1678 38.9641 27.1678 38.9641V50.9273H29.7019C29.7019 50.9273 31.7529 52.4953 34.049 52.4953H40.4541C40.4541 52.4953 58.0593 47.2662 57.9823 44.8792C57.9543 43.9061 57.1143 42.6951 56.1413 41.6101Z" fill="white" stroke="black" stroke-width="0.5" stroke-linecap="round" stroke-linejoin="round"/>
<path d="M48.4132 72.4876C48.4132 72.4876 59.5294 76.2326 61.9444 76.3517C64.3595 76.4707 69.6796 72.1236 70.8836 72.2426C72.0876 72.3616 74.2646 72.2426 74.2646 72.2426V60.2794H71.7306C71.7306 60.2794 69.6796 58.7114 67.3835 58.7114H60.9784L37.269 63.5344L48.4132 72.4876Z" fill="white" stroke="black" stroke-width="0.5" stroke-linecap="round" stroke-linejoin="round"/>
<path d="M34.084 46.3492C34.238 44.7041 35.554 43.4161 37.2061 43.2761C46.2222 42.5061 55.2384 42.5061 64.2475 43.2761C65.8995 43.4161 67.2085 44.6971 67.3835 46.3422C68.0696 53.1113 68.0696 59.8734 67.3835 66.6425C67.2155 68.2875 65.8995 69.5685 64.2475 69.7085C55.2594 70.4786 46.2712 70.4856 37.2761 69.7085C35.596 69.5615 34.266 68.2385 34.126 66.5585C33.531 59.5654 33.468 52.8103 34.084 46.3492Z" fill="#FF9500" stroke="black" stroke-width="0.5" stroke-linecap="round" stroke-linejoin="round"/>
<path d="M34.084 43.7381C34.238 42.0931 35.554 40.8051 37.2061 40.6651C46.2222 39.8951 55.2384 39.8951 64.2475 40.6651C65.8995 40.8051 67.2085 42.0861 67.3835 43.7311C68.0696 50.5003 68.0696 57.2624 67.3835 64.0315C67.2155 65.6765 65.8995 66.9575 64.2475 67.0975C55.2594 67.8675 46.2712 67.8745 37.2761 67.0975C35.596 66.9505 34.266 65.6275 34.126 63.9475C33.531 56.9544 33.468 50.1992 34.084 43.7381Z" fill="#FFE2C8" stroke="black" stroke-width="0.5" stroke-linejoin="round"/>
<path d="M52.9493 54.6513C53.0193 51.4803 55.7283 48.9602 58.8994 48.9042C62.0704 48.8482 65.3045 49.0022 68.6435 49.3243C69.0985 52.4603 68.9515 55.7994 68.8535 60.0414C68.8535 60.4894 68.4965 60.8674 68.0485 60.9094C65.0595 61.1684 62.1334 61.2664 59.1934 61.1964C55.7073 61.1124 52.8723 58.1654 52.9493 54.6583V54.6513Z" fill="#FF9500" stroke="black" stroke-width="0.5" stroke-linecap="round" stroke-linejoin="round"/>
<path d="M52.9492 52.5583C53.0262 49.3802 55.7283 46.8742 58.9063 46.7832C62.0844 46.6922 64.9824 46.7832 68.0205 47.0492C68.5245 47.0912 68.9165 47.5112 68.9445 48.0082C69.1755 52.2153 69.1685 53.5733 69.0005 58.7324C65.7524 59.0474 62.4624 59.1664 59.1863 59.0894C55.7003 59.0054 52.8652 56.0513 52.9492 52.5513V52.5583Z" fill="#FFE2C8" stroke="black" stroke-width="0.5" stroke-linejoin="round"/>
<path d="M58.6544 55.3093C60.2294 55.3093 61.5104 54.0283 61.5104 52.4533C61.5104 50.8783 60.2294 49.5972 58.6544 49.5972C57.0794 49.5972 55.7983 50.8783 55.7983 52.4533C55.7983 54.0283 57.0794 55.3093 58.6544 55.3093Z" fill="#FF9500" stroke="black" stroke-width="0.5" stroke-linecap="round" stroke-linejoin="round"/>
<path d="M66.6205 48.3652C72.8086 48.3652 77.8206 43.3531 77.8206 37.165C77.8206 30.9769 72.8156 25.9648 66.6205 25.9648C60.4254 25.9648 55.4203 30.9769 55.4203 37.165C55.4203 43.3531 60.4394 48.3652 66.6205 48.3652Z" fill="#FFE2C8" stroke="#1C1C1C" stroke-width="0.5" stroke-linecap="round" stroke-linejoin="round"/>
<path d="M66.6205 46.2652C71.6466 46.2652 75.7207 42.1911 75.7207 37.165C75.7207 32.1389 71.6466 28.0649 66.6205 28.0649C61.5945 28.0649 57.5204 32.1389 57.5204 37.165C57.5204 42.1911 61.5945 46.2652 66.6205 46.2652Z" fill="#FF9500" stroke="#1C1C1C" stroke-width="0.5" stroke-miterlimit="10"/>
<path d="M71.0516 34.463C71.1636 35.583 70.7086 36.262 70.0086 36.64C71.1776 36.941 71.9056 37.669 71.7656 39.3211C71.5766 41.3651 70.1486 41.9251 68.0976 42.0441V43.5771C68.0976 43.9131 67.8245 44.1931 67.4815 44.1931C67.1385 44.1931 66.8655 43.9201 66.8655 43.5771V42.0721C66.5505 42.0721 66.2215 42.0721 65.8925 42.0581V43.5771C65.8925 43.9131 65.6195 44.1931 65.2765 44.1931C64.9335 44.1931 64.6605 43.9201 64.6605 43.5771V42.0441C64.3735 42.0441 64.0865 42.0301 63.7925 42.0301H62.9455C62.5535 42.0301 62.2525 41.6731 62.3155 41.2881L62.3575 41.0291C62.4065 40.7141 62.6795 40.4901 63.0015 40.4901C63.3445 40.4901 63.3375 40.4901 63.3375 40.4901C63.6805 40.4901 63.7645 40.2311 63.7925 40.0491V36.661V34.225C63.7505 33.966 63.5755 33.651 63.0785 33.651C63.0785 33.651 63.0785 33.651 62.8405 33.651C62.4835 33.651 62.1895 33.364 62.1895 33.007V32.916C62.1895 32.566 62.4765 32.279 62.8265 32.279H64.6605V30.7599C64.6605 30.4239 64.9335 30.1439 65.2765 30.1439C65.6195 30.1439 65.8925 30.4169 65.8925 30.7599V32.237C66.2215 32.237 66.5365 32.223 66.8655 32.223V30.7599C66.8655 30.4239 67.1385 30.1439 67.4815 30.1439C67.8245 30.1439 68.0976 30.4169 68.0976 30.7599V32.279C69.6656 32.412 70.9256 32.93 71.0516 34.477V34.463ZM69.3366 39.0621C69.3366 37.396 66.7395 37.641 65.9065 37.641V40.4901C66.7325 40.4901 69.3366 40.6861 69.3366 39.0691V39.0621ZM68.7836 35.051C68.7836 33.525 66.6135 33.749 65.9135 33.749V36.339C66.6135 36.339 68.7836 36.507 68.7836 35.051Z" fill="white"/>
<path d="M38.032 39.9301L48.7842 43.6752C48.7842 43.6752 50.2332 44.8862 48.7842 46.3352C47.3351 47.7842 44.5561 47.7842 43.4711 47.3012C42.3861 46.8182 40.209 46.4542 39.362 46.3352C38.515 46.2162 35.6169 48.3863 33.4399 48.3863C31.2629 48.3863 30.1779 47.9032 30.1779 47.9032" fill="white"/>
<path d="M38.032 39.9301L48.7842 43.6752C48.7842 43.6752 50.2332 44.8862 48.7842 46.3352C47.3351 47.7842 44.5561 47.7842 43.4711 47.3012C42.3861 46.8182 40.209 46.4542 39.362 46.3352C38.515 46.2162 35.6169 48.3863 33.4399 48.3863C31.2629 48.3863 30.1779 47.9032 30.1779 47.9032" stroke="black" stroke-width="0.5" stroke-linecap="round" stroke-linejoin="round"/>
<path d="M20.2658 52.2853C20.1888 46.2722 20.1888 43.2621 20.2658 37.249C23.0728 37.109 24.4798 37.109 27.2869 37.249C27.3639 43.2621 27.3639 46.2722 27.2869 52.2853C24.4798 52.4253 23.0728 52.4253 20.2658 52.2853Z" fill="#4169E1" stroke="black" stroke-width="0.5" stroke-linecap="round" stroke-linejoin="round"/>
<path d="M81.1737 58.9284C81.2507 64.9415 81.2507 67.9515 81.1737 73.9646C78.3666 74.1046 76.9596 74.1046 74.1526 73.9646C74.0756 67.9515 74.0826 64.9415 74.1526 58.9284C76.9596 58.7884 78.3666 58.7884 81.1737 58.9284Z" fill="#FF9500" stroke="black" stroke-width="0.5" stroke-linecap="round" stroke-linejoin="round"/>
<path d="M63.4005 71.2766L52.6483 67.5315C52.6483 67.5315 51.1993 66.3205 52.6483 64.8715C54.0973 63.4224 56.8764 63.4224 57.9614 63.9055C59.0464 64.3885 61.2234 64.7525 62.0704 64.8715C62.9174 64.9905 65.8155 62.8204 67.9925 62.8204C70.1696 62.8204 71.2546 63.3034 71.2546 63.3034" fill="white"/>
<path d="M63.4005 71.2766L52.6483 67.5315C52.6483 67.5315 51.1993 66.3205 52.6483 64.8715C54.0973 63.4224 56.8764 63.4224 57.9614 63.9055C59.0464 64.3885 61.2234 64.7525 62.0704 64.8715C62.9174 64.9905 65.8155 62.8204 67.9925 62.8204C70.1696 62.8204 71.2546 63.3034 71.2546 63.3034" stroke="black" stroke-width="0.5" stroke-linecap="round" stroke-linejoin="round"/>
<path d="M35.5329 46.1952C37.045 46.1952 38.27 44.7601 38.27 42.9961C38.27 41.2321 37.045 39.7971 35.5329 39.7971C34.0209 39.7971 32.7959 41.2321 32.7959 42.9961C32.7959 44.7601 34.0209 46.1952 35.5329 46.1952Z" fill="white" stroke="white" stroke-width="0.5" stroke-linecap="round" stroke-linejoin="round"/>
<path d="M67.6355 71.8996C69.1475 71.8996 70.3725 70.4646 70.3725 68.7006C70.3725 66.9365 69.1475 65.5015 67.6355 65.5015C66.1235 65.5015 64.8984 66.9365 64.8984 68.7006C64.8984 70.4646 66.1235 71.8996 67.6355 71.8996Z" fill="white" stroke="white" stroke-width="0.5" stroke-linecap="round" stroke-linejoin="round"/>
</g>
<defs>
<clipPath id="clip0_18011_7443">
<rect width="62" height="62" fill="white" transform="translate(20 20)"/>
</clipPath>
</defs>
</svg>
