<svg width="102" height="102" viewBox="0 0 102 102" fill="none" xmlns="http://www.w3.org/2000/svg">
<rect x="0.5" y="0.5" width="101" height="101" rx="4.5" stroke="#9747FF" stroke-dasharray="10 5"/>
<path d="M36.5553 79.0995C36.604 80.1643 37.4831 81 38.549 81H73.3406C74.4068 81 75.286 80.1639 75.3344 79.0988C75.6762 71.5655 75.8537 63.6919 75.8192 55.5058C75.7876 48.064 75.5838 40.8878 75.2443 33.9974H36.6461C36.2714 41.5067 36.0583 49.3788 36.0606 57.5864C36.0617 65.0409 36.2403 72.2192 36.5553 79.0995Z" fill="#4169E1" stroke="#1C1C1C" stroke-width="0.5" stroke-miterlimit="10" stroke-linejoin="round"/>
<path d="M28.6088 79.0994C28.6575 80.1642 29.5366 80.9999 30.6025 80.9999H65.3941C66.4604 80.9999 67.3395 80.1638 67.3879 79.0987C67.7297 71.5655 67.9073 63.6918 67.8727 55.5057C67.8411 48.064 67.6374 40.8878 67.2978 33.9973H28.6996C28.3249 41.5066 28.1118 49.3787 28.1141 57.5864C28.1152 65.0408 28.2939 72.2191 28.6088 79.0994Z" fill="#CCD9FD" stroke="#1C1C1C" stroke-width="0.5" stroke-miterlimit="10" stroke-linejoin="round"/>
<path d="M35.4026 75.0313C35.5097 75.3993 35.8463 75.6441 36.2286 75.6732C40.0375 75.9628 44.134 76.135 48.4851 76.1271C52.6115 76.1193 56.5055 75.9504 60.1396 75.6736C60.5238 75.6443 60.8616 75.3969 60.9677 75.0266C61.1355 74.4405 61.2799 73.6598 61.2446 72.7435C61.2186 72.0778 61.1039 71.499 60.9696 71.0306C60.8628 70.6583 60.5217 70.4113 60.1353 70.3847C56.5348 70.1374 52.712 69.9876 48.6865 69.9753C44.2896 69.9629 40.1296 70.1169 36.2347 70.3847C35.8487 70.4113 35.5077 70.658 35.4001 71.0297C35.253 71.5377 35.1248 72.1888 35.1168 72.9487C35.1077 73.7818 35.2452 74.491 35.4026 75.0313Z" fill="#4169E1" stroke="#1C1C1C" stroke-width="0.5" stroke-miterlimit="10" stroke-linejoin="round"/>
<path d="M38.5221 73.0537H57.584" stroke="#1C1C1C" stroke-width="0.5" stroke-miterlimit="10" stroke-linecap="round" stroke-linejoin="round"/>
<path d="M35.3504 63.8635C35.3872 64.3436 35.763 64.7276 36.2423 64.7738C39.6849 65.1054 43.4354 65.32 47.4566 65.3375C51.8944 65.3574 56.0105 65.1348 59.7548 64.7739C60.2342 64.7277 60.6101 64.3433 60.6468 63.863C60.9736 59.5764 61.1555 54.9403 61.106 49.9988C61.0693 46.2541 60.9027 42.6953 60.647 39.3412C60.6103 38.8594 60.2322 38.4745 59.7511 38.43C56.1844 38.0999 52.2918 37.8916 48.1182 37.8883C43.8518 37.8839 39.8804 38.0943 36.2461 38.4301C35.7651 38.4746 35.3871 38.8592 35.3501 39.3409C35.0689 43.0061 34.894 46.9354 34.881 51.1002C34.8667 55.6423 35.0468 59.908 35.3504 63.8635Z" fill="#4169E1" stroke="#1C1C1C" stroke-width="0.5" stroke-miterlimit="10" stroke-linejoin="round"/>
<path d="M39.2561 50.7925C39.2561 51.3447 39.7038 51.7923 40.2561 51.7923H55.8508C56.4031 51.7923 56.8508 51.3446 56.8508 50.7923V42.8856C56.8508 42.3733 56.4639 41.9432 55.9538 41.8957C53.6105 41.6774 51.055 41.5371 48.3134 41.5286C45.3718 41.52 42.6408 41.664 40.1523 41.8958C39.6422 41.9433 39.2552 42.3734 39.2553 42.8858L39.2561 50.7925Z" fill="#CCD9FD" stroke="#1C1C1C" stroke-width="0.5" stroke-miterlimit="10" stroke-linejoin="round"/>
<path d="M33.4212 32.4174C33.5381 33.3443 34.3121 34.0331 35.2458 34.0647C43.4566 34.3422 66.525 34.3519 74.8838 34.0656C75.8195 34.0335 76.5966 33.3417 76.7118 32.4125C76.9022 30.8774 77.0223 29.1416 76.9965 27.2409C76.977 25.7414 76.8693 24.3523 76.713 23.0915C76.597 22.1563 75.8081 21.4618 74.8666 21.4217C68.6013 21.1545 62.0953 21.0045 55.365 21.0001C48.4213 20.9957 41.715 21.1469 35.2645 21.4219C34.3248 21.4619 33.5368 22.1538 33.4196 23.087C33.2493 24.4426 33.1347 25.9577 33.128 27.6072C33.1213 29.3713 33.2405 30.9851 33.4212 32.4174Z" fill="#FF9500" stroke="#1C1C1C" stroke-width="0.5" stroke-miterlimit="10" stroke-linejoin="round"/>
<path d="M26.4691 32.4174C26.586 33.3443 27.36 34.0331 28.2936 34.0647C36.5045 34.3422 59.5728 34.3519 67.9316 34.0656C68.8673 34.0335 69.6445 33.3417 69.7597 32.4125C69.9501 30.8774 70.0702 29.1416 70.0444 27.2409C70.0249 25.7414 69.9171 24.3523 69.7608 23.0915C69.6449 22.1563 68.856 21.4618 67.9145 21.4217C61.6492 21.1545 55.1432 21.0045 48.4128 21.0001C41.4691 20.9957 34.7628 21.1469 28.3124 21.4219C27.3726 21.4619 26.5847 22.1538 26.4674 23.087C26.2972 24.4426 26.1825 25.9577 26.1759 27.6072C26.1691 29.3713 26.2884 30.9851 26.4691 32.4174Z" fill="#FAF2E8" stroke="#1C1C1C" stroke-width="0.5" stroke-miterlimit="10" stroke-linejoin="round"/>
<path d="M40.8018 23.6826C41.0215 23.6826 41.2158 23.7284 41.3858 23.8174C41.5576 23.9073 41.6775 24.0272 41.7715 24.1572C41.8635 24.2844 41.9335 24.4248 41.9913 24.5635C42.0445 24.6912 42.114 24.8598 42.1915 25.0732L43.9073 29.2656L44.001 29.499C44.0827 29.7222 44.127 29.9134 44.127 30.0615C44.127 30.2821 44.0316 30.4879 43.8614 30.6562C43.6837 30.8319 43.4667 30.9179 43.2256 30.918C43.0941 30.918 42.9677 30.8991 42.8458 30.8389C42.7325 30.7828 42.6466 30.7062 42.5782 30.6289C42.4954 30.5354 42.4283 30.4049 42.3712 30.2598C42.3208 30.1318 42.2712 30.0243 42.2247 29.9248C42.2144 29.9028 42.2077 29.8798 42.2042 29.8564L41.9727 29.251H39.6417L39.3878 29.9229C39.2642 30.2509 39.1467 30.4989 39.0401 30.6426C38.8926 30.8413 38.6571 30.9179 38.4102 30.918C38.1731 30.918 37.9676 30.8294 37.795 30.6689C37.6203 30.5065 37.5235 30.3063 37.5235 30.0771C37.5235 29.9576 37.5442 29.8398 37.5831 29.7246C37.6139 29.6334 37.6616 29.4911 37.7335 29.3174L39.418 25.0859C39.4641 24.9646 39.5309 24.8073 39.5958 24.6436C39.6692 24.4582 39.7463 24.3048 39.836 24.1719C39.9352 24.0248 40.0646 23.9071 40.2208 23.8203C40.3871 23.7278 40.5838 23.6827 40.8018 23.6826ZM40.1856 27.7666H41.4327L40.8038 26.0615L40.1856 27.7666Z" fill="#1C1C1C" stroke="#1C1C1C" stroke-width="0.5" stroke-linejoin="round"/>
<path d="M48.7003 23.7961C48.9657 23.7961 49.2012 23.8574 49.377 24.008C49.5564 24.1618 49.6329 24.3731 49.6329 24.592C49.6328 24.8107 49.5562 25.0212 49.377 25.175C49.2012 25.3255 48.9657 25.3869 48.7003 25.3869H47.4932V29.8644C47.4932 30.1668 47.4262 30.4474 47.2403 30.6427C47.068 30.8237 46.8404 30.9181 46.584 30.9181C46.3308 30.9181 46.0944 30.8258 45.92 30.6427C45.734 30.4474 45.6671 30.1669 45.6671 29.8644V25.3869H44.46C44.1978 25.3869 43.9569 25.3274 43.7852 25.1701C43.6264 25.0244 43.5353 24.8286 43.5352 24.592C43.5352 24.358 43.6243 24.1497 43.7989 24.0002C43.9779 23.8469 44.2161 23.7961 44.46 23.7961H48.7003Z" fill="#1C1C1C" stroke="#1C1C1C" stroke-width="0.5" stroke-linejoin="round"/>
<path d="M51.7288 23.7961C51.9802 23.7961 52.2044 23.8183 52.3655 23.882C52.546 23.9535 52.6651 24.0772 52.7493 24.2433C52.8245 24.3921 52.884 24.6011 52.9514 24.8527L53.6682 27.5217L54.386 24.8527C54.4552 24.5944 54.5211 24.3859 54.5852 24.2502C54.6636 24.0842 54.7932 23.9528 54.9719 23.882C55.1327 23.8185 55.3489 23.7961 55.6086 23.7961H56.0227C56.3065 23.7961 56.5684 23.8549 56.7688 23.9904C57.0152 24.1571 57.1008 24.4511 57.1008 24.7736V29.925C57.1008 30.2077 57.0401 30.4602 56.8684 30.6525C56.7001 30.8409 56.4832 30.925 56.2297 30.925C55.988 30.925 55.7719 30.8386 55.6057 30.6525C55.4341 30.4603 55.3743 30.2076 55.3743 29.925V27.4211L54.8079 29.6388C54.7398 29.9079 54.6831 30.119 54.6311 30.256C54.5722 30.4113 54.4722 30.5693 54.3215 30.6984C54.1546 30.8412 53.9333 30.9181 53.676 30.9181C53.4932 30.9181 53.3038 30.882 53.1438 30.7804C53.0071 30.6936 52.8919 30.5821 52.8079 30.4367C52.7348 30.3104 52.68 30.1754 52.6438 30.0324C52.6194 29.936 52.589 29.8291 52.5579 29.7179C52.5417 29.6943 52.5292 29.6678 52.5217 29.6388L51.9553 27.4211V29.925C51.9553 30.2076 51.8955 30.4603 51.7239 30.6525C51.5566 30.8398 51.3397 30.925 51.092 30.925C50.8474 30.9249 50.6295 30.8417 50.468 30.6593C50.3062 30.4766 50.2366 30.2188 50.2366 29.9328V24.7736C50.2366 24.4511 50.3221 24.1571 50.5686 23.9904C50.7691 23.8549 51.0309 23.7961 51.3147 23.7961H51.7288Z" fill="#1C1C1C" stroke="#1C1C1C" stroke-width="0.5" stroke-linejoin="round"/>
<path d="M46.5112 57.1037C46.4587 56.664 46.0951 56.3343 45.6537 56.2994C44.7307 56.2265 43.7315 56.1847 42.6653 56.1921C41.7911 56.1987 40.9637 56.2376 40.1885 56.2989C39.7455 56.3339 39.3813 56.6661 39.3299 57.1075C39.2811 57.5271 39.2513 57.9915 39.2563 58.4939C39.2605 58.9145 39.2884 59.3069 39.3305 59.6674C39.3817 60.1062 39.7423 60.4373 40.1826 60.4746C41.0272 60.546 41.9431 60.5901 42.9212 60.5901C43.899 60.5901 44.8149 60.5459 45.6591 60.4744C46.098 60.4372 46.458 60.1079 46.5105 59.6707C46.5524 59.3212 46.5807 58.9415 46.5862 58.5349C46.5935 58.0147 46.5626 57.5351 46.5112 57.1037Z" fill="#CCD9FD" stroke="#1C1C1C" stroke-width="0.5" stroke-miterlimit="10" stroke-linejoin="round"/>
<path d="M56.7542 57.0544C56.6935 56.6385 56.3499 56.3279 55.9315 56.2877C55.3726 56.2341 54.7627 56.1982 54.1082 56.1921C53.3075 56.1847 52.569 56.2239 51.9053 56.2877C51.4869 56.3279 51.1433 56.6385 51.0826 57.0545C51.0199 57.4847 50.9803 57.9675 50.9862 58.4939C50.9913 58.9382 51.0284 59.3496 51.0833 59.7226C51.1439 60.1348 51.4827 60.4438 51.8971 60.4866C52.5183 60.5506 53.2119 60.592 53.9659 60.5901C54.6823 60.5882 55.3434 60.5477 55.9387 60.4864C56.3532 60.4437 56.692 60.1347 56.7528 59.7225C56.8093 59.3388 56.8472 58.9136 56.8505 58.4529C56.8544 57.942 56.8153 57.473 56.7542 57.0544Z" fill="#CCD9FD" stroke="#1C1C1C" stroke-width="0.5" stroke-miterlimit="10" stroke-linejoin="round"/>
</svg>
