<svg width="62" height="62" viewBox="0 0 62 62" fill="none" xmlns="http://www.w3.org/2000/svg">
<g clip-path="url(#clip0_18011_4770)">
<path d="M51.6389 34.34C51.6389 45.4739 42.5885 54.5 31.4239 54.5C20.2594 54.5 10.4077 44.7273 10.4077 33.5933C9.32365 14.8107 20.2594 14.1799 31.4239 14.1799C42.5885 14.1799 52.252 15.1552 51.6389 34.34Z" fill="#F5AC37" stroke="#1C1C1C" stroke-width="0.5" stroke-miterlimit="10"/>
<path d="M30.9477 50.3974C42.3326 50.3974 51.5619 40.9064 51.5619 29.1987C51.5619 17.491 42.3326 8 30.9477 8C19.5627 8 10.3334 17.491 10.3334 29.1987C10.3334 40.9064 19.5627 50.3974 30.9477 50.3974Z" fill="#FDEBCE" stroke="#1C1C1C" stroke-width="0.5" stroke-miterlimit="10"/>
<path d="M31.0003 45.6186C39.9684 45.6186 47.2384 38.2641 47.2384 29.1919C47.2384 20.1197 39.9684 12.7652 31.0003 12.7652C22.0322 12.7652 14.7622 20.1197 14.7622 29.1919C14.7622 38.2641 22.0322 45.6186 31.0003 45.6186Z" fill="#F5AC37" stroke="#1C1C1C" stroke-width="0.5" stroke-miterlimit="10"/>
<path d="M31.4174 30.2683H37.5206C37.6507 30.2683 37.7122 30.2683 37.7216 30.1155C37.7714 29.5593 37.7714 28.9999 37.7216 28.443C37.7216 28.3349 37.6616 28.2902 37.5307 28.2902H25.3843C25.2339 28.2902 25.1935 28.3349 25.1935 28.4611V30.0617C25.1935 30.2683 25.1935 30.2683 25.4341 30.2683H31.4174ZM37.04 26.4196C37.0573 26.3788 37.0573 26.3341 37.04 26.294C36.9381 26.0952 36.8174 25.9055 36.6771 25.7274C36.4661 25.4231 36.2174 25.1427 35.9341 24.8909C35.8004 24.7387 35.6457 24.6021 35.4722 24.4862C34.6035 23.8238 33.5706 23.355 32.4604 23.1193C31.9002 23.0067 31.3278 22.9529 30.7539 22.9574H25.3633C25.213 22.9574 25.1927 23.0112 25.1927 23.1284V26.3205C25.1927 26.4552 25.1927 26.4915 25.3835 26.4915H36.9677C36.9677 26.4915 37.0682 26.4733 37.0884 26.4196H37.0392H37.04ZM37.04 32.1389C36.8694 32.1221 36.6974 32.1221 36.5268 32.1389H25.3944C25.2441 32.1389 25.1935 32.1389 25.1935 32.3189V35.4398C25.1935 35.5836 25.1935 35.6198 25.3944 35.6198H30.5341C30.7799 35.6367 31.0256 35.6211 31.2663 35.5752C32.0123 35.5272 32.7459 35.3822 33.4455 35.1433C33.7 35.0643 33.9457 34.9613 34.1777 34.8377H34.2478C35.4527 34.2763 36.4314 33.3944 37.0486 32.3118C37.0486 32.3118 37.1188 32.1758 37.04 32.1402V32.1389ZM23.1762 37.2379V37.1842V35.0889V34.3786V32.2652C23.1762 32.148 23.1762 32.1305 23.0157 32.1305H20.8372C20.7165 32.1305 20.6666 32.1305 20.6666 31.9867V30.278H22.9955C23.1256 30.278 23.1762 30.278 23.1762 30.1252V28.4346C23.1762 28.3265 23.1762 28.2999 23.0157 28.2999H20.8372C20.7165 28.2999 20.6666 28.2999 20.6666 28.1562V26.5737C20.6666 26.4746 20.6666 26.4481 20.8271 26.4481H22.9853C23.1357 26.4481 23.1762 26.4481 23.1762 26.2771V21.43C23.1762 21.2863 23.1762 21.25 23.3771 21.25H30.9057C31.4521 21.2694 31.9949 21.3232 32.5319 21.4119C33.6385 21.5951 34.7017 21.9493 35.6739 22.455C36.3186 22.7949 36.912 23.2054 37.4404 23.6781C37.8379 24.0478 38.1964 24.448 38.5145 24.874C38.8303 25.3059 39.0927 25.7676 39.2987 26.2499C39.324 26.3756 39.4584 26.4604 39.5986 26.439H41.3955C41.6261 26.439 41.6261 26.439 41.6362 26.6372V28.1121C41.6362 28.2559 41.5762 28.2921 41.415 28.2921H40.0294C39.8892 28.2921 39.8487 28.2921 39.8589 28.454C39.9138 29.0018 39.9138 29.5515 39.8589 30.0993C39.8589 30.2521 39.8589 30.2702 40.0504 30.2702H41.6355C41.7056 30.3512 41.6355 30.4321 41.6355 30.5137C41.6456 30.6179 41.6456 30.7235 41.6355 30.8277V31.9162C41.6355 32.069 41.5856 32.1143 41.4345 32.1143H39.5372C39.4049 32.0916 39.2763 32.1674 39.2459 32.2852C38.7942 33.3374 38.0714 34.2808 37.1375 35.0371C36.7964 35.3123 36.4379 35.5713 36.0635 35.8102C35.6616 36.0174 35.2706 36.233 34.8586 36.4039C34.1004 36.7096 33.3053 36.9349 32.4893 37.078C31.7145 37.2023 30.9288 37.2586 30.1402 37.2489H23.1733V37.2399L23.1762 37.2379Z" fill="#FEFEFD"/>
</g>
<defs>
<clipPath id="clip0_18011_4770">
<rect width="62" height="62" rx="5" fill="white"/>
</clipPath>
</defs>
</svg>
