<svg width="102" height="102" viewBox="0 0 102 102" fill="none" xmlns="http://www.w3.org/2000/svg">
<rect x="0.5" y="0.5" width="101" height="101" rx="4.5" stroke="#9747FF" stroke-dasharray="10 5"/>
<path d="M68.5971 58.1812C67.5592 56.8059 65.6477 56.434 64.1773 57.3335L52.345 64.5644C52.3017 65.2131 52.2585 65.8531 52.1979 66.5018C52.0163 68.5777 51.7568 70.6448 51.4973 72.712C51.4368 73.1704 51.3849 73.6375 51.333 74.0959C53.5559 72.9542 55.5279 71.6049 55.5279 71.6049L67.8446 62.921C69.3842 61.8312 69.7215 59.6861 68.5971 58.1812Z" fill="#E8EDFA" stroke="#1C1C1C" stroke-width="0.5" stroke-linejoin="round"/>
<path d="M73.4667 58.2331C72.4288 56.8578 70.5173 56.4859 69.0469 57.3855L57.2146 64.6163C57.1714 65.265 57.1281 65.9051 57.0676 66.5538C56.8859 68.6296 56.6265 70.6968 56.367 72.764C56.3064 73.2224 56.2545 73.6894 56.2026 74.1479C58.4255 73.0062 60.3976 71.6569 60.3976 71.6569L72.7142 62.9729C74.2538 61.8831 74.5911 59.7381 73.4667 58.2331Z" fill="#E8EDFA" stroke="#1C1C1C" stroke-width="0.5" stroke-linejoin="round"/>
<path d="M64.7308 71.6742C64.0302 72.1066 63.3036 72.4699 62.5338 72.7467C60.9337 73.3348 58.114 74.2949 56.0901 74.5198C42.1041 76.0853 37.2518 73.0148 37.2518 73.0148L32.832 72.8591V58.0774H35.9631C35.9631 58.0774 38.4973 56.14 41.3343 56.14H45.5033C47.6743 56.14 49.7761 56.9616 51.3675 58.432L60.1293 66.5192L73.0082 58.6483C74.3229 57.8439 76.0614 57.9563 77.1685 59.0375C78.7081 60.5425 78.4573 62.9902 76.7706 64.1838L64.7221 71.6828L64.7308 71.6742Z" fill="#E8EDFA" stroke="#1C1C1C" stroke-width="0.5" stroke-linejoin="round"/>
<path d="M23.0843 56.6677C22.9719 65.5852 22.9719 70.0482 23.0843 78.9657C27.2447 79.1733 29.3291 79.1733 33.4981 78.9657C33.6106 70.0482 33.6019 65.5852 33.4981 56.6677C29.3378 56.4601 27.2533 56.4601 23.0843 56.6677Z" fill="#4169E1" stroke="#1C1C1C" stroke-width="0.5" stroke-linecap="round" stroke-linejoin="round"/>
<path d="M46.2558 71.6656L59.5412 67.0382C59.5412 67.0382 61.3316 65.5418 59.5412 63.7514C57.7508 61.961 54.317 61.961 52.9763 62.5578C51.6357 63.1546 48.9458 63.6044 47.8992 63.7514C46.8526 63.8985 43.2718 61.2172 40.5819 61.2172C37.8919 61.2172 36.5513 61.814 36.5513 61.814" fill="#E8EDFA"/>
<path d="M49.3178 68.1367L59.55 67.0296C59.55 67.0296 61.3404 65.5332 59.55 63.7428C57.7596 61.9524 54.3258 61.9524 52.9851 62.5492C51.6445 63.146 48.9546 63.5958 47.908 63.7428C46.8614 63.8898 43.2806 61.2086 40.5906 61.2086C37.9007 61.2086 36.5601 61.8054 36.5601 61.8054" stroke="#1C1C1C" stroke-width="0.5" stroke-linecap="round" stroke-linejoin="round"/>
<path d="M71.858 44.8954C71.858 54.5736 63.9909 62.4195 54.2861 62.4195C44.5814 62.4195 36.0178 53.9246 36.0178 44.2464C35.0755 27.9197 44.5814 27.3714 54.2861 27.3714C63.9909 27.3714 72.3909 28.2191 71.858 44.8954Z" fill="#4169E1" stroke="#1C1C1C" stroke-width="0.5" stroke-miterlimit="10"/>
<path d="M53.872 58.8532C63.7684 58.8532 71.7909 50.6032 71.7909 40.4263C71.7909 30.2495 63.7684 21.9995 53.872 21.9995C43.9757 21.9995 35.9531 30.2495 35.9531 40.4263C35.9531 50.6032 43.9757 58.8532 53.872 58.8532Z" fill="#CCD9FD" stroke="#1C1C1C" stroke-width="0.5" stroke-miterlimit="10"/>
<path d="M53.9177 54.6993C61.7131 54.6993 68.0326 48.3064 68.0326 40.4205C68.0326 32.5345 61.7131 26.1416 53.9177 26.1416C46.1222 26.1416 39.8027 32.5345 39.8027 40.4205C39.8027 48.3064 46.1222 54.6993 53.9177 54.6993Z" fill="#4169E1" stroke="#1C1C1C" stroke-width="0.5" stroke-miterlimit="10"/>
<path d="M57.7318 42.4431C57.7318 40.4204 56.5181 39.7269 54.0908 39.4379C52.357 39.2067 52.0103 38.7444 52.0103 37.9352C52.0103 37.126 52.5882 36.606 53.7441 36.606C54.7843 36.606 55.3623 36.9528 55.6512 37.8197C55.7091 37.9931 55.8825 38.1086 56.0558 38.1086H56.9804C57.2116 38.1086 57.385 37.9352 57.385 37.7042V37.6463C57.1538 36.3748 56.1135 35.3924 54.7843 35.2768V33.8898C54.7843 33.6586 54.611 33.4852 54.322 33.4274H53.4551C53.2239 33.4274 53.0505 33.6007 52.9927 33.8898V35.219C51.2589 35.4502 50.1609 36.606 50.1609 38.0509C50.1609 39.9581 51.3167 40.7093 53.7441 40.9984C55.3623 41.2873 55.8825 41.634 55.8825 42.5588C55.8825 43.4835 55.0733 44.1192 53.9753 44.1192C52.4726 44.1192 51.9524 43.4834 51.779 42.6165C51.7213 42.3854 51.548 42.2697 51.3746 42.2697H50.392C50.1609 42.2697 49.9875 42.4431 49.9875 42.6743V42.7322C50.2186 44.1769 51.1434 45.2172 53.0505 45.5062V46.8933C53.0505 47.1243 53.2239 47.2977 53.5128 47.3556H54.3797C54.611 47.3556 54.7843 47.1822 54.8422 46.8933V45.5062C56.576 45.2172 57.7318 44.0035 57.7318 42.4431Z" fill="white"/>
<path d="M50.9701 48.5114C46.4622 46.8933 44.1505 41.8653 45.8266 37.4151C46.6935 34.9878 48.6006 33.1385 50.9701 32.2716C51.2013 32.156 51.3169 31.9827 51.3169 31.6936V30.8845C51.3169 30.6533 51.2013 30.4799 50.9701 30.4222C50.9123 30.4222 50.7967 30.4222 50.7389 30.4799C45.2486 32.2137 42.2433 38.0509 43.9771 43.5412C45.0174 46.7776 47.5025 49.2628 50.7389 50.303C50.9701 50.4186 51.2013 50.303 51.259 50.0718C51.3169 50.0141 51.3169 49.9563 51.3169 49.8407V49.0315C51.3169 48.8582 51.1435 48.6271 50.9701 48.5114ZM57.0962 30.4799C56.865 30.3644 56.6338 30.4799 56.5761 30.7112C56.5183 30.769 56.5183 30.8267 56.5183 30.9424V31.7514C56.5183 31.9827 56.6916 32.2137 56.865 32.3294C61.3729 33.9475 63.6846 38.9755 62.0086 43.4257C61.1417 45.853 59.2345 47.7023 56.865 48.5692C56.6338 48.6848 56.5183 48.8582 56.5183 49.1472V49.9563C56.5183 50.1875 56.6338 50.3609 56.865 50.4186C56.9228 50.4186 57.0384 50.4186 57.0962 50.3609C62.5865 48.6271 65.5918 42.7899 63.858 37.2996C62.8178 34.0054 60.2748 31.5202 57.0962 30.4799Z" fill="white"/>
</svg>
