<svg width="62" height="62" viewBox="0 0 62 62" fill="none" xmlns="http://www.w3.org/2000/svg">
<g clip-path="url(#clip0_18011_7839)">
<path d="M1.71973 19.4194C1.71973 16.1057 4.40602 13.4194 7.71973 13.4194H54.7197C58.0334 13.4194 60.7197 16.1057 60.7197 19.4194V55C60.7197 58.3137 58.0334 61 54.7197 61H7.71973C4.40602 61 1.71973 58.3137 1.71973 55V19.4194Z" fill="#4169E1" stroke="#1C1C1C" stroke-width="0.5" stroke-miterlimit="10" stroke-linejoin="round"/>
<path d="M1.71973 8.00001C1.71973 4.6863 4.40602 2 7.71973 2H54.7197C58.0334 2 60.7197 4.68629 60.7197 8V49.2903C60.7197 52.604 58.0334 55.2903 54.7197 55.2903H7.71973C4.40602 55.2903 1.71973 52.604 1.71973 49.2903V8.00001Z" fill="#E8EDFA" stroke="#1C1C1C" stroke-width="0.5" stroke-miterlimit="10" stroke-linejoin="round"/>
<path d="M6.95361 50.5323H55.4859" stroke="#4169E1" stroke-width="0.5" stroke-miterlimit="10" stroke-linecap="round" stroke-linejoin="round" stroke-dasharray="5 5"/>
<path d="M6.95361 21.9839H55.4859" stroke="#4169E1" stroke-width="0.5" stroke-miterlimit="10" stroke-linecap="round" stroke-linejoin="round" stroke-dasharray="5 5"/>
<path d="M6.95361 36.2581H55.4859" stroke="#4169E1" stroke-width="0.5" stroke-miterlimit="10" stroke-linecap="round" stroke-linejoin="round" stroke-dasharray="5 5"/>
<path d="M6.95361 7.70959H55.4859" stroke="#4169E1" stroke-width="0.5" stroke-miterlimit="10" stroke-linecap="round" stroke-linejoin="round" stroke-dasharray="5 5"/>
<path d="M55.2371 45.2408C55.0558 44.0731 54.8552 42.946 54.6405 41.8613C54.3894 40.5929 52.9861 40.0511 51.9572 40.8342C51.4747 41.2018 50.912 41.6999 50.3205 42.2642L50.3047 42.2801L38.2251 29.9011C37.4584 29.1154 36.2017 29.0945 35.4093 29.8544L30.5446 34.5199C29.7412 35.2903 28.4635 35.2566 27.7018 34.445L20.1899 26.4404C19.4723 25.6758 18.2862 25.5952 17.4718 26.2556L11.0552 31.4588C10.198 32.1539 10.0659 33.412 10.7599 34.27L11.2345 34.8567C11.9298 35.7163 13.1906 35.8486 14.0492 35.1523L17.0321 32.7331C17.8465 32.0726 19.0327 32.1533 19.7503 32.9179L27.524 41.2014C28.2856 42.013 29.5633 42.0467 30.3666 41.2764L35.2985 36.5471C36.0908 35.7873 37.3475 35.8082 38.1142 36.5938L47.0164 45.7165C46.3708 46.4423 45.825 47.085 45.4766 47.5234C44.7431 48.4475 45.2598 49.7753 46.4163 50.0088C47.4815 50.224 48.5843 50.4263 49.7234 50.6119C51.055 50.8292 52.3477 51.0093 53.5974 51.1573C54.8287 51.3031 55.8693 50.2751 55.7363 49.0423C55.6043 47.819 55.4399 46.5501 55.2362 45.2399L55.2371 45.2408Z" fill="#4169E1" stroke="#1C1C1C" stroke-width="0.5" stroke-miterlimit="10" stroke-linejoin="round"/>
<path d="M49.7287 8.04613C48.59 8.23179 47.4872 8.43445 46.4217 8.64972C45.266 8.88322 44.7487 10.2112 45.4819 11.1346C45.861 11.6132 46.4758 12.3342 47.1987 13.1402L45.4269 14.8331C44.6845 15.5424 43.5097 15.5227 42.7916 14.7889C42.0735 14.055 40.8987 14.0353 40.1563 14.7445L37.3202 17.4541C36.5244 18.2143 35.264 18.1888 34.4997 17.397L24.558 7.09866C23.8484 6.36363 22.6989 6.28156 21.8921 6.9083L8.05505 17.6573C7.1836 18.3342 7.02511 19.5891 7.70087 20.4615L8.16331 21.0585C8.84038 21.9325 10.0982 22.0914 10.9713 21.4132L21.4376 13.283C22.2444 12.6563 23.3938 12.7384 24.1034 13.4734L34.3646 24.1021C35.1289 24.8938 36.3893 24.9193 37.185 24.1591L40.0446 21.4272C40.7869 20.7179 41.9617 20.7377 42.6798 21.4715C43.3979 22.2054 44.5728 22.2251 45.3151 21.5158L50.501 16.5608C51.0282 17.0561 51.5275 17.4936 51.9616 17.8247C52.9905 18.6079 54.3938 18.0661 54.6449 16.7977C54.8596 15.713 55.0602 14.5859 55.2415 13.4182C55.4446 12.1085 55.6091 10.8398 55.7412 9.6169C55.8744 8.38373 54.8333 7.35545 53.6015 7.50129C52.3522 7.64922 51.0599 7.82887 49.7287 8.04613Z" fill="#FF9500" stroke="#1C1C1C" stroke-width="0.5" stroke-miterlimit="10" stroke-linejoin="round"/>
</g>
<defs>
<clipPath id="clip0_18011_7839">
<rect width="62" height="62" rx="5" fill="white"/>
</clipPath>
</defs>
</svg>
