<svg width="62" height="62" viewBox="0 0 62 62" fill="none" xmlns="http://www.w3.org/2000/svg">
<g clip-path="url(#clip0_18011_5345)">
<path d="M43.5979 19.9699C34.3347 20.1297 25.0716 20.1125 15.8084 19.9699C15.5402 14.3826 15.5288 11.5918 15.7285 6.00451C25.043 5.89608 34.3633 5.88466 43.6778 6.00451C43.8775 11.5918 43.8661 14.3826 43.5979 19.9699Z" fill="#FF9500" stroke="#1C1C1C" stroke-width="0.5" stroke-linejoin="round"/>
<path d="M43.6704 19.5022C34.3559 19.6221 25.0357 19.6106 15.7212 19.5022C15.5215 13.9149 15.5329 9.70083 15.8011 4.11355C25.0643 3.97087 34.3274 3.95375 43.5905 4.11355C43.8588 9.70083 43.8702 13.9149 43.6704 19.5022Z" fill="#B9E5DE" stroke="#1C1C1C" stroke-width="0.5" stroke-linejoin="round"/>
<path d="M39.0199 16.7078C32.7988 16.7307 26.5834 16.7307 20.3623 16.7078C20.3395 15.458 19.3121 14.4421 18.0565 14.4364C18.0337 12.0109 18.0394 10.801 18.085 8.37543C19.3407 8.36972 20.3737 7.34815 20.4022 6.09828C26.5948 6.06404 32.7874 6.06404 38.9799 6.09828C39.0084 7.34815 40.0415 8.36972 41.2971 8.37543C41.3428 10.801 41.3485 12.0109 41.3256 14.4364C40.07 14.4364 39.0427 15.458 39.0199 16.7078Z" fill="#2AA5A5" stroke="#1C1C1C" stroke-width="0.5" stroke-linejoin="round"/>
<path d="M29.6896 16.6253C32.542 16.6253 34.856 14.3114 34.856 11.4591C34.856 8.60685 32.542 6.29288 29.6896 6.29288C26.8372 6.29288 24.5232 8.60685 24.5232 11.4591C24.5232 14.3114 26.8372 16.6253 29.6896 16.6253Z" fill="#B9E5DE" stroke="#1C1C1C" stroke-width="0.5" stroke-linejoin="round"/>
<path d="M32.1022 10.008C32.1646 10.6055 31.9183 10.9699 31.5406 11.1734C32.1712 11.3343 32.5653 11.7249 32.4865 12.6048C32.388 13.698 31.6161 13.9967 30.5093 14.0624V14.8798C30.5093 15.0636 30.3615 15.2114 30.1776 15.2114C29.9937 15.2114 29.8459 15.0636 29.8459 14.8798V14.0788C29.6751 14.0788 29.4977 14.0788 29.3237 14.0722V14.8831C29.3237 15.0669 29.1759 15.2147 28.992 15.2147C28.808 15.2147 28.6602 15.0669 28.6602 14.8831V14.0656C28.5059 14.0656 28.3515 14.0591 28.1906 14.0591H27.8129C27.56 14.0591 27.3662 13.8326 27.4089 13.5831C27.4417 13.3828 27.6191 13.2384 27.8194 13.2384C27.9475 13.2384 27.9443 13.2351 27.9443 13.2351C28.1282 13.2351 28.1742 13.0972 28.1906 13.002V11.1898V9.88653C28.1676 9.74865 28.0756 9.57794 27.8063 9.57794C27.8063 9.57794 27.8063 9.57794 27.7012 9.57466C27.4976 9.57466 27.3301 9.41052 27.3301 9.20698C27.3301 9.00344 27.4943 8.84258 27.6946 8.84258H28.6635V8.03171C28.6635 7.84786 28.8113 7.70013 28.9952 7.70013C29.1792 7.70013 29.327 7.84786 29.327 8.03171V8.81631C29.5043 8.81631 29.6718 8.80975 29.8492 8.80975V8.03171C29.8492 7.84786 29.997 7.70013 30.1809 7.70013C30.3648 7.70013 30.5126 7.84786 30.5126 8.03171V8.84258C31.36 8.9148 32.0365 9.19056 32.1055 10.0146L32.1022 10.008ZM31.176 12.4669C31.176 11.5772 29.7736 11.7053 29.327 11.7053V13.2252C29.7736 13.2252 31.176 13.3303 31.176 12.4636V12.4669ZM30.8772 10.3232C30.8772 9.50572 29.7079 9.62719 29.3302 9.62719V11.0093C29.7079 11.0093 30.8772 11.0979 30.8772 10.3232Z" fill="#1C1C1C"/>
<path d="M26.6229 53.2287C26.6229 53.2287 38.4796 57.2232 41.0555 57.3501C43.6315 57.4771 49.306 52.8404 50.5902 52.9673C51.8744 53.0943 54.1965 52.9673 54.1965 52.9673V40.2072H51.4936C51.4936 40.2072 49.306 38.5347 46.857 38.5347H40.0252L14.7363 43.6791L26.6229 53.2287Z" fill="white" stroke="#1C1C1C" stroke-width="0.5" stroke-linecap="round" stroke-linejoin="round"/>
<path d="M11.342 25.3528C11.5063 23.5982 12.91 22.2243 14.6721 22.075C24.2889 21.2537 33.9056 21.2537 43.5149 22.075C45.277 22.2243 46.6733 23.5907 46.8599 25.3453C47.5916 32.5653 47.5916 39.7779 46.8599 46.998C46.6807 48.7526 45.277 50.119 43.5149 50.2683C33.928 51.0896 24.3411 51.0971 14.7467 50.2683C12.9548 50.1115 11.5362 48.7003 11.3868 46.9084C10.7522 39.4494 10.685 32.2443 11.342 25.3528Z" fill="#FF9500" stroke="#1C1C1C" stroke-width="0.5" stroke-linecap="round" stroke-linejoin="round"/>
<path d="M11.342 22.5643C11.5063 20.8096 12.91 19.4358 14.6721 19.2865C24.2889 18.4652 33.9056 18.4652 43.5149 19.2865C45.277 19.4358 46.6733 20.8022 46.8599 22.5568C47.5916 29.7768 47.5916 36.9894 46.8599 44.2095C46.6807 45.9641 45.277 47.3304 43.5149 47.4798C33.928 48.3011 24.3411 48.3085 14.7467 47.4798C12.9548 47.323 11.5362 45.9118 11.3868 44.1199C10.7522 36.6609 10.685 29.4558 11.342 22.5643Z" fill="#FFE2C8" stroke="#1C1C1C" stroke-width="0.5" stroke-linejoin="round"/>
<path d="M31.4635 34.208C31.5382 30.8257 34.4277 28.1378 37.81 28.0781C41.1923 28.0183 44.6418 28.1826 48.2033 28.5261C48.6886 31.871 48.5318 35.4325 48.4273 39.9572C48.4198 40.435 48.0465 40.8382 47.5687 40.883C44.3805 41.1593 41.2595 41.2638 38.1236 41.1891C34.4053 41.0995 31.3814 37.9562 31.4635 34.2155V34.208Z" fill="#FF9500" stroke="#1C1C1C" stroke-width="0.5" stroke-linecap="round" stroke-linejoin="round"/>
<path d="M31.4639 31.9742C31.546 28.5845 34.428 25.9115 37.8178 25.8144C41.2076 25.7173 44.2987 25.8144 47.5391 26.0981C48.0767 26.1429 48.4948 26.5909 48.5247 27.121C48.7711 31.6084 48.7636 33.0569 48.5844 38.5596C45.12 38.8956 41.6108 39.0225 38.1165 38.9404C34.3982 38.8508 31.3743 35.7 31.4639 31.9668V31.9742Z" fill="#FFE2C8" stroke="#1C1C1C" stroke-width="0.5" stroke-linejoin="round"/>
<path d="M37.5544 34.9128C39.2368 34.9128 40.6007 33.5489 40.6007 31.8665C40.6007 30.184 39.2368 28.8202 37.5544 28.8202C35.8719 28.8202 34.5081 30.184 34.5081 31.8665C34.5081 33.5489 35.8719 34.9128 37.5544 34.9128Z" fill="#FF9500" stroke="#1C1C1C" stroke-width="0.5" stroke-linecap="round" stroke-linejoin="round"/>
<path d="M61.5682 38.7662C61.6503 45.1799 61.6503 48.3905 61.5682 54.8041C58.5741 54.9535 57.0734 54.9535 54.0793 54.8041C53.9972 48.3905 54.0047 45.1799 54.0793 38.7662C57.0734 38.6169 58.5741 38.6169 61.5682 38.7662Z" fill="#4169E1" stroke="#1C1C1C" stroke-width="0.5" stroke-linecap="round" stroke-linejoin="round"/>
<path d="M42.5995 51.9365L31.131 47.9419C31.131 47.9419 29.5855 46.6502 31.131 45.1047C32.6766 43.5591 35.6407 43.5591 36.798 44.0743C37.9553 44.5895 40.2774 44.9777 41.1808 45.1047C42.0843 45.2316 45.1754 42.917 47.4974 42.917C49.8195 42.917 50.9768 43.4322 50.9768 43.4322" fill="white"/>
<path d="M42.5995 51.9365L31.131 47.9419C31.131 47.9419 29.5855 46.6502 31.131 45.1047C32.6766 43.5591 35.6407 43.5591 36.798 44.0743C37.9553 44.5895 40.2774 44.9777 41.1808 45.1047C42.0843 45.2316 45.1754 42.917 47.4974 42.917C49.8195 42.917 50.9768 43.4322 50.9768 43.4322" stroke="#1C1C1C" stroke-width="0.5" stroke-linecap="round" stroke-linejoin="round"/>
<path d="M47.1376 52.6044C48.75 52.6044 50.057 51.0767 50.057 49.1923C50.057 47.3078 48.75 45.7801 47.1376 45.7801C45.5253 45.7801 44.2183 47.3078 44.2183 49.1923C44.2183 51.0767 45.5253 52.6044 47.1376 52.6044Z" fill="white" stroke="white" stroke-width="0.5" stroke-linecap="round" stroke-linejoin="round"/>
<path d="M10.6163 35.9546C15.3749 35.9546 19.2325 32.097 19.2325 27.3383C19.2325 22.5797 15.3749 18.722 10.6163 18.722C5.85764 18.722 2 22.5797 2 27.3383C2 32.097 5.85764 35.9546 10.6163 35.9546Z" fill="#E8EDFA" stroke="#1C1C1C" stroke-width="0.5" stroke-linejoin="round"/>
<path d="M10.6163 33.5395C15.3749 33.5395 19.2325 29.6819 19.2325 24.9232C19.2325 20.1646 15.3749 16.3069 10.6163 16.3069C5.85764 16.3069 2 20.1646 2 24.9232C2 29.6819 5.85764 33.5395 10.6163 33.5395Z" fill="white" stroke="#1C1C1C" stroke-width="0.5" stroke-linejoin="round"/>
<path d="M15.2397 23.8576H14.6855C14.5826 23.4561 14.4217 23.08 14.2121 22.736L14.6105 22.3367C14.7181 22.2291 14.7772 22.0857 14.7772 21.9333C14.7772 21.781 14.7177 21.6375 14.6105 21.5302L13.9466 20.867C13.7313 20.6514 13.3549 20.6516 13.1405 20.8667L12.7252 21.2793C12.3851 21.0811 12.0204 20.9283 11.6186 20.83V20.237C11.6186 19.9225 11.3673 19.6641 11.053 19.6641H10.1144C9.79985 19.6641 9.5525 19.9227 9.5525 20.237V20.8299C9.15096 20.9279 8.78391 21.0809 8.44339 21.2793L8.02839 20.8667C7.81331 20.6511 7.43673 20.6514 7.221 20.8665L6.55747 21.5297C6.4511 21.6359 6.39034 21.7828 6.39034 21.9328C6.39034 22.0828 6.44927 22.2281 6.55707 22.3358L6.95548 22.736C6.74602 23.08 6.58504 23.4561 6.48233 23.8576H5.92804C5.61339 23.8576 5.35938 24.1104 5.35938 24.4241V25.362C5.35938 25.6767 5.61339 25.9239 5.92804 25.9239H6.48233C6.58517 26.3254 6.74589 26.7038 6.95509 27.0478L6.55668 27.4487C6.44888 27.5563 6.38982 27.7002 6.38982 27.8526C6.38982 28.0049 6.44914 28.1488 6.55668 28.2565L7.22061 28.9202C7.32841 29.0278 7.47136 29.087 7.62358 29.087C7.77581 29.087 7.91889 29.0276 8.02669 28.9202L8.44352 28.5073C8.78417 28.7058 9.15109 28.8587 9.55263 28.9571V29.5491C9.55263 29.8636 9.79998 30.1171 10.1145 30.1171H11.0531C11.3676 30.1171 11.6187 29.8636 11.6187 29.5491V28.9568C12.0206 28.8586 12.3852 28.7058 12.7259 28.5073L13.1391 28.9193C13.2469 29.0274 13.3901 29.0864 13.5427 29.0864C13.6953 29.0864 13.8385 29.0271 13.9461 28.9197L14.61 28.2565C14.7175 28.1492 14.7765 28.0057 14.7769 27.8535C14.7769 27.7012 14.7173 27.5582 14.61 27.4504L14.2121 27.048C14.4213 26.7037 14.582 26.3251 14.6851 25.924H15.2394C15.5539 25.924 15.8124 25.6768 15.8124 25.3622V24.4243C15.8127 24.1105 15.5543 23.8577 15.2398 23.8577L15.2397 23.8576ZM10.5833 26.6786C9.58791 26.6786 8.78065 25.8789 8.78065 24.8932C8.78065 23.9075 9.58791 23.1084 10.5833 23.1084C11.5788 23.1084 12.3867 23.9068 12.3867 24.8932C12.3864 25.8791 11.579 26.6786 10.5833 26.6786Z" fill="#1C1C1C"/>
</g>
<defs>
<clipPath id="clip0_18011_5345">
<rect width="62" height="62" rx="5" fill="white"/>
</clipPath>
</defs>
</svg>
