<svg width="62" height="62" viewBox="0 0 62 62" fill="none" xmlns="http://www.w3.org/2000/svg">
<g clip-path="url(#clip0_18011_7356)">
<g clip-path="url(#clip1_18011_7356)">
<path d="M39.1539 7.64062C37.6554 8.84252 36.147 10.0344 34.5703 11.1292L54.5445 32.2944C55.2322 31.9332 56.1485 31.3553 57.061 30.4561C57.8195 29.7075 58.3497 28.959 58.7085 28.3599C52.4115 21.653 45.4509 14.3488 39.1539 7.64062Z" fill="#4169E1" stroke="#1C1C1C" stroke-width="0.5" stroke-miterlimit="10" stroke-linejoin="round"/>
<path d="M38.1227 6.5625C36.6242 7.76439 35.1158 8.95632 33.5391 10.0511L52.8494 30.619C53.5149 30.2416 54.3516 29.6824 55.2021 28.8728C56.0215 28.0919 56.6075 27.3135 57.0134 26.6845C50.7165 19.9776 44.4196 13.2707 38.1227 6.5625Z" fill="#CCD9FD" stroke="#1C1C1C" stroke-width="0.5" stroke-miterlimit="10" stroke-linejoin="round"/>
<path d="M31.3253 14.7109C30.1571 16.2367 28.9168 17.7063 27.5859 19.0901L47.0389 39.3467C47.6956 39.0004 48.5746 38.4474 49.4548 37.5843C50.2668 36.7884 50.8118 35.9901 51.1681 35.3761L31.3253 14.7109Z" fill="#4169E1" stroke="#1C1C1C" stroke-width="0.5" stroke-miterlimit="10" stroke-linejoin="round"/>
<path d="M39.9264 45.8147C39.9264 46.3669 39.4787 46.8147 38.9264 46.8147H1.23153C0.730828 46.8147 0.305169 46.4446 0.255034 45.9464C0.168174 45.0833 0.116122 44.1319 0.126253 43.1044C0.137427 41.9236 0.229298 40.8475 0.357173 39.896H39.9264V45.8147Z" fill="#FF9500" stroke="#1C1C1C" stroke-width="0.5" stroke-miterlimit="10" stroke-linejoin="round"/>
<path d="M39.929 44.6516H1.20819C0.71877 44.6516 0.298155 44.2977 0.241911 43.8115C0.172841 43.2145 0.12759 42.5552 0.125099 41.843C0.122565 41.0837 0.16889 40.3832 0.24178 39.7532C0.298013 39.2672 0.718516 38.9136 1.20774 38.9136H39.929V44.6528V44.6516Z" fill="#FFE2C8" stroke="#1C1C1C" stroke-width="0.5" stroke-miterlimit="10" stroke-linejoin="round"/>
<path d="M39.9992 57.1262C39.9091 57.5717 39.5079 57.8771 39.0534 57.8768L1.11655 57.8488C0.621638 57.8484 0.19908 57.4863 0.144198 56.9945C0.0461548 56.1158 -0.0125674 55.1344 0.00228529 54.0681C0.0184249 52.9086 0.118987 51.8586 0.255552 50.9395H39.8248C40.0371 51.7428 40.2295 52.774 40.2668 53.9809C40.3036 55.1888 40.1738 56.2622 39.9992 57.1262Z" fill="#FF9500" stroke="#1C1C1C" stroke-width="0.5" stroke-miterlimit="10" stroke-linejoin="round"/>
<path d="M40.1204 55.1271C40.0211 55.5517 39.63 55.8331 39.1939 55.8331H1.19292C0.709091 55.8331 0.291242 55.4871 0.230235 55.0071C0.161169 54.4638 0.113555 53.867 0.103852 53.2238C0.0899483 52.3773 0.144171 51.6052 0.230756 50.9226C0.291713 50.442 0.709873 50.0952 1.19433 50.0952H39.1934C39.6297 50.0952 40.0209 50.3767 40.1202 50.8016C40.2681 51.4346 40.385 52.2261 40.3684 53.1366C40.3548 53.8999 40.2506 54.5709 40.1204 55.1271Z" fill="#FFE2C8" stroke="#1C1C1C" stroke-width="0.5" stroke-miterlimit="10" stroke-linejoin="round"/>
<path d="M14.6941 35.6393H1.2278C0.729241 35.6393 0.304626 35.2724 0.252629 34.7765C0.15285 33.825 0.0972971 32.7652 0.123759 31.6152C0.147348 30.5652 0.236736 29.6012 0.358404 28.7356H14.6941V35.6393Z" fill="#FF9500" stroke="#1C1C1C" stroke-width="0.5" stroke-miterlimit="10" stroke-linejoin="round"/>
<path d="M14.6952 33.4743H1.20797C0.718552 33.4743 0.297976 33.1204 0.241912 32.6342C0.171974 32.0277 0.126558 31.3562 0.124889 30.6296C0.124049 29.8839 0.170367 29.1964 0.241935 28.577C0.298144 28.0906 0.718903 27.7363 1.20859 27.7363H14.6952V33.4755V33.4743Z" fill="#FFE2C8" stroke="#1C1C1C" stroke-width="0.5" stroke-miterlimit="10" stroke-linejoin="round"/>
<path d="M24.2918 24.4599H1.20223C0.715793 24.4599 0.297242 24.1103 0.234138 23.628C0.111824 22.6931 0.0378404 21.6219 0.0700376 20.442C0.0998337 19.3621 0.214052 18.3894 0.36055 17.5425H24.2906V24.4611L24.2918 24.4599Z" fill="#FF9500" stroke="#1C1C1C" stroke-width="0.5" stroke-miterlimit="10" stroke-linejoin="round"/>
<path d="M24.2928 22.2965H1.17827C0.702997 22.2965 0.289609 21.9626 0.221065 21.4923C0.133512 20.8915 0.0727584 20.2087 0.0710789 19.4581C0.0693859 18.6828 0.131176 17.9793 0.221036 17.363C0.289611 16.8926 0.703029 16.5586 1.17833 16.5586H24.2916V22.2978L24.2928 22.2965Z" fill="#FFE2C8" stroke="#1C1C1C" stroke-width="0.5" stroke-miterlimit="10" stroke-linejoin="round"/>
<path d="M35.3694 13.2833H1.22496C0.728954 13.2833 0.305583 12.9201 0.251399 12.427C0.162043 11.6139 0.105783 10.7125 0.109419 9.73496C0.114385 8.47453 0.218672 7.34114 0.361445 6.36469H35.3682V13.2821L35.3694 13.2833Z" fill="#FF9500" stroke="#1C1C1C" stroke-width="0.5" stroke-miterlimit="10" stroke-linejoin="round"/>
<path d="M35.3688 11.1188C35.3693 11.1193 35.3689 11.12 35.3683 11.12H1.1963C0.713183 11.12 0.295709 10.775 0.233724 10.2959C0.161014 9.73389 0.110808 9.11215 0.102629 8.43852C0.0931449 7.6168 0.147731 6.86716 0.233536 6.20421C0.295509 5.72539 0.712802 5.38086 1.19561 5.38086H34.6634C35.0864 5.38086 35.4692 5.64538 35.5779 6.05409C35.7377 6.65478 35.8724 7.42348 35.8654 8.31771C35.8555 9.52458 35.5923 10.4936 35.3688 11.1188Z" fill="#FFE2C8" stroke="#1C1C1C" stroke-width="0.5" stroke-miterlimit="10" stroke-linejoin="round"/>
<path d="M31.7101 17.7381H26.25V1.40857C26.9651 1.26783 27.8379 1.1545 28.8311 1.14329C29.5935 1.13568 30.2874 1.19001 30.8986 1.2736C31.3723 1.33836 31.7101 1.75339 31.7101 2.23146V17.7381Z" fill="#FF9500" stroke="#1C1C1C" stroke-width="0.5" stroke-linejoin="round"/>
<path d="M11.1362 33.8311H5.28125V1.40747C5.98642 1.20695 6.96597 1.00767 8.14044 1.0002C9.00877 0.994964 9.77304 1.09535 10.403 1.22698C10.8406 1.3184 11.1362 1.71588 11.1362 2.16288V33.8311Z" fill="#FF9500" stroke="#1C1C1C" stroke-width="0.5" stroke-linejoin="round"/>
<path d="M23.5732 21.6016C23.3745 21.6838 23.1771 21.761 22.9797 21.8357C21.5756 22.8595 20.1851 23.8995 18.6953 24.7726L39.6138 46.6818C40.2644 46.3231 41.0949 45.7838 41.9404 44.9904C42.7921 44.1896 43.3855 43.3862 43.784 42.7548C37.2463 35.7676 30.1122 28.5887 23.5732 21.6016Z" fill="#4169E1" stroke="#1C1C1C" stroke-width="0.5" stroke-miterlimit="10" stroke-linejoin="round"/>
<path d="M22.6591 20.4036C22.4605 20.4858 22.2631 20.563 22.0657 20.6377C20.6615 21.6615 19.2711 22.7015 17.7812 23.5746L38.1034 45.2908C38.7726 44.9271 39.6379 44.3692 40.512 43.531C41.3202 42.7563 41.8876 41.9803 42.2737 41.3626C35.7359 34.3754 29.1981 27.3895 22.6591 20.4023V20.4036Z" fill="#CCD9FD" stroke="#1C1C1C" stroke-width="0.5" stroke-miterlimit="10" stroke-linejoin="round"/>
<path d="M30.3332 13.6758C29.1649 15.2015 27.9246 16.6712 26.5938 18.0549L45.4684 37.8058C46.1214 37.4583 46.9892 36.9078 47.8607 36.0583C48.6826 35.2563 49.2363 34.4529 49.5976 33.8339L30.3332 13.6758Z" fill="#CCD9FD" stroke="#1C1C1C" stroke-width="0.5" stroke-miterlimit="10" stroke-linejoin="round"/>
<path d="M11.0776 60.7305C11.0776 61.2175 10.7272 61.6368 10.2438 61.6957C9.51456 61.7845 8.69209 61.8374 7.79259 61.8188C6.83664 61.7989 5.97627 61.7017 5.23509 61.5734C5.08931 61.3497 4.94354 61.1254 4.79776 60.9013C4.67576 60.7138 4.61999 60.4908 4.63953 60.2679L5.23509 53.4741C5.23509 52.5636 5.36421 44.3272 9.81625 35.7309C12.5265 30.4986 17.2802 23.8901 22.8719 19.6555L42.9813 2.76009C43.29 2.5008 43.7274 2.44682 44.0678 2.66262C44.5795 2.98698 45.2014 3.46825 45.7876 4.16414C46.3618 4.84563 46.7275 5.5259 46.9609 6.07738C47.1191 6.45124 46.9912 6.87675 46.6804 7.13788C39.9105 12.8254 33.1417 18.514 26.3717 24.2015L26.26 24.2787C21.9607 27.5643 17.2876 33.7481 14.8903 38.3776C11.064 45.7645 11.0776 52.7068 11.0776 53.4741V60.7305Z" fill="#4169E1" stroke="#1C1C1C" stroke-width="0.5" stroke-miterlimit="10" stroke-linejoin="round"/>
<path d="M30.0099 17.738H24.2891V2.2285C24.2891 1.7517 24.6252 1.33753 25.0973 1.27087C25.7006 1.18567 26.3844 1.1278 27.1346 1.12695C27.8957 1.12695 28.5894 1.18551 29.2003 1.27145C29.673 1.33794 30.0099 1.7524 30.0099 2.22978V17.738Z" fill="#FFE2C8" stroke="#1C1C1C" stroke-width="0.5" stroke-linejoin="round"/>
<path d="M9.3457 59.6125C9.34579 60.1649 8.89805 60.6127 8.3457 60.6127H4.625C4.07271 60.6127 3.625 60.165 3.625 59.6127V52.5133C3.625 51.6029 3.75412 43.3665 8.20615 34.7702C10.9164 29.5379 15.6701 22.9294 21.2618 18.6947L41.1943 1.90614C41.5282 1.62489 42.0092 1.58853 42.3587 1.85021C42.8552 2.22201 43.4214 2.72113 43.9702 3.37655C44.4905 3.99776 44.8695 4.60839 45.1444 5.13857C45.3464 5.52822 45.2297 5.99939 44.894 6.28212C38.1833 11.9338 31.4736 17.5866 24.7629 23.2383L24.6511 23.3155C20.3518 26.6011 15.6788 32.7849 13.2814 37.4143C9.45511 44.8013 9.34461 51.7436 9.34461 52.5108L9.3457 59.6125Z" fill="#CCD9FD" stroke="#1C1C1C" stroke-width="0.5" stroke-miterlimit="10" stroke-linejoin="round"/>
<path d="M34.1129 60.77C34.1186 61.2622 33.7657 61.6884 33.277 61.7474C32.5939 61.8299 31.8293 61.8825 30.9967 61.8764C30.0886 61.8691 29.2655 61.7941 28.5442 61.6884C28.2861 61.6506 28.0565 61.5068 27.903 61.296C27.7371 61.068 27.5714 60.8401 27.4062 60.6122L28.3026 52.7869V52.7358C28.3225 52.2139 28.5609 47.506 31.127 42.9039C32.6938 40.0941 34.3785 37.3404 37.7281 34.543L55.9623 17.154C56.2837 16.8474 56.7716 16.7858 57.1401 17.0338C57.8261 17.4953 58.6412 18.1555 59.4172 19.0779C59.982 19.7495 60.4006 20.4109 60.7099 20.9927C60.9142 21.3769 60.8113 21.8458 60.4875 22.1364C54.1843 27.7927 47.8799 33.449 41.5768 39.1052C38.946 41.2935 37.5171 43.2016 36.1191 45.7075C34.2656 49.0305 34.0433 52.458 34.0222 52.8989L34.1129 60.77Z" fill="#4169E1" stroke="#1C1C1C" stroke-width="0.5" stroke-miterlimit="10" stroke-linejoin="round"/>
<path d="M9.32242 59.7674C9.32242 60.2554 8.97049 60.6752 8.48586 60.7325C7.84441 60.8082 7.12883 60.856 6.3515 60.8517C5.66006 60.8476 5.0195 60.8017 4.43817 60.7328C3.95352 60.6753 3.60156 60.2553 3.60156 59.7672V2.22969C3.60156 1.75242 3.9383 1.33794 4.41087 1.2711C5.00304 1.18733 5.67133 1.12961 6.40364 1.12709C7.1824 1.12369 7.89044 1.18309 8.51311 1.27112C8.98565 1.33793 9.32242 1.75239 9.32242 2.22963V59.7674Z" fill="#FFE2C8" stroke="#1C1C1C" stroke-width="0.5" stroke-linejoin="round"/>
<path d="M32.2136 59.759C32.218 60.2511 31.8642 60.6763 31.3755 60.7334C30.697 60.8126 29.9384 60.8609 29.1126 60.8514C28.4489 60.8432 27.8314 60.7984 27.2671 60.7318C26.7821 60.6746 26.4297 60.2546 26.4297 59.7662V52.4842C26.4496 51.9623 26.6879 47.2544 29.2541 42.6524C30.8209 39.8426 32.5056 37.0888 35.8552 34.2914L55.0386 17.076C55.3357 16.8094 55.766 16.7395 56.1118 16.9389C56.6151 17.2291 57.2234 17.6604 57.8075 18.2907C58.4586 18.9927 58.8659 19.7103 59.1201 20.2819C59.2828 20.6478 59.1672 21.0698 58.8692 21.3372C52.4456 27.1014 46.0232 32.8666 39.5996 38.6307L39.5536 38.6693C36.9229 40.8576 35.6441 42.9488 34.2462 45.4559C32.3926 48.7789 32.1704 52.2065 32.1493 52.6474L32.2136 59.759Z" fill="#CCD9FD" stroke="#1C1C1C" stroke-width="0.5" stroke-miterlimit="10" stroke-linejoin="round"/>
</g>
</g>
<defs>
<clipPath id="clip0_18011_7356">
<rect width="62" height="62" rx="5" fill="white"/>
</clipPath>
<clipPath id="clip1_18011_7356">
<rect width="62" height="62" fill="white"/>
</clipPath>
</defs>
</svg>
