<svg width="102" height="102" viewBox="0 0 102 102" fill="none" xmlns="http://www.w3.org/2000/svg">
<rect x="0.5" y="0.5" width="101" height="101" rx="4.5" stroke="#8A38F5" stroke-dasharray="10 5"/>
<g clip-path="url(#clip0_18011_6129)">
<path d="M75.0543 65.885C59.0425 65.8207 43.0386 65.8207 27.0268 65.885C24.8908 68.1816 23.8549 69.3218 22 71.6023C41.3604 71.6023 60.7207 71.6023 80.0731 71.6023C78.2181 69.3218 77.1823 68.1816 75.0463 65.885H75.0543Z" fill="#E8EDFA" stroke="#1C1C1C" stroke-width="0.5" stroke-linejoin="round"/>
<path d="M77.1288 76.4779C59.7357 76.5582 42.3508 76.5582 24.9578 76.4779C23.4883 76.4779 22.1232 75.2573 22.0509 73.7958C22.0027 72.9206 21.9947 72.4789 22.0027 71.6036C41.3631 71.6036 60.7234 71.6036 80.0758 71.6036C80.0838 72.4789 80.0758 72.9206 80.0276 73.7958C79.9553 75.2573 78.5902 76.4698 77.1207 76.4779H77.1288Z" fill="#CCD9FD" stroke="#1C1C1C" stroke-width="0.5" stroke-linejoin="round"/>
<path d="M75.035 65.9203C59.0392 66.2174 43.0514 66.2174 27.0556 65.9203C26.6862 55.393 26.6541 44.9058 26.9593 34.3784C27.0074 33.0133 28.1557 31.8891 29.5208 31.865C43.8705 31.6322 58.2121 31.6322 72.5617 31.865C73.9268 31.8891 75.0751 33.0213 75.1233 34.3784C75.4284 44.9058 75.3963 55.393 75.0269 65.9203H75.035Z" fill="#CCD9FD" stroke="#1C1C1C" stroke-width="0.5" stroke-linejoin="round"/>
<path d="M31.0967 35.0309C42.7365 34.8973 54.3768 34.8809 66.0166 34.9811L71.0059 35.0309L71.1436 35.0465C71.4549 35.1129 71.6903 35.3862 71.6973 35.7164C71.7645 38.8967 71.7963 42.0692 71.8135 45.2457H71.8154L71.8193 45.9821C71.8515 51.3524 71.8118 56.7316 71.6992 62.11L71.6846 62.7877L71.0068 62.7946C59.9855 62.9151 48.9719 62.9315 37.959 62.8512L36.6641 62.8414L36.665 62.8395C34.8093 62.8262 32.9553 62.8131 31.0967 62.7936C30.7188 62.7894 30.4122 62.4858 30.4043 62.108C30.2194 53.3055 30.2194 44.5189 30.4043 35.7164L30.4209 35.5787C30.49 35.2677 30.7662 35.0347 31.0967 35.0309Z" fill="#4169E1"/>
<path d="M31.0967 35.0309L31.0938 34.7809L31.0938 34.7809L31.0967 35.0309ZM66.0166 34.9811L66.0191 34.7311L66.0188 34.7311L66.0166 34.9811ZM71.0059 35.0309L71.034 34.7825C71.0255 34.7815 71.0169 34.781 71.0084 34.7809L71.0059 35.0309ZM71.1436 35.0465L71.1957 34.802C71.1877 34.8003 71.1798 34.799 71.1717 34.7981L71.1436 35.0465ZM71.6973 35.7164L71.9472 35.7112L71.9472 35.7111L71.6973 35.7164ZM71.8135 45.2457L71.5635 45.2471C71.5642 45.3846 71.6759 45.4957 71.8135 45.4957V45.2457ZM71.8154 45.2457L72.0654 45.2444C72.0647 45.1068 71.953 44.9957 71.8154 44.9957V45.2457ZM71.8193 45.9821L71.5693 45.9834L71.5693 45.9836L71.8193 45.9821ZM71.6992 62.11L71.9492 62.1154L71.9492 62.1152L71.6992 62.11ZM71.6846 62.7877L71.6871 63.0377C71.8221 63.0363 71.9316 62.9281 71.9345 62.7931L71.6846 62.7877ZM71.0068 62.7946L71.0043 62.5446L71.0041 62.5446L71.0068 62.7946ZM37.959 62.8512L37.9571 63.1012L37.9572 63.1012L37.959 62.8512ZM36.6641 62.8414L36.4405 62.7296C36.4019 62.8068 36.4058 62.8985 36.4509 62.9721C36.496 63.0457 36.5759 63.0908 36.6622 63.0914L36.6641 62.8414ZM36.665 62.8395L36.8886 62.9513C36.9273 62.8741 36.9233 62.7824 36.8782 62.7088C36.833 62.6352 36.7532 62.5901 36.6668 62.5895L36.665 62.8395ZM31.0967 62.7936L31.0939 63.0436L31.094 63.0436L31.0967 62.7936ZM30.4043 62.108L30.1544 62.1133L30.1544 62.1133L30.4043 62.108ZM30.4043 35.7164L30.1561 35.6865C30.1551 35.6947 30.1545 35.7029 30.1544 35.7112L30.4043 35.7164ZM30.4209 35.5787L30.1769 35.5245C30.1751 35.5325 30.1737 35.5406 30.1727 35.5488L30.4209 35.5787ZM31.0967 35.0309L31.0995 35.2809C42.7377 35.1473 54.3763 35.1309 66.0145 35.2311L66.0166 34.9811L66.0188 34.7311C54.3773 34.6309 42.7353 34.6473 31.0938 34.7809L31.0967 35.0309ZM66.0166 34.9811L66.0141 35.2311L71.0034 35.2809L71.0059 35.0309L71.0084 34.7809L66.0191 34.7311L66.0166 34.9811ZM71.0059 35.0309L70.9777 35.2793L71.1154 35.2949L71.1436 35.0465L71.1717 34.7981L71.034 34.7825L71.0059 35.0309ZM71.1436 35.0465L71.0915 35.291C71.2917 35.3337 71.4428 35.5099 71.4473 35.7217L71.6973 35.7164L71.9472 35.7111C71.9377 35.2626 71.6182 34.892 71.1957 34.802L71.1436 35.0465ZM71.6973 35.7164L71.4473 35.7217C71.5145 38.9002 71.5463 42.0713 71.5635 45.2471L71.8135 45.2457L72.0635 45.2444C72.0463 42.0671 72.0144 38.8932 71.9472 35.7112L71.6973 35.7164ZM71.8135 45.2457V45.4957H71.8154V45.2457V44.9957H71.8135V45.2457ZM71.8154 45.2457L71.5654 45.2471L71.5693 45.9834L71.8193 45.9821L72.0693 45.9807L72.0654 45.2444L71.8154 45.2457ZM71.8193 45.9821L71.5693 45.9836C71.6015 51.3517 71.5618 56.7287 71.4493 62.1048L71.6992 62.11L71.9492 62.1152C72.0618 56.7346 72.1015 51.3531 72.0693 45.9806L71.8193 45.9821ZM71.6992 62.11L71.4493 62.1046L71.4346 62.7823L71.6846 62.7877L71.9345 62.7931L71.9492 62.1154L71.6992 62.11ZM71.6846 62.7877L71.682 62.5377L71.0043 62.5446L71.0068 62.7946L71.0094 63.0445L71.6871 63.0377L71.6846 62.7877ZM71.0068 62.7946L71.0041 62.5446C59.9844 62.665 48.9723 62.6815 37.9608 62.6012L37.959 62.8512L37.9572 63.1012C48.9716 63.1815 59.9867 63.1651 71.0096 63.0445L71.0068 62.7946ZM37.959 62.8512L37.9609 62.6012L36.6659 62.5914L36.6641 62.8414L36.6622 63.0914L37.9571 63.1012L37.959 62.8512ZM36.6641 62.8414L36.8877 62.9532L36.8886 62.9513L36.665 62.8395L36.4414 62.7277L36.4405 62.7296L36.6641 62.8414ZM36.665 62.8395L36.6668 62.5895C34.811 62.5762 32.9575 62.5632 31.0993 62.5436L31.0967 62.7936L31.094 63.0436C32.9532 63.0631 34.8076 63.0762 36.6633 63.0895L36.665 62.8395ZM31.0967 62.7936L31.0994 62.5436C30.8566 62.5409 30.6594 62.3457 30.6542 62.1028L30.4043 62.108L30.1544 62.1133C30.1651 62.626 30.5811 63.038 31.0939 63.0436L31.0967 62.7936ZM30.4043 62.108L30.6542 62.1028C30.4694 53.3038 30.4694 44.5207 30.6542 35.7217L30.4043 35.7164L30.1544 35.7112C29.9694 44.5172 29.9694 53.3073 30.1544 62.1133L30.4043 62.108ZM30.4043 35.7164L30.6525 35.7464L30.6691 35.6087L30.4209 35.5787L30.1727 35.5488L30.1561 35.6865L30.4043 35.7164ZM30.4209 35.5787L30.6649 35.633C30.7094 35.4331 30.8874 35.2833 31.0995 35.2809L31.0967 35.0309L31.0938 34.7809C30.6451 34.786 30.2707 35.1023 30.1769 35.5245L30.4209 35.5787Z" fill="#1C1C1C"/>
<path d="M40.3703 59.3086C40.3437 59.7888 39.9757 60.1813 39.4967 60.2247C38.7909 60.2886 38.024 60.3283 37.2037 60.3283C36.3838 60.3283 35.6172 60.2884 34.9118 60.2244C34.4342 60.181 34.0667 59.7906 34.0384 59.3119C33.9244 57.3843 33.8579 55.352 33.8565 53.2235C33.855 51.0496 33.9215 48.9753 34.0376 47.0107C34.0662 46.5269 34.4411 46.1344 34.9242 46.0957C35.5421 46.0461 36.1977 46.0138 36.8873 46.0062C37.8134 45.9958 38.6816 46.0313 39.4838 46.0954C39.9685 46.1342 40.344 46.529 40.3709 47.0146C40.4766 48.9234 40.5383 50.9275 40.5408 53.0192C40.5434 55.2146 40.4812 57.3137 40.3703 59.3086Z" fill="#CCD9FD" stroke="#1C1C1C" stroke-width="0.5" stroke-miterlimit="10" stroke-linejoin="round"/>
<path d="M49.8979 59.2992C49.8748 59.7818 49.5081 60.1792 49.0271 60.2241C48.3307 60.2892 47.5742 60.3291 46.7654 60.3282C45.968 60.3273 45.2217 60.2871 44.5341 60.2226C44.0599 60.1781 43.6956 59.7905 43.665 59.3151C43.4947 56.6686 43.3972 53.8494 43.4062 50.8744C43.414 48.177 43.5084 45.6095 43.664 43.1848C43.695 42.7025 44.0693 42.312 44.5511 42.2736C45.1859 42.223 45.8604 42.1908 46.5706 42.1855C47.437 42.1788 48.2523 42.2126 49.0097 42.2725C49.4983 42.3112 49.8753 42.7117 49.8987 43.2013C50.021 45.7662 50.0901 48.4485 50.0901 51.2401C50.0901 54.0389 50.0207 56.7281 49.8979 59.2992Z" fill="#CCD9FD" stroke="#1C1C1C" stroke-width="0.5" stroke-miterlimit="10" stroke-linejoin="round"/>
<path d="M60.3712 59.2808C60.3492 59.7702 59.9743 60.1719 59.4862 60.214C58.6907 60.2827 57.8252 60.3263 56.8986 60.3282C55.9142 60.3304 54.9977 60.2852 54.1597 60.2124C53.6795 60.1707 53.3075 59.7807 53.2765 59.2998C53.047 55.7489 52.9272 51.9872 52.9604 48.0356C52.9855 45.0312 53.0973 42.1415 53.2754 39.3758C53.3069 38.8875 53.6895 38.4943 54.1776 38.4595C54.9459 38.4047 55.765 38.3702 56.6297 38.3655C57.6384 38.3601 58.5872 38.3958 59.4677 38.4582C59.9639 38.4933 60.3496 38.8983 60.3719 39.3952C60.5109 42.5018 60.5898 45.7198 60.5942 49.0426C60.5986 52.5756 60.5189 55.9911 60.3712 59.2808Z" fill="#CCD9FD" stroke="#1C1C1C" stroke-width="0.5" stroke-miterlimit="10" stroke-linejoin="round"/>
<rect x="65.5663" y="70.9514" width="2.23074" height="4.1627" transform="rotate(-42.1424 65.5663 70.9514)" fill="#FFE2C8" stroke="#1C1C1C" stroke-width="0.5" stroke-miterlimit="10"/>
<rect x="66.7675" y="74.4951" width="4.9504" height="10.1279" rx="1" transform="rotate(-42.1424 66.7675 74.4951)" fill="#FF9500" stroke="#1C1C1C" stroke-width="0.5" stroke-miterlimit="10"/>
<path d="M61.1438 51.6477C66.7537 51.6479 71.3018 56.2681 71.302 61.967C71.302 67.6661 66.7538 72.2872 61.1438 72.2874C55.5334 72.2874 50.9924 67.666 50.9924 61.967C50.9926 56.2683 55.5335 51.6477 61.1438 51.6477Z" fill="#FFE2C8" stroke="#1C1C1C" stroke-width="0.5" stroke-miterlimit="10"/>
<path d="M61.1732 69.776C65.4854 69.776 68.9784 66.2829 68.9784 61.9708C68.9784 57.6587 65.4854 54.1656 61.1732 54.1656C56.8611 54.1656 53.3761 57.6587 53.3761 61.9708C53.3761 66.2829 56.8692 69.776 61.1732 69.776Z" fill="#FF9500" stroke="#1C1C1C" stroke-width="0.5" stroke-miterlimit="10"/>
<path d="M64.8389 59.6437C64.9272 60.5511 64.5579 61.0972 63.9877 61.4023C64.9433 61.6432 65.5375 62.2294 65.4171 63.5624C65.2645 65.2085 64.1001 65.6662 62.4299 65.7626V66.9992C62.4299 67.2722 62.2051 67.4971 61.932 67.4971C61.659 67.4971 61.4342 67.2722 61.4342 66.9992V65.7867C61.1772 65.7867 60.9122 65.7867 60.6392 65.7706V66.9912C60.6392 67.2642 60.4224 67.489 60.1414 67.489C59.8603 67.489 59.6435 67.2642 59.6435 66.9912V65.7546C59.4106 65.7546 59.1777 65.7385 58.9368 65.7385H58.3587C57.9813 65.7385 57.6922 65.4012 57.7564 65.0238V65.0078C57.8126 64.7107 58.0776 64.4939 58.3747 64.4939C58.5755 64.4939 58.5675 64.4939 58.5675 64.4939C58.8485 64.4939 58.9128 64.2851 58.9368 64.1405V61.4023V59.4349C58.8967 59.2262 58.7602 58.9692 58.3587 58.9692C58.3587 58.9692 58.3587 58.9692 58.1901 58.9692C57.8849 58.9692 57.636 58.7203 57.636 58.4151C57.636 58.11 57.8769 57.8611 58.1901 57.8611H59.6515V56.6405C59.6515 56.3675 59.8683 56.1426 60.1494 56.1426C60.4304 56.1426 60.6472 56.3675 60.6472 56.6405V57.8289C60.9122 57.8289 61.1692 57.8129 61.4422 57.8129V56.6405C61.4422 56.3675 61.659 56.1426 61.9401 56.1426C62.2211 56.1426 62.4379 56.3675 62.4379 56.6405V57.8611C63.7147 57.9735 64.7425 58.383 64.8469 59.6357L64.8389 59.6437ZM63.4337 63.3616C63.4337 62.0206 61.3218 62.2133 60.6472 62.2133V64.5099C61.3218 64.5099 63.4337 64.6705 63.4337 63.3616ZM62.984 60.1255C62.984 58.8889 61.2174 59.0736 60.6472 59.0736V61.1614C61.2174 61.1614 62.984 61.2979 62.984 60.1255Z" fill="white"/>
<path d="M59.6367 22.3588C59.6426 21.1235 58.4998 20.22 57.2975 20.5038C56.5012 20.6917 55.6845 20.899 54.8494 21.1278C53.977 21.3669 53.1345 21.6156 52.3226 21.8708C51.468 22.1394 51.1928 23.1895 51.833 23.8161C52.1915 24.167 52.7807 24.7038 53.4671 25.2953L46.5469 33.3664C45.8574 34.1706 44.6603 34.2977 43.8173 33.6561L41.4681 31.868C40.6277 31.2284 39.4347 31.3525 38.7439 32.1514L34.0054 37.632C33.399 38.3333 33.4893 39.3963 34.2052 39.9853C34.8967 40.5543 35.9159 40.4678 36.5016 39.7903L39.223 36.6427C39.9138 35.8437 41.1068 35.7196 41.9473 36.3593L44.307 38.1554C45.15 38.797 46.3471 38.67 47.0366 37.8657L56.0372 27.3682C56.5436 27.7429 57.0221 28.071 57.4273 28.3068C58.2968 28.8126 59.3313 28.2681 59.4166 27.2658C59.4868 26.4422 59.5426 25.589 59.5806 24.7076C59.6152 23.9022 59.6331 23.1188 59.6367 22.3588Z" fill="#FF9500" stroke="#1C1C1C" stroke-width="0.5" stroke-miterlimit="10" stroke-linejoin="round"/>
</g>
<defs>
<clipPath id="clip0_18011_6129">
<rect width="62" height="62" fill="white" transform="translate(20 20)"/>
</clipPath>
</defs>
</svg>
