<svg width="102" height="102" viewBox="0 0 102 102" fill="none" xmlns="http://www.w3.org/2000/svg">
<rect x="0.5" y="0.5" width="101" height="101" rx="4.5" stroke="#8A38F5" stroke-dasharray="10 5"/>
<path d="M63.5979 39.9699C54.3347 40.1297 45.0716 40.1125 35.8084 39.9699C35.5402 34.3826 35.5288 31.5918 35.7285 26.0045C45.043 25.8961 54.3633 25.8847 63.6778 26.0045C63.8775 31.5918 63.8661 34.3826 63.5979 39.9699Z" fill="#FF9500" stroke="#1C1C1C" stroke-width="0.5" stroke-linejoin="round"/>
<path d="M63.6704 39.5022C54.3559 39.6221 45.0357 39.6106 35.7212 39.5022C35.5215 33.9149 35.5329 29.7008 35.8011 24.1136C45.0643 23.9709 54.3274 23.9538 63.5905 24.1136C63.8588 29.7008 63.8702 33.9149 63.6704 39.5022Z" fill="#B9E5DE" stroke="#1C1C1C" stroke-width="0.5" stroke-linejoin="round"/>
<path d="M59.0199 36.7078C52.7988 36.7307 46.5834 36.7307 40.3623 36.7078C40.3395 35.458 39.3121 34.4421 38.0565 34.4364C38.0337 32.0109 38.0394 30.801 38.085 28.3754C39.3407 28.3697 40.3737 27.3481 40.4022 26.0983C46.5948 26.064 52.7874 26.064 58.9799 26.0983C59.0084 27.3481 60.0415 28.3697 61.2971 28.3754C61.3428 30.801 61.3485 32.0109 61.3256 34.4364C60.07 34.4364 59.0427 35.458 59.0199 36.7078Z" fill="#2AA5A5" stroke="#1C1C1C" stroke-width="0.5" stroke-linejoin="round"/>
<path d="M49.6896 36.6253C52.542 36.6253 54.856 34.3114 54.856 31.4591C54.856 28.6069 52.542 26.2929 49.6896 26.2929C46.8372 26.2929 44.5232 28.6069 44.5232 31.4591C44.5232 34.3114 46.8372 36.6253 49.6896 36.6253Z" fill="#B9E5DE" stroke="#1C1C1C" stroke-width="0.5" stroke-linejoin="round"/>
<path d="M52.1022 30.008C52.1646 30.6055 51.9183 30.9699 51.5406 31.1734C52.1712 31.3343 52.5653 31.7249 52.4865 32.6048C52.388 33.698 51.6161 33.9967 50.5093 34.0624V34.8798C50.5093 35.0636 50.3615 35.2114 50.1776 35.2114C49.9937 35.2114 49.8459 35.0636 49.8459 34.8798V34.0788C49.6751 34.0788 49.4977 34.0788 49.3237 34.0722V34.8831C49.3237 35.0669 49.1759 35.2147 48.992 35.2147C48.808 35.2147 48.6602 35.0669 48.6602 34.8831V34.0656C48.5059 34.0656 48.3515 34.0591 48.1906 34.0591H47.8129C47.56 34.0591 47.3662 33.8326 47.4089 33.5831C47.4417 33.3828 47.6191 33.2384 47.8194 33.2384C47.9475 33.2384 47.9443 33.2351 47.9443 33.2351C48.1282 33.2351 48.1742 33.0972 48.1906 33.002V31.1898V29.8865C48.1676 29.7487 48.0756 29.5779 47.8063 29.5779C47.8063 29.5779 47.8063 29.5779 47.7012 29.5747C47.4976 29.5747 47.3301 29.4105 47.3301 29.207C47.3301 29.0034 47.4943 28.8426 47.6946 28.8426H48.6635V28.0317C48.6635 27.8479 48.8113 27.7001 48.9952 27.7001C49.1792 27.7001 49.327 27.8479 49.327 28.0317V28.8163C49.5043 28.8163 49.6718 28.8097 49.8492 28.8097V28.0317C49.8492 27.8479 49.997 27.7001 50.1809 27.7001C50.3648 27.7001 50.5126 27.8479 50.5126 28.0317V28.8426C51.36 28.9148 52.0365 29.1906 52.1055 30.0146L52.1022 30.008ZM51.176 32.4669C51.176 31.5772 49.7736 31.7053 49.327 31.7053V33.2252C49.7736 33.2252 51.176 33.3303 51.176 32.4636V32.4669ZM50.8772 30.3232C50.8772 29.5057 49.7079 29.6272 49.3302 29.6272V31.0093C49.7079 31.0093 50.8772 31.0979 50.8772 30.3232Z" fill="#1C1C1C"/>
<path d="M46.6229 73.2287C46.6229 73.2287 58.4796 77.2232 61.0555 77.3501C63.6315 77.4771 69.306 72.8404 70.5902 72.9673C71.8744 73.0943 74.1965 72.9673 74.1965 72.9673V60.2072H71.4936C71.4936 60.2072 69.306 58.5347 66.857 58.5347H60.0252L34.7363 63.6791L46.6229 73.2287Z" fill="white" stroke="#1C1C1C" stroke-width="0.5" stroke-linecap="round" stroke-linejoin="round"/>
<path d="M31.342 45.3528C31.5063 43.5982 32.91 42.2243 34.6721 42.075C44.2889 41.2537 53.9056 41.2537 63.5149 42.075C65.277 42.2243 66.6733 43.5907 66.8599 45.3453C67.5916 52.5653 67.5916 59.7779 66.8599 66.998C66.6807 68.7526 65.277 70.119 63.5149 70.2683C53.928 71.0896 44.3411 71.0971 34.7467 70.2683C32.9548 70.1115 31.5362 68.7003 31.3868 66.9084C30.7522 59.4494 30.685 52.2443 31.342 45.3528Z" fill="#FF9500" stroke="#1C1C1C" stroke-width="0.5" stroke-linecap="round" stroke-linejoin="round"/>
<path d="M31.342 42.5643C31.5063 40.8096 32.91 39.4358 34.6721 39.2865C44.2889 38.4652 53.9056 38.4652 63.5149 39.2865C65.277 39.4358 66.6733 40.8022 66.8599 42.5568C67.5916 49.7768 67.5916 56.9894 66.8599 64.2095C66.6807 65.9641 65.277 67.3304 63.5149 67.4798C53.928 68.3011 44.3411 68.3085 34.7467 67.4798C32.9548 67.323 31.5362 65.9118 31.3868 64.1199C30.7522 56.6609 30.685 49.4558 31.342 42.5643Z" fill="#FFE2C8" stroke="#1C1C1C" stroke-width="0.5" stroke-linejoin="round"/>
<path d="M51.4635 54.208C51.5382 50.8257 54.4277 48.1378 57.81 48.0781C61.1923 48.0183 64.6418 48.1826 68.2033 48.5261C68.6886 51.871 68.5318 55.4325 68.4273 59.9572C68.4198 60.435 68.0465 60.8382 67.5687 60.883C64.3805 61.1593 61.2595 61.2638 58.1236 61.1891C54.4053 61.0995 51.3814 57.9562 51.4635 54.2155V54.208Z" fill="#FF9500" stroke="#1C1C1C" stroke-width="0.5" stroke-linecap="round" stroke-linejoin="round"/>
<path d="M51.4639 51.9742C51.546 48.5845 54.428 45.9115 57.8178 45.8144C61.2076 45.7173 64.2987 45.8144 67.5391 46.0981C68.0767 46.1429 68.4948 46.5909 68.5247 47.121C68.7711 51.6084 68.7636 53.0569 68.5844 58.5596C65.12 58.8956 61.6108 59.0225 58.1165 58.9404C54.3982 58.8508 51.3743 55.7 51.4639 51.9668V51.9742Z" fill="#FFE2C8" stroke="#1C1C1C" stroke-width="0.5" stroke-linejoin="round"/>
<path d="M57.5544 54.9128C59.2368 54.9128 60.6007 53.5489 60.6007 51.8665C60.6007 50.184 59.2368 48.8202 57.5544 48.8202C55.8719 48.8202 54.5081 50.184 54.5081 51.8665C54.5081 53.5489 55.8719 54.9128 57.5544 54.9128Z" fill="#FF9500" stroke="#1C1C1C" stroke-width="0.5" stroke-linecap="round" stroke-linejoin="round"/>
<path d="M81.5682 58.7662C81.6503 65.1799 81.6503 68.3905 81.5682 74.8041C78.5741 74.9535 77.0734 74.9535 74.0793 74.8041C73.9972 68.3905 74.0047 65.1799 74.0793 58.7662C77.0734 58.6169 78.5741 58.6169 81.5682 58.7662Z" fill="#4169E1" stroke="#1C1C1C" stroke-width="0.5" stroke-linecap="round" stroke-linejoin="round"/>
<path d="M62.5995 71.9365L51.131 67.9419C51.131 67.9419 49.5855 66.6502 51.131 65.1047C52.6766 63.5591 55.6407 63.5591 56.798 64.0743C57.9553 64.5895 60.2774 64.9777 61.1808 65.1047C62.0843 65.2316 65.1754 62.917 67.4974 62.917C69.8195 62.917 70.9768 63.4322 70.9768 63.4322" fill="white"/>
<path d="M62.5995 71.9365L51.131 67.9419C51.131 67.9419 49.5855 66.6502 51.131 65.1047C52.6766 63.5591 55.6407 63.5591 56.798 64.0743C57.9553 64.5895 60.2774 64.9777 61.1808 65.1047C62.0843 65.2316 65.1754 62.917 67.4974 62.917C69.8195 62.917 70.9768 63.4322 70.9768 63.4322" stroke="#1C1C1C" stroke-width="0.5" stroke-linecap="round" stroke-linejoin="round"/>
<path d="M67.1376 72.6044C68.75 72.6044 70.057 71.0767 70.057 69.1923C70.057 67.3078 68.75 65.7801 67.1376 65.7801C65.5253 65.7801 64.2183 67.3078 64.2183 69.1923C64.2183 71.0767 65.5253 72.6044 67.1376 72.6044Z" fill="white" stroke="white" stroke-width="0.5" stroke-linecap="round" stroke-linejoin="round"/>
<path d="M30.6163 55.9546C35.3749 55.9546 39.2325 52.097 39.2325 47.3383C39.2325 42.5797 35.3749 38.722 30.6163 38.722C25.8576 38.722 22 42.5797 22 47.3383C22 52.097 25.8576 55.9546 30.6163 55.9546Z" fill="#E8EDFA" stroke="#1C1C1C" stroke-width="0.5" stroke-linejoin="round"/>
<path d="M30.6163 53.5395C35.3749 53.5395 39.2325 49.6819 39.2325 44.9232C39.2325 40.1646 35.3749 36.3069 30.6163 36.3069C25.8576 36.3069 22 40.1646 22 44.9232C22 49.6819 25.8576 53.5395 30.6163 53.5395Z" fill="white" stroke="#1C1C1C" stroke-width="0.5" stroke-linejoin="round"/>
<path d="M35.2397 43.8576H34.6855C34.5826 43.4561 34.4217 43.08 34.2121 42.736L34.6105 42.3367C34.7181 42.2291 34.7772 42.0857 34.7772 41.9333C34.7772 41.781 34.7177 41.6375 34.6105 41.5302L33.9466 40.867C33.7313 40.6514 33.3549 40.6516 33.1405 40.8667L32.7252 41.2793C32.3851 41.0811 32.0204 40.9283 31.6186 40.83V40.237C31.6186 39.9225 31.3673 39.6641 31.053 39.6641H30.1144C29.7999 39.6641 29.5525 39.9227 29.5525 40.237V40.8299C29.151 40.9279 28.7839 41.0809 28.4434 41.2793L28.0284 40.8667C27.8133 40.6511 27.4367 40.6514 27.221 40.8665L26.5575 41.5297C26.4511 41.6359 26.3903 41.7828 26.3903 41.9328C26.3903 42.0828 26.4493 42.2281 26.5571 42.3358L26.9555 42.736C26.746 43.08 26.585 43.4561 26.4823 43.8576H25.928C25.6134 43.8576 25.3594 44.1104 25.3594 44.4241V45.362C25.3594 45.6767 25.6134 45.9239 25.928 45.9239H26.4823C26.5852 46.3254 26.7459 46.7038 26.9551 47.0478L26.5567 47.4487C26.4489 47.5563 26.3898 47.7002 26.3898 47.8526C26.3898 48.0049 26.4491 48.1488 26.5567 48.2565L27.2206 48.9202C27.3284 49.0278 27.4714 49.087 27.6236 49.087C27.7758 49.087 27.9189 49.0276 28.0267 48.9202L28.4435 48.5073C28.7842 48.7058 29.1511 48.8587 29.5526 48.9571V49.5491C29.5526 49.8636 29.8 50.1171 30.1145 50.1171H31.0531C31.3676 50.1171 31.6187 49.8636 31.6187 49.5491V48.9568C32.0206 48.8586 32.3852 48.7058 32.7259 48.5073L33.1391 48.9193C33.2469 49.0274 33.3901 49.0864 33.5427 49.0864C33.6953 49.0864 33.8385 49.0271 33.9461 48.9197L34.61 48.2565C34.7175 48.1492 34.7765 48.0057 34.7769 47.8535C34.7769 47.7012 34.7173 47.5582 34.61 47.4504L34.2121 47.048C34.4213 46.7037 34.582 46.3251 34.6851 45.924H35.2394C35.5539 45.924 35.8124 45.6768 35.8124 45.3622V44.4243C35.8127 44.1105 35.5543 43.8577 35.2398 43.8577L35.2397 43.8576ZM30.5833 46.6786C29.5879 46.6786 28.7806 45.8789 28.7806 44.8932C28.7806 43.9075 29.5879 43.1084 30.5833 43.1084C31.5788 43.1084 32.3867 43.9068 32.3867 44.8932C32.3864 45.8791 31.579 46.6786 30.5833 46.6786Z" fill="#1C1C1C"/>
</svg>
