<svg width="102" height="102" viewBox="0 0 102 102" fill="none" xmlns="http://www.w3.org/2000/svg">
<rect x="0.5" y="0.5" width="101" height="101" rx="4.5" stroke="#8A38F5" stroke-dasharray="10 5"/>
<path d="M62.81 43.7057C62.81 52.4541 55.6168 59.5463 46.7432 59.5463C37.8697 59.5463 30.0396 51.8674 30.0396 43.119C29.178 28.3606 37.8697 27.865 46.7432 27.865C55.6168 27.865 63.2973 28.6313 62.81 43.7057Z" fill="#4169E1" stroke="#1C1C1C" stroke-width="0.5" stroke-miterlimit="10"/>
<path d="M46.3634 55.3136C55.4121 55.3136 62.7475 47.8561 62.7475 38.6568C62.7475 29.4575 55.4121 22 46.3634 22C37.3147 22 29.9792 29.4575 29.9792 38.6568C29.9792 47.8561 37.3147 55.3136 46.3634 55.3136Z" fill="#E8EDFA" stroke="#1C1C1C" stroke-width="0.5" stroke-miterlimit="10"/>
<g clip-path="url(#clip0_18011_5198)">
<path d="M45.2053 51.1697C44.1008 51.1697 43.2053 52.0652 43.2053 53.1697V54.9949C44.2287 55.1944 45.2868 55.3072 46.371 55.3072C47.4551 55.3072 48.5132 55.1944 49.5366 54.9949V53.1697C49.5366 52.0652 48.6412 51.1697 47.5366 51.1697H45.2053Z" fill="#4169E1" stroke="#1C1C1C" stroke-miterlimit="10"/>
<path d="M47.5221 26.1374C48.6249 26.1374 49.5196 25.2447 49.5221 24.142L49.5262 22.3123C48.5028 22.1128 47.4447 22 46.3606 22C45.2765 22 44.227 22.1128 43.1949 22.3123V24.1374C43.1949 25.242 44.0904 26.1374 45.1949 26.1374H47.5221Z" fill="#4169E1" stroke="#1C1C1C" stroke-miterlimit="10"/>
<path d="M58.8777 39.817C58.8777 40.9197 59.7702 41.8143 60.8728 41.817L62.4423 41.8208C62.6331 40.7973 62.7458 39.7391 62.7458 38.6549C62.7458 37.5707 62.6331 36.5211 62.4423 35.489H60.8777C59.7731 35.489 58.8777 36.3844 58.8777 37.489V39.817Z" fill="#4169E1" stroke="#1C1C1C" stroke-miterlimit="10"/>
<path d="M33.8472 37.4959C33.8472 36.3914 32.9517 35.4959 31.8472 35.4959H30.2826C30.0918 36.5195 29.979 37.5777 29.979 38.6619C29.979 39.7461 30.0918 40.7956 30.2826 41.8278H31.8472C32.9517 41.8278 33.8472 40.9324 33.8472 39.8278V37.4959Z" fill="#4169E1" stroke="#1C1C1C" stroke-miterlimit="10"/>
<path d="M38.3419 28.9832C39.1216 28.202 39.1209 26.9368 38.3405 26.1563L37.1079 24.9236C35.3733 26.1379 33.8729 27.6819 32.7107 29.4687L33.8709 30.629C34.6525 31.4107 35.92 31.4101 36.7009 30.6276L38.3419 28.9832Z" fill="#4169E1" stroke="#1C1C1C" stroke-miterlimit="10"/>
<path d="M54.3886 48.3162C53.6063 49.097 53.6057 50.3643 54.3872 51.1458L55.6257 52.3845C57.3603 51.1702 58.8608 49.6262 60.0229 47.8394L58.86 46.6764C58.0794 45.8958 56.8141 45.8951 56.0328 46.675L54.3886 48.3162Z" fill="#FFE2C8" stroke="#1C1C1C" stroke-miterlimit="10"/>
<path d="M56.0311 30.6276C56.8119 31.4101 58.0794 31.4107 58.861 30.629L60.0212 29.4687C58.859 27.6819 57.3586 26.1379 55.624 24.9236L54.3914 26.1563C53.611 26.9368 53.6104 28.202 54.39 28.9832L56.0311 30.6276Z" fill="#4169E1" stroke="#1C1C1C" stroke-miterlimit="10"/>
</g>
<path d="M46.4463 48.8877C52.1942 48.8877 56.8539 44.2276 56.8539 38.4791C56.8539 32.7306 52.1942 28.0705 46.4463 28.0705C40.6983 28.0705 36.0387 32.7306 36.0387 38.4791C36.0387 44.2276 40.6983 48.8877 46.4463 48.8877Z" fill="#E8EDFA" stroke="#1C1C1C" stroke-width="0.5" stroke-miterlimit="10"/>
<path d="M43.9354 31.6453C44.9182 31.1773 46.1201 31.0593 47.2323 31.2732C48.3456 31.4874 49.3413 32.0278 49.9354 32.8425C50.5218 33.6467 50.7403 34.7502 50.2499 36.156C50.0026 36.794 49.6037 37.2015 49.1337 37.5652C48.8934 37.7511 48.6434 37.9194 48.3788 38.1072C48.1185 38.2919 47.8509 38.4906 47.5975 38.7263L47.5887 38.7351C47.213 39.1198 47.0118 39.5668 46.9139 40.0515C46.8189 40.523 46.4698 40.8669 46.0643 40.8669H45.4852C45.0698 40.8669 44.7498 40.5393 44.7762 40.1599C44.8683 38.8422 45.2828 37.8367 46.4218 37.1765C46.427 37.1735 46.4324 37.1701 46.4374 37.1667C46.9476 36.8192 47.4816 36.4295 47.8007 35.8347C48.0423 35.3969 48.0859 34.8689 47.9608 34.4001C47.8359 33.9326 47.5367 33.5016 47.0682 33.2781H47.0692C46.1411 32.7906 44.9844 33.1191 44.4344 33.946C44.2846 34.1713 44.1164 34.3889 43.9286 34.5486C43.7422 34.707 43.5524 34.7956 43.3524 34.7957H42.5936C42.1603 34.7957 41.8659 34.4495 41.9413 34.1042C42.2002 32.9195 42.9584 32.1106 43.9354 31.6453Z" fill="#1C1C1C" stroke="#1C1C1C" stroke-width="0.5" stroke-miterlimit="10" stroke-linejoin="round"/>
<path d="M45.7507 42.3831C46.0123 42.3813 46.2592 42.3927 46.489 42.4124C46.7908 42.4382 47.0281 42.6767 47.0535 42.9797C47.0711 43.1909 47.0819 43.4162 47.0828 43.6536C47.0836 43.8974 47.0734 44.1284 47.0564 44.345C47.0316 44.6595 46.7765 44.9063 46.4539 44.9241C46.259 44.9348 46.056 44.9409 45.8455 44.9417C45.6054 44.9425 45.3741 44.9362 45.1541 44.9241C44.8309 44.906 44.5753 44.6584 44.5505 44.343C44.5333 44.1229 44.5229 43.8879 44.5242 43.6399C44.5253 43.4076 44.5362 43.187 44.5535 42.9797C44.5787 42.6766 44.8159 42.4382 45.1179 42.4124C45.3169 42.3953 45.5283 42.3845 45.7507 42.3831Z" fill="#1C1C1C" stroke="#1C1C1C" stroke-width="0.5" stroke-miterlimit="10" stroke-linejoin="round"/>
<path d="M78.8869 59.6915C78.8869 68.44 71.6937 75.5322 62.8201 75.5322C53.9466 75.5322 46.1165 67.8533 46.1165 59.1048C45.2549 44.3465 53.9466 43.8509 62.8201 43.8509C71.6937 43.8509 79.3742 44.6172 78.8869 59.6915Z" fill="#FF9500" stroke="#1C1C1C" stroke-width="0.5" stroke-miterlimit="10"/>
<path d="M62.4402 71.2966C71.4889 71.2966 78.8243 63.8391 78.8243 54.6398C78.8243 45.4405 71.4889 37.983 62.4402 37.983C53.3915 37.983 46.056 45.4405 46.056 54.6398C46.056 63.8391 53.3915 71.2966 62.4402 71.2966Z" fill="#FFE2C8" stroke="#1C1C1C" stroke-width="0.5" stroke-miterlimit="10"/>
<path d="M62.8339 38.4854V71.4459" stroke="#1C1C1C" stroke-width="0.5" stroke-miterlimit="10"/>
<path d="M46.3606 54.9652L79.3179 54.9652" stroke="#1C1C1C" stroke-width="0.5" stroke-miterlimit="10"/>
<path d="M54.5287 64.3774L73.7915 42.6584" stroke="#1C1C1C" stroke-width="0.5" stroke-miterlimit="10"/>
<path d="M73.7957 67.2737L51.8727 42.663" stroke="#1C1C1C" stroke-width="0.5" stroke-miterlimit="10"/>
<path d="M62.479 67.5387C69.6067 67.5387 75.3849 61.7599 75.3849 54.6315C75.3849 47.503 69.6067 41.7242 62.479 41.7242C55.3512 41.7242 49.573 47.503 49.573 54.6315C49.573 61.7599 55.3512 67.5387 62.479 67.5387Z" fill="#FF9500" stroke="#1C1C1C" stroke-width="0.5" stroke-miterlimit="10"/>
<path d="M68.5352 50.8C68.689 52.2954 68.0737 53.2048 67.1316 53.7101C68.7082 54.1142 69.6888 55.0843 69.4965 57.287C69.2465 60.0153 67.3239 60.763 64.5552 60.9247V62.9676C64.5552 63.4242 64.185 63.7943 63.7284 63.7943C63.2718 63.7943 62.9017 63.4242 62.9017 62.9676V60.9651C62.4787 60.9651 62.0365 60.9651 61.5943 60.9449V62.9676C61.5943 63.4242 61.2241 63.7943 60.7675 63.7943C60.3109 63.7943 59.9407 63.4242 59.9407 62.9676V60.9247C59.5562 60.9247 59.1717 60.9045 58.7679 60.9045H57.7964C57.178 60.9045 56.7078 60.3488 56.8102 59.7389L56.8181 59.6918C56.9 59.2039 57.3265 58.8524 57.8212 58.8521C58.161 58.8519 58.1527 58.8431 58.1527 58.8431C58.6141 58.8431 58.7295 58.4996 58.7679 58.2571V53.7303H58.941C58.864 53.7303 58.8064 53.7303 58.7679 53.7303V50.4766C58.7102 50.1331 58.4795 49.7087 57.8066 49.7087C57.8066 49.7087 57.8138 49.7011 57.5422 49.6999C57.0326 49.6975 56.6145 49.2911 56.6145 48.7815C56.6145 48.2779 57.0227 47.8697 57.5263 47.8697H58.9025C59.2294 47.8697 59.5754 47.8697 59.9407 47.8697V45.847C59.9407 45.3904 60.3109 45.0202 60.7675 45.0202C61.2241 45.0202 61.5943 45.3904 61.5943 45.847V47.809C62.0365 47.809 62.4595 47.7888 62.9017 47.7888V45.847C62.9017 45.3904 63.2718 45.0202 63.7284 45.0202C64.185 45.0202 64.5552 45.3904 64.5552 45.847V47.8697C66.6701 48.0515 68.3621 48.7387 68.5352 50.8ZM66.2279 56.9435C66.2279 54.7205 62.7286 55.0439 61.6135 55.0439V58.8431C62.7286 58.8431 66.2279 59.1059 66.2279 56.9435ZM65.4781 51.5881C65.4781 49.547 62.5556 49.8501 61.6135 49.8501V53.3059C62.5556 53.3059 65.4781 53.5282 65.4781 51.5881Z" fill="white"/>
<path d="M53.1592 60.22C53.8856 62.0908 53.5538 64.2101 52.2596 65.7488C51.4937 66.6594 50.6405 67.5983 49.6919 68.5476L49.6915 68.5485C47.8662 70.3719 46.0551 71.8566 44.3916 73.0591C43.3137 73.8384 41.9932 74.1917 40.6724 74.1023C39.3407 74.0122 37.9604 73.891 36.5347 73.7318L35.3199 73.5891C34.1167 73.4398 32.9503 73.2707 31.8221 73.087C30.1508 72.8147 28.6775 71.8355 27.787 70.3938C26.8428 68.8653 25.8908 67.2156 24.9613 65.4485L24.9617 65.4476C24.0916 63.7921 23.2911 62.1105 22.5789 60.5026C21.629 58.3579 22.0545 55.854 23.6793 54.1592C24.781 53.0102 25.9757 51.8361 27.2704 50.6531C28.5027 49.5306 29.7171 48.4974 30.8969 47.548C31.9991 46.6612 33.3874 46.2072 34.8009 46.2748C36.1365 46.3386 37.5302 46.4401 38.9777 46.5857C40.6753 46.7563 42.2913 46.9753 43.8204 47.2261C45.3651 47.4793 46.7473 48.3445 47.6256 49.6447C48.8421 51.4454 50.0933 53.534 51.266 55.9118L51.2656 55.9127C52.0014 57.4067 52.6272 58.8498 53.1592 60.22Z" fill="#E8EDFA" stroke="#1C1C1C" stroke-width="0.5" stroke-linejoin="round"/>
<mask id="mask0_18011_5198" style="mask-type:alpha" maskUnits="userSpaceOnUse" x="22" y="46" width="32" height="28">
<path d="M23.1959 60.4756C22.2845 58.4234 22.6924 56.0273 24.2485 54.4083C25.3031 53.311 26.4446 52.1906 27.6801 51.0618C28.865 49.9824 30.0325 48.9885 31.1678 48.0737C32.2221 47.2242 33.5504 46.7896 34.9027 46.8552C36.1866 46.9174 37.5257 47.0159 38.9161 47.1557C40.5469 47.3196 42.1 47.5288 43.5711 47.7689C45.05 48.0103 46.3712 48.8382 47.2086 50.0808C48.3804 51.8194 49.5843 53.8328 50.7133 56.1221C51.4158 57.5484 52.0145 58.9267 52.5255 60.2371C53.2222 62.0236 52.9044 64.0468 51.6676 65.5121C50.9365 66.3783 50.1241 67.2704 49.2228 68.1724C47.4656 69.9277 45.7223 71.3599 44.1185 72.522C43.0912 73.2664 41.8296 73.6049 40.5639 73.5187C39.282 73.4313 37.954 73.3141 36.5828 73.161C35.0118 72.9877 33.5029 72.778 32.0574 72.5436C30.4566 72.284 29.0455 71.3464 28.1944 69.9661C27.2863 68.4934 26.372 66.9054 25.4782 65.2063C24.6465 63.6238 23.8801 62.0161 23.1959 60.4756Z" fill="white" stroke="#231F20" stroke-width="0.5" stroke-linejoin="round"/>
</mask>
<g mask="url(#mask0_18011_5198)">
<path d="M34.8282 58.7062L47.9096 45.8447C49.4795 47.9626 50.5692 50.684 52.1367 53.8625C53.3757 56.3779 55.2017 60.8619 55.8853 62.9636C54.7458 64.532 51.8048 69.2991 50.041 71.0643C47.6772 73.4255 45.6561 74.6885 43.6483 76.0093C41.0882 71.0327 37.3937 63.6852 34.8282 58.7062Z" fill="#E8EDFA" stroke="#1C1C1C" stroke-width="0.5" stroke-miterlimit="10"/>
<path d="M29.0661 73.1257C27.72 71.0873 25.1313 67.8462 23.7871 65.2907C22.2768 62.4223 21.71 59.3233 20.7314 56.8193C25.0788 57.3543 30.4858 58.1766 34.8332 58.7115L43.2004 74.8375C41.3296 74.7491 38.9054 74.8436 36.8262 74.6114C34.3259 74.3356 31.2467 73.5386 29.0661 73.1257Z" fill="#4169E1" stroke="#1C1C1C" stroke-width="0.5" stroke-miterlimit="10"/>
<path d="M32.6675 45.9075C31.0222 47.1553 28.426 49.0901 26.6654 50.7013C24.3966 52.7743 21.6169 55.1978 19.9454 57.1203C24.2952 57.6498 30.4826 58.169 34.8324 58.6985L47.0411 47.0776C44.9266 46.6615 41.5516 46.3877 39.0418 46.1336C36.8784 45.916 35.3463 45.6471 33.4485 45.6051L32.6675 45.9075Z" fill="#E8EDFA" stroke="#1C1C1C" stroke-width="0.5" stroke-miterlimit="10"/>
<path d="M34.2086 49.043C34.124 49.3883 33.879 49.7554 33.5238 50.0826C33.1658 50.4123 32.7408 50.6601 32.3371 50.7915C31.946 50.9187 31.5193 50.954 31.1998 50.776L31.2011 50.7755C31.0334 50.6839 30.9147 50.5458 30.8563 50.3742C30.7994 50.2071 30.8043 50.0257 30.8471 49.8513C30.9319 49.5055 31.1767 49.136 31.5321 48.8086C31.89 48.479 32.3157 48.2324 32.7193 48.101C33.1105 47.9737 33.537 47.9385 33.8566 48.1165C34.0233 48.2095 34.1408 48.3494 34.199 48.5209C34.2554 48.6879 34.2512 48.8688 34.2086 49.043ZM35.1985 51.6045C35.114 51.9498 34.8686 52.3178 34.5133 52.645C34.1555 52.9745 33.7306 53.2216 33.327 53.353C32.9359 53.4803 32.5093 53.5155 32.1898 53.3375L32.1911 53.337C32.0233 53.2455 31.9047 53.1073 31.8462 52.9357C31.7894 52.7686 31.7943 52.5872 31.837 52.4128C31.9219 52.067 32.1666 51.6975 32.5221 51.3701C32.88 51.0405 33.3056 50.7939 33.7093 50.6625C34.1005 50.5352 34.527 50.4999 34.8465 50.678C35.0132 50.771 35.1308 50.9109 35.1889 51.0824C35.2453 51.2493 35.2411 51.4303 35.1985 51.6045ZM36.3981 54.4059C36.3136 54.7512 36.0691 55.1195 35.7138 55.4468C35.3559 55.7764 34.9308 56.0242 34.5271 56.1557C34.1361 56.2829 33.7093 56.3179 33.3899 56.1401L33.3911 56.1396C33.2234 56.0481 33.1052 55.909 33.0467 55.7375C32.9899 55.5705 32.9945 55.3897 33.0371 55.2154C33.1219 54.8696 33.3661 54.4989 33.7217 54.1714C34.0796 53.8418 34.5052 53.5952 34.9089 53.4638C35.3001 53.3365 35.7274 53.3016 36.047 53.4798C36.2134 53.5727 36.3304 53.7125 36.3885 53.8838C36.445 54.0506 36.4406 54.2317 36.3981 54.4059ZM33.6319 67.0329C33.759 67.5211 33.7124 67.9789 33.4021 68.2442C33.0905 68.5104 32.6305 68.4834 32.1688 68.2785C31.7003 68.0705 31.2399 67.687 30.8687 67.2462C30.4973 66.8051 30.1971 66.2851 30.0673 65.7869C29.9403 65.299 29.9868 64.8418 30.2967 64.5765C30.6082 64.3101 31.0687 64.3364 31.5304 64.5413C32.0022 64.7507 32.4626 65.1341 32.8332 65.5748C33.2039 66.0158 33.5021 66.535 33.6319 67.0329ZM41.5167 61.2936C41.1199 62.1957 40.1092 62.67 39.234 62.2815C38.3596 61.8927 38.0293 60.8234 38.4257 59.9215C38.8223 59.0196 39.8316 58.5449 40.7065 58.9328C41.5817 59.3213 41.9133 60.3913 41.5167 61.2936ZM47.3404 56.399C46.9437 57.3012 45.9329 57.7754 45.0578 57.3869C44.183 56.9982 43.852 55.9286 44.2485 55.0265C44.6452 54.1245 45.6553 53.6501 46.5303 54.0382C47.4053 54.4268 47.737 55.4968 47.3404 56.399ZM46.6245 62.1389C46.2276 63.0409 45.2172 63.5144 44.3422 63.1259C43.4675 62.7371 43.1363 61.6676 43.5329 60.7655C43.9297 59.8638 44.9394 59.3901 45.8143 59.7781C46.6894 60.1666 47.0211 61.2366 46.6245 62.1389ZM45.9009 67.8742C45.5041 68.7763 44.4946 69.25 43.6195 68.8617C42.7447 68.473 42.4136 67.4034 42.8103 66.5013C43.2071 65.5996 44.2168 65.1258 45.0916 65.5139C45.9665 65.9025 46.2975 66.9721 45.9009 67.8742ZM51.3286 62.1842C50.9319 63.0862 49.9222 63.5598 49.0472 63.1716C48.1725 62.7829 47.8411 61.7142 48.2375 60.8121C48.6343 59.9101 49.6443 59.4356 50.5193 59.8238C51.3941 60.2125 51.7251 61.2821 51.3286 62.1842Z" fill="#1C1C1C"/>
</g>
<defs>
<clipPath id="clip0_18011_5198">
<rect width="33.9807" height="34.5305" fill="white" transform="translate(29.1115 22)"/>
</clipPath>
</defs>
</svg>
