<svg width="102" height="102" viewBox="0 0 102 102" fill="none" xmlns="http://www.w3.org/2000/svg">
<rect x="0.5" y="0.5" width="101" height="101" rx="4.5" stroke="#9747FF" stroke-dasharray="10 5"/>
<path d="M67.476 43.941C67.476 53.6383 59.5933 61.4997 49.8694 61.4997C40.1454 61.4997 31.5649 52.988 31.5649 43.2907C30.6207 26.9317 40.1454 26.3823 49.8694 26.3823C59.5933 26.3823 68.01 27.2317 67.476 43.941Z" fill="#A395CC" stroke="#1C1C1C" stroke-width="0.5" stroke-miterlimit="10"/>
<path d="M49.4544 57.9267C59.3704 57.9267 67.4088 49.6604 67.4088 39.4634C67.4088 29.2663 59.3704 21 49.4544 21C39.5385 21 31.5001 29.2663 31.5001 39.4634C31.5001 49.6604 39.5385 57.9267 49.4544 57.9267Z" fill="#E0D0F5" stroke="#1C1C1C" stroke-width="0.5" stroke-miterlimit="10"/>
<path d="M49.5003 53.7649C57.3112 53.7649 63.6432 47.3594 63.6432 39.4578C63.6432 31.5562 57.3112 25.1507 49.5003 25.1507C41.6895 25.1507 35.3575 31.5562 35.3575 39.4578C35.3575 47.3594 41.6895 53.7649 49.5003 53.7649Z" fill="#A395CC" stroke="#1C1C1C" stroke-width="0.5" stroke-miterlimit="10"/>
<path d="M53.791 36.5905C53.4828 36.4153 53.0866 36.4153 52.7343 36.5905L50.2689 38.0352L48.5959 38.9546L46.1744 40.3994C45.8663 40.5746 45.47 40.5746 45.1178 40.3994L43.2247 39.2611C42.9165 39.086 42.6964 38.7357 42.6964 38.3417V36.1526C42.6964 35.8024 42.8725 35.4521 43.2247 35.2332L45.1178 34.1387C45.426 33.9636 45.8222 33.9636 46.1744 34.1387L48.0676 35.277C48.3758 35.4521 48.5959 35.8024 48.5959 36.1964V37.6412L50.2689 36.678V35.1895C50.2689 34.8392 50.0928 34.489 49.7406 34.2701L46.2185 32.2123C45.9103 32.0372 45.514 32.0372 45.1618 32.2123L41.5517 34.3138C41.1995 34.489 41.0234 34.8392 41.0234 35.1895V39.3049C41.0234 39.6551 41.1995 40.0054 41.5517 40.2243L45.1178 42.282C45.426 42.4571 45.8222 42.4571 46.1744 42.282L48.5959 40.881L50.2689 39.9178L52.6903 38.5168C52.9985 38.3417 53.3947 38.3417 53.7469 38.5168L55.6401 39.6114C55.9483 39.7865 56.1684 40.1367 56.1684 40.5308V42.7198C56.1684 43.0701 55.9923 43.4203 55.6401 43.6392L53.791 44.7338C53.4828 44.9089 53.0866 44.9089 52.7343 44.7338L50.8412 43.6392C50.533 43.4641 50.3129 43.1139 50.3129 42.7198V41.3188L48.6399 42.282V43.7268C48.6399 44.0771 48.816 44.4273 49.1682 44.6462L52.7343 46.7039C53.0425 46.879 53.4388 46.879 53.791 46.7039L57.3571 44.6462C57.6653 44.4711 57.8854 44.1208 57.8854 43.7268V39.5676C57.8854 39.2173 57.7093 38.8671 57.3571 38.6482L53.791 36.5905Z" fill="white"/>
<path d="M28.5575 49.645C28.7535 47.513 30.4517 45.8413 32.5792 45.6629C44.1962 44.6673 55.8039 44.6673 67.4209 45.6629C69.5484 45.8413 71.2373 47.5037 71.4612 49.6356C72.3477 58.4076 72.3477 67.1796 71.4612 75.9609C71.2373 78.0929 69.5484 79.7552 67.4209 79.9337C55.8412 80.9386 44.2615 80.9386 32.6725 79.9337C30.5077 79.7458 28.8001 78.0271 28.6135 75.8482C27.8484 66.7851 27.7644 58.0225 28.5575 49.645Z" fill="#4169E1" stroke="#1C1C1C" stroke-width="0.5" stroke-linejoin="round"/>
<path d="M28.5575 46.2639C28.7535 44.1319 30.4517 42.4602 32.5792 42.2817C44.1962 41.2862 55.8039 41.2862 67.4209 42.2817C69.5484 42.4602 71.2373 44.1225 71.4612 46.2545C72.3477 55.0265 72.3477 63.7984 71.4612 72.5798C71.2373 74.7118 69.5484 76.3741 67.4209 76.5526C55.8412 77.5575 44.2615 77.5575 32.6725 76.5526C30.5077 76.3647 28.8001 74.646 28.6135 72.4671C27.8484 63.404 27.7644 54.6414 28.5575 46.2639Z" fill="#CCD9FD" stroke="#1C1C1C" stroke-width="0.5" stroke-linejoin="round"/>
<path d="M52.8554 60.4174C52.9488 56.3037 56.4292 53.0354 60.5162 52.9603C64.6684 52.8851 68.774 53.0823 73.0756 53.505C73.6541 57.5716 73.4768 61.9013 73.3462 67.4049C73.3369 67.9872 72.8797 68.4756 72.3105 68.5225C68.4568 68.8606 64.6871 68.9827 60.8987 68.8888C56.4105 68.7761 52.7528 64.9536 52.8554 60.4174Z" fill="#4169E1" stroke="#1C1C1C" stroke-width="0.5" stroke-linejoin="round"/>
<path d="M52.8555 57.6938C52.9488 53.5708 56.4386 50.3212 60.5255 50.2085C64.4445 50.1052 68.3542 50.2085 72.2639 50.556C72.9077 50.6124 73.4209 51.1477 73.4582 51.8051C73.7568 57.2524 73.7475 59.0181 73.5236 65.7145C69.3433 66.1277 65.107 66.278 60.8801 66.1746C56.3826 66.0619 52.7435 62.2395 52.8462 57.6938H52.8555Z" fill="#CCD9FD" stroke="#1C1C1C" stroke-width="0.5" stroke-linejoin="round"/>
<path d="M60.2173 61.2721C62.2478 61.2721 63.8937 59.6154 63.8937 57.5717C63.8937 55.5281 62.2478 53.8713 60.2173 53.8713C58.1869 53.8713 56.541 55.5281 56.541 57.5717C56.541 59.6154 58.1869 61.2721 60.2173 61.2721Z" fill="white" stroke="#1C1C1C" stroke-width="0.5" stroke-linejoin="round"/>
</svg>
