<svg width="62" height="62" viewBox="0 0 62 62" fill="none" xmlns="http://www.w3.org/2000/svg">
<g clip-path="url(#clip0_18011_7857)">
<path d="M16.5061 24.1614C15.1433 21.6279 12.564 20.009 9.40857 20.009C6.63725 20.009 4.32325 21.2621 2.90558 23.2925L1.35986 24.2072V28.451C1.35986 33.3626 4.71654 36.9845 9.40857 36.9845C14.1006 36.9845 17.5396 33.3626 17.5396 28.451V24.6462L16.4969 24.1523L16.5061 24.1614Z" fill="#4169E1" stroke="#1C1C1C" stroke-width="0.5" stroke-linejoin="round"/>
<path d="M39.5547 37.1674C38.1737 34.7345 35.631 32.7132 32.5487 32.7132C29.6402 32.7132 27.2439 34.5699 25.8445 36.7741L24.5 36.9205V41.6399C24.5 46.5515 27.8567 50.1734 32.5487 50.1734C37.2407 50.1734 40.6797 46.5515 40.6797 41.6399V36.9205L39.5456 37.1674H39.5547Z" fill="#4169E1" stroke="#1C1C1C" stroke-width="0.5" stroke-linejoin="round"/>
<path d="M33.3719 17.5853L26.4939 19.4512L8.677 45.4722V49.0576C8.677 49.5606 9.08858 49.9722 9.59163 49.9722H15.2532C15.5733 49.9722 15.8751 49.8076 16.0397 49.5332L33.2438 20.9969C33.3262 20.8505 33.3719 20.695 33.3719 20.5213V17.5762V17.5853Z" fill="#4169E1" stroke="#1C1C1C" stroke-width="0.5" stroke-linejoin="round"/>
<path d="M9.40857 33.1888C4.71654 33.1888 1.35986 29.5669 1.35986 24.6554C1.35986 19.7438 4.71654 16.2134 9.40857 16.2134C14.1006 16.2134 17.5396 19.7896 17.5396 24.6554C17.5396 29.5212 14.1006 33.1888 9.40857 33.1888ZM9.44515 22.2133C8.03663 22.2133 7.11286 23.2286 7.11286 24.6645C7.11286 26.1005 8.03663 27.1523 9.44515 27.1523C10.8537 27.1523 11.75 26.1005 11.75 24.6645C11.75 23.2286 10.7988 22.2133 9.44515 22.2133ZM9.63723 46.1765C8.92382 46.1765 8.4848 45.3899 8.85979 44.7863L26.073 16.7896C26.2377 16.5152 26.5304 16.3506 26.8505 16.3506H32.2285C32.9419 16.3506 33.3809 17.1372 33.0059 17.7408L15.875 45.7375C15.7103 46.0119 15.4177 46.1765 15.0975 46.1765H9.63723ZM32.5577 46.3594C27.8657 46.3594 24.509 42.7375 24.509 37.826C24.509 32.9144 27.8657 29.384 32.5577 29.384C37.2498 29.384 40.6888 32.9602 40.6888 37.826C40.6888 42.6918 37.2498 46.3594 32.5577 46.3594ZM32.5852 35.4297C31.2132 35.4297 30.2986 36.4266 30.2986 37.8351C30.2986 39.2436 31.2041 40.268 32.5852 40.268C33.9663 40.268 34.8443 39.2436 34.8443 37.8351C34.8443 36.4266 33.9114 35.4297 32.5852 35.4297Z" fill="#CCD9FD" stroke="#1C1C1C" stroke-width="0.5" stroke-linejoin="round"/>
<path d="M44.6766 40.8808C44.1827 40.8808 43.7711 40.4875 43.7711 39.9936C43.7711 35.6583 44.7498 32.1918 48.4814 30.0425C49.8259 29.137 51.1064 28.1949 51.8564 26.8047C52.954 24.8474 52.2771 21.9846 50.2009 21.0243C47.5394 19.6432 44.0455 21.1432 43.4784 24.134C43.387 24.637 42.9845 25.0578 42.4723 25.0578H37.0212C36.5181 25.0578 36.1065 24.637 36.1431 24.134C37.2041 8.94207 65.1185 12.189 59.4935 28.1766C58.0759 31.826 54.8838 32.7955 52.3503 35.1369C51.0515 36.454 50.6217 38.0912 50.5576 39.957C50.5393 40.4692 50.1278 40.8899 49.6156 40.8899H44.6674L44.6766 40.8808Z" fill="#FF9500" stroke="#1C1C1C" stroke-width="0.5" stroke-linejoin="round"/>
<path d="M50.6949 50.082C50.6401 50.4844 50.32 50.7954 49.9084 50.832C49.0944 50.9051 48.2072 50.96 47.256 50.96C46.2316 50.96 45.2712 50.9143 44.4023 50.832C43.9999 50.7954 43.6706 50.4844 43.6157 50.082C43.506 49.2222 43.4237 48.2436 43.4328 47.1643C43.4328 45.8838 43.5609 44.7406 43.7164 43.7802C44.6493 43.6156 45.7651 43.4967 47.0182 43.4875C48.3809 43.4784 49.5883 43.6064 50.5852 43.7802C50.7498 44.7497 50.8687 45.9021 50.8687 47.2009C50.8687 48.2619 50.7956 49.2314 50.6858 50.082H50.6949Z" fill="#FF9500" stroke="#1C1C1C" stroke-width="0.5" stroke-linejoin="round"/>
<path d="M44.6766 38.2284C44.1827 38.2284 43.7711 37.8351 43.7711 37.332C43.7711 32.9967 44.7498 29.5303 48.4814 27.3809C49.8259 26.4754 51.1064 25.5334 51.8564 24.1431C52.954 22.1858 52.2771 19.3231 50.2009 18.3627C47.5394 16.9816 44.0455 18.4816 43.4784 21.4724C43.387 21.9755 42.9845 22.3962 42.4723 22.3962H37.0212C36.5181 22.3962 36.1065 21.9755 36.1431 21.4724C37.2041 6.28051 65.1185 9.52743 59.4935 25.5151C58.0759 29.1644 54.8838 30.1339 52.3503 32.4754C51.0515 33.7924 50.6217 35.4296 50.5576 37.2955C50.5393 37.8076 50.1278 38.2284 49.6156 38.2284H44.6674H44.6766Z" fill="#FFE2C8" stroke="#1C1C1C" stroke-width="0.5" stroke-linejoin="round"/>
<path d="M50.6949 47.4295C50.6401 47.832 50.32 48.1429 49.9084 48.1795C49.0944 48.2527 48.2072 48.3076 47.256 48.3076C46.2316 48.3076 45.2712 48.2618 44.4023 48.1795C43.9999 48.1429 43.6706 47.832 43.6157 47.4295C43.506 46.5698 43.4237 45.5911 43.4328 44.5119C43.4328 43.5058 43.5151 42.582 43.6249 41.768C43.6798 41.3839 43.9816 41.082 44.3657 41.0272C45.1523 40.9174 46.0487 40.8351 47.0273 40.8351C48.1157 40.8351 49.0944 40.9083 49.9541 41.0272C50.3382 41.082 50.6401 41.3839 50.6949 41.768C50.8047 42.5912 50.8779 43.5241 50.887 44.5485C50.887 45.6094 50.8139 46.5789 50.7041 47.4295H50.6949Z" fill="#FFE2C8" stroke="#1C1C1C" stroke-width="0.5" stroke-linejoin="round"/>
</g>
<defs>
<clipPath id="clip0_18011_7857">
<rect width="62" height="62" rx="5" fill="white"/>
</clipPath>
</defs>
</svg>
