<svg width="62" height="62" viewBox="0 0 62 62" fill="none" xmlns="http://www.w3.org/2000/svg">
<g clip-path="url(#clip0_18011_8044)">
<g clip-path="url(#clip1_18011_8044)">
<path d="M1.71997 14.75C1.71997 11.4363 4.40626 8.75 7.71997 8.75H44.8034C48.1172 8.75 50.8034 11.4363 50.8034 14.75V42.3335C50.8034 45.6472 48.1171 48.3334 44.8034 48.3334H7.71997C4.40626 48.3334 1.71997 45.6472 1.71997 42.3334V14.75Z" fill="#4169E1" stroke="#1C1C1C" stroke-width="0.5" stroke-miterlimit="10" stroke-linejoin="round"/>
<path d="M1.71973 9.99999C1.71973 6.68628 4.40602 4 7.71973 4H44.8032C48.1169 4 50.8032 6.68629 50.8032 10V37.5835C50.8032 40.8972 48.1169 43.5834 44.8032 43.5834H7.71972C4.40601 43.5834 1.71973 40.8972 1.71973 37.5834V9.99999Z" fill="#E8EDFA" stroke="#1C1C1C" stroke-width="0.5" stroke-miterlimit="10" stroke-linejoin="round"/>
<rect x="4.8866" y="15.8751" width="30.0834" height="24.5417" rx="2" fill="#E8EDFA" stroke="#1C1C1C" stroke-width="0.5" stroke-miterlimit="10" stroke-linejoin="round"/>
<rect x="38.1367" y="15.8751" width="9.50003" height="11.0834" rx="2" fill="#4169E1" stroke="#1C1C1C" stroke-width="0.5" stroke-miterlimit="10" stroke-linejoin="round"/>
<rect x="38.1367" y="29.3334" width="9.50003" height="11.0834" rx="2" fill="#4169E1" stroke="#1C1C1C" stroke-width="0.5" stroke-miterlimit="10" stroke-linejoin="round"/>
<path d="M1.71973 10C1.71973 6.68629 4.40602 4 7.71973 4H44.8032C48.1169 4 50.8032 6.68629 50.8032 10V13.5H1.71973V10Z" fill="#FF9500" stroke="#1C1C1C" stroke-width="0.5" stroke-miterlimit="10" stroke-linejoin="round"/>
<path d="M24.5384 25.0469C24.6689 26.3225 24.1471 27.098 23.3425 27.5329C24.6906 27.8808 25.5241 28.7071 25.3647 30.5915C25.1545 32.9253 23.5092 33.5632 21.1464 33.7009V35.4476C21.1464 35.839 20.8275 36.1506 20.4434 36.1506C20.0592 36.1506 19.7403 35.8317 19.7403 35.4476V33.7371C19.3779 33.7371 19.0011 33.7371 18.6242 33.7226V35.4476C18.6242 35.839 18.3053 36.1506 17.9211 36.1506C17.537 36.1506 17.2181 35.8317 17.2181 35.4476V33.7009C16.8919 33.7009 16.5585 33.6864 16.2179 33.6864H15.4134C14.8698 33.6864 14.4639 33.2008 14.5509 32.6644C14.6233 32.2368 14.993 31.9324 15.4278 31.9324C15.7033 31.9324 15.696 31.9251 15.696 31.9251C16.0874 31.9251 16.1889 31.6352 16.2179 31.425V27.5619V24.786C16.1671 24.4961 15.9714 24.1337 15.3989 24.1337C15.3989 24.1337 15.3989 24.1337 15.1742 24.1264C14.7393 24.1264 14.3842 23.7785 14.3842 23.3436C14.3842 22.9088 14.7321 22.5681 15.1597 22.5681H17.2253V20.8431C17.2253 20.4517 17.5442 20.1401 17.9284 20.1401C18.3125 20.1401 18.6314 20.459 18.6314 20.8431V22.5174C19.0083 22.5174 19.3707 22.5029 19.7476 22.5029V20.8431C19.7476 20.4517 20.0665 20.1401 20.4506 20.1401C20.8348 20.1401 21.1537 20.459 21.1537 20.8431V22.5681C22.9584 22.7203 24.408 23.3074 24.5529 25.0686L24.5384 25.0469ZM22.567 30.2944C22.567 28.3954 19.5809 28.6708 18.6242 28.6708V31.9179C19.5736 31.9179 22.567 32.1426 22.567 30.2944ZM21.922 25.7209C21.922 23.9742 19.4214 24.2351 18.6169 24.2351V27.185C19.4214 27.185 21.922 27.3735 21.922 25.7209Z" fill="#1C1C1C"/>
<path d="M7.2616 11.125C8.57328 11.125 9.63661 10.0616 9.63661 8.74995C9.63661 7.43827 8.57328 6.37494 7.2616 6.37494C5.94992 6.37494 4.8866 7.43827 4.8866 8.74995C4.8866 10.0616 5.94992 11.125 7.2616 11.125Z" fill="#E8EDFA" stroke="#1C1C1C" stroke-width="0.5" stroke-miterlimit="10" stroke-linejoin="round"/>
<path d="M14.3866 11.125C15.6983 11.125 16.7616 10.0616 16.7616 8.74995C16.7616 7.43827 15.6983 6.37494 14.3866 6.37494C13.0749 6.37494 12.0116 7.43827 12.0116 8.74995C12.0116 10.0616 13.0749 11.125 14.3866 11.125Z" fill="#4169E1" stroke="#1C1C1C" stroke-width="0.5" stroke-miterlimit="10" stroke-linejoin="round"/>
<path d="M21.5117 11.125C22.8234 11.125 23.8867 10.0616 23.8867 8.74995C23.8867 7.43827 22.8234 6.37494 21.5117 6.37494C20.2 6.37494 19.1367 7.43827 19.1367 8.74995C19.1367 10.0616 20.2 11.125 21.5117 11.125Z" fill="#4169E1" stroke="#1C1C1C" stroke-width="0.5" stroke-miterlimit="10" stroke-linejoin="round"/>
<path d="M42.3001 38.3719C42.2977 38.2281 42.358 38.0898 42.4644 37.9931C42.5444 37.9207 42.6456 37.8769 42.7511 37.8663L42.8586 37.8673L60.7848 39.9649C61.0361 39.9946 61.2252 40.2076 61.2258 40.4607L61.2387 46.8753C61.2389 47.0494 61.1485 47.2114 61.0001 47.3024L55.8207 50.4786C55.217 50.8488 54.8541 51.5106 54.8666 52.2186L54.9734 58.3004C54.9771 58.5119 54.8473 58.7032 54.6493 58.7776C54.451 58.8518 54.2269 58.7927 54.0907 58.6305L42.5281 44.8554C42.5273 44.8544 42.526 44.8537 42.5252 44.8527C42.4715 44.7886 42.4346 44.7125 42.4182 44.6314L42.4076 44.541L42.3001 38.3719Z" fill="#4169E1"/>
<path d="M42.3001 38.3719L42.0501 38.376L42.0501 38.3763L42.3001 38.3719ZM42.4644 37.9931L42.2966 37.8078L42.2963 37.808L42.4644 37.9931ZM42.7511 37.8663L42.7535 37.6163C42.7444 37.6162 42.7353 37.6166 42.7262 37.6176L42.7511 37.8663ZM42.8586 37.8673L42.8876 37.619C42.8788 37.618 42.8699 37.6174 42.861 37.6173L42.8586 37.8673ZM60.7848 39.9649L60.8142 39.7167L60.8139 39.7166L60.7848 39.9649ZM61.2258 40.4607L61.4758 40.4602L61.4758 40.4601L61.2258 40.4607ZM61.2387 46.8753L61.4887 46.875L61.4887 46.8748L61.2387 46.8753ZM61.0001 47.3024L60.8694 47.0893L60.8694 47.0893L61.0001 47.3024ZM54.9734 58.3004L55.2233 58.296L55.2233 58.296L54.9734 58.3004ZM54.6493 58.7776L54.7369 59.0117L54.7373 59.0116L54.6493 58.7776ZM54.0907 58.6305L53.8992 58.7912L53.8992 58.7912L54.0907 58.6305ZM42.5281 44.8554L42.3365 45.0159L42.3366 45.0161L42.5281 44.8554ZM42.5252 44.8527L42.7181 44.6936L42.7169 44.6922L42.5252 44.8527ZM42.4182 44.6314L42.1699 44.6604C42.1707 44.6673 42.1718 44.6743 42.1732 44.6811L42.4182 44.6314ZM42.4076 44.541L42.1577 44.5453C42.1578 44.5535 42.1584 44.5618 42.1593 44.5699L42.4076 44.541ZM55.8207 50.4786L55.69 50.2655L55.8207 50.4786ZM54.8666 52.2186L54.6166 52.223L54.8666 52.2186ZM42.3001 38.3719L42.5501 38.3678C42.5489 38.2963 42.5789 38.2268 42.6325 38.1781L42.4644 37.9931L42.2963 37.808C42.137 37.9528 42.0466 38.1599 42.0501 38.376L42.3001 38.3719ZM42.4644 37.9931L42.6322 38.1784C42.6716 38.1427 42.7225 38.1204 42.776 38.1151L42.7511 37.8663L42.7262 37.6176C42.5688 37.6333 42.4171 37.6987 42.2966 37.8078L42.4644 37.9931ZM42.7511 37.8663L42.7487 38.1163L42.8562 38.1173L42.8586 37.8673L42.861 37.6173L42.7535 37.6163L42.7511 37.8663ZM42.8586 37.8673L42.8295 38.1156L60.7558 40.2132L60.7848 39.9649L60.8139 39.7166L42.8876 37.619L42.8586 37.8673ZM60.7848 39.9649L60.7555 40.2132C60.8807 40.228 60.9755 40.3343 60.9758 40.4612L61.2258 40.4607L61.4758 40.4601C61.4749 40.081 61.1915 39.7613 60.8142 39.7167L60.7848 39.9649ZM61.2258 40.4607L60.9758 40.4612L60.9887 46.8758L61.2387 46.8753L61.4887 46.8748L61.4758 40.4602L61.2258 40.4607ZM61.2387 46.8753L60.9887 46.8756C60.9888 46.9627 60.9435 47.0438 60.8694 47.0893L61.0001 47.3024L61.1307 47.5155C61.3535 47.3789 61.4891 47.1361 61.4887 46.875L61.2387 46.8753ZM61.0001 47.3024L60.8694 47.0893L55.69 50.2655L55.8207 50.4786L55.9514 50.6917L61.1308 47.5155L61.0001 47.3024ZM54.8666 52.2186L54.6166 52.223L54.7234 58.3048L54.9734 58.3004L55.2233 58.296L55.1165 52.2143L54.8666 52.2186ZM54.9734 58.3004L54.7234 58.3048C54.7253 58.4107 54.6602 58.5064 54.5614 58.5436L54.6493 58.7776L54.7373 59.0116C55.0344 58.9 55.2289 58.6131 55.2233 58.296L54.9734 58.3004ZM54.6493 58.7776L54.5617 58.5434C54.4627 58.5805 54.3503 58.5509 54.2822 58.4698L54.0907 58.6305L53.8992 58.7912C54.1034 59.0345 54.4393 59.1231 54.7369 59.0117L54.6493 58.7776ZM54.0907 58.6305L54.2822 58.4698L42.7196 44.6947L42.5281 44.8554L42.3366 45.0161L53.8992 58.7912L54.0907 58.6305ZM42.5281 44.8554L42.7198 44.6949C42.7093 44.6824 42.6997 44.6734 42.6939 44.6682C42.6909 44.6655 42.6884 44.6634 42.6868 44.6621C42.6861 44.6615 42.6854 44.6609 42.685 44.6606C42.6848 44.6604 42.6846 44.6603 42.6845 44.6602C42.6844 44.6601 42.6843 44.66 42.6843 44.66C42.6841 44.6598 42.6851 44.6607 42.6864 44.6618C42.6878 44.6629 42.6901 44.6649 42.693 44.6675C42.6986 44.6725 42.7079 44.6813 42.7181 44.6936L42.5252 44.8527L42.3322 45.0117C42.3428 45.0245 42.3526 45.0338 42.3587 45.0393C42.3618 45.0421 42.3644 45.0443 42.3661 45.0457C42.3676 45.0469 42.3689 45.048 42.3689 45.048C42.3693 45.0483 42.3683 45.0475 42.3672 45.0466C42.3659 45.0455 42.3637 45.0437 42.3609 45.0412C42.3556 45.0365 42.3465 45.0279 42.3365 45.0159L42.5281 44.8554ZM42.5252 44.8527L42.7169 44.6922C42.6895 44.6595 42.6712 44.6213 42.6632 44.5817L42.4182 44.6314L42.1732 44.6811C42.1981 44.8037 42.2536 44.9177 42.3334 45.0131L42.5252 44.8527ZM42.4182 44.6314L42.6665 44.6024L42.6559 44.512L42.4076 44.541L42.1593 44.5699L42.1699 44.6604L42.4182 44.6314ZM42.4076 44.541L42.6576 44.5366L42.5501 38.3675L42.3001 38.3719L42.0501 38.3763L42.1577 44.5453L42.4076 44.541ZM55.8207 50.4786L55.69 50.2655C55.0109 50.6819 54.6026 51.4265 54.6166 52.223L54.8666 52.2186L55.1165 52.2143C55.1056 51.5947 55.4232 51.0156 55.9514 50.6917L55.8207 50.4786Z" fill="#1C1C1C"/>
<path d="M42.4677 37.7295C42.5525 37.5663 42.719 37.4638 42.8989 37.4592L42.9765 37.4639L60.8077 39.8079C61.0175 39.8355 61.1879 39.9929 61.2321 40.1999C61.2759 40.4068 61.1841 40.6189 61.0039 40.7296L55.8184 43.9091C55.2147 44.2793 54.8518 44.9412 54.8642 45.6492L54.971 51.7309C54.9747 51.9425 54.845 52.1338 54.6469 52.2081C54.4486 52.2823 54.2245 52.2232 54.0883 52.061L42.5257 38.2859C42.4004 38.1363 42.377 37.9321 42.4539 37.7609C42.4584 37.7505 42.4625 37.7398 42.4677 37.7295Z" fill="#E8EDFA"/>
<path d="M42.4677 37.7295L42.2459 37.6144L42.2457 37.6147L42.4677 37.7295ZM42.8989 37.4592L42.914 37.2097C42.9068 37.2092 42.8996 37.2091 42.8925 37.2093L42.8989 37.4592ZM42.9765 37.4639L43.0091 37.216C43.0033 37.2153 42.9974 37.2147 42.9916 37.2144L42.9765 37.4639ZM60.8077 39.8079L60.8404 39.56L60.8403 39.56L60.8077 39.8079ZM61.2321 40.1999L61.4766 40.148L61.4766 40.1476L61.2321 40.1999ZM61.0039 40.7296L61.1346 40.9428L61.1348 40.9427L61.0039 40.7296ZM54.971 51.7309L55.221 51.7265L55.221 51.7265L54.971 51.7309ZM54.6469 52.2081L54.7345 52.4423L54.7348 52.4422L54.6469 52.2081ZM54.0883 52.061L53.8968 52.2217L53.8968 52.2218L54.0883 52.061ZM42.5257 38.2859L42.3341 38.4464L42.3342 38.4466L42.5257 38.2859ZM42.4539 37.7609L42.682 37.8633L42.6833 37.8603L42.4539 37.7609ZM54.8642 45.6492L55.1141 45.6449L54.8642 45.6492ZM42.4677 37.7295L42.6896 37.8447C42.7322 37.7626 42.816 37.7114 42.9053 37.7091L42.8989 37.4592L42.8925 37.2093C42.622 37.2162 42.3727 37.3699 42.2459 37.6144L42.4677 37.7295ZM42.8989 37.4592L42.8838 37.7087L42.9614 37.7134L42.9765 37.4639L42.9916 37.2144L42.914 37.2097L42.8989 37.4592ZM42.9765 37.4639L42.9439 37.7118L60.7751 40.0558L60.8077 39.8079L60.8403 39.56L43.0091 37.216L42.9765 37.4639ZM60.8077 39.8079L60.7751 40.0557C60.8799 40.0696 60.9655 40.1486 60.9876 40.2521L61.2321 40.1999L61.4766 40.1476C61.4103 39.8373 61.1551 39.6015 60.8404 39.56L60.8077 39.8079ZM61.2321 40.1999L60.9875 40.2517C61.0093 40.3545 60.9637 40.4609 60.8731 40.5166L61.0039 40.7296L61.1348 40.9427C61.4045 40.777 61.5426 40.459 61.4766 40.148L61.2321 40.1999ZM61.0039 40.7296L60.8732 40.5165L55.6878 43.696L55.8184 43.9091L55.9491 44.1222L61.1346 40.9428L61.0039 40.7296ZM54.8642 45.6492L54.6142 45.6536L54.721 51.7353L54.971 51.7309L55.221 51.7265L55.1141 45.6449L54.8642 45.6492ZM54.971 51.7309L54.721 51.7353C54.7229 51.8414 54.6578 51.937 54.5591 51.974L54.6469 52.2081L54.7348 52.4422C55.0322 52.3305 55.2265 52.0436 55.221 51.7265L54.971 51.7309ZM54.6469 52.2081L54.5594 51.9739C54.4603 52.011 54.3479 51.9814 54.2798 51.9003L54.0883 52.061L53.8968 52.2218C54.101 52.4649 54.4369 52.5536 54.7345 52.4423L54.6469 52.2081ZM54.0883 52.061L54.2798 51.9003L42.7172 38.1252L42.5257 38.2859L42.3342 38.4466L53.8968 52.2217L54.0883 52.061ZM42.5257 38.2859L42.7174 38.1254C42.6555 38.0515 42.6431 37.9499 42.6819 37.8633L42.4539 37.7609L42.2258 37.6585C42.111 37.9143 42.1453 38.2211 42.3341 38.4464L42.5257 38.2859ZM42.4539 37.7609L42.6833 37.8603C42.6851 37.856 42.6868 37.8521 42.6879 37.8494C42.6892 37.8462 42.6899 37.8447 42.6905 37.8431C42.6918 37.8401 42.6914 37.8414 42.6898 37.8443L42.4677 37.7295L42.2457 37.6147C42.2388 37.6279 42.2337 37.6397 42.2305 37.6472C42.2249 37.6603 42.2274 37.6547 42.2245 37.6616L42.4539 37.7609ZM55.8184 43.9091L55.6878 43.696C55.0086 44.1124 54.6002 44.857 54.6142 45.6536L54.8642 45.6492L55.1141 45.6449C55.1033 45.0253 55.4209 44.4461 55.9491 44.1222L55.8184 43.9091Z" fill="#1C1C1C"/>
</g>
</g>
<defs>
<clipPath id="clip0_18011_8044">
<rect width="62" height="62" rx="5" fill="white"/>
</clipPath>
<clipPath id="clip1_18011_8044">
<rect width="62" height="62" fill="white"/>
</clipPath>
</defs>
</svg>
