<svg width="102" height="102" viewBox="0 0 102 102" fill="none" xmlns="http://www.w3.org/2000/svg">
<rect x="0.5" y="0.5" width="101" height="101" rx="4.5" stroke="#8A38F5" stroke-dasharray="10 5"/>
<path d="M31.3638 25.3131C31.4095 24.3106 32.2422 23.5247 33.2518 23.5247C35.1903 23.4013 37.1533 23.2977 39.1397 23.2162C48.6152 22.8285 57.6503 22.981 66.1922 23.5236C66.6092 23.5562 67.1117 23.6773 67.497 24.0428C67.8367 24.3653 68.0569 24.8124 68.0791 25.3131C68.4024 32.4035 68.571 39.8129 68.5383 47.518C68.5078 54.5223 68.3157 61.2762 67.9936 67.7612H31.4493C31.0944 60.6941 30.8929 53.2847 30.8953 45.5609C30.8953 38.545 31.0651 31.7887 31.3638 25.3142V25.3131Z" fill="#4169E1" stroke="#1C1C1C" stroke-width="0.5" stroke-miterlimit="10" stroke-linejoin="round"/>
<path d="M23.7342 25.3163C23.7799 24.3138 24.6126 23.5279 25.6223 23.5279C30.7922 23.3277 36.1425 23.2147 41.6626 23.2089C47.4884 23.2031 53.1268 23.3172 58.5626 23.5279C58.9796 23.5605 59.4821 23.6816 59.8674 24.0472C60.2071 24.3697 60.4273 24.8168 60.4495 25.3174C60.7728 32.4078 60.9415 39.8173 60.9087 47.5224C60.8782 54.5267 60.6861 61.2806 60.364 67.7656H23.8209C23.466 60.6985 23.2645 53.289 23.2669 45.5653C23.2669 38.5494 23.4367 31.7931 23.7354 25.3186L23.7342 25.3163Z" fill="#CCD9FD" stroke="#1C1C1C" stroke-width="0.5" stroke-miterlimit="10" stroke-linejoin="round"/>
<path d="M28.4009 69.2537C28.5122 68.3817 29.2442 67.7332 30.1285 67.7029C37.9021 67.4421 59.7437 67.4328 67.6579 67.7029C68.5433 67.7332 69.28 68.384 69.389 69.2584C69.5693 70.7032 69.683 72.3367 69.6584 74.1262C69.6396 75.5373 69.5377 76.8448 69.3901 78.0311C69.28 78.9113 68.534 79.5645 67.6415 79.6029C61.7091 79.8544 55.5494 79.9953 49.1778 79.9999C42.6035 80.0046 36.2542 79.8614 30.1472 79.6029C29.2571 79.5657 28.511 78.9137 28.4009 78.0358C28.2393 76.7598 28.1315 75.3335 28.1245 73.7816C28.1186 72.1213 28.2311 70.6019 28.4021 69.2549L28.4009 69.2537Z" fill="#4169E1" stroke="#1C1C1C" stroke-width="0.5" stroke-miterlimit="10" stroke-linejoin="round"/>
<path d="M21.8162 69.2537C21.9275 68.3817 22.6595 67.7332 23.5438 67.7029C31.3174 67.4421 53.159 67.4328 61.0731 67.7029C61.9586 67.7332 62.6953 68.384 62.8043 69.2584C62.9846 70.7032 63.0982 72.3367 63.0736 74.1262C63.0549 75.5373 62.953 76.8448 62.8054 78.0311C62.6953 78.9113 61.9492 79.5645 61.0567 79.6029C55.1243 79.8544 48.9647 79.9953 42.5931 79.9999C36.0188 80.0046 29.6695 79.8614 23.5625 79.6029C22.6724 79.5657 21.9263 78.9137 21.8162 78.0358C21.6546 76.7598 21.5468 75.3335 21.5398 73.7816C21.5339 72.1213 21.6464 70.6019 21.8174 69.2549L21.8162 69.2537Z" fill="#CCD9FD" stroke="#1C1C1C" stroke-width="0.5" stroke-miterlimit="10" stroke-linejoin="round"/>
<path d="M54.7517 51.3661C50.8197 51.5803 46.6876 51.7061 42.3715 51.7119C37.8481 51.7177 33.525 51.5908 29.4221 51.3661C29.1914 48.5614 29.0543 42.9976 29.0684 39.7458C29.0813 36.8386 29.2124 31.5822 29.4221 29.0382C33.2767 28.7262 37.4405 28.5329 41.876 28.5271C46.472 28.5213 50.7764 28.7169 54.7517 29.0382C54.9508 31.4226 55.0808 36.4905 55.1077 39.1834C55.1417 42.6448 55 48.3972 54.7517 51.3661Z" fill="#E8EDFA" stroke="#1C1C1C" stroke-width="0.5" stroke-miterlimit="10" stroke-linejoin="round"/>
<path d="M66.3406 26.406C66.8127 25.8065 67.6815 25.7025 68.281 26.1746L75.1521 31.5857C76.1502 32.3716 76.7331 33.5722 76.7332 34.8425V60.5896C76.733 62.8788 74.8769 64.7351 72.5876 64.7351H68.197C65.9078 64.7351 64.0517 62.8788 64.0515 60.5896V38.5281C64.0515 38.2423 63.8492 38.0024 63.5798 37.947L63.4597 37.9353L63.3181 37.9285C62.6218 37.8575 62.0783 37.2694 62.0779 36.5544C62.0779 35.7914 62.6966 35.1727 63.4597 35.1726L63.6326 35.1765C65.4054 35.2664 66.8152 36.7329 66.8152 38.5281V60.5896C66.8154 61.3526 67.434 61.9714 68.197 61.9714H72.5876C73.3507 61.9714 73.9693 61.3526 73.9695 60.5896V34.8425C73.9694 34.4194 73.7754 34.0195 73.4431 33.7576L66.5701 28.3464C65.9708 27.8743 65.8686 27.0055 66.3406 26.406Z" fill="#CCD9FD"/>
<path d="M66.3406 26.406L66.1442 26.2513L66.1442 26.2514L66.3406 26.406ZM68.281 26.1746L68.4357 25.9782L68.4357 25.9781L68.281 26.1746ZM75.1521 31.5857L74.9974 31.7821L74.9974 31.7821L75.1521 31.5857ZM76.7332 34.8425L76.9832 34.8425L76.9832 34.8425L76.7332 34.8425ZM76.7332 60.5896L76.9832 60.5896V60.5896H76.7332ZM64.0515 60.5896L63.8015 60.5896L63.8015 60.5896L64.0515 60.5896ZM63.5798 37.947L63.6302 37.7022C63.6216 37.7004 63.6129 37.6991 63.6041 37.6982L63.5798 37.947ZM63.4597 37.9353L63.484 37.6862L63.4718 37.6856L63.4597 37.9353ZM63.3181 37.9285L63.2927 38.1775L63.3061 38.1782L63.3181 37.9285ZM62.0779 36.5544L61.8279 36.5544L61.8279 36.5546L62.0779 36.5544ZM63.4597 35.1726L63.4654 34.9226L63.4597 34.9226L63.4597 35.1726ZM63.6326 35.1765L63.6452 34.9267L63.6382 34.9266L63.6326 35.1765ZM66.8152 60.5896L66.5652 60.5896L66.5652 60.5897L66.8152 60.5896ZM73.9695 60.5896L74.2195 60.5897V60.5896H73.9695ZM73.9695 34.8425L74.2195 34.8425L74.2195 34.8425L73.9695 34.8425ZM73.4431 33.7576L73.5979 33.5612L73.5978 33.5611L73.4431 33.7576ZM66.5701 28.3464L66.4154 28.5428L66.4154 28.5429L66.5701 28.3464ZM66.3406 26.406L66.537 26.5607C66.9238 26.0695 67.6355 25.9845 68.1264 26.371L68.281 26.1746L68.4357 25.9781C67.7275 25.4205 66.7015 25.5435 66.1442 26.2513L66.3406 26.406ZM68.281 26.1746L68.1263 26.371L74.9974 31.7821L75.1521 31.5857L75.3068 31.3893L68.4357 25.9782L68.281 26.1746ZM75.1521 31.5857L74.9974 31.7821C75.9354 32.5206 76.4831 33.6488 76.4832 34.8425L76.7332 34.8425L76.9832 34.8425C76.9831 33.4955 76.3651 32.2226 75.3068 31.3893L75.1521 31.5857ZM76.7332 34.8425H76.4832V60.5896H76.7332H76.9832V34.8425H76.7332ZM76.7332 60.5896L76.4832 60.5896C76.483 62.7408 74.7388 64.4851 72.5876 64.4851V64.7351V64.9851C75.015 64.9851 76.983 63.0169 76.9832 60.5896L76.7332 60.5896ZM72.5876 64.7351V64.4851H68.197V64.7351V64.9851H72.5876V64.7351ZM68.197 64.7351V64.4851C66.0459 64.4851 64.3017 62.7408 64.3015 60.5896L64.0515 60.5896L63.8015 60.5896C63.8017 63.0169 65.7697 64.9851 68.197 64.9851V64.7351ZM64.0515 60.5896H64.3015V38.5281H64.0515H63.8015V60.5896H64.0515ZM64.0515 38.5281H64.3015C64.3015 38.1222 64.0143 37.7812 63.6302 37.7022L63.5798 37.947L63.5294 38.1919C63.6841 38.2237 63.8015 38.3625 63.8015 38.5281H64.0515ZM63.5798 37.947L63.6041 37.6982L63.484 37.6865L63.4597 37.9353L63.4354 38.1841L63.5556 38.1958L63.5798 37.947ZM63.4597 37.9353L63.4718 37.6856L63.3302 37.6788L63.3181 37.9285L63.3061 38.1782L63.4477 38.185L63.4597 37.9353ZM63.3181 37.9285L63.3434 37.6798C62.7734 37.6217 62.3282 37.1397 62.3279 36.5543L62.0779 36.5544L61.8279 36.5546C61.8283 37.399 62.4702 38.0934 63.2928 38.1772L63.3181 37.9285ZM62.0779 36.5544H62.3279C62.3279 35.9294 62.8347 35.4227 63.4597 35.4226L63.4597 35.1726L63.4597 34.9226C62.5586 34.9227 61.8279 35.6533 61.8279 36.5544H62.0779ZM63.4597 35.1726L63.4541 35.4225L63.6269 35.4264L63.6326 35.1765L63.6382 34.9266L63.4654 34.9227L63.4597 35.1726ZM63.6326 35.1765L63.6199 35.4262C65.2604 35.5094 66.5652 36.8667 66.5652 38.5281H66.8152H67.0652C67.0652 36.5992 65.5504 35.0235 63.6452 34.9268L63.6326 35.1765ZM66.8152 38.5281H66.5652V60.5896H66.8152H67.0652V38.5281H66.8152ZM66.8152 60.5896L66.5652 60.5897C66.5654 61.4906 67.2959 62.2214 68.197 62.2214V61.9714V61.7214C67.5721 61.7214 67.0653 61.2145 67.0652 60.5895L66.8152 60.5896ZM68.197 61.9714V62.2214H72.5876V61.9714V61.7214H68.197V61.9714ZM72.5876 61.9714V62.2214C73.4888 62.2214 74.2193 61.4906 74.2195 60.5897L73.9695 60.5896L73.7195 60.5895C73.7193 61.2145 73.2125 61.7214 72.5876 61.7214V61.9714ZM73.9695 60.5896H74.2195V34.8425H73.9695H73.7195V60.5896H73.9695ZM73.9695 34.8425L74.2195 34.8425C74.2194 34.3428 73.9904 33.8706 73.5979 33.5612L73.4431 33.7576L73.2884 33.9539C73.5605 34.1684 73.7194 34.4959 73.7195 34.8426L73.9695 34.8425ZM73.4431 33.7576L73.5978 33.5611L66.7247 28.15L66.5701 28.3464L66.4154 28.5429L73.2885 33.954L73.4431 33.7576ZM66.5701 28.3464L66.7248 28.1501C66.2342 27.7636 66.1502 27.0519 66.537 26.5607L66.3406 26.406L66.1442 26.2514C65.587 26.959 65.7074 27.985 66.4154 28.5428L66.5701 28.3464Z" fill="#1C1C1C"/>
<path d="M69.4043 42.063H74.0928V33.14L69.4043 34.8177V42.063Z" fill="#FF9500" stroke="#1C1C1C" stroke-width="0.5" stroke-miterlimit="10" stroke-linejoin="round"/>
<path d="M79.4584 33.14H74.0964V42.063H79.4584V33.14Z" fill="#FF9500" stroke="#1C1C1C" stroke-width="0.5" stroke-miterlimit="10" stroke-linejoin="round"/>
<path d="M43.0979 43.1416C42.6858 43.3797 42.1913 43.3797 41.7792 43.1416L38.1253 41.0537C37.5118 40.7057 37.2828 39.9365 37.6033 39.3046L41.303 32.0151C41.7976 31.0352 43.2078 31.0536 43.684 32.0426L47.2006 39.3778C47.5028 40.0006 47.2647 40.7515 46.6603 41.0995L43.0979 43.1325V43.1416Z" fill="#1C1C1C"/>
<path d="M42.9011 44.6146C42.4981 44.8343 42.0036 44.8343 41.6098 44.6054L38.6794 42.9296C38.0567 42.5724 37.3882 43.3233 37.8186 43.9003L41.2069 48.5157C41.7289 49.23 42.7912 49.2392 43.3315 48.534L46.8938 43.8728C47.3334 43.305 46.674 42.5449 46.0513 42.8929L42.9102 44.6146H42.9011Z" fill="#1C1C1C"/>
</svg>
