<svg width="102" height="102" viewBox="0 0 102 102" fill="none" xmlns="http://www.w3.org/2000/svg">
<rect x="0.5" y="0.5" width="101" height="101" rx="4.5" stroke="#8A38F5" stroke-dasharray="10 5"/>
<path d="M70.8202 54.3926C69.6832 52.8858 67.5893 52.4783 65.9787 53.4639L53.0175 61.3867C52.9701 62.0975 52.9227 62.7988 52.8564 63.5096C52.6574 65.7841 52.3732 68.0491 52.089 70.3141C52.0226 70.8164 51.9658 71.3282 51.9089 71.8305C54.3439 70.5795 56.5041 69.1011 56.5041 69.1011L69.9959 59.5861C71.6823 58.392 72.0519 56.0417 70.8202 54.3926Z" fill="white" stroke="#1C1C1C" stroke-width="0.5" stroke-linecap="round" stroke-linejoin="round"/>
<path d="M76.1544 54.4495C75.0174 52.9426 72.9236 52.5351 71.3129 53.5207L58.3517 61.4435C58.3043 62.1543 58.2569 62.8556 58.1906 63.5664C57.9917 65.8409 57.7074 68.1059 57.4232 70.371C57.3569 70.8732 57.3 71.385 57.2432 71.8873C59.6781 70.6363 61.8383 69.1579 61.8383 69.1579L75.3301 59.6429C77.0166 58.4488 77.3861 56.0985 76.1544 54.4495Z" fill="white" stroke="#1C1C1C" stroke-width="0.5" stroke-linecap="round" stroke-linejoin="round"/>
<path d="M66.585 69.1768C65.8176 69.6507 65.0217 70.0487 64.1785 70.352C62.4257 70.9964 59.337 72.0484 57.1199 72.2948C41.7996 74.0101 36.4843 70.6458 36.4843 70.6458L31.6428 70.4752V54.2789H35.0726C35.0726 54.2789 37.8487 52.156 40.9563 52.156H45.5231C47.9012 52.156 50.2035 53.0563 51.9468 54.6674L61.5445 63.5285L75.6522 54.9044C77.0923 54.023 78.9967 54.1462 80.2094 55.3308C81.8959 56.9798 81.6211 59.6618 79.7736 60.9697L66.5755 69.1863L66.585 69.1768Z" fill="white" stroke="#1C1C1C" stroke-width="0.5" stroke-linecap="round" stroke-linejoin="round"/>
<path d="M20.9652 52.7341C20.842 62.505 20.842 67.3951 20.9652 77.166C25.5224 77.3935 27.8058 77.3935 32.3726 77.166C32.4957 67.3951 32.4862 62.505 32.3726 52.7341C27.8153 52.5067 25.5319 52.5067 20.9652 52.7341Z" fill="#4169E1" stroke="#1C1C1C" stroke-width="0.5" stroke-linecap="round" stroke-linejoin="round"/>
<path d="M46.3475 69.1674L60.9004 64.0971C60.9004 64.0971 62.8617 62.4576 60.9004 60.4958C58.9392 58.5341 55.1778 58.5341 53.7092 59.188C52.2407 59.8419 49.2941 60.3347 48.1477 60.4958C47.0012 60.6569 43.0788 57.7191 40.1322 57.7191C37.1856 57.7191 35.717 58.373 35.717 58.373" fill="white"/>
<path d="M49.7013 65.3007L60.9097 64.0877C60.9097 64.0877 62.8709 62.4481 60.9097 60.4864C58.9485 58.5246 55.1871 58.5246 53.7185 59.1785C52.25 59.8325 49.3034 60.3253 48.1569 60.4864C47.0105 60.6475 43.0881 57.7096 40.1415 57.7096C37.1949 57.7096 35.7263 58.3635 35.7263 58.3635" stroke="#1C1C1C" stroke-width="0.5" stroke-linecap="round" stroke-linejoin="round"/>
<path d="M40.6152 70.0109C38.5687 70.0109 36.9106 68.0681 36.9106 65.6798C36.9106 63.2916 38.5687 61.3488 40.6152 61.3488C42.6617 61.3488 44.3198 63.2916 44.3198 65.6798C44.3198 68.0681 42.6617 70.0109 40.6152 70.0109Z" fill="white" stroke="white" stroke-width="0.5" stroke-linecap="round" stroke-linejoin="round"/>
<path d="M58.4275 49.1234L57.6127 50.5639C56.8263 51.957 55.5377 52.9616 54.0029 53.3881C53.4723 53.5302 52.9322 53.606 52.3922 53.606C51.3689 53.606 50.3552 53.3407 49.4456 52.8194C48.0528 52.0328 47.0485 50.744 46.6222 49.2087C46.1958 47.6639 46.3948 46.0433 47.1812 44.6502L52.5532 35.1637C53.3396 33.7705 54.6282 32.7754 56.1631 32.3395C56.6936 32.1973 57.2337 32.1215 57.7737 32.1215C58.039 32.1215 58.2948 32.1405 58.5506 32.1784C58.797 32.2068 59.0338 32.2542 59.2707 32.3205C59.7634 32.4532 60.2561 32.6522 60.7108 32.9081C61.0804 33.1166 61.4309 33.363 61.7436 33.6473C61.9236 33.8084 62.0941 33.979 62.2552 34.1591C62.4257 34.3486 62.5773 34.5477 62.7195 34.7656C63.0795 35.2963 63.3637 35.8934 63.5343 36.5284C63.9606 38.0731 63.7617 39.6937 62.9753 41.0868L61.2319 44.1669C61.5257 44.4701 61.8667 44.726 62.2363 44.944C62.691 45.2094 63.1932 45.3799 63.7048 45.4747L65.4102 42.4705C66.5661 40.4234 66.8598 38.0542 66.2345 35.7892C65.8555 34.415 65.1639 33.1735 64.207 32.1594C64.0459 31.9794 63.8754 31.8088 63.6953 31.6477C63.5248 31.4866 63.3448 31.3349 63.1553 31.1928C62.8237 30.9369 62.4731 30.7 62.1036 30.4915C61.6488 30.2356 61.1751 30.0176 60.6919 29.847C60.4645 29.7617 60.2371 29.6859 60.0097 29.6291C59.7729 29.5627 59.536 29.5153 59.2897 29.4774C58.7875 29.3827 58.2854 29.3353 57.7737 29.3353C56.9873 29.3353 56.1915 29.4395 55.4146 29.6575C53.1501 30.283 51.2647 31.7519 50.1088 33.799L44.7367 43.2855C43.5808 45.3326 43.2871 47.7018 43.9124 49.9668C44.5378 52.2319 46.0063 54.1178 48.0528 55.274C49.3887 56.0322 50.8763 56.4207 52.3732 56.4207C53.1596 56.4207 53.9555 56.3165 54.7229 56.0985C56.9873 55.473 58.8728 54.0041 60.0287 51.957L60.8624 50.4881C60.3792 50.308 59.915 50.09 59.4602 49.8342C59.0907 49.6257 58.7401 49.3982 58.4085 49.1423L58.4275 49.1234Z" fill="#FF9500" stroke="#1C1C1C" stroke-width="0.5" stroke-linecap="round" stroke-linejoin="round"/>
<path d="M78.362 29.1173C77.7367 26.8523 76.2681 24.9663 74.2216 23.8101C72.8857 23.052 71.3982 22.6634 69.9012 22.6634C69.1148 22.6634 68.319 22.7676 67.5421 22.9856C65.2776 23.6111 63.3922 25.08 62.2363 27.1271L61.4025 28.596C61.8857 28.7761 62.35 28.9941 62.8048 29.2594C63.1743 29.4679 63.5248 29.6954 63.8564 29.9513L64.6713 28.5107C65.4576 27.1176 66.7462 26.113 68.2811 25.6866C68.8116 25.5444 69.3517 25.4686 69.8917 25.4686C70.915 25.4686 71.9193 25.734 72.8383 26.2552C74.2311 27.0418 75.2354 28.3212 75.6618 29.866C76.0881 31.4107 75.8891 33.0218 75.1028 34.4244L69.7307 43.9015C68.9443 45.2946 67.6557 46.2992 66.1209 46.7257C65.5903 46.8678 65.0502 46.9436 64.5102 46.9436C64.2449 46.9436 63.9891 46.9247 63.7333 46.8963C63.4869 46.8678 63.2501 46.8204 63.0132 46.7541C62.5205 46.6309 62.0279 46.4319 61.5731 46.1665C61.2036 45.958 60.853 45.7116 60.5404 45.4273C60.3603 45.2662 60.1898 45.0956 60.0287 44.9061C59.8582 44.7165 59.7066 44.5175 59.5645 44.309C59.2044 43.7783 58.9202 43.1812 58.7497 42.5463C58.3233 41.0015 58.5223 39.3809 59.3087 37.9878L61.0615 34.8983C60.7677 34.595 60.4267 34.3391 60.0477 34.1306C59.5929 33.8653 59.0907 33.6852 58.5791 33.5999L56.8737 36.6042C55.7178 38.6512 55.4241 41.0205 56.0494 43.2855C56.4284 44.6691 57.1295 45.9012 58.077 46.9247C58.238 47.1048 58.4086 47.2753 58.5886 47.4364C58.7591 47.5976 58.9392 47.7492 59.1286 47.8913C59.4603 48.1472 59.8108 48.3842 60.1803 48.5927C60.6351 48.8485 61.1088 49.0665 61.592 49.2371C61.8194 49.3224 62.0468 49.3982 62.2742 49.4551C62.5111 49.5214 62.7479 49.5688 62.9943 49.6067C63.4964 49.7015 63.9986 49.7489 64.5102 49.7489C65.2966 49.7489 66.0924 49.6446 66.8599 49.4266C69.1243 48.8011 71.0097 47.3322 72.1656 45.2852L77.5377 35.8081C78.6936 33.761 78.9873 31.3918 78.362 29.1268V29.1173Z" fill="#FF9500" stroke="#1C1C1C" stroke-width="0.5" stroke-linecap="round" stroke-linejoin="round"/>
</svg>
