<svg width="102" height="102" viewBox="0 0 102 102" fill="none" xmlns="http://www.w3.org/2000/svg">
<rect x="0.5" y="0.5" width="101" height="101" rx="4.5" stroke="#9747FF" stroke-dasharray="10 5"/>
<path d="M79.0975 78.8078C60.3575 79.1978 41.6475 79.1978 22.9075 78.8078C22.5775 68.6278 22.4475 58.4178 22.5175 48.2378C41.5075 48.1678 60.4975 48.1678 79.4875 48.2378C79.5575 58.4178 79.4375 68.6278 79.0975 78.8078Z" fill="#4169E1" stroke="#1C1C1C" stroke-width="0.5" stroke-linejoin="round"/>
<path d="M78.9877 43.4977C60.1777 43.3577 41.3677 43.3677 22.5577 43.4977C30.4577 36.7677 34.4377 33.3277 42.2377 26.5277C49.0677 26.4677 52.4877 26.4677 59.3177 26.5277C67.1077 33.3277 71.0877 36.7677 78.9877 43.4977Z" fill="#4169E1" stroke="#1C1C1C" stroke-width="0.5" stroke-linejoin="round"/>
<path d="M79.205 74.9678C60.395 75.2978 41.605 75.2978 22.795 74.9678C22.505 64.7878 22.425 54.5778 22.545 44.3978C41.515 44.2678 60.485 44.2678 79.455 44.3978C79.575 54.5778 79.495 64.7878 79.205 74.9678Z" fill="#CCD9FD" stroke="#1C1C1C" stroke-width="0.5" stroke-linejoin="round"/>
<path d="M78.9977 43.9479C60.1777 43.8179 41.3677 43.8179 22.5577 43.9479C30.3177 50.5279 34.2777 53.9279 42.1277 60.6779C49.0477 60.6979 52.5077 60.6979 59.4277 60.6779C67.2777 53.9179 71.2377 50.5279 78.9977 43.9379V43.9479Z" fill="#1C1C1C" stroke="#1C1C1C" stroke-width="0.5" stroke-linecap="round" stroke-linejoin="round"/>
<path d="M68.7458 44.5933C68.7458 54.1779 60.8639 61.9494 51.142 61.9494C41.4202 61.9494 32.8405 53.5368 32.8405 43.9521C31.8952 27.7828 41.4202 27.2401 51.142 27.2401C60.8639 27.2401 69.2796 28.081 68.7458 44.5962V44.5933Z" fill="#FF9500" stroke="#1C1C1C" stroke-width="0.5" stroke-miterlimit="10"/>
<path d="M50.7281 58.1418C60.6438 58.1418 68.6808 49.9707 68.6808 39.891C68.6808 29.8112 60.6438 21.6431 50.7281 21.6431C40.8124 21.6431 32.7755 29.8142 32.7755 39.8939C32.7755 49.9736 40.8124 58.1448 50.7281 58.1448V58.1418Z" fill="#FFE2C8" stroke="#1C1C1C" stroke-width="0.5" stroke-miterlimit="10"/>
<path d="M52.9734 39.3943C54.5682 38.5848 55.6595 36.9298 55.6595 35.0194C55.6595 32.3116 53.4648 30.1145 50.7546 30.1145C48.0444 30.1145 45.8498 32.3092 45.8498 35.0194C45.8498 36.9298 46.9435 38.5848 48.5359 39.3943C45.3077 40.329 42.9251 42.195 42.8047 45.6954L42.78 46.5915C42.7645 47.1543 43.2165 47.619 43.7796 47.619H57.7046C58.2569 47.619 58.7046 47.1713 58.7046 46.619L58.7046 45.6954C58.5817 42.195 56.2015 40.329 52.9734 39.3943Z" fill="#FF9500"/>
<path d="M52.9734 39.3943L52.8602 39.1714C52.7687 39.2178 52.7149 39.3155 52.7245 39.4177C52.7341 39.5199 52.8052 39.6059 52.9039 39.6344L52.9734 39.3943ZM48.5359 39.3943L48.6054 39.6344C48.704 39.6059 48.7751 39.52 48.7848 39.4178C48.7944 39.3156 48.7407 39.2179 48.6492 39.1714L48.5359 39.3943ZM42.8047 45.6954L42.5548 45.6868L42.5548 45.6885L42.8047 45.6954ZM58.7046 45.6954L58.9547 45.6954L58.9544 45.6866L58.7046 45.6954ZM58.7046 46.619L58.9546 46.619L58.7046 46.619ZM42.78 46.5915L42.5301 46.5846L42.78 46.5915ZM52.9734 39.3943L53.0865 39.6172C54.7621 38.7668 55.9095 37.0275 55.9095 35.0194H55.6595H55.4095C55.4095 36.8321 54.3743 38.4029 52.8602 39.1714L52.9734 39.3943ZM55.6595 35.0194H55.9095C55.9095 32.1736 53.603 29.8645 50.7546 29.8645V30.1145V30.3645C53.3267 30.3645 55.4095 32.4496 55.4095 35.0194H55.6595ZM50.7546 30.1145V29.8645C47.9064 29.8645 45.5998 32.1711 45.5998 35.0194H45.8498H46.0998C46.0998 32.4473 48.1825 30.3645 50.7546 30.3645V30.1145ZM45.8498 35.0194H45.5998C45.5998 37.0277 46.7497 38.7668 48.4226 39.6171L48.5359 39.3943L48.6492 39.1714C47.1372 38.4029 46.0998 36.832 46.0998 35.0194H45.8498ZM48.5359 39.3943L48.4663 39.1542C46.8283 39.6285 45.382 40.3451 44.3275 41.4065C43.2676 42.4734 42.6172 43.8754 42.5548 45.6868L42.8047 45.6954L43.0545 45.704C43.1127 44.0149 43.7138 42.7337 44.6822 41.7589C45.6562 40.7785 47.0153 40.0948 48.6054 39.6344L48.5359 39.3943ZM42.8047 45.6954L42.5548 45.6885L42.5301 46.5846L42.78 46.5915L43.0299 46.5983L43.0546 45.7022L42.8047 45.6954ZM43.7796 47.619V47.869H57.7046V47.619V47.369H43.7796V47.619ZM58.7046 46.619L58.9546 46.619L58.9546 45.6954L58.7046 45.6954L58.4546 45.6954L58.4546 46.619L58.7046 46.619ZM58.7046 45.6954L58.9544 45.6866C58.8908 43.8754 58.2405 42.4734 57.1808 41.4065C56.1267 40.3452 54.681 39.6285 53.0429 39.1542L52.9734 39.3943L52.9039 39.6344C54.4939 40.0948 55.8524 40.7785 56.8261 41.7589C57.7943 42.7337 58.3954 44.015 58.4547 45.7041L58.7046 45.6954ZM57.7046 47.619V47.869C58.3949 47.869 58.9546 47.3094 58.9546 46.619L58.7046 46.619L58.4546 46.619C58.4546 47.0332 58.1188 47.369 57.7046 47.369V47.619ZM42.78 46.5915L42.5301 46.5846C42.5107 47.2881 43.0758 47.869 43.7796 47.869V47.619V47.369C43.3573 47.369 43.0183 47.0205 43.0299 46.5983L42.78 46.5915Z" fill="#1C1C1C"/>
<path d="M78.756 74.9777C60.096 75.2977 41.456 75.2977 22.796 74.9677C30.386 68.4877 34.296 65.1277 42.116 58.4077C49.046 58.4177 52.506 58.4177 59.426 58.4077C67.246 65.1377 71.156 68.4977 78.756 74.9777Z" fill="#CCD9FD" stroke="#1C1C1C" stroke-width="0.5" stroke-linejoin="round"/>
</svg>
