<svg width="102" height="102" viewBox="0 0 102 102" fill="none" xmlns="http://www.w3.org/2000/svg">
<rect x="0.5" y="0.5" width="101" height="101" rx="4.5" stroke="#8A38F5" stroke-dasharray="10 5"/>
<path d="M40.1903 58.1235L40.9731 65.4976L25.5576 70.931L26.0355 69.4503L25.9606 67.0566L40.1903 58.1235Z" fill="#FF9500" stroke="#1C1C1C" stroke-width="0.5" stroke-miterlimit="10" stroke-linejoin="round"/>
<path d="M75.2928 43.0813C75.2928 51.9819 68.0516 59.199 59.1198 59.199C50.1879 59.199 42.3064 51.3862 42.3064 42.4856C41.4439 27.4729 50.1879 26.9636 59.1198 26.9636C68.0516 26.9636 75.7795 27.7405 75.2928 43.0813Z" fill="#4169E1" stroke="#1C1C1C" stroke-width="0.5" stroke-linejoin="round"/>
<path d="M58.7364 54.893C67.8475 54.893 75.2253 47.3046 75.2253 37.9465C75.2253 28.5884 67.8475 21 58.7364 21C49.6252 21 42.2474 28.5884 42.2474 37.9465C42.2474 47.3046 49.6337 54.893 58.7364 54.893Z" fill="#FFE2C8" stroke="#1C1C1C" stroke-width="0.5" stroke-linecap="round" stroke-linejoin="round"/>
<path d="M58.7722 51.0762C65.945 51.0762 71.7601 45.1972 71.7601 37.9455C71.7601 30.6938 65.945 24.8148 58.7722 24.8148C51.5994 24.8148 45.7843 30.6938 45.7843 37.9455C45.7843 45.1972 51.5994 51.0762 58.7722 51.0762Z" fill="#FF9500" stroke="#1C1C1C" stroke-width="0.5" stroke-miterlimit="10"/>
<path d="M65.1085 35.2457C64.9548 36.7651 64.1692 37.5507 63.136 37.8615C64.6047 38.5867 65.3817 39.7521 64.7413 41.9104C63.9386 44.5779 61.8978 44.9319 59.1312 44.5175L58.7127 46.5549C58.6188 47.0124 58.1833 47.306 57.7308 47.211C57.2782 47.116 56.9879 46.6757 57.0818 46.2182L57.4917 44.224C57.0732 44.1377 56.6378 44.0427 56.2108 43.9391L55.8009 45.9506C55.707 46.4081 55.2715 46.7016 54.8189 46.6067C54.3664 46.5117 54.076 46.0714 54.17 45.6139L54.5884 43.5765C54.2041 43.4988 53.8369 43.3952 53.4356 43.3175L52.5049 43.1276C51.8815 42.9981 51.5229 42.3334 51.7534 41.7291C51.9413 41.2456 52.4451 40.978 52.9403 41.0816C53.2563 41.1507 53.2478 41.1334 53.2478 41.1334C53.7003 41.2284 53.8882 40.9089 53.9736 40.6758L54.8958 36.1608L55.5533 32.9148C55.5704 32.5609 55.4252 32.0947 54.7592 31.9566C54.7592 31.9566 54.7677 31.9566 54.503 31.8961C53.9992 31.7925 53.6747 31.3005 53.7772 30.7911C53.8796 30.2818 54.3664 29.9623 54.8616 30.0659L56.2193 30.3508L57.244 30.5667L57.6539 28.5552C57.7478 28.0976 58.1833 27.8041 58.6359 27.8991C59.0885 27.994 59.3788 28.4343 59.2849 28.8919L58.8835 30.8429C59.319 30.9292 59.7374 30.9983 60.1729 31.0933L60.5657 29.1595C60.6597 28.7019 61.0951 28.4084 61.5477 28.5034C62.0003 28.5983 62.2906 29.0386 62.1967 29.4962L61.7868 31.5076C63.8362 32.1206 65.3647 33.1565 65.117 35.2457H65.1085ZM61.5904 40.8917C62.043 38.673 58.5249 38.2845 57.4233 38.0514L56.6548 41.8413C57.7564 42.0744 61.1464 43.0499 61.5904 40.8917ZM61.9405 35.4011C62.3589 33.3637 59.4129 33.0702 58.4822 32.8803L57.782 36.3248C58.7127 36.5148 61.5477 37.3435 61.9405 35.4097V35.4011Z" fill="white"/>
<path d="M39.5521 47.3306C39.7314 45.3709 41.2855 43.8342 43.2324 43.6702C53.8635 42.7551 64.4861 42.7551 75.1172 43.6702C77.0641 43.8342 78.6097 45.3623 78.8147 47.3219C79.6259 55.3851 79.6259 63.4483 78.8147 71.5201C78.6097 73.4798 77.0641 75.0078 75.1172 75.1719C64.5203 76.0956 53.9233 76.0956 43.3178 75.1719C41.3367 74.9992 39.7741 73.4194 39.6033 71.4165C38.9031 63.0857 38.8263 55.0312 39.5521 47.3306Z" fill="#4169E1" stroke="#1C1C1C" stroke-width="0.5" stroke-linejoin="round"/>
<path d="M39.5521 44.2223C39.7314 42.2626 41.2855 40.726 43.2324 40.5619C53.8635 39.6468 64.4861 39.6468 75.1172 40.5619C77.0641 40.726 78.6097 42.254 78.8147 44.2137C79.6259 52.2769 79.6259 60.34 78.8147 68.4118C78.6097 70.3715 77.0641 71.8996 75.1172 72.0636C64.5203 72.9873 53.9233 72.9873 43.3178 72.0636C41.3367 71.8909 39.7741 70.3111 39.6033 68.3082C38.9031 59.9774 38.8263 51.9229 39.5521 44.2223Z" fill="#CCD9FD" stroke="#1C1C1C" stroke-width="0.5" stroke-linejoin="round"/>
<path d="M61.7778 57.2315C61.8632 53.4503 65.0483 50.446 68.7884 50.377C72.5882 50.3079 76.3454 50.4892 80.2819 50.8777C80.8114 54.6157 80.6491 58.5955 80.5296 63.6544C80.521 64.1897 80.1026 64.6386 79.5817 64.6818C76.0551 64.9925 72.6053 65.1048 69.1385 65.0184C65.0312 64.9148 61.6839 61.4012 61.7778 57.2315Z" fill="#4169E1" stroke="#1C1C1C" stroke-width="0.5" stroke-linejoin="round"/>
<path d="M61.7822 54.7301C61.8676 50.9402 65.0612 47.9532 68.8013 47.8496C72.3877 47.7546 75.9656 47.8496 79.5434 48.169C80.1326 48.2208 80.6023 48.7129 80.6364 49.3172C80.9097 54.3243 80.9012 55.9473 80.6962 62.1026C76.8707 62.4825 72.994 62.6206 69.1258 62.5256C65.01 62.422 61.6797 58.9084 61.7737 54.7301H61.7822Z" fill="#CCD9FD" stroke="#1C1C1C" stroke-width="0.5" stroke-linejoin="round"/>
<path d="M68.5223 58.0161C70.3804 58.0161 71.8867 56.4932 71.8867 54.6147C71.8867 52.7362 70.3804 51.2133 68.5223 51.2133C66.6642 51.2133 65.158 52.7362 65.158 54.6147C65.158 56.4932 66.6642 58.0161 68.5223 58.0161Z" fill="white" stroke="#1C1C1C" stroke-width="0.5" stroke-linejoin="round"/>
<path d="M42.8798 54.9677C41.4815 54.8444 40.4336 56.1794 40.9045 57.5018C41.1566 58.2098 41.413 58.8995 41.6292 59.4347C41.9294 60.1807 42.2398 60.892 42.553 61.5701C33.0406 66.3642 27.2743 68.4995 26.7648 67.5872C26.261 66.6836 30.1652 64.1697 39.0583 58.6541C39.0425 58.0484 38.6317 57.469 38.6245 56.8675C23.4051 65.7328 21.236 68.9637 22.193 70.6784C23.1255 72.3497 31.6506 69.474 43.2531 63.8862C43.907 65.1266 44.4887 66.4134 45.1339 67.6567C45.5525 68.462 45.9812 69.263 46.4143 70.0596C46.5528 69.9844 46.6914 69.9092 46.8285 69.8326C47.2818 70.7536 47.8346 71.7555 48.5102 72.8007C49.3705 74.1294 50.2539 75.2556 51.0752 76.1911C52.5952 73.5424 54.131 70.6552 55.6307 67.531C56.8035 65.089 57.6561 62.152 58.4982 59.6063C58.8874 58.4299 58.1817 57.1435 56.9641 56.9136C54.5321 56.4545 51.9733 56.0362 49.2952 55.6781C47.0857 55.3835 44.945 55.1499 42.8798 54.9677Z" fill="#FF9500" stroke="#1C1C1C" stroke-width="0.5" stroke-miterlimit="10" stroke-linejoin="round"/>
<path d="M45.2381 57.7645C43.8398 57.6412 42.7824 58.9798 43.2786 60.2928C43.3986 60.6103 43.524 60.9316 43.6553 61.2565C43.8963 61.8536 44.1432 62.429 44.3929 62.9842C32.2 68.9393 23.1351 72.065 22.1709 70.3388L27.5059 80.4735C28.4672 82.1954 37.4961 79.0871 49.6485 73.1566C49.9184 73.6322 50.2129 74.1223 50.5362 74.6226C50.8091 75.044 51.0843 75.4451 51.3591 75.8262C52.1613 76.9385 53.8103 76.7762 54.4678 75.5727C55.5366 73.6162 56.6056 71.5427 57.6568 69.3528C58.8115 66.9484 59.8433 64.6142 60.7661 62.3697C61.2374 61.2236 60.54 59.9403 59.3224 59.7104C56.8904 59.2512 54.3316 58.833 51.6535 58.4749C49.444 58.1803 47.3033 57.9466 45.2381 57.7645Z" fill="#FFE2C8" stroke="#1C1C1C" stroke-width="0.5" stroke-miterlimit="10" stroke-linejoin="round"/>
</svg>
