<svg width="102" height="102" viewBox="0 0 102 102" fill="none" xmlns="http://www.w3.org/2000/svg">
<rect x="0.5" y="0.5" width="101" height="101" rx="4.5" stroke="#9747FF" stroke-dasharray="10 5"/>
<path d="M71.639 54.34C71.639 65.4739 62.5886 74.5 51.424 74.5C40.2594 74.5 30.4077 64.7273 30.4077 53.5933C29.3237 34.8107 40.2594 34.1799 51.424 34.1799C62.5886 34.1799 72.2521 35.1552 71.639 54.34Z" fill="#4169E1" stroke="#1C1C1C" stroke-width="0.5" stroke-miterlimit="10"/>
<path d="M50.9477 70.3974C62.3327 70.3974 71.562 60.9064 71.562 49.1987C71.562 37.491 62.3327 28 50.9477 28C39.5628 28 30.3334 37.491 30.3334 49.1987C30.3334 60.9064 39.5628 70.3974 50.9477 70.3974Z" fill="#CCD9FD" stroke="#1C1C1C" stroke-width="0.5" stroke-miterlimit="10"/>
<path d="M51.0004 65.6186C59.9684 65.6186 67.2385 58.2641 67.2385 49.1919C67.2385 40.1197 59.9684 32.7652 51.0004 32.7652C42.0323 32.7652 34.7623 40.1197 34.7623 49.1919C34.7623 58.2641 42.0323 65.6186 51.0004 65.6186Z" fill="#4169E1" stroke="#1C1C1C" stroke-width="0.5" stroke-miterlimit="10"/>
<path d="M55.3881 51.5189C55.3881 49.1919 53.9919 48.394 51.1995 48.0617C49.2049 47.7957 48.806 47.2638 48.806 46.3329C48.806 45.402 49.4709 44.8038 50.8006 44.8038C51.9973 44.8038 52.6622 45.2027 52.9946 46.2C53.0612 46.3995 53.2606 46.5324 53.4601 46.5324H54.5238C54.7898 46.5324 54.9892 46.3329 54.9892 46.0671V46.0005C54.7232 44.5378 53.5265 43.4076 51.9973 43.2746V41.679C51.9973 41.413 51.7979 41.2135 51.4655 41.147H50.4682C50.2022 41.147 50.0027 41.3464 49.9362 41.679V43.2081C47.9416 43.4741 46.6785 44.8038 46.6785 46.466C46.6785 48.66 48.0081 49.5243 50.8006 49.8568C52.6622 50.1892 53.2606 50.5881 53.2606 51.6519C53.2606 52.7158 52.3297 53.4471 51.0666 53.4471C49.3378 53.4471 48.7394 52.7156 48.54 51.7183C48.4736 51.4525 48.2741 51.3194 48.0747 51.3194H46.9443C46.6785 51.3194 46.479 51.5189 46.479 51.7849V51.8514C46.7448 53.5135 47.8087 54.7102 50.0027 55.0427V56.6384C50.0027 56.9043 50.2022 57.1037 50.5346 57.1703H51.5319C51.7979 57.1703 51.9973 56.9708 52.0639 56.6384V55.0427C54.0585 54.7102 55.3881 53.314 55.3881 51.5189Z" fill="white"/>
<path d="M47.6092 58.4999C42.4232 56.6384 39.7637 50.8541 41.6919 45.7345C42.6892 42.9421 44.8833 40.8146 47.6092 39.8173C47.8752 39.6844 48.0081 39.4849 48.0081 39.1524V38.2216C48.0081 37.9556 47.8752 37.7562 47.6092 37.6898C47.5426 37.6898 47.4097 37.6898 47.3432 37.7562C41.027 39.7508 37.5696 46.466 39.5642 52.7821C40.761 56.5053 43.62 59.3643 47.3432 60.5611C47.6092 60.694 47.8752 60.5611 47.9415 60.2951C48.0081 60.2287 48.0081 60.1621 48.0081 60.0292V59.0983C48.0081 58.8988 47.8086 58.633 47.6092 58.4999ZM54.6568 37.7562C54.3908 37.6232 54.1248 37.7562 54.0584 38.0222C53.9919 38.0887 53.9919 38.1551 53.9919 38.2882V39.2189C53.9919 39.4849 54.1913 39.7508 54.3908 39.8838C59.5767 41.7453 62.2362 47.5297 60.308 52.6492C59.3107 55.4417 57.1167 57.5692 54.3908 58.5665C54.1248 58.6994 53.9919 58.8988 53.9919 59.2314V60.1621C53.9919 60.4281 54.1248 60.6276 54.3908 60.694C54.4573 60.694 54.5902 60.694 54.6568 60.6276C60.9729 58.633 64.4303 51.9178 62.4357 45.6016C61.2389 41.8119 58.3134 38.9529 54.6568 37.7562Z" fill="white"/>
</svg>
