<svg width="102" height="102" viewBox="0 0 102 102" fill="none" xmlns="http://www.w3.org/2000/svg">
<rect x="0.5" y="0.5" width="101" height="101" rx="4.5" stroke="#9747FF" stroke-dasharray="10 5"/>
<path d="M76.1483 63.3287C59.3806 63.2615 42.6213 63.2615 25.8537 63.3287C23.6169 65.7337 22.5321 66.9278 20.5896 69.316C40.8638 69.316 61.1381 69.316 81.4039 69.316C79.4614 66.9278 78.3767 65.7337 76.1399 63.3287H76.1483Z" fill="#E8EDFA" stroke="#1C1C1C" stroke-width="0.5" stroke-linejoin="round"/>
<path d="M78.3175 74.4202C60.1034 74.5043 41.8978 74.5043 23.6838 74.4202C22.1449 74.4202 20.7154 73.1421 20.6397 71.6116C20.5893 70.695 20.5809 70.2325 20.5893 69.3159C40.8635 69.3159 61.1377 69.3159 81.4036 69.3159C81.412 70.2325 81.4036 70.695 81.3531 71.6116C81.2774 73.1421 79.8479 74.4118 78.309 74.4202H78.3175Z" fill="#CCD9FD" stroke="#1C1C1C" stroke-width="0.5" stroke-linejoin="round"/>
<path d="M76.1244 63.3625C59.3735 63.6736 42.6311 63.6736 25.8802 63.3625C25.4934 52.3382 25.4598 41.356 25.7793 30.3317C25.8298 28.9022 27.0323 27.7249 28.4618 27.6997C43.4888 27.4558 58.5074 27.4558 73.5344 27.6997C74.9639 27.7249 76.1664 28.9106 76.2169 30.3317C76.5364 41.356 76.5028 52.3382 76.116 63.3625H76.1244Z" fill="#CCD9FD" stroke="#1C1C1C" stroke-width="0.5" stroke-linejoin="round"/>
<path d="M30.1144 31.2532C44.0433 31.0934 57.9726 31.0934 71.9015 31.2532C72.1711 31.2565 72.39 31.4729 72.3957 31.7425C72.4714 35.3283 72.5058 38.9051 72.5226 42.4886C72.5226 42.4955 72.5209 42.5023 72.5207 42.5091C72.5541 48.1238 72.5123 53.7473 72.3947 59.3704L72.3849 59.8548L71.9005 59.8597C57.5657 60.0164 43.4506 60 30.1144 59.8597C29.8446 59.8567 29.6261 59.6402 29.6203 59.3704C29.4267 50.1556 29.4267 40.9573 29.6203 31.7425L29.632 31.6438C29.6814 31.4218 29.8784 31.2559 30.1144 31.2532Z" fill="#E8EDFA" stroke="#1C1C1C" stroke-width="0.5" stroke-linejoin="round"/>
<path d="M41 37.5522C41 36.6094 41 36.138 41.2929 35.8451C41.5858 35.5522 42.0572 35.5522 43 35.5522H44.8333C45.7761 35.5522 46.2475 35.5522 46.5404 35.8451C46.8333 36.138 46.8333 36.6094 46.8333 37.5522V39.3856C46.8333 40.3284 46.8333 40.7998 46.5404 41.0927C46.2475 41.3856 45.7761 41.3856 44.8333 41.3856H43C42.0572 41.3856 41.5858 41.3856 41.2929 41.0927C41 40.7998 41 40.3284 41 39.3856V37.5522Z" fill="#00125C"/>
<path d="M41 51.7189C41 50.7761 41 50.3047 41.2929 50.0118C41.5858 49.7189 42.0572 49.7189 43 49.7189H44.8333C45.7761 49.7189 46.2475 49.7189 46.5404 50.0118C46.8333 50.3047 46.8333 50.7761 46.8333 51.7189V53.5522C46.8333 54.4951 46.8333 54.9665 46.5404 55.2594C46.2475 55.5522 45.7761 55.5522 44.8333 55.5522H43C42.0572 55.5522 41.5858 55.5522 41.2929 55.2594C41 54.9665 41 54.4951 41 53.5522V51.7189Z" fill="#00125C"/>
<path d="M55.1667 37.5522C55.1667 36.6094 55.1667 36.138 55.4596 35.8451C55.7525 35.5522 56.2239 35.5522 57.1667 35.5522H59C59.9428 35.5522 60.4142 35.5522 60.7071 35.8451C61 36.138 61 36.6094 61 37.5522V39.3856C61 40.3284 61 40.7998 60.7071 41.0927C60.4142 41.3856 59.9428 41.3856 59 41.3856H57.1667C56.2239 41.3856 55.7525 41.3856 55.4596 41.0927C55.1667 40.7998 55.1667 40.3284 55.1667 39.3856V37.5522Z" fill="#00125C"/>
<path d="M48.5 42.2189V41.3856C48.5 40.9253 48.8731 40.5522 49.3333 40.5522C49.7936 40.5522 50.1667 40.9253 50.1667 41.3856V42.2189C50.1667 43.5996 49.0474 44.7189 47.6667 44.7189H46C45.5398 44.7189 45.1667 44.3458 45.1667 43.8856C45.1667 43.4253 45.5398 43.0522 46 43.0522H47.6667C48.1269 43.0522 48.5 42.6791 48.5 42.2189Z" fill="#00125C"/>
<path d="M56.8333 45.5522V48.0522C56.8333 48.5125 56.4602 48.8856 56 48.8856C55.5398 48.8856 55.1667 48.5125 55.1667 48.0522L55.1667 45.5522C55.1667 44.1715 56.286 43.0522 57.6667 43.0522L60.1667 43.0522C60.6269 43.0522 61 43.4253 61 43.8856C61 44.3458 60.6269 44.7189 60.1667 44.7189H57.6667C57.2064 44.7189 56.8333 45.092 56.8333 45.5522Z" fill="#00125C"/>
<path d="M51.8333 48.8856V50.5522C51.8333 51.0125 52.2064 51.3856 52.6667 51.3856C53.1269 51.3856 53.5 51.0125 53.5 50.5522V48.8856C53.5 47.5049 52.3807 46.3856 51 46.3856H49.3333C48.8731 46.3856 48.5 46.7587 48.5 47.2189C48.5 47.6791 48.8731 48.0522 49.3333 48.0522H51C51.4602 48.0522 51.8333 48.4253 51.8333 48.8856Z" fill="#00125C"/>
<path d="M48.5 54.7189C48.5 55.1792 48.8731 55.5522 49.3333 55.5522C49.7936 55.5522 50.1667 55.1792 50.1667 54.7189V50.5522C50.1667 50.092 49.7936 49.7189 49.3333 49.7189C48.8731 49.7189 48.5 50.092 48.5 50.5522V54.7189Z" fill="#00125C"/>
<path d="M53.5 40.5522C53.5 41.0125 53.1269 41.3856 52.6667 41.3856C52.2064 41.3856 51.8333 41.0125 51.8333 40.5522V36.3856C51.8333 35.9253 52.2064 35.5522 52.6667 35.5522C53.1269 35.5522 53.5 35.9253 53.5 36.3856V40.5522Z" fill="#00125C"/>
<path d="M41.8333 48.0522C41.3731 48.0522 41 47.6791 41 47.2189C41 46.7587 41.3731 46.3856 41.8333 46.3856H46C46.4602 46.3856 46.8333 46.7587 46.8333 47.2189C46.8333 47.6792 46.4602 48.0522 46 48.0522L41.8333 48.0522Z" fill="#00125C"/>
<path d="M56 53.8856H57.6667C58.0981 53.8856 58.4532 53.5578 58.4959 53.1377L58.5041 52.9668C58.5468 52.5467 58.9019 52.2189 59.3333 52.2189C59.7936 52.2189 60.1667 52.592 60.1667 53.0522C60.1667 54.433 59.0474 55.5522 57.6667 55.5522H56C55.5398 55.5522 55.1667 55.1791 55.1667 54.7189C55.1667 54.2587 55.5398 53.8856 56 53.8856Z" fill="#00125C"/>
<path d="M50.1667 38.0522C50.1667 38.5125 49.7936 38.8856 49.3333 38.8856C48.8731 38.8856 48.5 38.5125 48.5 38.0522V36.3856C48.5 35.9253 48.8731 35.5522 49.3333 35.5522C49.7936 35.5522 50.1667 35.9253 50.1667 36.3856V38.0522Z" fill="#00125C"/>
<path d="M51.8333 54.7189C51.8333 55.1791 52.2064 55.5522 52.6667 55.5522C53.1269 55.5522 53.5 55.1791 53.5 54.7189V53.0522C53.5 52.592 53.1269 52.2189 52.6667 52.2189C52.2064 52.2189 51.8333 52.592 51.8333 53.0522V54.7189Z" fill="#00125C"/>
<path d="M56.8333 52.2189C56.8333 52.6791 56.4602 53.0522 56 53.0522C55.5398 53.0522 55.1667 52.6791 55.1667 52.2189V51.3856C55.1667 50.9253 55.5398 50.5522 56 50.5522C56.4602 50.5522 56.8333 50.9253 56.8333 51.3856V52.2189Z" fill="#00125C"/>
<path d="M53.5 44.3022C53.5 44.7625 53.1269 45.1356 52.6667 45.1356C52.2064 45.1356 51.8333 44.7625 51.8333 44.3022V43.4689C51.8333 43.0087 52.2064 42.6356 52.6667 42.6356C53.1269 42.6356 53.5 43.0087 53.5 43.4689V44.3022Z" fill="#00125C"/>
<path d="M41.8333 44.7189L41.7479 44.7148C41.3278 44.6721 41 44.317 41 43.8856C41 43.4542 41.3278 43.0991 41.7479 43.0563L41.8333 43.0522H42.6667C43.1269 43.0522 43.5 43.4253 43.5 43.8856C43.5 44.3458 43.1269 44.7189 42.6667 44.7189H41.8333Z" fill="#00125C"/>
<path d="M60.1667 49.7189C60.1667 50.1791 59.7936 50.5522 59.3333 50.5522C58.8731 50.5522 58.5 50.1791 58.5 49.7189V47.2189C58.5 46.7587 58.8731 46.3856 59.3333 46.3856C59.7936 46.3856 60.1667 46.7587 60.1667 47.2189V49.7189Z" fill="#00125C"/>
</svg>
