<svg width="62" height="62" viewBox="0 0 62 62" fill="none" xmlns="http://www.w3.org/2000/svg">
<g clip-path="url(#clip0_18011_3536)">
<path d="M33.9709 22.3115C32.537 20.038 29.8524 19.0082 27.351 19.5627L20.1813 8.1873L17.7835 6.5L15.8796 7.68824L16.3655 10.5717L17.6401 12.6076L17.3214 14.4295L18.9784 17.0595L20.5318 17.1942L21.0975 18.0972L20.5478 19.5548L22.2048 22.1848L23.2563 21.5273L23.5829 22.058C22.1888 24.0226 22.0295 26.708 23.3997 28.8864C25.2319 31.7937 29.0717 32.665 31.9794 30.851C34.895 29.029 35.7713 25.2108 33.955 22.3115H33.9709ZM27.7413 27.1991C26.9367 26.6525 26.7296 25.5594 27.2793 24.7672C27.8289 23.9671 28.9203 23.7532 29.7249 24.3078C30.5295 24.8543 30.7366 25.9396 30.187 26.7397C29.6373 27.5398 28.5459 27.7457 27.7413 27.1991Z" fill="#FF9500" stroke="#1C1C1C" stroke-width="0.5" stroke-miterlimit="10"/>
<path d="M24.9551 21.2105C22.2546 21.1392 19.9045 22.7869 18.9884 25.1634L5.49358 24.791L2.75318 25.8367L2.68945 28.0706L5.37408 29.2667L7.78786 29.338L9.13416 30.6134L12.2569 30.7006L13.2288 29.4886L14.2963 29.5202L15.2124 30.7798L18.3352 30.8669L18.3671 29.6311L18.9884 29.6549C19.8567 31.8967 22.0156 33.5206 24.6046 33.5919C28.054 33.687 30.9139 30.9937 31.0095 27.5794C31.1051 24.1573 28.3966 21.3135 24.9551 21.2105ZM25.5924 29.0766C24.6843 29.441 23.6566 29.0053 23.2982 28.1102C22.9317 27.2151 23.3619 26.1932 24.2701 25.8288C25.1702 25.4644 26.1979 25.9001 26.5643 26.7952C26.9308 27.6903 26.4926 28.7122 25.5924 29.0766Z" fill="#FFE2C8" stroke="#1C1C1C" stroke-width="0.5" stroke-linejoin="round"/>
<path d="M12.178 43.9452L9.69249 45.379L7.22295 41.1409L9.71639 39.7071L11.939 38.4317L20.6541 33.4253L23.1236 37.6713L14.4006 42.6777L15.014 43.7154L12.7914 44.9908L12.178 43.9452Z" fill="#E8EDFA" stroke="#1C1C1C" stroke-width="0.5" stroke-linejoin="round"/>
<path d="M31.1237 35.555L26.4409 27.4865L14.4286 34.3801L19.1113 42.4486L31.1237 35.555Z" fill="#1C1C1C" stroke="#1C1C1C" stroke-width="0.5" stroke-linejoin="round"/>
<path d="M23.889 36.0632C24.8613 36.0632 25.6496 35.2794 25.6496 34.3125C25.6496 33.3457 24.8613 32.5619 23.889 32.5619C22.9167 32.5619 22.1285 33.3457 22.1285 34.3125C22.1285 35.2794 22.9167 36.0632 23.889 36.0632Z" fill="#CCD9FD"/>
<path d="M24.9803 32.1503C25.1316 30.5581 26.4062 29.3223 28.0074 29.1877C36.7624 28.443 45.5093 28.443 54.2642 29.1877C55.8655 29.3223 57.1401 30.5581 57.3073 32.1503C57.9685 38.6857 57.9685 45.213 57.3073 51.7484C57.1401 53.3327 55.8655 54.5685 54.2642 54.7031C45.5332 55.4478 36.8102 55.4478 28.0791 54.7031C26.454 54.5685 25.1555 53.2852 25.0201 51.6612C24.4465 44.912 24.3828 38.3926 24.9803 32.1503Z" fill="#4169E1" stroke="#1C1C1C" stroke-width="0.5" stroke-linejoin="round"/>
<path d="M24.9803 29.6309C25.1316 28.0387 26.4062 26.8029 28.0074 26.6682C36.7624 25.9236 45.5093 25.9236 54.2642 26.6682C55.8655 26.8029 57.1401 28.0387 57.3073 29.6309C57.9685 36.1662 57.9685 42.6936 57.3073 49.229C57.1401 50.8133 55.8655 52.049 54.2642 52.1837C45.5332 52.9283 36.8102 52.9283 28.0791 52.1837C26.454 52.049 25.1555 50.7657 25.0201 49.1418C24.4465 42.3926 24.3828 35.8731 24.9803 29.6309Z" fill="#CCD9FD" stroke="#1C1C1C" stroke-width="0.5" stroke-linejoin="round"/>
<path d="M43.294 40.1667C43.3657 37.1011 45.9866 34.6691 49.0695 34.6137C52.2002 34.5582 55.2912 34.7087 58.5334 35.0177C58.9716 38.0437 58.8361 41.2678 58.7405 45.3633C58.7326 45.799 58.39 46.1634 57.9598 46.195C55.0601 46.4485 52.2162 46.5357 49.3563 46.4723C45.9706 46.3931 43.2223 43.5413 43.294 40.1588V40.1667Z" fill="#4169E1" stroke="#1C1C1C" stroke-width="0.5" stroke-linejoin="round"/>
<path d="M43.2923 38.1391C43.364 35.0734 45.9929 32.6494 49.0758 32.5623C52.0233 32.4831 54.9788 32.5623 57.9263 32.8237C58.4123 32.8633 58.7946 33.2673 58.8265 33.7505C59.0575 37.8064 59.0416 39.1214 58.8743 44.104C55.7197 44.413 52.5332 44.5239 49.3466 44.4447C45.961 44.3655 43.2126 41.5137 43.2923 38.1312V38.1391Z" fill="#CCD9FD" stroke="#1C1C1C" stroke-width="0.5" stroke-linejoin="round"/>
<path d="M52.6617 37.2597C52.6617 38.4321 51.8731 39.4223 51.2198 39.7391V42.0601H48.9654V39.7391C48.2405 39.4223 47.4598 38.4321 47.4598 37.2597C47.4598 35.8338 48.6228 34.6772 50.0568 34.6772C51.4907 34.6772 52.6617 35.8338 52.6617 37.2597Z" fill="#4169E1" stroke="#1C1C1C" stroke-width="0.5" stroke-linejoin="round"/>
</g>
<defs>
<clipPath id="clip0_18011_3536">
<rect width="62" height="62" rx="5" fill="white"/>
</clipPath>
</defs>
</svg>
