<svg width="102" height="102" viewBox="0 0 102 102" fill="none" xmlns="http://www.w3.org/2000/svg">
<rect x="0.5" y="0.5" width="101" height="101" rx="4.5" stroke="#8A38F5" stroke-dasharray="10 5"/>
<g clip-path="url(#clip0_18011_7356)">
<path d="M59.1539 27.6406C57.6554 28.8425 56.147 30.0344 54.5703 31.1292L74.5445 52.2944C75.2322 51.9332 76.1485 51.3553 77.061 50.4561C77.8195 49.7075 78.3497 48.959 78.7085 48.3599C72.4115 41.653 65.4509 34.3488 59.1539 27.6406Z" fill="#4169E1" stroke="#1C1C1C" stroke-width="0.5" stroke-miterlimit="10" stroke-linejoin="round"/>
<path d="M58.1227 26.5625C56.6242 27.7644 55.1158 28.9563 53.5391 30.0511L72.8494 50.619C73.5149 50.2416 74.3516 49.6824 75.2021 48.8728C76.0215 48.0919 76.6075 47.3135 77.0134 46.6845C70.7165 39.9776 64.4196 33.2707 58.1227 26.5625Z" fill="#CCD9FD" stroke="#1C1C1C" stroke-width="0.5" stroke-miterlimit="10" stroke-linejoin="round"/>
<path d="M51.3253 34.7109C50.1571 36.2367 48.9168 37.7063 47.5859 39.0901L67.0389 59.3467C67.6956 59.0004 68.5746 58.4474 69.4548 57.5843C70.2668 56.7884 70.8118 55.9901 71.1681 55.3761L51.3253 34.7109Z" fill="#4169E1" stroke="#1C1C1C" stroke-width="0.5" stroke-miterlimit="10" stroke-linejoin="round"/>
<path d="M59.9264 65.8147C59.9264 66.3669 59.4787 66.8147 58.9264 66.8147H21.2315C20.7308 66.8147 20.3052 66.4446 20.255 65.9464C20.1682 65.0833 20.1161 64.1319 20.1263 63.1044C20.1374 61.9236 20.2293 60.8475 20.3572 59.896H59.9264V65.8147Z" fill="#FF9500" stroke="#1C1C1C" stroke-width="0.5" stroke-miterlimit="10" stroke-linejoin="round"/>
<path d="M59.929 64.6516H21.2082C20.7188 64.6516 20.2982 64.2977 20.2419 63.8115C20.1728 63.2145 20.1276 62.5552 20.1251 61.843C20.1226 61.0837 20.1689 60.3832 20.2418 59.7532C20.298 59.2672 20.7185 58.9136 21.2077 58.9136H59.929V64.6528V64.6516Z" fill="#FFE2C8" stroke="#1C1C1C" stroke-width="0.5" stroke-miterlimit="10" stroke-linejoin="round"/>
<path d="M59.9992 77.1262C59.9091 77.5717 59.5079 77.8771 59.0534 77.8768L21.1166 77.8488C20.6216 77.8484 20.1991 77.4863 20.1442 76.9945C20.0462 76.1158 19.9874 75.1344 20.0023 74.0681C20.0184 72.9086 20.119 71.8586 20.2556 70.9395H59.8248C60.0371 71.7428 60.2295 72.774 60.2668 73.9809C60.3036 75.1888 60.1738 76.2622 59.9992 77.1262Z" fill="#FF9500" stroke="#1C1C1C" stroke-width="0.5" stroke-miterlimit="10" stroke-linejoin="round"/>
<path d="M60.1204 75.1271C60.0211 75.5517 59.63 75.8331 59.1939 75.8331H21.1929C20.7091 75.8331 20.2912 75.4871 20.2302 75.0071C20.1612 74.4638 20.1136 73.867 20.1039 73.2238C20.0899 72.3773 20.1442 71.6052 20.2308 70.9226C20.2917 70.442 20.7099 70.0952 21.1943 70.0952H59.1934C59.6297 70.0952 60.0209 70.3767 60.1202 70.8016C60.2681 71.4346 60.385 72.2261 60.3684 73.1366C60.3548 73.8999 60.2506 74.5709 60.1204 75.1271Z" fill="#FFE2C8" stroke="#1C1C1C" stroke-width="0.5" stroke-miterlimit="10" stroke-linejoin="round"/>
<path d="M34.6941 55.6393H21.2278C20.7292 55.6393 20.3046 55.2724 20.2526 54.7765C20.1528 53.825 20.0973 52.7652 20.1238 51.6152C20.1473 50.5652 20.2367 49.6012 20.3584 48.7356H34.6941V55.6393Z" fill="#FF9500" stroke="#1C1C1C" stroke-width="0.5" stroke-miterlimit="10" stroke-linejoin="round"/>
<path d="M34.6952 53.4743H21.208C20.7186 53.4743 20.298 53.1204 20.2419 52.6342C20.172 52.0277 20.1266 51.3562 20.1249 50.6296C20.124 49.8839 20.1704 49.1964 20.2419 48.577C20.2981 48.0906 20.7189 47.7363 21.2086 47.7363H34.6952V53.4755V53.4743Z" fill="#FFE2C8" stroke="#1C1C1C" stroke-width="0.5" stroke-miterlimit="10" stroke-linejoin="round"/>
<path d="M44.2918 44.4599H21.2022C20.7158 44.4599 20.2972 44.1103 20.2341 43.628C20.1118 42.6931 20.0378 41.6219 20.07 40.442C20.0998 39.3621 20.2141 38.3894 20.3605 37.5425H44.2906V44.4611L44.2918 44.4599Z" fill="#FF9500" stroke="#1C1C1C" stroke-width="0.5" stroke-miterlimit="10" stroke-linejoin="round"/>
<path d="M44.2928 42.2965H21.1783C20.703 42.2965 20.2896 41.9626 20.2211 41.4923C20.1335 40.8915 20.0728 40.2087 20.0711 39.4581C20.0694 38.6828 20.1312 37.9793 20.221 37.363C20.2896 36.8926 20.703 36.5586 21.1783 36.5586H44.2916V42.2978L44.2928 42.2965Z" fill="#FFE2C8" stroke="#1C1C1C" stroke-width="0.5" stroke-miterlimit="10" stroke-linejoin="round"/>
<path d="M55.3694 33.2833H21.225C20.729 33.2833 20.3056 32.9201 20.2514 32.427C20.162 31.6139 20.1058 30.7125 20.1094 29.735C20.1144 28.4745 20.2187 27.3411 20.3614 26.3647H55.3682V33.2821L55.3694 33.2833Z" fill="#FF9500" stroke="#1C1C1C" stroke-width="0.5" stroke-miterlimit="10" stroke-linejoin="round"/>
<path d="M55.3688 31.1188C55.3693 31.1193 55.3689 31.12 55.3683 31.12H21.1963C20.7132 31.12 20.2957 30.775 20.2337 30.2959C20.161 29.7339 20.1108 29.1122 20.1026 28.4385C20.0931 27.6168 20.1477 26.8672 20.2335 26.2042C20.2955 25.7254 20.7128 25.3809 21.1956 25.3809H54.6634C55.0864 25.3809 55.4692 25.6454 55.5779 26.0541C55.7377 26.6548 55.8724 27.4235 55.8654 28.3177C55.8555 29.5246 55.5923 30.4936 55.3688 31.1188Z" fill="#FFE2C8" stroke="#1C1C1C" stroke-width="0.5" stroke-miterlimit="10" stroke-linejoin="round"/>
<path d="M51.7101 37.7381H46.25V21.4086C46.9651 21.2678 47.8379 21.1545 48.8311 21.1433C49.5935 21.1357 50.2874 21.19 50.8986 21.2736C51.3723 21.3384 51.7101 21.7534 51.7101 22.2315V37.7381Z" fill="#FF9500" stroke="#1C1C1C" stroke-width="0.5" stroke-linejoin="round"/>
<path d="M31.1362 53.8311H25.2812V21.4075C25.9864 21.2069 26.966 21.0077 28.1404 21.0002C29.0088 20.995 29.773 21.0953 30.403 21.227C30.8406 21.3184 31.1362 21.7159 31.1362 22.1629V53.8311Z" fill="#FF9500" stroke="#1C1C1C" stroke-width="0.5" stroke-linejoin="round"/>
<path d="M43.5732 41.6016C43.3745 41.6838 43.1771 41.761 42.9797 41.8357C41.5756 42.8595 40.1851 43.8995 38.6953 44.7726L59.6138 66.6818C60.2644 66.3231 61.0949 65.7838 61.9404 64.9904C62.7921 64.1896 63.3855 63.3862 63.784 62.7548C57.2463 55.7676 50.1122 48.5887 43.5732 41.6016Z" fill="#4169E1" stroke="#1C1C1C" stroke-width="0.5" stroke-miterlimit="10" stroke-linejoin="round"/>
<path d="M42.6591 40.4036C42.4605 40.4858 42.2631 40.563 42.0657 40.6377C40.6615 41.6615 39.2711 42.7015 37.7812 43.5746L58.1034 65.2908C58.7726 64.9271 59.6379 64.3692 60.512 63.531C61.3202 62.7563 61.8876 61.9803 62.2737 61.3626C55.7359 54.3754 49.1981 47.3895 42.6591 40.4023V40.4036Z" fill="#CCD9FD" stroke="#1C1C1C" stroke-width="0.5" stroke-miterlimit="10" stroke-linejoin="round"/>
<path d="M50.3332 33.6758C49.1649 35.2015 47.9246 36.6712 46.5938 38.0549L65.4684 57.8058C66.1214 57.4583 66.9892 56.9078 67.8607 56.0583C68.6826 55.2563 69.2363 54.4529 69.5976 53.8339L50.3332 33.6758Z" fill="#CCD9FD" stroke="#1C1C1C" stroke-width="0.5" stroke-miterlimit="10" stroke-linejoin="round"/>
<path d="M31.0776 80.7305C31.0776 81.2175 30.7272 81.6368 30.2438 81.6957C29.5146 81.7845 28.6921 81.8374 27.7926 81.8188C26.8366 81.7989 25.9763 81.7017 25.2351 81.5734C25.0893 81.3497 24.9435 81.1254 24.7978 80.9013C24.6758 80.7138 24.62 80.4908 24.6395 80.2679L25.2351 73.4741C25.2351 72.5636 25.3642 64.3272 29.8162 55.7309C32.5265 50.4986 37.2802 43.8901 42.8719 39.6555L62.9813 22.7601C63.29 22.5008 63.7274 22.4468 64.0678 22.6626C64.5795 22.987 65.2014 23.4682 65.7876 24.1641C66.3618 24.8456 66.7275 25.5259 66.9609 26.0774C67.1191 26.4512 66.9912 26.8768 66.6804 27.1379C59.9105 32.8254 53.1417 38.514 46.3717 44.2015L46.26 44.2787C41.9607 47.5643 37.2876 53.7481 34.8903 58.3776C31.064 65.7645 31.0776 72.7068 31.0776 73.4741V80.7305Z" fill="#4169E1" stroke="#1C1C1C" stroke-width="0.5" stroke-miterlimit="10" stroke-linejoin="round"/>
<path d="M50.0099 37.738H44.2891V22.2285C44.2891 21.7517 44.6252 21.3375 45.0973 21.2709C45.7006 21.1857 46.3844 21.1278 47.1346 21.127C47.8957 21.127 48.5894 21.1855 49.2003 21.2714C49.673 21.3379 50.0099 21.7524 50.0099 22.2298V37.738Z" fill="#FFE2C8" stroke="#1C1C1C" stroke-width="0.5" stroke-linejoin="round"/>
<path d="M29.3457 79.6125C29.3458 80.1649 28.898 80.6127 28.3457 80.6127H24.625C24.0727 80.6127 23.625 80.165 23.625 79.6127V72.5133C23.625 71.6029 23.7541 63.3665 28.2062 54.7702C30.9164 49.5379 35.6701 42.9294 41.2618 38.6947L61.1943 21.9061C61.5282 21.6249 62.0092 21.5885 62.3587 21.8502C62.8552 22.222 63.4214 22.7211 63.9702 23.3765C64.4905 23.9978 64.8695 24.6084 65.1444 25.1386C65.3464 25.5282 65.2297 25.9994 64.894 26.2821C58.1833 31.9338 51.4736 37.5866 44.7629 43.2383L44.6511 43.3155C40.3518 46.6011 35.6788 52.7849 33.2814 57.4143C29.4551 64.8013 29.3446 71.7436 29.3446 72.5108L29.3457 79.6125Z" fill="#CCD9FD" stroke="#1C1C1C" stroke-width="0.5" stroke-miterlimit="10" stroke-linejoin="round"/>
<path d="M54.1129 80.77C54.1186 81.2622 53.7657 81.6884 53.277 81.7474C52.5939 81.8299 51.8293 81.8825 50.9967 81.8764C50.0886 81.8691 49.2655 81.7941 48.5442 81.6884C48.2861 81.6506 48.0565 81.5068 47.903 81.296C47.7371 81.068 47.5714 80.8401 47.4062 80.6122L48.3026 72.7869V72.7358C48.3225 72.2139 48.5609 67.506 51.127 62.9039C52.6938 60.0941 54.3785 57.3404 57.7281 54.543L75.9623 37.154C76.2837 36.8474 76.7716 36.7858 77.1401 37.0338C77.8261 37.4953 78.6412 38.1555 79.4172 39.0779C79.982 39.7495 80.4006 40.4109 80.7099 40.9927C80.9142 41.3769 80.8113 41.8458 80.4875 42.1364C74.1843 47.7927 67.8799 53.449 61.5768 59.1052C58.946 61.2935 57.5171 63.2016 56.1191 65.7075C54.2656 69.0305 54.0433 72.458 54.0222 72.8989L54.1129 80.77Z" fill="#4169E1" stroke="#1C1C1C" stroke-width="0.5" stroke-miterlimit="10" stroke-linejoin="round"/>
<path d="M29.3224 79.7674C29.3224 80.2554 28.9705 80.6752 28.4859 80.7325C27.8444 80.8082 27.1288 80.856 26.3515 80.8517C25.6601 80.8476 25.0195 80.8017 24.4382 80.7328C23.9535 80.6753 23.6016 80.2553 23.6016 79.7672V22.2297C23.6016 21.7524 23.9383 21.3379 24.4109 21.2711C25.003 21.1873 25.6713 21.1296 26.4036 21.1271C27.1824 21.1237 27.8904 21.1831 28.5131 21.2711C28.9857 21.3379 29.3224 21.7524 29.3224 22.2296V79.7674Z" fill="#FFE2C8" stroke="#1C1C1C" stroke-width="0.5" stroke-linejoin="round"/>
<path d="M52.2136 79.759C52.218 80.2511 51.8642 80.6763 51.3755 80.7334C50.697 80.8126 49.9384 80.8609 49.1126 80.8514C48.4489 80.8432 47.8314 80.7984 47.2671 80.7318C46.7821 80.6746 46.4297 80.2546 46.4297 79.7662V72.4842C46.4496 71.9623 46.6879 67.2544 49.2541 62.6524C50.8209 59.8426 52.5056 57.0888 55.8552 54.2914L75.0386 37.076C75.3357 36.8094 75.766 36.7395 76.1118 36.9389C76.6151 37.2291 77.2234 37.6604 77.8075 38.2907C78.4586 38.9927 78.8659 39.7103 79.1201 40.2819C79.2828 40.6478 79.1672 41.0698 78.8692 41.3372C72.4456 47.1014 66.0232 52.8666 59.5996 58.6307L59.5536 58.6693C56.9229 60.8576 55.6441 62.9488 54.2462 65.4559C52.3926 68.7789 52.1704 72.2065 52.1493 72.6474L52.2136 79.759Z" fill="#CCD9FD" stroke="#1C1C1C" stroke-width="0.5" stroke-miterlimit="10" stroke-linejoin="round"/>
</g>
<defs>
<clipPath id="clip0_18011_7356">
<rect width="62" height="62" fill="white" transform="translate(20 20)"/>
</clipPath>
</defs>
</svg>
