<svg width="105" height="102" viewBox="0 0 105 102" fill="none" xmlns="http://www.w3.org/2000/svg">
<rect x="0.5" y="0.5" width="104" height="101" rx="4.5" stroke="#9747FF" stroke-dasharray="10 5"/>
<path d="M51.5899 29.26C51.8999 29.08 52.2799 29.08 52.5899 29.26L73.2399 41.18C73.5499 41.36 73.7399 41.69 73.7399 42.05V65.9C73.7399 66.26 73.5499 66.59 73.2399 66.77L52.5899 78.69C52.2799 78.87 51.8999 78.87 51.5899 78.69L30.9399 66.77C30.6299 66.59 30.4399 66.26 30.4399 65.9V42.05C30.4399 41.69 30.6299 41.36 30.9399 41.18L51.5899 29.26Z" fill="#CCD9FD" stroke="#1C1C1C" stroke-width="0.5" stroke-miterlimit="10"/>
<path d="M51.5899 23.26C51.8999 23.08 52.2799 23.08 52.5899 23.26L73.2399 35.18C73.5499 35.36 73.7399 35.69 73.7399 36.05V59.9C73.7399 60.26 73.5499 60.59 73.2399 60.77L52.5899 72.69C52.2799 72.87 51.8999 72.87 51.5899 72.69L30.9399 60.77C30.6299 60.59 30.4399 60.26 30.4399 59.9V36.05C30.4399 35.69 30.6299 35.36 30.9399 35.18L51.5899 23.26Z" fill="#4169E1" stroke="#1C1C1C" stroke-width="0.5" stroke-miterlimit="10"/>
<path d="M52.09 27.97L69.41 37.97V57.97L52.09 67.97L34.77 57.97V37.97L52.09 27.97Z" fill="#CCD9FD" stroke="#1C1C1C" stroke-width="0.5" stroke-linejoin="round"/>
<mask id="mask0_18011_9020" style="mask-type:alpha" maskUnits="userSpaceOnUse" x="34" y="27" width="36" height="42">
<path d="M52.09 27.97L69.41 37.97V57.97L52.09 67.97L34.77 57.97V37.97L52.09 27.97Z" fill="#CCD9FD" stroke="#1C1C1C" stroke-width="0.5" stroke-linejoin="round"/>
</mask>
<g mask="url(#mask0_18011_9020)">
</g>
<path d="M52.09 27.97L69.41 37.97V57.97L52.09 67.97L34.77 57.97V37.97L52.09 27.97Z" stroke="#1C1C1C" stroke-width="0.5" stroke-linejoin="round"/>
<path d="M50.1396 40.9902C50.2481 40.9902 50.3446 41.0599 50.3779 41.1631C50.4112 41.2664 50.3743 41.38 50.2861 41.4434C49.4364 42.0541 48.6741 42.6374 47.999 43.1934L47.9971 43.1953C47.3269 43.734 46.7431 44.2763 46.2471 44.8242L46.248 44.8252C45.7649 45.3737 45.3611 45.9336 45.0371 46.5039C44.9283 46.699 44.8305 46.8998 44.7441 47.1064C44.8831 46.9437 45.0363 46.7952 45.2061 46.6631C45.4823 46.4452 45.7994 46.2726 46.1553 46.1445C46.5214 46.0127 46.9383 45.9502 47.4004 45.9502C48.0022 45.9502 48.5666 46.0618 49.0908 46.2871C49.6275 46.499 50.0911 46.8044 50.4766 47.2031C50.8765 47.603 51.1805 48.0929 51.3916 48.667C51.6183 49.2336 51.7305 49.8592 51.7305 50.54C51.7305 51.2881 51.5974 51.9797 51.3311 52.6123L51.332 52.6133C51.0787 53.2465 50.705 53.7968 50.2119 54.2617H50.2109C49.7312 54.7132 49.1553 55.064 48.4873 55.3145C47.8151 55.5664 47.0649 55.6904 46.2402 55.6904C45.3881 55.6904 44.6165 55.5593 43.9297 55.293L43.9258 55.291C43.2418 55.0118 42.6582 54.619 42.1787 54.1113L42.1738 54.1064C41.7104 53.5868 41.3543 52.9713 41.1045 52.2637L41.1025 52.2588C40.8662 51.5495 40.75 50.7625 40.75 49.9004C40.75 48.9015 40.9005 47.9537 41.2031 47.0596L41.2041 47.0576C41.5166 46.1609 41.911 45.3366 42.3887 44.5859L42.3896 44.585C42.8786 43.8243 43.4233 43.1431 44.0234 42.543L44.0254 42.541C44.6346 41.9453 45.2466 41.442 45.8613 41.0322L45.9277 41.001C45.9511 40.9939 45.9754 40.9902 46 40.9902H50.1396ZM58.1523 40.75C60.0435 40.75 61.4822 41.4109 62.418 42.7578C63.3376 44.0819 63.7822 45.9123 63.7822 48.2197C63.7822 50.5275 63.3378 52.3584 62.418 53.6826C61.4822 55.0295 60.0435 55.6904 58.1523 55.6904C56.2611 55.6904 54.8225 55.0296 53.8867 53.6826C52.9668 52.3584 52.5225 50.5276 52.5225 48.2197C52.5225 45.9122 52.967 44.0819 53.8867 42.7578C54.8225 41.4108 56.2611 40.75 58.1523 40.75ZM46.2402 48.75C45.6216 48.75 45.1713 48.9215 44.8564 49.2363L44.8535 49.2402C44.543 49.5397 44.3701 49.986 44.3701 50.6201V50.9805C44.3702 51.6117 44.5417 52.0661 44.8535 52.3799C45.168 52.6832 45.6191 52.8496 46.2402 52.8496C46.8592 52.8496 47.3087 52.6841 47.623 52.3828C47.9369 52.0689 48.1103 51.6138 48.1104 50.9805V50.6201C48.1104 49.9862 47.9373 49.5397 47.627 49.2402L47.623 49.2363C47.3082 48.9217 46.8586 48.75 46.2402 48.75ZM58.1523 43.79C57.4221 43.79 56.9676 44.0507 56.7139 44.5361C56.434 45.0716 56.2822 45.8522 56.2822 46.9004V49.54C56.2822 50.5884 56.4339 51.3688 56.7139 51.9043C56.9676 52.3896 57.4222 52.6504 58.1523 52.6504C58.8825 52.6504 59.3371 52.3897 59.5908 51.9043C59.8707 51.3688 60.0225 50.5884 60.0225 49.54V46.9004C60.0225 45.8523 59.8706 45.0716 59.5908 44.5361C59.3371 44.0508 58.8825 43.7901 58.1523 43.79Z" fill="#FF9500" stroke="black" stroke-width="0.5" stroke-linejoin="round"/>
<path d="M40.0931 31.6606C40.9555 31.9758 41.651 32.2355 42.3372 32.4951C43.3109 32.8568 43.3109 34.2292 42.3372 34.5909C41.6417 34.8505 40.9462 35.1102 40.0931 35.4254C39.7871 35.5367 39.5367 35.7871 39.4162 36.0931C39.1009 36.9555 38.8412 37.651 38.5816 38.3372C38.2199 39.3109 36.8475 39.3109 36.4859 38.3372C36.2262 37.6417 35.9666 36.9462 35.6513 36.0931C35.54 35.7871 35.2896 35.5367 34.9743 35.4162C34.112 35.1009 33.4165 34.8412 32.7303 34.5816C31.7566 34.2199 31.7566 32.8475 32.7303 32.4859C33.4257 32.2262 34.1212 31.9666 34.9743 31.6513C35.2804 31.54 35.5307 31.2896 35.642 30.9743C35.9573 30.112 36.2169 29.4165 36.4766 28.7303C36.8382 27.7566 38.2107 27.7566 38.5723 28.7303C38.832 29.4257 39.0916 30.1212 39.4069 30.9743C39.5182 31.2804 39.7685 31.5307 40.0746 31.6513L40.0931 31.6606Z" fill="white" stroke="#1C1C1C" stroke-width="0.5" stroke-linejoin="round"/>
</svg>
