<svg width="102" height="102" viewBox="0 0 102 102" fill="none" xmlns="http://www.w3.org/2000/svg">
<rect x="0.5" y="0.5" width="101" height="101" rx="4.5" stroke="#8A38F5" stroke-dasharray="10 5"/>
<path d="M63.8239 74.7871C63.8239 77.9003 61.4434 80.5095 58.3341 80.6637C55.9681 80.781 53.4871 80.8477 50.9007 80.8474C48.3297 80.8471 45.8631 80.7804 43.5103 80.6637C40.4009 80.5095 38.0203 77.9001 38.0203 74.7869V64.1221H63.8239V74.7871Z" fill="#CCD9FD" stroke="#1C1C1C" stroke-width="0.5" stroke-miterlimit="10" stroke-linejoin="round"/>
<path d="M54.7841 80.8223C53.3991 80.8545 51.9797 80.8706 50.528 80.8677C49.2918 80.8654 48.0795 80.8499 46.8918 80.8223V64.1447H54.7835V80.8223H54.7841Z" fill="#4169E1" stroke="#1C1C1C" stroke-width="0.5" stroke-miterlimit="10" stroke-linejoin="round"/>
<path d="M66.834 62.1266C66.6916 62.9384 65.9702 63.4529 65.1461 63.4529L36.5305 63.4524C35.7222 63.4524 35.0048 62.9586 34.849 62.1655C34.6516 61.1606 34.5063 59.8508 34.5748 58.8097C34.6466 57.7223 34.9295 56.8292 35.1955 56.1932H66.5128C66.7905 56.9063 67.1186 58.0179 67.1089 59.3998C67.1034 60.1996 66.9861 61.2594 66.834 62.1266Z" fill="#CCD9FD" stroke="#1C1C1C" stroke-width="0.5" stroke-miterlimit="10" stroke-linejoin="round"/>
<path d="M63.8239 75.2899C63.8239 76.3276 63.0304 77.1944 61.9955 77.2712C58.567 77.5256 54.8572 77.6819 50.9007 77.6815C46.9601 77.681 43.265 77.5247 39.8487 77.2712C38.8138 77.1944 38.0203 76.3275 38.0203 75.2898L38.0203 63.4883H63.8239L63.8239 75.2899Z" fill="#E8EDFA" stroke="#1C1C1C" stroke-width="0.5" stroke-miterlimit="10"/>
<path d="M54.7841 77.6337C53.3991 77.6659 51.9797 77.682 50.528 77.6791C49.2918 77.6768 48.0795 77.6613 46.8918 77.6337L46.8918 62.5151H54.7835V77.6337H54.7841Z" fill="#4169E1" stroke="#1C1C1C" stroke-width="0.5" stroke-miterlimit="10" stroke-linejoin="round"/>
<path d="M66.909 59.6412C66.7322 60.4461 65.9702 60.9478 65.1461 60.9478H36.5305C35.7222 60.9478 34.9709 60.466 34.7823 59.68C34.6206 59.0061 34.5143 58.1904 34.5748 57.2708C34.6074 56.778 34.6832 56.3251 34.7813 55.9179C34.97 55.1339 35.7205 54.6542 36.5269 54.6542H65.1453C65.9698 54.6542 66.732 55.1562 66.9088 55.9615C67.0296 56.5116 67.1139 57.1505 67.1089 57.8608C67.1044 58.5232 67.0232 59.1213 66.909 59.6412Z" fill="#E8EDFA" stroke="#1C1C1C" stroke-width="0.5" stroke-miterlimit="10" stroke-linejoin="round"/>
<path d="M56.1149 54.6542H45.7075V60.9483H56.1149V54.6542Z" fill="#4169E1" stroke="#1C1C1C" stroke-width="0.5" stroke-miterlimit="10" stroke-linejoin="round"/>
<path d="M56.188 61.0742H45.6396L46.698 63.2522H55.1366L56.188 61.0742Z" fill="#4169E1" stroke="#1C1C1C" stroke-width="0.5" stroke-miterlimit="10" stroke-linejoin="round"/>
<path d="M50.5755 20.9999C37.4003 20.9999 26.7197 31.4797 26.7197 44.4085H26.7239V44.316C27.3684 43.3496 29.5056 42.865 31.3741 42.5765C33.448 42.2562 35.1139 42.4246 36.3113 42.6138L36.3408 42.6179C36.3479 42.6152 36.3563 42.6124 36.3633 42.611C38.0236 31.0545 43.1986 20.9999 50.5755 20.9999Z" fill="#E8EDFA" stroke="black" stroke-width="0.5" stroke-linejoin="round"/>
<path d="M50.8441 21.0054C50.8257 21.0027 50.8074 21.0013 50.789 20.9999C50.7692 20.9999 50.7495 20.9999 50.7283 20.9999C50.7198 20.9999 50.7099 20.9999 50.7014 21.0013C50.7495 21.0013 50.7961 21.0027 50.8441 21.0054Z" fill="white" stroke="#231F20" stroke-width="0.5" stroke-miterlimit="10"/>
<path d="M50.792 20.9999C50.8103 20.9999 50.8286 21.0026 50.8469 21.0054C57.7131 21.3243 64.3246 33.8376 64.9999 42.5916C65.0168 42.5972 65.0351 42.6041 65.052 42.6096C66.2466 42.4108 67.8618 42.2962 69.9371 42.6013C71.7916 42.8733 74.092 43.6878 74.4353 44.3863C74.4241 31.5362 63.8631 21.1117 50.792 20.9999Z" fill="#E8EDFA" stroke="black" stroke-width="0.5" stroke-linejoin="round"/>
<path d="M50.7272 21.0013C50.6764 21.0013 50.6255 20.9999 50.5732 20.9999C50.6156 20.9999 50.658 21.0027 50.699 21.004C50.7075 21.004 50.7174 21.004 50.7258 21.0027L50.7272 21.0013Z" fill="white" stroke="#231F20" stroke-width="0.5" stroke-miterlimit="10"/>
<path d="M50.8493 21.0116C50.8014 21.0088 50.755 21.0088 50.7072 21.0074C48.2716 21.1593 46.2033 30.7831 45.6321 42.2016V42.2568L45.6954 42.2416C46.7915 41.9062 48.5854 41.5569 50.4778 41.532C52.57 41.5058 54.2824 41.8882 55.4389 42.243C55.1575 34.1144 53.0428 21.3305 50.8493 21.0116Z" fill="#E8EDFA" stroke="black" stroke-width="0.5" stroke-linejoin="round"/>
<path d="M50.6994 21.004C50.6572 21.004 50.615 20.9999 50.5742 20.9999C43.1958 20.9999 38.0223 31.0544 36.3606 42.611C37.4412 42.2355 38.9762 41.8296 40.8546 41.7343C42.951 41.6266 44.4467 41.9455 45.6173 42.2562L45.6257 42.2534V42.1982C46.1956 30.7797 48.2639 21.1545 50.6994 21.004Z" fill="#E8EDFA" stroke="black" stroke-width="0.5" stroke-linejoin="round"/>
<path d="M50.8372 21.015C53.0307 21.3339 55.1454 34.1192 55.4268 42.2465C55.431 42.2465 55.4339 42.2492 55.4381 42.2492L55.4944 42.2644C56.6031 41.9745 58.1902 41.6473 60.0826 41.7011C62.1495 41.7605 63.8478 42.2023 64.9888 42.5999C64.3149 33.8472 57.7019 21.3339 50.8372 21.015Z" fill="#E8EDFA" stroke="black" stroke-width="0.5" stroke-linejoin="round"/>
<path d="M74.4376 44.4096C74.4376 44.4027 74.4361 44.3944 74.4347 44.3875C74.0858 43.6889 71.791 42.8772 69.9379 42.6052C67.8612 42.3001 66.2474 42.4147 65.0528 42.6135C65.0359 42.608 65.0176 42.6011 65.0008 42.5956C65.0008 42.6025 65.0008 42.6094 65.0022 42.6176C65.0022 44.8127 64.9937 45.4975 64.9895 46.2002L65.0162 46.2043C66.2136 46.3934 67.7078 46.5619 69.7804 46.2416C71.6489 45.953 73.7861 45.4685 74.4305 44.5021V44.44C74.4319 44.4289 74.4347 44.4193 74.4347 44.4082L74.4376 44.4096Z" fill="#4169E1" stroke="black" stroke-width="0.5" stroke-linejoin="round"/>
<path d="M64.9934 42.598C63.8523 42.2004 62.1541 41.7573 60.0872 41.6993C58.1962 41.6454 56.6077 41.9726 55.4989 42.2625L55.4427 42.2474C55.4427 42.2474 55.4356 42.2446 55.4314 42.2446C55.4314 42.2515 55.4314 42.2584 55.4314 42.2653V46.5754L55.468 46.5671C56.6386 46.8777 58.1976 47.1966 60.294 47.0889C62.1836 46.9923 63.9002 46.5823 64.9808 46.204H64.9836C64.9878 45.5013 64.9962 44.8166 64.9962 42.6215C64.9962 42.6146 64.9962 42.6077 64.9948 42.5994L64.9934 42.598Z" fill="#4169E1" stroke="black" stroke-width="0.5" stroke-linejoin="round"/>
<path d="M55.4375 42.2397C54.2795 41.8849 52.5672 41.5025 50.4764 41.5287C48.584 41.5522 46.7689 41.9029 45.6729 42.2383L45.6321 42.248C45.6321 44.2415 45.6476 44.6281 45.6518 46.5595H45.6546L45.7109 46.5746C46.8688 46.9294 48.5854 47.3146 50.6832 47.2884C52.5757 47.2649 54.3063 46.9143 55.4023 46.5788L55.4389 46.5705V42.2604C55.4389 42.2535 55.4389 42.2466 55.4389 42.2397H55.4375Z" fill="#4169E1" stroke="black" stroke-width="0.5" stroke-linejoin="round"/>
<path d="M45.5962 42.2517C44.4256 41.9411 42.951 41.6222 40.856 41.7299C38.979 41.8265 37.4426 42.231 36.362 42.6065C36.362 42.6093 36.362 42.6134 36.3606 42.6162C36.3606 44.3211 36.3803 44.912 36.3859 46.2001C36.3887 46.2001 36.3901 46.2001 36.393 46.2001C37.534 46.6018 38.9622 47.0574 41.0614 47.1167C42.951 47.1706 44.5367 46.8434 45.6454 46.5549C45.6412 44.6235 45.6257 44.2369 45.6257 42.2434L45.5948 42.2503L45.5962 42.2517Z" fill="#4169E1" stroke="black" stroke-width="0.5" stroke-linejoin="round"/>
<path d="M36.3634 42.6093C36.3563 42.6121 36.3479 42.6148 36.3408 42.6162L36.3113 42.6121C35.1139 42.4229 33.448 42.2545 31.3741 42.5748C29.5197 42.8606 27.4007 43.341 26.7394 44.2922C26.7324 44.3156 26.7268 44.3377 26.7239 44.3598V44.4068H26.7197C26.7197 44.4137 26.7211 44.4192 26.7225 44.4261H26.7197C26.7197 44.4261 26.7225 44.4302 26.7239 44.433C26.7352 44.5186 26.8041 44.6042 26.9294 44.687C27.6188 45.3165 29.59 45.9737 31.2179 46.2125C33.2904 46.5162 35.1913 46.403 36.3873 46.2056C36.3802 44.9176 36.3619 44.3253 36.3619 42.6217C36.3619 42.619 36.3619 42.6148 36.3634 42.6121V42.6093Z" fill="#4169E1" stroke="black" stroke-width="0.5" stroke-linejoin="round"/>
<path d="M26.7197 44.7488L49.9729 54.6441" stroke="black" stroke-width="0.5" stroke-linecap="round" stroke-linejoin="round"/>
<path d="M36.1194 42.7722L49.9722 54.6478" stroke="black" stroke-width="0.5" stroke-linecap="round" stroke-linejoin="round"/>
<path d="M73.7175 44.7488L50.4644 54.6441" stroke="black" stroke-width="0.5" stroke-linecap="round" stroke-linejoin="round"/>
<path d="M65.3137 42.7722L50.4713 54.6466" stroke="black" stroke-width="0.5" stroke-linecap="round" stroke-linejoin="round"/>
</svg>
