<svg width="102" height="102" viewBox="0 0 102 102" fill="none" xmlns="http://www.w3.org/2000/svg">
<rect x="0.5" y="0.5" width="101" height="101" rx="4.5" stroke="#9747FF" stroke-dasharray="10 5"/>
<path d="M71.6392 54.34C71.6392 65.4739 62.5887 74.5 51.4242 74.5C40.2596 74.5 30.4079 64.7273 30.4079 53.5933C29.3239 34.8107 40.2596 34.1799 51.4242 34.1799C62.5887 34.1799 72.2523 35.1552 71.6392 54.34Z" fill="#3795F3" stroke="#1C1C1C" stroke-width="0.5" stroke-miterlimit="10"/>
<path d="M50.9478 70.3974C62.3327 70.3974 71.5621 60.9064 71.5621 49.1987C71.5621 37.491 62.3327 28 50.9478 28C39.5628 28 30.3335 37.491 30.3335 49.1987C30.3335 60.9064 39.5628 70.3974 50.9478 70.3974Z" fill="#CFE5FC" stroke="#1C1C1C" stroke-width="0.5" stroke-miterlimit="10"/>
<path d="M51.0003 65.6186C59.9684 65.6186 67.2384 58.2641 67.2384 49.1919C67.2384 40.1197 59.9684 32.7652 51.0003 32.7652C42.0322 32.7652 34.7622 40.1197 34.7622 49.1919C34.7622 58.2641 42.0322 65.6186 51.0003 65.6186Z" fill="#3795F3" stroke="#1C1C1C" stroke-width="0.5" stroke-miterlimit="10"/>
<g clip-path="url(#clip0_18011_9053)">
<path d="M45.6506 46.1307H46.8043L47.6633 45.2594H45.9222C46.1192 44.6234 46.3263 43.9491 46.4243 43.6198C46.6202 42.9588 47.0045 42.0545 47.7451 41.3605C48.4856 40.6665 49.2017 41.1746 49.2017 41.1746L49.5979 40.6706C48.9935 40.1792 47.8611 40.394 47.8611 40.394C45.772 40.7576 44.8513 42.9711 44.7713 43.1284C44.736 43.1979 44.4241 44.1833 44.0873 45.2594H42.9023L42.0778 46.1307H43.8158C43.488 47.1838 43.2027 48.109 43.2027 48.109C43.2027 48.109 42.3062 51.793 41.4097 53.6598C40.5128 55.5265 39 55.7581 39 55.7581C40.9209 56.0804 42.2417 54.5604 42.8259 53.817C43.4102 53.0736 43.9465 51.686 44.1306 51.0083C44.3146 50.3311 45.3671 47.0146 45.4791 46.6715C45.5076 46.5846 45.5699 46.3872 45.6502 46.1303L45.6506 46.1307Z" fill="white"/>
<path d="M48.9014 47.1369C50.6732 46.4098 51.9645 46.531 53.7038 46.4322C55.4436 46.3329 57.4286 45.8486 57.4286 45.8486C62.4979 44.3836 61.9857 40 61.9857 40C61.4094 40.914 60.0432 41.9604 59.0296 42.5332C58.0157 43.106 57.162 43.5796 54.7606 44.0089C52.3592 44.4383 49.5847 44.8241 47.4927 46.4979C45.4007 48.1718 44.5579 50.9143 44.5579 50.9143C45.6057 49.1799 47.13 47.8636 48.9014 47.1366V47.1369Z" fill="white"/>
<path d="M51.8869 49.3891C53.2398 49.4798 54.7605 49.6371 56.6735 48.9762C58.5865 48.3153 59.3526 47.4194 60.1072 46.5392C60.5394 46.0352 60.8337 45.1345 60.8337 45.1345C60.8337 45.1345 59.2427 46.6303 55.849 47.1258C52.4553 47.6213 52.0389 47.3737 49.7978 47.8198C47.5567 48.2658 45.4435 50.0664 44.7551 51.4377C44.7551 51.4377 46.26 49.8928 48.1568 49.4468C50.0539 49.0007 50.534 49.2981 51.8869 49.3888V49.3891Z" fill="white"/>
<path d="M50.0596 50.6362L49.3191 54.3995C49.2226 54.8898 49.0407 55.263 48.7738 55.5191C48.5069 55.7752 48.1694 55.9031 47.762 55.9031C47.3546 55.9031 47.0683 55.7752 46.9033 55.5191C46.7383 55.263 46.7041 54.8898 46.8006 54.3995L47.5412 50.6362H46.3767L45.6361 54.3995C45.469 55.2485 45.5425 55.8941 45.8566 56.3365C46.1707 56.7788 46.7261 57 47.5232 57C48.3203 57 48.9719 56.7781 49.4707 56.3346C49.9696 55.8908 50.3021 55.2459 50.4685 54.3995L51.209 50.6362H50.06H50.0596Z" fill="white"/>
<path d="M53.1942 51.7886C53.3699 51.6611 53.6271 51.5975 53.965 51.5975C54.5402 51.5975 55.0239 51.7796 55.4165 52.1439L55.8819 50.9975C55.687 50.847 55.4407 50.7299 55.1424 50.6463C54.8442 50.5626 54.5247 50.521 54.1843 50.521C53.4776 50.521 52.9064 50.6935 52.4709 51.0388C52.0354 51.3838 51.7613 51.8428 51.6486 52.4153C51.6129 52.5959 51.6007 52.7632 51.6118 52.9163C51.623 53.0699 51.6471 53.2011 51.685 53.3107C51.7228 53.4204 51.7847 53.5237 51.8715 53.6211C51.958 53.7185 52.0387 53.7966 52.1136 53.8553C52.1885 53.9144 52.2915 53.9739 52.4226 54.0341C52.5541 54.0943 52.6607 54.1389 52.7425 54.1675C52.8246 54.1962 52.9345 54.2341 53.0724 54.2805C53.2201 54.33 53.3343 54.369 53.415 54.3976C53.4956 54.4262 53.586 54.4627 53.6855 54.5065C53.7852 54.5504 53.858 54.5928 53.9041 54.634C53.9502 54.6749 53.9938 54.7244 54.0356 54.782C54.077 54.8396 54.1015 54.9032 54.1083 54.973C54.1152 55.0429 54.1098 55.1228 54.0921 55.2135C54.0478 55.4381 53.9311 55.6128 53.7413 55.7373C53.5518 55.8618 53.2892 55.9243 52.9539 55.9243C52.2858 55.9243 51.7019 55.6997 51.2023 55.2503L50.7222 56.3926C51.2329 56.7982 51.8986 57.0007 52.7187 57.0007C53.4539 57.0007 54.0428 56.8316 54.4862 56.4934C54.9292 56.1551 55.2094 55.6875 55.3272 55.0905C55.3557 54.9455 55.3704 54.8091 55.3708 54.6816C55.3712 54.5541 55.3621 54.4411 55.3427 54.3426C55.3232 54.2441 55.2898 54.1501 55.2415 54.0612C55.1932 53.9724 55.1435 53.8962 55.0931 53.8334C55.0423 53.7705 54.9753 53.7081 54.8921 53.6464C54.8089 53.5847 54.7336 53.5349 54.6663 53.4966C54.5989 53.4583 54.5128 53.4178 54.4076 53.3754C54.3025 53.333 54.2153 53.2999 54.1465 53.2769C54.0777 53.2535 53.9887 53.2241 53.8796 53.1884C53.6999 53.1308 53.5634 53.0851 53.4693 53.0509C53.3753 53.0167 53.277 52.9728 53.174 52.9193C53.071 52.8658 52.9989 52.8134 52.9575 52.7613C52.9161 52.7093 52.8858 52.6442 52.8664 52.5662C52.8469 52.4881 52.8473 52.3985 52.8671 52.2971C52.9085 52.0863 53.0173 51.9172 53.1934 51.7897L53.1942 51.7886Z" fill="white"/>
<path d="M61.292 51.8915C61.1929 51.6272 61.0456 51.4035 60.8496 51.2198C60.6537 51.0362 60.3929 50.8931 60.0677 50.7905C59.7421 50.6879 59.3603 50.6362 58.9219 50.6362H56.9023L55.6733 56.8811H57.6929C58.1673 56.8811 58.6028 56.8182 58.999 56.6922C59.3952 56.5662 59.7511 56.3766 60.0666 56.1231C60.3821 55.87 60.6494 55.544 60.8684 55.1455C61.0874 54.747 61.2487 54.285 61.3521 53.759C61.4242 53.3921 61.4569 53.055 61.4504 52.7483C61.4436 52.4417 61.391 52.1562 61.292 51.8919V51.8915ZM60.1123 53.7668C59.8397 55.1526 59.0934 55.8458 57.8734 55.8458H57.0493L57.8705 51.6718H58.6712C59.9067 51.6718 60.3868 52.3703 60.112 53.7672L60.1123 53.7668Z" fill="white"/>
</g>
<defs>
<clipPath id="clip0_18011_9053">
<rect width="23" height="17" fill="white" transform="translate(39 40)"/>
</clipPath>
</defs>
</svg>
