<svg width="62" height="62" viewBox="0 0 62 62" fill="none" xmlns="http://www.w3.org/2000/svg">
<g clip-path="url(#clip0_18011_8977)">
<path d="M55.5746 33.152C55.5746 45.4692 45.5624 55.4545 33.2114 55.4545C20.8604 55.4545 9.9617 44.6432 9.9617 32.326C8.7625 11.5474 20.8604 10.8496 33.2114 10.8496C45.5624 10.8496 56.2529 11.9285 55.5746 33.152Z" fill="#434248" stroke="#1C1C1C" stroke-width="0.5" stroke-miterlimit="10"/>
<path d="M32.6845 50.9159C45.2793 50.9159 55.4894 40.4164 55.4894 27.4645C55.4894 14.5126 45.2793 4.013 32.6845 4.013C20.0896 4.013 9.8795 14.5126 9.8795 27.4645C9.8795 40.4164 20.0896 50.9159 32.6845 50.9159Z" fill="#96949C" stroke="#1C1C1C" stroke-width="0.5" stroke-miterlimit="10"/>
<path d="M32.7427 45.6293C42.6637 45.6293 50.7064 37.4932 50.7064 27.4569C50.7064 17.4206 42.6637 9.28455 32.7427 9.28455C22.8216 9.28455 14.7789 17.4206 14.7789 27.4569C14.7789 37.4932 22.8216 45.6293 32.7427 45.6293Z" fill="#434248" stroke="#1C1C1C" stroke-width="0.5" stroke-miterlimit="10"/>
<path d="M45.3662 24.3335L44.4834 24.7808C43.7455 25.1584 43.3034 25.9372 43.3672 26.7681C43.3905 27.0411 43.3965 27.3202 43.3965 27.5933C43.3965 29.0401 43.1115 30.4462 42.5537 31.771C42.0134 33.0493 41.2408 34.1943 40.2588 35.1821C39.2768 36.17 38.1261 36.9425 36.8535 37.4829C35.5345 38.0407 34.1285 38.3257 32.6817 38.3257C31.2348 38.3257 29.8346 38.0407 28.5098 37.4829C27.8009 37.1808 27.1266 36.8034 26.4991 36.3618L28.2774 35.4556L28.3467 35.4204C29.66 36.1526 31.1592 36.5425 32.6817 36.5425H32.7451C33.9131 36.5367 35.052 36.3033 36.127 35.8501C37.202 35.3969 38.1671 34.7524 38.9922 33.9272C40.6773 32.2421 41.6065 29.9932 41.6065 27.6108C41.6065 27.2215 41.5836 26.8263 41.5313 26.437L41.5137 26.3149L41.4034 26.3735L26.545 33.9331L23.4717 35.5015L20.002 37.2681V35.2583L23.5762 33.4331L25.3369 32.5386L45.3662 22.3228V24.3335ZM32.6875 16.5874C34.1343 16.5874 35.5346 16.8724 36.8594 17.4302C37.5625 17.7265 38.2368 18.1038 38.8643 18.5454L38.7305 18.6157L37.0108 19.4927C35.6976 18.7606 34.204 18.3775 32.6875 18.3774H32.6172C31.4493 18.3891 30.3103 18.6214 29.2354 19.0688C28.1606 19.522 27.1961 20.1668 26.3711 20.9917C24.6861 22.6825 23.756 24.9258 23.7559 27.3081C23.7559 27.6973 23.7788 28.0869 23.8311 28.4761L23.8487 28.5981L23.959 28.5405L38.8057 20.9692L41.8799 19.3999L45.3604 17.6216V19.6323L41.7754 21.4624L40.0147 22.3579L24.3662 30.3472L24.2959 30.3882L23.4942 30.7954L22.6807 31.2075V31.2017L22.6055 31.2368L20.002 32.5669V30.5571L20.8858 30.1089C21.6235 29.7311 22.0649 28.9524 22.001 28.1216C21.9836 27.8486 21.9717 27.5752 21.9717 27.3022C21.9718 25.8555 22.2567 24.4492 22.8145 23.1245C23.3549 21.8462 24.1284 20.7012 25.1104 19.7134C26.0922 18.7316 27.2366 17.9529 28.5147 17.4126C29.8337 16.8722 31.2406 16.5874 32.6875 16.5874Z" fill="white"/>
<path d="M53.7893 6.79196C54.7203 7.1323 55.471 7.41258 56.2117 7.69286C57.2628 8.08324 57.2628 9.56472 56.2117 9.95511C55.461 10.2354 54.7102 10.5157 53.7893 10.856C53.459 10.9761 53.1887 11.2464 53.0586 11.5767C52.7183 12.5077 52.438 13.2584 52.1577 13.9991C51.7673 15.0502 50.2859 15.0502 49.8955 13.9991C49.6152 13.2484 49.3349 12.4976 48.9946 11.5767C48.8745 11.2464 48.6042 10.9761 48.2638 10.846C47.3329 10.5057 46.5822 10.2254 45.8414 9.9451C44.7904 9.55471 44.7904 8.07323 45.8414 7.68284C46.5922 7.40257 47.3429 7.12229 48.2638 6.78195C48.5942 6.66183 48.8644 6.39156 48.9846 6.05122C49.3249 5.12029 49.6052 4.36954 49.8855 3.6288C50.2758 2.57775 51.7573 2.57775 52.1477 3.6288C52.428 4.37955 52.7083 5.1303 53.0486 6.05122C53.1687 6.38155 53.439 6.65182 53.7693 6.78195L53.7893 6.79196Z" fill="white" stroke="black" stroke-width="0.5" stroke-linejoin="round"/>
<path d="M23.9459 49.4563C23.8174 55.1211 18.8398 57.3923 16.0298 58.7646C15.4945 59.0253 14.9968 59.238 14.5686 59.3976C14.1404 59.2327 13.648 59.0253 13.1181 58.7646C10.3081 57.3976 5.38931 54.7434 5.19663 49.4563C5.07888 46.249 6.43302 43.3182 9.94951 43.3182C12.524 43.3182 13.8781 44.5894 14.5739 46.3234C15.2644 44.5894 16.6185 43.3182 19.1984 43.3182C22.7095 43.3182 24.0208 46.249 23.9459 49.4563Z" fill="#693000" stroke="#1C1C1C" stroke-width="0.5" stroke-miterlimit="10"/>
<path d="M23.9459 47.6698C23.8174 53.3345 18.8397 55.6058 16.0298 56.9781C15.4945 57.2387 14.9968 57.4515 14.5686 57.611C14.1404 57.4461 13.648 57.2387 13.1181 56.9781C10.3081 55.6111 5.3893 52.9569 5.19661 47.6698C5.07886 44.4624 6.433 41.5316 9.9495 41.5316C12.524 41.5316 13.8781 42.8029 14.5739 44.5369C15.2644 42.8029 16.6185 41.5316 19.1984 41.5316C22.7095 41.5316 24.0208 44.4624 23.9459 47.6698Z" fill="#E84142" stroke="#1C1C1C" stroke-width="0.5" stroke-miterlimit="10"/>
</g>
<defs>
<clipPath id="clip0_18011_8977">
<rect width="62" height="62" rx="5" fill="white"/>
</clipPath>
</defs>
</svg>
