<svg width="102" height="102" viewBox="0 0 102 102" fill="none" xmlns="http://www.w3.org/2000/svg">
<rect x="0.5" y="0.5" width="101" height="101" rx="4.5" stroke="#8A38F5" stroke-dasharray="10 5"/>
<path d="M59.7003 60.584C59.7003 70.894 51.2203 79.2541 40.7603 79.2541C30.3003 79.2541 21.0703 70.204 21.0703 59.894C20.0503 42.504 30.3003 41.9141 40.7603 41.9141C51.2203 41.9141 60.2703 42.814 59.7003 60.584Z" fill="#FF007A" stroke="#1C1C1C" stroke-width="0.5" stroke-linejoin="round"/>
<path d="M40.31 74.26C50.98 74.26 59.62 65.47 59.62 54.63C59.62 43.79 50.97 35 40.31 35C29.65 35 21 43.79 21 54.63C21 65.47 29.65 74.26 40.31 74.26Z" fill="#FF99CA" stroke="#1C1C1C" stroke-width="0.5" stroke-linejoin="round"/>
<path d="M40.3663 69.8419C48.7663 69.8419 55.5763 63.0319 55.5763 54.6319C55.5763 46.2319 48.7663 39.4219 40.3663 39.4219C31.9663 39.4219 25.1562 46.2319 25.1562 54.6319C25.1562 63.0319 31.9663 69.8419 40.3663 69.8419Z" fill="white" stroke="#1C1C1C" stroke-width="0.5" stroke-linejoin="round"/>
<path d="M44.4822 48.3894C43.6722 48.0494 42.7722 47.8594 41.8322 47.8594C38.0422 47.8594 34.9722 50.9294 34.9722 54.7194C34.9722 56.5994 35.7322 58.3094 36.9622 59.5494C34.4822 58.5094 32.7422 56.0694 32.7422 53.2194C32.7422 49.4294 35.8222 46.3594 39.6122 46.3594C41.5122 46.3594 43.2322 47.1394 44.4822 48.3894Z" fill="#FF007A"/>
<path d="M45.3538 48.1619C44.9238 47.9119 44.5237 47.6119 44.1237 47.3219C42.9037 46.4419 41.4038 45.9219 39.7838 45.9219C35.6738 45.9219 32.3438 49.2619 32.3438 53.3619C32.3438 55.6819 33.4038 57.7519 35.0838 59.1319C33.7738 59.3419 32.4937 59.7819 32.4937 60.6619C32.4937 62.2019 37.2038 62.1519 37.7538 62.1719C38.3838 62.1919 41.5538 62.0619 41.6638 62.0619C45.7738 62.0619 49.1038 58.7219 49.1038 54.6119C49.1038 51.8519 47.5938 49.4319 45.3538 48.1519V48.1619ZM43.1938 60.8519C42.9838 60.9119 42.7638 60.9519 42.5438 60.9719C42.2538 61.0119 41.9537 61.0419 41.6537 61.0419C41.5237 61.0419 41.3938 61.0419 41.2538 61.0319C40.8038 61.0119 40.3738 60.9319 39.9538 60.8219C39.4138 60.6719 38.8938 60.4519 38.4238 60.1719C38.3038 60.1019 38.1738 60.0219 38.0538 59.9419C37.8238 59.7819 37.6037 59.6119 37.4037 59.4319C37.3337 59.3719 37.2837 59.3119 37.2137 59.2519C37.1137 59.1519 37.0037 59.0419 36.9037 58.9319C35.8737 57.7919 35.2437 56.2719 35.2437 54.6219C35.2437 51.0819 38.1237 48.2019 41.6537 48.2019C42.5637 48.2019 43.4337 48.3919 44.2137 48.7419C44.6737 48.9419 45.1138 49.1919 45.5238 49.5019C45.9738 49.8419 46.3738 50.2319 46.7238 50.6819C47.5738 51.7719 48.0838 53.1419 48.0838 54.6319C48.0838 57.6419 46.0038 60.1719 43.2038 60.8619L43.1938 60.8519ZM33.3638 53.3719C33.3638 49.8319 36.2438 46.9519 39.7838 46.9519C40.0738 46.9519 40.3638 46.9719 40.6438 47.0119C40.9238 47.0519 40.9338 47.2119 40.6638 47.2419C37.0238 47.7219 34.2038 50.8519 34.2038 54.6219C34.2038 55.1919 34.2638 55.7519 34.3938 56.2919C34.4738 56.6419 34.3038 56.7419 34.1438 56.4419C33.6438 55.5319 33.3638 54.4819 33.3638 53.3719Z" fill="#1C1C1C"/>
<path d="M44.9459 52.0926C44.6459 51.8026 44.1259 51.8126 43.8759 52.0626C43.7659 52.1626 43.6959 52.2826 43.6459 52.4226C43.6159 52.5226 43.5759 52.6526 43.5459 52.8226L43.1359 54.6426L42.6959 53.0026C42.6259 52.7626 42.5759 52.5826 42.5359 52.4826C42.4859 52.3326 42.3859 52.2026 42.2559 52.0826C41.9559 51.8126 41.3659 51.8126 41.0459 52.0726C40.9059 52.1826 40.8059 52.3226 40.7359 52.4826C40.6859 52.6026 40.6359 52.7826 40.5759 53.0026L40.1359 54.6426L39.7259 52.8326C39.6659 52.5726 39.6059 52.3726 39.5259 52.2226C39.4459 52.0726 39.2659 51.8826 38.8759 51.8826C38.6559 51.8826 38.4659 51.9626 38.3159 52.1026C38.1659 52.2526 38.0859 52.4426 38.0859 52.6526C38.0859 52.7826 38.1159 52.9626 38.1759 53.1826L39.0359 56.6426C39.0659 56.7426 39.0959 56.8626 39.1259 56.9826C39.1659 57.1326 39.2159 57.2626 39.2859 57.3726C39.3659 57.5026 39.4659 57.6126 39.5959 57.6826C39.8859 57.8526 40.3659 57.8326 40.6359 57.6026C40.7759 57.4926 40.8659 57.3526 40.9259 57.2026C40.9659 57.0926 41.0259 56.9226 41.0959 56.6726L41.6459 54.6526L42.1859 56.6726C42.2559 56.9326 42.3159 57.1026 42.3559 57.2126C42.4159 57.3626 42.5059 57.4926 42.6459 57.6026C42.7959 57.7326 42.9859 57.7926 43.2159 57.7926C43.4559 57.7926 43.6559 57.7226 43.8059 57.5926C43.9359 57.4726 44.0259 57.3426 44.0859 57.1826C44.1259 57.0726 44.1759 56.8926 44.2359 56.6426L45.0959 53.1826C45.1559 52.9426 45.1859 52.7726 45.1859 52.6526C45.1859 52.4326 45.1059 52.2426 44.9459 52.0926Z" fill="#1C1C1C"/>
<path d="M63.3549 54.9661C62.8125 54.9661 62.367 54.5336 62.3681 53.9911C62.3773 49.252 63.4336 45.4629 67.5177 43.1158C68.9897 42.1214 70.3848 41.0971 71.2096 39.5722C72.4091 37.428 71.6735 34.3051 69.4029 33.25C66.4951 31.7356 62.6734 33.3834 62.0554 36.6462C61.9516 37.1946 61.513 37.6566 60.9549 37.6566H54.9981C54.4464 37.6566 53.9951 37.1955 54.0337 36.6451C55.1985 20.039 85.7137 23.5828 79.5606 41.0613C78.01 45.0538 74.521 46.1131 71.7464 48.6739C70.3257 50.116 69.8596 51.9039 69.7888 53.9452C69.7694 54.5052 69.323 54.9661 68.7626 54.9661H63.3549Z" fill="#FF9500" stroke="#1C1C1C" stroke-width="0.5" stroke-miterlimit="10" stroke-linejoin="round"/>
<path d="M69.9417 65.0321C69.8832 65.4729 69.5273 65.812 69.0847 65.854C68.1926 65.9387 67.2241 65.9924 66.1888 65.9962C65.0676 66.0002 64.0232 65.9446 63.0678 65.854C62.6244 65.812 62.2682 65.472 62.2098 65.0305C62.0857 64.0916 62.0018 63.0222 62.0076 61.8449C62.0142 60.4406 62.1467 59.1935 62.3202 58.1434C63.3446 57.9663 64.5613 57.8299 65.9319 57.8208C67.4244 57.8108 68.7401 57.9547 69.83 58.1434C70.0051 59.2001 70.1393 60.4606 70.1442 61.8815C70.148 63.0454 70.0651 64.1033 69.9417 65.0321Z" fill="#FF9500" stroke="#1C1C1C" stroke-width="0.5" stroke-miterlimit="10" stroke-linejoin="round"/>
<path d="M63.3549 52.0677C62.8125 52.0677 62.367 51.6351 62.3681 51.0927C62.3773 46.3535 63.4336 42.5644 67.5177 40.2173C68.9897 39.2229 70.3848 38.1986 71.2096 36.6738C72.4091 34.5295 71.6735 31.4067 69.4029 30.3516C66.4951 28.8372 62.6734 30.4849 62.0554 33.7477C61.9516 34.2962 61.513 34.7582 60.9549 34.7582H54.9981C54.4464 34.7582 53.9951 34.2971 54.0337 33.7467C55.1985 17.1406 85.7137 20.6844 79.5606 38.1629C78.01 42.1554 74.521 43.2146 71.7464 45.7754C70.3257 47.2175 69.8596 49.0055 69.7888 51.0468C69.7694 51.6068 69.323 52.0677 68.7626 52.0677H63.3549Z" fill="#FFE2C8" stroke="#1C1C1C" stroke-width="0.5" stroke-miterlimit="10" stroke-linejoin="round"/>
<path d="M69.9417 62.1337C69.8832 62.5744 69.5273 62.9136 69.0847 62.9556C68.1926 63.0403 67.2241 63.0939 66.1888 63.0978C65.0676 63.1017 64.0232 63.0462 63.0678 62.9556C62.6244 62.9135 62.2682 62.5736 62.2098 62.132C62.0857 61.1931 62.0018 60.1238 62.0076 58.9465C62.0127 57.8436 62.0956 56.8376 62.215 55.9479C62.2716 55.526 62.6009 55.1941 63.0224 55.1351C63.8864 55.0141 64.8623 54.9295 65.9319 54.9224C67.1171 54.9144 68.1908 55.0035 69.1285 55.135C69.5497 55.1941 69.8787 55.5257 69.9354 55.9472C70.0564 56.8457 70.1403 57.8647 70.1442 58.9831C70.148 60.147 70.0651 61.2049 69.9417 62.1337Z" fill="#FFE2C8" stroke="#1C1C1C" stroke-width="0.5" stroke-miterlimit="10" stroke-linejoin="round"/>
</svg>
