<svg width="102" height="102" viewBox="0 0 102 102" fill="none" xmlns="http://www.w3.org/2000/svg">
<rect x="0.5" y="0.5" width="101" height="101" rx="4.5" stroke="#9747FF" stroke-dasharray="10 5"/>
<path d="M56.4481 23.7555C56.1833 23.2596 56.0467 22.8093 56.2177 22.2508C56.3628 21.7778 56.6943 21.4335 57.1267 21.2116C57.5568 20.9909 58.0212 20.933 58.4854 21.0847C58.8581 21.2064 59.0857 21.4239 59.3168 21.7261C59.647 22.1575 59.9114 22.6631 60.1934 23.1287L61.8323 25.8519L66.6205 33.7697C67.3379 35.0868 68.1761 36.3547 68.9505 37.6406L70.6201 40.4069C70.9095 40.8862 71.1837 41.4149 71.5186 41.8629C72.0917 42.8308 72.6725 43.7945 73.26 44.7537L76.7017 50.4503L77.9531 52.5085C78.2941 53.0657 78.7093 53.654 78.9329 54.2709C79.0206 54.5124 79.0001 54.846 78.9397 55.0885C78.8216 55.5607 78.4897 55.9544 78.0725 56.1945C77.6728 56.4246 77.1976 56.5018 76.7486 56.3841C76.2832 56.262 75.9213 55.9274 75.6669 55.5297C75.0413 55.275 72.9298 55.0943 72.2023 55.0292C65.4268 54.396 58.5987 55.4228 52.3089 58.02C50.8039 58.6548 49.3091 59.32 47.9197 60.1838C47.2778 59.1705 46.6757 58.1266 46.0555 57.0995L43.6182 53.0691C43.3165 52.5203 42.9617 51.9908 42.6363 51.4551L40.5882 48.0713C40.2049 47.4375 39.8014 46.8086 39.443 46.1609C40.2034 45.771 40.9056 45.186 41.5934 44.679C47.6571 40.1561 52.3787 34.0713 55.2541 27.0743C55.558 26.3346 55.843 25.5874 56.1091 24.8334C56.2339 24.4837 56.3928 24.1232 56.4481 23.7555Z" fill="#FFE2C8" stroke="#1C1C1C" stroke-width="0.5" stroke-miterlimit="10" stroke-linejoin="round"/>
<path d="M57.1267 21.2117C57.5567 20.991 58.0211 20.9331 58.4851 21.0847C58.8578 21.2064 59.0861 21.4241 59.3171 21.7263C59.6472 22.1576 59.9112 22.6632 60.1931 23.1287L61.8318 25.8523L66.6208 33.7693C67.3382 35.0862 68.1756 36.3546 68.95 37.6404L70.6199 40.407C70.9093 40.8863 71.1834 41.415 71.5183 41.863C72.0913 42.8309 72.672 43.7945 73.2595 44.7537L76.7019 50.45L77.9529 52.5085C78.2939 53.0658 78.7087 53.6543 78.9324 54.2712C79.02 54.5127 78.9996 54.8461 78.9392 55.0886C78.8211 55.5608 78.4892 55.954 78.072 56.1941C77.6724 56.424 77.1976 56.5021 76.7488 56.3845C76.2834 56.2624 75.9211 55.9276 75.6667 55.53C75.0388 54.4302 74.3677 53.3546 73.7117 52.2712L71.1531 48.0369L65.9812 39.4919L59.6902 29.0779L57.5691 25.575C57.2002 24.9678 56.851 24.3406 56.448 23.7556C56.1832 23.2598 56.0465 22.8093 56.2175 22.2507C56.3626 21.7778 56.6943 21.4336 57.1267 21.2117Z" fill="#FF9500"/>
<path d="M57.1267 21.2117L57.0126 20.9892L57.0125 20.9893L57.1267 21.2117ZM58.4851 21.0847L58.4075 21.3224L58.4075 21.3224L58.4851 21.0847ZM59.3171 21.7263L59.1185 21.8782L59.1186 21.8783L59.3171 21.7263ZM60.1931 23.1287L60.4073 22.9998L60.407 22.9992L60.1931 23.1287ZM61.8318 25.8523L61.6176 25.9812L61.6179 25.9817L61.8318 25.8523ZM66.6208 33.7693L66.8406 33.6496L66.8348 33.6399L66.6208 33.7693ZM68.95 37.6404L68.7358 37.7694L68.7359 37.7696L68.95 37.6404ZM70.6199 40.407L70.4058 40.5362L70.4059 40.5362L70.6199 40.407ZM71.5183 41.863L71.7334 41.7357C71.7289 41.728 71.7239 41.7205 71.7185 41.7134L71.5183 41.863ZM73.2595 44.7537L73.4735 44.6244L73.4727 44.6231L73.2595 44.7537ZM76.7019 50.45L76.4879 50.5793L76.4883 50.5798L76.7019 50.45ZM77.9529 52.5085L77.7392 52.6384L77.7396 52.639L77.9529 52.5085ZM78.9324 54.2712L78.6973 54.3564L78.6974 54.3565L78.9324 54.2712ZM78.9392 55.0886L79.1817 55.1493L79.1818 55.149L78.9392 55.0886ZM78.072 56.1941L78.1967 56.4108L78.1967 56.4108L78.072 56.1941ZM76.7488 56.3845L76.6853 56.6263L76.6854 56.6264L76.7488 56.3845ZM75.6667 55.53L75.4494 55.6541L75.4561 55.6647L75.6667 55.53ZM73.7117 52.2712L73.4977 52.4005L73.4978 52.4007L73.7117 52.2712ZM71.1531 48.0369L71.367 47.9076L71.367 47.9074L71.1531 48.0369ZM65.9812 39.4919L65.7672 39.6212L65.7673 39.6214L65.9812 39.4919ZM59.6902 29.0779L59.9042 28.9486L59.904 28.9484L59.6902 29.0779ZM57.5691 25.575L57.7829 25.4455L57.7827 25.4451L57.5691 25.575ZM56.448 23.7556L56.2275 23.8734C56.2319 23.8817 56.2368 23.8897 56.2421 23.8974L56.448 23.7556ZM56.2175 22.2507L55.9785 22.1774L55.9785 22.1775L56.2175 22.2507ZM57.1267 21.2117L57.2408 21.4341C57.6187 21.2402 58.0141 21.1938 58.4075 21.3224L58.4851 21.0847L58.5628 20.8471C58.028 20.6723 57.4947 20.7419 57.0126 20.9892L57.1267 21.2117ZM58.4851 21.0847L58.4075 21.3224C58.713 21.4221 58.9032 21.5965 59.1185 21.8782L59.3171 21.7263L59.5157 21.5745C59.269 21.2517 59.0026 20.9907 58.5627 20.8471L58.4851 21.0847ZM59.3171 21.7263L59.1186 21.8783C59.4377 22.2952 59.6859 22.7737 59.9793 23.2582L60.1931 23.1287L60.407 22.9992C60.1366 22.5527 59.8567 22.02 59.5157 21.5744L59.3171 21.7263ZM60.1931 23.1287L59.9789 23.2575L61.6176 25.9812L61.8318 25.8523L62.046 25.7234L60.4073 22.9998L60.1931 23.1287ZM61.8318 25.8523L61.6179 25.9817L66.4069 33.8987L66.6208 33.7693L66.8348 33.6399L62.0457 25.7229L61.8318 25.8523ZM66.6208 33.7693L66.4013 33.8889C67.1217 35.2115 67.9691 36.4962 68.7358 37.7694L68.95 37.6404L69.1641 37.5114C68.3821 36.213 67.5547 34.961 66.8404 33.6497L66.6208 33.7693ZM68.95 37.6404L68.7359 37.7696L70.4058 40.5362L70.6199 40.407L70.8339 40.2778L69.164 37.5112L68.95 37.6404ZM70.6199 40.407L70.4059 40.5362C70.6833 40.9957 70.9735 41.5518 71.3181 42.0127L71.5183 41.863L71.7185 41.7134C71.3933 41.2783 71.1353 40.7769 70.8339 40.2778L70.6199 40.407ZM71.5183 41.863L71.3032 41.9904C71.8769 42.9594 72.4582 43.9241 73.0463 44.8842L73.2595 44.7537L73.4727 44.6231C72.8858 43.665 72.3058 42.7024 71.7334 41.7357L71.5183 41.863ZM73.2595 44.7537L73.0456 44.883L76.4879 50.5793L76.7019 50.45L76.9159 50.3206L73.4735 44.6244L73.2595 44.7537ZM76.7019 50.45L76.4883 50.5798L77.7392 52.6384L77.9529 52.5085L78.1665 52.3787L76.9155 50.3201L76.7019 50.45ZM77.9529 52.5085L77.7396 52.639C78.0936 53.2174 78.4851 53.7709 78.6973 54.3564L78.9324 54.2712L79.1674 54.186C78.9324 53.5378 78.4942 52.9142 78.1661 52.378L77.9529 52.5085ZM78.9324 54.2712L78.6974 54.3565C78.7613 54.5326 78.7509 54.8101 78.6966 55.0282L78.9392 55.0886L79.1818 55.149C79.2482 54.8822 79.2788 54.4929 79.1674 54.1859L78.9324 54.2712ZM78.9392 55.0886L78.6967 55.028C78.5974 55.4248 78.3148 55.7659 77.9473 55.9774L78.072 56.1941L78.1967 56.4108C78.6637 56.142 79.0448 55.6968 79.1817 55.1493L78.9392 55.0886ZM78.072 56.1941L77.9473 55.9774C77.5998 56.1774 77.1922 56.2423 76.8121 56.1427L76.7488 56.3845L76.6854 56.6264C77.203 56.762 77.745 56.6707 78.1967 56.4108L78.072 56.1941ZM76.7488 56.3845L76.8122 56.1427C76.4267 56.0416 76.1102 55.7594 75.8774 55.3953L75.6667 55.53L75.4561 55.6647C75.7319 56.0959 76.1401 56.4833 76.6853 56.6263L76.7488 56.3845ZM75.6667 55.53L75.8839 55.4061C75.2537 54.3025 74.5792 53.2213 73.9255 52.1417L73.7117 52.2712L73.4978 52.4007C74.1561 53.4879 74.8238 54.5579 75.4496 55.654L75.6667 55.53ZM73.7117 52.2712L73.9256 52.1419L71.367 47.9076L71.1531 48.0369L70.9391 48.1662L73.4977 52.4005L73.7117 52.2712ZM71.1531 48.0369L71.367 47.9074L66.1951 39.3625L65.9812 39.4919L65.7673 39.6214L70.9392 48.1663L71.1531 48.0369ZM65.9812 39.4919L66.1952 39.3627L59.9042 28.9486L59.6902 29.0779L59.4762 29.2071L65.7672 39.6212L65.9812 39.4919ZM59.6902 29.0779L59.904 28.9484L57.7829 25.4455L57.5691 25.575L57.3552 25.7044L59.4763 29.2074L59.6902 29.0779ZM57.5691 25.575L57.7827 25.4451C57.4205 24.8491 57.0622 24.2065 56.6539 23.6138L56.448 23.7556L56.2421 23.8974C56.6398 24.4747 56.9798 25.0866 57.3554 25.7048L57.5691 25.575ZM56.448 23.7556L56.6685 23.6379C56.4184 23.1693 56.3134 22.7915 56.4566 22.3239L56.2175 22.2507L55.9785 22.1775C55.7796 22.8271 55.9481 23.3502 56.2275 23.8734L56.448 23.7556ZM56.2175 22.2507L56.4565 22.324C56.5783 21.927 56.8571 21.6311 57.2409 21.4341L57.1267 21.2117L57.0125 20.9893C56.5315 21.2361 56.1468 21.6287 55.9785 22.1774L56.2175 22.2507Z" fill="#1C1C1C"/>
<path d="M25.0364 59.1449C24.7804 58.7088 24.4932 58.277 24.2619 57.8277C23.9724 57.2648 23.9193 56.6354 24.1207 56.0336C24.2681 55.5935 24.5339 55.2444 24.9015 54.9627C25.4987 54.5057 26.3095 54.0938 26.9619 53.6972L31.6281 50.8787L37.1274 47.5497C37.8904 47.0925 38.6493 46.5586 39.443 46.1609C39.8014 46.8086 40.2049 47.4375 40.5882 48.0713L42.6363 51.4551C42.9617 51.9908 43.3165 52.5203 43.6182 53.0691L46.0555 57.0995C46.6757 58.1266 47.2777 59.1705 47.9197 60.1838C47.3583 60.5346 46.7795 60.8584 46.2253 61.22C45.7903 61.476 44.6879 62.0524 44.3648 62.3499C44.1618 62.3722 42.7678 63.2886 42.4733 63.4667L36.9236 66.8192C36.639 66.9915 35.3847 67.6914 35.2399 67.8331C35.223 67.85 35.1998 67.8672 35.1984 67.8908C34.8059 68.1019 34.4354 68.3461 34.0582 68.5829C33.3852 69.0052 32.7105 69.3314 31.9002 69.1378C30.7604 68.8656 30.2763 67.797 29.7167 66.8826C29.4484 66.3716 29.1328 65.8808 28.834 65.387L27.3296 62.8991C26.5769 61.673 25.8522 60.3174 25.0364 59.1449Z" fill="#FF9500" stroke="#1C1C1C" stroke-width="0.5" stroke-miterlimit="10" stroke-linejoin="round"/>
<path d="M46.2252 61.22L46.2436 61.2554C46.8962 62.4876 48.0967 63.6149 47.6452 65.1314C47.4475 65.7955 47.0244 66.2131 46.4882 66.6256L49.8665 73.5291L50.706 75.2258C50.8895 75.5954 51.0966 75.9678 51.2271 76.3601C51.3037 76.5915 51.3061 76.8404 51.2342 77.0732C51.1512 77.3342 50.9441 77.5349 50.7333 77.6988C50.1347 78.1636 49.1069 78.6882 48.425 79.1007L46.806 80.091C46.5045 80.2758 46.2044 80.4796 45.8866 80.6344C45.5499 80.7983 45.2219 80.8722 44.8609 80.7389C44.6254 80.6519 44.4545 80.5032 44.2955 80.3139C43.6317 79.5236 43.0495 78.6318 42.4443 77.7936L39.6704 74.0071L36.6779 69.9224C36.1901 69.2566 35.6333 68.589 35.1983 67.8908C35.1997 67.8672 35.2229 67.85 35.2399 67.8331C35.3846 67.6915 36.6389 66.9916 36.9235 66.8192L42.4732 63.4668C42.7678 63.2887 44.1617 62.3723 44.3648 62.35C44.6878 62.0525 45.7902 61.476 46.2252 61.22Z" fill="#FFE2C8" stroke="#1C1C1C" stroke-width="0.5" stroke-miterlimit="10" stroke-linejoin="round"/>
<path d="M46.2253 61.22L46.2437 61.2554C46.8963 62.4876 48.0968 63.6149 47.6453 65.1314C47.4476 65.7955 47.0245 66.2131 46.4883 66.6256C45.7363 65.2262 45.0882 63.7656 44.3649 62.35C44.6879 62.0525 45.7903 61.476 46.2253 61.22Z" fill="#FAF2E8" stroke="#1C1C1C" stroke-width="0.5" stroke-miterlimit="10" stroke-linejoin="round"/>
<path d="M66.6204 33.7698C67.9983 33.425 69.3451 33.5457 70.5755 34.2878C71.6575 34.9404 72.4357 35.9961 72.7392 37.2226C73.0637 38.4938 72.864 39.842 72.185 40.9647C71.9884 41.285 71.7439 41.5639 71.5186 41.863C71.1836 41.4149 70.9094 40.8863 70.62 40.407L68.9504 37.6407C68.176 36.3548 67.3378 35.0869 66.6204 33.7698Z" fill="#FFE2C8" stroke="#1C1C1C" stroke-width="0.5" stroke-miterlimit="10" stroke-linejoin="round"/>
<path d="M25.0363 59.145C25.8522 60.3175 26.5768 61.6731 27.3296 62.8992L28.8339 65.3871C29.1327 65.8809 29.4484 66.3717 29.7167 66.8827C29.6139 66.9053 29.5109 66.9279 29.4078 66.9495C28.8908 67.0551 28.3427 67.0233 27.8985 66.7076C27.7005 66.567 27.5294 66.3683 27.386 66.173C26.8586 65.4542 26.4217 64.639 25.9614 63.8753C25.5001 63.1103 24.9916 62.3494 24.5894 61.553C24.4838 61.3439 24.3643 61.0879 24.3364 60.8545C24.2523 60.1502 24.6283 59.6577 25.0363 59.145Z" fill="#FFE2C8" stroke="#1C1C1C" stroke-width="0.5" stroke-miterlimit="10" stroke-linejoin="round"/>
</svg>
