<svg width="102" height="102" viewBox="0 0 102 102" fill="none" xmlns="http://www.w3.org/2000/svg">
<rect x="0.5" y="0.5" width="101" height="101" rx="4.5" stroke="#9747FF" stroke-dasharray="10 5"/>
<path d="M64.4788 38.8645C64.4788 46.0798 58.5456 51.929 51.2265 51.929C43.9074 51.929 37.4489 45.5959 37.4489 38.3806C36.7383 26.2088 43.9074 25.8 51.2265 25.8C58.5456 25.8 64.8807 26.432 64.4788 38.8645Z" fill="#637DEB" stroke="#1C1C1C" stroke-width="0.5" stroke-miterlimit="10"/>
<path d="M51.0302 48.4752C58.4938 48.4752 64.5442 42.3247 64.5442 34.7376C64.5442 27.1505 58.4938 21 51.0302 21C43.5666 21 37.5161 27.1505 37.5161 34.7376C37.5161 42.3247 43.5666 48.4752 51.0302 48.4752Z" fill="#CCD9FD" stroke="#1C1C1C" stroke-width="0.5" stroke-miterlimit="10"/>
<path d="M51.0645 45.3782C56.9436 45.3782 61.7096 40.6122 61.7096 34.7331C61.7096 28.8539 56.9436 24.0879 51.0645 24.0879C45.1853 24.0879 40.4193 28.8539 40.4193 34.7331C40.4193 40.6122 45.1853 45.3782 51.0645 45.3782Z" fill="#637DEB" stroke="#1C1C1C" stroke-width="0.5" stroke-miterlimit="10"/>
<path d="M51.6072 35.9994C51.2995 36.1757 50.9214 36.1758 50.6136 35.9996L47.8572 34.4222C47.3946 34.1575 47.2209 33.5766 47.4623 33.1014L50.2525 27.6079C50.628 26.8687 51.6882 26.8812 52.0461 27.6291L54.6949 33.1635C54.921 33.6359 54.7444 34.2027 54.2899 34.463L51.6072 35.9994Z" fill="white"/>
<path d="M51.4558 37.1082C51.151 37.2753 50.7813 37.272 50.4795 37.0997L48.2703 35.8386C47.8013 35.5709 47.2998 36.1337 47.6195 36.5689L50.1757 40.0482C50.5705 40.5855 51.3705 40.5933 51.7757 40.0638L54.4637 36.5514C54.7923 36.1221 54.3004 35.5493 53.8264 35.8091L51.4558 37.1082Z" fill="white"/>
<path d="M79.1104 67.9355C79.1104 75.1508 73.1772 81.0001 65.8581 81.0001C58.539 81.0001 52.0805 74.6669 52.0805 67.4517C51.3699 55.2798 58.539 54.871 65.8581 54.871C73.1772 54.871 79.5123 55.503 79.1104 67.9355Z" fill="url(#paint0_linear_18011_2903)" stroke="#1C1C1C" stroke-width="0.5" stroke-miterlimit="10"/>
<path d="M65.5458 77.5075C73.0094 77.5075 79.0598 71.357 79.0598 63.7699C79.0598 56.1828 73.0094 50.0323 65.5458 50.0323C58.0822 50.0323 52.0317 56.1828 52.0317 63.7699C52.0317 71.357 58.0822 77.5075 65.5458 77.5075Z" fill="url(#paint1_linear_18011_2903)" stroke="#1C1C1C" stroke-width="0.5" stroke-miterlimit="10"/>
<path d="M65.5795 74.4105C71.4586 74.4105 76.2246 69.6445 76.2246 63.7654C76.2246 57.8862 71.4586 53.1202 65.5795 53.1202C59.7003 53.1202 54.9343 57.8862 54.9343 63.7654C54.9343 69.6445 59.7003 74.4105 65.5795 74.4105Z" fill="url(#paint2_linear_18011_2903)" stroke="#1C1C1C" stroke-width="0.5" stroke-miterlimit="10"/>
<g clip-path="url(#clip0_18011_2903)">
<path d="M70.415 59.0322C69.1383 58.3741 67.5853 58.8742 66.9272 60.1377L66.6377 60.7037L69.6121 65.6128C69.6779 65.7181 69.7174 65.8234 69.7701 65.9287L71.5337 62.5199C72.1917 61.2433 71.6916 59.6902 70.4281 59.0322H70.415Z" fill="white"/>
<path d="M68.0328 66.5604C67.1905 65.1785 65.3874 62.1777 64.5319 60.7695C63.1895 57.5845 58.7673 58.7163 59.399 62.0724C59.6228 62.8095 59.6622 62.7173 60.1361 63.5202C61.2679 65.3627 62.6235 67.6923 63.7027 69.3769C65.6243 72.0618 69.6253 69.4822 68.0986 66.6394L68.0591 66.5604H68.0328Z" fill="white"/>
</g>
<path d="M50.0786 67.9355C50.0786 75.1508 44.1455 81.0001 36.8264 81.0001C29.5072 81.0001 23.0488 74.6669 23.0488 67.4517C22.3381 55.2798 29.5072 54.871 36.8264 54.871C44.1455 54.871 50.4806 55.503 50.0786 67.9355Z" fill="#FF9500" stroke="#1C1C1C" stroke-width="0.5" stroke-miterlimit="10"/>
<path d="M36.5142 77.5075C43.9778 77.5075 50.0282 71.3569 50.0282 63.7699C50.0282 56.1828 43.9778 50.0323 36.5142 50.0323C29.0506 50.0323 23.0001 56.1828 23.0001 63.7699C23.0001 71.3569 29.0506 77.5075 36.5142 77.5075Z" fill="#FFE2C8" stroke="#1C1C1C" stroke-width="0.5" stroke-miterlimit="10"/>
<path d="M36.5486 74.4105C42.4278 74.4105 47.1938 69.6445 47.1938 63.7653C47.1938 57.8862 42.4278 53.1202 36.5486 53.1202C30.6694 53.1202 25.9034 57.8862 25.9034 63.7653C25.9034 69.6445 30.6694 74.4105 36.5486 74.4105Z" fill="#FF9500" stroke="#1C1C1C" stroke-width="0.5" stroke-miterlimit="10"/>
<path d="M41.5373 60.6056C41.6642 61.839 41.1567 62.589 40.3796 63.0057C41.68 63.339 42.4888 64.1391 42.3302 65.9558C42.1241 68.2059 40.5382 68.8226 38.2545 68.9559V70.6407C38.2545 71.0173 37.9492 71.3226 37.5726 71.3226C37.196 71.3226 36.8907 71.0173 36.8907 70.6407V68.9892C36.5418 68.9892 36.177 68.9892 35.8123 68.9726V70.6407C35.8123 71.0173 35.507 71.3226 35.1303 71.3226C34.7537 71.3226 34.4484 71.0173 34.4484 70.6407V68.9559C34.1312 68.9559 33.8141 68.9392 33.481 68.9392H32.7024C32.1804 68.9392 31.7836 68.4702 31.87 67.9554C31.9392 67.5437 32.2994 67.2473 32.717 67.2466C32.9801 67.2461 32.9735 67.2392 32.9735 67.2392C33.3541 67.2392 33.4493 66.9558 33.481 66.7558V63.0224H33.6237C33.5603 63.0224 33.5127 63.0224 33.481 63.0224V60.3389C33.4334 60.0556 33.2431 59.7056 32.6881 59.7056C32.6881 59.7056 32.694 59.6993 32.4699 59.6983C32.0497 59.6964 31.7048 59.3611 31.7048 58.9409C31.7048 58.5256 32.0415 58.1889 32.4569 58.1889H33.592C33.8616 58.1889 34.1471 58.1889 34.4484 58.1889V56.5207C34.4484 56.1441 34.7537 55.8388 35.1303 55.8388C35.507 55.8388 35.8123 56.1441 35.8123 56.5207V58.1389C36.177 58.1389 36.5259 58.1222 36.8907 58.1222V56.5207C36.8907 56.1441 37.196 55.8388 37.5726 55.8388C37.9492 55.8388 38.2545 56.1441 38.2545 56.5207V58.1889C39.999 58.3389 41.3946 58.9055 41.5373 60.6056ZM39.6342 65.6725C39.6342 63.8391 36.7479 64.1057 35.8281 64.1057V67.2392C36.7479 67.2392 39.6342 67.4558 39.6342 65.6725ZM39.0157 61.2556C39.0157 59.5722 36.6052 59.8222 35.8281 59.8222V62.6723C36.6052 62.6723 39.0157 62.8557 39.0157 61.2556Z" fill="white"/>
<defs>
<linearGradient id="paint0_linear_18011_2903" x1="80.0026" y1="75.9777" x2="52.0826" y2="67.7626" gradientUnits="userSpaceOnUse">
<stop stop-color="#DC0BFE"/>
<stop offset="1" stop-color="#1DBCF7"/>
</linearGradient>
<linearGradient id="paint1_linear_18011_2903" x1="79.9317" y1="72.2264" x2="51.8584" y2="64.3908" gradientUnits="userSpaceOnUse">
<stop stop-color="#F5B8FF"/>
<stop offset="1" stop-color="#9CE2FC"/>
</linearGradient>
<linearGradient id="paint2_linear_18011_2903" x1="76.9114" y1="70.3183" x2="54.851" y2="64.0591" gradientUnits="userSpaceOnUse">
<stop stop-color="#DC0BFE"/>
<stop offset="1" stop-color="#1DBCF7"/>
</linearGradient>
<clipPath id="clip0_18011_2903">
<rect width="15.4839" height="12.5806" fill="white" transform="translate(57.8376 58.742)"/>
</clipPath>
</defs>
</svg>
