<svg width="62" height="62" viewBox="0 0 62 62" fill="none" xmlns="http://www.w3.org/2000/svg">
<g clip-path="url(#clip0_18011_4807)">
<path d="M59.0975 58.8078C40.3575 59.1978 21.6475 59.1978 2.90746 58.8078C2.57746 48.6278 2.44746 38.4178 2.51746 28.2378C21.5075 28.1678 40.4975 28.1678 59.4875 28.2378C59.5575 38.4178 59.4375 48.6278 59.0975 58.8078Z" fill="#4169E1" stroke="#1C1C1C" stroke-width="0.5" stroke-linejoin="round"/>
<path d="M58.9877 23.4977C40.1777 23.3577 21.3677 23.3677 2.55768 23.4977C10.4577 16.7677 14.4377 13.3277 22.2377 6.5277C29.0677 6.4677 32.4877 6.4677 39.3177 6.5277C47.1077 13.3277 51.0877 16.7677 58.9877 23.4977Z" fill="#4169E1" stroke="#1C1C1C" stroke-width="0.5" stroke-linejoin="round"/>
<path d="M59.205 54.9678C40.395 55.2978 21.605 55.2978 2.795 54.9678C2.505 44.7878 2.425 34.5778 2.545 24.3978C21.515 24.2678 40.485 24.2678 59.455 24.3978C59.575 34.5778 59.495 44.7878 59.205 54.9678Z" fill="#CCD9FD" stroke="#1C1C1C" stroke-width="0.5" stroke-linejoin="round"/>
<path d="M58.9977 23.9479C40.1777 23.8179 21.3677 23.8179 2.55768 23.9479C10.3177 30.5279 14.2777 33.9279 22.1277 40.6779C29.0477 40.6979 32.5077 40.6979 39.4277 40.6779C47.2777 33.9179 51.2377 30.5279 58.9977 23.9379V23.9479Z" fill="#1C1C1C" stroke="#1C1C1C" stroke-width="0.5" stroke-linecap="round" stroke-linejoin="round"/>
<path d="M48.7458 24.5933C48.7458 34.1779 40.8639 41.9494 31.142 41.9494C21.4202 41.9494 12.8405 33.5368 12.8405 23.9521C11.8952 7.7828 21.4202 7.24005 31.142 7.24005C40.8639 7.24005 49.2796 8.08102 48.7458 24.5962V24.5933Z" fill="#FF9500" stroke="#1C1C1C" stroke-width="0.5" stroke-miterlimit="10"/>
<path d="M30.7281 38.1418C40.6438 38.1418 48.6808 29.9707 48.6808 19.891C48.6808 9.81124 40.6438 1.6431 30.7281 1.6431C20.8124 1.6431 12.7755 9.81422 12.7755 19.8939C12.7755 29.9736 20.8124 38.1448 30.7281 38.1448V38.1418Z" fill="#FFE2C8" stroke="#1C1C1C" stroke-width="0.5" stroke-miterlimit="10"/>
<path d="M32.9734 19.3943C34.5682 18.5848 35.6595 16.9298 35.6595 15.0194C35.6595 12.3116 33.4648 10.1145 30.7546 10.1145C28.0444 10.1145 25.8498 12.3092 25.8498 15.0194C25.8498 16.9298 26.9435 18.5848 28.5359 19.3943C25.3077 20.329 22.9251 22.195 22.8047 25.6954L22.78 26.5915C22.7645 27.1543 23.2165 27.619 23.7796 27.619H37.7046C38.2569 27.619 38.7046 27.1713 38.7046 26.619L38.7046 25.6954C38.5817 22.195 36.2015 20.329 32.9734 19.3943Z" fill="#FF9500"/>
<path d="M32.9734 19.3943L32.8602 19.1714C32.7687 19.2178 32.7149 19.3155 32.7245 19.4177C32.7341 19.5199 32.8052 19.6059 32.9039 19.6344L32.9734 19.3943ZM28.5359 19.3943L28.6054 19.6344C28.704 19.6059 28.7751 19.52 28.7848 19.4178C28.7944 19.3156 28.7407 19.2179 28.6492 19.1714L28.5359 19.3943ZM22.8047 25.6954L22.5548 25.6868L22.5548 25.6885L22.8047 25.6954ZM38.7046 25.6954L38.9547 25.6954L38.9544 25.6866L38.7046 25.6954ZM38.7046 26.619L38.9546 26.619L38.7046 26.619ZM22.78 26.5915L22.5301 26.5846L22.78 26.5915ZM32.9734 19.3943L33.0865 19.6172C34.7621 18.7668 35.9095 17.0275 35.9095 15.0194H35.6595H35.4095C35.4095 16.8321 34.3743 18.4029 32.8602 19.1714L32.9734 19.3943ZM35.6595 15.0194H35.9095C35.9095 12.1736 33.603 9.86453 30.7546 9.86453V10.1145V10.3645C33.3267 10.3645 35.4095 12.4496 35.4095 15.0194H35.6595ZM30.7546 10.1145V9.86453C27.9064 9.86453 25.5998 12.1711 25.5998 15.0194H25.8498H26.0998C26.0998 12.4473 28.1825 10.3645 30.7546 10.3645V10.1145ZM25.8498 15.0194H25.5998C25.5998 17.0277 26.7497 18.7668 28.4226 19.6171L28.5359 19.3943L28.6492 19.1714C27.1372 18.4029 26.0998 16.832 26.0998 15.0194H25.8498ZM28.5359 19.3943L28.4663 19.1542C26.8283 19.6285 25.382 20.3451 24.3275 21.4065C23.2676 22.4734 22.6172 23.8754 22.5548 25.6868L22.8047 25.6954L23.0545 25.704C23.1127 24.0149 23.7138 22.7337 24.6822 21.7589C25.6562 20.7785 27.0153 20.0948 28.6054 19.6344L28.5359 19.3943ZM22.8047 25.6954L22.5548 25.6885L22.5301 26.5846L22.78 26.5915L23.0299 26.5983L23.0546 25.7022L22.8047 25.6954ZM23.7796 27.619V27.869H37.7046V27.619V27.369H23.7796V27.619ZM38.7046 26.619L38.9546 26.619L38.9546 25.6954L38.7046 25.6954L38.4546 25.6954L38.4546 26.619L38.7046 26.619ZM38.7046 25.6954L38.9544 25.6866C38.8908 23.8754 38.2405 22.4734 37.1808 21.4065C36.1267 20.3452 34.681 19.6285 33.0429 19.1542L32.9734 19.3943L32.9039 19.6344C34.4939 20.0948 35.8524 20.7785 36.8261 21.7589C37.7943 22.7337 38.3954 24.015 38.4547 25.7041L38.7046 25.6954ZM37.7046 27.619V27.869C38.3949 27.869 38.9546 27.3094 38.9546 26.619L38.7046 26.619L38.4546 26.619C38.4546 27.0332 38.1188 27.369 37.7046 27.369V27.619ZM22.78 26.5915L22.5301 26.5846C22.5107 27.2881 23.0758 27.869 23.7796 27.869V27.619V27.369C23.3573 27.369 23.0183 27.0205 23.0299 26.5983L22.78 26.5915Z" fill="#1C1C1C"/>
<path d="M58.756 54.9777C40.096 55.2977 21.456 55.2977 2.79596 54.9677C10.386 48.4877 14.296 45.1277 22.116 38.4077C29.046 38.4177 32.506 38.4177 39.426 38.4077C47.246 45.1377 51.156 48.4977 58.756 54.9777Z" fill="#CCD9FD" stroke="#1C1C1C" stroke-width="0.5" stroke-linejoin="round"/>
</g>
<defs>
<clipPath id="clip0_18011_4807">
<rect width="62" height="62" rx="5" fill="white"/>
</clipPath>
</defs>
</svg>
