<svg width="62" height="62" viewBox="0 0 62 62" fill="none" xmlns="http://www.w3.org/2000/svg">
<g clip-path="url(#clip0_18011_8072)">
<path d="M47.6158 25.0243C47.6158 34.7072 39.7032 42.5588 29.943 42.5588C20.1828 42.5588 11.5704 34.0592 11.5704 24.3762C10.6279 8.0438 20.1828 7.48969 29.943 7.48969C39.7032 7.48969 48.1477 8.33495 47.6158 25.0243Z" fill="#4169E1" stroke="#1C1C1C" stroke-width="0.5" stroke-linejoin="round"/>
<path d="M29.524 37.8724C39.4801 37.8724 47.5421 29.6169 47.5421 19.4362C47.5421 9.25543 39.4801 1 29.524 1C19.5679 1 11.5059 9.25543 11.5059 19.4362C11.5059 29.6169 19.5772 37.8724 29.524 37.8724Z" fill="#E8EDFA" stroke="#1C1C1C" stroke-width="0.5" stroke-linecap="round" stroke-linejoin="round"/>
<path d="M29.5694 33.7212C37.4074 33.7212 43.7618 27.3253 43.7618 19.4362C43.7618 11.547 37.4074 5.15118 29.5694 5.15118C21.7314 5.15118 15.377 11.547 15.377 19.4362C15.377 27.3253 21.7314 33.7212 29.5694 33.7212Z" fill="#4169E1" stroke="#1C1C1C" stroke-width="0.5" stroke-miterlimit="10"/>
<path d="M29.7637 17.8659C29.4152 18.0672 28.997 18.0672 28.6486 17.8659L25.5588 16.1003C25.0399 15.806 24.8463 15.1556 25.1174 14.6212L28.2459 8.45717C28.6641 7.62859 29.8566 7.64407 30.2593 8.4804L33.2329 14.6832C33.4884 15.2098 33.2871 15.8448 32.776 16.139L29.7637 17.8582V17.8659Z" fill="white"/>
<path d="M29.6073 20.1508C29.2666 20.3367 28.8484 20.3367 28.5154 20.1431L26.0374 18.7259C25.5108 18.4239 24.9455 19.0589 25.3095 19.5468L28.1747 23.4497C28.6161 24.0537 29.5144 24.0614 29.9712 23.4652L32.9836 19.5236C33.3553 19.0434 32.7977 18.4007 32.2712 18.695L29.615 20.1508H29.6073Z" fill="white"/>
<path d="M8.55753 29.645C8.75348 27.513 10.4517 25.8413 12.5792 25.6629C24.1962 24.6673 35.8039 24.6673 47.4209 25.6629C49.5484 25.8413 51.2373 27.5037 51.4612 29.6356C52.3477 38.4076 52.3477 47.1796 51.4612 55.9609C51.2373 58.0929 49.5484 59.7552 47.4209 59.9337C35.8412 60.9386 24.2615 60.9386 12.6725 59.9337C10.5077 59.7458 8.80014 58.0271 8.61352 55.8482C7.84838 46.7851 7.7644 38.0225 8.55753 29.645Z" fill="#4169E1" stroke="#1C1C1C" stroke-width="0.5" stroke-linejoin="round"/>
<path d="M8.55753 26.2639C8.75348 24.1319 10.4517 22.4602 12.5792 22.2817C24.1962 21.2862 35.8039 21.2862 47.4209 22.2817C49.5484 22.4602 51.2373 24.1225 51.4612 26.2545C52.3477 35.0265 52.3477 43.7984 51.4612 52.5798C51.2373 54.7118 49.5484 56.3741 47.4209 56.5526C35.8412 57.5575 24.2615 57.5575 12.6725 56.5526C10.5077 56.3647 8.80014 54.646 8.61352 52.4671C7.84838 43.404 7.7644 34.6414 8.55753 26.2639Z" fill="#CCD9FD" stroke="#1C1C1C" stroke-width="0.5" stroke-linejoin="round"/>
<path d="M32.8554 40.4174C32.9487 36.3037 36.4292 33.0354 40.5161 32.9603C44.6684 32.8851 48.774 33.0823 53.0756 33.505C53.6541 37.5716 53.4768 41.9013 53.3462 47.4049C53.3369 47.9872 52.8796 48.4756 52.3105 48.5225C48.4568 48.8606 44.6871 48.9827 40.8987 48.8888C36.4105 48.7761 32.7528 44.9536 32.8554 40.4174Z" fill="#4169E1" stroke="#1C1C1C" stroke-width="0.5" stroke-linejoin="round"/>
<path d="M32.8555 37.6938C32.9488 33.5708 36.4386 30.3212 40.5256 30.2085C44.4446 30.1052 48.3542 30.2085 52.2639 30.556C52.9077 30.6124 53.4209 31.1477 53.4583 31.8051C53.7569 37.2524 53.7475 39.0181 53.5236 45.7145C49.3433 46.1277 45.1071 46.278 40.8801 46.1746C36.3826 46.0619 32.7436 42.2395 32.8462 37.6938H32.8555Z" fill="#CCD9FD" stroke="#1C1C1C" stroke-width="0.5" stroke-linejoin="round"/>
<path d="M40.2174 41.2721C42.2478 41.2721 43.8937 39.6154 43.8937 37.5717C43.8937 35.5281 42.2478 33.8713 40.2174 33.8713C38.1869 33.8713 36.541 35.5281 36.541 37.5717C36.541 39.6154 38.1869 41.2721 40.2174 41.2721Z" fill="white" stroke="#1C1C1C" stroke-width="0.5" stroke-linejoin="round"/>
</g>
<defs>
<clipPath id="clip0_18011_8072">
<rect width="62" height="62" rx="5" fill="white"/>
</clipPath>
</defs>
</svg>
