<svg width="62" height="62" viewBox="0 0 62 62" fill="none" xmlns="http://www.w3.org/2000/svg">
<g clip-path="url(#clip0_18011_7606)">
<path d="M29.9846 7.95677V3.38171H25.4239V6.27506H5.43567V3.38171H0.875V7.95677H4.00368V18.1164H2.70761V20.7155H4.00368V34.0292H0.875V38.6043H5.43567V35.675H27.1385V20.7155H28.4334V18.1164H27.1385V7.95677H29.9846Z" fill="#FF9500" stroke="#1C1C1C" stroke-width="0.5" stroke-miterlimit="10" stroke-linejoin="round"/>
<path d="M28.9846 5.45042C29.5369 5.45042 29.9846 5.00271 29.9846 4.45042V1.87537C29.9846 1.32308 29.5369 0.875366 28.9846 0.875366H26.4239C25.8716 0.875366 25.4239 1.32308 25.4239 1.87537V2.76752C25.4239 3.3198 24.9762 3.76752 24.4239 3.76752H6.43567C5.88338 3.76752 5.43567 3.31981 5.43567 2.76752V1.87537C5.43567 1.32308 4.98795 0.875366 4.43567 0.875366H1.875C1.32272 0.875366 0.875 1.32308 0.875 1.87537V4.45042C0.875 5.00271 1.32272 5.45042 1.875 5.45042H3.00368C3.55596 5.45042 4.00368 5.89814 4.00368 6.45042V14.962C4.00368 15.3199 3.71354 15.61 3.35565 15.61C2.99775 15.61 2.70761 15.9002 2.70761 16.2581V17.5611C2.70761 17.919 2.99775 18.2092 3.35565 18.2092C3.71354 18.2092 4.00368 18.4993 4.00368 18.8572V30.5229C4.00368 31.0752 3.55596 31.5229 3.00368 31.5229H1.875C1.32272 31.5229 0.875 31.9706 0.875 32.5229V35.0979C0.875 35.6502 1.32272 36.0979 1.875 36.0979H4.43567C4.98795 36.0979 5.43567 35.6502 5.43567 35.0979V34.1687C5.43567 33.6164 5.88338 33.1687 6.43567 33.1687H26.1385C26.6908 33.1687 27.1385 32.721 27.1385 32.1687V18.8566C27.1385 18.499 27.4284 18.2092 27.7859 18.2092C28.1435 18.2092 28.4334 17.9193 28.4334 17.5617V16.2575C28.4334 15.8999 28.1435 15.61 27.7859 15.61C27.4284 15.61 27.1385 15.3202 27.1385 14.9626V6.45043C27.1385 5.89814 27.5862 5.45042 28.1385 5.45042H28.9846Z" fill="#FFE2C8" stroke="#1C1C1C" stroke-width="0.5" stroke-miterlimit="10" stroke-linejoin="round"/>
<path d="M24.2071 6.70844H6.70801V30.0406H24.2071V6.70844Z" fill="#E8EDFA" stroke="#1C1C1C" stroke-width="0.5" stroke-miterlimit="10" stroke-linejoin="round"/>
<path d="M22.6137 23.1475C22.3789 21.5902 21.2247 20.3726 19.7533 20.0161C19.7533 20.0125 19.7533 20.009 19.7533 20.0054V13.556C19.7533 11.1172 17.7824 9.13885 15.3501 9.13885C12.9189 9.13885 10.9468 11.116 10.9468 13.556V20.0054C10.9468 20.1525 10.9539 20.2984 10.9682 20.4431C10.018 21.0101 9.32879 21.9849 9.15352 23.1487L8.92578 26.9906H23.3172L22.6126 23.1487L22.6137 23.1475Z" fill="#231F20" stroke="#231F20" stroke-width="0.5" stroke-miterlimit="10"/>
<path d="M14.9936 10.2272C13.0668 10.2272 11.5036 11.7941 11.5036 13.7282V15.0475C11.5036 16.8321 12.8343 18.3033 14.5548 18.5198V20.8916C11.8256 21.2146 10.5378 24.7693 10.5378 24.7693H15.3346C15.9439 22.1032 18.4835 21.0531 18.4835 21.0531V13.7282C18.4835 11.7953 16.9216 10.2272 14.9936 10.2272Z" fill="#FFE2C8" stroke="#1C1C1C" stroke-width="0.5" stroke-miterlimit="10" stroke-linejoin="round"/>
<path d="M57.3541 52.1958C57.3541 53.8527 56.0109 55.1958 54.3541 55.1958H28.5439C25.2302 55.1958 22.5439 52.5095 22.5439 49.1958V31.7213L39.9484 19.6049L57.3541 31.7213V52.1958Z" fill="#4169E1" stroke="#1C1C1C" stroke-width="0.5" stroke-miterlimit="10" stroke-linejoin="round"/>
<path d="M23.7468 47.046H8.50049V54.8111H23.7468V47.046Z" fill="#FF9500" stroke="#1C1C1C" stroke-width="0.5" stroke-miterlimit="10" stroke-linejoin="round"/>
<path d="M57.3541 49.0183H22.5439V20.0704L39.9484 7.95398L57.3541 20.0704V49.0183Z" fill="#E8EDFA" stroke="#1C1C1C" stroke-width="0.5" stroke-miterlimit="10" stroke-linejoin="round"/>
<path d="M15.9364 53.6529C16.0328 54.2601 15.5636 54.8097 14.9488 54.8097H2.0464C1.43154 54.8097 0.962317 54.2601 1.05879 53.6529L1.93339 48.1474C2.01054 47.6617 2.42929 47.3043 2.92101 47.3043H14.0741C14.5659 47.3043 14.9846 47.6617 15.0618 48.1474L15.9364 53.6529Z" fill="#FFE2C8" stroke="#1C1C1C" stroke-width="0.5" stroke-miterlimit="10" stroke-linejoin="round"/>
<path d="M31.181 53.6529C31.2774 54.2601 30.8082 54.8097 30.1934 54.8097H17.2898C16.6749 54.8097 16.2057 54.2601 16.3022 53.6529L17.1768 48.1474C17.254 47.6617 17.6727 47.3043 18.1644 47.3043H29.3187C29.8105 47.3043 30.2292 47.6617 30.3064 48.1474L31.181 53.6529Z" fill="#FFE2C8" stroke="#1C1C1C" stroke-width="0.5" stroke-miterlimit="10" stroke-linejoin="round"/>
<path d="M23.563 46.1489C23.6595 46.7562 23.1903 47.3058 22.5754 47.3058H9.67189C9.05703 47.3058 8.58781 46.7562 8.68427 46.1489L9.55888 40.6435C9.63603 40.1578 10.0548 39.8004 10.5465 39.8004H21.7008C22.1925 39.8004 22.6113 40.1578 22.6884 40.6435L23.563 46.1489Z" fill="#FFE2C8" stroke="#1C1C1C" stroke-width="0.5" stroke-miterlimit="10" stroke-linejoin="round"/>
<path d="M16.1213 54.8082H0.875V58.0267C0.875 59.6835 2.21815 61.0267 3.875 61.0267H13.1213C14.7782 61.0267 16.1213 59.6835 16.1213 58.0267V54.8082Z" fill="#FF9500" stroke="#1C1C1C" stroke-width="0.5" stroke-miterlimit="10" stroke-linejoin="round"/>
<path d="M31.3648 54.8082H16.1184V58.0267C16.1184 59.6835 17.4616 61.0267 19.1184 61.0267H28.3648C30.0216 61.0267 31.3648 59.6835 31.3648 58.0267V54.8082Z" fill="#FF9500" stroke="#1C1C1C" stroke-width="0.5" stroke-miterlimit="10" stroke-linejoin="round"/>
<path d="M20.905 22.2798C20.4505 22.5955 19.8261 22.4821 19.5117 22.0268L19.2902 21.7061C18.9769 21.2525 19.0898 20.6309 19.5426 20.3165L39.0813 6.7464L40.6647 6.75358L60.1807 20.2886C60.6335 20.6026 60.7469 21.2239 60.4343 21.6777L60.2133 21.9983C59.8993 22.4541 59.2748 22.5681 58.82 22.2527L39.9159 9.14217H39.8205L20.905 22.2798Z" fill="#4169E1" stroke="#1C1C1C" stroke-width="0.5" stroke-miterlimit="10" stroke-linejoin="round"/>
<path d="M44.5545 35.8129H35.8049V48.4511H44.5545V35.8129Z" fill="#E8EDFA" stroke="#1C1C1C" stroke-width="0.5" stroke-miterlimit="10" stroke-linejoin="round"/>
<path d="M35.0063 21.8759H25.749V31.1624H35.0063V21.8759Z" fill="#E8EDFA" stroke="#1C1C1C" stroke-width="0.5" stroke-miterlimit="10" stroke-linejoin="round"/>
<path d="M35.3247 30.0862H25.4224V32.8324H35.3247V30.0862Z" fill="#4169E1" stroke="#1C1C1C" stroke-width="0.5" stroke-miterlimit="10" stroke-linejoin="round"/>
<path d="M54.2143 21.8759H44.957V31.1624H54.2143V21.8759Z" fill="#E8EDFA" stroke="#1C1C1C" stroke-width="0.5" stroke-miterlimit="10" stroke-linejoin="round"/>
<path d="M54.5403 30.0862H44.6379V32.8324H54.5403V30.0862Z" fill="#4169E1" stroke="#1C1C1C" stroke-width="0.5" stroke-miterlimit="10" stroke-linejoin="round"/>
<path d="M9.20974 45.0366C9.9943 45.3234 10.627 45.5596 11.2513 45.7958C12.1371 46.1248 12.1371 47.3732 11.2513 47.7022C10.6186 47.9384 9.98586 48.1746 9.20974 48.4614C8.93135 48.5626 8.70358 48.7904 8.59391 49.0688C8.30708 49.8533 8.07087 50.486 7.83466 51.1102C7.50566 51.9959 6.25712 51.9959 5.92811 51.1102C5.6919 50.4775 5.45569 49.8449 5.16887 49.0688C5.06763 48.7904 4.83986 48.5626 4.55303 48.453C3.76848 48.1662 3.13578 47.93 2.51151 47.6938C1.62572 47.3648 1.62572 46.1163 2.51151 45.7873C3.14421 45.5511 3.77692 45.3149 4.55303 45.0281C4.83142 44.9269 5.0592 44.6991 5.16043 44.4123C5.44726 43.6278 5.68347 42.9951 5.91968 42.3709C6.24868 41.4852 7.49722 41.4852 7.82623 42.3709C8.06244 43.0036 8.29865 43.6363 8.58547 44.4123C8.6867 44.6907 8.91448 44.9185 9.19287 45.0281L9.20974 45.0366Z" fill="white" stroke="black" stroke-width="0.5" stroke-linejoin="round"/>
</g>
<defs>
<clipPath id="clip0_18011_7606">
<rect width="62" height="62" rx="5" fill="white"/>
</clipPath>
</defs>
</svg>
