<svg width="62" height="62" viewBox="0 0 62 62" fill="none" xmlns="http://www.w3.org/2000/svg">
<g clip-path="url(#clip0_18011_5374)">
<path d="M40.4791 39.9543C40.4791 50.4718 31.8284 59 21.158 59C10.4875 59 1.07171 49.7679 1.07171 39.2504C0.031186 21.5105 10.4875 20.9086 21.158 20.9086C31.8284 20.9086 41.0606 21.8267 40.4791 39.9543Z" fill="#637DEB" stroke="#1C1C1C" stroke-width="0.5" stroke-linejoin="round"/>
<path d="M20.7064 53.9014C31.5911 53.9014 40.405 44.9345 40.405 33.8764C40.405 22.8182 31.5809 13.8513 20.7064 13.8513C9.83188 13.8513 1.00781 22.8182 1.00781 33.8764C1.00781 44.9345 9.83188 53.9014 20.7064 53.9014Z" fill="#CCD9FD" stroke="#1C1C1C" stroke-width="0.5" stroke-linejoin="round"/>
<path d="M20.7559 49.3905C29.3249 49.3905 36.2719 42.4434 36.2719 33.8744C36.2719 25.3054 29.3249 18.3583 20.7559 18.3583C12.1868 18.3583 5.23975 25.3054 5.23975 33.8744C5.23975 42.4434 12.1868 49.3905 20.7559 49.3905Z" fill="#637DEB" stroke="#1C1C1C" stroke-width="0.5" stroke-linejoin="round"/>
<path d="M21.3802 36.322C20.9212 36.5872 20.3703 36.5872 19.9112 36.322L15.841 33.9961C15.1575 33.6085 14.9024 32.7515 15.2595 32.0477L19.3808 23.9275C19.9317 22.836 21.5027 22.8564 22.0331 23.9581L25.9504 32.1293C26.287 32.823 26.0218 33.6595 25.3485 34.0471L21.3802 36.3118V36.322Z" fill="white"/>
<path d="M21.1594 37.967C20.7106 38.2119 20.1597 38.2119 19.721 37.9568L16.4567 36.09C15.763 35.6922 15.0183 36.5287 15.4977 37.1713L19.2722 42.3127C19.8536 43.1084 21.037 43.1187 21.6389 42.3332L25.6072 37.1407C26.0968 36.5083 25.3623 35.6615 24.6686 36.0492L21.1696 37.967H21.1594Z" fill="white"/>
<path d="M44.4475 33.5709C43.9051 33.5709 43.4596 33.1383 43.4608 32.5959C43.4718 27.921 44.5167 24.1832 48.5467 21.8671C50.0005 20.8851 51.3784 19.8734 52.193 18.3674C53.3777 16.2497 52.6512 13.1655 50.4086 12.1235C47.5405 10.6297 43.7719 12.251 43.1544 15.4654C43.0491 16.0135 42.6107 16.4755 42.0525 16.4755H36.1944C35.6427 16.4755 35.1913 16.0147 35.2304 15.4643C36.395 -0.922381 66.5161 2.58017 60.4406 19.8381C58.9092 23.7812 55.4634 24.8274 52.7231 27.3565C51.323 28.7778 50.8616 30.5392 50.7902 32.55C50.7704 33.11 50.324 33.5709 49.7637 33.5709H44.4475Z" fill="#FF9500" stroke="#1C1C1C" stroke-width="0.5" stroke-miterlimit="10" stroke-linejoin="round"/>
<path d="M50.9434 43.5056C50.8851 43.9464 50.5292 44.2855 50.0865 44.3274C49.208 44.4105 48.2546 44.4632 47.2357 44.467C46.132 44.4709 45.1037 44.4163 44.1626 44.3274C43.7192 44.2855 43.3629 43.9455 43.3047 43.5039C43.1828 42.5788 43.1005 41.5259 43.1062 40.367C43.1127 38.9801 43.2436 37.7484 43.4149 36.7113C44.4267 36.5364 45.6284 36.4017 46.982 36.3927C48.456 36.3828 49.7554 36.5249 50.8318 36.7113C51.0048 37.755 51.1373 38.9998 51.1422 40.4032C51.1459 41.5488 51.0646 42.5905 50.9434 43.5056Z" fill="#FF9500" stroke="#1C1C1C" stroke-width="0.5" stroke-miterlimit="10" stroke-linejoin="round"/>
<path d="M44.4475 30.7081C43.9051 30.7081 43.4596 30.2754 43.4608 29.733C43.4718 25.0581 44.5167 21.3204 48.5467 19.0043C50.0005 18.0222 51.3784 17.0106 52.193 15.5046C53.3777 13.3869 52.6512 10.3027 50.4086 9.26065C47.5405 7.76687 43.7719 9.38821 43.1544 12.6025C43.0491 13.1507 42.6107 13.6127 42.0525 13.6127H36.1944C35.6427 13.6127 35.1913 13.1519 35.2304 12.6015C36.395 -3.7852 66.5161 -0.282657 60.4406 16.9753C58.9092 20.9184 55.4634 21.9645 52.7231 24.4937C51.323 25.915 50.8616 27.6764 50.7902 29.6872C50.7704 30.2472 50.324 30.7081 49.7637 30.7081H44.4475Z" fill="#FFE2C8" stroke="#1C1C1C" stroke-width="0.5" stroke-miterlimit="10" stroke-linejoin="round"/>
<path d="M50.9434 40.6427C50.8851 41.0835 50.5292 41.4227 50.0865 41.4646C49.208 41.5477 48.2546 41.6003 47.2357 41.6041C46.132 41.608 45.1037 41.5535 44.1626 41.4645C43.7192 41.4226 43.3629 41.0826 43.3047 40.641C43.1828 39.716 43.1005 38.663 43.1062 37.5042C43.1113 36.4185 43.1926 35.428 43.3099 34.5514C43.3663 34.1296 43.6957 33.7976 44.1172 33.7387C44.9683 33.6199 45.9292 33.5369 46.982 33.5298C48.1488 33.522 49.2063 33.6094 50.1303 33.7387C50.5515 33.7976 50.8806 34.1292 50.9371 34.5507C51.056 35.436 51.1384 36.4394 51.1422 37.5403C51.1459 38.686 51.0646 39.7277 50.9434 40.6427Z" fill="#FFE2C8" stroke="#1C1C1C" stroke-width="0.5" stroke-miterlimit="10" stroke-linejoin="round"/>
</g>
<defs>
<clipPath id="clip0_18011_5374">
<rect width="62" height="62" rx="5" fill="white"/>
</clipPath>
</defs>
</svg>
