<svg width="62" height="62" viewBox="0 0 62 62" fill="none" xmlns="http://www.w3.org/2000/svg">
<g clip-path="url(#clip0_18011_4613)">
<path d="M51.639 34.34C51.639 45.4739 42.5886 54.5 31.424 54.5C20.2594 54.5 10.4077 44.7273 10.4077 33.5933C9.32371 14.8107 20.2594 14.1799 31.424 14.1799C42.5886 14.1799 52.2521 15.1552 51.639 34.34Z" fill="#2AA5A5" stroke="#1C1C1C" stroke-width="0.5" stroke-miterlimit="10"/>
<path d="M30.9477 50.3974C42.3327 50.3974 51.562 40.9064 51.562 29.1987C51.562 17.491 42.3327 8 30.9477 8C19.5628 8 10.3334 17.491 10.3334 29.1987C10.3334 40.9064 19.5628 50.3974 30.9477 50.3974Z" fill="#B9E5DE" stroke="#1C1C1C" stroke-width="0.5" stroke-miterlimit="10"/>
<path d="M31.0004 45.6186C39.9684 45.6186 47.2385 38.2641 47.2385 29.1919C47.2385 20.1197 39.9684 12.7652 31.0004 12.7652C22.0323 12.7652 14.7623 20.1197 14.7623 29.1919C14.7623 38.2641 22.0323 45.6186 31.0004 45.6186Z" fill="#2AA5A5" stroke="#1C1C1C" stroke-width="0.5" stroke-miterlimit="10"/>
<path d="M32.929 30.6546V30.6521C32.8208 30.6597 32.2618 30.6924 31.018 30.6924C30.0234 30.6924 29.3259 30.6647 29.0792 30.6521V30.6546C25.2545 30.486 22.4018 29.8212 22.4018 29.0231C22.4018 28.2274 25.257 27.5602 29.0792 27.3915V29.9924C29.3285 30.0101 30.0461 30.0529 31.0356 30.0529C32.224 30.0529 32.8182 30.0025 32.929 29.9924V27.394C36.7461 27.5652 39.5913 28.2299 39.5913 29.0256C39.5913 29.8212 36.7436 30.4859 32.929 30.6572V30.6546ZM32.929 27.1246V24.7981H38.2543V21.2504H23.7564V24.7981H29.0817V27.1246C24.7535 27.3235 21.5004 28.1796 21.5004 29.2069C21.5004 30.2342 24.756 31.0902 29.0817 31.2917V38.7496H32.9315V31.2917C37.2522 31.0928 40.5003 30.2367 40.5003 29.2094C40.5003 28.1846 37.2522 27.326 32.9315 27.1271" fill="white"/>
</g>
<defs>
<clipPath id="clip0_18011_4613">
<rect width="62" height="62" rx="5" fill="white"/>
</clipPath>
</defs>
</svg>
