<svg width="62" height="62" viewBox="0 0 62 62" fill="none" xmlns="http://www.w3.org/2000/svg">
<g clip-path="url(#clip0_18011_7026)">
<path d="M43.8004 14.7741H38.3247V30.6987H23.7355V14.7741H18.2598L31.0339 2L43.8004 14.7741Z" fill="#4169E1" stroke="#1C1C1C" stroke-width="0.5" stroke-miterlimit="10"/>
<path d="M40.5861 26.83C40.5861 31.9351 36.3886 36.0797 31.2078 36.0797C26.0271 36.0797 21.459 31.5947 21.459 26.4896C20.9522 17.8752 26.0271 17.5878 31.2078 17.5878C36.3886 17.5878 40.8735 18.0341 40.5861 26.8375V26.83Z" fill="#FF9500" stroke="#1C1C1C" stroke-width="0.5" stroke-linejoin="round"/>
<path d="M30.9809 33.6064C36.2675 33.6064 40.5483 29.25 40.5483 23.8802C40.5483 18.5104 36.2675 14.1541 30.9809 14.1541C25.6943 14.1541 21.4136 18.5104 21.4136 23.8802C21.4136 29.25 25.6943 33.6064 30.9809 33.6064Z" fill="#FFE2C8" stroke="#1C1C1C" stroke-width="0.5" stroke-linejoin="round"/>
<path d="M31.0036 31.4132C35.1633 31.4132 38.5365 28.04 38.5365 23.8803C38.5365 19.7206 35.1633 16.3474 31.0036 16.3474C26.8439 16.3474 23.4707 19.7206 23.4707 23.8803C23.4707 28.04 26.8439 31.4132 31.0036 31.4132Z" fill="#FF9500" stroke="#1C1C1C" stroke-width="0.5" stroke-linejoin="round"/>
<path d="M34.3238 21.6416C34.4145 22.5113 34.0515 23.0483 33.507 23.3433C34.4297 23.5777 34.9969 24.145 34.891 25.4307C34.7473 27.0265 33.6204 27.4576 32.0095 27.556V28.7509C32.0095 29.0156 31.7901 29.235 31.5254 29.235C31.2607 29.235 31.0414 29.0156 31.0414 28.7509V27.5786C30.7918 27.5786 30.5347 27.5786 30.2775 27.5635V28.7434C30.2775 29.0081 30.0582 29.2274 29.7935 29.2274C29.5288 29.2274 29.3094 29.0081 29.3094 28.7434V27.5484C29.0825 27.5484 28.8632 27.5333 28.6212 27.5333H28.0691C27.6985 27.5333 27.4187 27.2005 27.4792 26.8375C27.5245 26.5425 27.7817 26.3383 28.0767 26.3383C28.2657 26.3383 28.2582 26.3383 28.2582 26.3383C28.5304 26.3383 28.5985 26.1341 28.6136 25.9979V23.3584V21.4601C28.5834 21.2559 28.4472 21.0139 28.054 21.0139C28.054 21.0139 28.054 21.0139 27.9027 21.0139C27.6077 21.0139 27.3582 20.7718 27.3582 20.4769C27.3582 20.1819 27.6002 19.9475 27.8876 19.9475H29.2943V18.7676C29.2943 18.5029 29.5136 18.2836 29.7784 18.2836C30.0431 18.2836 30.2624 18.5029 30.2624 18.7676V19.9096C30.5195 19.9096 30.7691 19.8945 31.0263 19.8945V18.76C31.0263 18.4953 31.2456 18.276 31.5103 18.276C31.775 18.276 31.9943 18.4953 31.9943 18.76V19.9399C33.2271 20.0458 34.2179 20.4466 34.3162 21.6492L34.3238 21.6416ZM32.9776 25.2265C32.9776 23.9257 30.9355 24.1147 30.2851 24.1147V26.3307C30.9355 26.3307 32.9776 26.482 32.9776 25.2189V25.2265ZM32.5389 22.1029C32.5389 20.908 30.8296 21.0895 30.2851 21.0895V23.1088C30.8372 23.1088 32.5389 23.2374 32.5389 22.1029Z" fill="white"/>
<path d="M31.1776 51.1906V33.6064" stroke="#1C1C1C" stroke-width="0.5" stroke-linecap="round" stroke-linejoin="round"/>
<path d="M31.2684 51.1907L31.2835 51.0394C31.2835 48.3243 30.1339 38.9611 21.0809 39.3771C20.7859 39.3922 21.0809 41.3435 21.0809 41.3435C21.0809 41.3435 20.7027 47.1595 31.276 51.1831L31.2684 51.1907Z" fill="#4169E1" stroke="#1C1C1C" stroke-width="0.5" stroke-linejoin="round"/>
<path d="M31.5179 45.6998L31.5028 45.5485C31.5028 42.8031 32.4936 33.5383 41.834 34.1434L41.7055 35.8602C41.7055 35.8602 42.0836 41.6762 31.5104 45.6998H31.5179Z" fill="#4169E1" stroke="#1C1C1C" stroke-width="0.5" stroke-linejoin="round"/>
<path d="M31.2684 49.2243L31.2835 49.073C31.2835 46.2671 31.0339 38.4015 21.0808 39.3847C21.0808 39.3847 20.7027 45.2007 31.2759 49.2243H31.2684Z" fill="#2AA5A5" stroke="#1C1C1C" stroke-width="0.5" stroke-linejoin="round"/>
<path d="M31.5179 43.7334L31.5028 43.5822C31.5028 40.7763 31.7524 32.9106 41.7055 33.8938C41.7055 33.8938 42.0836 39.7099 31.5104 43.7334H31.5179Z" fill="#2AA5A5" stroke="#1C1C1C" stroke-width="0.5" stroke-linejoin="round"/>
<path d="M42.1063 56.3638H21.6481C21.009 56.3638 20.4909 56.8819 20.4909 57.521V59.8429C20.4909 60.4819 21.009 61 21.6481 61H42.1063C42.7454 61 43.2635 60.4819 43.2635 59.8429V57.521C43.2635 56.8819 42.7454 56.3638 42.1063 56.3638Z" fill="#FF9500" stroke="#1C1C1C" stroke-width="0.5" stroke-linejoin="round"/>
<path d="M42.1063 49.8293H21.6481C21.009 49.8293 20.4909 50.3474 20.4909 50.9865V53.3084C20.4909 53.9475 21.009 54.4655 21.6481 54.4655H42.1063C42.7454 54.4655 43.2635 53.9475 43.2635 53.3084V50.9865C43.2635 50.3474 42.7454 49.8293 42.1063 49.8293Z" fill="#FFE2C8" stroke="#1C1C1C" stroke-width="0.5" stroke-linejoin="round"/>
<path d="M42.1063 54.4655H21.6481C21.009 54.4655 20.4909 54.9835 20.4909 55.6226V57.9445C20.4909 58.5836 21.009 59.1016 21.6481 59.1016H42.1063C42.7454 59.1016 43.2635 58.5836 43.2635 57.9445V55.6226C43.2635 54.9835 42.7454 54.4655 42.1063 54.4655Z" fill="#FFE2C8" stroke="#1C1C1C" stroke-width="0.5" stroke-linejoin="round"/>
</g>
<defs>
<clipPath id="clip0_18011_7026">
<rect width="62" height="62" rx="5" fill="white"/>
</clipPath>
</defs>
</svg>
