<svg width="62" height="62" viewBox="0 0 62 62" fill="none" xmlns="http://www.w3.org/2000/svg">
<g clip-path="url(#clip0_18011_4520)">
<path d="M51.639 34.34C51.639 45.4739 42.5886 54.5 31.424 54.5C20.2594 54.5 10.4077 44.7273 10.4077 33.5933C9.32373 14.8107 20.2594 14.1799 31.424 14.1799C42.5886 14.1799 52.2521 15.1552 51.639 34.34Z" fill="#637DEB" stroke="#1C1C1C" stroke-width="0.5" stroke-miterlimit="10"/>
<path d="M30.9477 50.3974C42.3327 50.3974 51.562 40.9064 51.562 29.1987C51.562 17.491 42.3327 8 30.9477 8C19.5628 8 10.3334 17.491 10.3334 29.1987C10.3334 40.9064 19.5628 50.3974 30.9477 50.3974Z" fill="#CCD9FD" stroke="#1C1C1C" stroke-width="0.5" stroke-miterlimit="10"/>
<path d="M31.0003 45.6186C39.9684 45.6186 47.2384 38.2641 47.2384 29.1919C47.2384 20.1197 39.9684 12.7652 31.0003 12.7652C22.0323 12.7652 14.7622 20.1197 14.7622 29.1919C14.7622 38.2641 22.0323 45.6186 31.0003 45.6186Z" fill="#637DEB" stroke="#1C1C1C" stroke-width="0.5" stroke-miterlimit="10"/>
<path d="M35.3296 32.4119C36.0663 32.0006 36.8457 32.8994 36.3257 33.5711L32.1108 39.0857C31.4715 39.92 30.2147 39.9094 29.5971 39.0642L25.5883 33.6033C25.0793 32.9207 25.8702 32.0323 26.6069 32.4549L30.0737 34.4383C30.5396 34.7091 31.1253 34.7091 31.602 34.449H31.6128L35.3296 32.4119ZM29.7085 19.5359C30.2936 18.3769 31.9612 18.3985 32.5249 19.5681L36.686 28.2478C37.0434 28.9846 36.7614 29.8733 36.0464 30.2849L31.8315 32.6902V32.701C31.3441 32.9824 30.7593 32.9824 30.2719 32.701L25.9487 30.2303C25.2228 29.8186 24.9515 28.9085 25.3305 28.1609L29.7085 19.5359Z" fill="white"/>
</g>
<defs>
<clipPath id="clip0_18011_4520">
<rect width="62" height="62" rx="5" fill="white"/>
</clipPath>
</defs>
</svg>
