<svg width="62" height="62" viewBox="0 0 62 62" fill="none" xmlns="http://www.w3.org/2000/svg">
<g clip-path="url(#clip0_18011_5198)">
<path d="M42.81 23.7057C42.81 32.4541 35.6168 39.5463 26.7432 39.5463C17.8697 39.5463 10.0396 31.8674 10.0396 23.119C9.17804 8.36063 17.8697 7.86499 26.7432 7.86499C35.6168 7.86499 43.2973 8.63129 42.81 23.7057Z" fill="#4169E1" stroke="#1C1C1C" stroke-width="0.5" stroke-miterlimit="10"/>
<path d="M26.3634 35.3136C35.4121 35.3136 42.7475 27.8561 42.7475 18.6568C42.7475 9.4575 35.4121 2 26.3634 2C17.3147 2 9.97925 9.4575 9.97925 18.6568C9.97925 27.8561 17.3147 35.3136 26.3634 35.3136Z" fill="#E8EDFA" stroke="#1C1C1C" stroke-width="0.5" stroke-miterlimit="10"/>
<g clip-path="url(#clip1_18011_5198)">
<path d="M25.2053 31.1697C24.1008 31.1697 23.2053 32.0652 23.2053 33.1697V34.9949C24.2287 35.1944 25.2868 35.3072 26.371 35.3072C27.4551 35.3072 28.5132 35.1944 29.5366 34.9949V33.1697C29.5366 32.0652 28.6412 31.1697 27.5366 31.1697H25.2053Z" fill="#4169E1" stroke="#1C1C1C" stroke-miterlimit="10"/>
<path d="M27.5221 6.13742C28.6249 6.13742 29.5196 5.24475 29.5221 4.14195L29.5262 2.31226C28.5028 2.11276 27.4447 2 26.3606 2C25.2765 2 24.227 2.11276 23.1949 2.31226V4.13742C23.1949 5.24198 24.0904 6.13742 25.1949 6.13742H27.5221Z" fill="#4169E1" stroke="#1C1C1C" stroke-miterlimit="10"/>
<path d="M38.8777 19.817C38.8777 20.9197 39.7702 21.8143 40.8728 21.817L42.4423 21.8208C42.6331 20.7973 42.7458 19.7391 42.7458 18.6549C42.7458 17.5707 42.6331 16.5211 42.4423 15.489H40.8777C39.7731 15.489 38.8777 16.3844 38.8777 17.489V19.817Z" fill="#4169E1" stroke="#1C1C1C" stroke-miterlimit="10"/>
<path d="M13.8472 17.4959C13.8472 16.3914 12.9517 15.4959 11.8472 15.4959H10.2826C10.0918 16.5195 9.979 17.5777 9.979 18.6619C9.979 19.7461 10.0918 20.7956 10.2826 21.8278H11.8472C12.9517 21.8278 13.8472 20.9324 13.8472 19.8278V17.4959Z" fill="#4169E1" stroke="#1C1C1C" stroke-miterlimit="10"/>
<path d="M18.3419 8.98324C19.1216 8.20199 19.1209 6.93683 18.3405 6.15633L17.1079 4.92358C15.3733 6.13792 13.8729 7.68186 12.7107 9.46867L13.8709 10.629C14.6525 11.4107 15.92 11.4101 16.7009 10.6276L18.3419 8.98324Z" fill="#4169E1" stroke="#1C1C1C" stroke-miterlimit="10"/>
<path d="M34.3886 28.3162C33.6063 29.097 33.6057 30.3643 34.3872 31.1458L35.6257 32.3845C37.3603 31.1702 38.8608 29.6262 40.0229 27.8394L38.86 26.6764C38.0794 25.8958 36.8141 25.8951 36.0328 26.675L34.3886 28.3162Z" fill="#FFE2C8" stroke="#1C1C1C" stroke-miterlimit="10"/>
<path d="M36.0311 10.6276C36.8119 11.4101 38.0794 11.4107 38.861 10.629L40.0212 9.46867C38.859 7.68186 37.3586 6.13792 35.624 4.92358L34.3914 6.15633C33.611 6.93682 33.6104 8.20199 34.39 8.98324L36.0311 10.6276Z" fill="#4169E1" stroke="#1C1C1C" stroke-miterlimit="10"/>
</g>
<path d="M26.4463 28.8877C32.1942 28.8877 36.8539 24.2276 36.8539 18.4791C36.8539 12.7306 32.1942 8.07053 26.4463 8.07053C20.6983 8.07053 16.0387 12.7306 16.0387 18.4791C16.0387 24.2276 20.6983 28.8877 26.4463 28.8877Z" fill="#E8EDFA" stroke="#1C1C1C" stroke-width="0.5" stroke-miterlimit="10"/>
<path d="M23.9354 11.6453C24.9182 11.1773 26.1201 11.0593 27.2323 11.2732C28.3456 11.4874 29.3413 12.0278 29.9354 12.8425C30.5218 13.6467 30.7403 14.7502 30.2499 16.156C30.0026 16.794 29.6037 17.2015 29.1337 17.5652C28.8934 17.7511 28.6434 17.9194 28.3788 18.1072C28.1185 18.2919 27.8509 18.4906 27.5975 18.7263L27.5887 18.7351C27.213 19.1198 27.0118 19.5668 26.9139 20.0515C26.8189 20.523 26.4698 20.8669 26.0643 20.8669H25.4852C25.0698 20.8669 24.7498 20.5393 24.7762 20.1599C24.8683 18.8422 25.2828 17.8367 26.4218 17.1765C26.427 17.1735 26.4324 17.1701 26.4374 17.1667C26.9476 16.8192 27.4816 16.4295 27.8007 15.8347C28.0423 15.3969 28.0859 14.8689 27.9608 14.4001C27.8359 13.9326 27.5367 13.5016 27.0682 13.2781H27.0692C26.1411 12.7906 24.9844 13.1191 24.4344 13.946C24.2846 14.1713 24.1164 14.3889 23.9286 14.5486C23.7422 14.707 23.5524 14.7956 23.3524 14.7957H22.5936C22.1603 14.7957 21.8659 14.4495 21.9413 14.1042C22.2002 12.9195 22.9584 12.1106 23.9354 11.6453Z" fill="#1C1C1C" stroke="#1C1C1C" stroke-width="0.5" stroke-miterlimit="10" stroke-linejoin="round"/>
<path d="M25.7507 22.3831C26.0123 22.3813 26.2592 22.3927 26.489 22.4124C26.7908 22.4382 27.0281 22.6767 27.0535 22.9797C27.0711 23.1909 27.0819 23.4162 27.0828 23.6536C27.0836 23.8974 27.0734 24.1284 27.0564 24.345C27.0316 24.6595 26.7765 24.9063 26.4539 24.9241C26.259 24.9348 26.056 24.9409 25.8455 24.9417C25.6054 24.9425 25.3741 24.9362 25.1541 24.9241C24.8309 24.906 24.5753 24.6584 24.5505 24.343C24.5333 24.1229 24.5229 23.8879 24.5242 23.6399C24.5253 23.4076 24.5362 23.187 24.5535 22.9797C24.5787 22.6766 24.8159 22.4382 25.1179 22.4124C25.3169 22.3953 25.5283 22.3845 25.7507 22.3831Z" fill="#1C1C1C" stroke="#1C1C1C" stroke-width="0.5" stroke-miterlimit="10" stroke-linejoin="round"/>
<path d="M58.8869 39.6915C58.8869 48.44 51.6937 55.5322 42.8201 55.5322C33.9466 55.5322 26.1165 47.8533 26.1165 39.1048C25.2549 24.3465 33.9466 23.8509 42.8201 23.8509C51.6937 23.8509 59.3742 24.6172 58.8869 39.6915Z" fill="#FF9500" stroke="#1C1C1C" stroke-width="0.5" stroke-miterlimit="10"/>
<path d="M42.4402 51.2966C51.4889 51.2966 58.8243 43.8391 58.8243 34.6398C58.8243 25.4405 51.4889 17.983 42.4402 17.983C33.3915 17.983 26.056 25.4405 26.056 34.6398C26.056 43.8391 33.3915 51.2966 42.4402 51.2966Z" fill="#FFE2C8" stroke="#1C1C1C" stroke-width="0.5" stroke-miterlimit="10"/>
<path d="M42.8339 18.4854V51.4459" stroke="#1C1C1C" stroke-width="0.5" stroke-miterlimit="10"/>
<path d="M26.3606 34.9652L59.3179 34.9652" stroke="#1C1C1C" stroke-width="0.5" stroke-miterlimit="10"/>
<path d="M34.5287 44.3774L53.7915 22.6584" stroke="#1C1C1C" stroke-width="0.5" stroke-miterlimit="10"/>
<path d="M53.7957 47.2737L31.8727 22.663" stroke="#1C1C1C" stroke-width="0.5" stroke-miterlimit="10"/>
<path d="M42.479 47.5387C49.6067 47.5387 55.3849 41.7599 55.3849 34.6315C55.3849 27.503 49.6067 21.7242 42.479 21.7242C35.3512 21.7242 29.573 27.503 29.573 34.6315C29.573 41.7599 35.3512 47.5387 42.479 47.5387Z" fill="#FF9500" stroke="#1C1C1C" stroke-width="0.5" stroke-miterlimit="10"/>
<path d="M48.5352 30.8C48.689 32.2954 48.0737 33.2048 47.1316 33.7101C48.7082 34.1142 49.6888 35.0843 49.4965 37.287C49.2465 40.0153 47.3239 40.763 44.5552 40.9247V42.9676C44.5552 43.4242 44.185 43.7943 43.7284 43.7943C43.2718 43.7943 42.9017 43.4242 42.9017 42.9676V40.9651C42.4787 40.9651 42.0365 40.9651 41.5943 40.9449V42.9676C41.5943 43.4242 41.2241 43.7943 40.7675 43.7943C40.3109 43.7943 39.9407 43.4242 39.9407 42.9676V40.9247C39.5562 40.9247 39.1717 40.9045 38.7679 40.9045H37.7964C37.178 40.9045 36.7078 40.3488 36.8102 39.7389L36.8181 39.6918C36.9 39.2039 37.3265 38.8524 37.8212 38.8521C38.161 38.8519 38.1527 38.8431 38.1527 38.8431C38.6141 38.8431 38.7295 38.4996 38.7679 38.2571V33.7303H38.941C38.864 33.7303 38.8064 33.7303 38.7679 33.7303V30.4766C38.7102 30.1331 38.4795 29.7087 37.8066 29.7087C37.8066 29.7087 37.8138 29.7011 37.5422 29.6999C37.0326 29.6975 36.6145 29.2911 36.6145 28.7815C36.6145 28.2779 37.0227 27.8697 37.5263 27.8697H38.9025C39.2294 27.8697 39.5754 27.8697 39.9407 27.8697V25.847C39.9407 25.3904 40.3109 25.0202 40.7675 25.0202C41.2241 25.0202 41.5943 25.3904 41.5943 25.847V27.809C42.0365 27.809 42.4595 27.7888 42.9017 27.7888V25.847C42.9017 25.3904 43.2718 25.0202 43.7284 25.0202C44.185 25.0202 44.5552 25.3904 44.5552 25.847V27.8697C46.6701 28.0515 48.3621 28.7387 48.5352 30.8ZM46.2279 36.9435C46.2279 34.7205 42.7286 35.0439 41.6135 35.0439V38.8431C42.7286 38.8431 46.2279 39.1059 46.2279 36.9435ZM45.4781 31.5881C45.4781 29.547 42.5556 29.8501 41.6135 29.8501V33.3059C42.5556 33.3059 45.4781 33.5282 45.4781 31.5881Z" fill="white"/>
<path d="M33.1592 40.22C33.8856 42.0908 33.5538 44.2101 32.2596 45.7488C31.4937 46.6594 30.6405 47.5983 29.6919 48.5476L29.6915 48.5485C27.8662 50.3719 26.0551 51.8566 24.3916 53.0591C23.3137 53.8384 21.9932 54.1917 20.6724 54.1023C19.3407 54.0122 17.9604 53.891 16.5347 53.7318L15.3199 53.5891C14.1167 53.4398 12.9503 53.2707 11.8221 53.087C10.1508 52.8147 8.67747 51.8355 7.78697 50.3938C6.84283 48.8653 5.89084 47.2156 4.96129 45.4485L4.96169 45.4476C4.0916 43.7921 3.2911 42.1105 2.57894 40.5026C1.62904 38.3579 2.05445 35.854 3.67932 34.1592C4.78104 33.0102 5.97574 31.8361 7.27045 30.6531C8.50265 29.5306 9.71707 28.4974 10.8969 27.548C11.9991 26.6612 13.3874 26.2072 14.8009 26.2748C16.1365 26.3386 17.5302 26.4401 18.9777 26.5857C20.6753 26.7563 22.2913 26.9753 23.8204 27.2261C25.3651 27.4793 26.7473 28.3445 27.6256 29.6447C28.8421 31.4454 30.0933 33.534 31.266 35.9118L31.2656 35.9127C32.0014 37.4067 32.6272 38.8498 33.1592 40.22Z" fill="#E8EDFA" stroke="#1C1C1C" stroke-width="0.5" stroke-linejoin="round"/>
<mask id="mask0_18011_5198" style="mask-type:alpha" maskUnits="userSpaceOnUse" x="2" y="26" width="32" height="28">
<path d="M3.19592 40.4756C2.28451 38.4234 2.6924 36.0273 4.24846 34.4083C5.30313 33.311 6.44463 32.1906 7.68007 31.0618C8.86496 29.9824 10.0325 28.9885 11.1678 28.0737C12.2221 27.2242 13.5504 26.7896 14.9027 26.8552C16.1866 26.9174 17.5257 27.0159 18.9161 27.1557C20.5469 27.3196 22.1 27.5288 23.5711 27.7689C25.05 28.0103 26.3712 28.8382 27.2086 30.0808C28.3804 31.8194 29.5843 33.8328 30.7133 36.1221C31.4158 37.5484 32.0145 38.9267 32.5255 40.2371C33.2222 42.0236 32.9044 44.0468 31.6676 45.5121C30.9365 46.3783 30.1241 47.2704 29.2228 48.1724C27.4656 49.9277 25.7223 51.3599 24.1185 52.522C23.0912 53.2664 21.8296 53.6049 20.5639 53.5187C19.282 53.4313 17.954 53.3141 16.5828 53.161C15.0118 52.9877 13.5029 52.778 12.0574 52.5436C10.4566 52.284 9.0455 51.3464 8.19435 49.9661C7.28627 48.4934 6.37198 46.9054 5.47818 45.2063C4.64649 43.6238 3.88008 42.0161 3.19592 40.4756Z" fill="white" stroke="#231F20" stroke-width="0.5" stroke-linejoin="round"/>
</mask>
<g mask="url(#mask0_18011_5198)">
<path d="M14.8282 38.7062L27.9096 25.8447C29.4795 27.9626 30.5692 30.684 32.1367 33.8625C33.3757 36.3779 35.2017 40.8619 35.8853 42.9636C34.7458 44.532 31.8048 49.2991 30.041 51.0643C27.6772 53.4255 25.6561 54.6885 23.6483 56.0093C21.0882 51.0327 17.3937 43.6852 14.8282 38.7062Z" fill="#E8EDFA" stroke="#1C1C1C" stroke-width="0.5" stroke-miterlimit="10"/>
<path d="M9.06609 53.1257C7.72 51.0873 5.13133 47.8462 3.78708 45.2907C2.27677 42.4223 1.70997 39.3233 0.731423 36.8193C5.07879 37.3543 10.4858 38.1766 14.8332 38.7115L23.2004 54.8375C21.3296 54.7491 18.9054 54.8436 16.8262 54.6114C14.3259 54.3356 11.2467 53.5386 9.06609 53.1257Z" fill="#4169E1" stroke="#1C1C1C" stroke-width="0.5" stroke-miterlimit="10"/>
<path d="M12.6675 25.9075C11.0222 27.1553 8.42598 29.0901 6.66541 30.7013C4.39659 32.7743 1.61686 35.1978 -0.0546071 37.1203C4.29515 37.6498 10.4826 38.169 14.8324 38.6985L27.0411 27.0776C24.9266 26.6615 21.5516 26.3877 19.0418 26.1336C16.8784 25.916 15.3463 25.6471 13.4485 25.6051L12.6675 25.9075Z" fill="#E8EDFA" stroke="#1C1C1C" stroke-width="0.5" stroke-miterlimit="10"/>
<path d="M14.2086 29.043C14.124 29.3883 13.879 29.7554 13.5238 30.0826C13.1658 30.4123 12.7408 30.6601 12.3371 30.7915C11.946 30.9187 11.5193 30.954 11.1998 30.776L11.2011 30.7755C11.0334 30.6839 10.9147 30.5458 10.8563 30.3742C10.7994 30.2071 10.8043 30.0257 10.8471 29.8513C10.9319 29.5055 11.1767 29.136 11.5321 28.8086C11.89 28.479 12.3157 28.2324 12.7193 28.101C13.1105 27.9737 13.537 27.9385 13.8566 28.1165C14.0233 28.2095 14.1408 28.3494 14.199 28.5209C14.2554 28.6879 14.2512 28.8688 14.2086 29.043ZM15.1985 31.6045C15.114 31.9498 14.8686 32.3178 14.5133 32.645C14.1555 32.9745 13.7306 33.2216 13.327 33.353C12.9359 33.4803 12.5093 33.5155 12.1898 33.3375L12.1911 33.337C12.0233 33.2455 11.9047 33.1073 11.8462 32.9357C11.7894 32.7686 11.7943 32.5872 11.837 32.4128C11.9219 32.067 12.1666 31.6975 12.5221 31.3701C12.88 31.0405 13.3056 30.7939 13.7093 30.6625C14.1005 30.5352 14.527 30.4999 14.8465 30.678C15.0132 30.771 15.1308 30.9109 15.1889 31.0824C15.2453 31.2493 15.2411 31.4303 15.1985 31.6045ZM16.3981 34.4059C16.3136 34.7512 16.0691 35.1195 15.7138 35.4468C15.3559 35.7764 14.9308 36.0242 14.5271 36.1557C14.1361 36.2829 13.7093 36.3179 13.3899 36.1401L13.3911 36.1396C13.2234 36.0481 13.1052 35.909 13.0467 35.7375C12.9899 35.5705 12.9945 35.3897 13.0371 35.2154C13.1219 34.8696 13.3661 34.4989 13.7217 34.1714C14.0796 33.8418 14.5052 33.5952 14.9089 33.4638C15.3001 33.3365 15.7274 33.3016 16.047 33.4798C16.2134 33.5727 16.3304 33.7125 16.3885 33.8838C16.445 34.0506 16.4406 34.2317 16.3981 34.4059ZM13.6319 47.0329C13.759 47.5211 13.7124 47.9789 13.4021 48.2442C13.0905 48.5104 12.6305 48.4834 12.1688 48.2785C11.7003 48.0705 11.2399 47.687 10.8687 47.2462C10.4973 46.8051 10.1971 46.2851 10.0673 45.7869C9.94027 45.299 9.9868 44.8418 10.2967 44.5765C10.6082 44.3101 11.0687 44.3364 11.5304 44.5413C12.0022 44.7507 12.4626 45.1341 12.8332 45.5748C13.2039 46.0158 13.5021 46.535 13.6319 47.0329ZM21.5167 41.2936C21.1199 42.1957 20.1092 42.67 19.234 42.2815C18.3596 41.8927 18.0293 40.8234 18.4257 39.9215C18.8223 39.0196 19.8316 38.5449 20.7065 38.9328C21.5817 39.3213 21.9133 40.3913 21.5167 41.2936ZM27.3404 36.399C26.9437 37.3012 25.9329 37.7754 25.0578 37.3869C24.183 36.9982 23.852 35.9286 24.2485 35.0265C24.6452 34.1245 25.6553 33.6501 26.5303 34.0382C27.4053 34.4268 27.737 35.4968 27.3404 36.399ZM26.6245 42.1389C26.2276 43.0409 25.2172 43.5144 24.3422 43.1259C23.4675 42.7371 23.1363 41.6676 23.5329 40.7655C23.9297 39.8638 24.9394 39.3901 25.8143 39.7781C26.6894 40.1666 27.0211 41.2366 26.6245 42.1389ZM25.9009 47.8742C25.5041 48.7763 24.4946 49.25 23.6195 48.8617C22.7447 48.473 22.4136 47.4034 22.8103 46.5013C23.2071 45.5996 24.2168 45.1258 25.0916 45.5139C25.9665 45.9025 26.2975 46.9721 25.9009 47.8742ZM31.3286 42.1842C30.9319 43.0862 29.9222 43.5598 29.0472 43.1716C28.1725 42.7829 27.8411 41.7142 28.2375 40.8121C28.6343 39.9101 29.6443 39.4356 30.5193 39.8238C31.3941 40.2125 31.7251 41.2821 31.3286 42.1842Z" fill="#1C1C1C"/>
</g>
</g>
<defs>
<clipPath id="clip0_18011_5198">
<rect width="62" height="62" rx="5" fill="white"/>
</clipPath>
<clipPath id="clip1_18011_5198">
<rect width="33.9807" height="34.5305" fill="white" transform="translate(9.11145 2)"/>
</clipPath>
</defs>
</svg>
