<svg width="62" height="62" viewBox="0 0 62 62" fill="none" xmlns="http://www.w3.org/2000/svg">
<g clip-path="url(#clip0_18011_5900)">
<path d="M9.75885 4C9.75885 2.89543 10.6543 2 11.7588 2H50.0259C51.1305 2 52.0259 2.89543 52.0259 4V33.6987H9.75885V4Z" fill="#E8EDFA" stroke="#1C1C1C" stroke-width="0.5" stroke-miterlimit="10"/>
<path d="M27.0608 13.0223H33.7865" stroke="#1C1C1C" stroke-width="0.5" stroke-miterlimit="10"/>
<path d="M23.6026 7.91669C26.3125 7.91669 28.5019 10.1477 28.502 12.8923C28.502 15.637 26.3127 17.8698 23.6026 17.8698C20.8927 17.8697 18.7032 15.6379 18.7032 12.8932C18.7033 10.1487 20.8927 7.91681 23.6026 7.91669Z" fill="#FFE2C8" stroke="#1C1C1C" stroke-width="0.5" stroke-miterlimit="10"/>
<path d="M24.3288 12.0429C24.8401 11.7834 25.19 11.2528 25.19 10.6403C25.19 9.77218 24.4863 9.06781 23.6174 9.06781C22.7485 9.06781 22.0449 9.77141 22.0449 10.6403C22.0449 11.2528 22.3955 11.7834 22.9061 12.0429C21.8711 12.3425 21.1072 13.2801 21.0686 14.4024L21.0642 14.7632C21.0573 15.3203 21.507 15.7756 22.0641 15.7756H25.1662C25.7185 15.7756 26.1662 15.3279 26.1662 14.7756V14.4024C26.1268 13.2801 25.3637 12.3425 24.3288 12.0429Z" fill="#FF9500"/>
<path d="M24.3288 12.0429L24.2156 11.8199C24.1241 11.8664 24.0703 11.9641 24.0799 12.0663C24.0895 12.1685 24.1606 12.2544 24.2592 12.283L24.3288 12.0429ZM22.9061 12.0429L22.9756 12.283C23.0742 12.2545 23.1453 12.1686 23.155 12.0664C23.1646 11.9642 23.1109 11.8665 23.0194 11.82L22.9061 12.0429ZM21.0686 14.4024L20.8187 14.3938L20.8186 14.3993L21.0686 14.4024ZM26.1662 14.4024L26.4164 14.4024L26.4161 14.3936L26.1662 14.4024ZM24.3288 12.0429L24.4419 12.2658C25.034 11.9653 25.44 11.3504 25.44 10.6403H25.19H24.94C24.94 11.1551 24.6462 11.6014 24.2156 11.8199L24.3288 12.0429ZM25.19 10.6403H25.44C25.44 9.63418 24.6245 8.81781 23.6174 8.81781V9.06781V9.31781C24.3482 9.31781 24.94 9.91018 24.94 10.6403H25.19ZM23.6174 9.06781V8.81781C22.6105 8.81781 21.7949 9.63333 21.7949 10.6403H22.0449H22.2949C22.2949 9.90949 22.8866 9.31781 23.6174 9.31781V9.06781ZM22.0449 10.6403H21.7949C21.7949 11.3506 22.2018 11.9653 22.7928 12.2657L22.9061 12.0429L23.0194 11.82C22.5893 11.6014 22.2949 11.1549 22.2949 10.6403H22.0449ZM22.9061 12.0429L22.8366 11.8027C21.7002 12.1317 20.8612 13.1609 20.8188 14.3938L21.0686 14.4024L21.3185 14.4109C21.3533 13.3994 22.042 12.5533 22.9756 12.283L22.9061 12.0429ZM21.0686 14.4024L20.8186 14.3993L20.8142 14.7601L21.0642 14.7632L21.3141 14.7663L21.3186 14.4054L21.0686 14.4024ZM22.0641 15.7756V16.0256H25.1662V15.7756V15.5256H22.0641V15.7756ZM26.1662 14.7756H26.4162V14.4024H26.1662H25.9162V14.7756H26.1662ZM26.1662 14.4024L26.4161 14.3936C26.3728 13.161 25.5348 12.1318 24.3983 11.8027L24.3288 12.0429L24.2592 12.283C25.1927 12.5533 25.8809 13.3993 25.9164 14.4111L26.1662 14.4024ZM25.1662 15.7756V16.0256C25.8566 16.0256 26.4162 15.4659 26.4162 14.7756H26.1662H25.9162C25.9162 15.1898 25.5804 15.5256 25.1662 15.5256V15.7756ZM21.0642 14.7632L20.8142 14.7601C20.8056 15.4565 21.3677 16.0256 22.0641 16.0256V15.7756V15.5256C21.6462 15.5256 21.309 15.1841 21.3141 14.7663L21.0642 14.7632Z" fill="#1C1C1C"/>
<path d="M37.2183 7.91669C39.9282 7.91669 42.1175 10.1477 42.1177 12.8923C42.1177 15.637 39.9284 17.8698 37.2183 17.8698C34.5084 17.8697 32.3189 15.6379 32.3189 12.8932C32.319 10.1487 34.5084 7.91681 37.2183 7.91669Z" fill="#FFE2C8" stroke="#1C1C1C" stroke-width="0.5" stroke-miterlimit="10"/>
<path d="M37.9373 12.0429C38.4486 11.7834 38.7985 11.2528 38.7985 10.6403C38.7985 9.77218 38.0949 9.06781 37.2259 9.06781C36.357 9.06781 35.6534 9.77141 35.6534 10.6403C35.6534 11.2528 36.0041 11.7834 36.5146 12.0429C35.4796 12.3425 34.7158 13.2801 34.6771 14.4024L34.6727 14.7632C34.6658 15.3203 35.1155 15.7756 35.6726 15.7756H38.7748C39.327 15.7756 39.7748 15.3279 39.7748 14.7756V14.4024C39.7354 13.2801 38.9723 12.3425 37.9373 12.0429Z" fill="#FF9500"/>
<path d="M37.9373 12.0429L37.8242 11.8199C37.7326 11.8664 37.6788 11.9641 37.6884 12.0663C37.698 12.1685 37.7692 12.2544 37.8678 12.283L37.9373 12.0429ZM36.5146 12.0429L36.5841 12.283C36.6827 12.2545 36.7538 12.1686 36.7635 12.0664C36.7731 11.9642 36.7194 11.8665 36.6279 11.82L36.5146 12.0429ZM34.6771 14.4024L34.4272 14.3938L34.4272 14.3993L34.6771 14.4024ZM39.7748 14.4024L40.0249 14.4024L40.0246 14.3936L39.7748 14.4024ZM37.9373 12.0429L38.0504 12.2658C38.6425 11.9653 39.0485 11.3504 39.0485 10.6403H38.7985H38.5485C38.5485 11.1551 38.2547 11.6014 37.8242 11.8199L37.9373 12.0429ZM38.7985 10.6403H39.0485C39.0485 9.63418 38.233 8.81781 37.2259 8.81781V9.06781V9.31781C37.9567 9.31781 38.5485 9.91018 38.5485 10.6403H38.7985ZM37.2259 9.06781V8.81781C36.219 8.81781 35.4034 9.63333 35.4034 10.6403H35.6534H35.9034C35.9034 9.90949 36.4951 9.31781 37.2259 9.31781V9.06781ZM35.6534 10.6403H35.4034C35.4034 11.3506 35.8103 11.9653 36.4013 12.2657L36.5146 12.0429L36.6279 11.82C36.1978 11.6014 35.9034 11.1549 35.9034 10.6403H35.6534ZM36.5146 12.0429L36.4451 11.8027C35.3088 12.1317 34.4697 13.1609 34.4273 14.3938L34.6771 14.4024L34.927 14.4109C34.9618 13.3994 35.6505 12.5533 36.5841 12.283L36.5146 12.0429ZM34.6771 14.4024L34.4272 14.3993L34.4227 14.7601L34.6727 14.7632L34.9227 14.7663L34.9271 14.4054L34.6771 14.4024ZM35.6726 15.7756V16.0256H38.7748V15.7756V15.5256H35.6726V15.7756ZM39.7748 14.7756H40.0248V14.4024H39.7748H39.5248V14.7756H39.7748ZM39.7748 14.4024L40.0246 14.3936C39.9813 13.161 39.1433 12.1318 38.0068 11.8027L37.9373 12.0429L37.8678 12.283C38.8013 12.5533 39.4894 13.3993 39.5249 14.4111L39.7748 14.4024ZM38.7748 15.7756V16.0256C39.4651 16.0256 40.0248 15.4659 40.0248 14.7756H39.7748H39.5248C39.5248 15.1898 39.189 15.5256 38.7748 15.5256V15.7756ZM34.6727 14.7632L34.4227 14.7601C34.4141 15.4565 34.9762 16.0256 35.6726 16.0256V15.7756V15.5256C35.2548 15.5256 34.9175 15.1841 34.9227 14.7663L34.6727 14.7632Z" fill="#1C1C1C"/>
<path d="M27.0608 40.3596H33.7865" stroke="#1C1C1C" stroke-width="0.5" stroke-miterlimit="10"/>
<path d="M25.169 17.8513L35.0192 36.6883" stroke="#1C1C1C" stroke-width="0.5" stroke-miterlimit="10"/>
<path d="M35.6328 17.3904L25.6657 36.6883" stroke="#1C1C1C" stroke-width="0.5" stroke-miterlimit="10"/>
<path d="M20.8214 27.7503H39.5752" stroke="#1C1C1C" stroke-width="0.5" stroke-miterlimit="10"/>
<path d="M39.4991 17.0809L43.3535 22.508" stroke="#1C1C1C" stroke-width="0.5" stroke-miterlimit="10"/>
<path d="M39.4991 36.3422L43.3535 30.9152" stroke="#1C1C1C" stroke-width="0.5" stroke-miterlimit="10"/>
<path d="M20.9041 17.0809L17.0497 22.508" stroke="#1C1C1C" stroke-width="0.5" stroke-miterlimit="10"/>
<path d="M20.9041 36.3422L17.0497 30.9152" stroke="#1C1C1C" stroke-width="0.5" stroke-miterlimit="10"/>
<path d="M16.17 31.2739C18.7381 31.2739 20.8196 29.1577 20.8196 26.5472C20.8196 23.9367 18.7381 21.8205 16.17 21.8205C13.6018 21.8205 11.5203 23.9375 11.5203 26.5472C11.5203 29.157 13.6018 31.2739 16.17 31.2739Z" fill="#FFE2C8" stroke="#1C1C1C" stroke-width="0.5" stroke-miterlimit="10"/>
<path d="M16.896 25.69C17.4073 25.4304 17.7572 24.8998 17.7572 24.2874C17.7572 23.4193 17.0536 22.7149 16.1847 22.7149C15.3158 22.7149 14.6122 23.4185 14.6122 24.2874C14.6122 24.8998 14.9628 25.4304 15.4733 25.69C14.4384 25.9896 13.6745 26.9272 13.6359 28.0494L13.6314 28.4103C13.6245 28.9674 14.0742 29.4227 14.6313 29.4227H17.7335C18.2858 29.4227 18.7335 28.9749 18.7335 28.4227V28.0494C18.6941 26.9272 17.931 25.9896 16.896 25.69Z" fill="#FF9500"/>
<path d="M16.896 25.69L16.7829 25.467C16.6913 25.5135 16.6375 25.6112 16.6471 25.7134C16.6568 25.8156 16.7279 25.9015 16.8265 25.9301L16.896 25.69ZM15.4733 25.69L15.5429 25.9301C15.6415 25.9015 15.7126 25.8156 15.7222 25.7135C15.7319 25.6113 15.6781 25.5136 15.5866 25.4671L15.4733 25.69ZM13.6359 28.0494L13.386 28.0408L13.3859 28.0464L13.6359 28.0494ZM18.7335 28.0494H18.9836L18.9833 28.0407L18.7335 28.0494ZM16.896 25.69L17.0092 25.9129C17.6013 25.6124 18.0072 24.9975 18.0072 24.2874H17.7572H17.5072C17.5072 24.8022 17.2134 25.2485 16.7829 25.467L16.896 25.69ZM17.7572 24.2874H18.0072C18.0072 23.2813 17.1917 22.4649 16.1847 22.4649V22.7149V22.9649C16.9155 22.9649 17.5072 23.5573 17.5072 24.2874H17.7572ZM16.1847 22.7149V22.4649C15.1777 22.4649 14.3622 23.2804 14.3622 24.2874H14.6122H14.8622C14.8622 23.5566 15.4538 22.9649 16.1847 22.9649V22.7149ZM14.6122 24.2874H14.3622C14.3622 24.9977 14.769 25.6124 15.3601 25.9128L15.4733 25.69L15.5866 25.4671C15.1566 25.2485 14.8622 24.802 14.8622 24.2874H14.6122ZM15.4733 25.69L15.4038 25.4498C14.2675 25.7788 13.4285 26.808 13.386 28.0408L13.6359 28.0494L13.8857 28.058C13.9206 27.0465 14.6093 26.2004 15.5429 25.9301L15.4733 25.69ZM13.6359 28.0494L13.3859 28.0464L13.3814 28.4072L13.6314 28.4103L13.8814 28.4134L13.8859 28.0525L13.6359 28.0494ZM14.6313 29.4227V29.6727H17.7335V29.4227V29.1727H14.6313V29.4227ZM18.7335 28.4227H18.9835V28.0494H18.7335H18.4835V28.4227H18.7335ZM18.7335 28.0494L18.9833 28.0407C18.9401 26.8081 18.102 25.7789 16.9656 25.4498L16.896 25.69L16.8265 25.9301C17.76 26.2004 18.4481 27.0464 18.4836 28.0582L18.7335 28.0494ZM17.7335 29.4227V29.6727C18.4238 29.6727 18.9835 29.113 18.9835 28.4227H18.7335H18.4835C18.4835 28.8369 18.1477 29.1727 17.7335 29.1727V29.4227ZM13.6314 28.4103L13.3814 28.4072C13.3728 29.1035 13.9349 29.6727 14.6313 29.6727V29.4227V29.1727C14.2135 29.1727 13.8762 28.8312 13.8814 28.4134L13.6314 28.4103Z" fill="#1C1C1C"/>
<path d="M23.603 44.4733C26.1711 44.4733 28.2526 42.3571 28.2526 39.7466C28.2526 37.1361 26.1711 35.0199 23.603 35.0199C21.0349 35.0199 18.9533 37.1361 18.9533 39.7466C18.9533 42.3571 21.0349 44.4733 23.603 44.4733Z" fill="#FFE2C8" stroke="#1C1C1C" stroke-width="0.5" stroke-miterlimit="10"/>
<path d="M24.5076 39.0474C25.0189 38.7879 25.3688 38.2573 25.3688 37.6449C25.3688 36.7768 24.6652 36.0724 23.7963 36.0724C22.9274 36.0724 22.2238 36.776 22.2238 37.6449C22.2238 38.2573 22.5744 38.7879 23.0849 39.0474C22.05 39.3471 21.2861 40.2847 21.2475 41.4069L21.243 41.7678C21.2361 42.3249 21.6858 42.7801 22.2429 42.7801H25.3451C25.8974 42.7801 26.3451 42.3324 26.3451 41.7801V41.4069C26.3057 40.2847 25.5426 39.3471 24.5076 39.0474Z" fill="#FF9500"/>
<path d="M24.5076 39.0474L24.3945 38.8245C24.3029 38.871 24.2491 38.9687 24.2587 39.0709C24.2684 39.1731 24.3395 39.259 24.4381 39.2876L24.5076 39.0474ZM23.0849 39.0474L23.1545 39.2876C23.2531 39.259 23.3242 39.1731 23.3338 39.071C23.3435 38.9688 23.2897 38.8711 23.1982 38.8246L23.0849 39.0474ZM21.2475 41.4069L20.9976 41.3983L20.9975 41.4038L21.2475 41.4069ZM26.3451 41.4069H26.5952L26.5949 41.3982L26.3451 41.4069ZM24.5076 39.0474L24.6208 39.2704C25.2129 38.9699 25.6188 38.355 25.6188 37.6449H25.3688H25.1188C25.1188 38.1597 24.825 38.606 24.3945 38.8245L24.5076 39.0474ZM25.3688 37.6449H25.6188C25.6188 36.6388 24.8033 35.8224 23.7963 35.8224V36.0724V36.3224C24.5271 36.3224 25.1188 36.9148 25.1188 37.6449H25.3688ZM23.7963 36.0724V35.8224C22.7893 35.8224 21.9738 36.6379 21.9738 37.6449H22.2238H22.4738C22.4738 36.9141 23.0654 36.3224 23.7963 36.3224V36.0724ZM22.2238 37.6449H21.9738C21.9738 38.3552 22.3806 38.9699 22.9717 39.2703L23.0849 39.0474L23.1982 38.8246C22.7682 38.606 22.4738 38.1595 22.4738 37.6449H22.2238ZM23.0849 39.0474L23.0154 38.8073C21.8791 39.1363 21.0401 40.1655 20.9976 41.3983L21.2475 41.4069L21.4973 41.4155C21.5322 40.404 22.2209 39.5579 23.1545 39.2876L23.0849 39.0474ZM21.2475 41.4069L20.9975 41.4038L20.993 41.7647L21.243 41.7678L21.493 41.7709L21.4975 41.41L21.2475 41.4069ZM22.2429 42.7801V43.0301H25.3451V42.7801V42.5301H22.2429V42.7801ZM26.3451 41.7801H26.5951V41.4069H26.3451H26.0951V41.7801H26.3451ZM26.3451 41.4069L26.5949 41.3982C26.5517 40.1656 25.7136 39.1364 24.5772 38.8073L24.5076 39.0474L24.4381 39.2876C25.3716 39.5579 26.0597 40.4039 26.0952 41.4157L26.3451 41.4069ZM25.3451 42.7801V43.0301C26.0354 43.0301 26.5951 42.4705 26.5951 41.7801H26.3451H26.0951C26.0951 42.1944 25.7593 42.5301 25.3451 42.5301V42.7801ZM21.243 41.7678L20.993 41.7647C20.9844 42.461 21.5465 43.0301 22.2429 43.0301V42.7801V42.5301C21.8251 42.5301 21.4878 42.1887 21.493 41.7709L21.243 41.7678Z" fill="#1C1C1C"/>
<path d="M37.2185 44.4733C39.7866 44.4733 41.8681 42.3571 41.8681 39.7466C41.8681 37.1361 39.7866 35.0199 37.2185 35.0199C34.6504 35.0199 32.5688 37.1361 32.5688 39.7466C32.5688 42.3571 34.6504 44.4733 37.2185 44.4733Z" fill="#FFE2C8" stroke="#1C1C1C" stroke-width="0.5" stroke-miterlimit="10"/>
<path d="M37.9373 38.8894C38.4486 38.6298 38.7985 38.0993 38.7985 37.4868C38.7985 36.6187 38.0949 35.9143 37.2259 35.9143C36.357 35.9143 35.6534 36.6179 35.6534 37.4868C35.6534 38.0993 36.0041 38.6298 36.5146 38.8894C35.4796 39.189 34.7158 40.1266 34.6771 41.2488L34.6727 41.6097C34.6658 42.1668 35.1155 42.6221 35.6726 42.6221H38.7748C39.327 42.6221 39.7748 42.1744 39.7748 41.6221V41.2488C39.7354 40.1266 38.9723 39.189 37.9373 38.8894Z" fill="#FF9500"/>
<path d="M37.9373 38.8894L37.8242 38.6664C37.7326 38.7129 37.6788 38.8106 37.6884 38.9128C37.698 39.015 37.7692 39.1009 37.8678 39.1295L37.9373 38.8894ZM36.5146 38.8894L36.5841 39.1295C36.6827 39.1009 36.7538 39.0151 36.7635 38.9129C36.7731 38.8107 36.7194 38.713 36.6279 38.6665L36.5146 38.8894ZM34.6771 41.2488L34.4272 41.2402L34.4272 41.2458L34.6771 41.2488ZM39.7748 41.2488H40.0249L40.0246 41.2401L39.7748 41.2488ZM37.9373 38.8894L38.0504 39.1123C38.6425 38.8118 39.0485 38.1969 39.0485 37.4868H38.7985H38.5485C38.5485 38.0016 38.2547 38.4479 37.8242 38.6664L37.9373 38.8894ZM38.7985 37.4868H39.0485C39.0485 36.4807 38.233 35.6643 37.2259 35.6643V35.9143V36.1643C37.9567 36.1643 38.5485 36.7567 38.5485 37.4868H38.7985ZM37.2259 35.9143V35.6643C36.219 35.6643 35.4034 36.4798 35.4034 37.4868H35.6534H35.9034C35.9034 36.756 36.4951 36.1643 37.2259 36.1643V35.9143ZM35.6534 37.4868H35.4034C35.4034 38.1971 35.8103 38.8118 36.4013 39.1122L36.5146 38.8894L36.6279 38.6665C36.1978 38.4479 35.9034 38.0014 35.9034 37.4868H35.6534ZM36.5146 38.8894L36.4451 38.6492C35.3088 38.9782 34.4697 40.0074 34.4273 41.2402L34.6771 41.2488L34.927 41.2574C34.9618 40.2459 35.6505 39.3998 36.5841 39.1295L36.5146 38.8894ZM34.6771 41.2488L34.4272 41.2458L34.4227 41.6066L34.6727 41.6097L34.9227 41.6128L34.9271 41.2519L34.6771 41.2488ZM35.6726 42.6221V42.8721H38.7748V42.6221V42.3721H35.6726V42.6221ZM39.7748 41.6221H40.0248V41.2488H39.7748H39.5248V41.6221H39.7748ZM39.7748 41.2488L40.0246 41.2401C39.9813 40.0075 39.1433 38.9783 38.0068 38.6492L37.9373 38.8894L37.8678 39.1295C38.8013 39.3998 39.4894 40.2458 39.5249 41.2576L39.7748 41.2488ZM38.7748 42.6221V42.8721C39.4651 42.8721 40.0248 42.3124 40.0248 41.6221H39.7748H39.5248C39.5248 42.0363 39.189 42.3721 38.7748 42.3721V42.6221ZM34.6727 41.6097L34.4227 41.6066C34.4141 42.3029 34.9762 42.8721 35.6726 42.8721V42.6221V42.3721C35.2548 42.3721 34.9175 42.0306 34.9227 41.6128L34.6727 41.6097Z" fill="#1C1C1C"/>
<path d="M44.2281 21.5705C46.9381 21.5705 49.1274 23.8025 49.1275 26.5471C49.1275 29.2918 46.9381 31.5237 44.2281 31.5237C41.5181 31.5235 39.3287 29.2917 39.3287 26.5471C39.3288 23.8026 41.5182 21.5706 44.2281 21.5705Z" fill="#FFE2C8" stroke="#1C1C1C" stroke-width="0.5" stroke-miterlimit="10"/>
<path d="M44.9541 25.69C45.4654 25.4304 45.8153 24.8998 45.8153 24.2874C45.8153 23.4193 45.1117 22.7149 44.2428 22.7149C43.3739 22.7149 42.6703 23.4185 42.6703 24.2874C42.6703 24.8998 43.0209 25.4304 43.5314 25.69C42.4965 25.9896 41.7326 26.9272 41.694 28.0494L41.6895 28.4103C41.6826 28.9674 42.1323 29.4227 42.6895 29.4227H45.7916C46.3439 29.4227 46.7916 28.9749 46.7916 28.4227V28.0494C46.7522 26.9272 45.9891 25.9896 44.9541 25.69Z" fill="#FF9500"/>
<path d="M44.9541 25.69L44.841 25.467C44.7495 25.5135 44.6956 25.6112 44.7052 25.7134C44.7149 25.8156 44.786 25.9015 44.8846 25.9301L44.9541 25.69ZM43.5314 25.69L43.601 25.9301C43.6996 25.9015 43.7707 25.8156 43.7803 25.7135C43.79 25.6113 43.7362 25.5136 43.6447 25.4671L43.5314 25.69ZM41.694 28.0494L41.4441 28.0408L41.444 28.0464L41.694 28.0494ZM46.7916 28.0494H47.0418L47.0414 28.0407L46.7916 28.0494ZM44.9541 25.69L45.0673 25.9129C45.6594 25.6124 46.0653 24.9975 46.0653 24.2874H45.8153H45.5653C45.5653 24.8022 45.2715 25.2485 44.841 25.467L44.9541 25.69ZM45.8153 24.2874H46.0653C46.0653 23.2813 45.2498 22.4649 44.2428 22.4649V22.7149V22.9649C44.9736 22.9649 45.5653 23.5573 45.5653 24.2874H45.8153ZM44.2428 22.7149V22.4649C43.2358 22.4649 42.4203 23.2804 42.4203 24.2874H42.6703H42.9203C42.9203 23.5566 43.5119 22.9649 44.2428 22.9649V22.7149ZM42.6703 24.2874H42.4203C42.4203 24.9977 42.8272 25.6124 43.4182 25.9128L43.5314 25.69L43.6447 25.4671C43.2147 25.2485 42.9203 24.802 42.9203 24.2874H42.6703ZM43.5314 25.69L43.4619 25.4498C42.3256 25.7788 41.4866 26.808 41.4441 28.0408L41.694 28.0494L41.9438 28.058C41.9787 27.0465 42.6674 26.2004 43.601 25.9301L43.5314 25.69ZM41.694 28.0494L41.444 28.0464L41.4395 28.4072L41.6895 28.4103L41.9395 28.4134L41.944 28.0525L41.694 28.0494ZM42.6895 29.4227V29.6727H45.7916V29.4227V29.1727H42.6895V29.4227ZM46.7916 28.4227H47.0416V28.0494H46.7916H46.5416V28.4227H46.7916ZM46.7916 28.0494L47.0414 28.0407C46.9982 26.8081 46.1601 25.7789 45.0237 25.4498L44.9541 25.69L44.8846 25.9301C45.8181 26.2004 46.5062 27.0464 46.5418 28.0582L46.7916 28.0494ZM45.7916 29.4227V29.6727C46.482 29.6727 47.0416 29.113 47.0416 28.4227H46.7916H46.5416C46.5416 28.8369 46.2058 29.1727 45.7916 29.1727V29.4227ZM41.6895 28.4103L41.4395 28.4072C41.4309 29.1035 41.993 29.6727 42.6895 29.6727V29.4227V29.1727C42.2716 29.1727 41.9343 28.8312 41.9395 28.4134L41.6895 28.4103Z" fill="#1C1C1C"/>
<path d="M3.59497 26.8965V58.9978C3.59497 60.1024 4.4904 60.9978 5.59497 60.9978H56.1899C57.2945 60.9978 58.1899 60.1024 58.1899 58.9978V33.7961C58.1899 32.6916 57.2945 31.7961 56.1899 31.7961H31.007C30.7246 31.7961 30.4554 31.6767 30.2658 31.4674L24.6124 25.2253C24.4229 25.0159 24.1536 24.8965 23.8712 24.8965H5.59497C4.4904 24.8965 3.59497 25.792 3.59497 26.8965Z" fill="#FF9500" stroke="#1C1C1C" stroke-width="0.5" stroke-miterlimit="10"/>
<path d="M3.59497 22.4939V53.7146C3.59497 54.8192 4.4904 55.7146 5.59497 55.7146H56.1899C57.2945 55.7146 58.1899 54.8192 58.1899 53.7146V29.3935C58.1899 28.2889 57.2945 27.3935 56.1899 27.3935H31.945C31.5692 27.3935 31.2252 27.1828 31.0543 26.8481L28.0889 21.0392C27.918 20.7045 27.574 20.4939 27.1982 20.4939H5.59497C4.4904 20.4939 3.59497 21.3893 3.59497 22.4939Z" fill="#FFE2C8" stroke="#1C1C1C" stroke-width="0.5" stroke-miterlimit="10"/>
<path d="M19.8275 47.3433H15.9099V37.1614H19.7877C20.8351 37.1614 21.7399 37.3653 22.5022 37.7729C23.2678 38.1773 23.8578 38.7606 24.2721 39.5229C24.6897 40.2819 24.8985 41.1917 24.8985 42.2524C24.8985 43.313 24.6914 44.2244 24.2771 44.9867C23.8628 45.7457 23.2761 46.3291 22.5171 46.7367C21.7581 47.1411 20.8616 47.3433 19.8275 47.3433ZM18.6741 44.9967H19.728C20.2318 44.9967 20.6611 44.9155 21.0157 44.7531C21.3736 44.5907 21.6454 44.3106 21.831 43.9129C22.02 43.5151 22.1144 42.9616 22.1144 42.2524C22.1144 41.5431 22.0183 40.9896 21.8261 40.5918C21.6371 40.1941 21.3587 39.914 20.9908 39.7516C20.6262 39.5892 20.1788 39.508 19.6485 39.508H18.6741V44.9967ZM26.1774 47.3433V37.1614H33.5155V39.3887H28.9416V41.1387H33.1377V43.366H28.9416V45.116H33.4956V47.3433H26.1774ZM34.8864 47.3433V37.1614H42.0455V39.3887H37.6506V41.1387H41.608V43.366H37.6506V47.3433H34.8864ZM45.8264 37.1614V47.3433H43.0622V37.1614H45.8264Z" fill="#1C1C1C"/>
</g>
<defs>
<clipPath id="clip0_18011_5900">
<rect width="62" height="62" rx="5" fill="white"/>
</clipPath>
</defs>
</svg>
