<svg width="102" height="102" viewBox="0 0 102 102" fill="none" xmlns="http://www.w3.org/2000/svg">
<rect x="0.5" y="0.5" width="101" height="101" rx="4.5" stroke="#8A38F5" stroke-dasharray="10 5"/>
<path d="M79.6872 48.3433C66.3518 48.5726 53.0255 48.5451 39.6901 48.3433C39.3048 40.2999 39.2865 36.2827 39.5708 28.2393C52.9796 28.0834 66.3884 28.065 79.7972 28.2393C80.0816 36.2827 80.0724 40.2999 79.678 48.3433H79.6872Z" fill="#2AA5A5" stroke="#1C1C1C" stroke-width="0.5" stroke-linejoin="round"/>
<path d="M79.7969 45.6285C66.3881 45.8028 52.9793 45.7844 39.5705 45.6285C39.2862 37.5851 39.2953 33.5679 39.6897 25.5245C53.0251 25.3227 66.3514 25.2952 79.6868 25.5245C80.072 33.5679 80.0904 37.5851 79.8061 45.6285H79.7969Z" fill="#B9E5DE" stroke="#1C1C1C" stroke-width="0.5" stroke-linejoin="round"/>
<path d="M73.1199 43.2073C64.1685 43.244 55.2171 43.244 46.2656 43.2073C46.2289 41.4097 44.7523 39.9422 42.9455 39.9331C42.9088 36.4387 42.918 34.6961 42.9822 31.2109C44.789 31.2109 46.2748 29.7343 46.3207 27.9367C55.2354 27.8908 64.1502 27.8908 73.0649 27.9367C73.1016 29.7343 74.5966 31.2109 76.4034 31.2109C76.4676 34.7053 76.4767 36.4479 76.44 39.9331C74.6332 39.9331 73.1566 41.4005 73.1199 43.2073Z" fill="#2AA5A5" stroke="#1C1C1C" stroke-width="0.5" stroke-linejoin="round"/>
<path d="M59.6657 43.088C63.7745 43.088 67.1038 39.7588 67.1038 35.6499C67.1038 31.5411 63.7745 28.2118 59.6657 28.2118C55.5568 28.2118 52.2275 31.5411 52.2275 35.6499C52.2275 39.7588 55.5568 43.088 59.6657 43.088Z" fill="#B9E5DE" stroke="#1C1C1C" stroke-width="0.5" stroke-linejoin="round"/>
<path d="M63.1597 33.568C63.2515 34.4301 62.8938 34.9529 62.3526 35.2464C63.2606 35.4757 63.8293 36.0443 63.71 37.31C63.5725 38.8875 62.4535 39.3094 60.8669 39.4103V40.5842C60.8669 40.8502 60.6559 41.0612 60.3899 41.0612C60.124 41.0612 59.913 40.8502 59.913 40.5842V39.4286C59.6654 39.4286 59.4086 39.4286 59.1609 39.4195V40.5842C59.1609 40.8502 58.95 41.0612 58.684 41.0612C58.4181 41.0612 58.2071 40.8502 58.2071 40.5842V39.4103C57.987 39.4103 57.7669 39.4011 57.5284 39.4011H56.9873C56.6204 39.4011 56.3453 39.0709 56.4095 38.7133C56.4553 38.4289 56.7121 38.218 56.9965 38.218C57.1799 38.218 57.1799 38.218 57.1799 38.218C57.4459 38.218 57.5101 38.0162 57.5376 37.8786V33.3938C57.5009 33.192 57.3725 32.9535 56.9873 32.9535H56.8405C56.5471 32.9535 56.3086 32.7151 56.3086 32.4216C56.3086 32.1281 56.5471 31.8988 56.8314 31.8988H58.2254V30.734C58.2254 30.468 58.4364 30.2571 58.7024 30.2571C58.9683 30.2571 59.1793 30.468 59.1793 30.734V31.8621C59.4361 31.8621 59.6746 31.8529 59.9314 31.8529V30.734C59.9314 30.468 60.1423 30.2571 60.4083 30.2571C60.6743 30.2571 60.8852 30.468 60.8852 30.734V31.8988C62.105 31.9997 63.0772 32.4032 63.1781 33.5864L63.1597 33.568ZM61.8207 37.1082C61.8207 35.8242 59.803 36.0076 59.1609 36.0076V38.1996C59.803 38.1996 61.8207 38.3464 61.8207 37.0991V37.1082ZM61.3896 34.0266C61.3896 32.8526 59.7021 33.0269 59.1609 33.0269V35.0171C59.7021 35.0171 61.3896 35.1455 61.3896 34.0266Z" fill="#1C1C1C"/>
<path d="M26.6198 46.9675C26.8124 44.8856 28.4816 43.2531 30.5727 43.0788C41.9913 42.1066 53.4007 42.1066 64.8193 43.0788C66.9104 43.2531 68.5705 44.8764 68.7906 46.9584C69.6619 55.5246 69.6619 64.0908 68.7906 72.6662C68.5705 74.7482 66.9104 76.3715 64.8193 76.5458C53.4374 77.5272 42.0555 77.5272 30.6644 76.5458C28.5366 76.3624 26.8582 74.684 26.6748 72.5562C25.9227 63.7056 25.8402 55.1486 26.6198 46.9675Z" fill="#FFE2C8" stroke="#1C1C1C" stroke-width="0.5" stroke-linejoin="round"/>
<path d="M26.62 43.6658C26.8126 41.5839 28.4819 39.9514 30.573 39.7771C41.9916 38.8049 53.401 38.8049 64.8195 39.7771C66.9107 39.9514 68.5707 41.5747 68.7908 43.6567C69.6621 52.2229 69.6621 60.7891 68.7908 69.3645C68.5707 71.4465 66.9107 73.0698 64.8195 73.2441C53.4376 74.2255 42.0558 74.2255 30.6647 73.2441C28.5369 73.0607 26.8585 71.3823 26.6751 69.2545C25.923 60.4039 25.8404 51.8469 26.62 43.6658Z" fill="#FF9500" stroke="#1C1C1C" stroke-width="0.5" stroke-miterlimit="10"/>
<path d="M50.5028 57.4873C50.5945 53.4702 54.0155 50.2785 58.0326 50.2051C62.114 50.1317 66.1495 50.3244 70.3776 50.7371C70.9462 54.7084 70.7719 58.9364 70.6435 64.311C70.6344 64.8796 70.185 65.3565 69.6255 65.4024C65.8376 65.7326 62.1323 65.8518 58.4087 65.7601C53.9972 65.65 50.4019 61.9172 50.5028 57.4873Z" fill="#FFE2C8" stroke="#1C1C1C" stroke-width="0.5" stroke-linejoin="round"/>
<path d="M50.5025 54.8277C50.5942 50.8013 54.0243 47.628 58.0415 47.5179C61.8935 47.417 65.7364 47.5179 69.5793 47.8573C70.2121 47.9123 70.7166 48.4351 70.7533 49.0771C71.0467 54.3966 71.0376 56.1208 70.8175 62.6602C66.7086 63.0637 62.5447 63.2105 58.39 63.1096C53.9693 62.9995 50.3924 59.2667 50.4933 54.8277H50.5025Z" fill="#FF9500" stroke="#1C1C1C" stroke-width="0.5" stroke-miterlimit="10"/>
<path d="M57.7386 58.322C59.7343 58.322 61.3522 56.7041 61.3522 54.7084C61.3522 52.7126 59.7343 51.0948 57.7386 51.0948C55.7429 51.0948 54.125 52.7126 54.125 54.7084C54.125 56.7041 55.7429 58.322 57.7386 58.322Z" fill="white" stroke="#1C1C1C" stroke-width="0.5" stroke-linejoin="round"/>
<path d="M29.0045 38.3005C29.8574 38.6123 30.5453 38.8691 31.224 39.1259C32.187 39.4836 32.187 40.841 31.224 41.1987C30.5361 41.4555 29.8483 41.7123 29.0045 42.0241C28.7018 42.1342 28.4542 42.3818 28.3349 42.6845C28.0231 43.5374 27.7663 44.2253 27.5095 44.904C27.1518 45.867 25.7944 45.867 25.4367 44.904C25.1799 44.2161 24.9231 43.5282 24.6113 42.6845C24.5012 42.3818 24.2536 42.1342 23.9418 42.0149C23.0888 41.7031 22.401 41.4463 21.7223 41.1895C20.7592 40.8318 20.7592 39.4744 21.7223 39.1167C22.4101 38.8599 23.098 38.6031 23.9418 38.2913C24.2444 38.1812 24.4921 37.9336 24.6021 37.6218C24.914 36.7688 25.1708 36.0809 25.4276 35.4023C25.7853 34.4392 27.1426 34.4392 27.5003 35.4023C27.7571 36.0901 28.0139 36.778 28.3258 37.6218C28.4358 37.9244 28.6835 38.1721 28.9861 38.2913L29.0045 38.3005Z" fill="white" stroke="#1C1C1C" stroke-width="0.5" stroke-linejoin="round"/>
<path d="M45.2841 53.0024C45.119 54.6166 44.2752 55.4512 43.1655 55.7814C44.743 56.5518 45.5776 57.79 44.8897 60.0829C44.0276 62.9169 41.8356 63.2929 38.864 62.8527L38.4146 65.0171C38.3137 65.5032 37.846 65.8151 37.3599 65.7142C36.8738 65.6133 36.5619 65.1455 36.6628 64.6595L37.1031 62.5408C36.6537 62.4491 36.1859 62.3482 35.7273 62.2382L35.2871 64.3751C35.1862 64.8612 34.7185 65.1731 34.2324 65.0722C33.7463 64.9713 33.4344 64.5035 33.5353 64.0174L33.9847 61.853C33.572 61.7704 33.1776 61.6604 32.7466 61.5778L31.7469 61.376C31.0774 61.2385 30.6921 60.5323 30.9398 59.8902C31.1416 59.3766 31.6827 59.0923 32.2146 59.2024C32.554 59.2758 32.5448 59.2574 32.5448 59.2574C33.0309 59.3583 33.2327 59.019 33.3244 58.7713L34.3149 53.9746L35.0211 50.5261C35.0395 50.1501 34.8835 49.6548 34.1682 49.5081C34.1682 49.5081 34.1773 49.5081 33.893 49.4439C33.3519 49.3338 33.0034 48.811 33.1134 48.2699C33.2235 47.7288 33.7463 47.3894 34.2782 47.4995L35.7365 47.8021L36.8371 48.0314L37.2773 45.8945C37.3782 45.4084 37.846 45.0965 38.3321 45.1974C38.8181 45.2983 39.13 45.7661 39.0291 46.2522L38.598 48.3249C39.0658 48.4166 39.5152 48.49 39.9829 48.5909L40.4048 46.5365C40.5057 46.0504 40.9735 45.7385 41.4595 45.8394C41.9456 45.9403 42.2575 46.4081 42.1566 46.8942L41.7164 49.0311C43.9175 49.6823 45.5592 50.7829 45.2933 53.0024H45.2841ZM41.4962 59.0006C41.9823 56.6435 38.2036 56.2308 37.0205 55.9832L36.1951 60.0095C37.3782 60.2571 41.0193 61.2935 41.4962 59.0006ZM41.8723 53.1675C42.3217 51.003 39.1575 50.6912 38.1578 50.4894L37.4057 54.1489C38.4054 54.3506 41.4504 55.2311 41.8723 53.1767V53.1675Z" fill="white"/>
</svg>
