<svg width="102" height="102" viewBox="0 0 102 102" fill="none" xmlns="http://www.w3.org/2000/svg">
<rect x="0.5" y="0.5" width="101" height="101" rx="4.5" stroke="#9747FF" stroke-dasharray="10 5"/>
<path d="M54.7911 69.2215C54.7911 76.0615 49.1611 81.6015 42.2311 81.6015C35.3011 81.6015 29.1711 75.6015 29.1711 68.7615C28.5011 57.2215 35.2911 56.8315 42.2311 56.8315C49.1711 56.8315 55.1711 57.4315 54.7911 69.2115V69.2215Z" fill="#FF9500" stroke="#1C1C1C" stroke-width="0.5" stroke-linejoin="round"/>
<path d="M41.9311 78.2915C49.0111 78.2915 54.7411 72.4615 54.7411 65.2715C54.7411 58.0815 49.0011 52.2515 41.9311 52.2515C34.8611 52.2515 29.1211 58.0815 29.1211 65.2715C29.1211 72.4615 34.8611 78.2915 41.9311 78.2915Z" fill="#FFE2C8" stroke="#1C1C1C" stroke-width="0.5" stroke-linejoin="round"/>
<path d="M41.9611 75.3615C47.5311 75.3615 52.0511 70.8415 52.0511 65.2715C52.0511 59.7015 47.5311 55.1815 41.9611 55.1815C36.3911 55.1815 31.8711 59.7015 31.8711 65.2715C31.8711 70.8415 36.3911 75.3615 41.9611 75.3615Z" fill="#FF9500" stroke="#1C1C1C" stroke-width="0.5" stroke-linejoin="round"/>
<path d="M46.411 62.2715C46.531 63.4415 46.051 64.1515 45.311 64.5515C46.541 64.8715 47.311 65.6215 47.161 67.3515C46.961 69.4815 45.461 70.0715 43.301 70.1915V71.7915C43.301 72.1515 43.011 72.4415 42.651 72.4415C42.291 72.4415 42.001 72.1515 42.001 71.7915V70.2215C41.671 70.2215 41.321 70.2215 40.981 70.2015V71.7815C40.981 72.1415 40.691 72.4315 40.331 72.4315C39.971 72.4315 39.681 72.1415 39.681 71.7815V70.1815C39.381 70.1815 39.081 70.1615 38.761 70.1615H38.021C37.531 70.1615 37.151 69.7215 37.231 69.2315C37.301 68.8415 37.641 68.5615 38.031 68.5615C38.281 68.5615 38.271 68.5615 38.271 68.5615C38.631 68.5615 38.721 68.2915 38.751 68.1015V64.5615V62.0215C38.711 61.7515 38.521 61.4215 38.001 61.4215C38.001 61.4215 38.001 61.4215 37.791 61.4215C37.391 61.4215 37.061 61.1015 37.061 60.7015C37.061 60.3015 37.381 59.9915 37.771 59.9915H39.661V58.4115C39.661 58.0515 39.951 57.7615 40.311 57.7615C40.671 57.7615 40.961 58.0515 40.961 58.4115V59.9415C41.311 59.9415 41.641 59.9215 41.981 59.9215V58.4015C41.981 58.0415 42.271 57.7515 42.631 57.7515C42.991 57.7515 43.281 58.0415 43.281 58.4015V59.9815C44.931 60.1215 46.261 60.6615 46.391 62.2715H46.411ZM44.601 67.0715C44.601 65.3315 41.861 65.5815 40.991 65.5815V68.5515C41.861 68.5515 44.601 68.7615 44.601 67.0615V67.0715ZM44.021 62.8915C44.021 61.2915 41.731 61.5315 41.001 61.5315V64.2315C41.741 64.2315 44.021 64.4015 44.021 62.8915Z" fill="white"/>
<path d="M49.05 22.4915V75.4115C49.05 75.6215 49.05 75.8315 49.05 76.0515C49.07 78.4915 50.67 80.6415 53 81.3715C55.48 82.1415 58.3501 80.9515 59.5201 78.6315C59.9601 77.7515 60.15 76.8315 60.15 75.8515V72.4615C60.15 71.6815 59.46 70.9315 58.66 70.9715C57.86 71.0115 57.17 71.6315 57.17 72.4615V75.8415C57.17 76.0715 57.15 76.3015 57.14 76.5315C57.14 76.1015 57.15 76.4415 57.12 76.5815C57.09 76.7015 57.06 76.8115 57.03 76.9215C57.01 76.9915 56.97 77.0615 56.96 77.1315C56.91 77.3115 57.1 76.8515 57.01 77.0215C56.94 77.1515 56.88 77.2815 56.81 77.4115C56.75 77.5115 56.68 77.6015 56.62 77.7015C56.52 77.8615 56.83 77.4715 56.69 77.6015C56.64 77.6515 56.6 77.7115 56.55 77.7615C56.47 77.8415 56.39 77.9315 56.31 78.0015C56.27 78.0415 56.22 78.0815 56.18 78.1115C55.98 78.3015 56.46 77.9315 56.21 78.0915C56.01 78.2215 55.82 78.3315 55.61 78.4415C55.4 78.5515 55.7 78.3915 55.72 78.3915C55.68 78.3915 55.6 78.4415 55.55 78.4515C55.41 78.5015 55.27 78.5415 55.12 78.5715C55.06 78.5815 55 78.5915 54.94 78.6115C54.7 78.6715 55.04 78.6015 55.07 78.6015C54.93 78.6015 54.79 78.6215 54.66 78.6315C54.57 78.6315 54.47 78.6315 54.38 78.6315C54.32 78.6315 54.21 78.6015 54.15 78.6115C54.24 78.5815 54.49 78.6715 54.23 78.6115C54.11 78.5915 54 78.5615 53.88 78.5315C53.78 78.5015 53.61 78.4015 53.5 78.4015C53.53 78.4015 53.83 78.5615 53.61 78.4515C53.56 78.4215 53.51 78.4015 53.45 78.3715C53.32 78.3015 53.2 78.2315 53.08 78.1515C53.04 78.1315 52.97 78.0615 52.94 78.0515C52.97 78.0515 53.22 78.2915 53.04 78.1215C52.95 78.0415 52.87 77.9715 52.79 77.8915C52.71 77.8115 52.63 77.7215 52.56 77.6415C52.36 77.4215 52.71 77.8715 52.61 77.7015C52.57 77.6415 52.53 77.5815 52.49 77.5215C52.43 77.4215 52.37 77.3215 52.31 77.2215C52.28 77.1615 52.25 77.0915 52.21 77.0215C52.11 76.8615 52.31 77.3115 52.26 77.1315C52.18 76.8715 52.1 76.6215 52.05 76.3615C52.01 76.1715 52.08 76.6815 52.07 76.4915C52.07 76.4115 52.06 76.3415 52.05 76.2615C52.05 76.2015 52.05 76.1415 52.05 76.0715C52.05 76.0715 52.05 76.0715 52.05 76.0615C52.05 76.0415 52.05 76.0115 52.05 75.9915C52.05 75.8815 52.05 75.7715 52.05 75.6515V25.4715C52.05 24.5215 52.06 23.5715 52.05 22.6115C52.05 22.5715 52.05 22.5315 52.05 22.4915C52.05 21.7115 51.36 20.9615 50.56 21.0015C49.76 21.0415 49.07 21.6615 49.07 22.4915H49.05Z" fill="#CCD9FD" stroke="#1C1C1C" stroke-width="0.5" stroke-linejoin="round"/>
<path d="M73.03 44.7715V48.4715H72.65C70.88 46.8715 68.23 45.8515 65.27 45.8515C62.31 45.8515 59.67 46.8815 57.9 48.4715H57.89H57.88C56.11 46.8715 53.47 45.8515 50.51 45.8515C47.55 45.8515 44.91 46.8715 43.15 48.4715C43.15 48.4715 43.1433 48.4782 43.13 48.4915C43.13 48.4915 43.12 48.4915 43.11 48.4715C41.34 46.8715 38.7 45.8515 35.74 45.8515C32.78 45.8515 30.14 46.8715 28.37 48.4715H28V44.7715C28 34.4415 37.01 26.0715 50.51 26.0715C57.27 26.0715 62.36 28.1615 66.78 31.5415C71.21 34.9315 73.03 39.6015 73.03 44.7615V44.7715Z" fill="#4169E1" stroke="#1C1C1C" stroke-width="0.5" stroke-linejoin="round"/>
<path d="M43.1101 50.2515H43.1501C43.1501 50.2515 43.1401 50.2515 43.1301 50.2715C43.1301 50.2715 43.1234 50.2649 43.1101 50.2515Z" fill="#C5C2CC"/>
<path d="M57.8999 50.2515L57.8899 50.2615L57.8799 50.2515H57.8999Z" fill="#C5C2CC"/>
<path d="M50.51 26.0715C50.51 26.0715 40.71 28.1615 43.15 48.4615" stroke="#1C1C1C" stroke-width="0.5" stroke-linejoin="round"/>
<path d="M50.8101 26.0715C50.8101 26.0715 60.4901 27.9615 58.1701 48.4615" stroke="#1C1C1C" stroke-width="0.5" stroke-linejoin="round"/>
</svg>
