<svg width="102" height="102" viewBox="0 0 102 102" fill="none" xmlns="http://www.w3.org/2000/svg">
<rect x="0.5" y="0.5" width="101" height="101" rx="4.5" stroke="#8A38F5" stroke-dasharray="10 5"/>
<path d="M46.4498 28.6476H57.0349" stroke="#1C1C1C" stroke-width="0.5" stroke-miterlimit="10"/>
<path d="M48.3571 31.65C48.3571 35.557 45.1444 38.7249 41.1817 38.7249C37.219 38.7249 33.7218 35.2956 33.7218 31.3886C33.3365 24.7974 37.219 24.5762 41.1817 24.5762C45.1444 24.5762 48.5747 24.919 48.3571 31.6512V31.65Z" fill="#FF9500" stroke="#1C1C1C" stroke-width="0.5" stroke-miterlimit="10"/>
<path d="M41.0132 35.8782C45.0549 35.8782 48.3309 32.5473 48.3309 28.4385C48.3309 24.3296 45.0549 21 41.0132 21C36.9715 21 33.6956 24.3308 33.6956 28.4397C33.6956 32.5485 36.9715 35.8794 41.0132 35.8794V35.8782Z" fill="#FFE2C8" stroke="#1C1C1C" stroke-width="0.5" stroke-miterlimit="10"/>
<path d="M42.1494 27.0964C42.9541 26.688 43.5048 25.8528 43.5048 24.8889C43.5048 23.5225 42.3974 22.4138 41.0299 22.4138C39.6624 22.4138 38.555 23.5213 38.555 24.8889C38.555 25.8528 39.1069 26.688 39.9104 27.0964C38.2815 27.5681 37.0793 29.0439 37.0186 30.8102L37.0043 31.9592C36.9975 32.5163 37.4471 32.9716 38.0043 32.9716H44.0412C44.5935 32.9716 45.0412 32.5239 45.0412 31.9716V30.8102C44.9792 29.0439 43.7783 27.5681 42.1494 27.0964Z" fill="#FF9500"/>
<path d="M42.1494 27.0964L42.0363 26.8735C41.9447 26.92 41.8909 27.0177 41.9005 27.1199C41.9102 27.2221 41.9813 27.308 42.0799 27.3366L42.1494 27.0964ZM39.9104 27.0964L39.9799 27.3366C40.0785 27.308 40.1496 27.2221 40.1593 27.12C40.1689 27.0178 40.1151 26.9201 40.0237 26.8736L39.9104 27.0964ZM37.0186 30.8102L36.7687 30.8016L36.7686 30.8071L37.0186 30.8102ZM45.0412 30.8102H45.2914L45.2911 30.8014L45.0412 30.8102ZM42.1494 27.0964L42.2626 27.3194C43.148 26.8699 43.7548 25.9505 43.7548 24.8889H43.5048H43.2548C43.2548 25.7552 42.7602 26.5061 42.0363 26.8735L42.1494 27.0964ZM43.5048 24.8889H43.7548C43.7548 23.3845 42.5356 22.1638 41.0299 22.1638V22.4138V22.6638C42.2592 22.6638 43.2548 23.6605 43.2548 24.8889H43.5048ZM41.0299 22.4138V22.1638C39.5243 22.1638 38.305 23.3832 38.305 24.8889H38.555H38.805C38.805 23.6593 39.8005 22.6638 41.0299 22.6638V22.4138ZM38.555 24.8889H38.305C38.305 25.9507 38.9131 26.8699 39.7971 27.3193L39.9104 27.0964L40.0237 26.8736C39.3007 26.506 38.805 25.755 38.805 24.8889H38.555ZM39.9104 27.0964L39.8408 26.8563C38.1106 27.3573 36.8333 28.9247 36.7687 30.8016L37.0186 30.8102L37.2684 30.8188C37.3254 29.1631 38.4524 27.7789 39.9799 27.3366L39.9104 27.0964ZM37.0186 30.8102L36.7686 30.8071L36.7544 31.9561L37.0043 31.9592L37.2543 31.9623L37.2685 30.8133L37.0186 30.8102ZM38.0043 32.9716V33.2216H44.0412V32.9716V32.7216H38.0043V32.9716ZM45.0412 31.9716H45.2912V30.8102H45.0412H44.7912V31.9716H45.0412ZM45.0412 30.8102L45.2911 30.8014C45.2252 28.9248 43.9493 27.3574 42.219 26.8563L42.1494 27.0964L42.0799 27.3366C43.6072 27.7789 44.7333 29.163 44.7914 30.819L45.0412 30.8102ZM44.0412 32.9716V33.2216C44.7316 33.2216 45.2912 32.662 45.2912 31.9716H45.0412H44.7912C44.7912 32.3858 44.4554 32.7216 44.0412 32.7216V32.9716ZM37.0043 31.9592L36.7544 31.9561C36.7458 32.6525 37.3079 33.2216 38.0043 33.2216V32.9716V32.7216C37.5864 32.7216 37.2492 32.3801 37.2543 31.9623L37.0043 31.9592Z" fill="#1C1C1C"/>
<path d="M69.7905 31.65C69.7905 35.557 66.5777 38.7249 62.615 38.7249C58.6523 38.7249 55.1552 35.2956 55.1552 31.3886C54.7698 24.7974 58.6523 24.5762 62.615 24.5762C66.5777 24.5762 70.008 24.919 69.7905 31.6512V31.65Z" fill="#FF9500" stroke="#1C1C1C" stroke-width="0.5" stroke-miterlimit="10"/>
<path d="M62.4464 35.8782C66.4882 35.8782 69.7641 32.5473 69.7641 28.4385C69.7641 24.3296 66.4882 21 62.4464 21C58.4047 21 55.1288 24.3308 55.1288 28.4397C55.1288 32.5485 58.4047 35.8794 62.4464 35.8794V35.8782Z" fill="#FFE2C8" stroke="#1C1C1C" stroke-width="0.5" stroke-miterlimit="10"/>
<path d="M63.5825 27.0964C64.3872 26.688 64.9379 25.8528 64.9379 24.8889C64.9379 23.5225 63.8305 22.4138 62.463 22.4138C61.0955 22.4138 59.9881 23.5213 59.9881 24.8889C59.9881 25.8528 60.54 26.688 61.3435 27.0964C59.7146 27.5681 58.5124 29.0439 58.4517 30.8102L58.4375 31.9592C58.4306 32.5163 58.8803 32.9716 59.4374 32.9716H65.4743C66.0266 32.9716 66.4743 32.5239 66.4743 31.9716V30.8102C66.4123 29.0439 65.2114 27.5681 63.5825 27.0964Z" fill="#FF9500"/>
<path d="M63.5825 27.0964L63.4694 26.8735C63.3778 26.92 63.324 27.0177 63.3336 27.1199C63.3433 27.2221 63.4144 27.308 63.513 27.3366L63.5825 27.0964ZM61.3435 27.0964L61.413 27.3366C61.5116 27.308 61.5827 27.2221 61.5924 27.12C61.602 27.0178 61.5483 26.9201 61.4568 26.8736L61.3435 27.0964ZM58.4517 30.8102L58.2018 30.8016L58.2017 30.8071L58.4517 30.8102ZM66.4743 30.8102H66.7245L66.7242 30.8014L66.4743 30.8102ZM63.5825 27.0964L63.6957 27.3194C64.5812 26.8699 65.1879 25.9505 65.1879 24.8889H64.9379H64.6879C64.6879 25.7552 64.1933 26.5061 63.4694 26.8735L63.5825 27.0964ZM64.9379 24.8889H65.1879C65.1879 23.3845 63.9687 22.1638 62.463 22.1638V22.4138V22.6638C63.6923 22.6638 64.6879 23.6605 64.6879 24.8889H64.9379ZM62.463 22.4138V22.1638C60.9574 22.1638 59.7381 23.3832 59.7381 24.8889H59.9881H60.2381C60.2381 23.6593 61.2336 22.6638 62.463 22.6638V22.4138ZM59.9881 24.8889H59.7381C59.7381 25.9507 60.3462 26.8699 61.2302 27.3193L61.3435 27.0964L61.4568 26.8736C60.7338 26.506 60.2381 25.755 60.2381 24.8889H59.9881ZM61.3435 27.0964L61.2739 26.8563C59.5437 27.3573 58.2664 28.9247 58.2018 30.8016L58.4517 30.8102L58.7015 30.8188C58.7585 29.1631 59.8855 27.7789 61.413 27.3366L61.3435 27.0964ZM58.4517 30.8102L58.2017 30.8071L58.1875 31.9561L58.4375 31.9592L58.6874 31.9623L58.7017 30.8133L58.4517 30.8102ZM59.4374 32.9716V33.2216H65.4743V32.9716V32.7216H59.4374V32.9716ZM66.4743 31.9716H66.7243V30.8102H66.4743H66.2243V31.9716H66.4743ZM66.4743 30.8102L66.7242 30.8014C66.6583 28.9248 65.3824 27.3574 63.6521 26.8563L63.5825 27.0964L63.513 27.3366C65.0403 27.7789 66.1664 29.163 66.2245 30.819L66.4743 30.8102ZM65.4743 32.9716V33.2216C66.1647 33.2216 66.7243 32.662 66.7243 31.9716H66.4743H66.2243C66.2243 32.3858 65.8886 32.7216 65.4743 32.7216V32.9716ZM58.4375 31.9592L58.1875 31.9561C58.1789 32.6525 58.741 33.2216 59.4374 33.2216V32.9716V32.7216C59.0195 32.7216 58.6823 32.3801 58.6874 31.9623L58.4375 31.9592Z" fill="#1C1C1C"/>
<path d="M46.4498 71.6673H57.0349" stroke="#1C1C1C" stroke-width="0.5" stroke-miterlimit="10"/>
<path d="M44.6508 38.1929L58.9763 65.8907" stroke="#1C1C1C" stroke-width="0.5" stroke-miterlimit="10"/>
<path d="M58.9771 38.1929L44.6515 65.8907" stroke="#1C1C1C" stroke-width="0.5" stroke-miterlimit="10"/>
<path d="M36.637 51.8245H66.1519" stroke="#1C1C1C" stroke-width="0.5" stroke-miterlimit="10"/>
<path d="M67.0966 37.2363L72.0967 43.5706" stroke="#1C1C1C" stroke-width="0.5" stroke-miterlimit="10"/>
<path d="M67.0966 64.583L72.0967 58.2488" stroke="#1C1C1C" stroke-width="0.5" stroke-miterlimit="10"/>
<path d="M36.7581 37.2363L31.7579 43.5706" stroke="#1C1C1C" stroke-width="0.5" stroke-miterlimit="10"/>
<path d="M36.7581 64.583L31.7579 58.2488" stroke="#1C1C1C" stroke-width="0.5" stroke-miterlimit="10"/>
<path d="M36.662 53.1371C36.662 57.0442 33.4493 60.2121 29.4866 60.2121C25.5239 60.2121 22.0267 56.7828 22.0267 52.8758C21.6414 46.2846 25.5239 46.0634 29.4866 46.0634C33.4493 46.0634 36.8796 46.4062 36.662 53.1383V53.1371Z" fill="#FF9500" stroke="#1C1C1C" stroke-width="0.5" stroke-miterlimit="10"/>
<path d="M29.3178 57.3666C33.3595 57.3666 36.6354 54.0357 36.6354 49.9269C36.6354 45.818 33.3595 42.4872 29.3178 42.4872C25.276 42.4872 22.0001 45.8192 22.0001 49.9269C22.0001 54.0345 25.276 57.3666 29.3178 57.3666Z" fill="#FFE2C8" stroke="#1C1C1C" stroke-width="0.5" stroke-miterlimit="10"/>
<path d="M30.454 48.5875C31.2587 48.179 31.8093 47.3439 31.8093 46.3799C31.8093 45.0135 30.702 43.9048 29.3345 43.9048C27.967 43.9048 26.8596 45.0123 26.8596 46.3799C26.8596 47.3439 27.4115 48.179 28.2149 48.5875C26.5861 49.0591 25.3839 50.5349 25.3231 52.3012L25.3089 53.4503C25.302 54.0073 25.7517 54.4626 26.3088 54.4626H32.3458C32.8981 54.4626 33.3458 54.0149 33.3458 53.4626V52.3012C33.2838 50.5349 32.0828 49.0591 30.454 48.5875Z" fill="#FF9500"/>
<path d="M30.454 48.5875L30.3408 48.3645C30.2493 48.411 30.1955 48.5087 30.2051 48.6109C30.2147 48.7131 30.2859 48.7991 30.3845 48.8276L30.454 48.5875ZM28.2149 48.5875L28.2845 48.8276C28.3831 48.7991 28.4542 48.7132 28.4638 48.611C28.4735 48.5088 28.4197 48.4111 28.3282 48.3646L28.2149 48.5875ZM25.3231 52.3012L25.0732 52.2926L25.0731 52.2981L25.3231 52.3012ZM33.3458 52.3012H33.596L33.5956 52.2925L33.3458 52.3012ZM30.454 48.5875L30.5671 48.8104C31.4526 48.3609 32.0593 47.4415 32.0593 46.3799H31.8093H31.5593C31.5593 47.2462 31.0648 47.9971 30.3408 48.3645L30.454 48.5875ZM31.8093 46.3799H32.0593C32.0593 44.8755 30.8401 43.6548 29.3345 43.6548V43.9048V44.1548C30.5638 44.1548 31.5593 45.1515 31.5593 46.3799H31.8093ZM29.3345 43.9048V43.6548C27.8289 43.6548 26.6096 44.8742 26.6096 46.3799H26.8596H27.1096C27.1096 45.1503 28.1051 44.1548 29.3345 44.1548V43.9048ZM26.8596 46.3799H26.6096C26.6096 47.4417 27.2177 48.361 28.1016 48.8103L28.2149 48.5875L28.3282 48.3646C27.6052 47.9971 27.1096 47.246 27.1096 46.3799H26.8596ZM28.2149 48.5875L28.1454 48.3473C26.4152 48.8484 25.1379 50.4157 25.0733 52.2926L25.3231 52.3012L25.573 52.3098C25.63 50.6541 26.757 49.2699 28.2845 48.8276L28.2149 48.5875ZM25.3231 52.3012L25.0731 52.2981L25.0589 53.4472L25.3089 53.4503L25.5589 53.4534L25.5731 52.3043L25.3231 52.3012ZM26.3088 54.4626V54.7126H32.3458V54.4626V54.2126H26.3088V54.4626ZM33.3458 53.4626H33.5958V52.3012H33.3458H33.0958V53.4626H33.3458ZM33.3458 52.3012L33.5956 52.2925C33.5298 50.4158 32.2539 48.8484 30.5235 48.3473L30.454 48.5875L30.3845 48.8276C31.9118 49.2699 33.0378 50.654 33.096 52.31L33.3458 52.3012ZM32.3458 54.4626V54.7126C33.0362 54.7126 33.5958 54.153 33.5958 53.4626H33.3458H33.0958C33.0958 53.8768 32.76 54.2126 32.3458 54.2126V54.4626ZM25.3089 53.4503L25.0589 53.4472C25.0503 54.1435 25.6124 54.7126 26.3088 54.7126V54.4626V54.2126C25.891 54.2126 25.5537 53.8712 25.5589 53.4534L25.3089 53.4503Z" fill="#1C1C1C"/>
<path d="M48.3571 73.9251C48.3571 77.8321 45.1444 81.0001 41.1817 81.0001C37.219 81.0001 33.7218 77.5708 33.7218 73.6637C33.3365 67.0726 37.219 66.8513 41.1817 66.8513C45.1444 66.8513 48.5747 67.1941 48.3571 73.9263V73.9251Z" fill="#FF9500" stroke="#1C1C1C" stroke-width="0.5" stroke-miterlimit="10"/>
<path d="M41.0131 78.1545C45.0548 78.1545 48.3307 74.8236 48.3307 70.7148C48.3307 66.6059 45.0548 63.2751 41.0131 63.2751C36.9714 63.2751 33.6954 66.6059 33.6954 70.7148C33.6954 74.8236 36.9714 78.1545 41.0131 78.1545Z" fill="#FFE2C8" stroke="#1C1C1C" stroke-width="0.5" stroke-miterlimit="10"/>
<path d="M42.4367 69.6173C43.2414 69.2088 43.792 68.3737 43.792 67.4097C43.792 66.0433 42.6846 64.9346 41.3171 64.9346C39.9496 64.9346 38.8423 66.0421 38.8423 67.4097C38.8423 68.3737 39.3941 69.2088 40.1976 69.6173C38.5688 70.0889 37.3666 71.5647 37.3058 73.331L37.2916 74.48C37.2847 75.0371 37.7344 75.4924 38.2915 75.4924H44.3285C44.8808 75.4924 45.3285 75.0447 45.3285 74.4924V73.331C45.2665 71.5647 44.0655 70.0889 42.4367 69.6173Z" fill="#FF9500"/>
<path d="M42.4367 69.6173L42.3235 69.3943C42.232 69.4408 42.1781 69.5385 42.1878 69.6407C42.1974 69.7429 42.2685 69.8288 42.3671 69.8574L42.4367 69.6173ZM40.1976 69.6173L40.2671 69.8574C40.3657 69.8288 40.4368 69.743 40.4465 69.6408C40.4562 69.5386 40.4024 69.4409 40.3109 69.3944L40.1976 69.6173ZM37.3058 73.331L37.0559 73.3224L37.0558 73.3279L37.3058 73.331ZM45.3285 73.331H45.5786L45.5783 73.3223L45.3285 73.331ZM42.4367 69.6173L42.5498 69.8402C43.4353 69.3907 44.042 68.4713 44.042 67.4097H43.792H43.542C43.542 68.276 43.0474 69.0269 42.3235 69.3943L42.4367 69.6173ZM43.792 67.4097H44.042C44.042 65.9053 42.8228 64.6846 41.3171 64.6846V64.9346V65.1846C42.5465 65.1846 43.542 66.1813 43.542 67.4097H43.792ZM41.3171 64.9346V64.6846C39.8115 64.6846 38.5923 65.904 38.5923 67.4097H38.8423H39.0923C39.0923 66.1801 40.0877 65.1846 41.3171 65.1846V64.9346ZM38.8423 67.4097H38.5923C38.5923 68.4715 39.2003 69.3907 40.0843 69.8401L40.1976 69.6173L40.3109 69.3944C39.5879 69.0269 39.0923 68.2758 39.0923 67.4097H38.8423ZM40.1976 69.6173L40.1281 69.3771C38.3979 69.8781 37.1205 71.4455 37.0559 73.3224L37.3058 73.331L37.5556 73.3396C37.6126 71.6839 38.7397 70.2997 40.2671 69.8574L40.1976 69.6173ZM37.3058 73.331L37.0558 73.3279L37.0416 74.477L37.2916 74.48L37.5416 74.4831L37.5558 73.3341L37.3058 73.331ZM38.2915 75.4924V75.7424H44.3285V75.4924V75.2424H38.2915V75.4924ZM45.3285 74.4924H45.5785V73.331H45.3285H45.0785V74.4924H45.3285ZM45.3285 73.331L45.5783 73.3223C45.5124 71.4456 44.2365 69.8782 42.5062 69.3771L42.4367 69.6173L42.3671 69.8574C43.8945 70.2997 45.0205 71.6838 45.0786 73.3398L45.3285 73.331ZM44.3285 75.4924V75.7424C45.0188 75.7424 45.5785 75.1828 45.5785 74.4924H45.3285H45.0785C45.0785 74.9066 44.7427 75.2424 44.3285 75.2424V75.4924ZM37.2916 74.48L37.0416 74.477C37.033 75.1733 37.5951 75.7424 38.2915 75.7424V75.4924V75.2424C37.8737 75.2424 37.5364 74.901 37.5416 74.4831L37.2916 74.48Z" fill="#1C1C1C"/>
<path d="M69.7903 73.9251C69.7903 77.8321 66.5776 81.0001 62.6149 81.0001C58.6522 81.0001 55.155 77.5708 55.155 73.6637C54.7697 67.0726 58.6522 66.8513 62.6149 66.8513C66.5776 66.8513 70.0079 67.1941 69.7903 73.9263V73.9251Z" fill="#FF9500" stroke="#1C1C1C" stroke-width="0.5" stroke-miterlimit="10"/>
<path d="M62.4463 78.1545C66.488 78.1545 69.764 74.8236 69.764 70.7148C69.764 66.6059 66.488 63.2751 62.4463 63.2751C58.4046 63.2751 55.1287 66.6059 55.1287 70.7148C55.1287 74.8236 58.4046 78.1545 62.4463 78.1545Z" fill="#FFE2C8" stroke="#1C1C1C" stroke-width="0.5" stroke-miterlimit="10"/>
<path d="M63.5824 69.3753C64.3871 68.9669 64.9378 68.1317 64.9378 67.1677C64.9378 65.8013 63.8304 64.6927 62.4629 64.6927C61.0954 64.6927 59.988 65.8001 59.988 67.1677C59.988 68.1317 60.5399 68.9669 61.3434 69.3753C59.7145 69.847 58.5123 71.3228 58.4515 73.0891L58.4373 74.2381C58.4304 74.7952 58.8801 75.2505 59.4373 75.2505H65.4742C66.0265 75.2505 66.4742 74.8028 66.4742 74.2505V73.0891C66.4122 71.3228 65.2113 69.847 63.5824 69.3753Z" fill="#FF9500"/>
<path d="M63.5824 69.3753L63.4693 69.1524C63.3777 69.1989 63.3239 69.2966 63.3335 69.3988C63.3431 69.501 63.4143 69.5869 63.5129 69.6155L63.5824 69.3753ZM61.3434 69.3753L61.4129 69.6155C61.5115 69.5869 61.5826 69.501 61.5922 69.3988C61.6019 69.2967 61.5481 69.199 61.4566 69.1525L61.3434 69.3753ZM58.4515 73.0891L58.2016 73.0805L58.2016 73.086L58.4515 73.0891ZM66.4742 73.0891H66.7244L66.7241 73.0803L66.4742 73.0891ZM63.5824 69.3753L63.6956 69.5982C64.581 69.1488 65.1878 68.2294 65.1878 67.1677H64.9378H64.6878C64.6878 68.0341 64.1932 68.7849 63.4693 69.1524L63.5824 69.3753ZM64.9378 67.1677H65.1878C65.1878 65.6634 63.9686 64.4427 62.4629 64.4427V64.6927V64.9427C63.6922 64.9427 64.6878 65.9393 64.6878 67.1677H64.9378ZM62.4629 64.6927V64.4427C60.9573 64.4427 59.738 65.6621 59.738 67.1677H59.988H60.238C60.238 65.9382 61.2335 64.9427 62.4629 64.9427V64.6927ZM59.988 67.1677H59.738C59.738 68.2296 60.3461 69.1488 61.2301 69.5982L61.3434 69.3753L61.4566 69.1525C60.7337 68.7849 60.238 68.0339 60.238 67.1677H59.988ZM61.3434 69.3753L61.2738 69.1352C59.5436 69.6362 58.2663 71.2035 58.2017 73.0805L58.4515 73.0891L58.7014 73.0977C58.7584 71.442 59.8854 70.0578 61.4129 69.6155L61.3434 69.3753ZM58.4515 73.0891L58.2016 73.086L58.1873 74.235L58.4373 74.2381L58.6873 74.2412L58.7015 73.0922L58.4515 73.0891ZM59.4373 75.2505V75.5005H65.4742V75.2505V75.0005H59.4373V75.2505ZM66.4742 74.2505H66.7242V73.0891H66.4742H66.2242V74.2505H66.4742ZM66.4742 73.0891L66.7241 73.0803C66.6582 71.2036 65.3823 69.6362 63.6519 69.1352L63.5824 69.3753L63.5129 69.6155C65.0402 70.0577 66.1663 71.4419 66.2244 73.0978L66.4742 73.0891ZM65.4742 75.2505V75.5005C66.1646 75.5005 66.7242 74.9408 66.7242 74.2505H66.4742H66.2242C66.2242 74.6647 65.8884 75.0005 65.4742 75.0005V75.2505ZM58.4373 74.2381L58.1873 74.235C58.1787 74.9314 58.7409 75.5005 59.4373 75.5005V75.2505V75.0005C59.0194 75.0005 58.6821 74.659 58.6873 74.2412L58.4373 74.2381Z" fill="#1C1C1C"/>
<path d="M80.8207 53.1371C80.8207 57.0442 77.608 60.2121 73.6453 60.2121C69.6826 60.2121 66.1854 56.7828 66.1854 52.8758C65.8001 46.2846 69.6826 46.0634 73.6453 46.0634C77.608 46.0634 81.0383 46.4062 80.8207 53.1383V53.1371Z" fill="#FF9500" stroke="#1C1C1C" stroke-width="0.5" stroke-miterlimit="10"/>
<path d="M73.4766 57.3666C77.5183 57.3666 80.7942 54.0357 80.7942 49.9269C80.7942 45.818 77.5183 42.4872 73.4766 42.4872C69.4349 42.4872 66.1589 45.818 66.1589 49.9269C66.1589 54.0357 69.4349 57.3666 73.4766 57.3666Z" fill="#FFE2C8" stroke="#1C1C1C" stroke-width="0.5" stroke-miterlimit="10"/>
<path d="M51.515 62.6135C57.1271 62.6135 61.6758 58.0641 61.6758 52.4521C61.6758 46.8401 57.1271 42.2906 51.515 42.2906C45.903 42.2906 41.3542 46.8401 41.3542 52.4521C41.3542 58.0641 45.903 62.6135 51.515 62.6135Z" fill="#4169E1" stroke="#1C1C1C" stroke-width="0.5" stroke-miterlimit="10"/>
<path d="M51.5149 59.7103C57.127 59.7103 61.6757 55.1609 61.6757 49.5489C61.6757 43.9369 57.127 39.3875 51.5149 39.3875C45.9028 39.3875 41.3541 43.9369 41.3541 49.5489C41.3541 55.1609 45.9028 59.7103 51.5149 59.7103Z" fill="#E8EDFA" stroke="#1C1C1C" stroke-width="0.5" stroke-miterlimit="10"/>
<path d="M50.6931 42.2571C51.128 42.0619 51.6254 42.0619 52.0603 42.2571C52.8593 42.6158 53.702 43.0287 54.574 43.5061C55.3925 43.9543 56.1483 44.4104 56.8416 44.8596C57.0489 44.994 57.1988 45.2064 57.2517 45.4534L57.2683 45.5618L57.2898 45.8528C57.2951 45.9539 57.299 46.0588 57.2996 46.1672C57.3006 46.3669 57.2926 46.5555 57.2791 46.7307C57.2396 47.2378 56.8127 47.5978 56.3367 47.5979H55.8523C55.8651 48.1547 55.8767 48.7255 55.8855 49.3098C55.8963 50.0294 55.9016 50.7301 55.905 51.4104H56.3835C56.8312 51.4104 57.2296 51.727 57.3142 52.178L57.3269 52.2698L57.3523 52.6477C57.3588 52.783 57.3627 52.9278 57.363 53.0803L57.3533 53.5354C57.3467 53.6777 57.3377 53.8106 57.3269 53.9319C57.2822 54.431 56.8608 54.7913 56.3835 54.7913H46.3787C45.8977 54.7911 45.4765 54.4253 45.4353 53.9241C45.4154 53.681 45.4005 53.3967 45.4011 53.0803L45.4109 52.6536C45.4168 52.5197 45.4258 52.3939 45.4353 52.2776L45.447 52.1848C45.5289 51.7316 45.9276 51.4106 46.3787 51.4104H46.5417C46.5462 50.7023 46.5528 49.9753 46.5642 49.2307C46.5727 48.6757 46.5828 48.1313 46.5945 47.5979H46.4177C45.9416 47.5979 45.5148 47.2379 45.4753 46.7307C45.4618 46.5555 45.4538 46.3669 45.4548 46.1672C45.456 45.9507 45.4674 45.7482 45.4851 45.5618L45.5017 45.4534C45.5546 45.2064 45.7048 44.994 45.9119 44.8596L46.4441 44.5217C46.9874 44.1832 47.5655 43.8421 48.1794 43.5061C49.0513 43.0288 49.8942 42.6158 50.6931 42.2571ZM48.8289 47.5979C48.8417 48.1547 48.8533 48.7255 48.8621 49.3098C48.8729 50.0294 48.8782 50.7301 48.8816 51.4104H50.0642C50.0687 50.7023 50.0753 49.9753 50.0867 49.2307C50.0951 48.6757 50.1053 48.1313 50.1169 47.5979H48.8289ZM52.3513 47.5979C52.3642 48.1547 52.3757 48.7255 52.3845 49.3098C52.3953 50.0294 52.4007 50.7301 52.4041 51.4104H53.5652C53.5697 50.7023 53.5763 49.9753 53.5876 49.2307C53.5961 48.6757 53.6063 48.1313 53.6179 47.5979H52.3513Z" fill="#4169E1"/>
<path d="M50.6931 42.2571L50.5907 42.029L50.5907 42.029L50.6931 42.2571ZM52.0603 42.2571L52.1627 42.029L52.1627 42.029L52.0603 42.2571ZM54.574 43.5061L54.694 43.2868L54.694 43.2868L54.574 43.5061ZM56.8416 44.8596L56.9775 44.6498L56.9775 44.6498L56.8416 44.8596ZM57.2517 45.4534L57.4988 45.4155C57.4981 45.4106 57.4972 45.4058 57.4962 45.401L57.2517 45.4534ZM57.2683 45.5618L57.5176 45.5434C57.5172 45.5369 57.5164 45.5304 57.5154 45.5239L57.2683 45.5618ZM57.2898 45.8528L57.5395 45.8397L57.5391 45.8344L57.2898 45.8528ZM57.2996 46.1672L57.0496 46.1685L57.0496 46.1686L57.2996 46.1672ZM57.2791 46.7307L57.5283 46.7501L57.5283 46.75L57.2791 46.7307ZM56.3367 47.5979L56.3367 47.8479L56.3367 47.8479L56.3367 47.5979ZM55.8523 47.5979V47.3479C55.785 47.3479 55.7205 47.375 55.6735 47.4232C55.6265 47.4713 55.6008 47.5364 55.6024 47.6037L55.8523 47.5979ZM55.8855 49.3098L56.1355 49.3061L56.1355 49.3061L55.8855 49.3098ZM55.905 51.4104L55.655 51.4116C55.6557 51.5492 55.7674 51.6604 55.905 51.6604V51.4104ZM57.3142 52.178L57.5621 52.1437L57.5599 52.1319L57.3142 52.178ZM57.3269 52.2698L57.5763 52.253C57.5759 52.2472 57.5754 52.2413 57.5745 52.2355L57.3269 52.2698ZM57.3523 52.6477L57.6021 52.6357L57.6017 52.6309L57.3523 52.6477ZM57.363 53.0803L57.613 53.0857L57.613 53.0798L57.363 53.0803ZM57.3533 53.5354L57.6031 53.5469L57.6032 53.5408L57.3533 53.5354ZM57.3269 53.9319L57.5759 53.9542L57.5759 53.9541L57.3269 53.9319ZM46.3787 54.7913L46.3786 55.0413H46.3787V54.7913ZM45.4353 53.9241L45.1861 53.9445L45.1861 53.9446L45.4353 53.9241ZM45.4011 53.0803L45.1511 53.0746L45.1511 53.0798L45.4011 53.0803ZM45.4109 52.6536L45.1611 52.6425L45.161 52.6478L45.4109 52.6536ZM45.4353 52.2776L45.187 52.2462L45.1861 52.2572L45.4353 52.2776ZM45.447 52.1848L45.2007 52.1403L45.199 52.1535L45.447 52.1848ZM46.3787 51.4104L46.3787 51.1604L46.3786 51.1604L46.3787 51.4104ZM46.5417 51.4104V51.6604C46.6792 51.6604 46.7909 51.5494 46.7917 51.412L46.5417 51.4104ZM46.5642 49.2307L46.3142 49.2269L46.3142 49.2269L46.5642 49.2307ZM46.5945 47.5979L46.8444 47.6034C46.8459 47.5361 46.8202 47.4711 46.7732 47.4231C46.7261 47.375 46.6617 47.3479 46.5945 47.3479V47.5979ZM45.4753 46.7307L45.2261 46.75L45.2261 46.7501L45.4753 46.7307ZM45.4548 46.1672L45.7048 46.1686L45.7048 46.1685L45.4548 46.1672ZM45.4851 45.5618L45.238 45.5239C45.2373 45.5286 45.2367 45.5334 45.2362 45.5381L45.4851 45.5618ZM45.5017 45.4534L45.2573 45.401C45.2562 45.4058 45.2553 45.4107 45.2546 45.4155L45.5017 45.4534ZM45.9119 44.8596L45.7779 44.6486L45.7758 44.6499L45.9119 44.8596ZM46.4441 44.5217L46.3119 44.3096L46.3101 44.3107L46.4441 44.5217ZM48.1794 43.5061L48.2995 43.7254L48.2995 43.7254L48.1794 43.5061ZM48.8289 47.5979V47.3479C48.7616 47.3479 48.6971 47.375 48.6501 47.4232C48.603 47.4713 48.5774 47.5364 48.5789 47.6037L48.8289 47.5979ZM48.8621 49.3098L49.112 49.3061L49.112 49.3061L48.8621 49.3098ZM48.8816 51.4104L48.6316 51.4116C48.6323 51.5492 48.744 51.6604 48.8816 51.6604V51.4104ZM50.0642 51.4104V51.6604C50.2017 51.6604 50.3133 51.5494 50.3142 51.412L50.0642 51.4104ZM50.0867 49.2307L49.8367 49.2269L49.8367 49.2269L50.0867 49.2307ZM50.1169 47.5979L50.3669 47.6034C50.3684 47.5361 50.3427 47.4711 50.2956 47.4231C50.2486 47.375 50.1842 47.3479 50.1169 47.3479V47.5979ZM52.3513 47.5979V47.3479C52.284 47.3479 52.2196 47.375 52.1725 47.4232C52.1255 47.4713 52.0998 47.5364 52.1014 47.6037L52.3513 47.5979ZM52.3845 49.3098L52.6345 49.3061L52.6345 49.3061L52.3845 49.3098ZM52.4041 51.4104L52.1541 51.4116C52.1547 51.5492 52.2665 51.6604 52.4041 51.6604V51.4104ZM53.5652 51.4104V51.6604C53.7026 51.6604 53.8143 51.5494 53.8152 51.412L53.5652 51.4104ZM53.5876 49.2307L53.3377 49.2269L53.3377 49.2269L53.5876 49.2307ZM53.6179 47.5979L53.8679 47.6034C53.8693 47.5361 53.8436 47.4711 53.7966 47.4231C53.7496 47.375 53.6852 47.3479 53.6179 47.3479V47.5979ZM50.6931 42.2571L50.7955 42.4852C51.1652 42.3192 51.5882 42.3192 51.9579 42.4852L52.0603 42.2571L52.1627 42.029C51.6627 41.8046 51.0907 41.8046 50.5907 42.029L50.6931 42.2571ZM52.0603 42.2571L51.9579 42.4852C52.7514 42.8414 53.5882 43.2514 54.4539 43.7254L54.574 43.5061L54.694 43.2868C53.8158 42.806 52.9672 42.3902 52.1627 42.029L52.0603 42.2571ZM54.574 43.5061L54.4539 43.7254C55.2666 44.1704 56.0171 44.6233 56.7056 45.0694L56.8416 44.8596L56.9775 44.6498C56.2795 44.1975 55.5184 43.7382 54.694 43.2868L54.574 43.5061ZM56.8416 44.8596L56.7056 45.0694C56.8585 45.1685 56.9685 45.3249 57.0073 45.5058L57.2517 45.4534L57.4962 45.401C57.4291 45.0879 57.2393 44.8195 56.9775 44.6498L56.8416 44.8596ZM57.2517 45.4534L57.0046 45.4912L57.0212 45.5996L57.2683 45.5618L57.5154 45.5239L57.4988 45.4155L57.2517 45.4534ZM57.2683 45.5618L57.019 45.5802L57.0405 45.8712L57.2898 45.8528L57.5391 45.8344L57.5176 45.5434L57.2683 45.5618ZM57.2898 45.8528L57.0401 45.8658C57.0453 45.9644 57.049 46.0652 57.0496 46.1685L57.2996 46.1672L57.5496 46.1659C57.549 46.0524 57.5449 45.9433 57.5395 45.8397L57.2898 45.8528ZM57.2996 46.1672L57.0496 46.1686C57.0506 46.3607 57.0429 46.5424 57.0298 46.7114L57.2791 46.7307L57.5283 46.75C57.5424 46.5686 57.5507 46.3731 57.5496 46.1659L57.2996 46.1672ZM57.2791 46.7307L57.0298 46.7113C57.001 47.0811 56.6894 47.3478 56.3366 47.3479L56.3367 47.5979L56.3367 47.8479C56.936 47.8477 57.4781 47.3946 57.5283 46.7501L57.2791 46.7307ZM56.3367 47.5979V47.3479H55.8523V47.5979V47.8479H56.3367V47.5979ZM55.8523 47.5979L55.6024 47.6037C55.6152 48.16 55.6267 48.7301 55.6355 49.3136L55.8855 49.3098L56.1355 49.3061C56.1267 48.7209 56.1151 48.1494 56.1022 47.5921L55.8523 47.5979ZM55.8855 49.3098L55.6355 49.3136C55.6463 50.032 55.6516 50.7317 55.655 51.4116L55.905 51.4104L56.155 51.4092C56.1516 50.7284 56.1463 50.0268 56.1355 49.3061L55.8855 49.3098ZM55.905 51.4104V51.6604H56.3835V51.4104V51.1604H55.905V51.4104ZM56.3835 51.4104V51.6604C56.7146 51.6604 57.0067 51.8949 57.0685 52.2241L57.3142 52.178L57.5599 52.1319C57.4525 51.5591 56.9478 51.1604 56.3835 51.1604V51.4104ZM57.3142 52.178L57.0666 52.2122L57.0793 52.304L57.3269 52.2698L57.5745 52.2355L57.5619 52.1437L57.3142 52.178ZM57.3269 52.2698L57.0775 52.2865L57.1029 52.6645L57.3523 52.6477L57.6017 52.6309L57.5763 52.253L57.3269 52.2698ZM57.3523 52.6477L57.1026 52.6597C57.1089 52.7913 57.1127 52.9322 57.113 53.0809L57.363 53.0803L57.613 53.0798C57.6127 52.9233 57.6087 52.7748 57.602 52.6357L57.3523 52.6477ZM57.363 53.0803L57.1131 53.075L57.1033 53.53L57.3533 53.5354L57.6032 53.5408L57.613 53.0857L57.363 53.0803ZM57.3533 53.5354L57.1035 53.5239C57.0971 53.6629 57.0884 53.7922 57.0779 53.9097L57.3269 53.9319L57.5759 53.9541C57.5871 53.829 57.5963 53.6925 57.603 53.5469L57.3533 53.5354ZM57.3269 53.9319L57.0779 53.9096C57.0452 54.2747 56.7366 54.5413 56.3835 54.5413V54.7913V55.0413C56.9851 55.0413 57.5192 54.5873 57.5759 53.9542L57.3269 53.9319ZM56.3835 54.7913V54.5413H46.3787V54.7913V55.0413H56.3835V54.7913ZM46.3787 54.7913L46.3788 54.5413C46.0234 54.5411 45.7146 54.2707 45.6845 53.9036L45.4353 53.9241L45.1861 53.9446C45.2384 54.5798 45.7719 55.041 46.3786 55.0413L46.3787 54.7913ZM45.4353 53.9241L45.6845 53.9037C45.665 53.6663 45.6505 53.3891 45.6511 53.0808L45.4011 53.0803L45.1511 53.0798C45.1505 53.4044 45.1658 53.6957 45.1861 53.9445L45.4353 53.9241ZM45.4011 53.0803L45.6511 53.086L45.6608 52.6593L45.4109 52.6536L45.161 52.6478L45.1512 53.0746L45.4011 53.0803ZM45.4109 52.6536L45.6606 52.6646C45.6664 52.535 45.6751 52.4125 45.6845 52.298L45.4353 52.2776L45.1861 52.2572C45.1765 52.3753 45.1672 52.5045 45.1611 52.6425L45.4109 52.6536ZM45.4353 52.2776L45.6833 52.3089L45.6951 52.2161L45.447 52.1848L45.199 52.1535L45.1873 52.2463L45.4353 52.2776ZM45.447 52.1848L45.693 52.2293C45.7528 51.8982 46.0454 51.6605 46.3788 51.6604L46.3787 51.4104L46.3786 51.1604C45.8099 51.1606 45.3049 51.5651 45.201 52.1404L45.447 52.1848ZM46.3787 51.4104V51.6604H46.5417V51.4104V51.1604H46.3787V51.4104ZM46.5417 51.4104L46.7917 51.412C46.7962 50.7043 46.8028 49.9782 46.8142 49.2345L46.5642 49.2307L46.3142 49.2269C46.3029 49.9725 46.2963 50.7003 46.2918 51.4088L46.5417 51.4104ZM46.5642 49.2307L46.8142 49.2345C46.8226 48.6801 46.8328 48.1362 46.8444 47.6034L46.5945 47.5979L46.3445 47.5924C46.3329 48.1263 46.3227 48.6713 46.3142 49.2269L46.5642 49.2307ZM46.5945 47.5979V47.3479H46.4177V47.5979V47.8479H46.5945V47.5979ZM46.4177 47.5979V47.3479C46.0649 47.3479 45.7534 47.0813 45.7246 46.7113L45.4753 46.7307L45.2261 46.7501C45.2763 47.3946 45.8183 47.8479 46.4177 47.8479V47.5979ZM45.4753 46.7307L45.7246 46.7114C45.7115 46.5424 45.7038 46.3607 45.7048 46.1686L45.4548 46.1672L45.2048 46.1659C45.2037 46.3731 45.212 46.5686 45.2261 46.75L45.4753 46.7307ZM45.4548 46.1672L45.7048 46.1685C45.7059 45.96 45.7169 45.7649 45.734 45.5854L45.4851 45.5618L45.2362 45.5381C45.2179 45.7314 45.206 45.9414 45.2048 46.1659L45.4548 46.1672ZM45.4851 45.5618L45.7322 45.5996L45.7488 45.4912L45.5017 45.4534L45.2546 45.4155L45.238 45.5239L45.4851 45.5618ZM45.5017 45.4534L45.7462 45.5057C45.7849 45.325 45.8951 45.1685 46.0479 45.0693L45.9119 44.8596L45.7758 44.6499C45.5145 44.8194 45.3243 45.0878 45.2573 45.401L45.5017 45.4534ZM45.9119 44.8596L46.0459 45.0707L46.5781 44.7328L46.4441 44.5217L46.3101 44.3107L45.7779 44.6486L45.9119 44.8596ZM46.4441 44.5217L46.5763 44.7339C47.116 44.3976 47.6901 44.0589 48.2995 43.7254L48.1794 43.5061L48.0594 43.2868C47.441 43.6253 46.8587 43.9687 46.3119 44.3096L46.4441 44.5217ZM48.1794 43.5061L48.2995 43.7254C49.1651 43.2515 50.0021 42.8414 50.7955 42.4851L50.6931 42.2571L50.5907 42.029C49.7864 42.3902 48.9375 42.806 48.0594 43.2868L48.1794 43.5061ZM48.8289 47.5979L48.5789 47.6037C48.5918 48.16 48.6033 48.7301 48.6121 49.3136L48.8621 49.3098L49.112 49.3061C49.1032 48.7209 49.0916 48.1494 49.0788 47.5921L48.8289 47.5979ZM48.8621 49.3098L48.6121 49.3136C48.6229 50.032 48.6282 50.7317 48.6316 51.4116L48.8816 51.4104L49.1316 51.4092C49.1282 50.7284 49.1229 50.0268 49.112 49.3061L48.8621 49.3098ZM48.8816 51.4104V51.6604H50.0642V51.4104V51.1604H48.8816V51.4104ZM50.0642 51.4104L50.3142 51.412C50.3187 50.7043 50.3253 49.9782 50.3366 49.2345L50.0867 49.2307L49.8367 49.2269C49.8253 49.9725 49.8187 50.7003 49.8142 51.4088L50.0642 51.4104ZM50.0867 49.2307L50.3366 49.2345C50.3451 48.6801 50.3552 48.1362 50.3669 47.6034L50.1169 47.5979L49.867 47.5924C49.8553 48.1263 49.8452 48.6713 49.8367 49.2269L50.0867 49.2307ZM50.1169 47.5979V47.3479H48.8289V47.5979V47.8479H50.1169V47.5979ZM52.3513 47.5979L52.1014 47.6037C52.1142 48.16 52.1258 48.7301 52.1345 49.3136L52.3845 49.3098L52.6345 49.3061C52.6257 48.7209 52.6141 48.1494 52.6013 47.5921L52.3513 47.5979ZM52.3845 49.3098L52.1345 49.3136C52.1453 50.032 52.1507 50.7317 52.1541 51.4116L52.4041 51.4104L52.654 51.4092C52.6507 50.7284 52.6453 50.0268 52.6345 49.3061L52.3845 49.3098ZM52.4041 51.4104V51.6604H53.5652V51.4104V51.1604H52.4041V51.4104ZM53.5652 51.4104L53.8152 51.412C53.8197 50.7043 53.8263 49.9782 53.8376 49.2345L53.5876 49.2307L53.3377 49.2269C53.3263 49.9725 53.3197 50.7003 53.3152 51.4088L53.5652 51.4104ZM53.5876 49.2307L53.8376 49.2345C53.8461 48.6801 53.8562 48.1362 53.8679 47.6034L53.6179 47.5979L53.368 47.5924C53.3563 48.1263 53.3462 48.6713 53.3377 49.2269L53.5876 49.2307ZM53.6179 47.5979V47.3479H52.3513V47.5979V47.8479H53.6179V47.5979Z" fill="#1C1C1C"/>
<path d="M74.6127 48.5875C75.4174 48.179 75.968 47.3439 75.968 46.3799C75.968 45.0135 74.8607 43.9048 73.4932 43.9048C72.1257 43.9048 71.0183 45.0123 71.0183 46.3799C71.0183 47.3439 71.5701 48.179 72.3736 48.5875C70.7448 49.0591 69.5426 50.5349 69.4818 52.3012L69.4676 53.4503C69.4607 54.0073 69.9104 54.4626 70.4675 54.4626H76.5045C77.0568 54.4626 77.5045 54.0149 77.5045 53.4626V52.3012C77.4425 50.5349 76.2415 49.0591 74.6127 48.5875Z" fill="#FF9500"/>
<path d="M74.6127 48.5875L74.4995 48.3645C74.408 48.411 74.3542 48.5087 74.3638 48.6109C74.3734 48.7131 74.4445 48.7991 74.5431 48.8276L74.6127 48.5875ZM72.3736 48.5875L72.4432 48.8276C72.5417 48.7991 72.6129 48.7132 72.6225 48.611C72.6322 48.5088 72.5784 48.4111 72.4869 48.3646L72.3736 48.5875ZM69.4818 52.3012L69.2319 52.2926L69.2318 52.2981L69.4818 52.3012ZM77.5045 52.3012H77.7546L77.7543 52.2925L77.5045 52.3012ZM74.6127 48.5875L74.7258 48.8104C75.6113 48.3609 76.218 47.4415 76.218 46.3799H75.968H75.718C75.718 47.2462 75.2235 47.9971 74.4995 48.3645L74.6127 48.5875ZM75.968 46.3799H76.218C76.218 44.8755 74.9988 43.6548 73.4932 43.6548V43.9048V44.1548C74.7225 44.1548 75.718 45.1515 75.718 46.3799H75.968ZM73.4932 43.9048V43.6548C71.9876 43.6548 70.7683 44.8742 70.7683 46.3799H71.0183H71.2683C71.2683 45.1503 72.2637 44.1548 73.4932 44.1548V43.9048ZM71.0183 46.3799H70.7683C70.7683 47.4417 71.3764 48.361 72.2603 48.8103L72.3736 48.5875L72.4869 48.3646C71.7639 47.9971 71.2683 47.246 71.2683 46.3799H71.0183ZM72.3736 48.5875L72.3041 48.3473C70.5739 48.8484 69.2966 50.4157 69.232 52.2926L69.4818 52.3012L69.7317 52.3098C69.7886 50.6541 70.9157 49.2699 72.4432 48.8276L72.3736 48.5875ZM69.4818 52.3012L69.2318 52.2981L69.2176 53.4472L69.4676 53.4503L69.7176 53.4534L69.7318 52.3043L69.4818 52.3012ZM70.4675 54.4626V54.7126H76.5045V54.4626V54.2126H70.4675V54.4626ZM77.5045 53.4626H77.7545V52.3012H77.5045H77.2545V53.4626H77.5045ZM77.5045 52.3012L77.7543 52.2925C77.6885 50.4158 76.4126 48.8484 74.6822 48.3473L74.6127 48.5875L74.5431 48.8276C76.0705 49.2699 77.1965 50.654 77.2546 52.31L77.5045 52.3012ZM76.5045 54.4626V54.7126C77.1948 54.7126 77.7545 54.153 77.7545 53.4626H77.5045H77.2545C77.2545 53.8768 76.9187 54.2126 76.5045 54.2126V54.4626ZM69.4676 53.4503L69.2176 53.4472C69.209 54.1435 69.7711 54.7126 70.4675 54.7126V54.4626V54.2126C70.0497 54.2126 69.7124 53.8712 69.7176 53.4534L69.4676 53.4503Z" fill="#1C1C1C"/>
</svg>
