<svg width="62" height="62" viewBox="0 0 62 62" fill="none" xmlns="http://www.w3.org/2000/svg">
<g clip-path="url(#clip0_18011_3366)">
<path d="M18.1395 27.6301C18.3095 25.8401 19.7395 24.4401 21.5395 24.2901C31.3495 23.4501 41.1495 23.4501 50.9595 24.2901C52.7495 24.4401 54.1795 25.8401 54.3695 27.6201C55.1195 34.9801 55.1195 42.3401 54.3695 49.7001C54.1795 51.4901 52.7595 52.8801 50.9595 53.0301C41.1795 53.8701 31.3995 53.8701 21.6195 53.0301C19.7895 52.8701 18.3495 51.4301 18.1895 49.6001C17.5395 42.0001 17.4795 34.6501 18.1495 27.6201L18.1395 27.6301Z" fill="#FF9500" stroke="#1C1C1C" stroke-width="0.5" stroke-miterlimit="10"/>
<path d="M18.1395 24.8001C18.3095 23.0101 19.7395 21.6101 21.5395 21.4601C31.3495 20.6201 41.1495 20.6201 50.9595 21.4601C52.7495 21.6101 54.1795 23.0101 54.3695 24.7901C55.1195 32.1501 55.1195 39.5101 54.3695 46.8701C54.1795 48.6601 52.7595 50.0501 50.9595 50.2001C41.1795 51.0401 31.3995 51.0401 21.6195 50.2001C19.7895 50.0401 18.3495 48.6001 18.1895 46.7701C17.5395 39.1701 17.4795 31.8201 18.1495 24.7901L18.1395 24.8001Z" fill="#FFE2C8" stroke="#1C1C1C" stroke-width="0.5" stroke-linejoin="round"/>
<path d="M38.6496 36.6601C38.7296 33.2101 41.6696 30.4701 45.1196 30.4001C48.5696 30.3301 52.0896 30.5001 55.7196 30.8501C56.2096 34.2601 56.0596 37.8901 55.9496 42.5101C55.9396 43.0001 55.5596 43.4101 55.0696 43.4501C51.8196 43.7301 48.6396 43.8401 45.4296 43.7601C41.6396 43.6701 38.5496 40.4601 38.6396 36.6501L38.6496 36.6601Z" fill="#FF9500" stroke="#1C1C1C" stroke-width="0.5" stroke-miterlimit="10"/>
<path d="M38.6497 34.3801C38.7297 30.9201 41.6697 28.1901 45.1297 28.1001C48.4397 28.0101 51.7397 28.1001 55.0397 28.3901C55.5897 28.4401 56.0197 28.8901 56.0497 29.4401C56.2997 34.0101 56.2897 35.4901 56.1097 41.1101C52.5797 41.4501 48.9997 41.5801 45.4397 41.5001C41.6397 41.4101 38.5697 38.2001 38.6597 34.3901L38.6497 34.3801Z" fill="#FFE2C8" stroke="#1C1C1C" stroke-width="0.5" stroke-linejoin="round"/>
<path d="M44.8695 37.3801C46.5816 37.3801 47.9695 35.9922 47.9695 34.2801C47.9695 32.568 46.5816 31.1801 44.8695 31.1801C43.1574 31.1801 41.7695 32.568 41.7695 34.2801C41.7695 35.9922 43.1574 37.3801 44.8695 37.3801Z" fill="#FF9500" stroke="#1C1C1C" stroke-width="0.5" stroke-miterlimit="10"/>
<path d="M18.2392 35.5202C24.6126 35.5202 29.7792 30.3536 29.7792 23.9802C29.7792 17.6068 24.6126 12.4402 18.2392 12.4402C11.8659 12.4402 6.69922 17.6068 6.69922 23.9802C6.69922 30.3536 11.8659 35.5202 18.2392 35.5202Z" fill="#E8EDFA" stroke="#1C1C1C" stroke-width="0.5" stroke-linejoin="round"/>
<path d="M18.2392 32.2802C24.6126 32.2802 29.7792 27.1136 29.7792 20.7402C29.7792 14.3668 24.6126 9.2002 18.2392 9.2002C11.8659 9.2002 6.69922 14.3668 6.69922 20.7402C6.69922 27.1136 11.8659 32.2802 18.2392 32.2802Z" fill="white" stroke="#1C1C1C" stroke-width="0.5" stroke-linejoin="round"/>
<path d="M18.2393 13.6502V27.8302" stroke="#1C1C1C" stroke-width="0.5" stroke-linecap="round" stroke-linejoin="round"/>
<path d="M25.3292 20.7402H11.1492" stroke="#1C1C1C" stroke-width="0.5" stroke-linecap="round" stroke-linejoin="round"/>
</g>
<defs>
<clipPath id="clip0_18011_3366">
<rect width="62" height="62" rx="5" fill="white"/>
</clipPath>
</defs>
</svg>
