<svg width="62" height="62" viewBox="0 0 62 62" fill="none" xmlns="http://www.w3.org/2000/svg">
<g clip-path="url(#clip0_18011_7761)">
<path d="M35.3748 51.2351V56.8315C35.3748 58.5765 27.9611 59.9988 18.8208 59.9988C9.68041 59.9988 2.26099 58.5765 2.26099 56.8315V51.2351H35.3748Z" fill="#FF9500" stroke="#1C1C1C" stroke-width="0.5" stroke-miterlimit="10" stroke-linejoin="round"/>
<path d="M35.3748 45.1985V50.7949C35.3748 52.54 27.9611 53.9622 18.8208 53.9622C9.68041 53.9622 2.26099 52.54 2.26099 50.7949V45.1985H35.3748Z" fill="#FF9500" stroke="#1C1C1C" stroke-width="0.5" stroke-miterlimit="10" stroke-linejoin="round"/>
<path d="M35.3748 39.1619V44.7583C35.3748 46.5033 27.9611 47.9256 18.8208 47.9256C9.68041 47.9256 2.26099 46.5033 2.26099 44.7583V39.1619H35.3748Z" fill="#FF9500" stroke="#1C1C1C" stroke-width="0.5" stroke-miterlimit="10" stroke-linejoin="round"/>
<path d="M18.8226 42.0544C27.9652 42.0544 35.3767 40.6363 35.3767 38.8871C35.3767 37.1378 27.9652 35.7198 18.8226 35.7198C9.68007 35.7198 2.26855 37.1378 2.26855 38.8871C2.26855 40.6363 9.68007 42.0544 18.8226 42.0544Z" fill="#FF9500" stroke="#1C1C1C" stroke-width="0.5" stroke-miterlimit="10" stroke-linejoin="round"/>
<path d="M19.189 39.8124C26.1428 39.8124 31.78 39.2463 31.78 38.5481C31.78 37.8498 26.1428 37.2838 19.189 37.2838C12.2351 37.2838 6.5979 37.8498 6.5979 38.5481C6.5979 39.2463 12.2351 39.8124 19.189 39.8124Z" fill="#FFE2C8" stroke="#1C1C1C" stroke-width="0.5" stroke-miterlimit="10" stroke-linejoin="round"/>
<path d="M35.0331 23.1892C35.0331 31.7919 27.7453 38.7659 18.755 38.7659C9.76473 38.7659 1.83164 31.215 1.83164 22.6123C0.958746 8.09992 9.76473 7.61255 18.755 7.61255C27.7453 7.61255 35.5268 8.36607 35.0331 23.1892Z" fill="#FF9500" stroke="#1C1C1C" stroke-width="0.5" stroke-miterlimit="10" stroke-linejoin="round"/>
<path d="M18.552 34.7583C27.7198 34.7583 35.1517 27.4251 35.1517 18.3791C35.1517 9.33316 27.7198 1.99994 18.552 1.99994C9.3843 1.99994 1.95239 9.33316 1.95239 18.3791C1.95239 27.4251 9.3843 34.7583 18.552 34.7583Z" fill="#FF9500" stroke="#1C1C1C" stroke-width="0.5" stroke-miterlimit="10" stroke-linejoin="round"/>
<path d="M18.4161 31.0675C25.6376 31.0675 31.4918 25.3851 31.4918 18.3754C31.4918 11.3657 25.6376 5.68329 18.4161 5.68329C11.1945 5.68329 5.34033 11.3657 5.34033 18.3754C5.34033 25.3851 11.1945 31.0675 18.4161 31.0675Z" fill="#FFE2C8" stroke="#1C1C1C" stroke-width="0.5" stroke-miterlimit="10" stroke-linejoin="round"/>
<path d="M19.1725 12.3201C19.0802 12.128 18.8005 12.1209 18.698 12.3081C17.3163 14.8316 15.1048 16.8674 12.416 18.0965C12.2179 18.1871 12.2102 18.4748 12.4032 18.5752C15.0227 19.938 17.1224 22.0825 18.3674 24.6721C18.4598 24.8642 18.7394 24.8713 18.8419 24.6841C20.2236 22.1606 22.4352 20.1248 25.1239 18.8957C25.322 18.8051 25.3297 18.5174 25.1367 18.417C22.5173 17.0541 20.4175 14.9097 19.1725 12.3201Z" fill="#1C1C1C" stroke="#1C1C1C" stroke-width="0.5" stroke-miterlimit="10" stroke-linejoin="round"/>
<path d="M45.3846 27.6787C45.2793 23.6486 46.0059 20.4293 49.491 18.4852C50.6675 17.7137 51.7825 16.919 52.4417 15.7361C53.4005 14.0725 52.8126 11.6498 50.9978 10.8313C48.4446 9.54059 45.0099 11.2106 45.057 14.2499H38.6865C38.6663 0.47732 64.1317 3.06259 59.1163 16.8913C57.877 19.9887 55.0884 20.8105 52.8708 22.7972C51.5497 24.0988 51.2613 25.7637 51.3019 27.6787H45.3846Z" fill="#4169E1" stroke="#1C1C1C" stroke-width="0.5" stroke-miterlimit="10"/>
<path d="M51.3321 36.066C50.4609 36.1667 49.4852 36.2344 48.4212 36.2383C47.2852 36.2421 46.248 36.1718 45.3291 36.066C45.184 35.2101 45.0734 34.1819 45.0793 33.0176C45.0846 31.9282 45.1905 30.9606 45.3291 30.146C46.1479 30.0086 47.1204 29.9028 48.2158 29.8957C49.4087 29.888 50.4603 29.9996 51.3314 30.146C51.4714 30.9658 51.5786 31.9437 51.5825 33.046C51.5865 34.1993 51.4772 35.2185 51.3321 36.066Z" fill="#4169E1" stroke="#1C1C1C" stroke-width="0.5" stroke-miterlimit="10"/>
<path d="M45.3846 24.5508C45.2793 20.5207 46.0059 17.3014 49.491 15.3572C50.6675 14.5858 51.7825 13.7911 52.4417 12.6081C53.4005 10.9446 52.8126 8.5219 50.9978 7.70336C48.4446 6.41266 45.0099 8.08263 45.057 11.122H38.6865C38.6663 -2.65061 64.1317 -0.0653436 59.1163 13.7634C57.877 16.8608 55.0884 17.6826 52.8708 19.6692C51.5497 20.9709 51.2613 22.6357 51.3019 24.5508H45.3846Z" fill="#E8EDFA" stroke="#1C1C1C" stroke-width="0.5" stroke-miterlimit="10"/>
<path d="M51.3321 32.938C50.4609 33.0387 49.4852 33.1064 48.4212 33.1103C47.2852 33.1141 46.248 33.0438 45.3291 32.938C45.184 32.0821 45.0734 31.0539 45.0793 29.8896C45.0846 28.8002 45.1905 27.8327 45.3291 27.018C46.1479 26.8806 47.1204 26.7748 48.2158 26.7677C49.4087 26.76 50.4603 26.8716 51.3314 27.018C51.4714 27.8378 51.5786 28.8157 51.5825 29.918C51.5865 31.0713 51.4772 32.0905 51.3321 32.938Z" fill="#E8EDFA" stroke="#1C1C1C" stroke-width="0.5" stroke-miterlimit="10"/>
</g>
<defs>
<clipPath id="clip0_18011_7761">
<rect width="62" height="62" rx="5" fill="white"/>
</clipPath>
</defs>
</svg>
