<svg width="102" height="102" viewBox="0 0 102 102" fill="none" xmlns="http://www.w3.org/2000/svg">
<rect x="0.5" y="0.5" width="101" height="101" rx="4.5" stroke="#9747FF" stroke-dasharray="10 5"/>
<path d="M68.4475 77.8802C68.4523 79.8549 66.7612 81.3334 64.7864 81.3334H37.0183C35.0487 81.3334 33.3692 79.8498 33.3741 77.8802C33.3756 76.99 33.415 74.4967 33.4711 72.7179C33.5032 71.6988 34.33 70.9297 35.3496 70.9297H66.472C67.4849 70.9297 68.3061 71.6896 68.3407 72.7019C68.4013 74.4768 68.4452 76.9779 68.4475 77.8802Z" fill="#4169E1" stroke="#1C1C1C" stroke-width="0.5" stroke-miterlimit="10" stroke-linejoin="round"/>
<path d="M43.7083 51.9426L35.8871 49.1646C31.8939 47.746 28.6357 44.9546 26.7133 41.3057C25.9873 39.9273 25.4589 38.455 25.1417 36.9291L22.9468 26.3526C22.7435 25.3733 22.9882 24.3661 23.6193 23.5891C24.2504 22.8122 25.1853 22.3672 26.1861 22.3672H33.1003V24.6031H26.1861C25.8611 24.6031 25.5572 24.7473 25.3528 24.9999C25.1484 25.2526 25.068 25.579 25.1339 25.8976L27.3299 36.4741C27.6047 37.7955 28.0615 39.0699 28.6904 40.2627C30.3502 43.4141 33.1717 45.8276 36.6355 47.0573L44.4567 49.8353L43.7094 51.9426H43.7083Z" fill="#FF9500" stroke="#1C1C1C" stroke-width="0.5" stroke-miterlimit="10" stroke-linejoin="round"/>
<path d="M58.1682 51.9426L57.4209 49.8353L65.2421 47.0573C68.7058 45.8276 71.5274 43.4141 73.1872 40.2627C73.8149 39.0699 74.2729 37.7955 74.5466 36.4741L76.7426 25.8976C76.8085 25.579 76.7292 25.2526 76.5236 24.9999C76.3181 24.7473 76.0143 24.6031 75.6904 24.6031H68.7762V22.3672H75.6904C76.6901 22.3672 77.6261 22.8122 78.2572 23.5891C78.8883 24.3661 79.134 25.3722 78.9296 26.3526L76.7336 36.9291C76.4175 38.455 75.8881 39.9273 75.1631 41.3057C73.2408 44.9557 69.9826 47.746 65.9893 49.1646L58.1682 51.9426Z" fill="#FF9500" stroke="#1C1C1C" stroke-width="0.5" stroke-miterlimit="10" stroke-linejoin="round"/>
<path d="M54.4357 58.1612V44.326H47.3852V58.1612C47.3852 59.2355 46.8245 60.2316 45.9064 60.7883L42.3499 62.9458C40.2254 64.2348 38.9285 66.5399 38.9285 69.0261V70.39H62.8913V69.0261C62.8913 66.5399 61.5945 64.2348 59.47 62.9458L55.9135 60.7883C54.9953 60.2316 54.4346 59.2355 54.4346 58.1612H54.4357Z" fill="#FF9500" stroke="#1C1C1C" stroke-width="0.5" stroke-miterlimit="10" stroke-linejoin="round"/>
<path d="M68.4475 73.7135C68.4523 75.6882 66.7612 77.1667 64.7864 77.1667H37.0183C35.0487 77.1667 33.3692 75.6832 33.3741 73.7135C33.375 73.1685 33.3901 72.6546 33.4146 72.1762C33.4667 71.1579 34.33 70.3911 35.3496 70.3911H66.472C67.4849 70.3911 68.3454 71.1482 68.4021 72.1595C68.4291 72.6405 68.4461 73.1601 68.4475 73.7135Z" fill="#CCD9FD" stroke="#1C1C1C" stroke-width="0.5" stroke-miterlimit="10" stroke-linejoin="round"/>
<path d="M50.6007 53.8091C41.3577 53.8091 33.694 46.6433 33.0662 37.4139L31.947 20.9426C37.3097 20.4787 43.0901 20.1791 49.2414 20.1411C56.4247 20.0964 63.1211 20.4116 69.2544 20.9438C68.8814 26.4338 68.5083 31.925 68.1352 37.415C67.5075 46.6444 59.8438 53.8102 50.6007 53.8102V53.8091Z" fill="#FFE2C8" stroke="#1C1C1C" stroke-width="0.5" stroke-miterlimit="10" stroke-linejoin="round"/>
<path d="M52.9704 35.4822C54.37 34.7423 55.3277 33.2295 55.3277 31.4833C55.3277 29.0082 53.4017 27 51.0233 27C48.6448 27 46.7188 29.006 46.7188 31.4833C46.7188 33.2295 47.6787 34.7423 49.0761 35.4822C46.2431 36.3366 44.1522 38.0421 44.0465 41.2417L44.0272 41.9736C44.0123 42.536 44.4642 43 45.0268 43H57C57.5523 43 58 42.5523 58 42L58 41.2417C57.8922 38.0421 55.8034 36.3366 52.9704 35.4822Z" fill="#FF9500"/>
<path d="M52.9704 35.4822L52.7367 35.0401C52.5574 35.1349 52.4532 35.3286 52.4727 35.5305C52.4923 35.7323 52.6319 35.9023 52.826 35.9609L52.9704 35.4822ZM49.0761 35.4822L49.2205 35.9609C49.4146 35.9023 49.5541 35.7324 49.5738 35.5306C49.5934 35.3288 49.4892 35.1352 49.3101 35.0403L49.0761 35.4822ZM44.0465 41.2417L43.5468 41.2252L43.5467 41.2285L44.0465 41.2417ZM58 41.2417L58.5 41.2417L58.5 41.2333L58.4997 41.2248L58 41.2417ZM58 42L58.5 42L58 42ZM52.9704 35.4822L53.2041 35.9242C54.768 35.0975 55.8277 33.4142 55.8277 31.4833H55.3277H54.8277C54.8277 33.0448 53.9719 34.3872 52.7367 35.0401L52.9704 35.4822ZM55.3277 31.4833H55.8277C55.8277 28.7516 53.697 26.5 51.0233 26.5V27V27.5C53.1064 27.5 54.8277 29.2648 54.8277 31.4833H55.3277ZM51.0233 27V26.5C48.3497 26.5 46.2188 28.7493 46.2188 31.4833H46.7188H47.2188C47.2188 29.2628 48.94 27.5 51.0233 27.5V27ZM46.7188 31.4833H46.2188C46.2188 33.4146 47.2809 35.0975 48.8422 35.9241L49.0761 35.4822L49.3101 35.0403C48.0764 34.3871 47.2188 33.0444 47.2188 31.4833H46.7188ZM49.0761 35.4822L48.9317 35.0035C47.4649 35.4459 46.1462 36.121 45.1768 37.1374C44.1977 38.1639 43.6035 39.509 43.5468 41.2252L44.0465 41.2417L44.5462 41.2582C44.5953 39.7748 45.0994 38.6674 45.9004 37.8276C46.7111 36.9777 47.8544 36.3729 49.2205 35.9609L49.0761 35.4822ZM44.0465 41.2417L43.5467 41.2285L43.5273 41.9603L44.0272 41.9736L44.527 41.9868L44.5463 41.2549L44.0465 41.2417ZM45.0268 43V43.5H57V43V42.5H45.0268V43ZM58 42L58.5 42L58.5 41.2417L58 41.2417L57.5 41.2417L57.5 42L58 42ZM58 41.2417L58.4997 41.2248C58.4419 39.5089 57.8478 38.1639 56.869 37.1374C55.8998 36.1211 54.5817 35.4459 53.1148 35.0035L52.9704 35.4822L52.826 35.9609C54.1921 36.3729 55.3349 36.9777 56.1453 37.8276C56.9461 38.6674 57.4503 39.7749 57.5003 41.2585L58 41.2417ZM57 43V43.5C57.8284 43.5 58.5 42.8284 58.5 42L58 42L57.5 42C57.5 42.2761 57.2761 42.5 57 42.5V43ZM44.0272 41.9736L43.5273 41.9603C43.505 42.804 44.1828 43.5 45.0268 43.5V43V42.5C44.7455 42.5 44.5195 42.268 44.527 41.9868L44.0272 41.9736Z" fill="#1C1C1C"/>
</svg>
