<svg width="62" height="62" viewBox="0 0 62 62" fill="none" xmlns="http://www.w3.org/2000/svg">
<g clip-path="url(#clip0_18011_4926)">
<path d="M47.1905 38.6796C47.1905 50.4545 37.508 60.0001 25.5637 60.0001C13.6194 60.0001 3.0796 49.6648 3.0796 37.89C1.91988 18.0263 13.6194 17.3592 25.5637 17.3592C37.508 17.3592 47.8465 18.3906 47.1905 38.6796Z" fill="#FF9500" stroke="#1C1C1C" stroke-width="0.5" stroke-miterlimit="10"/>
<path d="M25.054 54.3017C37.2341 54.3017 47.108 44.2644 47.108 31.8828C47.108 19.5012 37.2341 9.46393 25.054 9.46393C12.8739 9.46393 3 19.5012 3 31.8828C3 44.2644 12.8739 54.3017 25.054 54.3017Z" fill="#FFE2C8" stroke="#1C1C1C" stroke-width="0.5" stroke-miterlimit="10"/>
<path d="M25.1113 49.2459C34.7057 49.2459 42.4835 41.4681 42.4835 31.8737C42.4835 22.2793 34.7057 14.5015 25.1113 14.5015C15.5169 14.5015 7.73914 22.2793 7.73914 31.8737C7.73914 41.4681 15.5169 49.2459 25.1113 49.2459Z" fill="#FF9500" stroke="#1C1C1C" stroke-width="0.5" stroke-miterlimit="10"/>
<path d="M33.2482 26.7156C33.4553 28.7284 32.6271 29.9524 31.359 30.6324C33.4812 31.1764 34.8011 32.482 34.5423 35.4468C34.2058 39.1187 31.6178 40.1251 27.891 40.3427V43.2817C27.891 43.7917 27.4775 44.2051 26.9676 44.2051H26.5887C26.0787 44.2051 25.6653 43.7917 25.6653 43.2817V40.3971C25.0959 40.3971 24.5006 40.3971 23.9054 40.3699V43.2817C23.9054 43.7917 23.4919 44.2051 22.982 44.2051H22.6031C22.0931 44.2051 21.6797 43.7917 21.6797 43.2817V40.3427C21.162 40.3427 20.6444 40.3155 20.1009 40.3155H18.2937C17.7227 40.3155 17.2885 39.8024 17.3831 39.2392L17.5366 38.3248C17.6122 37.8743 18.0069 37.5478 18.4637 37.5516C19.2893 37.5585 19.2728 37.5411 19.2728 37.5411C19.8939 37.5411 20.0492 37.0788 20.1009 36.7524V30.6596H20.3339C20.2304 30.6596 20.1527 30.6596 20.1009 30.6596V26.2804C20.0233 25.818 19.7127 25.2468 18.8069 25.2468C18.8069 25.2468 18.8215 25.2315 18.1412 25.2353C17.6252 25.2382 17.2023 24.8239 17.2023 24.3078V23.695C17.2023 23.185 17.6158 22.7716 18.1258 22.7716H20.2821C20.7221 22.7716 21.1879 22.7716 21.6797 22.7716V19.8599C21.6797 19.3499 22.0931 18.9364 22.6031 18.9364H22.982C23.4919 18.9364 23.9054 19.3499 23.9054 19.8599V22.69C24.5006 22.69 25.07 22.6628 25.6653 22.6628V19.8599C25.6653 19.3499 26.0787 18.9364 26.5887 18.9364H26.9676C27.4775 18.9364 27.891 19.3499 27.891 19.8599V22.7716C30.7378 23.0164 33.0153 23.9412 33.2482 26.7156ZM30.1426 34.9844C30.1426 31.9924 25.4323 32.4276 23.9313 32.4276V37.5411C25.4323 37.5411 30.1426 37.8947 30.1426 34.9844ZM29.1332 27.7764C29.1332 25.0292 25.1994 25.4372 23.9313 25.4372V30.0884C25.1994 30.0884 29.1332 30.3876 29.1332 27.7764Z" fill="white"/>
<path d="M47.9848 29.7793C54.4694 29.7793 59.7262 24.5226 59.7262 18.038C59.7262 11.5534 54.4694 6.29666 47.9848 6.29666C41.5002 6.29666 36.2435 11.5534 36.2435 18.038C36.2435 24.5226 41.5002 29.7793 47.9848 29.7793Z" fill="#4169E1" stroke="#1C1C1C" stroke-width="0.5" stroke-linejoin="round"/>
<path d="M47.9848 26.4827C54.4694 26.4827 59.7262 21.2259 59.7262 14.7413C59.7262 8.25678 54.4694 3 47.9848 3C41.5002 3 36.2435 8.25678 36.2435 14.7413C36.2435 21.2259 41.5002 26.4827 47.9848 26.4827Z" fill="#E8EDFA" stroke="#1C1C1C" stroke-width="0.5" stroke-linejoin="round"/>
<g clip-path="url(#clip1_18011_4926)">
<path d="M53.5791 14.6959C54.0458 14.0947 53.6257 13.2187 52.8647 13.2063L48.4769 13.1349L48.9047 9.08584C49.0031 8.15445 47.8124 7.68514 47.2488 8.43319L41.9749 15.4337C41.5165 16.0422 41.9506 16.9127 42.7125 16.9127H47.0565L46.5715 20.9253C46.4591 21.8554 47.6432 22.3424 48.2177 21.6024L53.5791 14.6959Z" fill="#1C1C1C"/>
</g>
</g>
<defs>
<clipPath id="clip0_18011_4926">
<rect width="62" height="62" rx="5" fill="white"/>
</clipPath>
<clipPath id="clip1_18011_4926">
<rect width="13.8514" height="16.6217" fill="white" transform="translate(40.8607 6.6937)"/>
</clipPath>
</defs>
</svg>
