<svg width="102" height="102" viewBox="0 0 102 102" fill="none" xmlns="http://www.w3.org/2000/svg">
<rect x="0.5" y="0.5" width="101" height="101" rx="4.5" stroke="#9747FF" stroke-dasharray="10 5"/>
<path d="M71.6389 54.34C71.6389 65.4739 62.5885 74.5 51.4239 74.5C40.2594 74.5 30.4077 64.7273 30.4077 53.5933C29.3236 34.8107 40.2594 34.1799 51.4239 34.1799C62.5885 34.1799 72.252 35.1552 71.6389 54.34Z" fill="#A395CC" stroke="#1C1C1C" stroke-width="0.5" stroke-miterlimit="10"/>
<path d="M50.9477 70.3974C62.3326 70.3974 71.5619 60.9064 71.5619 49.1987C71.5619 37.491 62.3326 28 50.9477 28C39.5627 28 30.3334 37.491 30.3334 49.1987C30.3334 60.9064 39.5627 70.3974 50.9477 70.3974Z" fill="#F7F0FA" stroke="#1C1C1C" stroke-width="0.5" stroke-miterlimit="10"/>
<path d="M51.0003 65.6186C59.9684 65.6186 67.2384 58.2641 67.2384 49.1919C67.2384 40.1197 59.9684 32.7652 51.0003 32.7652C42.0322 32.7652 34.7622 40.1197 34.7622 49.1919C34.7622 58.2641 42.0322 65.6186 51.0003 65.6186Z" fill="#A395CC" stroke="#1C1C1C" stroke-width="0.5" stroke-miterlimit="10"/>
<path d="M48.1022 49.4857C49.4837 49.2512 50.4103 47.8622 50.1913 46.3831C49.9722 44.9039 48.675 43.9118 47.2935 44.1463C45.912 44.3808 44.9854 45.7697 45.2044 47.2489C45.4403 48.728 46.7375 49.7202 48.1022 49.4857ZM54.7064 49.4857C56.0879 49.2512 57.0145 47.8622 56.7955 46.3831C56.5765 44.9039 55.2792 43.9118 53.8977 44.1463C52.5162 44.3808 51.5896 45.7697 51.8086 47.2489C52.0276 48.728 53.3249 49.7202 54.7064 49.4857Z" fill="white"/>
<path d="M51.0176 36C43.8288 36 38 42.0569 38 49.5199H41.3206C41.3206 43.9137 45.6304 39.389 50.9999 39.389C56.3871 39.389 60.6792 43.9317 60.6792 49.5199H63.9998C64.0351 42.0569 58.2064 36 51.0176 36Z" fill="white"/>
</svg>
