<svg width="102" height="102" viewBox="0 0 102 102" fill="none" xmlns="http://www.w3.org/2000/svg">
<rect x="0.5" y="0.5" width="101" height="101" rx="4.5" stroke="#9747FF" stroke-dasharray="10 5"/>
<path d="M41.8273 67.5406H23.5412C22.6889 67.5406 21.998 68.2315 21.998 69.0838V71.4743C21.998 72.3266 22.6889 73.0175 23.5412 73.0175H41.8273C42.6795 73.0175 43.3704 72.3266 43.3704 71.4743V69.0838C43.3704 68.2315 42.6795 67.5406 41.8273 67.5406Z" fill="#FF9500" stroke="#1C1C1C" stroke-width="0.5" stroke-linejoin="round"/>
<path d="M74.4221 68.4772V70.502C74.4221 71.3673 74.2259 72.2147 73.8691 72.9729C73.5034 73.74 72.9682 74.4268 72.2992 74.9799C71.4072 75.7113 70.3368 76.1484 69.2485 76.2644H42.8809C42.6758 76.2911 42.4617 76.3 42.2565 76.3C40.9542 76.3 39.6429 75.854 38.5725 74.9799C37.9035 74.4268 37.3773 73.74 37.0115 72.9729C36.6547 72.2147 36.4585 71.3673 36.4585 70.502V40.727L38.1265 42.4039L39.9195 40.611H40.1692L41.9532 42.4039L43.7462 40.611H43.9959L45.7799 42.4039L47.5728 40.611H47.8226L49.6066 42.4039L51.3995 40.611H51.6493L53.4333 42.4039L55.2262 40.611H55.476L57.26 42.4039L59.0529 40.611H59.3027L61.0867 42.4039L62.8261 40.6645V68.4772H74.4221Z" fill="#4169E1" stroke="#1C1C1C" stroke-width="0.5" stroke-linejoin="round"/>
<path d="M41.8263 53.2864H23.5402C22.688 53.2864 21.9971 53.9773 21.9971 54.8296V57.2202C21.9971 58.0724 22.688 58.7633 23.5402 58.7633H41.8263C42.6786 58.7633 43.3694 58.0724 43.3694 57.2202V54.8296C43.3694 53.9773 42.6786 53.2864 41.8263 53.2864Z" fill="#FFE2C8" stroke="#1C1C1C" stroke-width="0.5" stroke-linejoin="round"/>
<path d="M41.8263 58.8884H23.5402C22.688 58.8884 21.9971 59.5793 21.9971 60.4315V62.8221C21.9971 63.6744 22.688 64.3653 23.5402 64.3653H41.8263C42.6786 64.3653 43.3694 63.6744 43.3694 62.8221V60.4315C43.3694 59.5793 42.6786 58.8884 41.8263 58.8884Z" fill="#FFE2C8" stroke="#1C1C1C" stroke-width="0.5" stroke-linejoin="round"/>
<path d="M41.8263 64.481H23.5402C22.688 64.481 21.9971 65.1719 21.9971 66.0242V68.4148C21.9971 69.267 22.688 69.9579 23.5402 69.9579H41.8263C42.6786 69.9579 43.3694 69.267 43.3694 68.4148V66.0242C43.3694 65.1719 42.6786 64.481 41.8263 64.481Z" fill="#FFE2C8" stroke="#1C1C1C" stroke-width="0.5" stroke-linejoin="round"/>
<path d="M61.0953 39.3355L59.3113 37.5515H59.0615L57.2775 39.3355L55.4935 37.5515H55.2438L53.4598 39.3355L51.6758 37.5515H51.426L49.642 39.3355L47.858 37.5515H47.6082L45.8242 39.3355L44.0402 37.5515H43.7905L42.0064 39.3355L40.2224 37.5515H39.9727L38.1887 39.3355L36.5206 37.6674V67.4425C36.5206 68.3077 36.7169 69.1551 37.0737 69.9133C37.4394 70.6804 37.9657 71.3673 38.6347 71.9203C39.7051 72.7945 41.0163 73.2405 42.3186 73.2405C42.5238 73.2405 42.7379 73.2405 42.943 73.2048C44.0313 73.0888 45.0928 72.6518 45.9937 71.9203C47.3317 70.8142 48.1167 69.1729 48.1167 67.4425V65.4176H62.8882V37.605L61.1488 39.3444L61.0953 39.3355Z" fill="#F0F0F5" stroke="#1C1C1C" stroke-width="0.5" stroke-linejoin="round"/>
<path d="M74.4216 65.4174V67.4423C74.4216 68.3075 74.2253 69.1549 73.8685 69.9131C73.5028 70.6802 72.9676 71.3671 72.2986 71.9201C71.4066 72.6516 70.3362 73.0886 69.248 73.2046H42.8804C43.9686 73.0886 45.0301 72.6516 45.931 71.9201C47.269 70.814 48.054 69.1728 48.054 67.4423V65.4174H74.4216Z" fill="#CCD9FD" stroke="#1C1C1C" stroke-width="0.5" stroke-linejoin="round"/>
<path d="M69.2472 73.2049C69.0421 73.2316 68.828 73.2405 68.6228 73.2405C68.4177 73.2405 68.2036 73.2405 67.9895 73.2049H69.2472Z" fill="white" stroke="#1C1C1C" stroke-width="0.5" stroke-linecap="round" stroke-linejoin="round"/>
<path d="M69.9715 73.2049H69.249" stroke="#1C1C1C" stroke-width="0.5" stroke-linecap="round" stroke-linejoin="round"/>
<path d="M41.8103 45.1959H54.6195" stroke="#1C1C1C" stroke-width="0.5" stroke-linecap="round" stroke-linejoin="round"/>
<path d="M41.8105 49.754H54.6197" stroke="#1C1C1C" stroke-width="0.5" stroke-linecap="round" stroke-linejoin="round"/>
<path d="M41.8105 54.321H54.6197" stroke="#1C1C1C" stroke-width="0.5" stroke-linecap="round" stroke-linejoin="round"/>
<path d="M41.8105 58.8793H54.6197" stroke="#1C1C1C" stroke-width="0.5" stroke-linecap="round" stroke-linejoin="round"/>
<path d="M80.8536 45.392C80.8536 53.2059 74.4223 59.5481 66.4923 59.5481C58.5624 59.5481 51.5691 52.6886 51.5691 44.8746C50.802 31.6908 58.5624 31.2448 66.4923 31.2448C74.4223 31.2448 81.2818 31.9317 80.8536 45.4009V45.392Z" fill="#FF9500" stroke="#1C1C1C" stroke-width="0.5" stroke-linejoin="round"/>
<path d="M66.1524 55.7661C74.2429 55.7661 80.7902 49.1029 80.7902 40.8875C80.7902 32.6722 74.2429 26 66.1524 26C58.0619 26 51.5146 32.6633 51.5146 40.8786C51.5146 49.0939 58.0709 55.7572 66.1524 55.7572V55.7661Z" fill="#FFE2C8" stroke="#1C1C1C" stroke-width="0.5" stroke-linejoin="round"/>
<path d="M66.1864 52.4123C72.5553 52.4123 77.72 47.2476 77.72 40.8787C77.72 34.5098 72.5553 29.3451 66.1864 29.3451C59.8175 29.3451 54.6528 34.5098 54.6528 40.8787C54.6528 47.2476 59.8175 52.4123 66.1864 52.4123Z" fill="#FF9500" stroke="#1C1C1C" stroke-width="0.5" stroke-linejoin="round"/>
<path d="M71.2731 37.4534C71.4069 38.7914 70.8627 39.6032 70.0153 40.0492C71.4247 40.406 72.2989 41.2801 72.1294 43.2425C71.9064 45.6777 70.1848 46.3467 67.714 46.4894V48.318C67.714 48.7284 67.3839 49.0584 66.9736 49.0584C66.5633 49.0584 66.2333 48.7284 66.2333 48.318V46.5251C65.8586 46.5251 65.4572 46.5251 65.0647 46.5073V48.318C65.0647 48.7284 64.7347 49.0584 64.3244 49.0584C63.914 49.0584 63.584 48.7284 63.584 48.318V46.4894C63.2361 46.4894 62.8972 46.4716 62.5314 46.4716H61.693C61.131 46.4716 60.6939 45.9631 60.792 45.4101C60.8634 44.9641 61.2559 44.643 61.7108 44.643C61.9962 44.643 61.9873 44.643 61.9873 44.643C62.3976 44.643 62.5047 44.3397 62.5404 44.1167V40.0759V37.168C62.4868 36.8647 62.2817 36.4812 61.684 36.4812C61.684 36.4812 61.684 36.4812 61.4521 36.4812C60.9972 36.4812 60.6226 36.1154 60.6226 35.6605C60.6226 35.2056 60.9883 34.8488 61.4343 34.8488H63.5929V33.038C63.5929 32.6277 63.923 32.2977 64.3333 32.2977C64.7436 32.2977 65.0737 32.6277 65.0737 33.038V34.7953C65.4661 34.7953 65.8497 34.7774 66.2422 34.7774V33.038C66.2422 32.6277 66.5722 32.2977 66.9825 32.2977C67.3929 32.2977 67.7229 32.6277 67.7229 33.038V34.8488C69.6139 35.0094 71.1214 35.6248 71.282 37.4713L71.2731 37.4534ZM69.2036 42.9482C69.2036 40.959 66.0727 41.2534 65.0826 41.2534V44.6519C66.0816 44.6519 69.2036 44.8838 69.2036 42.9571V42.9482ZM68.5346 38.1581C68.5346 36.3384 65.9211 36.606 65.0826 36.606V39.6924C65.9211 39.6924 68.5346 39.8886 68.5346 38.1581Z" fill="white"/>
</svg>
