<svg width="102" height="102" viewBox="0 0 102 102" fill="none" xmlns="http://www.w3.org/2000/svg">
<rect x="0.5" y="0.5" width="101" height="101" rx="4.5" stroke="#9747FF" stroke-dasharray="10 5"/>
<path d="M61.8925 25.1426C52.8725 25.0326 48.3625 25.0326 39.3525 25.1426C32.8925 31.6726 29.6125 34.9526 23.0825 41.4126C22.9725 50.4326 22.9725 54.9426 23.0825 63.9526C29.6125 70.4026 32.8925 73.6926 39.3425 80.2126C48.3625 80.3226 52.8725 80.3226 61.8825 80.2126C68.3325 73.6826 71.6225 70.4026 78.1425 63.9526C78.2525 54.9326 78.2525 50.4226 78.1425 41.4126C71.6125 34.9626 68.3325 31.6726 61.8825 25.1526L61.8925 25.1426Z" fill="#A395CC" stroke="#1C1C1C" stroke-width="0.5" stroke-miterlimit="10"/>
<path d="M61.8925 21.0825C52.8725 20.9725 48.3625 20.9725 39.3525 21.0825C32.8925 27.6125 29.6125 30.8925 23.0825 37.3425C22.9725 46.3625 22.9725 50.8725 23.0825 59.8825C29.6125 66.3325 32.8925 69.6225 39.3425 76.1425C48.3625 76.2525 52.8725 76.2525 61.8825 76.1425C68.3325 69.6125 71.6225 66.3325 78.1425 59.8825C78.2525 50.8625 78.2525 46.3525 78.1425 37.3425C71.6125 30.8925 68.3325 27.6025 61.8825 21.0825H61.8925Z" fill="#F7F0FA" stroke="#1C1C1C" stroke-width="0.5" stroke-linejoin="round"/>
<path d="M60.1325 25.4725C52.5225 25.4125 48.7225 25.4125 41.1125 25.4725C35.6925 30.9425 32.9425 33.6925 27.4725 39.1125C27.4125 46.7225 27.4125 50.5225 27.4725 58.1325C32.9425 63.5525 35.6925 66.3025 41.1125 71.7725C48.7225 71.8325 52.5225 71.8325 60.1325 71.7725C65.5525 66.3025 68.3025 63.5525 73.7725 58.1325C73.8325 50.5225 73.8325 46.7225 73.7725 39.1125C68.3025 33.6925 65.5525 30.9425 60.1325 25.4725Z" fill="#A395CC" stroke="#1C1C1C" stroke-width="0.5" stroke-miterlimit="10"/>
<path d="M48.9082 35.1941C50.0508 31.8443 54.8917 32.1697 55.5752 35.6423C56.0401 38.0039 58.4877 39.4073 60.7607 38.616L61.7207 38.282C64.9787 37.1478 67.6429 41.0484 65.4014 43.6707L65.2354 43.865C63.6931 45.6691 64.2381 48.4404 66.3486 49.5261C69.3625 51.0763 68.1812 55.6372 64.7939 55.5291L64.2148 55.5105C61.7077 55.4302 59.8081 57.7532 60.3857 60.1941L60.5859 61.0378C61.4052 64.499 56.9935 66.6981 54.7227 63.9607C53.2164 62.1449 50.4299 62.1187 48.8545 63.866C46.5007 66.4768 42.1663 64.444 42.7559 61.0193L42.8379 60.5457C43.2219 58.3159 41.7385 56.1924 39.5127 55.7859L36.875 55.3044C33.5574 54.6988 33.2678 50.0548 36.4844 49.0417C38.9435 48.2674 39.8954 45.2923 38.3428 43.2341L38.1953 43.0378C36.0664 40.2161 39.1141 36.4195 42.3291 37.8884L43.0879 38.2351C45.3034 39.2473 47.9089 38.1255 48.6953 35.8201L48.9082 35.1941Z" fill="#F7F0FA" stroke="black" stroke-width="0.5"/>
<path d="M49.3813 40.2539C50.1382 38.1583 53.169 38.3725 53.6235 40.5537C53.9535 42.1365 55.5876 43.0802 57.1235 42.5752L58.1226 42.2471C60.0961 41.5984 61.6495 43.988 60.2554 45.5283L60.1421 45.6533C59.0698 46.838 59.4343 48.7208 60.8716 49.4189C62.7113 50.3127 62.0293 53.0834 59.9849 53.0215L59.3872 53.0039C57.7129 52.9533 56.4539 54.5168 56.8608 56.1416L56.9146 56.3555C57.4686 58.5662 54.6793 60.0298 53.1753 58.3174C52.1401 57.1388 50.317 57.1017 49.2339 58.2363L49.1284 58.3457C47.5865 59.9609 44.888 58.5855 45.2886 56.3887C45.5626 54.8847 44.5569 53.4463 43.0503 53.1865L41.2573 52.877C39.2377 52.5288 39.0694 49.6928 41.0337 49.1084C42.6916 48.6153 43.3232 46.6015 42.2437 45.25L42.1411 45.1211C40.8092 43.4537 42.5948 41.1147 44.5542 41.96L45.4673 42.3545C46.9473 42.9932 48.66 42.2515 49.2075 40.7354L49.3813 40.2539Z" fill="#F7F0FA" stroke="black" stroke-width="0.5"/>
</svg>
