<svg width="62" height="62" viewBox="0 0 62 62" fill="none" xmlns="http://www.w3.org/2000/svg">
<g clip-path="url(#clip0_18011_8323)">
<path d="M15.7525 22.9691L3 16.8985L14.624 7.30688L20.1538 10.2208L15.7525 22.9691Z" fill="#CCD9FD" stroke="black" stroke-width="0.5" stroke-linejoin="round"/>
<path d="M15.7525 22.9692H44.6432L40.5805 10.2208H20.1538L15.7525 22.9692Z" fill="#E8EDFA"/>
<path d="M15.7525 22.9692H44.6432L40.5805 10.2208M44.6432 22.9692H15.7525L20.1538 10.2208H40.5805L44.6432 22.9692Z" stroke="black" stroke-width="0.5" stroke-linejoin="round"/>
<path d="M18.6303 5H41.9911L46.5053 7.24614L40.5805 10.2208H20.1539L14.5938 7.34375L18.6303 5Z" fill="#E8EDFA" stroke="black" stroke-width="0.5" stroke-linejoin="round"/>
<path d="M15.7525 22.9691H44.6432L30.5364 60L15.7525 22.9691Z" fill="#E8EDFA" stroke="black" stroke-width="0.5" stroke-linejoin="round"/>
<path d="M15.7525 22.9691L3 17L30.5364 60L15.7525 22.9691Z" fill="#CCD9FD" stroke="black" stroke-width="0.5" stroke-linejoin="round"/>
<path d="M58.5 16.5L44.6432 22.9691L30.5364 60L58.5 16.5Z" fill="#CCD9FD" stroke="black" stroke-width="0.5" stroke-linejoin="round"/>
<path d="M58.5 16.5L44.6432 22.9692L40.5805 10.2209L46.4489 7.18555L58.5 16.5Z" fill="#CCD9FD" stroke="black" stroke-width="0.5" stroke-linejoin="round"/>
<path d="M55.775 7.969C56.7101 8.31085 57.4642 8.59238 58.2082 8.8739C59.2639 9.26602 59.2639 10.7541 58.2082 11.1462C57.4541 11.4277 56.7 11.7093 55.775 12.0511C55.4432 12.1718 55.1718 12.4432 55.0411 12.775C54.6992 13.7101 54.4177 14.4642 54.1362 15.2082C53.744 16.2639 52.256 16.2639 51.8638 15.2082C51.5823 14.4541 51.3008 13.7 50.9589 12.775C50.8383 12.4432 50.5668 12.1718 50.225 12.0411C49.2899 11.6992 48.5358 11.4177 47.7918 11.1362C46.7361 10.744 46.7361 9.25597 47.7918 8.86385C48.5459 8.58232 49.3 8.3008 50.225 7.95894C50.5568 7.83829 50.8282 7.56682 50.9489 7.22497C51.2907 6.2899 51.5723 5.53582 51.8538 4.79179C52.2459 3.73607 53.734 3.73607 54.1261 4.79179C54.4076 5.54587 54.6891 6.29996 55.031 7.22497C55.1517 7.55677 55.4231 7.82824 55.7549 7.95894L55.775 7.969Z" fill="white" stroke="black" stroke-width="0.5" stroke-linejoin="round"/>
</g>
<defs>
<clipPath id="clip0_18011_8323">
<rect width="62" height="62" rx="5" fill="white"/>
</clipPath>
</defs>
</svg>
