<svg width="102" height="102" viewBox="0 0 102 102" fill="none" xmlns="http://www.w3.org/2000/svg">
<rect x="0.5" y="0.5" width="101" height="101" rx="4.5" stroke="#9747FF" stroke-dasharray="10 5"/>
<path d="M71.6389 54.34C71.6389 65.4739 62.5885 74.5 51.4239 74.5C40.2594 74.5 30.4077 64.7273 30.4077 53.5933C29.3236 34.8107 40.2594 34.1799 51.4239 34.1799C62.5885 34.1799 72.252 35.1552 71.6389 54.34Z" fill="#434248" stroke="#1C1C1C" stroke-width="0.5" stroke-miterlimit="10"/>
<path d="M50.9477 70.3974C62.3326 70.3974 71.5619 60.9064 71.5619 49.1987C71.5619 37.491 62.3326 28 50.9477 28C39.5627 28 30.3334 37.491 30.3334 49.1987C30.3334 60.9064 39.5627 70.3974 50.9477 70.3974Z" fill="#96949C" stroke="#1C1C1C" stroke-width="0.5" stroke-miterlimit="10"/>
<path d="M51.0003 65.6186C59.9684 65.6186 67.2384 58.2641 67.2384 49.1919C67.2384 40.1197 59.9684 32.7652 51.0003 32.7652C42.0322 32.7652 34.7622 40.1197 34.7622 49.1919C34.7622 58.2641 42.0322 65.6186 51.0003 65.6186Z" fill="#434248" stroke="#1C1C1C" stroke-width="0.5" stroke-miterlimit="10"/>
<path d="M62.4115 46.3686L61.6127 46.7729C60.9459 47.1144 60.5473 47.818 60.6049 48.5688C60.6259 48.8156 60.6312 49.0681 60.6312 49.3149C60.6312 50.6226 60.3736 51.8939 59.8695 53.0913C59.381 54.2469 58.682 55.2823 57.7943 56.1753C56.9067 57.0682 55.8664 57.7669 54.7162 58.2554C53.5239 58.7596 52.2525 59.0171 50.9447 59.0171C49.6369 59.017 48.3707 58.7596 47.1732 58.2554C46.5325 57.9822 45.9231 57.6408 45.3558 57.2417L46.9633 56.4224L47.0267 56.3901C48.2137 57.0519 49.5686 57.4038 50.9447 57.4038H51.0023C52.0581 57.3985 53.0882 57.1885 54.0599 56.7788C55.0316 56.3691 55.904 55.7863 56.6498 55.0405C58.1729 53.5173 59.0131 51.484 59.0131 49.3306C59.013 48.9788 58.9919 48.6218 58.9447 48.27L58.9291 48.1597L58.8295 48.2124L45.3978 55.0454L42.6195 56.4643L39.4838 58.061V56.2436L42.7142 54.5942L44.306 53.7847L62.4115 44.5513V46.3686ZM50.9506 39.3667C52.2583 39.3667 53.5246 39.6242 54.722 40.1284C55.3575 40.3963 55.9664 40.7381 56.5336 41.1372L56.4125 41.1997L54.8578 41.9927C53.6709 41.331 52.3212 40.9849 50.9506 40.9849H50.8871C49.8314 40.9954 48.8021 41.2055 47.8304 41.6099C46.8587 42.0196 45.9865 42.6023 45.2406 43.3481C43.7173 44.8766 42.8773 46.9045 42.8773 49.0581C42.8773 49.4099 42.8984 49.762 42.9457 50.1138L42.9613 50.2241L43.0609 50.1714L56.4808 43.3276L59.2601 41.9087L62.4066 40.3013V42.1186L59.1654 43.7739L57.5736 44.5825L43.4281 51.8052L43.3656 51.8413L42.641 52.2095L41.9056 52.5825V52.5767L41.8373 52.6089L39.4838 53.811V51.9936L40.2826 51.5893C40.9493 51.2479 41.348 50.5443 41.2904 49.7934C41.2746 49.5466 41.264 49.2991 41.264 49.0522C41.2641 47.7445 41.5216 46.4734 42.0258 45.2759C42.5142 44.1203 43.2133 43.0858 44.101 42.1929C44.9886 41.3052 46.0235 40.6013 47.1791 40.1128C48.3714 39.6243 49.6427 39.3667 50.9506 39.3667Z" fill="white"/>
</svg>
