<svg width="62" height="62" viewBox="0 0 62 62" fill="none" xmlns="http://www.w3.org/2000/svg">
<g clip-path="url(#clip0_18011_3440)">
<path d="M54.5413 49.1701C36.6524 49.4662 18.7902 49.4662 0.901309 49.1701C0.535501 36.5559 0.535501 24.0135 0.901309 11.3903C18.7902 11.0942 36.6524 11.0942 54.5413 11.3903C54.9071 24.0045 54.9071 36.5469 54.5413 49.1611V49.1701Z" fill="#CCD9FD" stroke="#1C1C1C" stroke-width="0.5" stroke-linejoin="round"/>
<path d="M54.5315 45.6532C36.6783 46.0389 18.8073 46.0569 0.954044 45.6532C0.588235 32.2135 0.588235 18.8547 0.954044 5.42403C18.8073 5.02031 36.6783 5.03825 54.5315 5.42403C54.8973 18.8547 54.8973 32.2135 54.5315 45.6532Z" fill="#4169E1" stroke="#1C1C1C" stroke-width="0.5" stroke-linejoin="round"/>
<path d="M50.2578 41.6787C35.2418 41.912 20.2259 41.885 5.21881 41.6787C4.95115 30.9216 4.95115 20.1466 5.21881 9.38953C20.2348 9.18318 35.2508 9.15626 50.2578 9.38953C50.5255 20.1466 50.5255 30.9216 50.2578 41.6787Z" fill="#E8EDFA" stroke="#1C1C1C" stroke-width="0.5" stroke-linejoin="round"/>
<path d="M32.3331 37.3095C23.8303 37.3274 19.5745 37.3095 11.0627 37.2467C15.2294 30.9754 17.3885 27.8084 21.6712 21.4654C25.936 27.7995 28.0951 30.9754 32.3331 37.3005V37.3095Z" fill="#FFE2C8" stroke="#1C1C1C" stroke-width="0.5" stroke-linecap="round" stroke-linejoin="round"/>
<path d="M43.4236 37.2556C37.3833 37.3005 34.3587 37.3095 28.3184 37.3095C31.343 32.8057 32.8687 30.5538 35.9111 26.05C38.9446 30.5448 40.4614 32.7877 43.4236 37.2467V37.2556Z" fill="#FFE2C8" stroke="#1C1C1C" stroke-width="0.5" stroke-linecap="round" stroke-linejoin="round"/>
<path d="M33.5824 18.8906C33.5824 16.9168 31.9764 15.3109 30.0225 15.3019C28.0596 15.3019 26.4714 16.9078 26.4714 18.8816C26.4714 20.8554 28.0685 22.4613 30.0314 22.4613C31.9942 22.4613 33.5913 20.8643 33.5913 18.8816L33.5824 18.8906Z" fill="#FF9500" stroke="#1C1C1C" stroke-width="0.5" stroke-miterlimit="10"/>
<path d="M48.921 55.872C55.8 55.872 61.3763 50.1749 61.3763 43.1501C61.3763 36.1253 55.8 30.4282 48.921 30.4282C42.042 30.4282 36.4746 36.1253 36.4746 43.1501C36.4746 50.1749 42.042 55.872 48.921 55.872Z" fill="#FFE2C8" stroke="#1C1C1C" stroke-width="0.5" stroke-miterlimit="10"/>
<path d="M48.9478 53.001C54.3635 53.001 58.7621 48.5869 58.7621 43.1411C58.7621 37.6953 54.3635 33.2812 48.9478 33.2812C43.532 33.2812 39.1423 37.6953 39.1423 43.1411C39.1423 48.5869 43.532 53.001 48.9478 53.001Z" fill="#FF9500" stroke="#1C1C1C" stroke-width="0.5" stroke-miterlimit="10"/>
<path d="M53.5516 40.2164C53.6676 41.3558 53.1947 42.0556 52.4809 42.4413C53.6765 42.7464 54.426 43.491 54.2832 45.1777C54.0869 47.2591 52.6326 47.8333 50.527 47.9589V49.52C50.527 49.8699 50.2415 50.148 49.8935 50.148C49.5455 50.148 49.269 49.8609 49.269 49.52V47.9859C48.9478 47.9859 48.6087 47.9859 48.2697 47.9679V49.511C48.2697 49.8609 47.9931 50.1391 47.6362 50.1391C47.2793 50.1391 47.0117 49.852 47.0117 49.511V47.95C46.7172 47.95 46.4317 47.932 46.1194 47.932H45.3878C44.9149 47.932 44.5491 47.5014 44.6294 47.0349V47.0169C44.7008 46.6401 45.0309 46.3709 45.4057 46.3709C45.6555 46.3709 45.6555 46.3709 45.6555 46.3709C46.0124 46.3709 46.0927 46.1108 46.1284 45.9224V42.4683V39.9831C46.0837 39.7229 45.9053 39.3999 45.3967 39.3999C45.3967 39.3999 45.3967 39.3999 45.1915 39.3999C44.8079 39.3999 44.4956 39.0859 44.4956 38.7001C44.4956 38.3144 44.799 38.0003 45.1915 38.0003H47.0295V36.4572C47.0295 36.1073 47.3061 35.8292 47.654 35.8292C48.002 35.8292 48.2875 36.1163 48.2875 36.4572V37.9555C48.6266 37.9555 48.9478 37.9375 49.2868 37.9375V36.4572C49.2868 36.1073 49.5634 35.8292 49.9113 35.8292C50.2593 35.8292 50.5448 36.1163 50.5448 36.4572V38.0003C52.1508 38.1349 53.4445 38.6643 53.5694 40.2433L53.5516 40.2164ZM51.7939 44.9086C51.7939 43.2129 49.1351 43.4551 48.2875 43.4551V46.362C49.1351 46.362 51.7939 46.5594 51.7939 44.9086ZM51.2229 40.8175C51.2229 39.2564 49.0013 39.4897 48.2875 39.4897V42.1273C49.0013 42.1273 51.2229 42.2978 51.2229 40.8175Z" fill="white"/>
</g>
<defs>
<clipPath id="clip0_18011_3440">
<rect width="62" height="62" rx="5" fill="white"/>
</clipPath>
</defs>
</svg>
