<svg width="102" height="102" viewBox="0 0 102 102" fill="none" xmlns="http://www.w3.org/2000/svg">
<rect x="0.5" y="0.5" width="101" height="101" rx="4.5" stroke="#9747FF" stroke-dasharray="10 5"/>
<path d="M59.211 72.0605H41.8755C41.209 72.0605 40.666 71.5257 40.666 70.8511C40.666 70.1764 41.2008 69.6416 41.8755 69.6416H59.211C59.8774 69.6416 60.4204 70.1846 60.4204 70.8511C60.4204 71.5175 59.8856 72.0605 59.211 72.0605Z" fill="#FF9500" stroke="#1C1C1C" stroke-width="0.5" stroke-linejoin="round"/>
<path d="M46.1067 74.0926C46.1067 74.5204 45.8599 74.9236 45.4896 75.1457C41.4499 77.5235 39.2449 78.8481 35.09 81.3C30.9104 78.8564 28.6889 77.5235 24.6327 75.1457C24.2542 74.9236 24.0156 74.5204 24.0156 74.0761C23.9827 69.0985 23.9992 66.3751 24.0897 61.1753C28.4914 63.6271 30.7129 64.9271 35.164 67.4941C39.5822 64.9271 41.7954 63.6271 46.1643 61.1753C46.1972 66.3834 46.189 69.0985 46.1067 74.0926Z" fill="#FF9500" stroke="#1C1C1C" stroke-width="0.5" stroke-linejoin="round"/>
<path d="M78.0125 74.0926C78.0125 74.5204 77.7739 74.9236 77.4037 75.1457C73.3639 77.5235 71.159 78.8481 67.004 81.3C62.8244 78.8564 60.603 77.5235 56.5468 75.1457C56.1683 74.9236 55.9297 74.5204 55.9297 74.0761C55.8968 69.0985 55.9132 66.3751 56.0038 61.1753C60.3973 63.6271 62.627 64.9271 67.0781 67.4941C71.4881 64.9271 73.7013 63.6271 78.0783 61.1753C78.1113 66.3834 78.103 69.0985 78.0125 74.0926Z" fill="#FF9500" stroke="#1C1C1C" stroke-width="0.5" stroke-linejoin="round"/>
<path d="M66.4197 60.3527L65.8438 60.3856M66.4197 56.5515L65.8438 56.5844" stroke="#1C1C1C" stroke-width="0.5" stroke-linejoin="round"/>
<path d="M46.1644 58.8469C41.7956 61.2987 39.5824 62.6069 35.1642 65.1657C30.7213 62.5987 28.4916 61.2987 24.0898 58.8469C28.3024 56.3704 30.5074 55.0376 34.4566 52.7092C34.8433 52.4788 35.3287 52.4788 35.7154 52.7092C39.6893 55.0376 41.919 56.3704 46.1562 58.8552L46.1644 58.8469Z" fill="#F0F0F5" stroke="#1C1C1C" stroke-width="0.5" stroke-linejoin="round"/>
<path d="M46.1622 58.8467C46.1951 64.0547 46.1869 66.7698 46.1046 71.764C46.1046 72.2 45.866 72.595 45.4875 72.8171C41.4478 75.1949 39.2428 76.5195 35.0879 78.9713C35.1126 73.4506 35.129 70.6862 35.1619 65.1655C39.5801 62.5985 41.7934 61.2985 46.1622 58.8467Z" fill="#4169E1" stroke="#1C1C1C" stroke-width="0.5" stroke-linejoin="round"/>
<path d="M35.164 65.166C35.1393 70.6867 35.1229 73.4511 35.09 78.9718C30.9104 76.5283 28.6889 75.1954 24.6327 72.8176C24.2542 72.5955 24.0156 72.1923 24.0156 71.748C23.9827 66.7621 23.9992 64.047 24.0897 58.839C28.4914 61.299 30.7129 62.599 35.164 65.1577V65.166Z" fill="#CCD9FD"/>
<path d="M35.164 65.166C35.1393 70.6867 35.1229 73.4511 35.09 78.9718C30.9104 76.5283 28.6889 75.1954 24.6327 72.8176C24.2542 72.5955 24.0156 72.1923 24.0156 71.748C23.9827 66.7621 23.9992 64.047 24.0897 58.839C28.4914 61.299 30.7129 62.599 35.164 65.1577V65.166Z" fill="#CCD9FD" stroke="#1C1C1C" stroke-width="0.5" stroke-linejoin="round"/>
<path d="M35.164 65.166C35.1393 70.6867 35.1229 73.4511 35.09 78.9718C30.9104 76.5283 28.6889 75.1954 24.6327 72.8176C24.2542 72.5955 24.0156 72.1923 24.0156 71.748C23.9827 66.7621 23.9992 64.047 24.0897 58.839C28.4914 61.299 30.7129 62.599 35.164 65.1577V65.166Z" stroke="#1C1C1C" stroke-width="0.5" stroke-linejoin="round"/>
<path d="M78.0765 58.8469C73.7077 61.2987 71.4945 62.6069 67.0763 65.1657C62.6334 62.5987 60.4037 61.2987 56.002 58.8469C60.2145 56.3704 62.4195 55.0376 66.3687 52.7092C66.7554 52.4788 67.2408 52.4788 67.6275 52.7092C71.6014 55.0376 73.8311 56.3704 78.0683 58.8552L78.0765 58.8469Z" fill="#F0F0F5" stroke="#1C1C1C" stroke-width="0.5" stroke-linejoin="round"/>
<path d="M78.0763 58.8467C78.1092 64.0547 78.101 66.7698 78.0187 71.764C78.0187 72.2 77.7801 72.595 77.4016 72.8171C73.3619 75.1949 71.1569 76.5195 67.002 78.9713C67.0266 73.4506 67.0431 70.6862 67.076 65.1655C71.4942 62.5985 73.7074 61.2985 78.0763 58.8467Z" fill="#4169E1" stroke="#1C1C1C" stroke-width="0.5" stroke-linejoin="round"/>
<path d="M67.0781 65.1659C67.0534 70.6866 67.0369 73.4511 67.004 78.9718C62.8244 76.5282 60.603 75.1953 56.5468 72.8175C56.1683 72.5954 55.9297 72.1922 55.9297 71.7479C55.8968 66.762 55.9132 64.0469 56.0038 58.8389C60.4055 61.2989 62.627 62.5989 67.0781 65.1576V65.1659Z" fill="#CCD9FD" stroke="#1C1C1C" stroke-width="0.5" stroke-linejoin="round"/>
<path d="M59.211 70.0283H41.8755C41.209 70.0283 40.666 69.4935 40.666 68.8188C40.666 68.1442 41.2008 67.6094 41.8755 67.6094H59.211C59.8774 67.6094 60.4204 68.1524 60.4204 68.8188C60.4204 69.4853 59.8856 70.0283 59.211 70.0283Z" fill="#CCD9FD" stroke="#1C1C1C" stroke-width="0.5" stroke-linejoin="round"/>
<path d="M33.7637 57.8843V40.5488C33.7637 39.8824 34.2985 39.3394 34.9731 39.3394C35.6478 39.3394 36.1826 39.8741 36.1826 40.5488V57.8843C36.1826 58.5508 35.6396 59.0938 34.9731 59.0938C34.3067 59.0938 33.7637 58.559 33.7637 57.8843Z" fill="#CCD9FD" stroke="#1C1C1C" stroke-width="0.5" stroke-linejoin="round"/>
<path d="M65.6777 57.8843V40.5488C65.6777 39.8824 66.2125 39.3394 66.8872 39.3394C67.5619 39.3394 68.0966 39.8741 68.0966 40.5488V57.8843C68.0966 58.5508 67.5536 59.0938 66.8872 59.0938C66.2208 59.0938 65.6777 58.559 65.6777 57.8843Z" fill="#CCD9FD" stroke="#1C1C1C" stroke-width="0.5" stroke-linejoin="round"/>
<path d="M46.1644 27.3105C41.7956 29.7623 39.5824 31.0705 35.1642 33.6293C30.7213 31.0623 28.4916 29.7623 24.0898 27.3105C28.3024 24.834 30.5074 23.5012 34.4566 21.1727C34.8433 20.9424 35.3287 20.9424 35.7154 21.1727C39.6893 23.5012 41.919 24.834 46.1562 27.3187L46.1644 27.3105Z" fill="#F0F0F5"/>
<path d="M46.1644 27.3105C41.7956 29.7623 39.5824 31.0705 35.1642 33.6293C30.7213 31.0623 28.4916 29.7623 24.0898 27.3105C28.3024 24.834 30.5074 23.5012 34.4566 21.1727C34.8433 20.9424 35.3287 20.9424 35.7154 21.1727C39.6893 23.5012 41.919 24.834 46.1562 27.3187L46.1644 27.3105Z" fill="#F0F0F5" stroke="#1C1C1C" stroke-width="0.5" stroke-linejoin="round"/>
<path d="M46.1644 27.3105C41.7956 29.7623 39.5824 31.0705 35.1642 33.6293C30.7213 31.0623 28.4916 29.7623 24.0898 27.3105C28.3024 24.834 30.5074 23.5012 34.4566 21.1727C34.8433 20.9424 35.3287 20.9424 35.7154 21.1727C39.6893 23.5012 41.919 24.834 46.1562 27.3187L46.1644 27.3105Z" stroke="#1C1C1C" stroke-width="0.5" stroke-linejoin="round"/>
<path d="M46.1622 27.3103C46.1951 32.5183 46.1869 35.2334 46.1046 40.2276C46.1046 40.6636 45.866 41.0586 45.4875 41.2807C41.4478 43.6585 39.2428 44.9831 35.0879 47.4349C35.1126 41.9142 35.129 39.1498 35.1619 33.6291C39.5801 31.062 41.7934 29.7621 46.1622 27.3103Z" fill="#4169E1" stroke="#1C1C1C" stroke-width="0.5" stroke-linejoin="round"/>
<path d="M35.164 33.6373C35.1393 39.158 35.1229 41.9225 35.09 47.4432C30.9104 44.9996 28.6889 43.6667 24.6327 41.289C24.2542 41.0668 24.0156 40.6637 24.0156 40.2194C23.9827 35.2335 23.9992 32.5184 24.0897 27.3103C28.4914 29.7703 30.7129 31.0703 35.164 33.6291V33.6373Z" fill="#CCD9FD"/>
<path d="M35.164 33.6373C35.1393 39.158 35.1229 41.9225 35.09 47.4432C30.9104 44.9996 28.6889 43.6667 24.6327 41.289C24.2542 41.0668 24.0156 40.6637 24.0156 40.2194C23.9827 35.2335 23.9992 32.5184 24.0897 27.3103C28.4914 29.7703 30.7129 31.0703 35.164 33.6291V33.6373Z" fill="#CCD9FD" stroke="#1C1C1C" stroke-width="0.5" stroke-linejoin="round"/>
<path d="M35.164 33.6373C35.1393 39.158 35.1229 41.9225 35.09 47.4432C30.9104 44.9996 28.6889 43.6667 24.6327 41.289C24.2542 41.0668 24.0156 40.6637 24.0156 40.2194C23.9827 35.2335 23.9992 32.5184 24.0897 27.3103C28.4914 29.7703 30.7129 31.0703 35.164 33.6291V33.6373Z" stroke="#1C1C1C" stroke-width="0.5" stroke-linejoin="round"/>
<path d="M78.0765 27.3106C73.6995 29.7706 71.4863 31.0706 67.0763 33.6376C62.6252 31.0706 60.3955 29.7706 56.002 27.3106C60.2145 24.8341 62.4195 23.5012 66.3687 21.1728C66.7554 20.9424 67.2408 20.9424 67.6275 21.1728C71.6097 23.5012 73.8311 24.8341 78.0765 27.3106Z" fill="#F0F0F5"/>
<path d="M78.0765 27.3106C73.6995 29.7706 71.4863 31.0706 67.0763 33.6376C62.6252 31.0706 60.3955 29.7706 56.002 27.3106C60.2145 24.8341 62.4195 23.5012 66.3687 21.1728C66.7554 20.9424 67.2408 20.9424 67.6275 21.1728C71.6097 23.5012 73.8311 24.8341 78.0765 27.3106Z" fill="#F0F0F5" stroke="#1C1C1C" stroke-width="0.5" stroke-linejoin="round"/>
<path d="M78.0765 27.3106C73.6995 29.7706 71.4863 31.0706 67.0763 33.6376C62.6252 31.0706 60.3955 29.7706 56.002 27.3106C60.2145 24.8341 62.4195 23.5012 66.3687 21.1728C66.7554 20.9424 67.2408 20.9424 67.6275 21.1728C71.6097 23.5012 73.8311 24.8341 78.0765 27.3106Z" stroke="#1C1C1C" stroke-width="0.5" stroke-linejoin="round"/>
<path d="M78.0763 27.3103C78.1092 32.5184 78.101 35.2335 78.0187 40.2276C78.0187 40.6637 77.7801 41.0586 77.4016 41.2807C73.3619 43.6585 71.1569 44.9831 67.002 47.435C67.0266 41.9143 67.0431 39.1498 67.076 33.6291C71.4942 31.0621 73.7074 29.7621 78.0763 27.3103Z" fill="#4169E1" stroke="#1C1C1C" stroke-width="0.5" stroke-linejoin="round"/>
<path d="M67.0782 33.6373C67.0535 39.158 67.0371 41.9225 67.0041 47.4432C62.8245 44.9996 60.6031 43.6668 56.5469 41.289C56.1684 41.0668 55.9298 40.6637 55.9298 40.2194C55.8969 35.2335 55.9134 32.5184 56.0039 27.3103C60.4056 29.7704 62.6271 31.0703 67.0782 33.6291V33.6373Z" fill="#CCD9FD"/>
<path d="M67.0782 33.6373C67.0535 39.158 67.0371 41.9225 67.0041 47.4432C62.8245 44.9996 60.6031 43.6668 56.5469 41.289C56.1684 41.0668 55.9298 40.6637 55.9298 40.2194C55.8969 35.2335 55.9134 32.5184 56.0039 27.3103C60.4056 29.7704 62.6271 31.0703 67.0782 33.6291V33.6373Z" fill="#CCD9FD" stroke="#1C1C1C" stroke-width="0.5" stroke-linejoin="round"/>
<path d="M67.0782 33.6373C67.0535 39.158 67.0371 41.9225 67.0041 47.4432C62.8245 44.9996 60.6031 43.6668 56.5469 41.289C56.1684 41.0668 55.9298 40.6637 55.9298 40.2194C55.8969 35.2335 55.9134 32.5184 56.0039 27.3103C60.4056 29.7704 62.6271 31.0703 67.0782 33.6291V33.6373Z" stroke="#1C1C1C" stroke-width="0.5" stroke-linejoin="round"/>
<path d="M59.211 38.5002H41.8755C41.209 38.5002 40.666 37.9654 40.666 37.2908C40.666 36.6161 41.2008 36.0813 41.8755 36.0813H59.211C59.8774 36.0813 60.4204 36.6243 60.4204 37.2908C60.4204 37.9572 59.8856 38.5002 59.211 38.5002Z" fill="#CCD9FD" stroke="#1C1C1C" stroke-width="0.5" stroke-linejoin="round"/>
<path d="M61.6884 54.9716C61.6884 60.8461 56.8588 65.6016 50.902 65.6016C44.9453 65.6016 39.6878 60.4512 39.6878 54.5767C39.1119 44.6707 44.9453 44.3416 50.902 44.3416C56.8588 44.3416 62.0175 44.8599 61.6884 54.9716Z" fill="#FF9500" stroke="#1C1C1C" stroke-width="0.5" stroke-linejoin="round"/>
<path d="M50.6468 62.7632C56.7187 62.7632 61.647 57.7608 61.647 51.5819C61.647 45.403 56.7269 40.4006 50.6468 40.4006C44.5666 40.4006 39.6465 45.403 39.6465 51.5819C39.6465 57.7608 44.5666 62.7632 50.6468 62.7632Z" fill="#FFE2C8" stroke="#1C1C1C" stroke-width="0.5" stroke-linejoin="round"/>
<path d="M50.6715 60.2457C55.4599 60.2457 59.3351 56.3705 59.3351 51.5821C59.3351 46.7936 55.4599 42.9185 50.6715 42.9185C45.883 42.9185 42.0078 46.7936 42.0078 51.5821C42.0078 56.3705 45.883 60.2457 50.6715 60.2457Z" fill="#FF9500" stroke="#1C1C1C" stroke-width="0.5" stroke-linejoin="round"/>
<path d="M54.4913 49.0069C54.5901 50.0107 54.1787 50.6195 53.5452 50.9569C54.6065 51.2284 55.2647 51.8784 55.1331 53.3593C54.9685 55.1941 53.6768 55.696 51.8174 55.8029V57.1769C51.8174 57.4813 51.5706 57.7282 51.2661 57.7282C50.9617 57.7282 50.7149 57.4813 50.7149 57.1769V55.8358C50.4269 55.8358 50.1307 55.8358 49.8345 55.8194V57.1769C49.8345 57.4813 49.5877 57.7282 49.2833 57.7282C48.9789 57.7282 48.732 57.4813 48.732 57.1769V55.8029C48.477 55.8029 48.2137 55.7865 47.9422 55.7865H47.3087C46.8808 55.7865 46.56 55.408 46.634 54.9884C46.6916 54.651 46.9878 54.4124 47.3251 54.4124C47.539 54.4124 47.5308 54.4124 47.5308 54.4124C47.8435 54.4124 47.9175 54.1821 47.9422 54.0175V50.9815V48.8012C47.9011 48.5709 47.7447 48.2829 47.3004 48.2829C47.3004 48.2829 47.3004 48.2829 47.1194 48.2829C46.7739 48.2829 46.4941 48.0114 46.4941 47.6658C46.4941 47.3203 46.7657 47.057 47.103 47.057H48.7238V45.6994C48.7238 45.395 48.9706 45.1482 49.2751 45.1482C49.5795 45.1482 49.8263 45.395 49.8263 45.6994V47.0159C50.1225 47.0159 50.4105 46.9994 50.7067 46.9994V45.6994C50.7067 45.395 50.9535 45.1482 51.2579 45.1482C51.5623 45.1482 51.8092 45.395 51.8092 45.6994V47.057C53.2325 47.1804 54.3679 47.6411 54.4831 49.0234L54.4913 49.0069ZM52.9363 53.1289C52.9363 51.6398 50.5915 51.8537 49.8428 51.8537V54.4042C50.5915 54.4042 52.9363 54.577 52.9363 53.1289ZM52.4345 49.5335C52.4345 48.1595 50.4763 48.3652 49.8428 48.3652V50.6854C50.4763 50.6854 52.4345 50.8335 52.4345 49.5335Z" fill="white"/>
</svg>
