<svg width="102" height="102" viewBox="0 0 102 102" fill="none" xmlns="http://www.w3.org/2000/svg">
<rect x="0.5" y="0.5" width="101" height="101" rx="4.5" stroke="#9747FF" stroke-dasharray="10 5"/>
<path d="M49.844 53.0221C49.844 49.4271 49.7593 45.9421 49.6053 42.574C49.4961 40.1855 47.6715 38.2516 45.2816 38.1806C44.8428 38.1676 44.4401 37.8103 44.4373 37.3713C44.4262 35.633 44.4136 33.919 44.3993 32.2308C44.3967 31.9291 44.2642 31.6337 44.0003 31.4874C43.6757 31.3075 43.3256 31.2099 42.953 31.2404C42.68 31.2625 42.4194 31.3512 42.1729 31.4878C41.9095 31.6338 41.7773 31.9287 41.7746 32.2299C41.7594 33.9342 41.7454 35.6669 41.7335 37.4266C41.7307 37.8396 41.3575 38.1763 40.9447 38.1903C38.7262 38.2656 37.0133 40.0358 36.873 42.2512C36.6672 45.4985 36.5454 48.8922 36.533 52.4212C36.5191 56.3884 36.6441 60.1876 36.8731 63.8032C37.0138 66.0242 38.7039 67.81 40.9275 67.8997C41.3448 67.9166 41.7315 68.2579 41.7344 68.6755C41.7462 70.4236 41.7597 72.1446 41.7749 73.8375C41.7774 74.1182 41.8918 74.3939 42.1263 74.548C42.4217 74.742 42.7427 74.8625 43.0858 74.8625C43.4294 74.8625 43.7509 74.7421 44.0468 74.5482C44.2819 74.3941 44.3966 74.1178 44.399 73.8367C44.4134 72.1605 44.4261 70.4594 44.4372 68.7334C44.4401 68.289 44.8575 67.9267 45.3016 67.9112C47.6965 67.8278 49.4954 65.8765 49.6049 63.4828C49.7592 60.1107 49.844 56.6216 49.844 53.0221Z" fill="#CCD9FD" stroke="#1C1C1C" stroke-width="0.5" stroke-miterlimit="10"/>
<path fill-rule="evenodd" clip-rule="evenodd" d="M36.5473 55.3335C36.5396 55.9 36.5347 56.4702 36.5327 57.044C36.5187 61.0111 36.6437 64.8103 36.8728 68.4259C37.0135 70.6469 38.7036 72.4328 40.9272 72.5225C41.3444 72.5393 41.7312 72.8807 41.734 73.2983C41.7459 75.0464 41.7594 76.7673 41.7746 78.4603C41.7771 78.7409 41.8914 79.0167 42.126 79.1708C42.4213 79.3648 42.7424 79.4852 43.0855 79.4852C43.4291 79.4852 43.7506 79.3648 44.0465 79.1709C44.2816 79.0168 44.3963 78.7405 44.3987 78.4594C44.413 76.7832 44.4258 75.0821 44.4369 73.3562C44.4397 72.9117 44.8571 72.5494 45.3013 72.5339C47.6961 72.4505 49.4951 70.4993 49.6046 68.1055C49.7589 64.7335 49.8437 61.2444 49.8437 57.6448C49.8437 56.8694 49.8397 56.0991 49.832 55.3339C49.8039 58.1201 49.7256 60.8374 49.6046 63.4827C49.4951 65.8765 47.6961 67.8277 45.3013 67.9111C44.8571 67.9266 44.4397 68.2889 44.4369 68.7334C44.4258 70.4593 44.413 72.1604 44.3987 73.8366C44.3963 74.1177 44.2816 74.394 44.0465 74.5481C43.7506 74.742 43.4291 74.8624 43.0855 74.8624C42.7424 74.8624 42.4213 74.742 42.126 74.548C41.8914 74.3939 41.7771 74.1181 41.7746 73.8375C41.7594 72.1445 41.7459 70.4236 41.734 68.6754C41.7312 68.2579 41.3444 67.9165 40.9272 67.8997C38.7036 67.81 37.0135 66.0241 36.8728 63.8031C36.7004 61.0817 36.5869 58.2562 36.5473 55.3335Z" fill="#4169E1"/>
<path d="M36.5473 55.3335L36.7973 55.3301L36.2973 55.3301L36.5473 55.3335ZM36.5327 57.044L36.7827 57.0449L36.7827 57.0449L36.5327 57.044ZM36.8728 68.4259L36.6233 68.4417L36.8728 68.4259ZM40.9272 72.5225L40.9373 72.2727L40.9373 72.2727L40.9272 72.5225ZM41.734 73.2983L41.484 73.3L41.484 73.3L41.734 73.2983ZM41.7746 78.4603L41.5246 78.4625L41.5246 78.4625L41.7746 78.4603ZM42.126 79.1708L42.2632 78.9618L42.2632 78.9618L42.126 79.1708ZM44.0465 79.1709L44.1835 79.38L44.1835 79.38L44.0465 79.1709ZM44.3987 78.4594L44.1487 78.4573L44.1487 78.4573L44.3987 78.4594ZM44.4369 73.3562L44.6869 73.3578L44.6869 73.3578L44.4369 73.3562ZM45.3013 72.5339L45.2926 72.2841L45.2926 72.2841L45.3013 72.5339ZM49.6046 68.1055L49.3549 68.0941L49.3549 68.0941L49.6046 68.1055ZM49.832 55.3339L50.082 55.3314L49.582 55.3314L49.832 55.3339ZM49.6046 63.4827L49.3549 63.4713L49.3549 63.4713L49.6046 63.4827ZM45.3013 67.9111L45.2926 67.6613L45.2926 67.6613L45.3013 67.9111ZM44.4369 68.7334L44.6869 68.735L44.6869 68.735L44.4369 68.7334ZM44.3987 73.8366L44.1487 73.8345L44.1487 73.8345L44.3987 73.8366ZM44.0465 74.5481L44.1835 74.7572L44.1835 74.7572L44.0465 74.5481ZM42.126 74.548L42.2632 74.339L42.2632 74.339L42.126 74.548ZM41.7746 73.8375L41.5246 73.8397L41.5246 73.8397L41.7746 73.8375ZM41.734 68.6754L41.484 68.6771L41.484 68.6771L41.734 68.6754ZM40.9272 67.8997L40.9373 67.6499L40.9373 67.6499L40.9272 67.8997ZM36.8728 63.8031L36.6233 63.8189L36.8728 63.8031ZM36.5473 55.3335L36.2973 55.3301C36.2896 55.8975 36.2847 56.4685 36.2827 57.0431L36.5327 57.044L36.7827 57.0449C36.7847 56.4719 36.7896 55.9026 36.7973 55.3368L36.5473 55.3335ZM36.5327 57.044L36.2827 57.0431C36.2687 61.0161 36.3939 64.8208 36.6233 68.4417L36.8728 68.4259L37.1223 68.4101C36.8936 64.7998 36.7688 61.0062 36.7827 57.0449L36.5327 57.044ZM36.8728 68.4259L36.6233 68.4417C36.7714 70.7799 38.5552 72.677 40.9171 72.7723L40.9272 72.5225L40.9373 72.2727C38.852 72.1886 37.2556 70.5139 37.1223 68.4101L36.8728 68.4259ZM40.9272 72.5225L40.9171 72.7723C41.2245 72.7847 41.4823 73.0382 41.484 73.3L41.734 73.2983L41.984 73.2966C41.9801 72.7232 41.4644 72.294 40.9373 72.2727L40.9272 72.5225ZM41.734 73.2983L41.484 73.3C41.4959 75.0482 41.5094 76.7694 41.5246 78.4625L41.7746 78.4603L42.0246 78.4581C42.0094 76.7653 41.9959 75.0445 41.984 73.2966L41.734 73.2983ZM41.7746 78.4603L41.5246 78.4625C41.5276 78.8034 41.6671 79.1685 41.9887 79.3797L42.126 79.1708L42.2632 78.9618C42.1157 78.8649 42.0265 78.6784 42.0246 78.4581L41.7746 78.4603ZM42.126 79.1708L41.9887 79.3797C42.3135 79.593 42.6816 79.7352 43.0855 79.7352V79.4852V79.2352C42.8032 79.2352 42.5292 79.1365 42.2632 78.9618L42.126 79.1708ZM43.0855 79.4852V79.7352C43.4897 79.7352 43.8582 79.5932 44.1835 79.38L44.0465 79.1709L43.9094 78.9618C43.6429 79.1365 43.3684 79.2352 43.0855 79.2352V79.4852ZM44.0465 79.1709L44.1835 79.38C44.5058 79.1688 44.6458 78.8031 44.6487 78.4616L44.3987 78.4594L44.1487 78.4573C44.1468 78.678 44.0574 78.8649 43.9094 78.9618L44.0465 79.1709ZM44.3987 78.4594L44.6487 78.4616C44.663 76.7852 44.6757 75.0839 44.6869 73.3578L44.4369 73.3562L44.1869 73.3546C44.1758 75.0804 44.163 76.7813 44.1487 78.4573L44.3987 78.4594ZM44.4369 73.3562L44.6869 73.3578C44.6887 73.0715 44.9744 72.7955 45.31 72.7838L45.3013 72.5339L45.2926 72.2841C44.7399 72.3033 44.1908 72.752 44.1869 73.3546L44.4369 73.3562ZM45.3013 72.5339L45.31 72.7838C47.8474 72.6954 49.7395 70.6281 49.8543 68.1169L49.6046 68.1055L49.3549 68.0941C49.2507 70.3705 47.5449 72.2056 45.2926 72.2841L45.3013 72.5339ZM49.6046 68.1055L49.8543 68.1169C50.0088 64.7412 50.0937 61.2483 50.0937 57.6448H49.8437H49.5937C49.5937 61.2404 49.5089 64.7257 49.3549 68.0941L49.6046 68.1055ZM49.8437 57.6448H50.0937C50.0937 56.8685 50.0897 56.0974 50.082 55.3314L49.832 55.3339L49.582 55.3365C49.5897 56.1008 49.5937 56.8702 49.5937 57.6448H49.8437ZM49.6046 63.4827L49.8543 63.4941C49.9755 60.846 50.0538 58.1257 50.082 55.3365L49.832 55.3339L49.582 55.3314C49.5539 58.1145 49.4757 60.8289 49.3549 63.4713L49.6046 63.4827ZM45.3013 67.9111L45.31 68.161C47.8474 68.0726 49.7395 66.0053 49.8543 63.4941L49.6046 63.4827L49.3549 63.4713C49.2507 65.7476 47.5449 67.5828 45.2926 67.6613L45.3013 67.9111ZM44.4369 68.7334L44.6869 68.735C44.6887 68.4487 44.9744 68.1727 45.31 68.161L45.3013 67.9111L45.2926 67.6613C44.7399 67.6805 44.1908 68.1292 44.1869 68.7317L44.4369 68.7334ZM44.3987 73.8366L44.6487 73.8388C44.663 72.1624 44.6757 70.4611 44.6869 68.735L44.4369 68.7334L44.1869 68.7317C44.1758 70.4575 44.163 72.1585 44.1487 73.8345L44.3987 73.8366ZM44.0465 74.5481L44.1835 74.7572C44.5058 74.546 44.6458 74.1803 44.6487 73.8388L44.3987 73.8366L44.1487 73.8345C44.1468 74.0552 44.0574 74.2421 43.9094 74.339L44.0465 74.5481ZM43.0855 74.8624V75.1124C43.4897 75.1124 43.8582 74.9704 44.1835 74.7572L44.0465 74.5481L43.9094 74.339C43.6429 74.5137 43.3684 74.6124 43.0855 74.6124V74.8624ZM42.126 74.548L41.9887 74.7569C42.3135 74.9702 42.6816 75.1124 43.0855 75.1124V74.8624V74.6124C42.8032 74.6124 42.5292 74.5137 42.2632 74.339L42.126 74.548ZM41.7746 73.8375L41.5246 73.8397C41.5276 74.1806 41.6671 74.5457 41.9887 74.7569L42.126 74.548L42.2632 74.339C42.1157 74.2421 42.0265 74.0556 42.0246 73.8353L41.7746 73.8375ZM41.734 68.6754L41.484 68.6771C41.4959 70.4254 41.5094 72.1466 41.5246 73.8397L41.7746 73.8375L42.0246 73.8353C42.0094 72.1425 41.9959 70.4217 41.984 68.6737L41.734 68.6754ZM40.9272 67.8997L40.9171 68.1495C41.2245 68.1619 41.4823 68.4154 41.484 68.6771L41.734 68.6754L41.984 68.6737C41.9801 68.1004 41.4644 67.6711 40.9373 67.6499L40.9272 67.8997ZM36.8728 63.8031L36.6233 63.8189C36.7714 66.1571 38.5552 68.0542 40.9171 68.1495L40.9272 67.8997L40.9373 67.6499C38.852 67.5658 37.2556 65.8911 37.1223 63.7873L36.8728 63.8031ZM36.5473 55.3335L36.2973 55.3368C36.337 58.2639 36.4506 61.0935 36.6233 63.8189L36.8728 63.8031L37.1223 63.7873C36.9501 61.0699 36.8368 58.2486 36.7973 55.3301L36.5473 55.3335Z" fill="#1C1C1C"/>
<path d="M65.3751 44.1497C65.3691 40.3888 65.2828 36.7221 65.1276 33.1537C65.0268 30.8362 63.244 28.9648 60.9251 28.9038C60.5046 28.8927 60.1198 28.5506 60.1171 28.13C60.1061 26.3976 60.094 24.6888 60.0803 23.0044C60.0779 22.7086 59.9508 22.4186 59.6952 22.2697C59.3667 22.0784 59.0121 21.9741 58.6342 22.0056C58.356 22.0286 58.0906 22.1237 57.84 22.27C57.5852 22.4187 57.4587 22.7081 57.4561 23.003C57.4416 24.6921 57.4282 26.4084 57.4164 28.1501C57.4136 28.5617 57.0405 28.8966 56.629 28.9083C54.3991 28.9717 52.6641 30.7424 52.5228 32.9688C52.3235 36.1117 52.1986 39.3601 52.1648 42.7079C52.1174 47.3815 52.2513 51.8689 52.5232 56.1539C52.6649 58.3862 54.3731 60.1738 56.6086 60.2516C57.0253 60.2661 57.4143 60.6065 57.4171 61.0235C57.4284 62.7516 57.4418 64.4551 57.4564 66.1312C57.4588 66.4059 57.5682 66.6761 57.7944 66.832C58.0934 67.0381 58.4188 67.1665 58.7671 67.1665C59.1158 67.1665 59.4418 67.0382 59.7413 66.8322C59.9681 66.6763 60.0778 66.4056 60.0801 66.1304C60.0938 64.4592 60.106 62.7631 60.117 61.0441C60.1198 60.6182 60.519 60.2711 60.9446 60.2574C63.2694 60.1825 65.0268 58.2932 65.1278 55.9694C65.2942 52.1411 65.382 48.1988 65.3759 44.148L65.3751 44.1497Z" fill="#FFE2C8" stroke="#1C1C1C" stroke-width="0.5" stroke-miterlimit="10"/>
<path fill-rule="evenodd" clip-rule="evenodd" d="M52.1703 46.8718C52.1684 47.0246 52.1667 47.1775 52.1651 47.3307C52.1177 52.0043 52.2516 56.4917 52.5235 60.7767C52.6652 63.009 54.3734 64.7966 56.6089 64.8744C57.0256 64.8889 57.4146 65.2293 57.4174 65.6463C57.4287 67.3744 57.4421 69.0779 57.4567 70.754C57.4591 71.0287 57.5685 71.2989 57.7947 71.4548C58.0937 71.6609 58.4191 71.7892 58.7674 71.7892C59.1161 71.7892 59.4421 71.661 59.7416 71.455C59.9684 71.2991 60.0781 71.0284 60.0804 70.7531C60.0941 69.082 60.1063 67.3859 60.1173 65.6669C60.1201 65.241 60.5193 64.8939 60.9449 64.8802C63.2697 64.8053 65.0271 62.916 65.1281 60.5922C65.2945 56.7639 65.3823 52.8216 65.3762 48.7708L65.3754 48.7724C65.3744 48.149 65.3712 47.5282 65.3659 46.91C65.3381 49.9959 65.2565 53.0166 65.1281 55.9694C65.0271 58.2932 63.2697 60.1825 60.9449 60.2574C60.5193 60.2711 60.1201 60.6182 60.1173 61.0441C60.1063 62.7631 60.0941 64.4592 60.0804 66.1303C60.0781 66.4055 59.9684 66.6763 59.7416 66.8322C59.4421 67.0382 59.1161 67.1664 58.7674 67.1664C58.4191 67.1664 58.0937 67.0381 57.7947 66.832C57.5685 66.6761 57.4591 66.4059 57.4567 66.1312C57.4421 64.4551 57.4287 62.7516 57.4174 61.0235C57.4146 60.6065 57.0256 60.2661 56.6089 60.2516C54.3734 60.1738 52.6652 58.3861 52.5235 56.1538C52.3334 53.157 52.2107 50.0611 52.1703 46.8718Z" fill="#FF9500"/>
<path d="M52.1703 46.8718L52.4203 46.8686L51.9203 46.8686L52.1703 46.8718ZM52.1651 47.3307L52.4151 47.3333L52.4151 47.3333L52.1651 47.3307ZM52.5235 60.7767L52.274 60.7925L52.274 60.7925L52.5235 60.7767ZM56.6089 64.8744L56.6002 65.1243L56.6002 65.1243L56.6089 64.8744ZM57.4174 65.6463L57.6674 65.6446L57.6674 65.6446L57.4174 65.6463ZM57.4567 70.754L57.7067 70.7519L57.7067 70.7519L57.4567 70.754ZM57.7947 71.4548L57.9365 71.249L57.9365 71.249L57.7947 71.4548ZM59.7416 71.455L59.5999 71.249L59.5999 71.249L59.7416 71.455ZM60.0804 70.7531L60.3304 70.7552L60.3304 70.7552L60.0804 70.7531ZM60.1173 65.6669L59.8673 65.6653L59.8673 65.6653L60.1173 65.6669ZM60.9449 64.8802L60.953 65.1301L60.953 65.1301L60.9449 64.8802ZM65.1281 60.5922L64.8784 60.5814L64.8784 60.5814L65.1281 60.5922ZM65.3762 48.7708L65.6262 48.7704L65.6247 47.7269L65.1532 48.6579L65.3762 48.7708ZM65.3754 48.7724L65.1254 48.7728L65.1271 49.8162L65.5985 48.8854L65.3754 48.7724ZM65.3659 46.91L65.6159 46.9078L65.1159 46.9077L65.3659 46.91ZM65.1281 55.9694L64.8784 55.9586L64.8784 55.9586L65.1281 55.9694ZM60.9449 60.2574L60.953 60.5072L60.953 60.5072L60.9449 60.2574ZM60.1173 61.0441L59.8673 61.0425L59.8673 61.0425L60.1173 61.0441ZM60.0804 66.1303L60.3304 66.1324L60.3304 66.1324L60.0804 66.1303ZM59.7416 66.8322L59.5999 66.6262L59.5999 66.6262L59.7416 66.8322ZM57.7947 66.832L57.9365 66.6262L57.9365 66.6262L57.7947 66.832ZM57.4567 66.1312L57.7067 66.129L57.7067 66.129L57.4567 66.1312ZM57.4174 61.0235L57.6674 61.0218L57.6674 61.0218L57.4174 61.0235ZM56.6089 60.2516L56.6002 60.5015L56.6002 60.5015L56.6089 60.2516ZM52.5235 56.1538L52.274 56.1697L52.274 56.1697L52.5235 56.1538ZM52.1703 46.8718L51.9203 46.8686C51.9184 47.0216 51.9167 47.1748 51.9151 47.3282L52.1651 47.3307L52.4151 47.3333C52.4166 47.1803 52.4184 47.0275 52.4203 46.8749L52.1703 46.8718ZM52.1651 47.3307L51.9151 47.3282C51.8676 52.0082 52.0018 56.5017 52.274 60.7925L52.5235 60.7767L52.773 60.7608C52.5015 56.4817 52.3677 52.0005 52.4151 47.3333L52.1651 47.3307ZM52.5235 60.7767L52.274 60.7925C52.4232 63.143 54.2264 65.0417 56.6002 65.1243L56.6089 64.8744L56.6176 64.6246C54.5205 64.5516 52.9072 62.8749 52.773 60.7608L52.5235 60.7767ZM56.6089 64.8744L56.6002 65.1243C56.9071 65.135 57.1657 65.3879 57.1674 65.6479L57.4174 65.6463L57.6674 65.6446C57.6636 65.0707 57.1441 64.6429 56.6176 64.6246L56.6089 64.8744ZM57.4174 65.6463L57.1674 65.6479C57.1787 67.3763 57.1921 69.0799 57.2067 70.7562L57.4567 70.754L57.7067 70.7519C57.6921 69.0758 57.6787 67.3726 57.6674 65.6446L57.4174 65.6463ZM57.4567 70.754L57.2067 70.7562C57.2096 71.0901 57.3431 71.4472 57.6528 71.6607L57.7947 71.4548L57.9365 71.249C57.7939 71.1506 57.7085 70.9674 57.7067 70.7519L57.4567 70.754ZM57.7947 71.4548L57.6528 71.6607C57.9811 71.8869 58.3552 72.0392 58.7674 72.0392V71.7892V71.5392C58.4831 71.5392 58.2063 71.4349 57.9365 71.249L57.7947 71.4548ZM58.7674 71.7892V72.0392C59.1799 72.0392 59.5545 71.8871 59.8833 71.661L59.7416 71.455L59.5999 71.249C59.3297 71.4349 59.0523 71.5392 58.7674 71.5392V71.7892ZM59.7416 71.455L59.8833 71.661C60.1937 71.4475 60.3276 71.0897 60.3304 70.7552L60.0804 70.7531L59.8304 70.7511C59.8286 70.967 59.743 71.1506 59.5999 71.249L59.7416 71.455ZM60.0804 70.7531L60.3304 70.7552C60.3441 69.0839 60.3563 67.3876 60.3673 65.6685L60.1173 65.6669L59.8673 65.6653C59.8563 67.3841 59.8441 69.0801 59.8304 70.7511L60.0804 70.7531ZM60.1173 65.6669L60.3673 65.6685C60.369 65.4005 60.6368 65.1402 60.953 65.1301L60.9449 64.8802L60.9369 64.6303C60.4018 64.6476 59.8711 65.0816 59.8673 65.6653L60.1173 65.6669ZM60.9449 64.8802L60.953 65.1301C63.4196 65.0506 65.2717 63.0459 65.3779 60.6031L65.1281 60.5922L64.8784 60.5814C64.7825 62.7861 63.1197 64.56 60.9369 64.6303L60.9449 64.8802ZM65.1281 60.5922L65.3779 60.6031C65.5445 56.7711 65.6323 52.8251 65.6262 48.7704L65.3762 48.7708L65.1262 48.7712C65.1323 52.8181 65.0446 56.7567 64.8784 60.5814L65.1281 60.5922ZM65.3762 48.7708L65.1532 48.6579L65.1524 48.6595L65.3754 48.7724L65.5985 48.8854L65.5993 48.8838L65.3762 48.7708ZM65.3754 48.7724L65.6254 48.7721C65.6244 48.148 65.6212 47.5266 65.6159 46.9078L65.3659 46.91L65.1159 46.9122C65.1212 47.5298 65.1244 48.15 65.1254 48.7728L65.3754 48.7724ZM65.1281 55.9694L65.3779 55.9803C65.5064 53.0247 65.588 50.0011 65.6159 46.9122L65.3659 46.91L65.1159 46.9077C65.0881 49.9907 65.0066 53.0085 64.8784 55.9586L65.1281 55.9694ZM60.9449 60.2574L60.953 60.5072C63.4196 60.4278 65.2717 58.4231 65.3779 55.9803L65.1281 55.9694L64.8784 55.9586C64.7825 58.1633 63.1197 59.9372 60.9369 60.0075L60.9449 60.2574ZM60.1173 61.0441L60.3673 61.0457C60.369 60.7776 60.6368 60.5174 60.953 60.5072L60.9449 60.2574L60.9369 60.0075C60.4018 60.0247 59.8711 60.4588 59.8673 61.0425L60.1173 61.0441ZM60.0804 66.1303L60.3304 66.1324C60.3441 64.4611 60.3563 62.7648 60.3673 61.0457L60.1173 61.0441L59.8673 61.0425C59.8563 62.7613 59.8441 64.4573 59.8304 66.1283L60.0804 66.1303ZM59.7416 66.8322L59.8833 67.0382C60.1937 66.8247 60.3276 66.4669 60.3304 66.1324L60.0804 66.1303L59.8304 66.1283C59.8286 66.3442 59.743 66.5278 59.5999 66.6262L59.7416 66.8322ZM58.7674 67.1664V67.4164C59.1799 67.4164 59.5545 67.2643 59.8833 67.0382L59.7416 66.8322L59.5999 66.6262C59.3297 66.8121 59.0523 66.9164 58.7674 66.9164V67.1664ZM57.7947 66.832L57.6528 67.0379C57.9811 67.2641 58.3552 67.4164 58.7674 67.4164V67.1664V66.9164C58.4831 66.9164 58.2063 66.8121 57.9365 66.6262L57.7947 66.832ZM57.4567 66.1312L57.2067 66.1334C57.2096 66.4673 57.3431 66.8244 57.6528 67.0379L57.7947 66.832L57.9365 66.6262C57.7939 66.5278 57.7085 66.3446 57.7067 66.129L57.4567 66.1312ZM57.4174 61.0235L57.1674 61.0251C57.1787 62.7534 57.1921 64.4571 57.2067 66.1334L57.4567 66.1312L57.7067 66.129C57.6921 64.453 57.6787 62.7497 57.6674 61.0218L57.4174 61.0235ZM56.6089 60.2516L56.6002 60.5015C56.9071 60.5121 57.1657 60.7651 57.1674 61.0251L57.4174 61.0235L57.6674 61.0218C57.6636 60.4479 57.1441 60.0201 56.6176 60.0018L56.6089 60.2516ZM52.5235 56.1538L52.274 56.1697C52.4232 58.5202 54.2264 60.4189 56.6002 60.5015L56.6089 60.2516L56.6176 60.0018C54.5205 59.9288 52.9072 58.2521 52.773 56.138L52.5235 56.1538ZM52.1703 46.8718L51.9203 46.8749C51.9607 50.0687 52.0836 53.1687 52.274 56.1697L52.5235 56.1538L52.773 56.138C52.5831 53.1452 52.4606 50.0536 52.4203 46.8686L52.1703 46.8718Z" fill="#1C1C1C"/>
<path d="M34.2197 44.1497C34.2138 40.3888 34.1274 36.7221 33.9722 33.1537C33.8714 30.8362 32.0886 28.9648 29.7697 28.9038C29.3492 28.8927 28.9644 28.5506 28.9617 28.13C28.9518 26.5573 28.9408 25.0041 28.9287 23.471C28.924 22.8795 28.6791 22.2569 28.115 22.0791C27.9112 22.015 27.6989 21.9872 27.4788 22.0056C27.3525 22.016 27.2289 22.0413 27.108 22.0795C26.5455 22.2574 26.3017 22.8783 26.2968 23.4683C26.2838 25.007 26.2717 26.5681 26.261 28.1501C26.2582 28.5617 25.8851 28.8966 25.4736 28.9083C23.2437 28.9717 21.5087 30.7424 21.3675 32.9688C21.1681 36.1117 21.0432 39.3601 21.0094 42.7079C20.962 47.3815 21.0959 51.8689 21.3678 56.1539C21.5095 58.3862 23.2177 60.1738 25.4532 60.2516C25.8699 60.2661 26.2589 60.6065 26.2617 61.0235C26.2721 62.6039 26.2841 64.1638 26.2973 65.7009C26.302 66.2503 26.5083 66.8271 27.0145 67.0406C27.205 67.1209 27.4043 67.1665 27.6117 67.1665C27.8192 67.1665 28.0187 67.121 28.2093 67.0408C28.7167 66.8274 28.9237 66.2496 28.9282 65.6992C28.9405 64.1677 28.9515 62.6154 28.9616 61.0441C28.9644 60.6182 29.3636 60.2711 29.7892 60.2574C32.114 60.1825 33.8714 58.2932 33.9724 55.9694C34.1388 52.1411 34.2266 48.1988 34.2205 44.148L34.2197 44.1497Z" fill="#FFE2C8" stroke="#1C1C1C" stroke-width="0.5" stroke-miterlimit="10"/>
<path fill-rule="evenodd" clip-rule="evenodd" d="M21.0146 46.8718C21.0127 47.0246 21.011 47.1775 21.0094 47.3307C20.962 52.0043 21.0959 56.4917 21.3678 60.7767C21.5095 63.009 23.2177 64.7966 25.4532 64.8744C25.8699 64.8889 26.2589 65.2293 26.2617 65.6463C26.2721 67.2267 26.2841 68.7865 26.2973 70.3237C26.302 70.8731 26.5083 71.4498 27.0145 71.6634C27.205 71.7437 27.4043 71.7892 27.6117 71.7892C27.8192 71.7892 28.0187 71.7438 28.2093 71.6636C28.7167 71.4502 28.9237 70.8724 28.9282 70.322C28.9405 68.7905 28.9515 67.2382 28.9616 65.6669C28.9644 65.241 29.3636 64.8939 29.7892 64.8802C32.114 64.8053 33.8714 62.916 33.9724 60.5922C34.1388 56.7639 34.2266 52.8216 34.2205 48.7708L34.2197 48.7724C34.2187 48.149 34.2155 47.5282 34.2102 46.91C34.1824 49.9959 34.1008 53.0166 33.9724 55.9694C33.8714 58.2932 32.114 60.1825 29.7892 60.2574C29.3636 60.2711 28.9644 60.6182 28.9616 61.0441C28.9515 62.6154 28.9405 64.1676 28.9282 65.6992C28.9237 66.2496 28.7167 66.8274 28.2093 67.0408C28.0187 67.121 27.8192 67.1664 27.6117 67.1664C27.4043 67.1664 27.205 67.1209 27.0145 67.0406C26.5083 66.827 26.302 66.2503 26.2973 65.7009C26.2841 64.1637 26.2721 62.6039 26.2617 61.0235C26.2589 60.6065 25.8699 60.2661 25.4532 60.2516C23.2177 60.1738 21.5095 58.3861 21.3678 56.1538C21.1777 53.157 21.055 50.0611 21.0146 46.8718Z" fill="#FF9500"/>
<path d="M21.0146 46.8718L21.2646 46.8686L20.7646 46.8686L21.0146 46.8718ZM21.0094 47.3307L21.2594 47.3333L21.2594 47.3333L21.0094 47.3307ZM21.3678 60.7767L21.1183 60.7925L21.1183 60.7925L21.3678 60.7767ZM25.4532 64.8744L25.4445 65.1243L25.4445 65.1243L25.4532 64.8744ZM26.2617 65.6463L26.5117 65.6446L26.5117 65.6446L26.2617 65.6463ZM26.2973 70.3237L26.5473 70.3216L26.5473 70.3216L26.2973 70.3237ZM27.0145 71.6634L26.9174 71.8937L26.9174 71.8937L27.0145 71.6634ZM28.2093 71.6636L28.3063 71.8941L28.3063 71.8941L28.2093 71.6636ZM28.9282 70.322L29.1782 70.324L29.1782 70.324L28.9282 70.322ZM28.9616 65.6669L28.7116 65.6653L28.7116 65.6653L28.9616 65.6669ZM29.7892 64.8802L29.7973 65.1301L29.7973 65.1301L29.7892 64.8802ZM33.9724 60.5922L33.7227 60.5814L33.7227 60.5814L33.9724 60.5922ZM34.2205 48.7708L34.4705 48.7704L34.469 47.7269L33.9975 48.6579L34.2205 48.7708ZM34.2197 48.7724L33.9697 48.7728L33.9714 49.8162L34.4428 48.8854L34.2197 48.7724ZM34.2102 46.91L34.4602 46.9078L33.9602 46.9077L34.2102 46.91ZM33.9724 55.9694L33.7227 55.9586L33.7227 55.9586L33.9724 55.9694ZM29.7892 60.2574L29.7973 60.5072L29.7973 60.5072L29.7892 60.2574ZM28.9616 61.0441L28.7116 61.0425L28.7116 61.0425L28.9616 61.0441ZM28.9282 65.6992L29.1782 65.7012L29.1782 65.7012L28.9282 65.6992ZM28.2093 67.0408L28.3063 67.2712L28.3063 67.2712L28.2093 67.0408ZM27.0145 67.0406L26.9174 67.2709L26.9174 67.2709L27.0145 67.0406ZM26.2973 65.7009L26.5473 65.6988L26.5473 65.6988L26.2973 65.7009ZM26.2617 61.0235L26.5117 61.0218L26.5117 61.0218L26.2617 61.0235ZM25.4532 60.2516L25.4445 60.5015L25.4445 60.5015L25.4532 60.2516ZM21.3678 56.1538L21.1183 56.1697L21.1183 56.1697L21.3678 56.1538ZM21.0146 46.8718L20.7646 46.8686C20.7627 47.0216 20.761 47.1748 20.7594 47.3282L21.0094 47.3307L21.2594 47.3333C21.2609 47.1803 21.2627 47.0275 21.2646 46.8749L21.0146 46.8718ZM21.0094 47.3307L20.7594 47.3282C20.7119 52.0082 20.8461 56.5017 21.1183 60.7925L21.3678 60.7767L21.6173 60.7608C21.3458 56.4817 21.212 52.0005 21.2594 47.3333L21.0094 47.3307ZM21.3678 60.7767L21.1183 60.7925C21.2675 63.143 23.0707 65.0417 25.4445 65.1243L25.4532 64.8744L25.4619 64.6246C23.3648 64.5516 21.7515 62.8749 21.6173 60.7608L21.3678 60.7767ZM25.4532 64.8744L25.4445 65.1243C25.7514 65.135 26.01 65.3879 26.0117 65.6479L26.2617 65.6463L26.5117 65.6446C26.5079 65.0707 25.9884 64.6429 25.4619 64.6246L25.4532 64.8744ZM26.2617 65.6463L26.0117 65.6479C26.0221 67.2286 26.0342 68.7886 26.0473 70.3259L26.2973 70.3237L26.5473 70.3216C26.5341 68.7845 26.522 67.2249 26.5117 65.6446L26.2617 65.6463ZM26.2973 70.3237L26.0473 70.3259C26.0523 70.9129 26.2731 71.622 26.9174 71.8937L27.0145 71.6634L27.1117 71.4331C26.7435 71.2777 26.5516 70.8333 26.5473 70.3216L26.2973 70.3237ZM27.0145 71.6634L26.9174 71.8937C27.1346 71.9854 27.3669 72.0392 27.6117 72.0392V71.7892V71.5392C27.4417 71.5392 27.2754 71.5021 27.1117 71.4331L27.0145 71.6634ZM27.6117 71.7892V72.0392C27.8566 72.0392 28.0889 71.9855 28.3063 71.8941L28.2093 71.6636L28.1124 71.4332C27.9485 71.5021 27.7819 71.5392 27.6117 71.5392V71.7892ZM28.2093 71.6636L28.3063 71.8941C28.9519 71.6225 29.1734 70.9122 29.1782 70.324L28.9282 70.322L28.6782 70.32C28.6741 70.8325 28.4816 71.2779 28.1124 71.4332L28.2093 71.6636ZM28.9282 70.322L29.1782 70.324C29.1905 68.7923 29.2015 67.2399 29.2116 65.6685L28.9616 65.6669L28.7116 65.6653C28.7016 67.2365 28.6905 68.7886 28.6782 70.32L28.9282 70.322ZM28.9616 65.6669L29.2116 65.6685C29.2133 65.4005 29.4811 65.1402 29.7973 65.1301L29.7892 64.8802L29.7812 64.6303C29.2461 64.6476 28.7154 65.0816 28.7116 65.6653L28.9616 65.6669ZM29.7892 64.8802L29.7973 65.1301C32.2639 65.0506 34.116 63.0459 34.2222 60.6031L33.9724 60.5922L33.7227 60.5814C33.6268 62.7861 31.964 64.56 29.7812 64.6303L29.7892 64.8802ZM33.9724 60.5922L34.2222 60.6031C34.3888 56.7711 34.4766 52.8251 34.4705 48.7704L34.2205 48.7708L33.9705 48.7712C33.9766 52.8181 33.8889 56.7567 33.7227 60.5814L33.9724 60.5922ZM34.2205 48.7708L33.9975 48.6579L33.9967 48.6595L34.2197 48.7724L34.4428 48.8854L34.4436 48.8838L34.2205 48.7708ZM34.2197 48.7724L34.4697 48.7721C34.4687 48.148 34.4655 47.5266 34.4602 46.9078L34.2102 46.91L33.9602 46.9122C33.9655 47.5298 33.9687 48.15 33.9697 48.7728L34.2197 48.7724ZM33.9724 55.9694L34.2222 55.9803C34.3507 53.0247 34.4323 50.0011 34.4602 46.9122L34.2102 46.91L33.9602 46.9077C33.9324 49.9907 33.8509 53.0085 33.7227 55.9586L33.9724 55.9694ZM29.7892 60.2574L29.7973 60.5072C32.2639 60.4278 34.116 58.4231 34.2222 55.9803L33.9724 55.9694L33.7227 55.9586C33.6268 58.1633 31.964 59.9372 29.7812 60.0075L29.7892 60.2574ZM28.9616 61.0441L29.2116 61.0457C29.2133 60.7776 29.4811 60.5174 29.7973 60.5072L29.7892 60.2574L29.7812 60.0075C29.2461 60.0247 28.7154 60.4588 28.7116 61.0425L28.9616 61.0441ZM28.9282 65.6992L29.1782 65.7012C29.1905 64.1695 29.2015 62.6171 29.2116 61.0457L28.9616 61.0441L28.7116 61.0425C28.7016 62.6137 28.6905 64.1658 28.6782 65.6971L28.9282 65.6992ZM28.2093 67.0408L28.3063 67.2712C28.9519 66.9997 29.1734 66.2894 29.1782 65.7012L28.9282 65.6992L28.6782 65.6971C28.6741 66.2097 28.4816 66.6551 28.1124 66.8104L28.2093 67.0408ZM27.6117 67.1664V67.4164C27.8566 67.4164 28.0889 67.3627 28.3063 67.2712L28.2093 67.0408L28.1124 66.8104C27.9485 66.8793 27.7819 66.9164 27.6117 66.9164V67.1664ZM27.0145 67.0406L26.9174 67.2709C27.1346 67.3626 27.3669 67.4164 27.6117 67.4164V67.1664V66.9164C27.4417 66.9164 27.2754 66.8793 27.1117 66.8102L27.0145 67.0406ZM26.2973 65.7009L26.0473 65.703C26.0523 66.2901 26.2731 66.9992 26.9174 67.2709L27.0145 67.0406L27.1117 66.8102C26.7435 66.6549 26.5516 66.2105 26.5473 65.6988L26.2973 65.7009ZM26.2617 61.0235L26.0117 61.0251C26.0221 62.6058 26.0342 64.1657 26.0473 65.703L26.2973 65.7009L26.5473 65.6988C26.5341 64.1617 26.522 62.6021 26.5117 61.0218L26.2617 61.0235ZM25.4532 60.2516L25.4445 60.5015C25.7514 60.5121 26.01 60.7651 26.0117 61.0251L26.2617 61.0235L26.5117 61.0218C26.5079 60.4479 25.9884 60.0201 25.4619 60.0018L25.4532 60.2516ZM21.3678 56.1538L21.1183 56.1697C21.2675 58.5202 23.0707 60.4189 25.4445 60.5015L25.4532 60.2516L25.4619 60.0018C23.3648 59.9288 21.7515 58.2521 21.6173 56.138L21.3678 56.1538ZM21.0146 46.8718L20.7646 46.8749C20.805 50.0687 20.9279 53.1687 21.1183 56.1697L21.3678 56.1538L21.6173 56.138C21.4274 53.1452 21.3049 50.0536 21.2646 46.8686L21.0146 46.8718Z" fill="#1C1C1C"/>
<path d="M81 53.0221C81 49.4271 80.9153 45.9421 80.7613 42.574C80.6521 40.1855 78.8275 38.2516 76.4376 38.1806C75.9988 38.1676 75.5961 37.8103 75.5933 37.3713C75.5822 35.633 75.5696 33.919 75.5553 32.2308C75.5527 31.9291 75.4202 31.6337 75.1563 31.4874C74.8317 31.3075 74.4816 31.2099 74.109 31.2404C73.836 31.2625 73.5754 31.3512 73.3289 31.4878C73.0655 31.6338 72.9333 31.9287 72.9306 32.2299C72.9154 33.9342 72.9014 35.6669 72.8895 37.4266C72.8867 37.8396 72.5135 38.1763 72.1007 38.1903C69.8822 38.2656 68.1693 40.0358 68.029 42.2512C67.8232 45.4985 67.7014 48.8922 67.689 52.4212C67.6751 56.3884 67.8001 60.1876 68.0291 63.8032C68.1698 66.0242 69.8599 67.81 72.0836 67.8997C72.5008 67.9166 72.8875 68.2579 72.8904 68.6755C72.9022 70.4236 72.9158 72.1446 72.9309 73.8375C72.9334 74.1182 73.0478 74.3939 73.2823 74.548C73.5777 74.742 73.8987 74.8625 74.2418 74.8625C74.5854 74.8625 74.9069 74.7421 75.2028 74.5482C75.4379 74.3941 75.5526 74.1178 75.555 73.8367C75.5694 72.1605 75.5821 70.4594 75.5932 68.7334C75.5961 68.289 76.0135 67.9267 76.4576 67.9112C78.8525 67.8278 80.6514 65.8765 80.7609 63.4828C80.9152 60.1107 81 56.6216 81 53.0221Z" fill="#CCD9FD" stroke="#1C1C1C" stroke-width="0.5" stroke-miterlimit="10"/>
<path fill-rule="evenodd" clip-rule="evenodd" d="M67.7037 55.3335C67.696 55.9 67.6911 56.4702 67.6891 57.044C67.6751 61.0111 67.8001 64.8103 68.0292 68.4259C68.1699 70.6469 69.86 72.4328 72.0836 72.5225C72.5008 72.5393 72.8876 72.8807 72.8904 73.2983C72.9023 75.0464 72.9158 76.7673 72.931 78.4603C72.9335 78.7409 73.0478 79.0167 73.2824 79.1708C73.5777 79.3648 73.8987 79.4852 74.2419 79.4852C74.5855 79.4852 74.907 79.3648 75.2028 79.1709C75.438 79.0168 75.5527 78.7405 75.5551 78.4594C75.5694 76.7832 75.5821 75.0821 75.5933 73.3562C75.5961 72.9117 76.0135 72.5494 76.4577 72.5339C78.8525 72.4505 80.6515 70.4993 80.761 68.1055C80.9152 64.7335 81.0001 61.2444 81.0001 57.6448C81.0001 56.8694 80.9961 56.0991 80.9884 55.3339C80.9603 58.1201 80.882 60.8374 80.761 63.4827C80.6515 65.8765 78.8525 67.8277 76.4577 67.9111C76.0135 67.9266 75.5961 68.2889 75.5933 68.7334C75.5821 70.4593 75.5694 72.1604 75.5551 73.8366C75.5527 74.1177 75.438 74.394 75.2028 74.5481C74.907 74.742 74.5855 74.8624 74.2419 74.8624C73.8987 74.8624 73.5777 74.742 73.2824 74.548C73.0478 74.3939 72.9335 74.1181 72.931 73.8375C72.9158 72.1445 72.9023 70.4236 72.8904 68.6754C72.8876 68.2579 72.5008 67.9165 72.0836 67.8997C69.86 67.81 68.1699 66.0241 68.0292 63.8031C67.8568 61.0817 67.7433 58.2562 67.7037 55.3335Z" fill="#4169E1"/>
<path d="M67.7037 55.3335L67.9537 55.3301L67.4537 55.3301L67.7037 55.3335ZM67.6891 57.044L67.9391 57.0449L67.9391 57.0449L67.6891 57.044ZM68.0292 68.4259L67.7797 68.4417L68.0292 68.4259ZM72.0836 72.5225L72.0937 72.2727L72.0937 72.2727L72.0836 72.5225ZM72.8904 73.2983L72.6404 73.3L72.6404 73.3L72.8904 73.2983ZM72.931 78.4603L72.681 78.4625L72.681 78.4625L72.931 78.4603ZM73.2824 79.1708L73.4196 78.9618L73.4196 78.9618L73.2824 79.1708ZM75.2028 79.1709L75.3399 79.38L75.3399 79.38L75.2028 79.1709ZM75.5551 78.4594L75.3051 78.4573L75.3051 78.4573L75.5551 78.4594ZM75.5933 73.3562L75.8433 73.3578L75.8433 73.3578L75.5933 73.3562ZM76.4577 72.5339L76.449 72.2841L76.449 72.2841L76.4577 72.5339ZM80.761 68.1055L80.5112 68.0941L80.5112 68.0941L80.761 68.1055ZM80.9884 55.3339L81.2384 55.3314L80.7384 55.3314L80.9884 55.3339ZM80.761 63.4827L80.5112 63.4713L80.5112 63.4713L80.761 63.4827ZM76.4577 67.9111L76.449 67.6613L76.449 67.6613L76.4577 67.9111ZM75.5933 68.7334L75.8433 68.735L75.8433 68.735L75.5933 68.7334ZM75.5551 73.8366L75.3051 73.8345L75.3051 73.8345L75.5551 73.8366ZM75.2028 74.5481L75.3399 74.7572L75.3399 74.7572L75.2028 74.5481ZM73.2824 74.548L73.4196 74.339L73.4196 74.339L73.2824 74.548ZM72.931 73.8375L72.681 73.8397L72.681 73.8397L72.931 73.8375ZM72.8904 68.6754L72.6404 68.6771L72.6404 68.6771L72.8904 68.6754ZM72.0836 67.8997L72.0937 67.6499L72.0937 67.6499L72.0836 67.8997ZM68.0292 63.8031L67.7797 63.8189L68.0292 63.8031ZM67.7037 55.3335L67.4537 55.3301C67.446 55.8975 67.4411 56.4685 67.4391 57.0431L67.6891 57.044L67.9391 57.0449C67.9411 56.4719 67.946 55.9026 67.9537 55.3368L67.7037 55.3335ZM67.6891 57.044L67.4391 57.0431C67.4251 61.0161 67.5503 64.8208 67.7797 68.4417L68.0292 68.4259L68.2787 68.4101C68.0499 64.7998 67.9251 61.0062 67.9391 57.0449L67.6891 57.044ZM68.0292 68.4259L67.7797 68.4417C67.9278 70.7799 69.7116 72.677 72.0735 72.7723L72.0836 72.5225L72.0937 72.2727C70.0083 72.1886 68.412 70.5139 68.2787 68.4101L68.0292 68.4259ZM72.0836 72.5225L72.0735 72.7723C72.3809 72.7847 72.6386 73.0382 72.6404 73.3L72.8904 73.2983L73.1404 73.2966C73.1365 72.7232 72.6208 72.294 72.0937 72.2727L72.0836 72.5225ZM72.8904 73.2983L72.6404 73.3C72.6523 75.0482 72.6658 76.7694 72.681 78.4625L72.931 78.4603L73.1809 78.4581C73.1658 76.7653 73.1523 75.0445 73.1404 73.2966L72.8904 73.2983ZM72.931 78.4603L72.681 78.4625C72.684 78.8034 72.8235 79.1685 73.1451 79.3797L73.2824 79.1708L73.4196 78.9618C73.2721 78.8649 73.1829 78.6784 73.1809 78.4581L72.931 78.4603ZM73.2824 79.1708L73.1451 79.3797C73.4699 79.593 73.8379 79.7352 74.2419 79.7352V79.4852V79.2352C73.9595 79.2352 73.6856 79.1365 73.4196 78.9618L73.2824 79.1708ZM74.2419 79.4852V79.7352C74.6461 79.7352 75.0146 79.5932 75.3399 79.38L75.2028 79.1709L75.0658 78.9618C74.7993 79.1365 74.5248 79.2352 74.2419 79.2352V79.4852ZM75.2028 79.1709L75.3399 79.38C75.6622 79.1688 75.8021 78.8031 75.8051 78.4616L75.5551 78.4594L75.3051 78.4573C75.3032 78.678 75.2137 78.8649 75.0658 78.9618L75.2028 79.1709ZM75.5551 78.4594L75.8051 78.4616C75.8194 76.7852 75.8321 75.0839 75.8433 73.3578L75.5933 73.3562L75.3433 73.3546C75.3321 75.0804 75.3194 76.7813 75.3051 78.4573L75.5551 78.4594ZM75.5933 73.3562L75.8433 73.3578C75.8451 73.0715 76.1308 72.7955 76.4664 72.7838L76.4577 72.5339L76.449 72.2841C75.8963 72.3033 75.3472 72.752 75.3433 73.3546L75.5933 73.3562ZM76.4577 72.5339L76.4664 72.7838C79.0038 72.6954 80.8959 70.6281 81.0107 68.1169L80.761 68.1055L80.5112 68.0941C80.4071 70.3705 78.7013 72.2056 76.449 72.2841L76.4577 72.5339ZM80.761 68.1055L81.0107 68.1169C81.1651 64.7412 81.2501 61.2483 81.2501 57.6448H81.0001H80.7501C80.7501 61.2404 80.6653 64.7257 80.5112 68.0941L80.761 68.1055ZM81.0001 57.6448H81.2501C81.2501 56.8685 81.2461 56.0974 81.2384 55.3314L80.9884 55.3339L80.7384 55.3365C80.7461 56.1008 80.7501 56.8702 80.7501 57.6448H81.0001ZM80.761 63.4827L81.0107 63.4941C81.1319 60.846 81.2102 58.1257 81.2384 55.3365L80.9884 55.3339L80.7384 55.3314C80.7103 58.1145 80.6321 60.8289 80.5112 63.4713L80.761 63.4827ZM76.4577 67.9111L76.4664 68.161C79.0038 68.0726 80.8959 66.0053 81.0107 63.4941L80.761 63.4827L80.5112 63.4713C80.4071 65.7476 78.7013 67.5828 76.449 67.6613L76.4577 67.9111ZM75.5933 68.7334L75.8433 68.735C75.8451 68.4487 76.1308 68.1727 76.4664 68.161L76.4577 67.9111L76.449 67.6613C75.8963 67.6805 75.3472 68.1292 75.3433 68.7317L75.5933 68.7334ZM75.5551 73.8366L75.8051 73.8388C75.8194 72.1624 75.8321 70.4611 75.8433 68.735L75.5933 68.7334L75.3433 68.7317C75.3321 70.4575 75.3194 72.1585 75.3051 73.8345L75.5551 73.8366ZM75.2028 74.5481L75.3399 74.7572C75.6622 74.546 75.8021 74.1803 75.8051 73.8388L75.5551 73.8366L75.3051 73.8345C75.3032 74.0552 75.2137 74.2421 75.0658 74.339L75.2028 74.5481ZM74.2419 74.8624V75.1124C74.6461 75.1124 75.0146 74.9704 75.3399 74.7572L75.2028 74.5481L75.0658 74.339C74.7993 74.5137 74.5248 74.6124 74.2419 74.6124V74.8624ZM73.2824 74.548L73.1451 74.7569C73.4699 74.9702 73.8379 75.1124 74.2419 75.1124V74.8624V74.6124C73.9595 74.6124 73.6856 74.5137 73.4196 74.339L73.2824 74.548ZM72.931 73.8375L72.681 73.8397C72.684 74.1806 72.8235 74.5457 73.1451 74.7569L73.2824 74.548L73.4196 74.339C73.2721 74.2421 73.1829 74.0556 73.1809 73.8353L72.931 73.8375ZM72.8904 68.6754L72.6404 68.6771C72.6523 70.4254 72.6658 72.1466 72.681 73.8397L72.931 73.8375L73.1809 73.8353C73.1658 72.1425 73.1523 70.4217 73.1404 68.6737L72.8904 68.6754ZM72.0836 67.8997L72.0735 68.1495C72.3809 68.1619 72.6386 68.4154 72.6404 68.6771L72.8904 68.6754L73.1404 68.6737C73.1365 68.1004 72.6208 67.6711 72.0937 67.6499L72.0836 67.8997ZM68.0292 63.8031L67.7797 63.8189C67.9278 66.1571 69.7116 68.0542 72.0735 68.1495L72.0836 67.8997L72.0937 67.6499C70.0083 67.5658 68.412 65.8911 68.2787 63.7873L68.0292 63.8031ZM67.7037 55.3335L67.4537 55.3368C67.4934 58.2639 67.607 61.0935 67.7797 63.8189L68.0292 63.8031L68.2787 63.7873C68.1065 61.0699 67.9932 58.2486 67.9537 55.3301L67.7037 55.3335Z" fill="#1C1C1C"/>
</svg>
