<svg width="102" height="102" viewBox="0 0 102 102" fill="none" xmlns="http://www.w3.org/2000/svg">
<rect x="0.5" y="0.5" width="101" height="101" rx="4.5" stroke="#8A38F5" stroke-dasharray="10 5"/>
<path d="M37.4403 47.4308C37.6103 45.6408 39.0403 44.2408 40.8403 44.0908C50.6503 43.2508 60.4503 43.2508 70.2603 44.0908C72.0503 44.2408 73.4803 45.6408 73.6703 47.4208C74.4203 54.7808 74.4203 62.1408 73.6703 69.5008C73.4803 71.2908 72.0603 72.6808 70.2603 72.8308C60.4803 73.6708 50.7003 73.6708 40.9203 72.8308C39.0903 72.6708 37.6503 71.2308 37.4903 69.4008C36.8403 61.8008 36.7803 54.4508 37.4503 47.4208L37.4403 47.4308Z" fill="#4169E1" stroke="#1C1C1C" stroke-width="0.5" stroke-miterlimit="10"/>
<path d="M37.4403 44.6009C37.6103 42.8109 39.0403 41.4109 40.8403 41.2609C50.6503 40.4209 60.4503 40.4209 70.2603 41.2609C72.0503 41.4109 73.4803 42.8109 73.6703 44.5909C74.4203 51.9509 74.4203 59.3109 73.6703 66.6709C73.4803 68.4609 72.0603 69.8509 70.2603 70.0009C60.4803 70.8409 50.7003 70.8409 40.9203 70.0009C39.0903 69.8409 37.6503 68.4009 37.4903 66.5709C36.8403 58.9709 36.7803 51.6209 37.4503 44.5909L37.4403 44.6009Z" fill="#E8EDFA" stroke="#1C1C1C" stroke-width="0.5" stroke-linejoin="round"/>
<path d="M57.9503 56.4609C58.0303 53.0109 60.9703 50.2709 64.4203 50.2009C67.8703 50.1309 71.3903 50.3009 75.0203 50.6509C75.5103 54.0609 75.3603 57.6909 75.2503 62.3109C75.2403 62.8009 74.8603 63.2109 74.3703 63.2509C71.1203 63.5309 67.9403 63.6409 64.7303 63.5609C60.9403 63.4709 57.8503 60.2609 57.9403 56.4509L57.9503 56.4609Z" fill="#4169E1" stroke="#1C1C1C" stroke-width="0.5" stroke-miterlimit="10"/>
<path d="M57.9503 54.1809C58.0303 50.7209 60.9703 47.9909 64.4303 47.9009C67.7403 47.8109 71.0403 47.9009 74.3403 48.1909C74.8903 48.2409 75.3203 48.6909 75.3503 49.2409C75.6003 53.8109 75.5903 55.2909 75.4103 60.9109C71.8803 61.2509 68.3003 61.3809 64.7403 61.3009C60.9403 61.2109 57.8703 58.0009 57.9603 54.1909L57.9503 54.1809Z" fill="#E8EDFA" stroke="#1C1C1C" stroke-width="0.5" stroke-linejoin="round"/>
<path d="M64.1703 57.1809C65.8824 57.1809 67.2703 55.7929 67.2703 54.0809C67.2703 52.3688 65.8824 50.9809 64.1703 50.9809C62.4582 50.9809 61.0703 52.3688 61.0703 54.0809C61.0703 55.7929 62.4582 57.1809 64.1703 57.1809Z" fill="#4169E1" stroke="#1C1C1C" stroke-width="0.5" stroke-miterlimit="10"/>
<path d="M37.54 55.3202C43.9134 55.3202 49.08 50.1536 49.08 43.7802C49.08 37.4069 43.9134 32.2402 37.54 32.2402C31.1666 32.2402 26 37.4069 26 43.7802C26 50.1536 31.1666 55.3202 37.54 55.3202Z" fill="#E8EDFA" stroke="#1C1C1C" stroke-width="0.5" stroke-linejoin="round"/>
<path d="M37.54 52.08C43.9134 52.08 49.08 46.9134 49.08 40.54C49.08 34.1666 43.9134 29 37.54 29C31.1666 29 26 34.1666 26 40.54C26 46.9134 31.1666 52.08 37.54 52.08Z" fill="white" stroke="#1C1C1C" stroke-width="0.5" stroke-linejoin="round"/>
<path d="M35.0527 33.8008L37.5527 35.8008L40.0527 33.8008" stroke="#1C1C1C" stroke-width="0.5" stroke-linecap="round" stroke-linejoin="round"/>
<path d="M40.0527 47.3008L37.5527 45.3008L35.0527 47.3008" stroke="#1C1C1C" stroke-width="0.5" stroke-linecap="round" stroke-linejoin="round"/>
<path d="M37.541 33.4492V47.6292" stroke="#1C1C1C" stroke-width="0.5" stroke-linecap="round" stroke-linejoin="round"/>
<path d="M44.6583 39.4098L41.6876 38.2161L42.2001 35.0558" stroke="#1C1C1C" stroke-width="0.5" stroke-linecap="round" stroke-linejoin="round"/>
<path d="M30.4444 41.6929L33.4151 42.8866L32.9026 46.0469" stroke="#1C1C1C" stroke-width="0.5" stroke-linecap="round" stroke-linejoin="round"/>
<path d="M43.7411 37.0702L31.3932 44.0416" stroke="#1C1C1C" stroke-width="0.5" stroke-linecap="round" stroke-linejoin="round"/>
<path d="M30.4466 39.41L33.4173 38.2163L32.9048 35.056" stroke="#1C1C1C" stroke-width="0.5" stroke-linecap="round" stroke-linejoin="round"/>
<path d="M44.6606 41.6931L41.6899 42.8869L42.2024 46.0471" stroke="#1C1C1C" stroke-width="0.5" stroke-linecap="round" stroke-linejoin="round"/>
<path d="M31.3638 37.0704L43.7117 44.0418" stroke="#1C1C1C" stroke-width="0.5" stroke-linecap="round" stroke-linejoin="round"/>
</svg>
