<svg width="102" height="102" viewBox="0 0 102 102" fill="none" xmlns="http://www.w3.org/2000/svg">
<rect x="0.5" y="0.5" width="101" height="101" rx="4.5" stroke="#8A38F5" stroke-dasharray="10 5"/>
<path d="M72.0999 39.1427L72.3947 37.1463L30.6928 30.9884L30.398 32.9848C30.3173 33.5311 30.6948 34.0395 31.2412 34.1201L70.9646 39.9859C71.5109 40.0665 72.0192 39.689 72.0999 39.1427Z" fill="#FFE2C8" stroke="#1C1C1C" stroke-width="0.5" stroke-miterlimit="10"/>
<path d="M51.4838 31.9762C53.1285 31.9762 54.4618 30.6384 54.4618 28.9881C54.4618 27.3378 53.1285 25.9999 51.4838 25.9999C49.839 25.9999 48.5057 27.3378 48.5057 28.9881C48.5057 30.6384 49.839 31.9762 51.4838 31.9762Z" fill="#FF9500" stroke="#1C1C1C" stroke-width="0.5" stroke-linejoin="round"/>
<path d="M76.1157 60.2601H68.6855H61.2553V56.5548L68.6855 38.4766L76.1157 56.5548V60.2601Z" stroke="#1C1C1C" stroke-width="0.5" stroke-linejoin="round"/>
<path d="M41.712 55.2601H34.2818H26.8516V51.5548L34.2818 33.4766L41.712 51.5548V55.2601Z" stroke="#1C1C1C" stroke-width="0.5" stroke-linejoin="round"/>
<path d="M42.6771 50.7404C42.6771 55.7082 38.6046 59.7273 33.5866 59.7273C28.5686 59.7273 24.1388 55.3721 24.1388 50.4043C23.6549 42.03 28.5686 41.7462 33.5866 41.7462C38.6046 41.7462 42.9526 42.1794 42.6771 50.733V50.7404Z" fill="#FF9500" stroke="#1C1C1C" stroke-width="0.5" stroke-linejoin="round"/>
<path d="M33.3707 57.3218C38.4929 57.3218 42.6398 53.0862 42.6398 47.8719C42.6398 42.6576 38.4929 38.4219 33.3707 38.4219C28.2485 38.4219 24.1016 42.6576 24.1016 47.8719C24.1016 53.0862 28.2485 57.3218 33.3707 57.3218Z" fill="#FFE2C8" stroke="#1C1C1C" stroke-width="0.5" stroke-linejoin="round"/>
<path d="M33.3931 55.1928C37.4283 55.1928 40.6967 51.9133 40.6967 47.8644C40.6967 43.8154 37.4283 40.5359 33.3931 40.5359C29.3578 40.5359 26.0894 43.8154 26.0894 47.8644C26.0894 51.9133 29.3578 55.1928 33.3931 55.1928Z" fill="#FF9500" stroke="#1C1C1C" stroke-width="0.5" stroke-linejoin="round"/>
<path d="M36.6093 45.6905C36.6987 46.5421 36.3488 47.0576 35.8127 47.3415C36.7061 47.573 37.2571 48.1184 37.1528 49.3734C37.0114 50.9198 35.9244 51.3456 34.3609 51.4352V52.5931C34.3609 52.8546 34.1524 53.0637 33.8919 53.0637C33.6313 53.0637 33.4228 52.8546 33.4228 52.5931V51.4576C33.1846 51.4576 32.9315 51.4576 32.6858 51.4427V52.5931C32.6858 52.8546 32.4773 53.0637 32.2167 53.0637C31.9561 53.0637 31.7477 52.8546 31.7477 52.5931V51.4352C31.5318 51.4352 31.3159 51.4203 31.0851 51.4203H30.549C30.1917 51.4203 29.9162 51.099 29.9758 50.7405C30.0204 50.4566 30.2736 50.2549 30.5565 50.2549C30.7352 50.2549 30.7352 50.2549 30.7352 50.2549C30.9957 50.2549 31.0627 50.0607 31.0851 49.9187V47.3489V45.5038C31.0553 45.3095 30.9213 45.0705 30.5416 45.0705C30.5416 45.0705 30.5416 45.0705 30.3927 45.0705C30.1023 45.0705 29.8715 44.8389 29.8715 44.5476C29.8715 44.2562 30.1023 44.0321 30.3852 44.0321H31.7477V42.8817C31.7477 42.6202 31.9561 42.411 32.2167 42.411C32.4773 42.411 32.6858 42.6202 32.6858 42.8817V43.9947C32.9389 43.9947 33.1771 43.9798 33.4228 43.9798V42.8742C33.4228 42.6127 33.6313 42.4036 33.8919 42.4036C34.1524 42.4036 34.3609 42.6127 34.3609 42.8742V44.0246C35.5596 44.1292 36.5125 44.5177 36.6093 45.6905ZM35.3064 49.1792C35.3064 47.9167 33.326 48.1034 32.6932 48.1034V50.2624C33.326 50.2624 35.3064 50.4118 35.3064 49.1866V49.1792ZM34.8821 46.1387C34.8821 44.9808 33.2293 45.1526 32.6932 45.1526V47.1173C33.2293 47.1173 34.8821 47.2443 34.8821 46.1462V46.1387Z" fill="white"/>
<path d="M78.0521 54.7952C78.0521 59.763 73.9796 63.782 68.9616 63.782C63.9436 63.782 59.5138 59.4268 59.5138 54.459C59.0299 46.0848 63.9436 45.8009 68.9616 45.8009C73.9796 45.8009 78.3276 46.2342 78.0521 54.7877V54.7952Z" fill="#4169E1" stroke="#1C1C1C" stroke-width="0.5" stroke-linejoin="round"/>
<path d="M68.7457 61.3765C73.8679 61.3765 78.0148 57.1408 78.0148 51.9265C78.0148 46.7122 73.8679 42.4766 68.7457 42.4766C63.6235 42.4766 59.4766 46.7122 59.4766 51.9265C59.4766 57.1408 63.6235 61.3765 68.7457 61.3765Z" fill="#E8EDFA" stroke="#1C1C1C" stroke-width="0.5" stroke-linejoin="round"/>
<path d="M68.7681 59.2475C72.8033 59.2475 76.0717 55.968 76.0717 51.9191C76.0717 47.8702 72.8033 44.5907 68.7681 44.5907C64.7328 44.5907 61.4644 47.8702 61.4644 51.9191C61.4644 55.968 64.7328 59.2475 68.7681 59.2475Z" fill="#E8EDFA" stroke="#1C1C1C" stroke-width="0.5" stroke-linejoin="round"/>
<path d="M69.0195 48.0901C68.9227 47.8971 68.6349 47.8896 68.5282 48.0774C67.734 49.4744 66.5316 50.6125 65.0829 51.3406C64.8908 51.4372 64.8834 51.7229 65.0702 51.8293C66.4792 52.6316 67.621 53.8305 68.3416 55.2669C68.4384 55.4599 68.7262 55.4673 68.8329 55.2796C69.627 53.8826 70.8295 52.7445 72.2782 52.0164C72.4703 51.9198 72.4777 51.6341 72.2908 51.5277C70.8819 50.7254 69.7401 49.5265 69.0195 48.0901Z" fill="#1C1C1C" stroke="#1C1C1C" stroke-width="0.5" stroke-miterlimit="10" stroke-linejoin="round"/>
<path d="M80.9579 62.8287C79.1339 67.5649 74.5552 70.9265 69.1873 70.9265C63.8193 70.9265 59.2332 67.5649 57.4091 62.8287V60.4531H80.9505V62.8287H80.9579Z" fill="#FFE2C8" stroke="#1C1C1C" stroke-width="0.5" stroke-miterlimit="10"/>
<path d="M80.9579 60.4531C79.1339 65.1893 74.5552 68.551 69.1873 68.551C63.8193 68.551 59.2332 65.1893 57.4091 60.4531H80.9505H80.9579Z" fill="#FF9500" stroke="#1C1C1C" stroke-width="0.5" stroke-linejoin="round"/>
<path d="M45.5414 57.8287C43.7173 62.5649 39.1386 65.9265 33.7707 65.9265C28.4028 65.9265 23.824 62.5649 22 57.8287V55.4531H45.5414V57.8287Z" fill="#FFE2C8" stroke="#1C1C1C" stroke-width="0.5" stroke-miterlimit="10"/>
<path d="M45.5414 55.4531C43.7173 60.1893 39.1386 63.551 33.7707 63.551C28.4028 63.551 23.824 60.1893 22 55.4531H45.5414Z" fill="#FF9500" stroke="#1C1C1C" stroke-width="0.5" stroke-linejoin="round"/>
<path d="M63.2543 73.22C61.4302 68.4838 56.8515 68.8424 51.4836 68.8424C46.1157 68.8424 41.5295 68.4838 39.7054 73.22H63.2468H63.2543Z" fill="#FF9500" stroke="#1C1C1C" stroke-width="0.5" stroke-linejoin="round"/>
<path d="M52.9793 34.434H49.9715V68.8423H52.9793V34.434Z" fill="#FF9500" stroke="#1C1C1C" stroke-width="0.5" stroke-linejoin="round"/>
<path d="M72.2702 37.9358L72.7111 34.9502L31.0092 28.7923L30.5683 31.778L72.2702 37.9358Z" fill="#FF9500" stroke="#1C1C1C" stroke-width="0.5" stroke-linejoin="round"/>
<path d="M62.806 73.2199H40.1603C39.8842 73.2199 39.6603 73.4438 39.6603 73.7199V75.4541C39.6603 75.7302 39.8842 75.9541 40.1603 75.9541H62.806C63.0821 75.9541 63.306 75.7302 63.306 75.4541V73.7199C63.306 73.4438 63.0821 73.2199 62.806 73.2199Z" fill="#FFE2C8" stroke="#1C1C1C" stroke-width="0.5" stroke-miterlimit="10"/>
</svg>
