<svg width="62" height="62" viewBox="0 0 62 62" fill="none" xmlns="http://www.w3.org/2000/svg">
<g clip-path="url(#clip0_18011_3582)">
<path d="M16.9696 28.2302C17.1396 26.4402 18.5696 25.0402 20.3696 24.8902C30.1796 24.0502 39.9796 24.0502 49.7896 24.8902C51.5796 25.0402 53.0096 26.4402 53.1996 28.2202C53.9496 35.5802 53.9496 42.9402 53.1996 50.3002C53.0096 52.0902 51.5896 53.4802 49.7896 53.6302C40.0096 54.4702 30.2296 54.4702 20.4496 53.6302C18.6196 53.4702 17.1796 52.0302 17.0196 50.2002C16.3696 42.6002 16.3096 35.2502 16.9796 28.2202L16.9696 28.2302Z" fill="#FF9500" stroke="#1C1C1C" stroke-width="0.5" stroke-linejoin="round"/>
<path d="M16.9696 25.3902C17.1396 23.6002 18.5696 22.2002 20.3696 22.0502C30.1796 21.2102 39.9796 21.2102 49.7896 22.0502C51.5796 22.2002 53.0096 23.6002 53.1996 25.3802C53.9496 32.7402 53.9496 40.1002 53.1996 47.4602C53.0096 49.2502 51.5896 50.6402 49.7896 50.7902C40.0096 51.6302 30.2296 51.6302 20.4496 50.7902C18.6196 50.6302 17.1796 49.1902 17.0196 47.3602C16.3696 39.7602 16.3096 32.4102 16.9796 25.3802L16.9696 25.3902Z" fill="#FFE2C8" stroke="#1C1C1C" stroke-width="0.5" stroke-linejoin="round"/>
<path d="M37.4896 37.2602C37.5696 33.8102 40.5096 31.0702 43.9596 31.0002C47.4096 30.9302 50.9296 31.1002 54.5596 31.4502C55.0496 34.8602 54.8996 38.4902 54.7896 43.1102C54.7796 43.6002 54.3996 44.0102 53.9096 44.0502C50.6596 44.3302 47.4796 44.4402 44.2696 44.3602C40.4796 44.2702 37.3896 41.0602 37.4796 37.2502L37.4896 37.2602Z" fill="#FF9500" stroke="#1C1C1C" stroke-width="0.5" stroke-linejoin="round"/>
<path d="M37.4896 34.9802C37.5696 31.5202 40.5096 28.7902 43.9696 28.7002C47.2796 28.6102 50.5796 28.7002 53.8796 28.9902C54.4296 29.0402 54.8596 29.4902 54.8896 30.0402C55.1396 34.6102 55.1296 36.0902 54.9496 41.7102C51.4196 42.0502 47.8396 42.1802 44.2796 42.1002C40.4796 42.0102 37.4096 38.8002 37.4996 34.9902L37.4896 34.9802Z" fill="#FFE2C8" stroke="#1C1C1C" stroke-width="0.5" stroke-linejoin="round"/>
<path d="M43.6996 37.9702C45.4117 37.9702 46.7996 36.5823 46.7996 34.8702C46.7996 33.1581 45.4117 31.7702 43.6996 31.7702C41.9875 31.7702 40.5996 33.1581 40.5996 34.8702C40.5996 36.5823 41.9875 37.9702 43.6996 37.9702Z" fill="#FF9500" stroke="#1C1C1C" stroke-width="0.5" stroke-linejoin="round"/>
<path d="M32.41 35.07C30.46 39.24 27.3 41.45 22.3 45.31C21.88 45.63 21.45 45.96 21 46.29C20.55 45.96 20.11 45.63 19.7 45.31C14.7 41.41 11.54 39.25 9.59 35.07C7.74 31.09 7 11.86 7 11.86C12.93 12.24 17.21 14.29 19.7 12.62C20.21 12.28 20.64 11.95 21 11.66C21.36 11.96 21.79 12.28 22.3 12.62C24.78 14.28 29.06 12.24 34.99 11.86C34.99 11.86 34.25 31.09 32.4 35.06L32.41 35.07Z" fill="#4169E1" stroke="#1C1C1C" stroke-width="0.5" stroke-linejoin="round"/>
<path d="M22.56 28.9C22.78 30.98 22.89 32.02 23.11 34.11C21.42 34.11 20.58 34.11 18.89 34.11C19.11 32.03 19.22 30.99 19.44 28.9C18.49 28.49 17.7 27.72 17.29 26.69C16.49 24.65 17.5 22.33 19.54 21.52C21.58 20.71 23.9 21.73 24.7 23.77C25.49 25.78 24.53 28.05 22.56 28.89V28.9Z" fill="#FF9500" stroke="#1C1C1C" stroke-width="0.5" stroke-linejoin="round"/>
<path d="M32.43 30.94C30.49 35.1 27.33 37.29 22.31 41.14C21.89 41.46 21.45 41.79 21.01 42.12C20.55 41.79 20.12 41.46 19.71 41.14C14.69 37.24 11.53 35.1 9.59 30.94C7.73 26.97 7 11.67 7 11.67C12.93 12.05 17.23 10.13 19.7 8.46C20.21 8.12 20.64 7.79 21 7.5C21.36 7.8 21.79 8.12 22.3 8.46C24.77 10.12 29.07 12.05 34.99 11.66C34.99 11.66 34.27 26.97 32.43 30.93V30.94Z" fill="#CCD9FD" stroke="#1C1C1C" stroke-width="0.5" stroke-linejoin="round"/>
<path d="M22.56 24.73C22.78 26.81 22.89 27.86 23.11 29.94C21.42 29.94 20.57 29.94 18.88 29.94C19.1 27.86 19.21 26.82 19.43 24.73C18.48 24.32 17.69 23.56 17.29 22.52C16.49 20.49 17.5 18.16 19.54 17.35C21.58 16.54 23.89 17.56 24.69 19.61C25.49 21.63 24.53 23.89 22.55 24.73H22.56Z" fill="#4169E1" stroke="#1C1C1C" stroke-width="0.5" stroke-linejoin="round"/>
</g>
<defs>
<clipPath id="clip0_18011_3582">
<rect width="62" height="62" rx="5" fill="white"/>
</clipPath>
</defs>
</svg>
