<svg width="102" height="102" viewBox="0 0 102 102" fill="none" xmlns="http://www.w3.org/2000/svg">
<rect x="0.5" y="0.5" width="101" height="101" rx="4.5" stroke="#8A38F5" stroke-dasharray="10 5"/>
<path d="M63.1266 57.5529V43.1802L50.6838 35.9895L38.2322 43.1802V57.5529L50.6838 64.7437L63.1266 57.5529Z" fill="#CCD9FD" stroke="#1C1C1C" stroke-width="0.5" stroke-linejoin="round"/>
<path d="M34.4961 62.1969C34.4961 61.7651 34.5578 60.2141 34.452 59.8088C33.8968 57.6938 31.8524 57.2532 29.5612 57.2532C27.2701 57.2532 25.1904 57.7291 24.6881 59.9321C24.6088 60.2846 24.6176 61.8179 24.6176 62.1969C24.6176 64.9286 26.8295 67.1317 29.5524 67.1317C32.2754 67.1317 34.4873 64.9198 34.4873 62.1969H34.4961Z" fill="#CCD9FD" stroke="#1C1C1C" stroke-width="0.5" stroke-linejoin="round"/>
<path d="M29.5526 64.9111C32.278 64.9111 34.4874 62.7018 34.4874 59.9763C34.4874 57.2509 32.278 55.0415 29.5526 55.0415C26.8272 55.0415 24.6178 57.2509 24.6178 59.9763C24.6178 62.7018 26.8272 64.9111 29.5526 64.9111Z" fill="#4169E1" stroke="#1C1C1C" stroke-width="0.5" stroke-linejoin="round"/>
<path d="M55.4335 75.4152C55.4335 74.9834 55.4952 73.4325 55.3894 73.0271C54.8343 70.9122 52.7898 70.4716 50.4987 70.4716C48.2075 70.4716 46.1278 70.9474 45.6255 73.1505C45.5462 73.503 45.555 75.0363 45.555 75.4152C45.555 78.147 47.7669 80.35 50.4899 80.35C53.2128 80.35 55.4247 78.1382 55.4247 75.4152H55.4335Z" fill="#CCD9FD" stroke="#1C1C1C" stroke-width="0.5" stroke-linejoin="round"/>
<path d="M50.4989 78.1293C53.2243 78.1293 55.4337 75.9199 55.4337 73.1945C55.4337 70.469 53.2243 68.2596 50.4989 68.2596C47.7735 68.2596 45.5641 70.469 45.5641 73.1945C45.5641 75.9199 47.7735 78.1293 50.4989 78.1293Z" fill="#4169E1" stroke="#1C1C1C" stroke-width="0.5" stroke-linejoin="round"/>
<path d="M34.4959 40.6949C34.4959 40.2631 34.5575 38.7122 34.4518 38.3068C33.8966 36.1919 31.8522 35.7513 29.561 35.7513C27.2699 35.7513 25.1902 36.2271 24.6879 38.4302C24.6086 38.7827 24.6174 40.316 24.6174 40.6949C24.6174 43.4267 26.8293 45.6297 29.5522 45.6297C32.2752 45.6297 34.4871 43.4179 34.4871 40.6949H34.4959Z" fill="#CCD9FD" stroke="#1C1C1C" stroke-width="0.5" stroke-linejoin="round"/>
<path d="M29.5524 43.4094C32.2778 43.4094 34.4872 41.2 34.4872 38.4746C34.4872 35.7491 32.2778 33.5397 29.5524 33.5397C26.8269 33.5397 24.6175 35.7491 24.6175 38.4746C24.6175 41.2 26.8269 43.4094 29.5524 43.4094Z" fill="#4169E1" stroke="#1C1C1C" stroke-width="0.5" stroke-linejoin="round"/>
<path d="M76.3804 40.6949C76.3804 40.2631 76.4421 38.7122 76.3363 38.3068C75.7811 36.1919 73.7367 35.7513 71.4455 35.7513C69.1544 35.7513 67.0747 36.2271 66.5724 38.4302C66.4931 38.7827 66.5019 40.316 66.5019 40.6949C66.5019 43.4267 68.7138 45.6297 71.4367 45.6297C74.1597 45.6297 76.3716 43.4179 76.3716 40.6949H76.3804Z" fill="#CCD9FD" stroke="#1C1C1C" stroke-width="0.5" stroke-linejoin="round"/>
<path d="M71.4369 43.4093C74.1623 43.4093 76.3717 41.1999 76.3717 38.4745C76.3717 35.7491 74.1623 33.5397 71.4369 33.5397C68.7115 33.5397 66.5021 35.7491 66.5021 38.4745C66.5021 41.1999 68.7115 43.4093 71.4369 43.4093Z" fill="#4169E1" stroke="#1C1C1C" stroke-width="0.5" stroke-linejoin="round"/>
<path d="M55.4337 28.1554C55.4337 27.7236 55.4954 26.1726 55.3897 25.7673C54.8345 23.6523 52.7901 23.2117 50.4989 23.2117C48.2077 23.2117 46.1281 23.6876 45.6258 25.8906C45.5465 26.2431 45.5553 27.7764 45.5553 28.1554C45.5553 30.8871 47.7671 33.0902 50.4901 33.0902C53.2131 33.0902 55.4249 30.8783 55.4249 28.1554H55.4337Z" fill="#CCD9FD" stroke="#1C1C1C" stroke-width="0.5" stroke-linejoin="round"/>
<path d="M50.4996 30.8696C53.2251 30.8696 55.4345 28.6603 55.4345 25.9348C55.4345 23.2094 53.2251 21 50.4996 21C47.7742 21 45.5648 23.2094 45.5648 25.9348C45.5648 28.6603 47.7742 30.8696 50.4996 30.8696Z" fill="#4169E1" stroke="#1C1C1C" stroke-width="0.5" stroke-linejoin="round"/>
<path d="M61.6723 71.1589C61.6723 70.6301 61.6723 70.357 61.6723 69.8282C61.6547 62.9724 69.6033 63.0957 69.6033 59.095C69.6033 59.0157 69.6033 58.9716 69.6033 58.8835C69.6033 57.6322 68.6075 56.7157 66.9508 56.7157C65.0033 56.7157 63.752 57.8877 63.5846 60.0555C60.1654 60.0555 58.4471 60.0731 55.0279 60.0996C55.5126 53.8077 60.1566 50.1154 67.2769 50.133C73.9036 50.1418 78.248 53.9751 78.2833 58.4605C78.2833 58.6279 78.2833 58.7073 78.2833 58.8747C78.3273 65.9509 69.5769 66.18 69.5592 70.8416C69.5592 70.9738 69.5592 71.0443 69.5592 71.1765C66.4045 71.1853 64.8359 71.1853 61.6811 71.1677L61.6723 71.1589ZM61.7252 80.2178C61.6988 77.4243 61.6899 76.0232 61.6811 73.2297C64.8271 73.2562 66.3957 73.265 69.5416 73.2474C69.5416 76.0496 69.5328 77.442 69.5152 80.2442C66.3957 80.2707 64.8447 80.2707 61.7252 80.2178Z" fill="#CCD9FD" stroke="#1C1C1C" stroke-width="0.5" stroke-linejoin="round"/>
<path d="M61.6633 68.6122C61.6633 68.0835 61.6633 67.8103 61.6633 67.2816C61.6545 60.4257 69.603 60.5403 69.5942 56.5395C69.5942 56.4602 69.5942 56.4162 69.5942 56.328C69.5942 55.0767 68.5985 54.1514 66.9418 54.1514C64.9943 54.1514 63.7517 55.3235 63.5843 57.4912C60.1652 57.5089 58.4556 57.5177 55.0365 57.5706C55.5388 51.2698 60.174 47.5511 67.2678 47.5687C73.8681 47.5864 78.2125 51.4461 78.2478 55.9315C78.2478 56.0989 78.2478 56.1782 78.2478 56.3457C78.3095 63.4218 69.559 63.6245 69.5502 68.2862C69.5502 68.4184 69.5502 68.4889 69.5502 68.621C66.3954 68.621 64.818 68.621 61.6633 68.621V68.6122ZM61.7073 77.6712C61.6897 74.8777 61.6809 73.4766 61.6721 70.6831C64.8268 70.7007 66.3954 70.7095 69.5502 70.6919C69.5502 73.4942 69.5414 74.8865 69.5325 77.6888C66.4042 77.7152 64.8445 77.7064 61.7161 77.6623L61.7073 77.6712Z" fill="white" stroke="#1C1C1C" stroke-width="0.5" stroke-linejoin="round"/>
</svg>
