<svg width="102" height="102" viewBox="0 0 102 102" fill="none" xmlns="http://www.w3.org/2000/svg">
<rect x="0.5" y="0.5" width="101" height="101" rx="4.5" stroke="#9747FF" stroke-dasharray="10 5"/>
<path d="M25.8261 40.3333C24.7977 40.3333 23.9355 41.1128 23.8465 42.1373C23.5101 46.009 23.2958 50.188 23.2758 54.6388C23.2542 59.4903 23.467 64.0272 23.8226 68.2025C23.9192 69.3372 24.9545 70.1477 26.0869 70.0264C29.1431 69.6992 32.9642 69.4822 36.3414 69.4805C39.8513 69.4787 43.0642 69.7094 45.9235 70.0555C46.9112 70.1751 47.5931 71.062 48.0219 71.9597C48.654 73.2829 50.0062 74.206 51.5565 74.206C53.109 74.206 54.4628 73.288 55.0937 71.9605C55.5208 71.0619 56.2018 70.1751 57.1895 70.0555C60.0004 69.7151 63.1494 69.4866 66.583 69.4805C70.0314 69.4745 73.9198 69.6935 77.0247 70.0263C78.1571 70.1477 79.1925 69.3371 79.2888 68.2023C79.6682 63.7347 79.8829 58.8686 79.8256 53.6551C79.7814 49.5836 79.5763 45.736 79.2648 42.1381C79.1761 41.1133 78.3138 40.3333 77.2851 40.3333H25.8261Z" fill="#FF9500" stroke="#1C1C1C" stroke-width="0.5" stroke-miterlimit="10" stroke-linejoin="round"/>
<path d="M25.8262 36.4068C24.7978 36.4068 23.9357 37.1863 23.8466 38.2108C23.5102 42.0825 23.2959 46.2614 23.2759 50.7123C23.2543 55.5638 23.4671 60.1006 23.8227 64.2759C23.9193 65.4107 24.9546 66.2211 26.087 66.0999C29.1432 65.7726 32.9643 65.5557 36.3415 65.554C39.8514 65.5522 43.0643 65.7828 45.9236 66.129C46.9113 66.2486 47.5932 67.1354 48.0221 68.0332C48.6541 69.3564 50.0063 70.2795 51.5566 70.2795C53.1091 70.2795 54.4629 69.3615 55.0938 68.0339C55.5209 67.1353 56.2019 66.2486 57.1896 66.129C60.0005 65.7886 63.1495 65.5601 66.5832 65.554C70.0316 65.548 73.9199 65.767 77.0248 66.0998C78.1572 66.2212 79.1926 65.4106 79.289 64.2758C79.6683 59.8082 79.883 54.9421 79.8257 49.7285C79.7815 45.6571 79.5764 41.8095 79.2649 38.2116C79.1762 37.1868 78.3139 36.4068 77.2852 36.4068H25.8262Z" fill="#FFE2C8" stroke="#1C1C1C" stroke-width="0.5" stroke-miterlimit="10" stroke-linejoin="round"/>
<path d="M27.228 34.86C27.2913 33.8909 28.0489 33.1118 29.0165 33.0287C31.971 32.7749 35.1647 32.6154 38.569 32.6083C41.6036 32.6015 43.9092 32.7651 46.2742 32.9895C48.0919 33.1618 50.183 33.7281 51.3762 35.11C51.4497 35.1951 51.5108 35.2766 51.5556 35.3527V65.0307L50.6107 64.1774C49.6612 63.3199 48.4626 62.7861 47.1894 62.6604C44.5068 62.3955 42.0727 62.1972 38.6353 62.2041C35.3496 62.21 32.2591 62.3569 29.3892 62.5935C28.2677 62.686 27.2751 61.8548 27.2039 60.7318C26.9092 56.0876 26.7572 51.1384 26.8104 45.9163C26.8494 42.0697 26.9981 38.3799 27.228 34.86Z" fill="#4169E1" stroke="#1C1C1C" stroke-width="0.5" stroke-miterlimit="10" stroke-linejoin="round"/>
<path d="M27.228 31.4741C27.2913 30.505 28.0489 29.7259 29.0165 29.6428C31.971 29.389 35.1647 29.2295 38.569 29.2224C41.6036 29.2156 43.9092 29.3793 46.2742 29.6036C48.0919 29.7759 50.183 30.3422 51.3762 31.7241C51.4497 31.8092 51.5108 31.8907 51.5556 31.9668V61.6449L50.6107 60.7915C49.6612 59.934 48.4626 59.4002 47.1894 59.2745C44.5068 59.0096 42.0727 58.8113 38.6353 58.8182C35.3496 58.8241 32.2591 58.971 29.3892 59.2076C28.2677 59.3001 27.2751 58.4689 27.2039 57.3459C26.9092 52.7017 26.7572 47.7525 26.8104 42.5304C26.8494 38.6838 26.9981 34.994 27.228 31.4741Z" fill="#CCD9FD" stroke="#1C1C1C" stroke-width="0.5" stroke-miterlimit="10" stroke-linejoin="round"/>
<path d="M75.883 34.8595C75.8198 33.8906 75.0625 33.1116 74.0951 33.0284C71.1405 32.7742 67.9465 32.6154 64.541 32.6083C61.5064 32.6015 59.2008 32.7651 56.8358 32.9895C55.0182 33.1618 52.9271 33.7281 51.7338 35.11C51.6603 35.1951 51.5993 35.2766 51.5544 35.3527V65.0307L52.4993 64.1774C53.4488 63.3199 54.6474 62.7861 55.9206 62.6604C58.6032 62.3955 61.0373 62.1972 64.4747 62.2041C67.7604 62.21 70.8509 62.3569 73.7209 62.5935C74.8423 62.686 75.8349 61.8548 75.9061 60.7318C76.2008 56.0876 76.3528 51.1384 76.2996 45.9163C76.2606 42.0695 76.1127 38.3796 75.883 34.8595Z" fill="#4169E1" stroke="#1C1C1C" stroke-width="0.5" stroke-miterlimit="10" stroke-linejoin="round"/>
<path d="M75.883 31.4736C75.8198 30.5047 75.0625 29.7257 74.0951 29.6425C71.1405 29.3883 67.9465 29.2295 64.541 29.2224C61.5064 29.2156 59.2008 29.3793 56.8358 29.6036C55.0182 29.7759 52.9271 30.3422 51.7338 31.7241C51.6603 31.8092 51.5993 31.8907 51.5544 31.9668V61.6449L52.4993 60.7915C53.4488 59.934 54.6474 59.4002 55.9206 59.2745C58.6032 59.0096 61.0373 58.8113 64.4747 58.8182C67.7604 58.8241 70.8509 58.971 73.7209 59.2076C74.8423 59.3001 75.8349 58.4689 75.9061 57.3459C76.2008 52.7017 76.3528 47.7525 76.2996 42.5304C76.2606 38.6836 76.1127 34.9937 75.883 31.4736Z" fill="#CCD9FD" stroke="#1C1C1C" stroke-width="0.5" stroke-miterlimit="10" stroke-linejoin="round"/>
<path d="M71.9764 36.0952C71.9764 37.0551 71.24 37.8561 70.2822 37.9183C68.1687 38.0553 65.9257 38.1344 63.5648 38.1319C61.2918 38.1294 59.1286 38.0511 57.0861 37.9184C56.1285 37.8562 55.3922 37.0553 55.3922 36.0957C55.3922 35.1357 56.1289 34.3346 57.0869 34.2727C59.1173 34.1413 61.2671 34.0628 63.5237 34.0586C65.8991 34.0553 68.1564 34.1344 70.2822 34.2723C71.2401 34.3344 71.9764 35.1354 71.9764 36.0952Z" fill="#4169E1" stroke="#1C1C1C" stroke-width="0.5" stroke-miterlimit="10" stroke-linejoin="round"/>
<path d="M47.5842 36.0952C47.5842 37.0551 46.8478 37.8561 45.8899 37.9183C43.7765 38.0553 41.5335 38.1344 39.1726 38.1319C36.8996 38.1294 34.7364 38.0511 32.6939 37.9184C31.7363 37.8562 31 37.0553 31 36.0957C31 35.1357 31.7367 34.3346 32.6947 34.2727C34.7251 34.1413 36.8749 34.0628 39.1315 34.0586C41.5069 34.0553 43.7642 34.1344 45.89 34.2723C46.8478 34.3344 47.5842 35.1354 47.5842 36.0952Z" fill="#4169E1" stroke="#1C1C1C" stroke-width="0.5" stroke-miterlimit="10" stroke-linejoin="round"/>
<path d="M71.9764 44.055C71.9764 45.0161 71.2416 45.8195 70.2828 45.8854C68.1647 46.0311 65.9068 46.1158 63.5237 46.1116C61.2593 46.1075 59.1093 46.0241 57.086 45.8851C56.1272 45.8193 55.3922 45.0159 55.3922 44.0549C55.3922 43.0939 56.1271 42.2906 57.0859 42.2247C59.1451 42.0831 61.3368 41.9991 63.6469 41.9983C65.9846 41.9975 68.2015 42.0815 70.2827 42.2246C71.2415 42.2905 71.9764 43.0939 71.9764 44.055Z" fill="#4169E1" stroke="#1C1C1C" stroke-width="0.5" stroke-miterlimit="10" stroke-linejoin="round"/>
<path d="M47.5842 44.055C47.5842 45.0161 46.8494 45.8195 45.8906 45.8854C43.7725 46.0311 41.5146 46.1158 39.1315 46.1116C36.8671 46.1075 34.7171 46.0241 32.6938 45.8851C31.735 45.8193 31 45.0159 31 44.0549C31 43.0939 31.7349 42.2906 32.6937 42.2247C34.7529 42.0831 36.9446 41.9991 39.2547 41.9983C41.5924 41.9975 43.8093 42.0815 45.8905 42.2246C46.8493 42.2905 47.5842 43.0939 47.5842 44.055Z" fill="#4169E1" stroke="#1C1C1C" stroke-width="0.5" stroke-miterlimit="10" stroke-linejoin="round"/>
<path d="M71.9764 52.0148C71.9764 52.9745 71.2401 53.7753 70.2824 53.8374C68.2185 53.9713 66.0302 54.0503 63.7291 54.0512C61.3953 54.052 59.1768 53.9729 57.0864 53.8374C56.1286 53.7753 55.3922 52.9744 55.3922 52.0146C55.3922 51.0547 56.1287 50.2538 57.0865 50.1917C59.1648 50.057 61.3695 49.9781 63.688 49.979C66.0034 49.979 68.2057 50.058 70.2818 50.1921C71.2397 50.254 71.9764 51.055 71.9764 52.0148Z" fill="#4169E1" stroke="#1C1C1C" stroke-width="0.5" stroke-miterlimit="10" stroke-linejoin="round"/>
<path d="M47.5842 52.0148C47.5842 52.9745 46.8478 53.7753 45.8902 53.8374C43.8263 53.9713 41.638 54.0503 39.3369 54.0512C37.0031 54.052 34.7846 53.9729 32.6942 53.8374C31.7364 53.7753 31 52.9744 31 52.0146C31 51.0547 31.7365 50.2538 32.6943 50.1917C34.7726 50.057 36.9773 49.9781 39.2958 49.979C41.6112 49.979 43.8135 50.058 45.8896 50.1921C46.8475 50.254 47.5842 51.055 47.5842 52.0148Z" fill="#4169E1" stroke="#1C1C1C" stroke-width="0.5" stroke-miterlimit="10" stroke-linejoin="round"/>
</svg>
