<svg width="102" height="102" viewBox="0 0 102 102" fill="none" xmlns="http://www.w3.org/2000/svg">
<rect x="0.5" y="0.5" width="101" height="101" rx="4.5" stroke="#9747FF" stroke-dasharray="10 5"/>
<path d="M23.5968 38.7868C22.5684 38.7868 21.7063 39.5664 21.6166 40.5909C21.2542 44.7287 21.023 49.1987 21.0016 53.9622C20.9784 59.1578 21.2088 64.0132 21.5924 68.4773C21.69 69.612 22.7255 70.4223 23.8577 70.2992C27.1203 69.9445 31.2326 69.7083 34.8617 69.7064C38.6279 69.7046 42.0717 69.9549 45.131 70.3292C46.1186 70.45 46.8024 71.3324 47.2084 72.2408C47.8585 73.6954 49.3204 74.7194 51.0021 74.7194C52.6861 74.7194 54.1497 73.7012 54.7984 72.2415C55.2025 71.3323 55.8855 70.45 56.8731 70.3291C59.8813 69.961 63.2574 69.713 66.9424 69.7064C70.6475 69.7 74.8313 69.9384 78.1454 70.2991C79.2776 70.4224 80.3129 69.6117 80.4101 68.4769C80.8193 63.7031 81.0516 58.4985 80.9903 52.9186C80.943 48.5581 80.7216 44.4397 80.3859 40.5915C80.2964 39.5668 79.4342 38.7868 78.4055 38.7868H23.5968Z" fill="#FF9500" stroke="#1C1C1C" stroke-width="0.5" stroke-miterlimit="10" stroke-linejoin="round"/>
<path d="M23.5968 34.6215C22.5684 34.6215 21.7063 35.4011 21.6166 36.4256C21.2542 40.5634 21.023 45.0333 21.0016 49.7969C20.9784 54.9925 21.2088 59.8479 21.5924 64.312C21.69 65.4466 22.7255 66.2569 23.8577 66.1339C27.1203 65.7791 31.2326 65.543 34.8617 65.5411C38.6279 65.5392 42.0717 65.7896 45.131 66.1638C46.1186 66.2847 46.8024 67.1671 47.2084 68.0755C47.8585 69.5301 49.3204 70.5541 51.0021 70.5541C52.6861 70.5541 54.1497 69.5358 54.7984 68.0762C55.2025 67.167 55.8855 66.2847 56.8731 66.1638C59.8813 65.7957 63.2574 65.5477 66.9424 65.5411C70.6475 65.5347 74.8313 65.7731 78.1454 66.1338C79.2776 66.2571 80.3129 65.4464 80.4101 64.3116C80.8193 59.5378 81.0516 54.3331 80.9903 48.7533C80.943 44.3928 80.7216 40.2744 80.3859 36.4262C80.2964 35.4014 79.4342 34.6215 78.4055 34.6215H23.5968Z" fill="#FFE2C8" stroke="#1C1C1C" stroke-width="0.5" stroke-miterlimit="10" stroke-linejoin="round"/>
<path d="M25.2005 32.8787C25.2643 31.9097 26.0218 31.1307 26.9894 31.0467C30.1519 30.7724 33.574 30.5996 37.2245 30.592C40.5184 30.5846 43.0026 30.7665 45.5731 31.013C47.3906 31.1872 49.4291 31.7968 50.6917 33.1156C50.8235 33.2532 50.9309 33.3845 51.0008 33.5033V64.9861L49.9096 64.0006C48.9601 63.1431 47.7614 62.6096 46.4882 62.4834C43.5951 62.1965 40.9921 61.9802 37.2949 61.9875C33.7618 61.9939 30.4416 62.1539 27.3621 62.411C26.2407 62.5046 25.2481 61.6733 25.1762 60.5503C24.8584 55.5876 24.694 50.2956 24.7509 44.7093C24.7927 40.5916 24.9528 36.6434 25.2005 32.8787Z" fill="#4169E1" stroke="#1C1C1C" stroke-width="0.5" stroke-miterlimit="10" stroke-linejoin="round"/>
<path d="M25.2005 29.2869C25.2643 28.3179 26.0218 27.5389 26.9894 27.4549C30.1519 27.1806 33.574 27.0078 37.2245 27.0002C40.5184 26.9928 43.0026 27.1747 45.5731 27.4212C47.3906 27.5954 49.4291 28.205 50.6917 29.5238C50.8235 29.6614 50.9309 29.7927 51.0008 29.9115V61.3943L49.9096 60.4088C48.9601 59.5513 47.7614 59.0178 46.4882 58.8916C43.5951 58.6047 40.9921 58.3884 37.2949 58.3957C33.7618 58.4021 30.4416 58.5621 27.3621 58.8192C26.2407 58.9128 25.2481 58.0815 25.1762 56.9585C24.8584 51.9958 24.694 46.7039 24.7509 41.1175C24.7927 36.9998 24.9528 33.0516 25.2005 29.2869Z" fill="#CCD9FD" stroke="#1C1C1C" stroke-width="0.5" stroke-miterlimit="10" stroke-linejoin="round"/>
<path d="M76.8013 32.8782C76.7376 31.9094 75.9804 31.1305 75.0131 31.0464C71.8504 30.7716 68.4279 30.5996 64.7763 30.592C61.4824 30.5846 58.9982 30.7665 56.4277 31.013C54.6102 31.1872 52.5717 31.7968 51.309 33.1156C51.1773 33.2532 51.0699 33.3845 50.9999 33.5033V64.9861L52.0912 64.0006C53.0406 63.1431 54.2394 62.6096 55.5125 62.4834C58.4057 62.1965 61.0087 61.9802 64.7059 61.9875C68.2389 61.9939 71.5592 62.1539 74.6387 62.411C75.7601 62.5046 76.7527 61.6733 76.8246 60.5503C77.1423 55.5876 77.3068 50.2956 77.2499 44.7093C77.2081 40.5914 77.0488 36.6431 76.8013 32.8782Z" fill="#4169E1" stroke="#1C1C1C" stroke-width="0.5" stroke-miterlimit="10" stroke-linejoin="round"/>
<path d="M76.8013 29.2864C76.7376 28.3176 75.9804 27.5387 75.0131 27.4546C71.8504 27.1798 68.4279 27.0078 64.7763 27.0002C61.4824 26.9928 58.9982 27.1747 56.4277 27.4212C54.6102 27.5954 52.5717 28.205 51.309 29.5238C51.1773 29.6614 51.0699 29.7927 50.9999 29.9115V61.3943L52.0912 60.4088C53.0406 59.5513 54.2394 59.0178 55.5125 58.8916C58.4057 58.6047 61.0087 58.3884 64.7059 58.3957C68.2389 58.4021 71.5592 58.5621 74.6387 58.8192C75.7601 58.9128 76.7527 58.0815 76.8246 56.9585C77.1423 51.9958 77.3068 46.7039 77.2499 41.1175C77.2081 36.9996 77.0488 33.0513 76.8013 29.2864Z" fill="#CCD9FD" stroke="#1C1C1C" stroke-width="0.5" stroke-miterlimit="10" stroke-linejoin="round"/>
<path d="M32.2557 33.6856C31.0832 33.1943 29.7828 33.9599 29.6389 35.223C29.4021 37.3021 29.2397 39.5659 29.2032 41.9921C29.1552 45.205 29.3359 48.1557 29.6346 50.7916C29.7789 52.0643 31.096 52.8293 32.2726 52.3228C34.3055 51.4478 36.4881 50.3896 38.762 49.1056C41.4272 47.6002 43.7703 46.0366 45.8003 44.5284C46.8203 43.7707 46.8296 42.2627 45.8166 41.4956C43.5892 39.8088 40.959 38.0517 37.9107 36.3969C35.9418 35.3274 34.0428 34.4344 32.2557 33.6856Z" fill="#4169E1" stroke="#1C1C1C" stroke-width="0.5" stroke-miterlimit="10" stroke-linejoin="round"/>
<path d="M72.6639 34.2909C72.6639 35.3092 71.8827 36.1589 70.8667 36.2248C68.6247 36.3702 66.2453 36.4541 63.7408 36.4515C61.3296 36.4488 59.0348 36.3657 56.8681 36.225C55.8523 36.159 55.0712 35.3094 55.0712 34.2914C55.0712 33.2731 55.8528 32.4233 56.869 32.3575C59.0229 32.2181 61.3034 32.1349 63.6972 32.1305C66.2171 32.127 68.6117 32.2109 70.8667 32.3571C71.8828 32.423 72.6639 33.2728 72.6639 34.2909Z" fill="#4169E1" stroke="#1C1C1C" stroke-width="0.5" stroke-miterlimit="10" stroke-linejoin="round"/>
<path d="M72.6639 42.7348C72.6639 43.7543 71.8844 44.6065 70.8673 44.6765C68.6204 44.8311 66.2251 44.9209 63.6971 44.9165C61.2951 44.9121 59.0143 44.8236 56.868 44.6762C55.8508 44.6064 55.0712 43.7542 55.0712 42.7346C55.0712 41.7152 55.8508 40.863 56.8678 40.7931C59.0522 40.643 61.3772 40.5539 63.8279 40.553C66.3077 40.5521 68.6594 40.6413 70.8672 40.793C71.8843 40.8629 72.6639 41.7152 72.6639 42.7348Z" fill="#4169E1" stroke="#1C1C1C" stroke-width="0.5" stroke-miterlimit="10" stroke-linejoin="round"/>
<path d="M72.6639 51.1788C72.6639 52.1968 71.8827 53.0464 70.8669 53.1123C68.6774 53.2543 66.3561 53.3381 63.915 53.339C61.4393 53.3399 59.0859 53.256 56.8684 53.1122C55.8524 53.0464 55.0712 52.1967 55.0712 51.1785C55.0712 50.1603 55.8524 49.3106 56.8685 49.2448C59.0732 49.1019 61.412 49.0183 63.8714 49.0191C66.3276 49.0191 68.6639 49.1029 70.8662 49.2452C71.8824 49.3109 72.6639 50.1606 72.6639 51.1788Z" fill="#4169E1" stroke="#1C1C1C" stroke-width="0.5" stroke-miterlimit="10" stroke-linejoin="round"/>
</svg>
