<svg width="62" height="62" viewBox="0 0 62 62" fill="none" xmlns="http://www.w3.org/2000/svg">
<g clip-path="url(#clip0_18011_4400)">
<path d="M56.1483 43.3287C39.3806 43.2615 22.6213 43.2615 5.85367 43.3287C3.61686 45.7337 2.53209 46.9278 0.5896 49.316C20.8638 49.316 41.1381 49.316 61.4039 49.316C59.4614 46.9278 58.3767 45.7337 56.1399 43.3287H56.1483Z" fill="#E8EDFA" stroke="#1C1C1C" stroke-width="0.5" stroke-linejoin="round"/>
<path d="M58.3175 54.4202C40.1034 54.5043 21.8978 54.5043 3.6838 54.4202C2.14494 54.4202 0.715403 53.1421 0.639721 51.6116C0.589267 50.695 0.580858 50.2325 0.589267 49.3159C20.8635 49.3159 41.1377 49.3159 61.4036 49.3159C61.412 50.2325 61.4036 50.695 61.3531 51.6116C61.2774 53.1421 59.8479 54.4118 58.309 54.4202H58.3175Z" fill="#CCD9FD" stroke="#1C1C1C" stroke-width="0.5" stroke-linejoin="round"/>
<path d="M56.1244 43.3625C39.3735 43.6736 22.6311 43.6736 5.88024 43.3625C5.49343 32.3382 5.45979 21.356 5.77933 10.3317C5.82979 8.90218 7.03228 7.72491 8.46182 7.69968C23.4888 7.45582 38.5074 7.45582 53.5344 7.69968C54.9639 7.72491 56.1664 8.91059 56.2169 10.3317C56.5364 21.356 56.5028 32.3382 56.116 43.3625H56.1244Z" fill="#CCD9FD" stroke="#1C1C1C" stroke-width="0.5" stroke-linejoin="round"/>
<path d="M10.1144 11.2532C24.0433 11.0934 37.9726 11.0934 51.9015 11.2532C52.1711 11.2565 52.39 11.4729 52.3957 11.7425C52.4714 15.3283 52.5058 18.9051 52.5226 22.4886C52.5226 22.4955 52.5209 22.5023 52.5207 22.5091C52.5541 28.1238 52.5123 33.7473 52.3947 39.3704L52.3849 39.8548L51.9005 39.8597C37.5657 40.0164 23.4506 40 10.1144 39.8597C9.84458 39.8567 9.62609 39.6402 9.62026 39.3704C9.42671 30.1556 9.42671 20.9573 9.62026 11.7425L9.63198 11.6438C9.68142 11.4218 9.87842 11.2559 10.1144 11.2532Z" fill="#E8EDFA" stroke="#1C1C1C" stroke-width="0.5" stroke-linejoin="round"/>
<path d="M21 17.5522C21 16.6094 21 16.138 21.2929 15.8451C21.5858 15.5522 22.0572 15.5522 23 15.5522H24.8333C25.7761 15.5522 26.2475 15.5522 26.5404 15.8451C26.8333 16.138 26.8333 16.6094 26.8333 17.5522V19.3856C26.8333 20.3284 26.8333 20.7998 26.5404 21.0927C26.2475 21.3856 25.7761 21.3856 24.8333 21.3856H23C22.0572 21.3856 21.5858 21.3856 21.2929 21.0927C21 20.7998 21 20.3284 21 19.3856V17.5522Z" fill="#00125C"/>
<path d="M21 31.7189C21 30.7761 21 30.3047 21.2929 30.0118C21.5858 29.7189 22.0572 29.7189 23 29.7189H24.8333C25.7761 29.7189 26.2475 29.7189 26.5404 30.0118C26.8333 30.3047 26.8333 30.7761 26.8333 31.7189V33.5522C26.8333 34.4951 26.8333 34.9665 26.5404 35.2594C26.2475 35.5522 25.7761 35.5522 24.8333 35.5522H23C22.0572 35.5522 21.5858 35.5522 21.2929 35.2594C21 34.9665 21 34.4951 21 33.5522V31.7189Z" fill="#00125C"/>
<path d="M35.1667 17.5522C35.1667 16.6094 35.1667 16.138 35.4596 15.8451C35.7525 15.5522 36.2239 15.5522 37.1667 15.5522H39C39.9428 15.5522 40.4142 15.5522 40.7071 15.8451C41 16.138 41 16.6094 41 17.5522V19.3856C41 20.3284 41 20.7998 40.7071 21.0927C40.4142 21.3856 39.9428 21.3856 39 21.3856H37.1667C36.2239 21.3856 35.7525 21.3856 35.4596 21.0927C35.1667 20.7998 35.1667 20.3284 35.1667 19.3856V17.5522Z" fill="#00125C"/>
<path d="M28.5 22.2189V21.3856C28.5 20.9253 28.8731 20.5522 29.3333 20.5522C29.7936 20.5522 30.1667 20.9253 30.1667 21.3856V22.2189C30.1667 23.5996 29.0474 24.7189 27.6667 24.7189H26C25.5398 24.7189 25.1667 24.3458 25.1667 23.8856C25.1667 23.4253 25.5398 23.0522 26 23.0522H27.6667C28.1269 23.0522 28.5 22.6791 28.5 22.2189Z" fill="#00125C"/>
<path d="M36.8333 25.5522V28.0522C36.8333 28.5125 36.4602 28.8856 36 28.8856C35.5398 28.8856 35.1667 28.5125 35.1667 28.0522L35.1667 25.5522C35.1667 24.1715 36.286 23.0522 37.6667 23.0522L40.1667 23.0522C40.6269 23.0522 41 23.4253 41 23.8856C41 24.3458 40.6269 24.7189 40.1667 24.7189H37.6667C37.2064 24.7189 36.8333 25.092 36.8333 25.5522Z" fill="#00125C"/>
<path d="M31.8333 28.8856V30.5522C31.8333 31.0125 32.2064 31.3856 32.6667 31.3856C33.1269 31.3856 33.5 31.0125 33.5 30.5522V28.8856C33.5 27.5049 32.3807 26.3856 31 26.3856H29.3333C28.8731 26.3856 28.5 26.7587 28.5 27.2189C28.5 27.6791 28.8731 28.0522 29.3333 28.0522H31C31.4602 28.0522 31.8333 28.4253 31.8333 28.8856Z" fill="#00125C"/>
<path d="M28.5 34.7189C28.5 35.1792 28.8731 35.5522 29.3333 35.5522C29.7936 35.5522 30.1667 35.1792 30.1667 34.7189V30.5522C30.1667 30.092 29.7936 29.7189 29.3333 29.7189C28.8731 29.7189 28.5 30.092 28.5 30.5522V34.7189Z" fill="#00125C"/>
<path d="M33.5 20.5522C33.5 21.0125 33.1269 21.3856 32.6667 21.3856C32.2064 21.3856 31.8333 21.0125 31.8333 20.5522V16.3856C31.8333 15.9253 32.2064 15.5522 32.6667 15.5522C33.1269 15.5522 33.5 15.9253 33.5 16.3856V20.5522Z" fill="#00125C"/>
<path d="M21.8333 28.0522C21.3731 28.0522 21 27.6791 21 27.2189C21 26.7587 21.3731 26.3856 21.8333 26.3856H26C26.4602 26.3856 26.8333 26.7587 26.8333 27.2189C26.8333 27.6792 26.4602 28.0522 26 28.0522L21.8333 28.0522Z" fill="#00125C"/>
<path d="M36 33.8856H37.6667C38.0981 33.8856 38.4532 33.5578 38.4959 33.1377L38.5041 32.9668C38.5468 32.5467 38.9019 32.2189 39.3333 32.2189C39.7936 32.2189 40.1667 32.592 40.1667 33.0522C40.1667 34.433 39.0474 35.5522 37.6667 35.5522H36C35.5398 35.5522 35.1667 35.1791 35.1667 34.7189C35.1667 34.2587 35.5398 33.8856 36 33.8856Z" fill="#00125C"/>
<path d="M30.1667 18.0522C30.1667 18.5125 29.7936 18.8856 29.3333 18.8856C28.8731 18.8856 28.5 18.5125 28.5 18.0522V16.3856C28.5 15.9253 28.8731 15.5522 29.3333 15.5522C29.7936 15.5522 30.1667 15.9253 30.1667 16.3856V18.0522Z" fill="#00125C"/>
<path d="M31.8333 34.7189C31.8333 35.1791 32.2064 35.5522 32.6667 35.5522C33.1269 35.5522 33.5 35.1791 33.5 34.7189V33.0522C33.5 32.592 33.1269 32.2189 32.6667 32.2189C32.2064 32.2189 31.8333 32.592 31.8333 33.0522V34.7189Z" fill="#00125C"/>
<path d="M36.8333 32.2189C36.8333 32.6791 36.4602 33.0522 36 33.0522C35.5398 33.0522 35.1667 32.6791 35.1667 32.2189V31.3856C35.1667 30.9253 35.5398 30.5522 36 30.5522C36.4602 30.5522 36.8333 30.9253 36.8333 31.3856V32.2189Z" fill="#00125C"/>
<path d="M33.5 24.3022C33.5 24.7625 33.1269 25.1356 32.6667 25.1356C32.2064 25.1356 31.8333 24.7625 31.8333 24.3022V23.4689C31.8333 23.0087 32.2064 22.6356 32.6667 22.6356C33.1269 22.6356 33.5 23.0087 33.5 23.4689V24.3022Z" fill="#00125C"/>
<path d="M21.8333 24.7189L21.7479 24.7148C21.3278 24.6721 21 24.317 21 23.8856C21 23.4542 21.3278 23.0991 21.7479 23.0563L21.8333 23.0522H22.6667C23.1269 23.0522 23.5 23.4253 23.5 23.8856C23.5 24.3458 23.1269 24.7189 22.6667 24.7189H21.8333Z" fill="#00125C"/>
<path d="M40.1667 29.7189C40.1667 30.1791 39.7936 30.5522 39.3333 30.5522C38.8731 30.5522 38.5 30.1791 38.5 29.7189V27.2189C38.5 26.7587 38.8731 26.3856 39.3333 26.3856C39.7936 26.3856 40.1667 26.7587 40.1667 27.2189V29.7189Z" fill="#00125C"/>
</g>
<defs>
<clipPath id="clip0_18011_4400">
<rect width="62" height="62" rx="5" fill="white"/>
</clipPath>
</defs>
</svg>
