<svg width="102" height="102" viewBox="0 0 102 102" fill="none" xmlns="http://www.w3.org/2000/svg">
<rect x="0.5" y="0.5" width="101" height="101" rx="4.5" stroke="#9747FF" stroke-dasharray="10 5"/>
<path d="M28 78C28 76.8954 28.8954 76 30 76H32C33.1046 76 34 76.8954 34 78C34 79.1046 33.1046 80 32 80H30C28.8954 80 28 79.1046 28 78Z" fill="#4169E1" stroke="#1C1C1C" stroke-width="0.5" stroke-miterlimit="10"/>
<path d="M66 78C66 76.8954 66.8954 76 68 76H70C71.1046 76 72 76.8954 72 78C72 79.1046 71.1046 80 70 80H68C66.8954 80 66 79.1046 66 78Z" fill="#4169E1" stroke="#1C1C1C" stroke-width="0.5" stroke-miterlimit="10"/>
<path d="M24 71H77V75.2857C77 76.2325 76.1046 77 75 77H26C24.8954 77 24 76.2325 24 75.2857V71Z" fill="#4169E1" stroke="#1C1C1C" stroke-width="0.5" stroke-linejoin="round"/>
<path d="M27 32C27 30.3431 28.3431 29 30 29H71C72.6569 29 74 30.3431 74 32V61H27V32Z" fill="#4169E1" stroke="#1C1C1C" stroke-width="0.5" stroke-linejoin="round"/>
<path d="M31 25C31 23.3431 32.3431 22 34 22H66C67.6569 22 69 23.3431 69 25V29H31V25Z" fill="white" stroke="#1C1C1C" stroke-width="0.5" stroke-linejoin="round"/>
<path d="M27 61H74L77 71H24L27 61Z" fill="#00125C" stroke="#1C1C1C" stroke-width="0.5" stroke-linejoin="round"/>
<path d="M59.3772 58.8661C64.7101 58.8661 69.0332 58.4189 69.0332 57.8672C69.0332 57.3155 64.7101 56.8683 59.3772 56.8683C54.0444 56.8683 49.7213 57.3155 49.7213 57.8672C49.7213 58.4189 54.0444 58.8661 59.3772 58.8661Z" fill="#FF9500" stroke="#1C1C1C" stroke-width="0.5" stroke-linejoin="round"/>
<path d="M71.7859 59.0386V63.4602C71.7859 64.8388 66.1003 65.9625 59.0907 65.9625C52.081 65.9625 46.3911 64.8388 46.3911 63.4602V59.0386H71.7859Z" fill="#FF9500" stroke="#1C1C1C" stroke-width="0.5" stroke-linejoin="round"/>
<path d="M59.0912 61.3245C66.1025 61.3245 71.7864 60.2042 71.7864 58.8221C71.7864 57.4401 66.1025 56.3198 59.0912 56.3198C52.0798 56.3198 46.396 57.4401 46.396 58.8221C46.396 60.2042 52.0798 61.3245 59.0912 61.3245Z" fill="#FFE2C8" stroke="#1C1C1C" stroke-width="0.5" stroke-linejoin="round"/>
<path d="M59.3764 59.552C64.7092 59.552 69.0324 59.1048 69.0324 58.5531C69.0324 58.0014 64.7092 57.5542 59.3764 57.5542C54.0435 57.5542 49.7204 58.0014 49.7204 58.5531C49.7204 59.1048 54.0435 59.552 59.3764 59.552Z" fill="#FF9500" stroke="#1C1C1C" stroke-width="0.5" stroke-linejoin="round"/>
<path d="M71.786 54.2725V58.694C71.786 60.0727 66.1005 61.1964 59.0908 61.1964C52.0811 61.1964 46.3912 60.0727 46.3912 58.694V54.2725H71.786Z" fill="#FF9500" stroke="#1C1C1C" stroke-width="0.5" stroke-linejoin="round"/>
<path d="M59.0913 56.5586C66.1027 56.5586 71.7865 55.4382 71.7865 54.0562C71.7865 52.6742 66.1027 51.5538 59.0913 51.5538C52.0799 51.5538 46.3961 52.6742 46.3961 54.0562C46.3961 55.4382 52.0799 56.5586 59.0913 56.5586Z" fill="#FFE2C8" stroke="#1C1C1C" stroke-width="0.5" stroke-linejoin="round"/>
<path d="M59.3765 54.7859C64.7094 54.7859 69.0325 54.3387 69.0325 53.787C69.0325 53.2353 64.7094 52.7881 59.3765 52.7881C54.0437 52.7881 49.7205 53.2353 49.7205 53.787C49.7205 54.3387 54.0437 54.7859 59.3765 54.7859Z" fill="#FF9500" stroke="#1C1C1C" stroke-width="0.5" stroke-linejoin="round"/>
<path d="M59.3776 55.4624C64.7105 55.4624 69.0336 55.0152 69.0336 54.4635C69.0336 53.9119 64.7105 53.4646 59.3776 53.4646C54.0447 53.4646 49.7216 53.9119 49.7216 54.4635C49.7216 55.0152 54.0447 55.4624 59.3776 55.4624Z" fill="#FF9500" stroke="#1C1C1C" stroke-width="0.5" stroke-linejoin="round"/>
<path d="M71.7866 49.5073V53.9288C71.7866 55.3075 66.1011 56.4312 59.0914 56.4312C52.0817 56.4312 46.3918 55.3075 46.3918 53.9288V49.5073H71.7866Z" fill="#FF9500" stroke="#1C1C1C" stroke-width="0.5" stroke-linejoin="round"/>
<path d="M59.0919 51.7931C66.1033 51.7931 71.7871 50.6727 71.7871 49.2907C71.7871 47.9087 66.1033 46.7883 59.0919 46.7883C52.0806 46.7883 46.3967 47.9087 46.3967 49.2907C46.3967 50.6727 52.0806 51.7931 59.0919 51.7931Z" fill="#FFE2C8" stroke="#1C1C1C" stroke-width="0.5" stroke-linejoin="round"/>
<path d="M42.3557 67.0309C47.6885 67.0309 52.0117 66.5837 52.0117 66.032C52.0117 65.4804 47.6885 65.0331 42.3557 65.0331C37.0228 65.0331 32.6997 65.4804 32.6997 66.032C32.6997 66.5837 37.0228 67.0309 42.3557 67.0309Z" fill="#FF9500" stroke="#1C1C1C" stroke-width="0.5" stroke-linejoin="round"/>
<path d="M54.7653 61.076V65.4975C54.7653 66.8762 49.0798 67.9999 42.0701 67.9999C35.0604 67.9999 29.3705 66.8762 29.3705 65.4975V61.076H54.7653Z" fill="#FF9500" stroke="#1C1C1C" stroke-width="0.5" stroke-linejoin="round"/>
<path d="M42.0706 63.3619C49.0819 63.3619 54.7657 62.2416 54.7657 60.8596C54.7657 59.4775 49.0819 58.3572 42.0706 58.3572C35.0592 58.3572 29.3754 59.4775 29.3754 60.8596C29.3754 62.2416 35.0592 63.3619 42.0706 63.3619Z" fill="#FFE2C8" stroke="#1C1C1C" stroke-width="0.5" stroke-linejoin="round"/>
<path d="M42.3558 61.5894C47.6886 61.5894 52.0117 61.1422 52.0117 60.5905C52.0117 60.0388 47.6886 59.5916 42.3558 59.5916C37.0229 59.5916 32.6998 60.0388 32.6998 60.5905C32.6998 61.1422 37.0229 61.5894 42.3558 61.5894Z" fill="#FF9500" stroke="#1C1C1C" stroke-width="0.5" stroke-linejoin="round"/>
<path d="M42.3559 62.2703C47.6887 62.2703 52.0119 61.8231 52.0119 61.2714C52.0119 60.7197 47.6887 60.2725 42.3559 60.2725C37.023 60.2725 32.6999 60.7197 32.6999 61.2714C32.6999 61.8231 37.023 62.2703 42.3559 62.2703Z" fill="#FF9500" stroke="#1C1C1C" stroke-width="0.5" stroke-linejoin="round"/>
<path d="M54.7655 56.3152V60.7368C54.7655 62.1155 49.08 63.2391 42.0703 63.2391C35.0606 63.2391 29.3707 62.1155 29.3707 60.7368V56.3152H54.7655Z" fill="#FF9500" stroke="#1C1C1C" stroke-width="0.5" stroke-linejoin="round"/>
<path d="M42.0707 58.6011C49.0821 58.6011 54.7659 57.4808 54.7659 56.0987C54.7659 54.7167 49.0821 53.5964 42.0707 53.5964C35.0594 53.5964 29.3755 54.7167 29.3755 56.0987C29.3755 57.4808 35.0594 58.6011 42.0707 58.6011Z" fill="#FFE2C8" stroke="#1C1C1C" stroke-width="0.5" stroke-linejoin="round"/>
<path d="M62.3657 41.3839C62.3657 48.1807 56.7767 53.6906 49.8821 53.6906C42.9876 53.6906 36.9037 47.7249 36.9037 40.9281C36.2343 29.4623 42.9876 29.0773 49.8821 29.0773C56.7767 29.0773 62.7443 29.6726 62.3657 41.3839Z" fill="#FF9500" stroke="#1C1C1C" stroke-width="0.5" stroke-miterlimit="10"/>
<path d="M49.5878 50.8815C56.6184 50.8815 62.3179 45.0877 62.3179 37.9408C62.3179 30.7938 56.6184 25 49.5878 25C42.5571 25 36.8577 30.7938 36.8577 37.9408C36.8577 45.0877 42.5571 50.8815 49.5878 50.8815Z" fill="#FFE2C8" stroke="#1C1C1C" stroke-width="0.5" stroke-miterlimit="10"/>
<path d="M49.6193 47.9642C55.1575 47.9642 59.647 43.4746 59.647 37.9365C59.647 32.3984 55.1575 27.9088 49.6193 27.9088C44.0812 27.9088 39.5917 32.3984 39.5917 37.9365C39.5917 43.4746 44.0812 47.9642 49.6193 47.9642Z" fill="#FF9500" stroke="#1C1C1C" stroke-width="0.5" stroke-miterlimit="10"/>
<path d="M54.3195 34.9593C54.439 36.1212 53.961 36.8277 53.229 37.2202C54.454 37.5342 55.2159 38.2878 55.0665 39.9992C54.8723 42.1187 53.3784 42.6997 51.2272 42.8253V44.4123C51.2272 44.7671 50.9396 45.0547 50.5848 45.0547C50.23 45.0547 49.9424 44.7671 49.9424 44.4123V42.8567C49.6138 42.8567 49.2702 42.8567 48.9266 42.841V44.4123C48.9266 44.7671 48.639 45.0547 48.2842 45.0547C47.9295 45.0547 47.6419 44.7671 47.6419 44.4123V42.8253C47.3431 42.8253 47.0443 42.8096 46.7306 42.8096H45.9971C45.5054 42.8096 45.1316 42.3677 45.213 41.8828C45.2782 41.4949 45.6175 41.2157 46.0109 41.2151C46.2588 41.2146 46.2525 41.2081 46.2525 41.2081C46.6111 41.2081 46.7007 40.9412 46.7306 40.7528V37.2359H46.865C46.8053 37.2359 46.7605 37.2359 46.7306 37.2359V34.7081C46.6858 34.4412 46.5065 34.1115 45.9836 34.1115C45.9836 34.1115 45.9892 34.1056 45.7781 34.1047C45.3823 34.1029 45.0574 33.7871 45.0574 33.3912C45.0574 33 45.3746 32.6828 45.7658 32.6828H46.8352C47.0891 32.6828 47.358 32.6828 47.6419 32.6828V31.1114C47.6419 30.7566 47.9295 30.469 48.2842 30.469C48.639 30.469 48.9266 30.7566 48.9266 31.1114V32.6357C49.2702 32.6357 49.5988 32.62 49.9424 32.62V31.1114C49.9424 30.7566 50.23 30.469 50.5848 30.469C50.9396 30.469 51.2272 30.7566 51.2272 31.1114V32.6828C52.8705 32.8241 54.1851 33.3579 54.3195 34.9593ZM52.5269 39.7323C52.5269 38.0052 49.808 38.2564 48.9415 38.2564V41.2081C49.808 41.2081 52.5269 41.4122 52.5269 39.7323ZM51.9443 35.5717C51.9443 33.9859 49.6735 34.2214 48.9415 34.2214V36.9062C49.6735 36.9062 51.9443 37.0789 51.9443 35.5717Z" fill="white"/>
</svg>
