<svg width="102" height="102" viewBox="0 0 102 102" fill="none" xmlns="http://www.w3.org/2000/svg">
<rect x="0.5" y="0.5" width="101" height="101" rx="4.5" stroke="#9747FF" stroke-dasharray="10 5"/>
<path d="M50.5 29.2887C50.8094 29.11 51.1906 29.11 51.5 29.2887L72.1506 41.2113C72.46 41.39 72.6506 41.7201 72.6506 42.0774V65.9227C72.6506 66.2799 72.46 66.61 72.1506 66.7887L51.5 78.7113C51.1906 78.89 50.8094 78.89 50.5 78.7113L29.8494 66.7887C29.54 66.61 29.3494 66.2799 29.3494 65.9226V42.0773C29.3494 41.7201 29.54 41.39 29.8494 41.2113L50.5 29.2887Z" fill="#E8EDFA" stroke="#1C1C1C" stroke-width="0.5" stroke-miterlimit="10"/>
<path d="M50.5 23.2887C50.8094 23.11 51.1906 23.11 51.5 23.2887L72.1506 35.2113C72.46 35.39 72.6506 35.7201 72.6506 36.0774V59.9227C72.6506 60.2799 72.46 60.61 72.1506 60.7887L51.5 72.7113C51.1906 72.89 50.8094 72.89 50.5 72.7113L29.8494 60.7887C29.54 60.61 29.3494 60.2799 29.3494 59.9226V36.0773C29.3494 35.7201 29.54 35.39 29.8494 35.2113L50.5 23.2887Z" fill="#4169E1" stroke="#1C1C1C" stroke-width="0.5" stroke-miterlimit="10"/>
<path d="M51 28L68.3205 38V58L51 68L33.6795 58V38L51 28Z" fill="#E8EDFA" stroke="#1C1C1C" stroke-width="0.5" stroke-linejoin="round"/>
<mask id="mask0_18011_8580" style="mask-type:alpha" maskUnits="userSpaceOnUse" x="33" y="27" width="36" height="42">
<path d="M51 28L68.3205 38V58L51 68L33.6795 58V38L51 28Z" fill="#E8EDFA" stroke="#1C1C1C" stroke-width="0.5" stroke-linejoin="round"/>
</mask>
<g mask="url(#mask0_18011_8580)">
<path d="M61 66C51.406 66.0204 57 77.5 33 60.9212C37.7013 53.7996 40.1376 50.2031 44.9698 43C49.7819 50.1929 52.2181 53.7996 57 60.9823L61 66Z" fill="#FFE2C8" stroke="#1C1C1C" stroke-width="0.5" stroke-linecap="round" stroke-linejoin="round"/>
<path d="M69.5 64.5C62.5 69.0622 50.298 71.5 43.5 71.5C46.904 66.3 57.1211 53.2 60.5452 48C63.9592 53.1896 67.6663 57.3518 71 62.5L69.5 64.5Z" fill="#FFE2C8" stroke="#1C1C1C" stroke-width="0.5" stroke-linecap="round" stroke-linejoin="round"/>
<path d="M59 40.01C59 37.8045 57.1932 36.01 54.995 36C52.7867 36 51 37.7945 51 40C51 42.2055 52.7967 44 55.005 44C57.2133 44 59 42.2256 59 40.01Z" fill="#FF9500" stroke="#1C1C1C" stroke-width="0.5" stroke-miterlimit="10"/>
</g>
<path d="M51 28L68.3205 38V58L51 68L33.6795 58V38L51 28Z" stroke="#1C1C1C" stroke-width="0.5" stroke-linejoin="round"/>
<path d="M58.4392 68.8641L77.4783 71.1307C77.9371 71.1855 78.3402 71.4507 78.572 71.8417L78.6599 72.0175L81.1667 77.9188C81.6033 78.9469 80.7816 80.0686 79.6697 79.9618L53.7253 77.4696C52.5707 77.3582 51.9915 76.0175 52.7019 75.1005L57.0994 69.4237C57.4161 69.0149 57.9253 68.803 58.4392 68.8641Z" fill="#E84142" stroke="black" stroke-width="0.5"/>
<path d="M67.7773 53.9023C68.4726 52.9274 69.9631 53.0708 70.46 54.1602L79.9912 75.0615C80.4881 76.1512 79.6187 77.3703 78.4268 77.2559L55.5596 75.0596C54.368 74.9447 53.7472 73.5825 54.4424 72.6074L67.7773 53.9023Z" fill="#FCD7CC" stroke="black" stroke-width="0.5"/>
<path d="M31.5286 23.2986C31.834 22.7699 32.5104 22.5892 33.0393 22.8943L37.1497 25.2673C37.6786 25.5727 37.8603 26.2491 37.5549 26.7781L35.5208 30.3015C35.0773 31.0696 35.3405 32.0514 36.1086 32.4949L39.6321 34.5291C40.1609 34.8345 40.3416 35.5109 40.0364 36.0398L37.6633 40.1501C37.3579 40.6791 36.6816 40.8608 36.1526 40.5554L32.6292 38.5212C31.861 38.0778 30.8793 38.341 30.4358 39.1091L28.4016 42.6316C28.0961 43.1602 27.4197 43.3412 26.8909 43.0359L22.7805 40.6628C22.2518 40.3573 22.0709 39.681 22.3762 39.1521L24.4094 35.6296C24.8529 34.8615 24.5897 33.8798 23.8215 33.4363L20.2991 31.4021C19.7704 31.0966 19.5895 30.4202 19.8948 29.8914L22.2678 25.781C22.5733 25.2522 23.2497 25.0713 23.7786 25.3767L27.301 27.4099C28.0692 27.8534 29.0509 27.5902 29.4944 26.822L31.5286 23.2986Z" fill="#A395CC" stroke="black" stroke-width="0.5"/>
<path d="M32.936 20.689C33.2415 20.1603 33.9179 19.9795 34.4468 20.2847L38.5571 22.6577C39.0861 22.9631 39.2677 23.6395 38.9624 24.1685L36.9282 27.6919C36.4848 28.46 36.748 29.4418 37.5161 29.8853L41.0386 31.9194C41.5672 32.225 41.7482 32.9013 41.4429 33.4302L39.0698 37.5405C38.7643 38.0693 38.088 38.2502 37.5591 37.9448L34.0366 35.9116C33.2685 35.4681 32.2867 35.7314 31.8433 36.4995L29.8091 40.022C29.5036 40.5507 28.8272 40.7316 28.2983 40.4263L24.188 38.0532C23.6592 37.7477 23.4783 37.0714 23.7837 36.5425L25.8169 33.02C26.2604 32.2519 25.9971 31.2701 25.229 30.8267L21.7056 28.7925C21.1768 28.4871 20.9961 27.8106 21.3013 27.2817L23.6743 23.1714C23.9797 22.6424 24.6561 22.4608 25.1851 22.7661L28.7085 24.8003C29.4766 25.2437 30.4584 24.9805 30.9019 24.2124L32.936 20.689Z" fill="#E0D0F5" stroke="black" stroke-width="0.5"/>
</svg>
