<svg width="102" height="102" viewBox="0 0 102 102" fill="none" xmlns="http://www.w3.org/2000/svg">
<rect x="0.5" y="0.5" width="101" height="101" rx="4.5" stroke="#8A38F5" stroke-dasharray="10 5"/>
<path d="M48.7438 45.4785C48.7439 45.5858 48.8602 45.7141 49.0114 45.7178H49.0134C50.5842 45.7741 51.7878 47.02 51.8864 48.5625C52.0226 50.6581 52.1006 52.8442 52.1071 55.1201V55.1211C52.1136 57.6802 52.0355 60.1303 51.8864 62.458C51.7882 64.0035 50.6017 65.2641 49.029 65.3281C48.8679 65.3361 48.7467 65.4679 48.7438 65.5869C48.7374 66.711 48.7314 67.8167 48.7184 68.9033C48.7176 69.1465 48.6123 69.4141 48.3776 69.5664L48.3747 69.5684C48.1538 69.7075 47.9011 69.8066 47.6208 69.8066C47.3404 69.8066 47.0878 69.7075 46.8669 69.5684L46.864 69.5664C46.6293 69.4141 46.524 69.1465 46.5231 68.9033C46.5102 67.8217 46.5042 66.7274 46.4977 65.6211V65.6191C46.4974 65.4966 46.3602 65.3458 46.1794 65.3418H46.1765C44.4888 65.2855 43.2306 63.9159 43.154 62.2539C43.0568 60.0828 42.9987 57.8337 42.9987 55.5137V55.5068C42.9987 53.194 43.0503 50.9453 43.154 48.7734C43.2307 47.1147 44.5055 45.76 46.1911 45.7109H46.1921C46.3613 45.7071 46.4909 45.567 46.4909 45.4395V45.4385C46.4974 44.3194 46.5043 43.2188 46.5173 42.1309C46.5181 41.8702 46.6403 41.5798 46.9079 41.4365V41.4375C47.1518 41.3054 47.4192 41.2232 47.7243 41.2471L47.7233 41.248C47.9417 41.2642 48.1447 41.3358 48.3307 41.4395L48.3337 41.4404C48.5915 41.5884 48.7176 41.865 48.7184 42.1309L48.7438 45.4766V45.4785Z" fill="#693000" stroke="#1C1C1C" stroke-width="0.5" stroke-miterlimit="10"/>
<path d="M38.603 41.5738C38.6031 41.681 38.7185 41.8093 38.8696 41.813H38.8706C40.4483 41.8554 41.6727 43.1014 41.771 44.6588C41.9006 46.6824 41.9849 48.7774 42.0044 50.9371C42.0368 53.9479 41.946 56.8428 41.771 59.608C41.6728 61.1622 40.4707 62.4227 38.8853 62.4791H38.8823C38.721 62.483 38.603 62.615 38.603 62.7252V62.7261C38.5966 63.8389 38.5896 64.9336 38.5767 66.0152C38.5759 66.2222 38.5015 66.4454 38.3296 66.6041L38.2495 66.6675C38.0219 66.8259 37.7599 66.9243 37.48 66.9244C37.1963 66.9244 36.9351 66.8168 36.7144 66.6705L36.7104 66.6675C36.4809 66.5087 36.3827 66.2505 36.3823 66.0132C36.376 64.9566 36.3633 63.8296 36.3569 62.7388V62.7379C36.3569 62.6251 36.2352 62.4873 36.0581 62.4791V62.4781C34.4114 62.4267 33.1867 61.0979 33.1167 59.481C33.0066 57.0131 32.9546 54.4744 32.9546 51.8658C32.9546 49.4432 33.0131 47.0787 33.1167 44.7789C33.1869 43.1635 34.437 41.8484 36.0767 41.8062C36.238 41.8024 36.3568 41.6712 36.3569 41.5611V41.5591C36.3634 40.4465 36.3694 39.3453 36.3823 38.2574C36.3833 38.002 36.4959 37.7201 36.7612 37.5748L36.7603 37.5738C37.0015 37.4357 37.2777 37.3454 37.5874 37.3755C37.5895 37.3757 37.5921 37.3754 37.5942 37.3755H37.5962L37.5952 37.3765C37.7647 37.3896 37.9205 37.4363 38.063 37.5015L38.2026 37.5728L38.2056 37.5748C38.4718 37.7276 38.5762 38.0109 38.5767 38.2593L38.603 41.5718V41.5738Z" fill="#2AA5A5" stroke="#1C1C1C" stroke-width="0.5" stroke-linejoin="round"/>
<path d="M53.3512 46.9516C53.3512 44.5329 53.4094 42.172 53.5129 39.8755C53.5776 38.3831 54.7288 37.1802 56.2293 37.1416C56.5009 37.1351 56.7532 36.9164 56.7532 36.6462C56.7532 35.6363 56.7661 34.6328 56.7726 33.6485C56.7726 33.269 56.9342 32.8702 57.2964 32.7544C57.4258 32.7158 57.5681 32.6965 57.7104 32.7094C57.7944 32.7158 57.872 32.7351 57.9497 32.7544C58.3118 32.8702 58.4735 33.269 58.4735 33.6485C58.48 34.6392 58.4929 35.6427 58.4994 36.6591C58.4994 36.9228 58.7452 37.1416 59.0103 37.148C60.4526 37.1866 61.578 38.3252 61.6685 39.7597C61.7979 41.7796 61.8755 43.8703 61.9014 46.0253C61.9337 49.0294 61.8432 51.9178 61.6685 54.6774C61.578 56.1119 60.472 57.2634 59.0233 57.3149C58.7516 57.3213 58.4994 57.54 58.4994 57.8102C58.4994 58.8266 58.4865 59.8301 58.48 60.8208C58.48 61.1746 58.3442 61.5477 58.0143 61.6828C57.8914 61.7342 57.7621 61.7664 57.6263 61.7664C57.4905 61.7664 57.3611 61.7342 57.2382 61.6828C56.9084 61.5477 56.7726 61.1746 56.7726 60.8208C56.7661 59.8366 56.7596 58.8395 56.7532 57.8231C56.7532 57.5465 56.4944 57.3278 56.2163 57.3149C54.7094 57.2699 53.5776 56.0541 53.5129 54.5552C53.4029 52.0914 53.3447 49.5569 53.3512 46.9516Z" fill="#788F74" stroke="#1C1C1C" stroke-width="0.5" stroke-linejoin="round"/>
<path d="M28.5908 47.5435C28.5909 47.6508 28.7072 47.7791 28.8584 47.7828H28.8604C30.4312 47.8391 31.6348 49.085 31.7334 50.6275C31.8695 52.7231 31.9476 54.9092 31.9541 57.1851V57.1861C31.9606 59.7452 31.8825 62.1953 31.7334 64.523C31.6352 66.0685 30.4487 67.3291 28.876 67.3931C28.7149 67.4011 28.5937 67.5329 28.5908 67.6519C28.5844 68.776 28.5784 69.8817 28.5654 70.9683C28.5646 71.2115 28.4593 71.4791 28.2246 71.6314L28.2217 71.6334C28.0008 71.7725 27.7481 71.8716 27.4678 71.8716C27.1874 71.8716 26.9348 71.7725 26.7139 71.6334L26.7109 71.6314C26.476 71.4789 26.3707 71.2108 26.3701 70.9673L26.3574 69.3365C26.3526 68.7899 26.348 68.2396 26.3447 67.6861V67.6841C26.3444 67.56 26.2056 67.4109 26.0332 67.4068H26.0303C24.3357 67.3506 23.0844 65.9806 23.0078 64.3189C22.9121 62.1804 22.8552 59.9662 22.8535 57.6832L22.8457 57.6763V57.5718C22.8457 55.2584 22.9038 53.0094 23.001 50.8384L23.0293 50.5308C23.2388 49.0152 24.458 47.822 26.0381 47.7759H26.0391C26.2083 47.7721 26.3379 47.632 26.3379 47.5045V47.5035C26.3444 46.3844 26.3513 45.2838 26.3643 44.1959C26.365 43.9352 26.4873 43.6448 26.7549 43.5015V43.5025C26.9987 43.3704 27.2662 43.2882 27.5713 43.3121L27.5703 43.313C27.7887 43.3292 27.9917 43.4008 28.1777 43.5045L28.1807 43.5054C28.4385 43.6534 28.5646 43.93 28.5654 44.1959L28.5908 47.5416V47.5435Z" fill="#693000" stroke="#1C1C1C" stroke-width="0.5" stroke-miterlimit="10"/>
<path d="M48.7438 41.7732C48.7439 41.8805 48.8602 42.0088 49.0114 42.0125H49.0134C50.5842 42.0688 51.7878 43.3147 51.8864 44.8572C52.0226 46.9528 52.1006 49.1389 52.1071 51.4148V51.4158C52.1136 53.9749 52.0355 56.425 51.8864 58.7527C51.7882 60.2982 50.6017 61.5588 49.029 61.6228C48.8679 61.6307 48.7468 61.7626 48.7438 61.8816C48.7374 63.0057 48.7314 64.1114 48.7184 65.198C48.7176 65.4412 48.6123 65.7088 48.3776 65.8611L48.3747 65.863C48.1538 66.0022 47.9011 66.1013 47.6208 66.1013C47.3404 66.1013 47.0878 66.0022 46.8669 65.863L46.864 65.8611C46.6293 65.7088 46.524 65.4412 46.5231 65.198C46.5102 64.1164 46.5042 63.0221 46.4977 61.9158V61.9138C46.4974 61.7913 46.3602 61.6405 46.1794 61.6365H46.1765C44.4888 61.5802 43.2306 60.2106 43.154 58.5486C43.0568 56.3775 42.9987 54.1283 42.9987 51.8083V51.8015C42.9987 49.4887 43.0503 47.2399 43.154 45.0681C43.2307 43.4094 44.5055 42.0547 46.1911 42.0056H46.1921C46.3613 42.0018 46.4909 41.8617 46.4909 41.7341V41.7332C46.4974 40.6141 46.5043 39.5134 46.5173 38.4255C46.5181 38.1648 46.6403 37.8745 46.9079 37.7312V37.7322C47.1518 37.6001 47.4192 37.5178 47.7243 37.5417L47.7233 37.5427C47.9417 37.5588 48.1447 37.6305 48.3307 37.7341L48.3337 37.7351C48.5915 37.8831 48.7176 38.1596 48.7184 38.4255L48.7438 41.7712V41.7732Z" fill="#EB001B" stroke="#1C1C1C" stroke-width="0.5" stroke-miterlimit="10"/>
<path d="M38.603 37.8685C38.6031 37.9758 38.7185 38.104 38.8696 38.1078H38.8706C40.4483 38.1501 41.6727 39.3961 41.771 40.9535C41.9006 42.9772 41.9849 45.0721 42.0044 47.2318C42.0368 50.2427 41.946 53.1375 41.771 55.9027C41.6728 57.4569 40.4707 58.7175 38.8853 58.7738H38.8823C38.721 58.7778 38.603 58.9098 38.603 59.0199V59.0209C38.5966 60.1336 38.5896 61.2283 38.5767 62.3099C38.5759 62.5169 38.5015 62.7402 38.3296 62.8988L38.2495 62.9623C38.0219 63.1207 37.7599 63.219 37.48 63.2191C37.1963 63.2191 36.9351 63.1116 36.7144 62.9652L36.7104 62.9623C36.4809 62.8035 36.3827 62.5452 36.3823 62.308C36.376 61.2513 36.3633 60.1243 36.3569 59.0336V59.0326C36.3569 58.9198 36.2352 58.782 36.0581 58.7738V58.7728C34.4114 58.7214 33.1867 57.3926 33.1167 55.7758C33.0066 53.3079 32.9546 50.7691 32.9546 48.1605C32.9546 45.7379 33.0131 43.3735 33.1167 41.0736C33.1869 39.4583 34.437 38.1431 36.0767 38.101C36.238 38.0971 36.3568 37.966 36.3569 37.8558V37.8539C36.3634 36.7412 36.3694 35.6401 36.3823 34.5521C36.3833 34.2967 36.4959 34.0148 36.7612 33.8695L36.7603 33.8685C37.0015 33.7304 37.2777 33.6401 37.5874 33.6703C37.5895 33.6704 37.5921 33.6701 37.5942 33.6703H37.5962L37.5952 33.6713C37.7647 33.6844 37.9205 33.7311 38.063 33.7963L38.2026 33.8676L38.2056 33.8695C38.4718 34.0224 38.5762 34.3057 38.5767 34.5541L38.603 37.8666V37.8685Z" fill="#B9E5DE" stroke="#1C1C1C" stroke-width="0.5" stroke-linejoin="round"/>
<path d="M58.7491 32.9541C58.7494 33.0613 58.8657 33.1887 59.0167 33.1924L59.3087 33.2148C60.7434 33.3923 61.8257 34.5783 61.9181 36.0381L62.006 37.5703C62.0578 38.5999 62.0963 39.6467 62.1222 40.71L62.1515 42.3174L62.1573 43.4404C62.1593 46.0495 62.0712 48.5686 61.9181 50.9883C61.8198 52.5423 60.6176 53.803 59.0323 53.8594H59.0294C58.8681 53.8632 58.7494 53.9944 58.7491 54.1045C58.7491 55.1218 58.7361 56.1288 58.7296 57.1172C58.7292 57.5113 58.5781 58.0169 58.1095 58.209L58.1085 58.208C57.9628 58.2688 57.8013 58.3105 57.6261 58.3105C57.4509 58.3105 57.2894 58.2688 57.1437 58.208V58.209C56.6748 58.017 56.523 57.5114 56.5226 57.1172L56.5031 54.1191V54.1182C56.5031 54.0055 56.3821 53.8678 56.2052 53.8594V53.8584C54.5584 53.8073 53.3329 52.4782 53.2628 50.8613L53.1906 48.9971C53.128 47.12 53.0959 45.203 53.1007 43.2461L53.1115 41.4404C53.1327 39.6455 53.1851 37.8842 53.2628 36.1592L53.2902 35.8604C53.4911 34.3845 54.6854 33.2261 56.2228 33.1865H56.2238C56.385 33.1825 56.5031 33.0505 56.5031 32.9404C56.5031 31.9296 56.5161 30.9233 56.5226 29.9414C56.5231 29.5181 56.7045 28.9755 57.2198 28.8105L57.2247 28.8096C57.3793 28.7635 57.5538 28.7388 57.7325 28.7549L57.7316 28.7559C57.8389 28.7643 57.9354 28.7881 58.0099 28.8066C58.0151 28.8079 58.0204 28.8089 58.0255 28.8105C58.5411 28.9754 58.7233 29.518 58.7238 29.9414L58.7365 31.4365C58.7413 31.9382 58.7459 32.4435 58.7491 32.9521V32.9541Z" fill="#B9E5DE" stroke="#1C1C1C" stroke-width="0.5" stroke-linejoin="round"/>
<path d="M28.5908 43.8381C28.5909 43.9453 28.7072 44.0737 28.8584 44.0773H28.8604C30.4312 44.1336 31.6348 45.3795 31.7334 46.9221C31.8695 49.0177 31.9476 51.2038 31.9541 53.4797V53.4807C31.9606 56.0398 31.8825 58.4898 31.7334 60.8176C31.6352 62.3631 30.4487 63.6237 28.876 63.6877C28.7149 63.6956 28.5937 63.8274 28.5908 63.9465C28.5844 65.0706 28.5784 66.1763 28.5654 67.2629C28.5646 67.5061 28.4593 67.7737 28.2246 67.926L28.2217 67.9279C28.0008 68.067 27.7481 68.1662 27.4678 68.1662C27.1874 68.1662 26.9348 68.0671 26.7139 67.9279L26.7109 67.926C26.476 67.7735 26.3707 67.5053 26.3701 67.2619L26.3574 65.631C26.3526 65.0844 26.348 64.5342 26.3447 63.9807V63.9787C26.3444 63.8546 26.2056 63.7055 26.0332 63.7014H26.0303C24.3357 63.6452 23.0844 62.2752 23.0078 60.6135C22.9121 58.475 22.8552 56.2608 22.8535 53.9777L22.8457 53.9709V53.8664C22.8457 51.553 22.9038 49.304 23.001 47.133L23.0293 46.8254C23.2388 45.3098 24.458 44.1165 26.0381 44.0705H26.0391C26.2083 44.0667 26.3379 43.9266 26.3379 43.799V43.798C26.3444 42.679 26.3513 41.5783 26.3643 40.4904C26.365 40.2297 26.4873 39.9394 26.7549 39.7961V39.7971C26.9987 39.6649 27.2662 39.5827 27.5713 39.6066L27.5703 39.6076C27.7887 39.6237 27.9917 39.6954 28.1777 39.799L28.1807 39.8C28.4385 39.9479 28.5646 40.2245 28.5654 40.4904L28.5908 43.8361V43.8381Z" fill="#EB001B" stroke="#1C1C1C" stroke-width="0.5" stroke-miterlimit="10"/>
<path d="M55.2267 48.9586C54.6899 49.4797 54.082 49.8785 53.377 50.1165C51.6954 50.6762 50.9323 49.9236 49.3283 47.7814C47.899 45.8837 45.9522 43.2785 42.1881 44.5264C38.8637 45.6264 37.318 48.7078 35.824 51.6926C34.511 54.3172 33.2692 56.8002 30.9991 57.5529C29.324 58.1061 28.5608 57.3535 26.9569 55.2178C25.6763 53.5066 23.9688 51.2294 20.9097 51.6926V54.2721C22.449 53.8411 23.2186 54.6131 24.7579 56.6652C25.9221 58.2219 27.4484 60.2547 30.0225 60.2547C30.5917 60.2547 31.219 60.1517 31.8981 59.9266C35.2225 58.8266 36.7682 55.7453 38.2622 52.7604C39.5752 50.1358 40.8169 47.6528 43.0871 46.9001C44.7622 46.3405 45.5254 47.0995 47.1293 49.2352C48.5587 51.1394 50.5183 53.7447 54.276 52.4967C54.8064 52.323 55.285 52.0914 55.7312 51.8212C55.5566 50.8692 55.3884 49.9171 55.2267 48.9651V48.9586Z" fill="#4169E1" stroke="#1C1C1C" stroke-width="0.5" stroke-linecap="round" stroke-linejoin="round"/>
<path d="M80.9096 67.1828V68.643C80.9096 69.267 80.7674 69.8781 80.5087 70.4249C80.2435 70.9782 79.8554 71.4735 79.3704 71.8723C78.7236 72.3998 77.9475 72.715 77.1584 72.7986H58.0402C57.8915 72.8179 57.7362 72.8244 57.5875 72.8244C56.6432 72.8244 55.6925 72.5027 54.9164 71.8723C54.4313 71.4735 54.0497 70.9782 53.7845 70.4249C53.5258 69.8781 53.3835 69.267 53.3835 68.643V47.1703L54.593 48.3797L55.893 47.0867H56.0741L57.3676 48.3797L58.6676 47.0867H58.8487L60.1422 48.3797L61.4422 47.0867H61.6233L62.9168 48.3797L64.2168 47.0867H64.3979L65.6914 48.3797L66.9914 47.0867H67.1725L68.466 48.3797L69.766 47.0867H69.9471L71.2406 48.3797L72.5018 47.1253V67.1828H80.9096Z" fill="#4169E1" stroke="#1C1C1C" stroke-width="0.5" stroke-linejoin="round"/>
<path d="M71.2406 46.1733L69.9471 44.8867H69.766L68.4725 46.1733L67.1789 44.8867H66.9979L65.7043 46.1733L64.4108 44.8867H64.2297L62.9362 46.1733L61.6427 44.8867H61.4616L60.1681 46.1733L58.8746 44.8867H58.6935L57.3999 46.1733L56.1064 44.8867H55.9253L54.6318 46.1733L53.4224 44.9703V66.4431C53.4224 67.0671 53.5646 67.6782 53.8234 68.225C54.0885 68.7782 54.4701 69.2735 54.9552 69.6724C55.7313 70.3028 56.682 70.6244 57.6263 70.6244C57.7751 70.6244 57.9303 70.6244 58.079 70.5987C58.8681 70.5151 59.6377 70.1999 60.291 69.6724C61.2611 68.8747 61.8302 67.6911 61.8302 66.4431V64.9828H72.5406V44.9253L71.2794 46.1797L71.2406 46.1733Z" fill="#CCD9FD" stroke="#1C1C1C" stroke-width="0.5" stroke-linejoin="round"/>
<path d="M80.9097 64.9764V66.4367C80.9097 67.0607 80.7674 67.6718 80.5087 68.2186C80.2436 68.7718 79.8555 69.2671 79.3704 69.666C78.7237 70.1935 77.9476 70.5087 77.1585 70.5923H58.0403C58.8293 70.5087 59.599 70.1935 60.2522 69.666C61.2223 68.8683 61.7915 67.6847 61.7915 66.4367V64.9764H80.9097Z" fill="#CCD9FD" stroke="#1C1C1C" stroke-width="0.5" stroke-linejoin="round"/>
<path d="M77.1584 70.5922C77.0097 70.6115 76.8545 70.618 76.7057 70.618C76.557 70.618 76.4017 70.618 76.2465 70.5922H77.1584Z" fill="white" stroke="#1C1C1C" stroke-width="0.5" stroke-linecap="round" stroke-linejoin="round"/>
<path d="M77.6823 70.5922H77.1584" stroke="#1C1C1C" stroke-width="0.5" stroke-linecap="round" stroke-linejoin="round"/>
<path d="M57.2642 50.3932H68.6924" stroke="#1C1C1C" stroke-width="0.5" stroke-linecap="round" stroke-linejoin="round"/>
<path d="M57.2642 53.6868H68.6924" stroke="#1C1C1C" stroke-width="0.5" stroke-linecap="round" stroke-linejoin="round"/>
<path d="M57.2642 56.974H68.6924" stroke="#1C1C1C" stroke-width="0.5" stroke-linecap="round" stroke-linejoin="round"/>
<path d="M57.2642 60.2676H68.6924" stroke="#1C1C1C" stroke-width="0.5" stroke-linecap="round" stroke-linejoin="round"/>
</svg>
