<svg width="105" height="102" viewBox="0 0 105 102" fill="none" xmlns="http://www.w3.org/2000/svg">
<rect x="0.5" y="0.5" width="103.13" height="101" rx="4.5" stroke="#8A38F5" stroke-dasharray="10 5"/>
<path d="M74.7901 54.61C74.7901 66.54 64.9801 76.22 52.8701 76.22C40.7601 76.22 30.0801 65.75 30.0801 53.81C28.9101 33.68 40.7601 33 52.8701 33C64.9801 33 75.4601 34.05 74.7901 54.61Z" fill="#2AA5A5" stroke="#1C1C1C" stroke-width="0.5" stroke-linejoin="round"/>
<path d="M52.35 70.44C64.7 70.44 74.7 60.27 74.7 47.72C74.7 35.17 64.7 25 52.35 25C40 25 30 35.17 30 47.72C30 60.27 40.01 70.44 52.35 70.44Z" fill="#B9E5DE" stroke="#1C1C1C" stroke-width="0.5" stroke-linejoin="round"/>
<path d="M52.41 65.32C62.13 65.32 70.0201 57.44 70.0201 47.71C70.0201 37.98 62.13 30.11 52.41 30.11C42.69 30.11 34.8 37.99 34.8 47.71C34.8 57.43 42.68 65.32 52.41 65.32Z" fill="#2AA5A5" stroke="#1C1C1C" stroke-width="0.5" stroke-linejoin="round"/>
<path d="M52.53 41.9599C50.17 41.9599 48.25 40.0399 48.25 37.6799C48.25 35.3199 50.17 33.3999 52.53 33.3999C54.89 33.3999 56.81 35.3199 56.81 37.6799C56.81 40.0399 54.89 41.9599 52.53 41.9599ZM52.53 36.3899C51.82 36.3899 51.25 36.9699 51.25 37.6699C51.25 38.3699 51.83 38.9499 52.53 38.9499C53.23 38.9499 53.81 38.3699 53.81 37.6699C53.81 36.9699 53.23 36.3899 52.53 36.3899Z" fill="white"/>
<path d="M52.5301 62.2299C46.7501 62.2299 41.8301 58.4799 40.8301 53.3199L43.7801 52.7499C44.5101 56.4999 48.1901 59.2299 52.5301 59.2299C56.8701 59.2299 60.5601 56.5099 61.2901 52.7499L64.2401 53.3199C63.2401 58.4799 58.3201 62.2299 52.5401 62.2299H52.5301Z" fill="white"/>
<path d="M59.4099 53.6999L63.6999 48.7599L65.8399 54.9499L59.4099 53.6999Z" fill="white"/>
<path d="M45.66 53.6999L41.36 48.7599L39.23 54.9499L45.66 53.6999Z" fill="white"/>
<path d="M54.03 40.4599H51.03V60.7299H54.03V40.4599Z" fill="white"/>
<path d="M57.02 42.9999H48.04V45.9999H57.02V42.9999Z" fill="white"/>
</svg>
