<svg width="102" height="102" viewBox="0 0 102 102" fill="none" xmlns="http://www.w3.org/2000/svg">
<rect x="0.5" y="0.5" width="101" height="101" rx="4.5" stroke="#8A38F5" stroke-dasharray="10 5"/>
<path d="M67.6158 45.0243C67.6158 54.7072 59.7032 62.5588 49.943 62.5588C40.1828 62.5588 31.5704 54.0592 31.5704 44.3762C30.6279 28.0438 40.1828 27.4897 49.943 27.4897C59.7032 27.4897 68.1477 28.335 67.6158 45.0243Z" fill="#4169E1" stroke="#1C1C1C" stroke-width="0.5" stroke-linejoin="round"/>
<path d="M49.524 57.8724C59.4801 57.8724 67.5421 49.6169 67.5421 39.4362C67.5421 29.2554 59.4801 21 49.524 21C39.5679 21 31.5059 29.2554 31.5059 39.4362C31.5059 49.6169 39.5772 57.8724 49.524 57.8724Z" fill="#E8EDFA" stroke="#1C1C1C" stroke-width="0.5" stroke-linecap="round" stroke-linejoin="round"/>
<path d="M49.5694 53.7212C57.4074 53.7212 63.7618 47.3253 63.7618 39.4362C63.7618 31.547 57.4074 25.1512 49.5694 25.1512C41.7314 25.1512 35.377 31.547 35.377 39.4362C35.377 47.3253 41.7314 53.7212 49.5694 53.7212Z" fill="#4169E1" stroke="#1C1C1C" stroke-width="0.5" stroke-miterlimit="10"/>
<path d="M49.7637 37.8659C49.4152 38.0672 48.997 38.0672 48.6486 37.8659L45.5588 36.1003C45.0399 35.806 44.8463 35.1556 45.1174 34.6212L48.2459 28.4572C48.6641 27.6286 49.8566 27.6441 50.2593 28.4804L53.2329 34.6832C53.4884 35.2098 53.2871 35.8448 52.776 36.139L49.7637 37.8582V37.8659Z" fill="white"/>
<path d="M49.6073 40.1508C49.2666 40.3367 48.8484 40.3367 48.5154 40.1431L46.0374 38.7259C45.5108 38.4239 44.9455 39.0589 45.3095 39.5468L48.1747 43.4497C48.6161 44.0537 49.5144 44.0614 49.9712 43.4652L52.9836 39.5236C53.3553 39.0434 52.7977 38.4007 52.2712 38.695L49.615 40.1508H49.6073Z" fill="white"/>
<path d="M28.5575 49.645C28.7535 47.513 30.4517 45.8413 32.5792 45.6629C44.1962 44.6673 55.8039 44.6673 67.4209 45.6629C69.5484 45.8413 71.2373 47.5037 71.4612 49.6356C72.3477 58.4076 72.3477 67.1796 71.4612 75.9609C71.2373 78.0929 69.5484 79.7552 67.4209 79.9337C55.8412 80.9386 44.2615 80.9386 32.6725 79.9337C30.5077 79.7458 28.8001 78.0271 28.6135 75.8482C27.8484 66.7851 27.7644 58.0225 28.5575 49.645Z" fill="#4169E1" stroke="#1C1C1C" stroke-width="0.5" stroke-linejoin="round"/>
<path d="M28.5575 46.2639C28.7535 44.1319 30.4517 42.4602 32.5792 42.2817C44.1962 41.2862 55.8039 41.2862 67.4209 42.2817C69.5484 42.4602 71.2373 44.1225 71.4612 46.2545C72.3477 55.0265 72.3477 63.7984 71.4612 72.5798C71.2373 74.7118 69.5484 76.3741 67.4209 76.5526C55.8412 77.5575 44.2615 77.5575 32.6725 76.5526C30.5077 76.3647 28.8001 74.646 28.6135 72.4671C27.8484 63.404 27.7644 54.6414 28.5575 46.2639Z" fill="#CCD9FD" stroke="#1C1C1C" stroke-width="0.5" stroke-linejoin="round"/>
<path d="M52.8554 60.4174C52.9487 56.3037 56.4292 53.0354 60.5161 52.9603C64.6684 52.8851 68.774 53.0823 73.0756 53.505C73.6541 57.5716 73.4768 61.9013 73.3462 67.4049C73.3369 67.9872 72.8796 68.4756 72.3105 68.5225C68.4568 68.8606 64.6871 68.9827 60.8987 68.8888C56.4105 68.7761 52.7528 64.9536 52.8554 60.4174Z" fill="#4169E1" stroke="#1C1C1C" stroke-width="0.5" stroke-linejoin="round"/>
<path d="M52.8555 57.6938C52.9488 53.5708 56.4386 50.3212 60.5256 50.2085C64.4446 50.1052 68.3542 50.2085 72.2639 50.556C72.9077 50.6124 73.4209 51.1477 73.4583 51.8051C73.7569 57.2524 73.7475 59.0181 73.5236 65.7145C69.3433 66.1277 65.1071 66.278 60.8801 66.1746C56.3826 66.0619 52.7436 62.2395 52.8462 57.6938H52.8555Z" fill="#CCD9FD" stroke="#1C1C1C" stroke-width="0.5" stroke-linejoin="round"/>
<path d="M60.2174 61.2721C62.2478 61.2721 63.8937 59.6154 63.8937 57.5717C63.8937 55.5281 62.2478 53.8713 60.2174 53.8713C58.1869 53.8713 56.541 55.5281 56.541 57.5717C56.541 59.6154 58.1869 61.2721 60.2174 61.2721Z" fill="white" stroke="#1C1C1C" stroke-width="0.5" stroke-linejoin="round"/>
</svg>
