<svg width="62" height="62" viewBox="0 0 62 62" fill="none" xmlns="http://www.w3.org/2000/svg">
<g clip-path="url(#clip0_18011_5757)">
<path d="M32.2047 29.1463L28.9298 30.0238C27.5843 26.287 23.6409 22.9164 19.0967 22.9164C15.3902 22.9164 12.0815 25.446 10.2536 28.1006H13.6131V31.0696H4V22.7622H7.43568V26.4186C9.88127 22.9816 14.2393 18.6722 19.1051 18.6722C25.1556 18.6722 30.4192 24.159 32.2132 29.1463H32.2047Z" fill="#4169E1" stroke="#1C1C1C" stroke-width="0.5" stroke-linejoin="round"/>
<path d="M31.3582 35.3029V45.0285H27.9852V41.3814C25.5177 45.0371 21.4468 47.3144 16.9272 47.3144C10.987 47.3144 5.81945 43.3933 4.05816 37.5545L4 34.4896L7.27335 36.5272C8.59432 40.902 12.4742 43.8471 16.9272 43.8471C20.5661 43.8471 23.8229 41.8865 25.6091 38.7788H21.912V35.3029H31.3499H31.3582Z" fill="#4169E1" stroke="#1C1C1C" stroke-width="0.5" stroke-linejoin="round"/>
<path d="M41.8376 49.7364C48.4115 49.7364 53.7406 49.1851 53.7406 48.505C53.7406 47.8249 48.4115 47.2736 41.8376 47.2736C35.2637 47.2736 29.9346 47.8249 29.9346 48.505C29.9346 49.1851 35.2637 49.7364 41.8376 49.7364Z" fill="#FF9500" stroke="#1C1C1C" stroke-width="0.5" stroke-linejoin="round"/>
<path d="M57.1405 49.954V55.4048C57.1405 57.1044 50.1319 58.4897 41.491 58.4897C32.8501 58.4897 25.8361 57.1044 25.8361 55.4048V49.954H57.1405Z" fill="#FF9500" stroke="#1C1C1C" stroke-width="0.5" stroke-linejoin="round"/>
<path d="M41.4922 52.7706C50.1352 52.7706 57.1417 51.3894 57.1417 49.6857C57.1417 47.982 50.1352 46.6008 41.4922 46.6008C32.8493 46.6008 25.8427 47.982 25.8427 49.6857C25.8427 51.3894 32.8493 52.7706 41.4922 52.7706Z" fill="#FFE2C8" stroke="#1C1C1C" stroke-width="0.5" stroke-linejoin="round"/>
<path d="M41.8402 50.5866C48.414 50.5866 53.7432 50.0353 53.7432 49.3552C53.7432 48.6751 48.414 48.1238 41.8402 48.1238C35.2663 48.1238 29.9371 48.6751 29.9371 49.3552C29.9371 50.0353 35.2663 50.5866 41.8402 50.5866Z" fill="#FF9500" stroke="#1C1C1C" stroke-width="0.5" stroke-linejoin="round"/>
<path d="M57.1405 44.0786V49.5294C57.1405 51.229 50.1318 52.6143 41.4909 52.6143C32.8501 52.6143 25.8361 51.229 25.8361 49.5294V44.0786H57.1405Z" fill="#FF9500" stroke="#1C1C1C" stroke-width="0.5" stroke-linejoin="round"/>
<path d="M41.4922 46.8953C50.1352 46.8953 57.1417 45.5141 57.1417 43.8104C57.1417 42.1067 50.1352 40.7255 41.4922 40.7255C32.8492 40.7255 25.8427 42.1067 25.8427 43.8104C25.8427 45.5141 32.8492 46.8953 41.4922 46.8953Z" fill="#FFE2C8" stroke="#1C1C1C" stroke-width="0.5" stroke-linejoin="round"/>
<path d="M41.8402 44.7112C48.414 44.7112 53.7432 44.1599 53.7432 43.4798C53.7432 42.7997 48.414 42.2484 41.8402 42.2484C35.2663 42.2484 29.9371 42.7997 29.9371 43.4798C29.9371 44.1599 35.2663 44.7112 41.8402 44.7112Z" fill="#FF9500" stroke="#1C1C1C" stroke-width="0.5" stroke-linejoin="round"/>
<path d="M41.8376 45.5292C48.4115 45.5292 53.7406 44.9778 53.7406 44.2978C53.7406 43.6177 48.4115 43.0663 41.8376 43.0663C35.2637 43.0663 29.9346 43.6177 29.9346 44.2978C29.9346 44.9778 35.2637 45.5292 41.8376 45.5292Z" fill="#FF9500" stroke="#1C1C1C" stroke-width="0.5" stroke-linejoin="round"/>
<path d="M57.1404 38.1909V43.6417C57.1404 45.3413 50.1318 46.7266 41.4909 46.7266C32.85 46.7266 25.836 45.3413 25.836 43.6417V38.1909H57.1404Z" fill="#FF9500" stroke="#1C1C1C" stroke-width="0.5" stroke-linejoin="round"/>
<path d="M41.4922 41.0075C50.1352 41.0075 57.1417 39.6264 57.1417 37.9226C57.1417 36.2189 50.1352 34.8378 41.4922 34.8378C32.8492 34.8378 25.8427 36.2189 25.8427 37.9226C25.8427 39.6264 32.8492 41.0075 41.4922 41.0075Z" fill="#FFE2C8" stroke="#1C1C1C" stroke-width="0.5" stroke-linejoin="round"/>
<path d="M41.8402 38.8236C48.414 38.8236 53.7432 38.2723 53.7432 37.5922C53.7432 36.9121 48.414 36.3608 41.8402 36.3608C35.2663 36.3608 29.9371 36.9121 29.9371 37.5922C29.9371 38.2723 35.2663 38.8236 41.8402 38.8236Z" fill="#FF9500" stroke="#1C1C1C" stroke-width="0.5" stroke-linejoin="round"/>
<path d="M20.8564 59.8013C27.4302 59.8013 32.7594 59.2499 32.7594 58.5699C32.7594 57.8898 27.4302 57.3384 20.8564 57.3384C14.2825 57.3384 8.95333 57.8898 8.95333 58.5699C8.95333 59.2499 14.2825 59.8013 20.8564 59.8013Z" fill="#FF9500" stroke="#1C1C1C" stroke-width="0.5" stroke-linejoin="round"/>
<path d="M36.1592 52.463V57.9137C36.1592 59.6133 29.1506 60.9986 20.5097 60.9986C11.8688 60.9986 4.85483 59.6133 4.85483 57.9137V52.463H36.1592Z" fill="#FF9500" stroke="#1C1C1C" stroke-width="0.5" stroke-linejoin="round"/>
<path d="M20.5111 55.2796C29.154 55.2796 36.1606 53.8984 36.1606 52.1947C36.1606 50.491 29.154 49.1099 20.5111 49.1099C11.8681 49.1099 4.86156 50.491 4.86156 52.1947C4.86156 53.8984 11.8681 55.2796 20.5111 55.2796Z" fill="#FFE2C8" stroke="#1C1C1C" stroke-width="0.5" stroke-linejoin="round"/>
<path d="M20.8589 53.0956C27.4328 53.0956 32.762 52.5443 32.762 51.8642C32.762 51.1841 27.4328 50.6328 20.8589 50.6328C14.2851 50.6328 8.95589 51.1841 8.95589 51.8642C8.95589 52.5443 14.2851 53.0956 20.8589 53.0956Z" fill="#FF9500" stroke="#1C1C1C" stroke-width="0.5" stroke-linejoin="round"/>
<path d="M20.8565 53.9337C27.4303 53.9337 32.7595 53.3824 32.7595 52.7023C32.7595 52.0222 27.4303 51.4709 20.8565 51.4709C14.2826 51.4709 8.95341 52.0222 8.95341 52.7023C8.95341 53.3824 14.2826 53.9337 20.8565 53.9337Z" fill="#FF9500" stroke="#1C1C1C" stroke-width="0.5" stroke-linejoin="round"/>
<path d="M36.1593 46.5955V52.0462C36.1593 53.7458 29.1507 55.1311 20.5098 55.1311C11.8689 55.1311 4.85491 53.7458 4.85491 52.0462V46.5955H36.1593Z" fill="#FF9500" stroke="#1C1C1C" stroke-width="0.5" stroke-linejoin="round"/>
<path d="M20.5112 49.412C29.1541 49.412 36.1607 48.0309 36.1607 46.3272C36.1607 44.6234 29.1541 43.2423 20.5112 43.2423C11.8682 43.2423 4.86165 44.6234 4.86165 46.3272C4.86165 48.0309 11.8682 49.412 20.5112 49.412Z" fill="#FFE2C8" stroke="#1C1C1C" stroke-width="0.5" stroke-linejoin="round"/>
<path d="M20.859 47.228C27.4329 47.228 32.7621 46.6767 32.7621 45.9966C32.7621 45.3165 27.4329 44.7652 20.859 44.7652C14.2851 44.7652 8.95597 45.3165 8.95597 45.9966C8.95597 46.6767 14.2851 47.228 20.859 47.228Z" fill="#FF9500" stroke="#1C1C1C" stroke-width="0.5" stroke-linejoin="round"/>
<path d="M56.8176 22.1944C56.8176 30.5732 49.928 37.3657 41.429 37.3657C32.9299 37.3657 25.4303 30.0113 25.4303 21.6325C24.6052 7.49773 32.9299 7.02304 41.429 7.02304C49.928 7.02304 57.2843 7.75696 56.8176 22.1944Z" fill="#FF9500" stroke="#1C1C1C" stroke-width="0.5" stroke-miterlimit="10"/>
<path d="M41.2398 33.9059C49.9066 33.9059 56.9324 26.7636 56.9324 17.953C56.9324 9.14239 49.9066 2 41.2398 2C32.5731 2 25.5473 9.14239 25.5473 17.953C25.5473 26.7636 32.5731 33.9059 41.2398 33.9059Z" fill="#FFE2C8" stroke="#1C1C1C" stroke-width="0.5" stroke-miterlimit="10"/>
<path d="M41.1079 30.3106C47.9348 30.3106 53.4691 24.776 53.4691 17.9487C53.4691 11.1215 47.9348 5.58688 41.1079 5.58688C34.281 5.58688 28.7467 11.1215 28.7467 17.9487C28.7467 24.776 34.281 30.3106 41.1079 30.3106Z" fill="#FF9500" stroke="#1C1C1C" stroke-width="0.5" stroke-miterlimit="10"/>
<path d="M31.9518 26.0961L28.7063 27.1025C27.3728 22.8168 23.4648 19.9318 18.9613 19.9318C15.2881 19.9318 12.009 21.8524 10.1975 24.8968H13.5269V28.3018H4V18.7744H7.40487V22.9678C9.82853 19.0176 14.1475 16.5351 18.9613 16.5351C24.9576 16.5351 30.1739 20.3763 31.9518 26.0961Z" fill="#CCD9FD" stroke="#1C1C1C" stroke-width="0.5" stroke-linejoin="round"/>
<path d="M31.5576 31.965V41.4924H28.1528V37.9196C25.662 41.5008 21.5527 43.7316 16.9905 43.7316C10.9942 43.7316 5.77791 39.8905 4 34.1707L7.24553 33.1643C8.57896 37.4499 12.4954 40.335 16.9905 40.335C20.6637 40.335 23.9512 38.4144 25.7543 35.37H22.0223V31.965H31.5492H31.5576Z" fill="#CCD9FD" stroke="#1C1C1C" stroke-width="0.5" stroke-linejoin="round"/>
<rect x="36.6648" y="16.1944" width="9.57537" height="8.89187" rx="2" fill="white"/>
<path d="M43.5057 17.561V14.825C43.5057 13.6918 42.5871 12.7731 41.4539 12.7731C40.3207 12.7731 39.402 13.6918 39.402 14.825V17.561C39.402 18.6943 40.3207 19.613 41.4539 19.613V20.9809C39.6241 20.9809 38.1302 19.5438 38.0388 17.7367L38.0341 17.561V14.825C38.0341 12.9363 39.5652 11.4051 41.4539 11.4051C43.3426 11.4051 44.8737 12.9363 44.8737 14.825V17.561L44.869 17.7367C44.7775 19.5438 43.2836 20.9809 41.4539 20.9809V19.613C42.5871 19.613 43.5057 18.6943 43.5057 17.561Z" fill="white"/>
</g>
<defs>
<clipPath id="clip0_18011_5757">
<rect width="62" height="62" rx="5" fill="white"/>
</clipPath>
</defs>
</svg>
