<svg width="62" height="62" viewBox="0 0 62 62" fill="none" xmlns="http://www.w3.org/2000/svg">
<g clip-path="url(#clip0_18011_2754)">
<path d="M45.3923 33.3129C45.3923 36.7594 42.5984 39.5533 39.152 39.5533H24.6368C21.1904 39.5533 18.3965 36.7594 18.3965 33.3129V14.7065C18.3965 7.1489 24.4518 1 31.8944 1C39.337 1 45.3923 7.1489 45.3923 14.7065V33.3129ZM22.9978 28.6405C22.9978 32.087 25.7917 34.8809 29.2381 34.8809H34.5507C37.9971 34.8809 40.791 32.087 40.791 28.6405V14.7065C40.791 9.72457 36.7994 5.67242 31.8944 5.67242C26.9894 5.67242 22.9978 9.72574 22.9978 14.7065V28.6405Z" fill="#FF9500" stroke="#1C1C1C" stroke-width="0.5" stroke-miterlimit="10" stroke-linejoin="round"/>
<path d="M51.2368 32.0426C50.9414 29.3964 48.8192 27.349 46.1691 27.0915C40.8749 26.5769 36.0004 26.3873 31.6486 26.3873C31.5693 26.3873 31.4899 26.3873 31.4105 26.3873C31.3312 26.3873 31.2529 26.3873 31.1724 26.3873C26.8194 26.3873 21.9442 26.5763 16.65 27.0911C14.0008 27.3488 11.8794 29.3953 11.5837 32.0406C11.236 35.151 11.0095 38.5811 11.0003 42.2852C10.9899 46.592 11.2757 50.5334 11.7073 54.0371C11.9667 56.1428 13.3904 57.9291 15.4127 58.5707C19.1284 59.7497 24.227 60.8991 30.3476 60.9947C30.7054 61.0006 31.0585 61.0006 31.4094 60.9994C31.7602 61.0006 32.1134 60.9994 32.4711 60.9947C38.5911 60.8991 43.6892 59.7493 47.4049 58.5706C49.4277 57.9289 50.8521 56.1423 51.1116 54.036C51.5431 50.5326 51.8288 46.5915 51.8185 42.2852C51.8101 38.5821 51.5839 35.1524 51.2368 32.0426Z" fill="#FF9500" stroke="#1C1C1C" stroke-width="0.5" stroke-miterlimit="10" stroke-linejoin="round"/>
<path d="M51.2368 27.242C50.9414 24.5958 48.8192 22.5484 46.1691 22.2909C40.8749 21.7764 36.0004 21.5867 31.6486 21.5867C31.5693 21.5867 31.4899 21.5867 31.4105 21.5867C31.3312 21.5867 31.2529 21.5867 31.1724 21.5867C26.8194 21.5867 21.9442 21.7757 16.65 22.2905C14.0008 22.5482 11.8794 24.5947 11.5837 27.24C11.236 30.3504 11.0095 33.7806 11.0003 37.4846C10.9899 41.7914 11.2757 45.7328 11.7073 49.2365C11.9667 51.3422 13.3904 53.1285 15.4127 53.7702C19.1284 54.9491 24.227 56.0985 30.3476 56.1941C30.7054 56.2 31.0585 56.2 31.4094 56.1988C31.7602 56.2 32.1134 56.1988 32.4711 56.1941C38.5911 56.0985 43.6892 54.9487 47.4049 53.77C49.4277 53.1283 50.8521 51.3417 51.1116 49.2354C51.5431 45.732 51.8288 41.7909 51.8185 37.4846C51.8101 33.7816 51.5839 30.3518 51.2368 27.242Z" fill="#FFE2C8" stroke="#1C1C1C" stroke-width="0.5" stroke-miterlimit="10" stroke-linejoin="round"/>
<path d="M31.4108 49.8642C37.3777 49.8642 42.2147 44.9523 42.2147 38.8933C42.2147 32.8343 37.3777 27.9225 31.4108 27.9225C25.444 27.9225 20.607 32.8343 20.607 38.8933C20.607 44.9523 25.444 49.8642 31.4108 49.8642Z" fill="#FF9500" stroke="#1C1C1C" stroke-width="0.5" stroke-miterlimit="10" stroke-linejoin="round"/>
<path d="M36.2366 37.3035C36.2363 37.3035 36.2361 37.3033 36.2361 37.3029C36.2358 34.7264 34.1791 32.6381 31.6417 32.6381C29.104 32.6381 27.0473 34.7267 27.0473 37.3035C27.0473 38.8637 27.8015 40.2451 28.9604 41.0919C29.2551 41.3073 29.4595 41.6363 29.4595 42.0013V45.2815C29.4595 45.7515 29.7863 46.1633 30.2519 46.2272C30.677 46.2855 31.1546 46.3238 31.6762 46.3224C32.1712 46.3211 32.6259 46.2837 33.0333 46.2276C33.4986 46.1635 33.825 45.7518 33.825 45.2821V41.8423C33.825 41.5753 33.9732 41.3334 34.1941 41.1835C35.4261 40.347 36.237 38.9217 36.2372 37.3041C36.2372 37.3038 36.237 37.3035 36.2366 37.3035Z" fill="#1C1C1C" stroke="#1C1C1C" stroke-width="0.5" stroke-miterlimit="10" stroke-linejoin="round"/>
</g>
<defs>
<clipPath id="clip0_18011_2754">
<rect width="62" height="62" rx="5" fill="white"/>
</clipPath>
</defs>
</svg>
