<svg width="62" height="62" viewBox="0 0 62 62" fill="none" xmlns="http://www.w3.org/2000/svg">
<g clip-path="url(#clip0_18011_4436)">
<path d="M16.436 10.8071C16.436 7.33979 16.436 5.60611 17.5503 4.52895C18.6647 3.45178 20.4581 3.45178 24.045 3.45178H37.9948C41.5817 3.45178 43.3752 3.45178 44.4895 4.52895C45.6038 5.60611 45.6038 7.33979 45.6038 10.8071V53.7133C45.6038 57.1807 45.6038 58.9144 44.4895 59.9915C43.3752 61.0687 41.5817 61.0687 37.9948 61.0687H24.045C20.4581 61.0687 18.6647 61.0687 17.5503 59.9915C16.436 58.9144 16.436 57.1807 16.436 53.7133V10.8071Z" fill="#4169E1" stroke="#1C1C1C" stroke-width="0.5" stroke-linejoin="round"/>
<path d="M16.2419 8.1007C16.3169 4.76568 16.3543 3.09816 17.4634 2.04908C18.5725 1 20.311 1 23.7878 1H38.2409C41.7221 1 43.4627 1 44.5722 2.05148C45.6818 3.10295 45.7161 4.7731 45.7847 8.11341C45.8891 13.1975 46 20.7314 46 29.8085C46 38.8855 45.8891 46.4195 45.7847 51.5035C45.7161 54.8438 45.6818 56.514 44.5722 57.5654C43.4627 58.6169 41.7221 58.6169 38.2409 58.6169H23.7879C20.311 58.6169 18.5725 58.6169 17.4634 57.5678C16.3543 56.5187 16.3169 54.8512 16.2419 51.5162C16.1256 46.3377 16 38.6911 16 29.8085C16 20.9258 16.1256 13.2792 16.2419 8.1007Z" fill="#E8EDFA" stroke="#1C1C1C" stroke-width="0.5" stroke-linejoin="round"/>
<path d="M26.5813 5.29062C26.5813 4.27506 27.433 3.45178 28.4835 3.45178H34.8244C35.8749 3.45178 36.7266 4.27506 36.7266 5.29062C36.7266 6.30618 35.8749 7.12946 34.8244 7.12946H28.4835C27.433 7.12946 26.5813 6.30618 26.5813 5.29062Z" fill="#1C1C1C"/>
<path d="M25.313 55.5522C25.313 55.2137 25.5969 54.9392 25.9471 54.9392H37.3605C37.7107 54.9392 37.9946 55.2137 37.9946 55.5522C37.9946 55.8907 37.7107 56.1651 37.3605 56.1651H25.9471C25.5969 56.1651 25.313 55.8907 25.313 55.5522Z" fill="#1C1C1C"/>
<path d="M21 22C21 21.0572 21 20.5858 21.2929 20.2929C21.5858 20 22.0572 20 23 20H24.8333C25.7761 20 26.2475 20 26.5404 20.2929C26.8333 20.5858 26.8333 21.0572 26.8333 22V23.8333C26.8333 24.7761 26.8333 25.2475 26.5404 25.5404C26.2475 25.8333 25.7761 25.8333 24.8333 25.8333H23C22.0572 25.8333 21.5858 25.8333 21.2929 25.5404C21 25.2475 21 24.7761 21 23.8333V22Z" fill="#00125C"/>
<path d="M21 36.1667C21 35.2239 21 34.7525 21.2929 34.4596C21.5858 34.1667 22.0572 34.1667 23 34.1667H24.8333C25.7761 34.1667 26.2475 34.1667 26.5404 34.4596C26.8333 34.7525 26.8333 35.2239 26.8333 36.1667V38C26.8333 38.9428 26.8333 39.4142 26.5404 39.7071C26.2475 40 25.7761 40 24.8333 40H23C22.0572 40 21.5858 40 21.2929 39.7071C21 39.4142 21 38.9428 21 38V36.1667Z" fill="#00125C"/>
<path d="M35.1667 22C35.1667 21.0572 35.1667 20.5858 35.4596 20.2929C35.7525 20 36.2239 20 37.1667 20H39C39.9428 20 40.4142 20 40.7071 20.2929C41 20.5858 41 21.0572 41 22V23.8333C41 24.7761 41 25.2475 40.7071 25.5404C40.4142 25.8333 39.9428 25.8333 39 25.8333H37.1667C36.2239 25.8333 35.7525 25.8333 35.4596 25.5404C35.1667 25.2475 35.1667 24.7761 35.1667 23.8333V22Z" fill="#00125C"/>
<path d="M28.5 26.6667V25.8333C28.5 25.3731 28.8731 25 29.3333 25C29.7936 25 30.1667 25.3731 30.1667 25.8333V26.6667C30.1667 28.0474 29.0474 29.1667 27.6667 29.1667H26C25.5398 29.1667 25.1667 28.7936 25.1667 28.3333C25.1667 27.8731 25.5398 27.5 26 27.5H27.6667C28.1269 27.5 28.5 27.1269 28.5 26.6667Z" fill="#00125C"/>
<path d="M36.8333 30V32.5C36.8333 32.9602 36.4602 33.3333 36 33.3333C35.5398 33.3333 35.1667 32.9602 35.1667 32.5L35.1667 30C35.1667 28.6193 36.286 27.5 37.6667 27.5L40.1667 27.5C40.6269 27.5 41 27.8731 41 28.3333C41 28.7936 40.6269 29.1667 40.1667 29.1667H37.6667C37.2064 29.1667 36.8333 29.5398 36.8333 30Z" fill="#00125C"/>
<path d="M31.8333 33.3333V35C31.8333 35.4602 32.2064 35.8333 32.6667 35.8333C33.1269 35.8333 33.5 35.4602 33.5 35V33.3333C33.5 31.9526 32.3807 30.8333 31 30.8333H29.3333C28.8731 30.8333 28.5 31.2064 28.5 31.6667C28.5 32.1269 28.8731 32.5 29.3333 32.5H31C31.4602 32.5 31.8333 32.8731 31.8333 33.3333Z" fill="#00125C"/>
<path d="M28.5 39.1667C28.5 39.6269 28.8731 40 29.3333 40C29.7936 40 30.1667 39.6269 30.1667 39.1667V35C30.1667 34.5398 29.7936 34.1667 29.3333 34.1667C28.8731 34.1667 28.5 34.5398 28.5 35V39.1667Z" fill="#00125C"/>
<path d="M33.5 25C33.5 25.4602 33.1269 25.8333 32.6667 25.8333C32.2064 25.8333 31.8333 25.4602 31.8333 25V20.8333C31.8333 20.3731 32.2064 20 32.6667 20C33.1269 20 33.5 20.3731 33.5 20.8333V25Z" fill="#00125C"/>
<path d="M21.8333 32.5C21.3731 32.5 21 32.1269 21 31.6667C21 31.2064 21.3731 30.8333 21.8333 30.8333H26C26.4602 30.8333 26.8333 31.2064 26.8333 31.6667C26.8333 32.1269 26.4602 32.5 26 32.5L21.8333 32.5Z" fill="#00125C"/>
<path d="M36 38.3333H37.6667C38.0981 38.3333 38.4532 38.0056 38.4959 37.5854L38.5041 37.4146C38.5468 36.9944 38.9019 36.6667 39.3333 36.6667C39.7936 36.6667 40.1667 37.0398 40.1667 37.5C40.1667 38.8807 39.0474 40 37.6667 40H36C35.5398 40 35.1667 39.6269 35.1667 39.1667C35.1667 38.7064 35.5398 38.3333 36 38.3333Z" fill="#00125C"/>
<path d="M30.1667 22.5C30.1667 22.9602 29.7936 23.3333 29.3333 23.3333C28.8731 23.3333 28.5 22.9602 28.5 22.5V20.8333C28.5 20.3731 28.8731 20 29.3333 20C29.7936 20 30.1667 20.3731 30.1667 20.8333V22.5Z" fill="#00125C"/>
<path d="M31.8333 39.1667C31.8333 39.6269 32.2064 40 32.6667 40C33.1269 40 33.5 39.6269 33.5 39.1667V37.5C33.5 37.0398 33.1269 36.6667 32.6667 36.6667C32.2064 36.6667 31.8333 37.0398 31.8333 37.5V39.1667Z" fill="#00125C"/>
<path d="M36.8333 36.6667C36.8333 37.1269 36.4602 37.5 36 37.5C35.5398 37.5 35.1667 37.1269 35.1667 36.6667V35.8333C35.1667 35.3731 35.5398 35 36 35C36.4602 35 36.8333 35.3731 36.8333 35.8333V36.6667Z" fill="#00125C"/>
<path d="M33.5 28.75C33.5 29.2102 33.1269 29.5833 32.6667 29.5833C32.2064 29.5833 31.8333 29.2102 31.8333 28.75V27.9167C31.8333 27.4564 32.2064 27.0833 32.6667 27.0833C33.1269 27.0833 33.5 27.4564 33.5 27.9167V28.75Z" fill="#00125C"/>
<path d="M21.8333 29.1667L21.7479 29.1626C21.3278 29.1198 21 28.7647 21 28.3333C21 27.9019 21.3278 27.5468 21.7479 27.5041L21.8333 27.5H22.6667C23.1269 27.5 23.5 27.8731 23.5 28.3333C23.5 28.7936 23.1269 29.1667 22.6667 29.1667H21.8333Z" fill="#00125C"/>
<path d="M40.1667 34.1667C40.1667 34.6269 39.7936 35 39.3333 35C38.8731 35 38.5 34.6269 38.5 34.1667V31.6667C38.5 31.2064 38.8731 30.8333 39.3333 30.8333C39.7936 30.8333 40.1667 31.2064 40.1667 31.6667V34.1667Z" fill="#00125C"/>
</g>
<defs>
<clipPath id="clip0_18011_4436">
<rect width="62" height="62" rx="5" fill="white"/>
</clipPath>
</defs>
</svg>
