<svg width="62" height="62" viewBox="0 0 62 62" fill="none" xmlns="http://www.w3.org/2000/svg">
<g clip-path="url(#clip0_18011_6318)">
<path d="M16.7425 39.251C18.6974 38.2514 20.0351 36.2076 20.0351 33.8485C20.0351 30.5046 17.3449 27.7914 14.0228 27.7914C10.7007 27.7914 8.01051 30.5016 8.01051 33.8485C8.01051 36.2076 9.35117 38.2514 11.3031 39.251C7.34608 40.4053 4.42557 44.017 4.27792 48.3396C4.24217 51.2504 6.5919 53.6292 9.50288 53.6292H18.4782C21.3995 53.6292 23.7677 51.261 23.7677 48.3396C23.6171 44.017 20.6996 40.4053 16.7425 39.251Z" fill="#4169E1"/>
<path d="M16.7425 39.251L16.6287 39.0285C16.5375 39.0751 16.484 39.1726 16.4936 39.2746C16.5033 39.3766 16.5742 39.4624 16.6725 39.491L16.7425 39.251ZM11.3031 39.251L11.3731 39.491C11.4714 39.4624 11.5423 39.3766 11.552 39.2747C11.5617 39.1727 11.5082 39.0752 11.4171 39.0285L11.3031 39.251ZM4.27792 48.3396L4.028 48.3311L4.02794 48.3366L4.27792 48.3396ZM23.7677 48.3396H24.0179L24.0176 48.3309L23.7677 48.3396ZM16.7425 39.251L16.8563 39.4736C18.8923 38.4326 20.2851 36.3043 20.2851 33.8485H20.0351H19.7851C19.7851 36.1109 18.5026 38.0703 16.6287 39.0285L16.7425 39.251ZM20.0351 33.8485H20.2851C20.2851 30.3683 17.4848 27.5414 14.0228 27.5414V27.7914V28.0414C17.2051 28.0414 19.7851 30.6408 19.7851 33.8485H20.0351ZM14.0228 27.7914V27.5414C10.5609 27.5414 7.76051 30.3653 7.76051 33.8485H8.01051H8.26051C8.26051 30.6379 10.8405 28.0414 14.0228 28.0414V27.7914ZM8.01051 33.8485H7.76051C7.76051 36.3045 9.15645 38.4326 11.1892 39.4736L11.3031 39.251L11.4171 39.0285C9.54589 38.0703 8.26051 36.1108 8.26051 33.8485H8.01051ZM11.3031 39.251L11.2331 39.011C7.17395 40.1951 4.17945 43.899 4.02806 48.3311L4.27792 48.3396L4.52777 48.3482C4.67168 44.135 7.51822 40.6155 11.3731 39.491L11.3031 39.251ZM9.50288 53.6292V53.8792H18.4782V53.6292V53.3792H9.50288V53.6292ZM23.7677 48.3396L24.0176 48.3309C23.8632 43.8991 20.8718 40.1952 16.8125 39.011L16.7425 39.251L16.6725 39.491C20.5273 40.6155 23.3711 44.1349 23.5179 48.3483L23.7677 48.3396ZM18.4782 53.6292V53.8792C21.5376 53.8792 24.0177 51.399 24.0177 48.3396H23.7677H23.5177C23.5177 51.1229 21.2614 53.3792 18.4782 53.3792V53.6292ZM4.27792 48.3396L4.02794 48.3366C3.99048 51.3866 6.45263 53.8792 9.50288 53.8792V53.6292V53.3792C6.73118 53.3792 4.49386 51.1142 4.5279 48.3427L4.27792 48.3396Z" fill="#1C1C1C"/>
<path d="M16.7423 35.7581C18.6972 34.7585 20.0349 32.7147 20.0349 30.3555C20.0349 27.0117 17.3448 24.2985 14.0226 24.2985C10.7005 24.2985 8.01033 27.0087 8.01033 30.3555C8.01033 32.7147 9.35099 34.7585 11.3029 35.7581C7.3459 36.9124 4.42538 40.5241 4.27773 44.8467C4.24198 47.7575 6.59172 50.1363 9.5027 50.1363H18.478C21.3993 50.1363 23.7675 47.768 23.7675 44.8467C23.6169 40.5241 20.6994 36.9124 16.7423 35.7581Z" fill="#CCD9FD"/>
<path d="M16.7423 35.7581L16.6285 35.5355C16.5373 35.5822 16.4838 35.6797 16.4935 35.7817C16.5031 35.8837 16.574 35.9694 16.6723 35.9981L16.7423 35.7581ZM11.3029 35.7581L11.3729 35.9981C11.4712 35.9694 11.5421 35.8837 11.5518 35.7818C11.5615 35.6798 11.508 35.5823 11.4169 35.5356L11.3029 35.7581ZM4.27773 44.8467L4.02782 44.8382L4.02775 44.8436L4.27773 44.8467ZM23.7675 44.8467H24.0177L24.0174 44.838L23.7675 44.8467ZM16.7423 35.7581L16.8562 35.9807C18.8921 34.9397 20.2849 32.8114 20.2849 30.3555H20.0349H19.7849C19.7849 32.618 18.5024 34.5774 16.6285 35.5355L16.7423 35.7581ZM20.0349 30.3555H20.2849C20.2849 26.8754 17.4847 24.0485 14.0226 24.0485V24.2985V24.5485C17.2049 24.5485 19.7849 27.1479 19.7849 30.3555H20.0349ZM14.0226 24.2985V24.0485C10.5607 24.0485 7.76033 26.8724 7.76033 30.3555H8.01033H8.26033C8.26033 27.145 10.8403 24.5485 14.0226 24.5485V24.2985ZM8.01033 30.3555H7.76033C7.76033 32.8116 9.15627 34.9397 11.189 35.9806L11.3029 35.7581L11.4169 35.5356C9.54571 34.5774 8.26033 32.6178 8.26033 30.3555H8.01033ZM11.3029 35.7581L11.2329 35.5181C7.17376 36.7022 4.17927 40.4061 4.02788 44.8382L4.27773 44.8467L4.52759 44.8553C4.6715 40.642 7.51804 37.1226 11.3729 35.9981L11.3029 35.7581ZM9.5027 50.1363V50.3863H18.478V50.1363V49.8863H9.5027V50.1363ZM23.7675 44.8467L24.0174 44.838C23.863 40.4062 20.8716 36.7023 16.8124 35.5181L16.7423 35.7581L16.6723 35.9981C20.5271 37.1226 23.3709 40.642 23.5177 44.8554L23.7675 44.8467ZM18.478 50.1363V50.3863C21.5374 50.3863 24.0175 47.9061 24.0175 44.8467H23.7675H23.5175C23.5175 47.63 21.2613 49.8863 18.478 49.8863V50.1363ZM4.27773 44.8467L4.02775 44.8436C3.99029 47.8937 6.45245 50.3863 9.5027 50.3863V50.1363V49.8863C6.73099 49.8863 4.49368 47.6213 4.52772 44.8498L4.27773 44.8467Z" fill="#1C1C1C"/>
<path d="M51.6602 39.251C53.6151 38.2514 54.9528 36.2076 54.9528 33.8485C54.9528 30.5046 52.2626 27.7914 48.9405 27.7914C45.6184 27.7914 42.9282 30.5016 42.9282 33.8485C42.9282 36.2076 44.2688 38.2514 46.2208 39.251C42.2637 40.4053 39.3432 44.017 39.1956 48.3396C39.1598 51.2504 41.5096 53.6292 44.4205 53.6292H53.3958C56.3172 53.6292 58.6854 51.261 58.6854 48.3396C58.5348 44.017 55.6172 40.4053 51.6602 39.251Z" fill="#4169E1"/>
<path d="M51.6602 39.251L51.5464 39.0285C51.4552 39.0751 51.4017 39.1726 51.4113 39.2746C51.421 39.3766 51.4919 39.4624 51.5902 39.491L51.6602 39.251ZM46.2208 39.251L46.2908 39.491C46.3891 39.4624 46.46 39.3766 46.4696 39.2747C46.4793 39.1727 46.4259 39.0752 46.3347 39.0285L46.2208 39.251ZM39.1956 48.3396L38.9457 48.3311L38.9456 48.3366L39.1956 48.3396ZM58.6854 48.3396H58.9355L58.9352 48.3309L58.6854 48.3396ZM51.6602 39.251L51.774 39.4736C53.81 38.4326 55.2028 36.3043 55.2028 33.8485H54.9528H54.7028C54.7028 36.1109 53.4202 38.0703 51.5464 39.0285L51.6602 39.251ZM54.9528 33.8485H55.2028C55.2028 30.3683 52.4025 27.5414 48.9405 27.5414V27.7914V28.0414C52.1227 28.0414 54.7028 30.6408 54.7028 33.8485H54.9528ZM48.9405 27.7914V27.5414C45.4785 27.5414 42.6782 30.3653 42.6782 33.8485H42.9282H43.1782C43.1782 30.6379 45.7582 28.0414 48.9405 28.0414V27.7914ZM42.9282 33.8485H42.6782C42.6782 36.3045 44.0741 38.4326 46.1068 39.4736L46.2208 39.251L46.3347 39.0285C44.4636 38.0703 43.1782 36.1108 43.1782 33.8485H42.9282ZM46.2208 39.251L46.1508 39.011C42.0916 40.1951 39.0971 43.899 38.9457 48.3311L39.1956 48.3396L39.4454 48.3482C39.5893 44.135 42.4359 40.6155 46.2908 39.491L46.2208 39.251ZM44.4205 53.6292V53.8792H53.3958V53.6292V53.3792H44.4205V53.6292ZM58.6854 48.3396L58.9352 48.3309C58.7808 43.8991 55.7895 40.1952 51.7302 39.011L51.6602 39.251L51.5902 39.491C55.4449 40.6155 58.2887 44.1349 58.4355 48.3483L58.6854 48.3396ZM53.3958 53.6292V53.8792C56.4552 53.8792 58.9354 51.399 58.9354 48.3396H58.6854H58.4354C58.4354 51.1229 56.1791 53.3792 53.3958 53.3792V53.6292ZM39.1956 48.3396L38.9456 48.3366C38.9081 51.3866 41.3703 53.8792 44.4205 53.8792V53.6292V53.3792C41.6488 53.3792 39.4115 51.1142 39.4456 48.3427L39.1956 48.3396Z" fill="#1C1C1C"/>
<path d="M51.66 35.7581C53.6149 34.7585 54.9526 32.7147 54.9526 30.3555C54.9526 27.0117 52.2624 24.2985 48.9403 24.2985C45.6182 24.2985 42.928 27.0087 42.928 30.3555C42.928 32.7147 44.2687 34.7585 46.2206 35.7581C42.2636 36.9124 39.343 40.5241 39.1954 44.8467C39.1596 47.7575 41.5094 50.1363 44.4204 50.1363H53.3957C56.317 50.1363 58.6852 47.768 58.6852 44.8467C58.5346 40.5241 55.617 36.9124 51.66 35.7581Z" fill="#CCD9FD"/>
<path d="M51.66 35.7581L51.5462 35.5355C51.455 35.5822 51.4015 35.6797 51.4111 35.7817C51.4208 35.8837 51.4917 35.9694 51.59 35.9981L51.66 35.7581ZM46.2206 35.7581L46.2906 35.9981C46.3889 35.9694 46.4598 35.8837 46.4695 35.7818C46.4792 35.6798 46.4257 35.5823 46.3345 35.5356L46.2206 35.7581ZM39.1954 44.8467L38.9455 44.8382L38.9454 44.8436L39.1954 44.8467ZM58.6852 44.8467H58.9354L58.9351 44.838L58.6852 44.8467ZM51.66 35.7581L51.7738 35.9807C53.8098 34.9397 55.2026 32.8114 55.2026 30.3555H54.9526H54.7026C54.7026 32.618 53.42 34.5774 51.5462 35.5355L51.66 35.7581ZM54.9526 30.3555H55.2026C55.2026 26.8754 52.4023 24.0485 48.9403 24.0485V24.2985V24.5485C52.1225 24.5485 54.7026 27.1479 54.7026 30.3555H54.9526ZM48.9403 24.2985V24.0485C45.4784 24.0485 42.678 26.8724 42.678 30.3555H42.928H43.178C43.178 27.145 45.758 24.5485 48.9403 24.5485V24.2985ZM42.928 30.3555H42.678C42.678 32.8116 44.0739 34.9397 46.1066 35.9806L46.2206 35.7581L46.3345 35.5356C44.4634 34.5774 43.178 32.6178 43.178 30.3555H42.928ZM46.2206 35.7581L46.1506 35.5181C42.0914 36.7022 39.0969 40.4061 38.9455 44.8382L39.1954 44.8467L39.4453 44.8553C39.5892 40.642 42.4357 37.1226 46.2906 35.9981L46.2206 35.7581ZM44.4204 50.1363V50.3863H53.3957V50.1363V49.8863H44.4204V50.1363ZM58.6852 44.8467L58.9351 44.838C58.7806 40.4062 55.7893 36.7023 51.73 35.5181L51.66 35.7581L51.59 35.9981C55.4448 37.1226 58.2886 40.642 58.4354 44.8554L58.6852 44.8467ZM53.3957 50.1363V50.3863C56.4551 50.3863 58.9352 47.9061 58.9352 44.8467H58.6852H58.4352C58.4352 47.63 56.1789 49.8863 53.3957 49.8863V50.1363ZM39.1954 44.8467L38.9454 44.8436C38.908 47.8937 41.3701 50.3863 44.4204 50.3863V50.1363V49.8863C41.6487 49.8863 39.4113 47.6213 39.4454 44.8498L39.1954 44.8467Z" fill="#1C1C1C"/>
<path d="M34.2012 46.3043C36.1561 45.3047 37.4938 43.2609 37.4938 40.9017C37.4938 37.5578 34.8036 34.8446 31.4815 34.8446C28.1594 34.8446 25.4692 37.5548 25.4692 40.9017C25.4692 43.2609 26.8099 45.3047 28.7618 46.3043C24.8048 47.4586 21.8842 51.0702 21.7366 55.3929C21.7008 58.3036 24.0506 60.6824 26.9616 60.6824H35.9369C38.8582 60.6824 41.2264 58.3142 41.2264 55.3929C41.0758 51.0702 38.1582 47.4586 34.2012 46.3043Z" fill="#4169E1"/>
<path d="M34.2012 46.3043L34.0874 46.0817C33.9962 46.1283 33.9427 46.2259 33.9523 46.3278C33.962 46.4298 34.0329 46.5156 34.1312 46.5443L34.2012 46.3043ZM28.7618 46.3043L28.8318 46.5443C28.9301 46.5156 29.001 46.4299 29.0107 46.3279C29.0204 46.226 28.9669 46.1284 28.8757 46.0817L28.7618 46.3043ZM21.7366 55.3929L21.4867 55.3843L21.4866 55.3898L21.7366 55.3929ZM41.2264 55.3929H41.4766L41.4763 55.3842L41.2264 55.3929ZM34.2012 46.3043L34.315 46.5269C36.351 45.4858 37.7438 43.3575 37.7438 40.9017H37.4938H37.2438C37.2438 43.1642 35.9612 45.1235 34.0874 46.0817L34.2012 46.3043ZM37.4938 40.9017H37.7438C37.7438 37.4216 34.9435 34.5946 31.4815 34.5946V34.8446V35.0946C34.6637 35.0946 37.2438 37.694 37.2438 40.9017H37.4938ZM31.4815 34.8446V34.5946C28.0196 34.5946 25.2192 37.4185 25.2192 40.9017H25.4692H25.7192C25.7192 37.6911 28.2992 35.0946 31.4815 35.0946V34.8446ZM25.4692 40.9017H25.2192C25.2192 43.3577 26.6151 45.4858 28.6478 46.5268L28.7618 46.3043L28.8757 46.0817C27.0046 45.1235 25.7192 43.164 25.7192 40.9017H25.4692ZM28.7618 46.3043L28.6918 46.0643C24.6326 47.2484 21.6381 50.9522 21.4867 55.3843L21.7366 55.3929L21.9865 55.4014C22.1304 51.1882 24.9769 47.6688 28.8318 46.5443L28.7618 46.3043ZM26.9616 60.6824V60.9324H35.9369V60.6824V60.4324H26.9616V60.6824ZM41.2264 55.3929L41.4763 55.3842C41.3218 50.9523 38.3305 47.2484 34.2712 46.0643L34.2012 46.3043L34.1312 46.5443C37.986 47.6687 40.8298 51.1881 40.9766 55.4016L41.2264 55.3929ZM35.9369 60.6824V60.9324C38.9963 60.9324 41.4764 58.4523 41.4764 55.3929H41.2264H40.9764C40.9764 58.1761 38.7201 60.4324 35.9369 60.4324V60.6824ZM21.7366 55.3929L21.4866 55.3898C21.4492 58.4398 23.9113 60.9324 26.9616 60.9324V60.6824V60.4324C24.1899 60.4324 21.9525 58.1674 21.9866 55.3959L21.7366 55.3929Z" fill="#1C1C1C"/>
<path d="M34.2013 42.8113C36.1562 41.8117 37.4939 39.7679 37.4939 37.4087C37.4939 34.0648 34.8037 31.3516 31.4816 31.3516C28.1594 31.3516 25.4693 34.0618 25.4693 37.4087C25.4693 39.7679 26.8099 41.8117 28.7618 42.8113C24.8048 43.9656 21.8843 47.5772 21.7367 51.8999C21.7009 54.8106 24.0506 57.1894 26.9616 57.1894H35.9369C38.8583 57.1894 41.2265 54.8212 41.2265 51.8999C41.0759 47.5772 38.1583 43.9656 34.2013 42.8113Z" fill="#CCD9FD"/>
<path d="M34.2013 42.8113L34.0875 42.5887C33.9963 42.6353 33.9427 42.7329 33.9524 42.8349C33.962 42.9368 34.0329 43.0226 34.1313 43.0513L34.2013 42.8113ZM28.7618 42.8113L28.8319 43.0513C28.9302 43.0226 29.001 42.9369 29.0107 42.8349C29.0204 42.733 28.9669 42.6354 28.8758 42.5888L28.7618 42.8113ZM21.7367 51.8999L21.4867 51.8913L21.4867 51.8968L21.7367 51.8999ZM41.2265 51.8999H41.4766L41.4763 51.8912L41.2265 51.8999ZM34.2013 42.8113L34.3151 43.0339C36.351 41.9928 37.7439 39.8646 37.7439 37.4087H37.4939H37.2439C37.2439 39.6712 35.9613 41.6305 34.0875 42.5887L34.2013 42.8113ZM37.4939 37.4087H37.7439C37.7439 33.9286 34.9436 31.1016 31.4816 31.1016V31.3516V31.6016C34.6638 31.6016 37.2439 34.2011 37.2439 37.4087H37.4939ZM31.4816 31.3516V31.1016C28.0196 31.1016 25.2193 33.9255 25.2193 37.4087H25.4693H25.7193C25.7193 34.1982 28.2993 31.6016 31.4816 31.6016V31.3516ZM25.4693 37.4087H25.2193C25.2193 39.8647 26.6152 41.9928 28.6479 43.0338L28.7618 42.8113L28.8758 42.5888C27.0046 41.6305 25.7193 39.671 25.7193 37.4087H25.4693ZM28.7618 42.8113L28.6918 42.5713C24.6327 43.7554 21.6382 47.4592 21.4868 51.8913L21.7367 51.8999L21.9865 51.9084C22.1304 47.6952 24.977 44.1758 28.8319 43.0513L28.7618 42.8113ZM26.9616 57.1894V57.4394H35.9369V57.1894V56.9394H26.9616V57.1894ZM41.2265 51.8999L41.4763 51.8912C41.3219 47.4593 38.3306 43.7554 34.2713 42.5713L34.2013 42.8113L34.1313 43.0513C37.986 44.1757 40.8298 47.6951 40.9766 51.9086L41.2265 51.8999ZM35.9369 57.1894V57.4394C38.9963 57.4394 41.4765 54.9593 41.4765 51.8999H41.2265H40.9765C40.9765 54.6831 38.7202 56.9394 35.9369 56.9394V57.1894ZM21.7367 51.8999L21.4867 51.8968C21.4492 54.9468 23.9114 57.4394 26.9616 57.4394V57.1894V56.9394C24.1899 56.9394 21.9526 54.6745 21.9866 51.903L21.7367 51.8999Z" fill="#1C1C1C"/>
<path d="M43.3059 17.6025C43.3059 24.1604 37.9114 29.478 31.2574 29.478C24.6035 29.478 18.7319 23.7215 18.7319 17.1636C18.0831 6.10222 24.6035 5.72693 31.2574 5.72693C37.9114 5.72693 43.6685 6.2994 43.3059 17.6025Z" fill="#637DEB" stroke="#1C1C1C" stroke-width="0.5" stroke-miterlimit="10"/>
<path d="M30.9707 26.2939C37.7583 26.2939 43.2545 20.7028 43.2545 13.8077C43.2545 6.91264 37.752 1.32153 30.9707 1.32153C24.1895 1.32153 18.687 6.91264 18.687 13.8077C18.687 20.7028 24.1895 26.2939 30.9707 26.2939Z" fill="#CCD9FD" stroke="#1C1C1C" stroke-width="0.5" stroke-miterlimit="10"/>
<path d="M31.0014 23.4833C36.346 23.4833 40.6789 19.1516 40.6789 13.8086C40.6789 8.46553 36.346 4.13385 31.0014 4.13385C25.6568 4.13385 21.3239 8.46553 21.3239 13.8086C21.3239 19.1516 25.6568 23.4833 31.0014 23.4833Z" fill="#637DEB" stroke="#1C1C1C" stroke-width="0.5" stroke-miterlimit="10"/>
<path d="M31.4021 16.0236C31.0978 16.1995 30.7325 16.1995 30.4282 16.0236L27.7295 14.4815C27.2763 14.2245 27.1072 13.6563 27.3439 13.1896L30.0765 7.80576C30.4417 7.08204 31.4833 7.09557 31.835 7.82605L34.4323 13.2438C34.6555 13.7037 34.4796 14.2583 34.0332 14.5153L31.4021 16.0169V16.0236Z" fill="white"/>
<path d="M31.2575 17.1167C30.9598 17.2791 30.5946 17.2791 30.3038 17.11L28.1394 15.8722C27.6795 15.6084 27.1857 16.1631 27.5036 16.5892L30.0062 19.9981C30.3917 20.5256 31.1763 20.5324 31.5753 20.0116L34.2064 16.5689C34.5311 16.1495 34.0441 15.5881 33.5842 15.8452L31.2642 17.1167H31.2575Z" fill="white"/>
</g>
<defs>
<clipPath id="clip0_18011_6318">
<rect width="62" height="62" rx="5" fill="white"/>
</clipPath>
</defs>
</svg>
