<svg width="102" height="102" viewBox="0 0 102 102" fill="none" xmlns="http://www.w3.org/2000/svg">
<rect x="0.5" y="0.5" width="101" height="101" rx="4.5" stroke="#9747FF" stroke-dasharray="10 5"/>
<path d="M71.6389 54.34C71.6389 65.4739 62.5885 74.5 51.4239 74.5C40.2594 74.5 30.4077 64.7273 30.4077 53.5933C29.3236 34.8107 40.2594 34.1799 51.4239 34.1799C62.5885 34.1799 72.252 35.1552 71.6389 54.34Z" fill="#F5AC37" stroke="#1C1C1C" stroke-width="0.5" stroke-miterlimit="10"/>
<path d="M50.9477 70.3974C62.3326 70.3974 71.5619 60.9064 71.5619 49.1987C71.5619 37.491 62.3326 28 50.9477 28C39.5627 28 30.3334 37.491 30.3334 49.1987C30.3334 60.9064 39.5627 70.3974 50.9477 70.3974Z" fill="#FDEBCE" stroke="#1C1C1C" stroke-width="0.5" stroke-miterlimit="10"/>
<path d="M51.0003 65.6186C59.9684 65.6186 67.2384 58.2641 67.2384 49.1919C67.2384 40.1197 59.9684 32.7652 51.0003 32.7652C42.0322 32.7652 34.7622 40.1197 34.7622 49.1919C34.7622 58.2641 42.0322 65.6186 51.0003 65.6186Z" fill="#F5AC37" stroke="#1C1C1C" stroke-width="0.5" stroke-miterlimit="10"/>
<path d="M51.4174 50.2683H57.5206C57.6507 50.2683 57.7122 50.2683 57.7216 50.1155C57.7714 49.5593 57.7714 48.9999 57.7216 48.443C57.7216 48.3349 57.6616 48.2902 57.5307 48.2902H45.3843C45.2339 48.2902 45.1935 48.3349 45.1935 48.4611V50.0617C45.1935 50.2683 45.1935 50.2683 45.4341 50.2683H51.4174ZM57.04 46.4196C57.0573 46.3788 57.0573 46.3341 57.04 46.294C56.9381 46.0952 56.8174 45.9055 56.6771 45.7274C56.4661 45.4231 56.2174 45.1427 55.9341 44.8909C55.8004 44.7387 55.6457 44.6021 55.4722 44.4862C54.6035 43.8238 53.5706 43.355 52.4604 43.1193C51.9002 43.0067 51.3278 42.9529 50.7539 42.9574H45.3633C45.213 42.9574 45.1927 43.0112 45.1927 43.1284V46.3205C45.1927 46.4552 45.1927 46.4915 45.3835 46.4915H56.9677C56.9677 46.4915 57.0682 46.4733 57.0884 46.4196H57.0392H57.04ZM57.04 52.1389C56.8694 52.1221 56.6974 52.1221 56.5268 52.1389H45.3944C45.2441 52.1389 45.1935 52.1389 45.1935 52.3189V55.4398C45.1935 55.5836 45.1935 55.6198 45.3944 55.6198H50.5341C50.7799 55.6367 51.0256 55.6211 51.2663 55.5752C52.0123 55.5272 52.7459 55.3822 53.4455 55.1433C53.7 55.0643 53.9457 54.9613 54.1777 54.8377H54.2478C55.4527 54.2763 56.4314 53.3944 57.0486 52.3118C57.0486 52.3118 57.1188 52.1758 57.04 52.1402V52.1389ZM43.1762 57.2379V57.1842V55.0889V54.3786V52.2652C43.1762 52.148 43.1762 52.1305 43.0157 52.1305H40.8372C40.7165 52.1305 40.6666 52.1305 40.6666 51.9867V50.278H42.9955C43.1256 50.278 43.1762 50.278 43.1762 50.1252V48.4346C43.1762 48.3265 43.1762 48.2999 43.0157 48.2999H40.8372C40.7165 48.2999 40.6666 48.2999 40.6666 48.1562V46.5737C40.6666 46.4746 40.6666 46.4481 40.8271 46.4481H42.9853C43.1357 46.4481 43.1762 46.4481 43.1762 46.2771V41.43C43.1762 41.2863 43.1762 41.25 43.3771 41.25H50.9057C51.4521 41.2694 51.9949 41.3232 52.5319 41.4119C53.6385 41.5951 54.7017 41.9493 55.6739 42.455C56.3186 42.7949 56.912 43.2054 57.4404 43.6781C57.8379 44.0478 58.1964 44.448 58.5145 44.874C58.8303 45.3059 59.0927 45.7676 59.2987 46.2499C59.324 46.3756 59.4584 46.4604 59.5986 46.439H61.3955C61.6261 46.439 61.6261 46.439 61.6362 46.6372V48.1121C61.6362 48.2559 61.5762 48.2921 61.415 48.2921H60.0294C59.8892 48.2921 59.8487 48.2921 59.8589 48.454C59.9138 49.0018 59.9138 49.5515 59.8589 50.0993C59.8589 50.2521 59.8589 50.2702 60.0504 50.2702H61.6355C61.7056 50.3512 61.6355 50.4321 61.6355 50.5137C61.6456 50.6179 61.6456 50.7235 61.6355 50.8277V51.9162C61.6355 52.069 61.5856 52.1143 61.4345 52.1143H59.5372C59.4049 52.0916 59.2763 52.1674 59.2459 52.2852C58.7942 53.3374 58.0714 54.2808 57.1375 55.0371C56.7964 55.3123 56.4379 55.5713 56.0635 55.8102C55.6616 56.0174 55.2706 56.233 54.8586 56.4039C54.1004 56.7096 53.3053 56.9349 52.4893 57.078C51.7145 57.2023 50.9288 57.2586 50.1402 57.2489H43.1733V57.2399L43.1762 57.2379Z" fill="#FEFEFD"/>
</svg>
