<svg width="102" height="102" viewBox="0 0 102 102" fill="none" xmlns="http://www.w3.org/2000/svg">
<rect x="0.5" y="0.5" width="101" height="101" rx="4.5" stroke="#8A38F5" stroke-dasharray="10 5"/>
<path d="M60.4791 59.9543C60.4791 70.4718 51.8284 79 41.158 79C30.4875 79 21.0717 69.7679 21.0717 59.2504C20.0312 41.5105 30.4875 40.9086 41.158 40.9086C51.8284 40.9086 61.0606 41.8267 60.4791 59.9543Z" fill="#637DEB" stroke="#1C1C1C" stroke-width="0.5" stroke-linejoin="round"/>
<path d="M40.7064 73.9014C51.5911 73.9014 60.405 64.9345 60.405 53.8764C60.405 42.8182 51.5809 33.8513 40.7064 33.8513C29.8319 33.8513 21.0078 42.8182 21.0078 53.8764C21.0078 64.9345 29.8319 73.9014 40.7064 73.9014Z" fill="#CCD9FD" stroke="#1C1C1C" stroke-width="0.5" stroke-linejoin="round"/>
<path d="M40.7559 69.3905C49.3249 69.3905 56.2719 62.4434 56.2719 53.8744C56.2719 45.3054 49.3249 38.3583 40.7559 38.3583C32.1868 38.3583 25.2397 45.3054 25.2397 53.8744C25.2397 62.4434 32.1868 69.3905 40.7559 69.3905Z" fill="#637DEB" stroke="#1C1C1C" stroke-width="0.5" stroke-linejoin="round"/>
<path d="M41.3802 56.322C40.9212 56.5872 40.3703 56.5872 39.9112 56.322L35.841 53.9961C35.1575 53.6085 34.9024 52.7515 35.2595 52.0477L39.3808 43.9275C39.9317 42.836 41.5027 42.8564 42.0331 43.9581L45.9504 52.1293C46.287 52.823 46.0218 53.6595 45.3485 54.0471L41.3802 56.3118V56.322Z" fill="white"/>
<path d="M41.1594 57.967C40.7106 58.2119 40.1597 58.2119 39.721 57.9568L36.4567 56.09C35.763 55.6922 35.0183 56.5287 35.4977 57.1713L39.2722 62.3127C39.8536 63.1084 41.037 63.1187 41.6389 62.3332L45.6072 57.1407C46.0968 56.5083 45.3623 55.6615 44.6686 56.0492L41.1696 57.967H41.1594Z" fill="white"/>
<path d="M64.4475 53.5709C63.9051 53.5709 63.4596 53.1383 63.4608 52.5959C63.4718 47.921 64.5167 44.1832 68.5467 41.8671C70.0005 40.8851 71.3784 39.8734 72.193 38.3674C73.3777 36.2497 72.6512 33.1655 70.4086 32.1235C67.5405 30.6297 63.7719 32.251 63.1544 35.4654C63.0491 36.0135 62.6107 36.4755 62.0525 36.4755H56.1944C55.6427 36.4755 55.1913 36.0147 55.2304 35.4643C56.395 19.0776 86.5161 22.5802 80.4406 39.8381C78.9092 43.7812 75.4634 44.8274 72.7231 47.3565C71.323 48.7778 70.8616 50.5392 70.7902 52.55C70.7704 53.11 70.324 53.5709 69.7637 53.5709H64.4475Z" fill="#FF9500" stroke="#1C1C1C" stroke-width="0.5" stroke-miterlimit="10" stroke-linejoin="round"/>
<path d="M70.9434 63.5056C70.8851 63.9464 70.5292 64.2855 70.0865 64.3274C69.208 64.4105 68.2546 64.4632 67.2357 64.467C66.132 64.4709 65.1037 64.4163 64.1626 64.3274C63.7192 64.2855 63.3629 63.9455 63.3047 63.5039C63.1828 62.5788 63.1005 61.5259 63.1062 60.367C63.1127 58.9801 63.2436 57.7484 63.4149 56.7113C64.4267 56.5364 65.6284 56.4017 66.982 56.3927C68.456 56.3828 69.7554 56.5249 70.8318 56.7113C71.0048 57.755 71.1373 58.9998 71.1422 60.4032C71.1459 61.5488 71.0646 62.5905 70.9434 63.5056Z" fill="#FF9500" stroke="#1C1C1C" stroke-width="0.5" stroke-miterlimit="10" stroke-linejoin="round"/>
<path d="M64.4475 50.7081C63.9051 50.7081 63.4596 50.2754 63.4608 49.733C63.4718 45.0581 64.5167 41.3204 68.5467 39.0043C70.0005 38.0222 71.3784 37.0106 72.193 35.5046C73.3777 33.3869 72.6512 30.3027 70.4086 29.2607C67.5405 27.7669 63.7719 29.3882 63.1544 32.6025C63.0491 33.1507 62.6107 33.6127 62.0525 33.6127H56.1944C55.6427 33.6127 55.1913 33.1519 55.2304 32.6015C56.395 16.2148 86.5161 19.7173 80.4406 36.9753C78.9092 40.9184 75.4634 41.9645 72.7231 44.4937C71.323 45.915 70.8616 47.6764 70.7902 49.6872C70.7704 50.2472 70.324 50.7081 69.7637 50.7081H64.4475Z" fill="#FFE2C8" stroke="#1C1C1C" stroke-width="0.5" stroke-miterlimit="10" stroke-linejoin="round"/>
<path d="M70.9434 60.6427C70.8851 61.0835 70.5292 61.4227 70.0865 61.4646C69.208 61.5477 68.2546 61.6003 67.2357 61.6041C66.132 61.608 65.1037 61.5535 64.1626 61.4645C63.7192 61.4226 63.3629 61.0826 63.3047 60.641C63.1828 59.716 63.1005 58.663 63.1062 57.5042C63.1113 56.4185 63.1926 55.428 63.3099 54.5514C63.3663 54.1296 63.6957 53.7976 64.1172 53.7387C64.9683 53.6199 65.9292 53.5369 66.982 53.5298C68.1488 53.522 69.2063 53.6094 70.1303 53.7387C70.5515 53.7976 70.8806 54.1292 70.9371 54.5507C71.056 55.436 71.1384 56.4394 71.1422 57.5403C71.1459 58.686 71.0646 59.7277 70.9434 60.6427Z" fill="#FFE2C8" stroke="#1C1C1C" stroke-width="0.5" stroke-miterlimit="10" stroke-linejoin="round"/>
</svg>
