<svg width="62" height="62" viewBox="0 0 62 62" fill="none" xmlns="http://www.w3.org/2000/svg">
<g clip-path="url(#clip0_18011_3944)">
<path d="M39.211 52.0605H21.8755C21.209 52.0605 20.666 51.5257 20.666 50.8511C20.666 50.1764 21.2008 49.6416 21.8755 49.6416H39.211C39.8774 49.6416 40.4204 50.1846 40.4204 50.8511C40.4204 51.5175 39.8856 52.0605 39.211 52.0605Z" fill="#FF9500" stroke="#1C1C1C" stroke-width="0.5" stroke-linejoin="round"/>
<path d="M26.1067 54.0926C26.1067 54.5204 25.8599 54.9236 25.4896 55.1457C21.4499 57.5235 19.2449 58.8481 15.09 61.3C10.9104 58.8564 8.6889 57.5235 4.63271 55.1457C4.25424 54.9236 4.01564 54.5204 4.01564 54.0761C3.98273 49.0985 3.99918 46.3751 4.08969 41.1753C8.49144 43.6271 10.7129 44.9271 15.164 47.4941C19.5822 44.9271 21.7954 43.6271 26.1643 41.1753C26.1972 46.3834 26.189 49.0985 26.1067 54.0926Z" fill="#FF9500" stroke="#1C1C1C" stroke-width="0.5" stroke-linejoin="round"/>
<path d="M58.0125 54.0926C58.0125 54.5204 57.7739 54.9236 57.4037 55.1457C53.3639 57.5235 51.159 58.8481 47.004 61.3C42.8244 58.8564 40.603 57.5235 36.5468 55.1457C36.1683 54.9236 35.9297 54.5204 35.9297 54.0761C35.8968 49.0985 35.9132 46.3751 36.0038 41.1753C40.3973 43.6271 42.627 44.9271 47.0781 47.4941C51.4881 44.9271 53.7013 43.6271 58.0783 41.1753C58.1113 46.3834 58.103 49.0985 58.0125 54.0926Z" fill="#FF9500" stroke="#1C1C1C" stroke-width="0.5" stroke-linejoin="round"/>
<path d="M46.4197 40.3527L45.8438 40.3856M46.4197 36.5515L45.8438 36.5844" stroke="#1C1C1C" stroke-width="0.5" stroke-linejoin="round"/>
<path d="M26.1644 38.8469C21.7956 41.2987 19.5824 42.6069 15.1642 45.1657C10.7213 42.5987 8.4916 41.2987 4.08984 38.8469C8.30236 36.3704 10.5074 35.0376 14.4566 32.7092C14.8433 32.4788 15.3287 32.4788 15.7154 32.7092C19.6893 35.0376 21.919 36.3704 26.1562 38.8552L26.1644 38.8469Z" fill="#F0F0F5" stroke="#1C1C1C" stroke-width="0.5" stroke-linejoin="round"/>
<path d="M26.1622 38.8467C26.1951 44.0547 26.1869 46.7698 26.1046 51.764C26.1046 52.2 25.866 52.595 25.4875 52.8171C21.4478 55.1949 19.2428 56.5195 15.0879 58.9713C15.1126 53.4506 15.129 50.6862 15.1619 45.1655C19.5801 42.5985 21.7934 41.2985 26.1622 38.8467Z" fill="#4169E1" stroke="#1C1C1C" stroke-width="0.5" stroke-linejoin="round"/>
<path d="M15.164 45.166C15.1393 50.6867 15.1229 53.4511 15.09 58.9718C10.9104 56.5283 8.6889 55.1954 4.63271 52.8176C4.25424 52.5955 4.01564 52.1923 4.01564 51.748C3.98273 46.7621 3.99918 44.047 4.08969 38.839C8.49144 41.299 10.7129 42.599 15.164 45.1577V45.166Z" fill="#CCD9FD"/>
<path d="M15.164 45.166C15.1393 50.6867 15.1229 53.4511 15.09 58.9718C10.9104 56.5283 8.6889 55.1954 4.63271 52.8176C4.25424 52.5955 4.01564 52.1923 4.01564 51.748C3.98273 46.7621 3.99918 44.047 4.08969 38.839C8.49144 41.299 10.7129 42.599 15.164 45.1577V45.166Z" fill="#CCD9FD" stroke="#1C1C1C" stroke-width="0.5" stroke-linejoin="round"/>
<path d="M15.164 45.166C15.1393 50.6867 15.1229 53.4511 15.09 58.9718C10.9104 56.5283 8.6889 55.1954 4.63271 52.8176C4.25424 52.5955 4.01564 52.1923 4.01564 51.748C3.98273 46.7621 3.99918 44.047 4.08969 38.839C8.49144 41.299 10.7129 42.599 15.164 45.1577V45.166Z" stroke="#1C1C1C" stroke-width="0.5" stroke-linejoin="round"/>
<path d="M58.0765 38.8469C53.7077 41.2987 51.4945 42.6069 47.0763 45.1657C42.6334 42.5987 40.4037 41.2987 36.002 38.8469C40.2145 36.3704 42.4195 35.0376 46.3687 32.7092C46.7554 32.4788 47.2408 32.4788 47.6275 32.7092C51.6014 35.0376 53.8311 36.3704 58.0683 38.8552L58.0765 38.8469Z" fill="#F0F0F5" stroke="#1C1C1C" stroke-width="0.5" stroke-linejoin="round"/>
<path d="M58.0763 38.8467C58.1092 44.0547 58.101 46.7698 58.0187 51.764C58.0187 52.2 57.7801 52.595 57.4016 52.8171C53.3619 55.1949 51.1569 56.5195 47.002 58.9713C47.0266 53.4506 47.0431 50.6862 47.076 45.1655C51.4942 42.5985 53.7074 41.2985 58.0763 38.8467Z" fill="#4169E1" stroke="#1C1C1C" stroke-width="0.5" stroke-linejoin="round"/>
<path d="M47.0781 45.1659C47.0534 50.6866 47.0369 53.4511 47.004 58.9718C42.8244 56.5282 40.603 55.1953 36.5468 52.8175C36.1683 52.5954 35.9297 52.1922 35.9297 51.7479C35.8968 46.762 35.9132 44.0469 36.0038 38.8389C40.4055 41.2989 42.627 42.5989 47.0781 45.1576V45.1659Z" fill="#CCD9FD" stroke="#1C1C1C" stroke-width="0.5" stroke-linejoin="round"/>
<path d="M39.211 50.0283H21.8755C21.209 50.0283 20.666 49.4935 20.666 48.8188C20.666 48.1442 21.2008 47.6094 21.8755 47.6094H39.211C39.8774 47.6094 40.4204 48.1524 40.4204 48.8188C40.4204 49.4853 39.8856 50.0283 39.211 50.0283Z" fill="#CCD9FD" stroke="#1C1C1C" stroke-width="0.5" stroke-linejoin="round"/>
<path d="M13.7637 37.8843V20.5488C13.7637 19.8824 14.2985 19.3394 14.9731 19.3394C15.6478 19.3394 16.1826 19.8741 16.1826 20.5488V37.8843C16.1826 38.5508 15.6396 39.0938 14.9731 39.0938C14.3067 39.0938 13.7637 38.559 13.7637 37.8843Z" fill="#CCD9FD" stroke="#1C1C1C" stroke-width="0.5" stroke-linejoin="round"/>
<path d="M45.6777 37.8843V20.5488C45.6777 19.8824 46.2125 19.3394 46.8872 19.3394C47.5619 19.3394 48.0966 19.8741 48.0966 20.5488V37.8843C48.0966 38.5508 47.5536 39.0938 46.8872 39.0938C46.2208 39.0938 45.6777 38.559 45.6777 37.8843Z" fill="#CCD9FD" stroke="#1C1C1C" stroke-width="0.5" stroke-linejoin="round"/>
<path d="M26.1644 7.31052C21.7956 9.76234 19.5824 11.0705 15.1642 13.6293C10.7213 11.0623 8.4916 9.76234 4.08984 7.31052C8.30236 4.83402 10.5074 3.50115 14.4566 1.17275C14.8433 0.942376 15.3287 0.942376 15.7154 1.17275C19.6893 3.50115 21.919 4.83402 26.1562 7.31875L26.1644 7.31052Z" fill="#F0F0F5"/>
<path d="M26.1644 7.31052C21.7956 9.76234 19.5824 11.0705 15.1642 13.6293C10.7213 11.0623 8.4916 9.76234 4.08984 7.31052C8.30236 4.83402 10.5074 3.50115 14.4566 1.17275C14.8433 0.942376 15.3287 0.942376 15.7154 1.17275C19.6893 3.50115 21.919 4.83402 26.1562 7.31875L26.1644 7.31052Z" fill="#F0F0F5" stroke="#1C1C1C" stroke-width="0.5" stroke-linejoin="round"/>
<path d="M26.1644 7.31052C21.7956 9.76234 19.5824 11.0705 15.1642 13.6293C10.7213 11.0623 8.4916 9.76234 4.08984 7.31052C8.30236 4.83402 10.5074 3.50115 14.4566 1.17275C14.8433 0.942376 15.3287 0.942376 15.7154 1.17275C19.6893 3.50115 21.919 4.83402 26.1562 7.31875L26.1644 7.31052Z" stroke="#1C1C1C" stroke-width="0.5" stroke-linejoin="round"/>
<path d="M26.1622 7.31027C26.1951 12.5183 26.1869 15.2334 26.1046 20.2276C26.1046 20.6636 25.866 21.0586 25.4875 21.2807C21.4478 23.6585 19.2428 24.9831 15.0879 27.4349C15.1126 21.9142 15.129 19.1498 15.1619 13.6291C19.5801 11.062 21.7934 9.76209 26.1622 7.31027Z" fill="#4169E1" stroke="#1C1C1C" stroke-width="0.5" stroke-linejoin="round"/>
<path d="M15.164 13.6373C15.1393 19.158 15.1229 21.9225 15.09 27.4432C10.9104 24.9996 8.6889 23.6667 4.63271 21.289C4.25424 21.0668 4.01564 20.6637 4.01564 20.2194C3.98273 15.2335 3.99918 12.5184 4.08969 7.3103C8.49144 9.77035 10.7129 11.0703 15.164 13.6291V13.6373Z" fill="#CCD9FD"/>
<path d="M15.164 13.6373C15.1393 19.158 15.1229 21.9225 15.09 27.4432C10.9104 24.9996 8.6889 23.6667 4.63271 21.289C4.25424 21.0668 4.01564 20.6637 4.01564 20.2194C3.98273 15.2335 3.99918 12.5184 4.08969 7.3103C8.49144 9.77035 10.7129 11.0703 15.164 13.6291V13.6373Z" fill="#CCD9FD" stroke="#1C1C1C" stroke-width="0.5" stroke-linejoin="round"/>
<path d="M15.164 13.6373C15.1393 19.158 15.1229 21.9225 15.09 27.4432C10.9104 24.9996 8.6889 23.6667 4.63271 21.289C4.25424 21.0668 4.01564 20.6637 4.01564 20.2194C3.98273 15.2335 3.99918 12.5184 4.08969 7.3103C8.49144 9.77035 10.7129 11.0703 15.164 13.6291V13.6373Z" stroke="#1C1C1C" stroke-width="0.5" stroke-linejoin="round"/>
<path d="M58.0765 7.31055C53.6995 9.7706 51.4863 11.0706 47.0763 13.6376C42.6252 11.0706 40.3955 9.7706 36.002 7.31055C40.2145 4.83405 42.4195 3.50118 46.3687 1.17278C46.7554 0.942407 47.2408 0.942407 47.6275 1.17278C51.6097 3.50118 53.8311 4.83405 58.0765 7.31055Z" fill="#F0F0F5"/>
<path d="M58.0765 7.31055C53.6995 9.7706 51.4863 11.0706 47.0763 13.6376C42.6252 11.0706 40.3955 9.7706 36.002 7.31055C40.2145 4.83405 42.4195 3.50118 46.3687 1.17278C46.7554 0.942407 47.2408 0.942407 47.6275 1.17278C51.6097 3.50118 53.8311 4.83405 58.0765 7.31055Z" fill="#F0F0F5" stroke="#1C1C1C" stroke-width="0.5" stroke-linejoin="round"/>
<path d="M58.0765 7.31055C53.6995 9.7706 51.4863 11.0706 47.0763 13.6376C42.6252 11.0706 40.3955 9.7706 36.002 7.31055C40.2145 4.83405 42.4195 3.50118 46.3687 1.17278C46.7554 0.942407 47.2408 0.942407 47.6275 1.17278C51.6097 3.50118 53.8311 4.83405 58.0765 7.31055Z" stroke="#1C1C1C" stroke-width="0.5" stroke-linejoin="round"/>
<path d="M58.0763 7.3103C58.1092 12.5184 58.101 15.2335 58.0187 20.2276C58.0187 20.6637 57.7801 21.0586 57.4016 21.2807C53.3619 23.6585 51.1569 24.9831 47.002 27.435C47.0266 21.9143 47.0431 19.1498 47.076 13.6291C51.4942 11.0621 53.7074 9.76212 58.0763 7.3103Z" fill="#4169E1" stroke="#1C1C1C" stroke-width="0.5" stroke-linejoin="round"/>
<path d="M47.0782 13.6373C47.0535 19.158 47.0371 21.9225 47.0041 27.4432C42.8245 24.9996 40.6031 23.6668 36.5469 21.289C36.1684 21.0668 35.9298 20.6637 35.9298 20.2194C35.8969 15.2335 35.9134 12.5184 36.0039 7.31033C40.4056 9.77038 42.6271 11.0703 47.0782 13.6291V13.6373Z" fill="#CCD9FD"/>
<path d="M47.0782 13.6373C47.0535 19.158 47.0371 21.9225 47.0041 27.4432C42.8245 24.9996 40.6031 23.6668 36.5469 21.289C36.1684 21.0668 35.9298 20.6637 35.9298 20.2194C35.8969 15.2335 35.9134 12.5184 36.0039 7.31033C40.4056 9.77038 42.6271 11.0703 47.0782 13.6291V13.6373Z" fill="#CCD9FD" stroke="#1C1C1C" stroke-width="0.5" stroke-linejoin="round"/>
<path d="M47.0782 13.6373C47.0535 19.158 47.0371 21.9225 47.0041 27.4432C42.8245 24.9996 40.6031 23.6668 36.5469 21.289C36.1684 21.0668 35.9298 20.6637 35.9298 20.2194C35.8969 15.2335 35.9134 12.5184 36.0039 7.31033C40.4056 9.77038 42.6271 11.0703 47.0782 13.6291V13.6373Z" stroke="#1C1C1C" stroke-width="0.5" stroke-linejoin="round"/>
<path d="M39.211 18.5002H21.8755C21.209 18.5002 20.666 17.9654 20.666 17.2908C20.666 16.6161 21.2008 16.0813 21.8755 16.0813H39.211C39.8774 16.0813 40.4204 16.6243 40.4204 17.2908C40.4204 17.9572 39.8856 18.5002 39.211 18.5002Z" fill="#CCD9FD" stroke="#1C1C1C" stroke-width="0.5" stroke-linejoin="round"/>
<path d="M41.6884 34.9716C41.6884 40.8461 36.8588 45.6016 30.902 45.6016C24.9453 45.6016 19.6878 40.4512 19.6878 34.5767C19.1119 24.6707 24.9453 24.3416 30.902 24.3416C36.8588 24.3416 42.0175 24.8599 41.6884 34.9716Z" fill="#FF9500" stroke="#1C1C1C" stroke-width="0.5" stroke-linejoin="round"/>
<path d="M30.6468 42.7632C36.7187 42.7632 41.647 37.7608 41.647 31.5819C41.647 25.403 36.7269 20.4006 30.6468 20.4006C24.5666 20.4006 19.6465 25.403 19.6465 31.5819C19.6465 37.7608 24.5666 42.7632 30.6468 42.7632Z" fill="#FFE2C8" stroke="#1C1C1C" stroke-width="0.5" stroke-linejoin="round"/>
<path d="M30.6715 40.2457C35.4599 40.2457 39.3351 36.3705 39.3351 31.5821C39.3351 26.7936 35.4599 22.9185 30.6715 22.9185C25.883 22.9185 22.0078 26.7936 22.0078 31.5821C22.0078 36.3705 25.883 40.2457 30.6715 40.2457Z" fill="#FF9500" stroke="#1C1C1C" stroke-width="0.5" stroke-linejoin="round"/>
<path d="M34.4913 29.0069C34.5901 30.0107 34.1787 30.6195 33.5452 30.9569C34.6065 31.2284 35.2647 31.8784 35.1331 33.3593C34.9685 35.1941 33.6768 35.696 31.8174 35.8029V37.1769C31.8174 37.4813 31.5706 37.7282 31.2661 37.7282C30.9617 37.7282 30.7149 37.4813 30.7149 37.1769V35.8358C30.4269 35.8358 30.1307 35.8358 29.8345 35.8194V37.1769C29.8345 37.4813 29.5877 37.7282 29.2833 37.7282C28.9789 37.7282 28.732 37.4813 28.732 37.1769V35.8029C28.477 35.8029 28.2137 35.7865 27.9422 35.7865H27.3087C26.8808 35.7865 26.56 35.408 26.634 34.9884C26.6916 34.651 26.9878 34.4124 27.3251 34.4124C27.539 34.4124 27.5308 34.4124 27.5308 34.4124C27.8435 34.4124 27.9175 34.1821 27.9422 34.0175V30.9815V28.8012C27.9011 28.5709 27.7447 28.2829 27.3004 28.2829C27.3004 28.2829 27.3004 28.2829 27.1194 28.2829C26.7739 28.2829 26.4941 28.0114 26.4941 27.6658C26.4941 27.3203 26.7657 27.057 27.103 27.057H28.7238V25.6994C28.7238 25.395 28.9706 25.1482 29.2751 25.1482C29.5795 25.1482 29.8263 25.395 29.8263 25.6994V27.0159C30.1225 27.0159 30.4105 26.9994 30.7067 26.9994V25.6994C30.7067 25.395 30.9535 25.1482 31.2579 25.1482C31.5623 25.1482 31.8092 25.395 31.8092 25.6994V27.057C33.2325 27.1804 34.3679 27.6411 34.4831 29.0234L34.4913 29.0069ZM32.9363 33.1289C32.9363 31.6398 30.5915 31.8537 29.8428 31.8537V34.4042C30.5915 34.4042 32.9363 34.577 32.9363 33.1289ZM32.4345 29.5335C32.4345 28.1595 30.4763 28.3652 29.8428 28.3652V30.6854C30.4763 30.6854 32.4345 30.8335 32.4345 29.5335Z" fill="white"/>
</g>
<defs>
<clipPath id="clip0_18011_3944">
<rect width="62" height="62" rx="5" fill="white"/>
</clipPath>
</defs>
</svg>
