<svg width="102" height="102" viewBox="0 0 102 102" fill="none" xmlns="http://www.w3.org/2000/svg">
<rect x="0.5" y="0.5" width="101" height="101" rx="4.5" stroke="#8A38F5" stroke-dasharray="10 5"/>
<path d="M66.9824 46.6503L45.8999 35.2985" stroke="#1C1C1C" stroke-width="0.5" stroke-miterlimit="10"/>
<path d="M35.7175 46.6473L57.5207 34.9481" stroke="#1C1C1C" stroke-width="0.5" stroke-miterlimit="10"/>
<path d="M46.6006 29.4186H56.8203" stroke="#1C1C1C" stroke-width="0.5" stroke-miterlimit="10"/>
<path d="M48.4428 32.3174C48.4428 36.0896 45.341 39.1482 41.5151 39.1482C37.6891 39.1482 34.3127 35.8372 34.3127 32.065C33.9407 25.7013 37.6891 25.4877 41.5151 25.4877C45.341 25.4877 48.6529 25.8187 48.4428 32.3185V32.3174Z" fill="url(#paint0_linear_18011_6458)" stroke="#1C1C1C" stroke-width="0.5" stroke-miterlimit="10"/>
<path d="M41.3521 36.3996C45.2543 36.3996 48.4171 33.1838 48.4171 29.2167C48.4171 25.2497 45.2543 22.035 41.3521 22.035C37.4498 22.035 34.287 25.2509 34.287 29.2179C34.287 33.1849 37.4498 36.4008 41.3521 36.4008V36.3996Z" fill="url(#paint1_linear_18011_6458)" stroke="#1C1C1C" stroke-width="0.5" stroke-miterlimit="10"/>
<path d="M44.5137 25.6991C43.6672 25.2643 42.6358 25.5928 42.1963 26.4346L42.0067 26.8093L43.9817 30.0704C44.0234 30.1398 44.0511 30.2092 44.0881 30.2786L45.2584 28.0166C45.6931 27.1701 45.3647 26.1386 44.5229 25.6991H44.5137Z" fill="white"/>
<path d="M42.9365 30.705C42.3769 29.7891 41.1789 27.7954 40.61 26.861C39.7173 24.7471 36.7801 25.4964 37.201 27.726C37.3491 28.2163 37.3768 28.1562 37.6913 28.6882C38.4453 29.914 39.3426 31.459 40.0595 32.5784C41.3362 34.3639 43.9911 32.6478 42.9782 30.7605L42.9504 30.7096H42.9319L42.9365 30.705Z" fill="white"/>
<path d="M69.1357 32.3174C69.1357 36.0896 66.0339 39.1482 62.2079 39.1482C58.382 39.1482 55.0056 35.8372 55.0056 32.065C54.6335 25.7013 58.382 25.4877 62.2079 25.4877C66.0339 25.4877 69.3458 25.8187 69.1357 32.3185V32.3174Z" fill="url(#paint2_linear_18011_6458)" stroke="#1C1C1C" stroke-width="0.5" stroke-miterlimit="10"/>
<path d="M62.0449 36.3996C65.9471 36.3996 69.11 33.1838 69.11 29.2167C69.11 25.2497 65.9471 22.035 62.0449 22.035C58.1427 22.035 54.9799 25.2509 54.9799 29.2179C54.9799 33.1849 58.1427 36.4008 62.0449 36.4008V36.3996Z" fill="url(#paint3_linear_18011_6458)" stroke="#1C1C1C" stroke-width="0.5" stroke-miterlimit="10"/>
<path d="M65.271 25.7505C64.4245 25.3157 63.3931 25.6441 62.9537 26.486L62.764 26.8606L64.7391 30.1218C64.7807 30.1912 64.8085 30.2605 64.8455 30.3299L66.0157 28.068C66.4505 27.2215 66.1221 26.1899 65.2802 25.7505H65.271Z" fill="white"/>
<path d="M63.694 30.7562C63.1343 29.8404 61.9363 27.8467 61.3674 26.9123C60.4747 24.7983 57.5376 25.5477 57.9585 27.7773C58.1065 28.2676 58.1343 28.2075 58.4488 28.7394C59.2027 29.9653 60.1001 31.5102 60.817 32.6297C62.0936 34.4152 64.7486 32.699 63.7356 30.8118L63.7079 30.7609H63.6894L63.694 30.7562Z" fill="white"/>
<path d="M46.6006 70.9536H56.8203" stroke="#1C1C1C" stroke-width="0.5" stroke-miterlimit="10"/>
<path d="M44.8634 38.6344L58.6945 65.3763" stroke="#1C1C1C" stroke-width="0.5" stroke-miterlimit="10"/>
<path d="M58.6953 38.6344L44.8643 65.3763" stroke="#1C1C1C" stroke-width="0.5" stroke-miterlimit="10"/>
<path d="M37.1263 51.7957H65.6225" stroke="#1C1C1C" stroke-width="0.5" stroke-miterlimit="10"/>
<path d="M66.5347 37.711L71.3623 43.8266" stroke="#1C1C1C" stroke-width="0.5" stroke-miterlimit="10"/>
<path d="M66.5347 64.1138L71.3623 57.9982" stroke="#1C1C1C" stroke-width="0.5" stroke-miterlimit="10"/>
<path d="M37.2432 37.711L32.4156 43.8266" stroke="#1C1C1C" stroke-width="0.5" stroke-miterlimit="10"/>
<path d="M37.2432 64.1138L32.4156 57.9982" stroke="#1C1C1C" stroke-width="0.5" stroke-miterlimit="10"/>
<path d="M41.6372 39.149V63.7751" stroke="#1C1C1C" stroke-width="0.5" stroke-miterlimit="10"/>
<path d="M61.9215 39.149V63.7751" stroke="#1C1C1C" stroke-width="0.5" stroke-miterlimit="10"/>
<path d="M66.797 56.4857L45.8999 67.7366" stroke="#1C1C1C" stroke-width="0.5" stroke-miterlimit="10"/>
<path d="M36.141 56.6134L57.5181 68.0838" stroke="#1C1C1C" stroke-width="0.5" stroke-miterlimit="10"/>
<path d="M37.1506 53.063C37.1506 56.8352 34.0488 59.8938 30.2228 59.8938C26.3969 59.8938 23.0205 56.5828 23.0205 52.8106C22.6484 46.4469 26.3969 46.2333 30.2228 46.2333C34.0488 46.2333 37.3607 46.5643 37.1506 53.0641V53.063Z" fill="url(#paint4_linear_18011_6458)" stroke="#1C1C1C" stroke-width="0.5" stroke-miterlimit="10"/>
<path d="M30.0602 57.1464C33.9624 57.1464 37.1253 53.9305 37.1253 49.9635C37.1253 45.9965 33.9624 42.7806 30.0602 42.7806C26.158 42.7806 22.9951 45.9976 22.9951 49.9635C22.9951 53.9294 26.158 57.1464 30.0602 57.1464Z" fill="url(#paint5_linear_18011_6458)" stroke="#1C1C1C" stroke-width="0.5" stroke-miterlimit="10"/>
<path d="M33.2687 46.8422C32.4222 46.4074 31.3908 46.7358 30.9513 47.5777L30.7617 47.9524L32.7368 51.2135C32.7784 51.2829 32.8061 51.3523 32.8431 51.4217L34.0134 49.1597C34.4482 48.3132 34.1197 47.2817 33.2779 46.8422H33.2687Z" fill="white"/>
<path d="M31.6912 51.8514C31.1315 50.9355 29.9335 48.9418 29.3646 48.0074C28.4719 45.8935 25.5348 46.6428 25.9557 48.8724C26.1037 49.3628 26.1314 49.3026 26.446 49.8346C27.1999 51.0604 28.0972 52.6054 28.8142 53.7248C30.0908 55.5103 32.7458 53.7942 31.7328 51.9069L31.705 51.856H31.6865L31.6912 51.8514Z" fill="white"/>
<path d="M48.4428 73.1334C48.4428 76.9056 45.341 79.9642 41.5151 79.9642C37.6891 79.9642 34.3127 76.6533 34.3127 72.8811C33.9407 66.5174 37.6891 66.3038 41.5151 66.3038C45.341 66.3038 48.6529 66.6348 48.4428 73.1346V73.1334Z" fill="url(#paint6_linear_18011_6458)" stroke="#1C1C1C" stroke-width="0.5" stroke-miterlimit="10"/>
<path d="M41.3521 77.2168C45.2543 77.2168 48.4171 74.001 48.4171 70.0339C48.4171 66.0669 45.2543 62.851 41.3521 62.851C37.4498 62.851 34.287 66.0669 34.287 70.0339C34.287 74.001 37.4498 77.2168 41.3521 77.2168Z" fill="url(#paint7_linear_18011_6458)" stroke="#1C1C1C" stroke-width="0.5" stroke-miterlimit="10"/>
<path d="M44.5972 66.3129C43.7507 65.878 42.7193 66.2065 42.2798 67.0483L42.0902 67.423L44.0652 70.6842C44.1069 70.7535 44.1346 70.8229 44.1716 70.8923L45.3419 68.6303C45.7766 67.7838 45.4482 66.7523 44.6064 66.3129H44.5972Z" fill="white"/>
<path d="M43.0195 71.322C42.4599 70.4062 41.2619 68.4125 40.693 67.4781C39.8003 65.3641 36.8631 66.1135 37.2841 68.3431C37.4321 68.8334 37.4598 68.7733 37.7743 69.3052C38.5283 70.531 39.4256 72.076 40.1426 73.1955C41.4192 74.981 44.0741 73.2648 43.0612 71.3776L43.0334 71.3267H43.0149L43.0195 71.322Z" fill="white"/>
<path d="M69.1357 73.1334C69.1357 76.9056 66.0339 79.9642 62.2079 79.9642C58.382 79.9642 55.0056 76.6533 55.0056 72.8811C54.6335 66.5174 58.382 66.3038 62.2079 66.3038C66.0339 66.3038 69.3458 66.6348 69.1357 73.1346V73.1334Z" fill="url(#paint8_linear_18011_6458)" stroke="#1C1C1C" stroke-width="0.5" stroke-miterlimit="10"/>
<path d="M62.0452 77.2168C65.9474 77.2168 69.1102 74.001 69.1102 70.0339C69.1102 66.0669 65.9474 62.851 62.0452 62.851C58.143 62.851 54.9801 66.0669 54.9801 70.0339C54.9801 74.001 58.143 77.2168 62.0452 77.2168Z" fill="url(#paint9_linear_18011_6458)" stroke="#1C1C1C" stroke-width="0.5" stroke-miterlimit="10"/>
<path d="M65.2538 66.4958C64.4073 66.061 63.3759 66.3894 62.9365 67.2313L62.7468 67.606L64.7219 70.8671C64.7635 70.9365 64.7912 71.0059 64.8282 71.0753L65.9985 68.8133C66.4333 67.9668 66.1048 66.9353 65.263 66.4958H65.2538Z" fill="white"/>
<path d="M63.6763 71.505C63.1166 70.5891 61.9186 68.5954 61.3497 67.661C60.457 65.547 57.5199 66.2964 57.9408 68.526C58.0888 69.0163 58.1166 68.9562 58.4311 69.4882C59.185 70.714 60.0824 72.259 60.7993 73.3784C62.0759 75.1639 64.7309 73.4478 63.7179 71.5605L63.6902 71.5096H63.6717L63.6763 71.505Z" fill="white"/>
<path d="M79.7851 53.063C79.7851 56.8352 76.6833 59.8938 72.8574 59.8938C69.0314 59.8938 65.655 56.5828 65.655 52.8106C65.2829 46.4469 69.0314 46.2333 72.8574 46.2333C76.6833 46.2333 79.9952 46.5643 79.7851 53.0641V53.063Z" fill="url(#paint10_linear_18011_6458)" stroke="#1C1C1C" stroke-width="0.5" stroke-miterlimit="10"/>
<path d="M72.6946 57.1464C76.5968 57.1464 79.7597 53.9305 79.7597 49.9635C79.7597 45.9965 76.5968 42.7806 72.6946 42.7806C68.7924 42.7806 65.6295 45.9965 65.6295 49.9635C65.6295 53.9305 68.7924 57.1464 72.6946 57.1464Z" fill="url(#paint11_linear_18011_6458)" stroke="#1C1C1C" stroke-width="0.5" stroke-miterlimit="10"/>
<path d="M75.9205 46.4253C75.0741 45.9905 74.0426 46.319 73.6032 47.1608L73.4136 47.5355L75.3886 50.7966C75.4302 50.866 75.458 50.9354 75.495 51.0048L76.6652 48.7428C77.1 47.8963 76.7716 46.8648 75.9298 46.4253H75.9205Z" fill="white"/>
<path d="M74.3432 51.4346C73.7835 50.5187 72.5855 48.525 72.0166 47.5906C71.1239 45.4767 68.1868 46.226 68.6077 48.4556C68.7557 48.946 68.7834 48.8858 69.098 49.4178C69.8519 50.6436 70.7492 52.1886 71.4662 53.308C72.7428 55.0935 75.3977 53.3774 74.3848 51.4901L74.357 51.4392H74.3385L74.3432 51.4346Z" fill="white"/>
<defs>
<linearGradient id="paint0_linear_18011_6458" x1="48.9092" y1="36.5225" x2="34.3135" y2="32.2282" gradientUnits="userSpaceOnUse">
<stop stop-color="#DC0BFE"/>
<stop offset="1" stop-color="#1DBCF7"/>
</linearGradient>
<linearGradient id="paint1_linear_18011_6458" x1="48.8729" y1="33.6395" x2="34.1961" y2="29.5436" gradientUnits="userSpaceOnUse">
<stop stop-color="#DC0BFE"/>
<stop offset="1" stop-color="#1DBCF7"/>
</linearGradient>
<linearGradient id="paint2_linear_18011_6458" x1="69.6021" y1="36.5225" x2="55.0064" y2="32.2282" gradientUnits="userSpaceOnUse">
<stop stop-color="#DC0BFE"/>
<stop offset="1" stop-color="#1DBCF7"/>
</linearGradient>
<linearGradient id="paint3_linear_18011_6458" x1="69.5658" y1="33.6395" x2="54.889" y2="29.5436" gradientUnits="userSpaceOnUse">
<stop stop-color="#DC0BFE"/>
<stop offset="1" stop-color="#1DBCF7"/>
</linearGradient>
<linearGradient id="paint4_linear_18011_6458" x1="37.617" y1="57.2681" x2="23.0213" y2="52.9738" gradientUnits="userSpaceOnUse">
<stop stop-color="#DC0BFE"/>
<stop offset="1" stop-color="#1DBCF7"/>
</linearGradient>
<linearGradient id="paint5_linear_18011_6458" x1="37.5811" y1="54.3851" x2="22.9042" y2="50.2892" gradientUnits="userSpaceOnUse">
<stop stop-color="#DC0BFE"/>
<stop offset="1" stop-color="#1DBCF7"/>
</linearGradient>
<linearGradient id="paint6_linear_18011_6458" x1="48.9092" y1="77.3385" x2="34.3135" y2="73.0443" gradientUnits="userSpaceOnUse">
<stop stop-color="#DC0BFE"/>
<stop offset="1" stop-color="#1DBCF7"/>
</linearGradient>
<linearGradient id="paint7_linear_18011_6458" x1="48.8729" y1="74.4556" x2="34.1961" y2="70.3596" gradientUnits="userSpaceOnUse">
<stop stop-color="#DC0BFE"/>
<stop offset="1" stop-color="#1DBCF7"/>
</linearGradient>
<linearGradient id="paint8_linear_18011_6458" x1="69.6021" y1="77.3385" x2="55.0064" y2="73.0443" gradientUnits="userSpaceOnUse">
<stop stop-color="#DC0BFE"/>
<stop offset="1" stop-color="#1DBCF7"/>
</linearGradient>
<linearGradient id="paint9_linear_18011_6458" x1="69.566" y1="74.4556" x2="54.8892" y2="70.3596" gradientUnits="userSpaceOnUse">
<stop stop-color="#DC0BFE"/>
<stop offset="1" stop-color="#1DBCF7"/>
</linearGradient>
<linearGradient id="paint10_linear_18011_6458" x1="80.2515" y1="57.2681" x2="65.6558" y2="52.9738" gradientUnits="userSpaceOnUse">
<stop stop-color="#DC0BFE"/>
<stop offset="1" stop-color="#1DBCF7"/>
</linearGradient>
<linearGradient id="paint11_linear_18011_6458" x1="80.2154" y1="54.3851" x2="65.5386" y2="50.2892" gradientUnits="userSpaceOnUse">
<stop stop-color="#DC0BFE"/>
<stop offset="1" stop-color="#1DBCF7"/>
</linearGradient>
</defs>
</svg>
