<svg width="62" height="62" viewBox="0 0 62 62" fill="none" xmlns="http://www.w3.org/2000/svg">
<g clip-path="url(#clip0_18011_6548)">
<path d="M40.2391 39.9584C40.2391 50.4736 31.5899 59 20.9212 59C10.2525 59 0.838302 49.7698 0.838302 39.2546C-0.202051 21.5185 10.2525 20.9168 20.9212 20.9168C31.5899 20.9168 40.8205 21.8347 40.2391 39.9584Z" fill="url(#paint0_linear_18011_6548)" stroke="#1C1C1C" stroke-width="0.5" stroke-miterlimit="10"/>
<path d="M20.4622 53.8922C31.3451 53.8922 40.1575 44.9273 40.1575 33.8715C40.1575 22.8158 31.3349 13.8508 20.4622 13.8508C9.58945 13.8508 0.766846 22.8158 0.766846 33.8715C0.766846 44.9273 9.58945 53.8922 20.4622 53.8922Z" fill="url(#paint1_linear_18011_6548)" stroke="#1C1C1C" stroke-width="0.5" stroke-miterlimit="10"/>
<path d="M30.145 21.7113C22.6789 28.8711 15.8656 36.9385 6.35962 40.2022C8.78711 45.6077 14.2031 49.3813 20.5166 49.3813C29.0842 49.3813 36.0301 42.4358 36.0301 33.8686C36.0301 28.9424 33.725 24.5569 30.145 21.7215V21.7113Z" fill="#F93DF5"/>
<path d="M20.5154 49.3812C29.0831 49.3812 36.0289 42.4356 36.0289 33.8685C36.0289 25.3013 29.0831 18.3557 20.5154 18.3557C11.9478 18.3557 5.00195 25.3013 5.00195 33.8685C5.00195 42.4356 11.9478 49.3812 20.5154 49.3812Z" fill="url(#paint2_linear_18011_6548)" stroke="#1C1C1C" stroke-width="0.5" stroke-miterlimit="10"/>
<path d="M27.587 26.1845C25.7205 25.2258 23.4459 25.9499 22.477 27.8062L22.0588 28.6323L26.414 35.8226C26.5058 35.9756 26.567 36.1286 26.6486 36.2815L29.2291 31.2942C30.1879 29.4278 29.4637 27.1534 27.6074 26.1845H27.587Z" fill="white"/>
<path d="M24.0968 37.2351C22.8626 35.2157 20.2209 30.8199 18.9664 28.7597C16.9979 24.0988 10.5212 25.751 11.4493 30.6669C11.7757 31.748 11.8369 31.6154 12.5305 32.7883C14.193 35.4911 16.1717 38.8975 17.7527 41.3657C20.5677 45.3025 26.4223 41.5187 24.1886 37.3575L24.1274 37.2453H24.0866L24.0968 37.2351Z" fill="white"/>
<path d="M44.2066 33.5642C43.6642 33.5642 43.2186 33.1316 43.2199 32.5892C43.2309 27.9154 44.2756 24.1784 48.3048 21.8629C49.7583 20.881 51.1359 19.8696 51.9503 18.3639C53.1347 16.2466 52.4084 13.163 50.1663 12.1212C47.2988 10.6277 43.5311 12.2486 42.9136 15.4622C42.8082 16.0103 42.3699 16.4724 41.8117 16.4724H35.9551C35.4034 16.4724 34.952 16.0115 34.9912 15.4612C36.1557 -0.922005 66.2705 2.57987 60.1963 19.8342C58.6652 23.7766 55.2201 24.8225 52.4803 27.3511C51.0805 28.7721 50.6192 30.533 50.5478 32.5434C50.5279 33.1034 50.0816 33.5642 49.5212 33.5642H44.2066Z" fill="#FF9500" stroke="#1C1C1C" stroke-width="0.5" stroke-miterlimit="10" stroke-linejoin="round"/>
<path d="M50.6997 43.4943C50.6413 43.9351 50.2854 44.2742 49.8428 44.3161C48.9645 44.3992 48.0113 44.4518 46.9927 44.4556C45.8892 44.4595 44.8612 44.405 43.9204 44.3161C43.477 44.2742 43.1206 43.9342 43.0625 43.4926C42.9406 42.5678 42.8584 41.5151 42.864 40.3565C42.8705 38.9699 43.0014 37.7384 43.1727 36.7015C44.1842 36.5267 45.3857 36.392 46.739 36.383C48.2127 36.3731 49.5119 36.5152 50.5881 36.7015C50.761 37.745 50.8935 38.9896 50.8983 40.3926C50.9021 41.538 50.8208 42.5794 50.6997 43.4943Z" fill="#FF9500" stroke="#1C1C1C" stroke-width="0.5" stroke-miterlimit="10" stroke-linejoin="round"/>
<path d="M44.2066 30.7022C43.6642 30.7022 43.2186 30.2696 43.2199 29.7272C43.2309 25.0534 44.2756 21.3164 48.3048 19.0009C49.7583 18.019 51.1359 17.0076 51.9503 15.5019C53.1347 13.3846 52.4084 10.301 50.1663 9.25918C47.2988 7.76574 43.5311 9.38665 42.9136 12.6002C42.8082 13.1483 42.3699 13.6104 41.8117 13.6104H35.9551C35.4034 13.6104 34.952 13.1495 34.9912 12.5992C36.1557 -3.784 66.2705 -0.282125 60.1963 16.9722C58.6652 20.9146 55.2201 21.9605 52.4803 24.4891C51.0805 25.9101 50.6192 27.671 50.5478 29.6814C50.5279 30.2414 50.0816 30.7022 49.5212 30.7022H44.2066Z" fill="#FFE2C8" stroke="#1C1C1C" stroke-width="0.5" stroke-miterlimit="10" stroke-linejoin="round"/>
<path d="M50.6997 40.6323C50.6413 41.0731 50.2854 41.4123 49.8428 41.4542C48.9645 41.5373 48.0113 41.5899 46.9927 41.5937C45.8892 41.5976 44.8612 41.5431 43.9204 41.4542C43.477 41.4123 43.1206 41.0722 43.0625 40.6307C42.9406 39.7058 42.8584 38.6532 42.864 37.4946C42.8691 36.4092 42.9504 35.4189 43.0676 34.5426C43.1241 34.1207 43.4534 33.7887 43.8749 33.7299C44.7258 33.6111 45.6865 33.5281 46.739 33.5211C47.9056 33.5133 48.9628 33.6006 49.8866 33.7298C50.3078 33.7887 50.6368 34.1204 50.6934 34.5419C50.8122 35.4269 50.8945 36.4301 50.8983 37.5307C50.9021 38.6761 50.8208 39.7175 50.6997 40.6323Z" fill="#FFE2C8" stroke="#1C1C1C" stroke-width="0.5" stroke-miterlimit="10" stroke-linejoin="round"/>
</g>
<defs>
<linearGradient id="paint0_linear_18011_6548" x1="41.5393" y1="51.6799" x2="0.841578" y2="39.7036" gradientUnits="userSpaceOnUse">
<stop stop-color="#DC0BFE"/>
<stop offset="1" stop-color="#1DBCF7"/>
</linearGradient>
<linearGradient id="paint1_linear_18011_6548" x1="41.4281" y1="46.1958" x2="0.514388" y2="34.776" gradientUnits="userSpaceOnUse">
<stop stop-color="#F5B8FF"/>
<stop offset="1" stop-color="#9CE2FC"/>
</linearGradient>
<linearGradient id="paint2_linear_18011_6548" x1="37.0298" y1="43.4177" x2="4.88075" y2="34.2956" gradientUnits="userSpaceOnUse">
<stop stop-color="#DC0BFE"/>
<stop offset="1" stop-color="#1DBCF7"/>
</linearGradient>
<clipPath id="clip0_18011_6548">
<rect width="62" height="62" rx="5" fill="white"/>
</clipPath>
</defs>
</svg>
