<svg width="62" height="62" viewBox="0 0 62 62" fill="none" xmlns="http://www.w3.org/2000/svg">
<g clip-path="url(#clip0_18011_5499)">
<path d="M38.2668 45.2744V47.2087C38.2668 48.0353 38.0794 48.8448 37.7385 49.5692C37.3891 50.302 36.8779 50.9581 36.2388 51.4865C35.3866 52.1852 34.3641 52.6028 33.3245 52.7135H8.13537C7.93938 52.7391 7.73486 52.7476 7.53887 52.7476C6.29476 52.7476 5.04212 52.3215 4.01956 51.4865C3.38046 50.9581 2.8777 50.302 2.52832 49.5692C2.18747 48.8448 2 48.0353 2 47.2087L2.0782 18.6537L27.1891 18.7048V45.2744H38.2668Z" fill="#4169E1" stroke="#1C1C1C" stroke-width="0.5" stroke-linejoin="round"/>
<path d="M3.05765 10.0577C2.50611 10.0588 2.05957 10.5062 2.05957 11.0577V44.2805C2.05957 45.1071 2.24704 45.9166 2.58789 46.6409C2.93727 47.3737 3.44003 48.0299 4.07913 48.5582C5.10169 49.3933 6.35433 49.8194 7.59844 49.8194C7.79443 49.8194 7.99895 49.8194 8.19494 49.7853C9.23454 49.6745 10.2486 49.257 11.1092 48.5582C12.3874 47.5016 13.1373 45.9336 13.1373 44.2805V42.3462H33.0473V11.0019C33.0473 10.4489 32.5984 10.0009 32.0453 10.0019L3.05765 10.0577Z" fill="#F0F0F5" stroke="#1C1C1C" stroke-width="0.5" stroke-linejoin="round"/>
<path d="M38.2662 42.3535V44.2878C38.2662 45.1144 38.0788 45.9239 37.7379 46.6482C37.3885 47.3811 36.8773 48.0372 36.2382 48.5655C35.386 49.2643 34.3635 49.6818 33.3239 49.7926H8.13477C9.17437 49.6818 10.1884 49.2643 11.0491 48.5655C12.3273 47.5089 13.0771 45.941 13.0771 44.2878V42.3535H38.2662Z" fill="#CCD9FD" stroke="#1C1C1C" stroke-width="0.5" stroke-linejoin="round"/>
<path d="M8.68701 16.6125H26.8378" stroke="#1C1C1C" stroke-width="0.5" stroke-linecap="round" stroke-linejoin="round"/>
<path d="M8.68701 22.3443H26.8378" stroke="#1C1C1C" stroke-width="0.5" stroke-linecap="round" stroke-linejoin="round"/>
<path d="M8.68701 28.0762H26.8378" stroke="#1C1C1C" stroke-width="0.5" stroke-linecap="round" stroke-linejoin="round"/>
<circle cx="23.9719" cy="36.7485" r="2.86591" fill="#FFE2C8" stroke="#1C1C1C" stroke-width="0.5" stroke-linejoin="round"/>
<path d="M44.4164 41.4926C43.874 41.4926 43.4283 41.0598 43.4302 40.5174C43.4454 36.0105 44.4606 32.4069 48.3495 30.1719C49.7558 29.222 51.0885 28.2435 51.8764 26.7868C53.0224 24.7384 52.3196 21.7551 50.1505 20.7472C47.3858 19.3073 43.7563 20.8597 43.14 23.9473C43.0307 24.4947 42.5928 24.9568 42.0347 24.9568H36.4341C35.8824 24.9568 35.4309 24.4967 35.4714 23.9464C36.635 8.1329 65.7268 11.5275 59.8541 28.2093C58.3729 32.0234 55.0398 33.0353 52.3892 35.4816C51.0426 36.8485 50.5937 38.5407 50.5208 40.4718C50.4997 41.0318 50.0535 41.4926 49.4932 41.4926H44.4164Z" fill="#FF9500" stroke="#1C1C1C" stroke-width="0.5" stroke-miterlimit="10" stroke-linejoin="round"/>
<path d="M50.6696 51.0755C50.6117 51.5164 50.2558 51.8555 49.8131 51.897C48.9702 51.9761 48.0562 52.0261 47.08 52.0297C46.022 52.0334 45.0357 51.9817 44.1321 51.897C43.6886 51.8555 43.3322 51.5155 43.2745 51.0739C43.1583 50.185 43.0803 49.1748 43.0857 48.064C43.092 46.7224 43.2186 45.531 43.3843 44.5279C44.363 44.3587 45.5253 44.2284 46.8346 44.2197C48.2604 44.2102 49.5173 44.3476 50.5585 44.5279C50.7258 45.5374 50.854 46.7415 50.8586 48.0989C50.8623 49.197 50.785 50.1963 50.6696 51.0755Z" fill="#FF9500" stroke="#1C1C1C" stroke-width="0.5" stroke-miterlimit="10" stroke-linejoin="round"/>
<path d="M44.4161 38.7238C43.8737 38.7238 43.4281 38.291 43.4299 37.7486C43.4452 33.2417 44.4604 29.638 48.3493 27.4031C49.7555 26.4531 51.0883 25.4746 51.8762 24.0179C53.0221 21.9695 52.3194 18.9862 50.1503 17.9783C47.3856 16.5384 43.7561 18.0908 43.1398 21.1785C43.0305 21.7258 42.5926 22.1879 42.0344 22.1879H36.4339C35.8822 22.1879 35.4306 21.7278 35.4711 21.1776C36.6348 5.36404 65.7265 8.75868 59.8539 25.4405C58.3726 29.2545 55.0396 30.2664 52.389 32.7128C51.0424 34.0797 50.5935 35.7718 50.5206 37.703C50.4994 38.2629 50.0533 38.7238 49.493 38.7238H44.4161Z" fill="#FFE2C8" stroke="#1C1C1C" stroke-width="0.5" stroke-miterlimit="10" stroke-linejoin="round"/>
<path d="M50.6696 48.3104C50.6117 48.7513 50.2558 49.0904 49.8131 49.1319C48.9702 49.211 48.0562 49.261 47.08 49.2646C46.022 49.2683 45.0357 49.2166 44.1321 49.1319C43.6886 49.0904 43.3322 48.7504 43.2745 48.3087C43.1583 47.4198 43.0803 46.4097 43.0857 45.2989C43.0906 44.2582 43.1679 43.3079 43.2796 42.4657C43.3356 42.0438 43.665 41.7119 44.0865 41.6535C44.9041 41.5402 45.8257 41.4613 46.8346 41.4546C47.9536 41.4471 48.9685 41.5301 49.8568 41.6534C50.2781 41.7118 50.6073 42.0435 50.6634 42.4651C50.7767 43.3157 50.855 44.2784 50.8586 45.3338C50.8623 46.4319 50.785 47.4312 50.6696 48.3104Z" fill="#FFE2C8" stroke="#1C1C1C" stroke-width="0.5" stroke-miterlimit="10" stroke-linejoin="round"/>
</g>
<defs>
<clipPath id="clip0_18011_5499">
<rect width="62" height="62" rx="5" fill="white"/>
</clipPath>
</defs>
</svg>
