<svg width="102" height="102" viewBox="0 0 102 102" fill="none" xmlns="http://www.w3.org/2000/svg">
<rect x="0.5" y="0.5" width="101" height="101" rx="4.5" stroke="#9747FF" stroke-dasharray="10 5"/>
<path d="M66.9613 80.7167C56.6032 81.1001 46.3515 81.1001 35.9934 80.7167C35.9934 80.7167 35.0349 78.2603 35.0846 77.3586C35.5745 67.8524 36.398 58.3604 37.0015 48.8613C46.6497 48.8116 56.2979 48.8116 65.9532 48.8613C66.5566 58.3178 67.3802 67.7743 67.87 77.2379C67.9197 78.1822 66.9684 80.7238 66.9684 80.7238L66.9613 80.7167Z" fill="#4169E1" stroke="#1C1C1C" stroke-width="0.5" stroke-linejoin="round"/>
<path d="M52.8557 49.266C47.3394 45.1554 44.5777 43.0753 39.0898 39.0712C43.7187 33.1999 48.3405 27.3144 52.9338 21.4218C58.3791 25.5537 61.1337 27.6978 66.6571 31.9149C62.0283 37.6797 57.4349 43.4657 52.8557 49.266Z" fill="#FAF2E8" stroke="#1C1C1C" stroke-width="0.5" stroke-linejoin="round"/>
<path d="M67.7199 77.2733C56.8577 77.6567 46.0949 77.6567 35.2327 77.2733C35.7438 66.8655 36.3402 56.4648 37.0004 46.064C46.6486 46.0143 56.2968 46.0143 65.9521 46.064C66.6124 56.4648 67.2087 66.8655 67.7199 77.2733Z" fill="#CCD9FD" stroke="#1C1C1C" stroke-width="0.5" stroke-linejoin="round"/>
<path d="M67.9558 46.9658C56.9729 46.9303 45.9829 46.9303 35 46.9658C35 45.4039 35 44.623 35.0142 43.0682C45.9971 42.9759 56.9658 42.9759 67.9487 43.0682C67.9487 44.6301 67.9558 45.411 67.9629 46.9658H67.9558Z" fill="#CCD9FD" stroke="#1C1C1C" stroke-width="0.5" stroke-linejoin="round"/>
<path d="M50.563 70.5149C54.3193 70.5149 57.3643 67.4699 57.3643 63.7136C57.3643 59.9573 54.3193 56.9123 50.563 56.9123C46.8068 56.9123 43.7617 59.9573 43.7617 63.7136C43.7617 67.4699 46.8068 70.5149 50.563 70.5149Z" fill="#E8EDFA" stroke="#1C1C1C" stroke-width="0.5" stroke-linejoin="round"/>
<path d="M50.6981 66.9794C50.3006 66.9794 49.9243 66.8232 49.6474 66.5463L46.9354 63.8343C46.3532 63.2522 46.3532 62.3079 46.9354 61.7258C47.5176 61.1436 48.4618 61.1436 49.0439 61.7258L50.7052 63.387L57.613 56.4793C58.1952 55.8971 59.1394 55.8971 59.7216 56.4793C60.3037 57.0614 60.3037 58.0056 59.7216 58.5878L51.7559 66.5534C51.4791 66.8303 51.0957 66.9865 50.7052 66.9865L50.6981 66.9794Z" fill="#FF9500" stroke="#1C1C1C" stroke-width="0.5" stroke-miterlimit="10"/>
</svg>
