<svg width="102" height="102" viewBox="0 0 102 102" fill="none" xmlns="http://www.w3.org/2000/svg">
<rect x="0.5" y="0.5" width="101" height="101" rx="4.5" stroke="#8A38F5" stroke-dasharray="10 5"/>
<path d="M60.2257 60.5927C60.2257 71.3109 51.412 80 40.5393 80C29.6666 80 20.0725 70.5921 20.0725 59.8739C19.0168 41.7926 29.6666 41.1854 40.5393 41.1854C51.412 41.1854 60.8228 42.1242 60.2257 60.5927Z" fill="#FF9500" stroke="#1C1C1C" stroke-width="0.5" stroke-miterlimit="10"/>
<path d="M40.0753 74.8124C51.1626 74.8124 60.1507 65.6758 60.1507 54.4052C60.1507 43.1347 51.1626 33.998 40.0753 33.998C28.988 33.998 20 43.1347 20 54.4052C20 65.6758 28.988 74.8124 40.0753 74.8124Z" fill="#FFE2C8" stroke="#1C1C1C" stroke-width="0.5" stroke-miterlimit="10"/>
<path d="M40.1261 70.2142C48.8596 70.2142 55.9396 63.1343 55.9396 54.4008C55.9396 45.6673 48.8596 38.5875 40.1261 38.5875C31.3925 38.5875 24.3125 45.6673 24.3125 54.4008C24.3125 63.1343 31.3925 70.2142 40.1261 70.2142Z" fill="#FFE2C8" stroke="#1C1C1C" stroke-width="0.5" stroke-miterlimit="10" stroke-linecap="round" stroke-dasharray="20 4"/>
<path d="M47.5324 49.7021C47.7209 51.5343 46.967 52.6485 45.8126 53.2674C47.7444 53.7626 48.9459 54.9511 48.7103 57.6498C48.4041 60.9923 46.0482 61.9084 42.6558 62.1065V64.6223C42.6558 65.1745 42.2081 65.6223 41.6558 65.6223H41.6298C41.0775 65.6223 40.6298 65.1745 40.6298 64.6223V62.156C40.1115 62.156 39.5696 62.156 39.0278 62.1312V64.6223C39.0278 65.1745 38.5801 65.6223 38.0278 65.6223H38.0018C37.4495 65.6223 37.0018 65.1745 37.0018 64.6223V62.1065C36.5306 62.1065 36.0594 62.0817 35.5647 62.0817H34.1081C33.4896 62.0817 33.0195 61.526 33.1219 60.9161L33.2077 60.4049C33.2896 59.917 33.7162 59.564 34.2109 59.5667C34.824 59.5701 34.8108 59.5563 34.8108 59.5563C35.3762 59.5563 35.5176 59.1354 35.5647 58.8383V53.2922H35.7767C35.6825 53.2922 35.6118 53.2922 35.5647 53.2922V49.306C35.494 48.8851 35.2113 48.3651 34.3868 48.3651C34.3868 48.3651 34.3976 48.3538 33.9436 48.3541C33.3847 48.3546 32.9261 47.9071 32.9261 47.3483V47.112C32.9261 46.5598 33.3739 46.112 33.9261 46.112H35.7296C36.1301 46.112 36.5542 46.112 37.0018 46.112V43.621C37.0018 43.0687 37.4495 42.621 38.0018 42.621H38.0278C38.5801 42.621 39.0278 43.0687 39.0278 43.621V46.0378C39.5696 46.0378 40.0879 46.013 40.6298 46.013V43.621C40.6298 43.0687 41.0775 42.621 41.6298 42.621H41.6558C42.2081 42.621 42.6558 43.0687 42.6558 43.621V46.112C45.2472 46.3349 47.3204 47.1767 47.5324 49.7021ZM44.7054 57.2289C44.7054 54.5054 40.4178 54.9015 39.0514 54.9015V59.5563C40.4178 59.5563 44.7054 59.8781 44.7054 57.2289ZM43.7866 50.6677C43.7866 48.1671 40.2057 48.5384 39.0514 48.5384V52.7723C40.2057 52.7723 43.7866 53.0446 43.7866 50.6677Z" fill="#1C1C1C"/>
<path d="M63.9797 53.9665C63.4373 53.9665 62.9918 53.5339 62.9928 52.9915C63.0021 48.2523 64.0584 44.4632 68.1424 42.1161C69.6145 41.1217 71.0096 40.0974 71.8343 38.5726C73.0339 36.4283 72.2983 33.3055 70.0277 32.2504C67.1199 30.736 63.2981 32.3837 62.6802 35.6465C62.5763 36.195 62.1378 36.657 61.5796 36.657H55.6229C55.0711 36.657 54.6198 36.1959 54.6584 35.6455C55.8233 19.0394 86.3384 22.5832 80.1853 40.0617C78.6348 44.0542 75.1458 45.1134 72.3711 47.6742C70.9505 49.1163 70.4843 50.9043 70.4136 52.9456C70.3942 53.5056 69.9477 53.9665 69.3874 53.9665H63.9797Z" fill="#4169E1" stroke="#1C1C1C" stroke-width="0.5" stroke-miterlimit="10" stroke-linejoin="round"/>
<path d="M70.568 64.0349C70.5094 64.4757 70.1536 64.8148 69.7109 64.8568C68.8188 64.9415 67.8503 64.9951 66.815 64.999C65.6938 65.0029 64.6495 64.9474 63.6941 64.8568C63.2507 64.8148 62.8944 64.4748 62.836 64.0332C62.7119 63.0943 62.628 62.025 62.6338 60.8477C62.6404 59.4434 62.7729 58.1963 62.9464 57.1462C63.9708 56.9691 65.1876 56.8327 66.5581 56.8236C68.0506 56.8136 69.3663 56.9574 70.4562 57.1462C70.6313 58.2029 70.7655 59.4634 70.7704 60.8843C70.7743 62.0482 70.6913 63.1061 70.568 64.0349Z" fill="#4169E1" stroke="#1C1C1C" stroke-width="0.5" stroke-miterlimit="10" stroke-linejoin="round"/>
<path d="M63.9798 51.0677C63.4374 51.0677 62.9919 50.6351 62.9929 50.0927C63.0022 45.3535 64.0585 41.5644 68.1426 39.2173C69.6146 38.2229 71.0097 37.1986 71.8345 35.6738C73.034 33.5295 72.2984 30.4067 70.0278 29.3516C67.12 27.8372 63.2983 29.4849 62.6803 32.7477C62.5764 33.2962 62.1379 33.7582 61.5797 33.7582H55.623C55.0713 33.7582 54.62 33.2971 54.6586 32.7467C55.8234 16.1406 86.3385 19.6844 80.1854 37.1629C78.6349 41.1554 75.1459 42.2146 72.3712 44.7754C70.9506 46.2175 70.4844 48.0055 70.4137 50.0468C70.3943 50.6068 69.9478 51.0677 69.3875 51.0677H63.9798Z" fill="#CCD9FD" stroke="#1C1C1C" stroke-width="0.5" stroke-miterlimit="10" stroke-linejoin="round"/>
<path d="M70.568 61.1361C70.5094 61.5769 70.1536 61.916 69.7109 61.958C68.8188 62.0427 67.8503 62.0963 66.815 62.1002C65.6938 62.1041 64.6495 62.0486 63.6941 61.958C63.2507 61.9159 62.8944 61.576 62.836 61.1344C62.7119 60.1955 62.628 59.1262 62.6338 57.9489C62.639 56.846 62.7218 55.84 62.8412 54.9503C62.8978 54.5285 63.2271 54.1965 63.6486 54.1375C64.5126 54.0165 65.4885 53.9319 66.5581 53.9248C67.7433 53.9169 68.817 54.0059 69.7547 54.1375C70.1759 54.1965 70.5049 54.5281 70.5616 54.9496C70.6826 55.8481 70.7666 56.8671 70.7704 57.9855C70.7743 59.1494 70.6913 60.2073 70.568 61.1361Z" fill="#CCD9FD" stroke="#1C1C1C" stroke-width="0.5" stroke-miterlimit="10" stroke-linejoin="round"/>
</svg>
