<svg width="102" height="102" viewBox="0 0 102 102" fill="none" xmlns="http://www.w3.org/2000/svg">
<rect x="0.5" y="0.5" width="101" height="101" rx="4.5" stroke="#8A38F5" stroke-dasharray="10 5"/>
<path d="M50.5 29.2887C50.8094 29.11 51.1906 29.11 51.5 29.2887L72.1506 41.2113C72.46 41.39 72.6506 41.7201 72.6506 42.0774V65.9227C72.6506 66.2799 72.46 66.61 72.1506 66.7887L51.5 78.7113C51.1906 78.89 50.8094 78.89 50.5 78.7113L29.8494 66.7887C29.54 66.61 29.3494 66.2799 29.3494 65.9226V42.0773C29.3494 41.7201 29.54 41.39 29.8494 41.2113L50.5 29.2887Z" fill="#E8EDFA" stroke="#1C1C1C" stroke-width="0.5" stroke-miterlimit="10"/>
<path d="M50.5 23.2887C50.8094 23.11 51.1906 23.11 51.5 23.2887L72.1506 35.2113C72.46 35.39 72.6506 35.7201 72.6506 36.0774V59.9227C72.6506 60.2799 72.46 60.61 72.1506 60.7887L51.5 72.7113C51.1906 72.89 50.8094 72.89 50.5 72.7113L29.8494 60.7887C29.54 60.61 29.3494 60.2799 29.3494 59.9226V36.0773C29.3494 35.7201 29.54 35.39 29.8494 35.2113L50.5 23.2887Z" fill="#4169E1" stroke="#1C1C1C" stroke-width="0.5" stroke-miterlimit="10"/>
<path d="M51 28L68.3205 38V58L51 68L33.6795 58V38L51 28Z" fill="#E8EDFA" stroke="#1C1C1C" stroke-width="0.5" stroke-linejoin="round"/>
<mask id="mask0_18011_6111" style="mask-type:alpha" maskUnits="userSpaceOnUse" x="33" y="27" width="36" height="42">
<path d="M51 28L68.3205 38V58L51 68L33.6795 58V38L51 28Z" fill="#E8EDFA" stroke="#1C1C1C" stroke-width="0.5" stroke-linejoin="round"/>
</mask>
<g mask="url(#mask0_18011_6111)">
<path d="M61 66C51.406 66.0204 57 77.5 33 60.9212C37.7013 53.7996 40.1376 50.2031 44.9698 43C49.7819 50.1929 52.2181 53.7996 57 60.9823L61 66Z" fill="#FFE2C8" stroke="#1C1C1C" stroke-width="0.5" stroke-linecap="round" stroke-linejoin="round"/>
<path d="M69.5 64.5C62.5 69.0622 50.298 71.5 43.5 71.5C46.904 66.3 57.1211 53.2 60.5452 48C63.9592 53.1896 67.6663 57.3518 71 62.5L69.5 64.5Z" fill="#FFE2C8" stroke="#1C1C1C" stroke-width="0.5" stroke-linecap="round" stroke-linejoin="round"/>
<path d="M59 40.01C59 37.8045 57.1932 36.01 54.995 36C52.7867 36 51 37.7945 51 40C51 42.2055 52.7967 44 55.005 44C57.2133 44 59 42.2256 59 40.01Z" fill="#FF9500" stroke="#1C1C1C" stroke-width="0.5" stroke-miterlimit="10"/>
</g>
<path d="M51 28L68.3205 38V58L51 68L33.6795 58V38L51 28Z" stroke="#1C1C1C" stroke-width="0.5" stroke-linejoin="round"/>
</svg>
