<svg width="62" height="62" viewBox="0 0 62 62" fill="none" xmlns="http://www.w3.org/2000/svg">
<g clip-path="url(#clip0_18011_8403)">
<path d="M30.613 55.4577C44.2063 55.4577 55.226 44.3862 55.226 30.7289C55.226 17.0715 44.2063 6 30.613 6C17.0196 6 6 17.0715 6 30.7289C6 44.3862 17.0196 55.4577 30.613 55.4577Z" fill="#CCD9FD" stroke="#1C1C1C" stroke-width="0.5" stroke-miterlimit="10" stroke-linejoin="round"/>
<path d="M30.6136 55.4577C37.0637 55.4577 42.2926 44.3862 42.2926 30.7289C42.2926 17.0715 37.0637 6 30.6136 6C24.1634 6 18.9346 17.0715 18.9346 30.7289C18.9346 44.3862 24.1634 55.4577 30.6136 55.4577Z" fill="#CCD9FD" stroke="#1C1C1C" stroke-width="0.5" stroke-miterlimit="10" stroke-linejoin="round"/>
<path d="M8.84528 42.2803H52.4907" stroke="#1C1C1C" stroke-width="0.5" stroke-miterlimit="10" stroke-linejoin="round"/>
<path d="M8.74176 19.1768H52.5274" stroke="#1C1C1C" stroke-width="0.5" stroke-miterlimit="10" stroke-linejoin="round"/>
<path d="M6.0025 30.7275H55.2245" stroke="#1C1C1C" stroke-width="0.5" stroke-miterlimit="10" stroke-linejoin="round"/>
<path d="M58.5159 50L48.0496 31.9295C47.1446 30.1581 45.0296 29.4843 43.3248 30.4246C42.7079 30.765 42.204 31.2885 41.8764 31.9295L31.8929 49C30.997 50.7655 29.9567 54.7673 33.2662 56.5832C33.769 56.8591 34.3305 57.0023 34.8988 57H55.6116C57.5322 57.0058 58.9943 54.4968 59 52.5C59.0022 51.9084 58.7814 50.5224 58.5159 50Z" fill="#693000" stroke="#1C1C1C" stroke-width="0.5" stroke-miterlimit="10"/>
<path d="M58.5857 49.6999L48.1889 29.9295C47.2541 28.1581 45.0695 27.4843 43.3085 28.4246C42.6713 28.765 42.1507 29.2885 41.8123 29.9295L31.4155 49.6999C30.4901 51.4654 31.1622 53.6524 32.9186 54.5832C33.4379 54.8591 34.0179 55.0023 34.6049 55H55.3963C57.3802 55.0058 58.9941 53.3929 59 51.3962C59.0023 50.8045 58.8599 50.2223 58.5857 49.6999Z" fill="#E84142" stroke="#1C1C1C" stroke-width="0.5" stroke-miterlimit="10"/>
<path d="M45.0006 51.4783C44.0343 51.4783 43.2501 50.6895 43.2501 49.7175C43.2501 48.7455 44.0343 47.9567 45.0006 47.9567C45.9669 47.9567 46.7511 48.7455 46.7511 49.7175C46.7511 50.6895 45.9669 51.4783 45.0006 51.4783ZM45.6191 45.6089H44.3809C44.0729 45.6089 43.8173 45.3683 43.7986 45.0584L43.2875 36.8412C43.2665 36.5031 43.5337 36.2179 43.8698 36.2179H46.1291C46.4652 36.2179 46.7325 36.5031 46.7115 36.8412L46.2003 45.0584C46.1816 45.3683 45.9272 45.6089 45.6191 45.6089Z" fill="#FAECE8" stroke="#1C1C1C" stroke-width="0.5" stroke-linejoin="round"/>
</g>
<defs>
<clipPath id="clip0_18011_8403">
<rect width="62" height="62" rx="5" fill="white"/>
</clipPath>
</defs>
</svg>
