<svg width="62" height="62" viewBox="0 0 62 62" fill="none" xmlns="http://www.w3.org/2000/svg">
<g clip-path="url(#clip0_18011_6818)">
<path d="M36.9832 28.2386C25.4431 28.437 13.9109 28.4132 2.37077 28.2386C2.03742 21.278 2.02155 17.8017 2.26759 10.8411C13.8712 10.7062 25.4748 10.6903 37.0784 10.8411C37.3245 17.8017 37.3165 21.278 36.9752 28.2386H36.9832Z" fill="#2AA5A5" stroke="#1C1C1C" stroke-linejoin="round"/>
<path d="M37.0786 25.8893C25.475 26.0401 13.8714 26.0242 2.2678 25.8893C2.02176 18.9287 2.0297 15.4524 2.37098 8.49183C13.9111 8.31723 25.4433 8.29341 36.9834 8.49183C37.3167 15.4524 37.3326 18.9287 37.0866 25.8893H37.0786Z" fill="#B9E5DE" stroke="#1C1C1C" stroke-linejoin="round"/>
<path d="M31.2925 23.794C23.5462 23.8257 15.7999 23.8257 8.05356 23.794C8.02181 22.2383 6.74398 20.9684 5.18043 20.9605C5.14869 17.9366 5.15662 16.4286 5.21218 13.4126C6.77573 13.4126 8.06149 12.1348 8.10118 10.5792C15.8158 10.5395 23.5303 10.5395 31.2449 10.5792C31.2766 12.1348 32.5703 13.4126 34.1339 13.4126C34.1895 16.4365 34.1974 17.9445 34.1656 20.9605C32.6021 20.9605 31.3243 22.2304 31.2925 23.794Z" fill="#2AA5A5" stroke="#1C1C1C" stroke-linejoin="round"/>
<path d="M19.6579 23.6909C23.2136 23.6909 26.0947 20.8098 26.0947 17.2541C26.0947 13.6984 23.2136 10.8174 19.6579 10.8174C16.1023 10.8174 13.2212 13.6984 13.2212 17.2541C13.2212 20.8098 16.1023 23.6909 19.6579 23.6909Z" fill="#B9E5DE" stroke="#1C1C1C" stroke-linejoin="round"/>
<path d="M22.6732 15.4524C22.7525 16.1985 22.443 16.6509 21.9747 16.9049C22.7605 17.1033 23.2526 17.5954 23.1494 18.6907C23.0303 20.0558 22.062 20.4209 20.689 20.5082V21.5241C20.689 21.7543 20.5064 21.9368 20.2763 21.9368C20.0461 21.9368 19.8635 21.7543 19.8635 21.5241V20.5241C19.6493 20.5241 19.427 20.5241 19.2127 20.5161V21.5241C19.2127 21.7543 19.0302 21.9368 18.8 21.9368C18.5698 21.9368 18.3873 21.7543 18.3873 21.5241V20.5082C18.1968 20.5082 18.0063 20.5002 17.8 20.5002H17.3317C17.0142 20.5002 16.7761 20.2145 16.8317 19.905C16.8714 19.6589 17.0936 19.4764 17.3396 19.4764C17.4984 19.4764 17.4984 19.4764 17.4984 19.4764C17.7285 19.4764 17.7841 19.3018 17.8079 19.1827V15.3016C17.7762 15.127 17.6651 14.9207 17.3317 14.9207H17.2047C16.9507 14.9207 16.7444 14.7143 16.7444 14.4603C16.7444 14.2064 16.9507 14.0079 17.1968 14.0079H18.4032V13C18.4032 12.7698 18.5857 12.5872 18.8159 12.5872C19.0461 12.5872 19.2286 12.7698 19.2286 13V13.9762C19.4508 13.9762 19.6572 13.9683 19.8794 13.9683V13C19.8794 12.7698 20.062 12.5872 20.2921 12.5872C20.5223 12.5872 20.7048 12.7698 20.7048 13V14.0079C21.7604 14.0952 22.6017 14.4445 22.6891 15.4683L22.6732 15.4524ZM21.5223 18.516C21.5223 17.4049 19.7762 17.5636 19.2207 17.5636V19.4605C19.7762 19.4605 21.5223 19.5875 21.5223 18.5081V18.516ZM21.1493 15.8493C21.1493 14.8334 19.6889 14.9842 19.2207 14.9842V16.7065C19.6889 16.7065 21.1493 16.8176 21.1493 15.8493Z" fill="#1C1C1C"/>
<path d="M59.2365 53.4566C52.5375 53.6192 45.8386 53.6762 39.1397 53.6355C36.3224 53.6192 34.8338 53.603 32.1846 53.5623C32.0005 53.5623 31.8164 53.5542 31.6404 53.546C30.0236 53.5298 28.4069 53.4973 26.7902 53.4566C26.5581 44.7718 26.5101 40.4375 26.5821 31.7526C37.539 31.6795 48.4878 31.6795 59.4446 31.7526C59.5166 40.4375 59.4766 44.7718 59.2365 53.4566Z" fill="#4169E1" stroke="#1C1C1C" stroke-linejoin="round"/>
<path d="M59.2365 50.1826C48.4237 50.4168 37.603 50.4095 26.7902 50.1826C26.5581 42.3738 26.5101 38.4658 26.5821 30.6496C37.539 30.5838 48.4878 30.5838 59.4446 30.6496C59.5166 38.4658 59.4766 42.3665 59.2365 50.1826Z" fill="#CCD9FD" stroke="#1C1C1C" stroke-miterlimit="10"/>
<path d="M59.5843 31.4627C58.4515 27.1243 57.8589 24.9473 56.6736 20.5853C54.4231 20.5382 47.664 20.4439 45.4135 20.436C45.4135 20.491 45.4135 20.546 45.421 20.6089C45.406 20.5539 45.3985 20.4989 45.391 20.436C43.1405 20.4281 42.0152 20.4281 39.7722 20.436C39.7722 20.4832 39.7497 20.5303 39.7422 20.5853C39.7422 20.5382 39.7422 20.491 39.7497 20.436C37.4992 20.4439 36.3739 20.4596 34.1309 20.4832C34.1159 20.5932 34.0859 20.6796 34.0634 20.7818C34.0784 20.6796 34.0934 20.5853 34.1159 20.4832C31.8654 20.5146 30.7401 20.5382 28.4971 20.5853C27.3118 24.9551 26.7192 27.1322 25.5864 31.4705C25.5864 31.4705 25.5864 31.4941 25.5864 31.5019C25.5639 33.4353 27.0868 35.0072 28.9622 35.0072C30.8376 35.0072 32.3605 33.4118 32.3755 31.4548C32.3755 31.4469 32.398 31.4469 32.398 31.4548C32.398 33.4039 33.9059 34.9915 35.7813 34.9915C37.6567 34.9915 39.1796 33.396 39.1796 31.4312C39.1796 31.4234 39.2021 31.4234 39.2021 31.4312C39.2021 33.396 40.7174 34.9915 42.5929 34.9915C44.4683 34.9915 45.9911 33.396 45.9836 31.4312C45.9836 31.4234 45.9836 31.4076 45.9836 31.3998C45.9836 31.3605 46.0061 31.3526 46.0061 31.3998C46.0061 31.3998 46.0061 31.4234 46.0061 31.4312C46.0061 33.396 47.529 34.9915 49.4044 34.9915C51.2799 34.9915 52.8027 33.4118 52.7877 31.4548C52.7877 31.4469 52.7877 31.4234 52.7877 31.4234H52.8102C52.8102 31.4312 52.8102 31.4469 52.8102 31.4548C52.8102 33.4039 54.3481 34.9994 56.2235 35.0072C58.0989 35.0072 59.6143 33.4432 59.5993 31.5019C59.5993 31.4941 59.5993 31.4784 59.5993 31.4705L59.5843 31.4627Z" fill="#4169E1" stroke="#1C1C1C" stroke-linejoin="round"/>
<path d="M39.6732 38.2977C36.6162 38.2977 35.0958 38.2977 32.0388 38.2828C32.063 43.0852 32.0951 45.4789 32.1917 50.2812C35.2084 50.3258 36.7128 50.3407 39.7215 50.3555C39.6893 45.5309 39.6732 43.1223 39.6732 38.2977Z" fill="white" stroke="#1C1C1C" stroke-miterlimit="10"/>
<path d="M53.1391 45.9477C49.9149 45.9856 48.3028 45.9931 45.0862 46.0007C45.0938 43.0338 45.0937 41.5504 45.1013 38.5836C48.3406 38.5836 49.9679 38.5836 53.2072 38.5684C53.1921 41.5201 53.1845 42.996 53.1467 45.9477H53.1391Z" fill="white" stroke="#1C1C1C" stroke-miterlimit="10"/>
<path d="M32.4286 28.5011C33.1174 24.293 33.4731 22.1889 34.1921 17.9733C31.9215 18.0035 30.7862 18.0262 28.5233 18.0717C27.3274 22.2798 26.7295 24.3762 25.5867 28.5465C25.5867 28.5465 25.5867 28.5692 25.5867 28.5768C25.564 30.4386 27.1004 31.9523 28.9925 31.9523C30.8846 31.9523 32.421 30.4159 32.4362 28.5314C32.4362 28.5238 32.4362 28.5086 32.4362 28.5011H32.4286Z" fill="#FFE2C8" stroke="#1C1C1C" stroke-linejoin="round"/>
<path d="M39.2938 28.4786C39.5209 24.2554 39.642 22.1437 39.8842 17.9205C37.6136 17.9281 36.4784 17.9432 34.2154 17.9659C33.4964 22.1816 33.1406 24.2932 32.4519 28.4937C32.4519 28.4937 32.4519 28.5164 32.4519 28.524C32.4519 30.401 33.9732 31.9298 35.8653 31.9298C37.7574 31.9298 39.2938 30.3934 39.2938 28.5013C39.2938 28.4937 39.2938 28.4786 39.2938 28.471V28.4786Z" fill="#FF9500" stroke="#1C1C1C" stroke-linejoin="round"/>
<path d="M46.1654 28.4786C45.9384 24.2553 45.8173 22.1437 45.5827 17.9205C43.3121 17.9129 42.1768 17.9129 39.9138 17.9205C39.6716 22.1437 39.5581 24.2553 39.3311 28.4786C39.3311 28.4786 39.3311 28.5013 39.3311 28.5088C39.3311 30.401 40.8599 31.9374 42.752 31.9374C44.6442 31.9374 46.1806 30.401 46.173 28.5088C46.173 28.5013 46.173 28.4861 46.173 28.4786H46.1654Z" fill="#FFE2C8" stroke="#1C1C1C" stroke-linejoin="round"/>
<path d="M53.0302 28.5011C52.3415 24.293 51.9857 22.1889 51.2667 17.9733C48.9962 17.943 47.8609 17.9354 45.5979 17.9279C45.8401 22.1511 45.9612 24.2627 46.1882 28.4859C46.1882 28.4859 46.1882 28.5086 46.1882 28.5162C46.1882 30.4083 47.7247 31.9448 49.6168 31.9448C51.5089 31.9448 53.0453 30.4235 53.0302 28.5389C53.0302 28.5314 53.0302 28.5162 53.0302 28.5086V28.5011Z" fill="#FF9500" stroke="#1C1C1C" stroke-linejoin="round"/>
<path d="M59.8952 28.5465C58.7524 24.3687 58.1544 22.2722 56.9586 18.0717C54.6881 18.0262 53.5528 18.0035 51.2898 17.9733C52.0088 22.1889 52.3645 24.3005 53.0533 28.5011C53.0533 28.5011 53.0533 28.5238 53.0533 28.5314C53.0533 30.4083 54.6048 31.9448 56.4969 31.9523C58.3891 31.9523 59.9179 30.4462 59.9028 28.5768C59.9028 28.5692 59.9028 28.5541 59.9028 28.5465H59.8952Z" fill="#FFE2C8" stroke="#1C1C1C" stroke-linejoin="round"/>
</g>
<defs>
<clipPath id="clip0_18011_6818">
<rect width="62" height="62" rx="5" fill="white"/>
</clipPath>
</defs>
</svg>
