<svg width="102" height="102" viewBox="0 0 102 102" fill="none" xmlns="http://www.w3.org/2000/svg">
<rect x="0.5" y="0.5" width="101" height="101" rx="4.5" stroke="#9747FF" stroke-dasharray="10 5"/>
<path d="M68.5971 58.1812C67.5592 56.8059 65.6477 56.434 64.1773 57.3335L52.345 64.5644C52.3017 65.2131 52.2585 65.8531 52.1979 66.5018C52.0163 68.5777 51.7568 70.6448 51.4973 72.712C51.4368 73.1704 51.3849 73.6375 51.333 74.0959C53.5559 72.9542 55.5279 71.6049 55.5279 71.6049L67.8446 62.921C69.3842 61.8312 69.7215 59.6861 68.5971 58.1812Z" fill="#E8EDFA" stroke="#1C1C1C" stroke-width="0.5" stroke-linejoin="round"/>
<path d="M73.4667 58.2331C72.4288 56.8578 70.5173 56.4859 69.0469 57.3855L57.2146 64.6163C57.1714 65.265 57.1281 65.9051 57.0676 66.5538C56.8859 68.6296 56.6265 70.6968 56.367 72.764C56.3064 73.2224 56.2545 73.6894 56.2026 74.1479C58.4255 73.0062 60.3976 71.6569 60.3976 71.6569L72.7142 62.9729C74.2538 61.8831 74.5911 59.7381 73.4667 58.2331Z" fill="#E8EDFA" stroke="#1C1C1C" stroke-width="0.5" stroke-linejoin="round"/>
<path d="M64.7308 71.6742C64.0302 72.1066 63.3036 72.4699 62.5338 72.7467C60.9337 73.3348 58.114 74.2949 56.0901 74.5198C42.1041 76.0853 37.2518 73.0148 37.2518 73.0148L32.832 72.8591V58.0774H35.9631C35.9631 58.0774 38.4973 56.14 41.3343 56.14H45.5033C47.6743 56.14 49.7761 56.9616 51.3675 58.432L60.1293 66.5192L73.0082 58.6483C74.3229 57.8439 76.0614 57.9563 77.1685 59.0375C78.7081 60.5425 78.4573 62.9902 76.7706 64.1838L64.7221 71.6828L64.7308 71.6742Z" fill="#E8EDFA" stroke="#1C1C1C" stroke-width="0.5" stroke-linejoin="round"/>
<path d="M23.0843 56.6677C22.9719 65.5852 22.9719 70.0482 23.0843 78.9657C27.2447 79.1733 29.3291 79.1733 33.4981 78.9657C33.6106 70.0482 33.6019 65.5852 33.4981 56.6677C29.3378 56.4601 27.2533 56.4601 23.0843 56.6677Z" fill="#4169E1" stroke="#1C1C1C" stroke-width="0.5" stroke-linecap="round" stroke-linejoin="round"/>
<path d="M46.2558 71.6656L59.5412 67.0382C59.5412 67.0382 61.3316 65.5418 59.5412 63.7514C57.7508 61.961 54.317 61.961 52.9763 62.5578C51.6357 63.1546 48.9458 63.6044 47.8992 63.7514C46.8526 63.8985 43.2718 61.2172 40.5819 61.2172C37.8919 61.2172 36.5513 61.814 36.5513 61.814" fill="#E8EDFA"/>
<path d="M49.3178 68.1367L59.55 67.0296C59.55 67.0296 61.3404 65.5332 59.55 63.7428C57.7596 61.9524 54.3258 61.9524 52.9851 62.5492C51.6445 63.146 48.9546 63.5958 47.908 63.7428C46.8614 63.8898 43.2806 61.2086 40.5906 61.2086C37.9007 61.2086 36.5601 61.8054 36.5601 61.8054" stroke="#1C1C1C" stroke-width="0.5" stroke-linecap="round" stroke-linejoin="round"/>
<path d="M71.5717 45.3653C71.5717 54.7827 63.8259 62.4189 54.2715 62.4189C44.7171 62.4189 36.2954 54.1524 36.2954 44.7351C35.3637 28.8507 44.7263 28.3118 54.2807 28.3118C63.835 28.3118 72.1015 29.1338 71.5808 45.3653H71.5717Z" fill="#FF9500" stroke="#1C1C1C" stroke-width="0.5" stroke-linejoin="round"/>
<path d="M53.8696 57.8609C63.6158 57.8609 71.5077 49.8319 71.5077 39.9304C71.5077 30.029 63.6158 22 53.8696 22C44.1234 22 36.2314 30.029 36.2314 39.9304C36.2314 49.8319 44.1325 57.8609 53.8696 57.8609Z" fill="#FFE2C8" stroke="#1C1C1C" stroke-width="0.5" stroke-linejoin="round"/>
<path d="M53.9153 53.8236C61.5881 53.8236 67.8085 47.6032 67.8085 39.9305C67.8085 32.2577 61.5881 26.0374 53.9153 26.0374C46.2426 26.0374 40.0222 32.2577 40.0222 39.9305C40.0222 47.6032 46.2426 53.8236 53.9153 53.8236Z" fill="#FF9500" stroke="#1C1C1C" stroke-width="0.5" stroke-linejoin="round"/>
<path d="M60.0353 35.8017C60.1997 37.4093 59.5421 38.3867 58.5282 38.9347C60.2271 39.3732 61.2776 40.4145 61.0766 42.7894C60.8117 45.7306 58.7382 46.5344 55.7605 46.708V48.9093C55.7605 49.4025 55.3586 49.7953 54.8745 49.7953C54.3904 49.7953 53.9885 49.3934 53.9885 48.9093V46.7536C53.5317 46.7536 53.0568 46.7536 52.5818 46.7354V48.9093C52.5818 49.4025 52.1799 49.7953 51.6958 49.7953C51.2117 49.7953 50.8098 49.3934 50.8098 48.9093V46.708C50.3987 46.708 49.9785 46.6897 49.5492 46.6897H48.5353C47.8503 46.6897 47.3388 46.0777 47.4484 45.4018C47.5397 44.8628 48.0056 44.4792 48.5536 44.4792C48.9007 44.4792 48.8916 44.4701 48.8916 44.4701C49.3848 44.4701 49.5127 44.1047 49.5492 43.8398V38.9713V35.4729C49.4853 35.1075 49.2387 34.6508 48.5171 34.6508C48.5171 34.6508 48.5171 34.6508 48.2339 34.6417C47.6859 34.6417 47.2383 34.2032 47.2383 33.6552C47.2383 33.1071 47.6767 32.6778 48.2156 32.6778H50.8189V30.5039C50.8189 30.0106 51.2208 29.6179 51.7049 29.6179C52.189 29.6179 52.5909 30.0198 52.5909 30.5039V32.6139C53.0659 32.6139 53.5226 32.5956 53.9976 32.5956V30.5039C53.9976 30.0106 54.3995 29.6179 54.8836 29.6179C55.3677 29.6179 55.7696 30.0198 55.7696 30.5039V32.6778C58.044 32.8696 59.8709 33.6095 60.0536 35.8291L60.0353 35.8017ZM57.5508 42.4149C57.5508 40.0217 53.7875 40.3688 52.5818 40.3688V44.4609C53.7784 44.4609 57.5508 44.7441 57.5508 42.4149ZM56.7379 36.6512C56.7379 34.4499 53.5866 34.7787 52.5727 34.7787V38.4963C53.5866 38.4963 56.7379 38.7338 56.7379 36.6512Z" fill="white"/>
</svg>
