<svg width="102" height="102" viewBox="0 0 102 102" fill="none" xmlns="http://www.w3.org/2000/svg">
<rect x="0.5" y="0.5" width="101" height="101" rx="4.5" stroke="#9747FF" stroke-dasharray="10 5"/>
<path d="M61.8925 25.1426C52.8725 25.0326 48.3625 25.0326 39.3525 25.1426C32.8925 31.6726 29.6125 34.9526 23.0825 41.4126C22.9725 50.4326 22.9725 54.9426 23.0825 63.9526C29.6125 70.4026 32.8925 73.6926 39.3425 80.2126C48.3625 80.3226 52.8725 80.3226 61.8825 80.2126C68.3325 73.6826 71.6225 70.4026 78.1425 63.9526C78.2525 54.9326 78.2525 50.4226 78.1425 41.4126C71.6125 34.9626 68.3325 31.6726 61.8825 25.1526L61.8925 25.1426Z" fill="#693000" stroke="#1C1C1C" stroke-width="0.5" stroke-miterlimit="10"/>
<path d="M61.8925 21.0825C52.8725 20.9725 48.3625 20.9725 39.3525 21.0825C32.8925 27.6125 29.6125 30.8925 23.0825 37.3425C22.9725 46.3625 22.9725 50.8725 23.0825 59.8825C29.6125 66.3325 32.8925 69.6225 39.3425 76.1425C48.3625 76.2525 52.8725 76.2525 61.8825 76.1425C68.3325 69.6125 71.6225 66.3325 78.1425 59.8825C78.2525 50.8625 78.2525 46.3525 78.1425 37.3425C71.6125 30.8925 68.3325 27.6025 61.8825 21.0825H61.8925Z" fill="#FAECE8" stroke="#1C1C1C" stroke-width="0.5" stroke-linejoin="round"/>
<path d="M60.1325 25.4725C52.5225 25.4125 48.7225 25.4125 41.1125 25.4725C35.6925 30.9425 32.9425 33.6925 27.4725 39.1125C27.4125 46.7225 27.4125 50.5225 27.4725 58.1325C32.9425 63.5525 35.6925 66.3025 41.1125 71.7725C48.7225 71.8325 52.5225 71.8325 60.1325 71.7725C65.5525 66.3025 68.3025 63.5525 73.7725 58.1325C73.8325 50.5225 73.8325 46.7225 73.7725 39.1125C68.3025 33.6925 65.5525 30.9425 60.1325 25.4725Z" fill="#E84142" stroke="#1C1C1C" stroke-width="0.5" stroke-miterlimit="10"/>
<path d="M62.9426 49.9324L60.9426 56.8824C60.2026 59.4524 58.6526 61.7524 56.4226 63.2424C54.7426 64.3624 52.4626 65.2624 49.4826 65.2624C44.1126 65.2624 39.4026 61.3024 39.4026 57.1224V56.6724L39.3926 39.8524C39.3926 38.7424 40.1826 37.7224 41.2926 37.6024C42.5526 37.4524 43.6226 38.4124 43.6726 39.6424V35.3224C43.6726 34.2124 44.4626 33.2024 45.5626 33.0624C46.8326 32.9124 47.9126 33.8724 47.9626 35.0924V32.9524C47.9626 31.7024 49.0326 30.6924 50.3226 30.8124C51.4426 30.9224 52.2526 31.9424 52.2526 33.0624V35.1024C52.3226 33.8324 53.4626 32.8624 54.7826 33.0924C55.8226 33.2724 56.5426 34.2524 56.5426 35.3024V52.2724C56.6926 51.7524 58.7026 46.6524 58.7026 46.6524C59.5026 45.3424 60.7226 44.8724 61.8826 45.0324C64.6126 45.4024 62.9426 49.9324 62.9426 49.9324Z" fill="#FAECE8" stroke="#1C1C1C" stroke-width="0.5" stroke-linejoin="round"/>
<path d="M47.9725 34.2224V46.3624" stroke="#1C1C1C" stroke-width="0.5" stroke-linecap="round" stroke-linejoin="round"/>
<path d="M43.6826 46.3624V39.1824" stroke="#1C1C1C" stroke-width="0.5" stroke-linecap="round" stroke-linejoin="round"/>
<path d="M52.2526 46.3624V34.1224" stroke="#1C1C1C" stroke-width="0.5" stroke-linecap="round" stroke-linejoin="round"/>
<path d="M56.5425 52.2724C56.5425 52.2724 52.4025 52.3924 50.7225 56.9924" stroke="#1C1C1C" stroke-width="0.5" stroke-linecap="round" stroke-linejoin="round"/>
</svg>
