<svg width="102" height="102" viewBox="0 0 102 102" fill="none" xmlns="http://www.w3.org/2000/svg">
<rect x="0.5" y="0.5" width="101" height="101" rx="4.5" stroke="#8A38F5" stroke-dasharray="10 5"/>
<path d="M52.2047 49.1463L48.9298 50.0238C47.5843 46.287 43.6409 42.9164 39.0967 42.9164C35.3902 42.9164 32.0815 45.446 30.2536 48.1006H33.6131V51.0696H24V42.7622H27.4357V46.4186C29.8813 42.9816 34.2393 38.6722 39.1051 38.6722C45.1556 38.6722 50.4192 44.159 52.2132 49.1463H52.2047Z" fill="#4169E1" stroke="#1C1C1C" stroke-width="0.5" stroke-linejoin="round"/>
<path d="M51.3582 55.3029V65.0285H47.9852V61.3814C45.5177 65.0371 41.4468 67.3144 36.9272 67.3144C30.987 67.3144 25.8194 63.3933 24.0582 57.5545L24 54.4896L27.2733 56.5272C28.5943 60.902 32.4742 63.8471 36.9272 63.8471C40.5661 63.8471 43.8229 61.8865 45.6091 58.7788H41.912V55.3029H51.3499H51.3582Z" fill="#4169E1" stroke="#1C1C1C" stroke-width="0.5" stroke-linejoin="round"/>
<path d="M61.8376 69.7364C68.4115 69.7364 73.7406 69.1851 73.7406 68.505C73.7406 67.8249 68.4115 67.2736 61.8376 67.2736C55.2637 67.2736 49.9346 67.8249 49.9346 68.505C49.9346 69.1851 55.2637 69.7364 61.8376 69.7364Z" fill="#FF9500" stroke="#1C1C1C" stroke-width="0.5" stroke-linejoin="round"/>
<path d="M77.1405 69.954V75.4048C77.1405 77.1044 70.1318 78.4897 61.491 78.4897C52.8501 78.4897 45.8361 77.1044 45.8361 75.4048V69.954H77.1405Z" fill="#FF9500" stroke="#1C1C1C" stroke-width="0.5" stroke-linejoin="round"/>
<path d="M61.4922 72.7706C70.1352 72.7706 77.1417 71.3894 77.1417 69.6857C77.1417 67.982 70.1352 66.6008 61.4922 66.6008C52.8492 66.6008 45.8427 67.982 45.8427 69.6857C45.8427 71.3894 52.8492 72.7706 61.4922 72.7706Z" fill="#FFE2C8" stroke="#1C1C1C" stroke-width="0.5" stroke-linejoin="round"/>
<path d="M61.8402 70.5866C68.414 70.5866 73.7432 70.0353 73.7432 69.3552C73.7432 68.6751 68.414 68.1238 61.8402 68.1238C55.2663 68.1238 49.9371 68.6751 49.9371 69.3552C49.9371 70.0353 55.2663 70.5866 61.8402 70.5866Z" fill="#FF9500" stroke="#1C1C1C" stroke-width="0.5" stroke-linejoin="round"/>
<path d="M77.1404 64.0786V69.5294C77.1404 71.229 70.1318 72.6143 61.4909 72.6143C52.85 72.6143 45.8361 71.229 45.8361 69.5294V64.0786H77.1404Z" fill="#FF9500" stroke="#1C1C1C" stroke-width="0.5" stroke-linejoin="round"/>
<path d="M61.4922 66.8953C70.1352 66.8953 77.1417 65.5141 77.1417 63.8104C77.1417 62.1067 70.1352 60.7255 61.4922 60.7255C52.8492 60.7255 45.8427 62.1067 45.8427 63.8104C45.8427 65.5141 52.8492 66.8953 61.4922 66.8953Z" fill="#FFE2C8" stroke="#1C1C1C" stroke-width="0.5" stroke-linejoin="round"/>
<path d="M61.8402 64.7112C68.414 64.7112 73.7432 64.1599 73.7432 63.4798C73.7432 62.7997 68.414 62.2484 61.8402 62.2484C55.2663 62.2484 49.9371 62.7997 49.9371 63.4798C49.9371 64.1599 55.2663 64.7112 61.8402 64.7112Z" fill="#FF9500" stroke="#1C1C1C" stroke-width="0.5" stroke-linejoin="round"/>
<path d="M61.8376 65.5292C68.4115 65.5292 73.7406 64.9778 73.7406 64.2978C73.7406 63.6177 68.4115 63.0663 61.8376 63.0663C55.2637 63.0663 49.9346 63.6177 49.9346 64.2978C49.9346 64.9778 55.2637 65.5292 61.8376 65.5292Z" fill="#FF9500" stroke="#1C1C1C" stroke-width="0.5" stroke-linejoin="round"/>
<path d="M77.1404 58.1909V63.6417C77.1404 65.3413 70.1318 66.7266 61.4909 66.7266C52.85 66.7266 45.836 65.3413 45.836 63.6417V58.1909H77.1404Z" fill="#FF9500" stroke="#1C1C1C" stroke-width="0.5" stroke-linejoin="round"/>
<path d="M61.4922 61.0075C70.1352 61.0075 77.1417 59.6264 77.1417 57.9226C77.1417 56.2189 70.1352 54.8378 61.4922 54.8378C52.8492 54.8378 45.8427 56.2189 45.8427 57.9226C45.8427 59.6264 52.8492 61.0075 61.4922 61.0075Z" fill="#FFE2C8" stroke="#1C1C1C" stroke-width="0.5" stroke-linejoin="round"/>
<path d="M61.8401 58.8236C68.414 58.8236 73.7432 58.2723 73.7432 57.5922C73.7432 56.9121 68.414 56.3608 61.8401 56.3608C55.2663 56.3608 49.9371 56.9121 49.9371 57.5922C49.9371 58.2723 55.2663 58.8236 61.8401 58.8236Z" fill="#FF9500" stroke="#1C1C1C" stroke-width="0.5" stroke-linejoin="round"/>
<path d="M40.8564 79.8013C47.4302 79.8013 52.7594 79.2499 52.7594 78.5699C52.7594 77.8898 47.4302 77.3384 40.8564 77.3384C34.2825 77.3384 28.9533 77.8898 28.9533 78.5699C28.9533 79.2499 34.2825 79.8013 40.8564 79.8013Z" fill="#FF9500" stroke="#1C1C1C" stroke-width="0.5" stroke-linejoin="round"/>
<path d="M56.1592 72.463V77.9137C56.1592 79.6133 49.1506 80.9986 40.5097 80.9986C31.8688 80.9986 24.8548 79.6133 24.8548 77.9137V72.463H56.1592Z" fill="#FF9500" stroke="#1C1C1C" stroke-width="0.5" stroke-linejoin="round"/>
<path d="M40.5111 75.2796C49.1541 75.2796 56.1606 73.8984 56.1606 72.1947C56.1606 70.491 49.1541 69.1099 40.5111 69.1099C31.8681 69.1099 24.8616 70.491 24.8616 72.1947C24.8616 73.8984 31.8681 75.2796 40.5111 75.2796Z" fill="#FFE2C8" stroke="#1C1C1C" stroke-width="0.5" stroke-linejoin="round"/>
<path d="M40.8589 73.0956C47.4328 73.0956 52.762 72.5443 52.762 71.8642C52.762 71.1841 47.4328 70.6328 40.8589 70.6328C34.2851 70.6328 28.9559 71.1841 28.9559 71.8642C28.9559 72.5443 34.2851 73.0956 40.8589 73.0956Z" fill="#FF9500" stroke="#1C1C1C" stroke-width="0.5" stroke-linejoin="round"/>
<path d="M40.8565 73.9337C47.4303 73.9337 52.7595 73.3824 52.7595 72.7023C52.7595 72.0222 47.4303 71.4709 40.8565 71.4709C34.2826 71.4709 28.9534 72.0222 28.9534 72.7023C28.9534 73.3824 34.2826 73.9337 40.8565 73.9337Z" fill="#FF9500" stroke="#1C1C1C" stroke-width="0.5" stroke-linejoin="round"/>
<path d="M56.1593 66.5955V72.0462C56.1593 73.7458 49.1507 75.1311 40.5098 75.1311C31.8689 75.1311 24.8549 73.7458 24.8549 72.0462V66.5955H56.1593Z" fill="#FF9500" stroke="#1C1C1C" stroke-width="0.5" stroke-linejoin="round"/>
<path d="M40.5112 69.412C49.1541 69.412 56.1607 68.0309 56.1607 66.3272C56.1607 64.6234 49.1541 63.2423 40.5112 63.2423C31.8682 63.2423 24.8616 64.6234 24.8616 66.3272C24.8616 68.0309 31.8682 69.412 40.5112 69.412Z" fill="#FFE2C8" stroke="#1C1C1C" stroke-width="0.5" stroke-linejoin="round"/>
<path d="M40.859 67.228C47.4329 67.228 52.7621 66.6767 52.7621 65.9966C52.7621 65.3165 47.4329 64.7652 40.859 64.7652C34.2851 64.7652 28.956 65.3165 28.956 65.9966C28.956 66.6767 34.2851 67.228 40.859 67.228Z" fill="#FF9500" stroke="#1C1C1C" stroke-width="0.5" stroke-linejoin="round"/>
<path d="M76.8176 42.1943C76.8176 50.5732 69.928 57.3657 61.429 57.3657C52.9299 57.3657 45.4303 50.0113 45.4303 41.6324C44.6052 27.4977 52.9299 27.023 61.429 27.023C69.928 27.023 77.2843 27.7569 76.8176 42.1943Z" fill="#FF9500" stroke="#1C1C1C" stroke-width="0.5" stroke-miterlimit="10"/>
<path d="M61.2398 53.9059C69.9066 53.9059 76.9324 46.7636 76.9324 37.953C76.9324 29.1424 69.9066 22 61.2398 22C52.5731 22 45.5472 29.1424 45.5472 37.953C45.5472 46.7636 52.5731 53.9059 61.2398 53.9059Z" fill="#FFE2C8" stroke="#1C1C1C" stroke-width="0.5" stroke-miterlimit="10"/>
<path d="M61.1079 50.3106C67.9348 50.3106 73.4691 44.776 73.4691 37.9487C73.4691 31.1215 67.9348 25.5869 61.1079 25.5869C54.281 25.5869 48.7467 31.1215 48.7467 37.9487C48.7467 44.776 54.281 50.3106 61.1079 50.3106Z" fill="#FF9500" stroke="#1C1C1C" stroke-width="0.5" stroke-miterlimit="10"/>
<path d="M51.9518 46.0961L48.7063 47.1025C47.3728 42.8169 43.4648 39.9318 38.9613 39.9318C35.2881 39.9318 32.009 41.8524 30.1975 44.8968H33.5269V48.3018H24V38.7744H27.4049V42.9678C29.8285 39.0176 34.1475 36.5352 38.9613 36.5352C44.9576 36.5352 50.1739 40.3763 51.9518 46.0961Z" fill="#CCD9FD" stroke="#1C1C1C" stroke-width="0.5" stroke-linejoin="round"/>
<path d="M51.5576 51.965V61.4924H48.1528V57.9197C45.662 61.5008 41.5527 63.7317 36.9905 63.7317C30.9942 63.7317 25.7779 59.8906 24 54.1708L27.2455 53.1643C28.579 57.45 32.4954 60.3351 36.9905 60.3351C40.6637 60.3351 43.9512 58.4145 45.7543 55.3701H42.0223V51.965H51.5492H51.5576Z" fill="#CCD9FD" stroke="#1C1C1C" stroke-width="0.5" stroke-linejoin="round"/>
<rect x="56.6648" y="36.1945" width="9.57537" height="8.89187" rx="2" fill="white"/>
<path d="M63.5057 37.5611V34.8251C63.5057 33.6918 62.5871 32.7731 61.4539 32.7731C60.3207 32.7731 59.402 33.6918 59.402 34.8251V37.5611C59.402 38.6943 60.3207 39.613 61.4539 39.613V40.981C59.6241 40.981 58.1302 39.5439 58.0388 37.7367L58.0341 37.5611V34.8251C58.0341 32.9363 59.5652 31.4052 61.4539 31.4052C63.3426 31.4052 64.8737 32.9363 64.8737 34.8251V37.5611L64.869 37.7367C64.7775 39.5439 63.2836 40.981 61.4539 40.981V39.613C62.5871 39.613 63.5057 38.6943 63.5057 37.5611Z" fill="white"/>
</svg>
