<svg width="62" height="62" viewBox="0 0 62 62" fill="none" xmlns="http://www.w3.org/2000/svg">
<g clip-path="url(#clip0_18011_7055)">
<g clip-path="url(#clip1_18011_7055)">
<path d="M41.3001 13.7051C41.5809 13.5321 41.9252 13.5321 42.206 13.7051L60.9129 25.1613C61.1937 25.3343 61.3659 25.6515 61.3659 25.9975V48.9195C61.3659 49.2655 61.1937 49.5827 60.9129 49.7557L42.206 61.2119C41.9252 61.3849 41.5809 61.3849 41.3001 61.2119L22.5932 49.7557C22.3124 49.5827 22.1403 49.2655 22.1403 48.9195V25.9975C22.1403 25.6515 22.3124 25.3343 22.5932 25.1613L41.3001 13.7051Z" fill="#CCD9FD" stroke="#1C1C1C" stroke-width="0.5" stroke-miterlimit="10"/>
<path d="M41.3001 7.93859C41.5809 7.76559 41.9252 7.76559 42.206 7.93859L60.9129 19.3948C61.1937 19.5678 61.3659 19.8849 61.3659 20.2309V43.153C61.3659 43.499 61.1937 43.8161 60.9129 43.9891L42.206 55.4453C41.9252 55.6183 41.5809 55.6183 41.3001 55.4453L22.5932 43.9891C22.3124 43.8161 22.1403 43.499 22.1403 43.153V20.2309C22.1403 19.8849 22.3124 19.5678 22.5932 19.3948L41.3001 7.93859Z" fill="#4169E1" stroke="#1C1C1C" stroke-width="0.5" stroke-miterlimit="10"/>
<path d="M41.753 12.4653L57.4433 22.0762V41.2981L41.753 50.909L26.0628 41.2981V22.0762L41.753 12.4653Z" fill="#CCD9FD" stroke="#1C1C1C" stroke-width="0.5" stroke-linejoin="round"/>
<mask id="mask0_18011_7055" style="mask-type:alpha" maskUnits="userSpaceOnUse" x="25" y="12" width="33" height="40">
<path d="M41.753 12.4653L57.4433 22.0762V41.2981L41.753 50.909L26.0628 41.2981V22.0762L41.753 12.4653Z" fill="#CCD9FD" stroke="#1C1C1C" stroke-width="0.5" stroke-linejoin="round"/>
</mask>
<g mask="url(#mask0_18011_7055)">
<path d="M50.8121 48.9868C42.1245 49.006 47.1885 60.0394 25.4468 44.1045C29.7046 37.2615 31.915 33.8016 36.2905 26.8817C40.6479 33.792 42.8583 37.2615 47.1885 44.1621L50.8121 48.9868Z" fill="#FFE2C8" stroke="#1C1C1C" stroke-width="0.5" stroke-linecap="round" stroke-linejoin="round"/>
<path d="M58.5123 47.5451C52.171 51.9277 41.1189 54.2728 34.9588 54.2728C38.0389 49.2751 47.2972 36.6848 50.4044 31.6871C53.4936 36.6752 56.8545 40.6733 59.8711 45.623L58.5123 47.5451Z" fill="#FFE2C8" stroke="#1C1C1C" stroke-width="0.5" stroke-linecap="round" stroke-linejoin="round"/>
<path d="M49.0003 24.008C49.0003 21.884 47.3606 20.1637 45.3767 20.1541C43.3746 20.1541 41.7531 21.8744 41.7531 23.9984C41.7531 26.1224 43.3837 27.8428 45.3767 27.8428C47.3696 27.8428 49.0003 26.1417 49.0003 24.008Z" fill="#FF9500" stroke="#1C1C1C" stroke-width="0.5" stroke-miterlimit="10"/>
</g>
<path d="M41.753 12.4653L57.4433 22.0762V41.2981L41.753 50.909L26.0628 41.2981V22.0762L41.753 12.4653Z" stroke="#1C1C1C" stroke-width="0.5" stroke-linejoin="round"/>
<path d="M35.6835 25.2575C35.6835 35.1663 28.0014 43.2011 18.5257 43.2011C9.04996 43.2011 0.697533 34.5032 0.697533 24.5943C-0.226488 7.88095 9.05902 7.3139 18.5348 7.3139C28.0105 7.3139 36.2089 8.17889 35.6926 25.2575H35.6835Z" fill="#FF9500" stroke="#1C1C1C" stroke-width="0.5" stroke-linejoin="round"/>
<path d="M18.1271 38.4052C27.7931 38.4052 35.6201 29.9572 35.6201 19.539C35.6201 9.12078 27.7931 0.672791 18.1271 0.672791C8.46116 0.672791 0.634155 9.12078 0.634155 19.539C0.634155 29.9572 8.47022 38.4052 18.1271 38.4052Z" fill="#FFE2C8" stroke="#1C1C1C" stroke-width="0.5" stroke-linejoin="round"/>
<path d="M18.1724 34.1572C25.782 34.1572 31.9512 27.6122 31.9512 19.539C31.9512 11.4659 25.782 4.92084 18.1724 4.92084C10.5628 4.92084 4.39362 11.4659 4.39362 19.539C4.39362 27.6122 10.5628 34.1572 18.1724 34.1572Z" fill="#FF9500" stroke="#1C1C1C" stroke-width="0.5" stroke-linejoin="round"/>
<path d="M24.242 15.1949C24.405 16.8864 23.7528 17.9148 22.7472 18.4914C24.4322 18.9527 25.474 20.0484 25.2747 22.5472C25.012 25.6419 22.9556 26.4877 20.0023 26.6703V28.9865C20.0023 29.5055 19.6037 29.9188 19.1236 29.9188C18.6435 29.9188 18.2449 29.4959 18.2449 28.9865V26.7184C17.7919 26.7184 17.3209 26.7184 16.8498 26.6991V28.9865C16.8498 29.5055 16.4512 29.9188 15.9711 29.9188C15.4909 29.9188 15.0923 29.4959 15.0923 28.9865V26.6703C14.6847 26.6703 14.268 26.6511 13.8422 26.6511H12.8366C12.1572 26.6511 11.6499 26.0072 11.7586 25.2959C11.8492 24.7289 12.3112 24.3252 12.8548 24.3252C13.199 24.3252 13.1899 24.3156 13.1899 24.3156C13.6791 24.3156 13.806 23.9312 13.8422 23.6525V18.5299V14.8489C13.7788 14.4645 13.5342 13.9839 12.8185 13.9839C12.8185 13.9839 12.8185 13.9839 12.5377 13.9743C11.9942 13.9743 11.5503 13.513 11.5503 12.9363C11.5503 12.3597 11.9851 11.9079 12.5196 11.9079H15.1014V9.62055C15.1014 9.10156 15.5 8.68829 15.9801 8.68829C16.4603 8.68829 16.8589 9.11117 16.8589 9.62055V11.8407C17.3299 11.8407 17.7829 11.8215 18.2539 11.8215V9.62055C18.2539 9.10156 18.6525 8.68829 19.1327 8.68829C19.6128 8.68829 20.0114 9.11117 20.0114 9.62055V11.9079C22.2671 12.1098 24.0789 12.8883 24.2601 15.2237L24.242 15.1949ZM21.7779 22.1532C21.7779 19.6351 18.0456 20.0003 16.8498 20.0003V24.306C18.0365 24.306 21.7779 24.604 21.7779 22.1532ZM20.9717 16.0887C20.9717 13.7725 17.8463 14.1185 16.8407 14.1185V18.0301C17.8463 18.0301 20.9717 18.28 20.9717 16.0887Z" fill="white"/>
</g>
</g>
<defs>
<clipPath id="clip0_18011_7055">
<rect width="62" height="62" rx="5" fill="white"/>
</clipPath>
<clipPath id="clip1_18011_7055">
<rect width="62" height="62" fill="white"/>
</clipPath>
</defs>
</svg>
