<svg width="62" height="62" viewBox="0 0 62 62" fill="none" xmlns="http://www.w3.org/2000/svg">
<g clip-path="url(#clip0_18011_2992)">
<path d="M5.82609 20.3333C4.79773 20.3333 3.93554 21.1128 3.84651 22.1373C3.51007 26.009 3.29582 30.188 3.2758 34.6388C3.25417 39.4903 3.467 44.0272 3.82256 48.2025C3.91919 49.3372 4.95452 50.1477 6.0869 50.0264C9.14307 49.6992 12.9642 49.4822 16.3414 49.4805C19.8513 49.4787 23.0642 49.7094 25.9235 50.0555C26.9112 50.1751 27.5931 51.062 28.0219 51.9597C28.654 53.2829 30.0062 54.206 31.5565 54.206C33.109 54.206 34.4628 53.288 35.0937 51.9605C35.5208 51.0619 36.2018 50.1751 37.1895 50.0555C40.0004 49.7151 43.1494 49.4866 46.583 49.4805C50.0314 49.4745 53.9198 49.6935 57.0247 50.0263C58.1571 50.1477 59.1925 49.3371 59.2888 48.2023C59.6682 43.7347 59.8829 38.8686 59.8256 33.6551C59.7814 29.5836 59.5763 25.736 59.2648 22.1381C59.1761 21.1133 58.3138 20.3333 57.2851 20.3333H5.82609Z" fill="#FF9500" stroke="#1C1C1C" stroke-width="0.5" stroke-miterlimit="10" stroke-linejoin="round"/>
<path d="M5.82622 16.4068C4.79785 16.4068 3.93567 17.1863 3.84664 18.2108C3.51019 22.0825 3.29594 26.2614 3.27592 30.7123C3.25429 35.5638 3.46712 40.1006 3.82268 44.2759C3.91931 45.4107 4.95464 46.2211 6.08702 46.0999C9.14319 45.7726 12.9643 45.5557 16.3415 45.554C19.8514 45.5522 23.0643 45.7828 25.9236 46.129C26.9113 46.2486 27.5932 47.1354 28.0221 48.0332C28.6541 49.3564 30.0063 50.2795 31.5566 50.2795C33.1091 50.2795 34.4629 49.3615 35.0938 48.0339C35.5209 47.1353 36.2019 46.2486 37.1896 46.129C40.0005 45.7886 43.1495 45.5601 46.5832 45.554C50.0316 45.548 53.9199 45.767 57.0248 46.0998C58.1572 46.2212 59.1926 45.4106 59.289 44.2758C59.6683 39.8082 59.883 34.9421 59.8257 29.7285C59.7815 25.6571 59.5764 21.8095 59.2649 18.2116C59.1762 17.1868 58.3139 16.4068 57.2852 16.4068H5.82622Z" fill="#FFE2C8" stroke="#1C1C1C" stroke-width="0.5" stroke-miterlimit="10" stroke-linejoin="round"/>
<path d="M7.22798 14.86C7.29127 13.8909 8.04889 13.1118 9.0165 13.0287C11.971 12.7749 15.1647 12.6154 18.569 12.6083C21.6036 12.6015 23.9092 12.7651 26.2742 12.9895C28.0919 13.1618 30.183 13.7281 31.3762 15.11C31.4497 15.1951 31.5108 15.2766 31.5556 15.3527V45.0307L30.6107 44.1774C29.6612 43.3199 28.4626 42.7861 27.1894 42.6604C24.5068 42.3955 22.0727 42.1972 18.6353 42.2041C15.3496 42.21 12.2591 42.3569 9.38915 42.5935C8.26771 42.686 7.27512 41.8548 7.20388 40.7318C6.90923 36.0876 6.75722 31.1384 6.81041 25.9163C6.84945 22.0697 6.99809 18.3799 7.22798 14.86Z" fill="#4169E1" stroke="#1C1C1C" stroke-width="0.5" stroke-miterlimit="10" stroke-linejoin="round"/>
<path d="M7.22798 11.4741C7.29127 10.505 8.04889 9.72595 9.0165 9.64281C11.971 9.38898 15.1647 9.22952 18.569 9.22243C21.6036 9.21562 23.9092 9.37925 26.2742 9.60356C28.0919 9.77595 30.183 10.3422 31.3762 11.7241C31.4497 11.8092 31.5108 11.8907 31.5556 11.9668V41.6449L30.6107 40.7915C29.6612 39.934 28.4626 39.4002 27.1894 39.2745C24.5068 39.0096 22.0727 38.8113 18.6353 38.8182C15.3496 38.8241 12.2591 38.971 9.38915 39.2076C8.26771 39.3001 7.27512 38.4689 7.20388 37.3459C6.90923 32.7017 6.75722 27.7525 6.81041 22.5304C6.84945 18.6838 6.99809 14.994 7.22798 11.4741Z" fill="#CCD9FD" stroke="#1C1C1C" stroke-width="0.5" stroke-miterlimit="10" stroke-linejoin="round"/>
<path d="M55.883 14.8595C55.8198 13.8906 55.0625 13.1116 54.0951 13.0284C51.1405 12.7742 47.9465 12.6154 44.541 12.6083C41.5064 12.6015 39.2008 12.7651 36.8358 12.9895C35.0182 13.1618 32.9271 13.7281 31.7338 15.11C31.6603 15.1951 31.5993 15.2766 31.5544 15.3527V45.0307L32.4993 44.1774C33.4488 43.3199 34.6474 42.7861 35.9206 42.6604C38.6032 42.3955 41.0373 42.1972 44.4747 42.2041C47.7604 42.21 50.8509 42.3569 53.7209 42.5935C54.8423 42.686 55.8349 41.8548 55.9061 40.7318C56.2008 36.0876 56.3528 31.1384 56.2996 25.9163C56.2606 22.0695 56.1127 18.3796 55.883 14.8595Z" fill="#4169E1" stroke="#1C1C1C" stroke-width="0.5" stroke-miterlimit="10" stroke-linejoin="round"/>
<path d="M55.883 11.4736C55.8198 10.5047 55.0625 9.72574 54.0951 9.6425C51.1405 9.38826 47.9465 9.22952 44.541 9.22243C41.5064 9.21562 39.2008 9.37925 36.8358 9.60356C35.0182 9.77595 32.9271 10.3422 31.7338 11.7241C31.6603 11.8092 31.5993 11.8907 31.5544 11.9668V41.6449L32.4993 40.7915C33.4488 39.934 34.6474 39.4002 35.9206 39.2745C38.6032 39.0096 41.0373 38.8113 44.4747 38.8182C47.7604 38.8241 50.8509 38.971 53.7209 39.2076C54.8423 39.3001 55.8349 38.4689 55.9061 37.3459C56.2008 32.7017 56.3528 27.7525 56.2996 22.5304C56.2606 18.6836 56.1127 14.9937 55.883 11.4736Z" fill="#CCD9FD" stroke="#1C1C1C" stroke-width="0.5" stroke-miterlimit="10" stroke-linejoin="round"/>
<path d="M51.9764 16.0952C51.9764 17.0551 51.24 17.8561 50.2822 17.9183C48.1687 18.0553 45.9257 18.1344 43.5648 18.1319C41.2918 18.1294 39.1286 18.0511 37.0861 17.9184C36.1285 17.8562 35.3922 17.0553 35.3922 16.0957C35.3922 15.1357 36.1289 14.3346 37.0869 14.2727C39.1173 14.1413 41.2671 14.0628 43.5237 14.0586C45.8991 14.0553 48.1564 14.1344 50.2822 14.2723C51.2401 14.3344 51.9764 15.1354 51.9764 16.0952Z" fill="#4169E1" stroke="#1C1C1C" stroke-width="0.5" stroke-miterlimit="10" stroke-linejoin="round"/>
<path d="M27.5842 16.0952C27.5842 17.0551 26.8478 17.8561 25.8899 17.9183C23.7765 18.0553 21.5335 18.1344 19.1726 18.1319C16.8996 18.1294 14.7364 18.0511 12.6939 17.9184C11.7363 17.8562 11 17.0553 11 16.0957C11 15.1357 11.7367 14.3346 12.6947 14.2727C14.7251 14.1413 16.8749 14.0628 19.1315 14.0586C21.5069 14.0553 23.7642 14.1344 25.89 14.2723C26.8478 14.3344 27.5842 15.1354 27.5842 16.0952Z" fill="#4169E1" stroke="#1C1C1C" stroke-width="0.5" stroke-miterlimit="10" stroke-linejoin="round"/>
<path d="M51.9764 24.055C51.9764 25.0161 51.2416 25.8195 50.2828 25.8854C48.1647 26.0311 45.9068 26.1158 43.5237 26.1116C41.2593 26.1075 39.1093 26.0241 37.086 25.8851C36.1272 25.8193 35.3922 25.0159 35.3922 24.0549C35.3922 23.0939 36.1271 22.2906 37.0859 22.2247C39.1451 22.0831 41.3368 21.9991 43.6469 21.9983C45.9846 21.9975 48.2015 22.0815 50.2827 22.2246C51.2415 22.2905 51.9764 23.0939 51.9764 24.055Z" fill="#4169E1" stroke="#1C1C1C" stroke-width="0.5" stroke-miterlimit="10" stroke-linejoin="round"/>
<path d="M27.5842 24.055C27.5842 25.0161 26.8494 25.8195 25.8906 25.8854C23.7725 26.0311 21.5146 26.1158 19.1315 26.1116C16.8671 26.1075 14.7171 26.0241 12.6938 25.8851C11.735 25.8193 11 25.0159 11 24.0549C11 23.0939 11.7349 22.2906 12.6937 22.2247C14.7529 22.0831 16.9446 21.9991 19.2547 21.9983C21.5924 21.9975 23.8093 22.0815 25.8905 22.2246C26.8493 22.2905 27.5842 23.0939 27.5842 24.055Z" fill="#4169E1" stroke="#1C1C1C" stroke-width="0.5" stroke-miterlimit="10" stroke-linejoin="round"/>
<path d="M51.9764 32.0148C51.9764 32.9745 51.2401 33.7753 50.2824 33.8374C48.2185 33.9713 46.0302 34.0503 43.7291 34.0512C41.3953 34.052 39.1768 33.9729 37.0864 33.8374C36.1286 33.7753 35.3922 32.9744 35.3922 32.0146C35.3922 31.0547 36.1287 30.2538 37.0865 30.1917C39.1648 30.057 41.3695 29.9781 43.688 29.979C46.0034 29.979 48.2057 30.058 50.2818 30.1921C51.2397 30.254 51.9764 31.055 51.9764 32.0148Z" fill="#4169E1" stroke="#1C1C1C" stroke-width="0.5" stroke-miterlimit="10" stroke-linejoin="round"/>
<path d="M27.5842 32.0148C27.5842 32.9745 26.8478 33.7753 25.8902 33.8374C23.8263 33.9713 21.638 34.0503 19.3369 34.0512C17.0031 34.052 14.7846 33.9729 12.6942 33.8374C11.7364 33.7753 11 32.9744 11 32.0146C11 31.0547 11.7365 30.2538 12.6943 30.1917C14.7726 30.057 16.9773 29.9781 19.2958 29.979C21.6112 29.979 23.8135 30.058 25.8896 30.1921C26.8475 30.254 27.5842 31.055 27.5842 32.0148Z" fill="#4169E1" stroke="#1C1C1C" stroke-width="0.5" stroke-miterlimit="10" stroke-linejoin="round"/>
</g>
<defs>
<clipPath id="clip0_18011_2992">
<rect width="62" height="62" rx="5" fill="white"/>
</clipPath>
</defs>
</svg>
