<svg width="62" height="62" viewBox="0 0 62 62" fill="none" xmlns="http://www.w3.org/2000/svg">
<g clip-path="url(#clip0_18011_9096)">
<path d="M47.476 23.941C47.476 33.6383 39.5933 41.4997 29.8694 41.4997C20.1454 41.4997 11.5649 32.988 11.5649 23.2907C10.6207 6.93165 20.1454 6.38226 29.8694 6.38226C39.5933 6.38226 48.01 7.23167 47.476 23.941Z" fill="#A395CC" stroke="#1C1C1C" stroke-width="0.5" stroke-miterlimit="10"/>
<path d="M29.4544 37.9267C39.3704 37.9267 47.4088 29.6604 47.4088 19.4634C47.4088 9.26633 39.3704 1 29.4544 1C19.5385 1 11.5001 9.26633 11.5001 19.4634C11.5001 29.6604 19.5385 37.9267 29.4544 37.9267Z" fill="#E0D0F5" stroke="#1C1C1C" stroke-width="0.5" stroke-miterlimit="10"/>
<path d="M29.5003 33.7649C37.3112 33.7649 43.6432 27.3594 43.6432 19.4578C43.6432 11.5562 37.3112 5.1507 29.5003 5.1507C21.6895 5.1507 15.3575 11.5562 15.3575 19.4578C15.3575 27.3594 21.6895 33.7649 29.5003 33.7649Z" fill="#A395CC" stroke="#1C1C1C" stroke-width="0.5" stroke-miterlimit="10"/>
<path d="M33.791 16.5905C33.4828 16.4153 33.0866 16.4153 32.7343 16.5905L30.2689 18.0352L28.5959 18.9546L26.1744 20.3994C25.8663 20.5746 25.47 20.5746 25.1178 20.3994L23.2247 19.2611C22.9165 19.086 22.6964 18.7357 22.6964 18.3417V16.1526C22.6964 15.8024 22.8725 15.4521 23.2247 15.2332L25.1178 14.1387C25.426 13.9636 25.8222 13.9636 26.1744 14.1387L28.0676 15.277C28.3758 15.4521 28.5959 15.8024 28.5959 16.1964V17.6412L30.2689 16.678V15.1895C30.2689 14.8392 30.0928 14.489 29.7406 14.2701L26.2185 12.2123C25.9103 12.0372 25.514 12.0372 25.1618 12.2123L21.5517 14.3138C21.1995 14.489 21.0234 14.8392 21.0234 15.1895V19.3049C21.0234 19.6551 21.1995 20.0054 21.5517 20.2243L25.1178 22.282C25.426 22.4571 25.8222 22.4571 26.1744 22.282L28.5959 20.881L30.2689 19.9178L32.6903 18.5168C32.9985 18.3417 33.3947 18.3417 33.7469 18.5168L35.6401 19.6114C35.9483 19.7865 36.1684 20.1367 36.1684 20.5308V22.7198C36.1684 23.0701 35.9923 23.4203 35.6401 23.6392L33.791 24.7338C33.4828 24.9089 33.0866 24.9089 32.7343 24.7338L30.8412 23.6392C30.533 23.4641 30.3129 23.1139 30.3129 22.7198V21.3188L28.6399 22.282V23.7268C28.6399 24.0771 28.816 24.4273 29.1682 24.6462L32.7343 26.7039C33.0425 26.879 33.4388 26.879 33.791 26.7039L37.3571 24.6462C37.6653 24.4711 37.8854 24.1208 37.8854 23.7268V19.5676C37.8854 19.2173 37.7093 18.8671 37.3571 18.6482L33.791 16.5905Z" fill="white"/>
<path d="M8.55753 29.645C8.75348 27.513 10.4517 25.8413 12.5792 25.6629C24.1962 24.6673 35.8039 24.6673 47.4209 25.6629C49.5484 25.8413 51.2373 27.5037 51.4612 29.6356C52.3477 38.4076 52.3477 47.1796 51.4612 55.9609C51.2373 58.0929 49.5484 59.7552 47.4209 59.9337C35.8412 60.9386 24.2615 60.9386 12.6725 59.9337C10.5077 59.7458 8.80014 58.0271 8.61352 55.8482C7.84838 46.7851 7.7644 38.0225 8.55753 29.645Z" fill="#4169E1" stroke="#1C1C1C" stroke-width="0.5" stroke-linejoin="round"/>
<path d="M8.55753 26.2639C8.75348 24.1319 10.4517 22.4602 12.5792 22.2817C24.1962 21.2862 35.8039 21.2862 47.4209 22.2817C49.5484 22.4602 51.2373 24.1225 51.4612 26.2545C52.3477 35.0265 52.3477 43.7984 51.4612 52.5798C51.2373 54.7118 49.5484 56.3741 47.4209 56.5526C35.8412 57.5575 24.2615 57.5575 12.6725 56.5526C10.5077 56.3647 8.80014 54.646 8.61352 52.4671C7.84838 43.404 7.7644 34.6414 8.55753 26.2639Z" fill="#CCD9FD" stroke="#1C1C1C" stroke-width="0.5" stroke-linejoin="round"/>
<path d="M32.8554 40.4174C32.9488 36.3037 36.4292 33.0354 40.5162 32.9603C44.6684 32.8851 48.774 33.0823 53.0756 33.505C53.6541 37.5716 53.4768 41.9013 53.3462 47.4049C53.3369 47.9872 52.8797 48.4756 52.3105 48.5225C48.4568 48.8606 44.6871 48.9827 40.8987 48.8888C36.4105 48.7761 32.7528 44.9536 32.8554 40.4174Z" fill="#4169E1" stroke="#1C1C1C" stroke-width="0.5" stroke-linejoin="round"/>
<path d="M32.8555 37.6938C32.9488 33.5708 36.4386 30.3212 40.5255 30.2085C44.4445 30.1052 48.3542 30.2085 52.2639 30.556C52.9077 30.6124 53.4209 31.1477 53.4582 31.8051C53.7568 37.2524 53.7475 39.0181 53.5236 45.7145C49.3433 46.1277 45.107 46.278 40.8801 46.1746C36.3826 46.0619 32.7435 42.2395 32.8462 37.6938H32.8555Z" fill="#CCD9FD" stroke="#1C1C1C" stroke-width="0.5" stroke-linejoin="round"/>
<path d="M40.2173 41.2721C42.2478 41.2721 43.8937 39.6154 43.8937 37.5717C43.8937 35.5281 42.2478 33.8713 40.2173 33.8713C38.1869 33.8713 36.541 35.5281 36.541 37.5717C36.541 39.6154 38.1869 41.2721 40.2173 41.2721Z" fill="white" stroke="#1C1C1C" stroke-width="0.5" stroke-linejoin="round"/>
</g>
<defs>
<clipPath id="clip0_18011_9096">
<rect width="62" height="62" rx="5" fill="white"/>
</clipPath>
</defs>
</svg>
