<svg width="102" height="102" viewBox="0 0 102 102" fill="none" xmlns="http://www.w3.org/2000/svg">
<rect x="0.5" y="0.5" width="101" height="101" rx="4.5" stroke="#8A38F5" stroke-dasharray="10 5"/>
<path d="M71.6396 44.1647L50.8397 56.2593L29.8909 44.1647L50.6996 32.0789L71.6396 44.1647Z" fill="#1C1C1C" stroke="#1C1C1C" stroke-width="0.5" stroke-linecap="round" stroke-linejoin="round"/>
<path d="M66.1555 40.9766C66.1555 49.0251 59.5345 55.5584 51.3634 55.5584C43.1924 55.5584 35.9846 48.4908 35.9846 40.4424C35.1877 26.8589 43.1924 26.4035 51.3634 26.4035C59.5345 26.4035 66.6021 27.1129 66.1555 40.9853V40.9766Z" fill="#637DEB" stroke="#1C1C1C" stroke-width="0.5" stroke-miterlimit="10"/>
<path d="M51.0251 51.6614C59.3539 51.6614 66.1062 44.7952 66.1062 36.3264C66.1062 27.8575 59.3539 21.0001 51.0251 21.0001C42.6964 21.0001 35.9441 27.8663 35.9441 36.3351C35.9441 44.804 42.6964 51.6701 51.0251 51.6701V51.6614Z" fill="#CCD9FD" stroke="#1C1C1C" stroke-width="0.5" stroke-miterlimit="10"/>
<path d="M51.0585 48.202C57.6181 48.202 62.9342 42.886 62.9342 36.3263C62.9342 29.7667 57.6181 24.4419 51.0585 24.4419C44.4989 24.4419 39.1741 29.7579 39.1741 36.3263C39.1741 42.8947 44.4901 48.202 51.0585 48.202Z" fill="#637DEB" stroke="#1C1C1C" stroke-width="0.5" stroke-miterlimit="10"/>
<path d="M51.5064 38.8243C51.1164 39.0497 50.6484 39.0497 50.2585 38.8243L46.8007 36.8485C46.2201 36.5192 46.0035 35.7912 46.3068 35.1933L49.8078 28.2952C50.2758 27.3679 51.6104 27.3852 52.061 28.3212L55.3887 35.2626C55.6747 35.8519 55.4494 36.5625 54.8775 36.8918L51.5064 38.8157V38.8243Z" fill="white"/>
<path d="M51.3186 40.2188C50.9373 40.4268 50.4693 40.4268 50.0967 40.2102L47.3236 38.6243C46.7343 38.2863 46.1017 38.9969 46.509 39.5429L49.7154 43.9105C50.2094 44.5865 51.2146 44.5952 51.7259 43.9279L55.097 39.5169C55.513 38.9796 54.889 38.2603 54.2997 38.5896L51.3273 40.2188H51.3186Z" fill="white"/>
<path d="M71.6416 44.1643L71.554 68.0995L50.7454 80.1854L50.8417 56.2589L71.6416 44.1643Z" fill="#FFE2C8" stroke="#1C1C1C" stroke-width="0.5" stroke-linejoin="round"/>
<path d="M50.8401 56.2589L50.7438 80.1854L29.8037 68.0995L29.8913 44.1643L50.8401 56.2589Z" fill="#FFE2C8" stroke="#1C1C1C" stroke-width="0.5" stroke-linejoin="round"/>
<path d="M50.8396 56.2589L42.94 65.5598L22 53.4652L29.8908 44.1643L50.8396 56.2589Z" fill="#FFE2C8" stroke="#1C1C1C" stroke-width="0.5" stroke-linejoin="round"/>
<path d="M50.6118 56.2589L59.1507 66.8559L80.0995 54.7701L71.5519 44.1643L50.6118 56.2589Z" fill="#FFE2C8" stroke="#1C1C1C" stroke-width="0.5" stroke-linejoin="round"/>
</svg>
