<svg width="102" height="102" viewBox="0 0 102 102" fill="none" xmlns="http://www.w3.org/2000/svg">
<rect x="0.5" y="0.5" width="101" height="101" rx="4.5" stroke="#9747FF" stroke-dasharray="10 5"/>
<path d="M75.9666 53.8629C75.9666 67.3314 65.0185 78.25 51.5129 78.25C38.0074 78.25 26.09 66.4281 26.09 52.9596C24.7787 30.2388 38.0074 29.4757 51.5129 29.4757C65.0185 29.4757 76.7082 30.6554 75.9666 53.8629Z" fill="#2AA5A5" stroke="#1C1C1C" stroke-width="0.5" stroke-miterlimit="10"/>
<path d="M50.9366 74.2872C64.7088 74.2872 75.8733 62.8061 75.8733 48.6436C75.8733 34.481 64.7088 23 50.9366 23C37.1645 23 26 34.481 26 48.6436C26 62.8061 37.1645 74.2872 50.9366 74.2872Z" fill="#E6F7F4" stroke="#1C1C1C" stroke-width="0.5" stroke-miterlimit="10"/>
<path d="M51.0003 68.5064C61.8488 68.5064 70.6432 59.6099 70.6432 48.6354C70.6432 37.661 61.8488 28.7644 51.0003 28.7644C40.1518 28.7644 31.3574 37.661 31.3574 48.6354C31.3574 59.6099 40.1518 68.5064 51.0003 68.5064Z" fill="#2AA5A5" stroke="#1C1C1C" stroke-width="0.5" stroke-miterlimit="10"/>
<path d="M34.9688 32.8362C36.1376 33.2636 37.0802 33.6155 38.0103 33.9674C39.3299 34.4575 39.3299 36.3176 38.0103 36.8078C37.0677 37.1597 36.1251 37.5116 34.9688 37.9389C34.554 38.0897 34.2147 38.429 34.0513 38.8438C33.624 40.0126 33.2721 40.9552 32.9202 41.8853C32.43 43.2049 30.57 43.2049 30.0798 41.8853C29.7279 40.9427 29.376 40.0001 28.9487 38.8438C28.7979 38.429 28.4585 38.0897 28.0312 37.9263C26.8624 37.499 25.9198 37.1471 24.9897 36.7952C23.6701 36.305 23.6701 34.445 24.9897 33.9548C25.9323 33.6029 26.8749 33.251 28.0312 32.8237C28.446 32.6729 28.7853 32.3335 28.9361 31.9062C29.3634 30.7374 29.7153 29.7948 30.0672 28.8647C30.5574 27.5451 32.4175 27.5451 32.9076 28.8647C33.2595 29.8073 33.6114 30.7499 34.0388 31.9062C34.1896 32.321 34.5289 32.6603 34.9437 32.8237L34.9688 32.8362Z" fill="white" stroke="black" stroke-width="0.5" stroke-linejoin="round"/>
<path d="M74.0438 69.5132C74.9009 69.8266 75.5922 70.0847 76.2742 70.3427C77.2419 70.7022 77.2419 72.0662 76.2742 72.4257C75.583 72.6838 74.8917 72.9418 74.0438 73.2552C73.7396 73.3658 73.4908 73.6146 73.371 73.9188C73.0576 74.7759 72.7995 75.4672 72.5415 76.1492C72.182 77.1169 70.818 77.1169 70.4585 76.1492C70.2005 75.4579 69.9424 74.7667 69.629 73.9188C69.5184 73.6146 69.2696 73.3658 68.9562 73.246C68.0991 72.9326 67.4078 72.6745 66.7258 72.4165C65.7581 72.057 65.7581 70.693 66.7258 70.3335C67.4171 70.0755 68.1083 69.8174 68.9562 69.504C69.2604 69.3934 69.5092 69.1446 69.6198 68.8312C69.9332 67.9741 70.1912 67.2828 70.4493 66.6008C70.8088 65.6331 72.1728 65.6331 72.5323 66.6008C72.7903 67.2921 73.0484 67.9833 73.3618 68.8312C73.4724 69.1354 73.7212 69.3842 74.0253 69.504L74.0438 69.5132Z" fill="white" stroke="black" stroke-width="0.5" stroke-linejoin="round"/>
<path d="M60.7832 40.6805L63.1777 43.0917L63.3477 43.2626L63.1826 43.4393L50.1162 57.3895L50.1318 57.4052L49.9648 57.579L49.0156 58.5653L48.9102 58.6786L48.7334 58.868L48.7285 58.8632L47.6084 60.0292L47.4277 60.2167L47.248 60.0292L37.8193 50.2255L37.6533 50.0516L37.8193 49.8788L40.1768 47.4276L40.3574 47.2401L40.5371 47.4276L47.4111 54.577L60.4229 40.6854L60.6006 40.496L60.7832 40.6805Z" fill="white" stroke="black" stroke-width="0.5"/>
</svg>
