<svg width="102" height="102" viewBox="0 0 102 102" fill="none" xmlns="http://www.w3.org/2000/svg">
<rect x="0.5" y="0.5" width="101" height="101" rx="4.5" stroke="#9747FF" stroke-dasharray="10 5"/>
<path d="M76.1483 66.0537C59.3806 65.9864 42.6213 65.9864 25.8537 66.0537C23.6169 68.4586 22.5321 69.6527 20.5896 72.0409C40.8638 72.0409 61.1381 72.0409 81.4039 72.0409C79.4614 69.6527 78.3767 68.4586 76.1399 66.0537H76.1483Z" fill="#E8EDFA" stroke="#1C1C1C" stroke-width="0.5" stroke-linejoin="round"/>
<path d="M78.3175 77.1452C60.1034 77.2293 41.8978 77.2293 23.6838 77.1452C22.1449 77.1452 20.7154 75.867 20.6397 74.3365C20.5893 73.4199 20.5809 72.9575 20.5893 72.0409C40.8635 72.0409 61.1377 72.0409 81.4036 72.0409C81.412 72.9575 81.4036 73.4199 81.3531 74.3365C81.2774 75.867 79.8479 77.1368 78.309 77.1452H78.3175Z" fill="#CCD9FD" stroke="#1C1C1C" stroke-width="0.5" stroke-linejoin="round"/>
<path d="M76.1244 66.0874C59.3735 66.3986 42.6311 66.3986 25.8802 66.0874C25.4934 55.0631 25.4598 44.0809 25.7793 33.0566C25.8298 31.6271 27.0323 30.4498 28.4618 30.4246C43.4888 30.1807 58.5074 30.1807 73.5344 30.4246C74.9639 30.4498 76.1664 31.6355 76.2169 33.0566C76.5364 44.0809 76.5028 55.0631 76.116 66.0874H76.1244Z" fill="#CCD9FD" stroke="#1C1C1C" stroke-width="0.5" stroke-linejoin="round"/>
<path d="M44.3728 56.9382L46.1555 51.3209L67.8088 49.8157L68.3554 45.4262L72.0218 45.216C72.0049 41.6337 71.9713 38.0598 71.8956 34.4776C57.9702 34.3178 44.0448 34.3178 30.1194 34.4776C29.926 43.6855 29.926 52.8766 30.1194 62.0845C32.516 62.1098 34.9042 62.1266 37.3008 62.1434L39.8487 58.3089L44.3728 56.9382Z" fill="#4169E1" stroke="#1C1C1C" stroke-width="0.5" stroke-linejoin="round"/>
<path d="M68.354 45.4263L67.8074 49.8158L46.1541 51.321L44.3713 56.9383L39.8473 58.3089L37.2993 62.1435C48.8281 62.2276 60.357 62.2107 71.8942 62.0846C72.0119 56.4589 72.054 50.8333 72.0203 45.216L68.354 45.4263Z" fill="#FF9500" stroke="#1C1C1C" stroke-width="0.5" stroke-miterlimit="10"/>
<path d="M57.8244 68.711C63.551 68.711 68.2012 63.9936 68.2012 58.1661C68.2012 52.3386 63.551 47.6211 57.8244 47.6211C52.0979 47.6211 47.4561 52.3386 47.4561 58.1661C47.4561 63.9936 52.0979 68.711 57.8244 68.711Z" fill="#FFE2C8" stroke="#1C1C1C" stroke-width="0.5" stroke-miterlimit="10"/>
<path d="M57.8581 66.3398C62.3737 66.3398 66.0317 62.6818 66.0317 58.1661C66.0317 53.6505 62.3737 49.9925 57.8581 49.9925C53.3424 49.9925 49.6929 53.6505 49.6929 58.1661C49.6929 62.6818 53.3508 66.3398 57.8581 66.3398Z" fill="#FF9500" stroke="#1C1C1C" stroke-width="0.5" stroke-miterlimit="10"/>
<path d="M61.6933 55.7359C61.7858 56.6861 61.399 57.2579 60.802 57.5775C61.8026 57.8298 62.4249 58.4436 62.2988 59.8395C62.139 61.5634 60.9197 62.0427 59.1706 62.1436V63.4386C59.1706 63.7245 58.9351 63.96 58.6492 63.96C58.3633 63.96 58.1279 63.7245 58.1279 63.4386V62.1688C57.8588 62.1688 57.5813 62.1688 57.2954 62.152V63.4302C57.2954 63.7161 57.0683 63.9515 56.774 63.9515C56.4797 63.9515 56.2527 63.7161 56.2527 63.4302V62.1352C56.0088 62.1352 55.7649 62.1184 55.5127 62.1184H54.9072C54.512 62.1184 54.2093 61.7652 54.2765 61.37V61.3531C54.3354 61.042 54.6129 60.815 54.924 60.815C55.1342 60.815 55.1258 60.815 55.1258 60.815C55.4202 60.815 55.4874 60.5963 55.5127 60.445V57.5775V55.5173C55.4706 55.2986 55.3277 55.0295 54.9072 55.0295C54.9072 55.0295 54.9072 55.0295 54.7306 55.0295C54.4111 55.0295 54.1504 54.7689 54.1504 54.4493C54.1504 54.1298 54.4027 53.8691 54.7306 53.8691H56.2611V52.5909C56.2611 52.305 56.4881 52.0695 56.7824 52.0695C57.0767 52.0695 57.3038 52.305 57.3038 52.5909V53.8355C57.5813 53.8355 57.8504 53.8186 58.1363 53.8186V52.5909C58.1363 52.305 58.3633 52.0695 58.6576 52.0695C58.952 52.0695 59.179 52.305 59.179 52.5909V53.8691C60.516 53.9868 61.5924 54.4157 61.7017 55.7275L61.6933 55.7359ZM60.2217 59.6293C60.2217 58.225 58.0101 58.4268 57.3038 58.4268V60.8318C58.0101 60.8318 60.2217 61 60.2217 59.6293ZM59.7508 56.2404C59.7508 54.9454 57.9008 55.1389 57.3038 55.1389V57.3252C57.9008 57.3252 59.7508 57.4682 59.7508 56.2404Z" fill="white"/>
<path d="M60.3736 43.2231C60.3736 43.2231 55.8495 36.4874 53.4529 36.706L51.8552 36.5126L48.4411 33.0986L48.2477 31.5008C48.4664 29.1043 41.7307 24.5886 41.7307 24.5886C45.2121 24.9418 49.1139 27.1029 52.4523 30.0797C53.3016 30.8365 54.1173 31.6522 54.8741 32.5015C57.8509 35.8399 60.012 39.7417 60.3652 43.2231H60.3736Z" fill="#1C1C1C" stroke="#1C1C1C" stroke-width="0.5" stroke-linejoin="round"/>
<path d="M56.4446 30.9374L54.8806 32.5015C54.1237 31.6521 53.3081 30.8365 52.4587 30.0796L54.0228 28.5156L56.4446 30.9374Z" fill="#FFE2C8" stroke="#1C1C1C" stroke-width="0.5" stroke-miterlimit="10"/>
<path d="M48.9406 33.6022L33.2131 49.3296L35.6332 51.7497L51.3606 36.0222L48.9406 33.6022Z" fill="#FFE2C8" stroke="#1C1C1C" stroke-width="0.5" stroke-miterlimit="10"/>
</svg>
