<svg width="62" height="62" viewBox="0 0 62 62" fill="none" xmlns="http://www.w3.org/2000/svg">
<g clip-path="url(#clip0_18011_8685)">
<path d="M48.4054 40.0527C47.3675 38.6774 45.456 38.3055 43.9856 39.205L32.1533 46.4359C32.1101 47.0846 32.0668 47.7246 32.0063 48.3733C31.8247 50.4492 31.5652 52.5164 31.3057 54.5836C31.2452 55.042 31.1933 55.509 31.1414 55.9674C33.3642 54.8257 35.3363 53.4764 35.3363 53.4764L47.6529 44.7925C49.1925 43.7027 49.5298 41.5577 48.4054 40.0527Z" fill="#F0F0F5" stroke="#1C1C1C" stroke-width="0.5" stroke-linejoin="round"/>
<path d="M53.2751 40.1046C52.2371 38.7294 50.3256 38.3574 48.8552 39.257L37.023 46.4878C36.9797 47.1365 36.9365 47.7766 36.8759 48.4253C36.6943 50.5011 36.4348 52.5683 36.1753 54.6355C36.1148 55.0939 36.0629 55.561 36.011 56.0194C38.2339 54.8777 40.2059 53.5284 40.2059 53.5284L52.5226 44.8444C54.0621 43.7546 54.3995 41.6096 53.2751 40.1046Z" fill="#F0F0F5" stroke="#1C1C1C" stroke-width="0.5" stroke-linejoin="round"/>
<path d="M44.5391 53.5457C43.8385 53.9781 43.112 54.3414 42.3422 54.6182C40.7421 55.2063 37.9224 56.1664 35.8984 56.3913C21.9125 57.9568 17.0602 54.8863 17.0602 54.8863L12.6404 54.7306V39.9489H15.7714C15.7714 39.9489 18.3057 38.0115 21.1427 38.0115H25.3117C27.4826 38.0115 29.5844 38.8332 31.1759 40.3035L39.9377 48.3907L52.8165 40.5198C54.1312 39.7154 55.8697 39.8278 56.9769 40.909C58.5164 42.414 58.2656 44.8617 56.579 46.0554L44.5305 53.5543L44.5391 53.5457Z" fill="#F0F0F5" stroke="#1C1C1C" stroke-width="0.5" stroke-linejoin="round"/>
<path d="M2.89268 38.5392C2.78024 47.4567 2.78024 51.9197 2.89268 60.8372C7.05301 61.0448 9.1375 61.0448 13.3065 60.8372C13.4189 51.9197 13.4103 47.4567 13.3065 38.5392C9.14615 38.3316 7.06166 38.3316 2.89268 38.5392Z" fill="#96949C" stroke="#1C1C1C" stroke-width="0.5" stroke-linecap="round" stroke-linejoin="round"/>
<path d="M26.0642 53.5371L39.3495 48.9097C39.3495 48.9097 41.14 47.4134 39.3495 45.6229C37.5591 43.8325 34.1253 43.8325 32.7847 44.4293C31.4441 45.0261 28.7541 45.4759 27.7075 45.6229C26.661 45.77 23.0801 43.0887 20.3902 43.0887C17.7003 43.0887 16.3596 43.6855 16.3596 43.6855" fill="#F0F0F5"/>
<path d="M29.1262 50.0082L39.3583 48.9011C39.3583 48.9011 41.1487 47.4047 39.3583 45.6143C37.5679 43.8239 34.1341 43.8239 32.7935 44.4207C31.4528 45.0175 28.7629 45.4673 27.7163 45.6143C26.6698 45.7614 23.0889 43.0801 20.399 43.0801C17.7091 43.0801 16.3684 43.6769 16.3684 43.6769" stroke="#1C1C1C" stroke-width="0.5" stroke-linecap="round" stroke-linejoin="round"/>
<path d="M52.6993 25.605C52.6993 35.3452 44.7818 43.2414 35.0149 43.2414C25.248 43.2414 16.6295 34.692 16.6295 24.9519C15.6812 8.52057 25.248 7.96875 35.0149 7.96875C44.7818 7.96875 53.2356 8.82191 52.6993 25.605Z" fill="#434248" stroke="#1C1C1C" stroke-width="0.5" stroke-miterlimit="10"/>
<path d="M34.5981 39.6523C44.5579 39.6523 52.6318 31.3495 52.6318 21.1074C52.6318 10.8653 44.5579 2.56244 34.5981 2.56244C24.6384 2.56244 16.5645 10.8653 16.5645 21.1074C16.5645 31.3495 24.6384 39.6523 34.5981 39.6523Z" fill="#96949C" stroke="#1C1C1C" stroke-width="0.5" stroke-miterlimit="10"/>
<path d="M34.6441 35.4717C42.4894 35.4717 48.8494 29.0379 48.8494 21.1014C48.8494 13.1649 42.4894 6.73108 34.6441 6.73108C26.7987 6.73108 20.4387 13.1649 20.4387 21.1014C20.4387 29.0379 26.7987 35.4717 34.6441 35.4717Z" fill="#434248" stroke="#1C1C1C" stroke-width="0.5" stroke-miterlimit="10"/>
<path d="M44.6267 18.632L43.9285 18.9855C43.3449 19.2841 42.9951 19.8997 43.0457 20.5568C43.064 20.7727 43.0691 20.9932 43.0691 21.2091C43.0691 22.3531 42.8441 23.4653 42.4031 24.5128C41.9758 25.5237 41.3641 26.429 40.5876 27.2101C39.8111 27.9912 38.9016 28.6031 37.8953 29.0304C36.8522 29.4715 35.7396 29.6964 34.5955 29.6964C33.4515 29.6964 32.3441 29.4714 31.2966 29.0304C30.7361 28.7915 30.203 28.4928 29.7068 28.1437L31.113 27.4269L31.1677 27.3986C32.2061 27.9775 33.3917 28.2852 34.5955 28.2853H34.6462C35.5698 28.2807 36.471 28.0968 37.321 27.7384C38.1709 27.38 38.9334 26.8702 39.5857 26.2179C40.9183 24.8853 41.6541 23.1068 41.6541 21.2228C41.654 20.9151 41.6358 20.6027 41.5945 20.295L41.5798 20.1984L41.4929 20.2443L29.7429 26.2228L27.3123 27.463L24.5691 28.8605V27.2706L27.3953 25.8273L28.7878 25.1193L44.6267 17.0411V18.632ZM34.6003 12.506C35.7443 12.506 36.8517 12.731 37.8992 13.172C38.4552 13.4063 38.9888 13.7056 39.4851 14.0548L39.3796 14.1095L38.0193 14.8038C36.9808 14.2249 35.7997 13.921 34.6003 13.921H34.5457C33.6221 13.9302 32.7209 14.1141 31.8708 14.4679C31.0208 14.8263 30.2577 15.3369 29.6052 15.9894C28.2728 17.3265 27.5378 19.1006 27.5378 20.9845C27.5379 21.2921 27.5561 21.5997 27.5974 21.9073L27.6111 22.004L27.699 21.9581L39.4392 15.9708L41.8699 14.7306L44.6218 13.3243V14.9142L41.7869 16.3615L40.3943 17.0695L28.0203 23.3868L27.9646 23.4191L27.3308 23.7413L26.6873 24.0675V24.0626L26.6277 24.09L24.5691 25.1427V23.5529L25.2673 23.1993C25.8509 22.9007 26.2007 22.2842 26.1501 21.6271C26.1364 21.4113 26.1267 21.1954 26.1267 20.9796C26.1267 19.8355 26.3526 18.7235 26.7937 17.6759C27.221 16.6651 27.8317 15.7597 28.6082 14.9786C29.3847 14.2021 30.2906 13.5857 31.3015 13.1583C32.3445 12.7311 33.4563 12.506 34.6003 12.506Z" fill="white"/>
</g>
<defs>
<clipPath id="clip0_18011_8685">
<rect width="62" height="62" rx="5" fill="white"/>
</clipPath>
</defs>
</svg>
