<svg width="62" height="62" viewBox="0 0 62 62" fill="none" xmlns="http://www.w3.org/2000/svg">
<g clip-path="url(#clip0_18011_8580)">
<path d="M30.5 9.28868C30.8094 9.11004 31.1906 9.11004 31.5 9.28868L52.1506 21.2113C52.46 21.39 52.6506 21.7201 52.6506 22.0774V45.9227C52.6506 46.2799 52.46 46.61 52.1506 46.7887L31.5 58.7113C31.1906 58.89 30.8094 58.89 30.5 58.7113L9.84936 46.7887C9.53996 46.61 9.34937 46.2799 9.34937 45.9227V22.0774C9.34937 21.7201 9.53996 21.39 9.84937 21.2113L30.5 9.28868Z" fill="#E8EDFA" stroke="#1C1C1C" stroke-width="0.5" stroke-miterlimit="10"/>
<path d="M30.5 3.28868C30.8094 3.11004 31.1906 3.11004 31.5 3.28868L52.1506 15.2113C52.46 15.39 52.6506 15.7201 52.6506 16.0774V39.9227C52.6506 40.2799 52.46 40.61 52.1506 40.7887L31.5 52.7113C31.1906 52.89 30.8094 52.89 30.5 52.7113L9.84936 40.7887C9.53996 40.61 9.34937 40.2799 9.34937 39.9227V16.0774C9.34937 15.7201 9.53996 15.39 9.84937 15.2113L30.5 3.28868Z" fill="#4169E1" stroke="#1C1C1C" stroke-width="0.5" stroke-miterlimit="10"/>
<path d="M31 8L48.3205 18V38L31 48L13.6795 38V18L31 8Z" fill="#E8EDFA" stroke="#1C1C1C" stroke-width="0.5" stroke-linejoin="round"/>
<mask id="mask0_18011_8580" style="mask-type:alpha" maskUnits="userSpaceOnUse" x="13" y="7" width="36" height="42">
<path d="M31 8L48.3205 18V38L31 48L13.6795 38V18L31 8Z" fill="#E8EDFA" stroke="#1C1C1C" stroke-width="0.5" stroke-linejoin="round"/>
</mask>
<g mask="url(#mask0_18011_8580)">
<path d="M41 46C31.406 46.0204 37 57.5 13 40.9212C17.7013 33.7996 20.1376 30.2031 24.9698 23C29.7819 30.1929 32.2181 33.7996 37 40.9823L41 46Z" fill="#FFE2C8" stroke="#1C1C1C" stroke-width="0.5" stroke-linecap="round" stroke-linejoin="round"/>
<path d="M49.5 44.5C42.5 49.0622 30.298 51.5 23.5 51.5C26.904 46.3 37.1211 33.2 40.5452 28C43.9592 33.1896 47.6663 37.3518 51 42.5L49.5 44.5Z" fill="#FFE2C8" stroke="#1C1C1C" stroke-width="0.5" stroke-linecap="round" stroke-linejoin="round"/>
<path d="M39 20.01C39 17.8045 37.1932 16.01 34.995 16C32.7867 16 31 17.7945 31 20C31 22.2055 32.7967 24 35.005 24C37.2133 24 39 22.2256 39 20.01Z" fill="#FF9500" stroke="#1C1C1C" stroke-width="0.5" stroke-miterlimit="10"/>
</g>
<path d="M31 8L48.3205 18V38L31 48L13.6795 38V18L31 8Z" stroke="#1C1C1C" stroke-width="0.5" stroke-linejoin="round"/>
<path d="M38.4392 48.8641L57.4783 51.1307C57.9371 51.1855 58.3402 51.4507 58.572 51.8417L58.6599 52.0175L61.1667 57.9188C61.6033 58.9469 60.7816 60.0686 59.6697 59.9618L33.7253 57.4696C32.5707 57.3582 31.9915 56.0175 32.7019 55.1005L37.0994 49.4237C37.4161 49.0149 37.9253 48.803 38.4392 48.8641Z" fill="#E84142" stroke="black" stroke-width="0.5"/>
<path d="M47.7773 33.9023C48.4726 32.9274 49.9631 33.0708 50.46 34.1602L59.9912 55.0615C60.4881 56.1512 59.6187 57.3703 58.4268 57.2559L35.5596 55.0596C34.368 54.9447 33.7472 53.5825 34.4424 52.6074L47.7773 33.9023Z" fill="#FCD7CC" stroke="black" stroke-width="0.5"/>
<path d="M11.5286 3.29956C11.8339 2.77068 12.5104 2.58913 13.0393 2.89429L17.1497 5.26733C17.6786 5.57273 17.8603 6.2491 17.5549 6.77808L15.5208 10.3015C15.0773 11.0696 15.3405 12.0514 16.1086 12.4949L19.6321 14.5291C20.1609 14.8345 20.3416 15.5109 20.0364 16.0398L17.6633 20.1501C17.3579 20.6791 16.6816 20.8608 16.1526 20.5554L12.6292 18.5212C11.861 18.0778 10.8793 18.341 10.4358 19.1091L8.40161 22.6316C8.09608 23.1602 7.41971 23.3412 6.89087 23.0359L2.78052 20.6628C2.25183 20.3573 2.07089 19.681 2.37622 19.1521L4.40942 15.6296C4.85291 14.8615 4.58967 13.8798 3.82153 13.4363L0.299072 11.4021C-0.229565 11.0966 -0.410548 10.4202 -0.105225 9.89136L2.26782 5.78101C2.57331 5.25222 3.24966 5.07135 3.77856 5.37671L7.30103 7.40991C8.06916 7.85339 9.0509 7.59016 9.49438 6.82202L11.5286 3.29956Z" fill="#A395CC" stroke="black" stroke-width="0.5"/>
<path d="M12.936 0.689941C13.2414 0.161025 13.9178 -0.0205704 14.4468 0.284668L18.5571 2.65771C19.0861 2.9631 19.2677 3.63949 18.9624 4.16846L16.9282 7.69189C16.4848 8.46003 16.748 9.44178 17.5161 9.88525L21.0386 11.9194C21.5672 12.225 21.7482 12.9013 21.4429 13.4302L19.0698 17.5405C18.7643 18.0693 18.088 18.2502 17.5591 17.9448L14.0366 15.9116C13.2685 15.4681 12.2867 15.7314 11.8433 16.4995L9.80908 20.022C9.50356 20.5507 8.8272 20.7316 8.29834 20.4263L4.18799 18.0532C3.65923 17.7477 3.47834 17.0714 3.78369 16.5425L5.81689 13.02C6.26037 12.2519 5.99713 11.2701 5.229 10.8267L1.70557 8.79248C1.17685 8.48705 0.996107 7.81061 1.30127 7.28174L3.67432 3.17139C3.97971 2.64244 4.65609 2.4608 5.18506 2.76611L8.7085 4.80029C9.47662 5.24374 10.4584 4.98052 10.9019 4.2124L12.936 0.689941Z" fill="#E0D0F5" stroke="black" stroke-width="0.5"/>
</g>
<defs>
<clipPath id="clip0_18011_8580">
<rect width="62" height="62" rx="5" fill="white"/>
</clipPath>
</defs>
</svg>
