<svg width="62" height="62" viewBox="0 0 62 62" fill="none" xmlns="http://www.w3.org/2000/svg">
<g clip-path="url(#clip0_18011_5948)">
<path d="M60.1104 23.0928C60.3311 33.0941 60.2523 42.9378 59.874 52.9312C52.5365 53.2543 48.8717 53.3568 41.5343 53.4119C41.3767 54.0424 41.29 54.3577 41.1323 54.9882C38.5394 55.0039 37.239 55.0039 34.6461 54.9882C34.4884 54.3577 34.4018 54.0424 34.2441 53.4119C26.9146 53.3568 23.2498 53.2622 15.9045 52.9312C15.5262 42.9378 15.4474 33.0941 15.668 23.0928C30.4927 22.746 45.2779 22.746 60.0946 23.0928H60.1104Z" fill="#1C1C1C" stroke="#1C1C1C" stroke-width="0.5" stroke-linejoin="round"/>
<path d="M60.0382 19.8588C60.314 29.8601 60.2825 39.7038 59.9594 49.6972C52.5904 49.9888 48.9099 50.0834 41.5488 50.1307C41.3833 50.7612 41.3045 51.0764 41.1468 51.7069C38.546 51.7227 37.2378 51.7227 34.6369 51.7069C34.4793 51.0764 34.3926 50.7612 34.235 50.1307C26.8739 50.0834 23.1934 49.9888 15.8244 49.6972C15.5013 39.7038 15.4697 29.8522 15.7456 19.8588C30.5229 19.4647 45.2609 19.4647 60.0382 19.8588Z" fill="#4169E1" stroke="#1C1C1C" stroke-width="0.5" stroke-linejoin="round"/>
<path d="M37.8905 48.1998C30.5216 46.4975 26.5258 45.7645 19.212 47.2225C18.9677 37.1818 19.0228 27.2909 19.3696 17.258C26.7701 15.3192 30.561 15.9261 37.8905 17.6285C37.8905 27.8189 37.8905 38.0094 37.8905 48.1998Z" fill="white" stroke="#1C1C1C" stroke-width="0.5" stroke-linecap="round" stroke-linejoin="round"/>
<path d="M56.5755 47.2225C49.2617 45.7645 45.2581 46.4975 37.897 48.1998V17.6285C45.2265 15.9261 49.0174 15.3192 56.4179 17.258C56.7647 27.2909 56.8199 37.1897 56.5755 47.2225Z" fill="white" stroke="#1C1C1C" stroke-width="0.5" stroke-linecap="round" stroke-linejoin="round"/>
<path d="M37.8905 48.1998C30.5216 46.4975 26.5258 45.7645 19.212 47.2225C18.9677 37.1818 19.0228 27.2909 19.3696 17.258C26.7701 15.3192 30.561 15.9261 37.8905 17.6285C37.8905 27.8189 37.8905 38.0094 37.8905 48.1998Z" fill="white" stroke="#1C1C1C" stroke-width="0.5" stroke-linecap="round" stroke-linejoin="round"/>
<path d="M56.5755 47.2225C49.2617 45.7645 45.2581 46.4975 37.897 48.1998V17.6285C45.2265 15.9261 49.0174 15.3192 56.4179 17.258C56.7647 27.2909 56.8199 37.1897 56.5755 47.2225Z" fill="white" stroke="#1C1C1C" stroke-width="0.5" stroke-linecap="round" stroke-linejoin="round"/>
<path d="M50.7906 30.7714C49.4193 29.668 48.7336 29.1084 47.3623 27.9972C46.0067 29.0926 45.3289 29.6443 43.9733 30.7477C43.9654 27.3273 43.9497 25.6249 43.9103 22.2044C43.8787 19.2647 43.8551 17.7988 43.8078 14.8591C46.4638 14.8907 47.7878 14.9222 50.4517 14.9931C50.562 17.9092 50.6014 19.3672 50.6724 22.2832C50.7512 25.6722 50.7748 27.3745 50.7985 30.7635L50.7906 30.7714Z" fill="#FF007A" stroke="#1C1C1C" stroke-width="0.5" stroke-linejoin="round"/>
<path d="M34.2333 50.1339L34.651 54.9887" stroke="#1C1C1C" stroke-width="0.5" stroke-linecap="round" stroke-linejoin="round"/>
<path d="M41.4117 50.1339L40.994 54.9887" stroke="#1C1C1C" stroke-width="0.5" stroke-linecap="round" stroke-linejoin="round"/>
<path d="M32.7226 28.1695C32.7226 36.2951 26.0393 42.8838 17.7955 42.8838C9.5517 42.8838 2.27733 35.7513 2.27733 27.6257C1.47344 13.9202 9.5517 13.4552 17.7955 13.4552C26.0393 13.4552 33.1718 14.1645 32.7226 28.1695Z" fill="#FF007A" stroke="#1C1C1C" stroke-width="0.5" stroke-linejoin="round"/>
<path d="M17.4406 38.9418C25.8499 38.9418 32.6593 32.0142 32.6593 23.4709C32.6593 14.9276 25.842 8 17.4406 8C9.0392 8 2.22192 14.9276 2.22192 23.4709C2.22192 32.0142 9.0392 38.9418 17.4406 38.9418Z" fill="#FF99CA" stroke="#1C1C1C" stroke-width="0.5" stroke-linejoin="round"/>
<path d="M17.4789 35.4596C24.0991 35.4596 29.4663 30.0925 29.4663 23.4723C29.4663 16.852 24.0991 11.4849 17.4789 11.4849C10.8586 11.4849 5.49152 16.852 5.49152 23.4723C5.49152 30.0925 10.8586 35.4596 17.4789 35.4596Z" fill="#FF007A" stroke="#1C1C1C" stroke-width="0.5" stroke-linejoin="round"/>
<path d="M23.8145 26.1616C23.5859 27.0364 23.6332 27.927 23.2155 28.7466C22.9712 29.2195 22.5535 29.7318 22.2697 29.7318C22.1042 29.716 22.1279 29.3377 22.0727 28.9042C21.9703 28.0294 21.2215 27.0758 20.8117 26.335C20.4492 25.6887 20.4255 24.8927 20.1654 24.2386C19.4719 22.8278 18.1242 20.7629 16.7056 19.1315C16.5007 18.9108 16.1933 18.4852 16.2406 18.2646C16.343 17.8784 16.942 18.1779 17.1942 18.2882C17.8878 18.6901 18.731 18.7453 19.401 19.163C19.9054 19.5807 20.4334 19.959 20.8511 20.5028C21.0166 20.7235 21.1506 21.0072 21.3713 21.1727C21.9308 21.5116 22.4668 20.8969 22.8687 21.7481C23.0657 22.2919 23.2864 22.812 23.5701 23.411C23.9406 24.2149 24.0194 25.2946 23.8145 26.1222V26.1694V26.1616Z" fill="white"/>
<path d="M15.3673 20.1435C15.1387 19.8834 14.3664 18.0944 15.0757 18.1102C15.1781 18.1102 15.3673 18.2047 15.4855 18.2835C15.8086 18.4018 15.982 18.8904 16.1239 19.3869C16.2106 19.7101 16.313 20.0253 16.4549 20.3248C16.5179 20.4509 16.6204 20.6558 16.5652 20.7819C16.447 21.0578 15.6983 20.6322 15.3752 20.1593L15.3673 20.1435Z" fill="white"/>
<path d="M18.9058 23.9309C18.8348 23.6708 18.8743 23.4974 19.0949 23.7102C19.4969 24.1437 19.9146 25.0106 19.7885 25.6411C19.2841 27.0597 17.0537 26.5475 15.9424 26.9809C15.9267 26.9809 15.8715 27.0125 15.8794 26.9967C15.9188 26.7445 16.2655 25.9485 17.0064 25.8933C17.5344 25.846 18.1176 25.6569 18.4723 25.3101C18.827 24.9949 19.0082 24.4984 18.9058 23.9467V23.9309Z" fill="white"/>
<path fill-rule="evenodd" clip-rule="evenodd" d="M10.7888 16.8876C11.3011 17.8019 11.8449 18.7634 12.3336 19.6461C12.5306 20.0559 12.767 20.4973 13.0114 20.8598C13.2872 21.2775 13.3503 21.3484 13.0902 21.7425C12.9956 21.8844 12.9089 22.042 12.8458 22.2075C12.5069 23.1926 12.507 24.2645 11.5612 25.0605C10.4263 26.1402 10.9622 28.4179 12.1129 28.8277C12.5227 28.7489 12.9562 28.5677 13.3187 28.4021C13.9413 28.0948 14.359 27.7559 14.028 27.1727C13.563 26.4003 12.1365 25.3994 13.0823 24.1778C13.1453 24.0675 13.1926 23.9414 13.2241 23.8153C13.4054 23.0902 13.1926 22.1917 14.0202 22.0735C14.6979 22.0499 15.6673 21.4272 15.2102 20.6864C15.0605 20.5051 13.0508 18.3141 11.4115 16.5409C11.3721 16.5015 11.3405 16.462 11.3011 16.4384C11.0016 16.202 10.5997 16.5566 10.7731 16.8797V16.8955L10.7888 16.8876Z" fill="white"/>
<path fill-rule="evenodd" clip-rule="evenodd" d="M15.6003 22.2018C14.2053 22.9426 16.0258 23.9514 16.5381 22.9268C16.6721 22.4618 16.0259 22.0599 15.616 22.1939H15.6003V22.2018Z" fill="white"/>
<path d="M13.9318 28.5315C13.8845 28.5866 13.6875 28.7049 13.8451 28.7206C14.1288 28.7206 14.4126 28.7522 14.6648 28.8783C15.3347 29.1856 15.8312 29.761 16.4538 30.1393C17.5572 30.817 19.6615 31.5264 20.6308 30.7303C20.6545 30.7146 20.6703 30.6988 20.6781 30.6831C17.6675 31.747 19.7639 24.5357 13.9476 28.5078H13.9318V28.5315Z" fill="white"/>
<path d="M21.7361 18.7061C21.7913 18.848 21.9016 19.179 21.9332 19.2657C21.941 19.3051 21.9962 19.3603 22.0199 19.376C22.1617 19.447 22.3824 19.5652 22.5322 19.644C22.6582 19.6992 22.6819 19.8804 22.5479 19.9435C22.3982 19.9987 22.1144 20.0381 22.012 20.0775C21.9489 20.1011 21.9174 20.1721 21.8938 20.2272C21.8544 20.3218 21.7913 20.4873 21.7519 20.5898C21.7204 20.708 21.5628 20.771 21.4682 20.6765C21.4288 20.6292 21.4288 20.6134 21.413 20.574C21.3579 20.44 21.279 20.1563 21.2002 20.0065C21.1529 19.9514 21.1451 19.9593 21.0899 19.9277C20.9401 19.8489 20.6722 19.7228 20.5855 19.6676C20.483 19.5967 20.5067 19.4233 20.6328 19.3839C20.751 19.3524 20.9007 19.3209 21.019 19.2893C21.0663 19.2736 21.0978 19.2736 21.145 19.2578C21.1844 19.2421 21.2318 19.1869 21.2396 19.1554C21.3027 19.0135 21.3815 18.7771 21.4288 18.6904C21.4918 18.58 21.6731 18.5958 21.7204 18.7061H21.7361Z" fill="white"/>
</g>
<defs>
<clipPath id="clip0_18011_5948">
<rect width="62" height="62" rx="5" fill="white"/>
</clipPath>
</defs>
</svg>
