<svg width="102" height="102" viewBox="0 0 102 102" fill="none" xmlns="http://www.w3.org/2000/svg">
<rect x="0.5" y="0.5" width="101" height="101" rx="4.5" stroke="#8A38F5" stroke-dasharray="10 5"/>
<path d="M36.7425 59.251C38.6974 58.2514 40.0351 56.2076 40.0351 53.8485C40.0351 50.5046 37.3449 47.7914 34.0228 47.7914C30.7007 47.7914 28.0105 50.5016 28.0105 53.8485C28.0105 56.2076 29.3512 58.2514 31.3031 59.251C27.3461 60.4053 24.4256 64.017 24.2779 68.3396C24.2422 71.2504 26.5919 73.6292 29.5029 73.6292H38.4782C41.3995 73.6292 43.7677 71.261 43.7677 68.3396C43.6171 64.017 40.6996 60.4053 36.7425 59.251Z" fill="#4169E1"/>
<path d="M36.7425 59.251L36.6287 59.0285C36.5375 59.0751 36.484 59.1726 36.4936 59.2746C36.5033 59.3766 36.5742 59.4624 36.6725 59.491L36.7425 59.251ZM31.3031 59.251L31.3731 59.491C31.4714 59.4624 31.5423 59.3766 31.552 59.2747C31.5617 59.1727 31.5082 59.0752 31.4171 59.0285L31.3031 59.251ZM24.2779 68.3396L24.028 68.3311L24.0279 68.3366L24.2779 68.3396ZM43.7677 68.3396H44.0179L44.0176 68.3309L43.7677 68.3396ZM36.7425 59.251L36.8563 59.4736C38.8923 58.4326 40.2851 56.3043 40.2851 53.8485H40.0351H39.7851C39.7851 56.1109 38.5026 58.0703 36.6287 59.0285L36.7425 59.251ZM40.0351 53.8485H40.2851C40.2851 50.3683 37.4848 47.5414 34.0228 47.5414V47.7914V48.0414C37.2051 48.0414 39.7851 50.6408 39.7851 53.8485H40.0351ZM34.0228 47.7914V47.5414C30.5609 47.5414 27.7605 50.3653 27.7605 53.8485H28.0105H28.2605C28.2605 50.6379 30.8405 48.0414 34.0228 48.0414V47.7914ZM28.0105 53.8485H27.7605C27.7605 56.3045 29.1565 58.4326 31.1892 59.4736L31.3031 59.251L31.4171 59.0285C29.5459 58.0703 28.2605 56.1108 28.2605 53.8485H28.0105ZM31.3031 59.251L31.2331 59.011C27.1739 60.1951 24.1795 63.899 24.0281 68.3311L24.2779 68.3396L24.5278 68.3482C24.6717 64.135 27.5182 60.6155 31.3731 59.491L31.3031 59.251ZM29.5029 73.6292V73.8792H38.4782V73.6292V73.3792H29.5029V73.6292ZM43.7677 68.3396L44.0176 68.3309C43.8632 63.8991 40.8718 60.1952 36.8125 59.011L36.7425 59.251L36.6725 59.491C40.5273 60.6155 43.3711 64.1349 43.5179 68.3483L43.7677 68.3396ZM38.4782 73.6292V73.8792C41.5376 73.8792 44.0177 71.399 44.0177 68.3396H43.7677H43.5177C43.5177 71.1229 41.2614 73.3792 38.4782 73.3792V73.6292ZM24.2779 68.3396L24.0279 68.3366C23.9905 71.3866 26.4526 73.8792 29.5029 73.8792V73.6292V73.3792C26.7312 73.3792 24.4939 71.1142 24.5279 68.3427L24.2779 68.3396Z" fill="#1C1C1C"/>
<path d="M36.7423 55.7581C38.6972 54.7585 40.0349 52.7147 40.0349 50.3555C40.0349 47.0117 37.3448 44.2985 34.0226 44.2985C30.7005 44.2985 28.0103 47.0087 28.0103 50.3555C28.0103 52.7147 29.351 54.7585 31.3029 55.7581C27.3459 56.9124 24.4254 60.5241 24.2777 64.8467C24.242 67.7575 26.5917 70.1363 29.5027 70.1363H38.478C41.3993 70.1363 43.7675 67.768 43.7675 64.8467C43.6169 60.5241 40.6994 56.9124 36.7423 55.7581Z" fill="#CCD9FD"/>
<path d="M36.7423 55.7581L36.6285 55.5355C36.5373 55.5822 36.4838 55.6797 36.4935 55.7817C36.5031 55.8837 36.574 55.9694 36.6723 55.9981L36.7423 55.7581ZM31.3029 55.7581L31.3729 55.9981C31.4712 55.9694 31.5421 55.8837 31.5518 55.7818C31.5615 55.6798 31.508 55.5823 31.4169 55.5356L31.3029 55.7581ZM24.2777 64.8467L24.0278 64.8382L24.0278 64.8436L24.2777 64.8467ZM43.7675 64.8467H44.0177L44.0174 64.838L43.7675 64.8467ZM36.7423 55.7581L36.8562 55.9807C38.8921 54.9397 40.2849 52.8114 40.2849 50.3555H40.0349H39.7849C39.7849 52.618 38.5024 54.5774 36.6285 55.5355L36.7423 55.7581ZM40.0349 50.3555H40.2849C40.2849 46.8754 37.4847 44.0485 34.0226 44.0485V44.2985V44.5485C37.2049 44.5485 39.7849 47.1479 39.7849 50.3555H40.0349ZM34.0226 44.2985V44.0485C30.5607 44.0485 27.7603 46.8724 27.7603 50.3555H28.0103H28.2603C28.2603 47.145 30.8403 44.5485 34.0226 44.5485V44.2985ZM28.0103 50.3555H27.7603C27.7603 52.8116 29.1563 54.9397 31.189 55.9806L31.3029 55.7581L31.4169 55.5356C29.5457 54.5774 28.2603 52.6178 28.2603 50.3555H28.0103ZM31.3029 55.7581L31.2329 55.5181C27.1738 56.7022 24.1793 60.4061 24.0279 64.8382L24.2777 64.8467L24.5276 64.8553C24.6715 60.642 27.518 57.1226 31.3729 55.9981L31.3029 55.7581ZM29.5027 70.1363V70.3863H38.478V70.1363V69.8863H29.5027V70.1363ZM43.7675 64.8467L44.0174 64.838C43.863 60.4062 40.8716 56.7023 36.8124 55.5181L36.7423 55.7581L36.6723 55.9981C40.5271 57.1226 43.3709 60.642 43.5177 64.8554L43.7675 64.8467ZM38.478 70.1363V70.3863C41.5374 70.3863 44.0175 67.9061 44.0175 64.8467H43.7675H43.5175C43.5175 67.63 41.2613 69.8863 38.478 69.8863V70.1363ZM24.2777 64.8467L24.0278 64.8436C23.9903 67.8937 26.4524 70.3863 29.5027 70.3863V70.1363V69.8863C26.731 69.8863 24.4937 67.6213 24.5277 64.8498L24.2777 64.8467Z" fill="#1C1C1C"/>
<path d="M71.6602 59.251C73.6151 58.2514 74.9528 56.2076 74.9528 53.8485C74.9528 50.5046 72.2626 47.7914 68.9405 47.7914C65.6184 47.7914 62.9282 50.5016 62.9282 53.8485C62.9282 56.2076 64.2688 58.2514 66.2208 59.251C62.2637 60.4053 59.3432 64.017 59.1956 68.3396C59.1598 71.2504 61.5096 73.6292 64.4205 73.6292H73.3958C76.3172 73.6292 78.6854 71.261 78.6854 68.3396C78.5348 64.017 75.6172 60.4053 71.6602 59.251Z" fill="#4169E1"/>
<path d="M71.6602 59.251L71.5464 59.0285C71.4552 59.0751 71.4017 59.1726 71.4113 59.2746C71.421 59.3766 71.4919 59.4624 71.5902 59.491L71.6602 59.251ZM66.2208 59.251L66.2908 59.491C66.3891 59.4624 66.46 59.3766 66.4696 59.2747C66.4793 59.1727 66.4259 59.0752 66.3347 59.0285L66.2208 59.251ZM59.1956 68.3396L58.9457 68.3311L58.9456 68.3366L59.1956 68.3396ZM78.6854 68.3396H78.9355L78.9352 68.3309L78.6854 68.3396ZM71.6602 59.251L71.774 59.4736C73.81 58.4326 75.2028 56.3043 75.2028 53.8485H74.9528H74.7028C74.7028 56.1109 73.4202 58.0703 71.5464 59.0285L71.6602 59.251ZM74.9528 53.8485H75.2028C75.2028 50.3683 72.4025 47.5414 68.9405 47.5414V47.7914V48.0414C72.1227 48.0414 74.7028 50.6408 74.7028 53.8485H74.9528ZM68.9405 47.7914V47.5414C65.4785 47.5414 62.6782 50.3653 62.6782 53.8485H62.9282H63.1782C63.1782 50.6379 65.7582 48.0414 68.9405 48.0414V47.7914ZM62.9282 53.8485H62.6782C62.6782 56.3045 64.0741 58.4326 66.1068 59.4736L66.2208 59.251L66.3347 59.0285C64.4636 58.0703 63.1782 56.1108 63.1782 53.8485H62.9282ZM66.2208 59.251L66.1508 59.011C62.0916 60.1951 59.0971 63.899 58.9457 68.3311L59.1956 68.3396L59.4454 68.3482C59.5893 64.135 62.4359 60.6155 66.2908 59.491L66.2208 59.251ZM64.4205 73.6292V73.8792H73.3958V73.6292V73.3792H64.4205V73.6292ZM78.6854 68.3396L78.9352 68.3309C78.7808 63.8991 75.7895 60.1952 71.7302 59.011L71.6602 59.251L71.5902 59.491C75.4449 60.6155 78.2887 64.1349 78.4355 68.3483L78.6854 68.3396ZM73.3958 73.6292V73.8792C76.4552 73.8792 78.9354 71.399 78.9354 68.3396H78.6854H78.4354C78.4354 71.1229 76.1791 73.3792 73.3958 73.3792V73.6292ZM59.1956 68.3396L58.9456 68.3366C58.9081 71.3866 61.3703 73.8792 64.4205 73.8792V73.6292V73.3792C61.6488 73.3792 59.4115 71.1142 59.4456 68.3427L59.1956 68.3396Z" fill="#1C1C1C"/>
<path d="M71.66 55.7581C73.6149 54.7585 74.9526 52.7147 74.9526 50.3555C74.9526 47.0117 72.2624 44.2985 68.9403 44.2985C65.6182 44.2985 62.928 47.0087 62.928 50.3555C62.928 52.7147 64.2687 54.7585 66.2206 55.7581C62.2636 56.9124 59.343 60.5241 59.1954 64.8467C59.1596 67.7575 61.5094 70.1363 64.4204 70.1363H73.3957C76.317 70.1363 78.6852 67.768 78.6852 64.8467C78.5346 60.5241 75.617 56.9124 71.66 55.7581Z" fill="#CCD9FD"/>
<path d="M71.66 55.7581L71.5462 55.5355C71.455 55.5822 71.4015 55.6797 71.4111 55.7817C71.4208 55.8837 71.4917 55.9694 71.59 55.9981L71.66 55.7581ZM66.2206 55.7581L66.2906 55.9981C66.3889 55.9694 66.4598 55.8837 66.4695 55.7818C66.4792 55.6798 66.4257 55.5823 66.3345 55.5356L66.2206 55.7581ZM59.1954 64.8467L58.9455 64.8382L58.9454 64.8436L59.1954 64.8467ZM78.6852 64.8467H78.9354L78.9351 64.838L78.6852 64.8467ZM71.66 55.7581L71.7738 55.9807C73.8098 54.9397 75.2026 52.8114 75.2026 50.3555H74.9526H74.7026C74.7026 52.618 73.42 54.5774 71.5462 55.5355L71.66 55.7581ZM74.9526 50.3555H75.2026C75.2026 46.8754 72.4023 44.0485 68.9403 44.0485V44.2985V44.5485C72.1225 44.5485 74.7026 47.1479 74.7026 50.3555H74.9526ZM68.9403 44.2985V44.0485C65.4784 44.0485 62.678 46.8724 62.678 50.3555H62.928H63.178C63.178 47.145 65.758 44.5485 68.9403 44.5485V44.2985ZM62.928 50.3555H62.678C62.678 52.8116 64.0739 54.9397 66.1066 55.9806L66.2206 55.7581L66.3345 55.5356C64.4634 54.5774 63.178 52.6178 63.178 50.3555H62.928ZM66.2206 55.7581L66.1506 55.5181C62.0914 56.7022 59.0969 60.4061 58.9455 64.8382L59.1954 64.8467L59.4453 64.8553C59.5892 60.642 62.4357 57.1226 66.2906 55.9981L66.2206 55.7581ZM64.4204 70.1363V70.3863H73.3957V70.1363V69.8863H64.4204V70.1363ZM78.6852 64.8467L78.9351 64.838C78.7806 60.4062 75.7893 56.7023 71.73 55.5181L71.66 55.7581L71.59 55.9981C75.4448 57.1226 78.2886 60.642 78.4354 64.8554L78.6852 64.8467ZM73.3957 70.1363V70.3863C76.4551 70.3863 78.9352 67.9061 78.9352 64.8467H78.6852H78.4352C78.4352 67.63 76.1789 69.8863 73.3957 69.8863V70.1363ZM59.1954 64.8467L58.9454 64.8436C58.908 67.8937 61.3701 70.3863 64.4204 70.3863V70.1363V69.8863C61.6487 69.8863 59.4113 67.6213 59.4454 64.8498L59.1954 64.8467Z" fill="#1C1C1C"/>
<path d="M54.2012 66.3043C56.1561 65.3047 57.4938 63.2609 57.4938 60.9017C57.4938 57.5578 54.8036 54.8446 51.4815 54.8446C48.1594 54.8446 45.4692 57.5548 45.4692 60.9017C45.4692 63.2609 46.8099 65.3047 48.7618 66.3043C44.8048 67.4586 41.8842 71.0702 41.7366 75.3929C41.7008 78.3036 44.0506 80.6824 46.9616 80.6824H55.9369C58.8582 80.6824 61.2264 78.3142 61.2264 75.3929C61.0758 71.0702 58.1582 67.4586 54.2012 66.3043Z" fill="#4169E1"/>
<path d="M54.2012 66.3043L54.0874 66.0817C53.9962 66.1283 53.9427 66.2259 53.9523 66.3278C53.962 66.4298 54.0329 66.5156 54.1312 66.5443L54.2012 66.3043ZM48.7618 66.3043L48.8318 66.5443C48.9301 66.5156 49.001 66.4299 49.0107 66.3279C49.0204 66.226 48.9669 66.1284 48.8757 66.0817L48.7618 66.3043ZM41.7366 75.3929L41.4867 75.3843L41.4866 75.3898L41.7366 75.3929ZM61.2264 75.3929H61.4766L61.4763 75.3842L61.2264 75.3929ZM54.2012 66.3043L54.315 66.5269C56.351 65.4858 57.7438 63.3575 57.7438 60.9017H57.4938H57.2438C57.2438 63.1642 55.9612 65.1235 54.0874 66.0817L54.2012 66.3043ZM57.4938 60.9017H57.7438C57.7438 57.4216 54.9435 54.5946 51.4815 54.5946V54.8446V55.0946C54.6637 55.0946 57.2438 57.694 57.2438 60.9017H57.4938ZM51.4815 54.8446V54.5946C48.0196 54.5946 45.2192 57.4185 45.2192 60.9017H45.4692H45.7192C45.7192 57.6911 48.2992 55.0946 51.4815 55.0946V54.8446ZM45.4692 60.9017H45.2192C45.2192 63.3577 46.6151 65.4858 48.6478 66.5268L48.7618 66.3043L48.8757 66.0817C47.0046 65.1235 45.7192 63.164 45.7192 60.9017H45.4692ZM48.7618 66.3043L48.6918 66.0643C44.6326 67.2484 41.6381 70.9522 41.4867 75.3843L41.7366 75.3929L41.9865 75.4014C42.1304 71.1882 44.9769 67.6688 48.8318 66.5443L48.7618 66.3043ZM46.9616 80.6824V80.9324H55.9369V80.6824V80.4324H46.9616V80.6824ZM61.2264 75.3929L61.4763 75.3842C61.3218 70.9523 58.3305 67.2484 54.2712 66.0643L54.2012 66.3043L54.1312 66.5443C57.986 67.6687 60.8298 71.1881 60.9766 75.4016L61.2264 75.3929ZM55.9369 80.6824V80.9324C58.9963 80.9324 61.4764 78.4523 61.4764 75.3929H61.2264H60.9764C60.9764 78.1761 58.7201 80.4324 55.9369 80.4324V80.6824ZM41.7366 75.3929L41.4866 75.3898C41.4492 78.4398 43.9113 80.9324 46.9616 80.9324V80.6824V80.4324C44.1899 80.4324 41.9525 78.1674 41.9866 75.3959L41.7366 75.3929Z" fill="#1C1C1C"/>
<path d="M54.2013 62.8113C56.1562 61.8117 57.4939 59.7679 57.4939 57.4087C57.4939 54.0648 54.8037 51.3516 51.4816 51.3516C48.1594 51.3516 45.4693 54.0618 45.4693 57.4087C45.4693 59.7679 46.8099 61.8117 48.7618 62.8113C44.8048 63.9656 41.8843 67.5772 41.7367 71.8999C41.7009 74.8106 44.0506 77.1894 46.9616 77.1894H55.9369C58.8583 77.1894 61.2265 74.8212 61.2265 71.8999C61.0759 67.5772 58.1583 63.9656 54.2013 62.8113Z" fill="#CCD9FD"/>
<path d="M54.2013 62.8113L54.0875 62.5887C53.9963 62.6353 53.9427 62.7329 53.9524 62.8349C53.962 62.9368 54.0329 63.0226 54.1313 63.0513L54.2013 62.8113ZM48.7618 62.8113L48.8319 63.0513C48.9302 63.0226 49.001 62.9369 49.0107 62.8349C49.0204 62.733 48.9669 62.6354 48.8758 62.5888L48.7618 62.8113ZM41.7367 71.8999L41.4867 71.8913L41.4867 71.8968L41.7367 71.8999ZM61.2265 71.8999H61.4766L61.4763 71.8912L61.2265 71.8999ZM54.2013 62.8113L54.3151 63.0339C56.351 61.9928 57.7439 59.8646 57.7439 57.4087H57.4939H57.2439C57.2439 59.6712 55.9613 61.6305 54.0875 62.5887L54.2013 62.8113ZM57.4939 57.4087H57.7439C57.7439 53.9286 54.9436 51.1016 51.4816 51.1016V51.3516V51.6016C54.6638 51.6016 57.2439 54.2011 57.2439 57.4087H57.4939ZM51.4816 51.3516V51.1016C48.0196 51.1016 45.2193 53.9255 45.2193 57.4087H45.4693H45.7193C45.7193 54.1982 48.2993 51.6016 51.4816 51.6016V51.3516ZM45.4693 57.4087H45.2193C45.2193 59.8647 46.6152 61.9928 48.6479 63.0338L48.7618 62.8113L48.8758 62.5888C47.0046 61.6305 45.7193 59.671 45.7193 57.4087H45.4693ZM48.7618 62.8113L48.6918 62.5713C44.6327 63.7554 41.6382 67.4592 41.4868 71.8913L41.7367 71.8999L41.9865 71.9084C42.1304 67.6952 44.977 64.1758 48.8319 63.0513L48.7618 62.8113ZM46.9616 77.1894V77.4394H55.9369V77.1894V76.9394H46.9616V77.1894ZM61.2265 71.8999L61.4763 71.8912C61.3219 67.4593 58.3306 63.7554 54.2713 62.5713L54.2013 62.8113L54.1313 63.0513C57.986 64.1757 60.8298 67.6951 60.9766 71.9086L61.2265 71.8999ZM55.9369 77.1894V77.4394C58.9963 77.4394 61.4765 74.9593 61.4765 71.8999H61.2265H60.9765C60.9765 74.6831 58.7202 76.9394 55.9369 76.9394V77.1894ZM41.7367 71.8999L41.4867 71.8968C41.4492 74.9468 43.9114 77.4394 46.9616 77.4394V77.1894V76.9394C44.1899 76.9394 41.9526 74.6745 41.9866 71.903L41.7367 71.8999Z" fill="#1C1C1C"/>
<path d="M63.3059 37.6025C63.3059 44.1604 57.9114 49.478 51.2574 49.478C44.6035 49.478 38.7319 43.7215 38.7319 37.1636C38.0831 26.1022 44.6035 25.7269 51.2574 25.7269C57.9114 25.7269 63.6685 26.2994 63.3059 37.6025Z" fill="#F0C000" stroke="#1C1C1C" stroke-width="0.5" stroke-miterlimit="10"/>
<path d="M50.9707 46.2939C57.7583 46.2939 63.2545 40.7028 63.2545 33.8077C63.2545 26.9126 57.752 21.3215 50.9707 21.3215C44.1895 21.3215 38.687 26.9126 38.687 33.8077C38.687 40.7028 44.1895 46.2939 50.9707 46.2939Z" fill="#FCF6CC" stroke="#1C1C1C" stroke-width="0.5" stroke-miterlimit="10"/>
<path d="M51.0014 43.4833C56.346 43.4833 60.6789 39.1516 60.6789 33.8086C60.6789 28.4655 56.346 24.1339 51.0014 24.1339C45.6568 24.1339 41.3239 28.4655 41.3239 33.8086C41.3239 39.1516 45.6568 43.4833 51.0014 43.4833Z" fill="#F0C000" stroke="#1C1C1C" stroke-width="0.5" stroke-miterlimit="10"/>
<path d="M52.1741 39.212L51.0012 39.9025L49.8352 39.212V37.838L51.0012 38.5284L52.1741 37.838V39.212ZM46.9885 33.8077L46.9954 36.1652L48.9983 37.3439V38.7238L45.8225 36.8615V33.1183L46.9885 33.8077ZM56.1868 36.8605L53.011 38.7228V37.3429L55.0139 36.1652L55.0198 33.8077L56.1868 33.1173V36.8605ZM54.1819 31.9386H54.177L54.1838 33.3185L52.175 34.4972V36.8605L51.0081 37.5441L49.8411 36.8605V34.4972L47.8323 33.3185V31.9386L49.0042 31.2482L51.0012 32.4327L53.01 31.2482L54.1819 31.9386ZM48.9983 34.9865V36.3605L47.8323 35.6759V34.296L48.9983 34.9865ZM54.177 35.6759L53.011 36.3605V34.9865L54.177 34.296V35.6759ZM48.1614 30.7599L46.9885 31.4503V32.8234L45.8225 32.1339V30.7599L46.9885 30.0695L48.1614 30.7599ZM56.1858 30.7599V32.1339L55.0139 32.8234V31.4503L53.8469 30.7599L55.0139 30.0695L56.1858 30.7599ZM52.1741 30.7599L51.0012 31.4503L49.8352 30.7599L51.0012 30.0695L52.1741 30.7599ZM54.177 29.5822L53.01 30.2716L51.0012 29.087L48.9983 30.2716L47.8323 29.5822L51.0012 27.713L54.177 29.5822Z" fill="white"/>
</svg>
