<svg width="102" height="102" viewBox="0 0 102 102" fill="none" xmlns="http://www.w3.org/2000/svg">
<rect x="0.5" y="0.5" width="101" height="101" rx="4.5" stroke="#9747FF" stroke-dasharray="10 5"/>
<path d="M35.7525 42.9691L23 36.8985L34.624 27.3069L40.1538 30.2208L35.7525 42.9691Z" fill="#CCD9FD" stroke="black" stroke-width="0.5" stroke-linejoin="round"/>
<path d="M35.7525 42.9692H64.6432L60.5805 30.2208H40.1538L35.7525 42.9692Z" fill="#E8EDFA"/>
<path d="M35.7525 42.9692H64.6432L60.5805 30.2208M64.6432 42.9692H35.7525L40.1538 30.2208H60.5805L64.6432 42.9692Z" stroke="black" stroke-width="0.5" stroke-linejoin="round"/>
<path d="M38.6303 25H61.9911L66.5053 27.2461L60.5805 30.2208H40.1539L34.5938 27.3438L38.6303 25Z" fill="#E8EDFA" stroke="black" stroke-width="0.5" stroke-linejoin="round"/>
<path d="M35.7525 42.9691H64.6432L50.5364 80L35.7525 42.9691Z" fill="#E8EDFA" stroke="black" stroke-width="0.5" stroke-linejoin="round"/>
<path d="M35.7525 42.9691L23 37L50.5364 80L35.7525 42.9691Z" fill="#CCD9FD" stroke="black" stroke-width="0.5" stroke-linejoin="round"/>
<path d="M78.5 36.5L64.6432 42.9691L50.5364 80L78.5 36.5Z" fill="#CCD9FD" stroke="black" stroke-width="0.5" stroke-linejoin="round"/>
<path d="M78.5 36.5L64.6432 42.9692L60.5805 30.2209L66.4489 27.1855L78.5 36.5Z" fill="#CCD9FD" stroke="black" stroke-width="0.5" stroke-linejoin="round"/>
<path d="M75.775 27.969C76.7101 28.3109 77.4642 28.5924 78.2082 28.8739C79.2639 29.266 79.2639 30.7541 78.2082 31.1462C77.4541 31.4277 76.7 31.7093 75.775 32.0511C75.4432 32.1718 75.1718 32.4432 75.0411 32.775C74.6992 33.7101 74.4177 34.4642 74.1362 35.2082C73.744 36.2639 72.256 36.2639 71.8638 35.2082C71.5823 34.4541 71.3008 33.7 70.9589 32.775C70.8383 32.4432 70.5668 32.1718 70.225 32.0411C69.2899 31.6992 68.5358 31.4177 67.7918 31.1362C66.7361 30.744 66.7361 29.256 67.7918 28.8638C68.5459 28.5823 69.3 28.3008 70.225 27.9589C70.5568 27.8383 70.8282 27.5668 70.9489 27.225C71.2907 26.2899 71.5723 25.5358 71.8538 24.7918C72.2459 23.7361 73.734 23.7361 74.1261 24.7918C74.4076 25.5459 74.6891 26.3 75.031 27.225C75.1517 27.5568 75.4231 27.8282 75.7549 27.9589L75.775 27.969Z" fill="white" stroke="black" stroke-width="0.5" stroke-linejoin="round"/>
</svg>
