<svg width="102" height="102" viewBox="0 0 102 102" fill="none" xmlns="http://www.w3.org/2000/svg">
<rect x="0.5" y="0.5" width="101" height="101" rx="4.5" stroke="#8A38F5" stroke-dasharray="10 5"/>
<path d="M57.9168 59.1513V45.4186L46.2277 38.548L34.5303 45.4186V59.1513L46.2277 66.0219L57.9168 59.1513Z" fill="#CCD9FD" stroke="#1C1C1C" stroke-width="0.5" stroke-linejoin="round"/>
<path d="M31.0203 61.9383C31.0203 61.5257 31.0783 60.0438 30.9789 59.6565C30.4574 57.6357 28.5368 57.2147 26.3844 57.2147C24.232 57.2147 22.2783 57.6694 21.8064 59.7744C21.7319 60.1111 21.7402 61.5762 21.7402 61.9383C21.7402 64.5484 23.8181 66.6534 26.3761 66.6534C28.9342 66.6534 31.012 64.54 31.012 61.9383H31.0203Z" fill="#CCD9FD" stroke="#1C1C1C" stroke-width="0.5" stroke-linejoin="round"/>
<path d="M26.376 64.5315C28.9364 64.5315 31.012 62.4205 31.012 59.8164C31.012 57.2123 28.9364 55.1013 26.376 55.1013C23.8157 55.1013 21.7401 57.2123 21.7401 59.8164C21.7401 62.4205 23.8157 64.5315 26.376 64.5315Z" fill="#4169E1" stroke="#1C1C1C" stroke-width="0.5" stroke-linejoin="round"/>
<path d="M70.3676 61.9383C70.3676 61.5257 70.4256 60.0438 70.3262 59.6565C69.8047 57.6357 67.8841 57.2147 65.7317 57.2147C63.5793 57.2147 61.6256 57.6694 61.1537 59.7744C61.0792 60.1111 61.0875 61.5762 61.0875 61.9383C61.0875 64.5484 63.1654 66.6534 65.7234 66.6534C68.2815 66.6534 70.3593 64.54 70.3593 61.9383H70.3676Z" fill="#CCD9FD" stroke="#1C1C1C" stroke-width="0.5" stroke-linejoin="round"/>
<path d="M65.7234 64.5315C68.2838 64.5315 70.3594 62.4205 70.3594 59.8164C70.3594 57.2123 68.2838 55.1013 65.7234 55.1013C63.1631 55.1013 61.0875 57.2123 61.0875 59.8164C61.0875 62.4205 63.1631 64.5315 65.7234 64.5315Z" fill="#4169E1" stroke="#1C1C1C" stroke-width="0.5" stroke-linejoin="round"/>
<path d="M50.6898 74.5682C50.6898 74.1556 50.7477 72.6737 50.6484 72.2864C50.1268 70.2657 48.2062 69.8447 46.0538 69.8447C43.9014 69.8447 41.9477 70.2993 41.4759 72.4043C41.4014 72.7411 41.4096 74.2061 41.4096 74.5682C41.4096 77.1783 43.4875 79.2833 46.0456 79.2833C48.6036 79.2833 50.6815 77.1699 50.6815 74.5682H50.6898Z" fill="#CCD9FD" stroke="#1C1C1C" stroke-width="0.5" stroke-linejoin="round"/>
<path d="M46.0539 77.1615C48.6142 77.1615 50.6898 75.0505 50.6898 72.4464C50.6898 69.8423 48.6142 67.7313 46.0539 67.7313C43.4935 67.7313 41.418 69.8423 41.418 72.4464C41.418 75.0505 43.4935 77.1615 46.0539 77.1615Z" fill="#4169E1" stroke="#1C1C1C" stroke-width="0.5" stroke-linejoin="round"/>
<path d="M31.0203 41.394C31.0203 40.9814 31.0782 39.4995 30.9789 39.1122C30.4573 37.0915 28.5367 36.6705 26.3843 36.6705C24.2319 36.6705 22.2782 37.1251 21.8064 39.2301C21.7319 39.5669 21.7401 41.0319 21.7401 41.394C21.7401 44.0042 23.818 46.1091 26.3761 46.1091C28.9341 46.1091 31.012 43.9957 31.012 41.394H31.0203Z" fill="#CCD9FD" stroke="#1C1C1C" stroke-width="0.5" stroke-linejoin="round"/>
<path d="M26.376 43.9873C28.9363 43.9873 31.0119 41.8763 31.0119 39.2722C31.0119 36.6681 28.9363 34.5571 26.376 34.5571C23.8156 34.5571 21.7401 36.6681 21.7401 39.2722C21.7401 41.8763 23.8156 43.9873 26.376 43.9873Z" fill="#4169E1" stroke="#1C1C1C" stroke-width="0.5" stroke-linejoin="round"/>
<path d="M70.3675 41.394C70.3675 40.9814 70.4254 39.4995 70.3261 39.1122C69.8046 37.0915 67.884 36.6705 65.7316 36.6705C63.5792 36.6705 61.6255 37.1251 61.1536 39.2301C61.0791 39.5669 61.0874 41.0319 61.0874 41.394C61.0874 44.0042 63.1653 46.1091 65.7233 46.1091C68.2813 46.1091 70.3592 43.9957 70.3592 41.394H70.3675Z" fill="#CCD9FD" stroke="#1C1C1C" stroke-width="0.5" stroke-linejoin="round"/>
<path d="M65.7233 43.9873C68.2837 43.9873 70.3592 41.8763 70.3592 39.2722C70.3592 36.6681 68.2837 34.5571 65.7233 34.5571C63.163 34.5571 61.0874 36.6681 61.0874 39.2722C61.0874 41.8763 63.163 43.9873 65.7233 43.9873Z" fill="#4169E1" stroke="#1C1C1C" stroke-width="0.5" stroke-linejoin="round"/>
<path d="M50.6897 29.4123C50.6897 28.9997 50.7476 27.5178 50.6483 27.1305C50.1268 25.1098 48.2062 24.6888 46.0538 24.6888C43.9014 24.6888 41.9477 25.1435 41.4758 27.2484C41.4013 27.5852 41.4096 29.0503 41.4096 29.4123C41.4096 32.0225 43.4875 34.1274 46.0455 34.1274C48.6035 34.1274 50.6814 32.014 50.6814 29.4123H50.6897Z" fill="#CCD9FD" stroke="#1C1C1C" stroke-width="0.5" stroke-linejoin="round"/>
<path d="M46.0538 32.0057C48.6142 32.0057 50.6897 29.8946 50.6897 27.2905C50.6897 24.6865 48.6142 22.5754 46.0538 22.5754C43.4935 22.5754 41.4179 24.6865 41.4179 27.2905C41.4179 29.8946 43.4935 32.0057 46.0538 32.0057Z" fill="#4169E1" stroke="#1C1C1C" stroke-width="0.5" stroke-linejoin="round"/>
<path d="M57.9168 56.5581V42.8253L46.2276 35.9547L34.5302 42.8253V56.5581L46.2276 63.4287L57.9168 56.5581Z" fill="#4169E1" stroke="#1C1C1C" stroke-width="0.5" stroke-linejoin="round"/>
<path d="M65.8145 79.4851C65.7483 79.5103 65.6903 79.5356 65.6241 79.5609C65.5579 79.5356 65.4916 79.5103 65.4254 79.4851C51.4431 73.8691 52.5193 52.5921 52.5193 52.5921C60.3838 52.5921 64.2582 49.6452 65.4254 48.5506C65.4999 48.4748 65.5661 48.4075 65.6241 48.3654C65.6738 48.4159 65.74 48.4748 65.8145 48.5506C66.9818 49.6452 70.8561 52.5921 78.7206 52.5921C78.7206 52.5921 79.7968 73.8691 65.8145 79.4851Z" fill="#2AA5A5" stroke="#1C1C1C" stroke-width="0.5" stroke-linejoin="round"/>
<path d="M65.624 76.8247C56.6502 72.6484 55.218 60.2039 55.0193 55.0257C60.2679 54.6131 63.6703 52.946 65.624 51.5988C67.5777 52.946 70.9802 54.6131 76.2287 55.0257C76.03 60.2039 74.5978 72.6232 65.624 76.8247Z" fill="white" stroke="#1C1C1C" stroke-width="0.5" stroke-linejoin="round"/>
<path d="M64.5313 70.2318L59.6801 63.9506L62.0229 62.073L64.5313 65.3231L70.4504 57.661L72.7932 59.5386L64.5313 70.2318Z" fill="#2AA5A5" stroke="#1C1C1C" stroke-width="0.5" stroke-linejoin="round"/>
</svg>
