<svg width="102" height="102" viewBox="0 0 102 102" fill="none" xmlns="http://www.w3.org/2000/svg">
<rect x="0.5" y="0.5" width="101" height="101" rx="4.5" stroke="#9747FF" stroke-dasharray="10 5"/>
<path d="M51.1665 55.8569C60.6384 55.8569 68.308 48.058 68.308 38.4325C68.308 28.807 60.6384 21 51.1665 21C41.6946 21 34.0249 28.807 34.0249 38.4244C34.0249 48.0418 41.7026 55.8488 51.1665 55.8488V55.8569Z" fill="#FFE2C8" stroke="#1C1C1C" stroke-width="0.5" stroke-linejoin="round"/>
<path d="M51.2075 51.9292C58.667 51.9292 64.7122 45.884 64.7122 38.4245C64.7122 30.965 58.667 24.9198 51.2075 24.9198C43.748 24.9198 37.7028 30.965 37.7028 38.4245C37.7028 45.884 43.748 51.9292 51.2075 51.9292Z" fill="#FF9500" stroke="#1C1C1C" stroke-width="0.5" stroke-linejoin="round"/>
<path d="M57.1546 34.4157C57.3162 35.9836 56.6697 36.9292 55.6837 37.4626C57.3324 37.8828 58.3588 38.9011 58.1567 41.2045C57.8981 44.0573 55.8857 44.8413 52.9844 45.011V47.1446C52.9844 47.6214 52.5964 48.0094 52.1196 48.0094C51.6428 48.0094 51.2549 47.6214 51.2549 47.1446V45.0514C50.8104 45.0514 50.3497 45.0514 49.889 45.0272V47.1446C49.889 47.6214 49.5011 48.0094 49.0243 48.0094C48.5474 48.0094 48.1595 47.6214 48.1595 47.1446V45.011C47.7554 45.011 47.3513 44.9868 46.9311 44.9868H45.9451C45.2824 44.9868 44.7813 44.3887 44.8864 43.7422C44.9753 43.2168 45.4279 42.8451 45.9613 42.8451C46.2926 42.8451 46.2845 42.837 46.2845 42.837C46.7694 42.837 46.8907 42.4814 46.9311 42.2228V37.4868V34.0844C46.8745 33.7288 46.632 33.2843 45.9289 33.2843C45.9289 33.2843 45.9289 33.2843 45.6541 33.2762C45.1207 33.2762 44.6843 32.8479 44.6843 32.3145C44.6843 31.7811 45.1127 31.3608 45.638 31.3608H48.1676V29.2434C48.1676 28.7665 48.5555 28.3786 49.0323 28.3786C49.5092 28.3786 49.8971 28.7665 49.8971 29.2434V31.2961C50.3578 31.2961 50.8023 31.2719 51.2629 31.2719V29.2434C51.2629 28.7665 51.6509 28.3786 52.1277 28.3786C52.6045 28.3786 52.9924 28.7665 52.9924 29.2434V31.3608C55.2069 31.5548 56.9768 32.274 57.1546 34.4238V34.4157ZM54.7381 40.8408C54.7381 38.5132 51.0771 38.8527 49.9133 38.8527V42.8289C51.0771 42.8289 54.7381 43.1037 54.7381 40.8408ZM53.9542 35.2401C53.9542 33.1065 50.8993 33.4217 49.9133 33.4217V37.0342C50.8993 37.0342 53.9542 37.2686 53.9542 35.2401Z" fill="white"/>
<path d="M46.4933 53.4733L50.4938 52.3338C50.4938 52.3338 52.1344 51.4771 53.8559 51.5499C55.5773 51.6226 57.6462 52.6975 59.5778 52.7621C61.5093 52.8349 64.2248 50.976 64.2248 50.976L73.0906 61.7006C73.0906 61.7006 71.2318 63.3412 70.7307 63.7777C70.2296 64.206 67.3687 68.6348 66.2291 69.0713C65.0896 69.5077 50.2918 61.0622 50.2918 61.0622L43.2121 64.2787L37.6356 58.9205L46.5014 53.4895L46.4933 53.4733Z" fill="#FFE2C8" stroke="#1C1C1C" stroke-width="0.5" stroke-linecap="round" stroke-linejoin="round"/>
<path d="M66.9166 71.8917L66.5852 72.2554C65.8094 73.104 64.492 73.1525 63.6515 72.3847L60.1602 69.5237L62.714 71.8594C63.5626 72.6352 63.6111 73.9526 62.8433 74.7931L62.512 75.1487C61.7846 75.9407 60.5804 76.0377 59.7399 75.4154C60.1844 76.1831 60.1117 77.1772 59.4813 77.8642L59.1499 78.2279C58.3741 79.0764 57.0648 79.1249 56.2162 78.3572L53.3633 75.7467C53.2664 75.6578 53.1694 75.5528 53.0966 75.4477L52.9754 75.5528L54.7453 77.1691C54.8746 77.2823 54.9797 77.4197 55.0686 77.5571C55.5858 78.3329 55.5293 79.3836 54.8746 80.1028L54.5433 80.4665C53.7674 81.3151 52.4582 81.3636 51.6096 80.5958L48.7567 77.9854C48.692 77.9288 48.6355 77.8723 48.587 77.7995L45.4189 76.2155L34.4114 66.6385C34.4114 66.6385 33.482 65.0626 33.0537 64.3514C32.6254 63.6401 29.3361 61.4176 29.3361 61.4176L37.4825 50.8385C37.4825 50.8385 40.3435 52.7701 42.1296 52.8428C43.9157 52.9156 44.635 51.9134 46.7766 51.776C48.9183 51.6306 50.4943 52.3498 50.4943 52.3498C50.4943 52.3498 42.8408 58.5001 42.2023 59.2113C41.5558 59.9225 42.2023 61.6439 43.6975 62.1369C45.2007 62.638 50.2761 58.9931 51.7066 58.2092C53.137 57.4171 53.3553 57.9263 53.3553 57.9263L63.7323 66.2021L63.9344 66.3637L66.7873 68.9742C67.6358 69.75 67.6924 71.0593 66.9166 71.9079V71.8917Z" fill="#CCD9FD" stroke="#1C1C1C" stroke-width="0.5" stroke-linecap="round" stroke-linejoin="round"/>
<path d="M68.3016 45.2504L62.5283 49.7012L73.4384 63.8529L79.2117 59.402L68.3016 45.2504Z" fill="white" stroke="#1C1C1C" stroke-width="0.5" stroke-linecap="round" stroke-linejoin="round"/>
<path d="M22.9991 59.4038L28.7725 63.8547L39.6825 49.7031L33.9092 45.2522L22.9991 59.4038Z" fill="#4169E1" stroke="#1C1C1C" stroke-width="0.5" stroke-linecap="round" stroke-linejoin="round"/>
<path d="M56.3612 66.3396L63.651 72.3768" stroke="#1C1C1C" stroke-width="0.5" stroke-linecap="round" stroke-linejoin="round"/>
<path d="M53.7189 70.1299L60.0793 75.666" stroke="#1C1C1C" stroke-width="0.5" stroke-linecap="round" stroke-linejoin="round"/>
<path d="M55.3592 77.8076L55.0763 77.549" stroke="#1C1C1C" stroke-width="0.5" stroke-linecap="round" stroke-linejoin="round"/>
<path d="M53.3714 75.7387L51.359 74.1385" stroke="#1C1C1C" stroke-width="0.5" stroke-linecap="round" stroke-linejoin="round"/>
<path d="M43.0612 66.7271L43.0552 66.7217C42.1107 65.8562 40.6435 65.9203 39.7781 66.8647L36.3055 70.6544C35.4401 71.5988 35.5041 73.0661 36.4486 73.9315L36.4546 73.937C37.399 74.8024 38.8662 74.7383 39.7317 73.7939L43.2042 70.0042C44.0697 69.0598 44.0056 67.5926 43.0612 66.7271Z" fill="#FFE2C8" stroke="#1C1C1C" stroke-width="0.5" stroke-linecap="round" stroke-linejoin="round"/>
<path d="M38.5601 65.1128L38.2086 64.7907C37.3595 64.0127 36.0406 64.0703 35.2626 64.9193L32.9257 67.4696C32.1477 68.3186 32.2053 69.6375 33.0543 70.4155L33.4059 70.7377C34.2549 71.5157 35.5739 71.4581 36.3519 70.6091L38.6888 68.0588C39.4667 67.2098 39.4092 65.8908 38.5601 65.1128Z" fill="#FFE2C8" stroke="#1C1C1C" stroke-width="0.5" stroke-linecap="round" stroke-linejoin="round"/>
<path d="M46.7991 69.3821L46.7931 69.3767C45.8486 68.5112 44.3814 68.5753 43.516 69.5197L39.6612 73.7265C38.7958 74.6709 38.8598 76.1382 39.8043 77.0036L39.8103 77.0091C40.7547 77.8745 42.2219 77.8104 43.0874 76.866L46.9422 72.6592C47.8076 71.7148 47.7435 70.2476 46.7991 69.3821Z" fill="#FFE2C8" stroke="#1C1C1C" stroke-width="0.5" stroke-linecap="round" stroke-linejoin="round"/>
<path d="M49.4134 73.9098L49.0499 73.5768C48.2042 72.8018 46.8903 72.8592 46.1153 73.7049L43.5 76.559C42.725 77.4048 42.7824 78.7186 43.6281 79.4936L43.9916 79.8267C44.8373 80.6017 46.1512 80.5443 46.9262 79.6985L49.5415 76.8444C50.3165 75.9987 50.2591 74.6848 49.4134 73.9098Z" fill="#FFE2C8" stroke="#1C1C1C" stroke-width="0.5" stroke-linecap="round" stroke-linejoin="round"/>
</svg>
