<svg width="102" height="102" viewBox="0 0 102 102" fill="none" xmlns="http://www.w3.org/2000/svg">
<rect x="0.5" y="0.5" width="101" height="101" rx="4.5" stroke="#8A38F5" stroke-dasharray="10 5"/>
<path d="M56.8474 65.8956H38.2547V80.4068H56.8474V65.8956Z" fill="#4169E1" stroke="#1C1C1C" stroke-width="0.5" stroke-linejoin="round"/>
<path d="M38.2547 80.4152L25.104 75.5196V61.0084L38.2547 65.9039V80.4152Z" fill="#4169E1" stroke="#1C1C1C" stroke-width="0.5" stroke-linejoin="round"/>
<path d="M56.8474 80.4152L70.0066 75.5196V61.0084L56.8474 65.9039V80.4152Z" fill="#4169E1" stroke="#1C1C1C" stroke-width="0.5" stroke-linejoin="round"/>
<path d="M58.2143 46.6224H37.8387V56.6474H58.2143V46.6224Z" fill="#4169E1" stroke="#1C1C1C" stroke-width="0.5" stroke-linejoin="round"/>
<path d="M38.7556 47.558V58.2013L26.3351 64.1579V52.3701L38.7556 47.558Z" fill="#4169E1" stroke="#1C1C1C" stroke-width="0.5" stroke-linejoin="round"/>
<path d="M56.4229 47.558V58.2013L68.8435 64.1579V52.3701L56.4229 47.558Z" fill="#4169E1" stroke="#1C1C1C" stroke-width="0.5" stroke-linejoin="round"/>
<path d="M56.8474 62.9131H38.2547V77.4244H56.8474V62.9131Z" fill="#CCD9FD" stroke="#1C1C1C" stroke-width="0.5" stroke-linejoin="round"/>
<path d="M38.2547 77.4244L25.104 72.5288V58.0175L38.2547 62.9131V77.4244Z" fill="#CCD9FD" stroke="#1C1C1C" stroke-width="0.5" stroke-linejoin="round"/>
<path d="M56.8474 77.4244L70.0066 72.5288V58.0175L56.8474 62.9131V77.4244Z" fill="#CCD9FD" stroke="#1C1C1C" stroke-width="0.5" stroke-linejoin="round"/>
<path d="M42.4487 61.9023C40.7677 61.9023 39.4009 61.8605 38.2632 61.7853C37.0832 61.7018 30.3932 59.2623 29.4254 58.9114L38.7641 55.4277H56.4144L65.1334 58.6775C64.1741 59.0535 57.2464 61.7769 56.0494 61.7769H56.0239C55.2513 61.7435 54.3769 61.7268 53.3496 61.7268C51.6856 61.7268 49.8263 61.7686 48.018 61.8104C46.1503 61.8521 44.2231 61.8939 42.4402 61.8939L42.4487 61.9023Z" fill="#CCD9FD" stroke="#1C1C1C" stroke-width="0.5" stroke-linejoin="round"/>
<path d="M56.338 48.8279L67.2134 52.8964V56.1044L56.338 60.1729H38.7726L27.8972 56.1044V52.8964L38.7726 48.8279H56.338ZM56.8559 46.0961H38.2547L25.104 51.0251V57.9925L38.2547 62.9215H56.8559L70.0066 57.9925V51.0251L56.8559 46.0961Z" fill="#CCD9FD" stroke="#1C1C1C" stroke-width="0.5" stroke-linejoin="round"/>
<path d="M40.1819 57.5998C39.4094 57.5998 38.7811 56.99 38.7811 56.2297V43.4728C38.7811 42.5706 38.0255 41.827 37.0916 41.827C36.1578 41.827 35.4022 42.5622 35.4022 43.4728V48.3768C35.4022 49.1286 34.7739 49.7468 34.0014 49.7468C33.2288 49.7468 32.6005 49.137 32.6005 48.3768V43.4728C32.6005 41.0585 34.6211 39.0952 37.1001 39.0952C39.5792 39.0952 41.5997 41.0585 41.5997 43.4728V56.2297C41.5997 56.9816 40.9715 57.5998 40.1989 57.5998H40.1819Z" fill="white" stroke="#1C1C1C" stroke-width="0.5" stroke-miterlimit="10"/>
<path d="M40.1819 57.5998C39.4094 57.5998 38.7811 56.99 38.7811 56.2297V43.4728C38.7811 42.5706 38.0255 41.827 37.0916 41.827C36.1578 41.827 35.4022 42.5622 35.4022 43.4728V48.3768C35.4022 49.1286 34.7739 49.7468 34.0014 49.7468C33.2288 49.7468 32.6005 49.137 32.6005 48.3768V43.4728C32.6005 41.0585 34.6211 39.0952 37.1001 39.0952C39.5792 39.0952 41.5997 41.0585 41.5997 43.4728V56.2297C41.5997 56.9816 40.9715 57.5998 40.1989 57.5998H40.1819Z" fill="white" stroke="#1C1C1C" stroke-width="0.5" stroke-miterlimit="10"/>
<path d="M40.1819 57.5998C39.4094 57.5998 38.7811 56.99 38.7811 56.2297V43.4728C38.7811 42.5706 38.0255 41.827 37.0916 41.827C36.1578 41.827 35.4022 42.5622 35.4022 43.4728V48.3768C35.4022 49.1286 34.7739 49.7468 34.0014 49.7468C33.2288 49.7468 32.6005 49.137 32.6005 48.3768V43.4728C32.6005 41.0585 34.6211 39.0952 37.1001 39.0952C39.5792 39.0952 41.5997 41.0585 41.5997 43.4728V56.2297C41.5997 56.9816 40.9715 57.5998 40.1989 57.5998H40.1819Z" fill="#FFE2C8" stroke="#1C1C1C" stroke-width="0.5" stroke-linejoin="round"/>
<path d="M39.9018 46.9398C39.6131 46.2381 38.7981 45.8955 38.0765 46.1796L33.7806 47.8003C33.8146 47.8922 33.8316 48.0008 33.8316 48.1094V50.7159L39.1207 48.7193C39.8423 48.4436 40.1904 47.6499 39.9103 46.9482L39.9018 46.9398Z" fill="#FFE2C8" stroke="#1C1C1C" stroke-width="0.5" stroke-linejoin="round"/>
<path d="M39.9612 51.6432C39.6725 50.9415 38.8575 50.599 38.1359 50.8747L33.8231 52.5371V55.4778L39.1716 53.4143C39.8933 53.1387 40.2414 52.345 39.9612 51.6432Z" fill="#FFE2C8" stroke="#1C1C1C" stroke-width="0.5" stroke-linejoin="round"/>
<path d="M35.3937 58.6775V45.9206C35.3937 43.5063 33.3731 41.543 30.8941 41.543C28.4151 41.543 26.3945 43.5063 26.3945 45.9206V50.5322L29.2046 49.4795V45.9206C29.2046 45.0184 29.9602 44.2749 30.8941 44.2749C31.828 44.2749 32.5836 45.01 32.5836 45.9206V57.8588L35.3682 58.9031C35.3852 58.8279 35.3937 58.7527 35.3937 58.6692V58.6775Z" fill="#FFE2C8" stroke="#1C1C1C" stroke-width="0.5" stroke-linejoin="round"/>
<path d="M48.3916 59.0117C50.9282 59.0117 52.9845 58.4955 52.9845 57.8588C52.9845 57.2221 50.9282 56.7059 48.3916 56.7059C45.8549 56.7059 43.7986 57.2221 43.7986 57.8588C43.7986 58.4955 45.8549 59.0117 48.3916 59.0117Z" fill="#CCD9FD" stroke="#1C1C1C" stroke-width="0.5" stroke-linejoin="round"/>
<path d="M48.9434 57.4996H47.9671C47.5681 57.4996 47.237 57.2322 47.237 56.8981V32.6959C47.237 31.6432 47.8397 30.6491 48.8585 30.0142L55.7692 26.5639L57.9681 25.7368L49.6735 32.228V56.8813C49.6735 57.2155 49.3509 57.4828 48.9434 57.4828V57.4996Z" fill="#CCD9FD" stroke="#1C1C1C" stroke-width="0.5" stroke-linejoin="round"/>
<path d="M66.2796 47.3158L75.9155 37.8338L61.2791 22.4453L50.6498 32.9048L66.2796 47.3158Z" fill="#FF9500" stroke="#1C1C1C" stroke-width="0.5" stroke-linejoin="round"/>
<path d="M60.8773 21.5916L49.6573 32.6324L51.6684 34.6113L62.8884 23.5705L60.8773 21.5916Z" fill="#FFE2C8" stroke="#1C1C1C" stroke-width="0.5" stroke-linejoin="round"/>
<path d="M57.3483 29.1119C75.3297 23.3642 71.6961 33.7819 71.8998 33.4311" stroke="#1C1C1C" stroke-width="0.5" stroke-miterlimit="10"/>
<path d="M64.8872 31.4261C65.6428 32.0443 65.7702 32.746 65.5579 33.406C66.4833 32.8797 67.3832 32.888 68.3001 33.9992C69.4293 35.3693 68.8689 36.5806 67.6464 37.9006L68.5803 38.8446C68.7925 39.0535 68.784 39.396 68.5718 39.5965C68.3596 39.797 68.0115 39.797 67.8077 39.5881L66.8908 38.6608C66.6956 38.853 66.4833 39.0535 66.2711 39.2373L67.1965 40.1729C67.4087 40.3818 67.4002 40.7243 67.188 40.9248C66.9757 41.1253 66.6276 41.1253 66.4239 40.9165L65.49 39.9724C65.3117 40.1479 65.1165 40.3066 64.9297 40.4904L64.4882 40.9165C64.1911 41.2005 63.7071 41.1587 63.4694 40.8162C63.2827 40.5489 63.3251 40.1813 63.5628 39.9557C63.7156 39.8137 63.7071 39.8137 63.7071 39.8137C63.9194 39.6048 63.8175 39.396 63.7241 39.2623L61.6526 37.1738L60.1669 35.67C59.9801 35.5363 59.683 35.4444 59.3604 35.7452C59.3604 35.7452 59.3604 35.7452 59.233 35.8622C58.9953 36.0877 58.6133 36.0877 58.3756 35.8622C58.1378 35.6366 58.1463 35.2606 58.3841 35.0267L59.0293 34.4085L59.5132 33.9407L58.5878 33.005C58.3756 32.7962 58.3841 32.4536 58.5963 32.2531C58.8085 32.0526 59.1566 32.0526 59.3604 32.2615L60.2603 33.1721C60.464 32.9716 60.6593 32.7711 60.8631 32.5789L59.9716 31.685C59.7594 31.4762 59.7679 31.1337 59.9801 30.9332C60.1924 30.7327 60.5405 30.7327 60.7442 30.9415L61.6696 31.8772C62.7478 31.0083 63.8515 30.5656 64.8787 31.4428L64.8872 31.4261ZM66.6107 35.3024C65.5919 34.2748 64.0977 35.9958 63.5713 36.4971L65.3117 38.2515C65.8381 37.7502 67.5955 36.2966 66.6107 35.2941V35.3024ZM63.809 33.1721C62.8752 32.2281 61.6441 33.6817 61.2027 34.1078L62.7818 35.7034C63.2232 35.2774 64.7005 34.066 63.809 33.1721Z" fill="white"/>
</svg>
