<svg width="102" height="102" viewBox="0 0 102 102" fill="none" xmlns="http://www.w3.org/2000/svg">
<rect x="0.5" y="0.5" width="101" height="101" rx="4.5" stroke="#9747FF" stroke-dasharray="10 5"/>
<path d="M44.5614 63.2371C44.5614 69.1169 39.7275 73.8767 33.7654 73.8767C27.8033 73.8767 22.5411 68.7216 22.5411 62.8418C21.9647 52.9269 27.8033 52.5975 33.7654 52.5975C39.7275 52.5975 44.8908 53.1163 44.5614 63.2371Z" fill="#FF9500" stroke="#1C1C1C" stroke-width="0.5" stroke-linejoin="round"/>
<path d="M33.5099 71.0355C39.5873 71.0355 44.52 66.0287 44.52 59.8442C44.52 53.6598 39.5955 48.6529 33.5099 48.6529C27.4243 48.6529 22.4998 53.6598 22.4998 59.8442C22.4998 66.0287 27.4243 71.0355 33.5099 71.0355Z" fill="#FFE2C8" stroke="#1C1C1C" stroke-width="0.5" stroke-linejoin="round"/>
<path d="M33.5335 68.5077C38.3262 68.5077 42.2049 64.6291 42.2049 59.8363C42.2049 55.0436 38.3262 51.1649 33.5335 51.1649C28.7407 51.1649 24.8621 55.0436 24.8621 59.8363C24.8621 64.6291 28.7407 68.5077 33.5335 68.5077Z" fill="#FF9500" stroke="#1C1C1C" stroke-width="0.5" stroke-linejoin="round"/>
<path d="M37.3555 57.2668C37.4543 58.2715 37.0425 58.8808 36.4084 59.2185C37.4707 59.4902 38.1295 60.1408 37.9978 61.6231C37.8331 63.4595 36.5402 63.9618 34.6791 64.0689V65.4441C34.6791 65.7488 34.432 65.9959 34.1274 65.9959C33.8227 65.9959 33.5756 65.7488 33.5756 65.4441V64.1018C33.2874 64.1018 32.9909 64.1018 32.6945 64.0853V65.4441C32.6945 65.7488 32.4474 65.9959 32.1427 65.9959C31.838 65.9959 31.591 65.7488 31.591 65.4441V64.0689C31.3357 64.0689 31.0722 64.0524 30.8004 64.0524H30.1663C29.7381 64.0524 29.417 63.6736 29.4911 63.2536C29.5487 62.916 29.8452 62.6772 30.1828 62.6772C30.3969 62.6772 30.3887 62.6772 30.3887 62.6772C30.7016 62.6772 30.7757 62.4466 30.8004 62.2819V59.2432V57.0609C30.7593 56.8303 30.6028 56.5421 30.1581 56.5421C30.1581 56.5421 30.1581 56.5421 29.9769 56.5421C29.6311 56.5421 29.3511 56.2704 29.3511 55.9245C29.3511 55.5786 29.6228 55.3151 29.9605 55.3151H31.5827V53.9563C31.5827 53.6516 31.8298 53.4046 32.1345 53.4046C32.4392 53.4046 32.6862 53.6516 32.6862 53.9563V55.2739C32.9827 55.2739 33.2709 55.2575 33.5674 55.2575V53.9563C33.5674 53.6516 33.8144 53.4046 34.1191 53.4046C34.4238 53.4046 34.6709 53.6516 34.6709 53.9563V55.3151C36.0955 55.4386 37.2319 55.8998 37.3472 57.2833L37.3555 57.2668ZM35.799 61.3925C35.799 59.902 33.4521 60.1161 32.7027 60.1161V62.6689C33.4521 62.6689 35.799 62.8419 35.799 61.3925ZM35.2967 57.7938C35.2967 56.4186 33.3368 56.6245 32.7027 56.6245V58.9467C33.3368 58.9467 35.2967 59.095 35.2967 57.7938Z" fill="white"/>
<path d="M76.0939 51.7078C73.014 53.4372 71.4494 54.3595 68.3366 56.1712C65.1991 54.3595 63.6262 53.4454 60.5216 51.7078C63.4944 49.962 65.0508 49.0232 67.8343 47.3762C68.106 47.2115 68.4519 47.2115 68.7236 47.3762C71.5318 49.0232 73.0964 49.962 76.0857 51.7078H76.0939Z" fill="#4169E1" stroke="#1C1C1C" stroke-width="0.5" stroke-linejoin="round"/>
<path d="M76.094 51.708C76.1187 55.3808 76.1105 57.2995 76.0529 60.8241C76.0529 61.1288 75.8799 61.4088 75.6164 61.5652C72.7671 63.2452 71.2107 64.1757 68.2791 65.9051C68.2955 62.0099 68.312 60.0583 68.3285 56.1631C71.4413 54.3514 73.0059 53.4373 76.0858 51.6998L76.094 51.708Z" fill="#4169E1" stroke="#1C1C1C" stroke-width="0.5" stroke-linejoin="round"/>
<path d="M68.3377 56.1712C68.3212 60.0663 68.3047 62.0098 68.2883 65.9131C65.3401 64.1838 63.7755 63.2532 60.9097 61.5733C60.6462 61.4168 60.4733 61.1286 60.4733 60.8239C60.4486 57.3076 60.465 55.3889 60.5227 51.7161C63.6273 53.4454 65.2001 54.3677 68.3377 56.1794V56.1712Z" fill="#1C1C1C" stroke="#1C1C1C" stroke-width="0.5" stroke-linejoin="round"/>
<path d="M76.0939 38.5487C73.014 40.2781 71.4494 41.2004 68.3366 43.0121C65.1991 41.2004 63.6262 40.2863 60.5216 38.5487C63.4944 36.8029 65.0508 35.8641 67.8343 34.2171C68.106 34.0524 68.4519 34.0524 68.7236 34.2171C71.5318 35.8641 73.0964 36.8029 76.0857 38.5487H76.0939Z" fill="white" stroke="#1C1C1C" stroke-width="0.5" stroke-linecap="round" stroke-linejoin="round"/>
<path d="M76.094 38.5484C76.1187 42.2212 76.1105 44.14 76.0529 47.6645C76.0529 47.9692 75.8799 48.2492 75.6164 48.4057C72.7671 50.0856 71.2107 51.0162 68.2791 52.7455C68.2955 48.8504 68.312 46.8987 68.3285 43.0035C71.4413 41.1918 73.0059 40.2778 76.0858 38.5402L76.094 38.5484Z" fill="white" stroke="#1C1C1C" stroke-width="0.5" stroke-linecap="round" stroke-linejoin="round"/>
<path d="M68.3377 43.0118C68.3212 46.907 68.3047 48.8504 68.2883 52.7538C65.3401 51.0244 63.7755 50.0939 60.9097 48.4139C60.6462 48.2575 60.4733 47.9693 60.4733 47.6646C60.4486 44.1482 60.465 42.2295 60.5227 38.5567C63.6273 40.286 65.2001 41.2084 68.3377 43.02V43.0118Z" fill="white" stroke="#1C1C1C" stroke-width="0.5" stroke-linecap="round" stroke-linejoin="round"/>
<path d="M76.0939 25.3892C73.014 27.1185 71.4494 28.0408 68.3366 29.8525C65.1991 28.0408 63.6262 27.1267 60.5216 25.3892C63.4944 23.6434 65.0508 22.7046 67.8343 21.0576C68.106 20.8929 68.4519 20.8929 68.7236 21.0576C71.5318 22.7046 73.0964 23.6434 76.0857 25.3892H76.0939Z" fill="white" stroke="#1C1C1C" stroke-width="0.5" stroke-linejoin="round"/>
<path d="M76.094 25.3891C76.1187 29.0619 76.1105 30.9806 76.0529 34.5052C76.0529 34.8099 75.8799 35.0899 75.6164 35.2463C72.7671 36.9263 71.2107 37.8568 68.2791 39.5862C68.2955 35.691 68.312 33.7393 68.3285 29.8442C71.4413 28.0325 73.0059 27.1184 76.0858 25.3809L76.094 25.3891Z" fill="#4169E1" stroke="#1C1C1C" stroke-width="0.5" stroke-linejoin="round"/>
<path d="M68.3377 29.8441C68.3212 33.7393 68.3047 35.6827 68.2883 39.5861C65.3401 37.8567 63.7755 36.9262 60.9097 35.2463C60.6462 35.0898 60.4733 34.8016 60.4733 34.4969C60.4486 30.9805 60.465 29.0618 60.5227 25.389C63.6273 27.1183 65.2001 28.0407 68.3377 29.8524V29.8441Z" fill="#1C1C1C" stroke="#1C1C1C" stroke-width="0.5" stroke-linejoin="round"/>
<path d="M79.4855 49.4519C79.4855 55.3317 74.6516 60.0915 68.6895 60.0915C62.7274 60.0915 57.4652 54.9364 57.4652 49.0566C56.8888 39.1417 62.7274 38.8123 68.6895 38.8123C74.6516 38.8123 79.8149 39.3312 79.4855 49.4519Z" fill="#FF9500" stroke="#1C1C1C" stroke-width="0.5" stroke-linejoin="round"/>
<path d="M68.4398 57.2504C74.5172 57.2504 79.45 52.2435 79.45 46.0591C79.45 39.8746 74.5255 34.8678 68.4398 34.8678C62.3542 34.8678 57.4297 39.8746 57.4297 46.0591C57.4297 52.2435 62.3542 57.2504 68.4398 57.2504Z" fill="#FFE2C8" stroke="#1C1C1C" stroke-width="0.5" stroke-linejoin="round"/>
<path d="M68.4652 54.7223C73.258 54.7223 77.1366 50.8437 77.1366 46.0509C77.1366 41.2582 73.258 37.3795 68.4652 37.3795C63.6725 37.3795 59.7938 41.2582 59.7938 46.0509C59.7938 50.8437 63.6725 54.7223 68.4652 54.7223Z" fill="#FF9500" stroke="#1C1C1C" stroke-width="0.5" stroke-linejoin="round"/>
<path d="M72.2872 43.4816C72.386 44.4863 71.9743 45.0957 71.3402 45.4333C72.4025 45.7051 73.0613 46.3556 72.9295 47.8379C72.7648 49.6743 71.472 50.1767 69.6109 50.2837V51.659C69.6109 51.9636 69.3638 52.2107 69.0591 52.2107C68.7544 52.2107 68.5074 51.9636 68.5074 51.659V50.3167C68.2191 50.3167 67.9227 50.3167 67.6262 50.3002V51.659C67.6262 51.9636 67.3792 52.2107 67.0745 52.2107C66.7698 52.2107 66.5227 51.9636 66.5227 51.659V50.2837C66.2675 50.2837 66.0039 50.2672 65.7322 50.2672H65.0981C64.6699 50.2672 64.3487 49.8884 64.4228 49.4685C64.4805 49.1308 64.7769 48.892 65.1146 48.892C65.3287 48.892 65.3204 48.892 65.3204 48.892C65.6334 48.892 65.7075 48.6614 65.7322 48.4967V45.458V43.2758C65.691 43.0452 65.5346 42.757 65.0899 42.757C65.0899 42.757 65.0899 42.757 64.9087 42.757C64.5628 42.757 64.2828 42.4852 64.2828 42.1393C64.2828 41.7935 64.5546 41.53 64.8922 41.53H66.5145V40.1712C66.5145 39.8665 66.7616 39.6194 67.0663 39.6194C67.3709 39.6194 67.618 39.8665 67.618 40.1712V41.4888C67.9145 41.4888 68.2027 41.4723 68.4991 41.4723V40.1712C68.4991 39.8665 68.7462 39.6194 69.0509 39.6194C69.3556 39.6194 69.6026 39.8665 69.6026 40.1712V41.53C71.0273 41.6535 72.1637 42.1146 72.279 43.4981L72.2872 43.4816ZM70.7308 47.6074C70.7308 46.1168 68.3838 46.3309 67.6345 46.3309V48.8838C68.3838 48.8838 70.7308 49.0567 70.7308 47.6074ZM70.2285 44.0087C70.2285 42.6334 68.2686 42.8393 67.6345 42.8393V45.1616C68.2686 45.1616 70.2285 45.3098 70.2285 44.0087Z" fill="white"/>
<path d="M63.9053 59.2843C60.8254 61.0136 59.2608 61.936 56.148 63.7477C53.0105 61.936 51.4376 61.0219 48.333 59.2843C51.3058 57.5385 52.8622 56.5997 55.6457 54.9527C55.9174 54.788 56.2633 54.788 56.535 54.9527C59.3431 56.5997 60.9078 57.5385 63.8971 59.2843H63.9053Z" fill="white" stroke="#1C1C1C" stroke-width="0.5" stroke-linejoin="round"/>
<path d="M63.9036 59.2842C63.9283 62.957 63.9201 64.8758 63.8624 68.4003C63.8624 68.705 63.6895 68.985 63.426 69.1415C60.5767 70.8214 59.0203 71.752 56.0886 73.4813C56.1051 69.5862 56.1216 67.6345 56.138 63.7394C59.2508 61.9277 60.8155 61.0136 63.8954 59.276L63.9036 59.2842Z" fill="#4169E1" stroke="#1C1C1C" stroke-width="0.5" stroke-linejoin="round"/>
<path d="M56.1472 63.7476C56.1308 67.6428 56.1143 69.5862 56.0978 73.4896C53.1497 71.7602 51.5851 70.8297 48.7193 69.1498C48.4558 68.9933 48.2828 68.7051 48.2828 68.4004C48.2581 64.884 48.2746 62.9653 48.3323 59.2925C51.4368 61.0219 53.0097 61.9442 56.1472 63.7559V63.7476Z" fill="#1C1C1C" stroke="#1C1C1C" stroke-width="0.5" stroke-linejoin="round"/>
<path d="M51.7189 66.8606C48.639 68.5899 47.0744 69.5123 43.9616 71.3239C40.8241 69.5123 39.2512 68.5982 36.1466 66.8606C39.1194 65.1148 40.6758 64.176 43.4593 62.529C43.731 62.3643 44.0769 62.3643 44.3486 62.529C47.1567 64.176 48.7214 65.1148 51.7107 66.8606H51.7189Z" fill="white" stroke="#1C1C1C" stroke-width="0.5" stroke-linejoin="round"/>
<path d="M51.7171 66.8605C51.7418 70.5333 51.7335 72.452 51.6759 75.9766C51.6759 76.2813 51.503 76.5613 51.2394 76.7177C48.3902 78.3976 46.8337 79.3282 43.9021 81.0575C43.9186 77.1624 43.935 75.2107 43.9515 71.3156C47.0643 69.5039 48.629 68.5898 51.7088 66.8522L51.7171 66.8605Z" fill="#4169E1" stroke="#1C1C1C" stroke-width="0.5" stroke-linejoin="round"/>
<path d="M43.9607 71.3239C43.9442 75.219 43.9278 77.1624 43.9113 81.0658C40.9632 79.3365 39.3985 78.4059 36.5328 76.726C36.2693 76.5695 36.0963 76.2813 36.0963 75.9766C36.0716 72.4603 36.0881 70.5415 36.1457 66.8687C39.2503 68.5981 40.8232 69.5204 43.9607 71.3321V71.3239Z" fill="#1C1C1C" stroke="#1C1C1C" stroke-width="0.5" stroke-linejoin="round"/>
<path d="M63.9053 46.1247C60.8254 47.854 59.2608 48.7764 56.148 50.588C53.0105 48.7764 51.4376 47.8623 48.333 46.1247C51.3058 44.3789 52.8622 43.4401 55.6457 41.7931C55.9174 41.6284 56.2633 41.6284 56.535 41.7931C59.3431 43.4401 60.9078 44.3789 63.8971 46.1247H63.9053Z" fill="white" stroke="#1C1C1C" stroke-width="0.5" stroke-linejoin="round"/>
<path d="M63.9036 46.1247C63.9283 49.7975 63.9201 51.7162 63.8624 55.2408C63.8624 55.5455 63.6895 55.8254 63.426 55.9819C60.5767 57.6618 59.0203 58.5924 56.0886 60.3217C56.1051 56.4266 56.1216 54.4749 56.138 50.5798C59.2508 48.7681 60.8155 47.854 63.8954 46.1164L63.9036 46.1247Z" fill="#4169E1" stroke="#1C1C1C" stroke-width="0.5" stroke-linejoin="round"/>
<path d="M56.1472 50.5797C56.1308 54.4748 56.1143 56.4182 56.0978 60.3216C53.1497 58.5923 51.5851 57.6617 48.7193 55.9818C48.4558 55.8253 48.2828 55.5371 48.2828 55.2324C48.2581 51.7161 48.2746 49.7973 48.3323 46.1245C51.4368 47.8539 53.0097 48.7762 56.1472 50.5879V50.5797Z" fill="#1C1C1C" stroke="#1C1C1C" stroke-width="0.5" stroke-linejoin="round"/>
<path d="M51.7189 53.7012C48.639 55.4305 47.0744 56.3528 43.9616 58.1645C40.8241 56.3528 39.2512 55.4388 36.1466 53.7012C39.1194 51.9554 40.6758 51.0166 43.4593 49.3696C43.731 49.2049 44.0769 49.2049 44.3486 49.3696C47.1567 51.0166 48.7214 51.9554 51.7107 53.7012H51.7189Z" fill="white" stroke="#1C1C1C" stroke-width="0.5" stroke-linejoin="round"/>
<path d="M51.7171 53.7009C51.7418 57.3737 51.7335 59.2924 51.6759 62.817C51.6759 63.1217 51.503 63.4016 51.2394 63.5581C48.3902 65.238 46.8337 66.1686 43.9021 67.8979C43.9186 64.0028 43.935 62.0511 43.9515 58.156C47.0643 56.3443 48.629 55.4302 51.7088 53.6926L51.7171 53.7009Z" fill="#4169E1" stroke="#1C1C1C" stroke-width="0.5" stroke-linejoin="round"/>
<path d="M43.9607 58.1561C43.9442 62.0513 43.9278 63.9947 43.9113 67.8981C40.9632 66.1687 39.3985 65.2382 36.5328 63.5583C36.2693 63.4018 36.0963 63.1136 36.0963 62.8089C36.0716 59.2926 36.0881 57.3738 36.1457 53.701C39.2503 55.4304 40.8232 56.3527 43.9607 58.1644V58.1561Z" fill="#1C1C1C" stroke="#1C1C1C" stroke-width="0.5" stroke-linejoin="round"/>
<path d="M63.9053 32.9654C60.8254 34.6947 59.2608 35.6171 56.148 37.4287C53.0105 35.6171 51.4376 34.703 48.333 32.9654C51.3058 31.2196 52.8622 30.2808 55.6457 28.6338C55.9174 28.4691 56.2633 28.4691 56.535 28.6338C59.3431 30.2808 60.9078 31.2196 63.8971 32.9654H63.9053Z" fill="white" stroke="#1C1C1C" stroke-width="0.5" stroke-linejoin="round"/>
<path d="M63.9036 32.9653C63.9283 36.6381 63.9201 38.5569 63.8624 42.0814C63.8624 42.3861 63.6895 42.6661 63.426 42.8226C60.5767 44.5025 59.0203 45.4331 56.0886 47.1624C56.1051 43.2673 56.1216 41.3156 56.138 37.4204C59.2508 35.6087 60.8155 34.6947 63.8954 32.9571L63.9036 32.9653Z" fill="#4169E1" stroke="#1C1C1C" stroke-width="0.5" stroke-linejoin="round"/>
<path d="M56.1472 37.4204C56.1308 41.3155 56.1143 43.2589 56.0978 47.1623C53.1497 45.433 51.5851 44.5024 48.7193 42.8225C48.4558 42.666 48.2828 42.3778 48.2828 42.0731C48.2581 38.5568 48.2746 36.638 48.3323 32.9652C51.4368 34.6946 53.0097 35.6169 56.1472 37.4286V37.4204Z" fill="#1C1C1C" stroke="#1C1C1C" stroke-width="0.5" stroke-linejoin="round"/>
<path d="M51.7189 40.5415C48.639 42.2708 47.0744 43.1932 43.9616 45.0049C40.8241 43.1932 39.2512 42.2791 36.1466 40.5415C39.1194 38.7957 40.6758 37.8569 43.4593 36.2099C43.731 36.0452 44.0769 36.0452 44.3486 36.2099C47.1567 37.8569 48.7214 38.7957 51.7107 40.5415H51.7189Z" fill="white" stroke="#1C1C1C" stroke-width="0.5" stroke-linejoin="round"/>
<path d="M51.7171 40.5416C51.7418 44.2144 51.7335 46.1331 51.6759 49.6577C51.6759 49.9624 51.503 50.2423 51.2394 50.3988C48.3902 52.0787 46.8337 53.0093 43.9021 54.7386C43.9186 50.8435 43.935 48.8918 43.9515 44.9967C47.0643 43.185 48.629 42.2709 51.7088 40.5333L51.7171 40.5416Z" fill="#4169E1" stroke="#1C1C1C" stroke-width="0.5" stroke-linejoin="round"/>
<path d="M43.9607 44.9966C43.9442 48.8917 43.9278 50.8352 43.9113 54.7385C40.9632 53.0092 39.3985 52.0787 36.5328 50.3987C36.2693 50.2423 36.0963 49.954 36.0963 49.6493C36.0716 46.133 36.0881 44.2143 36.1457 40.5415C39.2503 42.2708 40.8232 43.1931 43.9607 45.0048V44.9966Z" fill="#1C1C1C" stroke="#1C1C1C" stroke-width="0.5" stroke-linejoin="round"/>
</svg>
