<svg width="102" height="102" viewBox="0 0 102 102" fill="none" xmlns="http://www.w3.org/2000/svg">
<rect x="0.5" y="0.5" width="101" height="101" rx="4.5" stroke="#9747FF" stroke-dasharray="10 5"/>
<path d="M71.639 54.34C71.639 65.4739 62.5886 74.5 51.424 74.5C40.2595 74.5 30.4077 64.7273 30.4077 53.5933C29.3237 34.8107 40.2595 34.1799 51.424 34.1799C62.5886 34.1799 72.2521 35.1552 71.639 54.34Z" fill="#A395CC" stroke="#1C1C1C" stroke-width="0.5" stroke-miterlimit="10"/>
<path d="M50.9477 70.3974C62.3327 70.3974 71.562 60.9064 71.562 49.1987C71.562 37.491 62.3327 28 50.9477 28C39.5628 28 30.3334 37.491 30.3334 49.1987C30.3334 60.9064 39.5628 70.3974 50.9477 70.3974Z" fill="#E0D0F5" stroke="#1C1C1C" stroke-width="0.5" stroke-miterlimit="10"/>
<path d="M51.0003 65.6186C59.9684 65.6186 67.2384 58.2641 67.2384 49.1919C67.2384 40.1197 59.9684 32.7652 51.0003 32.7652C42.0323 32.7652 34.7622 40.1197 34.7622 49.1919C34.7622 58.2641 42.0323 65.6186 51.0003 65.6186Z" fill="#A395CC" stroke="#1C1C1C" stroke-width="0.5" stroke-miterlimit="10"/>
<path d="M55.9267 45.8994C55.5728 45.6983 55.1179 45.6983 54.7135 45.8994L51.8828 47.5582L49.9619 48.6138L47.1818 50.2726C46.8279 50.4737 46.373 50.4737 45.9686 50.2726L43.795 48.9657C43.4412 48.7646 43.1884 48.3625 43.1884 47.9101V45.3967C43.1884 44.9946 43.3906 44.5924 43.795 44.3411L45.9686 43.0844C46.3224 42.8833 46.7774 42.8833 47.1818 43.0844L49.3554 44.3913C49.7092 44.5924 49.9619 44.9946 49.9619 45.447V47.1058L51.8828 45.9999V44.2908C51.8828 43.8887 51.6806 43.4865 51.2762 43.2352L47.2323 40.8726C46.8785 40.6716 46.4235 40.6716 46.0191 40.8726L41.8742 43.2855C41.4698 43.4865 41.2676 43.8887 41.2676 44.2908V49.0159C41.2676 49.4181 41.4698 49.8202 41.8742 50.0716L45.9686 52.4341C46.3224 52.6352 46.7774 52.6352 47.1818 52.4341L49.9619 50.8256L51.8828 49.7197L54.663 48.1111C55.0168 47.9101 55.4717 47.9101 55.8761 48.1111L58.0497 49.3678C58.4035 49.5689 58.6563 49.971 58.6563 50.4234V52.9368C58.6563 53.3389 58.4541 53.7411 58.0497 53.9924L55.9267 55.2491C55.5728 55.4502 55.1179 55.4502 54.7135 55.2491L52.5399 53.9924C52.1861 53.7913 51.9333 53.3892 51.9333 52.9368V51.3282L50.0125 52.4341V54.0929C50.0125 54.4951 50.2147 54.8972 50.6191 55.1486L54.7135 57.5111C55.0673 57.7122 55.5223 57.7122 55.9267 57.5111L60.0211 55.1486C60.3749 54.9475 60.6277 54.5454 60.6277 54.0929V49.3175C60.6277 48.9154 60.4255 48.5133 60.0211 48.2619L55.9267 45.8994Z" fill="white"/>
</svg>
