<svg width="62" height="62" viewBox="0 0 62 62" fill="none" xmlns="http://www.w3.org/2000/svg">
<g clip-path="url(#clip0_18011_6168)">
<path d="M39.7003 40.584C39.7003 50.894 31.2203 59.2541 20.7603 59.2541C10.3003 59.2541 1.0703 50.204 1.0703 39.894C0.0502976 22.504 10.3003 21.9141 20.7603 21.9141C31.2203 21.9141 40.2703 22.814 39.7003 40.584Z" fill="#FF007A" stroke="#1C1C1C" stroke-width="0.5" stroke-linejoin="round"/>
<path d="M20.31 54.26C30.98 54.26 39.62 45.47 39.62 34.63C39.62 23.79 30.97 15 20.31 15C9.65 15 1 23.79 1 34.63C1 45.47 9.65 54.26 20.31 54.26Z" fill="#FF99CA" stroke="#1C1C1C" stroke-width="0.5" stroke-linejoin="round"/>
<path d="M20.3663 49.8419C28.7663 49.8419 35.5763 43.0319 35.5763 34.6319C35.5763 26.2319 28.7663 19.4219 20.3663 19.4219C11.9663 19.4219 5.15625 26.2319 5.15625 34.6319C5.15625 43.0319 11.9663 49.8419 20.3663 49.8419Z" fill="white" stroke="#1C1C1C" stroke-width="0.5" stroke-linejoin="round"/>
<path d="M24.4822 28.3894C23.6722 28.0494 22.7722 27.8594 21.8322 27.8594C18.0422 27.8594 14.9722 30.9294 14.9722 34.7194C14.9722 36.5994 15.7322 38.3094 16.9622 39.5494C14.4822 38.5094 12.7422 36.0694 12.7422 33.2194C12.7422 29.4294 15.8222 26.3594 19.6122 26.3594C21.5122 26.3594 23.2322 27.1394 24.4822 28.3894Z" fill="#FF007A"/>
<path d="M25.3538 28.1619C24.9238 27.9119 24.5237 27.6119 24.1237 27.3219C22.9037 26.4419 21.4038 25.9219 19.7838 25.9219C15.6738 25.9219 12.3438 29.2619 12.3438 33.3619C12.3438 35.6819 13.4038 37.7519 15.0838 39.1319C13.7738 39.3419 12.4937 39.7819 12.4937 40.6619C12.4937 42.2019 17.2038 42.1519 17.7538 42.1719C18.3838 42.1919 21.5538 42.0619 21.6638 42.0619C25.7738 42.0619 29.1038 38.7219 29.1038 34.6119C29.1038 31.8519 27.5938 29.4319 25.3538 28.1519V28.1619ZM23.1938 40.8519C22.9838 40.9119 22.7638 40.9519 22.5438 40.9719C22.2538 41.0119 21.9537 41.0419 21.6537 41.0419C21.5237 41.0419 21.3938 41.0419 21.2538 41.0319C20.8038 41.0119 20.3738 40.9319 19.9538 40.8219C19.4138 40.6719 18.8938 40.4519 18.4238 40.1719C18.3038 40.1019 18.1738 40.0219 18.0538 39.9419C17.8238 39.7819 17.6037 39.6119 17.4037 39.4319C17.3337 39.3719 17.2837 39.3119 17.2137 39.2519C17.1137 39.1519 17.0037 39.0419 16.9037 38.9319C15.8737 37.7919 15.2437 36.2719 15.2437 34.6219C15.2437 31.0819 18.1237 28.2019 21.6537 28.2019C22.5637 28.2019 23.4337 28.3919 24.2137 28.7419C24.6737 28.9419 25.1138 29.1919 25.5238 29.5019C25.9738 29.8419 26.3738 30.2319 26.7238 30.6819C27.5738 31.7719 28.0838 33.1419 28.0838 34.6319C28.0838 37.6419 26.0038 40.1719 23.2038 40.8619L23.1938 40.8519ZM13.3638 33.3719C13.3638 29.8319 16.2438 26.9519 19.7838 26.9519C20.0738 26.9519 20.3638 26.9719 20.6438 27.0119C20.9238 27.0519 20.9338 27.2119 20.6638 27.2419C17.0238 27.7219 14.2038 30.8519 14.2038 34.6219C14.2038 35.1919 14.2638 35.7519 14.3938 36.2919C14.4738 36.6419 14.3038 36.7419 14.1438 36.4419C13.6438 35.5319 13.3638 34.4819 13.3638 33.3719Z" fill="#1C1C1C"/>
<path d="M24.9459 32.0926C24.6459 31.8026 24.1259 31.8126 23.8759 32.0626C23.7659 32.1626 23.6959 32.2826 23.6459 32.4226C23.6159 32.5226 23.5759 32.6526 23.5459 32.8226L23.1359 34.6426L22.6959 33.0026C22.6259 32.7626 22.5759 32.5826 22.5359 32.4826C22.4859 32.3326 22.3859 32.2026 22.2559 32.0826C21.9559 31.8126 21.3659 31.8126 21.0459 32.0726C20.9059 32.1826 20.8059 32.3226 20.7359 32.4826C20.6859 32.6026 20.6359 32.7826 20.5759 33.0026L20.1359 34.6426L19.7259 32.8326C19.6659 32.5726 19.6059 32.3726 19.5259 32.2226C19.4459 32.0726 19.2659 31.8826 18.8759 31.8826C18.6559 31.8826 18.4659 31.9626 18.3159 32.1026C18.1659 32.2526 18.0859 32.4426 18.0859 32.6526C18.0859 32.7826 18.1159 32.9626 18.1759 33.1826L19.0359 36.6426C19.0659 36.7426 19.0959 36.8626 19.1259 36.9826C19.1659 37.1326 19.2159 37.2626 19.2859 37.3726C19.3659 37.5026 19.4659 37.6126 19.5959 37.6826C19.8859 37.8526 20.3659 37.8326 20.6359 37.6026C20.7759 37.4926 20.8659 37.3526 20.9259 37.2026C20.9659 37.0926 21.0259 36.9226 21.0959 36.6726L21.6459 34.6526L22.1859 36.6726C22.2559 36.9326 22.3159 37.1026 22.3559 37.2126C22.4159 37.3626 22.5059 37.4926 22.6459 37.6026C22.7959 37.7326 22.9859 37.7926 23.2159 37.7926C23.4559 37.7926 23.6559 37.7226 23.8059 37.5926C23.9359 37.4726 24.0259 37.3426 24.0859 37.1826C24.1259 37.0726 24.1759 36.8926 24.2359 36.6426L25.0959 33.1826C25.1559 32.9426 25.1859 32.7726 25.1859 32.6526C25.1859 32.4326 25.1059 32.2426 24.9459 32.0926Z" fill="#1C1C1C"/>
<path d="M43.3549 34.9661C42.8125 34.9661 42.367 34.5336 42.3681 33.9911C42.3773 29.252 43.4336 25.4629 47.5177 23.1158C48.9897 22.1214 50.3848 21.0971 51.2096 19.5722C52.4091 17.428 51.6735 14.3051 49.4029 13.25C46.4951 11.7356 42.6734 13.3834 42.0554 16.6462C41.9516 17.1946 41.513 17.6566 40.9549 17.6566H34.9981C34.4464 17.6566 33.9951 17.1955 34.0337 16.6451C35.1985 0.039004 65.7137 3.58285 59.5606 21.0613C58.01 25.0538 54.521 26.1131 51.7464 28.6739C50.3257 30.116 49.8596 31.9039 49.7888 33.9452C49.7694 34.5052 49.323 34.9661 48.7626 34.9661H43.3549Z" fill="#FF9500" stroke="#1C1C1C" stroke-width="0.5" stroke-miterlimit="10" stroke-linejoin="round"/>
<path d="M49.9417 45.0321C49.8832 45.4729 49.5273 45.812 49.0847 45.854C48.1926 45.9387 47.2241 45.9924 46.1888 45.9962C45.0676 46.0002 44.0232 45.9446 43.0678 45.854C42.6244 45.812 42.2682 45.472 42.2098 45.0305C42.0857 44.0916 42.0018 43.0222 42.0076 41.8449C42.0142 40.4406 42.1467 39.1935 42.3202 38.1434C43.3446 37.9663 44.5613 37.8299 45.9319 37.8208C47.4244 37.8108 48.7401 37.9547 49.83 38.1434C50.0051 39.2001 50.1393 40.4606 50.1442 41.8815C50.148 43.0454 50.0651 44.1033 49.9417 45.0321Z" fill="#FF9500" stroke="#1C1C1C" stroke-width="0.5" stroke-miterlimit="10" stroke-linejoin="round"/>
<path d="M43.3549 32.0677C42.8125 32.0677 42.367 31.6351 42.3681 31.0927C42.3773 26.3535 43.4336 22.5644 47.5177 20.2173C48.9897 19.2229 50.3848 18.1986 51.2096 16.6738C52.4091 14.5295 51.6735 11.4067 49.4029 10.3516C46.4951 8.83719 42.6734 10.4849 42.0554 13.7477C41.9516 14.2962 41.513 14.7582 40.9549 14.7582H34.9981C34.4464 14.7582 33.9951 14.2971 34.0337 13.7467C35.1985 -2.85943 65.7137 0.684408 59.5606 18.1629C58.01 22.1554 54.521 23.2146 51.7464 25.7754C50.3257 27.2175 49.8596 29.0055 49.7888 31.0468C49.7694 31.6068 49.323 32.0677 48.7626 32.0677H43.3549Z" fill="#FFE2C8" stroke="#1C1C1C" stroke-width="0.5" stroke-miterlimit="10" stroke-linejoin="round"/>
<path d="M49.9417 42.1337C49.8832 42.5744 49.5273 42.9136 49.0847 42.9556C48.1926 43.0403 47.2241 43.0939 46.1888 43.0978C45.0676 43.1017 44.0232 43.0462 43.0678 42.9556C42.6244 42.9135 42.2682 42.5736 42.2098 42.132C42.0857 41.1931 42.0018 40.1238 42.0076 38.9465C42.0127 37.8436 42.0956 36.8376 42.215 35.9479C42.2716 35.526 42.6009 35.1941 43.0224 35.1351C43.8864 35.0141 44.8623 34.9295 45.9319 34.9224C47.1171 34.9144 48.1908 35.0035 49.1285 35.135C49.5497 35.1941 49.8787 35.5257 49.9354 35.9472C50.0564 36.8457 50.1403 37.8647 50.1442 38.9831C50.148 40.147 50.0651 41.2049 49.9417 42.1337Z" fill="#FFE2C8" stroke="#1C1C1C" stroke-width="0.5" stroke-miterlimit="10" stroke-linejoin="round"/>
</g>
<defs>
<clipPath id="clip0_18011_6168">
<rect width="62" height="62" rx="5" fill="white"/>
</clipPath>
</defs>
</svg>
