<svg width="62" height="62" viewBox="0 0 62 62" fill="none" xmlns="http://www.w3.org/2000/svg">
<g clip-path="url(#clip0_18011_3387)">
<path d="M14.9112 10.5295C15.036 9.21549 16.0858 8.18774 17.4072 8.07763C24.6087 7.46098 31.803 7.46098 39.0045 8.07763C40.3186 8.18774 41.3683 9.21549 41.5078 10.5222C42.0584 15.9252 42.0584 21.3282 41.5078 26.7312C41.3683 28.0453 40.3259 29.0657 39.0045 29.1758C31.825 29.7924 24.6454 29.7924 17.4659 29.1758C16.1225 29.0583 15.0654 28.0012 14.9479 26.6578C14.4708 21.0786 14.4267 15.683 14.9186 10.5222L14.9112 10.5295Z" fill="#FF9500" stroke="#1C1C1C" stroke-width="0.5" stroke-miterlimit="10"/>
<path d="M14.9112 8.44462C15.036 7.13058 16.0858 6.10283 17.4072 5.99271C24.6087 5.37607 31.803 5.37607 39.0045 5.99271C40.3186 6.10283 41.3683 7.13058 41.5078 8.43728C42.0584 13.8403 42.0584 19.2433 41.5078 24.6463C41.3683 25.9604 40.3259 26.9808 39.0045 27.0909C31.825 27.7075 24.6454 27.7075 17.4659 27.0909C16.1225 26.9734 15.0654 25.9163 14.9479 24.5729C14.4708 18.9937 14.4267 13.598 14.9186 8.43728L14.9112 8.44462Z" fill="#FFE2C8" stroke="#1C1C1C" stroke-width="0.5" stroke-linejoin="round"/>
<path d="M29.9755 17.1584C30.0343 14.6258 32.1925 12.6143 34.7252 12.5629C37.3019 12.5189 39.8419 12.6363 42.5067 12.8933C42.8664 15.3966 42.7563 18.0614 42.6756 21.4529C42.6682 21.8127 42.3893 22.1136 42.0295 22.143C39.6437 22.3485 37.3093 22.4293 34.9528 22.3706C32.1705 22.3045 29.9021 19.948 29.9682 17.1511L29.9755 17.1584Z" fill="#FF9500" stroke="#1C1C1C" stroke-width="0.5" stroke-miterlimit="10"/>
<path d="M29.9756 15.4847C30.0343 12.9447 32.1926 10.9406 34.7326 10.8745C37.2726 10.8085 39.585 10.8745 42.0076 11.0874C42.4113 11.1241 42.727 11.4545 42.749 11.8582C42.9325 15.2131 42.9252 16.2996 42.7931 20.4252C40.2017 20.6748 37.5736 20.7703 34.9602 20.7115C32.1706 20.6455 29.9169 18.289 29.9829 15.492L29.9756 15.4847Z" fill="#FFE2C8" stroke="#1C1C1C" stroke-width="0.5" stroke-linejoin="round"/>
<path d="M34.5338 17.6797C35.7906 17.6797 36.8095 16.6609 36.8095 15.404C36.8095 14.1472 35.7906 13.1283 34.5338 13.1283C33.2769 13.1283 32.2581 14.1472 32.2581 15.404C32.2581 16.6609 33.2769 17.6797 34.5338 17.6797Z" fill="#FF9500" stroke="#1C1C1C" stroke-width="0.5" stroke-miterlimit="10"/>
<path d="M26.7159 41.8464C19.9842 41.7877 13.2451 41.7877 6.51338 41.8317C4.22297 41.8464 1.46274 40.6572 1.79309 38.242C1.67563 38.609 1.59488 38.9908 1.58754 39.3798C1.4921 44.1662 1.48476 48.9599 1.58754 53.7536C1.63892 56.4625 3.91465 58.7235 6.6235 58.7602C13.2818 58.863 19.9328 58.863 26.5911 58.7162C27.3326 58.7015 27.9566 58.0848 27.9786 57.336C28.074 52.6231 28.1181 47.9175 28.1034 43.2045C28.1034 42.4631 27.4794 41.8464 26.7306 41.8464H26.7159Z" fill="#FFE2C8" stroke="#1C1C1C" stroke-width="0.5" stroke-linejoin="round"/>
<path d="M25.9003 34.3292C25.9737 37.7354 25.9958 39.4459 26.0104 42.8521C19.5577 42.8301 13.1049 42.8301 6.65211 42.8521C3.92124 42.8595 1.54274 40.6718 1.58678 37.9777C1.60881 36.6196 1.77031 35.2395 2.68794 34.3292C3.60557 33.4189 5.26465 32.9711 6.6154 32.9491C12.5837 32.883 18.5446 32.883 24.5129 32.9491C25.2543 32.9637 25.871 33.5804 25.893 34.3292H25.9003Z" fill="#FFE2C8" stroke="#1C1C1C" stroke-width="0.5" stroke-linejoin="round"/>
<path d="M4.4353 38.8218V43.2191C4.4353 44.4435 5.42789 45.4361 6.6523 45.4361H20.7985C22.0229 45.4361 23.0155 44.4435 23.0155 43.2191V38.8218C23.0155 37.5974 22.0229 36.6048 20.7985 36.6048H6.6523C5.42789 36.6048 4.4353 37.5974 4.4353 38.8218Z" fill="white" stroke="#1C1C1C" stroke-width="0.5" stroke-linejoin="round"/>
<path d="M26.7159 39.1962C19.9842 39.1375 13.2451 39.1375 6.51338 39.1816C4.22297 39.1962 1.46274 38.007 1.79309 35.5918C1.67563 35.9588 1.59488 36.3406 1.58754 36.7296C1.4921 41.516 1.48476 46.3097 1.58754 51.1034C1.63892 53.8123 3.91465 56.0733 6.6235 56.11C13.2818 56.2128 19.9328 56.2128 26.5911 56.066C27.3326 56.0513 27.9566 55.4346 27.9786 54.6858C28.074 49.9729 28.1181 45.2673 28.1034 40.5543C28.1034 39.8129 27.4794 39.1962 26.7306 39.1962H26.7159Z" fill="#FF9500" stroke="#1C1C1C" stroke-width="0.5" stroke-linejoin="round"/>
<path d="M17.7526 4.8991C18.4353 5.14869 18.9859 5.35424 19.5291 5.55979C20.2999 5.84609 20.2999 6.93257 19.5291 7.21887C18.9786 7.42442 18.428 7.62997 17.7526 7.87956C17.5103 7.96766 17.3121 8.16586 17.2167 8.40812C16.9671 9.09084 16.7616 9.64142 16.556 10.1847C16.2697 10.9555 15.1832 10.9555 14.8969 10.1847C14.6914 9.63407 14.4858 9.0835 14.2362 8.40812C14.1481 8.16586 13.9499 7.96766 13.7003 7.87222C13.0176 7.62263 12.467 7.41708 11.9238 7.21153C11.153 6.92523 11.153 5.83875 11.9238 5.55245C12.4744 5.3469 13.025 5.14135 13.7003 4.89176C13.9426 4.80367 14.1408 4.60546 14.2289 4.35586C14.4785 3.67314 14.684 3.12257 14.8896 2.57933C15.1759 1.80852 16.2624 1.80852 16.5487 2.57933C16.7542 3.12991 16.9598 3.68049 17.2094 4.35586C17.2975 4.59812 17.4957 4.79632 17.7379 4.89176L17.7526 4.8991Z" fill="white" stroke="#1C1C1C" stroke-width="0.5" stroke-linejoin="round"/>
<path d="M23.9996 46.1777H20.5566V49.6207H23.9996V46.1777Z" fill="#FFE2C8" stroke="#1C1C1C" stroke-width="0.5" stroke-linejoin="round"/>
<path d="M58.2661 40.1947C49.3541 40.0773 43.9217 40.0773 35.0097 40.1947C33.3653 39.8791 33.2992 39.2991 33.5782 38.3742C32.0953 38.1906 32.5798 48.4681 32.8147 55.8165C32.8587 57.2627 34.1728 58.6281 35.6997 58.6281C43.7749 58.7602 48.341 58.7676 55.9023 58.6575C57.187 58.6355 58.2367 57.6077 58.2808 56.323C58.4643 50.3988 58.457 46.7576 58.2661 40.2021V40.1947Z" fill="#CCD9FD" stroke="#1C1C1C" stroke-width="0.5" stroke-linejoin="round"/>
<path d="M56.6444 53.9885C47.9379 54.084 42.7845 54.0693 34.078 53.9518C33.4467 53.9445 32.9328 53.4453 32.9181 52.8287C32.7272 46.5594 32.3161 43.5349 32.5657 37.2583C32.5878 36.6416 33.5641 35.5478 36.1922 35.5478C44.3775 35.5478 47.5635 35.401 55.1908 35.4891C55.969 35.4964 56.6077 36.1278 56.6297 36.9059C56.8132 43.3954 56.8132 47.0806 56.6444 53.9885Z" fill="#4169E1" stroke="#1C1C1C" stroke-width="0.5" stroke-linejoin="round"/>
<path d="M58.2012 56.5066C49.3332 56.6534 43.9449 56.6534 35.0769 56.5066C34.82 49.1288 34.8053 45.4436 35.0109 38.0732C43.2842 37.9704 48.5551 37.9631 56.4027 38.0512C57.4451 38.0658 58.2967 38.9027 58.3187 39.9378C58.4729 46.119 58.4435 49.7748 58.2012 56.4992V56.5066Z" fill="#4169E1" stroke="#1C1C1C" stroke-width="0.5" stroke-linejoin="round"/>
<path d="M35.0401 38.1025H32.7864C32.3312 41.5161 32.6396 48.982 32.8157 54.4364C32.8598 55.8826 34.0637 56.4552 35.0768 56.5139C44.2311 50.0024 40.2742 41.4868 35.0401 38.0952V38.1025Z" fill="#FF9500" stroke="#1C1C1C" stroke-width="0.5" stroke-miterlimit="10"/>
<path d="M59.4708 49.1948C57.107 49.2094 55.9251 49.2094 53.5686 49.2168C53.5833 47.5944 53.5833 46.7796 53.5759 45.1572C55.9398 45.1572 57.1217 45.1572 59.4855 45.1645C59.4855 46.7722 59.4855 47.5797 59.4708 49.1874V49.1948Z" fill="#FF9500" stroke="#1C1C1C" stroke-width="0.5" stroke-miterlimit="10"/>
</g>
<defs>
<clipPath id="clip0_18011_3387">
<rect width="62" height="62" rx="5" fill="white"/>
</clipPath>
</defs>
</svg>
