<svg width="102" height="102" viewBox="0 0 102 102" fill="none" xmlns="http://www.w3.org/2000/svg">
<rect x="0.5" y="0.5" width="101" height="101" rx="4.5" stroke="#9747FF" stroke-dasharray="10 5"/>
<path d="M61.8376 69.7364C68.4115 69.7364 73.7406 69.1851 73.7406 68.505C73.7406 67.8249 68.4115 67.2736 61.8376 67.2736C55.2637 67.2736 49.9346 67.8249 49.9346 68.505C49.9346 69.1851 55.2637 69.7364 61.8376 69.7364Z" fill="#434248" stroke="#1C1C1C" stroke-width="0.5" stroke-linejoin="round"/>
<path d="M77.1405 69.954V75.4048C77.1405 77.1044 70.1318 78.4897 61.491 78.4897C52.8501 78.4897 45.8361 77.1044 45.8361 75.4048V69.954H77.1405Z" fill="#434248" stroke="#1C1C1C" stroke-width="0.5" stroke-linejoin="round"/>
<path d="M61.4922 72.7706C70.1352 72.7706 77.1417 71.3894 77.1417 69.6857C77.1417 67.982 70.1352 66.6008 61.4922 66.6008C52.8492 66.6008 45.8427 67.982 45.8427 69.6857C45.8427 71.3894 52.8492 72.7706 61.4922 72.7706Z" fill="#96949C" stroke="#1C1C1C" stroke-width="0.5" stroke-linejoin="round"/>
<path d="M61.8402 70.5866C68.414 70.5866 73.7432 70.0353 73.7432 69.3552C73.7432 68.6751 68.414 68.1238 61.8402 68.1238C55.2663 68.1238 49.9371 68.6751 49.9371 69.3552C49.9371 70.0353 55.2663 70.5866 61.8402 70.5866Z" fill="#434248" stroke="#1C1C1C" stroke-width="0.5" stroke-linejoin="round"/>
<path d="M77.1405 64.0786V69.5294C77.1405 71.229 70.1318 72.6143 61.491 72.6143C52.8501 72.6143 45.8361 71.229 45.8361 69.5294V64.0786H77.1405Z" fill="#434248" stroke="#1C1C1C" stroke-width="0.5" stroke-linejoin="round"/>
<path d="M61.4922 66.8953C70.1352 66.8953 77.1417 65.5141 77.1417 63.8104C77.1417 62.1067 70.1352 60.7255 61.4922 60.7255C52.8492 60.7255 45.8427 62.1067 45.8427 63.8104C45.8427 65.5141 52.8492 66.8953 61.4922 66.8953Z" fill="#96949C" stroke="#1C1C1C" stroke-width="0.5" stroke-linejoin="round"/>
<path d="M61.8402 64.7112C68.414 64.7112 73.7432 64.1599 73.7432 63.4798C73.7432 62.7997 68.414 62.2484 61.8402 62.2484C55.2663 62.2484 49.9371 62.7997 49.9371 63.4798C49.9371 64.1599 55.2663 64.7112 61.8402 64.7112Z" fill="#434248" stroke="#1C1C1C" stroke-width="0.5" stroke-linejoin="round"/>
<path d="M61.8376 65.5292C68.4115 65.5292 73.7406 64.9778 73.7406 64.2978C73.7406 63.6177 68.4115 63.0663 61.8376 63.0663C55.2637 63.0663 49.9346 63.6177 49.9346 64.2978C49.9346 64.9778 55.2637 65.5292 61.8376 65.5292Z" fill="#434248" stroke="#1C1C1C" stroke-width="0.5" stroke-linejoin="round"/>
<path d="M77.1405 58.1909V63.6417C77.1405 65.3413 70.1318 66.7266 61.491 66.7266C52.8501 66.7266 45.8361 65.3413 45.8361 63.6417V58.1909H77.1405Z" fill="#434248" stroke="#1C1C1C" stroke-width="0.5" stroke-linejoin="round"/>
<path d="M61.4922 61.0075C70.1352 61.0075 77.1417 59.6264 77.1417 57.9226C77.1417 56.2189 70.1352 54.8378 61.4922 54.8378C52.8492 54.8378 45.8427 56.2189 45.8427 57.9226C45.8427 59.6264 52.8492 61.0075 61.4922 61.0075Z" fill="#96949C" stroke="#1C1C1C" stroke-width="0.5" stroke-linejoin="round"/>
<path d="M61.8402 58.8236C68.414 58.8236 73.7432 58.2723 73.7432 57.5922C73.7432 56.9121 68.414 56.3608 61.8402 56.3608C55.2663 56.3608 49.9371 56.9121 49.9371 57.5922C49.9371 58.2723 55.2663 58.8236 61.8402 58.8236Z" fill="#434248" stroke="#1C1C1C" stroke-width="0.5" stroke-linejoin="round"/>
<path d="M40.8564 79.8013C47.4302 79.8013 52.7594 79.2499 52.7594 78.5699C52.7594 77.8898 47.4302 77.3384 40.8564 77.3384C34.2825 77.3384 28.9533 77.8898 28.9533 78.5699C28.9533 79.2499 34.2825 79.8013 40.8564 79.8013Z" fill="#434248" stroke="#1C1C1C" stroke-width="0.5" stroke-linejoin="round"/>
<path d="M56.1592 72.463V77.9137C56.1592 79.6133 49.1506 80.9986 40.5097 80.9986C31.8688 80.9986 24.8548 79.6133 24.8548 77.9137V72.463H56.1592Z" fill="#434248" stroke="#1C1C1C" stroke-width="0.5" stroke-linejoin="round"/>
<path d="M40.5111 75.2796C49.1541 75.2796 56.1606 73.8984 56.1606 72.1947C56.1606 70.491 49.1541 69.1099 40.5111 69.1099C31.8681 69.1099 24.8616 70.491 24.8616 72.1947C24.8616 73.8984 31.8681 75.2796 40.5111 75.2796Z" fill="#96949C" stroke="#1C1C1C" stroke-width="0.5" stroke-linejoin="round"/>
<path d="M40.8589 73.0956C47.4328 73.0956 52.762 72.5443 52.762 71.8642C52.762 71.1841 47.4328 70.6328 40.8589 70.6328C34.2851 70.6328 28.9559 71.1841 28.9559 71.8642C28.9559 72.5443 34.2851 73.0956 40.8589 73.0956Z" fill="#434248" stroke="#1C1C1C" stroke-width="0.5" stroke-linejoin="round"/>
<path d="M40.8565 73.9337C47.4303 73.9337 52.7595 73.3824 52.7595 72.7023C52.7595 72.0222 47.4303 71.4709 40.8565 71.4709C34.2826 71.4709 28.9534 72.0222 28.9534 72.7023C28.9534 73.3824 34.2826 73.9337 40.8565 73.9337Z" fill="#434248" stroke="#1C1C1C" stroke-width="0.5" stroke-linejoin="round"/>
<path d="M56.1593 66.5955V72.0462C56.1593 73.7458 49.1507 75.1311 40.5098 75.1311C31.8689 75.1311 24.8549 73.7458 24.8549 72.0462V66.5955H56.1593Z" fill="#434248" stroke="#1C1C1C" stroke-width="0.5" stroke-linejoin="round"/>
<path d="M40.5112 69.412C49.1542 69.412 56.1607 68.0309 56.1607 66.3272C56.1607 64.6234 49.1542 63.2423 40.5112 63.2423C31.8682 63.2423 24.8617 64.6234 24.8617 66.3272C24.8617 68.0309 31.8682 69.412 40.5112 69.412Z" fill="#96949C" stroke="#1C1C1C" stroke-width="0.5" stroke-linejoin="round"/>
<path d="M40.859 67.228C47.4329 67.228 52.7621 66.6767 52.7621 65.9966C52.7621 65.3165 47.4329 64.7652 40.859 64.7652C34.2852 64.7652 28.956 65.3165 28.956 65.9966C28.956 66.6767 34.2852 67.228 40.859 67.228Z" fill="#434248" stroke="#1C1C1C" stroke-width="0.5" stroke-linejoin="round"/>
<path d="M77.5568 43.4857C77.5568 51.7222 70.8615 58.3995 62.6023 58.3995C54.3431 58.3995 47.055 51.1699 47.055 42.9333C46.2531 29.0385 54.3431 28.5718 62.6023 28.5718C70.8615 28.5718 78.0103 29.2933 77.5568 43.4857Z" fill="#434248" stroke="#1C1C1C" stroke-width="0.5" stroke-miterlimit="10"/>
<path d="M62.25 55.3644C70.6722 55.3644 77.4998 48.3433 77.4998 39.6822C77.4998 31.0212 70.6722 24.0001 62.25 24.0001C53.8277 24.0001 47.0001 31.0212 47.0001 39.6822C47.0001 48.3433 53.8277 55.3644 62.25 55.3644Z" fill="#96949C" stroke="#1C1C1C" stroke-width="0.5" stroke-miterlimit="10"/>
<path d="M62.2889 51.8292C68.9232 51.8292 74.3013 46.3886 74.3013 39.6772C74.3013 32.9658 68.9232 27.5252 62.2889 27.5252C55.6546 27.5252 50.2764 32.9658 50.2764 39.6772C50.2764 46.3886 55.6546 51.8292 62.2889 51.8292Z" fill="#434248" stroke="#1C1C1C" stroke-width="0.5" stroke-miterlimit="10"/>
<path d="M70.731 37.5883L70.1402 37.8881C69.6468 38.1406 69.3515 38.6607 69.3941 39.2162C69.4096 39.3988 69.4136 39.5855 69.4136 39.768C69.4136 40.7354 69.223 41.6761 68.8501 42.562C68.4887 43.4168 67.9716 44.1826 67.315 44.8432C66.6583 45.5038 65.8886 46.0209 65.0376 46.3823C64.1557 46.7552 63.215 46.9457 62.2476 46.9457C61.2802 46.9457 60.3434 46.7552 59.4575 46.3823C58.9837 46.1803 58.5333 45.9274 58.1138 45.6323L59.3023 45.0258L59.3491 45.0024C60.2272 45.4919 61.2296 45.7523 62.2476 45.7524H62.2905C63.0715 45.7485 63.8334 45.5935 64.5523 45.2905C65.2711 44.9874 65.9165 44.5551 66.4683 44.0034C67.5949 42.8765 68.2163 41.3727 68.2163 39.7797C68.2163 39.5196 68.2005 39.2557 68.1655 38.9955L68.1538 38.9135L68.0806 38.9526L58.145 44.0073L56.0894 45.0571L53.7691 46.2377V44.894L56.1587 43.6733L57.3364 43.0756L70.731 36.2436V37.5883ZM62.2515 32.4086C63.2189 32.4086 64.1557 32.5992 65.0415 32.9721C65.5117 33.1703 65.9627 33.4229 66.3823 33.7182L66.2935 33.7651L65.1431 34.352C64.2649 33.8624 63.2657 33.6059 62.2515 33.6059H62.2056C61.4246 33.6137 60.6627 33.7687 59.9439 34.0678C59.225 34.3709 58.5796 34.8022 58.0278 35.3539C56.9011 36.4846 56.2799 37.9846 56.2798 39.5776C56.2798 39.8378 56.2947 40.0986 56.3296 40.3588L56.3413 40.4409L56.4155 40.4018L66.3433 35.3383L68.3989 34.2895L70.7271 33.1V34.4448L68.3296 35.6694L67.1519 36.267L56.687 41.6098L56.6411 41.6371L56.105 41.9096L55.5611 42.185V42.1811L55.5103 42.2045L53.7691 43.0942V41.7504L54.3599 41.4506C54.8533 41.198 55.1487 40.6771 55.106 40.1215C55.0943 39.9391 55.0864 39.7561 55.0864 39.5737C55.0865 38.6064 55.2771 37.6664 55.6499 36.7807C56.0113 35.9258 56.5284 35.16 57.1851 34.4995C57.8417 33.8429 58.6067 33.3217 59.4614 32.9604C60.3434 32.5991 61.2841 32.4087 62.2515 32.4086Z" fill="white"/>
<circle cx="41.22" cy="54.78" r="12.22" fill="#2AA5A5" stroke="#1C1C1C" stroke-width="0.5" stroke-linejoin="round"/>
<circle cx="41.22" cy="53.0813" r="12.0813" fill="#B9E5DE" stroke="#1C1C1C" stroke-width="0.5" stroke-linejoin="round"/>
<path d="M40.4416 47C39.8616 47 39.391 47.4584 39.3908 48.0239L39.3908 53.0095C39.3907 53.2991 39.1449 53.5313 38.8481 53.5214L37.0887 53.4614C36.1749 53.4306 35.66 54.4747 36.2552 55.1518L40.2019 59.642C40.621 60.1188 41.3771 60.1196 41.7963 59.6429C42.4661 58.8808 43.4267 57.7866 44.1496 56.9641C44.6281 56.4197 45.2114 55.7571 45.7449 55.15C46.3399 54.473 45.825 53.4292 44.9114 53.4596L43.0849 53.5214C42.788 53.5313 42.5422 53.2992 42.5422 53.0095L42.5422 48.0239C42.542 47.4584 42.0713 47 41.4914 47L40.4416 47Z" fill="white"/>
<path d="M39.3908 48.0239L39.1408 48.0238L39.1408 48.0239L39.3908 48.0239ZM39.3908 53.0095L39.6408 53.0096L39.6408 53.0095L39.3908 53.0095ZM38.8481 53.5214L38.8396 53.7713L38.8398 53.7713L38.8481 53.5214ZM37.0887 53.4614L37.0972 53.2116L37.0971 53.2116L37.0887 53.4614ZM36.2552 55.1518L36.0674 55.3169L36.0674 55.3169L36.2552 55.1518ZM40.2019 59.642L40.3897 59.4769L40.3897 59.4769L40.2019 59.642ZM41.7963 59.6429L41.984 59.808L41.9841 59.8079L41.7963 59.6429ZM44.1496 56.9641L43.9619 56.799L43.9619 56.799L44.1496 56.9641ZM45.7449 55.15L45.9327 55.3151L45.9327 55.3151L45.7449 55.15ZM44.9114 53.4596L44.9031 53.2098L44.9029 53.2098L44.9114 53.4596ZM43.0849 53.5214L43.0932 53.7713L43.0933 53.7713L43.0849 53.5214ZM42.5422 48.0239L42.7922 48.0239L42.7922 48.0238L42.5422 48.0239ZM40.4416 47L40.4416 46.75C39.7297 46.75 39.141 47.3142 39.1408 48.0238L39.3908 48.0239L39.6408 48.024C39.6409 47.6025 39.9936 47.25 40.4416 47.25L40.4416 47ZM39.3908 48.0239L39.1408 48.0239L39.1408 53.0095L39.3908 53.0095L39.6408 53.0095L39.6408 48.0239L39.3908 48.0239ZM39.3908 53.0095L39.1408 53.0094C39.1407 53.152 39.0178 53.277 38.8564 53.2716L38.8481 53.5214L38.8398 53.7713C39.272 53.7857 39.6406 53.4463 39.6408 53.0096L39.3908 53.0095ZM38.8481 53.5214L38.8566 53.2716L37.0972 53.2116L37.0887 53.4614L37.0802 53.7113L38.8396 53.7713L38.8481 53.5214ZM37.0887 53.4614L37.0971 53.2116C35.9782 53.1738 35.3186 54.4649 36.0674 55.3169L36.2552 55.1518L36.4429 54.9868C36.0015 54.4845 36.3716 53.6874 37.0803 53.7113L37.0887 53.4614ZM36.2552 55.1518L36.0674 55.3169L40.0142 59.807L40.2019 59.642L40.3897 59.4769L36.4429 54.9868L36.2552 55.1518ZM40.2019 59.642L40.0141 59.807C40.5326 60.3969 41.4651 60.3981 41.984 59.808L41.7963 59.6429L41.6086 59.4778C41.2891 59.841 40.7094 59.8407 40.3897 59.4769L40.2019 59.642ZM41.7963 59.6429L41.9841 59.8079C42.319 59.4268 42.7267 58.9627 43.1409 58.4911C43.5552 58.0195 43.976 57.5403 44.3374 57.1291L44.1496 56.9641L43.9619 56.799C43.6004 57.2103 43.1795 57.6895 42.7652 58.1611C42.351 58.6328 41.9434 59.0968 41.6085 59.4779L41.7963 59.6429ZM44.1496 56.9641L44.3374 57.1291C44.5766 56.857 44.842 56.5553 45.1143 56.2457C45.3866 55.9361 45.6659 55.6187 45.9327 55.3151L45.7449 55.15L45.5572 54.985C45.2904 55.2885 45.0112 55.6059 44.7389 55.9155C44.4666 56.225 44.2011 56.5268 43.9619 56.799L44.1496 56.9641ZM45.7449 55.15L45.9327 55.3151C46.6815 54.4631 46.0215 53.1725 44.9031 53.2098L44.9114 53.4596L44.9197 53.7095C45.6285 53.6859 45.9984 54.4829 45.5572 54.985L45.7449 55.15ZM44.9114 53.4596L44.9029 53.2098L43.0764 53.2716L43.0849 53.5214L43.0933 53.7713L44.9199 53.7095L44.9114 53.4596ZM43.0849 53.5214L43.0766 53.2716C42.915 53.2769 42.7922 53.152 42.7922 53.0095L42.5422 53.0095L42.2922 53.0095C42.2922 53.4464 42.661 53.7857 43.0932 53.7713L43.0849 53.5214ZM42.5422 53.0095L42.7922 53.0095L42.7922 48.0239L42.5422 48.0239L42.2922 48.0239L42.2922 53.0095L42.5422 53.0095ZM42.5422 48.0239L42.7922 48.0238C42.792 47.3142 42.2032 46.75 41.4914 46.75L41.4914 47L41.4914 47.25C41.9394 47.25 42.2921 47.6025 42.2922 48.024L42.5422 48.0239ZM41.4914 47L41.4914 46.75L40.4416 46.75L40.4416 47L40.4416 47.25L41.4914 47.25L41.4914 47Z" fill="black"/>
</svg>
