<svg width="62" height="62" viewBox="0 0 62 62" fill="none" xmlns="http://www.w3.org/2000/svg">
<g clip-path="url(#clip0_18011_4196)">
<path d="M41.304 56.1102C31.084 56.5902 20.704 56.5802 10.494 56.1102C7.20399 55.9702 4.42399 53.1402 4.33399 49.8502C4.09399 38.6002 4.03399 27.4102 4.15399 16.1602C4.21399 12.8702 6.85399 16.9902 10.214 16.9302C20.664 16.7102 31.154 16.7102 41.604 16.9302C44.954 16.9902 47.604 12.8702 47.664 16.1602C47.774 27.4102 47.714 38.6002 47.484 49.8502C47.384 53.1402 44.614 55.9702 41.324 56.1102H41.304Z" fill="#CCD9FD" stroke="#1C1C1C" stroke-width="0.5" stroke-linecap="round" stroke-linejoin="round"/>
<path d="M4.10389 17.8903C3.93389 27.2403 3.97389 36.6202 4.21389 45.9702C4.29389 49.2602 7.06389 52.0703 10.3839 52.1903C20.6839 52.6003 31.0939 52.6003 41.3939 52.1903C44.7039 52.0703 47.4839 49.2602 47.5639 45.9702C47.8039 36.6202 47.8439 27.2403 47.6739 17.8903C33.1439 17.6303 18.6439 17.6303 4.10389 17.8903Z" fill="white" stroke="#1C1C1C" stroke-width="0.5" stroke-linecap="round" stroke-linejoin="round"/>
<path d="M41.394 6.07024C31.094 5.66024 20.684 5.66024 10.384 6.07024C7.074 6.19024 4.294 9.00024 4.214 12.2902C4.164 14.5302 4.134 15.6502 4.104 17.9002C18.634 17.6402 33.134 17.6402 47.674 17.9002C47.634 15.6602 47.614 14.5402 47.564 12.2902C47.484 9.00024 44.714 6.19024 41.394 6.07024ZM15.474 14.4202C13.814 14.4402 12.484 13.1302 12.504 11.4702C12.534 9.81024 13.894 8.43024 15.544 8.39024C17.194 8.35024 18.524 9.69024 18.504 11.3602C18.494 13.0302 17.134 14.4002 15.474 14.4202ZM36.304 14.4202C34.644 14.4002 33.284 13.0302 33.274 11.3602C33.264 9.69024 34.584 8.36024 36.234 8.39024C37.884 8.43024 39.244 9.81024 39.274 11.4702C39.304 13.1302 37.964 14.4502 36.304 14.4202Z" fill="#4169E1" stroke="#1C1C1C" stroke-width="0.5" stroke-linecap="round" stroke-linejoin="round"/>
<path d="M16.314 10.3802C15.754 10.3802 15.314 10.4002 14.764 10.4102C14.384 10.4102 14.074 10.1102 14.074 9.73023C14.114 7.04023 14.144 5.41023 14.194 2.70023C14.194 2.34023 14.494 2.05023 14.844 2.04023C15.394 2.02023 15.824 2.01023 16.364 2.00023C16.744 2.00023 17.064 2.30023 17.054 2.68023C17.014 5.38023 16.994 7.01023 16.964 9.71023C16.964 10.0702 16.664 10.3702 16.304 10.3802H16.314Z" fill="#CCD9FD" stroke="#1C1C1C" stroke-width="0.5" stroke-linecap="round" stroke-linejoin="round"/>
<path d="M37.0139 10.4102C36.4639 10.4002 36.0239 10.3902 35.4639 10.3802C35.1039 10.3802 34.8039 10.0802 34.8039 9.71024C34.7739 7.00024 34.7539 5.37024 34.7139 2.68024C34.7139 2.30024 35.0239 1.99024 35.4039 2.00024C35.9439 2.01024 36.3839 2.03024 36.9239 2.04024C37.2839 2.05024 37.5739 2.34024 37.5739 2.70024C37.6239 5.41024 37.6539 7.03024 37.6939 9.73024C37.6939 10.1102 37.3839 10.4202 37.0039 10.4102H37.0139Z" fill="#CCD9FD" stroke="#1C1C1C" stroke-width="0.5" stroke-linecap="round" stroke-linejoin="round"/>
<path d="M58.8049 44.9603C58.8049 53.7203 51.5949 60.8303 42.7049 60.8303C33.8149 60.8303 25.9749 53.1403 25.9749 44.3803C25.1149 29.6003 33.8149 29.1003 42.7049 29.1003C51.5949 29.1003 59.2849 29.8703 58.8049 44.9703V44.9603Z" fill="#FF9500" stroke="#1C1C1C" stroke-width="0.5" stroke-linecap="round" stroke-linejoin="round"/>
<path d="M42.3241 56.5802C51.3941 56.5802 58.7341 49.1102 58.7341 39.9002C58.7341 30.6902 51.3841 23.2202 42.3241 23.2202C33.2641 23.2202 25.9141 30.6902 25.9141 39.9002C25.9141 49.1102 33.2641 56.5802 42.3241 56.5802Z" fill="#FFE2C8" stroke="#1C1C1C" stroke-width="0.5" stroke-linecap="round" stroke-linejoin="round"/>
<path d="M42.3655 52.8202C49.5055 52.8202 55.2955 47.0302 55.2955 39.8902C55.2955 32.7502 49.5055 26.9602 42.3655 26.9602C35.2255 26.9602 29.4355 32.7502 29.4355 39.8902C29.4355 47.0302 35.2255 52.8202 42.3655 52.8202Z" fill="#FF9500" stroke="#1C1C1C" stroke-width="0.5" stroke-linecap="round" stroke-linejoin="round"/>
<path d="M48.065 36.0603C48.215 37.5603 47.605 38.4703 46.655 38.9703C48.235 39.3703 49.215 40.3503 49.025 42.5503C48.775 45.2803 46.845 46.0303 44.075 46.1903V48.2403C44.075 48.7003 43.705 49.0703 43.245 49.0703C42.785 49.0703 42.415 48.7003 42.415 48.2403V46.2303C41.995 46.2303 41.545 46.2303 41.105 46.2103V48.2403C41.105 48.7003 40.735 49.0703 40.275 49.0703C39.815 49.0703 39.445 48.7003 39.445 48.2403V46.1903C39.055 46.1903 38.675 46.1703 38.265 46.1703H37.325C36.695 46.1703 36.205 45.6003 36.315 44.9803C36.395 44.4803 36.835 44.1203 37.345 44.1203C37.665 44.1203 37.655 44.1203 37.655 44.1203C38.115 44.1203 38.235 43.7803 38.275 43.5303V39.0003V35.7403C38.215 35.4003 37.985 34.9703 37.315 34.9703C37.315 34.9703 37.315 34.9703 37.055 34.9703C36.545 34.9703 36.125 34.5603 36.125 34.0503C36.125 33.5403 36.535 33.1403 37.035 33.1403H39.455V31.1103C39.455 30.6503 39.825 30.2803 40.285 30.2803C40.745 30.2803 41.115 30.6503 41.115 31.1103V33.0803C41.555 33.0803 41.985 33.0603 42.425 33.0603V31.1103C42.425 30.6503 42.795 30.2803 43.255 30.2803C43.715 30.2803 44.085 30.6503 44.085 31.1103V33.1403C46.205 33.3203 47.895 34.0103 48.075 36.0803L48.065 36.0603ZM45.745 42.2103C45.745 39.9803 42.235 40.3103 41.125 40.3103V44.1203C42.245 44.1203 45.745 44.3803 45.745 42.2203V42.2103ZM44.995 36.8503C44.995 34.8103 42.065 35.1103 41.125 35.1103V38.5703C42.065 38.5703 44.995 38.7903 44.995 36.8503Z" fill="white"/>
</g>
<defs>
<clipPath id="clip0_18011_4196">
<rect width="62" height="62" rx="5" fill="white"/>
</clipPath>
</defs>
</svg>
