<svg width="62" height="62" viewBox="0 0 62 62" fill="none" xmlns="http://www.w3.org/2000/svg">
<g clip-path="url(#clip0_18011_3745)">
<path d="M43.2649 48.8303C50.9541 48.8303 57.1875 48.1854 57.1875 47.39C57.1875 46.5946 50.9541 45.9497 43.2649 45.9497C35.5756 45.9497 29.3423 46.5946 29.3423 47.39C29.3423 48.1854 35.5756 48.8303 43.2649 48.8303Z" fill="#FF9500" stroke="#1C1C1C" stroke-linejoin="round"/>
<path d="M61.1567 49.079V55.4543C61.1567 57.4421 52.959 59.0624 42.852 59.0624C32.7451 59.0624 24.541 57.4421 24.541 55.4543V49.079H61.1567Z" fill="#FF9500" stroke="#1C1C1C" stroke-linejoin="round"/>
<path d="M42.8526 52.375C52.962 52.375 61.1573 50.7596 61.1573 48.7669C61.1573 46.7742 52.962 45.1588 42.8526 45.1588C32.7431 45.1588 24.5479 46.7742 24.5479 48.7669C24.5479 50.7596 32.7431 52.375 42.8526 52.375Z" fill="#FFE2C8" stroke="#1C1C1C" stroke-linejoin="round"/>
<path d="M43.2641 49.8193C50.9534 49.8193 57.1867 49.1744 57.1867 48.379C57.1867 47.5836 50.9534 46.9387 43.2641 46.9387C35.5749 46.9387 29.3416 47.5836 29.3416 48.379C29.3416 49.1744 35.5749 49.8193 43.2641 49.8193Z" fill="#FF9500" stroke="#1C1C1C" stroke-linejoin="round"/>
<path d="M61.1567 42.2069V48.5821C61.1567 50.57 52.959 52.1902 42.852 52.1902C32.7451 52.1902 24.541 50.57 24.541 48.5821V42.2069H61.1567Z" fill="#FF9500" stroke="#1C1C1C" stroke-linejoin="round"/>
<path d="M42.8523 45.5031C52.9617 45.5031 61.157 43.8877 61.157 41.895C61.157 39.9023 52.9617 38.2869 42.8523 38.2869C32.7429 38.2869 24.5476 39.9023 24.5476 41.895C24.5476 43.8877 32.7429 45.5031 42.8523 45.5031Z" fill="#FFE2C8" stroke="#1C1C1C" stroke-linejoin="round"/>
<path d="M43.2641 42.9471C50.9534 42.9471 57.1867 42.3023 57.1867 41.5069C57.1867 40.7114 50.9534 40.0666 43.2641 40.0666C35.5749 40.0666 29.3416 40.7114 29.3416 41.5069C29.3416 42.3023 35.5749 42.9471 43.2641 42.9471Z" fill="#FF9500" stroke="#1C1C1C" stroke-linejoin="round"/>
<path d="M43.2649 43.9226C50.9541 43.9226 57.1875 43.2777 57.1875 42.4823C57.1875 41.6869 50.9541 41.042 43.2649 41.042C35.5756 41.042 29.3423 41.6869 29.3423 42.4823C29.3423 43.2777 35.5756 43.9226 43.2649 43.9226Z" fill="#FF9500" stroke="#1C1C1C" stroke-linejoin="round"/>
<path d="M61.1567 35.3361V41.7114C61.1567 43.6993 52.959 45.3195 42.852 45.3195C32.7451 45.3195 24.541 43.6993 24.541 41.7114V35.3361H61.1567Z" fill="#FF9500" stroke="#1C1C1C" stroke-linejoin="round"/>
<path d="M42.8523 38.6319C52.9617 38.6319 61.157 37.0165 61.157 35.0238C61.157 33.0311 52.9617 31.4157 42.8523 31.4157C32.7429 31.4157 24.5476 33.0311 24.5476 35.0238C24.5476 37.0165 32.7429 38.6319 42.8523 38.6319Z" fill="#FFE2C8" stroke="#1C1C1C" stroke-linejoin="round"/>
<path d="M43.2641 36.0764C50.9534 36.0764 57.1867 35.4315 57.1867 34.6361C57.1867 33.8407 50.9534 33.1958 43.2641 33.1958C35.5749 33.1958 29.3416 33.8407 29.3416 34.6361C29.3416 35.4315 35.5749 36.0764 43.2641 36.0764Z" fill="#FF9500" stroke="#1C1C1C" stroke-linejoin="round"/>
<path d="M18.7229 60.6028C26.4121 60.6028 32.6455 59.958 32.6455 59.1626C32.6455 58.3671 26.4121 57.7223 18.7229 57.7223C11.0337 57.7223 4.80029 58.3671 4.80029 59.1626C4.80029 59.958 11.0337 60.6028 18.7229 60.6028Z" fill="#FF9500" stroke="#1C1C1C" stroke-linejoin="round"/>
<path d="M36.6157 52.0166V58.3919C36.6157 60.3798 28.418 62 18.311 62C8.20404 62 0 60.3798 0 58.3919V52.0166H36.6157Z" fill="#FF9500" stroke="#1C1C1C" stroke-linejoin="round"/>
<path d="M18.3115 55.3126C28.421 55.3126 36.6163 53.6972 36.6163 51.7045C36.6163 49.7118 28.421 48.0964 18.3115 48.0964C8.20213 48.0964 0.00683594 49.7118 0.00683594 51.7045C0.00683594 53.6972 8.20213 55.3126 18.3115 55.3126Z" fill="#FFE2C8" stroke="#1C1C1C" stroke-linejoin="round"/>
<path d="M18.7231 52.7569C26.4124 52.7569 32.6457 52.1121 32.6457 51.3166C32.6457 50.5212 26.4124 49.8763 18.7231 49.8763C11.0339 49.8763 4.80054 50.5212 4.80054 51.3166C4.80054 52.1121 11.0339 52.7569 18.7231 52.7569Z" fill="#FF9500" stroke="#1C1C1C" stroke-linejoin="round"/>
<path d="M18.7229 53.7386C26.4121 53.7386 32.6455 53.0938 32.6455 52.2984C32.6455 51.5029 26.4121 50.8581 18.7229 50.8581C11.0337 50.8581 4.80029 51.5029 4.80029 52.2984C4.80029 53.0938 11.0337 53.7386 18.7229 53.7386Z" fill="#FF9500" stroke="#1C1C1C" stroke-linejoin="round"/>
<path d="M36.6157 45.1522V51.5275C36.6157 53.5154 28.418 55.1356 18.311 55.1356C8.20404 55.1356 0 53.5154 0 51.5275V45.1522H36.6157Z" fill="#FF9500" stroke="#1C1C1C" stroke-linejoin="round"/>
<path d="M18.3115 48.4482C28.421 48.4482 36.6163 46.8328 36.6163 44.8401C36.6163 42.8474 28.421 41.2321 18.3115 41.2321C8.20213 41.2321 0.00683594 42.8474 0.00683594 44.8401C0.00683594 46.8328 8.20213 48.4482 18.3115 48.4482Z" fill="#FFE2C8" stroke="#1C1C1C" stroke-linejoin="round"/>
<path d="M18.7231 45.8925C26.4124 45.8925 32.6457 45.2476 32.6457 44.4522C32.6457 43.6568 26.4124 43.0119 18.7231 43.0119C11.0339 43.0119 4.80054 43.6568 4.80054 44.4522C4.80054 45.2476 11.0339 45.8925 18.7231 45.8925Z" fill="#FF9500" stroke="#1C1C1C" stroke-linejoin="round"/>
<path d="M47.5747 23.6234C47.5747 33.4233 39.5162 41.3679 29.5752 41.3679C19.6342 41.3679 10.8621 32.7661 10.8621 22.9661C9.89694 6.43403 19.6342 5.87883 29.5752 5.87883C39.5162 5.87883 48.1207 6.73723 47.5747 23.6234Z" fill="#FF9500" stroke="#1C1C1C" stroke-miterlimit="10"/>
<path d="M29.1503 37.3175C39.2875 37.3175 47.5053 28.9637 47.5053 18.6587C47.5053 8.3538 39.2875 0 29.1503 0C19.013 0 10.7952 8.3538 10.7952 18.6587C10.7952 28.9637 19.013 37.3175 29.1503 37.3175Z" fill="#FFE2C8" stroke="#1C1C1C" stroke-miterlimit="10"/>
<path d="M29.1961 33.1111C37.1813 33.1111 43.6546 26.6378 43.6546 18.6526C43.6546 10.6674 37.1813 4.19409 29.1961 4.19409C21.2108 4.19409 14.7375 10.6674 14.7375 18.6526C14.7375 26.6378 21.2108 33.1111 29.1961 33.1111Z" fill="#FF9500" stroke="#1C1C1C" stroke-miterlimit="10"/>
<path d="M35.9731 14.3599C36.1454 16.0351 35.4561 17.0539 34.4007 17.6198C36.1669 18.0726 37.2655 19.1592 37.0501 21.6267C36.77 24.6828 34.6161 25.5204 31.5143 25.7015V27.9899C31.5143 28.5014 31.0997 28.9161 30.5881 28.9161C30.0766 28.9161 29.6619 28.5014 29.6619 27.9899V25.7468C29.188 25.7468 28.6926 25.7468 28.1972 25.7241V27.9899C28.1972 28.5014 27.7825 28.9161 27.271 28.9161C26.7595 28.9161 26.3448 28.5014 26.3448 27.9899V25.7015C25.914 25.7015 25.4832 25.6789 25.0309 25.6789H23.8003C23.1819 25.6789 22.7117 25.1232 22.8141 24.5133L22.8636 24.2184C22.9455 23.7306 23.3723 23.3781 23.867 23.3797C24.3525 23.3813 24.3416 23.3698 24.3416 23.3698C24.8585 23.3698 24.9878 22.985 25.0309 22.7133V17.6424H25.2247C25.1386 17.6424 25.0739 17.6424 25.0309 17.6424V13.9977C24.9662 13.6129 24.7078 13.1375 23.9539 13.1375C23.9539 13.1375 23.9623 13.1286 23.6353 13.1276C23.0765 13.1257 22.6184 12.6795 22.6184 12.1207V12.0775C22.6184 11.5252 23.0661 11.0775 23.6184 11.0775H25.1816C25.5478 11.0775 25.9355 11.0775 26.3448 11.0775V8.81174C26.3448 8.30021 26.7595 7.88553 27.271 7.88553C27.7825 7.88553 28.1972 8.30021 28.1972 8.81174V11.0095C28.6926 11.0095 29.1665 10.9869 29.6619 10.9869V8.81174C29.6619 8.30021 30.0766 7.88553 30.5881 7.88553C31.0997 7.88553 31.5143 8.30021 31.5143 8.81174V11.0775C33.8837 11.2812 35.7792 12.0509 35.9731 14.3599ZM33.3883 21.2419C33.3883 18.7517 29.4681 19.1139 28.2188 19.1139V23.3698C29.4681 23.3698 33.3883 23.6641 33.3883 21.2419ZM32.5483 15.2428C32.5483 12.9564 29.2742 13.296 28.2188 13.296V17.167C29.2742 17.167 32.5483 17.4161 32.5483 15.2428Z" fill="white"/>
</g>
<defs>
<clipPath id="clip0_18011_3745">
<rect width="62" height="62" rx="5" fill="white"/>
</clipPath>
</defs>
</svg>
