<svg width="62" height="62" viewBox="0 0 62 62" fill="none" xmlns="http://www.w3.org/2000/svg">
<g clip-path="url(#clip0_18011_7413)">
<path d="M20.1903 38.1235L20.9731 45.4976L5.55762 50.931L6.0355 49.4503L5.96061 47.0566L20.1903 38.1235Z" fill="#FF9500" stroke="#1C1C1C" stroke-width="0.5" stroke-miterlimit="10" stroke-linejoin="round"/>
<path d="M55.2928 23.0813C55.2928 31.9819 48.0516 39.199 39.1198 39.199C30.1879 39.199 22.3064 31.3862 22.3064 22.4856C21.4439 7.47291 30.1879 6.96356 39.1198 6.96356C48.0516 6.96356 55.7795 7.74053 55.2928 23.0813Z" fill="#4169E1" stroke="#1C1C1C" stroke-width="0.5" stroke-linejoin="round"/>
<path d="M38.7364 34.893C47.8475 34.893 55.2253 27.3046 55.2253 17.9465C55.2253 8.58837 47.8475 1 38.7364 1C29.6252 1 22.2474 8.58837 22.2474 17.9465C22.2474 27.3046 29.6337 34.893 38.7364 34.893Z" fill="#FFE2C8" stroke="#1C1C1C" stroke-width="0.5" stroke-linecap="round" stroke-linejoin="round"/>
<path d="M38.7722 31.0762C45.945 31.0762 51.7601 25.1972 51.7601 17.9455C51.7601 10.6938 45.945 4.81476 38.7722 4.81476C31.5994 4.81476 25.7843 10.6938 25.7843 17.9455C25.7843 25.1972 31.5994 31.0762 38.7722 31.0762Z" fill="#FF9500" stroke="#1C1C1C" stroke-width="0.5" stroke-miterlimit="10"/>
<path d="M45.1085 15.2457C44.9548 16.7651 44.1692 17.5507 43.136 17.8615C44.6047 18.5867 45.3817 19.7521 44.7413 21.9104C43.9386 24.5779 41.8978 24.9319 39.1312 24.5175L38.7127 26.5549C38.6188 27.0124 38.1833 27.306 37.7308 27.211C37.2782 27.116 36.9879 26.6757 37.0818 26.2182L37.4917 24.224C37.0732 24.1377 36.6378 24.0427 36.2108 23.9391L35.8009 25.9506C35.707 26.4081 35.2715 26.7016 34.8189 26.6067C34.3664 26.5117 34.076 26.0714 34.17 25.6139L34.5884 23.5765C34.2041 23.4988 33.8369 23.3952 33.4356 23.3175L32.5049 23.1276C31.8815 22.9981 31.5229 22.3334 31.7534 21.7291C31.9413 21.2456 32.4451 20.978 32.9403 21.0816C33.2563 21.1507 33.2478 21.1334 33.2478 21.1334C33.7003 21.2284 33.8882 20.9089 33.9736 20.6758L34.8958 16.1608L35.5533 12.9148C35.5704 12.5609 35.4252 12.0947 34.7592 11.9566C34.7592 11.9566 34.7677 11.9566 34.503 11.8961C33.9992 11.7925 33.6747 11.3005 33.7772 10.7911C33.8796 10.2818 34.3664 9.96234 34.8616 10.0659L36.2193 10.3508L37.244 10.5667L37.6539 8.55517C37.7478 8.09763 38.1833 7.80411 38.6359 7.89907C39.0885 7.99403 39.3788 8.43431 39.2849 8.89186L38.8835 10.8429C39.319 10.9292 39.7374 10.9983 40.1729 11.0933L40.5657 9.15948C40.6597 8.70193 41.0951 8.40841 41.5477 8.50338C42.0003 8.59834 42.2906 9.03862 42.1967 9.49617L41.7868 11.5076C43.8362 12.1206 45.3647 13.1565 45.117 15.2457H45.1085ZM41.5904 20.8917C42.043 18.673 38.5249 18.2845 37.4233 18.0514L36.6548 21.8413C37.7564 22.0744 41.1464 23.0499 41.5904 20.8917ZM41.9405 15.4011C42.3589 13.3637 39.4129 13.0702 38.4822 12.8803L37.782 16.3248C38.7127 16.5148 41.5477 17.3435 41.9405 15.4097V15.4011Z" fill="white"/>
<path d="M19.5521 27.3306C19.7314 25.3709 21.2855 23.8342 23.2324 23.6702C33.8635 22.7551 44.4861 22.7551 55.1172 23.6702C57.0641 23.8342 58.6097 25.3623 58.8147 27.3219C59.6259 35.3851 59.6259 43.4483 58.8147 51.5201C58.6097 53.4798 57.0641 55.0078 55.1172 55.1719C44.5203 56.0956 33.9233 56.0956 23.3178 55.1719C21.3367 54.9992 19.7741 53.4194 19.6033 51.4165C18.9031 43.0857 18.8263 35.0312 19.5521 27.3306Z" fill="#4169E1" stroke="#1C1C1C" stroke-width="0.5" stroke-linejoin="round"/>
<path d="M19.5521 24.2223C19.7314 22.2626 21.2855 20.726 23.2324 20.5619C33.8635 19.6468 44.4861 19.6468 55.1172 20.5619C57.0641 20.726 58.6097 22.254 58.8147 24.2137C59.6259 32.2769 59.6259 40.34 58.8147 48.4118C58.6097 50.3715 57.0641 51.8996 55.1172 52.0636C44.5203 52.9873 33.9233 52.9873 23.3178 52.0636C21.3367 51.8909 19.7741 50.3111 19.6033 48.3082C18.9031 39.9774 18.8263 31.9229 19.5521 24.2223Z" fill="#CCD9FD" stroke="#1C1C1C" stroke-width="0.5" stroke-linejoin="round"/>
<path d="M41.7778 37.2315C41.8632 33.4503 45.0483 30.446 48.7884 30.377C52.5882 30.3079 56.3454 30.4892 60.2819 30.8777C60.8114 34.6157 60.6491 38.5955 60.5296 43.6544C60.521 44.1897 60.1026 44.6386 59.5817 44.6818C56.0551 44.9925 52.6053 45.1048 49.1385 45.0184C45.0312 44.9148 41.6839 41.4012 41.7778 37.2315Z" fill="#4169E1" stroke="#1C1C1C" stroke-width="0.5" stroke-linejoin="round"/>
<path d="M41.7822 34.7301C41.8676 30.9402 45.0612 27.9532 48.8013 27.8496C52.3877 27.7546 55.9656 27.8496 59.5434 28.169C60.1326 28.2208 60.6023 28.7129 60.6364 29.3172C60.9097 34.3243 60.9012 35.9473 60.6962 42.1026C56.8707 42.4825 52.994 42.6206 49.1258 42.5256C45.01 42.422 41.6797 38.9084 41.7737 34.7301H41.7822Z" fill="#CCD9FD" stroke="#1C1C1C" stroke-width="0.5" stroke-linejoin="round"/>
<path d="M48.5223 38.0161C50.3804 38.0161 51.8867 36.4932 51.8867 34.6147C51.8867 32.7362 50.3804 31.2133 48.5223 31.2133C46.6642 31.2133 45.158 32.7362 45.158 34.6147C45.158 36.4932 46.6642 38.0161 48.5223 38.0161Z" fill="white" stroke="#1C1C1C" stroke-width="0.5" stroke-linejoin="round"/>
<path d="M22.8798 34.9677C21.4815 34.8444 20.4336 36.1794 20.9045 37.5018C21.1566 38.2098 21.413 38.8995 21.6292 39.4347C21.9294 40.1807 22.2398 40.892 22.553 41.5701C13.0406 46.3642 7.27434 48.4995 6.7648 47.5872C6.26103 46.6836 10.1652 44.1697 19.0583 38.6541C19.0425 38.0484 18.6317 37.469 18.6245 36.8675C3.40514 45.7328 1.23602 48.9637 2.19303 50.6784C3.12551 52.3497 11.6506 49.474 23.2531 43.8862C23.907 45.1266 24.4887 46.4134 25.1339 47.6567C25.5525 48.462 25.9812 49.263 26.4143 50.0596C26.5528 49.9844 26.6914 49.9092 26.8285 49.8326C27.2818 50.7536 27.8346 51.7555 28.5102 52.8007C29.3705 54.1294 30.2539 55.2556 31.0752 56.1911C32.5952 53.5424 34.131 50.6552 35.6307 47.531C36.8035 45.089 37.6561 42.152 38.4982 39.6063C38.8874 38.4299 38.1817 37.1435 36.9641 36.9136C34.5321 36.4545 31.9733 36.0362 29.2952 35.6781C27.0857 35.3835 24.945 35.1499 22.8798 34.9677Z" fill="#FF9500" stroke="#1C1C1C" stroke-width="0.5" stroke-miterlimit="10" stroke-linejoin="round"/>
<path d="M25.2381 37.7645C23.8398 37.6412 22.7824 38.9798 23.2786 40.2928C23.3986 40.6103 23.524 40.9316 23.6553 41.2565C23.8963 41.8536 24.1432 42.429 24.3929 42.9842C12.2 48.9393 3.13513 52.065 2.1709 50.3388L7.50591 60.4735C8.46725 62.1954 17.4961 59.0871 29.6485 53.1566C29.9184 53.6322 30.2129 54.1223 30.5362 54.6226C30.8091 55.044 31.0843 55.4451 31.3591 55.8262C32.1613 56.9385 33.8103 56.7762 34.4678 55.5727C35.5366 53.6162 36.6056 51.5427 37.6568 49.3528C38.8115 46.9484 39.8433 44.6142 40.7661 42.3697C41.2374 41.2236 40.54 39.9403 39.3224 39.7104C36.8904 39.2512 34.3316 38.833 31.6535 38.4749C29.444 38.1803 27.3033 37.9466 25.2381 37.7645Z" fill="#FFE2C8" stroke="#1C1C1C" stroke-width="0.5" stroke-miterlimit="10" stroke-linejoin="round"/>
</g>
<defs>
<clipPath id="clip0_18011_7413">
<rect width="62" height="62" rx="5" fill="white"/>
</clipPath>
</defs>
</svg>
