<svg width="62" height="62" viewBox="0 0 62 62" fill="none" xmlns="http://www.w3.org/2000/svg">
<g clip-path="url(#clip0_18011_8015)">
<g clip-path="url(#clip1_18011_8015)">
<path d="M1.71973 14.75C1.71973 11.4363 4.40602 8.75 7.71973 8.75H44.8032C48.1169 8.75 50.8032 11.4363 50.8032 14.75V42.3335C50.8032 45.6472 48.1169 48.3334 44.8032 48.3334H7.71972C4.40601 48.3334 1.71973 45.6472 1.71973 42.3334V14.75Z" fill="#4169E1" stroke="#1C1C1C" stroke-width="0.5" stroke-miterlimit="10" stroke-linejoin="round"/>
<path d="M1.71973 9.99999C1.71973 6.68628 4.40602 4 7.71973 4H44.8032C48.1169 4 50.8032 6.68629 50.8032 10V37.5835C50.8032 40.8972 48.1169 43.5834 44.8032 43.5834H7.71972C4.40601 43.5834 1.71973 40.8972 1.71973 37.5834V9.99999Z" fill="#E8EDFA" stroke="#1C1C1C" stroke-width="0.5" stroke-miterlimit="10" stroke-linejoin="round"/>
<rect x="4.88647" y="15.8751" width="30.0834" height="24.5417" rx="2" fill="#E8EDFA" stroke="#1C1C1C" stroke-width="0.5" stroke-miterlimit="10" stroke-linejoin="round"/>
<rect x="38.1365" y="15.8751" width="9.50003" height="11.0834" rx="2" fill="#4169E1" stroke="#1C1C1C" stroke-width="0.5" stroke-miterlimit="10" stroke-linejoin="round"/>
<rect x="38.1365" y="29.3334" width="9.50003" height="11.0834" rx="2" fill="#4169E1" stroke="#1C1C1C" stroke-width="0.5" stroke-miterlimit="10" stroke-linejoin="round"/>
<path d="M1.71973 10C1.71973 6.68629 4.40602 4 7.71973 4H44.8032C48.1169 4 50.8032 6.68629 50.8032 10V13.5H1.71973V10Z" fill="#FF9500" stroke="#1C1C1C" stroke-width="0.5" stroke-miterlimit="10" stroke-linejoin="round"/>
<path d="M20.6669 31.4489C20.208 31.7141 19.6572 31.7141 19.1983 31.4489L15.1289 29.1235C14.4455 28.736 14.1906 27.8792 14.5475 27.1755L18.6679 19.0571C19.2187 17.9658 20.7893 17.9862 21.3197 19.0877L25.2361 27.2571C25.5727 27.9506 25.3075 28.787 24.6344 29.1745L20.6669 31.4387V31.4489Z" fill="#1C1C1C"/>
<path d="M20.4528 33.0928C20.0041 33.3376 19.4533 33.3376 19.0148 33.0826L15.7511 31.2162C15.0576 30.8184 14.313 31.6547 14.7924 32.2973L18.566 37.4376C19.1473 38.2331 20.3304 38.2433 20.9322 37.458L24.8996 32.2667C25.3892 31.6343 24.6548 30.7878 23.9613 31.1754L20.463 33.0928H20.4528Z" fill="#1C1C1C"/>
<path d="M7.26148 11.125C8.57316 11.125 9.63649 10.0616 9.63649 8.74995C9.63649 7.43827 8.57316 6.37494 7.26148 6.37494C5.9498 6.37494 4.88647 7.43827 4.88647 8.74995C4.88647 10.0616 5.9498 11.125 7.26148 11.125Z" fill="#E8EDFA" stroke="#1C1C1C" stroke-width="0.5" stroke-miterlimit="10" stroke-linejoin="round"/>
<path d="M14.3865 11.125C15.6982 11.125 16.7615 10.0616 16.7615 8.74995C16.7615 7.43827 15.6982 6.37494 14.3865 6.37494C13.0748 6.37494 12.0115 7.43827 12.0115 8.74995C12.0115 10.0616 13.0748 11.125 14.3865 11.125Z" fill="#4169E1" stroke="#1C1C1C" stroke-width="0.5" stroke-miterlimit="10" stroke-linejoin="round"/>
<path d="M21.5115 11.125C22.8232 11.125 23.8865 10.0616 23.8865 8.74995C23.8865 7.43827 22.8232 6.37494 21.5115 6.37494C20.1998 6.37494 19.1365 7.43827 19.1365 8.74995C19.1365 10.0616 20.1998 11.125 21.5115 11.125Z" fill="#4169E1" stroke="#1C1C1C" stroke-width="0.5" stroke-miterlimit="10" stroke-linejoin="round"/>
<path d="M42.3002 38.3719C42.2978 38.2281 42.3581 38.0898 42.4645 37.9931C42.5445 37.9207 42.6457 37.8769 42.7512 37.8663L42.8587 37.8673L60.7849 39.9649C61.0362 39.9946 61.2253 40.2076 61.2259 40.4607L61.2389 46.8753C61.2391 47.0494 61.1486 47.2114 61.0002 47.3024L55.8208 50.4786C55.2172 50.8488 54.8543 51.5106 54.8667 52.2186L54.9735 58.3004C54.9772 58.5119 54.8474 58.7032 54.6495 58.7776C54.4511 58.8518 54.227 58.7927 54.0908 58.6305L42.5282 44.8554C42.5274 44.8544 42.5261 44.8537 42.5253 44.8527C42.4717 44.7886 42.4348 44.7125 42.4183 44.6314L42.4077 44.541L42.3002 38.3719Z" fill="#4169E1"/>
<path d="M42.3002 38.3719L42.0503 38.376L42.0503 38.3763L42.3002 38.3719ZM42.4645 37.9931L42.2967 37.8078L42.2964 37.808L42.4645 37.9931ZM42.7512 37.8663L42.7536 37.6163C42.7445 37.6162 42.7354 37.6166 42.7264 37.6176L42.7512 37.8663ZM42.8587 37.8673L42.8878 37.619C42.8789 37.618 42.87 37.6174 42.8611 37.6173L42.8587 37.8673ZM60.7849 39.9649L60.8143 39.7167L60.814 39.7166L60.7849 39.9649ZM61.2259 40.4607L61.4759 40.4602L61.4759 40.4601L61.2259 40.4607ZM61.2389 46.8753L61.4889 46.875L61.4889 46.8748L61.2389 46.8753ZM61.0002 47.3024L60.8695 47.0893L60.8695 47.0893L61.0002 47.3024ZM54.9735 58.3004L55.2235 58.296L55.2235 58.296L54.9735 58.3004ZM54.6495 58.7776L54.737 59.0117L54.7374 59.0116L54.6495 58.7776ZM54.0908 58.6305L53.8993 58.7912L53.8993 58.7912L54.0908 58.6305ZM42.5282 44.8554L42.3366 45.0159L42.3367 45.0161L42.5282 44.8554ZM42.5253 44.8527L42.7182 44.6936L42.717 44.6922L42.5253 44.8527ZM42.4183 44.6314L42.17 44.6604C42.1708 44.6673 42.1719 44.6743 42.1733 44.6811L42.4183 44.6314ZM42.4077 44.541L42.1578 44.5453C42.1579 44.5535 42.1585 44.5618 42.1594 44.5699L42.4077 44.541ZM55.8208 50.4786L55.6901 50.2655L55.8208 50.4786ZM54.8667 52.2186L55.1167 52.2143L54.8667 52.2186ZM42.3002 38.3719L42.5502 38.3678C42.549 38.2963 42.5791 38.2268 42.6326 38.1781L42.4645 37.9931L42.2964 37.808C42.1371 37.9528 42.0467 38.1599 42.0503 38.376L42.3002 38.3719ZM42.4645 37.9931L42.6323 38.1784C42.6718 38.1427 42.7226 38.1204 42.7761 38.1151L42.7512 37.8663L42.7264 37.6176C42.5689 37.6333 42.4172 37.6987 42.2967 37.8078L42.4645 37.9931ZM42.7512 37.8663L42.7489 38.1163L42.8563 38.1173L42.8587 37.8673L42.8611 37.6173L42.7536 37.6163L42.7512 37.8663ZM42.8587 37.8673L42.8296 38.1156L60.7559 40.2132L60.7849 39.9649L60.814 39.7166L42.8878 37.619L42.8587 37.8673ZM60.7849 39.9649L60.7556 40.2132C60.8808 40.228 60.9756 40.3343 60.9759 40.4612L61.2259 40.4607L61.4759 40.4601C61.4751 40.081 61.1916 39.7613 60.8143 39.7167L60.7849 39.9649ZM61.2259 40.4607L60.9759 40.4612L60.9889 46.8758L61.2389 46.8753L61.4889 46.8748L61.4759 40.4602L61.2259 40.4607ZM61.2389 46.8753L60.9889 46.8756C60.989 46.9627 60.9436 47.0438 60.8695 47.0893L61.0002 47.3024L61.1309 47.5155C61.3536 47.3789 61.4892 47.1361 61.4889 46.875L61.2389 46.8753ZM61.0002 47.3024L60.8695 47.0893L55.6901 50.2655L55.8208 50.4786L55.9515 50.6917L61.1309 47.5155L61.0002 47.3024ZM54.8667 52.2186L54.6167 52.223L54.7235 58.3048L54.9735 58.3004L55.2235 58.296L55.1167 52.2143L54.8667 52.2186ZM54.9735 58.3004L54.7235 58.3048C54.7254 58.4107 54.6603 58.5064 54.5615 58.5436L54.6495 58.7776L54.7374 59.0116C55.0345 58.9 55.229 58.6131 55.2235 58.296L54.9735 58.3004ZM54.6495 58.7776L54.5619 58.5434C54.4628 58.5805 54.3504 58.5509 54.2823 58.4698L54.0908 58.6305L53.8993 58.7912C54.1035 59.0345 54.4394 59.1231 54.737 59.0117L54.6495 58.7776ZM54.0908 58.6305L54.2823 58.4698L42.7197 44.6947L42.5282 44.8554L42.3367 45.0161L53.8993 58.7912L54.0908 58.6305ZM42.5282 44.8554L42.7199 44.6949C42.7094 44.6824 42.6998 44.6734 42.694 44.6682C42.691 44.6655 42.6885 44.6634 42.687 44.6621C42.6862 44.6615 42.6855 44.6609 42.6851 44.6606C42.6849 44.6604 42.6848 44.6603 42.6846 44.6602C42.6845 44.6601 42.6844 44.66 42.6844 44.66C42.6842 44.6598 42.6852 44.6607 42.6865 44.6618C42.6879 44.6629 42.6903 44.6649 42.6931 44.6675C42.6987 44.6725 42.708 44.6813 42.7182 44.6936L42.5253 44.8527L42.3324 45.0117C42.343 45.0245 42.3528 45.0338 42.3588 45.0393C42.3619 45.0421 42.3645 45.0443 42.3662 45.0457C42.3677 45.0469 42.369 45.048 42.369 45.048C42.3694 45.0483 42.3685 45.0475 42.3673 45.0466C42.3661 45.0455 42.3638 45.0437 42.3611 45.0412C42.3557 45.0365 42.3466 45.0279 42.3366 45.0159L42.5282 44.8554ZM42.5253 44.8527L42.717 44.6922C42.6896 44.6595 42.6714 44.6213 42.6633 44.5817L42.4183 44.6314L42.1733 44.6811C42.1982 44.8037 42.2537 44.9177 42.3336 45.0131L42.5253 44.8527ZM42.4183 44.6314L42.6666 44.6024L42.6561 44.512L42.4077 44.541L42.1594 44.5699L42.17 44.6604L42.4183 44.6314ZM42.4077 44.541L42.6577 44.5366L42.5502 38.3675L42.3002 38.3719L42.0503 38.3763L42.1578 44.5453L42.4077 44.541ZM55.8208 50.4786L55.6901 50.2655C55.011 50.6819 54.6027 51.4265 54.6167 52.223L54.8667 52.2186L55.1167 52.2143C55.1058 51.5947 55.4233 51.0156 55.9515 50.6917L55.8208 50.4786Z" fill="#1C1C1C"/>
<path d="M42.4679 37.7295C42.5526 37.5663 42.7191 37.4638 42.899 37.4592L42.9766 37.4639L60.8078 39.8079C61.0176 39.8355 61.188 39.9929 61.2322 40.1999C61.2761 40.4068 61.1843 40.6189 61.004 40.7296L55.8186 43.9091C55.2148 44.2793 54.8519 44.9412 54.8643 45.6492L54.9711 51.7309C54.9748 51.9425 54.8451 52.1338 54.6471 52.2081C54.4487 52.2823 54.2246 52.2232 54.0884 52.061L42.5258 38.2859C42.4005 38.1363 42.3771 37.9321 42.454 37.7609C42.4585 37.7505 42.4626 37.7398 42.4679 37.7295Z" fill="#E8EDFA"/>
<path d="M42.4679 37.7295L42.246 37.6144L42.2458 37.6147L42.4679 37.7295ZM42.899 37.4592L42.9141 37.2097C42.9069 37.2092 42.8998 37.2091 42.8926 37.2093L42.899 37.4592ZM42.9766 37.4639L43.0092 37.216C43.0034 37.2153 42.9976 37.2147 42.9917 37.2144L42.9766 37.4639ZM60.8078 39.8079L60.8405 39.56L60.8404 39.56L60.8078 39.8079ZM61.2322 40.1999L61.4768 40.148L61.4767 40.1476L61.2322 40.1999ZM61.004 40.7296L61.1347 40.9428L61.1349 40.9427L61.004 40.7296ZM54.9711 51.7309L55.2211 51.7265L55.2211 51.7265L54.9711 51.7309ZM54.6471 52.2081L54.7346 52.4423L54.7349 52.4422L54.6471 52.2081ZM54.0884 52.061L53.8969 52.2217L53.897 52.2218L54.0884 52.061ZM42.5258 38.2859L42.3342 38.4464L42.3344 38.4466L42.5258 38.2859ZM42.454 37.7609L42.6821 37.8633L42.6834 37.8603L42.454 37.7609ZM55.8186 43.9091L55.9492 44.1222L55.8186 43.9091ZM42.4679 37.7295L42.6898 37.8447C42.7324 37.7626 42.8161 37.7114 42.9054 37.7091L42.899 37.4592L42.8926 37.2093C42.6221 37.2162 42.3729 37.3699 42.246 37.6144L42.4679 37.7295ZM42.899 37.4592L42.8839 37.7087L42.9615 37.7134L42.9766 37.4639L42.9917 37.2144L42.9141 37.2097L42.899 37.4592ZM42.9766 37.4639L42.944 37.7118L60.7753 40.0558L60.8078 39.8079L60.8404 39.56L43.0092 37.216L42.9766 37.4639ZM60.8078 39.8079L60.7752 40.0557C60.88 40.0696 60.9656 40.1486 60.9877 40.2521L61.2322 40.1999L61.4767 40.1476C61.4104 39.8373 61.1552 39.6015 60.8405 39.56L60.8078 39.8079ZM61.2322 40.1999L60.9876 40.2517C61.0094 40.3545 60.9639 40.4609 60.8732 40.5166L61.004 40.7296L61.1349 40.9427C61.4047 40.777 61.5427 40.459 61.4768 40.148L61.2322 40.1999ZM61.004 40.7296L60.8734 40.5165L55.6879 43.696L55.8186 43.9091L55.9492 44.1222L61.1347 40.9428L61.004 40.7296ZM54.8643 45.6492L54.6143 45.6536L54.7212 51.7353L54.9711 51.7309L55.2211 51.7265L55.1143 45.6449L54.8643 45.6492ZM54.9711 51.7309L54.7212 51.7353C54.723 51.8414 54.658 51.937 54.5592 51.974L54.6471 52.2081L54.7349 52.4422C55.0323 52.3305 55.2266 52.0436 55.2211 51.7265L54.9711 51.7309ZM54.6471 52.2081L54.5595 51.9739C54.4604 52.011 54.3481 51.9814 54.2799 51.9003L54.0884 52.061L53.897 52.2218C54.1011 52.4649 54.437 52.5536 54.7346 52.4423L54.6471 52.2081ZM54.0884 52.061L54.2799 51.9003L42.7173 38.1252L42.5258 38.2859L42.3344 38.4466L53.8969 52.2217L54.0884 52.061ZM42.5258 38.2859L42.7175 38.1254C42.6556 38.0515 42.6432 37.9499 42.6821 37.8633L42.454 37.7609L42.2259 37.6585C42.1111 37.9143 42.1454 38.2211 42.3342 38.4464L42.5258 38.2859ZM42.454 37.7609L42.6834 37.8603C42.6853 37.856 42.6869 37.8521 42.688 37.8494C42.6893 37.8462 42.69 37.8447 42.6907 37.8431C42.6919 37.8401 42.6915 37.8414 42.69 37.8443L42.4679 37.7295L42.2458 37.6147C42.239 37.6279 42.2338 37.6397 42.2306 37.6472C42.2251 37.6603 42.2276 37.6547 42.2246 37.6616L42.454 37.7609ZM55.8186 43.9091L55.6879 43.696C55.0087 44.1124 54.6004 44.857 54.6143 45.6536L54.8643 45.6492L55.1143 45.6449C55.1034 45.0253 55.421 44.4461 55.9492 44.1222L55.8186 43.9091Z" fill="#1C1C1C"/>
</g>
</g>
<defs>
<clipPath id="clip0_18011_8015">
<rect width="62" height="62" rx="5" fill="white"/>
</clipPath>
<clipPath id="clip1_18011_8015">
<rect width="62" height="62" fill="white"/>
</clipPath>
</defs>
</svg>
