<svg width="102" height="102" viewBox="0 0 102 102" fill="none" xmlns="http://www.w3.org/2000/svg">
<rect x="0.5" y="0.5" width="101" height="101" rx="4.5" stroke="#8A38F5" stroke-dasharray="10 5"/>
<path d="M81.3687 67.9157C81.3081 68.9093 80.5215 69.7037 79.5283 69.7718C74.2283 70.1351 68.5628 70.3482 62.5699 70.3382C56.8877 70.3283 51.5022 70.1185 46.4475 69.7721C45.4524 69.7039 44.6651 68.9067 44.6067 67.9109C44.2063 61.0788 43.9822 53.8626 44.0011 46.2977C44.0206 38.7421 44.28 31.5396 44.7117 24.7265C50.1651 24.308 56.0173 24.0484 62.2254 24.0282C69.0057 24.0071 75.3686 24.2748 81.2587 24.7265C81.6987 31.3786 81.9673 38.4121 81.9971 45.7916C82.0293 53.5549 81.794 60.9425 81.3687 67.9157Z" fill="#4169E1" stroke="#1C1C1C" stroke-width="0.5" stroke-miterlimit="10"/>
<path d="M81.3698 63.8886C81.3092 64.8823 80.5225 65.6766 79.5293 65.7447C74.2292 66.108 68.5628 66.3211 62.5699 66.3111C56.8877 66.3012 51.5022 66.0915 46.4475 65.745C45.4524 65.6768 44.6651 64.8796 44.6067 63.8839C44.2063 57.0518 43.9822 49.8356 44.0011 42.2707C44.0189 35.3532 44.2379 28.7318 44.6061 22.4341C44.6643 21.439 45.4505 20.6418 46.445 20.5728C51.3996 20.229 56.67 20.0192 62.2254 20.0012C68.3475 19.9821 74.1293 20.1984 79.5301 20.5732C80.5225 20.6421 81.3081 21.4362 81.3687 22.4292C81.7432 28.5674 81.9699 35.0215 81.9971 41.7646C82.0293 49.5278 81.7949 56.9154 81.3698 63.8886Z" fill="#E8EDFA" stroke="#1C1C1C" stroke-width="0.5" stroke-miterlimit="10"/>
<path d="M76.5 42.149C76.5 43.0897 75.7623 43.8657 74.8224 43.9065C71.0691 44.0693 67.0544 44.1652 62.8055 44.1624C58.7017 44.1597 54.8173 44.0647 51.1773 43.9066C50.2375 43.8658 49.5 43.0898 49.5 42.1492C49.5 41.2084 50.2378 40.4324 51.1778 40.3917C54.7987 40.2351 58.6606 40.14 62.7386 40.1355C67.0108 40.1319 71.0486 40.2277 74.8224 40.3914C75.7623 40.4322 76.5 41.2082 76.5 42.149Z" fill="#4169E1" stroke="#1C1C1C" stroke-width="0.5" stroke-miterlimit="10"/>
<path d="M76.5 58.2573C76.5 59.198 75.7623 59.9741 74.8224 60.0148C71.0687 60.1777 67.0544 60.2735 62.806 60.2708C58.7023 60.2681 54.8177 60.1731 51.1773 60.0149C50.2375 59.9741 49.5 59.1982 49.5 58.2575C49.5 57.3167 50.2378 56.5407 51.1778 56.5001C54.7991 56.3434 58.6611 56.2484 62.739 56.2438C67.0115 56.2402 71.0489 56.336 74.8224 56.4998C75.7623 56.5405 76.5 57.3165 76.5 58.2573Z" fill="#4169E1" stroke="#1C1C1C" stroke-width="0.5" stroke-miterlimit="10"/>
<path d="M76.5 50.2031C76.5 51.1439 75.7623 51.9199 74.8224 51.9607C71.0687 52.1235 67.0544 52.2193 62.806 52.2166C58.7023 52.2139 54.8177 52.1189 51.1773 51.9608C50.2375 51.9199 49.5 51.144 49.5 50.2034C49.5 49.2626 50.2378 48.4865 51.1778 48.4459C54.7991 48.2893 58.6611 48.1942 62.739 48.1897C67.0115 48.186 71.0489 48.2819 74.8224 48.4456C75.7623 48.4864 76.5 49.2624 76.5 50.2031Z" fill="#4169E1" stroke="#1C1C1C" stroke-width="0.5" stroke-miterlimit="10"/>
<path d="M48.0846 27.0455V24.8182H56.934V27.0455H53.8715V35H51.1471V27.0455H48.0846ZM59.0541 35H56.0711L59.4319 24.8182H63.2103L66.5711 35H63.5882L61.3609 27.6222H61.2813L59.0541 35ZM58.4972 30.983H64.1052V33.0511H58.4972V30.983ZM70.2348 24.8182L71.9053 27.7812H71.9848L73.6752 24.8182H76.7576L73.7149 29.9091L76.8769 35H73.7149L71.9848 31.9773H71.9053L70.1752 35H67.0331L70.1553 29.9091L67.1326 24.8182H70.2348Z" fill="#1C1C1C"/>
<path d="M57.9736 63.5571C57.9736 73.744 49.6533 82.0023 39.3894 82.0023C29.1254 82.0023 20.0684 73.0608 20.0684 62.8739C19.0718 45.6891 29.1254 45.1119 39.3894 45.1119C49.6533 45.1119 58.5373 46.0042 57.9736 63.5571Z" fill="#FF9500" stroke="#1C1C1C" stroke-width="0.5" stroke-miterlimit="10"/>
<path d="M38.9514 77.073C49.4179 77.073 57.9028 68.3894 57.9028 57.6776C57.9028 46.9658 49.4179 38.2821 38.9514 38.2821C28.4848 38.2821 20 46.9658 20 57.6776C20 68.3894 28.4848 77.073 38.9514 77.073Z" fill="#FFE2C8" stroke="#1C1C1C" stroke-width="0.5" stroke-miterlimit="10"/>
<path d="M38.9969 72.6988C47.2416 72.6988 53.9252 65.9699 53.9252 57.6694C53.9252 49.3689 47.2416 42.64 38.9969 42.64C30.7523 42.64 24.0687 49.3689 24.0687 57.6694C24.0687 65.9699 30.7523 72.6988 38.9969 72.6988Z" fill="#FF9500" stroke="#1C1C1C" stroke-width="0.5" stroke-miterlimit="10"/>
<path d="M45.9903 53.2071C46.1682 54.9484 45.4565 56.0074 44.3668 56.5956C46.1905 57.0663 47.3247 58.1958 47.1023 60.7608C46.8132 63.9375 44.5892 64.8082 41.3867 64.9965V67.3817C41.3867 67.9098 40.9586 68.338 40.4304 68.338C39.9023 68.338 39.4741 67.9098 39.4741 67.3817V65.0435C38.9848 65.0435 38.4733 65.0435 37.9618 65.02V67.3817C37.9618 67.9098 37.5337 68.338 37.0055 68.338C36.4774 68.338 36.0492 67.9098 36.0492 67.3817V64.9965C35.6044 64.9965 35.1596 64.9729 34.6926 64.9729H33.3824C32.7644 64.9729 32.2943 64.418 32.396 63.8084L32.4604 63.4225C32.5418 62.9341 32.9689 62.5808 33.4641 62.5829C33.9927 62.5851 33.9809 62.5727 33.9809 62.5727C34.5147 62.5727 34.6481 62.1727 34.6926 61.8903V56.6192H34.8928C34.8038 56.6192 34.7371 56.6192 34.6926 56.6192V52.8306C34.6259 52.4305 34.359 51.9364 33.5806 51.9364C33.5806 51.9364 33.5899 51.9266 33.2192 51.9259C32.6604 51.925 32.2018 51.4783 32.2018 50.9194V50.795C32.2018 50.2427 32.6495 49.795 33.2018 49.795H34.8483C35.2264 49.795 35.6267 49.795 36.0492 49.795V47.4333C36.0492 46.9052 36.4774 46.477 37.0055 46.477C37.5337 46.477 37.9618 46.9052 37.9618 47.4333V49.7244C38.4733 49.7244 38.9626 49.7009 39.4741 49.7009V47.4333C39.4741 46.9052 39.9023 46.477 40.4304 46.477C40.9586 46.477 41.3867 46.9052 41.3867 47.4333V49.795C43.8331 50.0068 45.7901 50.8069 45.9903 53.2071ZM43.3216 60.3607C43.3216 57.7722 39.274 58.1487 37.9841 58.1487V62.5727C39.274 62.5727 43.3216 62.8786 43.3216 60.3607ZM42.4542 54.1248C42.4542 51.7481 39.0738 52.1011 37.9841 52.1011V56.125C39.0738 56.125 42.4542 56.3839 42.4542 54.1248Z" fill="white"/>
</svg>
