<svg width="102" height="102" viewBox="0 0 102 102" fill="none" xmlns="http://www.w3.org/2000/svg">
<rect x="0.5" y="0.5" width="101" height="101" rx="4.5" stroke="#8A38F5" stroke-dasharray="10 5"/>
<g clip-path="url(#clip0_18011_6596)">
<path d="M36 64.7864L37.2728 81.8324H39.3019V64.2344L36 64.7864Z" fill="#4169E1" stroke="#1C1C1C" stroke-width="0.5" stroke-miterlimit="10" stroke-linejoin="round"/>
<path d="M66.3019 64.7864L65.0292 81.8324H63V64.2344L66.3019 64.7864Z" fill="#4169E1" stroke="#1C1C1C" stroke-width="0.5" stroke-miterlimit="10" stroke-linejoin="round"/>
<path d="M53.7529 22.8902C52.5521 21.4033 50.2856 21.4033 49.0849 22.8903L42.6011 30.92C39.3481 34.949 37.5891 39.9861 37.6256 45.1708L37.8216 73.2854H65.0173L65.2133 45.1708C65.2497 39.9861 63.4907 34.949 60.2378 30.92L53.7529 22.8902Z" fill="#CCD9FD" stroke="#1C1C1C" stroke-width="0.5" stroke-miterlimit="10" stroke-linejoin="round"/>
<path d="M37.7969 69.3281L37.8245 73.2853H65.0202L65.0479 69.3281H37.7969Z" fill="#E8EDFA" stroke="#1C1C1C" stroke-width="0.5" stroke-miterlimit="10" stroke-linejoin="round"/>
<path d="M59.6592 30.2054L52.9756 21.9273C52.175 20.9359 50.6638 20.9359 49.8633 21.9273L43.1797 30.2054H59.6592Z" fill="#4169E1" stroke="#1C1C1C" stroke-width="0.5" stroke-miterlimit="10" stroke-linejoin="round"/>
<path d="M60.9291 76H41.9141V78.1222C41.9141 79.7791 43.2572 81.1222 44.9141 81.1222H57.9291C59.5859 81.1222 60.9291 79.7791 60.9291 78.1222V76Z" fill="#FF9500" stroke="#1C1C1C" stroke-width="0.5" stroke-miterlimit="10" stroke-linejoin="round"/>
<path d="M60.9291 73.2812H41.9141V77.4035H60.9291V73.2812Z" fill="#FFE2C8" stroke="#1C1C1C" stroke-width="0.5" stroke-miterlimit="10" stroke-linejoin="round"/>
<circle cx="51.5" cy="49.5" r="8.5" fill="#E8EDFA"/>
<path d="M51.5 41.0895C46.8627 41.0895 43.0911 44.8612 43.0911 49.4985C43.0911 54.1358 46.8627 57.9075 51.5 57.9075C56.1373 57.9075 59.909 54.1358 59.909 49.4985C59.909 44.8612 56.1373 41.0895 51.5 41.0895Z" fill="#E8EDFA" stroke="#1C1C1C" stroke-width="0.5" stroke-miterlimit="10" stroke-linejoin="round"/>
<path d="M39.5126 61C37.8798 62.0283 36.0096 63.3788 34.0887 65.1317C32.4521 66.6258 31.1173 68.1043 30.0434 69.4402C29.9723 70.9724 29.9801 72.6842 30.1301 74.5406C30.3705 77.52 30.9167 80.1156 31.5204 82.2484H33.6048C33.3546 80.9896 33.157 79.2485 33.3828 77.2056C33.5162 76.0005 33.7674 74.9527 34.039 74.0894C34.5511 73.7252 35.293 73.2838 36.2569 72.9635C37.6004 72.5172 38.7765 72.5055 39.5116 72.5573C39.7725 71.0241 39.9731 69.2205 39.9974 67.199C40.0266 64.8221 39.8056 62.7285 39.5116 61.001L39.5126 61Z" fill="#4169E1" stroke="#1C1C1C" stroke-width="0.5" stroke-miterlimit="10" stroke-linejoin="round"/>
<path d="M63.4874 61C65.1202 62.0283 66.9904 63.3788 68.9113 65.1317C70.5479 66.6258 71.8827 68.1043 72.9566 69.4402C73.0277 70.9724 73.0199 72.6842 72.8699 74.5406C72.6295 77.52 72.0833 80.1156 71.4796 82.2484H69.3952C69.6454 80.9896 69.843 79.2485 69.6172 77.2056C69.4838 76.0005 69.2326 74.9527 68.961 74.0894C68.4489 73.7252 67.707 73.2838 66.7431 72.9635C65.3996 72.5172 64.2235 72.5055 63.4884 72.5573C63.2275 71.0241 63.0269 69.2205 63.0026 67.199C62.9734 64.8221 63.1944 62.7285 63.4884 61.001L63.4874 61Z" fill="#4169E1" stroke="#1C1C1C" stroke-width="0.5" stroke-miterlimit="10" stroke-linejoin="round"/>
<path d="M52.2868 51.5091C51.9735 51.6901 51.5976 51.6901 51.2843 51.5091L48.5067 49.9218C48.0403 49.6573 47.8663 49.0725 48.1099 48.5922L50.9224 43.0509C51.2983 42.306 52.3703 42.3199 52.7323 43.0718L55.4055 48.6479C55.6353 49.1213 55.4543 49.6921 54.9948 49.9567L52.2868 51.5021V51.5091Z" fill="#1C1C1C"/>
<path d="M52.1394 53.024C51.8331 53.1911 51.4572 53.1911 51.1578 53.017L48.9302 51.7431C48.4568 51.4716 47.9486 52.0424 48.2758 52.481L50.8515 55.9896C51.2483 56.5325 52.0559 56.5395 52.4666 56.0035L55.1746 52.4601C55.5087 52.0285 55.0075 51.4507 54.5341 51.7152L52.1464 53.024H52.1394Z" fill="#1C1C1C"/>
</g>
<defs>
<clipPath id="clip0_18011_6596">
<rect width="62" height="62" fill="white" transform="translate(20 20)"/>
</clipPath>
</defs>
</svg>
