<svg width="62" height="62" viewBox="0 0 62 62" fill="none" xmlns="http://www.w3.org/2000/svg">
<g clip-path="url(#clip0_18011_7189)">
<path d="M28.7438 25.4785C28.7439 25.5858 28.8602 25.7141 29.0114 25.7178H29.0134C30.5842 25.7741 31.7878 27.02 31.8864 28.5625C32.0226 30.6581 32.1006 32.8442 32.1071 35.1201V35.1211C32.1136 37.6802 32.0355 40.1303 31.8864 42.458C31.7882 44.0035 30.6017 45.2641 29.029 45.3281C28.8679 45.3361 28.7467 45.4679 28.7438 45.5869C28.7374 46.711 28.7314 47.8167 28.7184 48.9033C28.7176 49.1465 28.6123 49.4141 28.3776 49.5664L28.3747 49.5684C28.1538 49.7075 27.9011 49.8066 27.6208 49.8066C27.3404 49.8066 27.0878 49.7075 26.8669 49.5684L26.864 49.5664C26.6293 49.4141 26.524 49.1465 26.5231 48.9033C26.5102 47.8217 26.5042 46.7274 26.4977 45.6211V45.6191C26.4974 45.4966 26.3602 45.3458 26.1794 45.3418H26.1765C24.4888 45.2855 23.2306 43.9159 23.154 42.2539C23.0568 40.0828 22.9987 37.8337 22.9987 35.5137V35.5068C22.9987 33.194 23.0503 30.9453 23.154 28.7734C23.2307 27.1147 24.5055 25.76 26.1911 25.7109H26.1921C26.3613 25.7071 26.4909 25.567 26.4909 25.4395V25.4385C26.4974 24.3194 26.5043 23.2188 26.5173 22.1309C26.5181 21.8702 26.6403 21.5798 26.9079 21.4365V21.4375C27.1518 21.3054 27.4192 21.2232 27.7243 21.2471L27.7233 21.248C27.9417 21.2642 28.1447 21.3358 28.3307 21.4395L28.3337 21.4404C28.5915 21.5884 28.7176 21.865 28.7184 22.1309L28.7438 25.4766V25.4785Z" fill="#693000" stroke="#1C1C1C" stroke-width="0.5" stroke-miterlimit="10"/>
<path d="M18.603 21.5738C18.6031 21.681 18.7185 21.8093 18.8696 21.813H18.8706C20.4483 21.8554 21.6727 23.1014 21.771 24.6588C21.9006 26.6824 21.9849 28.7774 22.0044 30.9371C22.0368 33.9479 21.946 36.8428 21.771 39.608C21.6728 41.1622 20.4707 42.4227 18.8853 42.4791H18.8823C18.721 42.483 18.603 42.615 18.603 42.7252V42.7261C18.5966 43.8389 18.5896 44.9336 18.5767 46.0152C18.5759 46.2222 18.5015 46.4454 18.3296 46.6041L18.2495 46.6675C18.0219 46.8259 17.7599 46.9243 17.48 46.9244C17.1963 46.9244 16.9351 46.8168 16.7144 46.6705L16.7104 46.6675C16.4809 46.5087 16.3827 46.2505 16.3823 46.0132C16.376 44.9566 16.3633 43.8296 16.3569 42.7388V42.7379C16.3569 42.6251 16.2352 42.4873 16.0581 42.4791V42.4781C14.4114 42.4267 13.1867 41.0979 13.1167 39.481C13.0066 37.0131 12.9546 34.4744 12.9546 31.8658C12.9546 29.4432 13.0131 27.0787 13.1167 24.7789C13.1869 23.1635 14.437 21.8484 16.0767 21.8062C16.238 21.8024 16.3568 21.6712 16.3569 21.5611V21.5591C16.3634 20.4465 16.3694 19.3453 16.3823 18.2574C16.3833 18.002 16.4959 17.7201 16.7612 17.5748L16.7603 17.5738C17.0015 17.4357 17.2777 17.3454 17.5874 17.3755C17.5895 17.3757 17.5921 17.3754 17.5942 17.3755H17.5962L17.5952 17.3765C17.7647 17.3896 17.9205 17.4363 18.063 17.5015L18.2026 17.5728L18.2056 17.5748C18.4718 17.7276 18.5762 18.0109 18.5767 18.2593L18.603 21.5718V21.5738Z" fill="#2AA5A5" stroke="#1C1C1C" stroke-width="0.5" stroke-linejoin="round"/>
<path d="M33.3512 26.9516C33.3512 24.5329 33.4094 22.172 33.5129 19.8755C33.5776 18.3831 34.7288 17.1802 36.2293 17.1416C36.5009 17.1351 36.7532 16.9164 36.7532 16.6462C36.7532 15.6363 36.7661 14.6328 36.7726 13.6485C36.7726 13.269 36.9342 12.8702 37.2964 12.7544C37.4258 12.7158 37.5681 12.6965 37.7104 12.7094C37.7944 12.7158 37.872 12.7351 37.9497 12.7544C38.3118 12.8702 38.4735 13.269 38.4735 13.6485C38.48 14.6392 38.4929 15.6427 38.4994 16.6591C38.4994 16.9228 38.7452 17.1416 39.0103 17.148C40.4526 17.1866 41.578 18.3252 41.6685 19.7597C41.7979 21.7796 41.8755 23.8703 41.9014 26.0253C41.9337 29.0294 41.8432 31.9178 41.6685 34.6774C41.578 36.1119 40.472 37.2634 39.0233 37.3149C38.7516 37.3213 38.4994 37.54 38.4994 37.8102C38.4994 38.8266 38.4865 39.8301 38.48 40.8208C38.48 41.1746 38.3442 41.5477 38.0143 41.6828C37.8914 41.7342 37.7621 41.7664 37.6263 41.7664C37.4905 41.7664 37.3611 41.7342 37.2382 41.6828C36.9084 41.5477 36.7726 41.1746 36.7726 40.8208C36.7661 39.8366 36.7596 38.8395 36.7532 37.8231C36.7532 37.5465 36.4944 37.3278 36.2163 37.3149C34.7094 37.2699 33.5776 36.0541 33.5129 34.5552C33.4029 32.0914 33.3447 29.5569 33.3512 26.9516Z" fill="#788F74" stroke="#1C1C1C" stroke-width="0.5" stroke-linejoin="round"/>
<path d="M8.59082 27.5435C8.59085 27.6508 8.70717 27.7791 8.8584 27.7828H8.86035C10.4312 27.8391 11.6348 29.085 11.7334 30.6275C11.8695 32.7231 11.9476 34.9092 11.9541 37.1851V37.1861C11.9606 39.7452 11.8825 42.1953 11.7334 44.523C11.6352 46.0685 10.4487 47.3291 8.87598 47.3931C8.71489 47.4011 8.59373 47.5329 8.59082 47.6519C8.58436 48.776 8.57836 49.8817 8.56543 50.9683C8.56459 51.2115 8.45925 51.4791 8.22461 51.6314L8.22168 51.6334C8.00079 51.7725 7.74813 51.8716 7.46777 51.8716C7.18741 51.8716 6.93476 51.7725 6.71387 51.6334L6.71094 51.6314C6.47601 51.4789 6.37068 51.2108 6.37012 50.9673L6.35742 49.3365C6.35257 48.7899 6.34796 48.2396 6.34473 47.6861V47.6841C6.34436 47.56 6.20563 47.4109 6.0332 47.4068H6.03027C4.33565 47.3506 3.08439 45.9806 3.00781 44.3189C2.91211 42.1804 2.85524 39.9662 2.85352 37.6832L2.8457 37.6763V37.5718C2.84571 35.2584 2.90382 33.0094 3.00098 30.8384L3.0293 30.5308C3.23882 29.0152 4.45795 27.822 6.03809 27.7759H6.03906C6.20829 27.7721 6.33789 27.632 6.33789 27.5045V27.5035C6.34436 26.3844 6.35132 25.2838 6.36426 24.1959C6.36505 23.9352 6.48732 23.6448 6.75488 23.5015V23.5025C6.99874 23.3704 7.26618 23.2882 7.57129 23.3121L7.57031 23.313C7.78873 23.3292 7.9917 23.4008 8.17773 23.5045L8.18066 23.5054C8.43852 23.6534 8.56463 23.93 8.56543 24.1959L8.59082 27.5416V27.5435Z" fill="#693000" stroke="#1C1C1C" stroke-width="0.5" stroke-miterlimit="10"/>
<path d="M28.7438 21.7732C28.7439 21.8805 28.8602 22.0088 29.0114 22.0125H29.0134C30.5842 22.0688 31.7878 23.3147 31.8864 24.8572C32.0226 26.9528 32.1006 29.1389 32.1071 31.4148V31.4158C32.1136 33.9749 32.0355 36.425 31.8864 38.7527C31.7882 40.2982 30.6017 41.5588 29.029 41.6228C28.8679 41.6307 28.7468 41.7626 28.7438 41.8816C28.7374 43.0057 28.7314 44.1114 28.7184 45.198C28.7176 45.4412 28.6123 45.7088 28.3776 45.8611L28.3747 45.863C28.1538 46.0022 27.9011 46.1013 27.6208 46.1013C27.3404 46.1013 27.0878 46.0022 26.8669 45.863L26.864 45.8611C26.6293 45.7088 26.524 45.4412 26.5231 45.198C26.5102 44.1164 26.5042 43.0221 26.4977 41.9158V41.9138C26.4974 41.7913 26.3602 41.6405 26.1794 41.6365H26.1765C24.4888 41.5802 23.2306 40.2106 23.154 38.5486C23.0568 36.3775 22.9987 34.1283 22.9987 31.8083V31.8015C22.9987 29.4887 23.0503 27.2399 23.154 25.0681C23.2307 23.4094 24.5055 22.0547 26.1911 22.0056H26.1921C26.3613 22.0018 26.4909 21.8617 26.4909 21.7341V21.7332C26.4974 20.6141 26.5043 19.5134 26.5173 18.4255C26.5181 18.1648 26.6403 17.8745 26.9079 17.7312V17.7322C27.1518 17.6001 27.4192 17.5178 27.7243 17.5417L27.7233 17.5427C27.9417 17.5588 28.1447 17.6305 28.3307 17.7341L28.3337 17.7351C28.5915 17.8831 28.7176 18.1596 28.7184 18.4255L28.7438 21.7712V21.7732Z" fill="#EB001B" stroke="#1C1C1C" stroke-width="0.5" stroke-miterlimit="10"/>
<path d="M18.603 17.8685C18.6031 17.9758 18.7185 18.104 18.8696 18.1078H18.8706C20.4483 18.1501 21.6727 19.3961 21.771 20.9535C21.9006 22.9772 21.9849 25.0721 22.0044 27.2318C22.0368 30.2427 21.946 33.1375 21.771 35.9027C21.6728 37.4569 20.4707 38.7175 18.8853 38.7738H18.8823C18.721 38.7778 18.603 38.9098 18.603 39.0199V39.0209C18.5966 40.1336 18.5896 41.2283 18.5767 42.3099C18.5759 42.5169 18.5015 42.7402 18.3296 42.8988L18.2495 42.9623C18.0219 43.1207 17.7599 43.219 17.48 43.2191C17.1963 43.2191 16.9351 43.1116 16.7144 42.9652L16.7104 42.9623C16.4809 42.8035 16.3827 42.5452 16.3823 42.308C16.376 41.2513 16.3633 40.1243 16.3569 39.0336V39.0326C16.3569 38.9198 16.2352 38.782 16.0581 38.7738V38.7728C14.4114 38.7214 13.1867 37.3926 13.1167 35.7758C13.0066 33.3079 12.9546 30.7691 12.9546 28.1605C12.9546 25.7379 13.0131 23.3735 13.1167 21.0736C13.1869 19.4583 14.437 18.1431 16.0767 18.101C16.238 18.0971 16.3568 17.966 16.3569 17.8558V17.8539C16.3634 16.7412 16.3694 15.6401 16.3823 14.5521C16.3833 14.2967 16.4959 14.0148 16.7612 13.8695L16.7603 13.8685C17.0015 13.7304 17.2777 13.6401 17.5874 13.6703C17.5895 13.6704 17.5921 13.6701 17.5942 13.6703H17.5962L17.5952 13.6713C17.7647 13.6844 17.9205 13.7311 18.063 13.7963L18.2026 13.8676L18.2056 13.8695C18.4718 14.0224 18.5762 14.3057 18.5767 14.5541L18.603 17.8666V17.8685Z" fill="#B9E5DE" stroke="#1C1C1C" stroke-width="0.5" stroke-linejoin="round"/>
<path d="M38.7491 12.9541C38.7494 13.0613 38.8657 13.1887 39.0167 13.1924L39.3087 13.2148C40.7434 13.3923 41.8257 14.5783 41.9181 16.0381L42.006 17.5703C42.0578 18.5999 42.0963 19.6467 42.1222 20.71L42.1515 22.3174L42.1573 23.4404C42.1593 26.0495 42.0712 28.5686 41.9181 30.9883C41.8198 32.5423 40.6176 33.803 39.0323 33.8594H39.0294C38.8681 33.8632 38.7494 33.9944 38.7491 34.1045C38.7491 35.1218 38.7361 36.1288 38.7296 37.1172C38.7292 37.5113 38.5781 38.0169 38.1095 38.209L38.1085 38.208C37.9628 38.2688 37.8013 38.3105 37.6261 38.3105C37.4509 38.3105 37.2894 38.2688 37.1437 38.208V38.209C36.6748 38.017 36.523 37.5114 36.5226 37.1172L36.5031 34.1191V34.1182C36.5031 34.0055 36.3821 33.8678 36.2052 33.8594V33.8584C34.5584 33.8073 33.3329 32.4782 33.2628 30.8613L33.1906 28.9971C33.128 27.12 33.0959 25.203 33.1007 23.2461L33.1115 21.4404C33.1327 19.6455 33.1851 17.8842 33.2628 16.1592L33.2902 15.8604C33.4911 14.3845 34.6854 13.2261 36.2228 13.1865H36.2238C36.385 13.1825 36.5031 13.0505 36.5031 12.9404C36.5031 11.9296 36.5161 10.9233 36.5226 9.94141C36.5231 9.51814 36.7045 8.97551 37.2198 8.81055L37.2247 8.80957C37.3793 8.76345 37.5538 8.73877 37.7325 8.75488L37.7316 8.75586C37.8389 8.7643 37.9354 8.78813 38.0099 8.80664C38.0151 8.80793 38.0204 8.80892 38.0255 8.81055C38.5411 8.97539 38.7233 9.51805 38.7238 9.94141L38.7365 11.4365C38.7413 11.9382 38.7459 12.4435 38.7491 12.9521V12.9541Z" fill="#B9E5DE" stroke="#1C1C1C" stroke-width="0.5" stroke-linejoin="round"/>
<path d="M8.59082 23.8381C8.59085 23.9453 8.70717 24.0737 8.8584 24.0773H8.86035C10.4312 24.1336 11.6348 25.3795 11.7334 26.9221C11.8695 29.0177 11.9476 31.2038 11.9541 33.4797V33.4807C11.9606 36.0398 11.8825 38.4898 11.7334 40.8176C11.6352 42.3631 10.4487 43.6237 8.87598 43.6877C8.71489 43.6956 8.59373 43.8274 8.59082 43.9465C8.58436 45.0706 8.57836 46.1763 8.56543 47.2629C8.56459 47.5061 8.45925 47.7737 8.22461 47.926L8.22168 47.9279C8.00079 48.067 7.74813 48.1662 7.46777 48.1662C7.18741 48.1662 6.93476 48.0671 6.71387 47.9279L6.71094 47.926C6.47601 47.7735 6.37068 47.5053 6.37012 47.2619L6.35742 45.631C6.35257 45.0844 6.34796 44.5342 6.34473 43.9807V43.9787C6.34437 43.8546 6.20563 43.7055 6.0332 43.7014H6.03027C4.33565 43.6452 3.08439 42.2752 3.00781 40.6135C2.91211 38.475 2.85524 36.2608 2.85352 33.9777L2.8457 33.9709V33.8664C2.84571 31.553 2.90382 29.304 3.00098 27.133L3.0293 26.8254C3.23882 25.3098 4.45795 24.1165 6.03809 24.0705H6.03906C6.20829 24.0667 6.33789 23.9266 6.33789 23.799V23.798C6.34436 22.679 6.35132 21.5783 6.36426 20.4904C6.36505 20.2297 6.48732 19.9394 6.75488 19.7961V19.7971C6.99874 19.6649 7.26618 19.5827 7.57129 19.6066L7.57031 19.6076C7.78873 19.6237 7.9917 19.6954 8.17773 19.799L8.18066 19.8C8.43852 19.9479 8.56463 20.2245 8.56543 20.4904L8.59082 23.8361V23.8381Z" fill="#EB001B" stroke="#1C1C1C" stroke-width="0.5" stroke-miterlimit="10"/>
<path d="M35.2267 28.9586C34.6899 29.4797 34.082 29.8785 33.377 30.1165C31.6954 30.6762 30.9323 29.9236 29.3283 27.7814C27.899 25.8837 25.9522 23.2785 22.1881 24.5264C18.8637 25.6264 17.318 28.7078 15.824 31.6926C14.511 34.3172 13.2692 36.8002 10.9991 37.5529C9.32401 38.1061 8.56084 37.3535 6.95687 35.2178C5.67629 33.5066 3.96884 31.2294 0.909668 31.6926V34.2721C2.44896 33.8411 3.2186 34.6131 4.75789 36.6652C5.92206 38.2219 7.44841 40.2547 10.0225 40.2547C10.5917 40.2547 11.219 40.1517 11.8981 39.9266C15.2225 38.8266 16.7682 35.7453 18.2622 32.7604C19.5752 30.1358 20.8169 27.6528 23.0871 26.9001C24.7622 26.3405 25.5254 27.0995 27.1293 29.2352C28.5587 31.1394 30.5183 33.7447 34.276 32.4967C34.8064 32.323 35.285 32.0914 35.7312 31.8212C35.5566 30.8692 35.3884 29.9171 35.2267 28.9651V28.9586Z" fill="#4169E1" stroke="#1C1C1C" stroke-width="0.5" stroke-linecap="round" stroke-linejoin="round"/>
<path d="M60.9096 47.1828V48.643C60.9096 49.267 60.7674 49.8781 60.5087 50.4249C60.2435 50.9782 59.8554 51.4735 59.3704 51.8723C58.7236 52.3998 57.9475 52.715 57.1584 52.7986H38.0402C37.8915 52.8179 37.7362 52.8244 37.5875 52.8244C36.6432 52.8244 35.6925 52.5027 34.9164 51.8723C34.4313 51.4735 34.0497 50.9782 33.7845 50.4249C33.5258 49.8781 33.3835 49.267 33.3835 48.643V27.1703L34.593 28.3797L35.893 27.0867H36.0741L37.3676 28.3797L38.6676 27.0867H38.8487L40.1422 28.3797L41.4422 27.0867H41.6233L42.9168 28.3797L44.2168 27.0867H44.3979L45.6914 28.3797L46.9914 27.0867H47.1725L48.466 28.3797L49.766 27.0867H49.9471L51.2406 28.3797L52.5018 27.1253V47.1828H60.9096Z" fill="#4169E1" stroke="#1C1C1C" stroke-width="0.5" stroke-linejoin="round"/>
<path d="M51.2406 26.1733L49.9471 24.8867H49.766L48.4725 26.1733L47.1789 24.8867H46.9979L45.7043 26.1733L44.4108 24.8867H44.2297L42.9362 26.1733L41.6427 24.8867H41.4616L40.1681 26.1733L38.8746 24.8867H38.6935L37.3999 26.1733L36.1064 24.8867H35.9253L34.6318 26.1733L33.4224 24.9703V46.4431C33.4224 47.0671 33.5646 47.6782 33.8234 48.225C34.0885 48.7782 34.4701 49.2735 34.9552 49.6724C35.7313 50.3028 36.682 50.6244 37.6263 50.6244C37.7751 50.6244 37.9303 50.6244 38.079 50.5987C38.8681 50.5151 39.6377 50.1999 40.291 49.6724C41.2611 48.8747 41.8302 47.6911 41.8302 46.4431V44.9828H52.5406V24.9253L51.2794 26.1797L51.2406 26.1733Z" fill="#CCD9FD" stroke="#1C1C1C" stroke-width="0.5" stroke-linejoin="round"/>
<path d="M60.9097 44.9764V46.4367C60.9097 47.0607 60.7674 47.6718 60.5087 48.2186C60.2436 48.7718 59.8555 49.2671 59.3704 49.666C58.7237 50.1935 57.9476 50.5087 57.1585 50.5923H38.0403C38.8293 50.5087 39.599 50.1935 40.2522 49.666C41.2223 48.8683 41.7915 47.6847 41.7915 46.4367V44.9764H60.9097Z" fill="#CCD9FD" stroke="#1C1C1C" stroke-width="0.5" stroke-linejoin="round"/>
<path d="M57.1584 50.5922C57.0097 50.6115 56.8545 50.618 56.7057 50.618C56.557 50.618 56.4017 50.618 56.2465 50.5922H57.1584Z" fill="white" stroke="#1C1C1C" stroke-width="0.5" stroke-linecap="round" stroke-linejoin="round"/>
<path d="M57.6823 50.5922H57.1584" stroke="#1C1C1C" stroke-width="0.5" stroke-linecap="round" stroke-linejoin="round"/>
<path d="M37.2642 30.3932H48.6924" stroke="#1C1C1C" stroke-width="0.5" stroke-linecap="round" stroke-linejoin="round"/>
<path d="M37.2642 33.6868H48.6924" stroke="#1C1C1C" stroke-width="0.5" stroke-linecap="round" stroke-linejoin="round"/>
<path d="M37.2642 36.974H48.6924" stroke="#1C1C1C" stroke-width="0.5" stroke-linecap="round" stroke-linejoin="round"/>
<path d="M37.2642 40.2676H48.6924" stroke="#1C1C1C" stroke-width="0.5" stroke-linecap="round" stroke-linejoin="round"/>
</g>
<defs>
<clipPath id="clip0_18011_7189">
<rect width="62" height="62" rx="5" fill="white"/>
</clipPath>
</defs>
</svg>
