<svg width="102" height="102" viewBox="0 0 102 102" fill="none" xmlns="http://www.w3.org/2000/svg">
<rect x="0.5" y="0.5" width="101" height="101" rx="4.5" stroke="#8A38F5" stroke-dasharray="10 5"/>
<path d="M80.447 78.7688C80.406 79.2075 80.079 79.5453 79.6388 79.565C74.1718 79.81 42.6345 79.4944 40.6037 79.5069C40.3078 76.5505 40.0825 72.9993 40.0945 68.9779C40.104 65.6044 40.2786 62.5692 40.5183 59.9496C40.5647 59.4424 40.9816 59.055 41.4909 59.0487C47.1672 58.9788 74.8295 58.6351 79.7072 58.9789C80.1161 59.0077 80.4012 59.3267 80.4396 59.7348C80.6921 62.4228 80.8784 65.5667 80.8857 69.076C80.8931 72.7301 80.7064 75.9943 80.447 78.7688Z" fill="#FF9500" stroke="#1C1C1C" stroke-miterlimit="10" stroke-linejoin="round"/>
<path d="M21 34.2075C21 30.8938 23.6863 28.2075 27 28.2075H64.4711C67.7848 28.2075 70.4711 30.8938 70.4711 34.2075V65.6032C70.4711 68.9169 67.7848 71.6032 64.4711 71.6032H27C23.6863 71.6032 21 68.9169 21 65.6032V34.2075Z" fill="#4169E1" stroke="#1C1C1C" stroke-miterlimit="10" stroke-linejoin="round"/>
<path d="M21 29C21 25.6863 23.6863 23 27 23H64.4711C67.7848 23 70.4711 25.6863 70.4711 29V60.3957C70.4711 63.7094 67.7848 66.3957 64.4711 66.3957H27C23.6863 66.3957 21 63.7094 21 60.3957V29Z" fill="#E8EDFA" stroke="#1C1C1C" stroke-miterlimit="10" stroke-linejoin="round"/>
<path d="M21 29C21 25.6863 23.6863 23 27 23H64.4711C67.7848 23 70.4711 25.6863 70.4711 29V33.415H21V29Z" fill="#FF9500" stroke="#1C1C1C" stroke-miterlimit="10" stroke-linejoin="round"/>
<path d="M46.5411 49.5644C46.0702 49.8365 45.505 49.8365 45.0341 49.5644L40.8583 47.1782C40.1571 46.7805 39.8954 45.9014 40.2617 45.1793L44.4899 36.8486C45.055 35.7287 46.6667 35.7497 47.2109 36.88L51.2298 45.263C51.5751 45.9747 51.303 46.8328 50.6123 47.2305L46.5411 49.5539V49.5644Z" fill="#1C1C1C"/>
<path d="M46.3187 51.2527C45.8582 51.5039 45.293 51.5039 44.843 51.2423L41.494 49.3271C40.7823 48.9189 40.0183 49.7771 40.5102 50.4364L44.3825 55.7111C44.9791 56.5275 46.1931 56.5379 46.8106 55.7321L50.8817 50.405C51.3841 49.7562 50.6306 48.8875 49.9189 49.2852L46.3292 51.2527H46.3187Z" fill="#1C1C1C"/>
<path d="M27.0754 30.8112C28.5134 30.8112 29.6792 29.6455 29.6792 28.2075C29.6792 26.7695 28.5134 25.6038 27.0754 25.6038C25.6374 25.6038 24.4717 26.7695 24.4717 28.2075C24.4717 29.6455 25.6374 30.8112 27.0754 30.8112Z" fill="#E8EDFA" stroke="#1C1C1C" stroke-miterlimit="10" stroke-linejoin="round"/>
<path d="M34.8865 30.8112C36.3245 30.8112 37.4902 29.6455 37.4902 28.2075C37.4902 26.7695 36.3245 25.6038 34.8865 25.6038C33.4485 25.6038 32.2827 26.7695 32.2827 28.2075C32.2827 29.6455 33.4485 30.8112 34.8865 30.8112Z" fill="#4169E1" stroke="#1C1C1C" stroke-miterlimit="10" stroke-linejoin="round"/>
<path d="M42.6977 30.8112C44.1357 30.8112 45.3015 29.6455 45.3015 28.2075C45.3015 26.7695 44.1357 25.6038 42.6977 25.6038C41.2597 25.6038 40.094 26.7695 40.094 28.2075C40.094 29.6455 41.2597 30.8112 42.6977 30.8112Z" fill="#4169E1" stroke="#1C1C1C" stroke-miterlimit="10" stroke-linejoin="round"/>
<path d="M80.4707 73.5906C80.4171 74.0333 80.0738 74.3664 79.6281 74.3813C74.1306 74.5644 42.6332 74.328 40.6037 74.3373C40.3078 72.12 40.0825 69.4566 40.0945 66.4406C40.1037 63.9929 40.2674 61.7827 40.4951 59.8624C40.5537 59.368 40.969 58.9985 41.4668 58.9939C47.0762 58.9421 74.7023 58.6842 79.6751 58.9397C80.0968 58.9613 80.4122 59.2805 80.4632 59.6997C80.7036 61.673 80.8786 63.9651 80.8857 66.5141C80.8929 69.1704 80.7177 71.5519 80.4707 73.5906Z" fill="#FFE2C8" stroke="#1C1C1C" stroke-miterlimit="10" stroke-linejoin="round"/>
<path d="M45.9233 70.6768C45.4185 70.6768 44.9538 70.5445 44.5291 70.2798C44.1074 70.0151 43.7689 69.6135 43.5135 69.0749C43.2611 68.5363 43.1349 67.8577 43.1349 67.039C43.1349 66.1834 43.2672 65.4879 43.5319 64.9524C43.7997 64.4169 44.1444 64.0245 44.566 63.7752C44.9907 63.5259 45.437 63.4012 45.9048 63.4012C46.2556 63.4012 46.5634 63.4628 46.8281 63.5859C47.0928 63.7059 47.3144 63.8675 47.4929 64.0706C47.6714 64.2707 47.8068 64.4907 47.8991 64.7308H47.936V61.1299H50.4843V70.5845H47.9545V69.4211H47.8991C47.8006 69.6612 47.6591 69.8766 47.4744 70.0674C47.2928 70.2552 47.0712 70.4044 46.8096 70.5152C46.5511 70.6229 46.2556 70.6768 45.9233 70.6768ZM46.865 68.7194C47.0989 68.7194 47.299 68.6517 47.4652 68.5163C47.6344 68.3778 47.7637 68.1839 47.8529 67.9346C47.9453 67.6822 47.9914 67.3837 47.9914 67.039C47.9914 66.6882 47.9453 66.3881 47.8529 66.1388C47.7637 65.8864 47.6344 65.6941 47.4652 65.5617C47.299 65.4263 47.0989 65.3586 46.865 65.3586C46.6311 65.3586 46.4311 65.4263 46.2649 65.5617C46.1018 65.6941 45.9756 65.8864 45.8863 66.1388C45.8002 66.3881 45.7571 66.6882 45.7571 67.039C45.7571 67.3899 45.8002 67.6915 45.8863 67.9438C45.9756 68.1931 46.1018 68.3855 46.2649 68.5209C46.4311 68.6532 46.6311 68.7194 46.865 68.7194ZM54.1544 70.5845H51.3846L54.5053 61.1299H58.0138L61.1346 70.5845H58.3647L56.2965 63.7336H56.2226L54.1544 70.5845ZM53.6374 66.8544H58.8448V68.7748H53.6374V66.8544ZM62.0821 73.2436V63.4936H64.6119V64.7308H64.6673C64.7596 64.4907 64.8951 64.2707 65.0736 64.0706C65.2521 63.8675 65.4737 63.7059 65.7383 63.5859C66.003 63.4628 66.3108 63.4012 66.6616 63.4012C67.1294 63.4012 67.5742 63.5259 67.9958 63.7752C68.4205 64.0245 68.7652 64.4169 69.0299 64.9524C69.2976 65.4879 69.4315 66.1834 69.4315 67.039C69.4315 67.8577 69.3038 68.5363 69.0483 69.0749C68.796 69.6135 68.4574 70.0151 68.0327 70.2798C67.6111 70.5445 67.1479 70.6768 66.6432 70.6768C66.3108 70.6768 66.0138 70.6229 65.7522 70.5152C65.4937 70.4044 65.2721 70.2552 65.0874 70.0674C64.9058 69.8766 64.7658 69.6612 64.6673 69.4211H64.6304V73.2436H62.0821ZM64.575 67.039C64.575 67.3837 64.6196 67.6822 64.7089 67.9346C64.8012 68.1839 64.9304 68.3778 65.0966 68.5163C65.2659 68.6517 65.4675 68.7194 65.7014 68.7194C65.9353 68.7194 66.1338 68.6532 66.2969 68.5209C66.4631 68.3855 66.5893 68.1931 66.6755 67.9438C66.7647 67.6915 66.8094 67.3899 66.8094 67.039C66.8094 66.6882 66.7647 66.3881 66.6755 66.1388C66.5893 65.8864 66.4631 65.6941 66.2969 65.5617C66.1338 65.4263 65.9353 65.3586 65.7014 65.3586C65.4675 65.3586 65.2659 65.4263 65.0966 65.5617C64.9304 65.6941 64.8012 65.8864 64.7089 66.1388C64.6196 66.3881 64.575 66.6882 64.575 67.039ZM70.4991 73.2436V63.4936H73.0289V64.7308H73.0843C73.1766 64.4907 73.312 64.2707 73.4906 64.0706C73.6691 63.8675 73.8906 63.7059 74.1553 63.5859C74.42 63.4628 74.7278 63.4012 75.0786 63.4012C75.5464 63.4012 75.9911 63.5259 76.4128 63.7752C76.8375 64.0245 77.1822 64.4169 77.4469 64.9524C77.7146 65.4879 77.8485 66.1834 77.8485 67.039C77.8485 67.8577 77.7208 68.5363 77.4653 69.0749C77.213 69.6135 76.8744 70.0151 76.4497 70.2798C76.0281 70.5445 75.5649 70.6768 75.0602 70.6768C74.7278 70.6768 74.4308 70.6229 74.1692 70.5152C73.9107 70.4044 73.6891 70.2552 73.5044 70.0674C73.3228 69.8766 73.1828 69.6612 73.0843 69.4211H73.0474V73.2436H70.4991ZM72.992 67.039C72.992 67.3837 73.0366 67.6822 73.1259 67.9346C73.2182 68.1839 73.3474 68.3778 73.5136 68.5163C73.6829 68.6517 73.8845 68.7194 74.1184 68.7194C74.3523 68.7194 74.5508 68.6532 74.7139 68.5209C74.8801 68.3855 75.0063 68.1931 75.0925 67.9438C75.1817 67.6915 75.2263 67.3899 75.2263 67.039C75.2263 66.6882 75.1817 66.3881 75.0925 66.1388C75.0063 65.8864 74.8801 65.6941 74.7139 65.5617C74.5508 65.4263 74.3523 65.3586 74.1184 65.3586C73.8845 65.3586 73.6829 65.4263 73.5136 65.5617C73.3474 65.6941 73.2182 65.8864 73.1259 66.1388C73.0366 66.3881 72.992 66.6882 72.992 67.039Z" fill="#1C1C1C"/>
</svg>
