<svg width="62" height="62" viewBox="0 0 62 62" fill="none" xmlns="http://www.w3.org/2000/svg">
<g clip-path="url(#clip0_18011_8662)">
<path d="M55.9666 33.8629C55.9666 47.3314 45.0185 58.25 31.5129 58.25C18.0074 58.25 6.09 46.4281 6.09 32.9596C4.7787 10.2388 18.0074 9.47571 31.5129 9.47571C45.0185 9.47571 56.7082 10.6554 55.9666 33.8629Z" fill="#2AA5A5" stroke="#1C1C1C" stroke-width="0.5" stroke-miterlimit="10"/>
<path d="M30.9366 54.2872C44.7088 54.2872 55.8733 42.8061 55.8733 28.6436C55.8733 14.481 44.7088 3 30.9366 3C17.1645 3 6 14.481 6 28.6436C6 42.8061 17.1645 54.2872 30.9366 54.2872Z" fill="#E6F7F4" stroke="#1C1C1C" stroke-width="0.5" stroke-miterlimit="10"/>
<path d="M31.0003 48.5064C41.8488 48.5064 50.6432 39.6099 50.6432 28.6354C50.6432 17.661 41.8488 8.7644 31.0003 8.7644C20.1518 8.7644 11.3574 17.661 11.3574 28.6354C11.3574 39.6099 20.1518 48.5064 31.0003 48.5064Z" fill="#2AA5A5" stroke="#1C1C1C" stroke-width="0.5" stroke-miterlimit="10"/>
<path d="M14.9688 12.8362C16.1376 13.2636 17.0802 13.6155 18.0103 13.9674C19.3299 14.4575 19.3299 16.3176 18.0103 16.8078C17.0677 17.1597 16.1251 17.5116 14.9688 17.9389C14.554 18.0897 14.2147 18.429 14.0513 18.8438C13.624 20.0126 13.2721 20.9552 12.9202 21.8853C12.43 23.2049 10.57 23.2049 10.0798 21.8853C9.7279 20.9427 9.376 20.0001 8.94868 18.8438C8.79786 18.429 8.45853 18.0897 8.03121 17.9263C6.86238 17.499 5.91977 17.1471 4.98974 16.7952C3.67009 16.305 3.67009 14.445 4.98974 13.9548C5.93234 13.6029 6.87495 13.251 8.03121 12.8237C8.44596 12.6729 8.7853 12.3335 8.93611 11.9062C9.36343 10.7374 9.71533 9.79477 10.0672 8.86474C10.5574 7.54509 12.4175 7.54509 12.9076 8.86474C13.2595 9.80734 13.6114 10.7499 14.0388 11.9062C14.1896 12.321 14.5289 12.6603 14.9437 12.8237L14.9688 12.8362Z" fill="white" stroke="black" stroke-width="0.5" stroke-linejoin="round"/>
<path d="M54.0438 49.5132C54.9009 49.8266 55.5922 50.0847 56.2742 50.3427C57.2419 50.7022 57.2419 52.0662 56.2742 52.4257C55.583 52.6838 54.8917 52.9418 54.0438 53.2552C53.7396 53.3658 53.4908 53.6146 53.371 53.9188C53.0576 54.7759 52.7995 55.4672 52.5415 56.1492C52.182 57.1169 50.818 57.1169 50.4585 56.1492C50.2005 55.4579 49.9424 54.7667 49.629 53.9188C49.5184 53.6146 49.2696 53.3658 48.9562 53.246C48.0991 52.9326 47.4078 52.6745 46.7258 52.4165C45.7581 52.057 45.7581 50.693 46.7258 50.3335C47.4171 50.0755 48.1083 49.8174 48.9562 49.504C49.2604 49.3934 49.5092 49.1446 49.6198 48.8312C49.9332 47.9741 50.1912 47.2828 50.4493 46.6008C50.8088 45.6331 52.1728 45.6331 52.5323 46.6008C52.7903 47.2921 53.0484 47.9833 53.3618 48.8312C53.4724 49.1354 53.7212 49.3842 54.0253 49.504L54.0438 49.5132Z" fill="white" stroke="black" stroke-width="0.5" stroke-linejoin="round"/>
<path d="M40.7832 20.6805L43.1777 23.0917L43.3477 23.2626L43.1826 23.4393L30.1162 37.3895L30.1318 37.4052L29.9648 37.579L29.0156 38.5653L28.9102 38.6786L28.7334 38.868L28.7285 38.8632L27.6084 40.0292L27.4277 40.2167L27.248 40.0292L17.8193 30.2255L17.6533 30.0516L17.8193 29.8788L20.1768 27.4276L20.3574 27.2401L20.5371 27.4276L27.4111 34.577L40.4229 20.6854L40.6006 20.496L40.7832 20.6805Z" fill="white" stroke="black" stroke-width="0.5"/>
</g>
<defs>
<clipPath id="clip0_18011_8662">
<rect width="62" height="62" rx="5" fill="white"/>
</clipPath>
</defs>
</svg>
