<svg width="62" height="62" viewBox="0 0 62 62" fill="none" xmlns="http://www.w3.org/2000/svg">
<g clip-path="url(#clip0_18011_7055)">
<g clip-path="url(#clip1_18011_7055)">
<path d="M41.3001 14.26C41.5809 14.08 41.9252 14.08 42.206 14.26L60.9129 26.18C61.1937 26.36 61.3659 26.69 61.3659 27.05V50.9C61.3659 51.26 61.1937 51.59 60.9129 51.77L42.206 63.69C41.9252 63.87 41.5809 63.87 41.3001 63.69L22.5932 51.77C22.3124 51.59 22.1403 51.26 22.1403 50.9V27.05C22.1403 26.69 22.3124 26.36 22.5932 26.18L41.3001 14.26Z" fill="#CCD9FD" stroke="#1C1C1C" stroke-width="0.5" stroke-miterlimit="10"/>
<path d="M41.3001 8.26C41.5809 8.08 41.9252 8.08 42.206 8.26L60.9129 20.18C61.1937 20.36 61.3659 20.69 61.3659 21.05V44.9C61.3659 45.26 61.1937 45.59 60.9129 45.77L42.206 57.69C41.9252 57.87 41.5809 57.87 41.3001 57.69L22.5932 45.77C22.3124 45.59 22.1403 45.26 22.1403 44.9V21.05C22.1403 20.69 22.3124 20.36 22.5932 20.18L41.3001 8.26Z" fill="#4169E1" stroke="#1C1C1C" stroke-width="0.5" stroke-miterlimit="10"/>
<path d="M41.753 12.97L57.4433 22.97V42.97L41.753 52.97L26.0628 42.97V22.97L41.753 12.97Z" fill="#CCD9FD" stroke="#1C1C1C" stroke-width="0.5" stroke-linejoin="round"/>
<mask id="mask0_18011_7055" style="mask-type:alpha" maskUnits="userSpaceOnUse" x="25" y="12" width="33" height="42">
<path d="M41.753 12.97L57.4433 22.97V42.97L41.753 52.97L26.0628 42.97V22.97L41.753 12.97Z" fill="#CCD9FD" stroke="#1C1C1C" stroke-width="0.5" stroke-linejoin="round"/>
</mask>
<g mask="url(#mask0_18011_7055)">
<path d="M50.8121 50.97C42.1245 50.99 47.1885 62.47 25.4468 45.89C29.7046 38.77 31.915 35.17 36.2905 27.97C40.6479 35.16 42.8583 38.77 47.1885 45.95L50.8121 50.97Z" fill="#FFE2C8" stroke="#1C1C1C" stroke-width="0.5" stroke-linecap="round" stroke-linejoin="round"/>
<path d="M58.5123 49.47C52.171 54.03 41.1189 56.47 34.9588 56.47C38.0389 51.27 47.2972 38.17 50.4044 32.97C53.4936 38.16 56.8545 42.32 59.8711 47.47L58.5123 49.47Z" fill="#FFE2C8" stroke="#1C1C1C" stroke-width="0.5" stroke-linecap="round" stroke-linejoin="round"/>
<path d="M49.0003 24.98C49.0003 22.77 47.3606 20.98 45.3767 20.97C43.3746 20.97 41.7531 22.76 41.7531 24.97C41.7531 27.18 43.3837 28.97 45.3767 28.97C47.3696 28.97 49.0003 27.2 49.0003 24.98Z" fill="#FF9500" stroke="#1C1C1C" stroke-width="0.5" stroke-miterlimit="10"/>
</g>
<path d="M41.753 12.97L57.4433 22.97V42.97L41.753 52.97L26.0628 42.97V22.97L41.753 12.97Z" stroke="#1C1C1C" stroke-width="0.5" stroke-linejoin="round"/>
<path d="M35.6835 26.28C35.6835 36.59 28.0014 44.95 18.5257 44.95C9.04996 44.95 0.697533 35.9 0.697533 25.59C-0.226488 8.19999 9.05902 7.60999 18.5348 7.60999C28.0105 7.60999 36.2089 8.50998 35.6926 26.28H35.6835Z" fill="#FF9500" stroke="#1C1C1C" stroke-width="0.5" stroke-linejoin="round"/>
<path d="M18.1271 39.96C27.7931 39.96 35.6201 31.17 35.6201 20.33C35.6201 9.49001 27.7931 0.700012 18.1271 0.700012C8.46116 0.700012 0.634155 9.49001 0.634155 20.33C0.634155 31.17 8.47022 39.96 18.1271 39.96Z" fill="#FFE2C8" stroke="#1C1C1C" stroke-width="0.5" stroke-linejoin="round"/>
<path d="M18.1724 35.54C25.782 35.54 31.9512 28.73 31.9512 20.33C31.9512 11.93 25.782 5.12 18.1724 5.12C10.5628 5.12 4.39362 11.93 4.39362 20.33C4.39362 28.73 10.5628 35.54 18.1724 35.54Z" fill="#FF9500" stroke="#1C1C1C" stroke-width="0.5" stroke-linejoin="round"/>
<path d="M24.242 15.81C24.405 17.57 23.7528 18.64 22.7472 19.24C24.4322 19.72 25.474 20.86 25.2747 23.46C25.012 26.68 22.9556 27.56 20.0023 27.75V30.16C20.0023 30.7 19.6037 31.13 19.1236 31.13C18.6435 31.13 18.2449 30.69 18.2449 30.16V27.8C17.7919 27.8 17.3209 27.8 16.8498 27.78V30.16C16.8498 30.7 16.4512 31.13 15.9711 31.13C15.4909 31.13 15.0923 30.69 15.0923 30.16V27.75C14.6847 27.75 14.268 27.73 13.8422 27.73H12.8366C12.1572 27.73 11.6499 27.06 11.7586 26.32C11.8492 25.73 12.3112 25.31 12.8548 25.31C13.199 25.31 13.1899 25.3 13.1899 25.3C13.6791 25.3 13.806 24.9 13.8422 24.61V19.28V15.45C13.7788 15.05 13.5342 14.55 12.8185 14.55C12.8185 14.55 12.8185 14.55 12.5377 14.54C11.9942 14.54 11.5503 14.06 11.5503 13.46C11.5503 12.86 11.9851 12.39 12.5196 12.39H15.1014V10.01C15.1014 9.47004 15.5 9.04004 15.9801 9.04004C16.4603 9.04004 16.8589 9.48004 16.8589 10.01V12.32C17.3299 12.32 17.7829 12.3 18.2539 12.3V10.01C18.2539 9.47004 18.6525 9.04004 19.1327 9.04004C19.6128 9.04004 20.0114 9.48004 20.0114 10.01V12.39C22.2671 12.6 24.0789 13.41 24.2601 15.84L24.242 15.81ZM21.7779 23.05C21.7779 20.43 18.0456 20.81 16.8498 20.81V25.29C18.0365 25.29 21.7779 25.6 21.7779 23.05ZM20.9717 16.74C20.9717 14.33 17.8463 14.69 16.8407 14.69V18.76C17.8463 18.76 20.9717 19.02 20.9717 16.74Z" fill="white"/>
</g>
</g>
<defs>
<clipPath id="clip0_18011_7055">
<rect width="62" height="62" rx="5" fill="white"/>
</clipPath>
<clipPath id="clip1_18011_7055">
<rect width="62" height="64.51" fill="white"/>
</clipPath>
</defs>
</svg>
