<svg width="102" height="102" viewBox="0 0 102 102" fill="none" xmlns="http://www.w3.org/2000/svg">
<rect x="0.5" y="0.5" width="101" height="101" rx="4.5" stroke="#9747FF" stroke-dasharray="10 5"/>
<path d="M75.5747 53.152C75.5747 65.4692 65.5625 75.4545 53.2114 75.4545C40.8604 75.4545 29.9617 64.6432 29.9617 52.326C28.7625 31.5474 40.8604 30.8496 53.2114 30.8496C65.5625 30.8496 76.2529 31.9285 75.5747 53.152Z" fill="#434248" stroke="#1C1C1C" stroke-width="0.5" stroke-miterlimit="10"/>
<path d="M52.6845 70.9159C65.2793 70.9159 75.4895 60.4164 75.4895 47.4645C75.4895 34.5126 65.2793 24.013 52.6845 24.013C40.0896 24.013 29.8795 34.5126 29.8795 47.4645C29.8795 60.4164 40.0896 70.9159 52.6845 70.9159Z" fill="#96949C" stroke="#1C1C1C" stroke-width="0.5" stroke-miterlimit="10"/>
<path d="M52.7427 65.6293C62.6638 65.6293 70.7064 57.4932 70.7064 47.4569C70.7064 37.4206 62.6638 29.2845 52.7427 29.2845C42.8216 29.2845 34.779 37.4206 34.779 47.4569C34.779 57.4932 42.8216 65.6293 52.7427 65.6293Z" fill="#434248" stroke="#1C1C1C" stroke-width="0.5" stroke-miterlimit="10"/>
<path d="M65.3662 44.3335L64.4834 44.7808C63.7455 45.1584 63.3034 45.9372 63.3672 46.7681C63.3905 47.0411 63.3965 47.3202 63.3965 47.5933C63.3965 49.0401 63.1115 50.4462 62.5537 51.771C62.0134 53.0493 61.2408 54.1943 60.2588 55.1821C59.2768 56.17 58.1261 56.9425 56.8535 57.4829C55.5345 58.0407 54.1285 58.3257 52.6817 58.3257C51.2348 58.3257 49.8346 58.0407 48.5098 57.4829C47.8009 57.1808 47.1266 56.8034 46.4991 56.3618L48.2774 55.4556L48.3467 55.4204C49.66 56.1526 51.1592 56.5425 52.6817 56.5425H52.7451C53.9131 56.5367 55.052 56.3033 56.127 55.8501C57.202 55.3969 58.1671 54.7524 58.9922 53.9272C60.6773 52.2421 61.6065 49.9932 61.6065 47.6108C61.6065 47.2215 61.5836 46.8263 61.5313 46.437L61.5137 46.3149L61.4034 46.3735L46.545 53.9331L43.4717 55.5015L40.002 57.2681V55.2583L43.5762 53.4331L45.3369 52.5386L65.3662 42.3228V44.3335ZM52.6875 36.5874C54.1343 36.5874 55.5346 36.8724 56.8594 37.4302C57.5625 37.7265 58.2368 38.1038 58.8643 38.5454L58.7305 38.6157L57.0108 39.4927C55.6976 38.7606 54.204 38.3775 52.6875 38.3774H52.6172C51.4493 38.3891 50.3103 38.6214 49.2354 39.0688C48.1606 39.522 47.1961 40.1668 46.3711 40.9917C44.6861 42.6825 43.756 44.9258 43.7559 47.3081C43.7559 47.6973 43.7788 48.0869 43.8311 48.4761L43.8487 48.5981L43.959 48.5405L58.8057 40.9692L61.8799 39.3999L65.3604 37.6216V39.6323L61.7754 41.4624L60.0147 42.3579L44.3662 50.3472L44.2959 50.3882L43.4942 50.7954L42.6807 51.2075V51.2017L42.6055 51.2368L40.002 52.5669V50.5571L40.8858 50.1089C41.6235 49.7311 42.0649 48.9524 42.001 48.1216C41.9836 47.8486 41.9717 47.5752 41.9717 47.3022C41.9718 45.8555 42.2567 44.4492 42.8145 43.1245C43.3549 41.8462 44.1284 40.7012 45.1104 39.7134C46.0922 38.7316 47.2366 37.9529 48.5147 37.4126C49.8337 36.8722 51.2406 36.5874 52.6875 36.5874Z" fill="white"/>
<path d="M73.7893 26.792C74.7202 27.1323 75.471 27.4126 76.2117 27.6929C77.2628 28.0832 77.2628 29.5647 76.2117 29.9551C75.461 30.2354 74.7102 30.5157 73.7893 30.856C73.459 30.9761 73.1887 31.2464 73.0586 31.5767C72.7182 32.5077 72.438 33.2584 72.1577 33.9991C71.7673 35.0502 70.2858 35.0502 69.8954 33.9991C69.6152 33.2484 69.3349 32.4976 68.9945 31.5767C68.8744 31.2464 68.6042 30.9761 68.2638 30.846C67.3329 30.5057 66.5821 30.2254 65.8414 29.9451C64.7904 29.5547 64.7904 28.0732 65.8414 27.6828C66.5922 27.4026 67.3429 27.1223 68.2638 26.7819C68.5941 26.6618 68.8644 26.3916 68.9845 26.0512C69.3249 25.1203 69.6051 24.3695 69.8854 23.6288C70.2758 22.5778 71.7573 22.5778 72.1477 23.6288C72.428 24.3796 72.7082 25.1303 73.0486 26.0512C73.1687 26.3815 73.439 26.6518 73.7693 26.7819L73.7893 26.792Z" fill="white" stroke="black" stroke-width="0.5" stroke-linejoin="round"/>
<path d="M43.9459 69.4563C43.8174 75.1211 38.8397 77.3923 36.0298 78.7646C35.4945 79.0253 34.9967 79.238 34.5686 79.3976C34.1404 79.2327 33.648 79.0253 33.1181 78.7646C30.3081 77.3976 25.3893 74.7434 25.1966 69.4563C25.0788 66.249 26.433 63.3182 29.9495 63.3182C32.524 63.3182 33.8781 64.5894 34.5739 66.3234C35.2644 64.5894 36.6185 63.3182 39.1983 63.3182C42.7095 63.3182 44.0208 66.249 43.9459 69.4563Z" fill="#693000" stroke="#1C1C1C" stroke-width="0.5" stroke-miterlimit="10"/>
<path d="M43.9459 67.6698C43.8174 73.3345 38.8397 75.6058 36.0298 76.9781C35.4945 77.2387 34.9967 77.4515 34.5686 77.611C34.1404 77.4461 33.648 77.2387 33.1181 76.9781C30.3081 75.6111 25.3893 72.9569 25.1966 67.6698C25.0788 64.4624 26.433 61.5316 29.9495 61.5316C32.524 61.5316 33.8781 62.8029 34.5739 64.5369C35.2644 62.8029 36.6185 61.5316 39.1983 61.5316C42.7095 61.5316 44.0208 64.4624 43.9459 67.6698Z" fill="#E84142" stroke="#1C1C1C" stroke-width="0.5" stroke-miterlimit="10"/>
</svg>
