<svg width="102" height="102" viewBox="0 0 102 102" fill="none" xmlns="http://www.w3.org/2000/svg">
<rect x="0.5" y="0.5" width="101" height="101" rx="4.5" stroke="#9747FF" stroke-dasharray="10 5"/>
<path d="M34.8628 31.0504C35.8481 27.6644 39.1722 25.5601 42.6676 26.0279C52.9765 27.4073 63.1254 29.544 73.1116 32.4372C76.4933 33.417 78.6855 36.6743 78.2523 40.1684C77.3361 47.5589 75.8078 54.8183 73.6667 61.951C72.6549 65.3218 69.3375 67.4188 65.8489 66.9537C55.5859 65.5853 45.4845 63.4629 35.5392 60.5854C32.0887 59.5871 29.8935 56.2241 30.3794 52.6651C31.4086 45.1262 32.8699 37.8987 34.8628 31.0504Z" fill="#FF9500" stroke="#1C1C1C" stroke-width="0.5" stroke-miterlimit="10" stroke-linejoin="round"/>
<path d="M35.253 27.0976C36.2482 23.67 39.6127 21.5402 43.1501 22.0148C53.4103 23.3913 63.512 25.5181 73.4524 28.3943C76.8753 29.3848 79.0943 32.6816 78.6539 36.2176C77.7397 43.5593 76.2213 50.7717 74.0981 57.8588C73.0759 61.2709 69.7181 63.3933 66.1876 62.9214C55.9738 61.5559 45.9202 59.4436 36.0212 56.5833C32.5287 55.5742 30.3068 52.1704 30.8 48.5687C31.8252 41.082 33.277 33.9028 35.253 27.0976Z" fill="#FFE2C8" stroke="#1C1C1C" stroke-width="0.5" stroke-miterlimit="10" stroke-linejoin="round"/>
<path d="M39.1215 28.1504C39.467 26.5092 41.0775 25.4588 42.7187 25.8043L46.7591 26.6548C48.4003 27.0003 49.4506 28.6108 49.1052 30.252L48.5549 32.8661C48.2094 34.5073 46.5989 35.5577 44.9577 35.2122L40.9173 34.3617C39.2761 34.0162 38.2258 32.4057 38.5712 30.7645L39.1215 28.1504Z" fill="#FF9500" stroke="#1C1C1C" stroke-width="0.5" stroke-miterlimit="10" stroke-linejoin="round"/>
<path d="M22.3702 51.3126C22.638 47.7536 25.4917 44.9764 29.0509 44.7121C39.3747 43.9457 49.6978 43.9459 60.0175 44.7129C63.571 44.977 66.4215 47.746 66.719 51.2969C67.3367 58.6694 67.3366 66.0399 66.7188 73.4125C66.4213 76.9619 63.5728 79.7305 60.0208 79.9959C49.7448 80.7637 39.4716 80.7676 29.1957 80.0078C25.5703 79.7398 22.6949 76.8666 22.4356 73.2405C21.8966 65.7033 21.8384 58.379 22.3702 51.3126Z" fill="#4169E1" stroke="#1C1C1C" stroke-width="0.5" stroke-miterlimit="10" stroke-linejoin="round"/>
<path d="M22.3702 47.6124C22.638 44.0534 25.4917 41.2761 29.0509 41.0119C39.3747 40.2454 49.6978 40.2456 60.0175 41.0126C63.571 41.2767 66.4215 44.0458 66.719 47.5966C67.3367 54.9692 67.3366 62.3396 66.7188 69.7122C66.4213 73.2617 63.5728 76.0302 60.0208 76.2956C49.7448 77.0634 39.4716 77.0674 29.1957 76.3076C25.5703 76.0395 22.6949 73.1664 22.4356 69.5403C21.8966 62.003 21.8384 54.6787 22.3702 47.6124Z" fill="#CCD9FD" stroke="#1C1C1C" stroke-width="0.5" stroke-miterlimit="10" stroke-linejoin="round"/>
<path d="M22.3072 50.8178C37.4632 50.5802 51.6949 50.5802 66.8428 50.8178C67.0739 53.2307 67.0739 53.2307 67.1822 56.2904C52.0262 56.5293 37.156 56.5293 22 56.2904C22 54.2023 22.0767 53.2307 22.3072 50.8178Z" fill="#4169E1" stroke="#1C1C1C" stroke-width="0.5" stroke-miterlimit="10" stroke-linejoin="round"/>
<rect x="26.3721" y="66.6724" width="13.1174" height="2.91498" fill="#4169E1" stroke="#1C1C1C" stroke-width="0.5" stroke-miterlimit="10" stroke-linejoin="round"/>
<rect x="43.8667" y="66.6724" width="10.2024" height="2.91498" fill="#4169E1" stroke="#1C1C1C" stroke-width="0.5" stroke-miterlimit="10" stroke-linejoin="round"/>
</svg>
