<svg width="62" height="62" viewBox="0 0 62 62" fill="none" xmlns="http://www.w3.org/2000/svg">
<g clip-path="url(#clip0_18011_5071)">
<path d="M40.2257 40.5927C40.2257 51.3109 31.412 60 20.5393 60C9.66661 60 0.0724569 50.5921 0.0724569 39.8739C-0.983208 21.7926 9.66661 21.1854 20.5393 21.1854C31.412 21.1854 40.8228 22.1242 40.2257 40.5927Z" fill="#FF9500" stroke="#1C1C1C" stroke-width="0.5" stroke-miterlimit="10"/>
<path d="M20.0753 54.8124C31.1626 54.8124 40.1507 45.6758 40.1507 34.4052C40.1507 23.1347 31.1626 13.998 20.0753 13.998C8.98803 13.998 0 23.1347 0 34.4052C0 45.6758 8.98803 54.8124 20.0753 54.8124Z" fill="#FFE2C8" stroke="#1C1C1C" stroke-width="0.5" stroke-miterlimit="10"/>
<path d="M20.1261 50.2142C28.8596 50.2142 35.9396 43.1343 35.9396 34.4008C35.9396 25.6673 28.8596 18.5875 20.1261 18.5875C11.3925 18.5875 4.3125 25.6673 4.3125 34.4008C4.3125 43.1343 11.3925 50.2142 20.1261 50.2142Z" fill="#FFE2C8" stroke="#1C1C1C" stroke-width="0.5" stroke-miterlimit="10" stroke-linecap="round" stroke-dasharray="20 4"/>
<path d="M27.5324 29.7021C27.7209 31.5343 26.967 32.6485 25.8126 33.2674C27.7444 33.7626 28.9459 34.9511 28.7103 37.6498C28.4041 40.9923 26.0482 41.9084 22.6558 42.1065V44.6223C22.6558 45.1745 22.2081 45.6223 21.6558 45.6223H21.6298C21.0775 45.6223 20.6298 45.1745 20.6298 44.6223V42.156C20.1115 42.156 19.5696 42.156 19.0278 42.1312V44.6223C19.0278 45.1745 18.5801 45.6223 18.0278 45.6223H18.0018C17.4495 45.6223 17.0018 45.1745 17.0018 44.6223V42.1065C16.5306 42.1065 16.0594 42.0817 15.5647 42.0817H14.1081C13.4896 42.0817 13.0195 41.526 13.1219 40.9161L13.2077 40.4049C13.2896 39.917 13.7162 39.564 14.2109 39.5667C14.824 39.5701 14.8108 39.5563 14.8108 39.5563C15.3762 39.5563 15.5176 39.1354 15.5647 38.8383V33.2922H15.7767C15.6825 33.2922 15.6118 33.2922 15.5647 33.2922V29.306C15.494 28.8851 15.2113 28.3651 14.3868 28.3651C14.3868 28.3651 14.3976 28.3538 13.9436 28.3541C13.3847 28.3546 12.9261 27.9071 12.9261 27.3483V27.112C12.9261 26.5598 13.3739 26.112 13.9261 26.112H15.7296C16.1301 26.112 16.5542 26.112 17.0018 26.112V23.621C17.0018 23.0687 17.4495 22.621 18.0018 22.621H18.0278C18.5801 22.621 19.0278 23.0687 19.0278 23.621V26.0378C19.5696 26.0378 20.0879 26.013 20.6298 26.013V23.621C20.6298 23.0687 21.0775 22.621 21.6298 22.621H21.6558C22.2081 22.621 22.6558 23.0687 22.6558 23.621V26.112C25.2472 26.3349 27.3204 27.1767 27.5324 29.7021ZM24.7054 37.2289C24.7054 34.5054 20.4178 34.9015 19.0514 34.9015V39.5563C20.4178 39.5563 24.7054 39.8781 24.7054 37.2289ZM23.7866 30.6677C23.7866 28.1671 20.2057 28.5384 19.0514 28.5384V32.7723C20.2057 32.7723 23.7866 33.0446 23.7866 30.6677Z" fill="#1C1C1C"/>
<path d="M43.9797 33.9665C43.4373 33.9665 42.9918 33.5339 42.9928 32.9915C43.0021 28.2523 44.0584 24.4632 48.1424 22.1161C49.6145 21.1217 51.0096 20.0974 51.8343 18.5726C53.0339 16.4283 52.2983 13.3055 50.0277 12.2504C47.1199 10.736 43.2981 12.3837 42.6802 15.6465C42.5763 16.195 42.1378 16.657 41.5796 16.657H35.6229C35.0711 16.657 34.6198 16.1959 34.6584 15.6455C35.8233 -0.96063 66.3384 2.58321 60.1853 20.0617C58.6348 24.0542 55.1458 25.1134 52.3711 27.6742C50.9505 29.1163 50.4843 30.9043 50.4136 32.9456C50.3942 33.5056 49.9477 33.9665 49.3874 33.9665H43.9797Z" fill="#4169E1" stroke="#1C1C1C" stroke-width="0.5" stroke-miterlimit="10" stroke-linejoin="round"/>
<path d="M50.568 44.0349C50.5094 44.4757 50.1536 44.8148 49.7109 44.8568C48.8188 44.9415 47.8503 44.9951 46.815 44.999C45.6938 45.0029 44.6495 44.9474 43.6941 44.8568C43.2507 44.8148 42.8944 44.4748 42.836 44.0332C42.7119 43.0943 42.628 42.025 42.6338 40.8477C42.6404 39.4434 42.7729 38.1963 42.9464 37.1462C43.9708 36.9691 45.1876 36.8327 46.5581 36.8236C48.0506 36.8136 49.3663 36.9574 50.4562 37.1462C50.6313 38.2029 50.7655 39.4634 50.7704 40.8843C50.7743 42.0482 50.6913 43.1061 50.568 44.0349Z" fill="#4169E1" stroke="#1C1C1C" stroke-width="0.5" stroke-miterlimit="10" stroke-linejoin="round"/>
<path d="M43.9798 31.0677C43.4374 31.0677 42.9919 30.6351 42.9929 30.0927C43.0022 25.3535 44.0585 21.5644 48.1426 19.2173C49.6146 18.2229 51.0097 17.1986 51.8345 15.6738C53.034 13.5295 52.2984 10.4067 50.0278 9.3516C47.12 7.83719 43.2983 9.48493 42.6803 12.7477C42.5764 13.2962 42.1379 13.7582 41.5797 13.7582H35.623C35.0713 13.7582 34.62 13.2971 34.6586 12.7467C35.8234 -3.85943 66.3385 -0.315592 60.1854 17.1629C58.6349 21.1554 55.1459 22.2146 52.3712 24.7754C50.9506 26.2175 50.4844 28.0055 50.4137 30.0468C50.3943 30.6068 49.9478 31.0677 49.3875 31.0677H43.9798Z" fill="#CCD9FD" stroke="#1C1C1C" stroke-width="0.5" stroke-miterlimit="10" stroke-linejoin="round"/>
<path d="M50.568 41.1361C50.5094 41.5769 50.1536 41.916 49.7109 41.958C48.8188 42.0427 47.8503 42.0963 46.815 42.1002C45.6938 42.1041 44.6495 42.0486 43.6941 41.958C43.2507 41.9159 42.8944 41.576 42.836 41.1344C42.7119 40.1955 42.628 39.1262 42.6338 37.9489C42.639 36.846 42.7218 35.84 42.8412 34.9503C42.8978 34.5285 43.2271 34.1965 43.6486 34.1375C44.5126 34.0165 45.4885 33.9319 46.5581 33.9248C47.7433 33.9169 48.817 34.0059 49.7547 34.1375C50.1759 34.1965 50.5049 34.5281 50.5616 34.9496C50.6826 35.8481 50.7666 36.8671 50.7704 37.9855C50.7743 39.1494 50.6913 40.2073 50.568 41.1361Z" fill="#CCD9FD" stroke="#1C1C1C" stroke-width="0.5" stroke-miterlimit="10" stroke-linejoin="round"/>
</g>
<defs>
<clipPath id="clip0_18011_5071">
<rect width="62" height="62" rx="5" fill="white"/>
</clipPath>
</defs>
</svg>
