<svg width="62" height="62" viewBox="0 0 62 62" fill="none" xmlns="http://www.w3.org/2000/svg">
<g clip-path="url(#clip0_18011_3147)">
<path d="M58.419 48.6112C40.1437 48.6951 21.8685 48.6951 3.59318 48.6112C2.9303 48.6112 1.99892 47.6798 1.53742 46.6729C0.832591 45.1374 0.983626 45.7331 1.01719 44.6087C1.04236 43.8704 1.70524 43.1152 2.40168 43.1152C21.4741 43.0313 40.5381 43.0313 59.6021 43.1152C60.2986 43.1152 60.9614 43.8704 60.9866 44.6087C61.0202 45.7331 61.1712 45.1374 60.4664 46.6729C60.0049 47.6798 59.0819 48.6112 58.4106 48.6112H58.419Z" fill="#CCD9FD" stroke="#1C1C1C" stroke-width="0.5" stroke-linejoin="round"/>
<path d="M15.5661 26.3922C22.0354 26.3922 27.2797 21.064 27.2797 14.4939C27.2797 7.92391 22.027 2.58733 15.5661 2.58733C9.10512 2.58733 3.86084 7.91552 3.86084 14.4856C3.86084 21.0556 9.09673 26.3838 15.5661 26.3838V26.3922Z" fill="#FFE2C8" stroke="#1C1C1C" stroke-width="0.5" stroke-miterlimit="10"/>
<path d="M15.59 23.707C20.6832 23.707 24.8199 19.5787 24.8199 14.4855C24.8199 9.39225 20.6832 5.26395 15.59 5.26395C10.4967 5.26395 6.36841 9.39225 6.36841 14.4855C6.36841 19.5787 10.4967 23.707 15.59 23.707Z" fill="#FF9500" stroke="#1C1C1C" stroke-width="0.5" stroke-miterlimit="10"/>
<path d="M19.9197 11.7502C20.0287 12.8158 19.584 13.4703 18.9128 13.8311C20.0371 14.1164 20.742 14.8128 20.6077 16.3903C20.4231 18.337 19.0554 18.874 17.0752 18.9915V20.4515C17.0752 20.7787 16.8067 21.0388 16.4794 21.0388C16.1522 21.0388 15.8921 20.7703 15.8921 20.4515V19.0166C15.59 19.0166 15.2711 19.0166 14.9523 18.9999V20.4431C14.9523 20.7703 14.6922 21.0304 14.3565 21.0304C14.0209 21.0304 13.7692 20.7619 13.7692 20.4431V18.9831C13.4923 18.9831 13.2238 18.9663 12.9301 18.9663H12.242C11.7973 18.9663 11.4533 18.5635 11.5288 18.1272V18.1104C11.5959 17.758 11.9064 17.5063 12.2588 17.5063C12.4938 17.5063 12.4938 17.5063 12.4938 17.5063C12.8294 17.5063 12.9049 17.2629 12.9385 17.0867V13.8563V11.532C12.8965 11.2887 12.7287 10.9866 12.2504 10.9866C12.2504 10.9866 12.2504 10.9866 12.0574 10.9866C11.6966 10.9866 11.403 10.6929 11.403 10.3321C11.403 9.9713 11.6882 9.67762 12.0574 9.67762H13.786V8.23439C13.786 7.90715 14.0461 7.64703 14.3733 7.64703C14.7006 7.64703 14.9691 7.91554 14.9691 8.23439V9.63567C15.2879 9.63567 15.59 9.61888 15.9088 9.61888V8.23439C15.9088 7.90715 16.169 7.64703 16.4962 7.64703C16.8234 7.64703 17.092 7.91554 17.092 8.23439V9.67762C18.6023 9.80348 19.819 10.2985 19.9365 11.7753L19.9197 11.7502ZM18.2667 16.1386C18.2667 14.5527 15.7662 14.7793 14.9691 14.7793V17.4979C15.7662 17.4979 18.2667 17.6825 18.2667 16.1386ZM17.7297 12.3123C17.7297 10.8523 15.6403 11.0705 14.9691 11.0705V13.5374C15.6403 13.5374 17.7297 13.6968 17.7297 12.3123Z" fill="white"/>
<path d="M38.1125 52.6471C38.1125 54.8035 37.156 56.7334 35.6372 58.0424C34.3954 59.1164 32.7676 59.7625 31.0055 59.7625C27.0786 59.7625 23.8984 56.574 23.8984 52.6471C23.8984 48.7202 26.8352 45.7834 30.5524 45.5568C30.7034 45.5484 30.8545 45.54 31.0055 45.54C34.9408 45.54 38.1209 48.7202 38.1209 52.6471H38.1125Z" fill="#CCD9FD" stroke="#1C1C1C" stroke-width="0.5" stroke-linejoin="round"/>
<path d="M31.0037 56.7252C33.2559 56.7252 35.0817 54.8995 35.0817 52.6473C35.0817 50.3951 33.2559 48.5693 31.0037 48.5693C28.7515 48.5693 26.9258 50.3951 26.9258 52.6473C26.9258 54.8995 28.7515 56.7252 31.0037 56.7252Z" fill="#4169E1" stroke="#1C1C1C" stroke-width="0.5" stroke-linejoin="round"/>
<path d="M25.4661 31.4772C17.5787 31.4437 13.6266 31.4437 5.73921 31.4772C4.94208 31.4772 4.31277 30.8563 4.32955 30.076C4.34633 29.4886 4.35472 29.1949 4.37151 28.6076C4.39668 27.8356 5.05956 27.1895 5.8483 27.1811C13.6518 27.072 17.5535 27.072 25.357 27.1811C26.1458 27.1895 26.8086 27.8272 26.8338 28.6076C26.8506 29.1949 26.859 29.4886 26.8758 30.076C26.8926 30.8479 26.2632 31.4772 25.4661 31.4772Z" fill="#FF9500" stroke="#1C1C1C" stroke-width="0.5" stroke-linecap="round" stroke-linejoin="round"/>
<path d="M25.4669 35.9075C17.5711 35.9411 13.6274 35.9411 5.73165 35.9075C4.93452 35.9075 4.28003 35.2698 4.28003 34.4979C4.28003 33.9105 4.28003 33.6168 4.28003 33.0295C4.28003 32.2575 4.93452 31.6198 5.73165 31.6198C13.6274 31.5862 17.5711 31.5862 25.4669 31.6198C26.2641 31.6198 26.9185 32.2575 26.9185 33.0295C26.9185 33.6168 26.9185 33.9105 26.9185 34.4979C26.9185 35.2698 26.2641 35.9075 25.4669 35.9075Z" fill="#FF9500" stroke="#1C1C1C" stroke-width="0.5" stroke-linecap="round" stroke-linejoin="round"/>
<path d="M25.357 40.3463C17.5535 40.4554 13.6518 40.4554 5.8483 40.3463C5.05956 40.338 4.39668 39.7003 4.37151 38.9199C4.35472 38.3325 4.34633 38.0389 4.32955 37.4515C4.31277 36.6795 4.94208 36.0502 5.73921 36.0502C13.6266 36.0838 17.5787 36.0838 25.4661 36.0502C26.2632 36.0502 26.8926 36.6712 26.8758 37.4515C26.859 38.0389 26.8506 38.3325 26.8338 38.9199C26.8086 39.6919 26.1458 40.338 25.357 40.3463Z" fill="#FF9500" stroke="#1C1C1C" stroke-width="0.5" stroke-linecap="round" stroke-linejoin="round"/>
<path d="M56.287 35.9663C48.3828 35.9663 44.4307 35.9663 36.5265 35.9663C35.7294 35.9663 35.0833 35.3454 35.1001 34.5819C35.1084 34.0029 35.1168 33.7092 35.142 33.1302C35.1756 32.3667 35.8468 31.7374 36.6356 31.729C44.4475 31.6618 48.3576 31.6618 56.1695 31.729C56.9582 31.729 57.6295 32.3667 57.663 33.1302C57.6882 33.7092 57.6966 34.0029 57.705 34.5819C57.7218 35.3454 57.0757 35.9663 56.2786 35.9663H56.287Z" fill="#CCD9FD" stroke="#1C1C1C" stroke-width="0.5" stroke-linejoin="round"/>
<path d="M56.1695 40.338C48.3576 40.4051 44.4475 40.4051 36.6356 40.338C35.8468 40.338 35.1756 39.7003 35.142 38.9367C35.1168 38.3578 35.1084 38.0641 35.1001 37.4851C35.0833 36.7215 35.7294 36.1006 36.5265 36.1006C44.4307 36.1006 48.3828 36.1006 56.287 36.1006C57.0841 36.1006 57.7302 36.7215 57.7134 37.4851C57.705 38.0641 57.6966 38.3578 57.6714 38.9367C57.6379 39.7003 56.9666 40.3296 56.1779 40.338H56.1695Z" fill="#CCD9FD" stroke="#1C1C1C" stroke-width="0.5" stroke-linejoin="round"/>
<path d="M59.8353 45.5401C40.6118 45.5736 21.3968 45.5736 2.17333 45.5401C1.47689 45.5401 0.763665 45.003 0.688147 44.3569C0.562284 43.3584 0.562284 42.855 0.688147 41.8565C0.772056 41.202 1.47689 40.6734 2.17333 40.6734C21.3968 40.6398 40.6118 40.6398 59.8353 40.6734C60.5317 40.6734 61.2449 41.2104 61.3204 41.8565C61.4463 42.855 61.4463 43.3584 61.3204 44.3569C61.2365 45.0114 60.5317 45.5401 59.8353 45.5401Z" fill="#4169E1" stroke="#1C1C1C" stroke-width="0.5" stroke-linejoin="round"/>
</g>
<defs>
<clipPath id="clip0_18011_3147">
<rect width="62" height="62" rx="5" fill="white"/>
</clipPath>
</defs>
</svg>
