<svg width="62" height="62" viewBox="0 0 62 62" fill="none" xmlns="http://www.w3.org/2000/svg">
<g clip-path="url(#clip0_18011_6429)">
<path d="M47.3113 17.2529C47.3113 23.8005 41.9263 29.1097 35.284 29.1097C28.6417 29.1097 22.7805 23.3623 22.7805 16.8147C22.1328 5.77081 28.6417 5.39612 35.284 5.39612C41.9263 5.39612 47.6733 5.96768 47.3113 17.2529Z" fill="url(#paint0_linear_18011_6429)" stroke="#1C1C1C" stroke-width="0.5" stroke-miterlimit="10"/>
<path d="M34.9979 25.9329C41.7736 25.9329 47.2602 20.3506 47.2602 13.4664C47.2602 6.58223 41.7673 0.999939 34.9979 0.999939C28.2286 0.999939 22.7357 6.58223 22.7357 13.4664C22.7357 20.3506 28.2286 25.9329 34.9979 25.9329Z" fill="url(#paint1_linear_18011_6429)" stroke="#1C1C1C" stroke-width="0.5" stroke-miterlimit="10"/>
<path d="M41.0257 5.89566C36.3774 10.3539 32.1354 15.3773 26.217 17.4095C27.7284 20.7754 31.1003 23.1252 35.0311 23.1252C40.3653 23.1252 44.6898 18.8003 44.6898 13.4657C44.6898 10.3983 43.2546 7.66751 41.0257 5.90201V5.89566Z" fill="#F93DF5"/>
<path d="M35.0303 23.1241C40.3645 23.1241 44.689 18.7993 44.689 13.4647C44.689 8.13005 40.3645 3.80521 35.0303 3.80521C29.6962 3.80521 25.3717 8.13005 25.3717 13.4647C25.3717 18.7993 29.6962 23.1241 35.0303 23.1241Z" fill="url(#paint2_linear_18011_6429)" stroke="#1C1C1C" stroke-width="0.5" stroke-miterlimit="10"/>
<path d="M39.4341 8.68014C38.272 8.08317 36.8559 8.53408 36.2527 9.68991L35.9923 10.2043L38.7038 14.6816C38.761 14.7768 38.7991 14.8721 38.8499 14.9674L40.4565 11.8619C41.0534 10.6997 40.6025 9.28346 39.4468 8.68014H39.4341Z" fill="white"/>
<path d="M37.26 15.5582C36.4917 14.3008 34.8469 11.5636 34.0659 10.2808C32.8403 7.3785 28.8079 8.40732 29.3858 11.4684C29.589 12.1416 29.6271 12.059 30.0589 12.7893C31.094 14.4723 32.3259 16.5934 33.3102 18.1303C35.0629 20.5817 38.7079 18.2255 37.3172 15.6345L37.2791 15.5646H37.2537L37.26 15.5582Z" fill="white"/>
<path d="M35.5239 45.2207V28.0519" stroke="#1C1C1C" stroke-width="0.5" stroke-linecap="round" stroke-linejoin="round"/>
<path d="M35.173 44.0113L35.1927 43.8146C35.1927 40.2831 33.6974 28.1048 21.9225 28.6458C21.5388 28.6655 21.9225 31.2035 21.9225 31.2035C21.9225 31.2035 21.4306 38.7682 35.1828 44.0015L35.173 44.0113Z" fill="#2AA5A5" stroke="#1C1C1C" stroke-width="0.5" stroke-linejoin="round"/>
<path d="M35.5436 42.0362L35.5239 41.8394C35.5239 38.2686 36.8126 26.2182 48.9614 27.0051L48.7941 29.2382C48.7941 29.2382 49.286 36.8029 35.5338 42.0362H35.5436Z" fill="#2AA5A5" stroke="#1C1C1C" stroke-width="0.5" stroke-linejoin="round"/>
<path d="M35.1661 41.4517L35.1857 41.2549C35.1857 37.6054 34.8611 27.3748 21.9155 28.6537C21.9155 28.6537 21.4237 36.2184 35.1759 41.4517H35.1661Z" fill="#B9E5DE" stroke="#1C1C1C" stroke-width="0.5" stroke-linejoin="round"/>
<path d="M35.5436 39.4843L35.5239 39.2875C35.5239 35.638 35.8485 25.4074 48.7941 26.6862C48.7941 26.6862 49.286 34.251 35.5338 39.4843H35.5436Z" fill="#B9E5DE" stroke="#1C1C1C" stroke-width="0.5" stroke-linejoin="round"/>
<path d="M45.7568 44.9995L34.8633 51.9592L39.005 58.36L49.2676 51.7032C51.252 50.416 51.7316 47.7178 50.3125 45.8256C49.2439 44.4008 47.2577 44.0406 45.7568 44.9995Z" fill="white" stroke="#1C1C1C" stroke-width="0.5" stroke-linecap="round" stroke-linejoin="round"/>
<path d="M42.0126 57.8555C42.0126 57.8555 37.0803 61.2441 34.4823 61.3721C31.8843 61.5002 19.4134 57.7275 18.1182 57.8555C16.823 57.9835 14.4811 57.8555 14.4811 57.8555V44.9862H17.207C17.207 44.9862 19.4134 43.2994 21.8834 43.2994H24.6119C27.0849 43.2994 29.4671 44.2308 31.2842 45.9081L38.2475 52.3358L49.5427 45.4331C50.8237 44.6503 52.49 44.9696 53.3908 46.1707C54.3761 47.4844 54.0808 49.3526 52.7384 50.2984L42.0126 57.8555Z" fill="white" stroke="#1C1C1C" stroke-width="0.5" stroke-linecap="round" stroke-linejoin="round"/>
<path d="M25.2413 48.2622L23.7197 51.1297L27.9291 56.0876L37.9606 53.2348L45.8531 47.7261C45.1721 46.752 44.0585 46.1718 42.87 46.1718H42.7765C42.3889 46.1718 42.0397 45.9374 41.8928 45.5787L41.5576 44.7598C40.9525 43.2815 39.5136 42.3157 37.9161 42.3157H33.5491C31.7517 42.3157 30.1828 43.5336 29.7371 45.2749L29.6969 45.432C29.5855 45.8673 29.1867 46.1718 28.7374 46.1718C27.2812 46.1718 25.9238 46.976 25.2413 48.2622Z" fill="#FF9500" stroke="#1C1C1C" stroke-width="0.5" stroke-linecap="round" stroke-linejoin="round"/>
<path d="M7.06207 43.5276C6.97924 49.9962 6.97924 53.2342 7.06207 59.7027C10.0817 59.8534 11.5953 59.8534 14.615 59.7027C14.6978 53.2342 14.6903 49.9962 14.615 43.5276C11.5953 43.377 10.0817 43.377 7.06207 43.5276Z" fill="#FF9500" stroke="#1C1C1C" stroke-width="0.5" stroke-linecap="round" stroke-linejoin="round"/>
<path d="M26.17 56.815L37.7365 52.7863C37.7365 52.7863 39.2953 51.4835 37.7365 49.9248C36.1778 48.366 33.1882 48.366 32.021 48.8856C30.8538 49.4052 28.5119 49.7968 27.6007 49.9248C26.6896 50.0528 23.572 47.7184 21.2301 47.7184C18.8881 47.7184 17.7209 48.238 17.7209 48.238" fill="white"/>
<path d="M26.17 56.815L37.7365 52.7863C37.7365 52.7863 39.2953 51.4835 37.7365 49.9248C36.1778 48.366 33.1882 48.366 32.021 48.8856C30.8538 49.4052 28.5119 49.7968 27.6007 49.9248C26.6896 50.0528 23.572 47.7184 21.2301 47.7184C18.8881 47.7184 17.7209 48.238 17.7209 48.238" stroke="#1C1C1C" stroke-width="0.5" stroke-linecap="round" stroke-linejoin="round"/>
<path d="M21.2366 56.2073C19.6104 56.2073 18.2922 54.6665 18.2922 52.7659C18.2922 50.8653 19.6104 49.3246 21.2366 49.3246C22.8627 49.3246 24.1809 50.8653 24.1809 52.7659C24.1809 54.6665 22.8627 56.2073 21.2366 56.2073Z" fill="white" stroke="white" stroke-width="0.5" stroke-linecap="round" stroke-linejoin="round"/>
</g>
<defs>
<linearGradient id="paint0_linear_18011_6429" x1="48.1208" y1="24.5517" x2="22.782" y2="17.0961" gradientUnits="userSpaceOnUse">
<stop stop-color="#DC0BFE"/>
<stop offset="1" stop-color="#1DBCF7"/>
</linearGradient>
<linearGradient id="paint1_linear_18011_6429" x1="48.0513" y1="21.1405" x2="22.578" y2="14.0314" gradientUnits="userSpaceOnUse">
<stop stop-color="#F5B8FF"/>
<stop offset="1" stop-color="#9CE2FC"/>
</linearGradient>
<linearGradient id="paint2_linear_18011_6429" x1="45.3121" y1="19.4108" x2="25.2958" y2="13.732" gradientUnits="userSpaceOnUse">
<stop stop-color="#DC0BFE"/>
<stop offset="1" stop-color="#1DBCF7"/>
</linearGradient>
<clipPath id="clip0_18011_6429">
<rect width="62" height="62" rx="5" fill="white"/>
</clipPath>
</defs>
</svg>
