<svg width="62" height="62" viewBox="0 0 62 62" fill="none" xmlns="http://www.w3.org/2000/svg">
<g clip-path="url(#clip0_18011_6978)">
<path d="M36.8474 45.8956H18.2547V60.4068H36.8474V45.8956Z" fill="#4169E1" stroke="#1C1C1C" stroke-width="0.5" stroke-linejoin="round"/>
<path d="M18.2547 60.4152L5.10405 55.5196V41.0084L18.2547 45.9039V60.4152Z" fill="#4169E1" stroke="#1C1C1C" stroke-width="0.5" stroke-linejoin="round"/>
<path d="M36.8474 60.4152L50.0066 55.5196V41.0084L36.8474 45.9039V60.4152Z" fill="#4169E1" stroke="#1C1C1C" stroke-width="0.5" stroke-linejoin="round"/>
<path d="M38.2143 26.6224H17.8387V36.6474H38.2143V26.6224Z" fill="#4169E1" stroke="#1C1C1C" stroke-width="0.5" stroke-linejoin="round"/>
<path d="M18.7556 27.558V38.2013L6.33507 44.1579V32.3701L18.7556 27.558Z" fill="#4169E1" stroke="#1C1C1C" stroke-width="0.5" stroke-linejoin="round"/>
<path d="M36.4229 27.558V38.2013L48.8435 44.1579V32.3701L36.4229 27.558Z" fill="#4169E1" stroke="#1C1C1C" stroke-width="0.5" stroke-linejoin="round"/>
<path d="M36.8474 42.9131H18.2547V57.4244H36.8474V42.9131Z" fill="#CCD9FD" stroke="#1C1C1C" stroke-width="0.5" stroke-linejoin="round"/>
<path d="M18.2547 57.4244L5.10405 52.5288V38.0175L18.2547 42.9131V57.4244Z" fill="#CCD9FD" stroke="#1C1C1C" stroke-width="0.5" stroke-linejoin="round"/>
<path d="M36.8474 57.4244L50.0066 52.5288V38.0175L36.8474 42.9131V57.4244Z" fill="#CCD9FD" stroke="#1C1C1C" stroke-width="0.5" stroke-linejoin="round"/>
<path d="M22.4487 41.9023C20.7677 41.9023 19.4009 41.8605 18.2632 41.7853C17.0832 41.7018 10.3932 39.2623 9.42535 38.9114L18.7641 35.4277H36.4144L45.1334 38.6775C44.1741 39.0535 37.2464 41.7769 36.0494 41.7769H36.0239C35.2513 41.7435 34.3769 41.7268 33.3496 41.7268C31.6856 41.7268 29.8263 41.7686 28.018 41.8104C26.1503 41.8521 24.2231 41.8939 22.4402 41.8939L22.4487 41.9023Z" fill="#CCD9FD" stroke="#1C1C1C" stroke-width="0.5" stroke-linejoin="round"/>
<path d="M36.338 28.8279L47.2134 32.8964V36.1044L36.338 40.1729H18.7726L7.89719 36.1044V32.8964L18.7726 28.8279H36.338ZM36.8559 26.0961H18.2547L5.10405 31.0251V37.9925L18.2547 42.9215H36.8559L50.0066 37.9925V31.0251L36.8559 26.0961Z" fill="#CCD9FD" stroke="#1C1C1C" stroke-width="0.5" stroke-linejoin="round"/>
<path d="M20.1819 37.5998C19.4094 37.5998 18.7811 36.99 18.7811 36.2297V23.4728C18.7811 22.5706 18.0255 21.827 17.0916 21.827C16.1578 21.827 15.4022 22.5622 15.4022 23.4728V28.3768C15.4022 29.1286 14.7739 29.7468 14.0014 29.7468C13.2288 29.7468 12.6005 29.137 12.6005 28.3768V23.4728C12.6005 21.0585 14.6211 19.0952 17.1001 19.0952C19.5792 19.0952 21.5997 21.0585 21.5997 23.4728V36.2297C21.5997 36.9816 20.9715 37.5998 20.1989 37.5998H20.1819Z" fill="white" stroke="#1C1C1C" stroke-width="0.5" stroke-miterlimit="10"/>
<path d="M20.1819 37.5998C19.4094 37.5998 18.7811 36.99 18.7811 36.2297V23.4728C18.7811 22.5706 18.0255 21.827 17.0916 21.827C16.1578 21.827 15.4022 22.5622 15.4022 23.4728V28.3768C15.4022 29.1286 14.7739 29.7468 14.0014 29.7468C13.2288 29.7468 12.6005 29.137 12.6005 28.3768V23.4728C12.6005 21.0585 14.6211 19.0952 17.1001 19.0952C19.5792 19.0952 21.5997 21.0585 21.5997 23.4728V36.2297C21.5997 36.9816 20.9715 37.5998 20.1989 37.5998H20.1819Z" fill="white" stroke="#1C1C1C" stroke-width="0.5" stroke-miterlimit="10"/>
<path d="M20.1819 37.5998C19.4094 37.5998 18.7811 36.99 18.7811 36.2297V23.4728C18.7811 22.5706 18.0255 21.827 17.0916 21.827C16.1578 21.827 15.4022 22.5622 15.4022 23.4728V28.3768C15.4022 29.1286 14.7739 29.7468 14.0014 29.7468C13.2288 29.7468 12.6005 29.137 12.6005 28.3768V23.4728C12.6005 21.0585 14.6211 19.0952 17.1001 19.0952C19.5792 19.0952 21.5997 21.0585 21.5997 23.4728V36.2297C21.5997 36.9816 20.9715 37.5998 20.1989 37.5998H20.1819Z" fill="#FFE2C8" stroke="#1C1C1C" stroke-width="0.5" stroke-linejoin="round"/>
<path d="M19.9018 26.9398C19.6131 26.2381 18.7981 25.8955 18.0765 26.1796L13.7806 27.8003C13.8146 27.8922 13.8316 28.0008 13.8316 28.1094V30.7159L19.1207 28.7193C19.8423 28.4436 20.1904 27.6499 19.9103 26.9482L19.9018 26.9398Z" fill="#FFE2C8" stroke="#1C1C1C" stroke-width="0.5" stroke-linejoin="round"/>
<path d="M19.9612 31.6432C19.6725 30.9415 18.8575 30.599 18.1359 30.8747L13.8231 32.5371V35.4778L19.1716 33.4143C19.8933 33.1387 20.2414 32.345 19.9612 31.6432Z" fill="#FFE2C8" stroke="#1C1C1C" stroke-width="0.5" stroke-linejoin="round"/>
<path d="M15.3937 38.6775V25.9206C15.3937 23.5063 13.3731 21.543 10.8941 21.543C8.41507 21.543 6.3945 23.5063 6.3945 25.9206V30.5322L9.20462 29.4795V25.9206C9.20462 25.0184 9.96022 24.2749 10.8941 24.2749C11.828 24.2749 12.5836 25.01 12.5836 25.9206V37.8588L15.3682 38.9031C15.3852 38.8279 15.3937 38.7527 15.3937 38.6692V38.6775Z" fill="#FFE2C8" stroke="#1C1C1C" stroke-width="0.5" stroke-linejoin="round"/>
<path d="M28.3916 39.0117C30.9282 39.0117 32.9845 38.4955 32.9845 37.8588C32.9845 37.2221 30.9282 36.7059 28.3916 36.7059C25.8549 36.7059 23.7986 37.2221 23.7986 37.8588C23.7986 38.4955 25.8549 39.0117 28.3916 39.0117Z" fill="#CCD9FD" stroke="#1C1C1C" stroke-width="0.5" stroke-linejoin="round"/>
<path d="M28.9434 37.4996H27.9671C27.5681 37.4996 27.237 37.2322 27.237 36.8981V12.6959C27.237 11.6432 27.8397 10.6491 28.8585 10.0142L35.7692 6.56388L37.9681 5.73682L29.6735 12.228V36.8813C29.6735 37.2155 29.3509 37.4828 28.9434 37.4828V37.4996Z" fill="#CCD9FD" stroke="#1C1C1C" stroke-width="0.5" stroke-linejoin="round"/>
<path d="M46.2796 27.3158L55.9155 17.8338L41.2791 2.44531L30.6498 12.9048L46.2796 27.3158Z" fill="#FF9500" stroke="#1C1C1C" stroke-width="0.5" stroke-linejoin="round"/>
<path d="M40.8773 1.5916L29.6573 12.6324L31.6684 14.6113L42.8884 3.57055L40.8773 1.5916Z" fill="#FFE2C8" stroke="#1C1C1C" stroke-width="0.5" stroke-linejoin="round"/>
<path d="M37.3483 9.11194C55.3297 3.36423 51.6961 13.7819 51.8998 13.4311" stroke="#1C1C1C" stroke-width="0.5" stroke-miterlimit="10"/>
<path d="M44.8872 11.4261C45.6428 12.0443 45.7702 12.746 45.5579 13.406C46.4833 12.8797 47.3832 12.888 48.3001 13.9992C49.4293 15.3693 48.8689 16.5806 47.6464 17.9006L48.5803 18.8446C48.7925 19.0535 48.784 19.396 48.5718 19.5965C48.3596 19.797 48.0115 19.797 47.8077 19.5881L46.8908 18.6608C46.6956 18.853 46.4833 19.0535 46.2711 19.2373L47.1965 20.1729C47.4087 20.3818 47.4002 20.7243 47.188 20.9248C46.9757 21.1253 46.6276 21.1253 46.4239 20.9165L45.49 19.9724C45.3117 20.1479 45.1165 20.3066 44.9297 20.4904L44.4882 20.9165C44.1911 21.2005 43.7071 21.1587 43.4694 20.8162C43.2827 20.5489 43.3251 20.1813 43.5628 19.9557C43.7156 19.8137 43.7071 19.8137 43.7071 19.8137C43.9194 19.6048 43.8175 19.396 43.7241 19.2623L41.6526 17.1738L40.1669 15.67C39.9801 15.5363 39.683 15.4444 39.3604 15.7452C39.3604 15.7452 39.3604 15.7452 39.233 15.8622C38.9953 16.0877 38.6133 16.0877 38.3756 15.8622C38.1378 15.6366 38.1463 15.2606 38.3841 15.0267L39.0293 14.4085L39.5132 13.9407L38.5878 13.005C38.3756 12.7962 38.3841 12.4536 38.5963 12.2531C38.8085 12.0526 39.1566 12.0526 39.3604 12.2615L40.2603 13.1721C40.464 12.9716 40.6593 12.7711 40.8631 12.5789L39.9716 11.685C39.7594 11.4762 39.7679 11.1337 39.9801 10.9332C40.1924 10.7327 40.5405 10.7327 40.7442 10.9415L41.6696 11.8772C42.7478 11.0083 43.8515 10.5656 44.8787 11.4428L44.8872 11.4261ZM46.6107 15.3024C45.5919 14.2748 44.0977 15.9958 43.5713 16.4971L45.3117 18.2515C45.8381 17.7502 47.5955 16.2966 46.6107 15.2941V15.3024ZM43.809 13.1721C42.8752 12.2281 41.6441 13.6817 41.2027 14.1078L42.7818 15.7034C43.2232 15.2774 44.7005 14.066 43.809 13.1721Z" fill="white"/>
</g>
<defs>
<clipPath id="clip0_18011_6978">
<rect width="62" height="62" rx="5" fill="white"/>
</clipPath>
</defs>
</svg>
