<svg width="102" height="102" viewBox="0 0 102 102" fill="none" xmlns="http://www.w3.org/2000/svg">
<rect x="0.5" y="0.5" width="101" height="101" rx="4.5" stroke="#9747FF" stroke-dasharray="10 5"/>
<path d="M25.1306 79.694C24.351 80.1487 23.3221 79.4332 23.3851 78.5328C23.5334 76.415 23.2337 74.9706 24.6844 71.5316C25.7164 69.0836 29.2105 63.6983 30.4205 61.4911C30.4772 61.3877 30.5494 61.2961 30.638 61.2182C31.9263 60.0855 33.5548 58.8298 35.5458 57.6368C37.8858 56.2355 40.0804 55.3095 41.8903 54.6877C44.9506 56.9423 48.0121 59.1969 51.0725 61.4503V80.9989C49.4886 79.5104 47.322 77.7669 44.5155 76.2035C42.5905 75.131 40.7751 74.3728 39.1968 73.8292C36.9798 74.4242 34.5111 75.2283 31.8825 76.3287C29.3468 77.3905 27.0953 78.5482 25.1306 79.694Z" fill="#FF9500" stroke="#1C1C1C" stroke-width="0.5" stroke-miterlimit="10" stroke-linejoin="round"/>
<path d="M25.1306 75.8279C24.351 76.2826 23.387 75.5845 23.6261 74.7142C24.506 71.5128 25.6668 68.0339 27.208 64.3804C28.2387 61.9356 29.3258 59.6842 30.4205 57.6275C30.4759 57.5233 30.5494 57.43 30.638 57.3521C31.9263 56.2194 33.5548 54.9637 35.5458 53.7707C37.8858 52.3694 40.0804 51.4435 41.8903 50.8217C44.9506 53.0762 48.0121 55.3308 51.0725 57.5843V77.1328C49.4886 75.6443 47.322 73.9008 44.5155 72.3374C42.5905 71.2649 40.7751 70.5067 39.1968 69.9632C36.9798 70.5581 34.5111 71.3622 31.8825 72.4626C29.3468 73.5244 27.0953 74.6821 25.1306 75.8279Z" fill="#FFE2C8" stroke="#1C1C1C" stroke-width="0.5" stroke-miterlimit="10" stroke-linejoin="round"/>
<path d="M26.924 72.0997C26.9243 72.1 26.9247 72.0999 26.9248 72.0995C27.6619 69.7994 28.5007 67.5328 29.4335 65.3198C30.1842 63.5407 31.0068 61.7708 31.8872 60.0404C32.2402 59.3466 32.7269 58.7277 33.3348 58.2416C34.4301 57.3656 35.5861 56.562 36.7858 55.843C37.3059 55.5316 37.8359 55.2351 38.3743 54.9542C40.2698 53.9653 42.5427 54.3043 44.264 55.5722L46.1143 56.935C47.7111 58.1111 48.6537 59.9763 48.6537 61.9595V70.1641C48.6537 70.9716 47.7413 71.4526 47.0543 71.0284C46.6052 70.7511 46.1501 70.4839 45.6896 70.2271C43.873 69.215 41.9525 68.3583 39.9815 67.6795C39.5262 67.5229 39.034 67.5057 38.5688 67.6303C35.9805 68.3248 33.4167 69.2016 30.9469 70.2349C29.587 70.8052 28.2438 71.4269 26.9241 72.0989C26.9238 72.099 26.9237 72.0995 26.924 72.0997Z" fill="#FF9500" stroke="#1C1C1C" stroke-width="0.5" stroke-miterlimit="10" stroke-linejoin="round"/>
<path d="M77.0348 79.7196C77.8124 80.1694 78.8598 79.4528 78.8442 78.5545C78.8176 77.0198 78.9948 75.7473 78.023 73.2159C76.6958 69.7581 73.3363 64.4191 71.7951 61.6201C71.6916 61.4321 71.5615 61.2611 71.4036 61.1157C69.9177 59.7466 67.8785 58.1493 65.2344 56.7533C63.4246 55.7982 61.7232 55.144 60.2546 54.6888C58.7747 55.3341 56.928 56.3037 55.0018 57.7643C53.3262 59.0336 52.0354 60.3376 51.0734 61.4514V81C52.4951 79.7329 54.3016 78.316 56.5186 76.9628C58.8732 75.5246 61.0868 74.5282 62.9492 73.8314C64.9156 74.3694 67.042 75.0605 69.278 75.9529C72.2047 77.1209 74.7906 78.4216 77.0348 79.7196Z" fill="#FF9500" stroke="#1C1C1C" stroke-width="0.5" stroke-miterlimit="10" stroke-linejoin="round"/>
<path d="M77.0348 75.8535C77.8124 76.3033 78.7693 75.6089 78.5337 74.742C77.8717 72.3061 77.0355 69.6756 75.9726 66.9067C74.647 63.4531 73.2037 60.3983 71.7935 57.7556C71.6924 57.5663 71.5615 57.395 71.4036 57.2496C69.9177 55.8806 67.8785 54.2832 65.2344 52.8872C63.4246 51.9321 61.7232 51.2779 60.2546 50.8227C58.7747 51.468 56.928 52.4376 55.0018 53.8982C53.3262 55.1675 52.0354 56.4715 51.0734 57.5853V77.1339C52.4951 75.8668 54.3016 74.4499 56.5186 73.0967C58.8732 71.6585 61.0868 70.6621 62.9492 69.9654C64.9156 70.5033 67.042 71.1944 69.278 72.0869C72.2047 73.2548 74.7906 74.5555 77.0348 75.8535Z" fill="#FFE2C8" stroke="#1C1C1C" stroke-width="0.5" stroke-miterlimit="10" stroke-linejoin="round"/>
<path d="M53.3192 58.6589C53.3192 58.6597 53.3201 58.66 53.3207 58.6595C54.2319 57.6815 55.228 56.7807 56.2912 55.9748C56.8344 55.5633 57.396 55.1756 57.9737 54.8131C59.3734 53.9347 61.1223 53.8377 62.6238 54.5277C63.0679 54.7317 63.5058 54.9477 63.9365 55.1752C65.6408 56.0749 67.2462 57.1593 68.7245 58.4085C69.2671 58.867 69.703 59.4368 70.0281 60.0684C71.3403 62.618 72.522 65.2539 73.5472 67.9243C73.8142 68.6189 74.0714 69.319 74.319 70.0235C74.6132 70.8607 73.7327 71.6198 72.9266 71.2489C71.9615 70.8049 70.986 70.3863 70.0025 69.9944C67.8616 69.1399 65.6457 68.3974 63.4164 67.7867C62.9267 67.6524 62.4065 67.6757 61.931 67.8538C59.5551 68.744 57.2531 69.8646 55.0887 71.1854C55.0282 71.2223 54.9678 71.2594 54.9075 71.2966C54.2234 71.7192 53.3192 71.2393 53.3192 70.4352V58.6589Z" fill="#FF9500" stroke="#1C1C1C" stroke-width="0.5" stroke-miterlimit="10" stroke-linejoin="round"/>
<path d="M65.3354 42.4705C65.3354 42.4706 65.3356 42.4706 65.3356 42.4705C66.1341 40.6086 66.5781 38.5578 66.5781 36.4029C66.5781 27.8957 59.68 21 51.1711 21C42.6622 21 35.7651 27.8957 35.7651 36.4029C35.7651 36.8033 35.7808 37.2003 35.811 37.5928C36.2066 44.7456 43.9025 56.2709 48.2214 62.2148C49.6624 64.1979 52.5384 64.2038 53.9819 62.2226C57.4213 57.5016 63.0009 49.251 65.3352 42.4705C65.3353 42.4703 65.3354 42.4704 65.3354 42.4705Z" fill="#CCD9FD" stroke="#1C1C1C" stroke-width="0.5" stroke-miterlimit="10" stroke-linejoin="round"/>
<path d="M51.1713 44.7379C56.2283 44.7379 60.3279 40.6392 60.3279 35.5832C60.3279 30.5271 56.2283 26.4284 51.1713 26.4284C46.1143 26.4284 42.0148 30.5271 42.0148 35.5832C42.0148 40.6392 46.1143 44.7379 51.1713 44.7379Z" fill="#4169E1" stroke="#1C1C1C" stroke-width="0.5" stroke-miterlimit="10" stroke-linejoin="round"/>
</svg>
