<svg width="102" height="102" viewBox="0 0 102 102" fill="none" xmlns="http://www.w3.org/2000/svg">
<rect x="0.5" y="0.5" width="101" height="101" rx="4.5" stroke="#8A38F5" stroke-dasharray="10 5"/>
<g clip-path="url(#clip0_18011_6046)">
<path d="M80.5375 53.7937V55.6467C80.5375 56.4385 80.3579 57.2139 80.0314 57.9078C79.6967 58.6098 79.2069 59.2383 78.5947 59.7444C77.7784 60.4137 76.7989 60.8137 75.803 60.9198H51.6738C51.4861 60.9443 51.2902 60.9525 51.1024 60.9525C49.9107 60.9525 48.7107 60.5443 47.7312 59.7444C47.119 59.2383 46.6374 58.6098 46.3027 57.9078C45.9762 57.2139 45.7966 56.4385 45.7966 55.6467L45.8715 28.2932L69.9258 28.3421V53.7937H80.5375Z" fill="#4169E1" stroke="#1C1C1C" stroke-width="0.5" stroke-linejoin="round"/>
<path d="M46.8519 20.0552C46.3004 20.0563 45.8538 20.5037 45.8538 21.0552V52.8381C45.8538 53.6299 46.0334 54.4053 46.3599 55.0992C46.6946 55.8012 47.1762 56.4297 47.7884 56.9358C48.7679 57.7357 49.9679 58.1439 51.1596 58.1439C51.3474 58.1439 51.5433 58.1439 51.731 58.1112C52.7269 58.0051 53.6983 57.6051 54.5227 56.9358C55.7471 55.9236 56.4654 54.4217 56.4654 52.8381V50.9851H75.5377V21.0019C75.5377 20.4489 75.0888 20.0009 74.5357 20.0019L46.8519 20.0552Z" fill="#F0F0F5" stroke="#1C1C1C" stroke-width="0.5" stroke-linejoin="round"/>
<path d="M60.8393 44.6535L67.7315 40.6786L67.7568 32.5256L60.8393 36.4858V44.6535Z" fill="#FF9500" stroke="#1C1C1C" stroke-width="0.5" stroke-linejoin="round"/>
<path d="M53.9441 40.6786L60.8363 44.6535V36.4858L53.9188 32.5256L53.9441 40.6786Z" fill="#FF9500" stroke="#1C1C1C" stroke-width="0.5" stroke-linejoin="round"/>
<path d="M53.9219 32.3538L60.8393 36.314L67.7568 32.3538L60.8393 28.4219L53.9219 32.3538Z" fill="#FFE2C8" stroke="#1C1C1C" stroke-width="0.5" stroke-linejoin="round"/>
<path d="M80.537 50.9921V52.8451C80.537 53.6369 80.3574 54.4123 80.0309 55.1062C79.6962 55.8082 79.2064 56.4367 78.5942 56.9428C77.7779 57.6122 76.7984 58.0121 75.8025 58.1182H51.6733C52.6692 58.0121 53.6406 57.6122 54.465 56.9428C55.6894 55.9306 56.4078 54.4287 56.4078 52.8451V50.9921H80.537Z" fill="#CCD9FD" stroke="#1C1C1C" stroke-width="0.5" stroke-linejoin="round"/>
<path d="M56.7408 74.8419V76.6948C56.7408 77.4866 56.5613 78.2621 56.2347 78.9559C55.9001 79.6579 55.4103 80.2864 54.7981 80.7925C53.9818 81.4619 53.0023 81.8619 52.0064 81.968H27.8772C27.6895 81.9925 27.4936 82.0006 27.3058 82.0006C26.114 82.0006 24.9141 81.5925 23.9346 80.7925C23.3224 80.2864 22.8408 79.6579 22.5061 78.9559C22.1796 78.2621 22 77.4866 22 76.6948L22.0749 49.3413L46.1292 49.3903V74.8419H56.7408Z" fill="#4169E1" stroke="#1C1C1C" stroke-width="0.5" stroke-linejoin="round"/>
<path d="M23.0553 41.1033C22.5037 41.1044 22.0572 41.5518 22.0572 42.1033V73.8862C22.0572 74.678 22.2368 75.4534 22.5633 76.1473C22.898 76.8493 23.3796 77.4778 23.9918 77.9839C24.9713 78.7838 26.1712 79.192 27.363 79.192C27.5507 79.192 27.7467 79.192 27.9344 79.1593C28.9303 79.0532 29.9016 78.6532 30.7261 77.9839C31.9505 76.9717 32.6688 75.4698 32.6688 73.8862V72.0332H51.741V42.05C51.741 41.497 51.2921 41.049 50.7391 41.05L23.0553 41.1033Z" fill="#F0F0F5" stroke="#1C1C1C" stroke-width="0.5" stroke-linejoin="round"/>
<path d="M37.0467 65.7022L43.9389 61.7274L43.9642 53.5743L37.0467 57.5345V65.7022Z" fill="#FF9500" stroke="#1C1C1C" stroke-width="0.5" stroke-linejoin="round"/>
<path d="M30.1516 61.7274L37.0438 65.7022V57.5345L30.1263 53.5743L30.1516 61.7274Z" fill="#FF9500" stroke="#1C1C1C" stroke-width="0.5" stroke-linejoin="round"/>
<path d="M30.1293 53.4025L37.0467 57.3627L43.9642 53.4025L37.0467 49.4706L30.1293 53.4025Z" fill="#FFE2C8" stroke="#1C1C1C" stroke-width="0.5" stroke-linejoin="round"/>
<path d="M56.7403 72.0403V73.8932C56.7403 74.685 56.5608 75.4605 56.2342 76.1543C55.8996 76.8563 55.4098 77.4849 54.7976 77.991C53.9813 78.6603 53.0018 79.0603 52.0059 79.1664H27.8767C28.8726 79.0603 29.8439 78.6603 30.6684 77.991C31.8928 76.9788 32.6111 75.4768 32.6111 73.8932V72.0403H56.7403Z" fill="#CCD9FD" stroke="#1C1C1C" stroke-width="0.5" stroke-linejoin="round"/>
<path d="M42.7737 27.2573L37.1418 31.7631L34.8127 29.9946L34.8167 28.3901L26.9836 28.3901L26.9836 38.308L24.72 38.308L24.72 24.5815L35.7083 24.5815L35.7278 24.52L37.1418 22.7514L42.7747 24.5815L42.7737 27.2573Z" fill="#FF9500"/>
<path d="M42.7737 27.2573L42.9299 27.4525C42.9891 27.4051 43.0237 27.3333 43.0237 27.2574L42.7737 27.2573ZM37.1418 31.7631L36.9907 31.9622C37.0819 32.0315 37.2086 32.0299 37.298 31.9583L37.1418 31.7631ZM34.8127 29.9946L34.5627 29.994C34.5626 30.0723 34.5991 30.1463 34.6616 30.1937L34.8127 29.9946ZM34.8167 28.3901L35.0666 28.3907C35.0668 28.3243 35.0405 28.2605 34.9936 28.2135C34.9467 28.1665 34.8831 28.1401 34.8167 28.1401L34.8167 28.3901ZM26.9836 28.3901L26.9836 28.1401C26.9173 28.1401 26.8537 28.1664 26.8069 28.2133C26.76 28.2602 26.7336 28.3238 26.7336 28.3901L26.9836 28.3901ZM26.9836 38.308L26.9836 38.558C27.0499 38.558 27.1135 38.5317 27.1604 38.4848C27.2073 38.4379 27.2336 38.3743 27.2336 38.308L26.9836 38.308ZM24.72 38.308L24.47 38.308C24.47 38.4461 24.5819 38.558 24.72 38.558L24.72 38.308ZM24.72 24.5815L24.72 24.3315C24.6537 24.3315 24.5901 24.3578 24.5432 24.4047C24.4963 24.4516 24.47 24.5152 24.47 24.5815L24.72 24.5815ZM35.7083 24.5815L35.7083 24.8315C35.8172 24.8315 35.9136 24.761 35.9465 24.6571L35.7083 24.5815ZM35.7278 24.52L35.5325 24.3638C35.5134 24.3878 35.4988 24.4151 35.4895 24.4443L35.7278 24.52ZM37.1418 22.7514L37.2191 22.5136C37.1201 22.4815 37.0116 22.514 36.9466 22.5953L37.1418 22.7514ZM42.7747 24.5815L43.0247 24.5816C43.0247 24.4732 42.9549 24.3772 42.8519 24.3437L42.7747 24.5815ZM42.7737 27.2573L42.6175 27.0621L36.9857 31.5679L37.1418 31.7631L37.298 31.9583L42.9299 27.4525L42.7737 27.2573ZM37.1418 31.7631L37.293 31.564L34.9639 29.7955L34.8127 29.9946L34.6616 30.1937L36.9907 31.9622L37.1418 31.7631ZM34.8127 29.9946L35.0627 29.9952L35.0666 28.3907L34.8167 28.3901L34.5667 28.3895L34.5627 29.994L34.8127 29.9946ZM34.8167 28.3901L34.8167 28.1401L26.9836 28.1401L26.9836 28.3901L26.9836 28.6401L34.8167 28.6401L34.8167 28.3901ZM26.9836 28.3901L26.7336 28.3901L26.7336 38.308L26.9836 38.308L27.2336 38.308L27.2336 28.3901L26.9836 28.3901ZM26.9836 38.308L26.9836 38.058L24.72 38.058L24.72 38.308L24.72 38.558L26.9836 38.558L26.9836 38.308ZM24.72 38.308L24.97 38.308L24.97 24.5815L24.72 24.5815L24.47 24.5815L24.47 38.308L24.72 38.308ZM24.72 24.5815L24.72 24.8315L35.7083 24.8315L35.7083 24.5815L35.7083 24.3315L24.72 24.3315L24.72 24.5815ZM35.7083 24.5815L35.9465 24.6571L35.9661 24.5956L35.7278 24.52L35.4895 24.4443L35.47 24.5058L35.7083 24.5815ZM35.7278 24.52L35.923 24.6761L37.3371 22.9075L37.1418 22.7514L36.9466 22.5953L35.5325 24.3638L35.7278 24.52ZM37.1418 22.7514L37.0646 22.9892L42.6974 24.8192L42.7747 24.5815L42.8519 24.3437L37.2191 22.5136L37.1418 22.7514ZM42.7747 24.5815L42.5247 24.5814L42.5237 27.2572L42.7737 27.2573L43.0237 27.2574L43.0247 24.5816L42.7747 24.5815Z" fill="#1C1C1C"/>
<path d="M37.1438 29.0117L35.7288 27.2432L37.7366 25.6377L26.9836 25.6377L26.9836 35.5566L24.72 35.5566L24.72 23.374L37.7366 23.374L35.7288 21.7686L37.1438 20L42.7747 24.5059L37.1438 29.0117Z" fill="#FFE2C8"/>
<path d="M37.1438 29.0117L36.9486 29.1679C36.99 29.2197 37.0503 29.2529 37.1162 29.2602C37.1821 29.2675 37.2482 29.2483 37.3 29.2069L37.1438 29.0117ZM35.7288 27.2432L35.5726 27.0479C35.5208 27.0893 35.4876 27.1496 35.4803 27.2155C35.473 27.2814 35.4921 27.3476 35.5336 27.3994L35.7288 27.2432ZM37.7366 25.6377L37.8927 25.8329C37.9756 25.7666 38.0076 25.6552 37.9725 25.555C37.9374 25.4548 37.8428 25.3877 37.7366 25.3877L37.7366 25.6377ZM26.9836 25.6377L26.9836 25.3877C26.8456 25.3877 26.7336 25.4996 26.7336 25.6377L26.9836 25.6377ZM26.9836 35.5566L26.9836 35.8066C27.1217 35.8066 27.2336 35.6947 27.2336 35.5566L26.9836 35.5566ZM24.72 35.5566L24.47 35.5566C24.47 35.6947 24.5819 35.8066 24.72 35.8066L24.72 35.5566ZM24.72 23.374L24.72 23.124C24.5819 23.124 24.47 23.236 24.47 23.374L24.72 23.374ZM37.7366 23.374L37.7366 23.624C37.8428 23.624 37.9374 23.5569 37.9725 23.4567C38.0076 23.3565 37.9756 23.2451 37.8927 23.1788L37.7366 23.374ZM35.7288 21.7686L35.5336 21.6124C35.4921 21.6641 35.473 21.7303 35.4803 21.7962C35.4876 21.8621 35.5208 21.9224 35.5726 21.9638L35.7288 21.7686ZM37.1438 20L37.3 19.8048C37.2482 19.7634 37.1821 19.7442 37.1162 19.7515C37.0503 19.7588 36.99 19.792 36.9486 19.8438L37.1438 20ZM42.7747 24.5059L42.9309 24.7011C42.9901 24.6536 43.0247 24.5818 43.0247 24.5059C43.0247 24.4299 42.9901 24.3581 42.9309 24.3107L42.7747 24.5059ZM37.1438 29.0117L37.339 28.8555L35.924 27.087L35.7288 27.2432L35.5336 27.3994L36.9486 29.1679L37.1438 29.0117ZM35.7288 27.2432L35.8849 27.4384L37.8927 25.8329L37.7366 25.6377L37.5804 25.4424L35.5726 27.0479L35.7288 27.2432ZM37.7366 25.6377L37.7366 25.3877L26.9836 25.3877L26.9836 25.6377L26.9836 25.8877L37.7366 25.8877L37.7366 25.6377ZM26.9836 25.6377L26.7336 25.6377L26.7336 35.5566L26.9836 35.5566L27.2336 35.5566L27.2336 25.6377L26.9836 25.6377ZM26.9836 35.5566L26.9836 35.3066L24.72 35.3066L24.72 35.5566L24.72 35.8066L26.9836 35.8066L26.9836 35.5566ZM24.72 35.5566L24.97 35.5566L24.97 23.374L24.72 23.374L24.47 23.374L24.47 35.5566L24.72 35.5566ZM24.72 23.374L24.72 23.624L37.7366 23.624L37.7366 23.374L37.7366 23.124L24.72 23.124L24.72 23.374ZM37.7366 23.374L37.8927 23.1788L35.8849 21.5733L35.7288 21.7686L35.5726 21.9638L37.5804 23.5693L37.7366 23.374ZM35.7288 21.7686L35.924 21.9247L37.339 20.1562L37.1438 20L36.9486 19.8438L35.5336 21.6124L35.7288 21.7686ZM37.1438 20L36.9876 20.1952L42.6185 24.7011L42.7747 24.5059L42.9309 24.3107L37.3 19.8048L37.1438 20ZM42.7747 24.5059L42.6185 24.3107L36.9876 28.8165L37.1438 29.0117L37.3 29.2069L42.9309 24.7011L42.7747 24.5059Z" fill="#1C1C1C"/>
<path d="M66.5732 77.7902L66.5732 79.4034L65.1591 81.172L59.4736 76.9659C59.2187 76.7774 59.0683 76.4783 59.0683 76.1613L59.0683 73.9943L64.1015 69.8683L65.9316 71.6993L65.9316 73.5294L72.4267 73.5294L72.4267 65.7511L74.6904 65.7511L74.6904 77.7902L66.5732 77.7902Z" fill="#FF9500"/>
<path d="M66.5732 77.7902L66.5732 77.5402C66.4351 77.5402 66.3232 77.6521 66.3232 77.7902L66.5732 77.7902ZM66.5732 79.4034L66.7684 79.5596C66.8039 79.5152 66.8232 79.4602 66.8232 79.4034L66.5732 79.4034ZM65.1591 81.172L65.0104 81.373C65.1185 81.4529 65.2704 81.4331 65.3544 81.3281L65.1591 81.172ZM59.4736 76.9659L59.3249 77.1669L59.3249 77.1669L59.4736 76.9659ZM59.0683 76.1613L58.8183 76.1613L58.8183 76.1613L59.0683 76.1613ZM59.0683 73.9943L58.9098 73.8009C58.8519 73.8484 58.8183 73.9194 58.8183 73.9943L59.0683 73.9943ZM64.1015 69.8683L64.2783 69.6916C64.1874 69.6006 64.0424 69.5934 63.943 69.6749L64.1015 69.8683ZM65.9316 71.6993L66.1816 71.6993C66.1816 71.6331 66.1553 71.5695 66.1084 71.5226L65.9316 71.6993ZM65.9316 73.5294L65.6816 73.5294C65.6816 73.5957 65.7079 73.6593 65.7548 73.7062C65.8017 73.7531 65.8653 73.7794 65.9316 73.7794L65.9316 73.5294ZM72.4267 73.5294L72.4267 73.7794C72.5648 73.7794 72.6767 73.6675 72.6767 73.5294L72.4267 73.5294ZM72.4267 65.7511L72.4267 65.5011C72.3604 65.5011 72.2968 65.5274 72.2499 65.5743C72.203 65.6212 72.1767 65.6848 72.1767 65.7511L72.4267 65.7511ZM74.6904 65.7511L74.9404 65.7511C74.9404 65.613 74.8284 65.5011 74.6904 65.5011L74.6904 65.7511ZM74.6904 77.7902L74.6904 78.0402C74.7567 78.0402 74.8203 78.0138 74.8671 77.9669C74.914 77.9201 74.9404 77.8565 74.9404 77.7902L74.6904 77.7902ZM66.5732 77.7902L66.3232 77.7902L66.3232 79.4034L66.5732 79.4034L66.8232 79.4034L66.8232 77.7902L66.5732 77.7902ZM66.5732 79.4034L66.3779 79.2473L64.9639 81.0159L65.1591 81.172L65.3544 81.3281L66.7684 79.5596L66.5732 79.4034ZM65.1591 81.172L65.3078 80.971L59.6223 76.765L59.4736 76.9659L59.3249 77.1669L65.0104 81.373L65.1591 81.172ZM59.4736 76.9659L59.6223 76.765C59.4313 76.6236 59.3183 76.3992 59.3183 76.1613L59.0683 76.1613L58.8183 76.1613C58.8183 76.5574 59.0062 76.9311 59.3249 77.1669L59.4736 76.9659ZM59.0683 76.1613L59.3183 76.1613L59.3183 73.9943L59.0683 73.9943L58.8183 73.9943L58.8183 76.1613L59.0683 76.1613ZM59.0683 73.9943L59.2268 74.1876L64.26 70.0616L64.1015 69.8683L63.943 69.6749L58.9098 73.8009L59.0683 73.9943ZM64.1015 69.8683L63.9247 70.045L65.7548 71.8761L65.9316 71.6993L66.1084 71.5226L64.2783 69.6916L64.1015 69.8683ZM65.9316 71.6993L65.6816 71.6993L65.6816 73.5294L65.9316 73.5294L66.1816 73.5294L66.1816 71.6993L65.9316 71.6993ZM65.9316 73.5294L65.9316 73.7794L72.4267 73.7794L72.4267 73.5294L72.4267 73.2794L65.9316 73.2794L65.9316 73.5294ZM72.4267 73.5294L72.6767 73.5294L72.6767 65.7511L72.4267 65.7511L72.1767 65.7511L72.1767 73.5294L72.4267 73.5294ZM72.4267 65.7511L72.4267 66.0011L74.6904 66.0011L74.6904 65.7511L74.6904 65.5011L72.4267 65.5011L72.4267 65.7511ZM74.6904 65.7511L74.4404 65.7511L74.4404 77.7902L74.6904 77.7902L74.9404 77.7902L74.9404 65.7511L74.6904 65.7511ZM74.6904 77.7902L74.6904 77.5402L66.5732 77.5402L66.5732 77.7902L66.5732 78.0402L74.6904 78.0402L74.6904 77.7902Z" fill="#1C1C1C"/>
<path d="M63.6503 75.0544L65.6572 76.6599L64.2421 78.4284L59.5869 74.7038C59.0866 74.3035 59.0868 73.5427 59.5869 73.1423L64.2421 69.4167L65.6572 71.1852L63.6503 72.7907L72.4267 72.7907L72.4267 63.0143L74.6904 63.0143L74.6904 75.0544L63.6503 75.0544Z" fill="#FFE2C8"/>
<path d="M63.6503 75.0544L63.6503 74.8044C63.5442 74.8044 63.4496 74.8714 63.4144 74.9716C63.3793 75.0718 63.4112 75.1833 63.4942 75.2496L63.6503 75.0544ZM65.6572 76.6599L65.8524 76.816C65.8938 76.7643 65.913 76.6982 65.9056 76.6323C65.8983 76.5663 65.8651 76.5061 65.8133 76.4646L65.6572 76.6599ZM64.2421 78.4284L64.0859 78.6236C64.1938 78.7099 64.3511 78.6924 64.4373 78.5846L64.2421 78.4284ZM59.5869 74.7038L59.4307 74.899L59.4307 74.899L59.5869 74.7038ZM59.5869 73.1423L59.4306 72.9471L59.4306 72.9471L59.5869 73.1423ZM64.2421 69.4167L64.4373 69.2605C64.3959 69.2087 64.3356 69.1755 64.2697 69.1682C64.2038 69.1609 64.1377 69.1801 64.0859 69.2215L64.2421 69.4167ZM65.6572 71.1852L65.8133 71.3805C65.8651 71.339 65.8983 71.2787 65.9056 71.2128C65.913 71.1469 65.8938 71.0808 65.8524 71.0291L65.6572 71.1852ZM63.6503 72.7907L63.4942 72.5955C63.4112 72.6618 63.3793 72.7733 63.4144 72.8735C63.4496 72.9736 63.5442 73.0407 63.6503 73.0407L63.6503 72.7907ZM72.4267 72.7907L72.4267 73.0407C72.5648 73.0407 72.6767 72.9288 72.6767 72.7907L72.4267 72.7907ZM72.4267 63.0143L72.4267 62.7643C72.3604 62.7643 72.2968 62.7907 72.2499 62.8376C72.203 62.8845 72.1767 62.948 72.1767 63.0143L72.4267 63.0143ZM74.6904 63.0143L74.9404 63.0143C74.9404 62.8763 74.8284 62.7643 74.6904 62.7643L74.6904 63.0143ZM74.6904 75.0544L74.6904 75.3044C74.8284 75.3044 74.9404 75.1925 74.9404 75.0544L74.6904 75.0544ZM63.6503 75.0544L63.4942 75.2496L65.501 76.8551L65.6572 76.6599L65.8133 76.4646L63.8065 74.8592L63.6503 75.0544ZM65.6572 76.6599L65.462 76.5037L64.0469 78.2722L64.2421 78.4284L64.4373 78.5846L65.8524 76.816L65.6572 76.6599ZM64.2421 78.4284L64.3983 78.2332L59.743 74.5086L59.5869 74.7038L59.4307 74.899L64.0859 78.6236L64.2421 78.4284ZM59.5869 74.7038L59.743 74.5086C59.368 74.2085 59.368 73.6378 59.7431 73.3374L59.5869 73.1423L59.4306 72.9471C58.8056 73.4475 58.8053 74.3986 59.4307 74.899L59.5869 74.7038ZM59.5869 73.1423L59.7431 73.3375L64.3983 69.6119L64.2421 69.4167L64.0859 69.2215L59.4306 72.9471L59.5869 73.1423ZM64.2421 69.4167L64.0469 69.5729L65.462 71.3414L65.6572 71.1852L65.8524 71.0291L64.4373 69.2605L64.2421 69.4167ZM65.6572 71.1852L65.501 70.99L63.4942 72.5955L63.6503 72.7907L63.8065 72.9859L65.8133 71.3805L65.6572 71.1852ZM63.6503 72.7907L63.6503 73.0407L72.4267 73.0407L72.4267 72.7907L72.4267 72.5407L63.6503 72.5407L63.6503 72.7907ZM72.4267 72.7907L72.6767 72.7907L72.6767 63.0143L72.4267 63.0143L72.1767 63.0143L72.1767 72.7907L72.4267 72.7907ZM72.4267 63.0143L72.4267 63.2643L74.6904 63.2643L74.6904 63.0143L74.6904 62.7643L72.4267 62.7643L72.4267 63.0143ZM74.6904 63.0143L74.4404 63.0143L74.4404 75.0544L74.6904 75.0544L74.9404 75.0544L74.9404 63.0143L74.6904 63.0143ZM74.6904 75.0544L74.6904 74.8044L63.6503 74.8044L63.6503 75.0544L63.6503 75.3044L74.6904 75.3044L74.6904 75.0544Z" fill="#1C1C1C"/>
</g>
<defs>
<clipPath id="clip0_18011_6046">
<rect width="62" height="62" fill="white" transform="translate(20 20)"/>
</clipPath>
</defs>
</svg>
