<svg width="62" height="62" viewBox="0 0 62 62" fill="none" xmlns="http://www.w3.org/2000/svg">
<g clip-path="url(#clip0_18011_8563)">
<path d="M41.8925 5.14256C32.8725 5.03256 28.3625 5.03256 19.3525 5.14256C12.8925 11.6726 9.6125 14.9526 3.0825 21.4126C2.9725 30.4326 2.9725 34.9426 3.0825 43.9526C9.6125 50.4026 12.8925 53.6926 19.3425 60.2126C28.3625 60.3226 32.8725 60.3226 41.8825 60.2126C48.3325 53.6826 51.6225 50.4026 58.1425 43.9526C58.2525 34.9326 58.2525 30.4226 58.1425 21.4126C51.6125 14.9626 48.3325 11.6726 41.8825 5.15256L41.8925 5.14256Z" fill="#A395CC" stroke="#1C1C1C" stroke-width="0.5" stroke-miterlimit="10"/>
<path d="M41.8925 1.0825C32.8725 0.9725 28.3625 0.9725 19.3525 1.0825C12.8925 7.6125 9.6125 10.8925 3.0825 17.3425C2.9725 26.3625 2.9725 30.8725 3.0825 39.8825C9.6125 46.3325 12.8925 49.6225 19.3425 56.1425C28.3625 56.2525 32.8725 56.2525 41.8825 56.1425C48.3325 49.6125 51.6225 46.3325 58.1425 39.8825C58.2525 30.8625 58.2525 26.3525 58.1425 17.3425C51.6125 10.8925 48.3325 7.6025 41.8825 1.0825H41.8925Z" fill="#F7F0FA" stroke="#1C1C1C" stroke-width="0.5" stroke-linejoin="round"/>
<path d="M40.1325 5.47249C32.5225 5.41249 28.7225 5.41249 21.1125 5.47249C15.6925 10.9425 12.9425 13.6925 7.47249 19.1125C7.41249 26.7225 7.41249 30.5225 7.47249 38.1325C12.9425 43.5525 15.6925 46.3025 21.1125 51.7725C28.7225 51.8325 32.5225 51.8325 40.1325 51.7725C45.5525 46.3025 48.3025 43.5525 53.7725 38.1325C53.8325 30.5225 53.8325 26.7225 53.7725 19.1125C48.3025 13.6925 45.5525 10.9425 40.1325 5.47249Z" fill="#A395CC" stroke="#1C1C1C" stroke-width="0.5" stroke-miterlimit="10"/>
<path d="M28.9082 15.1941C30.0508 11.8443 34.8917 12.1697 35.5752 15.6423C36.0401 18.0039 38.4877 19.4073 40.7607 18.616L41.7207 18.282C44.9787 17.1478 47.6429 21.0484 45.4014 23.6707L45.2354 23.865C43.6931 25.6691 44.2381 28.4404 46.3486 29.5261C49.3625 31.0763 48.1812 35.6372 44.7939 35.5291L44.2148 35.5105C41.7077 35.4302 39.8081 37.7532 40.3857 40.1941L40.5859 41.0378C41.4052 44.499 36.9935 46.6981 34.7227 43.9607C33.2164 42.1449 30.4299 42.1187 28.8545 43.866C26.5007 46.4768 22.1663 44.444 22.7559 41.0193L22.8379 40.5457C23.2219 38.3159 21.7385 36.1924 19.5127 35.7859L16.875 35.3044C13.5574 34.6988 13.2678 30.0548 16.4844 29.0417C18.9435 28.2674 19.8954 25.2923 18.3428 23.2341L18.1953 23.0378C16.0664 20.2161 19.1141 16.4195 22.3291 17.8884L23.0879 18.2351C25.3034 19.2473 27.9089 18.1255 28.6953 15.8201L28.9082 15.1941Z" fill="#F7F0FA" stroke="black" stroke-width="0.5"/>
<path d="M29.3813 20.2539C30.1382 18.1583 33.169 18.3725 33.6235 20.5537C33.9535 22.1365 35.5876 23.0802 37.1235 22.5752L38.1226 22.2471C40.0961 21.5984 41.6495 23.988 40.2554 25.5283L40.1421 25.6533C39.0698 26.838 39.4343 28.7208 40.8716 29.4189C42.7113 30.3127 42.0293 33.0834 39.9849 33.0215L39.3872 33.0039C37.7129 32.9533 36.4539 34.5168 36.8608 36.1416L36.9146 36.3555C37.4686 38.5662 34.6793 40.0298 33.1753 38.3174C32.1401 37.1388 30.317 37.1017 29.2339 38.2363L29.1284 38.3457C27.5865 39.9609 24.888 38.5855 25.2886 36.3887C25.5626 34.8847 24.5569 33.4463 23.0503 33.1865L21.2573 32.877C19.2377 32.5288 19.0694 29.6928 21.0337 29.1084C22.6916 28.6153 23.3232 26.6015 22.2437 25.25L22.1411 25.1211C20.8092 23.4537 22.5948 21.1147 24.5542 21.96L25.4673 22.3545C26.9473 22.9932 28.66 22.2515 29.2075 20.7354L29.3813 20.2539Z" fill="#F7F0FA" stroke="black" stroke-width="0.5"/>
</g>
<defs>
<clipPath id="clip0_18011_8563">
<rect width="62" height="62" rx="5" fill="white"/>
</clipPath>
</defs>
</svg>
