<svg width="62" height="62" viewBox="0 0 62 62" fill="none" xmlns="http://www.w3.org/2000/svg">
<g clip-path="url(#clip0_18011_8538)">
<path d="M8.28331 1.42662C8.7154 1.71521 8.91076 2.23408 8.91938 2.75361C8.96599 5.5627 9.00049 8.87972 8.99999 12.6C8.99951 16.2486 8.96581 19.5035 8.92014 22.2736C8.91112 22.821 8.69372 23.3684 8.22126 23.645C7.79594 23.894 7.34598 24.026 6.87375 23.9957C6.49604 23.9724 6.13308 23.8472 5.78613 23.6444C5.31327 23.368 5.09494 22.8209 5.08527 22.2733C5.03668 19.5225 5 16.2392 5 12.5373C5 9.77151 5.02045 6.45353 5.08613 2.75287C5.09534 2.23402 5.29085 1.71574 5.7222 1.42724C6.13654 1.1501 6.57743 0.990137 7.04217 1.00047C7.47785 1.00891 7.89234 1.16549 8.28331 1.42662Z" fill="#FF9500" stroke="#1C1C1C" stroke-width="0.5" stroke-miterlimit="10" stroke-linejoin="round"/>
<path d="M8.97076 30.5553C8.87605 32.7654 7.19233 34.6093 4.98019 34.6056C4.20568 34.6049 3.48132 34.5621 2.81505 34.4937C1.91846 34.4017 1.24205 33.6622 1.17752 32.7632C1.05691 31.083 0.989511 29.2818 1.00133 27.3734C1.01185 25.7849 1.07588 24.2732 1.17872 22.8463C1.24287 21.9562 1.90715 21.2207 2.79405 21.1223C3.46857 21.0474 4.20735 21 5.00161 21C7.20728 21 8.87358 22.8495 8.96931 25.0531C9.00975 25.9839 9.03125 26.9492 9.02927 27.9468C9.02741 28.8432 9.00684 29.7133 8.97076 30.5553Z" fill="#FF9500" stroke="#1C1C1C" stroke-width="0.5" stroke-miterlimit="10" stroke-linejoin="round"/>
<path d="M11.7745 35.1116C11.7191 35.9826 11.0952 36.7215 10.2309 36.843C9.5372 36.9405 8.77894 37.0014 7.96521 37C7.17158 36.9986 6.4315 36.9388 5.75272 36.8439C4.88381 36.7224 4.25827 35.9775 4.2069 35.1017C4.06755 32.7255 3.98797 30.1613 4.00149 27.4319C4.01248 25.1292 4.0885 22.9484 4.20857 20.9035C4.25932 20.0392 4.86911 19.2999 5.72513 19.1704C6.41394 19.0663 7.17126 19 7.98703 19C8.6573 19 9.42082 19.0447 10.2576 19.1718C11.1093 19.3011 11.7181 20.0342 11.773 20.8939C11.9168 23.1434 12.0043 25.5833 11.9998 28.1898C11.9961 30.6547 11.911 32.9689 11.7745 35.1116Z" fill="#FF9500" stroke="#1C1C1C" stroke-width="0.5" stroke-miterlimit="10" stroke-linejoin="round"/>
<path d="M48.0292 30.5553C48.124 32.7654 49.8077 34.6093 52.0198 34.6056C52.7943 34.6049 53.5187 34.5621 54.185 34.4937C55.0815 34.4017 55.758 33.6622 55.8225 32.7632C55.9431 31.083 56.0105 29.2818 55.9987 27.3734C55.9882 25.7849 55.9241 24.2732 55.8213 22.8463C55.7571 21.9562 55.0928 21.2207 54.2059 21.1223C53.5314 21.0474 52.7927 21 51.9984 21C49.7927 21 48.1264 22.8495 48.0307 25.0531C47.9902 25.9839 47.9688 26.9492 47.9707 27.9468C47.9726 28.8432 47.9932 29.7133 48.0292 30.5553Z" fill="#FF9500" stroke="#1C1C1C" stroke-width="0.5" stroke-miterlimit="10" stroke-linejoin="round"/>
<path d="M45.2255 35.1116C45.2809 35.9826 45.9048 36.7215 46.7691 36.843C47.4628 36.9405 48.2211 37.0014 49.0348 37C49.8284 36.9986 50.5685 36.9388 51.2473 36.8439C52.1162 36.7224 52.7417 35.9775 52.7931 35.1017C52.9324 32.7255 53.012 30.1613 52.9985 27.4319C52.9875 25.1292 52.9115 22.9484 52.7914 20.9035C52.7407 20.0392 52.1309 19.2999 51.2749 19.1704C50.5861 19.0663 49.8287 19 49.013 19C48.3427 19 47.5792 19.0447 46.7424 19.1718C45.8907 19.3011 45.2819 20.0342 45.227 20.8939C45.0832 23.1434 44.9957 25.5833 45.0002 28.1898C45.0039 30.6547 45.089 32.9689 45.2255 35.1116Z" fill="#FF9500" stroke="#1C1C1C" stroke-width="0.5" stroke-miterlimit="10" stroke-linejoin="round"/>
<path d="M9.05302 28.1274C9.15597 22.9661 9.34919 19.8288 9.6349 16.9021C9.90446 14.1408 12.104 11.9619 14.8679 11.7208C19.6961 11.2996 24.9772 11.0593 30.6463 11.1252C34.9581 11.1751 39.0299 11.3965 42.8328 11.7311C45.5406 11.9695 47.7091 14.0711 47.9703 16.7767C48.2386 19.5564 48.4065 22.5599 48.4155 25.7599C48.4257 29.2194 48.2488 32.4524 47.9582 35.4247C47.6992 38.0735 45.61 40.1495 42.9692 40.4801C38.6085 41.0261 33.1323 41.5766 29.0001 41.5C24.6882 41.4208 15.5001 41.1693 12.5001 40.5C9.50009 39.8308 8.896 36 9.05302 28.1274Z" fill="#4169E1" stroke="#1C1C1C" stroke-width="0.5" stroke-miterlimit="10" stroke-linejoin="round"/>
<path d="M13.0096 27.8747C13.077 24.6282 13.1935 22.4398 13.3601 20.5217C13.6 17.7583 15.8249 15.5892 18.5906 15.3787C22.1167 15.1102 25.9361 14.9627 30.01 15.0082C33.0397 15.0419 35.919 15.179 38.6315 15.3881C41.3389 15.5968 43.5231 17.6877 43.7515 20.3935C43.9024 22.1806 43.9938 24.0811 43.9997 26.0831C44.0064 28.2864 43.9088 30.3684 43.7413 32.3135C43.5131 34.9645 41.406 37.0313 38.7624 37.3343C35.5092 37.7072 31.6737 38.0473 28.7139 37.9946C26.6939 37.9589 21.8653 37.7979 18.2857 37.6734C15.7181 37.5841 13.517 35.8508 13.2382 33.2968C13.0768 31.8175 12.9658 29.989 13.0096 27.8747Z" fill="#CCD9FD" stroke="#1C1C1C" stroke-width="0.5" stroke-miterlimit="10" stroke-linejoin="round"/>
<path d="M21.3458 27.7333C23.1937 27.7333 24.6917 26.226 24.6917 24.3667C24.6917 22.5073 23.1937 21 21.3458 21C19.498 21 18 22.5073 18 24.3667C18 26.226 19.498 27.7333 21.3458 27.7333Z" fill="#4169E1" stroke="#1C1C1C" stroke-width="0.5" stroke-miterlimit="10" stroke-linejoin="round"/>
<path d="M35.6542 27.7333C37.5021 27.7333 39 26.226 39 24.3667C39 22.5073 37.5021 21 35.6542 21C33.8063 21 32.3083 22.5073 32.3083 24.3667C32.3083 26.226 33.8063 27.7333 35.6542 27.7333Z" fill="#4169E1" stroke="#1C1C1C" stroke-width="0.5" stroke-miterlimit="10" stroke-linejoin="round"/>
<path d="M28.6154 12.9634C26.7534 12.9531 24.7889 13.0507 23.4934 12.9634C22.1979 12.8761 19.9337 12.246 20.0015 11.2191C20.0873 9.91962 21.3211 9.10988 22.623 9.07621C24.678 9.02307 26.9213 8.99297 29.3263 9.00141C31.2436 9.00811 33.051 9.03853 34.7349 9.08437C35.8628 9.11508 36.9893 9.78203 36.9998 10.9103C37.0113 12.085 35.8362 12.7854 34.6623 12.8298C32.7769 12.9012 30.4045 12.9734 28.6154 12.9634Z" fill="#4169E1" stroke="#1C1C1C" stroke-width="0.5" stroke-miterlimit="10" stroke-linejoin="round"/>
<path d="M61.3757 44.3613C50.911 50.5838 40.3309 56.6044 29.6688 62.4817C25.7194 56.2814 23.8865 53.1045 20.471 46.599C31.0278 40.4016 41.6545 34.3112 52.3602 28.3744C56.2315 34.6194 58.0384 37.8112 61.3757 44.3613Z" fill="#2AA5A5" stroke="#1C1C1C" stroke-width="0.5" stroke-linejoin="round"/>
<path d="M60.2265 42.1588C49.6771 48.3691 39.0356 54.4335 28.3373 60.3833C24.466 54.1384 22.6591 50.9465 19.3218 44.3964C29.7977 38.1935 40.3555 32.1338 51.0287 26.276C54.9781 32.4763 56.811 35.6533 60.2265 42.1588Z" fill="#B9E5DE" stroke="#1C1C1C" stroke-width="0.5" stroke-linejoin="round"/>
<path d="M53.8288 43.2664C46.7456 47.349 39.6541 51.4018 32.5411 55.4323C31.7 54.021 29.8654 53.5318 28.4291 54.344C26.8213 51.5913 26.0389 50.207 24.5093 47.4097C25.9382 46.5844 26.4507 44.7452 25.6683 43.3004C32.7114 39.2234 39.777 35.1855 46.8648 31.1867C47.7124 32.5942 49.5572 33.0862 50.9936 32.274C52.6273 35.0118 53.4228 36.3887 54.9785 39.1711C53.5458 39.9899 53.0398 41.8254 53.8288 43.2664Z" fill="#2AA5A5" stroke="#1C1C1C" stroke-width="0.5" stroke-linejoin="round"/>
<path d="M35.1905 45.8754C37.0811 49.1834 40.6526 50.7015 43.1467 49.2762C45.6408 47.8508 46.1486 43.9928 44.2552 40.6949C42.3646 37.3868 38.7764 35.8697 36.2953 37.2876C33.8142 38.7055 33.3065 42.5635 35.1905 45.8754Z" fill="#B9E5DE" stroke="#1C1C1C" stroke-width="0.5" stroke-linejoin="round"/>
</g>
<defs>
<clipPath id="clip0_18011_8538">
<rect width="62" height="62" rx="5" fill="white"/>
</clipPath>
</defs>
</svg>
