<svg width="102" height="102" viewBox="0 0 102 102" fill="none" xmlns="http://www.w3.org/2000/svg">
<rect x="0.5" y="0.5" width="101" height="101" rx="4.5" stroke="#8A38F5" stroke-dasharray="10 5"/>
<path d="M29.4909 78.5133C29.5385 79.5784 30.4177 80.4146 31.4839 80.4146H59.2888C60.3553 80.4146 61.2347 79.5778 61.2819 78.5124C61.5521 72.4022 61.6918 66.0217 61.664 59.3926C61.6381 53.2563 61.4712 47.339 61.1931 41.6572H29.5804C29.2735 47.8493 29.0989 54.3404 29.1009 61.1083C29.1017 67.1345 29.2424 72.9418 29.4909 78.5133Z" fill="#4169E1" stroke="#1C1C1C" stroke-width="0.5" stroke-miterlimit="10" stroke-linejoin="round"/>
<path d="M22.9862 78.5133C23.0337 79.5784 23.913 80.4146 24.9792 80.4146H52.7841C53.8506 80.4146 54.73 79.5778 54.7771 78.5124C55.0473 72.4022 55.187 66.0217 55.1592 59.3926C55.1333 53.2563 54.9665 47.339 54.6884 41.6572H23.0756C22.7687 47.8493 22.5942 54.3404 22.5961 61.1083C22.597 67.1345 22.7376 72.9418 22.9862 78.5133Z" fill="#CCD9FD" stroke="#1C1C1C" stroke-width="0.5" stroke-miterlimit="10" stroke-linejoin="round"/>
<path d="M28.5239 75.3856C28.6236 75.7564 28.962 76.0021 29.3449 76.0311C32.432 76.2647 35.7487 76.4031 39.2688 76.3967C42.6049 76.3903 45.7556 76.2545 48.6991 76.0315C49.0838 76.0023 49.4232 75.7542 49.5219 75.3812C49.6462 74.9117 49.7459 74.3072 49.7191 73.6067C49.6998 73.1082 49.6205 72.6688 49.5238 72.3031C49.4245 71.928 49.0818 71.6801 48.6947 71.6537C45.7798 71.4545 42.6876 71.334 39.4338 71.324C35.8761 71.3139 32.5079 71.4377 29.3512 71.6537C28.9646 71.6801 28.6219 71.9276 28.5218 72.302C28.4144 72.7036 28.3258 73.2021 28.3198 73.7758C28.313 74.4088 28.4081 74.9552 28.5239 75.3856Z" fill="#4169E1" stroke="#1C1C1C" stroke-width="0.5" stroke-miterlimit="10" stroke-linejoin="round"/>
<path d="M31.1134 73.5197H46.7256" stroke="#1C1C1C" stroke-width="0.5" stroke-miterlimit="10" stroke-linecap="round" stroke-linejoin="round"/>
<path d="M28.5039 66.1337C28.54 66.6138 28.9158 66.998 29.395 67.0438C32.1736 67.309 35.1949 67.48 38.4302 67.4942C42.0059 67.5103 45.3266 67.3329 48.3532 67.0439C48.8326 66.9981 49.2083 66.6136 49.2441 66.1333C49.505 62.6392 49.6494 58.8652 49.6094 54.8462C49.5798 51.8127 49.4476 48.9271 49.2444 46.2042C49.2084 45.7224 48.8305 45.337 48.3494 45.2929C45.4692 45.0288 42.3318 44.8628 38.9721 44.8602C35.5365 44.8566 32.3344 45.0242 29.3988 45.2931C28.9178 45.3371 28.5399 45.7221 28.5037 46.2037C28.2798 49.1843 28.141 52.3754 28.1305 55.7544C28.119 59.4443 28.2619 62.9129 28.5039 66.1337Z" fill="#4169E1" stroke="#1C1C1C" stroke-width="0.5" stroke-miterlimit="10" stroke-linejoin="round"/>
<path d="M31.7125 55.3331C31.7126 55.8854 32.1603 56.333 32.7125 56.333H45.123C45.6753 56.333 46.123 55.8853 46.123 55.333V49.1462C46.123 48.6342 45.7365 48.2041 45.2266 48.1575C43.3517 47.986 41.3132 47.8766 39.1307 47.8697C36.7851 47.8628 34.6029 47.9752 32.6085 48.1575C32.0985 48.2041 31.7119 48.6343 31.7119 49.1464L31.7125 55.3331Z" fill="#E8EDFA" stroke="#1C1C1C" stroke-width="0.5" stroke-miterlimit="10" stroke-linejoin="round"/>
<path d="M26.9034 40.0721C27.0112 41.0006 27.7801 41.6896 28.7144 41.7191C35.5765 41.9359 53.6428 41.9433 60.6137 41.72C61.55 41.69 62.3202 40.9979 62.4264 40.0671C62.5628 38.8716 62.6459 37.5358 62.6263 36.0831C62.6118 34.9578 62.5374 33.9079 62.4276 32.9445C62.3208 32.0076 61.5305 31.3119 60.5884 31.2722C55.5474 31.0598 50.3169 30.9406 44.9096 30.9371C39.3275 30.9335 33.9328 31.0536 28.7397 31.2724C27.7994 31.3121 27.0099 32.0051 26.9019 32.9401C26.7813 33.9847 26.702 35.1384 26.6971 36.3852C26.692 37.7262 26.7745 38.9619 26.9034 40.0721Z" fill="#FF9500" stroke="#1C1C1C" stroke-width="0.5" stroke-miterlimit="10" stroke-linejoin="round"/>
<path d="M21.2064 40.0722C21.3142 41.0007 22.0831 41.6898 23.0174 41.7193C29.8795 41.936 47.9458 41.9434 54.9167 41.7201C55.853 41.6901 56.6232 40.998 56.7294 40.0672C56.8658 38.8717 56.9489 37.5359 56.9293 36.0832C56.9148 34.9579 56.8403 33.908 56.7306 32.9446C56.6238 32.0077 55.8335 31.3121 54.8914 31.2724C49.8504 31.0599 44.6199 30.9407 39.2126 30.9372C33.6305 30.9337 28.2358 31.0537 23.0427 31.2725C22.1023 31.3122 21.3129 32.0053 21.2049 32.9403C21.0843 33.9848 21.005 35.1385 21 36.3853C20.9949 37.7263 21.0775 38.962 21.2064 40.0722Z" fill="#FAF2E8" stroke="#1C1C1C" stroke-width="0.5" stroke-miterlimit="10" stroke-linejoin="round"/>
<path d="M45.1068 33.3004C44.8955 33.3004 44.7267 33.3193 44.6049 33.3677C44.4723 33.4206 44.3764 33.5182 44.3177 33.6431C44.2676 33.75 44.2142 33.9176 44.1576 34.1304L43.517 36.5289L42.8773 34.1304C42.8218 33.9217 42.7747 33.7556 42.7162 33.6392C42.6524 33.5123 42.5639 33.421 42.4301 33.3677C42.3081 33.3192 42.1336 33.3004 41.9291 33.3004H41.5902C41.3643 33.3004 41.1614 33.3481 41.0092 33.4517C40.8296 33.574 40.7611 33.7926 40.7611 34.0504V38.3052C40.7612 38.5324 40.8168 38.729 40.9369 38.8658C41.0572 39.0026 41.2201 39.0669 41.4076 39.067C41.5967 39.067 41.7587 39.0022 41.8842 38.8609C42.0121 38.7166 42.0599 38.524 42.0599 38.2984V35.7935L42.6312 38.0484C42.6363 38.0681 42.6459 38.0856 42.6576 38.1011C42.6842 38.1968 42.7108 38.2892 42.7318 38.3726C42.7602 38.4856 42.8025 38.5923 42.8597 38.692C42.9235 38.8029 43.0111 38.8882 43.1166 38.9556C43.2362 39.0321 43.3803 39.0611 43.5238 39.0611C43.7238 39.0611 43.8926 39.0012 44.0179 38.8931C44.1333 38.7935 44.209 38.6715 44.2543 38.5513C44.2955 38.442 44.3418 38.2712 44.3978 38.0484L44.9691 35.7935V38.2984C44.9691 38.524 45.0169 38.7166 45.1449 38.8609C45.2697 39.0015 45.4317 39.067 45.6156 39.067C45.8098 39.0669 45.972 39.0028 46.098 38.8609C46.226 38.7166 46.2738 38.524 46.2738 38.2984V34.0504C46.2738 33.7925 46.2054 33.574 46.0258 33.4517C45.8735 33.3482 45.6714 33.3004 45.4457 33.3004H45.1068ZM35.9789 33.3004C35.7855 33.3004 35.6056 33.3416 35.473 33.4556C35.3432 33.5676 35.2758 33.7235 35.2758 33.9009C35.2759 34.0798 35.3438 34.2259 35.4623 34.3355C35.5888 34.4523 35.7709 34.5005 35.9789 34.5005H37.0219V38.2486C37.0219 38.4911 37.0761 38.705 37.2142 38.8511C37.3455 38.9899 37.5241 39.061 37.7181 39.0611C37.9142 39.0611 38.087 38.9887 38.2172 38.8511C38.3551 38.705 38.4086 38.4909 38.4086 38.2486V34.5005H39.4515C39.6611 34.5005 39.8394 34.4518 39.9701 34.3394C40.1029 34.225 40.1604 34.0676 40.1605 33.9009C40.1605 33.7341 40.1029 33.577 39.9701 33.4625C39.8394 33.3499 39.6613 33.3004 39.4515 33.3004H35.9789ZM32.9789 33.1998C32.8077 33.1998 32.6554 33.2363 32.5287 33.3072C32.4084 33.3746 32.3088 33.4653 32.2328 33.5787C32.1623 33.6839 32.1015 33.8074 32.0424 33.9576C31.9887 34.0941 31.9355 34.2202 31.8978 34.3199L30.517 37.8101C30.4585 37.9523 30.4192 38.0687 30.3939 38.1441C30.364 38.2335 30.348 38.3246 30.348 38.4166C30.348 38.5877 30.4199 38.739 30.5531 38.8638C30.685 38.9872 30.8406 39.0542 31.0199 39.0543C31.2119 39.0542 31.3857 38.994 31.4926 38.8492C31.5749 38.7374 31.668 38.5388 31.7689 38.2691L31.9906 37.6793H33.975L34.181 38.2183C34.1826 38.2349 34.1856 38.2516 34.1927 38.2672C34.2307 38.3489 34.2728 38.4391 34.3148 38.5464C34.3608 38.664 34.4127 38.7648 34.474 38.8345C34.5267 38.8945 34.5924 38.9525 34.6771 38.9947C34.7669 39.0393 34.8611 39.0542 34.9633 39.0543C35.1467 39.0543 35.3106 38.9883 35.4457 38.8541C35.5764 38.724 35.6469 38.5682 35.6469 38.4039C35.6468 38.2909 35.6127 38.1408 35.5472 37.9605L35.472 37.7701L34.0677 34.3179H34.0687C34.0047 34.1396 33.9469 33.9988 33.9027 33.8922C33.8563 33.7802 33.8007 33.669 33.7289 33.5689C33.6558 33.4672 33.5636 33.3746 33.432 33.3052C33.3014 33.2365 33.1511 33.1998 32.9789 33.1998ZM37.8041 38.9048L37.7181 38.9107L37.8226 38.9C37.8164 38.9011 37.8104 38.904 37.8041 38.9048ZM45.5121 38.9078C45.4819 38.902 45.4537 38.8917 45.4261 38.8804C45.4537 38.8917 45.4819 38.902 45.5121 38.9078ZM41.2933 38.9058C41.2654 38.9002 41.2394 38.8913 41.2142 38.8814C41.2394 38.8913 41.2654 38.9002 41.2933 38.9058ZM31.1078 38.899L31.0199 38.9039C31.0567 38.9039 31.0912 38.9001 31.1234 38.8951C31.1182 38.8959 31.1131 38.8983 31.1078 38.899ZM30.8344 38.8687C30.8925 38.8916 30.9538 38.9039 31.0199 38.9039L30.9193 38.8951C30.8899 38.8894 30.862 38.8796 30.8344 38.8687ZM45.8168 38.8804C45.7929 38.8901 45.7679 38.8971 45.7416 38.9029C45.7679 38.8972 45.7929 38.89 45.8168 38.8804ZM41.6029 38.8804C41.5795 38.89 41.5552 38.8972 41.5297 38.9029C41.5552 38.8973 41.5795 38.8899 41.6029 38.8804ZM43.7377 38.8785C43.7128 38.8864 43.6869 38.8931 43.6595 38.898C43.6869 38.893 43.7129 38.8864 43.7377 38.8785ZM37.9154 38.8755C37.8933 38.8837 37.8706 38.8899 37.847 38.8951C37.8706 38.8898 37.8934 38.8838 37.9154 38.8755ZM31.2094 38.8736C31.1914 38.8799 31.1726 38.885 31.1527 38.8892C31.1726 38.885 31.1914 38.8798 31.2094 38.8736ZM45.9105 38.8297C45.8847 38.8485 45.8567 38.8628 45.8275 38.8755C45.8567 38.8629 45.8847 38.8485 45.9105 38.8297ZM41.6967 38.8297C41.6713 38.8483 41.644 38.8629 41.6156 38.8755C41.6441 38.863 41.6713 38.8483 41.6967 38.8297ZM41.1967 38.8736C41.1736 38.8633 41.1519 38.8516 41.1312 38.8375C41.1519 38.8516 41.1736 38.8633 41.1967 38.8736ZM43.8422 38.8345C43.8163 38.8493 43.788 38.8609 43.7582 38.8716C43.788 38.8609 43.8163 38.8493 43.8422 38.8345ZM45.4056 38.8707C45.3833 38.8602 45.3617 38.8489 45.3412 38.8345C45.3617 38.8489 45.3834 38.8602 45.4056 38.8707ZM34.7445 38.8599H34.7435H34.7445ZM37.9584 38.8589C37.9543 38.8609 37.9498 38.862 37.9457 38.8638C37.974 38.8511 38.0013 38.8367 38.0267 38.8189L37.9584 38.8589ZM30.8168 38.8609C30.7934 38.8506 30.7706 38.8389 30.7484 38.8248C30.7707 38.8388 30.7934 38.8506 30.8168 38.8609ZM31.2953 38.8306C31.2794 38.8414 31.2628 38.8515 31.2445 38.8599C31.2629 38.8515 31.2794 38.8414 31.2953 38.8306ZM41.0492 38.7672C41.0694 38.7902 41.093 38.809 41.1166 38.8267C41.0928 38.8089 41.0695 38.7902 41.0492 38.7672C41.0297 38.745 41.0131 38.7196 40.9974 38.692C41.0131 38.7195 41.0298 38.745 41.0492 38.7672ZM45.2572 38.7613C45.2788 38.7857 45.3032 38.8053 45.3275 38.8238C45.3032 38.8053 45.2788 38.7857 45.2572 38.7613C45.2354 38.7367 45.218 38.7087 45.2015 38.6793C45.218 38.7086 45.2354 38.7368 45.2572 38.7613ZM30.5375 38.5953C30.5634 38.6513 30.6024 38.7046 30.6556 38.7545C30.6803 38.7775 30.7067 38.7963 30.7328 38.814C30.7068 38.7963 30.6802 38.7774 30.6556 38.7545C30.6025 38.7046 30.5634 38.6514 30.5375 38.5953ZM37.3217 38.7476C37.2988 38.7233 37.2807 38.6944 37.2631 38.6636C37.2807 38.6944 37.2988 38.7233 37.3217 38.7476ZM35.4047 38.6724C35.3861 38.6979 35.3647 38.7233 35.3402 38.7476C35.3647 38.7233 35.386 38.6979 35.4047 38.6724ZM34.5873 38.7349H34.5863H34.5873ZM44.0219 38.6675C44.016 38.6755 44.0096 38.6832 44.0033 38.691C44.0096 38.6832 44.016 38.6755 44.0219 38.6675ZM40.9808 38.6578C40.9707 38.6363 40.9615 38.6137 40.9535 38.5894C40.9615 38.6137 40.9707 38.6363 40.9808 38.6578ZM46.0834 38.5855C46.0751 38.6104 46.065 38.6336 46.0541 38.6558C46.065 38.6336 46.0751 38.6104 46.0834 38.5855ZM45.1898 38.6558C45.1789 38.6336 45.1688 38.6105 45.1605 38.5855C45.1688 38.6105 45.1788 38.6336 45.1898 38.6558ZM37.2513 38.6422C37.2373 38.6147 37.2254 38.5853 37.2152 38.5533C37.2254 38.5853 37.2374 38.6147 37.2513 38.6422ZM35.4515 38.5943C35.4436 38.6105 35.4343 38.6262 35.4242 38.6422C35.4343 38.6262 35.4436 38.6105 35.4515 38.5943ZM31.4701 38.5914C31.4624 38.6067 31.455 38.6214 31.4476 38.6353C31.455 38.6214 31.4624 38.6067 31.4701 38.5914ZM35.4808 38.5172C35.4759 38.5348 35.4705 38.5525 35.4633 38.5699C35.4706 38.5525 35.4759 38.5348 35.4808 38.5172ZM34.4554 38.4918C34.4649 38.516 34.4763 38.5378 34.4857 38.5591C34.4762 38.5378 34.464 38.516 34.4545 38.4918C34.4106 38.3796 34.3671 38.2857 34.3295 38.2047L34.4554 38.4918ZM46.1156 38.4429C46.1108 38.4816 46.1023 38.5174 46.0931 38.5513C46.1023 38.5175 46.1108 38.4816 46.1156 38.4429ZM37.182 38.4068C37.1879 38.4531 37.1978 38.4959 37.2094 38.5357C37.1978 38.4958 37.187 38.4532 37.181 38.4068L37.1722 38.2486L37.182 38.4068ZM33.5736 36.567H32.3949L32.9799 34.9449L33.5736 36.567ZM32.182 34.0123H32.181H32.182ZM39.5638 34.3433C39.5286 34.3471 39.4911 34.3502 39.4515 34.3502C39.4911 34.3502 39.5287 34.3471 39.5638 34.3433ZM35.847 34.3423L35.7611 34.3257C35.7557 34.3244 35.7508 34.3214 35.7455 34.3199C35.777 34.3288 35.8105 34.3375 35.847 34.3423ZM39.6791 34.3218C39.6585 34.3274 39.6371 34.3317 39.6146 34.3355C39.6371 34.3317 39.6585 34.3274 39.6791 34.3218ZM39.7933 34.2789C39.7665 34.2931 39.7372 34.3049 39.7054 34.315C39.7372 34.3049 39.7665 34.2932 39.7933 34.2789ZM35.7181 34.3111C35.6944 34.303 35.6723 34.2943 35.6517 34.2838C35.6723 34.2943 35.6944 34.3031 35.7181 34.3111ZM35.5648 34.2252C35.5856 34.2443 35.6098 34.2601 35.6361 34.275C35.6096 34.26 35.5847 34.2444 35.5638 34.2252C35.5442 34.207 35.5278 34.1864 35.5121 34.1656C35.528 34.1865 35.545 34.2068 35.5648 34.2252ZM39.9281 34.1656C39.9119 34.1868 39.8936 34.2069 39.8724 34.2252C39.8936 34.2069 39.9119 34.1869 39.9281 34.1656ZM35.5004 34.148C35.4892 34.1317 35.4788 34.1152 35.4701 34.0972C35.4788 34.1152 35.4893 34.1317 35.5004 34.148ZM39.9701 34.0953C39.9628 34.111 39.954 34.1257 39.9447 34.1402C39.954 34.1256 39.9628 34.111 39.9701 34.0953ZM35.4261 33.9009C35.4262 33.9662 35.439 34.0239 35.4603 34.0757C35.4501 34.051 35.4404 34.0254 35.4349 33.9976L35.4261 33.9009C35.4261 33.8707 35.4301 33.8418 35.4349 33.814C35.4302 33.8417 35.4261 33.8708 35.4261 33.9009ZM39.9847 34.0611C39.9834 34.0648 39.9813 34.0682 39.9799 34.0718C39.9893 34.0475 39.9974 34.0223 40.0023 33.9957L39.9847 34.0611ZM46.1127 33.8922C46.12 33.9402 46.1244 33.9928 46.1244 34.0504C46.1244 33.9929 46.12 33.9402 46.1127 33.8922ZM40.9115 34.0504C40.9115 33.9928 40.9159 33.9402 40.9232 33.8922C40.9159 33.9402 40.9115 33.9928 40.9115 34.0504ZM40.0033 33.814C40.0066 33.834 40.0082 33.8545 40.0092 33.8755C40.0082 33.8545 40.0066 33.834 40.0033 33.814ZM40.933 33.8502C40.9391 33.8209 40.9454 33.7935 40.9545 33.7681C40.9454 33.7935 40.9391 33.8209 40.933 33.8502ZM46.0824 33.7691C46.091 33.7933 46.096 33.8196 46.1019 33.8472C46.096 33.8196 46.091 33.7933 46.0824 33.7691ZM39.9808 33.732C39.9881 33.7516 39.9949 33.7715 39.9994 33.7925C39.9949 33.7715 39.9882 33.7515 39.9808 33.732ZM35.4427 33.7828C35.4469 33.7659 35.4514 33.7497 35.4574 33.7339C35.4514 33.7497 35.4469 33.7659 35.4427 33.7828ZM39.934 33.6422C39.9498 33.6641 39.9632 33.6876 39.974 33.7125C39.9631 33.6877 39.9499 33.6641 39.934 33.6422ZM40.9877 33.6929C40.9912 33.6867 40.9956 33.6812 40.9994 33.6754C40.9956 33.6812 40.9912 33.6867 40.9877 33.6929ZM42.4935 33.5816C42.5068 33.5943 42.5179 33.6094 42.5297 33.6246C42.5179 33.6094 42.5068 33.5943 42.4935 33.5816ZM44.5072 33.6226C44.5142 33.6139 44.5211 33.6053 44.5287 33.5972C44.5211 33.6053 44.5142 33.6139 44.5072 33.6226ZM33.516 33.5494C33.5254 33.5586 33.5345 33.568 33.5433 33.5777C33.5345 33.5681 33.5254 33.5586 33.516 33.5494ZM44.5482 33.5777C44.563 33.5643 44.5782 33.5515 44.5951 33.5406C44.5782 33.5515 44.563 33.5643 44.5482 33.5777ZM41.0931 33.5757C41.1217 33.5563 41.1537 33.5401 41.1879 33.525C41.1538 33.54 41.1216 33.5564 41.0931 33.5757ZM35.5707 33.5699L35.6283 33.5289C35.6317 33.5269 35.6356 33.5259 35.639 33.524C35.6145 33.5376 35.5911 33.5523 35.5707 33.5699ZM32.434 33.5689C32.4371 33.5656 32.4405 33.5624 32.4437 33.5591C32.4405 33.5624 32.4371 33.5656 32.434 33.5689ZM41.2054 33.5172C41.2337 33.5056 41.2636 33.4955 41.2953 33.4869C41.2636 33.4954 41.2337 33.5056 41.2054 33.5172ZM45.7435 33.4879C45.7733 33.4961 45.8017 33.5053 45.8285 33.5162C45.8017 33.5053 45.7733 33.4961 45.7435 33.4879ZM35.6722 33.5074C35.693 33.498 35.7145 33.489 35.7377 33.482C35.7145 33.4889 35.693 33.498 35.6722 33.5074ZM32.6029 33.438C32.5778 33.4521 32.5534 33.4666 32.5306 33.483L32.6019 33.438C32.614 33.4313 32.6272 33.4255 32.64 33.4195C32.6273 33.4255 32.6149 33.4314 32.6029 33.438ZM41.3187 33.481C41.3576 33.4716 41.3985 33.4635 41.4418 33.4586C41.3985 33.4635 41.3575 33.4717 41.3187 33.481ZM45.5941 33.4586C45.637 33.4635 45.6777 33.4707 45.7162 33.48C45.6777 33.4708 45.637 33.4635 45.5941 33.4586ZM35.7484 33.4791C35.7813 33.4698 35.8164 33.4622 35.8539 33.4576C35.8164 33.4622 35.7813 33.4699 35.7484 33.4791ZM44.7845 33.4742C44.7881 33.4735 44.7917 33.4728 44.7953 33.4722C44.7917 33.4728 44.7881 33.4735 44.7845 33.4742ZM42.2396 33.4722C42.2426 33.4727 42.2455 33.4737 42.2484 33.4742C42.2455 33.4737 42.2426 33.4727 42.2396 33.4722ZM42.4398 33.5396C42.4592 33.5519 42.477 33.5658 42.4935 33.5816C42.4771 33.5658 42.4592 33.5519 42.4398 33.5396Z" fill="#1C1C1C"/>
<path d="M37.6704 60.8374C37.6247 60.3968 37.2603 60.0661 36.8185 60.0331C36.1004 59.9795 35.3275 59.9493 34.506 59.955C33.8408 59.9601 33.2086 59.9882 32.6131 60.0326C32.1698 60.0658 31.8048 60.3989 31.76 60.8412C31.7286 61.152 31.7104 61.4905 31.7139 61.8531C31.7169 62.1498 31.7341 62.4296 31.7605 62.6904C31.8052 63.1301 32.1667 63.4622 32.6073 63.4974C33.2614 63.5498 33.9662 63.5816 34.7156 63.5816C35.4649 63.5816 36.1698 63.5497 36.8239 63.4973C37.2631 63.462 37.624 63.1319 37.6698 62.6937C37.6961 62.442 37.7135 62.1725 37.7173 61.8869C37.7226 61.5098 37.7037 61.1585 37.6704 60.8374Z" fill="#E8EDFA" stroke="#1C1C1C" stroke-width="0.5" stroke-miterlimit="10" stroke-linejoin="round"/>
<path d="M46.0638 60.7883C46.0102 60.3712 45.6657 60.0595 45.2468 60.0222C44.824 59.9845 44.367 59.9597 43.88 59.9551C43.2746 59.9495 42.7127 59.9766 42.2023 60.0221C41.7834 60.0595 41.4389 60.3713 41.3853 60.7885C41.3437 61.1116 41.3187 61.4682 41.323 61.8531C41.3267 62.1721 41.3502 62.4705 41.3859 62.7454C41.4395 63.1587 41.7792 63.4689 42.194 63.5087C42.6703 63.5543 43.196 63.583 43.7635 63.5816C44.3005 63.5801 44.7996 63.552 45.2541 63.5085C45.6691 63.4688 46.0089 63.1586 46.0627 62.7452C46.0996 62.4612 46.1237 62.1514 46.126 61.8193C46.1288 61.447 46.1041 61.1018 46.0638 60.7883Z" fill="#E8EDFA" stroke="#1C1C1C" stroke-width="0.5" stroke-miterlimit="10" stroke-linejoin="round"/>
<path d="M79.9814 41.1016C79.9814 48.5312 73.913 54.5543 66.4272 54.5543C58.9413 54.5543 52.3357 48.033 52.3357 40.6034C51.6088 28.0699 58.9413 27.649 66.4272 27.649C73.913 27.649 80.3925 28.2997 79.9814 41.1016Z" fill="#FF9500" stroke="#1C1C1C" stroke-width="0.5" stroke-miterlimit="10"/>
<path d="M66.1078 50.9578C73.7415 50.9578 79.9298 44.6246 79.9298 36.8121C79.9298 28.9996 73.7415 22.6663 66.1078 22.6663C58.4742 22.6663 52.2859 28.9996 52.2859 36.8121C52.2859 44.6246 58.4742 50.9578 66.1078 50.9578Z" fill="#FFE2C8" stroke="#1C1C1C" stroke-width="0.5" stroke-miterlimit="10"/>
<path d="M66.143 47.5786C72.1561 47.5786 77.0307 42.671 77.0307 36.6172C77.0307 30.5634 72.1561 25.6558 66.143 25.6558C60.1298 25.6558 55.2552 30.5634 55.2552 36.6172C55.2552 42.671 60.1298 47.5786 66.143 47.5786Z" fill="#FF9500" stroke="#1C1C1C" stroke-width="0.5" stroke-miterlimit="10"/>
<path d="M70.3482 33.6646C70.4603 34.7957 70.012 35.4836 69.3256 35.8657C70.4743 36.1714 71.1887 36.9051 71.0486 38.5712C70.8665 40.6347 69.4657 41.2003 67.4485 41.3226V42.8907C67.4485 43.2234 67.1788 43.4931 66.8462 43.4931C66.5135 43.4931 66.2438 43.2234 66.2438 42.8907V41.3531C65.9356 41.3531 65.6134 41.3531 65.2912 41.3378V42.8907C65.2912 43.2234 65.0215 43.4931 64.6889 43.4931C64.3562 43.4931 64.0865 43.2234 64.0865 42.8907V41.3226C63.8064 41.3226 63.5262 41.3073 63.232 41.3073H62.5721C62.0954 41.3073 61.7321 40.8805 61.8082 40.4099C61.8696 40.0301 62.2011 39.7565 62.5858 39.7549C62.7891 39.754 62.7837 39.7482 62.7837 39.7482C63.1199 39.7482 63.204 39.4883 63.232 39.3049V35.881H63.3581C63.3021 35.881 63.26 35.881 63.232 35.881V33.4201C63.19 33.1602 63.0219 32.8392 62.5316 32.8392C62.5316 32.8392 62.5364 32.834 62.3649 32.8327C61.9794 32.8298 61.6631 32.5232 61.6631 32.1377C61.6631 31.7569 61.9718 31.4483 62.3525 31.4483H63.3301C63.5682 31.4483 63.8204 31.4483 64.0865 31.4483V29.8954C64.0865 29.5627 64.3562 29.293 64.6889 29.293C65.0215 29.293 65.2912 29.5627 65.2912 29.8954V31.4024C65.6134 31.4024 65.9216 31.3871 66.2438 31.3871V29.8954C66.2438 29.5627 66.5135 29.293 66.8462 29.293C67.1788 29.293 67.4485 29.5627 67.4485 29.8954V31.4483C68.9894 31.5858 70.2222 32.1055 70.3482 33.6646ZM68.6672 38.3113C68.6672 36.63 66.1177 36.8745 65.3052 36.8745V39.7482C66.1177 39.7482 68.6672 39.9469 68.6672 38.3113ZM68.1209 34.2607C68.1209 32.7169 65.9916 32.9462 65.3052 32.9462V35.56C65.9916 35.56 68.1209 35.7281 68.1209 34.2607Z" fill="white"/>
</svg>
