<svg width="102" height="102" viewBox="0 0 102 102" fill="none" xmlns="http://www.w3.org/2000/svg">
<rect x="0.5" y="0.5" width="101" height="101" rx="4.5" stroke="#8A38F5" stroke-dasharray="10 5"/>
<path d="M44.724 52.6827C44.724 59.0039 39.526 64.1284 33.1138 64.1284C26.7016 64.1284 21.0434 58.58 21.0434 52.2588C20.4209 41.5952 26.7016 41.237 33.1138 41.237C39.526 41.237 45.0761 41.7907 44.724 52.6827Z" fill="#FF9500" stroke="#1C1C1C" stroke-width="0.5" stroke-miterlimit="10"/>
<path d="M32.8403 61.0693C39.3791 61.0693 44.6798 55.6809 44.6798 49.0339C44.6798 42.387 39.3791 36.9985 32.8403 36.9985C26.3015 36.9985 21.0008 42.387 21.0008 49.0339C21.0008 55.6809 26.3015 61.0693 32.8403 61.0693Z" fill="#FFE2C8" stroke="#1C1C1C" stroke-width="0.5" stroke-miterlimit="10"/>
<path d="M32.87 58.3551C38.0207 58.3551 42.1961 54.1797 42.1961 49.029C42.1961 43.8783 38.0207 39.7029 32.87 39.7029C27.7193 39.7029 23.5439 43.8783 23.5439 49.029C23.5439 54.1797 27.7193 58.3551 32.87 58.3551Z" fill="#FF9500" stroke="#1C1C1C" stroke-width="0.5" stroke-miterlimit="10"/>
<path d="M37.2413 46.2609C37.3525 47.3414 36.9079 47.9985 36.2271 48.3636C37.3664 48.6556 38.0749 49.3565 37.936 50.9481C37.7554 52.9194 36.366 53.4597 34.3653 53.5765V55.0525C34.3653 55.3825 34.0978 55.65 33.7679 55.65C33.4379 55.65 33.1704 55.3825 33.1704 55.0525V53.6057C32.8648 53.6057 32.5452 53.6057 32.2257 53.5911V55.0525C32.2257 55.3825 31.9582 55.65 31.6282 55.65C31.2983 55.65 31.0308 55.3825 31.0308 55.0525V53.5765C30.7529 53.5765 30.4751 53.5619 30.1833 53.5619H29.5012C29.0439 53.5619 28.6962 53.151 28.7719 52.7C28.8325 52.3392 29.1481 52.0796 29.5139 52.079C29.7445 52.0786 29.7387 52.0725 29.7387 52.0725C30.0721 52.0725 30.1555 51.8242 30.1833 51.649V48.3782H30.3083C30.2528 48.3782 30.2111 48.3782 30.1833 48.3782V46.0273C30.1416 45.779 29.9749 45.4724 29.4886 45.4724C29.4886 45.4724 29.4938 45.4669 29.2975 45.466C28.9293 45.4643 28.6272 45.1706 28.6272 44.8024C28.6272 44.4386 28.9222 44.1436 29.286 44.1436H30.2806C30.5167 44.1436 30.7668 44.1436 31.0308 44.1436V42.6821C31.0308 42.3522 31.2983 42.0847 31.6282 42.0847C31.9582 42.0847 32.2257 42.3522 32.2257 42.6821V44.0998C32.5452 44.0998 32.8509 44.0852 33.1704 44.0852V42.6821C33.1704 42.3522 33.4379 42.0847 33.7679 42.0847C34.0978 42.0847 34.3653 42.3522 34.3653 42.6821V44.1436C35.8936 44.275 37.1163 44.7715 37.2413 46.2609ZM35.5741 50.6999C35.5741 49.0937 33.0454 49.3273 32.2396 49.3273V52.0725C33.0454 52.0725 35.5741 52.2623 35.5741 50.6999ZM35.0322 46.8304C35.0322 45.3556 32.9204 45.5746 32.2396 45.5746V48.0715C32.9204 48.0715 35.0322 48.2322 35.0322 46.8304Z" fill="white"/>
<path d="M81.0989 52.6827C81.0989 59.0039 75.9009 64.1284 69.4887 64.1284C63.0765 64.1284 57.4183 58.58 57.4183 52.2588C56.7957 41.5952 63.0765 41.237 69.4887 41.237C75.9009 41.237 81.451 41.7907 81.0989 52.6827Z" fill="#637DEB" stroke="#1C1C1C" stroke-width="0.5" stroke-miterlimit="10"/>
<path d="M69.2151 61.0693C75.7538 61.0693 81.0546 55.6809 81.0546 49.0339C81.0546 42.387 75.7538 36.9985 69.2151 36.9985C62.6763 36.9985 57.3755 42.387 57.3755 49.0339C57.3755 55.6809 62.6763 61.0693 69.2151 61.0693Z" fill="#E8EDFA" stroke="#1C1C1C" stroke-width="0.5" stroke-miterlimit="10"/>
<path d="M69.2448 58.3551C74.3955 58.3551 78.5709 54.1797 78.5709 49.029C78.5709 43.8783 74.3955 39.7029 69.2448 39.7029C64.0941 39.7029 59.9187 43.8783 59.9187 49.029C59.9187 54.1797 64.0941 58.3551 69.2448 58.3551Z" fill="#637DEB" stroke="#1C1C1C" stroke-width="0.5" stroke-miterlimit="10"/>
<path d="M70.1247 50.8423C69.8169 51.0186 69.4388 51.0186 69.131 50.8425L66.9021 49.5669C66.4396 49.3022 66.2659 48.7213 66.5072 48.2461L68.7622 43.8066C69.1376 43.0674 70.1978 43.0799 70.5558 43.8277L72.697 48.3015C72.9231 48.7739 72.7464 49.3407 72.292 49.601L70.1247 50.8423Z" fill="white"/>
<path d="M69.9934 51.8097C69.6886 51.9767 69.3189 51.9735 69.017 51.8012L67.4209 50.89C66.9519 50.6223 66.4503 51.1851 66.77 51.6203L68.7133 54.2652C69.108 54.8025 69.9081 54.8103 70.3133 54.2809L72.3628 51.6028C72.6913 51.1735 72.1995 50.6007 71.7254 50.8605L69.9934 51.8097Z" fill="white"/>
<path d="M46.1415 63.7775C45.5991 63.7775 45.1541 63.3442 45.1523 62.8018C45.1332 56.9558 46.3855 52.2829 51.3993 49.4015C53.1851 48.1952 54.8775 46.9525 55.8781 45.1027C57.3333 42.5014 56.4409 38.713 53.6864 37.4331C50.0962 35.5632 45.3575 37.667 44.7366 41.7658C44.653 42.3177 44.2123 42.7788 43.6541 42.7788H35.9986C35.4469 42.7788 34.9964 42.314 35.028 41.7631C36.1962 21.3766 73.4995 25.6316 66.0089 46.9091C64.1279 51.7526 59.8953 53.0376 56.5293 56.1442C54.7556 57.9447 54.2083 60.1895 54.1482 62.7566C54.1351 63.3167 53.6875 63.7775 53.1272 63.7775H46.1415Z" fill="#4169E1" stroke="#1C1C1C" stroke-width="0.5" stroke-miterlimit="10" stroke-linejoin="round"/>
<path d="M54.3238 76.1502C54.2627 76.5906 53.9072 76.9294 53.4647 76.9733C52.3389 77.0849 51.1103 77.1563 49.7925 77.1612C48.3696 77.1662 47.0488 77.0922 45.8468 76.9732C45.4036 76.9294 45.0477 76.5898 44.9869 76.1485C44.8246 74.9718 44.7128 73.6202 44.7201 72.1251C44.7281 70.4216 44.8889 68.9086 45.0993 67.6347C46.3421 67.4199 47.8181 67.2545 49.4808 67.2434C51.2914 67.2313 52.8875 67.4058 54.2097 67.6347C54.4221 68.9167 54.5849 70.4458 54.5909 72.1695C54.5958 73.6482 54.4852 74.9858 54.3238 76.1502Z" fill="#4169E1" stroke="#1C1C1C" stroke-width="0.5" stroke-miterlimit="10" stroke-linejoin="round"/>
<path d="M46.1415 60.263C45.5991 60.263 45.1541 59.8297 45.1523 59.2873C45.1332 53.4413 46.3855 48.7684 51.3993 45.887C53.1851 44.6806 54.8775 43.438 55.8781 41.5882C57.3333 38.9869 56.4409 35.1985 53.6864 33.9185C50.0962 32.0487 45.3575 34.1525 44.7366 38.2513C44.653 38.8031 44.2123 39.2643 43.6541 39.2643H35.9986C35.4469 39.2643 34.9964 38.7994 35.028 38.2486C36.1962 17.8621 73.4995 22.1171 66.0089 43.3946C64.1279 48.2381 59.8953 49.5231 56.5293 52.6297C54.7556 54.4302 54.2083 56.675 54.1482 59.242C54.1351 59.8022 53.6875 60.263 53.1272 60.263H46.1415Z" fill="#CCD9FD" stroke="#1C1C1C" stroke-width="0.5" stroke-miterlimit="10" stroke-linejoin="round"/>
<path d="M54.3238 72.6357C54.2627 73.0761 53.9072 73.4149 53.4647 73.4588C52.3389 73.5704 51.1103 73.6418 49.7925 73.6467C48.3696 73.6517 47.0488 73.5777 45.8468 73.4588C45.4036 73.4149 45.0477 73.0753 44.9869 72.6341C44.8246 71.4573 44.7128 70.1057 44.7201 68.6106C44.7267 67.2102 44.8365 65.9386 44.9923 64.8228C45.0511 64.4013 45.38 64.0698 45.8012 64.0084C46.8859 63.8502 48.1209 63.7379 49.4808 63.7289C50.9821 63.7188 52.336 63.8371 53.5086 64.0083C53.9294 64.0698 54.258 64.4009 54.317 64.8221C54.4747 65.9482 54.586 67.2356 54.5909 68.655C54.5958 70.1337 54.4852 71.4713 54.3238 72.6357Z" fill="#CCD9FD" stroke="#1C1C1C" stroke-width="0.5" stroke-miterlimit="10" stroke-linejoin="round"/>
</svg>
