<svg width="102" height="102" viewBox="0 0 102 102" fill="none" xmlns="http://www.w3.org/2000/svg">
<rect x="0.5" y="0.5" width="101" height="101" rx="4.5" stroke="#9747FF" stroke-dasharray="10 5"/>
<path d="M62.5926 37.1423C62.5926 43.6435 57.2472 48.9214 50.6497 48.9214C44.0522 48.9214 38.2253 43.2101 38.2253 36.6993C37.58 25.7292 44.0426 25.3632 50.6401 25.3632C57.2376 25.3632 62.949 25.9314 62.583 37.1423H62.5926Z" fill="url(#paint0_linear_18011_8508)" stroke="#1C1C1C" stroke-width="0.5" stroke-miterlimit="10"/>
<path d="M50.3604 45.7623C57.0927 45.7623 62.5441 40.2147 62.5441 33.3764C62.5441 26.5382 57.0927 21.0001 50.3604 21.0001C43.6281 21.0001 38.1768 26.5478 38.1768 33.386C38.1768 40.2243 43.6281 45.772 50.3604 45.772V45.7623Z" fill="url(#paint1_linear_18011_8508)" stroke="#1C1C1C" stroke-width="0.5" stroke-miterlimit="10"/>
<path d="M50.389 42.9789C55.6862 42.9789 59.9818 38.6833 59.9818 33.386C59.9818 28.0888 55.6958 23.7836 50.389 23.7836C45.0821 23.7836 40.7961 28.0792 40.7961 33.3764C40.7961 38.6736 45.0917 42.9692 50.389 42.9692V42.9789Z" fill="url(#paint2_linear_18011_8508)" stroke="#1C1C1C" stroke-width="0.5" stroke-miterlimit="10"/>
<path d="M54.324 29.4605C53.2851 28.925 52.0214 29.332 51.4859 30.3602L51.2502 30.8207L53.6707 34.8155C53.7242 34.9012 53.7564 34.9869 53.7992 35.0725L55.2344 32.2987C55.7698 31.2598 55.3629 29.996 54.3347 29.4605H54.324Z" fill="white"/>
<path d="M52.3855 35.5867C51.7001 34.4622 50.2328 32.0203 49.5366 30.8743C48.4442 28.2825 44.8457 29.2036 45.3598 31.9346C45.5418 32.5344 45.574 32.4594 45.9595 33.1127C46.8806 34.6121 47.9837 36.5078 48.8619 37.8786C50.4256 40.0635 53.6814 37.9643 52.439 35.651L52.4069 35.5867H52.3855Z" fill="white"/>
<path d="M50.6108 68.1552V45.7623" stroke="#1C1C1C" stroke-width="0.5" stroke-linecap="round" stroke-linejoin="round"/>
<path d="M50.7256 68.1551L50.7448 67.9625C50.7448 64.5049 49.2809 52.5813 37.7521 53.111C37.3765 53.1302 37.7521 55.6151 37.7521 55.6151C37.7521 55.6151 37.2706 63.0216 50.7352 68.1455L50.7256 68.1551Z" fill="#4169E1" stroke="#1C1C1C" stroke-width="0.5" stroke-linejoin="round"/>
<path d="M51.0432 61.1627L51.0239 60.9701C51.0239 57.4739 52.2856 45.6755 64.1804 46.446L64.0166 48.6323C64.0166 48.6323 64.4982 56.0389 51.0336 61.1627H51.0432Z" fill="#4169E1" stroke="#1C1C1C" stroke-width="0.5" stroke-linejoin="round"/>
<path d="M50.7268 65.651L50.7461 65.4584C50.7461 61.8852 50.4282 51.8686 37.7534 53.1207C37.7534 53.1207 37.2718 60.5272 50.7364 65.651H50.7268Z" fill="#2AA5A5" stroke="#1C1C1C" stroke-width="0.5" stroke-linejoin="round"/>
<path d="M51.0432 58.6586L51.0239 58.4659C51.0239 54.8927 51.3418 44.8761 64.0166 46.1282C64.0166 46.1282 64.4982 53.5347 51.0336 58.6586H51.0432Z" fill="#2AA5A5" stroke="#1C1C1C" stroke-width="0.5" stroke-linejoin="round"/>
<path d="M64.5264 74.743H38.4736C37.6598 74.743 37 75.4027 37 76.2166V79.1734C37 79.9872 37.6598 80.647 38.4736 80.647H64.5264C65.3402 80.647 66 79.9872 66 79.1734V76.2166C66 75.4027 65.3402 74.743 64.5264 74.743Z" fill="#FF9500" stroke="#1C1C1C" stroke-width="0.5" stroke-linejoin="round"/>
<path d="M64.5264 66.4218H38.4736C37.6598 66.4218 37 67.0815 37 67.8953V70.8522C37 71.666 37.6598 72.3258 38.4736 72.3258H64.5264C65.3402 72.3258 66 71.666 66 70.8522V67.8953C66 67.0815 65.3402 66.4218 64.5264 66.4218Z" fill="#FFE2C8" stroke="#1C1C1C" stroke-width="0.5" stroke-linejoin="round"/>
<path d="M64.5264 72.3255H38.4736C37.6598 72.3255 37 72.9853 37 73.7991V76.7559C37 77.5698 37.6598 78.2295 38.4736 78.2295H64.5264C65.3402 78.2295 66 77.5698 66 76.7559V73.7991C66 72.9853 65.3402 72.3255 64.5264 72.3255Z" fill="#FFE2C8" stroke="#1C1C1C" stroke-width="0.5" stroke-linejoin="round"/>
<defs>
<linearGradient id="paint0_linear_18011_8508" x1="63.3873" y1="44.3933" x2="38.2246" y2="36.993" gradientUnits="userSpaceOnUse">
<stop stop-color="#DC0BFE"/>
<stop offset="1" stop-color="#1DBCF7"/>
</linearGradient>
<linearGradient id="paint1_linear_18011_8508" x1="63.3301" y1="41.0105" x2="38.0203" y2="33.9466" gradientUnits="userSpaceOnUse">
<stop stop-color="#F5B8FF"/>
<stop offset="1" stop-color="#9CE2FC"/>
</linearGradient>
<linearGradient id="paint2_linear_18011_8508" x1="60.6007" y1="39.2893" x2="40.7196" y2="33.6513" gradientUnits="userSpaceOnUse">
<stop stop-color="#DC0BFE"/>
<stop offset="1" stop-color="#1DBCF7"/>
</linearGradient>
</defs>
</svg>
