<svg width="62" height="62" viewBox="0 0 62 62" fill="none" xmlns="http://www.w3.org/2000/svg">
<g clip-path="url(#clip0_18011_6743)">
<path d="M60.083 60.125H27.5015L29.1763 18.6433H58.4173L60.0921 60.125H60.083Z" fill="#FF9500" stroke="#1C1C1C" stroke-linejoin="round"/>
<path d="M60.083 56.2181H27.5015L29.1763 14.7364H58.4173L60.0921 56.2181H60.083Z" fill="#FFE2C8" stroke="#1C1C1C" stroke-linejoin="round"/>
<path d="M44.9363 1.875H42.6575C39.143 1.875 36.2693 5.03484 36.2693 8.92154V20.6018H38.2828V8.92154C38.2828 6.25637 40.2413 4.09597 42.6575 4.09597H44.9363C47.3433 4.09597 49.3019 6.25637 49.3019 8.92154V20.6018H51.3153V8.92154C51.3153 5.04493 48.4507 1.875 44.9363 1.875Z" fill="white" stroke="#1C1C1C" stroke-linecap="round" stroke-linejoin="round"/>
<path d="M39.4086 19.2995H35.2627V23.7112H39.4086V19.2995Z" fill="#FF9500" stroke="#1C1C1C" stroke-linejoin="round"/>
<path d="M52.3312 19.2995H48.1853V23.7112H52.3312V19.2995Z" fill="#FF9500" stroke="#1C1C1C" stroke-linejoin="round"/>
<path d="M26.8794 36.5727C26.8794 34.8363 24.4083 35.0887 23.6121 35.0887V38.0466C24.3991 38.0466 26.8794 38.2485 26.8794 36.5626V36.5727ZM26.3485 32.3932C26.3485 30.7982 24.2802 31.0304 23.6121 31.0304V33.7258C24.2802 33.7258 26.3485 33.9075 26.3485 32.3831V32.3932Z" fill="#1C1C1C"/>
<path d="M42.1357 52.1194C28.8285 52.3718 15.5305 52.3415 2.22333 52.1194C1.83894 43.2658 1.82063 38.8441 2.10435 29.9905C15.4847 29.8188 28.8651 29.7986 42.2455 29.9905C42.5292 38.8441 42.52 43.2658 42.1265 52.1194H42.1357Z" fill="#2AA5A5" stroke="#1C1C1C" stroke-linejoin="round"/>
<path d="M42.2456 49.1312C28.8652 49.323 15.4849 49.3028 2.10448 49.1312C1.82076 40.2776 1.82992 35.8559 2.22346 27.0023C15.5306 26.7802 28.8286 26.7499 42.1358 27.0023C42.5202 35.8559 42.5385 40.2776 42.2548 49.1312H42.2456Z" fill="#B9E5DE" stroke="#1C1C1C" stroke-linejoin="round"/>
<path d="M35.5737 46.466C26.6413 46.5064 17.7088 46.5064 8.77637 46.466C8.73976 44.4873 7.26627 42.8721 5.46331 42.862C5.4267 39.0157 5.43585 37.0976 5.49991 33.2613C7.30288 33.2613 8.78552 31.636 8.83128 29.6573C17.7271 29.6068 26.623 29.6068 35.5188 29.6573C35.5554 31.636 37.0472 33.2613 38.8502 33.2613C38.9142 37.1077 38.9234 39.0258 38.8868 42.862C37.0838 42.862 35.6103 44.4772 35.5737 46.466Z" fill="#2AA5A5" stroke="#1C1C1C" stroke-linejoin="round"/>
<path d="M22.1567 46.345C26.2569 46.345 29.5791 42.6804 29.5791 38.1576C29.5791 33.6349 26.2569 29.9703 22.1567 29.9703C18.0566 29.9703 14.7344 33.6349 14.7344 38.1576C14.7344 42.6804 18.0566 46.345 22.1567 46.345Z" fill="#B9E5DE" stroke="#1C1C1C" stroke-linejoin="round"/>
<path d="M25.6345 35.8558C25.726 36.8047 25.3691 37.3802 24.8291 37.7032C25.7351 37.9556 26.3026 38.5815 26.1836 39.9747C26.0463 41.7111 24.9298 42.1755 23.3464 42.2865V43.5787C23.3464 43.8715 23.136 44.1037 22.8705 44.1037C22.6051 44.1037 22.3946 43.8715 22.3946 43.5787V42.3067C22.1475 42.3067 21.8913 42.3067 21.6442 42.2966V43.5787C21.6442 43.8715 21.4337 44.1037 21.1682 44.1037C20.9028 44.1037 20.6923 43.8715 20.6923 43.5787V42.2865C20.4727 42.2865 20.253 42.2764 20.0151 42.2764H19.4751C19.109 42.2764 18.8345 41.913 18.8985 41.5193C18.9443 41.2063 19.2005 40.9741 19.4843 40.9741C19.6673 40.9741 19.6673 40.9741 19.6673 40.9741C19.9327 40.9741 19.9968 40.752 20.0242 40.6006V35.664C19.9876 35.4419 19.8595 35.1794 19.4751 35.1794H19.3287C19.0358 35.1794 18.7979 34.9169 18.7979 34.5939C18.7979 34.2708 19.0358 34.0184 19.3195 34.0184H20.7106V32.7363C20.7106 32.4436 20.9211 32.2114 21.1866 32.2114C21.452 32.2114 21.6625 32.4436 21.6625 32.7363V33.978C21.9187 33.978 22.1567 33.968 22.4129 33.968V32.7363C22.4129 32.4436 22.6234 32.2114 22.8888 32.2114C23.1543 32.2114 23.3648 32.4436 23.3648 32.7363V34.0184C24.582 34.1295 25.5521 34.5737 25.6528 35.876L25.6345 35.8558ZM24.3074 39.7526C24.3074 38.3392 22.294 38.5411 21.6533 38.5411V40.9539C22.294 40.9539 24.3074 41.1154 24.3074 39.7425V39.7526ZM23.8773 36.3605C23.8773 35.0683 22.1933 35.2602 21.6533 35.2602V37.4508C22.1933 37.4508 23.8773 37.5922 23.8773 36.3605Z" fill="#1C1C1C"/>
</g>
<defs>
<clipPath id="clip0_18011_6743">
<rect width="62" height="62" rx="5" fill="white"/>
</clipPath>
</defs>
</svg>
