<svg width="62" height="62" viewBox="0 0 62 62" fill="none" xmlns="http://www.w3.org/2000/svg">
<g clip-path="url(#clip0_18011_5316)">
<g clip-path="url(#clip1_18011_5316)">
<mask id="mask0_18011_5316" style="mask-type:alpha" maskUnits="userSpaceOnUse" x="15" y="2" width="49" height="57">
<path d="M16.2519 58.0683H62.9993V27.2609L49.1359 3L21.7943 18.7888L24.1049 24.5652L21.0241 36.118L15.6328 47.6708L16.2519 58.0683Z" fill="#D9D9D9" stroke="black" stroke-width="0.5"/>
</mask>
<g mask="url(#mask0_18011_5316)">
<path d="M61.5746 27.0406C48.5326 34.8323 35.3461 42.3724 22.0571 49.734C17.1128 42.0075 14.8174 38.0481 10.5385 29.9394C23.6955 22.1788 36.9398 14.5515 50.2833 7.11552C55.1302 14.8979 57.3931 18.876 61.5746 27.0406Z" fill="#FF9500" stroke="#1C1C1C" stroke-width="0.5" stroke-linejoin="round"/>
<path d="M60.1407 24.2923C46.993 32.0691 33.73 39.664 20.3959 47.1162C15.549 39.3338 13.2861 35.3557 9.1046 27.1912C22.1606 19.4238 35.3191 11.835 48.6221 4.49773C53.5665 12.2242 55.8618 16.1836 60.1407 24.2923Z" fill="#FFE2C8" stroke="#1C1C1C" stroke-width="0.5" stroke-linejoin="round"/>
<path d="M52.163 25.6897C43.335 30.8024 34.4965 35.878 25.6313 40.9258C24.5781 39.1671 22.2876 38.5614 20.4974 39.5786C18.4841 36.148 17.5041 34.4227 15.5882 30.9362C17.3691 29.9027 18.0038 27.6063 17.0237 25.8056C25.8017 20.6999 34.6077 15.643 43.4417 10.6347C44.503 12.3888 46.8063 12.998 48.5965 11.9807C50.6423 15.3927 51.6385 17.1086 53.5869 20.5766C51.8013 21.6019 51.1747 23.8936 52.163 25.6897Z" fill="#FF9500" stroke="#1C1C1C" stroke-width="0.5" stroke-linejoin="round"/>
<path d="M38.8162 33.2051C42.8723 30.8758 44.2733 25.6954 41.9439 21.6393C39.6146 17.5832 34.4342 16.1822 30.3781 18.5115C26.3219 20.8408 24.921 26.0212 27.2503 30.0773C29.5796 34.1334 34.76 35.5344 38.8162 33.2051Z" fill="#FFE2C8" stroke="#1C1C1C" stroke-width="0.5" stroke-linejoin="round"/>
<path d="M36.8585 21.8186C37.4352 22.6173 37.3825 23.3366 37.0116 23.9345C38.0397 23.6483 38.9192 23.882 39.5256 25.1976C40.2783 26.8326 39.4247 27.8878 37.9044 28.885L38.572 30.0474C38.7221 30.3089 38.6326 30.6397 38.371 30.7899C38.1095 30.9401 37.7787 30.8507 37.6285 30.5892L36.9744 29.4501C36.7315 29.5896 36.4793 29.7344 36.2264 29.8672L36.8886 31.0203C37.0388 31.2818 36.9492 31.6126 36.6877 31.7627C36.4261 31.9129 36.0953 31.8236 35.9452 31.5621L35.2776 30.3997C35.0581 30.5257 34.8332 30.6424 34.6044 30.7739L34.0673 31.0823C33.7077 31.2888 33.2471 31.1249 33.1041 30.7353C32.9872 30.4237 33.1215 30.0734 33.4064 29.9098C33.5885 29.8052 33.5812 29.8032 33.5812 29.8032C33.8427 29.653 33.7955 29.4194 33.7411 29.2706L32.2612 26.6936L31.1968 24.8402C31.0515 24.6629 30.7813 24.4952 30.3984 24.7151C30.3984 24.7151 30.3984 24.7151 30.2462 24.7963C29.9567 24.9626 29.5844 24.8659 29.4182 24.5765C29.252 24.2871 29.3541 23.9242 29.639 23.7606L31.0168 22.9694L30.3546 21.8163C30.2045 21.5548 30.294 21.224 30.5555 21.0738C30.8171 20.9237 31.1479 21.013 31.298 21.2745L31.9388 22.3903C32.191 22.2454 32.4238 22.0993 32.676 21.9545L32.0406 20.848C31.8905 20.5866 31.98 20.2558 32.2416 20.1056C32.5031 19.9554 32.8339 20.0448 32.9841 20.3063L33.6463 21.4594C34.9102 20.8701 36.0975 20.7098 36.8686 21.8252L36.8585 21.8186ZM37.5495 26.0716C36.823 24.8065 34.9333 26.1338 34.2981 26.4985L35.5394 28.6601C36.1746 28.2953 38.2546 27.2995 37.5469 26.067L37.5495 26.0716ZM35.3738 23.2672C34.7063 22.1047 33.1428 23.2323 32.6057 23.5407L33.7344 25.5061C34.2715 25.1977 36.0065 24.3689 35.3738 23.2672Z" fill="#1C1C1C"/>
<path d="M60.7698 56.4132C45.5798 56.6753 30.3898 56.6472 15.1998 56.4132C14.7599 47.2507 14.7412 42.6741 15.0688 33.5116C30.343 33.3337 45.6266 33.315 60.9008 33.5116C61.2284 42.6741 61.2097 47.2507 60.7698 56.4132Z" fill="#FF9500" stroke="#1C1C1C" stroke-width="0.5" stroke-linejoin="round"/>
<path d="M60.893 53.3183C45.6188 53.5148 30.3352 53.4961 15.061 53.3183C14.7334 44.1557 14.7521 39.5792 15.192 30.4166C30.382 30.1827 45.572 30.1546 60.762 30.4166C61.2018 39.5792 61.2206 44.1557 60.893 53.3183Z" fill="#FFE2C8" stroke="#1C1C1C" stroke-width="0.5" stroke-linejoin="round"/>
<path d="M53.2806 50.5578C43.079 50.5952 32.8869 50.5952 22.6853 50.5578C22.6479 48.5082 20.9632 46.8423 18.9042 46.8329C18.8668 42.8553 18.8761 40.8712 18.951 36.8936C21.01 36.8842 22.704 35.2089 22.7508 33.1593C32.9056 33.1031 43.0603 33.1031 53.215 33.1593C53.2618 35.2089 54.9559 36.8842 57.0149 36.8936C57.0898 40.8712 57.0991 42.8553 57.0617 46.8329C55.0027 46.8329 53.318 48.5082 53.2806 50.5578Z" fill="#FF9500" stroke="#1C1C1C" stroke-width="0.5" stroke-linejoin="round"/>
<path d="M37.9642 50.4285C42.6416 50.4285 46.4363 46.6338 46.4363 41.9564C46.4363 37.279 42.6416 33.4844 37.9642 33.4844C33.2868 33.4844 29.4922 37.279 29.4922 41.9564C29.4922 46.6338 33.2868 50.4285 37.9642 50.4285Z" fill="#FFE2C8" stroke="#1C1C1C" stroke-width="0.5" stroke-linejoin="round"/>
<path d="M41.9349 39.5815C42.0372 40.5613 41.6333 41.1589 41.0139 41.4927C42.048 41.7565 42.6943 42.3971 42.565 43.8399C42.4035 45.6326 41.1378 46.1226 39.3228 46.2302V47.5707C39.3228 47.8722 39.0804 48.1145 38.7788 48.1145C38.4772 48.1145 38.2349 47.8722 38.2349 47.5707V46.2571C37.9548 46.2571 37.664 46.2571 37.3785 46.2464V47.5761C37.3785 47.8776 37.1362 48.1199 36.8346 48.1199C36.533 48.1199 36.2906 47.8776 36.2906 47.5761V46.2356C36.0375 46.2356 35.7843 46.2248 35.5204 46.2248H34.9011C34.4864 46.2248 34.1686 45.8534 34.2386 45.4442C34.2925 45.1158 34.5833 44.879 34.9119 44.879C35.1219 44.879 35.1165 44.8736 35.1165 44.8736C35.4181 44.8736 35.4935 44.6475 35.5204 44.4913V41.5196V39.3823C35.4827 39.1562 35.3319 38.8763 34.8903 38.8763C34.8903 38.8763 34.8903 38.8763 34.718 38.8709C34.384 38.8709 34.1094 38.6017 34.1094 38.2679C34.1094 37.9342 34.3787 37.6704 34.7072 37.6704H36.296V36.3406C36.296 36.0391 36.5384 35.7969 36.84 35.7969C37.1416 35.7969 37.3839 36.0391 37.3839 36.3406V37.6273C37.6748 37.6273 37.9494 37.6165 38.2403 37.6165V36.3406C38.2403 36.0391 38.4826 35.7969 38.7842 35.7969C39.0858 35.7969 39.3282 36.0391 39.3282 36.3406V37.6704C40.7177 37.7888 41.8272 38.241 41.9403 39.5923L41.9349 39.5815ZM40.4161 43.6138C40.4161 42.1549 38.1164 42.3648 37.3839 42.3648V44.8574C38.1164 44.8574 40.4161 45.0297 40.4161 43.6084V43.6138ZM39.926 40.0983C39.926 38.7578 38.0087 38.957 37.3893 38.957V41.2235C38.0087 41.2235 39.926 41.3689 39.926 40.0983Z" fill="#1C1C1C"/>
</g>
<path d="M11.2821 44.532C10.7397 44.532 10.2945 44.0991 10.2939 43.5567C10.2884 38.2432 11.4466 33.9956 16.013 31.3712C17.6478 30.2669 19.1972 29.1293 20.1132 27.4359C21.4454 25.0545 20.6284 21.5863 18.1067 20.4146C14.8449 18.7157 10.5475 20.5998 9.92711 24.2962C9.83472 24.8467 9.39491 25.3084 8.83674 25.3084H1.99859C1.44686 25.3084 0.996064 24.8452 1.03067 24.2946C2.19765 5.72714 36.2346 9.64003 29.3876 29.0896C27.6656 33.5236 23.7908 34.7 20.7093 37.544C19.1054 39.1721 18.597 41.1972 18.5318 43.5113C18.516 44.0714 18.0689 44.532 17.5085 44.532H11.2821Z" fill="#4169E1" stroke="#1C1C1C" stroke-width="0.5" stroke-miterlimit="10" stroke-linejoin="round"/>
<path d="M18.6992 55.7947C18.6392 56.2353 18.2836 56.5742 17.8411 56.6173C16.8276 56.7159 15.7242 56.7787 14.5423 56.7832C13.2647 56.7876 12.0769 56.7225 10.9935 56.6173C10.5502 56.5742 10.1941 56.2344 10.1343 55.7931C9.99046 54.7306 9.89216 53.5149 9.89875 52.1728C9.90602 50.6132 10.0532 49.2282 10.2459 48.0619C11.3836 47.8653 12.7349 47.7138 14.257 47.7037C15.9145 47.6926 17.3757 47.8523 18.5861 48.0619C18.7806 49.2355 18.9296 50.6354 18.9351 52.2134C18.9395 53.5406 18.8423 54.7436 18.6992 55.7947Z" fill="#4169E1" stroke="#1C1C1C" stroke-width="0.5" stroke-miterlimit="10" stroke-linejoin="round"/>
<path d="M11.2821 41.3133C10.7397 41.3133 10.2945 40.8803 10.2939 40.3379C10.2884 35.0245 11.4466 30.7769 16.013 28.1525C17.6478 27.0481 19.1972 25.9106 20.1132 24.2171C21.4454 21.8357 20.6284 18.3676 18.1067 17.1958C14.8449 15.497 10.5475 17.3811 9.92711 21.0775C9.83472 21.6279 9.39491 22.0897 8.83674 22.0897H1.99859C1.44686 22.0897 0.996064 21.6264 1.03067 21.0758C2.19765 2.50839 36.2346 6.42128 29.3876 25.8709C27.6656 30.3049 23.7908 31.4812 20.7093 34.3252C19.1054 35.9534 18.597 37.9784 18.5318 40.2926C18.516 40.8527 18.0689 41.3133 17.5085 41.3133H11.2821Z" fill="#CCD9FD" stroke="#1C1C1C" stroke-width="0.5" stroke-miterlimit="10" stroke-linejoin="round"/>
<path d="M18.6992 52.576C18.6392 53.0166 18.2836 53.3555 17.8411 53.3985C16.8276 53.4971 15.7242 53.56 14.5423 53.5644C13.2647 53.5689 12.0769 53.5038 10.9935 53.3985C10.5502 53.3554 10.1941 53.0157 10.1343 52.5743C9.99046 51.5119 9.89216 50.2961 9.89875 48.954C9.90461 47.6968 10.0014 46.5531 10.1396 45.5459C10.1975 45.1243 10.5265 44.7926 10.9478 44.7322C11.9264 44.592 13.0368 44.4931 14.257 44.4849C15.6061 44.4759 16.8251 44.58 17.8847 44.7321C18.3057 44.7926 18.6346 45.124 18.6926 45.5453C18.8326 46.562 18.9307 47.7202 18.9351 48.9946C18.9395 50.3218 18.8423 51.5249 18.6992 52.576Z" fill="#CCD9FD" stroke="#1C1C1C" stroke-width="0.5" stroke-miterlimit="10" stroke-linejoin="round"/>
</g>
</g>
<defs>
<clipPath id="clip0_18011_5316">
<rect width="62" height="62" rx="5" fill="white"/>
</clipPath>
<clipPath id="clip1_18011_5316">
<rect width="62" height="62" fill="white"/>
</clipPath>
</defs>
</svg>
