<svg width="102" height="102" viewBox="0 0 102 102" fill="none" xmlns="http://www.w3.org/2000/svg">
<rect x="0.5" y="0.5" width="101" height="101" rx="4.5" stroke="#8A38F5" stroke-dasharray="10 5"/>
<path d="M45.9897 46.1853C45.9897 43.3827 46.0558 40.6656 46.1758 38.0398C46.261 36.1777 47.6834 34.67 49.5466 34.6147C49.8888 34.6045 50.2027 34.326 50.2049 33.9837C50.2133 32.6645 50.2229 31.3634 50.2337 30.0812C50.2362 29.7795 50.3671 29.479 50.6389 29.3482C50.8654 29.2392 51.107 29.1831 51.3621 29.204C51.5409 29.2184 51.7128 29.2695 51.8771 29.3486C52.1485 29.4792 52.2791 29.7791 52.2817 30.0803C52.2932 31.3752 52.3038 32.691 52.3129 34.0268C52.3151 34.3488 52.606 34.6113 52.9278 34.6222C54.6574 34.6809 55.9928 36.061 56.1022 37.7881C56.2626 40.3198 56.3576 42.9656 56.3672 45.7169C56.3781 48.8098 56.2807 51.7717 56.1021 54.5905C55.9924 56.322 54.6748 57.7143 52.9412 57.7843C52.6159 57.7974 52.3144 58.0635 52.3122 58.3891C52.3031 59.7185 52.2929 61.0279 52.2814 62.3164C52.2789 62.5971 52.1665 62.8771 51.9241 63.0186C51.7169 63.1395 51.4944 63.2126 51.2586 63.2126C51.0224 63.2126 50.7996 63.1396 50.592 63.0187C50.3491 62.8772 50.2363 62.5967 50.2339 62.3156C50.2231 61.0402 50.2134 59.7465 50.205 58.4342C50.2027 58.0877 49.8773 57.8053 49.5311 57.7932C47.664 57.7282 46.2615 56.207 46.1761 54.3407C46.0559 51.7118 45.9897 48.9916 45.9897 46.1853Z" fill="#E8EDFA" stroke="#1C1C1C" stroke-width="0.5" stroke-miterlimit="10"/>
<path fill-rule="evenodd" clip-rule="evenodd" d="M56.3562 47.9874C56.3622 48.4291 56.366 48.8736 56.3676 49.3209C56.3785 52.4138 56.2811 55.3757 56.1025 58.1945C55.9928 59.926 54.6752 61.3183 52.9416 61.3883C52.6163 61.4014 52.3148 61.6675 52.3126 61.9931C52.3035 63.3225 52.2933 64.6319 52.2818 65.9204C52.2793 66.201 52.1669 66.481 51.9245 66.6225C51.7173 66.7435 51.4948 66.8165 51.259 66.8165C51.0228 66.8165 50.8 66.7436 50.5924 66.6227C50.3495 66.4812 50.2367 66.2007 50.2343 65.9195C50.2235 64.6442 50.2138 63.3504 50.2054 62.0382C50.2031 61.6917 49.8777 61.4092 49.5315 61.3972C47.6644 61.3322 46.2619 59.8109 46.1765 57.9447C46.0563 55.3158 45.9901 52.5956 45.9901 49.7893C45.9901 49.1848 45.9932 48.5842 45.9992 47.9877C46.0212 50.1599 46.0822 52.2784 46.1765 54.3407C46.2619 56.2069 47.6644 57.7282 49.5315 57.7932C49.8777 57.8053 50.2031 58.0877 50.2054 58.4342C50.2138 59.7464 50.2235 61.0402 50.2343 62.3156C50.2367 62.5967 50.3495 62.8772 50.5924 63.0187C50.8 63.1396 51.0228 63.2126 51.259 63.2126C51.4948 63.2126 51.7173 63.1395 51.9245 63.0185C52.1669 62.8771 52.2793 62.597 52.2818 62.3164C52.2933 61.0279 52.3035 59.7185 52.3126 58.3891C52.3148 58.0635 52.6163 57.7974 52.9416 57.7843C54.6752 57.7143 55.9928 56.322 56.1025 54.5905C56.2369 52.4688 56.3253 50.266 56.3562 47.9874Z" fill="#4169E1"/>
<path d="M56.3562 47.9874L56.1063 47.984L56.6062 47.984L56.3562 47.9874ZM56.3676 49.3209L56.1176 49.3218L56.1176 49.3218L56.3676 49.3209ZM56.1025 58.1945L56.352 58.2103L56.352 58.2103L56.1025 58.1945ZM52.9416 61.3883L52.9315 61.1385L52.9315 61.1385L52.9416 61.3883ZM52.3126 61.9931L52.5626 61.9948L52.5626 61.9948L52.3126 61.9931ZM52.2818 65.9204L52.5318 65.9226L52.5318 65.9226L52.2818 65.9204ZM51.9245 66.6225L51.7985 66.4066L51.7985 66.4066L51.9245 66.6225ZM50.5924 66.6227L50.7183 66.4067L50.7183 66.4067L50.5924 66.6227ZM50.2343 65.9195L50.4843 65.9174L50.4843 65.9174L50.2343 65.9195ZM50.2054 62.0382L49.9554 62.0398L49.9554 62.0398L50.2054 62.0382ZM49.5315 61.3972L49.5402 61.1473L49.5402 61.1473L49.5315 61.3972ZM46.1765 57.9447L45.9268 57.9561L45.9268 57.9561L46.1765 57.9447ZM45.9992 47.9877L45.7492 47.9852L46.2492 47.9852L45.9992 47.9877ZM46.1765 54.3407L45.9268 54.3521L45.9268 54.3521L46.1765 54.3407ZM49.5315 57.7932L49.5402 57.5433L49.5402 57.5433L49.5315 57.7932ZM50.2054 58.4342L49.9554 58.4358L49.9554 58.4358L50.2054 58.4342ZM50.2343 62.3156L50.4843 62.3134L50.4843 62.3134L50.2343 62.3156ZM50.5924 63.0187L50.7183 62.8027L50.7183 62.8027L50.5924 63.0187ZM51.9245 63.0185L51.7985 62.8027L51.7985 62.8027L51.9245 63.0185ZM52.2818 62.3164L52.5318 62.3187L52.5318 62.3187L52.2818 62.3164ZM52.3126 58.3891L52.5626 58.3908L52.5626 58.3908L52.3126 58.3891ZM52.9416 57.7843L52.9315 57.5345L52.9315 57.5345L52.9416 57.7843ZM56.1025 54.5905L56.352 54.6063L56.352 54.6063L56.1025 54.5905ZM56.3562 47.9874L56.6062 47.984C56.6122 48.4265 56.616 48.8719 56.6176 49.32L56.3676 49.3209L56.1176 49.3218C56.1161 48.8753 56.1122 48.4316 56.1063 47.9907L56.3562 47.9874ZM56.3676 49.3209L56.6176 49.32C56.6285 52.4187 56.5309 55.3862 56.352 58.2103L56.1025 58.1945L55.853 58.1787C56.0312 55.3652 56.1285 52.4088 56.1176 49.3218L56.3676 49.3209ZM56.1025 58.1945L56.352 58.2103C56.2349 60.0591 54.8235 61.5625 52.9517 61.638L52.9416 61.3883L52.9315 61.1385C54.5268 61.0741 55.7507 59.793 55.853 58.1787L56.1025 58.1945ZM52.9416 61.3883L52.9517 61.638C52.7362 61.6467 52.5637 61.825 52.5626 61.9948L52.3126 61.9931L52.0626 61.9914C52.0658 61.51 52.4964 61.156 52.9315 61.1385L52.9416 61.3883ZM52.3126 61.9931L52.5626 61.9948C52.5535 63.3244 52.5433 64.6339 52.5318 65.9226L52.2818 65.9204L52.0318 65.9182C52.0433 64.6298 52.0535 63.3207 52.0626 61.9914L52.3126 61.9931ZM52.2818 65.9204L52.5318 65.9226C52.5288 66.2588 52.3934 66.6383 52.0506 66.8384L51.9245 66.6225L51.7985 66.4066C51.9403 66.3238 52.0298 66.1433 52.0318 65.9182L52.2818 65.9204ZM51.9245 66.6225L52.0506 66.8384C51.8139 66.9766 51.5483 67.0665 51.259 67.0665V66.8165V66.5665C51.4414 66.5665 51.6208 66.5104 51.7985 66.4066L51.9245 66.6225ZM51.259 66.8165V67.0665C50.9695 67.0665 50.7036 66.9768 50.4666 66.8387L50.5924 66.6227L50.7183 66.4067C50.8963 66.5104 51.0761 66.5665 51.259 66.5665V66.8165ZM50.5924 66.6227L50.4666 66.8387C50.123 66.6386 49.9872 66.2584 49.9843 65.9217L50.2343 65.9195L50.4843 65.9174C50.4862 66.1429 50.576 66.3238 50.7183 66.4067L50.5924 66.6227ZM50.2343 65.9195L49.9843 65.9217C49.9735 64.6462 49.9638 63.3522 49.9554 62.0398L50.2054 62.0382L50.4554 62.0366C50.4638 63.3487 50.4735 64.6423 50.4843 65.9174L50.2343 65.9195ZM50.2054 62.0382L49.9554 62.0398C49.9542 61.8514 49.7605 61.6553 49.5228 61.647L49.5315 61.3972L49.5402 61.1473C49.995 61.1632 50.4521 61.532 50.4554 62.0366L50.2054 62.0382ZM49.5315 61.3972L49.5228 61.647C47.5132 61.577 46.0175 59.9398 45.9268 57.9561L46.1765 57.9447L46.4263 57.9333C46.5063 59.6821 47.8157 61.0873 49.5402 61.1473L49.5315 61.3972ZM46.1765 57.9447L45.9268 57.9561C45.8064 55.3235 45.7401 52.5995 45.7401 49.7893H45.9901H46.2401C46.2401 52.5917 46.3062 55.308 46.4263 57.9333L46.1765 57.9447ZM45.9901 49.7893H45.7401C45.7401 49.1839 45.7432 48.5826 45.7492 47.9852L45.9992 47.9877L46.2492 47.9903C46.2432 48.5859 46.2401 49.1856 46.2401 49.7893H45.9901ZM46.1765 54.3407L45.9268 54.3521C45.8323 52.2869 45.7712 50.1655 45.7492 47.9903L45.9992 47.9877L46.2492 47.9852C46.2711 50.1543 46.3321 52.2698 46.4263 54.3293L46.1765 54.3407ZM49.5315 57.7932L49.5228 58.043C47.5132 57.973 46.0175 56.3358 45.9268 54.3521L46.1765 54.3407L46.4263 54.3293C46.5063 56.0781 47.8157 57.4833 49.5402 57.5433L49.5315 57.7932ZM50.2054 58.4342L49.9554 58.4358C49.9542 58.2475 49.7605 58.0513 49.5228 58.043L49.5315 57.7932L49.5402 57.5433C49.995 57.5592 50.4521 57.928 50.4554 58.4326L50.2054 58.4342ZM50.2343 62.3156L49.9843 62.3177C49.9735 61.0422 49.9638 59.7482 49.9554 58.4358L50.2054 58.4342L50.4554 58.4326C50.4638 59.7447 50.4735 61.0383 50.4843 62.3134L50.2343 62.3156ZM50.5924 63.0187L50.4666 63.2347C50.123 63.0346 49.9872 62.6545 49.9843 62.3177L50.2343 62.3156L50.4843 62.3134C50.4862 62.5389 50.576 62.7198 50.7183 62.8027L50.5924 63.0187ZM51.259 63.2126V63.4626C50.9695 63.4626 50.7036 63.3728 50.4666 63.2347L50.5924 63.0187L50.7183 62.8027C50.8963 62.9064 51.0761 62.9626 51.259 62.9626V63.2126ZM51.9245 63.0185L52.0506 63.2344C51.8139 63.3727 51.5483 63.4626 51.259 63.4626V63.2126V62.9626C51.4414 62.9626 51.6208 62.9064 51.7985 62.8027L51.9245 63.0185ZM52.2818 62.3164L52.5318 62.3187C52.5288 62.6548 52.3934 63.0343 52.0506 63.2344L51.9245 63.0185L51.7985 62.8027C51.9403 62.7198 52.0298 62.5393 52.0318 62.3142L52.2818 62.3164ZM52.3126 58.3891L52.5626 58.3908C52.5535 59.7204 52.5433 61.0299 52.5318 62.3187L52.2818 62.3164L52.0318 62.3142C52.0433 61.0258 52.0535 59.7167 52.0626 58.3874L52.3126 58.3891ZM52.9416 57.7843L52.9517 58.0341C52.7362 58.0427 52.5637 58.2211 52.5626 58.3908L52.3126 58.3891L52.0626 58.3874C52.0658 57.906 52.4964 57.552 52.9315 57.5345L52.9416 57.7843ZM56.1025 54.5905L56.352 54.6063C56.2349 56.4551 54.8235 57.9586 52.9517 58.0341L52.9416 57.7843L52.9315 57.5345C54.5268 57.4701 55.7507 56.189 55.853 54.5747L56.1025 54.5905ZM56.3562 47.9874L56.6062 47.9907C56.5753 50.2737 56.4867 52.4806 56.352 54.6063L56.1025 54.5905L55.853 54.5747C55.9871 52.457 56.0754 50.2584 56.1063 47.984L56.3562 47.9874Z" fill="#1C1C1C"/>
<path d="M33.8815 39.2683C33.8861 36.3363 33.9535 33.4776 34.0744 30.6957C34.153 28.8889 35.5429 27.4299 37.3508 27.3823C37.6786 27.3737 37.9786 27.107 37.9807 26.7791C37.989 25.4637 37.9982 24.1658 38.0086 22.8859C38.011 22.5901 38.1364 22.2953 38.3999 22.161C38.6303 22.0436 38.8765 21.9826 39.1368 22.0043C39.3207 22.0196 39.4974 22.0752 39.6661 22.1613C39.9288 22.2954 40.0536 22.5896 40.0561 22.8845C40.0671 24.1683 40.0773 25.4721 40.0862 26.7947C40.0884 27.1156 40.3793 27.3768 40.7001 27.3859C42.4386 27.4353 43.7912 28.8158 43.9013 30.5515C44.0567 33.0017 44.1541 35.5343 44.1805 38.1443C44.2175 41.788 44.113 45.2864 43.901 48.627C43.7906 50.3674 42.4588 51.7611 40.716 51.8217C40.3911 51.833 40.0878 52.0984 40.0857 52.4235C40.0771 53.7382 40.0669 55.0346 40.0559 56.3108C40.0535 56.5855 39.946 56.8596 39.7121 57.0038C39.5012 57.1339 39.2742 57.2127 39.0332 57.2127C38.7919 57.2127 38.5646 57.1339 38.3533 57.004C38.1189 56.8598 38.0111 56.5851 38.0088 56.3099C37.9984 55.0378 37.9892 53.7471 37.9808 52.4396C37.9786 52.1076 37.6674 51.8369 37.3356 51.8262C35.5232 51.7678 34.153 50.2949 34.0743 48.4833C33.9445 45.4986 33.8761 42.4251 33.8808 39.267L33.8815 39.2683Z" fill="#E8EDFA" stroke="#1C1C1C" stroke-width="0.5" stroke-miterlimit="10"/>
<path fill-rule="evenodd" clip-rule="evenodd" d="M44.1761 41.3905C44.1776 41.5096 44.179 41.6289 44.1802 41.7483C44.2172 45.392 44.1127 48.8904 43.9008 52.231C43.7903 53.9714 42.4585 55.3651 40.7158 55.4257C40.3909 55.437 40.0876 55.7024 40.0854 56.0275C40.0768 57.3422 40.0666 58.6386 40.0556 59.9147C40.0532 60.1894 39.9457 60.4636 39.7119 60.6078C39.5009 60.7378 39.2739 60.8167 39.0329 60.8167C38.7917 60.8167 38.5644 60.7379 38.3531 60.608C38.1186 60.4638 38.0108 60.1891 38.0085 59.9139C37.9981 58.6418 37.9889 57.3511 37.9805 56.0436C37.9784 55.7115 37.6671 55.4409 37.3353 55.4302C35.5229 55.3718 34.1527 53.8989 34.074 52.0873C33.9442 49.1026 33.8758 46.0291 33.8805 42.871L33.8812 42.8723C33.882 42.3863 33.8845 41.9023 33.8886 41.4203C33.9103 43.8262 33.9739 46.1812 34.074 48.4833C34.1527 50.2949 35.5229 51.7678 37.3353 51.8262C37.6671 51.8369 37.9784 52.1076 37.9805 52.4396C37.9889 53.7471 37.9981 55.0378 38.0085 56.3099C38.0108 56.5851 38.1186 56.8598 38.3531 57.004C38.5644 57.1339 38.7917 57.2127 39.0329 57.2127C39.2739 57.2127 39.5009 57.1339 39.7119 57.0038C39.9457 56.8596 40.0532 56.5854 40.0556 56.3108C40.0666 55.0346 40.0768 53.7382 40.0854 52.4235C40.0876 52.0984 40.3909 51.833 40.7158 51.8217C42.4585 51.7611 43.7903 50.3674 43.9008 48.627C44.049 46.2906 44.1447 43.877 44.1761 41.3905Z" fill="#4169E1"/>
<path d="M44.1761 41.3905L43.9262 41.3874L44.4261 41.3874L44.1761 41.3905ZM44.1802 41.7483L43.9302 41.7509L43.9302 41.7508L44.1802 41.7483ZM43.9008 52.231L44.1503 52.2469L44.1503 52.2469L43.9008 52.231ZM40.7158 55.4257L40.7071 55.1759L40.7071 55.1759L40.7158 55.4257ZM40.0854 56.0275L40.3354 56.0291L40.3354 56.0291L40.0854 56.0275ZM40.0556 59.9147L40.3056 59.9169L40.3056 59.9169L40.0556 59.9147ZM39.7119 60.6078L39.5807 60.395L39.5807 60.395L39.7119 60.6078ZM38.3531 60.608L38.2221 60.8209L38.2221 60.8209L38.3531 60.608ZM38.0085 59.9139L37.7585 59.9159L37.7585 59.9159L38.0085 59.9139ZM37.9805 56.0436L37.7305 56.0452L37.7305 56.0452L37.9805 56.0436ZM37.3353 55.4302L37.3433 55.1803L37.3433 55.1803L37.3353 55.4302ZM34.074 52.0873L33.8242 52.0981L33.8242 52.0981L34.074 52.0873ZM33.8805 42.871L33.6305 42.8707L33.6321 41.8263L34.1036 42.7582L33.8805 42.871ZM33.8812 42.8723L34.1312 42.8727L34.1295 43.9168L33.6581 42.9852L33.8812 42.8723ZM33.8886 41.4203L33.6386 41.4182L34.1386 41.4181L33.8886 41.4203ZM34.074 48.4833L33.8242 48.4941L33.8242 48.4941L34.074 48.4833ZM37.3353 51.8262L37.3433 51.5764L37.3433 51.5764L37.3353 51.8262ZM37.9805 52.4396L37.7305 52.4412L37.7305 52.4412L37.9805 52.4396ZM38.0085 56.3099L37.7585 56.3119L37.7585 56.3119L38.0085 56.3099ZM38.3531 57.004L38.2221 57.2169L38.2221 57.2169L38.3531 57.004ZM39.7119 57.0038L39.5807 56.791L39.5807 56.791L39.7119 57.0038ZM40.0556 56.3108L40.3056 56.3129L40.3056 56.3129L40.0556 56.3108ZM40.0854 52.4235L40.3354 52.4251L40.3354 52.4251L40.0854 52.4235ZM40.7158 51.8217L40.7071 51.5719L40.7071 51.5719L40.7158 51.8217ZM43.9008 48.627L44.1503 48.6429L44.1503 48.6429L43.9008 48.627ZM44.1761 41.3905L44.4261 41.3874C44.4276 41.5067 44.429 41.6262 44.4302 41.7458L44.1802 41.7483L43.9302 41.7508C43.929 41.6316 43.9277 41.5126 43.9262 41.3937L44.1761 41.3905ZM44.1802 41.7483L44.4302 41.7458C44.4672 45.3958 44.3626 48.9004 44.1503 52.2469L43.9008 52.231L43.6513 52.2152C43.8629 48.8804 43.9671 45.3881 43.9302 41.7509L44.1802 41.7483ZM43.9008 52.231L44.1503 52.2469C44.0323 54.1055 42.6056 55.6101 40.7244 55.6756L40.7158 55.4257L40.7071 55.1759C42.3115 55.12 43.5483 53.8373 43.6513 52.2152L43.9008 52.231ZM40.7158 55.4257L40.7244 55.6756C40.5093 55.6831 40.3365 55.861 40.3354 56.0291L40.0854 56.0275L39.8354 56.0258C39.8386 55.5438 40.2724 55.191 40.7071 55.1759L40.7158 55.4257ZM40.0854 56.0275L40.3354 56.0291C40.3268 57.344 40.3166 58.6406 40.3056 59.9169L40.0556 59.9147L39.8056 59.9126C39.8167 58.6365 39.8268 57.3403 39.8354 56.0258L40.0854 56.0275ZM40.0556 59.9147L40.3056 59.9169C40.3027 60.2462 40.1733 60.617 39.8431 60.8206L39.7119 60.6078L39.5807 60.395C39.7181 60.3102 39.8037 60.1326 39.8056 59.9126L40.0556 59.9147ZM39.7119 60.6078L39.8431 60.8206C39.6024 60.969 39.3305 61.0667 39.0329 61.0667V60.8167V60.5667C39.2173 60.5667 39.3994 60.5067 39.5807 60.395L39.7119 60.6078ZM39.0329 60.8167V61.0667C38.7352 61.0667 38.4631 60.9691 38.2221 60.8209L38.3531 60.608L38.484 60.395C38.6656 60.5067 38.8481 60.5667 39.0329 60.5667V60.8167ZM38.3531 60.608L38.2221 60.8209C37.8911 60.6173 37.7612 60.2459 37.7585 59.9159L38.0085 59.9139L38.2585 59.9118C38.2603 60.1323 38.3462 60.3102 38.484 60.395L38.3531 60.608ZM38.0085 59.9139L37.7585 59.9159C37.7481 58.6436 37.7389 57.3529 37.7305 56.0452L37.9805 56.0436L38.2305 56.042C38.2389 57.3494 38.2481 58.6399 38.2585 59.9118L38.0085 59.9139ZM37.9805 56.0436L37.7305 56.0452C37.7294 55.871 37.5496 55.6873 37.3272 55.6801L37.3353 55.4302L37.3433 55.1803C37.7846 55.1946 38.2274 55.5521 38.2305 56.042L37.9805 56.0436ZM37.3353 55.4302L37.3272 55.6801C35.3729 55.6171 33.9082 54.0288 33.8242 52.0981L34.074 52.0873L34.3238 52.0764C34.3973 53.769 35.6729 55.1265 37.3433 55.1803L37.3353 55.4302ZM34.074 52.0873L33.8242 52.0981C33.6943 49.1098 33.6258 46.0326 33.6305 42.8707L33.8805 42.871L34.1305 42.8714C34.1258 46.0256 34.1942 49.0954 34.3238 52.0764L34.074 52.0873ZM33.8805 42.871L34.1036 42.7582L34.1043 42.7594L33.8812 42.8723L33.6581 42.9852L33.6575 42.9839L33.8805 42.871ZM33.8812 42.8723L33.6312 42.8719C33.632 42.3853 33.6345 41.9007 33.6386 41.4182L33.8886 41.4203L34.1386 41.4225C34.1345 41.9039 34.132 42.3873 34.1312 42.8727L33.8812 42.8723ZM34.074 48.4833L33.8242 48.4941C33.724 46.1892 33.6603 43.8314 33.6386 41.4226L33.8886 41.4203L34.1386 41.4181C34.1603 43.821 34.2238 46.1731 34.3238 48.4724L34.074 48.4833ZM37.3353 51.8262L37.3272 52.0761C35.3729 52.0131 33.9082 50.4248 33.8242 48.4941L34.074 48.4833L34.3238 48.4724C34.3973 50.165 35.6729 51.5225 37.3433 51.5764L37.3353 51.8262ZM37.9805 52.4396L37.7305 52.4412C37.7294 52.267 37.5496 52.0833 37.3272 52.0761L37.3353 51.8262L37.3433 51.5764C37.7846 51.5906 38.2274 51.9481 38.2305 52.438L37.9805 52.4396ZM38.0085 56.3099L37.7585 56.3119C37.7481 55.0396 37.7389 53.7489 37.7305 52.4412L37.9805 52.4396L38.2305 52.438C38.2389 53.7454 38.2481 55.0359 38.2585 56.3078L38.0085 56.3099ZM38.3531 57.004L38.2221 57.2169C37.8911 57.0133 37.7612 56.6419 37.7585 56.3119L38.0085 56.3099L38.2585 56.3078C38.2603 56.5283 38.3462 56.7062 38.484 56.791L38.3531 57.004ZM39.0329 57.2127V57.4627C38.7352 57.4627 38.4631 57.3651 38.2221 57.2169L38.3531 57.004L38.484 56.791C38.6656 56.9027 38.8481 56.9627 39.0329 56.9627V57.2127ZM39.7119 57.0038L39.8431 57.2166C39.6024 57.365 39.3305 57.4627 39.0329 57.4627V57.2127V56.9627C39.2173 56.9627 39.3994 56.9027 39.5807 56.791L39.7119 57.0038ZM40.0556 56.3108L40.3056 56.3129C40.3027 56.6423 40.1733 57.013 39.8431 57.2166L39.7119 57.0038L39.5807 56.791C39.7181 56.7062 39.8037 56.5286 39.8056 56.3086L40.0556 56.3108ZM40.0854 52.4235L40.3354 52.4251C40.3268 53.74 40.3166 55.0366 40.3056 56.3129L40.0556 56.3108L39.8056 56.3086C39.8167 55.0326 39.8268 53.7363 39.8354 52.4218L40.0854 52.4235ZM40.7158 51.8217L40.7244 52.0716C40.5093 52.0791 40.3365 52.257 40.3354 52.4251L40.0854 52.4235L39.8354 52.4218C39.8386 51.9398 40.2724 51.587 40.7071 51.5719L40.7158 51.8217ZM43.9008 48.627L44.1503 48.6429C44.0323 50.5015 42.6056 52.0061 40.7244 52.0716L40.7158 51.8217L40.7071 51.5719C42.3115 51.5161 43.5483 50.2333 43.6513 48.6112L43.9008 48.627ZM44.1761 41.3905L44.4261 41.3937C44.3946 43.8845 44.2988 46.3024 44.1503 48.6429L43.9008 48.627L43.6513 48.6112C43.7993 46.2789 43.8947 43.8695 43.9262 41.3874L44.1761 41.3905Z" fill="#1C1C1C"/>
<path d="M58.1708 39.2683C58.1755 36.3363 58.2428 33.4776 58.3638 30.6957C58.4424 28.8889 59.8323 27.4299 61.6402 27.3823C61.968 27.3737 62.268 27.107 62.2701 26.7791C62.2774 25.6232 62.2854 24.4809 62.2942 23.3524C62.2989 22.7609 62.5456 22.1049 63.1302 22.0148C63.2267 21.9999 63.3254 21.9959 63.4262 22.0043C63.4562 22.0068 63.4861 22.0104 63.5158 22.015C64.0988 22.1055 64.3445 22.7598 64.3494 23.3498C64.3589 24.483 64.3677 25.6316 64.3756 26.7947C64.3778 27.1156 64.6687 27.3768 64.9894 27.3859C66.728 27.4353 68.0806 28.8158 68.1907 30.5515C68.3461 33.0017 68.4435 35.5343 68.4698 38.1443C68.5068 41.788 68.4024 45.2864 68.1904 48.627C68.08 50.3674 66.7482 51.7611 65.0054 51.8217C64.6805 51.833 64.3772 52.0984 64.3751 52.4235C64.3674 53.5907 64.3585 54.7434 64.3489 55.8804C64.3443 56.4298 64.1406 57.0378 63.6087 57.1756C63.5157 57.1997 63.4203 57.2127 63.3226 57.2127C63.2249 57.2127 63.1294 57.1998 63.0364 57.1757C62.5035 57.0382 62.2991 56.4291 62.2947 55.8787C62.2857 54.7464 62.2776 53.5996 62.2701 52.4396C62.268 52.1076 61.9568 51.8369 61.6249 51.8262C59.8125 51.7678 58.4424 50.2949 58.3636 48.4833C58.2339 45.4986 58.1654 42.4251 58.1702 39.267L58.1708 39.2683Z" fill="#E8EDFA" stroke="#1C1C1C" stroke-width="0.5" stroke-miterlimit="10"/>
<path fill-rule="evenodd" clip-rule="evenodd" d="M68.4658 41.3905C68.4673 41.5096 68.4686 41.6289 68.4699 41.7483C68.5068 45.392 68.4024 48.8904 68.1904 52.231C68.08 53.9714 66.7482 55.3651 65.0054 55.4257C64.6805 55.437 64.3772 55.7024 64.3751 56.0275C64.3674 57.1947 64.3586 58.3474 64.3489 59.4844C64.3443 60.0338 64.1406 60.6418 63.6087 60.7796C63.5158 60.8037 63.4203 60.8167 63.3226 60.8167C63.2249 60.8167 63.1295 60.8037 63.0365 60.7797C62.5035 60.6422 62.2991 60.0331 62.2947 59.4827C62.2857 58.3504 62.2776 57.2036 62.2702 56.0436C62.268 55.7115 61.9568 55.4409 61.6249 55.4302C59.8125 55.3718 58.4424 53.8989 58.3636 52.0873C58.2339 49.1026 58.1655 46.0291 58.1702 42.871L58.1708 42.8723C58.1716 42.3863 58.1741 41.9023 58.1783 41.4203C58.2 43.8262 58.2636 46.1812 58.3636 48.4833C58.4424 50.2949 59.8125 51.7678 61.6249 51.8262C61.9568 51.8369 62.268 52.1076 62.2702 52.4396C62.2776 53.5996 62.2857 54.7464 62.2947 55.8787C62.2991 56.4291 62.5035 57.0382 63.0365 57.1758C63.1295 57.1998 63.2249 57.2127 63.3226 57.2127C63.4203 57.2127 63.5158 57.1997 63.6087 57.1756C64.1406 57.0378 64.3443 56.4298 64.3489 55.8804C64.3586 54.7435 64.3674 53.5907 64.3751 52.4235C64.3772 52.0984 64.6805 51.833 65.0054 51.8217C66.7482 51.7611 68.08 50.3674 68.1904 48.627C68.3387 46.2906 68.4343 43.877 68.4658 41.3905Z" fill="#4169E1"/>
<path d="M68.4658 41.3905L68.2158 41.3874L68.7158 41.3874L68.4658 41.3905ZM68.4699 41.7483L68.2199 41.7509L68.2199 41.7508L68.4699 41.7483ZM68.1904 52.231L68.4399 52.2469L68.4399 52.2469L68.1904 52.231ZM65.0054 55.4257L64.9967 55.1759L64.9967 55.1759L65.0054 55.4257ZM64.3751 56.0275L64.6251 56.0291L64.6251 56.0291L64.3751 56.0275ZM64.3489 59.4844L64.099 59.4823L64.099 59.4823L64.3489 59.4844ZM63.6087 60.7796L63.5461 60.5376L63.5461 60.5376L63.6087 60.7796ZM63.0365 60.7797L62.974 61.0218L62.974 61.0218L63.0365 60.7797ZM62.2947 59.4827L62.0447 59.4847L62.0447 59.4847L62.2947 59.4827ZM62.2702 56.0436L62.0202 56.0452L62.0202 56.0452L62.2702 56.0436ZM61.6249 55.4302L61.633 55.1803L61.633 55.1803L61.6249 55.4302ZM58.3636 52.0873L58.1139 52.0981L58.1139 52.0981L58.3636 52.0873ZM58.1702 42.871L57.9202 42.8707L57.9218 41.8263L58.3933 42.7582L58.1702 42.871ZM58.1708 42.8723L58.4208 42.8727L58.4192 43.9168L57.9478 42.9852L58.1708 42.8723ZM58.1783 41.4203L57.9283 41.4182L58.4283 41.4181L58.1783 41.4203ZM58.3636 48.4833L58.1139 48.4941L58.1139 48.4941L58.3636 48.4833ZM61.6249 51.8262L61.633 51.5764L61.633 51.5764L61.6249 51.8262ZM62.2702 52.4396L62.0202 52.4412L62.0202 52.4412L62.2702 52.4396ZM62.2947 55.8787L62.0447 55.8807L62.0447 55.8807L62.2947 55.8787ZM63.0365 57.1758L62.974 57.4178L62.974 57.4178L63.0365 57.1758ZM63.6087 57.1756L63.5461 56.9336L63.5461 56.9336L63.6087 57.1756ZM64.3489 55.8804L64.099 55.8783L64.099 55.8783L64.3489 55.8804ZM64.3751 52.4235L64.6251 52.4251L64.6251 52.4251L64.3751 52.4235ZM65.0054 51.8217L64.9967 51.5719L64.9967 51.5719L65.0054 51.8217ZM68.1904 48.627L68.4399 48.6429L68.4399 48.6429L68.1904 48.627ZM68.4658 41.3905L68.7158 41.3874C68.7173 41.5067 68.7186 41.6262 68.7198 41.7458L68.4699 41.7483L68.2199 41.7508C68.2187 41.6316 68.2173 41.5126 68.2158 41.3937L68.4658 41.3905ZM68.4699 41.7483L68.7198 41.7458C68.7569 45.3958 68.6523 48.9004 68.4399 52.2469L68.1904 52.231L67.9409 52.2152C68.1525 48.8804 68.2568 45.3881 68.2199 41.7509L68.4699 41.7483ZM68.1904 52.231L68.4399 52.2469C68.322 54.1055 66.8952 55.6101 65.0141 55.6756L65.0054 55.4257L64.9967 55.1759C66.6012 55.12 67.838 53.8373 67.9409 52.2152L68.1904 52.231ZM65.0054 55.4257L65.0141 55.6756C64.799 55.6831 64.6262 55.861 64.6251 56.0291L64.3751 56.0275L64.1251 56.0258C64.1283 55.5438 64.562 55.191 64.9967 55.1759L65.0054 55.4257ZM64.3751 56.0275L64.6251 56.0291C64.6174 57.1965 64.6086 58.3494 64.5989 59.4866L64.3489 59.4844L64.099 59.4823C64.1086 58.3455 64.1174 57.1928 64.1251 56.0258L64.3751 56.0275ZM64.3489 59.4844L64.5989 59.4866C64.5964 59.7875 64.5398 60.1167 64.4005 60.3975C64.2595 60.6819 64.0253 60.9299 63.6714 61.0216L63.6087 60.7796L63.5461 60.5376C63.724 60.4915 63.8577 60.3667 63.9526 60.1753C64.0493 59.9803 64.0969 59.7307 64.099 59.4823L64.3489 59.4844ZM63.6087 60.7796L63.6714 61.0216C63.5592 61.0507 63.4427 61.0667 63.3226 61.0667V60.8167V60.5667C63.398 60.5667 63.4724 60.5567 63.5461 60.5376L63.6087 60.7796ZM63.3226 60.8167V61.0667C63.2026 61.0667 63.0862 61.0508 62.974 61.0218L63.0365 60.7797L63.0989 60.5377C63.1727 60.5567 63.2471 60.5667 63.3226 60.5667V60.8167ZM63.0365 60.7797L62.974 61.0218C62.6195 60.9303 62.3848 60.682 62.2434 60.3972C62.1039 60.116 62.0471 59.7863 62.0447 59.4847L62.2947 59.4827L62.5447 59.4807C62.5467 59.7295 62.5943 59.9795 62.6913 60.1749C62.7865 60.3666 62.9205 60.4916 63.0989 60.5377L63.0365 60.7797ZM62.2947 59.4827L62.0447 59.4847C62.0357 58.3522 62.0276 57.2053 62.0202 56.0452L62.2702 56.0436L62.5201 56.042C62.5276 57.2019 62.5357 58.3485 62.5447 59.4807L62.2947 59.4827ZM62.2702 56.0436L62.0202 56.0452C62.019 55.871 61.8393 55.6873 61.6169 55.6801L61.6249 55.4302L61.633 55.1803C62.0743 55.1946 62.517 55.5521 62.5201 56.042L62.2702 56.0436ZM61.6249 55.4302L61.6169 55.6801C59.6626 55.6171 58.1978 54.0288 58.1139 52.0981L58.3636 52.0873L58.6134 52.0764C58.687 53.769 59.9625 55.1265 61.633 55.1803L61.6249 55.4302ZM58.3636 52.0873L58.1139 52.0981C57.984 49.1098 57.9155 46.0326 57.9202 42.8707L58.1702 42.871L58.4202 42.8714C58.4155 46.0256 58.4838 49.0954 58.6134 52.0764L58.3636 52.0873ZM58.1702 42.871L58.3933 42.7582L58.3939 42.7594L58.1708 42.8723L57.9478 42.9852L57.9471 42.9839L58.1702 42.871ZM58.1708 42.8723L57.9208 42.8719C57.9216 42.3853 57.9241 41.9007 57.9283 41.4182L58.1783 41.4203L58.4283 41.4225C58.4241 41.9039 58.4216 42.3873 58.4208 42.8727L58.1708 42.8723ZM58.3636 48.4833L58.1139 48.4941C58.0137 46.1892 57.95 43.8314 57.9283 41.4226L58.1783 41.4203L58.4283 41.4181C58.4499 43.821 58.5135 46.1731 58.6134 48.4724L58.3636 48.4833ZM61.6249 51.8262L61.6169 52.0761C59.6626 52.0131 58.1978 50.4248 58.1139 48.4941L58.3636 48.4833L58.6134 48.4724C58.687 50.165 59.9625 51.5225 61.633 51.5764L61.6249 51.8262ZM62.2702 52.4396L62.0202 52.4412C62.019 52.267 61.8393 52.0833 61.6169 52.0761L61.6249 51.8262L61.633 51.5764C62.0743 51.5906 62.517 51.9481 62.5201 52.438L62.2702 52.4396ZM62.2947 55.8787L62.0447 55.8807C62.0357 54.7482 62.0276 53.6014 62.0202 52.4412L62.2702 52.4396L62.5201 52.438C62.5276 53.5979 62.5357 54.7445 62.5447 55.8767L62.2947 55.8787ZM63.0365 57.1758L62.974 57.4178C62.6195 57.3263 62.3848 57.078 62.2434 56.7932C62.1039 56.512 62.0471 56.1823 62.0447 55.8807L62.2947 55.8787L62.5447 55.8767C62.5467 56.1255 62.5943 56.3756 62.6913 56.5709C62.7865 56.7626 62.9205 56.8876 63.0989 56.9337L63.0365 57.1758ZM63.3226 57.2127V57.4627C63.2026 57.4627 63.0862 57.4468 62.974 57.4178L63.0365 57.1758L63.0989 56.9337C63.1727 56.9527 63.2471 56.9627 63.3226 56.9627V57.2127ZM63.6087 57.1756L63.6714 57.4176C63.5592 57.4467 63.4427 57.4627 63.3226 57.4627V57.2127V56.9627C63.398 56.9627 63.4724 56.9527 63.5461 56.9336L63.6087 57.1756ZM64.3489 55.8804L64.5989 55.8826C64.5964 56.1835 64.5398 56.5127 64.4005 56.7935C64.2595 57.0779 64.0253 57.326 63.6714 57.4176L63.6087 57.1756L63.5461 56.9336C63.724 56.8875 63.8577 56.7627 63.9526 56.5713C64.0493 56.3763 64.0969 56.1267 64.099 55.8783L64.3489 55.8804ZM64.3751 52.4235L64.6251 52.4251C64.6174 53.5925 64.6086 54.7454 64.5989 55.8826L64.3489 55.8804L64.099 55.8783C64.1086 54.7415 64.1174 53.5889 64.1251 52.4218L64.3751 52.4235ZM65.0054 51.8217L65.0141 52.0716C64.799 52.0791 64.6262 52.257 64.6251 52.4251L64.3751 52.4235L64.1251 52.4218C64.1283 51.9398 64.562 51.587 64.9967 51.5719L65.0054 51.8217ZM68.1904 48.627L68.4399 48.6429C68.322 50.5015 66.8952 52.0061 65.0141 52.0716L65.0054 51.8217L64.9967 51.5719C66.6012 51.5161 67.838 50.2333 67.9409 48.6112L68.1904 48.627ZM68.4658 41.3905L68.7158 41.3937C68.6843 43.8845 68.5884 46.3024 68.4399 48.6429L68.1904 48.627L67.9409 48.6112C68.0889 46.2789 68.1844 43.8695 68.2158 41.3874L68.4658 41.3905Z" fill="#1C1C1C"/>
<path d="M21.7 46.1853C21.7 43.3827 21.766 40.6656 21.8861 38.0398C21.9713 36.1777 23.3937 34.67 25.2569 34.6147C25.599 34.6045 25.913 34.326 25.9152 33.9837C25.9236 32.6645 25.9332 31.3634 25.9439 30.0812C25.9465 29.7795 26.0773 29.479 26.3492 29.3482C26.5757 29.2392 26.8173 29.1831 27.0724 29.204C27.2511 29.2184 27.4231 29.2695 27.5874 29.3486C27.8588 29.4792 27.9893 29.7791 27.992 30.0803C28.0035 31.3752 28.0141 32.691 28.0231 34.0268C28.0253 34.3488 28.3163 34.6113 28.6381 34.6222C30.3677 34.6809 31.7031 36.061 31.8125 37.7881C31.9729 40.3198 32.0678 42.9656 32.0775 45.7169C32.0884 48.8098 31.9909 51.7717 31.8124 54.5905C31.7026 56.322 30.385 57.7143 28.6514 57.7843C28.3262 57.7974 28.0247 58.0635 28.0224 58.3891C28.0134 59.7185 28.0032 61.0279 27.9917 62.3164C27.9892 62.5971 27.8767 62.8771 27.6344 63.0186C27.4272 63.1395 27.2047 63.2126 26.9688 63.2126C26.7326 63.2126 26.5098 63.1396 26.3023 63.0187C26.0594 62.8772 25.9466 62.5967 25.9442 62.3156C25.9334 61.0402 25.9237 59.7465 25.9152 58.4342C25.913 58.0877 25.5876 57.8053 25.2413 57.7932C23.3743 57.7282 21.9718 56.207 21.8864 54.3407C21.7661 51.7118 21.7 48.9916 21.7 46.1853Z" fill="#E8EDFA" stroke="#1C1C1C" stroke-width="0.5" stroke-miterlimit="10"/>
<path fill-rule="evenodd" clip-rule="evenodd" d="M32.066 47.9874C32.072 48.4291 32.0759 48.8736 32.0774 49.3209C32.0883 52.4138 31.9909 55.3757 31.8123 58.1945C31.7026 59.926 30.385 61.3183 28.6514 61.3883C28.3261 61.4014 28.0246 61.6675 28.0224 61.9931C28.0134 63.3225 28.0031 64.6319 27.9916 65.9204C27.9891 66.201 27.8767 66.481 27.6343 66.6225C27.4271 66.7435 27.2047 66.8165 26.9688 66.8165C26.7326 66.8165 26.5098 66.7436 26.3022 66.6227C26.0593 66.4812 25.9465 66.2007 25.9441 65.9195C25.9333 64.6442 25.9236 63.3504 25.9152 62.0382C25.913 61.6917 25.5875 61.4092 25.2413 61.3972C23.3742 61.3322 21.9717 59.8109 21.8863 57.9447C21.7661 55.3158 21.6999 52.5956 21.6999 49.7893C21.6999 49.1848 21.703 48.5842 21.709 47.9877C21.731 50.1599 21.792 52.2784 21.8863 54.3407C21.9717 56.2069 23.3742 57.7282 25.2413 57.7932C25.5875 57.8053 25.913 58.0877 25.9152 58.4342C25.9236 59.7464 25.9333 61.0402 25.9441 62.3156C25.9465 62.5967 26.0593 62.8772 26.3022 63.0187C26.5098 63.1396 26.7326 63.2126 26.9688 63.2126C27.2047 63.2126 27.4271 63.1395 27.6343 63.0185C27.8767 62.8771 27.9891 62.597 27.9916 62.3164C28.0031 61.0279 28.0134 59.7185 28.0224 58.3891C28.0246 58.0635 28.3261 57.7974 28.6514 57.7843C30.385 57.7143 31.7026 56.322 31.8123 54.5905C31.9467 52.4688 32.0352 50.266 32.066 47.9874Z" fill="#4169E1"/>
<path d="M32.066 47.9874L31.8161 47.984L32.316 47.984L32.066 47.9874ZM32.0774 49.3209L31.8274 49.3218L31.8274 49.3218L32.0774 49.3209ZM31.8123 58.1945L32.0618 58.2103L32.0618 58.2103L31.8123 58.1945ZM28.6514 61.3883L28.6413 61.1385L28.6413 61.1385L28.6514 61.3883ZM28.0224 61.9931L28.2724 61.9948L28.2724 61.9948L28.0224 61.9931ZM27.9916 65.9204L28.2416 65.9226L28.2416 65.9226L27.9916 65.9204ZM27.6343 66.6225L27.5083 66.4066L27.5083 66.4066L27.6343 66.6225ZM26.3022 66.6227L26.4281 66.4067L26.4281 66.4067L26.3022 66.6227ZM25.9441 65.9195L26.1941 65.9174L26.1941 65.9174L25.9441 65.9195ZM25.9152 62.0382L25.6652 62.0398L25.6652 62.0398L25.9152 62.0382ZM25.2413 61.3972L25.25 61.1473L25.25 61.1473L25.2413 61.3972ZM21.8863 57.9447L21.6366 57.9561L21.6366 57.9561L21.8863 57.9447ZM21.709 47.9877L21.4591 47.9852L21.959 47.9852L21.709 47.9877ZM21.8863 54.3407L21.6366 54.3521L21.6366 54.3521L21.8863 54.3407ZM25.2413 57.7932L25.25 57.5433L25.25 57.5433L25.2413 57.7932ZM25.9152 58.4342L25.6652 58.4358L25.6652 58.4358L25.9152 58.4342ZM25.9441 62.3156L26.1941 62.3134L26.1941 62.3134L25.9441 62.3156ZM26.3022 63.0187L26.4281 62.8027L26.4281 62.8027L26.3022 63.0187ZM27.6343 63.0185L27.5083 62.8027L27.5083 62.8027L27.6343 63.0185ZM27.9916 62.3164L28.2416 62.3187L28.2416 62.3187L27.9916 62.3164ZM28.0224 58.3891L28.2724 58.3908L28.2724 58.3908L28.0224 58.3891ZM28.6514 57.7843L28.6413 57.5345L28.6413 57.5345L28.6514 57.7843ZM31.8123 54.5905L32.0618 54.6063L32.0618 54.6063L31.8123 54.5905ZM32.066 47.9874L32.316 47.984C32.322 48.4265 32.3259 48.8719 32.3274 49.32L32.0774 49.3209L31.8274 49.3218C31.8259 48.8753 31.822 48.4316 31.8161 47.9907L32.066 47.9874ZM32.0774 49.3209L32.3274 49.32C32.3383 52.4187 32.2407 55.3862 32.0618 58.2103L31.8123 58.1945L31.5628 58.1787C31.741 55.3652 31.8383 52.4088 31.8274 49.3218L32.0774 49.3209ZM31.8123 58.1945L32.0618 58.2103C31.9447 60.0591 30.5333 61.5625 28.6615 61.638L28.6514 61.3883L28.6413 61.1385C30.2366 61.0741 31.4605 59.793 31.5628 58.1787L31.8123 58.1945ZM28.6514 61.3883L28.6615 61.638C28.4461 61.6467 28.2735 61.825 28.2724 61.9948L28.0224 61.9931L27.7724 61.9914C27.7757 61.51 28.2062 61.156 28.6413 61.1385L28.6514 61.3883ZM28.0224 61.9931L28.2724 61.9948C28.2633 63.3244 28.2531 64.6339 28.2416 65.9226L27.9916 65.9204L27.7417 65.9182C27.7531 64.6298 27.7634 63.3207 27.7724 61.9914L28.0224 61.9931ZM27.9916 65.9204L28.2416 65.9226C28.2386 66.2588 28.1032 66.6383 27.7604 66.8384L27.6343 66.6225L27.5083 66.4066C27.6501 66.3238 27.7397 66.1433 27.7417 65.9182L27.9916 65.9204ZM27.6343 66.6225L27.7604 66.8384C27.5237 66.9766 27.2581 67.0665 26.9688 67.0665V66.8165V66.5665C27.1512 66.5665 27.3306 66.5104 27.5083 66.4066L27.6343 66.6225ZM26.9688 66.8165V67.0665C26.6793 67.0665 26.4134 66.9768 26.1764 66.8387L26.3022 66.6227L26.4281 66.4067C26.6061 66.5104 26.7859 66.5665 26.9688 66.5665V66.8165ZM26.3022 66.6227L26.1764 66.8387C25.8328 66.6386 25.697 66.2584 25.6941 65.9217L25.9441 65.9195L26.1941 65.9174C26.196 66.1429 26.2858 66.3238 26.4281 66.4067L26.3022 66.6227ZM25.9441 65.9195L25.6941 65.9217C25.6833 64.6462 25.6737 63.3522 25.6652 62.0398L25.9152 62.0382L26.1652 62.0366C26.1736 63.3487 26.1833 64.6423 26.1941 65.9174L25.9441 65.9195ZM25.9152 62.0382L25.6652 62.0398C25.664 61.8514 25.4703 61.6553 25.2326 61.647L25.2413 61.3972L25.25 61.1473C25.7048 61.1632 26.1619 61.532 26.1652 62.0366L25.9152 62.0382ZM25.2413 61.3972L25.2326 61.647C23.223 61.577 21.7273 59.9398 21.6366 57.9561L21.8863 57.9447L22.1361 57.9333C22.2161 59.6821 23.5255 61.0873 25.25 61.1473L25.2413 61.3972ZM21.8863 57.9447L21.6366 57.9561C21.5162 55.3235 21.4499 52.5995 21.4499 49.7893H21.6999H21.9499C21.9499 52.5917 22.016 55.308 22.1361 57.9333L21.8863 57.9447ZM21.6999 49.7893H21.4499C21.4499 49.1839 21.453 48.5826 21.4591 47.9852L21.709 47.9877L21.959 47.9903C21.953 48.5859 21.9499 49.1856 21.9499 49.7893H21.6999ZM21.8863 54.3407L21.6366 54.3521C21.5421 52.2869 21.481 50.1655 21.4591 47.9903L21.709 47.9877L21.959 47.9852C21.9809 50.1543 22.0419 52.2698 22.1361 54.3293L21.8863 54.3407ZM25.2413 57.7932L25.2326 58.043C23.223 57.973 21.7273 56.3358 21.6366 54.3521L21.8863 54.3407L22.1361 54.3293C22.2161 56.0781 23.5255 57.4833 25.25 57.5433L25.2413 57.7932ZM25.9152 58.4342L25.6652 58.4358C25.664 58.2475 25.4703 58.0513 25.2326 58.043L25.2413 57.7932L25.25 57.5433C25.7048 57.5592 26.1619 57.928 26.1652 58.4326L25.9152 58.4342ZM25.9441 62.3156L25.6941 62.3177C25.6833 61.0422 25.6737 59.7482 25.6652 58.4358L25.9152 58.4342L26.1652 58.4326C26.1736 59.7447 26.1833 61.0383 26.1941 62.3134L25.9441 62.3156ZM26.3022 63.0187L26.1764 63.2347C25.8328 63.0346 25.697 62.6545 25.6941 62.3177L25.9441 62.3156L26.1941 62.3134C26.196 62.5389 26.2858 62.7198 26.4281 62.8027L26.3022 63.0187ZM26.9688 63.2126V63.4626C26.6793 63.4626 26.4134 63.3728 26.1764 63.2347L26.3022 63.0187L26.4281 62.8027C26.6061 62.9064 26.7859 62.9626 26.9688 62.9626V63.2126ZM27.6343 63.0185L27.7604 63.2344C27.5237 63.3727 27.2581 63.4626 26.9688 63.4626V63.2126V62.9626C27.1512 62.9626 27.3306 62.9064 27.5083 62.8027L27.6343 63.0185ZM27.9916 62.3164L28.2416 62.3187C28.2386 62.6548 28.1032 63.0343 27.7604 63.2344L27.6343 63.0185L27.5083 62.8027C27.6501 62.7198 27.7397 62.5393 27.7417 62.3142L27.9916 62.3164ZM28.0224 58.3891L28.2724 58.3908C28.2633 59.7204 28.2531 61.0299 28.2416 62.3187L27.9916 62.3164L27.7417 62.3142C27.7531 61.0258 27.7634 59.7167 27.7724 58.3874L28.0224 58.3891ZM28.6514 57.7843L28.6615 58.0341C28.4461 58.0427 28.2735 58.2211 28.2724 58.3908L28.0224 58.3891L27.7724 58.3874C27.7757 57.906 28.2062 57.552 28.6413 57.5345L28.6514 57.7843ZM31.8123 54.5905L32.0618 54.6063C31.9447 56.4551 30.5333 57.9586 28.6615 58.0341L28.6514 57.7843L28.6413 57.5345C30.2366 57.4701 31.4605 56.189 31.5628 54.5747L31.8123 54.5905ZM32.066 47.9874L32.316 47.9907C32.2851 50.2737 32.1965 52.4806 32.0618 54.6063L31.8123 54.5905L31.5628 54.5747C31.697 52.457 31.7852 50.2584 31.8161 47.984L32.066 47.9874Z" fill="#1C1C1C"/>
<path d="M80.7256 63.3837C80.7256 72.6215 73.129 80.1105 63.7579 80.1105C54.3868 80.1105 46.1176 72.002 46.1176 62.7642C45.2077 47.1803 54.3868 46.657 63.7579 46.657C73.129 46.657 81.2403 47.4661 80.7256 63.3837Z" fill="#FF9500" stroke="#1C1C1C" stroke-width="0.5" stroke-miterlimit="10"/>
<path d="M63.358 75.6385C72.9141 75.6385 80.6609 67.7639 80.6609 58.05C80.6609 48.3362 72.9141 40.4615 63.358 40.4615C53.8019 40.4615 46.0551 48.3362 46.0551 58.05C46.0551 67.7639 53.8019 75.6385 63.358 75.6385Z" fill="#FFE2C8" stroke="#1C1C1C" stroke-width="0.5" stroke-miterlimit="10"/>
<path d="M63.4035 71.672C70.931 71.672 77.0332 65.57 77.0332 58.0428C77.0332 50.5156 70.931 44.4136 63.4035 44.4136C55.876 44.4136 49.7738 50.5156 49.7738 58.0428C49.7738 65.57 55.876 71.672 63.4035 71.672Z" fill="#FF9500" stroke="#1C1C1C" stroke-width="0.5" stroke-miterlimit="10"/>
<path d="M69.7861 53.996C69.9486 55.5751 69.2988 56.5354 68.3039 57.0689C69.9689 57.4957 71.0044 58.52 70.8014 60.846C70.5374 63.7268 68.5069 64.5163 65.583 64.687V66.8441C65.583 67.3263 65.1921 67.7172 64.7099 67.7172C64.2277 67.7172 63.8368 67.3263 63.8368 66.8441V64.7297C63.3901 64.7297 62.923 64.7297 62.456 64.7084V66.8441C62.456 67.3263 62.0651 67.7172 61.5829 67.7172C61.1007 67.7172 60.7098 67.3263 60.7098 66.8441V64.687C60.3037 64.687 59.8976 64.6657 59.4712 64.6657H58.3789C57.7605 64.6657 57.2903 64.11 57.3927 63.5001L57.42 63.3377C57.5019 62.8498 57.9283 62.4978 58.423 62.4985C58.831 62.4991 58.8214 62.4891 58.8214 62.4891C59.3087 62.4891 59.4306 62.1263 59.4712 61.8702V57.0902H59.6539C59.5727 57.0902 59.5118 57.0902 59.4712 57.0902V53.6546C59.4103 53.2918 59.1666 52.8437 58.4559 52.8437C58.4559 52.8437 58.4635 52.8357 58.1766 52.8344C57.6385 52.8319 57.197 52.4027 57.197 51.8646C57.197 51.3329 57.6281 50.9018 58.1599 50.9018H59.6133C59.9585 50.9018 60.324 50.9018 60.7098 50.9018V48.7661C60.7098 48.2839 61.1007 47.8929 61.5829 47.8929C62.0651 47.8929 62.456 48.2839 62.456 48.7661V50.8378C62.923 50.8378 63.3698 50.8164 63.8368 50.8164V48.7661C63.8368 48.2839 64.2277 47.8929 64.7099 47.8929C65.1921 47.8929 65.583 48.2839 65.583 48.7661V50.9018C67.8166 51.0939 69.6034 51.8194 69.7861 53.996ZM67.3495 60.4832C67.3495 58.1359 63.654 58.4773 62.4763 58.4773V62.4891C63.654 62.4891 67.3495 62.7665 67.3495 60.4832ZM66.5576 54.8282C66.5576 52.673 63.4713 52.9931 62.4763 52.9931V56.6421C63.4713 56.6421 66.5576 56.8768 66.5576 54.8282Z" fill="white"/>
</svg>
