<svg width="102" height="102" viewBox="0 0 102 102" fill="none" xmlns="http://www.w3.org/2000/svg">
<rect x="0.5" y="0.5" width="101" height="101" rx="4.5" stroke="#9747FF" stroke-dasharray="10 5"/>
<path d="M56.0292 45.17L52.1592 46.37C50.5692 41.26 45.9092 37.82 40.5392 37.82C36.1592 37.82 32.2492 40.11 30.0892 43.74H34.0592V47.8H22.6992V36.44H26.7592V41.44C29.6492 36.74 34.7992 33.77 40.5492 33.77C47.6992 33.77 53.9192 38.35 56.0392 45.17H56.0292Z" fill="#4169E1" stroke="#1C1C1C" stroke-width="0.5" stroke-linejoin="round"/>
<path d="M57.9092 52.17V63.53H53.8492V59.27C50.8792 63.54 45.9792 66.2 40.5392 66.2C33.3892 66.2 27.1692 61.62 25.0492 54.8L24.9792 51.22L28.9192 53.6C30.5092 58.71 35.1792 62.15 40.5392 62.15C44.9192 62.15 48.8392 59.86 50.9892 56.23H46.5392V52.17H57.8992H57.9092Z" fill="#4169E1" stroke="#1C1C1C" stroke-width="0.5" stroke-linejoin="round"/>
<path d="M41.7509 45.61C41.9209 43.82 43.3509 42.42 45.1509 42.27C54.9609 41.43 64.7609 41.43 74.5709 42.27C76.3609 42.42 77.7909 43.82 77.9809 45.6C78.7309 52.96 78.7309 60.32 77.9809 67.68C77.7909 69.47 76.3709 70.86 74.5709 71.01C64.7909 71.85 55.0109 71.85 45.2309 71.01C43.4009 70.85 41.9609 69.41 41.8009 67.58C41.1509 59.98 41.0909 52.63 41.7609 45.6L41.7509 45.61Z" fill="#FF9500" stroke="#1C1C1C" stroke-width="0.5" stroke-linejoin="round"/>
<path d="M41.7509 42.7801C41.9209 40.9901 43.3509 39.5901 45.1509 39.4401C54.9609 38.6001 64.7609 38.6001 74.5709 39.4401C76.3609 39.5901 77.7909 40.9901 77.9809 42.7701C78.7309 50.1301 78.7309 57.4901 77.9809 64.8501C77.7909 66.6401 76.3709 68.0301 74.5709 68.1801C64.7909 69.0201 55.0109 69.0201 45.2309 68.1801C43.4009 68.0201 41.9609 66.5801 41.8009 64.7501C41.1509 57.1501 41.0909 49.8001 41.7609 42.7701L41.7509 42.7801Z" fill="#FFE2C8" stroke="#1C1C1C" stroke-width="0.5" stroke-linejoin="round"/>
<path d="M62.2709 54.6501C62.3509 51.2001 65.2909 48.4601 68.7409 48.3901C72.2509 48.3301 75.7109 48.4901 79.3409 48.8401C79.8309 52.2501 79.6809 55.8801 79.5709 60.5001C79.5609 60.9901 79.1809 61.4001 78.6909 61.4401C75.4409 61.7201 72.2609 61.8301 69.0509 61.7501C65.2609 61.6601 62.1709 58.4501 62.2609 54.6401L62.2709 54.6501Z" fill="#FF9500" stroke="#1C1C1C" stroke-width="0.5" stroke-linejoin="round"/>
<path d="M62.2709 52.3701C62.3509 48.9101 65.2909 46.1801 68.7509 46.0901C72.0609 46.0001 75.3609 46.0901 78.6609 46.3801C79.2109 46.4301 79.6409 46.8801 79.6709 47.4301C79.9209 52.0001 79.9109 53.4801 79.7309 59.1001C76.2009 59.4401 72.6209 59.5701 69.0609 59.4901C65.2609 59.4001 62.1909 56.1901 62.2809 52.3801L62.2709 52.3701Z" fill="#FFE2C8" stroke="#1C1C1C" stroke-width="0.5" stroke-linejoin="round"/>
<path d="M68.4809 55.3601C70.1929 55.3601 71.5809 53.9721 71.5809 52.2601C71.5809 50.548 70.1929 49.1601 68.4809 49.1601C66.7688 49.1601 65.3809 50.548 65.3809 52.2601C65.3809 53.9721 66.7688 55.3601 68.4809 55.3601Z" fill="#FF9500" stroke="#1C1C1C" stroke-width="0.5" stroke-linejoin="round"/>
<path d="M56.0292 41.6L52.1592 42.8C50.5692 37.69 45.9092 34.25 40.5392 34.25C36.1592 34.25 32.2492 36.54 30.0892 40.17H34.0592V44.23H22.6992V32.87H26.7592V37.87C29.6492 33.16 34.7992 30.2 40.5392 30.2C47.6892 30.2 53.9092 34.78 56.0292 41.6Z" fill="#CCD9FD" stroke="#1C1C1C" stroke-width="0.5" stroke-linejoin="round"/>
<path d="M57.9092 48.5999V59.9599H53.8492V55.6999C50.8792 59.9699 45.9792 62.6299 40.5392 62.6299C33.3892 62.6299 27.1692 58.0499 25.0492 51.2299L28.9192 50.0299C30.5092 55.1399 35.1792 58.5799 40.5392 58.5799C44.9192 58.5799 48.8392 56.2899 50.9892 52.6599H46.5392V48.5999H57.8992H57.9092Z" fill="#CCD9FD" stroke="#1C1C1C" stroke-width="0.5" stroke-linejoin="round"/>
</svg>
