<svg width="102" height="102" viewBox="0 0 102 102" fill="none" xmlns="http://www.w3.org/2000/svg">
<rect x="0.5" y="0.5" width="101" height="101" rx="4.5" stroke="#8A38F5" stroke-dasharray="10 5"/>
<rect x="40" y="37" width="24" height="12" fill="#4169E1" stroke="#1C1C1C" stroke-width="0.5" stroke-linejoin="round"/>
<path d="M41.0787 38.1172V50.8597L26.4453 57.988V43.8743L41.0787 38.1172Z" fill="#4169E1" stroke="#1C1C1C" stroke-width="0.5" stroke-linejoin="round"/>
<path d="M61.8906 38.1172V50.8597L76.5251 57.988V43.8743L61.8906 38.1172Z" fill="#4169E1" stroke="#1C1C1C" stroke-width="0.5" stroke-linejoin="round"/>
<path d="M62.3915 56.4922H40.4922V73.8637H62.3915V56.4922Z" fill="#E8EDFA" stroke="#1C1C1C" stroke-width="0.5" stroke-linejoin="round"/>
<path d="M40.4946 73.8682L25 68.0043V50.6328L40.4946 56.4967V73.8682Z" fill="#E8EDFA" stroke="#1C1C1C" stroke-width="0.5" stroke-linejoin="round"/>
<path d="M62.3906 73.8682L77.8864 68.0043V50.6328L62.3906 56.4967V73.8682Z" fill="#E8EDFA" stroke="#1C1C1C" stroke-width="0.5" stroke-linejoin="round"/>
<path d="M45.4296 55.284C43.4458 55.284 41.8346 55.2361 40.5036 55.1391C39.1109 55.0366 31.2296 52.1221 30.0938 51.7003L41.0903 47.5312H61.8836L72.1579 51.4256C71.0286 51.8801 62.8717 55.138 61.4613 55.138C61.4613 55.138 61.4381 55.138 61.4282 55.138C60.5228 55.0987 59.4929 55.0802 58.2787 55.0802C56.3192 55.0802 54.1247 55.1314 52.003 55.1805C49.8042 55.2317 47.5314 55.284 45.4285 55.284H45.4296Z" fill="#E8EDFA" stroke="#1C1C1C" stroke-width="0.5" stroke-linejoin="round"/>
<path d="M61.7864 39.637L74.5914 44.5113V48.3533L61.7864 53.2275H41.1011L28.2961 48.3533V44.5113L41.1011 39.637H61.7864ZM62.3962 36.3672H40.4902L25 42.2638V50.6019L40.4902 56.4985H62.3962L77.8864 50.6019V42.2638L62.3962 36.3672Z" fill="#E8EDFA" stroke="#1C1C1C" stroke-width="0.5" stroke-linejoin="round"/>
<path d="M42.7591 50.1379C41.8461 50.1379 41.105 49.4054 41.105 48.5029V33.235C41.105 32.1516 40.2129 31.2698 39.1168 31.2698C38.0207 31.2698 37.1285 32.1516 37.1285 33.235V39.1054C37.1285 40.0079 36.3875 40.7404 35.4744 40.7404C34.5614 40.7404 33.8203 40.0079 33.8203 39.1054V33.235C33.8192 30.3488 36.1956 28 39.1168 28C42.0379 28 44.4133 30.3488 44.4133 33.235V48.5018C44.4133 49.4043 43.6722 50.1368 42.7591 50.1368V50.1379Z" fill="white" stroke="#1C1C1C" stroke-width="0.5" stroke-miterlimit="10"/>
<path d="M42.7591 50.1379C41.8461 50.1379 41.105 49.4054 41.105 48.5029V33.235C41.105 32.1516 40.2129 31.2698 39.1168 31.2698C38.0207 31.2698 37.1285 32.1516 37.1285 33.235V39.1054C37.1285 40.0079 36.3875 40.7404 35.4744 40.7404C34.5614 40.7404 33.8203 40.0079 33.8203 39.1054V33.235C33.8192 30.3488 36.1956 28 39.1168 28C42.0379 28 44.4133 30.3488 44.4133 33.235V48.5018C44.4133 49.4043 43.6722 50.1368 42.7591 50.1368V50.1379Z" fill="white" stroke="#1C1C1C" stroke-width="0.5" stroke-miterlimit="10"/>
<path d="M42.7591 50.1379C41.8461 50.1379 41.105 49.4054 41.105 48.5029V33.235C41.105 32.1516 40.2129 31.2698 39.1168 31.2698C38.0207 31.2698 37.1285 32.1516 37.1285 33.235V39.1054C37.1285 40.0079 36.3875 40.7404 35.4744 40.7404C34.5614 40.7404 33.8203 40.0079 33.8203 39.1054V33.235C33.8192 30.3488 36.1956 28 39.1168 28C42.0379 28 44.4133 30.3488 44.4133 33.235V48.5018C44.4133 49.4043 43.6722 50.1368 42.7591 50.1368V50.1379Z" fill="#FFE2C8" stroke="#1C1C1C" stroke-width="0.5" stroke-linejoin="round"/>
<path d="M42.4252 37.3749C42.0878 36.5356 41.1262 36.1258 40.2771 36.4604L35.2188 38.3961C35.254 38.5083 35.2739 38.6315 35.2739 38.7677V41.8926L41.5 39.4981C42.3491 39.1646 42.7637 38.2141 42.4252 37.3749Z" fill="#FFE2C8" stroke="#1C1C1C" stroke-width="0.5" stroke-linejoin="round"/>
<path d="M42.5 43.0012C42.1626 42.1619 41.201 41.7506 40.3519 42.0852L35.2734 44.0743V47.5938L41.5748 45.124C42.4239 44.7904 42.8385 43.8405 42.5 43.0012Z" fill="#FFE2C8" stroke="#1C1C1C" stroke-width="0.5" stroke-linejoin="round"/>
<path d="M37.1242 51.4237V36.1569C37.1242 33.2696 34.7478 30.9219 31.8277 30.9219C28.9077 30.9219 26.5312 33.2696 26.5312 36.1569V41.6764L29.8395 40.4175V36.158C29.8395 35.0746 30.7316 34.1928 31.8277 34.1928C32.9238 34.1928 33.816 35.0746 33.816 36.158V50.4515L37.0988 51.7006C37.1143 51.6112 37.1242 51.5185 37.1242 51.4248V51.4237Z" fill="#FFE2C8" stroke="#1C1C1C" stroke-width="0.5" stroke-linejoin="round"/>
</svg>
