<svg width="62" height="62" viewBox="0 0 62 62" fill="none" xmlns="http://www.w3.org/2000/svg">
<g clip-path="url(#clip0_18011_4540)">
<path d="M51.639 34.34C51.639 45.4739 42.5886 54.5 31.424 54.5C20.2595 54.5 10.4077 44.7273 10.4077 33.5933C9.32374 14.8107 20.2595 14.1799 31.424 14.1799C42.5886 14.1799 52.2521 15.1552 51.639 34.34Z" fill="#A395CC" stroke="#1C1C1C" stroke-width="0.5" stroke-miterlimit="10"/>
<path d="M30.9477 50.3974C42.3327 50.3974 51.562 40.9064 51.562 29.1987C51.562 17.491 42.3327 8 30.9477 8C19.5628 8 10.3334 17.491 10.3334 29.1987C10.3334 40.9064 19.5628 50.3974 30.9477 50.3974Z" fill="#E0D0F5" stroke="#1C1C1C" stroke-width="0.5" stroke-miterlimit="10"/>
<path d="M31.0003 45.6186C39.9684 45.6186 47.2384 38.2641 47.2384 29.1919C47.2384 20.1197 39.9684 12.7652 31.0003 12.7652C22.0323 12.7652 14.7622 20.1197 14.7622 29.1919C14.7622 38.2641 22.0323 45.6186 31.0003 45.6186Z" fill="#A395CC" stroke="#1C1C1C" stroke-width="0.5" stroke-miterlimit="10"/>
<path d="M35.9267 25.8994C35.5728 25.6983 35.1179 25.6983 34.7135 25.8994L31.8828 27.5582L29.9619 28.6138L27.1818 30.2726C26.8279 30.4737 26.373 30.4737 25.9686 30.2726L23.795 28.9657C23.4412 28.7646 23.1884 28.3625 23.1884 27.9101V25.3967C23.1884 24.9946 23.3906 24.5924 23.795 24.3411L25.9686 23.0844C26.3224 22.8833 26.7774 22.8833 27.1818 23.0844L29.3554 24.3913C29.7092 24.5924 29.9619 24.9946 29.9619 25.447V27.1058L31.8828 25.9999V24.2908C31.8828 23.8887 31.6806 23.4865 31.2762 23.2352L27.2323 20.8726C26.8785 20.6716 26.4235 20.6716 26.0191 20.8726L21.8742 23.2855C21.4698 23.4865 21.2676 23.8887 21.2676 24.2908V29.0159C21.2676 29.4181 21.4698 29.8202 21.8742 30.0716L25.9686 32.4341C26.3224 32.6352 26.7774 32.6352 27.1818 32.4341L29.9619 30.8256L31.8828 29.7197L34.663 28.1111C35.0168 27.9101 35.4717 27.9101 35.8761 28.1111L38.0497 29.3678C38.4035 29.5689 38.6563 29.971 38.6563 30.4234V32.9368C38.6563 33.3389 38.4541 33.7411 38.0497 33.9924L35.9267 35.2491C35.5728 35.4502 35.1179 35.4502 34.7135 35.2491L32.5399 33.9924C32.1861 33.7913 31.9333 33.3892 31.9333 32.9368V31.3282L30.0125 32.4341V34.0929C30.0125 34.4951 30.2147 34.8972 30.6191 35.1486L34.7135 37.5111C35.0673 37.7122 35.5223 37.7122 35.9267 37.5111L40.0211 35.1486C40.3749 34.9475 40.6277 34.5454 40.6277 34.0929V29.3175C40.6277 28.9154 40.4255 28.5133 40.0211 28.2619L35.9267 25.8994Z" fill="white"/>
</g>
<defs>
<clipPath id="clip0_18011_4540">
<rect width="62" height="62" rx="5" fill="white"/>
</clipPath>
</defs>
</svg>
