<svg width="102" height="102" viewBox="0 0 102 102" fill="none" xmlns="http://www.w3.org/2000/svg">
<rect x="0.5" y="0.5" width="101" height="101" rx="4.5" stroke="#9747FF" stroke-dasharray="10 5"/>
<path d="M46.7513 51.97C46.7513 46.5529 49.2391 41.7203 53.1242 38.5637C50.1843 36.1736 46.4471 34.7401 42.3729 34.7401C32.9149 34.7401 25.2487 42.4536 25.2487 51.97C25.2487 61.4865 32.9149 69.2 42.3729 69.2C46.4471 69.2 50.1843 67.7664 53.1242 65.3763C49.2391 62.217 46.7513 57.3871 46.7513 51.97Z" fill="#A80115" stroke="#1C1C1C" stroke-width="0.5" stroke-miterlimit="10"/>
<path d="M63.8755 34.7401C59.8012 34.7401 56.064 36.1736 53.1241 38.5638C57.0093 41.723 59.4971 46.5529 59.4971 51.97C59.4971 57.3871 57.0093 62.2198 53.1241 65.3763C56.064 67.7665 59.8012 69.2 63.8755 69.2C73.3335 69.2 80.9997 61.4865 80.9997 51.97C80.9997 42.4536 73.3335 34.7401 63.8755 34.7401Z" fill="#C07404" stroke="#1C1C1C" stroke-width="0.5" stroke-miterlimit="10"/>
<path d="M59.4974 51.97C59.4974 46.5529 57.0096 41.7202 53.1244 38.5637C49.2393 41.723 46.7515 46.5529 46.7515 51.97C46.7515 57.3871 49.2393 62.2197 53.1244 65.3763C57.0096 62.217 59.4974 57.3871 59.4974 51.97Z" fill="#A0420B" stroke="#1C1C1C" stroke-width="0.5" stroke-miterlimit="10"/>
<path d="M42.5026 49.23C42.5026 43.8129 44.9904 38.9802 48.8756 35.8237C45.9357 33.4335 42.1985 32 38.1243 32C28.6662 32 21 39.7135 21 49.23C21 58.7464 28.6662 66.4599 38.1243 66.4599C42.1985 66.4599 45.9357 65.0264 48.8756 62.6362C44.9904 59.477 42.5026 54.6471 42.5026 49.23Z" fill="#EB001B" stroke="#1C1C1C" stroke-width="0.5" stroke-miterlimit="10"/>
<path d="M59.6267 32C55.5525 32 51.8153 33.4335 48.8754 35.8237C52.7605 38.983 55.2483 43.8129 55.2483 49.23C55.2483 54.6471 52.7605 59.4797 48.8754 62.6362C51.8153 65.0264 55.5525 66.4599 59.6267 66.4599C69.0848 66.4599 76.751 58.7464 76.751 49.23C76.751 39.7135 69.0848 32 59.6267 32Z" fill="#FF9500" stroke="#1C1C1C" stroke-width="0.5" stroke-miterlimit="10"/>
<path d="M55.2486 49.2299C55.2486 43.8128 52.7608 38.9801 48.8757 35.8236C44.9905 38.9829 42.5027 43.8128 42.5027 49.2299C42.5027 54.647 44.9905 59.4796 48.8757 62.6362C52.7608 59.4769 55.2486 54.647 55.2486 49.2299Z" fill="#FF5F00" stroke="#1C1C1C" stroke-width="0.5" stroke-miterlimit="10"/>
</svg>
