<svg width="62" height="62" viewBox="0 0 62 62" fill="none" xmlns="http://www.w3.org/2000/svg">
<g clip-path="url(#clip0_18011_3188)">
<path d="M56.1483 46.0537C39.3806 45.9864 22.6213 45.9864 5.85367 46.0537C3.61686 48.4586 2.53209 49.6527 0.5896 52.0409C20.8638 52.0409 41.1381 52.0409 61.4039 52.0409C59.4614 49.6527 58.3767 48.4586 56.1399 46.0537H56.1483Z" fill="#E8EDFA" stroke="#1C1C1C" stroke-width="0.5" stroke-linejoin="round"/>
<path d="M58.3175 57.1452C40.1034 57.2293 21.8978 57.2293 3.6838 57.1452C2.14494 57.1452 0.715403 55.867 0.639721 54.3365C0.589267 53.4199 0.580858 52.9575 0.589267 52.0409C20.8635 52.0409 41.1377 52.0409 61.4036 52.0409C61.412 52.9575 61.4036 53.4199 61.3531 54.3365C61.2774 55.867 59.8479 57.1368 58.309 57.1452H58.3175Z" fill="#CCD9FD" stroke="#1C1C1C" stroke-width="0.5" stroke-linejoin="round"/>
<path d="M56.1244 46.0874C39.3735 46.3986 22.6311 46.3986 5.88024 46.0874C5.49343 35.0631 5.45979 24.0809 5.77933 13.0566C5.82979 11.6271 7.03228 10.4498 8.46182 10.4246C23.4888 10.1807 38.5074 10.1807 53.5344 10.4246C54.9639 10.4498 56.1664 11.6355 56.2169 13.0566C56.5364 24.0809 56.5028 35.0631 56.116 46.0874H56.1244Z" fill="#CCD9FD" stroke="#1C1C1C" stroke-width="0.5" stroke-linejoin="round"/>
<path d="M24.3728 36.9382L26.1555 31.3209L47.8088 29.8157L48.3554 25.4262L52.0218 25.216C52.0049 21.6337 51.9713 18.0598 51.8956 14.4776C37.9702 14.3178 24.0448 14.3178 10.1194 14.4776C9.92601 23.6855 9.92601 32.8766 10.1194 42.0845C12.516 42.1098 14.9042 42.1266 17.3008 42.1434L19.8487 38.3089L24.3728 36.9382Z" fill="#4169E1" stroke="#1C1C1C" stroke-width="0.5" stroke-linejoin="round"/>
<path d="M48.354 25.4263L47.8074 29.8158L26.1541 31.321L24.3713 36.9383L19.8473 38.3089L17.2993 42.1435C28.8281 42.2276 40.357 42.2107 51.8942 42.0846C52.0119 36.4589 52.054 30.8333 52.0203 25.216L48.354 25.4263Z" fill="#FF9500" stroke="#1C1C1C" stroke-width="0.5" stroke-miterlimit="10"/>
<path d="M37.8244 48.711C43.551 48.711 48.2012 43.9936 48.2012 38.1661C48.2012 32.3386 43.551 27.6211 37.8244 27.6211C32.0979 27.6211 27.4561 32.3386 27.4561 38.1661C27.4561 43.9936 32.0979 48.711 37.8244 48.711Z" fill="#FFE2C8" stroke="#1C1C1C" stroke-width="0.5" stroke-miterlimit="10"/>
<path d="M37.8581 46.3398C42.3737 46.3398 46.0317 42.6818 46.0317 38.1661C46.0317 33.6505 42.3737 29.9925 37.8581 29.9925C33.3424 29.9925 29.6929 33.6505 29.6929 38.1661C29.6929 42.6818 33.3508 46.3398 37.8581 46.3398Z" fill="#FF9500" stroke="#1C1C1C" stroke-width="0.5" stroke-miterlimit="10"/>
<path d="M41.6933 35.7359C41.7858 36.6861 41.399 37.2579 40.802 37.5775C41.8026 37.8298 42.4249 38.4436 42.2988 39.8395C42.139 41.5634 40.9197 42.0427 39.1706 42.1436V43.4386C39.1706 43.7245 38.9351 43.96 38.6492 43.96C38.3633 43.96 38.1279 43.7245 38.1279 43.4386V42.1688C37.8588 42.1688 37.5813 42.1688 37.2954 42.152V43.4302C37.2954 43.7161 37.0683 43.9515 36.774 43.9515C36.4797 43.9515 36.2527 43.7161 36.2527 43.4302V42.1352C36.0088 42.1352 35.7649 42.1184 35.5127 42.1184H34.9072C34.512 42.1184 34.2093 41.7652 34.2765 41.37V41.3531C34.3354 41.042 34.6129 40.815 34.924 40.815C35.1342 40.815 35.1258 40.815 35.1258 40.815C35.4202 40.815 35.4874 40.5963 35.5127 40.445V37.5775V35.5173C35.4706 35.2986 35.3277 35.0295 34.9072 35.0295C34.9072 35.0295 34.9072 35.0295 34.7306 35.0295C34.4111 35.0295 34.1504 34.7689 34.1504 34.4493C34.1504 34.1298 34.4027 33.8691 34.7306 33.8691H36.2611V32.5909C36.2611 32.305 36.4881 32.0695 36.7824 32.0695C37.0767 32.0695 37.3038 32.305 37.3038 32.5909V33.8355C37.5813 33.8355 37.8504 33.8186 38.1363 33.8186V32.5909C38.1363 32.305 38.3633 32.0695 38.6576 32.0695C38.952 32.0695 39.179 32.305 39.179 32.5909V33.8691C40.516 33.9868 41.5924 34.4157 41.7017 35.7275L41.6933 35.7359ZM40.2217 39.6293C40.2217 38.225 38.0101 38.4268 37.3038 38.4268V40.8318C38.0101 40.8318 40.2217 41 40.2217 39.6293ZM39.7508 36.2404C39.7508 34.9454 37.9008 35.1389 37.3038 35.1389V37.3252C37.9008 37.3252 39.7508 37.4682 39.7508 36.2404Z" fill="white"/>
<path d="M40.3736 23.2231C40.3736 23.2231 35.8495 16.4874 33.4529 16.706L31.8552 16.5126L28.4411 13.0986L28.2477 11.5008C28.4664 9.10426 21.7307 4.58859 21.7307 4.58859C25.2121 4.94177 29.1139 7.1029 32.4523 10.0797C33.3016 10.8365 34.1173 11.6522 34.8741 12.5015C37.8509 15.8399 40.012 19.7417 40.3652 23.2231H40.3736Z" fill="#1C1C1C" stroke="#1C1C1C" stroke-width="0.5" stroke-linejoin="round"/>
<path d="M36.4446 10.9374L34.8806 12.5015C34.1237 11.6521 33.3081 10.8365 32.4587 10.0796L34.0228 8.51556L36.4446 10.9374Z" fill="#FFE2C8" stroke="#1C1C1C" stroke-width="0.5" stroke-miterlimit="10"/>
<path d="M28.9406 13.6022L13.2131 29.3296L15.6332 31.7497L31.3606 16.0222L28.9406 13.6022Z" fill="#FFE2C8" stroke="#1C1C1C" stroke-width="0.5" stroke-miterlimit="10"/>
</g>
<defs>
<clipPath id="clip0_18011_3188">
<rect width="62" height="62" rx="5" fill="white"/>
</clipPath>
</defs>
</svg>
