<svg width="102" height="102" viewBox="0 0 102 102" fill="none" xmlns="http://www.w3.org/2000/svg">
<rect x="0.5" y="0.5" width="101" height="101" rx="4.5" stroke="#9747FF" stroke-dasharray="10 5"/>
<path d="M36.9696 48.2302C37.1396 46.4402 38.5696 45.0402 40.3696 44.8902C50.1796 44.0502 59.9796 44.0502 69.7896 44.8902C71.5796 45.0402 73.0096 46.4402 73.1996 48.2202C73.9496 55.5802 73.9496 62.9402 73.1996 70.3002C73.0096 72.0902 71.5896 73.4802 69.7896 73.6302C60.0096 74.4702 50.2296 74.4702 40.4496 73.6302C38.6196 73.4702 37.1796 72.0302 37.0196 70.2002C36.3696 62.6002 36.3096 55.2502 36.9796 48.2202L36.9696 48.2302Z" fill="#FF9500" stroke="#1C1C1C" stroke-width="0.5" stroke-linejoin="round"/>
<path d="M36.9696 45.3902C37.1396 43.6002 38.5696 42.2002 40.3696 42.0502C50.1796 41.2102 59.9796 41.2102 69.7896 42.0502C71.5796 42.2002 73.0096 43.6002 73.1996 45.3802C73.9496 52.7402 73.9496 60.1002 73.1996 67.4602C73.0096 69.2502 71.5896 70.6402 69.7896 70.7902C60.0096 71.6302 50.2296 71.6302 40.4496 70.7902C38.6196 70.6302 37.1796 69.1902 37.0196 67.3602C36.3696 59.7602 36.3096 52.4102 36.9796 45.3802L36.9696 45.3902Z" fill="#FFE2C8" stroke="#1C1C1C" stroke-width="0.5" stroke-linejoin="round"/>
<path d="M57.4896 57.2602C57.5696 53.8102 60.5096 51.0702 63.9596 51.0002C67.4096 50.9302 70.9296 51.1002 74.5596 51.4502C75.0496 54.8602 74.8996 58.4902 74.7896 63.1102C74.7796 63.6002 74.3996 64.0102 73.9096 64.0502C70.6596 64.3302 67.4796 64.4402 64.2696 64.3602C60.4796 64.2702 57.3896 61.0602 57.4796 57.2502L57.4896 57.2602Z" fill="#FF9500" stroke="#1C1C1C" stroke-width="0.5" stroke-linejoin="round"/>
<path d="M57.4896 54.9802C57.5696 51.5202 60.5096 48.7902 63.9696 48.7002C67.2796 48.6102 70.5796 48.7002 73.8796 48.9902C74.4296 49.0402 74.8596 49.4902 74.8896 50.0402C75.1396 54.6102 75.1296 56.0902 74.9496 61.7102C71.4196 62.0502 67.8396 62.1802 64.2796 62.1002C60.4796 62.0102 57.4096 58.8002 57.4996 54.9902L57.4896 54.9802Z" fill="#FFE2C8" stroke="#1C1C1C" stroke-width="0.5" stroke-linejoin="round"/>
<path d="M63.6996 57.9702C65.4117 57.9702 66.7996 56.5823 66.7996 54.8702C66.7996 53.1581 65.4117 51.7702 63.6996 51.7702C61.9875 51.7702 60.5996 53.1581 60.5996 54.8702C60.5996 56.5823 61.9875 57.9702 63.6996 57.9702Z" fill="#FF9500" stroke="#1C1C1C" stroke-width="0.5" stroke-linejoin="round"/>
<path d="M52.41 55.07C50.46 59.24 47.3 61.45 42.3 65.31C41.88 65.63 41.45 65.96 41 66.29C40.55 65.96 40.11 65.63 39.7 65.31C34.7 61.41 31.54 59.25 29.59 55.07C27.74 51.09 27 31.86 27 31.86C32.93 32.24 37.21 34.29 39.7 32.62C40.21 32.28 40.64 31.95 41 31.66C41.36 31.96 41.79 32.28 42.3 32.62C44.78 34.28 49.06 32.24 54.99 31.86C54.99 31.86 54.25 51.09 52.4 55.06L52.41 55.07Z" fill="#4169E1" stroke="#1C1C1C" stroke-width="0.5" stroke-linejoin="round"/>
<path d="M42.56 48.9C42.78 50.98 42.89 52.02 43.11 54.11C41.42 54.11 40.58 54.11 38.89 54.11C39.11 52.03 39.22 50.99 39.44 48.9C38.49 48.49 37.7 47.72 37.29 46.69C36.49 44.65 37.5 42.33 39.54 41.52C41.58 40.71 43.9 41.73 44.7 43.77C45.49 45.78 44.53 48.05 42.56 48.89V48.9Z" fill="#FF9500" stroke="#1C1C1C" stroke-width="0.5" stroke-linejoin="round"/>
<path d="M52.43 50.94C50.49 55.1 47.33 57.29 42.31 61.14C41.89 61.46 41.45 61.79 41.01 62.12C40.55 61.79 40.12 61.46 39.71 61.14C34.69 57.24 31.53 55.1 29.59 50.94C27.73 46.97 27 31.67 27 31.67C32.93 32.05 37.23 30.13 39.7 28.46C40.21 28.12 40.64 27.79 41 27.5C41.36 27.8 41.79 28.12 42.3 28.46C44.77 30.12 49.07 32.05 54.99 31.66C54.99 31.66 54.27 46.97 52.43 50.93V50.94Z" fill="#CCD9FD" stroke="#1C1C1C" stroke-width="0.5" stroke-linejoin="round"/>
<path d="M42.56 44.73C42.78 46.81 42.89 47.86 43.11 49.94C41.42 49.94 40.57 49.94 38.88 49.94C39.1 47.86 39.21 46.82 39.43 44.73C38.48 44.32 37.69 43.56 37.29 42.52C36.49 40.49 37.5 38.16 39.54 37.35C41.58 36.54 43.89 37.56 44.69 39.61C45.49 41.63 44.53 43.89 42.55 44.73H42.56Z" fill="#4169E1" stroke="#1C1C1C" stroke-width="0.5" stroke-linejoin="round"/>
</svg>
