<svg width="102" height="102" viewBox="0 0 102 102" fill="none" xmlns="http://www.w3.org/2000/svg">
<rect x="0.5" y="0.5" width="101" height="101" rx="4.5" stroke="#9747FF" stroke-dasharray="10 5"/>
<path d="M79.2303 36.1399C79.5103 48.8299 79.4103 61.3199 78.9303 73.9999C69.6203 74.4099 64.9703 74.5399 55.6603 74.6099C55.4603 75.4099 55.3503 75.8099 55.1503 76.6099C51.8603 76.6299 50.2103 76.6299 46.9203 76.6099C46.7203 75.8099 46.6103 75.4099 46.4103 74.6099C37.1103 74.5399 32.4603 74.4199 23.1403 73.9999C22.6603 61.3199 22.5603 48.8299 22.8403 36.1399C41.6503 35.6999 60.4103 35.6999 79.2103 36.1399H79.2303Z" fill="#4169E1" stroke="#1C1C1C" stroke-width="0.5" stroke-linecap="round" stroke-linejoin="round"/>
<path d="M79.1403 32.0399C79.4903 44.7299 79.4503 57.2199 79.0403 69.8999C69.6903 70.2699 65.0203 70.3899 55.6803 70.4499C55.4703 71.2499 55.3703 71.6499 55.1703 72.4499C51.8703 72.4699 50.2103 72.4699 46.9103 72.4499C46.7103 71.6499 46.6003 71.2499 46.4003 70.4499C37.0603 70.3899 32.3903 70.2699 23.0403 69.8999C22.6303 57.2199 22.5903 44.7199 22.9403 32.0399C41.6903 31.5399 60.3903 31.5399 79.1403 32.0399Z" fill="#CCD9FD" stroke="#1C1C1C" stroke-width="0.5" stroke-linecap="round" stroke-linejoin="round"/>
<path d="M51.0403 67.99C41.6903 65.83 36.6203 64.9 27.3403 66.75C27.0303 54.01 27.1003 41.4599 27.5403 28.7299C36.9303 26.2699 41.7403 27.0399 51.0403 29.1999C51.0403 42.1299 51.0403 55.06 51.0403 67.99Z" fill="white" stroke="#1C1C1C" stroke-width="0.5" stroke-linecap="round" stroke-linejoin="round"/>
<path d="M74.7503 66.7599C65.4703 64.9099 60.3903 65.84 51.0503 68V29.1999C60.3503 27.0399 65.1603 26.2699 74.5503 28.7299C74.9903 41.4599 75.0603 54.02 74.7503 66.75V66.7599Z" fill="white" stroke="#1C1C1C" stroke-width="0.5" stroke-linecap="round" stroke-linejoin="round"/>
<path d="M51.0403 67.99C41.6903 65.83 36.6203 64.9 27.3403 66.75C27.0303 54.01 27.1003 41.4599 27.5403 28.7299C36.9303 26.2699 41.7403 27.0399 51.0403 29.1999C51.0403 42.1299 51.0403 55.06 51.0403 67.99Z" fill="#FFE2C8" stroke="#1C1C1C" stroke-width="0.5" stroke-linecap="round" stroke-linejoin="round"/>
<path d="M74.7503 66.7599C65.4703 64.9099 60.3903 65.84 51.0503 68V29.1999C60.3503 27.0399 65.1603 26.2699 74.5503 28.7299C74.9903 41.4599 75.0603 54.02 74.7503 66.75V66.7599Z" fill="#FFE2C8" stroke="#1C1C1C" stroke-width="0.5" stroke-linecap="round" stroke-linejoin="round"/>
<path d="M67.4103 45.8799C65.6703 44.4799 64.8003 43.7699 63.0603 42.3599C61.3403 43.7499 60.4803 44.4499 58.7603 45.8499C58.7503 41.5099 58.7303 39.3499 58.6803 35.0099C58.6403 31.2799 58.6103 29.4199 58.5503 25.6899C61.9203 25.7299 63.6003 25.7699 66.9803 25.8599C67.1203 29.5599 67.1703 31.4099 67.2603 35.1099C67.3603 39.4099 67.3903 41.5699 67.4203 45.8699L67.4103 45.8799Z" fill="#4169E1" stroke="#1C1C1C" stroke-width="0.5" stroke-linecap="round" stroke-linejoin="round"/>
<path d="M45.5892 42.5401C45.7692 44.2801 45.0492 45.3401 43.9492 45.9301C45.7892 46.4001 46.9292 47.5301 46.6992 50.1001C46.4092 53.2801 44.1692 54.1501 40.9392 54.3401V56.7201C40.9392 57.2501 40.5092 57.6801 39.9792 57.6801C39.4492 57.6801 39.0192 57.2501 39.0192 56.7201V54.3901C38.5292 54.3901 38.0092 54.3901 37.4992 54.3701V56.7301C37.4992 57.2601 37.0692 57.6901 36.5392 57.6901C36.0092 57.6901 35.5792 57.2601 35.5792 56.7301V54.3501C35.1292 54.3501 34.6792 54.3301 34.2092 54.3301H33.1092C32.3692 54.3301 31.8092 53.6701 31.9292 52.9401C32.0292 52.3601 32.5392 51.9401 33.1292 51.9401C33.4992 51.9401 33.4892 51.9301 33.4892 51.9301C34.0292 51.9301 34.1592 51.5301 34.2092 51.2501V42.1901C34.1392 41.7901 33.8692 41.3001 33.0892 41.3001C33.0892 41.3001 33.0892 41.3001 32.7792 41.2901C32.1892 41.2901 31.6992 40.8101 31.6992 40.2201C31.6992 39.6301 32.1792 39.1601 32.7592 39.1601H35.5692V36.8001C35.5692 36.2701 35.9992 35.8401 36.5292 35.8401C37.0592 35.8401 37.4892 36.2701 37.4892 36.8001V39.0901C37.9992 39.0901 38.4992 39.0701 39.0092 39.0701V36.8101C39.0092 36.2801 39.4392 35.8501 39.9692 35.8501C40.4992 35.8501 40.9292 36.2801 40.9292 36.8101V39.1701C43.3892 39.3801 45.3592 40.1801 45.5692 42.5801L45.5892 42.5401ZM42.8992 49.7001C42.8992 47.1101 38.8192 47.4901 37.5192 47.4901V51.9201C38.8192 51.9201 42.8992 52.2301 42.8992 49.7101V49.7001ZM42.0192 43.4601C42.0192 41.0801 38.6092 41.4401 37.5192 41.4401V45.4701C38.6192 45.4701 42.0192 45.7301 42.0192 43.4701V43.4601Z" fill="#1C1C1C"/>
<path d="M46.4004 70.45L46.9304 76.61" stroke="#1C1C1C" stroke-width="0.5" stroke-linecap="round" stroke-linejoin="round"/>
<path d="M55.5105 70.45L54.9805 76.61" stroke="#1C1C1C" stroke-width="0.5" stroke-linecap="round" stroke-linejoin="round"/>
</svg>
