<svg width="102" height="102" viewBox="0 0 102 102" fill="none" xmlns="http://www.w3.org/2000/svg">
<rect x="0.5" y="0.5" width="101" height="101" rx="4.5" stroke="#8A38F5" stroke-dasharray="10 5"/>
<path d="M78.606 78.9401C59.866 79.3301 41.156 79.3301 22.4159 78.9401C22.0859 68.7601 21.9559 58.5501 22.0259 48.3701C41.016 48.3001 60.006 48.3001 78.996 48.3701C79.066 58.5501 78.9461 68.7601 78.606 78.9401Z" fill="#FF9500" stroke="#1C1C1C" stroke-width="0.5" stroke-linejoin="round"/>
<path d="M78.4963 43.63C59.6862 43.49 40.8762 43.5 22.0662 43.63C29.9662 36.9 33.9462 33.46 41.7462 26.66C48.5762 26.6 51.9962 26.6 58.8262 26.66C66.6162 33.46 70.5963 36.9 78.4963 43.63Z" fill="#FF9500" stroke="#1C1C1C" stroke-width="0.5" stroke-linejoin="round"/>
<path d="M78.7138 75.1002C59.9038 75.4302 41.1138 75.4302 22.3037 75.1002C22.0137 64.9202 21.9337 54.7102 22.0537 44.5301C41.0238 44.4001 59.9938 44.4001 78.9638 44.5301C79.0838 54.7102 79.0038 64.9202 78.7138 75.1002Z" fill="#FFE2C8" stroke="#1C1C1C" stroke-width="0.5" stroke-linejoin="round"/>
<path d="M78.5063 44.0802C59.6862 43.9502 40.8762 43.9502 22.0662 44.0802C29.8262 50.6602 33.7862 54.0602 41.6362 60.8103C48.5562 60.8303 52.0162 60.8303 58.9362 60.8103C66.7863 54.0502 70.7463 50.6602 78.5063 44.0702V44.0802Z" fill="#1C1C1C" stroke="#1C1C1C" stroke-width="0.5" stroke-linecap="round" stroke-linejoin="round"/>
<path d="M67.5753 45.8101C67.5753 55.0001 60.0153 62.4601 50.6853 62.4601C41.3553 62.4601 33.1252 54.3901 33.1252 45.2001C32.2152 29.69 41.3553 29.17 50.6853 29.17C60.0153 29.17 68.0853 29.98 67.5753 45.8201V45.8101Z" fill="#637DEB" stroke="#1C1C1C" stroke-width="0.5" stroke-miterlimit="10"/>
<path d="M50.2955 58.0101C59.8055 58.0101 67.5155 50.1701 67.5155 40.5C67.5155 30.83 59.8055 23 50.2955 23C40.7855 23 33.0754 30.84 33.0754 40.51C33.0754 50.1801 40.7855 58.0201 50.2955 58.0201V58.0101Z" fill="#CCD9FD" stroke="#1C1C1C" stroke-width="0.5" stroke-miterlimit="10"/>
<path d="M50.3352 54.06C57.8252 54.06 63.8952 47.99 63.8952 40.5C63.8952 33.01 57.8252 26.93 50.3352 26.93C42.8451 26.93 36.7651 33 36.7651 40.5C36.7651 48 42.8351 54.06 50.3352 54.06Z" fill="#637DEB" stroke="#1C1C1C" stroke-width="0.5" stroke-miterlimit="10"/>
<path d="M51.1892 43.4939C50.7444 43.751 50.2105 43.751 49.7657 43.4939L45.8214 41.24C45.1591 40.8644 44.9119 40.034 45.2579 39.3519L49.2517 31.4831C49.7855 30.4253 51.3078 30.4451 51.8219 31.5127L55.6179 39.431C55.9441 40.1032 55.6871 40.9138 55.0347 41.2895L51.1892 43.4841V43.4939Z" fill="white"/>
<path d="M50.978 45.0877C50.543 45.325 50.0092 45.325 49.5841 45.0778L46.4208 43.2688C45.7486 42.8833 45.0269 43.6939 45.4916 44.3167L49.1492 49.2989C49.7126 50.07 50.8594 50.0799 51.4426 49.3187L55.2881 44.287C55.7626 43.6741 55.0508 42.8536 54.3786 43.2292L50.9879 45.0877H50.978Z" fill="white"/>
<path d="M78.2648 75.11C59.6048 75.43 40.9647 75.43 22.3047 75.1C29.8947 68.62 33.8047 65.26 41.6247 58.54C48.5547 58.55 52.0147 58.55 58.9348 58.54C66.7548 65.27 70.6648 68.63 78.2648 75.11Z" fill="#FFE2C8" stroke="#1C1C1C" stroke-width="0.5" stroke-linejoin="round"/>
</svg>
