<svg width="62" height="62" viewBox="0 0 62 62" fill="none" xmlns="http://www.w3.org/2000/svg">
<g clip-path="url(#clip0_18011_6692)">
<path d="M59.6872 28.3433C46.3518 28.5726 33.0255 28.5451 19.6901 28.3433C19.3048 20.2999 19.2865 16.2827 19.5708 8.23927C32.9796 8.08335 46.3884 8.06501 59.7972 8.23927C60.0816 16.2827 60.0724 20.2999 59.678 28.3433H59.6872Z" fill="#2AA5A5" stroke="#1C1C1C" stroke-width="0.5" stroke-linejoin="round"/>
<path d="M59.7969 25.6285C46.3881 25.8028 32.9793 25.7844 19.5705 25.6285C19.2862 17.5851 19.2953 13.5679 19.6897 5.52448C33.0251 5.32271 46.3514 5.2952 59.6868 5.52448C60.072 13.5679 60.0904 17.5851 59.8061 25.6285H59.7969Z" fill="#B9E5DE" stroke="#1C1C1C" stroke-width="0.5" stroke-linejoin="round"/>
<path d="M53.1199 23.2073C44.1685 23.244 35.2171 23.244 26.2656 23.2073C26.2289 21.4097 24.7523 19.9422 22.9455 19.933C22.9088 16.4387 22.918 14.6961 22.9822 11.2109C24.789 11.2109 26.2748 9.73427 26.3207 7.93665C35.2354 7.89079 44.1502 7.89079 53.0649 7.93665C53.1016 9.73427 54.5966 11.2109 56.4034 11.2109C56.4676 14.7053 56.4767 16.4478 56.44 19.933C54.6332 19.933 53.1566 21.4005 53.1199 23.2073Z" fill="#2AA5A5" stroke="#1C1C1C" stroke-width="0.5" stroke-linejoin="round"/>
<path d="M39.6657 23.088C43.7745 23.088 47.1038 19.7588 47.1038 15.6499C47.1038 11.5411 43.7745 8.21179 39.6657 8.21179C35.5568 8.21179 32.2275 11.5411 32.2275 15.6499C32.2275 19.7588 35.5568 23.088 39.6657 23.088Z" fill="#B9E5DE" stroke="#1C1C1C" stroke-width="0.5" stroke-linejoin="round"/>
<path d="M43.1597 13.568C43.2515 14.4301 42.8938 14.9529 42.3526 15.2464C43.2606 15.4757 43.8293 16.0443 43.71 17.31C43.5725 18.8875 42.4535 19.3094 40.8669 19.4103V20.5842C40.8669 20.8502 40.6559 21.0611 40.3899 21.0611C40.124 21.0611 39.913 20.8502 39.913 20.5842V19.4286C39.6654 19.4286 39.4086 19.4286 39.1609 19.4194V20.5842C39.1609 20.8502 38.95 21.0611 38.684 21.0611C38.4181 21.0611 38.2071 20.8502 38.2071 20.5842V19.4103C37.987 19.4103 37.7669 19.4011 37.5284 19.4011H36.9873C36.6204 19.4011 36.3453 19.0709 36.4095 18.7132C36.4553 18.4289 36.7121 18.218 36.9965 18.218C37.1799 18.218 37.1799 18.218 37.1799 18.218C37.4459 18.218 37.5101 18.0162 37.5376 17.8786V13.3937C37.5009 13.1919 37.3725 12.9535 36.9873 12.9535H36.8405C36.5471 12.9535 36.3086 12.715 36.3086 12.4215C36.3086 12.128 36.5471 11.8988 36.8314 11.8988H38.2254V10.734C38.2254 10.468 38.4364 10.257 38.7024 10.257C38.9683 10.257 39.1793 10.468 39.1793 10.734V11.8621C39.4361 11.8621 39.6746 11.8529 39.9314 11.8529V10.734C39.9314 10.468 40.1423 10.257 40.4083 10.257C40.6743 10.257 40.8852 10.468 40.8852 10.734V11.8988C42.105 11.9996 43.0772 12.4032 43.1781 13.5863L43.1597 13.568ZM41.8207 17.1082C41.8207 15.8242 39.803 16.0076 39.1609 16.0076V18.1996C39.803 18.1996 41.8207 18.3464 41.8207 17.099V17.1082ZM41.3896 14.0266C41.3896 12.8526 39.7021 13.0269 39.1609 13.0269V15.0171C39.7021 15.0171 41.3896 15.1455 41.3896 14.0266Z" fill="#1C1C1C"/>
<path d="M6.61979 26.9675C6.81239 24.8856 8.48161 23.2531 10.5727 23.0788C21.9913 22.1066 33.4007 22.1066 44.8193 23.0788C46.9104 23.2531 48.5705 24.8764 48.7906 26.9584C49.6619 35.5246 49.6619 44.0908 48.7906 52.6662C48.5705 54.7482 46.9104 56.3715 44.8193 56.5458C33.4374 57.5272 22.0555 57.5272 10.6644 56.5458C8.53664 56.3624 6.85825 54.684 6.67482 52.5562C5.92275 43.7056 5.84021 35.1486 6.61979 26.9675Z" fill="#FFE2C8" stroke="#1C1C1C" stroke-width="0.5" stroke-linejoin="round"/>
<path d="M6.62003 23.6659C6.81263 21.5839 8.48186 19.9514 10.573 19.7771C21.9916 18.805 33.401 18.805 44.8195 19.7771C46.9107 19.9514 48.5707 21.5748 48.7908 23.6567C49.6621 32.2229 49.6621 40.7892 48.7908 49.3646C48.5707 51.4465 46.9107 53.0699 44.8195 53.2441C33.4376 54.2255 22.0558 54.2255 10.6647 53.2441C8.53689 53.0607 6.85849 51.3823 6.67506 49.2545C5.92299 40.404 5.84045 31.8469 6.62003 23.6659Z" fill="#FF9500" stroke="#1C1C1C" stroke-width="0.5" stroke-miterlimit="10"/>
<path d="M30.5028 37.4874C30.5945 33.4703 34.0155 30.2786 38.0326 30.2052C42.114 30.1318 46.1495 30.3244 50.3776 30.7371C50.9462 34.7084 50.7719 38.9365 50.6435 44.311C50.6344 44.8797 50.185 45.3566 49.6255 45.4024C45.8376 45.7326 42.1323 45.8518 38.4087 45.7601C33.9972 45.6501 30.4019 41.9173 30.5028 37.4874Z" fill="#FFE2C8" stroke="#1C1C1C" stroke-width="0.5" stroke-linejoin="round"/>
<path d="M30.5025 34.8277C30.5942 30.8013 34.0243 27.628 38.0415 27.5179C41.8935 27.417 45.7364 27.5179 49.5793 27.8573C50.2121 27.9123 50.7166 28.4351 50.7533 29.0771C51.0467 34.3966 51.0376 36.1208 50.8175 42.6602C46.7086 43.0637 42.5447 43.2105 38.39 43.1096C33.9693 42.9995 30.3924 39.2667 30.4933 34.8277H30.5025Z" fill="#FF9500" stroke="#1C1C1C" stroke-width="0.5" stroke-miterlimit="10"/>
<path d="M37.7386 38.322C39.7343 38.322 41.3522 36.7041 41.3522 34.7084C41.3522 32.7126 39.7343 31.0948 37.7386 31.0948C35.7429 31.0948 34.125 32.7126 34.125 34.7084C34.125 36.7041 35.7429 38.322 37.7386 38.322Z" fill="white" stroke="#1C1C1C" stroke-width="0.5" stroke-linejoin="round"/>
<path d="M9.00447 18.3005C9.85743 18.6123 10.5453 18.8691 11.224 19.1259C12.187 19.4836 12.187 20.841 11.224 21.1987C10.5361 21.4555 9.84825 21.7123 9.00447 22.0241C8.70181 22.1342 8.45418 22.3818 8.33495 22.6845C8.02311 23.5374 7.76631 24.2253 7.50951 24.904C7.15182 25.867 5.79443 25.867 5.43674 24.904C5.17993 24.2161 4.92313 23.5283 4.6113 22.6845C4.50124 22.3818 4.25361 22.1342 3.94177 22.015C3.08882 21.7031 2.40095 21.4463 1.72226 21.1895C0.759247 20.8318 0.759247 19.4745 1.72226 19.1168C2.41013 18.86 3.09799 18.6032 3.94177 18.2913C4.24444 18.1813 4.49207 17.9336 4.60213 17.6218C4.91396 16.7688 5.17076 16.081 5.42757 15.4023C5.78526 14.4393 7.14265 14.4393 7.50034 15.4023C7.75714 16.0901 8.01394 16.778 8.32578 17.6218C8.43584 17.9245 8.68347 18.1721 8.98613 18.2913L9.00447 18.3005Z" fill="white" stroke="#1C1C1C" stroke-width="0.5" stroke-linejoin="round"/>
<path d="M25.2841 33.0024C25.119 34.6166 24.2752 35.4512 23.1655 35.7814C24.743 36.5518 25.5776 37.79 24.8897 40.0829C24.0276 42.9169 21.8356 43.2929 18.864 42.8527L18.4146 45.0171C18.3137 45.5032 17.846 45.8151 17.3599 45.7142C16.8738 45.6133 16.5619 45.1455 16.6628 44.6595L17.1031 42.5408C16.6537 42.4491 16.1859 42.3482 15.7273 42.2382L15.2871 44.3751C15.1862 44.8612 14.7185 45.1731 14.2324 45.0722C13.7463 44.9713 13.4344 44.5035 13.5353 44.0174L13.9847 41.853C13.572 41.7704 13.1776 41.6604 12.7466 41.5778L11.7469 41.376C11.0774 41.2385 10.6921 40.5323 10.9398 39.8902C11.1416 39.3766 11.6827 39.0923 12.2146 39.2024C12.554 39.2758 12.5448 39.2574 12.5448 39.2574C13.0309 39.3583 13.2327 39.019 13.3244 38.7713L14.3149 33.9746L15.0211 30.5261C15.0395 30.1501 14.8835 29.6548 14.1682 29.5081C14.1682 29.5081 14.1773 29.5081 13.893 29.4439C13.3519 29.3338 13.0034 28.811 13.1134 28.2699C13.2235 27.7288 13.7463 27.3894 14.2782 27.4995L15.7365 27.8021L16.8371 28.0314L17.2773 25.8945C17.3782 25.4084 17.846 25.0965 18.3321 25.1974C18.8181 25.2983 19.13 25.7661 19.0291 26.2522L18.598 28.3249C19.0658 28.4166 19.5152 28.49 19.9829 28.5909L20.4048 26.5365C20.5057 26.0504 20.9735 25.7385 21.4595 25.8394C21.9456 25.9403 22.2575 26.4081 22.1566 26.8942L21.7164 29.0311C23.9175 29.6823 25.5592 30.7829 25.2933 33.0024H25.2841ZM21.4962 39.0006C21.9823 36.6435 18.2036 36.2308 17.0205 35.9832L16.1951 40.0095C17.3782 40.2571 21.0193 41.2935 21.4962 39.0006ZM21.8723 33.1675C22.3217 31.003 19.1575 30.6912 18.1578 30.4894L17.4057 34.1489C18.4054 34.3506 21.4504 35.2311 21.8723 33.1767V33.1675Z" fill="white"/>
</g>
<defs>
<clipPath id="clip0_18011_6692">
<rect width="62" height="62" rx="5" fill="white"/>
</clipPath>
</defs>
</svg>
