<svg width="102" height="102" viewBox="0 0 102 102" fill="none" xmlns="http://www.w3.org/2000/svg">
<rect x="0.5" y="0.5" width="101" height="101" rx="4.5" stroke="#8A38F5" stroke-dasharray="10 5"/>
<path d="M70.4879 33.3786C65.2973 28.1989 58.3961 25.3458 51.0541 25.3458C45.8836 25.3458 40.8441 26.7874 36.4823 29.5149C33.5727 31.3336 31.041 33.6702 29.008 36.3939C27.5898 35.5995 26.2408 34.9397 24.9988 34.3929C24.6235 36.277 24.3111 38.4703 24.1839 40.92C24.0939 42.6672 24.1107 44.2974 24.1937 45.7893C24.2644 47.0589 25.5359 47.8752 26.7181 47.4068C28.286 46.7857 29.9827 46.0056 31.7488 45.0212C33.2762 44.1695 34.195 43.4552 35.2166 42.6621C35.7134 42.2765 36.0101 41.6828 35.9707 41.0552C35.9054 40.0142 35.7593 38.7401 35.564 38.0548C35.0753 37.6752 33.8145 39.4846 33.2767 39.1012C34.899 37.0022 36.8866 35.1948 39.1576 33.7745C42.7171 31.5485 46.8308 30.3734 51.0554 30.3734C60.7034 30.3734 68.9491 36.4791 72.1158 45.0212C72.1393 45.0845 72.1615 45.1443 72.1825 45.2008C72.6413 46.4343 73.365 47.2325 74.6358 46.8904L75.8936 46.5517C76.7668 46.3166 77.3819 45.5201 77.3442 44.6166C77.0994 38.7596 75.2899 38.1679 70.4892 33.3773L70.4879 33.3786Z" fill="#FF9500" stroke="#1C1C1C" stroke-width="0.5" stroke-miterlimit="10" stroke-linejoin="round"/>
<path d="M70.4879 29.714C65.2973 24.5343 58.3961 21.6812 51.0541 21.6812C45.8836 21.6812 40.8441 23.1228 36.4823 25.8503C33.8231 27.5125 31.4795 29.6073 29.5439 32.0348C29.2309 32.4272 28.6811 32.5448 28.2387 32.3077C27.9049 32.1288 27.5755 31.9574 27.2511 31.7932C26.1098 31.2158 24.76 31.9179 24.5793 33.1841C24.3995 34.4439 24.2592 35.8047 24.1839 37.2554C24.0939 39.0026 24.1107 40.6328 24.1937 42.1247C24.2644 43.3943 25.5359 44.2106 26.7181 43.7422C28.286 43.1211 29.9827 42.341 31.7488 41.3566C32.8077 40.7662 33.7866 40.1606 34.6865 39.5581C35.7434 38.8504 35.7924 37.3397 34.787 36.5605C34.5684 36.391 34.345 36.221 34.1167 36.0506C33.6619 35.7111 33.5638 35.0628 33.9312 34.6302C35.4233 32.8731 37.1833 31.3459 39.1576 30.1112C42.7171 27.8852 46.8308 26.71 51.0554 26.71C60.7029 26.71 68.9483 32.8152 72.1154 41.3566C72.501 42.3965 72.7419 43.1002 72.8912 43.7816C73.2142 45.2558 74.7337 46.241 76.0659 45.5318L76.7854 45.1487C77.4379 44.8014 77.8515 44.1203 77.8244 43.3816C77.5895 36.9811 75.3847 34.5992 70.4892 29.714H70.4879Z" fill="#FFE2C8" stroke="#1C1C1C" stroke-width="0.5" stroke-miterlimit="10" stroke-linejoin="round"/>
<path d="M80.2962 41.0981C80.2962 46.6586 75.7237 51.1663 70.0831 51.1663C64.4424 51.1663 59.4651 46.2857 59.4651 40.7252C58.9174 31.3449 64.4424 31.0299 70.0831 31.0299C75.7237 31.0299 80.6059 31.517 80.2962 41.0981Z" fill="#FF9500" stroke="#1C1C1C" stroke-width="0.5" stroke-miterlimit="10"/>
<path d="M69.8413 48.4839C75.5932 48.4839 80.2561 43.744 80.2561 37.897C80.2561 32.05 75.5932 27.3101 69.8413 27.3101C64.0893 27.3101 59.4264 32.05 59.4264 37.897C59.4264 43.744 64.0893 48.4839 69.8413 48.4839Z" fill="#FFE2C8" stroke="#1C1C1C" stroke-width="0.5" stroke-miterlimit="10"/>
<path d="M69.8647 46.0918C74.3956 46.0918 78.0686 42.4188 78.0686 37.8881C78.0686 33.3573 74.3956 29.6843 69.8647 29.6843C65.3338 29.6843 61.6608 33.3573 61.6608 37.8881C61.6608 42.4188 65.3338 46.0918 69.8647 46.0918Z" fill="#FF9500" stroke="#1C1C1C" stroke-width="0.5" stroke-miterlimit="10"/>
<path d="M32.4556 43.6283C32.6157 41.8858 34.0037 40.5195 35.7425 40.3736C45.2374 39.5599 54.7246 39.5599 64.2195 40.3736C65.9583 40.5195 67.3387 41.8782 67.5217 43.6206C68.2463 50.7902 68.2463 57.9597 67.5217 65.1369C67.3387 66.8794 65.9583 68.2381 64.2195 68.384C54.7552 69.2053 45.2908 69.2053 35.8188 68.384C34.0495 68.2304 32.6538 66.8257 32.5013 65.0448C31.876 57.6373 31.8073 50.4755 32.4556 43.6283Z" fill="#4169E1" stroke="#1C1C1C" stroke-width="0.5" stroke-linejoin="round"/>
<path d="M32.4556 40.8649C32.6157 39.1224 34.0037 37.756 35.7425 37.6102C45.2374 36.7965 54.7246 36.7965 64.2195 37.6102C65.9583 37.756 67.3387 39.1147 67.5217 40.8572C68.2463 48.0268 68.2463 55.1963 67.5217 62.3735C67.3387 64.116 65.9583 65.4747 64.2195 65.6205C54.7552 66.4419 45.2908 66.4419 35.8188 65.6205C34.0495 65.467 32.6538 64.0623 32.5013 62.2814C31.876 54.8739 31.8073 47.712 32.4556 40.8649Z" fill="#CCD9FD" stroke="#1C1C1C" stroke-width="0.5" stroke-linejoin="round"/>
<path d="M52.3147 52.4329C52.391 49.0707 55.2356 46.3994 58.576 46.338C61.9697 46.2766 65.3253 46.4378 68.8411 46.7832C69.314 50.107 69.1691 53.6457 69.0623 58.1439C69.0547 58.6199 68.681 59.019 68.2158 59.0574C65.0661 59.3338 61.985 59.4335 58.8887 59.3568C55.2204 59.2647 52.2308 56.1405 52.3147 52.4329Z" fill="#4169E1" stroke="#1C1C1C" stroke-width="0.5" stroke-linejoin="round"/>
<path d="M52.3148 50.2068C52.391 46.8369 55.2433 44.181 58.5837 44.0889C61.7868 44.0044 64.9822 44.0889 68.1777 44.3729C68.7039 44.419 69.1234 44.8565 69.1539 45.3938C69.3979 49.846 69.3903 51.2891 69.2073 56.7622C65.7906 57.1 62.3282 57.2228 58.8735 57.1384C55.1976 57.0462 52.2233 53.922 52.3072 50.2068H52.3148Z" fill="#CCD9FD" stroke="#1C1C1C" stroke-width="0.5" stroke-linejoin="round"/>
<path d="M58.3319 53.1314C59.9915 53.1314 61.3367 51.7773 61.3367 50.107C61.3367 48.4367 59.9915 47.0826 58.3319 47.0826C56.6724 47.0826 55.3271 48.4367 55.3271 50.107C55.3271 51.7773 56.6724 53.1314 58.3319 53.1314Z" fill="white" stroke="#1C1C1C" stroke-width="0.5" stroke-linejoin="round"/>
<path d="M76.2957 61.0361C74.0827 61.5326 71.4754 62.303 68.6628 63.5273C67.8554 63.8792 65.1694 62.4504 64.4452 62.8186C64.1454 63.4609 64.4238 66.0803 64.4452 66.4825C65.3143 67.3975 65.2784 68.1376 66.3868 69.1167C62.2844 72.9414 56.8242 75.1636 51.0529 75.1636C38.6764 75.1636 28.6087 65.116 28.6087 52.767L26.4022 58.4223C26.4022 65.7475 26.4297 66.98 31.6203 72.1596C36.811 77.3393 43.7121 80.1924 51.0541 80.1924C58.1091 80.1924 64.7583 77.4953 69.7733 72.8448C70.1279 72.5161 70.6639 72.4712 71.0642 72.7425C71.4474 73.0023 71.8255 73.2502 72.1975 73.4869C73.2767 74.1734 74.6894 73.6073 74.9939 72.365C75.2969 71.1291 75.5703 69.789 75.7881 68.3525C76.2025 65.6162 76.3209 63.1452 76.297 61.0386L76.2957 61.0361Z" fill="#FF9500" stroke="#1C1C1C" stroke-width="0.5" stroke-miterlimit="10" stroke-linejoin="round"/>
<path d="M76.257 59.8403C76.3114 58.5696 75.1259 57.6317 73.9032 57.9817C72.2817 58.4459 70.5168 59.0557 68.6627 59.8627C67.5505 60.3465 66.5167 60.8531 65.5618 61.3648C64.4407 61.9654 64.2446 63.4637 65.1683 64.338C65.3 64.4627 65.4336 64.5878 65.5693 64.7133C66.0028 65.1142 66.0138 65.8025 65.5627 66.1835C61.5671 69.5587 56.4458 71.4991 51.0528 71.4991C44.7416 71.4991 39.0307 68.8863 34.949 64.688C31.9622 61.6157 29.9367 60.3621 29.1403 57.267C28.7887 55.9003 27.1067 55.1219 26.0352 56.0403C25.669 56.3541 25.4569 56.8151 25.4622 57.2973C25.5338 63.8281 26.6169 63.5023 31.6203 68.4951C36.8109 73.6748 43.7121 76.5279 51.0541 76.5279C58.1091 76.5279 64.7582 73.8308 69.7732 69.1803C70.1278 68.8515 70.6639 68.8067 71.0641 69.078C71.4473 69.3377 71.8254 69.5857 72.1975 69.8223C73.2767 70.5088 74.6893 69.9427 74.9939 68.7004C75.2968 67.4645 75.5703 66.1245 75.7881 64.688C76.05 62.9583 76.1932 61.3336 76.257 59.8403Z" fill="#FFE2C8" stroke="#1C1C1C" stroke-width="0.5" stroke-miterlimit="10" stroke-linejoin="round"/>
<path d="M42.5487 64.6742C42.5487 70.2346 37.9762 74.7424 32.3356 74.7424C26.695 74.7424 21.7176 69.8617 21.7176 64.3013C21.17 54.921 26.695 54.606 32.3356 54.606C37.9762 54.606 42.8585 55.093 42.5487 64.6742Z" fill="#FF9500" stroke="#1C1C1C" stroke-width="0.5" stroke-miterlimit="10"/>
<path d="M32.0949 72.0573C37.8469 72.0573 42.5098 67.3174 42.5098 61.4704C42.5098 55.6234 37.8469 50.8834 32.0949 50.8834C26.3429 50.8834 21.6801 55.6234 21.6801 61.4704C21.6801 67.3174 26.3429 72.0573 32.0949 72.0573Z" fill="#FFE2C8" stroke="#1C1C1C" stroke-width="0.5" stroke-miterlimit="10"/>
<path d="M32.1183 69.6651C36.6492 69.6651 40.3222 65.9921 40.3222 61.4614C40.3222 56.9306 36.6492 53.2576 32.1183 53.2576C27.5874 53.2576 23.9144 56.9306 23.9144 61.4614C23.9144 65.9921 27.5874 69.6651 32.1183 69.6651Z" fill="#FF9500" stroke="#1C1C1C" stroke-width="0.5" stroke-miterlimit="10"/>
<path d="M32.1279 57.2901C32.0318 57.0968 31.7444 57.0893 31.6383 57.2774C30.7969 58.7698 29.5141 59.9838 27.9668 60.7548C27.7743 60.8507 27.7668 61.1361 27.9541 61.2419C29.4594 62.0921 30.6775 63.3711 31.4403 64.905C31.5365 65.0984 31.8239 65.1058 31.9299 64.9178C32.7713 63.4254 34.0541 62.2114 35.6015 61.4404C35.794 61.3444 35.8014 61.0591 35.6141 60.9533C34.1088 60.1031 32.8908 58.8241 32.1279 57.2901Z" fill="#1C1C1C" stroke="#1C1C1C" stroke-width="0.5" stroke-miterlimit="10" stroke-linejoin="round"/>
<path d="M69.962 33.6487C69.8659 33.4553 69.5785 33.4479 69.4724 33.6359C68.631 35.1283 67.3482 36.3423 65.8009 37.1133C65.6084 37.2093 65.601 37.4946 65.7882 37.6004C67.2935 38.4506 68.5116 39.7296 69.2744 41.2636C69.3706 41.4569 69.658 41.4644 69.764 41.2763C70.6054 39.7839 71.8882 38.5699 73.4356 37.7989C73.6281 37.703 73.6355 37.4176 73.4482 37.3118C71.943 36.4616 70.7249 35.1826 69.962 33.6487Z" fill="#1C1C1C" stroke="#1C1C1C" stroke-width="0.5" stroke-miterlimit="10" stroke-linejoin="round"/>
</svg>
