<svg width="102" height="102" viewBox="0 0 102 102" fill="none" xmlns="http://www.w3.org/2000/svg">
<rect x="0.5" y="0.5" width="101" height="101" rx="4.5" stroke="#8A38F5" stroke-dasharray="10 5"/>
<path d="M37.3438 45.2516C42.9597 44.8338 67.6131 42.8648 73.9702 42.8477C74.6467 43.1892 75.0406 44.1012 75.6239 44.8699C75.8378 45.1517 75.9406 45.513 75.8463 45.854C75.0893 48.5902 74.0246 51.5079 72.7553 54.7092C71.2986 58.381 69.2778 61.9191 67.7403 64.6941H41.3622L37.3438 45.2516Z" fill="#4169E1" stroke="#1C1C1C" stroke-width="0.5" stroke-miterlimit="10" stroke-linejoin="round"/>
<path d="M37.3438 42.6814C42.8999 42.2754 48.8428 42.0255 55.1323 42.0088C61.4992 41.991 69.854 42.2145 75.7849 42.5985C76.4114 42.6391 76.8409 43.2435 76.669 43.8474C75.9573 46.3472 75.0526 49.064 73.8946 51.9319C72.4534 55.4994 70.8874 58.6373 69.3662 61.3335H41.3194L37.3438 42.6814Z" fill="#CCD9FD" stroke="#1C1C1C" stroke-width="0.5" stroke-miterlimit="10" stroke-linejoin="round"/>
<path d="M63.6588 73.7029H41.5858C40.6834 73.7029 39.9044 73.0761 39.7201 72.2013L33.8262 45.896C33.7487 45.5284 33.4208 45.2641 33.0421 45.2641H27.9763C26.9494 45.2641 26.0661 44.4825 26.0178 43.4681C25.9657 42.3844 26.8388 41.4883 27.9216 41.4883H35.242C36.1444 41.4883 36.9234 42.1151 37.1077 42.9898L42.9965 69.2725C43.0765 69.6526 43.4159 69.9258 43.8073 69.9258H63.7109C64.7937 69.9258 65.6668 70.8206 65.6147 71.9056C65.5664 72.9213 64.6831 73.7016 63.6562 73.7016L63.6588 73.7029Z" fill="#4169E1" stroke="#1C1C1C" stroke-width="0.5" stroke-miterlimit="10" stroke-linejoin="round"/>
<path d="M64.1222 70.8638H41.3362C40.4338 70.8638 39.6548 70.237 39.4705 69.3623L33.8105 43.228C33.733 42.8605 33.4051 42.5962 33.0264 42.5962H27.9606C26.9337 42.5962 26.0504 41.8146 26.0021 40.8001C25.9513 39.7152 26.8244 38.8203 27.9072 38.8203H35.2276C36.1299 38.8203 36.909 39.4471 37.0932 40.3218L42.7481 66.4347C42.8282 66.8148 43.1675 67.0879 43.559 67.0879H64.1756C65.2584 67.0879 66.1315 67.9828 66.0794 69.0678C66.0311 70.0835 65.1478 70.8638 64.1209 70.8638H64.1222Z" fill="#CCD9FD" stroke="#1C1C1C" stroke-width="0.5" stroke-miterlimit="10" stroke-linejoin="round"/>
<path d="M47.6626 76.0386L47.4364 77.5218C47.0094 76.5388 46.0232 75.8516 44.8743 75.8516C43.7254 75.8516 42.7392 76.54 42.3122 77.5218L42.0859 76.0386V78.5437H42.0872C42.0872 78.5664 42.0859 78.5891 42.0859 78.613C42.0859 80.1384 43.334 81.3744 44.8743 81.3744C46.4146 81.3744 47.6626 80.1384 47.6626 78.613C47.6626 78.5903 47.6626 78.5677 47.6614 78.5437H47.6626V76.0386Z" fill="#4169E1" stroke="#1C1C1C" stroke-width="0.5" stroke-miterlimit="10" stroke-linejoin="round"/>
<path d="M44.8743 78.6048C46.4143 78.6048 47.6626 77.3685 47.6626 75.8434C47.6626 74.3184 46.4143 73.082 44.8743 73.082C43.3343 73.082 42.0859 74.3184 42.0859 75.8434C42.0859 77.3685 43.3343 78.6048 44.8743 78.6048Z" fill="#CCD9FD" stroke="#1C1C1C" stroke-width="0.5" stroke-miterlimit="10" stroke-linejoin="round"/>
<path d="M62.0723 77.601C61.6643 76.5765 60.6565 75.8516 59.4771 75.8516C58.2977 75.8516 57.2899 76.5765 56.8819 77.601L56.6875 75.9205V78.613C56.6875 80.1384 57.9355 81.3744 59.4759 81.3744C61.0162 81.3744 62.2642 80.1384 62.2642 78.613V75.9205L62.0698 77.601H62.0723Z" fill="#4169E1" stroke="#1C1C1C" stroke-width="0.5" stroke-miterlimit="10" stroke-linejoin="round"/>
<path d="M59.4837 78.6048C61.0236 78.6048 62.272 77.3685 62.272 75.8434C62.272 74.3183 61.0236 73.082 59.4837 73.082C57.9437 73.082 56.6953 74.3183 56.6953 75.8434C56.6953 77.3685 57.9437 78.6048 59.4837 78.6048Z" fill="#CCD9FD" stroke="#1C1C1C" stroke-width="0.5" stroke-miterlimit="10" stroke-linejoin="round"/>
<path d="M71.574 39.3134C60.8105 39.4991 50.047 39.4792 39.2835 39.3134C38.9719 32.8206 38.9586 29.5776 39.1907 23.0848C50.0139 22.9588 60.8437 22.9455 71.6668 23.0848C71.899 29.5776 71.8857 32.8206 71.574 39.3134Z" fill="#FF9500" stroke="#1C1C1C" stroke-width="0.5" stroke-linejoin="round"/>
<path d="M71.659 37.1192C60.8359 37.2585 50.0061 37.2452 39.1829 37.1192C38.9508 30.6264 38.964 27.3834 39.2757 20.8906C50.0392 20.7248 60.8027 20.7049 71.5662 20.8906C71.8779 27.3834 71.8911 30.6264 71.659 37.1192Z" fill="#FFE2C8" stroke="#1C1C1C" stroke-width="0.5" stroke-linejoin="round"/>
<path d="M66.2567 35.1644C59.028 35.1909 51.8059 35.1909 44.5772 35.1644C44.5507 33.712 43.357 32.5315 41.898 32.5248C41.8714 29.7062 41.8781 28.3002 41.9311 25.4816C43.3901 25.4749 44.5905 24.2878 44.6237 22.8354C51.8192 22.7956 59.0148 22.7956 66.2103 22.8354C66.2435 24.2878 67.4438 25.4749 68.9028 25.4816C68.9559 28.3002 68.9625 29.7062 68.936 32.5248C67.477 32.5248 66.2833 33.712 66.2567 35.1644Z" fill="#FF9500" stroke="#1C1C1C" stroke-width="0.5" stroke-linejoin="round"/>
<path d="M55.4095 35.0742C58.7238 35.0742 61.4127 32.3853 61.4127 29.0708C61.4127 25.7562 58.7238 23.0673 55.4095 23.0673C52.0951 23.0673 49.4062 25.7562 49.4062 29.0708C49.4062 32.3853 52.0951 35.0742 55.4095 35.0742Z" fill="#FFE2C8" stroke="#1C1C1C" stroke-width="0.5" stroke-linejoin="round"/>
<path d="M58.2248 27.3859C58.2973 28.0802 58.0111 28.5036 57.5722 28.7402C58.3049 28.9271 58.7629 29.3811 58.6713 30.4035C58.5568 31.6738 57.66 32.021 56.3739 32.0973V33.0472C56.3739 33.2608 56.2021 33.4325 55.9884 33.4325C55.7747 33.4325 55.603 33.2608 55.603 33.0472V32.1164C55.4045 32.1164 55.1984 32.1164 54.9962 32.1087V33.051C54.9962 33.2647 54.8245 33.4363 54.6107 33.4363C54.397 33.4363 54.2253 33.2647 54.2253 33.051V32.1011C54.0459 32.1011 53.8666 32.0935 53.6796 32.0935H53.2407C52.9468 32.0935 52.7217 31.8303 52.7713 31.5403C52.8094 31.3076 53.0155 31.1398 53.2483 31.1398C53.3972 31.1398 53.3933 31.1359 53.3933 31.1359C53.607 31.1359 53.6605 30.9757 53.6796 30.8651V28.7592V27.2447C53.6528 27.0845 53.546 26.8861 53.2331 26.8861C53.2331 26.8861 53.2331 26.8861 53.1109 26.8823C52.8743 26.8823 52.6797 26.6916 52.6797 26.455C52.6797 26.2185 52.8705 26.0316 53.1033 26.0316H54.2291V25.0893C54.2291 24.8757 54.4008 24.704 54.6146 24.704C54.8283 24.704 55 24.8757 55 25.0893V26.0011C55.2061 26.0011 55.4007 25.9934 55.6068 25.9934V25.0893C55.6068 24.8757 55.7785 24.704 55.9922 24.704C56.206 24.704 56.3777 24.8757 56.3777 25.0893V26.0316C57.3623 26.1155 58.1485 26.436 58.2286 27.3935L58.2248 27.3859ZM57.1486 30.2432C57.1486 29.2094 55.519 29.3582 55 29.3582V31.1245C55.519 31.1245 57.1486 31.2466 57.1486 30.2394V30.2432ZM56.8013 27.7521C56.8013 26.8022 55.4427 26.9433 55.0038 26.9433V28.5494C55.4427 28.5494 56.8013 28.6524 56.8013 27.7521Z" fill="#1C1C1C"/>
</svg>
