<svg width="102" height="102" viewBox="0 0 102 102" fill="none" xmlns="http://www.w3.org/2000/svg">
<rect x="0.5" y="0.5" width="101" height="101" rx="4.5" stroke="#8A38F5" stroke-dasharray="10 5"/>
<g clip-path="url(#clip0_18011_7579)">
<path d="M45.7542 32H60.8603C62.3519 32 63.79 32.5556 64.8942 33.5584L71.1145 39.2078H75.0827V51.6221H68.6345H61.6954C60.1041 51.6221 58.578 50.9899 57.4528 49.8647L53.258 45.6699H45.8177L37.8815 36.2455L42.2701 33.1152C43.2871 32.3899 44.5051 32 45.7542 32Z" fill="white" stroke="#1C1C1C" stroke-width="0.5" stroke-linecap="round" stroke-linejoin="round"/>
<path d="M56.2279 54.517L46.181 60.9359L50.0008 66.8392L59.4659 60.6997C61.296 59.5126 61.7384 57.024 60.4295 55.2789C59.444 53.9649 57.6121 53.6327 56.2279 54.517Z" fill="white" stroke="#1C1C1C" stroke-width="0.5" stroke-linecap="round" stroke-linejoin="round"/>
<path d="M52.775 66.3739C52.775 66.3739 48.226 69.4992 45.8299 69.6173C43.4339 69.7353 31.9322 66.2558 30.7377 66.3739C29.5431 66.492 27.3832 66.3739 27.3832 66.3739V54.5047H29.8973C29.8973 54.5047 31.9322 52.949 34.2102 52.949H36.364C38.8779 52.949 41.2996 53.8959 43.1468 55.601L49.3025 61.2832L59.7198 54.917C60.9013 54.195 62.438 54.4895 63.2688 55.5972C64.1775 56.8089 63.9052 58.5318 62.6671 59.4041L52.775 66.3739Z" fill="white" stroke="#1C1C1C" stroke-width="0.5" stroke-linecap="round" stroke-linejoin="round"/>
<path d="M57.7843 48.1211C57.7843 54.8089 52.2849 60.2305 45.5009 60.2305C38.7169 60.2305 32.7306 54.3604 32.7306 47.6726C32.072 36.3906 38.7169 36.0117 45.5009 36.0117C52.2849 36.0117 58.1568 36.5975 57.7843 48.1211Z" fill="#FF9500" stroke="#1C1C1C" stroke-width="0.5" stroke-miterlimit="10"/>
<path d="M45.353 57.4666C52.2709 57.4666 57.879 51.7657 57.879 44.7333C57.879 37.7009 52.2709 32 45.353 32C38.4351 32 32.827 37.7009 32.827 44.7333C32.827 51.7657 38.4351 57.4666 45.353 57.4666Z" fill="#FFE2C8" stroke="#1C1C1C" stroke-width="0.5" stroke-miterlimit="10"/>
<path d="M45.2527 54.5973C50.702 54.5973 55.1196 50.1797 55.1196 44.7304C55.1196 39.281 50.702 34.8635 45.2527 34.8635C39.8034 34.8635 35.3859 39.281 35.3859 44.7304C35.3859 50.1797 39.8034 54.5973 45.2527 54.5973Z" fill="#FF9500" stroke="#1C1C1C" stroke-width="0.5" stroke-miterlimit="10"/>
<path d="M45.879 40.1498C45.785 39.9554 45.4988 39.9479 45.3949 40.1372C44.3677 42.0074 42.7672 43.5226 40.8297 44.4625C40.6362 44.5564 40.6288 44.8405 40.8172 44.9443C42.7033 45.9835 44.2231 47.5797 45.1519 49.5006C45.2459 49.695 45.532 49.7025 45.6359 49.5132C46.6631 47.643 48.2636 46.1279 50.2012 45.1879C50.3947 45.094 50.402 44.8099 50.2137 44.7061C48.3275 43.6669 46.8077 42.0707 45.879 40.1498Z" fill="#1C1C1C" stroke="#1C1C1C" stroke-width="0.5" stroke-miterlimit="10" stroke-linejoin="round"/>
<path d="M20.5443 53.1617C20.4679 59.1276 20.4679 62.114 20.5443 68.0798C23.3293 68.2187 24.7253 68.2187 27.5102 68.0798C27.5866 62.114 27.5797 59.1276 27.5102 53.1617C24.7253 53.0228 23.3293 53.0228 20.5443 53.1617Z" fill="#FF9500" stroke="#1C1C1C" stroke-width="0.5" stroke-linecap="round" stroke-linejoin="round"/>
<path d="M74.0927 38.0564C74.0163 44.0222 74.0163 47.0086 74.0927 52.9745C76.8776 53.1134 78.2736 53.1134 81.0586 52.9745C81.135 47.0086 81.128 44.0222 81.0586 38.0564C78.2736 37.9175 76.8776 37.9175 74.0927 38.0564Z" fill="#4169E1" stroke="#1C1C1C" stroke-width="0.5" stroke-linecap="round" stroke-linejoin="round"/>
<path d="M38.1683 65.4154L48.8359 61.6997C48.8359 61.6997 50.2735 60.4982 48.8359 59.0606C47.3983 57.623 44.6411 57.623 43.5646 58.1022C42.4881 58.5814 40.3282 58.9425 39.4879 59.0606C38.6475 59.1787 35.7723 57.0257 33.6123 57.0257C31.4524 57.0257 30.3759 57.5049 30.3759 57.5049" fill="white"/>
<path d="M38.1683 65.4154L48.8359 61.6997C48.8359 61.6997 50.2735 60.4982 48.8359 59.0606C47.3983 57.623 44.6411 57.623 43.5646 58.1022C42.4881 58.5814 40.3282 58.9425 39.4879 59.0606C38.6475 59.1787 35.7723 57.0257 33.6123 57.0257C31.4524 57.0257 30.3759 57.5049 30.3759 57.5049" stroke="#1C1C1C" stroke-width="0.5" stroke-linecap="round" stroke-linejoin="round"/>
<path d="M61.9683 35.8299L50.673 35.9707C50.673 35.9707 48.9285 36.6542 49.836 38.4736C50.7435 40.2929 53.3584 41.1673 54.5313 41.0542C55.7042 40.9412 57.8671 41.2837 58.7015 41.4382C59.5359 41.5927 61.58 44.5464 63.6284 45.2314C65.6768 45.9164 66.8497 45.8033 66.8497 45.8033" fill="white"/>
<path d="M61.9683 35.8299L50.673 35.9707C50.673 35.9707 48.9285 36.6542 49.836 38.4736C50.7435 40.2929 53.3584 41.1673 54.5313 41.0542C55.7042 40.9412 57.8671 41.2837 58.7015 41.4382C59.5359 41.5927 61.58 44.5464 63.6284 45.2314C65.6768 45.9164 66.8497 45.8033 66.8497 45.8033" stroke="#1C1C1C" stroke-width="0.5" stroke-linecap="round" stroke-linejoin="round"/>
<path d="M33.6149 64.8538C32.1152 64.8538 30.8994 63.4328 30.8994 61.6799C30.8994 59.927 32.1152 58.506 33.6149 58.506C35.1147 58.506 36.3304 59.927 36.3304 61.6799C36.3304 63.4328 35.1147 64.8538 33.6149 64.8538Z" fill="white" stroke="white" stroke-width="0.5" stroke-linecap="round" stroke-linejoin="round"/>
</g>
<defs>
<clipPath id="clip0_18011_7579">
<rect width="62" height="62" fill="white" transform="translate(20 20)"/>
</clipPath>
</defs>
</svg>
