<svg width="102" height="102" viewBox="0 0 102 102" fill="none" xmlns="http://www.w3.org/2000/svg">
<rect x="0.5" y="0.5" width="101" height="101" rx="4.5" stroke="#9747FF" stroke-dasharray="10 5"/>
<path d="M25 41.6798C25 39.4707 26.7909 37.6798 29 37.6798H72.89C75.0991 37.6798 76.89 39.4707 76.89 41.6798V56.7198H25V41.6798Z" fill="#FFE2C8" stroke="#1C1C1C" stroke-width="0.5" stroke-linecap="round" stroke-linejoin="round"/>
<path d="M49.8262 65.8069V28.9367C49.8262 28.7015 49.8262 28.4663 49.8262 28.2199C49.8485 25.4871 51.6369 23.0791 54.2413 22.2615C57.0134 21.3991 60.2214 22.7319 61.5291 25.3303C62.0209 26.3159 62.2333 27.3463 62.2333 28.4439V32.2406C62.2333 33.1142 61.4621 33.9542 60.5679 33.9094C59.6736 33.8646 58.9024 33.1702 58.9024 32.2406V28.4551C58.9024 28.1975 58.88 27.9399 58.8689 27.6823C58.8689 28.1639 58.88 27.7831 58.8465 27.6263C58.813 27.4919 58.7794 27.3687 58.7459 27.2455C58.7236 27.1671 58.6788 27.0887 58.6677 27.0103C58.6118 26.8087 58.8241 27.3239 58.7235 27.1335C58.6453 26.9879 58.5782 26.8423 58.5 26.6967C58.4329 26.5847 58.3547 26.4839 58.2876 26.3719C58.1758 26.1927 58.5224 26.6295 58.3659 26.4839C58.31 26.4279 58.2653 26.3607 58.2094 26.3047C58.12 26.2151 58.0305 26.1143 57.9411 26.0359C57.8964 25.9911 57.8405 25.9463 57.7958 25.9127C57.5723 25.6999 58.1088 26.1143 57.8293 25.9351C57.6058 25.7895 57.3934 25.6663 57.1587 25.5431C56.924 25.4199 57.2593 25.5991 57.2816 25.5991C57.2369 25.5991 57.1475 25.5431 57.0916 25.5319C56.9351 25.4759 56.7786 25.4311 56.611 25.3975C56.5439 25.3863 56.4769 25.3751 56.4098 25.3527C56.1415 25.2855 56.5216 25.3639 56.5551 25.3639C56.3986 25.3639 56.2421 25.3415 56.0968 25.3303C55.9962 25.3303 55.8844 25.3303 55.7838 25.3303C55.7168 25.3303 55.5938 25.3639 55.5268 25.3527C55.6274 25.3863 55.9068 25.2855 55.6162 25.3527C55.482 25.3751 55.3591 25.4087 55.225 25.4423C55.1132 25.4759 54.9232 25.5879 54.8002 25.5879C54.8337 25.5879 55.1691 25.4087 54.9232 25.5319C54.8673 25.5655 54.8114 25.5879 54.7443 25.6215C54.599 25.6999 54.4649 25.7783 54.3307 25.8679C54.286 25.8903 54.2078 25.9687 54.1743 25.9799C54.2078 25.9799 54.4872 25.7111 54.286 25.9015C54.1854 25.9911 54.096 26.0695 54.0066 26.1591C53.9172 26.2487 53.8278 26.3495 53.7495 26.4391C53.526 26.6855 53.9172 26.1815 53.8054 26.3719C53.7607 26.4391 53.716 26.5063 53.6713 26.5735C53.6042 26.6855 53.5371 26.7975 53.4701 26.9095C53.4365 26.9767 53.403 27.0551 53.3583 27.1335C53.2465 27.3127 53.4701 26.8087 53.4142 27.0103C53.3248 27.3015 53.2353 27.5815 53.1795 27.8727C53.1347 28.0855 53.213 27.5143 53.2018 27.7271C53.2018 27.8167 53.1906 27.8951 53.1795 27.9847C53.1795 28.0519 53.1795 28.1191 53.1795 28.1975C53.1795 28.1975 53.1795 28.1975 53.1795 28.2087C53.1795 28.2311 53.1795 28.2647 53.1795 28.2871C53.1795 28.4103 53.1795 28.5335 53.1795 28.6679V62.4694C53.1795 63.5334 53.1906 64.5974 53.1795 65.6726C53.1795 65.7174 53.1795 65.7621 53.1795 65.8069C53.1795 66.6805 52.4082 67.5205 51.514 67.4757C50.6198 67.4309 49.8485 66.7365 49.8485 65.8069H49.8262Z" fill="#CCD9FD" stroke="#1C1C1C" stroke-width="0.5" stroke-linejoin="round"/>
<path d="M66.5928 65.8069V28.9367C66.5928 28.7015 66.5928 28.4663 66.5928 28.2199C66.6151 25.4871 68.4035 23.0791 71.0079 22.2615C73.78 21.3991 76.988 22.7319 78.2957 25.3303C78.7875 26.3159 78.9999 27.3463 78.9999 28.4439V32.2406C78.9999 33.1142 78.2287 33.9542 77.3345 33.9094C76.4403 33.8646 75.669 33.1702 75.669 32.2406V28.4551C75.669 28.1975 75.6466 27.9399 75.6355 27.6823C75.6355 28.1639 75.6466 27.7831 75.6131 27.6263C75.5796 27.4919 75.546 27.3687 75.5125 27.2455C75.4902 27.1671 75.4454 27.0887 75.4343 27.0103C75.3784 26.8087 75.5907 27.3239 75.4902 27.1335C75.4119 26.9879 75.3448 26.8423 75.2666 26.6967C75.1995 26.5847 75.1213 26.4839 75.0542 26.3719C74.9424 26.1927 75.289 26.6295 75.1325 26.4839C75.0766 26.4279 75.0319 26.3607 74.976 26.3047C74.8866 26.2151 74.7971 26.1143 74.7077 26.0359C74.663 25.9911 74.6071 25.9463 74.5624 25.9127C74.3389 25.6999 74.8754 26.1143 74.5959 25.9351C74.3724 25.7895 74.16 25.6663 73.9253 25.5431C73.6906 25.4199 74.0259 25.5991 74.0482 25.5991C74.0035 25.5991 73.9141 25.5431 73.8582 25.5319C73.7017 25.4759 73.5452 25.4311 73.3776 25.3975C73.3105 25.3863 73.2435 25.3751 73.1764 25.3527C72.9081 25.2855 73.2882 25.3639 73.3217 25.3639C73.1652 25.3639 73.0087 25.3415 72.8634 25.3303C72.7628 25.3303 72.651 25.3303 72.5504 25.3303C72.4834 25.3303 72.3604 25.3639 72.2934 25.3527C72.394 25.3863 72.6734 25.2855 72.3828 25.3527C72.2486 25.3751 72.1257 25.4087 71.9916 25.4423C71.8798 25.4759 71.6898 25.5879 71.5668 25.5879C71.6003 25.5879 71.9357 25.4087 71.6898 25.5319C71.6339 25.5655 71.578 25.5879 71.5109 25.6215C71.3656 25.6999 71.2315 25.7783 71.0974 25.8679C71.0526 25.8903 70.9744 25.9687 70.9409 25.9799C70.9744 25.9799 71.2538 25.7111 71.0526 25.9015C70.952 25.9911 70.8626 26.0695 70.7732 26.1591C70.6838 26.2487 70.5944 26.3495 70.5161 26.4391C70.2926 26.6855 70.6838 26.1815 70.572 26.3719C70.5273 26.4391 70.4826 26.5063 70.4379 26.5735C70.3708 26.6855 70.3037 26.7975 70.2367 26.9095C70.2031 26.9767 70.1696 27.0551 70.1249 27.1335C70.0131 27.3127 70.2367 26.8087 70.1808 27.0103C70.0914 27.3015 70.0019 27.5815 69.9461 27.8727C69.9013 28.0855 69.9796 27.5143 69.9684 27.7271C69.9684 27.8167 69.9572 27.8951 69.9461 27.9847C69.9461 28.0519 69.9461 28.1191 69.9461 28.1975C69.9461 28.1975 69.9461 28.1975 69.9461 28.2087C69.9461 28.2311 69.9461 28.2647 69.9461 28.2871C69.9461 28.4103 69.9461 28.5335 69.9461 28.6679V62.4694C69.9461 63.5334 69.9572 64.5974 69.9461 65.6726C69.9461 65.7174 69.9461 65.7621 69.9461 65.8069C69.9461 66.6805 69.1748 67.5205 68.2806 67.4757C67.3864 67.4309 66.6151 66.7365 66.6151 65.8069H66.5928Z" fill="#CCD9FD" stroke="#1C1C1C" stroke-width="0.5" stroke-linejoin="round"/>
<path d="M78.8883 48.4878C78.8883 48.0304 78.393 47.7446 77.997 47.9735C69.904 52.6519 59.9286 52.6519 51.8356 47.9735L50.9443 47.4583L50.6017 47.2734C42.095 42.6837 31.8495 42.6837 23.3428 47.2734C23.1318 47.3873 23.0002 47.6077 23.0002 47.8475V67.9197H78.8883V48.4878Z" fill="#4169E1" stroke="#1C1C1C" stroke-width="0.5" stroke-linejoin="round"/>
<path d="M53.0649 66.3837C53.0649 73.5951 47.135 79.4413 39.8198 79.4413C32.5047 79.4413 26.0497 73.1115 26.0497 65.9001C25.3395 53.7346 32.5047 53.326 39.8198 53.326C47.135 53.326 53.4666 53.9577 53.0649 66.3837Z" fill="#FF9500" stroke="#1C1C1C" stroke-width="0.5" stroke-miterlimit="10"/>
<path d="M39.5067 76.4607C46.9662 76.4607 53.0134 70.3134 53.0134 62.7304C53.0134 55.1473 46.9662 49 39.5067 49C32.0472 49 26 55.1473 26 62.7304C26 70.3134 32.0472 76.4607 39.5067 76.4607Z" fill="#FFE2C8" stroke="#1C1C1C" stroke-width="0.5" stroke-miterlimit="10"/>
<path d="M39.5405 73.3654C45.4165 73.3654 50.1799 68.6019 50.1799 62.7258C50.1799 56.8498 45.4165 52.0863 39.5405 52.0863C33.6645 52.0863 28.9011 56.8498 28.9011 62.7258C28.9011 68.6019 33.6645 73.3654 39.5405 73.3654Z" fill="#FF9500" stroke="#1C1C1C" stroke-width="0.5" stroke-miterlimit="10"/>
<path d="M44.5271 59.567C44.6539 60.7997 44.1467 61.5494 43.37 61.9658C44.6697 62.299 45.4781 63.0986 45.3196 64.9144C45.1135 67.1633 43.5285 67.7796 41.2461 67.9129V69.5968C41.2461 69.9733 40.9409 70.2784 40.5645 70.2784C40.1881 70.2784 39.883 69.9733 39.883 69.5968V67.9462C39.5343 67.9462 39.1697 67.9462 38.8051 67.9296V69.5968C38.8051 69.9733 38.5 70.2784 38.1236 70.2784C37.7472 70.2784 37.442 69.9733 37.442 69.5968V67.9129C37.125 67.9129 36.808 67.8962 36.4752 67.8962H35.697C35.1753 67.8962 34.7787 67.4275 34.8651 66.913C34.9342 66.5014 35.2942 66.2052 35.7116 66.2045C35.9746 66.204 35.968 66.1971 35.968 66.1971C36.3484 66.1971 36.4435 65.9139 36.4752 65.714V61.9825H36.6178C36.5544 61.9825 36.5069 61.9825 36.4752 61.9825V59.3005C36.4276 59.0173 36.2374 58.6675 35.6827 58.6675C35.6827 58.6675 35.6886 58.6612 35.4646 58.6602C35.0446 58.6583 34.7 58.3232 34.7 57.9032C34.7 57.4881 35.0365 57.1515 35.4516 57.1515H36.5861C36.8556 57.1515 37.1409 57.1515 37.442 57.1515V55.4843C37.442 55.1078 37.7472 54.8027 38.1236 54.8027C38.5 54.8027 38.8051 55.1078 38.8051 55.4843V57.1016C39.1697 57.1016 39.5184 57.0849 39.883 57.0849V55.4843C39.883 55.1078 40.1881 54.8027 40.5645 54.8027C40.9409 54.8027 41.2461 55.1078 41.2461 55.4843V57.1515C42.9896 57.3015 44.3844 57.8679 44.5271 59.567ZM42.625 64.6312C42.625 62.7988 39.7403 63.0653 38.821 63.0653V66.1971C39.7403 66.1971 42.625 66.4136 42.625 64.6312ZM42.0069 60.2167C42.0069 58.5342 39.5977 58.7841 38.821 58.7841V61.6327C39.5977 61.6327 42.0069 61.8159 42.0069 60.2167Z" fill="white"/>
<path d="M23 70.2877C23 69.8303 23.4953 69.5445 23.8913 69.7735C31.9843 74.4518 41.9597 74.4518 50.0527 69.7735L50.944 69.2582L51.2866 69.0734C59.7933 64.4837 70.0388 64.4837 78.5455 69.0734C78.7565 69.1872 78.8881 69.4077 78.8881 69.6475V73.2397C78.8881 77.1057 75.7541 80.2397 71.8881 80.2397H30C26.134 80.2397 23 77.1057 23 73.2397V70.2877Z" fill="#E8EDFA" stroke="#1C1C1C" stroke-width="0.5" stroke-linejoin="round"/>
<path d="M23 65.9332C23 65.4758 23.4953 65.19 23.8913 65.4189C31.9843 70.0973 41.9597 70.0973 50.0527 65.4189L50.944 64.9037L51.2866 64.7188C59.7933 60.1291 70.0388 60.1291 78.5455 64.7188C78.7565 64.8327 78.8881 65.0531 78.8881 65.2929V70.8852C78.8881 74.1989 76.2018 76.8852 72.8881 76.8852H29C25.6863 76.8852 23 74.1989 23 70.8852V65.9332Z" fill="#CCD9FD" stroke="#1C1C1C" stroke-width="0.5" stroke-linejoin="round"/>
<path d="M53.1797 41.1598H66.5928V44.5198H53.1797V41.1598Z" fill="#CCD9FD" stroke="#1C1C1C" stroke-width="0.5" stroke-linejoin="round"/>
</svg>
