<svg width="62" height="62" viewBox="0 0 62 62" fill="none" xmlns="http://www.w3.org/2000/svg">
<g clip-path="url(#clip0_18011_4952)">
<path d="M17.4403 27.4308C17.6103 25.6408 19.0403 24.2408 20.8403 24.0908C30.6503 23.2508 40.4503 23.2508 50.2603 24.0908C52.0503 24.2408 53.4803 25.6408 53.6703 27.4208C54.4203 34.7808 54.4203 42.1408 53.6703 49.5008C53.4803 51.2908 52.0603 52.6808 50.2603 52.8308C40.4803 53.6708 30.7003 53.6708 20.9203 52.8308C19.0903 52.6708 17.6503 51.2308 17.4903 49.4008C16.8403 41.8008 16.7803 34.4508 17.4503 27.4208L17.4403 27.4308Z" fill="#4169E1" stroke="#1C1C1C" stroke-width="0.5" stroke-miterlimit="10"/>
<path d="M17.4403 24.6009C17.6103 22.8109 19.0403 21.4109 20.8403 21.2609C30.6503 20.4209 40.4503 20.4209 50.2603 21.2609C52.0503 21.4109 53.4803 22.8109 53.6703 24.5909C54.4203 31.9509 54.4203 39.3109 53.6703 46.6709C53.4803 48.4609 52.0603 49.8509 50.2603 50.0009C40.4803 50.8409 30.7003 50.8409 20.9203 50.0009C19.0903 49.8409 17.6503 48.4009 17.4903 46.5709C16.8403 38.9709 16.7803 31.6209 17.4503 24.5909L17.4403 24.6009Z" fill="#E8EDFA" stroke="#1C1C1C" stroke-width="0.5" stroke-linejoin="round"/>
<path d="M37.9503 36.4609C38.0303 33.0109 40.9703 30.2709 44.4203 30.2009C47.8703 30.1309 51.3903 30.3009 55.0203 30.6509C55.5103 34.0609 55.3603 37.6909 55.2503 42.3109C55.2403 42.8009 54.8603 43.2109 54.3703 43.2509C51.1203 43.5309 47.9403 43.6409 44.7303 43.5609C40.9403 43.4709 37.8503 40.2609 37.9403 36.4509L37.9503 36.4609Z" fill="#4169E1" stroke="#1C1C1C" stroke-width="0.5" stroke-miterlimit="10"/>
<path d="M37.9503 34.1809C38.0303 30.7209 40.9703 27.9909 44.4303 27.9009C47.7403 27.8109 51.0403 27.9009 54.3403 28.1909C54.8903 28.2409 55.3203 28.6909 55.3503 29.2409C55.6003 33.8109 55.5903 35.2909 55.4103 40.9109C51.8803 41.2509 48.3003 41.3809 44.7403 41.3009C40.9403 41.2109 37.8703 38.0009 37.9603 34.1909L37.9503 34.1809Z" fill="#E8EDFA" stroke="#1C1C1C" stroke-width="0.5" stroke-linejoin="round"/>
<path d="M44.1703 37.1809C45.8824 37.1809 47.2703 35.7929 47.2703 34.0809C47.2703 32.3688 45.8824 30.9809 44.1703 30.9809C42.4582 30.9809 41.0703 32.3688 41.0703 34.0809C41.0703 35.7929 42.4582 37.1809 44.1703 37.1809Z" fill="#4169E1" stroke="#1C1C1C" stroke-width="0.5" stroke-miterlimit="10"/>
<path d="M17.54 35.3202C23.9134 35.3202 29.08 30.1536 29.08 23.7802C29.08 17.4069 23.9134 12.2402 17.54 12.2402C11.1666 12.2402 6 17.4069 6 23.7802C6 30.1536 11.1666 35.3202 17.54 35.3202Z" fill="#E8EDFA" stroke="#1C1C1C" stroke-width="0.5" stroke-linejoin="round"/>
<path d="M17.54 32.08C23.9134 32.08 29.08 26.9134 29.08 20.54C29.08 14.1666 23.9134 9 17.54 9C11.1666 9 6 14.1666 6 20.54C6 26.9134 11.1666 32.08 17.54 32.08Z" fill="white" stroke="#1C1C1C" stroke-width="0.5" stroke-linejoin="round"/>
<path d="M15.0527 13.8008L17.5527 15.8008L20.0527 13.8008" stroke="#1C1C1C" stroke-width="0.5" stroke-linecap="round" stroke-linejoin="round"/>
<path d="M20.0527 27.3008L17.5527 25.3008L15.0527 27.3008" stroke="#1C1C1C" stroke-width="0.5" stroke-linecap="round" stroke-linejoin="round"/>
<path d="M17.541 13.4492V27.6292" stroke="#1C1C1C" stroke-width="0.5" stroke-linecap="round" stroke-linejoin="round"/>
<path d="M24.6583 19.4098L21.6876 18.2161L22.2001 15.0558" stroke="#1C1C1C" stroke-width="0.5" stroke-linecap="round" stroke-linejoin="round"/>
<path d="M10.4444 21.6929L13.4151 22.8866L12.9026 26.0469" stroke="#1C1C1C" stroke-width="0.5" stroke-linecap="round" stroke-linejoin="round"/>
<path d="M23.7411 17.0702L11.3932 24.0416" stroke="#1C1C1C" stroke-width="0.5" stroke-linecap="round" stroke-linejoin="round"/>
<path d="M10.4466 19.41L13.4173 18.2163L12.9048 15.056" stroke="#1C1C1C" stroke-width="0.5" stroke-linecap="round" stroke-linejoin="round"/>
<path d="M24.6606 21.6931L21.6899 22.8869L22.2024 26.0471" stroke="#1C1C1C" stroke-width="0.5" stroke-linecap="round" stroke-linejoin="round"/>
<path d="M11.3638 17.0704L23.7117 24.0418" stroke="#1C1C1C" stroke-width="0.5" stroke-linecap="round" stroke-linejoin="round"/>
</g>
<defs>
<clipPath id="clip0_18011_4952">
<rect width="62" height="62" rx="5" fill="white"/>
</clipPath>
</defs>
</svg>
