<svg width="62" height="62" viewBox="0 0 62 62" fill="none" xmlns="http://www.w3.org/2000/svg">
<g clip-path="url(#clip0_18011_7132)">
<path d="M43.1917 18.9771L46.3899 17.554" stroke="#1C1C1C" stroke-width="0.5" stroke-linejoin="round"/>
<path d="M43.1916 18.9771V30.9413L32.8265 36.9271L22.4614 30.9413V18.9771L32.8265 12.9913L43.1916 18.9771Z" fill="#CCD9FD" stroke="#1C1C1C" stroke-width="0.5" stroke-linejoin="round"/>
<path d="M43.1916 24.8161V30.9412L32.8265 36.927L22.4614 30.9412V24.8161L32.8265 18.8303L43.1916 24.8161Z" fill="#1C1C1C" stroke="#1C1C1C" stroke-width="0.5" stroke-linejoin="round"/>
<path d="M19.3511 34.8071C19.3511 34.4477 19.4025 33.1566 19.3145 32.8192C18.8523 31.0587 17.1505 30.6919 15.2432 30.6919C13.336 30.6919 11.6048 31.088 11.1867 32.9219C11.1207 33.2153 11.128 34.4917 11.128 34.8071C11.128 37.0812 12.9692 38.915 15.2359 38.915C17.5026 38.915 19.3438 37.0738 19.3438 34.8071H19.3511Z" fill="#CCD9FD" stroke="#1C1C1C" stroke-width="0.5" stroke-linejoin="round"/>
<path d="M15.2435 37.0665C17.5122 37.0665 19.3514 35.2273 19.3514 32.9586C19.3514 30.6899 17.5122 28.8507 15.2435 28.8507C12.9747 28.8507 11.1356 30.6899 11.1356 32.9586C11.1356 35.2273 12.9747 37.0665 15.2435 37.0665Z" fill="#4169E1" stroke="#1C1C1C" stroke-width="0.5" stroke-linejoin="round"/>
<path d="M54.2169 34.8071C54.2169 34.4477 54.2683 33.1566 54.1802 32.8192C53.7181 31.0587 52.0163 30.6919 50.109 30.6919C48.2018 30.6919 46.4706 31.088 46.0525 32.9219C45.9864 33.2153 45.9938 34.4917 45.9938 34.8071C45.9938 37.0812 47.835 38.915 50.1017 38.915C52.3684 38.915 54.2096 37.0738 54.2096 34.8071H54.2169Z" fill="#CCD9FD" stroke="#1C1C1C" stroke-width="0.5" stroke-linejoin="round"/>
<path d="M50.1092 37.0665C52.378 37.0665 54.2172 35.2273 54.2172 32.9586C54.2172 30.6899 52.378 28.8507 50.1092 28.8507C47.8405 28.8507 46.0013 30.6899 46.0013 32.9586C46.0013 35.2273 47.8405 37.0665 50.1092 37.0665Z" fill="#4169E1" stroke="#1C1C1C" stroke-width="0.5" stroke-linejoin="round"/>
<path d="M36.7877 45.8104C36.7877 45.451 36.8391 44.1599 36.751 43.8225C36.2889 42.062 34.5871 41.6952 32.6798 41.6952C30.7726 41.6952 29.0414 42.0913 28.6233 43.9252C28.5572 44.2186 28.5646 45.495 28.5646 45.8104C28.5646 48.0844 30.4058 49.9183 32.6725 49.9183C34.9392 49.9183 36.7804 48.0771 36.7804 45.8104H36.7877Z" fill="#CCD9FD" stroke="#1C1C1C" stroke-width="0.5" stroke-linejoin="round"/>
<path d="M32.6725 48.0697C34.9413 48.0697 36.7804 46.2306 36.7804 43.9618C36.7804 41.6931 34.9413 39.8539 32.6725 39.8539C30.4038 39.8539 28.5646 41.6931 28.5646 43.9618C28.5646 46.2306 30.4038 48.0697 32.6725 48.0697Z" fill="#4169E1" stroke="#1C1C1C" stroke-width="0.5" stroke-linejoin="round"/>
<path d="M19.3511 16.9083C19.3511 16.5489 19.4025 15.2578 19.3145 14.9204C18.8523 13.1599 17.1505 12.7931 15.2432 12.7931C13.336 12.7931 11.6048 13.1892 11.1867 15.0231C11.1207 15.3165 11.128 16.5929 11.128 16.9083C11.128 19.1823 12.9692 21.0162 15.2359 21.0162C17.5026 21.0162 19.3438 19.175 19.3438 16.9083H19.3511Z" fill="#CCD9FD" stroke="#1C1C1C" stroke-width="0.5" stroke-linejoin="round"/>
<path d="M15.2435 19.1677C17.5122 19.1677 19.3514 17.3285 19.3514 15.0598C19.3514 12.7911 17.5122 10.9519 15.2435 10.9519C12.9747 10.9519 11.1356 12.7911 11.1356 15.0598C11.1356 17.3285 12.9747 19.1677 15.2435 19.1677Z" fill="#4169E1" stroke="#1C1C1C" stroke-width="0.5" stroke-linejoin="round"/>
<path d="M54.2169 16.9083C54.2169 16.5489 54.2683 15.2578 54.1802 14.9204C53.7181 13.1599 52.0163 12.7931 50.109 12.7931C48.2018 12.7931 46.4706 13.1892 46.0525 15.0231C45.9864 15.3165 45.9938 16.5929 45.9938 16.9083C45.9938 19.1823 47.835 21.0162 50.1017 21.0162C52.3684 21.0162 54.2096 19.175 54.2096 16.9083H54.2169Z" fill="#CCD9FD" stroke="#1C1C1C" stroke-width="0.5" stroke-linejoin="round"/>
<path d="M50.1092 19.1677C52.378 19.1677 54.2172 17.3285 54.2172 15.0598C54.2172 12.7911 52.378 10.9519 50.1092 10.9519C47.8405 10.9519 46.0013 12.7911 46.0013 15.0598C46.0013 17.3285 47.8405 19.1677 50.1092 19.1677Z" fill="#4169E1" stroke="#1C1C1C" stroke-width="0.5" stroke-linejoin="round"/>
<path d="M36.7877 6.46985C36.7877 6.11041 36.8391 4.81936 36.751 4.48192C36.2889 2.72139 34.5871 2.35461 32.6798 2.35461C30.7726 2.35461 29.0414 2.75073 28.6233 4.58462C28.5572 4.87804 28.5646 6.15443 28.5646 6.46985C28.5646 8.74387 30.4058 10.5778 32.6725 10.5778C34.9392 10.5778 36.7804 8.73654 36.7804 6.46985H36.7877Z" fill="#CCD9FD" stroke="#1C1C1C" stroke-width="0.5" stroke-linejoin="round"/>
<path d="M32.6725 8.72917C34.9413 8.72917 36.7804 6.89 36.7804 4.62127C36.7804 2.35254 34.9413 0.513367 32.6725 0.513367C30.4038 0.513367 28.5646 2.35254 28.5646 4.62127C28.5646 6.89 30.4038 8.72917 32.6725 8.72917Z" fill="#4169E1" stroke="#1C1C1C" stroke-width="0.5" stroke-linejoin="round"/>
<path d="M45.7371 43.7271C44.8568 42.5608 43.2357 42.2454 41.9886 43.0083L31.9536 49.1408C31.9169 49.6909 31.8802 50.2338 31.8289 50.7839C31.6748 52.5445 31.4548 54.2977 31.2347 56.0508C31.1834 56.4396 31.1394 56.8357 31.0953 57.2245C32.9806 56.2562 34.6531 55.1119 34.6531 55.1119L45.0989 47.747C46.4046 46.8227 46.6907 45.0035 45.7371 43.7271Z" fill="#CCD9FD" stroke="#1C1C1C" stroke-width="0.5" stroke-linejoin="round"/>
<path d="M49.867 43.7712C48.9867 42.6048 47.3655 42.2894 46.1185 43.0523L36.0835 49.1848C36.0468 49.735 36.0101 50.2778 35.9588 50.828C35.8047 52.5885 35.5847 54.3417 35.3646 56.0949C35.3132 56.4837 35.2692 56.8798 35.2252 57.2686C37.1105 56.3003 38.783 55.156 38.783 55.156L49.2288 47.7911C50.5345 46.8668 50.8206 45.0476 49.867 43.7712Z" fill="#CCD9FD" stroke="#1C1C1C" stroke-width="0.5" stroke-linejoin="round"/>
<path d="M42.4581 55.1706C41.8639 55.5374 41.2477 55.8455 40.5949 56.0802C39.2378 56.579 36.8464 57.3933 35.1299 57.584C23.2683 58.9117 19.1531 56.3076 19.1531 56.3076L15.4046 56.1756V43.6391H18.0601C18.0601 43.6391 20.2094 41.996 22.6154 41.996H26.1512C27.9924 41.996 29.7749 42.6928 31.1247 43.9399L38.5556 50.7986L49.4782 44.1233C50.5932 43.4411 52.0676 43.5364 53.0066 44.4534C54.3123 45.7298 54.0996 47.8057 52.6692 48.818L42.4507 55.1779L42.4581 55.1706Z" fill="#CCD9FD" stroke="#1C1C1C" stroke-width="0.5" stroke-linejoin="round"/>
<path d="M7.13744 42.4435C7.04208 50.0064 7.04208 53.7916 7.13744 61.3545C10.6658 61.5306 12.4337 61.5306 15.9694 61.3545C16.0648 53.7916 16.0575 50.0064 15.9694 42.4435C12.441 42.2674 10.6732 42.2674 7.13744 42.4435Z" fill="#4169E1" stroke="#1C1C1C" stroke-width="0.5" stroke-linecap="round" stroke-linejoin="round"/>
<path d="M26.7894 55.1633L38.0568 51.2388C38.0568 51.2388 39.5752 49.9698 38.0568 48.4513C36.5383 46.9329 33.6261 46.9329 32.4891 47.439C31.3521 47.9452 29.0707 48.3266 28.1831 48.4513C27.2955 48.576 24.2586 46.302 21.9773 46.302C19.6959 46.302 18.5589 46.8082 18.5589 46.8082" fill="#CCD9FD"/>
<path d="M29.3861 52.1704L38.064 51.2314C38.064 51.2314 39.5825 49.9624 38.064 48.4439C36.5456 46.9255 33.6334 46.9255 32.4964 47.4316C31.3593 47.9378 29.078 48.3192 28.1904 48.4439C27.3028 48.5686 24.2659 46.2946 21.9845 46.2946C19.7032 46.2946 18.5662 46.8008 18.5662 46.8008" stroke="#1C1C1C" stroke-width="0.5" stroke-linecap="round" stroke-linejoin="round"/>
<path d="M40.4115 27.1634C40.4115 31.2053 37.0811 34.4843 32.9806 34.4843C28.88 34.4843 25.2562 30.9339 25.2562 26.892C24.8601 20.0699 28.88 19.8425 32.9806 19.8425C37.0811 19.8425 40.6389 20.1946 40.4115 27.1634Z" fill="#FF9500" stroke="#1C1C1C" stroke-width="0.5" stroke-linejoin="round"/>
<path d="M32.8045 32.5257C36.9858 32.5257 40.3822 29.078 40.3822 24.8234C40.3822 20.5687 36.9931 17.121 32.8045 17.121C28.616 17.121 25.2269 20.5687 25.2269 24.8234C25.2269 29.078 28.616 32.5257 32.8045 32.5257Z" fill="#FFE2C8" stroke="#1C1C1C" stroke-width="0.5" stroke-linejoin="round"/>
<path d="M32.8265 30.061C35.7167 30.061 38.0641 27.7136 38.0641 24.8234C38.0641 21.9332 35.7167 19.5858 32.8265 19.5858C29.9363 19.5858 27.5889 21.9332 27.5889 24.8234C27.5889 27.7136 29.9363 30.061 32.8265 30.061Z" fill="#FF9500" stroke="#1C1C1C" stroke-width="0.5" stroke-linejoin="round"/>
<path d="M40.4115 31.8289C40.4115 35.8707 37.0811 39.1497 32.9806 39.1497C28.88 39.1497 25.2562 35.5993 25.2562 31.5575C24.8601 24.7354 28.88 24.508 32.9806 24.508C37.0811 24.508 40.6389 24.8601 40.4115 31.8289Z" fill="#FF9500" stroke="#1C1C1C" stroke-width="0.5" stroke-linejoin="round"/>
<path d="M32.8045 37.1985C36.9858 37.1985 40.3822 33.7508 40.3822 29.4961C40.3822 25.2415 36.9931 21.7938 32.8045 21.7938C28.616 21.7938 25.2269 25.2415 25.2269 29.4961C25.2269 33.7508 28.616 37.1985 32.8045 37.1985Z" fill="#FFE2C8" stroke="#1C1C1C" stroke-width="0.5" stroke-linejoin="round"/>
<path d="M32.8265 34.7264C35.7167 34.7264 38.0641 32.3791 38.0641 29.4889C38.0641 26.5987 35.7167 24.2513 32.8265 24.2513C29.9363 24.2513 27.5889 26.5987 27.5889 29.4889C27.5889 32.3791 29.9363 34.7264 32.8265 34.7264Z" fill="#FF9500" stroke="#1C1C1C" stroke-width="0.5" stroke-linejoin="round"/>
<path d="M40.4115 38.9663C40.4115 43.0082 37.0811 46.2872 32.9806 46.2872C28.88 46.2872 25.2562 42.7368 25.2562 38.6949C24.8601 31.8728 28.88 31.6454 32.9806 31.6454C37.0811 31.6454 40.6389 31.9976 40.4115 38.9663Z" fill="#FF9500" stroke="#1C1C1C" stroke-width="0.5" stroke-linejoin="round"/>
<path d="M32.8045 44.336C36.9858 44.336 40.3822 40.8883 40.3822 36.6337C40.3822 32.379 36.9931 28.9313 32.8045 28.9313C28.616 28.9313 25.2269 32.379 25.2269 36.6337C25.2269 40.8883 28.616 44.336 32.8045 44.336Z" fill="#FFE2C8" stroke="#1C1C1C" stroke-width="0.5" stroke-linejoin="round"/>
<path d="M32.8265 41.8712C35.7167 41.8712 38.0641 39.5238 38.0641 36.6336C38.0641 33.7434 35.7167 31.396 32.8265 31.396C29.9363 31.396 27.5889 33.7434 27.5889 36.6336C27.5889 39.5238 29.9363 41.8712 32.8265 41.8712Z" fill="#FF9500" stroke="#1C1C1C" stroke-width="0.5" stroke-linejoin="round"/>
<path d="M32.8265 12.9911V10.5851" stroke="#1C1C1C" stroke-width="0.5" stroke-linejoin="round"/>
<path d="M18.9991 17.5539L22.1974 18.977" stroke="#1C1C1C" stroke-width="0.5" stroke-linejoin="round"/>
<path d="M43.1917 30.9119L46.3899 32.335" stroke="#1C1C1C" stroke-width="0.5" stroke-linejoin="round"/>
<path d="M18.9991 32.335L22.1974 30.9119" stroke="#1C1C1C" stroke-width="0.5" stroke-linejoin="round"/>
</g>
<defs>
<clipPath id="clip0_18011_7132">
<rect width="62" height="62" rx="5" fill="white"/>
</clipPath>
</defs>
</svg>
