<svg width="62" height="62" viewBox="0 0 62 62" fill="none" xmlns="http://www.w3.org/2000/svg">
<g clip-path="url(#clip0_18011_3031)">
<path d="M26.7513 31.97C26.7513 26.5529 29.2391 21.7203 33.1242 18.5637C30.1843 16.1736 26.4471 14.7401 22.3729 14.7401C12.9149 14.7401 5.24866 22.4536 5.24866 31.97C5.24866 41.4865 12.9149 49.2 22.3729 49.2C26.4471 49.2 30.1843 47.7664 33.1242 45.3763C29.2391 42.217 26.7513 37.3871 26.7513 31.97Z" fill="#A80115" stroke="#1C1C1C" stroke-width="0.5" stroke-miterlimit="10"/>
<path d="M43.8755 14.7401C39.8012 14.7401 36.064 16.1736 33.1241 18.5638C37.0093 21.723 39.4971 26.5529 39.4971 31.97C39.4971 37.3871 37.0093 42.2198 33.1241 45.3763C36.064 47.7665 39.8012 49.2 43.8755 49.2C53.3335 49.2 60.9997 41.4865 60.9997 31.97C60.9997 22.4536 53.3335 14.7401 43.8755 14.7401Z" fill="#C07404" stroke="#1C1C1C" stroke-width="0.5" stroke-miterlimit="10"/>
<path d="M39.4974 31.97C39.4974 26.5529 37.0096 21.7202 33.1244 18.5637C29.2393 21.723 26.7515 26.5529 26.7515 31.97C26.7515 37.3871 29.2393 42.2197 33.1244 45.3763C37.0096 42.217 39.4974 37.3871 39.4974 31.97Z" fill="#A0420B" stroke="#1C1C1C" stroke-width="0.5" stroke-miterlimit="10"/>
<path d="M22.5026 29.23C22.5026 23.8129 24.9904 18.9802 28.8756 15.8237C25.9357 13.4335 22.1985 12 18.1243 12C8.6662 12 1 19.7135 1 29.23C1 38.7464 8.6662 46.4599 18.1243 46.4599C22.1985 46.4599 25.9357 45.0264 28.8756 42.6362C24.9904 39.477 22.5026 34.6471 22.5026 29.23Z" fill="#EB001B" stroke="#1C1C1C" stroke-width="0.5" stroke-miterlimit="10"/>
<path d="M39.6267 12C35.5525 12 31.8153 13.4335 28.8754 15.8237C32.7605 18.983 35.2483 23.8129 35.2483 29.23C35.2483 34.6471 32.7605 39.4797 28.8754 42.6362C31.8153 45.0264 35.5525 46.4599 39.6267 46.4599C49.0848 46.4599 56.751 38.7464 56.751 29.23C56.751 19.7135 49.0848 12 39.6267 12Z" fill="#FF9500" stroke="#1C1C1C" stroke-width="0.5" stroke-miterlimit="10"/>
<path d="M35.2486 29.2299C35.2486 23.8128 32.7608 18.9801 28.8757 15.8236C24.9905 18.9829 22.5027 23.8128 22.5027 29.2299C22.5027 34.647 24.9905 39.4796 28.8757 42.6362C32.7608 39.4769 35.2486 34.647 35.2486 29.2299Z" fill="#FF5F00" stroke="#1C1C1C" stroke-width="0.5" stroke-miterlimit="10"/>
</g>
<defs>
<clipPath id="clip0_18011_3031">
<rect width="62" height="62" rx="5" fill="white"/>
</clipPath>
</defs>
</svg>
