<svg width="102" height="102" viewBox="0 0 102 102" fill="none" xmlns="http://www.w3.org/2000/svg">
<rect x="0.5" y="0.5" width="101" height="101" rx="4.5" stroke="#8A38F5" stroke-dasharray="10 5"/>
<path d="M56.9832 48.2386C45.4431 48.437 33.9109 48.4132 22.3708 48.2386C22.0374 41.278 22.0216 37.8017 22.2676 30.8411C33.8712 30.7062 45.4748 30.6903 57.0784 30.8411C57.3245 37.8017 57.3165 41.278 56.9752 48.2386H56.9832Z" fill="#2AA5A5" stroke="#1C1C1C" stroke-linejoin="round"/>
<path d="M57.0786 45.8893C45.475 46.0401 33.8714 46.0242 22.2678 45.8893C22.0218 38.9287 22.0297 35.4524 22.371 28.4918C33.9111 28.3172 45.4433 28.2934 56.9834 28.4918C57.3167 35.4524 57.3326 38.9287 57.0866 45.8893H57.0786Z" fill="#B9E5DE" stroke="#1C1C1C" stroke-linejoin="round"/>
<path d="M51.2925 43.794C43.5462 43.8257 35.7999 43.8257 28.0536 43.794C28.0218 42.2384 26.744 40.9685 25.1804 40.9605C25.1487 37.9366 25.1566 36.4286 25.2122 33.4126C26.7757 33.4126 28.0615 32.1348 28.1012 30.5792C35.8158 30.5395 43.5303 30.5395 51.2449 30.5792C51.2766 32.1348 52.5703 33.4126 54.1339 33.4126C54.1895 36.4366 54.1974 37.9446 54.1656 40.9605C52.6021 40.9605 51.3243 42.2304 51.2925 43.794Z" fill="#2AA5A5" stroke="#1C1C1C" stroke-linejoin="round"/>
<path d="M39.6579 43.6908C43.2136 43.6908 46.0947 40.8098 46.0947 37.2541C46.0947 33.6984 43.2136 30.8173 39.6579 30.8173C36.1023 30.8173 33.2212 33.6984 33.2212 37.2541C33.2212 40.8098 36.1023 43.6908 39.6579 43.6908Z" fill="#B9E5DE" stroke="#1C1C1C" stroke-linejoin="round"/>
<path d="M42.6732 35.4524C42.7525 36.1985 42.443 36.6509 41.9747 36.9048C42.7605 37.1033 43.2526 37.5953 43.1494 38.6906C43.0303 40.0558 42.062 40.4208 40.689 40.5082V41.5241C40.689 41.7542 40.5064 41.9368 40.2763 41.9368C40.0461 41.9368 39.8635 41.7542 39.8635 41.5241V40.524C39.6493 40.524 39.427 40.524 39.2127 40.5161V41.5241C39.2127 41.7542 39.0302 41.9368 38.8 41.9368C38.5698 41.9368 38.3873 41.7542 38.3873 41.5241V40.5082C38.1968 40.5082 38.0063 40.5002 37.8 40.5002H37.3317C37.0142 40.5002 36.7761 40.2145 36.8317 39.905C36.8714 39.6589 37.0936 39.4764 37.3396 39.4764C37.4984 39.4764 37.4984 39.4764 37.4984 39.4764C37.7285 39.4764 37.7841 39.3018 37.8079 39.1827V35.3016C37.7762 35.127 37.6651 34.9206 37.3317 34.9206H37.2047C36.9507 34.9206 36.7444 34.7143 36.7444 34.4603C36.7444 34.2063 36.9507 34.0079 37.1968 34.0079H38.4032V32.9999C38.4032 32.7698 38.5857 32.5872 38.8159 32.5872C39.0461 32.5872 39.2286 32.7698 39.2286 32.9999V33.9762C39.4508 33.9762 39.6572 33.9682 39.8794 33.9682V32.9999C39.8794 32.7698 40.062 32.5872 40.2921 32.5872C40.5223 32.5872 40.7048 32.7698 40.7048 32.9999V34.0079C41.7604 34.0952 42.6017 34.4444 42.6891 35.4683L42.6732 35.4524ZM41.5223 38.516C41.5223 37.4049 39.7762 37.5636 39.2207 37.5636V39.4605C39.7762 39.4605 41.5223 39.5875 41.5223 38.5081V38.516ZM41.1493 35.8492C41.1493 34.8333 39.6889 34.9841 39.2207 34.9841V36.7064C39.6889 36.7064 41.1493 36.8175 41.1493 35.8492Z" fill="#1C1C1C"/>
<path d="M79.2365 73.4566C72.5375 73.6192 65.8386 73.6762 59.1397 73.6355C56.3224 73.6192 54.8338 73.603 52.1846 73.5623C52.0005 73.5623 51.8164 73.5542 51.6404 73.546C50.0236 73.5298 48.4069 73.4973 46.7902 73.4566C46.5581 64.7718 46.5101 60.4375 46.5821 51.7526C57.539 51.6795 68.4878 51.6795 79.4446 51.7526C79.5166 60.4375 79.4766 64.7718 79.2365 73.4566Z" fill="#4169E1" stroke="#1C1C1C" stroke-linejoin="round"/>
<path d="M79.2365 70.1826C68.4237 70.4168 57.603 70.4095 46.7902 70.1826C46.5581 62.3738 46.5101 58.4658 46.5821 50.6496C57.539 50.5838 68.4878 50.5838 79.4446 50.6496C79.5166 58.4658 79.4766 62.3665 79.2365 70.1826Z" fill="#CCD9FD" stroke="#1C1C1C" stroke-miterlimit="10"/>
<path d="M79.5843 51.4627C78.4515 47.1243 77.8589 44.9473 76.6736 40.5853C74.4231 40.5382 67.664 40.4439 65.4135 40.436C65.4135 40.491 65.4135 40.546 65.421 40.6089C65.406 40.5539 65.3985 40.4989 65.391 40.436C63.1405 40.4281 62.0152 40.4281 59.7722 40.436C59.7722 40.4832 59.7497 40.5303 59.7422 40.5853C59.7422 40.5382 59.7422 40.491 59.7497 40.436C57.4992 40.4439 56.3739 40.4596 54.1309 40.4832C54.1159 40.5932 54.0859 40.6796 54.0634 40.7818C54.0784 40.6796 54.0934 40.5853 54.1159 40.4832C51.8654 40.5146 50.7401 40.5382 48.4971 40.5853C47.3118 44.9551 46.7192 47.1322 45.5864 51.4705C45.5864 51.4705 45.5864 51.4941 45.5864 51.5019C45.5639 53.4353 47.0868 55.0072 48.9622 55.0072C50.8376 55.0072 52.3605 53.4118 52.3755 51.4548C52.3755 51.4469 52.398 51.4469 52.398 51.4548C52.398 53.4039 53.9059 54.9915 55.7813 54.9915C57.6567 54.9915 59.1796 53.396 59.1796 51.4312C59.1796 51.4234 59.2021 51.4234 59.2021 51.4312C59.2021 53.396 60.7174 54.9915 62.5929 54.9915C64.4683 54.9915 65.9911 53.396 65.9836 51.4312C65.9836 51.4234 65.9836 51.4076 65.9836 51.3998C65.9836 51.3605 66.0061 51.3526 66.0061 51.3998C66.0061 51.3998 66.0061 51.4234 66.0061 51.4312C66.0061 53.396 67.529 54.9915 69.4044 54.9915C71.2799 54.9915 72.8027 53.4118 72.7877 51.4548C72.7877 51.4469 72.7877 51.4234 72.7877 51.4234H72.8102C72.8102 51.4312 72.8102 51.4469 72.8102 51.4548C72.8102 53.4039 74.3481 54.9994 76.2235 55.0072C78.0989 55.0072 79.6143 53.4432 79.5993 51.5019C79.5993 51.4941 79.5993 51.4784 79.5993 51.4705L79.5843 51.4627Z" fill="#4169E1" stroke="#1C1C1C" stroke-linejoin="round"/>
<path d="M59.6732 58.2977C56.6162 58.2977 55.0958 58.2977 52.0388 58.2828C52.063 63.0852 52.0951 65.4789 52.1917 70.2812C55.2084 70.3258 56.7128 70.3407 59.7215 70.3555C59.6893 65.5309 59.6732 63.1223 59.6732 58.2977Z" fill="white" stroke="#1C1C1C" stroke-miterlimit="10"/>
<path d="M73.1391 65.9477C69.9149 65.9856 68.3028 65.9931 65.0862 66.0007C65.0938 63.0338 65.0937 61.5504 65.1013 58.5836C68.3406 58.5836 69.9679 58.5836 73.2072 58.5684C73.1921 61.5201 73.1845 62.996 73.1467 65.9477H73.1391Z" fill="white" stroke="#1C1C1C" stroke-miterlimit="10"/>
<path d="M52.4286 48.5011C53.1174 44.293 53.4731 42.1889 54.1921 37.9733C51.9215 38.0035 50.7862 38.0262 48.5233 38.0717C47.3274 42.2798 46.7295 44.3762 45.5867 48.5465C45.5867 48.5465 45.5867 48.5692 45.5867 48.5768C45.564 50.4386 47.1004 51.9523 48.9925 51.9523C50.8846 51.9523 52.421 50.4159 52.4362 48.5314C52.4362 48.5238 52.4362 48.5086 52.4362 48.5011H52.4286Z" fill="#FFE2C8" stroke="#1C1C1C" stroke-linejoin="round"/>
<path d="M59.2938 48.4786C59.5209 44.2553 59.642 42.1437 59.8842 37.9205C57.6136 37.928 56.4784 37.9432 54.2154 37.9659C53.4964 42.1815 53.1406 44.2932 52.4519 48.4937C52.4519 48.4937 52.4519 48.5164 52.4519 48.524C52.4519 50.401 53.9732 51.9298 55.8653 51.9298C57.7574 51.9298 59.2938 50.3934 59.2938 48.5013C59.2938 48.4937 59.2938 48.4786 59.2938 48.471V48.4786Z" fill="#FF9500" stroke="#1C1C1C" stroke-linejoin="round"/>
<path d="M66.1654 48.4786C65.9384 44.2553 65.8173 42.1437 65.5827 37.9205C63.3121 37.9129 62.1768 37.9129 59.9138 37.9205C59.6716 42.1437 59.5581 44.2553 59.3311 48.4786C59.3311 48.4786 59.3311 48.5013 59.3311 48.5088C59.3311 50.401 60.8599 51.9374 62.752 51.9374C64.6442 51.9374 66.1806 50.401 66.173 48.5088C66.173 48.5013 66.173 48.4861 66.173 48.4786H66.1654Z" fill="#FFE2C8" stroke="#1C1C1C" stroke-linejoin="round"/>
<path d="M73.0302 48.5011C72.3415 44.293 71.9857 42.1889 71.2667 37.9733C68.9962 37.943 67.8609 37.9354 65.5979 37.9279C65.8401 42.1511 65.9612 44.2627 66.1882 48.4859C66.1882 48.4859 66.1882 48.5086 66.1882 48.5162C66.1882 50.4083 67.7247 51.9448 69.6168 51.9448C71.5089 51.9448 73.0453 50.4235 73.0302 48.5389C73.0302 48.5314 73.0302 48.5162 73.0302 48.5086V48.5011Z" fill="#FF9500" stroke="#1C1C1C" stroke-linejoin="round"/>
<path d="M79.8952 48.5465C78.7524 44.3687 78.1544 42.2722 76.9586 38.0717C74.6881 38.0262 73.5528 38.0035 71.2898 37.9733C72.0088 42.1889 72.3645 44.3005 73.0533 48.5011C73.0533 48.5011 73.0533 48.5238 73.0533 48.5314C73.0533 50.4083 74.6048 51.9448 76.4969 51.9523C78.3891 51.9523 79.9179 50.4462 79.9028 48.5768C79.9028 48.5692 79.9028 48.5541 79.9028 48.5465H79.8952Z" fill="#FFE2C8" stroke="#1C1C1C" stroke-linejoin="round"/>
</svg>
