<svg width="102" height="102" viewBox="0 0 102 102" fill="none" xmlns="http://www.w3.org/2000/svg">
<rect x="0.5" y="0.5" width="101" height="101" rx="4.5" stroke="#9747FF" stroke-dasharray="10 5"/>
<path d="M74.0955 68.5507V76.2233C74.0955 78.855 63.7946 81 51.0947 81C38.3948 81 28.086 78.855 28.086 76.2233V68.5507H74.0955Z" fill="#4169E1" stroke="black" stroke-width="0.5" stroke-linejoin="round"/>
<path d="M51.0907 72.9172C63.7959 72.9172 74.0954 70.9365 74.0954 68.4932C74.0954 66.0499 63.7959 64.0692 51.0907 64.0692C38.3855 64.0692 28.0859 66.0499 28.0859 68.4932C28.0859 70.9365 38.3855 72.9172 51.0907 72.9172Z" fill="#CCD9FD" stroke="black" stroke-width="0.5" stroke-linejoin="round"/>
<mask id="mask0_18011_8421" style="mask-type:alpha" maskUnits="userSpaceOnUse" x="23" y="20" width="56" height="47">
<rect x="23.7197" y="20" width="54.6404" height="46.9569" fill="#D9D9D9"/>
</mask>
<g mask="url(#mask0_18011_8421)">
<ellipse cx="51.0396" cy="47.3198" rx="26.4665" ry="26.4666" fill="#E8EDFA" stroke="black" stroke-width="0.5" stroke-linecap="round" stroke-linejoin="round"/>
</g>
<path d="M68.5576 24.3541C69.3516 24.6444 69.9919 24.8834 70.6237 25.1225C71.5201 25.4555 71.5201 26.719 70.6237 27.052C69.9834 27.291 69.3431 27.5301 68.5576 27.8204C68.2759 27.9228 68.0454 28.1533 67.9344 28.4351C67.6441 29.2291 67.405 29.8694 67.166 30.5012C66.833 31.3976 65.5695 31.3976 65.2365 30.5012C64.9974 29.8609 64.7584 29.2205 64.4681 28.4351C64.3657 28.1533 64.1351 27.9228 63.8449 27.8118C63.0509 27.5216 62.4106 27.2825 61.7788 27.0435C60.8823 26.7105 60.8823 25.4469 61.7788 25.114C62.4191 24.8749 63.0594 24.6358 63.8449 24.3456C64.1266 24.2431 64.3571 24.0126 64.4596 23.7223C64.7499 22.9283 64.9889 22.288 65.228 21.6562C65.5609 20.7598 66.8245 20.7598 67.1574 21.6562C67.3965 22.2965 67.6356 22.9369 67.9258 23.7223C68.0283 24.0041 68.2588 24.2346 68.5405 24.3456L68.5576 24.3541Z" fill="white" stroke="black" stroke-width="0.5" stroke-linejoin="round"/>
<path d="M51.0907 69.0382C61.3456 69.0382 69.6589 67.7156 69.6589 66.0842C69.6589 64.4527 61.3456 63.1301 51.0907 63.1301C40.8357 63.1301 32.5225 64.4527 32.5225 66.0842C32.5225 67.7156 40.8357 69.0382 51.0907 69.0382Z" fill="#4169E1" stroke="black" stroke-width="0.5" stroke-linejoin="round"/>
<path d="M58.6315 54.7573V41.4629H63.9376C64.7841 41.4629 65.5421 41.6377 66.2117 41.9872C66.8939 42.3242 67.3634 41.3864 67.7551 42.048C68.1467 42.7096 68.4099 43.184 68.4099 44.1077V45.4465C68.4099 46.3828 68.2141 47.7731 67.8224 48.4471C67.4434 49.1087 66.9128 49.6081 66.2306 49.9451C65.561 50.2822 64.7967 50.4507 63.9376 50.4507H62.1184V54.7573H58.6315ZM63.426 47.642C63.8429 47.642 64.1713 47.5109 64.4114 47.2488C64.6641 46.9866 64.7904 46.5809 64.7904 46.0317V45.8632C64.7904 45.3264 64.6641 44.9269 64.4114 44.6648C64.1713 44.4026 63.8429 44.2716 63.426 44.2716H62.1184V47.642H63.426Z" fill="#FF9500" stroke="black" stroke-width="0.5" stroke-linejoin="round"/>
<path d="M48.5458 54.7572H44.7178L44.7178 52.5L48.7408 47.8479L44.9642 41.4628L44.9549 39L48.9438 41.4628L50.744 45.0205L52.6012 41.4628L56.5028 39L56.3913 41.4628L52.6391 47.8479L56.6187 52.3429V54.7572H52.6391L50.5924 50.8438L48.5458 54.7572Z" fill="#FF9500" stroke="black" stroke-width="0.5" stroke-linejoin="round"/>
<path d="M42.9992 54.8198H34V40.9879H42.8283V43.9102H37.4934V46.3648H42.2208V49.2091H37.4934V51.8781H42.9992V54.8198Z" fill="#FF9500" stroke="black" stroke-width="0.5" stroke-linejoin="round"/>
<path d="M58.6315 52.2944V39H63.9376C64.7841 39 65.5421 39.1748 66.2117 39.5243C66.8939 39.8613 67.4308 40.3607 67.8224 41.0223C68.2141 41.6839 68.4099 42.4765 68.4099 43.4003V43.5688C68.4099 44.505 68.2141 45.3102 67.8224 45.9843C67.4434 46.6459 66.9128 47.1452 66.2306 47.4822C65.561 47.8193 64.7967 47.9878 63.9376 47.9878H62.1184V52.2944H58.6315ZM63.426 45.1791C63.8429 45.1791 64.1713 45.048 64.4114 44.7859C64.6641 44.5237 64.7904 44.118 64.7904 43.5688V43.4003C64.7904 42.8635 64.6641 42.464 64.4114 42.2019C64.1713 41.9398 63.8429 41.8087 63.426 41.8087H62.1184V45.1791H63.426Z" fill="#FFC794" stroke="black" stroke-width="0.5" stroke-linejoin="round"/>
<path d="M48.5457 52.2944H44.7178L48.7163 45.4225L44.9641 39H48.9437L50.744 42.5577L52.6011 39H56.3912L52.639 45.3851L56.6186 52.2944H52.639L50.5924 48.381L48.5457 52.2944Z" fill="#FFC794" stroke="black" stroke-width="0.5" stroke-linejoin="round"/>
<path d="M42.9826 52.2944H34.0002V39H42.8121V41.8087H37.487V44.168H42.2057V46.9018H37.487V49.467H42.9826V52.2944Z" fill="#FFC794" stroke="black" stroke-width="0.5" stroke-linejoin="round"/>
</svg>
