<svg width="102" height="102" viewBox="0 0 102 102" fill="none" xmlns="http://www.w3.org/2000/svg">
<rect x="0.5" y="0.5" width="101" height="101" rx="4.5" stroke="#8A38F5" stroke-dasharray="10 5"/>
<path d="M21.7197 39.4194C21.7197 36.1057 24.406 33.4194 27.7197 33.4194H74.7197C78.0334 33.4194 80.7197 36.1057 80.7197 39.4194V75C80.7197 78.3137 78.0334 81 74.7197 81H27.7197C24.406 81 21.7197 78.3137 21.7197 75V39.4194Z" fill="#4169E1" stroke="#1C1C1C" stroke-width="0.5" stroke-miterlimit="10" stroke-linejoin="round"/>
<path d="M21.7197 28C21.7197 24.6863 24.406 22 27.7197 22H74.7197C78.0334 22 80.7197 24.6863 80.7197 28V69.2903C80.7197 72.604 78.0334 75.2903 74.7197 75.2903H27.7197C24.406 75.2903 21.7197 72.604 21.7197 69.2903V28Z" fill="#E8EDFA" stroke="#1C1C1C" stroke-width="0.5" stroke-miterlimit="10" stroke-linejoin="round"/>
<path d="M26.9536 70.5323H75.4859" stroke="#4169E1" stroke-width="0.5" stroke-miterlimit="10" stroke-linecap="round" stroke-linejoin="round" stroke-dasharray="5 5"/>
<path d="M26.9536 41.9839H75.4859" stroke="#4169E1" stroke-width="0.5" stroke-miterlimit="10" stroke-linecap="round" stroke-linejoin="round" stroke-dasharray="5 5"/>
<path d="M26.9536 56.2581H75.4859" stroke="#4169E1" stroke-width="0.5" stroke-miterlimit="10" stroke-linecap="round" stroke-linejoin="round" stroke-dasharray="5 5"/>
<path d="M26.9536 27.7096H75.4859" stroke="#4169E1" stroke-width="0.5" stroke-miterlimit="10" stroke-linecap="round" stroke-linejoin="round" stroke-dasharray="5 5"/>
<path d="M75.2371 65.2408C75.0558 64.0731 74.8552 62.946 74.6405 61.8613C74.3894 60.5929 72.9861 60.0511 71.9572 60.8342C71.4747 61.2018 70.912 61.6999 70.3205 62.2642L70.3047 62.2801L58.2251 49.9011C57.4584 49.1154 56.2017 49.0945 55.4093 49.8544L50.5446 54.5199C49.7412 55.2903 48.4635 55.2566 47.7018 54.445L40.1899 46.4404C39.4723 45.6758 38.2862 45.5952 37.4718 46.2556L31.0552 51.4588C30.198 52.1539 30.0659 53.412 30.7599 54.27L31.2345 54.8567C31.9298 55.7163 33.1906 55.8486 34.0492 55.1523L37.0321 52.7331C37.8465 52.0726 39.0327 52.1533 39.7503 52.9179L47.524 61.2014C48.2856 62.013 49.5633 62.0467 50.3666 61.2764L55.2985 56.5471C56.0908 55.7873 57.3475 55.8082 58.1142 56.5938L67.0164 65.7165C66.3708 66.4423 65.825 67.085 65.4766 67.5234C64.7431 68.4475 65.2598 69.7753 66.4163 70.0088C67.4815 70.224 68.5843 70.4263 69.7234 70.6119C71.055 70.8292 72.3477 71.0093 73.5974 71.1573C74.8287 71.3031 75.8693 70.2751 75.7363 69.0423C75.6043 67.819 75.4399 66.5501 75.2362 65.2399L75.2371 65.2408Z" fill="#4169E1" stroke="#1C1C1C" stroke-width="0.5" stroke-miterlimit="10" stroke-linejoin="round"/>
<path d="M69.7287 28.0461C68.59 28.2318 67.4872 28.4344 66.4217 28.6497C65.266 28.8832 64.7487 30.2112 65.4819 31.1346C65.861 31.6132 66.4758 32.3342 67.1987 33.1402L65.4269 34.8331C64.6845 35.5424 63.5097 35.5227 62.7916 34.7889C62.0735 34.055 60.8987 34.0353 60.1563 34.7445L57.3202 37.4541C56.5244 38.2143 55.264 38.1888 54.4997 37.397L44.558 27.0987C43.8484 26.3636 42.6989 26.2816 41.8921 26.9083L28.0551 37.6573C27.1836 38.3342 27.0251 39.5891 27.7009 40.4615L28.1633 41.0585C28.8404 41.9325 30.0982 42.0914 30.9713 41.4132L41.4376 33.283C42.2444 32.6563 43.3938 32.7384 44.1034 33.4734L54.3646 44.1021C55.1289 44.8938 56.3893 44.9193 57.185 44.1591L60.0446 41.4272C60.7869 40.7179 61.9617 40.7377 62.6798 41.4715C63.3979 42.2054 64.5728 42.2251 65.3151 41.5158L70.501 36.5608C71.0282 37.0561 71.5275 37.4936 71.9616 37.8247C72.9905 38.6079 74.3938 38.0661 74.6449 36.7977C74.8596 35.713 75.0602 34.5859 75.2415 33.4182C75.4446 32.1085 75.6091 30.8398 75.7412 29.6169C75.8744 28.3837 74.8333 27.3554 73.6015 27.5013C72.3522 27.6492 71.0599 27.8289 69.7287 28.0461Z" fill="#FF9500" stroke="#1C1C1C" stroke-width="0.5" stroke-miterlimit="10" stroke-linejoin="round"/>
</svg>
