<svg width="109" height="105" viewBox="0 0 109 105" fill="none" xmlns="http://www.w3.org/2000/svg">
<rect x="0.5" y="0.5" width="107.44" height="103.51" rx="4.5" stroke="#8A38F5" stroke-dasharray="10 5"/>
<g clip-path="url(#clip0_18011_7055)">
<path d="M65.59 34.26C65.9 34.08 66.28 34.08 66.59 34.26L87.24 46.18C87.55 46.36 87.74 46.69 87.74 47.05V70.9C87.74 71.26 87.55 71.59 87.24 71.77L66.59 83.69C66.28 83.87 65.9 83.87 65.59 83.69L44.94 71.77C44.63 71.59 44.44 71.26 44.44 70.9V47.05C44.44 46.69 44.63 46.36 44.94 46.18L65.59 34.26Z" fill="#CCD9FD" stroke="#1C1C1C" stroke-width="0.5" stroke-miterlimit="10"/>
<path d="M65.59 28.26C65.9 28.08 66.28 28.08 66.59 28.26L87.24 40.18C87.55 40.36 87.74 40.69 87.74 41.05V64.9C87.74 65.26 87.55 65.59 87.24 65.77L66.59 77.69C66.28 77.87 65.9 77.87 65.59 77.69L44.94 65.77C44.63 65.59 44.44 65.26 44.44 64.9V41.05C44.44 40.69 44.63 40.36 44.94 40.18L65.59 28.26Z" fill="#4169E1" stroke="#1C1C1C" stroke-width="0.5" stroke-miterlimit="10"/>
<path d="M66.09 32.97L83.41 42.97V62.97L66.09 72.97L48.77 62.97V42.97L66.09 32.97Z" fill="#CCD9FD" stroke="#1C1C1C" stroke-width="0.5" stroke-linejoin="round"/>
<mask id="mask0_18011_7055" style="mask-type:alpha" maskUnits="userSpaceOnUse" x="48" y="32" width="36" height="42">
<path d="M66.09 32.97L83.41 42.97V62.97L66.09 72.97L48.77 62.97V42.97L66.09 32.97Z" fill="#CCD9FD" stroke="#1C1C1C" stroke-width="0.5" stroke-linejoin="round"/>
</mask>
<g mask="url(#mask0_18011_7055)">
<path d="M76.09 70.97C66.5 70.99 72.09 82.47 48.09 65.89C52.79 58.77 55.23 55.17 60.06 47.97C64.87 55.16 67.31 58.77 72.09 65.95L76.09 70.97Z" fill="#FFE2C8" stroke="#1C1C1C" stroke-width="0.5" stroke-linecap="round" stroke-linejoin="round"/>
<path d="M84.59 69.47C77.59 74.03 65.39 76.47 58.59 76.47C61.99 71.27 72.21 58.17 75.64 52.97C79.05 58.16 82.76 62.32 86.09 67.47L84.59 69.47Z" fill="#FFE2C8" stroke="#1C1C1C" stroke-width="0.5" stroke-linecap="round" stroke-linejoin="round"/>
<path d="M74.09 44.98C74.09 42.77 72.28 40.98 70.09 40.97C67.88 40.97 66.09 42.76 66.09 44.97C66.09 47.18 67.89 48.97 70.09 48.97C72.29 48.97 74.09 47.2 74.09 44.98Z" fill="#FF9500" stroke="#1C1C1C" stroke-width="0.5" stroke-miterlimit="10"/>
</g>
<path d="M66.09 32.97L83.41 42.97V62.97L66.09 72.97L48.77 62.97V42.97L66.09 32.97Z" stroke="#1C1C1C" stroke-width="0.5" stroke-linejoin="round"/>
<path d="M59.39 46.28C59.39 56.59 50.91 64.95 40.45 64.95C29.99 64.95 20.77 55.9 20.77 45.59C19.75 28.2 30 27.61 40.46 27.61C50.92 27.61 59.97 28.51 59.4 46.28H59.39Z" fill="#FF9500" stroke="#1C1C1C" stroke-width="0.5" stroke-linejoin="round"/>
<path d="M40.01 59.96C50.68 59.96 59.32 51.17 59.32 40.33C59.32 29.49 50.68 20.7 40.01 20.7C29.34 20.7 20.7 29.49 20.7 40.33C20.7 51.17 29.35 59.96 40.01 59.96Z" fill="#FFE2C8" stroke="#1C1C1C" stroke-width="0.5" stroke-linejoin="round"/>
<path d="M40.06 55.54C48.46 55.54 55.27 48.73 55.27 40.33C55.27 31.93 48.46 25.12 40.06 25.12C31.66 25.12 24.85 31.93 24.85 40.33C24.85 48.73 31.66 55.54 40.06 55.54Z" fill="#FF9500" stroke="#1C1C1C" stroke-width="0.5" stroke-linejoin="round"/>
<path d="M46.76 35.81C46.94 37.57 46.22 38.64 45.11 39.24C46.97 39.72 48.12 40.86 47.9 43.46C47.61 46.68 45.34 47.56 42.08 47.75V50.16C42.08 50.7 41.64 51.13 41.11 51.13C40.58 51.13 40.14 50.69 40.14 50.16V47.8C39.64 47.8 39.12 47.8 38.6 47.78V50.16C38.6 50.7 38.16 51.13 37.63 51.13C37.1 51.13 36.66 50.69 36.66 50.16V47.75C36.21 47.75 35.75 47.73 35.28 47.73H34.17C33.42 47.73 32.86 47.06 32.98 46.32C33.08 45.73 33.59 45.31 34.19 45.31C34.57 45.31 34.56 45.3 34.56 45.3C35.1 45.3 35.24 44.9 35.28 44.61V39.28V35.45C35.21 35.05 34.94 34.55 34.15 34.55C34.15 34.55 34.15 34.55 33.84 34.54C33.24 34.54 32.75 34.06 32.75 33.46C32.75 32.86 33.23 32.39 33.82 32.39H36.67V30.01C36.67 29.47 37.11 29.04 37.64 29.04C38.17 29.04 38.61 29.48 38.61 30.01V32.32C39.13 32.32 39.63 32.3 40.15 32.3V30.01C40.15 29.47 40.59 29.04 41.12 29.04C41.65 29.04 42.09 29.48 42.09 30.01V32.39C44.58 32.6 46.58 33.41 46.78 35.84L46.76 35.81ZM44.04 43.05C44.04 40.43 39.92 40.81 38.6 40.81V45.29C39.91 45.29 44.04 45.6 44.04 43.05ZM43.15 36.74C43.15 34.33 39.7 34.69 38.59 34.69V38.76C39.7 38.76 43.15 39.02 43.15 36.74Z" fill="white"/>
</g>
<defs>
<clipPath id="clip0_18011_7055">
<rect width="68.44" height="64.51" fill="white" transform="translate(20 20)"/>
</clipPath>
</defs>
</svg>
